<?xml version="1.0" encoding="utf-8" standalone="no"?>
<!DOCTYPE svg PUBLIC "-//W3C//DTD SVG 1.1//EN"
  "http://www.w3.org/Graphics/SVG/1.1/DTD/svg11.dtd">
<svg xmlns:xlink="http://www.w3.org/1999/xlink" width="1104.716898pt" height="564.68004pt" viewBox="0 0 1104.716898 564.68004" xmlns="http://www.w3.org/2000/svg" version="1.1">
 <metadata>
  <rdf:RDF xmlns:dc="http://purl.org/dc/elements/1.1/" xmlns:cc="http://creativecommons.org/ns#" xmlns:rdf="http://www.w3.org/1999/02/22-rdf-syntax-ns#">
   <cc:Work>
    <dc:type rdf:resource="http://purl.org/dc/dcmitype/StillImage"/>
    <dc:date>2025-05-10T21:06:44.044600</dc:date>
    <dc:format>image/svg+xml</dc:format>
    <dc:creator>
     <cc:Agent>
      <dc:title>Matplotlib v3.10.0, https://matplotlib.org/</dc:title>
     </cc:Agent>
    </dc:creator>
   </cc:Work>
  </rdf:RDF>
 </metadata>
 <defs>
  <style type="text/css">*{stroke-linejoin: round; stroke-linecap: butt}</style>
 </defs>
 <g id="figure_1">
  <g id="patch_1">
   <path d="M 0 564.68004 
L 1104.716898 564.68004 
L 1104.716898 0 
L 0 0 
z
" style="fill: #ffffff"/>
  </g>
  <g id="axes_1">
   <g id="patch_2">
    <path d="M 102.25471 450.72 
L 771.85471 450.72 
L 771.85471 7.2 
L 102.25471 7.2 
z
" style="fill: #ffffff"/>
   </g>
   <g id="matplotlib.axis_1">
    <g id="xtick_1">
     <g id="line2d_1">
      <defs>
       <path id="mdb56dcc624" d="M 0 0 
L 0 3.5 
" style="stroke: #000000; stroke-width: 0.8"/>
      </defs>
      <g>
       <use xlink:href="#mdb56dcc624" x="132.691074" y="450.72" style="stroke: #000000; stroke-width: 0.8"/>
      </g>
     </g>
     <g id="text_1">
      <!-- 2022-09-01 (18:00) -->
      <g transform="translate(12.518906 535.473553) rotate(-30) scale(0.14 -0.14)">
       <defs>
        <path id="DejaVuSans-32" d="M 1228 531 
L 3431 531 
L 3431 0 
L 469 0 
L 469 531 
Q 828 903 1448 1529 
Q 2069 2156 2228 2338 
Q 2531 2678 2651 2914 
Q 2772 3150 2772 3378 
Q 2772 3750 2511 3984 
Q 2250 4219 1831 4219 
Q 1534 4219 1204 4116 
Q 875 4013 500 3803 
L 500 4441 
Q 881 4594 1212 4672 
Q 1544 4750 1819 4750 
Q 2544 4750 2975 4387 
Q 3406 4025 3406 3419 
Q 3406 3131 3298 2873 
Q 3191 2616 2906 2266 
Q 2828 2175 2409 1742 
Q 1991 1309 1228 531 
z
" transform="scale(0.015625)"/>
        <path id="DejaVuSans-30" d="M 2034 4250 
Q 1547 4250 1301 3770 
Q 1056 3291 1056 2328 
Q 1056 1369 1301 889 
Q 1547 409 2034 409 
Q 2525 409 2770 889 
Q 3016 1369 3016 2328 
Q 3016 3291 2770 3770 
Q 2525 4250 2034 4250 
z
M 2034 4750 
Q 2819 4750 3233 4129 
Q 3647 3509 3647 2328 
Q 3647 1150 3233 529 
Q 2819 -91 2034 -91 
Q 1250 -91 836 529 
Q 422 1150 422 2328 
Q 422 3509 836 4129 
Q 1250 4750 2034 4750 
z
" transform="scale(0.015625)"/>
        <path id="DejaVuSans-2d" d="M 313 2009 
L 1997 2009 
L 1997 1497 
L 313 1497 
L 313 2009 
z
" transform="scale(0.015625)"/>
        <path id="DejaVuSans-39" d="M 703 97 
L 703 672 
Q 941 559 1184 500 
Q 1428 441 1663 441 
Q 2288 441 2617 861 
Q 2947 1281 2994 2138 
Q 2813 1869 2534 1725 
Q 2256 1581 1919 1581 
Q 1219 1581 811 2004 
Q 403 2428 403 3163 
Q 403 3881 828 4315 
Q 1253 4750 1959 4750 
Q 2769 4750 3195 4129 
Q 3622 3509 3622 2328 
Q 3622 1225 3098 567 
Q 2575 -91 1691 -91 
Q 1453 -91 1209 -44 
Q 966 3 703 97 
z
M 1959 2075 
Q 2384 2075 2632 2365 
Q 2881 2656 2881 3163 
Q 2881 3666 2632 3958 
Q 2384 4250 1959 4250 
Q 1534 4250 1286 3958 
Q 1038 3666 1038 3163 
Q 1038 2656 1286 2365 
Q 1534 2075 1959 2075 
z
" transform="scale(0.015625)"/>
        <path id="DejaVuSans-31" d="M 794 531 
L 1825 531 
L 1825 4091 
L 703 3866 
L 703 4441 
L 1819 4666 
L 2450 4666 
L 2450 531 
L 3481 531 
L 3481 0 
L 794 0 
L 794 531 
z
" transform="scale(0.015625)"/>
        <path id="DejaVuSans-20" transform="scale(0.015625)"/>
        <path id="DejaVuSans-28" d="M 1984 4856 
Q 1566 4138 1362 3434 
Q 1159 2731 1159 2009 
Q 1159 1288 1364 580 
Q 1569 -128 1984 -844 
L 1484 -844 
Q 1016 -109 783 600 
Q 550 1309 550 2009 
Q 550 2706 781 3412 
Q 1013 4119 1484 4856 
L 1984 4856 
z
" transform="scale(0.015625)"/>
        <path id="DejaVuSans-38" d="M 2034 2216 
Q 1584 2216 1326 1975 
Q 1069 1734 1069 1313 
Q 1069 891 1326 650 
Q 1584 409 2034 409 
Q 2484 409 2743 651 
Q 3003 894 3003 1313 
Q 3003 1734 2745 1975 
Q 2488 2216 2034 2216 
z
M 1403 2484 
Q 997 2584 770 2862 
Q 544 3141 544 3541 
Q 544 4100 942 4425 
Q 1341 4750 2034 4750 
Q 2731 4750 3128 4425 
Q 3525 4100 3525 3541 
Q 3525 3141 3298 2862 
Q 3072 2584 2669 2484 
Q 3125 2378 3379 2068 
Q 3634 1759 3634 1313 
Q 3634 634 3220 271 
Q 2806 -91 2034 -91 
Q 1263 -91 848 271 
Q 434 634 434 1313 
Q 434 1759 690 2068 
Q 947 2378 1403 2484 
z
M 1172 3481 
Q 1172 3119 1398 2916 
Q 1625 2713 2034 2713 
Q 2441 2713 2670 2916 
Q 2900 3119 2900 3481 
Q 2900 3844 2670 4047 
Q 2441 4250 2034 4250 
Q 1625 4250 1398 4047 
Q 1172 3844 1172 3481 
z
" transform="scale(0.015625)"/>
        <path id="DejaVuSans-3a" d="M 750 794 
L 1409 794 
L 1409 0 
L 750 0 
L 750 794 
z
M 750 3309 
L 1409 3309 
L 1409 2516 
L 750 2516 
L 750 3309 
z
" transform="scale(0.015625)"/>
        <path id="DejaVuSans-29" d="M 513 4856 
L 1013 4856 
Q 1481 4119 1714 3412 
Q 1947 2706 1947 2009 
Q 1947 1309 1714 600 
Q 1481 -109 1013 -844 
L 513 -844 
Q 928 -128 1133 580 
Q 1338 1288 1338 2009 
Q 1338 2731 1133 3434 
Q 928 4138 513 4856 
z
" transform="scale(0.015625)"/>
       </defs>
       <use xlink:href="#DejaVuSans-32"/>
       <use xlink:href="#DejaVuSans-30" transform="translate(63.623047 0)"/>
       <use xlink:href="#DejaVuSans-32" transform="translate(127.246094 0)"/>
       <use xlink:href="#DejaVuSans-32" transform="translate(190.869141 0)"/>
       <use xlink:href="#DejaVuSans-2d" transform="translate(254.492188 0)"/>
       <use xlink:href="#DejaVuSans-30" transform="translate(290.576172 0)"/>
       <use xlink:href="#DejaVuSans-39" transform="translate(354.199219 0)"/>
       <use xlink:href="#DejaVuSans-2d" transform="translate(417.822266 0)"/>
       <use xlink:href="#DejaVuSans-30" transform="translate(453.90625 0)"/>
       <use xlink:href="#DejaVuSans-31" transform="translate(517.529297 0)"/>
       <use xlink:href="#DejaVuSans-20" transform="translate(581.152344 0)"/>
       <use xlink:href="#DejaVuSans-28" transform="translate(612.939453 0)"/>
       <use xlink:href="#DejaVuSans-31" transform="translate(651.953125 0)"/>
       <use xlink:href="#DejaVuSans-38" transform="translate(715.576172 0)"/>
       <use xlink:href="#DejaVuSans-3a" transform="translate(779.199219 0)"/>
       <use xlink:href="#DejaVuSans-30" transform="translate(812.890625 0)"/>
       <use xlink:href="#DejaVuSans-30" transform="translate(876.513672 0)"/>
       <use xlink:href="#DejaVuSans-29" transform="translate(940.136719 0)"/>
      </g>
     </g>
    </g>
    <g id="xtick_2">
     <g id="line2d_2">
      <g>
       <use xlink:href="#mdb56dcc624" x="253.430367" y="450.72" style="stroke: #000000; stroke-width: 0.8"/>
      </g>
     </g>
     <g id="text_2">
      <!-- 2022-09-25 (18:00) -->
      <g transform="translate(133.2582 535.473553) rotate(-30) scale(0.14 -0.14)">
       <defs>
        <path id="DejaVuSans-35" d="M 691 4666 
L 3169 4666 
L 3169 4134 
L 1269 4134 
L 1269 2991 
Q 1406 3038 1543 3061 
Q 1681 3084 1819 3084 
Q 2600 3084 3056 2656 
Q 3513 2228 3513 1497 
Q 3513 744 3044 326 
Q 2575 -91 1722 -91 
Q 1428 -91 1123 -41 
Q 819 9 494 109 
L 494 744 
Q 775 591 1075 516 
Q 1375 441 1709 441 
Q 2250 441 2565 725 
Q 2881 1009 2881 1497 
Q 2881 1984 2565 2268 
Q 2250 2553 1709 2553 
Q 1456 2553 1204 2497 
Q 953 2441 691 2322 
L 691 4666 
z
" transform="scale(0.015625)"/>
       </defs>
       <use xlink:href="#DejaVuSans-32"/>
       <use xlink:href="#DejaVuSans-30" transform="translate(63.623047 0)"/>
       <use xlink:href="#DejaVuSans-32" transform="translate(127.246094 0)"/>
       <use xlink:href="#DejaVuSans-32" transform="translate(190.869141 0)"/>
       <use xlink:href="#DejaVuSans-2d" transform="translate(254.492188 0)"/>
       <use xlink:href="#DejaVuSans-30" transform="translate(290.576172 0)"/>
       <use xlink:href="#DejaVuSans-39" transform="translate(354.199219 0)"/>
       <use xlink:href="#DejaVuSans-2d" transform="translate(417.822266 0)"/>
       <use xlink:href="#DejaVuSans-32" transform="translate(453.90625 0)"/>
       <use xlink:href="#DejaVuSans-35" transform="translate(517.529297 0)"/>
       <use xlink:href="#DejaVuSans-20" transform="translate(581.152344 0)"/>
       <use xlink:href="#DejaVuSans-28" transform="translate(612.939453 0)"/>
       <use xlink:href="#DejaVuSans-31" transform="translate(651.953125 0)"/>
       <use xlink:href="#DejaVuSans-38" transform="translate(715.576172 0)"/>
       <use xlink:href="#DejaVuSans-3a" transform="translate(779.199219 0)"/>
       <use xlink:href="#DejaVuSans-30" transform="translate(812.890625 0)"/>
       <use xlink:href="#DejaVuSans-30" transform="translate(876.513672 0)"/>
       <use xlink:href="#DejaVuSans-29" transform="translate(940.136719 0)"/>
      </g>
     </g>
    </g>
    <g id="xtick_3">
     <g id="line2d_3">
      <g>
       <use xlink:href="#mdb56dcc624" x="375.427362" y="450.72" style="stroke: #000000; stroke-width: 0.8"/>
      </g>
     </g>
     <g id="text_3">
      <!-- 2022-10-20 (00:00) -->
      <g transform="translate(255.255195 535.473553) rotate(-30) scale(0.14 -0.14)">
       <use xlink:href="#DejaVuSans-32"/>
       <use xlink:href="#DejaVuSans-30" transform="translate(63.623047 0)"/>
       <use xlink:href="#DejaVuSans-32" transform="translate(127.246094 0)"/>
       <use xlink:href="#DejaVuSans-32" transform="translate(190.869141 0)"/>
       <use xlink:href="#DejaVuSans-2d" transform="translate(254.492188 0)"/>
       <use xlink:href="#DejaVuSans-31" transform="translate(290.576172 0)"/>
       <use xlink:href="#DejaVuSans-30" transform="translate(354.199219 0)"/>
       <use xlink:href="#DejaVuSans-2d" transform="translate(417.822266 0)"/>
       <use xlink:href="#DejaVuSans-32" transform="translate(453.90625 0)"/>
       <use xlink:href="#DejaVuSans-30" transform="translate(517.529297 0)"/>
       <use xlink:href="#DejaVuSans-20" transform="translate(581.152344 0)"/>
       <use xlink:href="#DejaVuSans-28" transform="translate(612.939453 0)"/>
       <use xlink:href="#DejaVuSans-30" transform="translate(651.953125 0)"/>
       <use xlink:href="#DejaVuSans-30" transform="translate(715.576172 0)"/>
       <use xlink:href="#DejaVuSans-3a" transform="translate(779.199219 0)"/>
       <use xlink:href="#DejaVuSans-30" transform="translate(812.890625 0)"/>
       <use xlink:href="#DejaVuSans-30" transform="translate(876.513672 0)"/>
       <use xlink:href="#DejaVuSans-29" transform="translate(940.136719 0)"/>
      </g>
     </g>
    </g>
    <g id="xtick_4">
     <g id="line2d_4">
      <g>
       <use xlink:href="#mdb56dcc624" x="497.424357" y="450.72" style="stroke: #000000; stroke-width: 0.8"/>
      </g>
     </g>
     <g id="text_4">
      <!-- 2022-11-13 (06:00) -->
      <g transform="translate(377.252189 535.473553) rotate(-30) scale(0.14 -0.14)">
       <defs>
        <path id="DejaVuSans-33" d="M 2597 2516 
Q 3050 2419 3304 2112 
Q 3559 1806 3559 1356 
Q 3559 666 3084 287 
Q 2609 -91 1734 -91 
Q 1441 -91 1130 -33 
Q 819 25 488 141 
L 488 750 
Q 750 597 1062 519 
Q 1375 441 1716 441 
Q 2309 441 2620 675 
Q 2931 909 2931 1356 
Q 2931 1769 2642 2001 
Q 2353 2234 1838 2234 
L 1294 2234 
L 1294 2753 
L 1863 2753 
Q 2328 2753 2575 2939 
Q 2822 3125 2822 3475 
Q 2822 3834 2567 4026 
Q 2313 4219 1838 4219 
Q 1578 4219 1281 4162 
Q 984 4106 628 3988 
L 628 4550 
Q 988 4650 1302 4700 
Q 1616 4750 1894 4750 
Q 2613 4750 3031 4423 
Q 3450 4097 3450 3541 
Q 3450 3153 3228 2886 
Q 3006 2619 2597 2516 
z
" transform="scale(0.015625)"/>
        <path id="DejaVuSans-36" d="M 2113 2584 
Q 1688 2584 1439 2293 
Q 1191 2003 1191 1497 
Q 1191 994 1439 701 
Q 1688 409 2113 409 
Q 2538 409 2786 701 
Q 3034 994 3034 1497 
Q 3034 2003 2786 2293 
Q 2538 2584 2113 2584 
z
M 3366 4563 
L 3366 3988 
Q 3128 4100 2886 4159 
Q 2644 4219 2406 4219 
Q 1781 4219 1451 3797 
Q 1122 3375 1075 2522 
Q 1259 2794 1537 2939 
Q 1816 3084 2150 3084 
Q 2853 3084 3261 2657 
Q 3669 2231 3669 1497 
Q 3669 778 3244 343 
Q 2819 -91 2113 -91 
Q 1303 -91 875 529 
Q 447 1150 447 2328 
Q 447 3434 972 4092 
Q 1497 4750 2381 4750 
Q 2619 4750 2861 4703 
Q 3103 4656 3366 4563 
z
" transform="scale(0.015625)"/>
       </defs>
       <use xlink:href="#DejaVuSans-32"/>
       <use xlink:href="#DejaVuSans-30" transform="translate(63.623047 0)"/>
       <use xlink:href="#DejaVuSans-32" transform="translate(127.246094 0)"/>
       <use xlink:href="#DejaVuSans-32" transform="translate(190.869141 0)"/>
       <use xlink:href="#DejaVuSans-2d" transform="translate(254.492188 0)"/>
       <use xlink:href="#DejaVuSans-31" transform="translate(290.576172 0)"/>
       <use xlink:href="#DejaVuSans-31" transform="translate(354.199219 0)"/>
       <use xlink:href="#DejaVuSans-2d" transform="translate(417.822266 0)"/>
       <use xlink:href="#DejaVuSans-31" transform="translate(453.90625 0)"/>
       <use xlink:href="#DejaVuSans-33" transform="translate(517.529297 0)"/>
       <use xlink:href="#DejaVuSans-20" transform="translate(581.152344 0)"/>
       <use xlink:href="#DejaVuSans-28" transform="translate(612.939453 0)"/>
       <use xlink:href="#DejaVuSans-30" transform="translate(651.953125 0)"/>
       <use xlink:href="#DejaVuSans-36" transform="translate(715.576172 0)"/>
       <use xlink:href="#DejaVuSans-3a" transform="translate(779.199219 0)"/>
       <use xlink:href="#DejaVuSans-30" transform="translate(812.890625 0)"/>
       <use xlink:href="#DejaVuSans-30" transform="translate(876.513672 0)"/>
       <use xlink:href="#DejaVuSans-29" transform="translate(940.136719 0)"/>
      </g>
     </g>
    </g>
    <g id="xtick_5">
     <g id="line2d_5">
      <g>
       <use xlink:href="#mdb56dcc624" x="619.421352" y="450.72" style="stroke: #000000; stroke-width: 0.8"/>
      </g>
     </g>
     <g id="text_5">
      <!-- 2022-12-07 (12:00) -->
      <g transform="translate(499.249184 535.473553) rotate(-30) scale(0.14 -0.14)">
       <defs>
        <path id="DejaVuSans-37" d="M 525 4666 
L 3525 4666 
L 3525 4397 
L 1831 0 
L 1172 0 
L 2766 4134 
L 525 4134 
L 525 4666 
z
" transform="scale(0.015625)"/>
       </defs>
       <use xlink:href="#DejaVuSans-32"/>
       <use xlink:href="#DejaVuSans-30" transform="translate(63.623047 0)"/>
       <use xlink:href="#DejaVuSans-32" transform="translate(127.246094 0)"/>
       <use xlink:href="#DejaVuSans-32" transform="translate(190.869141 0)"/>
       <use xlink:href="#DejaVuSans-2d" transform="translate(254.492188 0)"/>
       <use xlink:href="#DejaVuSans-31" transform="translate(290.576172 0)"/>
       <use xlink:href="#DejaVuSans-32" transform="translate(354.199219 0)"/>
       <use xlink:href="#DejaVuSans-2d" transform="translate(417.822266 0)"/>
       <use xlink:href="#DejaVuSans-30" transform="translate(453.90625 0)"/>
       <use xlink:href="#DejaVuSans-37" transform="translate(517.529297 0)"/>
       <use xlink:href="#DejaVuSans-20" transform="translate(581.152344 0)"/>
       <use xlink:href="#DejaVuSans-28" transform="translate(612.939453 0)"/>
       <use xlink:href="#DejaVuSans-31" transform="translate(651.953125 0)"/>
       <use xlink:href="#DejaVuSans-32" transform="translate(715.576172 0)"/>
       <use xlink:href="#DejaVuSans-3a" transform="translate(779.199219 0)"/>
       <use xlink:href="#DejaVuSans-30" transform="translate(812.890625 0)"/>
       <use xlink:href="#DejaVuSans-30" transform="translate(876.513672 0)"/>
       <use xlink:href="#DejaVuSans-29" transform="translate(940.136719 0)"/>
      </g>
     </g>
    </g>
    <g id="xtick_6">
     <g id="line2d_6">
      <g>
       <use xlink:href="#mdb56dcc624" x="741.418346" y="450.72" style="stroke: #000000; stroke-width: 0.8"/>
      </g>
     </g>
     <g id="text_6">
      <!-- 2022-12-31 (18:00) -->
      <g transform="translate(621.246179 535.473553) rotate(-30) scale(0.14 -0.14)">
       <use xlink:href="#DejaVuSans-32"/>
       <use xlink:href="#DejaVuSans-30" transform="translate(63.623047 0)"/>
       <use xlink:href="#DejaVuSans-32" transform="translate(127.246094 0)"/>
       <use xlink:href="#DejaVuSans-32" transform="translate(190.869141 0)"/>
       <use xlink:href="#DejaVuSans-2d" transform="translate(254.492188 0)"/>
       <use xlink:href="#DejaVuSans-31" transform="translate(290.576172 0)"/>
       <use xlink:href="#DejaVuSans-32" transform="translate(354.199219 0)"/>
       <use xlink:href="#DejaVuSans-2d" transform="translate(417.822266 0)"/>
       <use xlink:href="#DejaVuSans-33" transform="translate(453.90625 0)"/>
       <use xlink:href="#DejaVuSans-31" transform="translate(517.529297 0)"/>
       <use xlink:href="#DejaVuSans-20" transform="translate(581.152344 0)"/>
       <use xlink:href="#DejaVuSans-28" transform="translate(612.939453 0)"/>
       <use xlink:href="#DejaVuSans-31" transform="translate(651.953125 0)"/>
       <use xlink:href="#DejaVuSans-38" transform="translate(715.576172 0)"/>
       <use xlink:href="#DejaVuSans-3a" transform="translate(779.199219 0)"/>
       <use xlink:href="#DejaVuSans-30" transform="translate(812.890625 0)"/>
       <use xlink:href="#DejaVuSans-30" transform="translate(876.513672 0)"/>
       <use xlink:href="#DejaVuSans-29" transform="translate(940.136719 0)"/>
      </g>
     </g>
    </g>
    <g id="text_7">
     <!-- Forecast Date -->
     <g transform="translate(381.54846 554.15254) scale(0.16 -0.16)">
      <defs>
       <path id="DejaVuSans-46" d="M 628 4666 
L 3309 4666 
L 3309 4134 
L 1259 4134 
L 1259 2759 
L 3109 2759 
L 3109 2228 
L 1259 2228 
L 1259 0 
L 628 0 
L 628 4666 
z
" transform="scale(0.015625)"/>
       <path id="DejaVuSans-6f" d="M 1959 3097 
Q 1497 3097 1228 2736 
Q 959 2375 959 1747 
Q 959 1119 1226 758 
Q 1494 397 1959 397 
Q 2419 397 2687 759 
Q 2956 1122 2956 1747 
Q 2956 2369 2687 2733 
Q 2419 3097 1959 3097 
z
M 1959 3584 
Q 2709 3584 3137 3096 
Q 3566 2609 3566 1747 
Q 3566 888 3137 398 
Q 2709 -91 1959 -91 
Q 1206 -91 779 398 
Q 353 888 353 1747 
Q 353 2609 779 3096 
Q 1206 3584 1959 3584 
z
" transform="scale(0.015625)"/>
       <path id="DejaVuSans-72" d="M 2631 2963 
Q 2534 3019 2420 3045 
Q 2306 3072 2169 3072 
Q 1681 3072 1420 2755 
Q 1159 2438 1159 1844 
L 1159 0 
L 581 0 
L 581 3500 
L 1159 3500 
L 1159 2956 
Q 1341 3275 1631 3429 
Q 1922 3584 2338 3584 
Q 2397 3584 2469 3576 
Q 2541 3569 2628 3553 
L 2631 2963 
z
" transform="scale(0.015625)"/>
       <path id="DejaVuSans-65" d="M 3597 1894 
L 3597 1613 
L 953 1613 
Q 991 1019 1311 708 
Q 1631 397 2203 397 
Q 2534 397 2845 478 
Q 3156 559 3463 722 
L 3463 178 
Q 3153 47 2828 -22 
Q 2503 -91 2169 -91 
Q 1331 -91 842 396 
Q 353 884 353 1716 
Q 353 2575 817 3079 
Q 1281 3584 2069 3584 
Q 2775 3584 3186 3129 
Q 3597 2675 3597 1894 
z
M 3022 2063 
Q 3016 2534 2758 2815 
Q 2500 3097 2075 3097 
Q 1594 3097 1305 2825 
Q 1016 2553 972 2059 
L 3022 2063 
z
" transform="scale(0.015625)"/>
       <path id="DejaVuSans-63" d="M 3122 3366 
L 3122 2828 
Q 2878 2963 2633 3030 
Q 2388 3097 2138 3097 
Q 1578 3097 1268 2742 
Q 959 2388 959 1747 
Q 959 1106 1268 751 
Q 1578 397 2138 397 
Q 2388 397 2633 464 
Q 2878 531 3122 666 
L 3122 134 
Q 2881 22 2623 -34 
Q 2366 -91 2075 -91 
Q 1284 -91 818 406 
Q 353 903 353 1747 
Q 353 2603 823 3093 
Q 1294 3584 2113 3584 
Q 2378 3584 2631 3529 
Q 2884 3475 3122 3366 
z
" transform="scale(0.015625)"/>
       <path id="DejaVuSans-61" d="M 2194 1759 
Q 1497 1759 1228 1600 
Q 959 1441 959 1056 
Q 959 750 1161 570 
Q 1363 391 1709 391 
Q 2188 391 2477 730 
Q 2766 1069 2766 1631 
L 2766 1759 
L 2194 1759 
z
M 3341 1997 
L 3341 0 
L 2766 0 
L 2766 531 
Q 2569 213 2275 61 
Q 1981 -91 1556 -91 
Q 1019 -91 701 211 
Q 384 513 384 1019 
Q 384 1609 779 1909 
Q 1175 2209 1959 2209 
L 2766 2209 
L 2766 2266 
Q 2766 2663 2505 2880 
Q 2244 3097 1772 3097 
Q 1472 3097 1187 3025 
Q 903 2953 641 2809 
L 641 3341 
Q 956 3463 1253 3523 
Q 1550 3584 1831 3584 
Q 2591 3584 2966 3190 
Q 3341 2797 3341 1997 
z
" transform="scale(0.015625)"/>
       <path id="DejaVuSans-73" d="M 2834 3397 
L 2834 2853 
Q 2591 2978 2328 3040 
Q 2066 3103 1784 3103 
Q 1356 3103 1142 2972 
Q 928 2841 928 2578 
Q 928 2378 1081 2264 
Q 1234 2150 1697 2047 
L 1894 2003 
Q 2506 1872 2764 1633 
Q 3022 1394 3022 966 
Q 3022 478 2636 193 
Q 2250 -91 1575 -91 
Q 1294 -91 989 -36 
Q 684 19 347 128 
L 347 722 
Q 666 556 975 473 
Q 1284 391 1588 391 
Q 1994 391 2212 530 
Q 2431 669 2431 922 
Q 2431 1156 2273 1281 
Q 2116 1406 1581 1522 
L 1381 1569 
Q 847 1681 609 1914 
Q 372 2147 372 2553 
Q 372 3047 722 3315 
Q 1072 3584 1716 3584 
Q 2034 3584 2315 3537 
Q 2597 3491 2834 3397 
z
" transform="scale(0.015625)"/>
       <path id="DejaVuSans-74" d="M 1172 4494 
L 1172 3500 
L 2356 3500 
L 2356 3053 
L 1172 3053 
L 1172 1153 
Q 1172 725 1289 603 
Q 1406 481 1766 481 
L 2356 481 
L 2356 0 
L 1766 0 
Q 1100 0 847 248 
Q 594 497 594 1153 
L 594 3053 
L 172 3053 
L 172 3500 
L 594 3500 
L 594 4494 
L 1172 4494 
z
" transform="scale(0.015625)"/>
       <path id="DejaVuSans-44" d="M 1259 4147 
L 1259 519 
L 2022 519 
Q 2988 519 3436 956 
Q 3884 1394 3884 2338 
Q 3884 3275 3436 3711 
Q 2988 4147 2022 4147 
L 1259 4147 
z
M 628 4666 
L 1925 4666 
Q 3281 4666 3915 4102 
Q 4550 3538 4550 2338 
Q 4550 1131 3912 565 
Q 3275 0 1925 0 
L 628 0 
L 628 4666 
z
" transform="scale(0.015625)"/>
      </defs>
      <use xlink:href="#DejaVuSans-46"/>
      <use xlink:href="#DejaVuSans-6f" transform="translate(53.894531 0)"/>
      <use xlink:href="#DejaVuSans-72" transform="translate(115.076172 0)"/>
      <use xlink:href="#DejaVuSans-65" transform="translate(153.939453 0)"/>
      <use xlink:href="#DejaVuSans-63" transform="translate(215.462891 0)"/>
      <use xlink:href="#DejaVuSans-61" transform="translate(270.443359 0)"/>
      <use xlink:href="#DejaVuSans-73" transform="translate(331.722656 0)"/>
      <use xlink:href="#DejaVuSans-74" transform="translate(383.822266 0)"/>
      <use xlink:href="#DejaVuSans-20" transform="translate(423.03125 0)"/>
      <use xlink:href="#DejaVuSans-44" transform="translate(454.818359 0)"/>
      <use xlink:href="#DejaVuSans-61" transform="translate(531.820312 0)"/>
      <use xlink:href="#DejaVuSans-74" transform="translate(593.099609 0)"/>
      <use xlink:href="#DejaVuSans-65" transform="translate(632.308594 0)"/>
     </g>
    </g>
   </g>
   <g id="matplotlib.axis_2">
    <g id="ytick_1">
     <g id="line2d_7">
      <defs>
       <path id="m745e35ca3c" d="M 0 0 
L -3.5 0 
" style="stroke: #000000; stroke-width: 0.8"/>
      </defs>
      <g>
       <use xlink:href="#m745e35ca3c" x="102.25471" y="403.74554" style="stroke: #000000; stroke-width: 0.8"/>
      </g>
     </g>
     <g id="text_8">
      <!-- 5 -->
      <g transform="translate(88.89221 407.544758) scale(0.1 -0.1)">
       <use xlink:href="#DejaVuSans-35"/>
      </g>
     </g>
    </g>
    <g id="ytick_2">
     <g id="line2d_8">
      <g>
       <use xlink:href="#m745e35ca3c" x="102.25471" y="343.010123" style="stroke: #000000; stroke-width: 0.8"/>
      </g>
     </g>
     <g id="text_9">
      <!-- 10 -->
      <g transform="translate(82.52971 346.809342) scale(0.1 -0.1)">
       <use xlink:href="#DejaVuSans-31"/>
       <use xlink:href="#DejaVuSans-30" transform="translate(63.623047 0)"/>
      </g>
     </g>
    </g>
    <g id="ytick_3">
     <g id="line2d_9">
      <g>
       <use xlink:href="#m745e35ca3c" x="102.25471" y="282.274706" style="stroke: #000000; stroke-width: 0.8"/>
      </g>
     </g>
     <g id="text_10">
      <!-- 15 -->
      <g transform="translate(82.52971 286.073925) scale(0.1 -0.1)">
       <use xlink:href="#DejaVuSans-31"/>
       <use xlink:href="#DejaVuSans-35" transform="translate(63.623047 0)"/>
      </g>
     </g>
    </g>
    <g id="ytick_4">
     <g id="line2d_10">
      <g>
       <use xlink:href="#m745e35ca3c" x="102.25471" y="221.53929" style="stroke: #000000; stroke-width: 0.8"/>
      </g>
     </g>
     <g id="text_11">
      <!-- 20 -->
      <g transform="translate(82.52971 225.338509) scale(0.1 -0.1)">
       <use xlink:href="#DejaVuSans-32"/>
       <use xlink:href="#DejaVuSans-30" transform="translate(63.623047 0)"/>
      </g>
     </g>
    </g>
    <g id="ytick_5">
     <g id="line2d_11">
      <g>
       <use xlink:href="#m745e35ca3c" x="102.25471" y="160.803873" style="stroke: #000000; stroke-width: 0.8"/>
      </g>
     </g>
     <g id="text_12">
      <!-- 25 -->
      <g transform="translate(82.52971 164.603092) scale(0.1 -0.1)">
       <use xlink:href="#DejaVuSans-32"/>
       <use xlink:href="#DejaVuSans-35" transform="translate(63.623047 0)"/>
      </g>
     </g>
    </g>
    <g id="ytick_6">
     <g id="line2d_12">
      <g>
       <use xlink:href="#m745e35ca3c" x="102.25471" y="100.068457" style="stroke: #000000; stroke-width: 0.8"/>
      </g>
     </g>
     <g id="text_13">
      <!-- 30 -->
      <g transform="translate(82.52971 103.867675) scale(0.1 -0.1)">
       <use xlink:href="#DejaVuSans-33"/>
       <use xlink:href="#DejaVuSans-30" transform="translate(63.623047 0)"/>
      </g>
     </g>
    </g>
    <g id="ytick_7">
     <g id="line2d_13">
      <g>
       <use xlink:href="#m745e35ca3c" x="102.25471" y="39.33304" style="stroke: #000000; stroke-width: 0.8"/>
      </g>
     </g>
     <g id="text_14">
      <!-- 35 -->
      <g transform="translate(82.52971 43.132259) scale(0.1 -0.1)">
       <use xlink:href="#DejaVuSans-33"/>
       <use xlink:href="#DejaVuSans-35" transform="translate(63.623047 0)"/>
      </g>
     </g>
    </g>
    <g id="text_15">
     <!-- Root Mean Squared Error (RMSE) -->
     <g transform="translate(75.20221 360.62625) rotate(-90) scale(0.16 -0.16)">
      <defs>
       <path id="DejaVuSans-52" d="M 2841 2188 
Q 3044 2119 3236 1894 
Q 3428 1669 3622 1275 
L 4263 0 
L 3584 0 
L 2988 1197 
Q 2756 1666 2539 1819 
Q 2322 1972 1947 1972 
L 1259 1972 
L 1259 0 
L 628 0 
L 628 4666 
L 2053 4666 
Q 2853 4666 3247 4331 
Q 3641 3997 3641 3322 
Q 3641 2881 3436 2590 
Q 3231 2300 2841 2188 
z
M 1259 4147 
L 1259 2491 
L 2053 2491 
Q 2509 2491 2742 2702 
Q 2975 2913 2975 3322 
Q 2975 3731 2742 3939 
Q 2509 4147 2053 4147 
L 1259 4147 
z
" transform="scale(0.015625)"/>
       <path id="DejaVuSans-4d" d="M 628 4666 
L 1569 4666 
L 2759 1491 
L 3956 4666 
L 4897 4666 
L 4897 0 
L 4281 0 
L 4281 4097 
L 3078 897 
L 2444 897 
L 1241 4097 
L 1241 0 
L 628 0 
L 628 4666 
z
" transform="scale(0.015625)"/>
       <path id="DejaVuSans-6e" d="M 3513 2113 
L 3513 0 
L 2938 0 
L 2938 2094 
Q 2938 2591 2744 2837 
Q 2550 3084 2163 3084 
Q 1697 3084 1428 2787 
Q 1159 2491 1159 1978 
L 1159 0 
L 581 0 
L 581 3500 
L 1159 3500 
L 1159 2956 
Q 1366 3272 1645 3428 
Q 1925 3584 2291 3584 
Q 2894 3584 3203 3211 
Q 3513 2838 3513 2113 
z
" transform="scale(0.015625)"/>
       <path id="DejaVuSans-53" d="M 3425 4513 
L 3425 3897 
Q 3066 4069 2747 4153 
Q 2428 4238 2131 4238 
Q 1616 4238 1336 4038 
Q 1056 3838 1056 3469 
Q 1056 3159 1242 3001 
Q 1428 2844 1947 2747 
L 2328 2669 
Q 3034 2534 3370 2195 
Q 3706 1856 3706 1288 
Q 3706 609 3251 259 
Q 2797 -91 1919 -91 
Q 1588 -91 1214 -16 
Q 841 59 441 206 
L 441 856 
Q 825 641 1194 531 
Q 1563 422 1919 422 
Q 2459 422 2753 634 
Q 3047 847 3047 1241 
Q 3047 1584 2836 1778 
Q 2625 1972 2144 2069 
L 1759 2144 
Q 1053 2284 737 2584 
Q 422 2884 422 3419 
Q 422 4038 858 4394 
Q 1294 4750 2059 4750 
Q 2388 4750 2728 4690 
Q 3069 4631 3425 4513 
z
" transform="scale(0.015625)"/>
       <path id="DejaVuSans-71" d="M 947 1747 
Q 947 1113 1208 752 
Q 1469 391 1925 391 
Q 2381 391 2643 752 
Q 2906 1113 2906 1747 
Q 2906 2381 2643 2742 
Q 2381 3103 1925 3103 
Q 1469 3103 1208 2742 
Q 947 2381 947 1747 
z
M 2906 525 
Q 2725 213 2448 61 
Q 2172 -91 1784 -91 
Q 1150 -91 751 415 
Q 353 922 353 1747 
Q 353 2572 751 3078 
Q 1150 3584 1784 3584 
Q 2172 3584 2448 3432 
Q 2725 3281 2906 2969 
L 2906 3500 
L 3481 3500 
L 3481 -1331 
L 2906 -1331 
L 2906 525 
z
" transform="scale(0.015625)"/>
       <path id="DejaVuSans-75" d="M 544 1381 
L 544 3500 
L 1119 3500 
L 1119 1403 
Q 1119 906 1312 657 
Q 1506 409 1894 409 
Q 2359 409 2629 706 
Q 2900 1003 2900 1516 
L 2900 3500 
L 3475 3500 
L 3475 0 
L 2900 0 
L 2900 538 
Q 2691 219 2414 64 
Q 2138 -91 1772 -91 
Q 1169 -91 856 284 
Q 544 659 544 1381 
z
M 1991 3584 
L 1991 3584 
z
" transform="scale(0.015625)"/>
       <path id="DejaVuSans-64" d="M 2906 2969 
L 2906 4863 
L 3481 4863 
L 3481 0 
L 2906 0 
L 2906 525 
Q 2725 213 2448 61 
Q 2172 -91 1784 -91 
Q 1150 -91 751 415 
Q 353 922 353 1747 
Q 353 2572 751 3078 
Q 1150 3584 1784 3584 
Q 2172 3584 2448 3432 
Q 2725 3281 2906 2969 
z
M 947 1747 
Q 947 1113 1208 752 
Q 1469 391 1925 391 
Q 2381 391 2643 752 
Q 2906 1113 2906 1747 
Q 2906 2381 2643 2742 
Q 2381 3103 1925 3103 
Q 1469 3103 1208 2742 
Q 947 2381 947 1747 
z
" transform="scale(0.015625)"/>
       <path id="DejaVuSans-45" d="M 628 4666 
L 3578 4666 
L 3578 4134 
L 1259 4134 
L 1259 2753 
L 3481 2753 
L 3481 2222 
L 1259 2222 
L 1259 531 
L 3634 531 
L 3634 0 
L 628 0 
L 628 4666 
z
" transform="scale(0.015625)"/>
      </defs>
      <use xlink:href="#DejaVuSans-52"/>
      <use xlink:href="#DejaVuSans-6f" transform="translate(64.982422 0)"/>
      <use xlink:href="#DejaVuSans-6f" transform="translate(126.164062 0)"/>
      <use xlink:href="#DejaVuSans-74" transform="translate(187.345703 0)"/>
      <use xlink:href="#DejaVuSans-20" transform="translate(226.554688 0)"/>
      <use xlink:href="#DejaVuSans-4d" transform="translate(258.341797 0)"/>
      <use xlink:href="#DejaVuSans-65" transform="translate(344.621094 0)"/>
      <use xlink:href="#DejaVuSans-61" transform="translate(406.144531 0)"/>
      <use xlink:href="#DejaVuSans-6e" transform="translate(467.423828 0)"/>
      <use xlink:href="#DejaVuSans-20" transform="translate(530.802734 0)"/>
      <use xlink:href="#DejaVuSans-53" transform="translate(562.589844 0)"/>
      <use xlink:href="#DejaVuSans-71" transform="translate(626.066406 0)"/>
      <use xlink:href="#DejaVuSans-75" transform="translate(689.542969 0)"/>
      <use xlink:href="#DejaVuSans-61" transform="translate(752.921875 0)"/>
      <use xlink:href="#DejaVuSans-72" transform="translate(814.201172 0)"/>
      <use xlink:href="#DejaVuSans-65" transform="translate(853.064453 0)"/>
      <use xlink:href="#DejaVuSans-64" transform="translate(914.587891 0)"/>
      <use xlink:href="#DejaVuSans-20" transform="translate(978.064453 0)"/>
      <use xlink:href="#DejaVuSans-45" transform="translate(1009.851562 0)"/>
      <use xlink:href="#DejaVuSans-72" transform="translate(1073.035156 0)"/>
      <use xlink:href="#DejaVuSans-72" transform="translate(1112.398438 0)"/>
      <use xlink:href="#DejaVuSans-6f" transform="translate(1151.261719 0)"/>
      <use xlink:href="#DejaVuSans-72" transform="translate(1212.443359 0)"/>
      <use xlink:href="#DejaVuSans-20" transform="translate(1253.556641 0)"/>
      <use xlink:href="#DejaVuSans-28" transform="translate(1285.34375 0)"/>
      <use xlink:href="#DejaVuSans-52" transform="translate(1324.357422 0)"/>
      <use xlink:href="#DejaVuSans-4d" transform="translate(1393.839844 0)"/>
      <use xlink:href="#DejaVuSans-53" transform="translate(1480.119141 0)"/>
      <use xlink:href="#DejaVuSans-45" transform="translate(1543.595703 0)"/>
      <use xlink:href="#DejaVuSans-29" transform="translate(1606.779297 0)"/>
     </g>
    </g>
   </g>
   <g id="line2d_14">
    <path d="M 132.691074 379.721358 
L 133.948775 389.181281 
L 135.206476 387.089105 
L 136.464177 379.032002 
L 137.721878 381.908208 
L 138.979579 388.834155 
L 140.23728 379.377992 
L 141.49498 375.379939 
L 142.752681 369.714659 
L 144.010382 380.787814 
L 145.268083 374.334595 
L 146.525784 378.001463 
L 147.783485 372.447607 
L 149.041186 391.58229 
L 150.298887 389.396362 
L 151.556588 393.975063 
L 152.814289 402.92663 
L 154.07199 402.150981 
L 155.329691 399.147255 
L 157.845093 399.004292 
L 159.102794 411.811875 
L 161.618196 399.191194 
L 162.875897 391.119368 
L 164.133598 401.548062 
L 165.391299 390.317973 
L 166.649 382.724193 
L 167.906701 379.601518 
L 169.164402 379.020116 
L 170.422103 369.720486 
L 171.679804 365.782348 
L 172.937505 364.600002 
L 174.195206 365.417637 
L 175.452907 373.346722 
L 176.710608 374.843531 
L 177.968309 374.755762 
L 179.22601 388.428112 
L 180.483711 375.674483 
L 181.741412 383.808854 
L 182.999113 373.150789 
L 184.256814 378.497343 
L 185.514515 371.853897 
L 186.772216 369.941122 
L 188.029917 371.64934 
L 189.287618 375.629594 
L 190.545319 379.146392 
L 191.80302 372.346424 
L 193.060721 371.665987 
L 194.318422 364.786649 
L 195.576122 373.032878 
L 196.833823 359.577509 
L 198.091524 365.07481 
L 199.349225 362.806325 
L 200.606926 364.533878 
L 201.864627 350.792543 
L 203.122328 359.119927 
L 204.380029 352.042658 
L 205.63773 355.135045 
L 206.895431 347.433194 
L 208.153132 352.594143 
L 209.410833 357.116296 
L 210.668534 362.887126 
L 211.926235 359.360708 
L 213.183936 357.271097 
L 214.441637 369.880472 
L 215.699338 367.904638 
L 216.957039 363.732738 
L 218.21474 364.831075 
L 219.472441 368.459088 
L 220.730142 367.601851 
L 221.987843 369.797667 
L 223.245544 366.178464 
L 224.503245 375.65516 
L 225.760946 379.122794 
L 227.018647 379.878917 
L 228.276348 381.397407 
L 229.534049 396.5164 
L 230.79175 390.248896 
L 232.049451 376.278063 
L 233.307152 371.947412 
L 234.564853 373.756316 
L 235.822554 366.295373 
L 237.080255 363.438635 
L 238.337956 374.72416 
L 239.595657 369.192361 
L 240.853358 377.224726 
L 242.111059 372.035326 
L 243.36876 369.568471 
L 244.626461 378.136861 
L 245.884162 377.718289 
L 247.141863 369.109075 
L 248.399564 368.521314 
L 249.657264 371.215738 
L 250.914965 373.103867 
L 252.172666 369.340542 
L 253.430367 361.974603 
L 254.688068 370.064241 
L 255.945769 360.505984 
L 257.20347 355.574846 
L 258.461171 351.21462 
L 259.718872 360.865632 
L 260.976573 354.010111 
L 262.234274 357.557938 
L 263.491975 339.918396 
L 264.749676 351.531197 
L 266.007377 332.063087 
L 267.265078 337.054047 
L 268.522779 319.822471 
L 269.78048 340.275194 
L 271.038181 326.190754 
L 272.295882 336.491232 
L 273.553583 333.080843 
L 274.811284 353.839659 
L 276.068985 354.981437 
L 277.326686 361.002953 
L 278.584387 368.945493 
L 279.842088 378.358574 
L 281.099789 379.813836 
L 282.35749 365.547938 
L 283.615191 356.135286 
L 284.872892 357.377314 
L 286.130593 345.262181 
L 287.388294 343.233307 
L 288.645995 347.601724 
L 289.903696 349.821496 
L 291.161397 360.947256 
L 292.419098 350.671545 
L 293.676799 346.505287 
L 294.9345 364.277458 
L 296.192201 362.744303 
L 297.449902 364.768403 
L 298.707603 369.546362 
L 299.965304 366.437803 
L 301.223005 354.426245 
L 302.480706 339.240444 
L 304.996107 334.817246 
L 306.253808 325.56755 
L 307.511509 331.302423 
L 308.76921 323.594316 
L 310.026911 312.747612 
L 311.284612 297.894387 
L 312.542313 308.573153 
L 313.800014 313.065059 
L 315.057715 315.714159 
L 316.315416 326.200404 
L 317.573117 324.83046 
L 318.830818 340.407916 
L 320.088519 341.006492 
L 321.34622 349.60605 
L 322.603921 346.895506 
L 323.861622 366.128547 
L 325.119323 371.084076 
L 326.377024 384.529754 
L 327.634725 383.300306 
L 328.892426 386.229852 
L 330.150127 381.078982 
L 331.407828 379.486248 
L 332.665529 377.660807 
L 333.92323 387.346805 
L 335.180931 391.544664 
L 336.438632 398.960005 
L 337.696333 399.031637 
L 338.954034 407.885443 
L 340.211735 414.320451 
L 341.469436 409.238867 
L 342.727137 415.776015 
L 343.984838 408.097454 
L 345.242539 416.723404 
L 346.50024 406.757647 
L 347.757941 409.413264 
L 349.015642 391.551013 
L 350.273343 388.090526 
L 351.531044 372.375216 
L 352.788745 373.332004 
L 354.046446 365.738675 
L 355.304147 355.332791 
L 356.561848 354.056009 
L 357.819548 353.375439 
L 359.077249 339.364189 
L 360.33495 344.851585 
L 361.592651 327.032381 
L 362.850352 339.772699 
L 364.108053 341.387652 
L 365.365754 348.676926 
L 366.623455 343.660319 
L 367.881156 345.41316 
L 369.138857 348.747707 
L 370.396558 352.554977 
L 371.654259 355.937795 
L 372.91196 365.967165 
L 374.169661 363.658158 
L 375.427362 379.910716 
L 376.685063 372.808715 
L 377.942764 371.325366 
L 379.200465 355.339255 
L 380.458166 353.561854 
L 381.715867 353.85166 
L 382.973568 371.746817 
L 384.231269 367.091242 
L 385.48897 372.231066 
L 386.746671 366.559473 
L 388.004372 364.349826 
L 389.262073 355.683774 
L 390.519774 354.699311 
L 391.777475 352.812045 
L 393.035176 354.1208 
L 394.292877 376.793347 
L 395.550578 379.674969 
L 396.808279 386.628261 
L 398.06598 386.653446 
L 399.323681 386.963953 
L 400.581382 394.462921 
L 401.839083 393.327295 
L 403.096784 404.05735 
L 404.354485 397.332605 
L 405.612186 412.489879 
L 406.869887 404.719958 
L 408.127588 417.200799 
L 409.385289 409.518548 
L 410.64299 415.16779 
L 411.90069 403.001667 
L 413.158391 395.131646 
L 414.416092 391.055978 
L 415.673793 392.690491 
L 416.931494 383.254641 
L 418.189195 391.110233 
L 419.446896 393.17448 
L 421.962298 359.626986 
L 423.219999 358.902303 
L 424.4777 342.328256 
L 425.735401 340.474295 
L 426.993102 337.445633 
L 428.250803 353.285324 
L 429.508504 354.111938 
L 430.766205 374.648028 
L 432.023906 375.784552 
L 433.281607 383.126975 
L 434.539308 381.250986 
L 435.797009 383.968979 
L 437.05471 382.422785 
L 438.312411 378.767033 
L 439.570112 385.35046 
L 440.827813 376.77403 
L 442.085514 374.166999 
L 443.343215 383.259083 
L 444.600916 377.594047 
L 445.858617 386.06503 
L 447.116318 382.610417 
L 448.374019 386.748246 
L 449.63172 381.854844 
L 450.889421 396.464994 
L 452.147122 398.121848 
L 453.404823 393.288522 
L 454.662524 397.736309 
L 455.920225 394.473874 
L 457.177926 399.852407 
L 458.435627 395.300673 
L 459.693328 391.911211 
L 460.951029 392.651121 
L 462.20873 374.40153 
L 463.466431 365.072574 
L 464.724131 353.7732 
L 465.981832 353.108663 
L 467.239533 351.257331 
L 468.497234 345.116009 
L 469.754935 347.707188 
L 471.012636 342.543215 
L 472.270337 349.835999 
L 473.528038 341.87825 
L 474.785739 341.958055 
L 476.04344 333.309784 
L 477.301141 330.086586 
L 478.558842 325.588448 
L 479.816543 329.117172 
L 481.074244 331.43935 
L 482.331945 336.229032 
L 483.589646 340.276758 
L 484.847347 337.720854 
L 486.105048 324.795742 
L 487.362749 320.690708 
L 488.62045 295.063598 
L 489.878151 293.178834 
L 491.135852 274.664372 
L 492.393553 271.705668 
L 493.651254 253.373022 
L 494.908955 259.888507 
L 496.166656 267.746643 
L 497.424357 299.473278 
L 498.682058 308.871184 
L 499.939759 345.078314 
L 501.19746 351.631355 
L 502.455161 359.475045 
L 503.712862 373.165959 
L 504.970563 366.642985 
L 506.228264 371.388536 
L 507.485965 338.868054 
L 508.743666 330.475242 
L 510.001367 310.799018 
L 511.259068 303.23245 
L 512.516769 303.11868 
L 513.77447 292.018116 
L 515.032171 288.534108 
L 516.289872 283.424176 
L 517.547573 277.485372 
L 518.805273 263.902813 
L 520.062974 255.190748 
L 521.320675 250.66117 
L 522.578376 243.645055 
L 523.836077 257.187243 
L 525.093778 227.999008 
L 526.351479 255.799297 
L 527.60918 250.451608 
L 528.866881 262.016832 
L 530.124582 265.557824 
L 531.382283 294.346966 
L 532.639984 292.276725 
L 533.897685 315.697535 
L 535.155386 313.718926 
L 536.413087 325.585251 
L 537.670788 314.302952 
L 538.928489 324.561367 
L 540.18619 315.517572 
L 541.443891 317.5263 
L 542.701592 317.252782 
L 543.959293 321.221515 
L 545.216994 330.90282 
L 546.474695 333.326593 
L 547.732396 347.690298 
L 548.990097 351.833479 
L 550.247798 347.887394 
L 551.505499 350.258423 
L 552.7632 346.705558 
L 554.020901 344.325203 
L 555.278602 353.413528 
L 556.536303 364.255043 
L 557.794004 370.30713 
L 559.051705 377.087578 
L 560.309406 364.968964 
L 561.567107 371.248493 
L 562.824808 374.236267 
L 564.082509 373.982054 
L 565.34021 384.220122 
L 566.597911 398.089226 
L 567.855612 395.529227 
L 569.113313 406.804709 
L 570.371014 391.307393 
L 571.628715 393.88123 
L 572.886415 387.050106 
L 574.144116 382.302215 
L 575.401817 371.259839 
L 576.659518 364.741875 
L 577.917219 365.662033 
L 579.17492 354.73652 
L 580.432621 363.670855 
L 581.690322 362.271371 
L 582.948023 370.183913 
L 584.205724 368.671198 
L 585.463425 370.446727 
L 586.721126 371.391386 
L 587.978827 362.255906 
L 589.236528 369.130796 
L 590.494229 345.871402 
L 591.75193 360.401007 
L 593.009631 342.442698 
L 594.267332 348.431512 
L 595.525033 340.993205 
L 596.782734 327.492466 
L 598.040435 333.93761 
L 599.298136 341.201237 
L 600.555837 339.983454 
L 601.813538 357.517277 
L 603.071239 361.78016 
L 604.32894 370.383795 
L 605.586641 369.932434 
L 606.844342 377.266678 
L 608.102043 369.406104 
L 609.359744 381.162684 
L 610.617445 384.331279 
L 611.875146 392.404566 
L 613.132847 393.476472 
L 614.390548 393.291847 
L 615.648249 375.050468 
L 616.90595 377.199095 
L 618.163651 361.221805 
L 619.421352 355.93717 
L 620.679053 353.331951 
L 621.936754 359.940551 
L 623.194455 368.619445 
L 624.452156 386.092508 
L 625.709857 390.394685 
L 626.967557 389.055423 
L 628.225258 378.176821 
L 629.482959 368.364537 
L 630.74066 366.752445 
L 631.998361 373.442628 
L 633.256062 374.044928 
L 634.513763 355.329686 
L 635.771464 364.883251 
L 637.029165 360.77071 
L 638.286866 368.104213 
L 639.544567 342.818274 
L 640.802268 335.887096 
L 642.059969 317.325856 
L 643.31767 312.549624 
L 644.575371 299.866857 
L 645.833072 297.458526 
L 647.090773 290.989575 
L 648.348474 305.094682 
L 649.606175 307.822973 
L 650.863876 314.137504 
L 652.121577 328.437657 
L 653.379278 331.0859 
L 654.636979 328.459343 
L 655.89468 328.480693 
L 657.152381 331.69043 
L 658.410082 339.255388 
L 659.667783 348.957337 
L 660.925484 360.129504 
L 662.183185 354.089267 
L 663.440886 359.564859 
L 664.698587 364.474497 
L 665.956288 360.002366 
L 668.47169 381.343134 
L 669.729391 378.493983 
L 670.987092 381.552869 
L 672.244793 385.230255 
L 673.502494 392.14123 
L 674.760195 374.812589 
L 676.017896 385.517136 
L 677.275597 377.635588 
L 678.533298 364.248741 
L 679.790999 372.866133 
L 681.048699 361.068741 
L 682.3064 374.144108 
L 683.564101 360.464222 
L 684.821802 368.632802 
L 686.079503 359.31159 
L 687.337204 364.705581 
L 688.594905 363.973392 
L 689.852606 370.999776 
L 691.110307 369.812999 
L 692.368008 373.751259 
L 693.625709 370.89916 
L 694.88341 358.810856 
L 696.141111 356.685879 
L 697.398812 357.836831 
L 698.656513 348.079382 
L 699.914214 355.700107 
L 701.171915 347.990808 
L 702.429616 347.686683 
L 703.687317 353.617297 
L 704.945018 345.714724 
L 706.202719 354.830829 
L 707.46042 350.418322 
L 708.718121 352.496533 
L 709.975822 361.770869 
L 711.233523 346.853884 
L 712.491224 341.949088 
L 713.748925 355.5623 
L 715.006626 345.070541 
L 716.264327 327.321689 
L 717.522028 322.862208 
L 718.779729 305.379912 
L 720.03743 309.326913 
L 721.295131 311.604004 
L 722.552832 325.542343 
L 723.810533 330.631515 
L 725.068234 340.236723 
L 726.325935 342.424742 
L 727.583636 347.658626 
L 728.841337 354.998593 
L 730.099038 330.018667 
L 731.356739 328.623285 
L 732.61444 329.178396 
L 733.872141 329.870943 
L 735.129841 331.067724 
L 736.387542 344.449526 
L 737.645243 345.194053 
L 738.902944 346.607948 
L 740.160645 350.26893 
L 741.418346 347.831754 
L 741.418346 347.831754 
" clip-path="url(#pfc4a8e0d17)" style="fill: none; stroke: #0000ff; stroke-width: 2; stroke-linecap: square"/>
   </g>
   <g id="line2d_15">
    <path d="M 132.691074 382.04097 
L 133.948775 347.105554 
L 136.464177 302.812181 
L 137.721878 261.710171 
L 138.979579 203.594627 
L 140.23728 234.060617 
L 141.49498 229.608446 
L 142.752681 215.113723 
L 144.010382 215.312487 
L 145.268083 257.376693 
L 147.783485 184.079821 
L 149.041186 161.274221 
L 150.298887 209.927172 
L 151.556588 193.289064 
L 152.814289 194.451068 
L 154.07199 208.334091 
L 155.329691 272.163806 
L 157.845093 313.164533 
L 159.102794 320.989075 
L 160.360495 384.621085 
L 161.618196 392.628306 
L 162.875897 371.48117 
L 164.133598 367.025778 
L 165.391299 402.779091 
L 166.649 402.576637 
L 167.906701 373.193148 
L 169.164402 357.769051 
L 170.422103 397.767459 
L 171.679804 384.615513 
L 172.937505 375.696714 
L 174.195206 359.115131 
L 175.452907 381.485025 
L 176.710608 379.515469 
L 177.968309 364.282683 
L 179.22601 323.441495 
L 180.483711 330.936102 
L 181.741412 347.251111 
L 182.999113 360.466748 
L 184.256814 358.088884 
L 185.514515 386.540782 
L 186.772216 386.497764 
L 188.029917 379.804105 
L 189.287618 394.317068 
L 190.545319 380.254389 
L 191.80302 377.100072 
L 193.060721 380.43342 
L 194.318422 387.024649 
L 195.576122 405.580572 
L 196.833823 430.391051 
L 198.091524 422.343189 
L 199.349225 417.929684 
L 200.606926 413.040379 
L 201.864627 384.476808 
L 203.122328 369.30795 
L 204.380029 349.64312 
L 205.63773 360.538629 
L 206.895431 341.031479 
L 208.153132 331.686931 
L 209.410833 301.142677 
L 210.668534 307.630047 
L 213.183936 334.0554 
L 214.441637 316.827022 
L 215.699338 360.682924 
L 216.957039 363.043538 
L 218.21474 318.458216 
L 219.472441 294.295682 
L 220.730142 314.659982 
L 221.987843 297.359688 
L 223.245544 293.348267 
L 224.503245 291.00643 
L 225.760946 296.595665 
L 227.018647 273.945921 
L 228.276348 276.896632 
L 229.534049 277.257299 
L 230.79175 287.357125 
L 232.049451 300.325899 
L 233.307152 327.439988 
L 234.564853 341.071445 
L 235.822554 351.853706 
L 237.080255 352.664738 
L 238.337956 350.889898 
L 239.595657 316.989481 
L 240.853358 318.982837 
L 242.111059 303.443366 
L 243.36876 313.82892 
L 244.626461 301.628838 
L 245.884162 326.709791 
L 247.141863 319.451888 
L 248.399564 327.176745 
L 249.657264 294.271714 
L 250.914965 305.664528 
L 252.172666 306.638588 
L 253.430367 283.733595 
L 254.688068 252.822487 
L 255.945769 266.422597 
L 257.20347 268.051682 
L 258.461171 266.362335 
L 259.718872 250.208105 
L 260.976573 285.326317 
L 262.234274 310.449507 
L 263.491975 326.370485 
L 264.749676 334.382913 
L 266.007377 346.694946 
L 267.265078 330.593367 
L 268.522779 321.925091 
L 269.78048 308.48751 
L 271.038181 315.607119 
L 272.295882 308.773586 
L 273.553583 301.316848 
L 274.811284 304.513008 
L 276.068985 346.308307 
L 277.326686 350.435027 
L 278.584387 373.486441 
L 279.842088 361.685249 
L 281.099789 379.003313 
L 282.35749 388.168026 
L 283.615191 384.651228 
L 284.872892 350.91762 
L 286.130593 364.467882 
L 287.388294 361.485488 
L 288.645995 324.321351 
L 289.903696 298.425287 
L 291.161397 308.538006 
L 292.419098 285.344713 
L 293.676799 266.487122 
L 294.9345 239.603711 
L 296.192201 294.883427 
L 297.449902 319.686089 
L 298.707603 320.142872 
L 299.965304 292.642478 
L 301.223005 352.105318 
L 302.480706 359.920927 
L 303.738406 327.570092 
L 304.996107 285.80109 
L 306.253808 330.114817 
L 307.511509 326.504621 
L 308.76921 318.826575 
L 310.026911 300.431803 
L 311.284612 350.276217 
L 312.542313 378.242933 
L 313.800014 392.703714 
L 315.057715 393.649079 
L 316.315416 355.46301 
L 317.573117 357.935762 
L 318.830818 390.666338 
L 320.088519 420.156992 
L 321.34622 392.187567 
L 322.603921 392.804562 
L 323.861622 384.891256 
L 325.119323 373.291238 
L 326.377024 405.011033 
L 327.634725 400.632243 
L 328.892426 380.026664 
L 330.150127 367.253712 
L 331.407828 371.140283 
L 332.665529 322.024508 
L 333.92323 295.460756 
L 335.180931 308.685023 
L 336.438632 335.135202 
L 337.696333 302.484969 
L 338.954034 300.107174 
L 340.211735 330.066823 
L 341.469436 349.323519 
L 342.727137 315.940089 
L 343.984838 303.910088 
L 345.242539 300.314928 
L 346.50024 306.96975 
L 347.757941 295.348539 
L 349.015642 305.02535 
L 350.273343 312.944014 
L 351.531044 340.039047 
L 352.788745 335.814543 
L 354.046446 334.135263 
L 355.304147 352.39926 
L 356.561848 391.712325 
L 357.819548 387.068728 
L 359.077249 370.974157 
L 360.33495 353.025973 
L 361.592651 387.241312 
L 362.850352 371.520881 
L 364.108053 351.876712 
L 365.365754 355.872703 
L 366.623455 401.961502 
L 367.881156 384.326987 
L 369.138857 379.167857 
L 370.396558 401.234757 
L 371.654259 429.714095 
L 372.91196 411.123654 
L 374.169661 413.024677 
L 375.427362 385.662363 
L 376.685063 363.878643 
L 377.942764 346.100518 
L 379.200465 332.117082 
L 380.458166 354.986453 
L 381.715867 380.095747 
L 382.973568 384.23908 
L 384.231269 381.095408 
L 385.48897 396.018991 
L 386.746671 420.79633 
L 388.004372 413.883935 
L 389.262073 416.082265 
L 390.519774 403.087617 
L 391.777475 400.7642 
L 393.035176 406.797712 
L 394.292877 403.762239 
L 395.550578 398.502452 
L 396.808279 411.535154 
L 398.06598 400.11324 
L 399.323681 394.258544 
L 400.581382 384.246911 
L 401.839083 395.999714 
L 403.096784 352.913721 
L 404.354485 337.752688 
L 405.612186 333.956771 
L 406.869887 366.862613 
L 408.127588 327.440533 
L 409.385289 337.488623 
L 410.64299 363.87028 
L 411.90069 393.262139 
L 413.158391 364.700913 
L 415.673793 393.527386 
L 416.931494 391.975446 
L 418.189195 375.469011 
L 419.446896 403.849312 
L 420.704597 425.945422 
L 421.962298 430.56 
L 423.219999 379.357412 
L 424.4777 383.265397 
L 425.735401 359.217328 
L 426.993102 328.670352 
L 428.250803 272.525736 
L 429.508504 242.808617 
L 430.766205 253.821986 
L 432.023906 258.914332 
L 433.281607 239.045507 
L 434.539308 251.233877 
L 435.797009 284.002386 
L 437.05471 293.958485 
L 438.312411 259.646579 
L 439.570112 290.811489 
L 440.827813 308.222297 
L 442.085514 310.23464 
L 443.343215 273.422783 
L 445.858617 311.696575 
L 447.116318 300.493061 
L 448.374019 242.702319 
L 449.63172 250.885165 
L 450.889421 277.965845 
L 452.147122 278.632409 
L 453.404823 252.868292 
L 454.662524 261.724629 
L 455.920225 292.654781 
L 457.177926 319.822008 
L 458.435627 292.381228 
L 459.693328 298.413193 
L 460.951029 330.714018 
L 462.20873 359.589151 
L 463.466431 337.505733 
L 464.724131 356.048681 
L 465.981832 378.823159 
L 467.239533 405.358407 
L 468.497234 370.901975 
L 469.754935 364.570913 
L 471.012636 356.762695 
L 472.270337 389.017455 
L 473.528038 360.102559 
L 474.785739 345.7019 
L 476.04344 348.460044 
L 477.301141 346.876253 
L 478.558842 300.078387 
L 479.816543 292.325773 
L 481.074244 295.019612 
L 482.331945 316.362929 
L 483.589646 286.379046 
L 484.847347 311.885261 
L 486.105048 313.299028 
L 487.362749 315.509185 
L 488.62045 310.846503 
L 489.878151 321.207185 
L 491.135852 311.50929 
L 493.651254 326.976961 
L 494.908955 323.871333 
L 496.166656 301.904604 
L 497.424357 290.25676 
L 498.682058 289.338143 
L 499.939759 300.461181 
L 501.19746 286.974215 
L 502.455161 314.152737 
L 503.712862 321.420082 
L 504.970563 341.276384 
L 506.228264 333.496605 
L 507.485965 333.974078 
L 508.743666 285.259614 
L 510.001367 274.036615 
L 511.259068 285.611107 
L 512.516769 279.057115 
L 513.77447 251.599341 
L 516.289872 296.508527 
L 517.547573 288.48082 
L 518.805273 232.339923 
L 520.062974 244.379063 
L 521.320675 248.334103 
L 522.578376 239.082276 
L 523.836077 180.20418 
L 525.093778 193.573159 
L 526.351479 180.765396 
L 527.60918 176.763045 
L 528.866881 146.832276 
L 530.124582 168.527097 
L 531.382283 213.986819 
L 532.639984 249.390296 
L 533.897685 238.361659 
L 535.155386 292.446471 
L 536.413087 305.514627 
L 537.670788 306.390289 
L 538.928489 264.360997 
L 540.18619 299.47227 
L 541.443891 297.935998 
L 542.701592 291.40148 
L 543.959293 254.933111 
L 545.216994 283.56386 
L 546.474695 291.026182 
L 547.732396 305.202359 
L 548.990097 267.027903 
L 550.247798 250.282732 
L 551.505499 265.687685 
L 552.7632 253.900644 
L 554.020901 200.325521 
L 556.536303 247.550375 
L 557.794004 243.668872 
L 559.051705 220.540092 
L 560.309406 255.769433 
L 561.567107 262.693336 
L 562.824808 260.284113 
L 564.082509 254.207235 
L 565.34021 285.350563 
L 566.597911 289.924046 
L 567.855612 316.747727 
L 569.113313 319.14284 
L 570.371014 319.766195 
L 571.628715 313.413505 
L 572.886415 338.476143 
L 574.144116 321.45348 
L 575.401817 333.91567 
L 576.659518 363.770295 
L 577.917219 354.5364 
L 579.17492 302.658966 
L 580.432621 324.677234 
L 581.690322 351.019944 
L 582.948023 350.811472 
L 584.205724 301.764665 
L 585.463425 332.960319 
L 586.721126 369.379541 
L 587.978827 358.98154 
L 589.236528 315.335895 
L 590.494229 348.64573 
L 591.75193 341.683691 
L 593.009631 316.087488 
L 594.267332 260.059492 
L 595.525033 285.393135 
L 596.782734 280.925904 
L 598.040435 292.221456 
L 599.298136 275.891596 
L 600.555837 309.854754 
L 601.813538 309.291789 
L 603.071239 308.123112 
L 604.32894 255.726872 
L 605.586641 296.201657 
L 606.844342 290.357208 
L 608.102043 282.979175 
L 609.359744 252.913054 
L 610.617445 296.766418 
L 611.875146 320.709405 
L 613.132847 321.094539 
L 614.390548 277.343568 
L 615.648249 307.779196 
L 616.90595 322.824779 
L 618.163651 340.046438 
L 619.421352 319.424039 
L 620.679053 334.543623 
L 621.936754 340.593185 
L 623.194455 373.682135 
L 624.452156 356.712094 
L 625.709857 392.081177 
L 626.967557 396.208227 
L 628.225258 403.407948 
L 630.74066 383.606817 
L 631.998361 384.038491 
L 633.256062 392.508055 
L 634.513763 375.376 
L 635.771464 363.016999 
L 637.029165 370.553854 
L 638.286866 373.521773 
L 639.544567 360.690442 
L 640.802268 334.95744 
L 642.059969 345.803321 
L 643.31767 360.806285 
L 644.575371 338.203378 
L 645.833072 334.05898 
L 647.090773 345.124431 
L 648.348474 351.42871 
L 649.606175 336.331426 
L 650.863876 332.722863 
L 652.121577 313.913289 
L 653.379278 322.794347 
L 654.636979 300.014013 
L 655.89468 314.918093 
L 657.152381 307.348918 
L 658.410082 312.496023 
L 659.667783 312.371503 
L 660.925484 319.481706 
L 662.183185 323.671074 
L 663.440886 326.1606 
L 664.698587 316.713449 
L 665.956288 328.510291 
L 667.213989 337.932014 
L 668.47169 333.426196 
L 669.729391 309.634014 
L 670.987092 333.613063 
L 672.244793 373.296596 
L 673.502494 372.008728 
L 674.760195 345.881238 
L 676.017896 387.458264 
L 677.275597 390.905028 
L 678.533298 375.492528 
L 679.790999 313.964978 
L 681.048699 321.288032 
L 682.3064 327.449464 
L 683.564101 327.842777 
L 684.821802 290.998066 
L 686.079503 316.475935 
L 687.337204 334.804213 
L 688.594905 358.160603 
L 689.852606 343.447456 
L 691.110307 392.063592 
L 692.368008 407.811871 
L 693.625709 405.212172 
L 694.88341 353.968952 
L 696.141111 366.554793 
L 697.398812 338.390732 
L 698.656513 329.201761 
L 699.914214 297.188633 
L 701.171915 309.95643 
L 702.429616 312.488945 
L 703.687317 294.342773 
L 704.945018 257.286266 
L 706.202719 297.689506 
L 707.46042 258.634616 
L 708.718121 246.630762 
L 709.975822 225.169481 
L 711.233523 279.47699 
L 712.491224 300.008475 
L 713.748925 305.039181 
L 715.006626 257.790186 
L 716.264327 303.981448 
L 717.522028 317.85993 
L 718.779729 314.768029 
L 720.03743 276.08612 
L 721.295131 288.537247 
L 722.552832 289.85944 
L 723.810533 297.248675 
L 725.068234 252.64425 
L 726.325935 269.626345 
L 727.583636 273.683535 
L 728.841337 247.327584 
L 730.099038 225.296979 
L 731.356739 254.507641 
L 732.61444 267.094397 
L 733.872141 281.14237 
L 735.129841 297.367461 
L 736.387542 340.006148 
L 737.645243 338.554059 
L 738.902944 355.498876 
L 740.160645 343.650808 
L 741.418346 353.653776 
L 741.418346 353.653776 
" clip-path="url(#pfc4a8e0d17)" style="fill: none; stroke: #ffa500; stroke-width: 2; stroke-linecap: square"/>
   </g>
   <g id="line2d_16">
    <path d="M 132.691074 376.718703 
L 133.948775 377.699018 
L 136.464177 368.632964 
L 137.721878 379.379284 
L 138.979579 373.824831 
L 141.49498 364.711547 
L 142.752681 363.321887 
L 144.010382 364.460144 
L 145.268083 368.824714 
L 146.525784 364.657912 
L 147.783485 381.237548 
L 149.041186 382.565093 
L 150.298887 392.667519 
L 151.556588 398.114283 
L 152.814289 404.958915 
L 154.07199 405.375535 
L 155.329691 399.236437 
L 156.587392 398.028889 
L 157.845093 410.882288 
L 159.102794 407.14906 
L 160.360495 401.290356 
L 161.618196 381.441474 
L 162.875897 379.716255 
L 164.133598 386.499849 
L 165.391299 379.035668 
L 166.649 378.166441 
L 167.906701 369.806807 
L 169.164402 365.883977 
L 170.422103 361.45925 
L 171.679804 356.410333 
L 172.937505 352.620301 
L 174.195206 361.218758 
L 175.452907 366.138301 
L 176.710608 367.6841 
L 177.968309 382.876342 
L 179.22601 372.050067 
L 180.483711 386.525276 
L 181.741412 373.084185 
L 182.999113 374.640897 
L 184.256814 363.770619 
L 186.772216 353.078335 
L 188.029917 359.000145 
L 189.287618 360.709892 
L 190.545319 354.000091 
L 191.80302 359.312158 
L 193.060721 347.371427 
L 194.318422 353.363171 
L 195.576122 342.532963 
L 196.833823 345.779226 
L 198.091524 338.5624 
L 199.349225 338.210097 
L 200.606926 327.663474 
L 201.864627 328.263289 
L 203.122328 316.778518 
L 204.380029 321.52133 
L 205.63773 311.746445 
L 206.895431 311.874789 
L 208.153132 309.130477 
L 209.410833 319.164816 
L 210.668534 319.933125 
L 211.926235 317.56512 
L 213.183936 329.498414 
L 214.441637 327.604324 
L 215.699338 330.597399 
L 216.957039 333.135335 
L 218.21474 332.637741 
L 219.472441 339.913415 
L 220.730142 346.184377 
L 221.987843 346.485038 
L 223.245544 354.089812 
L 224.503245 354.513151 
L 225.760946 357.077592 
L 227.018647 358.972134 
L 228.276348 383.779754 
L 229.534049 384.765606 
L 230.79175 372.276674 
L 232.049451 365.105856 
L 233.307152 361.657933 
L 234.564853 353.081057 
L 235.822554 342.354251 
L 237.080255 351.722374 
L 238.337956 347.834048 
L 239.595657 361.016113 
L 240.853358 359.692623 
L 242.111059 354.942328 
L 243.36876 362.468433 
L 244.626461 366.813437 
L 245.884162 363.430514 
L 247.141863 359.476702 
L 248.399564 354.282008 
L 249.657264 357.640117 
L 250.914965 357.284941 
L 252.172666 346.801986 
L 253.430367 349.035138 
L 254.688068 344.755296 
L 255.945769 337.843579 
L 257.20347 328.372599 
L 258.461171 336.209338 
L 259.718872 332.942363 
L 260.976573 338.580043 
L 262.234274 317.554138 
L 263.491975 323.434997 
L 264.749676 307.928947 
L 266.007377 310.461473 
L 267.265078 294.842673 
L 268.522779 306.658455 
L 269.78048 294.249078 
L 271.038181 305.981592 
L 272.295882 303.446633 
L 273.553583 318.981516 
L 274.811284 328.186114 
L 276.068985 339.906742 
L 277.326686 349.617866 
L 278.584387 365.830133 
L 279.842088 373.26888 
L 281.099789 355.907178 
L 282.35749 334.922524 
L 283.615191 335.711929 
L 284.872892 316.590145 
L 287.388294 309.483452 
L 288.645995 314.218479 
L 289.903696 336.853417 
L 291.161397 333.717148 
L 292.419098 324.056787 
L 293.676799 340.899151 
L 294.9345 344.255511 
L 296.192201 347.087865 
L 297.449902 351.12535 
L 298.707603 358.204751 
L 299.965304 347.144767 
L 301.223005 317.225895 
L 303.738406 287.875791 
L 304.996107 262.197664 
L 306.253808 262.461741 
L 307.511509 266.797837 
L 308.76921 259.510533 
L 310.026911 224.139261 
L 311.284612 226.016228 
L 312.542313 239.0146 
L 313.800014 240.957784 
L 315.057715 256.24738 
L 316.315416 258.949039 
L 317.573117 281.418089 
L 320.088519 297.551456 
L 321.34622 291.810872 
L 322.603921 309.878351 
L 323.861622 320.174845 
L 325.119323 332.263253 
L 326.377024 338.756102 
L 327.634725 349.274297 
L 328.892426 344.393296 
L 330.150127 348.76199 
L 331.407828 349.183997 
L 332.665529 359.373369 
L 333.92323 362.534661 
L 336.438632 364.788074 
L 337.696333 369.458929 
L 338.954034 380.484188 
L 340.211735 375.220764 
L 341.469436 393.095272 
L 342.727137 387.966261 
L 343.984838 399.388673 
L 345.242539 396.2024 
L 346.50024 409.667569 
L 347.757941 399.464753 
L 349.015642 386.948193 
L 350.273343 368.534445 
L 351.531044 355.510159 
L 352.788745 347.654965 
L 354.046446 329.118504 
L 355.304147 320.318259 
L 356.561848 317.368417 
L 357.819548 306.599398 
L 359.077249 301.435483 
L 360.33495 282.662041 
L 361.592651 285.384297 
L 362.850352 286.613166 
L 364.108053 296.598792 
L 365.365754 294.09891 
L 366.623455 297.64954 
L 367.881156 310.60227 
L 369.138857 310.72233 
L 370.396558 322.145866 
L 371.654259 344.009378 
L 372.91196 345.378384 
L 374.169661 365.352626 
L 375.427362 372.996897 
L 376.685063 366.212962 
L 377.942764 354.689418 
L 379.200465 340.748821 
L 380.458166 330.371145 
L 381.715867 350.124635 
L 382.973568 360.606675 
L 384.231269 354.662844 
L 385.48897 354.253464 
L 386.746671 343.062797 
L 388.004372 333.364683 
L 389.262073 329.043183 
L 390.519774 317.369946 
L 391.777475 309.544247 
L 393.035176 328.788779 
L 394.292877 333.522184 
L 395.550578 343.947472 
L 396.808279 357.543353 
L 398.06598 356.563015 
L 399.323681 359.642694 
L 400.581382 359.048324 
L 401.839083 372.016738 
L 403.096784 368.299803 
L 404.354485 378.41598 
L 405.612186 380.119484 
L 406.869887 388.39896 
L 408.127588 389.559186 
L 409.385289 391.750217 
L 410.64299 379.113133 
L 411.90069 371.209036 
L 413.158391 358.245157 
L 414.416092 356.792073 
L 415.673793 340.735151 
L 418.189195 352.819007 
L 420.704597 319.713961 
L 421.962298 316.030852 
L 423.219999 291.767338 
L 424.4777 286.762222 
L 425.735401 274.700237 
L 426.993102 291.565642 
L 428.250803 297.457518 
L 429.508504 321.894138 
L 430.766205 329.909427 
L 432.023906 343.556256 
L 433.281607 351.30624 
L 434.539308 349.627458 
L 435.797009 344.084225 
L 437.05471 341.380064 
L 438.312411 352.628549 
L 439.570112 344.34602 
L 440.827813 331.640814 
L 442.085514 337.982568 
L 443.343215 332.261805 
L 444.600916 342.454885 
L 445.858617 349.441459 
L 447.116318 349.00028 
L 448.374019 341.757089 
L 449.63172 357.695479 
L 450.889421 365.634856 
L 452.147122 371.938121 
L 453.404823 375.044398 
L 454.662524 373.098538 
L 455.920225 382.108802 
L 457.177926 380.760863 
L 458.435627 381.210534 
L 459.693328 385.396768 
L 460.951029 363.736503 
L 463.466431 330.939392 
L 464.724131 325.02495 
L 467.239533 306.887941 
L 468.497234 311.494845 
L 469.754935 305.540321 
L 471.012636 312.045751 
L 472.270337 306.645504 
L 473.528038 309.290677 
L 474.785739 297.181046 
L 476.04344 288.231501 
L 477.301141 282.086206 
L 478.558842 283.20829 
L 479.816543 281.834234 
L 481.074244 284.286423 
L 482.331945 299.258191 
L 483.589646 299.243027 
L 486.105048 290.341511 
L 488.62045 241.373686 
L 491.135852 188.137915 
L 492.393553 171.610808 
L 493.651254 161.839098 
L 494.908955 169.592812 
L 496.166656 220.312668 
L 497.424357 244.314863 
L 498.682058 297.043759 
L 499.939759 307.920386 
L 501.19746 317.729571 
L 502.455161 338.665235 
L 503.712862 339.624883 
L 504.970563 351.258513 
L 506.228264 336.551506 
L 507.485965 332.093392 
L 508.743666 309.880703 
L 510.001367 298.985866 
L 511.259068 303.904424 
L 512.516769 289.882713 
L 513.77447 284.687242 
L 515.032171 272.803286 
L 516.289872 266.701432 
L 517.547573 250.85815 
L 518.805273 224.44671 
L 520.062974 212.507403 
L 521.320675 211.454709 
L 522.578376 221.851998 
L 523.836077 192.479711 
L 525.093778 203.564392 
L 526.351479 205.133123 
L 527.60918 213.524001 
L 528.866881 219.976281 
L 530.124582 244.520068 
L 531.382283 245.472835 
L 532.639984 272.34129 
L 533.897685 271.908221 
L 535.155386 280.057274 
L 536.413087 266.213221 
L 537.670788 273.957112 
L 538.928489 269.002828 
L 540.18619 272.741692 
L 541.443891 272.985138 
L 542.701592 281.711011 
L 543.959293 298.690696 
L 545.216994 302.035345 
L 546.474695 317.589783 
L 547.732396 319.232086 
L 548.990097 315.783549 
L 550.247798 324.222768 
L 551.505499 327.300327 
L 552.7632 318.202375 
L 554.020901 322.388338 
L 555.278602 338.446974 
L 556.536303 348.921368 
L 557.794004 365.462759 
L 559.051705 350.362103 
L 560.309406 354.758554 
L 561.567107 359.73925 
L 562.824808 361.752044 
L 564.082509 371.412012 
L 565.34021 388.407828 
L 566.597911 388.934783 
L 567.855612 398.941968 
L 569.113313 389.131011 
L 570.371014 389.154081 
L 571.628715 387.715766 
L 572.886415 384.357414 
L 574.144116 372.34958 
L 575.401817 358.722085 
L 576.659518 355.99596 
L 577.917219 344.932108 
L 579.17492 349.300744 
L 580.432621 343.458913 
L 581.690322 358.848285 
L 582.948023 354.220773 
L 584.205724 357.752381 
L 585.463425 357.38927 
L 586.721126 355.547704 
L 587.978827 359.231009 
L 589.236528 337.349518 
L 590.494229 346.037418 
L 591.75193 332.351398 
L 593.009631 335.379886 
L 594.267332 330.018354 
L 595.525033 309.364191 
L 596.782734 316.06213 
L 598.040435 317.854196 
L 599.298136 315.401033 
L 600.555837 335.464012 
L 601.813538 346.879392 
L 603.071239 354.424299 
L 604.32894 357.182697 
L 605.586641 357.618246 
L 606.844342 350.515503 
L 608.102043 356.426227 
L 609.359744 363.445944 
L 610.617445 374.907378 
L 611.875146 375.83806 
L 613.132847 377.135399 
L 614.390548 352.720679 
L 615.648249 352.768986 
L 616.90595 336.445903 
L 618.163651 337.680749 
L 619.421352 337.405227 
L 620.679053 346.983223 
L 621.936754 351.954177 
L 623.194455 364.325232 
L 624.452156 356.975163 
L 625.709857 352.545002 
L 628.225258 322.336521 
L 629.482959 313.31301 
L 630.74066 322.730864 
L 631.998361 317.968754 
L 633.256062 307.416663 
L 634.513763 308.531913 
L 635.771464 310.773371 
L 637.029165 325.440157 
L 638.286866 321.460952 
L 639.544567 312.917914 
L 640.802268 295.07809 
L 642.059969 293.036926 
L 643.31767 285.941898 
L 644.575371 272.867012 
L 645.833072 266.820798 
L 647.090773 281.066191 
L 648.348474 281.305454 
L 649.606175 288.549051 
L 650.863876 305.086642 
L 652.121577 314.950077 
L 653.379278 312.386991 
L 654.636979 300.768664 
L 655.89468 306.052639 
L 657.152381 309.674154 
L 658.410082 318.962228 
L 659.667783 334.921018 
L 660.925484 337.87744 
L 662.183185 343.518677 
L 663.440886 350.987647 
L 664.698587 346.905121 
L 665.956288 359.535933 
L 667.213989 374.069331 
L 668.47169 368.895494 
L 669.729391 385.496886 
L 672.244793 396.626156 
L 673.502494 383.580688 
L 674.760195 386.334094 
L 676.017896 377.680385 
L 677.275597 359.894839 
L 678.533298 361.300057 
L 679.790999 343.430404 
L 681.048699 341.632928 
L 682.3064 333.015576 
L 683.564101 327.643363 
L 684.821802 324.285984 
L 686.079503 336.080346 
L 687.337204 334.087744 
L 688.594905 344.975479 
L 689.852606 357.613647 
L 691.110307 360.594002 
L 692.368008 362.394872 
L 693.625709 342.845023 
L 694.88341 350.183971 
L 696.141111 351.750002 
L 697.398812 340.4932 
L 698.656513 353.792939 
L 699.914214 350.223102 
L 701.171915 349.705212 
L 702.429616 342.573196 
L 703.687317 339.586041 
L 704.945018 341.341129 
L 706.202719 345.15791 
L 707.46042 342.067457 
L 708.718121 354.284024 
L 709.975822 345.211719 
L 711.233523 342.32178 
L 712.491224 353.641902 
L 713.748925 348.098843 
L 715.006626 331.447772 
L 716.264327 324.44089 
L 717.522028 308.272736 
L 718.779729 306.227262 
L 720.03743 306.783369 
L 721.295131 326.79248 
L 723.810533 350.982805 
L 725.068234 351.888702 
L 726.325935 358.510369 
L 727.583636 364.435156 
L 728.841337 337.002717 
L 730.099038 320.023425 
L 731.356739 317.583272 
L 732.61444 318.958452 
L 733.872141 322.237996 
L 735.129841 336.559406 
L 736.387542 341.084119 
L 737.645243 342.532732 
L 738.902944 340.539955 
L 740.160645 328.660505 
L 741.418346 327.795547 
L 741.418346 327.795547 
" clip-path="url(#pfc4a8e0d17)" style="fill: none; stroke-dasharray: 7.4,3.2; stroke-dashoffset: 0; stroke: #0000ff; stroke-width: 2"/>
   </g>
   <g id="line2d_17">
    <path d="M 132.691074 310.195508 
L 135.206476 229.973817 
L 136.464177 176.204239 
L 137.721878 133.067576 
L 138.979579 105.037128 
L 140.23728 102.441629 
L 141.49498 79.879092 
L 142.752681 104.285882 
L 144.010382 139.249107 
L 145.268083 130.596863 
L 146.525784 39.396337 
L 147.783485 43.446091 
L 149.041186 43.416342 
L 150.298887 50.034673 
L 151.556588 27.36 
L 152.814289 84.062785 
L 154.07199 146.489703 
L 155.329691 215.265408 
L 156.587392 237.320573 
L 159.102794 338.839498 
L 160.360495 363.40716 
L 161.618196 323.121918 
L 162.875897 347.201357 
L 164.133598 347.799492 
L 165.391299 348.996377 
L 166.649 307.759352 
L 167.906701 300.016422 
L 169.164402 320.012223 
L 170.422103 333.442008 
L 171.679804 318.074565 
L 172.937505 326.354997 
L 174.195206 314.725561 
L 175.452907 314.857449 
L 176.710608 282.204969 
L 177.968309 267.269066 
L 179.22601 215.070652 
L 180.483711 250.744739 
L 181.741412 256.574314 
L 182.999113 273.400159 
L 184.256814 294.869085 
L 185.514515 348.936045 
L 186.772216 376.200998 
L 188.029917 382.895328 
L 189.287618 378.854726 
L 190.545319 380.786471 
L 191.80302 385.555497 
L 193.060721 379.7833 
L 194.318422 404.517255 
L 195.576122 417.301661 
L 196.833823 412.658443 
L 198.091524 408.6715 
L 199.349225 384.760017 
L 200.606926 367.101436 
L 201.864627 318.599476 
L 203.122328 304.550796 
L 204.380029 283.377016 
L 205.63773 279.055447 
L 206.895431 256.265058 
L 208.153132 245.338318 
L 209.410833 201.002163 
L 210.668534 223.073847 
L 211.926235 222.119133 
L 213.183936 225.892299 
L 214.441637 251.120165 
L 215.699338 298.715128 
L 216.957039 226.392326 
L 218.21474 234.953146 
L 219.472441 247.708501 
L 220.730142 255.713457 
L 221.987843 252.291877 
L 223.245544 281.722017 
L 224.503245 289.363617 
L 225.760946 280.147632 
L 227.018647 279.918158 
L 228.276348 281.582761 
L 229.534049 277.709136 
L 230.79175 288.057318 
L 232.049451 327.956952 
L 234.564853 369.080167 
L 235.822554 356.078626 
L 239.595657 218.756124 
L 240.853358 210.284851 
L 242.111059 210.500065 
L 243.36876 234.654015 
L 244.626461 245.802897 
L 245.884162 267.118307 
L 247.141863 228.438403 
L 248.399564 210.796718 
L 249.657264 219.158379 
L 250.914965 247.486892 
L 252.172666 194.079696 
L 253.430367 156.376956 
L 254.688068 150.945072 
L 255.945769 176.519473 
L 257.20347 161.041862 
L 258.461171 165.704151 
L 259.718872 175.182661 
L 260.976573 230.993727 
L 262.234274 241.99243 
L 263.491975 275.423229 
L 264.749676 267.722362 
L 266.007377 283.201282 
L 267.265078 257.335059 
L 268.522779 257.835457 
L 269.78048 244.051851 
L 271.038181 258.104423 
L 272.295882 227.472035 
L 273.553583 228.882964 
L 274.811284 246.228831 
L 276.068985 279.002472 
L 277.326686 285.65997 
L 278.584387 314.610714 
L 279.842088 310.321082 
L 281.099789 322.59542 
L 282.35749 304.766578 
L 283.615191 299.815202 
L 284.872892 296.527166 
L 286.130593 315.151634 
L 287.388294 272.642843 
L 288.645995 252.180783 
L 289.903696 235.411725 
L 291.161397 209.570258 
L 292.419098 179.9724 
L 293.676799 168.607725 
L 294.9345 182.394273 
L 296.192201 233.194941 
L 297.449902 210.655921 
L 298.707603 218.327641 
L 301.223005 286.082544 
L 302.480706 217.343897 
L 303.738406 194.1448 
L 304.996107 216.238657 
L 306.253808 233.430451 
L 307.511509 193.452148 
L 308.76921 194.17726 
L 310.026911 225.271563 
L 311.284612 291.397206 
L 312.542313 338.506123 
L 313.800014 390.639862 
L 315.057715 363.582037 
L 316.315416 343.932875 
L 317.573117 371.64338 
L 318.830818 367.083793 
L 320.088519 357.460629 
L 321.34622 345.113449 
L 322.603921 317.663598 
L 323.861622 309.253607 
L 325.119323 350.061327 
L 326.377024 385.882564 
L 327.634725 360.347487 
L 328.892426 361.200316 
L 330.150127 344.170575 
L 331.407828 311.985176 
L 332.665529 244.468378 
L 333.92323 261.737649 
L 335.180931 271.406571 
L 336.438632 260.987469 
L 337.696333 243.588176 
L 338.954034 298.076922 
L 340.211735 295.991957 
L 341.469436 282.893334 
L 342.727137 259.783576 
L 343.984838 274.821606 
L 345.242539 255.870402 
L 347.757941 244.222581 
L 349.015642 275.073682 
L 350.273343 286.760391 
L 351.531044 296.520795 
L 352.788745 286.491808 
L 355.304147 354.094967 
L 356.561848 365.992952 
L 357.819548 336.887209 
L 359.077249 335.240318 
L 360.33495 347.036418 
L 361.592651 353.287178 
L 362.850352 310.41451 
L 364.108053 333.415271 
L 365.365754 351.922134 
L 366.623455 360.38107 
L 367.881156 348.911788 
L 369.138857 389.776016 
L 370.396558 390.23511 
L 371.654259 387.774702 
L 372.91196 379.319966 
L 374.169661 379.546596 
L 375.427362 326.244772 
L 376.685063 311.53334 
L 377.942764 264.345034 
L 379.200465 268.670982 
L 381.715867 347.008801 
L 382.973568 328.581453 
L 384.231269 348.790604 
L 385.48897 377.518424 
L 386.746671 394.517623 
L 388.004372 404.485149 
L 389.262073 395.269077 
L 390.519774 383.19812 
L 391.777475 383.733283 
L 393.035176 400.672087 
L 394.292877 412.696666 
L 395.550578 416.501338 
L 396.808279 413.801721 
L 398.06598 388.662325 
L 399.323681 395.167841 
L 400.581382 402.603235 
L 401.839083 360.826199 
L 403.096784 300.457914 
L 404.354485 292.982375 
L 405.612186 310.675425 
L 406.869887 296.717602 
L 408.127588 286.076694 
L 409.385289 341.169692 
L 410.64299 376.345953 
L 411.90069 361.907889 
L 413.158391 340.53941 
L 414.416092 370.442464 
L 415.673793 365.213799 
L 416.931494 354.516997 
L 418.189195 370.727544 
L 419.446896 419.976597 
L 420.704597 418.788293 
L 421.962298 380.12242 
L 423.219999 357.694355 
L 424.4777 345.140557 
L 425.735401 273.888138 
L 426.993102 225.361457 
L 428.250803 164.800478 
L 429.508504 185.691785 
L 430.766205 201.729059 
L 432.023906 196.778783 
L 433.281607 197.414347 
L 434.539308 256.046461 
L 435.797009 263.079466 
L 437.05471 246.240994 
L 438.312411 266.901587 
L 439.570112 309.73408 
L 440.827813 299.903996 
L 442.085514 273.317076 
L 443.343215 278.525358 
L 444.600916 318.308836 
L 445.858617 295.774832 
L 447.116318 237.327987 
L 448.374019 233.462656 
L 449.63172 269.934234 
L 450.889421 246.915436 
L 452.147122 226.034833 
L 453.404823 227.58116 
L 454.662524 272.16895 
L 455.920225 304.095751 
L 457.177926 286.112489 
L 458.435627 283.463158 
L 459.693328 324.968048 
L 460.951029 342.038021 
L 462.20873 329.822266 
L 463.466431 323.113693 
L 464.724131 373.907549 
L 465.981832 382.022493 
L 467.239533 368.852679 
L 468.497234 329.601236 
L 469.754935 323.60575 
L 471.012636 342.24786 
L 472.270337 339.619137 
L 473.528038 326.821604 
L 474.785739 362.447882 
L 476.04344 336.803083 
L 478.558842 230.981865 
L 479.816543 243.936726 
L 481.074244 261.153798 
L 482.331945 256.424575 
L 483.589646 258.488815 
L 484.847347 281.76401 
L 486.105048 278.913122 
L 487.362749 287.632624 
L 488.62045 281.603798 
L 489.878151 284.533761 
L 491.135852 277.203316 
L 492.393553 298.812205 
L 493.651254 277.380997 
L 494.908955 263.15539 
L 496.166656 234.559 
L 497.424357 255.531745 
L 498.682058 260.531393 
L 499.939759 254.084441 
L 501.19746 273.819061 
L 502.455161 307.336742 
L 503.712862 318.203175 
L 504.970563 345.910928 
L 506.228264 334.806078 
L 507.485965 282.426265 
L 508.743666 234.856718 
L 510.001367 227.688037 
L 511.259068 204.806746 
L 512.516769 192.920612 
L 513.77447 210.848592 
L 515.032171 243.855496 
L 516.289872 220.499315 
L 517.547573 173.293784 
L 518.805273 160.152183 
L 520.062974 174.591557 
L 521.320675 150.291459 
L 522.578376 114.777074 
L 523.836077 95.451996 
L 525.093778 106.863333 
L 526.351479 81.451299 
L 527.60918 60.481496 
L 528.866881 71.666661 
L 530.124582 138.740785 
L 531.382283 177.62754 
L 532.639984 208.462654 
L 533.897685 264.77354 
L 535.155386 303.94498 
L 536.413087 293.569262 
L 537.670788 265.699223 
L 538.928489 271.808804 
L 540.18619 284.306708 
L 541.443891 261.376472 
L 542.701592 232.014773 
L 543.959293 246.660418 
L 545.216994 276.149 
L 546.474695 283.114028 
L 547.732396 263.653448 
L 548.990097 212.743562 
L 550.247798 203.00876 
L 551.505499 186.111718 
L 552.7632 152.242544 
L 554.020901 146.761079 
L 555.278602 165.921334 
L 556.536303 170.739178 
L 557.794004 172.219613 
L 559.051705 192.889009 
L 560.309406 225.642262 
L 561.567107 216.759281 
L 562.824808 225.706741 
L 564.082509 247.224229 
L 565.34021 281.572775 
L 566.597911 291.550652 
L 567.855612 312.904407 
L 569.113313 313.333862 
L 570.371014 320.395353 
L 571.628715 333.580835 
L 572.886415 327.450762 
L 574.144116 334.810573 
L 575.401817 379.582734 
L 576.659518 368.983298 
L 577.917219 319.467642 
L 579.17492 331.198175 
L 580.432621 368.313542 
L 581.690322 352.464758 
L 582.948023 311.108912 
L 584.205724 320.834794 
L 585.463425 349.297188 
L 586.721126 331.896712 
L 587.978827 309.799763 
L 589.236528 321.932053 
L 590.494229 308.187162 
L 593.009631 239.087489 
L 594.267332 200.636028 
L 595.525033 219.78697 
L 596.782734 235.65912 
L 598.040435 243.678765 
L 599.298136 261.903792 
L 600.555837 267.722223 
L 601.813538 259.507613 
L 603.071239 220.455874 
L 604.32894 234.515049 
L 605.586641 232.394694 
L 606.844342 210.865992 
L 608.102043 192.308332 
L 609.359744 229.694449 
L 610.617445 279.707519 
L 611.875146 280.768867 
L 613.132847 245.519219 
L 614.390548 256.107117 
L 615.648249 289.857227 
L 616.90595 296.659159 
L 618.163651 305.851975 
L 619.421352 305.69247 
L 620.679053 321.565107 
L 621.936754 339.829428 
L 623.194455 341.133607 
L 624.452156 374.869005 
L 625.709857 417.510188 
L 626.967557 421.220016 
L 628.225258 414.559159 
L 629.482959 393.739252 
L 630.74066 400.860848 
L 631.998361 405.16774 
L 633.256062 399.21628 
L 634.513763 376.204925 
L 635.771464 396.113253 
L 637.029165 392.54743 
L 638.286866 381.099179 
L 639.544567 356.470108 
L 640.802268 362.066815 
L 642.059969 375.847988 
L 643.31767 360.376691 
L 644.575371 354.414753 
L 645.833072 367.963226 
L 647.090773 376.645757 
L 648.348474 364.694171 
L 649.606175 360.223314 
L 650.863876 352.140349 
L 652.121577 338.582059 
L 653.379278 328.180542 
L 654.636979 331.535269 
L 655.89468 330.381153 
L 657.152381 321.089059 
L 658.410082 322.120287 
L 659.667783 329.919714 
L 660.925484 336.304539 
L 662.183185 324.353497 
L 663.440886 320.984927 
L 664.698587 335.500422 
L 665.956288 355.755736 
L 667.213989 333.568255 
L 668.47169 308.374968 
L 669.729391 325.496607 
L 670.987092 370.80754 
L 672.244793 365.830991 
L 673.502494 352.546543 
L 674.760195 372.22992 
L 676.017896 379.915472 
L 677.275597 363.053605 
L 678.533298 322.516936 
L 679.790999 286.916178 
L 681.048699 292.722758 
L 682.3064 270.153584 
L 683.564101 258.236879 
L 684.821802 259.505065 
L 686.079503 288.201706 
L 687.337204 299.253847 
L 688.594905 317.795243 
L 691.110307 405.916588 
L 692.368008 418.94549 
L 693.625709 384.580448 
L 694.88341 370.924362 
L 696.141111 320.008261 
L 697.398812 296.090123 
L 698.656513 295.632981 
L 699.914214 270.596292 
L 701.171915 270.671717 
L 702.429616 236.638532 
L 703.687317 242.104983 
L 704.945018 257.945207 
L 706.202719 209.61882 
L 707.46042 172.418331 
L 708.718121 175.457303 
L 711.233523 260.301814 
L 712.491224 264.380737 
L 713.748925 248.569729 
L 715.006626 274.028518 
L 716.264327 307.428838 
L 717.522028 303.228534 
L 718.779729 280.85429 
L 720.03743 265.146649 
L 721.295131 266.623956 
L 722.552832 248.789577 
L 723.810533 245.953679 
L 725.068234 247.890654 
L 726.325935 251.268514 
L 727.583636 211.945006 
L 728.841337 179.288622 
L 731.356739 230.892156 
L 732.61444 256.683439 
L 733.872141 304.410683 
L 735.129841 332.727438 
L 737.645243 368.833466 
L 738.902944 369.715262 
L 740.160645 367.229049 
L 741.418346 398.444484 
L 741.418346 398.444484 
" clip-path="url(#pfc4a8e0d17)" style="fill: none; stroke-dasharray: 7.4,3.2; stroke-dashoffset: 0; stroke: #ffa500; stroke-width: 2"/>
   </g>
   <g id="patch_3">
    <path d="M 102.25471 450.72 
L 102.25471 7.2 
" style="fill: none; stroke: #000000; stroke-width: 0.8; stroke-linejoin: miter; stroke-linecap: square"/>
   </g>
   <g id="patch_4">
    <path d="M 771.85471 450.72 
L 771.85471 7.2 
" style="fill: none; stroke: #000000; stroke-width: 0.8; stroke-linejoin: miter; stroke-linecap: square"/>
   </g>
   <g id="patch_5">
    <path d="M 102.25471 450.72 
L 771.85471 450.72 
" style="fill: none; stroke: #000000; stroke-width: 0.8; stroke-linejoin: miter; stroke-linecap: square"/>
   </g>
   <g id="patch_6">
    <path d="M 102.25471 7.2 
L 771.85471 7.2 
" style="fill: none; stroke: #000000; stroke-width: 0.8; stroke-linejoin: miter; stroke-linecap: square"/>
   </g>
   <g id="legend_1">
    <g id="text_16">
     <!-- Forecast Horizon -->
     <g transform="translate(887.954554 31.9575) scale(0.16 -0.16)">
      <defs>
       <path id="DejaVuSans-48" d="M 628 4666 
L 1259 4666 
L 1259 2753 
L 3553 2753 
L 3553 4666 
L 4184 4666 
L 4184 0 
L 3553 0 
L 3553 2222 
L 1259 2222 
L 1259 0 
L 628 0 
L 628 4666 
z
" transform="scale(0.015625)"/>
       <path id="DejaVuSans-69" d="M 603 3500 
L 1178 3500 
L 1178 0 
L 603 0 
L 603 3500 
z
M 603 4863 
L 1178 4863 
L 1178 4134 
L 603 4134 
L 603 4863 
z
" transform="scale(0.015625)"/>
       <path id="DejaVuSans-7a" d="M 353 3500 
L 3084 3500 
L 3084 2975 
L 922 459 
L 3084 459 
L 3084 0 
L 275 0 
L 275 525 
L 2438 3041 
L 353 3041 
L 353 3500 
z
" transform="scale(0.015625)"/>
      </defs>
      <use xlink:href="#DejaVuSans-46"/>
      <use xlink:href="#DejaVuSans-6f" transform="translate(53.894531 0)"/>
      <use xlink:href="#DejaVuSans-72" transform="translate(115.076172 0)"/>
      <use xlink:href="#DejaVuSans-65" transform="translate(153.939453 0)"/>
      <use xlink:href="#DejaVuSans-63" transform="translate(215.462891 0)"/>
      <use xlink:href="#DejaVuSans-61" transform="translate(270.443359 0)"/>
      <use xlink:href="#DejaVuSans-73" transform="translate(331.722656 0)"/>
      <use xlink:href="#DejaVuSans-74" transform="translate(383.822266 0)"/>
      <use xlink:href="#DejaVuSans-20" transform="translate(423.03125 0)"/>
      <use xlink:href="#DejaVuSans-48" transform="translate(454.818359 0)"/>
      <use xlink:href="#DejaVuSans-6f" transform="translate(530.013672 0)"/>
      <use xlink:href="#DejaVuSans-72" transform="translate(591.195312 0)"/>
      <use xlink:href="#DejaVuSans-69" transform="translate(632.308594 0)"/>
      <use xlink:href="#DejaVuSans-7a" transform="translate(660.091797 0)"/>
      <use xlink:href="#DejaVuSans-6f" transform="translate(712.582031 0)"/>
      <use xlink:href="#DejaVuSans-6e" transform="translate(773.763672 0)"/>
     </g>
    </g>
    <g id="line2d_18">
     <path d="M 817.93471 48.022812 
L 831.93471 48.022812 
L 845.93471 48.022812 
" style="fill: none; stroke: #0000ff; stroke-width: 2; stroke-linecap: square"/>
    </g>
    <g id="text_17">
     <!-- Europe RMSE (6h Forecast) -->
     <g transform="translate(857.13471 52.922812) scale(0.14 -0.14)">
      <defs>
       <path id="DejaVuSans-70" d="M 1159 525 
L 1159 -1331 
L 581 -1331 
L 581 3500 
L 1159 3500 
L 1159 2969 
Q 1341 3281 1617 3432 
Q 1894 3584 2278 3584 
Q 2916 3584 3314 3078 
Q 3713 2572 3713 1747 
Q 3713 922 3314 415 
Q 2916 -91 2278 -91 
Q 1894 -91 1617 61 
Q 1341 213 1159 525 
z
M 3116 1747 
Q 3116 2381 2855 2742 
Q 2594 3103 2138 3103 
Q 1681 3103 1420 2742 
Q 1159 2381 1159 1747 
Q 1159 1113 1420 752 
Q 1681 391 2138 391 
Q 2594 391 2855 752 
Q 3116 1113 3116 1747 
z
" transform="scale(0.015625)"/>
       <path id="DejaVuSans-68" d="M 3513 2113 
L 3513 0 
L 2938 0 
L 2938 2094 
Q 2938 2591 2744 2837 
Q 2550 3084 2163 3084 
Q 1697 3084 1428 2787 
Q 1159 2491 1159 1978 
L 1159 0 
L 581 0 
L 581 4863 
L 1159 4863 
L 1159 2956 
Q 1366 3272 1645 3428 
Q 1925 3584 2291 3584 
Q 2894 3584 3203 3211 
Q 3513 2838 3513 2113 
z
" transform="scale(0.015625)"/>
      </defs>
      <use xlink:href="#DejaVuSans-45"/>
      <use xlink:href="#DejaVuSans-75" transform="translate(63.183594 0)"/>
      <use xlink:href="#DejaVuSans-72" transform="translate(126.5625 0)"/>
      <use xlink:href="#DejaVuSans-6f" transform="translate(165.425781 0)"/>
      <use xlink:href="#DejaVuSans-70" transform="translate(226.607422 0)"/>
      <use xlink:href="#DejaVuSans-65" transform="translate(290.083984 0)"/>
      <use xlink:href="#DejaVuSans-20" transform="translate(351.607422 0)"/>
      <use xlink:href="#DejaVuSans-52" transform="translate(383.394531 0)"/>
      <use xlink:href="#DejaVuSans-4d" transform="translate(452.876953 0)"/>
      <use xlink:href="#DejaVuSans-53" transform="translate(539.15625 0)"/>
      <use xlink:href="#DejaVuSans-45" transform="translate(602.632812 0)"/>
      <use xlink:href="#DejaVuSans-20" transform="translate(665.816406 0)"/>
      <use xlink:href="#DejaVuSans-28" transform="translate(697.603516 0)"/>
      <use xlink:href="#DejaVuSans-36" transform="translate(736.617188 0)"/>
      <use xlink:href="#DejaVuSans-68" transform="translate(800.240234 0)"/>
      <use xlink:href="#DejaVuSans-20" transform="translate(863.619141 0)"/>
      <use xlink:href="#DejaVuSans-46" transform="translate(895.40625 0)"/>
      <use xlink:href="#DejaVuSans-6f" transform="translate(949.300781 0)"/>
      <use xlink:href="#DejaVuSans-72" transform="translate(1010.482422 0)"/>
      <use xlink:href="#DejaVuSans-65" transform="translate(1049.345703 0)"/>
      <use xlink:href="#DejaVuSans-63" transform="translate(1110.869141 0)"/>
      <use xlink:href="#DejaVuSans-61" transform="translate(1165.849609 0)"/>
      <use xlink:href="#DejaVuSans-73" transform="translate(1227.128906 0)"/>
      <use xlink:href="#DejaVuSans-74" transform="translate(1279.228516 0)"/>
      <use xlink:href="#DejaVuSans-29" transform="translate(1318.4375 0)"/>
     </g>
    </g>
    <g id="line2d_19">
     <path d="M 817.93471 68.572187 
L 831.93471 68.572187 
L 845.93471 68.572187 
" style="fill: none; stroke: #ffa500; stroke-width: 2; stroke-linecap: square"/>
    </g>
    <g id="text_18">
     <!-- South Africa RMSE (6h Forecast) -->
     <g transform="translate(857.13471 73.472187) scale(0.14 -0.14)">
      <defs>
       <path id="DejaVuSans-41" d="M 2188 4044 
L 1331 1722 
L 3047 1722 
L 2188 4044 
z
M 1831 4666 
L 2547 4666 
L 4325 0 
L 3669 0 
L 3244 1197 
L 1141 1197 
L 716 0 
L 50 0 
L 1831 4666 
z
" transform="scale(0.015625)"/>
       <path id="DejaVuSans-66" d="M 2375 4863 
L 2375 4384 
L 1825 4384 
Q 1516 4384 1395 4259 
Q 1275 4134 1275 3809 
L 1275 3500 
L 2222 3500 
L 2222 3053 
L 1275 3053 
L 1275 0 
L 697 0 
L 697 3053 
L 147 3053 
L 147 3500 
L 697 3500 
L 697 3744 
Q 697 4328 969 4595 
Q 1241 4863 1831 4863 
L 2375 4863 
z
" transform="scale(0.015625)"/>
      </defs>
      <use xlink:href="#DejaVuSans-53"/>
      <use xlink:href="#DejaVuSans-6f" transform="translate(63.476562 0)"/>
      <use xlink:href="#DejaVuSans-75" transform="translate(124.658203 0)"/>
      <use xlink:href="#DejaVuSans-74" transform="translate(188.037109 0)"/>
      <use xlink:href="#DejaVuSans-68" transform="translate(227.246094 0)"/>
      <use xlink:href="#DejaVuSans-20" transform="translate(290.625 0)"/>
      <use xlink:href="#DejaVuSans-41" transform="translate(322.412109 0)"/>
      <use xlink:href="#DejaVuSans-66" transform="translate(387.195312 0)"/>
      <use xlink:href="#DejaVuSans-72" transform="translate(422.400391 0)"/>
      <use xlink:href="#DejaVuSans-69" transform="translate(463.513672 0)"/>
      <use xlink:href="#DejaVuSans-63" transform="translate(491.296875 0)"/>
      <use xlink:href="#DejaVuSans-61" transform="translate(546.277344 0)"/>
      <use xlink:href="#DejaVuSans-20" transform="translate(607.556641 0)"/>
      <use xlink:href="#DejaVuSans-52" transform="translate(639.34375 0)"/>
      <use xlink:href="#DejaVuSans-4d" transform="translate(708.826172 0)"/>
      <use xlink:href="#DejaVuSans-53" transform="translate(795.105469 0)"/>
      <use xlink:href="#DejaVuSans-45" transform="translate(858.582031 0)"/>
      <use xlink:href="#DejaVuSans-20" transform="translate(921.765625 0)"/>
      <use xlink:href="#DejaVuSans-28" transform="translate(953.552734 0)"/>
      <use xlink:href="#DejaVuSans-36" transform="translate(992.566406 0)"/>
      <use xlink:href="#DejaVuSans-68" transform="translate(1056.189453 0)"/>
      <use xlink:href="#DejaVuSans-20" transform="translate(1119.568359 0)"/>
      <use xlink:href="#DejaVuSans-46" transform="translate(1151.355469 0)"/>
      <use xlink:href="#DejaVuSans-6f" transform="translate(1205.25 0)"/>
      <use xlink:href="#DejaVuSans-72" transform="translate(1266.431641 0)"/>
      <use xlink:href="#DejaVuSans-65" transform="translate(1305.294922 0)"/>
      <use xlink:href="#DejaVuSans-63" transform="translate(1366.818359 0)"/>
      <use xlink:href="#DejaVuSans-61" transform="translate(1421.798828 0)"/>
      <use xlink:href="#DejaVuSans-73" transform="translate(1483.078125 0)"/>
      <use xlink:href="#DejaVuSans-74" transform="translate(1535.177734 0)"/>
      <use xlink:href="#DejaVuSans-29" transform="translate(1574.386719 0)"/>
     </g>
    </g>
    <g id="line2d_20">
     <path d="M 817.93471 89.121562 
L 831.93471 89.121562 
L 845.93471 89.121562 
" style="fill: none; stroke-dasharray: 7.4,3.2; stroke-dashoffset: 0; stroke: #0000ff; stroke-width: 2"/>
    </g>
    <g id="text_19">
     <!-- Europe RMSE (12h Forecast) -->
     <g transform="translate(857.13471 94.021562) scale(0.14 -0.14)">
      <use xlink:href="#DejaVuSans-45"/>
      <use xlink:href="#DejaVuSans-75" transform="translate(63.183594 0)"/>
      <use xlink:href="#DejaVuSans-72" transform="translate(126.5625 0)"/>
      <use xlink:href="#DejaVuSans-6f" transform="translate(165.425781 0)"/>
      <use xlink:href="#DejaVuSans-70" transform="translate(226.607422 0)"/>
      <use xlink:href="#DejaVuSans-65" transform="translate(290.083984 0)"/>
      <use xlink:href="#DejaVuSans-20" transform="translate(351.607422 0)"/>
      <use xlink:href="#DejaVuSans-52" transform="translate(383.394531 0)"/>
      <use xlink:href="#DejaVuSans-4d" transform="translate(452.876953 0)"/>
      <use xlink:href="#DejaVuSans-53" transform="translate(539.15625 0)"/>
      <use xlink:href="#DejaVuSans-45" transform="translate(602.632812 0)"/>
      <use xlink:href="#DejaVuSans-20" transform="translate(665.816406 0)"/>
      <use xlink:href="#DejaVuSans-28" transform="translate(697.603516 0)"/>
      <use xlink:href="#DejaVuSans-31" transform="translate(736.617188 0)"/>
      <use xlink:href="#DejaVuSans-32" transform="translate(800.240234 0)"/>
      <use xlink:href="#DejaVuSans-68" transform="translate(863.863281 0)"/>
      <use xlink:href="#DejaVuSans-20" transform="translate(927.242188 0)"/>
      <use xlink:href="#DejaVuSans-46" transform="translate(959.029297 0)"/>
      <use xlink:href="#DejaVuSans-6f" transform="translate(1012.923828 0)"/>
      <use xlink:href="#DejaVuSans-72" transform="translate(1074.105469 0)"/>
      <use xlink:href="#DejaVuSans-65" transform="translate(1112.96875 0)"/>
      <use xlink:href="#DejaVuSans-63" transform="translate(1174.492188 0)"/>
      <use xlink:href="#DejaVuSans-61" transform="translate(1229.472656 0)"/>
      <use xlink:href="#DejaVuSans-73" transform="translate(1290.751953 0)"/>
      <use xlink:href="#DejaVuSans-74" transform="translate(1342.851562 0)"/>
      <use xlink:href="#DejaVuSans-29" transform="translate(1382.060547 0)"/>
     </g>
    </g>
    <g id="line2d_21">
     <path d="M 817.93471 109.670937 
L 831.93471 109.670937 
L 845.93471 109.670937 
" style="fill: none; stroke-dasharray: 7.4,3.2; stroke-dashoffset: 0; stroke: #ffa500; stroke-width: 2"/>
    </g>
    <g id="text_20">
     <!-- South Africa RMSE (12h Forecast) -->
     <g transform="translate(857.13471 114.570937) scale(0.14 -0.14)">
      <use xlink:href="#DejaVuSans-53"/>
      <use xlink:href="#DejaVuSans-6f" transform="translate(63.476562 0)"/>
      <use xlink:href="#DejaVuSans-75" transform="translate(124.658203 0)"/>
      <use xlink:href="#DejaVuSans-74" transform="translate(188.037109 0)"/>
      <use xlink:href="#DejaVuSans-68" transform="translate(227.246094 0)"/>
      <use xlink:href="#DejaVuSans-20" transform="translate(290.625 0)"/>
      <use xlink:href="#DejaVuSans-41" transform="translate(322.412109 0)"/>
      <use xlink:href="#DejaVuSans-66" transform="translate(387.195312 0)"/>
      <use xlink:href="#DejaVuSans-72" transform="translate(422.400391 0)"/>
      <use xlink:href="#DejaVuSans-69" transform="translate(463.513672 0)"/>
      <use xlink:href="#DejaVuSans-63" transform="translate(491.296875 0)"/>
      <use xlink:href="#DejaVuSans-61" transform="translate(546.277344 0)"/>
      <use xlink:href="#DejaVuSans-20" transform="translate(607.556641 0)"/>
      <use xlink:href="#DejaVuSans-52" transform="translate(639.34375 0)"/>
      <use xlink:href="#DejaVuSans-4d" transform="translate(708.826172 0)"/>
      <use xlink:href="#DejaVuSans-53" transform="translate(795.105469 0)"/>
      <use xlink:href="#DejaVuSans-45" transform="translate(858.582031 0)"/>
      <use xlink:href="#DejaVuSans-20" transform="translate(921.765625 0)"/>
      <use xlink:href="#DejaVuSans-28" transform="translate(953.552734 0)"/>
      <use xlink:href="#DejaVuSans-31" transform="translate(992.566406 0)"/>
      <use xlink:href="#DejaVuSans-32" transform="translate(1056.189453 0)"/>
      <use xlink:href="#DejaVuSans-68" transform="translate(1119.8125 0)"/>
      <use xlink:href="#DejaVuSans-20" transform="translate(1183.191406 0)"/>
      <use xlink:href="#DejaVuSans-46" transform="translate(1214.978516 0)"/>
      <use xlink:href="#DejaVuSans-6f" transform="translate(1268.873047 0)"/>
      <use xlink:href="#DejaVuSans-72" transform="translate(1330.054688 0)"/>
      <use xlink:href="#DejaVuSans-65" transform="translate(1368.917969 0)"/>
      <use xlink:href="#DejaVuSans-63" transform="translate(1430.441406 0)"/>
      <use xlink:href="#DejaVuSans-61" transform="translate(1485.421875 0)"/>
      <use xlink:href="#DejaVuSans-73" transform="translate(1546.701172 0)"/>
      <use xlink:href="#DejaVuSans-74" transform="translate(1598.800781 0)"/>
      <use xlink:href="#DejaVuSans-29" transform="translate(1638.009766 0)"/>
     </g>
    </g>
   </g>
  </g>
 </g>
 <defs>
  <clipPath id="pfc4a8e0d17">
   <rect x="102.25471" y="7.2" width="669.6" height="443.52"/>
  </clipPath>
 </defs>
</svg>
