<?xml version="1.0" encoding="utf-8" standalone="no"?>
<!DOCTYPE svg PUBLIC "-//W3C//DTD SVG 1.1//EN"
  "http://www.w3.org/Graphics/SVG/1.1/DTD/svg11.dtd">
<svg xmlns:xlink="http://www.w3.org/1999/xlink" width="1104.716898pt" height="564.68004pt" viewBox="0 0 1104.716898 564.68004" xmlns="http://www.w3.org/2000/svg" version="1.1">
 <metadata>
  <rdf:RDF xmlns:dc="http://purl.org/dc/elements/1.1/" xmlns:cc="http://creativecommons.org/ns#" xmlns:rdf="http://www.w3.org/1999/02/22-rdf-syntax-ns#">
   <cc:Work>
    <dc:type rdf:resource="http://purl.org/dc/dcmitype/StillImage"/>
    <dc:date>2025-05-10T17:30:09.533281</dc:date>
    <dc:format>image/svg+xml</dc:format>
    <dc:creator>
     <cc:Agent>
      <dc:title>Matplotlib v3.10.0, https://matplotlib.org/</dc:title>
     </cc:Agent>
    </dc:creator>
   </cc:Work>
  </rdf:RDF>
 </metadata>
 <defs>
  <style type="text/css">*{stroke-linejoin: round; stroke-linecap: butt}</style>
 </defs>
 <g id="figure_1">
  <g id="patch_1">
   <path d="M 0 564.68004 
L 1104.716898 564.68004 
L 1104.716898 0 
L 0 0 
z
" style="fill: #ffffff"/>
  </g>
  <g id="axes_1">
   <g id="patch_2">
    <path d="M 102.25471 450.72 
L 771.85471 450.72 
L 771.85471 7.2 
L 102.25471 7.2 
z
" style="fill: #ffffff"/>
   </g>
   <g id="matplotlib.axis_1">
    <g id="xtick_1">
     <g id="line2d_1">
      <defs>
       <path id="me5bb8acb7d" d="M 0 0 
L 0 3.5 
" style="stroke: #000000; stroke-width: 0.8"/>
      </defs>
      <g>
       <use xlink:href="#me5bb8acb7d" x="132.691074" y="450.72" style="stroke: #000000; stroke-width: 0.8"/>
      </g>
     </g>
     <g id="text_1">
      <!-- 2022-09-01 (18:00) -->
      <g transform="translate(12.518906 535.473553) rotate(-30) scale(0.14 -0.14)">
       <defs>
        <path id="DejaVuSans-32" d="M 1228 531 
L 3431 531 
L 3431 0 
L 469 0 
L 469 531 
Q 828 903 1448 1529 
Q 2069 2156 2228 2338 
Q 2531 2678 2651 2914 
Q 2772 3150 2772 3378 
Q 2772 3750 2511 3984 
Q 2250 4219 1831 4219 
Q 1534 4219 1204 4116 
Q 875 4013 500 3803 
L 500 4441 
Q 881 4594 1212 4672 
Q 1544 4750 1819 4750 
Q 2544 4750 2975 4387 
Q 3406 4025 3406 3419 
Q 3406 3131 3298 2873 
Q 3191 2616 2906 2266 
Q 2828 2175 2409 1742 
Q 1991 1309 1228 531 
z
" transform="scale(0.015625)"/>
        <path id="DejaVuSans-30" d="M 2034 4250 
Q 1547 4250 1301 3770 
Q 1056 3291 1056 2328 
Q 1056 1369 1301 889 
Q 1547 409 2034 409 
Q 2525 409 2770 889 
Q 3016 1369 3016 2328 
Q 3016 3291 2770 3770 
Q 2525 4250 2034 4250 
z
M 2034 4750 
Q 2819 4750 3233 4129 
Q 3647 3509 3647 2328 
Q 3647 1150 3233 529 
Q 2819 -91 2034 -91 
Q 1250 -91 836 529 
Q 422 1150 422 2328 
Q 422 3509 836 4129 
Q 1250 4750 2034 4750 
z
" transform="scale(0.015625)"/>
        <path id="DejaVuSans-2d" d="M 313 2009 
L 1997 2009 
L 1997 1497 
L 313 1497 
L 313 2009 
z
" transform="scale(0.015625)"/>
        <path id="DejaVuSans-39" d="M 703 97 
L 703 672 
Q 941 559 1184 500 
Q 1428 441 1663 441 
Q 2288 441 2617 861 
Q 2947 1281 2994 2138 
Q 2813 1869 2534 1725 
Q 2256 1581 1919 1581 
Q 1219 1581 811 2004 
Q 403 2428 403 3163 
Q 403 3881 828 4315 
Q 1253 4750 1959 4750 
Q 2769 4750 3195 4129 
Q 3622 3509 3622 2328 
Q 3622 1225 3098 567 
Q 2575 -91 1691 -91 
Q 1453 -91 1209 -44 
Q 966 3 703 97 
z
M 1959 2075 
Q 2384 2075 2632 2365 
Q 2881 2656 2881 3163 
Q 2881 3666 2632 3958 
Q 2384 4250 1959 4250 
Q 1534 4250 1286 3958 
Q 1038 3666 1038 3163 
Q 1038 2656 1286 2365 
Q 1534 2075 1959 2075 
z
" transform="scale(0.015625)"/>
        <path id="DejaVuSans-31" d="M 794 531 
L 1825 531 
L 1825 4091 
L 703 3866 
L 703 4441 
L 1819 4666 
L 2450 4666 
L 2450 531 
L 3481 531 
L 3481 0 
L 794 0 
L 794 531 
z
" transform="scale(0.015625)"/>
        <path id="DejaVuSans-20" transform="scale(0.015625)"/>
        <path id="DejaVuSans-28" d="M 1984 4856 
Q 1566 4138 1362 3434 
Q 1159 2731 1159 2009 
Q 1159 1288 1364 580 
Q 1569 -128 1984 -844 
L 1484 -844 
Q 1016 -109 783 600 
Q 550 1309 550 2009 
Q 550 2706 781 3412 
Q 1013 4119 1484 4856 
L 1984 4856 
z
" transform="scale(0.015625)"/>
        <path id="DejaVuSans-38" d="M 2034 2216 
Q 1584 2216 1326 1975 
Q 1069 1734 1069 1313 
Q 1069 891 1326 650 
Q 1584 409 2034 409 
Q 2484 409 2743 651 
Q 3003 894 3003 1313 
Q 3003 1734 2745 1975 
Q 2488 2216 2034 2216 
z
M 1403 2484 
Q 997 2584 770 2862 
Q 544 3141 544 3541 
Q 544 4100 942 4425 
Q 1341 4750 2034 4750 
Q 2731 4750 3128 4425 
Q 3525 4100 3525 3541 
Q 3525 3141 3298 2862 
Q 3072 2584 2669 2484 
Q 3125 2378 3379 2068 
Q 3634 1759 3634 1313 
Q 3634 634 3220 271 
Q 2806 -91 2034 -91 
Q 1263 -91 848 271 
Q 434 634 434 1313 
Q 434 1759 690 2068 
Q 947 2378 1403 2484 
z
M 1172 3481 
Q 1172 3119 1398 2916 
Q 1625 2713 2034 2713 
Q 2441 2713 2670 2916 
Q 2900 3119 2900 3481 
Q 2900 3844 2670 4047 
Q 2441 4250 2034 4250 
Q 1625 4250 1398 4047 
Q 1172 3844 1172 3481 
z
" transform="scale(0.015625)"/>
        <path id="DejaVuSans-3a" d="M 750 794 
L 1409 794 
L 1409 0 
L 750 0 
L 750 794 
z
M 750 3309 
L 1409 3309 
L 1409 2516 
L 750 2516 
L 750 3309 
z
" transform="scale(0.015625)"/>
        <path id="DejaVuSans-29" d="M 513 4856 
L 1013 4856 
Q 1481 4119 1714 3412 
Q 1947 2706 1947 2009 
Q 1947 1309 1714 600 
Q 1481 -109 1013 -844 
L 513 -844 
Q 928 -128 1133 580 
Q 1338 1288 1338 2009 
Q 1338 2731 1133 3434 
Q 928 4138 513 4856 
z
" transform="scale(0.015625)"/>
       </defs>
       <use xlink:href="#DejaVuSans-32"/>
       <use xlink:href="#DejaVuSans-30" transform="translate(63.623047 0)"/>
       <use xlink:href="#DejaVuSans-32" transform="translate(127.246094 0)"/>
       <use xlink:href="#DejaVuSans-32" transform="translate(190.869141 0)"/>
       <use xlink:href="#DejaVuSans-2d" transform="translate(254.492188 0)"/>
       <use xlink:href="#DejaVuSans-30" transform="translate(290.576172 0)"/>
       <use xlink:href="#DejaVuSans-39" transform="translate(354.199219 0)"/>
       <use xlink:href="#DejaVuSans-2d" transform="translate(417.822266 0)"/>
       <use xlink:href="#DejaVuSans-30" transform="translate(453.90625 0)"/>
       <use xlink:href="#DejaVuSans-31" transform="translate(517.529297 0)"/>
       <use xlink:href="#DejaVuSans-20" transform="translate(581.152344 0)"/>
       <use xlink:href="#DejaVuSans-28" transform="translate(612.939453 0)"/>
       <use xlink:href="#DejaVuSans-31" transform="translate(651.953125 0)"/>
       <use xlink:href="#DejaVuSans-38" transform="translate(715.576172 0)"/>
       <use xlink:href="#DejaVuSans-3a" transform="translate(779.199219 0)"/>
       <use xlink:href="#DejaVuSans-30" transform="translate(812.890625 0)"/>
       <use xlink:href="#DejaVuSans-30" transform="translate(876.513672 0)"/>
       <use xlink:href="#DejaVuSans-29" transform="translate(940.136719 0)"/>
      </g>
     </g>
    </g>
    <g id="xtick_2">
     <g id="line2d_2">
      <g>
       <use xlink:href="#me5bb8acb7d" x="253.430367" y="450.72" style="stroke: #000000; stroke-width: 0.8"/>
      </g>
     </g>
     <g id="text_2">
      <!-- 2022-09-25 (18:00) -->
      <g transform="translate(133.2582 535.473553) rotate(-30) scale(0.14 -0.14)">
       <defs>
        <path id="DejaVuSans-35" d="M 691 4666 
L 3169 4666 
L 3169 4134 
L 1269 4134 
L 1269 2991 
Q 1406 3038 1543 3061 
Q 1681 3084 1819 3084 
Q 2600 3084 3056 2656 
Q 3513 2228 3513 1497 
Q 3513 744 3044 326 
Q 2575 -91 1722 -91 
Q 1428 -91 1123 -41 
Q 819 9 494 109 
L 494 744 
Q 775 591 1075 516 
Q 1375 441 1709 441 
Q 2250 441 2565 725 
Q 2881 1009 2881 1497 
Q 2881 1984 2565 2268 
Q 2250 2553 1709 2553 
Q 1456 2553 1204 2497 
Q 953 2441 691 2322 
L 691 4666 
z
" transform="scale(0.015625)"/>
       </defs>
       <use xlink:href="#DejaVuSans-32"/>
       <use xlink:href="#DejaVuSans-30" transform="translate(63.623047 0)"/>
       <use xlink:href="#DejaVuSans-32" transform="translate(127.246094 0)"/>
       <use xlink:href="#DejaVuSans-32" transform="translate(190.869141 0)"/>
       <use xlink:href="#DejaVuSans-2d" transform="translate(254.492188 0)"/>
       <use xlink:href="#DejaVuSans-30" transform="translate(290.576172 0)"/>
       <use xlink:href="#DejaVuSans-39" transform="translate(354.199219 0)"/>
       <use xlink:href="#DejaVuSans-2d" transform="translate(417.822266 0)"/>
       <use xlink:href="#DejaVuSans-32" transform="translate(453.90625 0)"/>
       <use xlink:href="#DejaVuSans-35" transform="translate(517.529297 0)"/>
       <use xlink:href="#DejaVuSans-20" transform="translate(581.152344 0)"/>
       <use xlink:href="#DejaVuSans-28" transform="translate(612.939453 0)"/>
       <use xlink:href="#DejaVuSans-31" transform="translate(651.953125 0)"/>
       <use xlink:href="#DejaVuSans-38" transform="translate(715.576172 0)"/>
       <use xlink:href="#DejaVuSans-3a" transform="translate(779.199219 0)"/>
       <use xlink:href="#DejaVuSans-30" transform="translate(812.890625 0)"/>
       <use xlink:href="#DejaVuSans-30" transform="translate(876.513672 0)"/>
       <use xlink:href="#DejaVuSans-29" transform="translate(940.136719 0)"/>
      </g>
     </g>
    </g>
    <g id="xtick_3">
     <g id="line2d_3">
      <g>
       <use xlink:href="#me5bb8acb7d" x="375.427362" y="450.72" style="stroke: #000000; stroke-width: 0.8"/>
      </g>
     </g>
     <g id="text_3">
      <!-- 2022-10-20 (00:00) -->
      <g transform="translate(255.255195 535.473553) rotate(-30) scale(0.14 -0.14)">
       <use xlink:href="#DejaVuSans-32"/>
       <use xlink:href="#DejaVuSans-30" transform="translate(63.623047 0)"/>
       <use xlink:href="#DejaVuSans-32" transform="translate(127.246094 0)"/>
       <use xlink:href="#DejaVuSans-32" transform="translate(190.869141 0)"/>
       <use xlink:href="#DejaVuSans-2d" transform="translate(254.492188 0)"/>
       <use xlink:href="#DejaVuSans-31" transform="translate(290.576172 0)"/>
       <use xlink:href="#DejaVuSans-30" transform="translate(354.199219 0)"/>
       <use xlink:href="#DejaVuSans-2d" transform="translate(417.822266 0)"/>
       <use xlink:href="#DejaVuSans-32" transform="translate(453.90625 0)"/>
       <use xlink:href="#DejaVuSans-30" transform="translate(517.529297 0)"/>
       <use xlink:href="#DejaVuSans-20" transform="translate(581.152344 0)"/>
       <use xlink:href="#DejaVuSans-28" transform="translate(612.939453 0)"/>
       <use xlink:href="#DejaVuSans-30" transform="translate(651.953125 0)"/>
       <use xlink:href="#DejaVuSans-30" transform="translate(715.576172 0)"/>
       <use xlink:href="#DejaVuSans-3a" transform="translate(779.199219 0)"/>
       <use xlink:href="#DejaVuSans-30" transform="translate(812.890625 0)"/>
       <use xlink:href="#DejaVuSans-30" transform="translate(876.513672 0)"/>
       <use xlink:href="#DejaVuSans-29" transform="translate(940.136719 0)"/>
      </g>
     </g>
    </g>
    <g id="xtick_4">
     <g id="line2d_4">
      <g>
       <use xlink:href="#me5bb8acb7d" x="497.424357" y="450.72" style="stroke: #000000; stroke-width: 0.8"/>
      </g>
     </g>
     <g id="text_4">
      <!-- 2022-11-13 (06:00) -->
      <g transform="translate(377.252189 535.473553) rotate(-30) scale(0.14 -0.14)">
       <defs>
        <path id="DejaVuSans-33" d="M 2597 2516 
Q 3050 2419 3304 2112 
Q 3559 1806 3559 1356 
Q 3559 666 3084 287 
Q 2609 -91 1734 -91 
Q 1441 -91 1130 -33 
Q 819 25 488 141 
L 488 750 
Q 750 597 1062 519 
Q 1375 441 1716 441 
Q 2309 441 2620 675 
Q 2931 909 2931 1356 
Q 2931 1769 2642 2001 
Q 2353 2234 1838 2234 
L 1294 2234 
L 1294 2753 
L 1863 2753 
Q 2328 2753 2575 2939 
Q 2822 3125 2822 3475 
Q 2822 3834 2567 4026 
Q 2313 4219 1838 4219 
Q 1578 4219 1281 4162 
Q 984 4106 628 3988 
L 628 4550 
Q 988 4650 1302 4700 
Q 1616 4750 1894 4750 
Q 2613 4750 3031 4423 
Q 3450 4097 3450 3541 
Q 3450 3153 3228 2886 
Q 3006 2619 2597 2516 
z
" transform="scale(0.015625)"/>
        <path id="DejaVuSans-36" d="M 2113 2584 
Q 1688 2584 1439 2293 
Q 1191 2003 1191 1497 
Q 1191 994 1439 701 
Q 1688 409 2113 409 
Q 2538 409 2786 701 
Q 3034 994 3034 1497 
Q 3034 2003 2786 2293 
Q 2538 2584 2113 2584 
z
M 3366 4563 
L 3366 3988 
Q 3128 4100 2886 4159 
Q 2644 4219 2406 4219 
Q 1781 4219 1451 3797 
Q 1122 3375 1075 2522 
Q 1259 2794 1537 2939 
Q 1816 3084 2150 3084 
Q 2853 3084 3261 2657 
Q 3669 2231 3669 1497 
Q 3669 778 3244 343 
Q 2819 -91 2113 -91 
Q 1303 -91 875 529 
Q 447 1150 447 2328 
Q 447 3434 972 4092 
Q 1497 4750 2381 4750 
Q 2619 4750 2861 4703 
Q 3103 4656 3366 4563 
z
" transform="scale(0.015625)"/>
       </defs>
       <use xlink:href="#DejaVuSans-32"/>
       <use xlink:href="#DejaVuSans-30" transform="translate(63.623047 0)"/>
       <use xlink:href="#DejaVuSans-32" transform="translate(127.246094 0)"/>
       <use xlink:href="#DejaVuSans-32" transform="translate(190.869141 0)"/>
       <use xlink:href="#DejaVuSans-2d" transform="translate(254.492188 0)"/>
       <use xlink:href="#DejaVuSans-31" transform="translate(290.576172 0)"/>
       <use xlink:href="#DejaVuSans-31" transform="translate(354.199219 0)"/>
       <use xlink:href="#DejaVuSans-2d" transform="translate(417.822266 0)"/>
       <use xlink:href="#DejaVuSans-31" transform="translate(453.90625 0)"/>
       <use xlink:href="#DejaVuSans-33" transform="translate(517.529297 0)"/>
       <use xlink:href="#DejaVuSans-20" transform="translate(581.152344 0)"/>
       <use xlink:href="#DejaVuSans-28" transform="translate(612.939453 0)"/>
       <use xlink:href="#DejaVuSans-30" transform="translate(651.953125 0)"/>
       <use xlink:href="#DejaVuSans-36" transform="translate(715.576172 0)"/>
       <use xlink:href="#DejaVuSans-3a" transform="translate(779.199219 0)"/>
       <use xlink:href="#DejaVuSans-30" transform="translate(812.890625 0)"/>
       <use xlink:href="#DejaVuSans-30" transform="translate(876.513672 0)"/>
       <use xlink:href="#DejaVuSans-29" transform="translate(940.136719 0)"/>
      </g>
     </g>
    </g>
    <g id="xtick_5">
     <g id="line2d_5">
      <g>
       <use xlink:href="#me5bb8acb7d" x="619.421352" y="450.72" style="stroke: #000000; stroke-width: 0.8"/>
      </g>
     </g>
     <g id="text_5">
      <!-- 2022-12-07 (12:00) -->
      <g transform="translate(499.249184 535.473553) rotate(-30) scale(0.14 -0.14)">
       <defs>
        <path id="DejaVuSans-37" d="M 525 4666 
L 3525 4666 
L 3525 4397 
L 1831 0 
L 1172 0 
L 2766 4134 
L 525 4134 
L 525 4666 
z
" transform="scale(0.015625)"/>
       </defs>
       <use xlink:href="#DejaVuSans-32"/>
       <use xlink:href="#DejaVuSans-30" transform="translate(63.623047 0)"/>
       <use xlink:href="#DejaVuSans-32" transform="translate(127.246094 0)"/>
       <use xlink:href="#DejaVuSans-32" transform="translate(190.869141 0)"/>
       <use xlink:href="#DejaVuSans-2d" transform="translate(254.492188 0)"/>
       <use xlink:href="#DejaVuSans-31" transform="translate(290.576172 0)"/>
       <use xlink:href="#DejaVuSans-32" transform="translate(354.199219 0)"/>
       <use xlink:href="#DejaVuSans-2d" transform="translate(417.822266 0)"/>
       <use xlink:href="#DejaVuSans-30" transform="translate(453.90625 0)"/>
       <use xlink:href="#DejaVuSans-37" transform="translate(517.529297 0)"/>
       <use xlink:href="#DejaVuSans-20" transform="translate(581.152344 0)"/>
       <use xlink:href="#DejaVuSans-28" transform="translate(612.939453 0)"/>
       <use xlink:href="#DejaVuSans-31" transform="translate(651.953125 0)"/>
       <use xlink:href="#DejaVuSans-32" transform="translate(715.576172 0)"/>
       <use xlink:href="#DejaVuSans-3a" transform="translate(779.199219 0)"/>
       <use xlink:href="#DejaVuSans-30" transform="translate(812.890625 0)"/>
       <use xlink:href="#DejaVuSans-30" transform="translate(876.513672 0)"/>
       <use xlink:href="#DejaVuSans-29" transform="translate(940.136719 0)"/>
      </g>
     </g>
    </g>
    <g id="xtick_6">
     <g id="line2d_6">
      <g>
       <use xlink:href="#me5bb8acb7d" x="741.418346" y="450.72" style="stroke: #000000; stroke-width: 0.8"/>
      </g>
     </g>
     <g id="text_6">
      <!-- 2022-12-31 (18:00) -->
      <g transform="translate(621.246179 535.473553) rotate(-30) scale(0.14 -0.14)">
       <use xlink:href="#DejaVuSans-32"/>
       <use xlink:href="#DejaVuSans-30" transform="translate(63.623047 0)"/>
       <use xlink:href="#DejaVuSans-32" transform="translate(127.246094 0)"/>
       <use xlink:href="#DejaVuSans-32" transform="translate(190.869141 0)"/>
       <use xlink:href="#DejaVuSans-2d" transform="translate(254.492188 0)"/>
       <use xlink:href="#DejaVuSans-31" transform="translate(290.576172 0)"/>
       <use xlink:href="#DejaVuSans-32" transform="translate(354.199219 0)"/>
       <use xlink:href="#DejaVuSans-2d" transform="translate(417.822266 0)"/>
       <use xlink:href="#DejaVuSans-33" transform="translate(453.90625 0)"/>
       <use xlink:href="#DejaVuSans-31" transform="translate(517.529297 0)"/>
       <use xlink:href="#DejaVuSans-20" transform="translate(581.152344 0)"/>
       <use xlink:href="#DejaVuSans-28" transform="translate(612.939453 0)"/>
       <use xlink:href="#DejaVuSans-31" transform="translate(651.953125 0)"/>
       <use xlink:href="#DejaVuSans-38" transform="translate(715.576172 0)"/>
       <use xlink:href="#DejaVuSans-3a" transform="translate(779.199219 0)"/>
       <use xlink:href="#DejaVuSans-30" transform="translate(812.890625 0)"/>
       <use xlink:href="#DejaVuSans-30" transform="translate(876.513672 0)"/>
       <use xlink:href="#DejaVuSans-29" transform="translate(940.136719 0)"/>
      </g>
     </g>
    </g>
    <g id="text_7">
     <!-- Forecast Date -->
     <g transform="translate(381.54846 554.15254) scale(0.16 -0.16)">
      <defs>
       <path id="DejaVuSans-46" d="M 628 4666 
L 3309 4666 
L 3309 4134 
L 1259 4134 
L 1259 2759 
L 3109 2759 
L 3109 2228 
L 1259 2228 
L 1259 0 
L 628 0 
L 628 4666 
z
" transform="scale(0.015625)"/>
       <path id="DejaVuSans-6f" d="M 1959 3097 
Q 1497 3097 1228 2736 
Q 959 2375 959 1747 
Q 959 1119 1226 758 
Q 1494 397 1959 397 
Q 2419 397 2687 759 
Q 2956 1122 2956 1747 
Q 2956 2369 2687 2733 
Q 2419 3097 1959 3097 
z
M 1959 3584 
Q 2709 3584 3137 3096 
Q 3566 2609 3566 1747 
Q 3566 888 3137 398 
Q 2709 -91 1959 -91 
Q 1206 -91 779 398 
Q 353 888 353 1747 
Q 353 2609 779 3096 
Q 1206 3584 1959 3584 
z
" transform="scale(0.015625)"/>
       <path id="DejaVuSans-72" d="M 2631 2963 
Q 2534 3019 2420 3045 
Q 2306 3072 2169 3072 
Q 1681 3072 1420 2755 
Q 1159 2438 1159 1844 
L 1159 0 
L 581 0 
L 581 3500 
L 1159 3500 
L 1159 2956 
Q 1341 3275 1631 3429 
Q 1922 3584 2338 3584 
Q 2397 3584 2469 3576 
Q 2541 3569 2628 3553 
L 2631 2963 
z
" transform="scale(0.015625)"/>
       <path id="DejaVuSans-65" d="M 3597 1894 
L 3597 1613 
L 953 1613 
Q 991 1019 1311 708 
Q 1631 397 2203 397 
Q 2534 397 2845 478 
Q 3156 559 3463 722 
L 3463 178 
Q 3153 47 2828 -22 
Q 2503 -91 2169 -91 
Q 1331 -91 842 396 
Q 353 884 353 1716 
Q 353 2575 817 3079 
Q 1281 3584 2069 3584 
Q 2775 3584 3186 3129 
Q 3597 2675 3597 1894 
z
M 3022 2063 
Q 3016 2534 2758 2815 
Q 2500 3097 2075 3097 
Q 1594 3097 1305 2825 
Q 1016 2553 972 2059 
L 3022 2063 
z
" transform="scale(0.015625)"/>
       <path id="DejaVuSans-63" d="M 3122 3366 
L 3122 2828 
Q 2878 2963 2633 3030 
Q 2388 3097 2138 3097 
Q 1578 3097 1268 2742 
Q 959 2388 959 1747 
Q 959 1106 1268 751 
Q 1578 397 2138 397 
Q 2388 397 2633 464 
Q 2878 531 3122 666 
L 3122 134 
Q 2881 22 2623 -34 
Q 2366 -91 2075 -91 
Q 1284 -91 818 406 
Q 353 903 353 1747 
Q 353 2603 823 3093 
Q 1294 3584 2113 3584 
Q 2378 3584 2631 3529 
Q 2884 3475 3122 3366 
z
" transform="scale(0.015625)"/>
       <path id="DejaVuSans-61" d="M 2194 1759 
Q 1497 1759 1228 1600 
Q 959 1441 959 1056 
Q 959 750 1161 570 
Q 1363 391 1709 391 
Q 2188 391 2477 730 
Q 2766 1069 2766 1631 
L 2766 1759 
L 2194 1759 
z
M 3341 1997 
L 3341 0 
L 2766 0 
L 2766 531 
Q 2569 213 2275 61 
Q 1981 -91 1556 -91 
Q 1019 -91 701 211 
Q 384 513 384 1019 
Q 384 1609 779 1909 
Q 1175 2209 1959 2209 
L 2766 2209 
L 2766 2266 
Q 2766 2663 2505 2880 
Q 2244 3097 1772 3097 
Q 1472 3097 1187 3025 
Q 903 2953 641 2809 
L 641 3341 
Q 956 3463 1253 3523 
Q 1550 3584 1831 3584 
Q 2591 3584 2966 3190 
Q 3341 2797 3341 1997 
z
" transform="scale(0.015625)"/>
       <path id="DejaVuSans-73" d="M 2834 3397 
L 2834 2853 
Q 2591 2978 2328 3040 
Q 2066 3103 1784 3103 
Q 1356 3103 1142 2972 
Q 928 2841 928 2578 
Q 928 2378 1081 2264 
Q 1234 2150 1697 2047 
L 1894 2003 
Q 2506 1872 2764 1633 
Q 3022 1394 3022 966 
Q 3022 478 2636 193 
Q 2250 -91 1575 -91 
Q 1294 -91 989 -36 
Q 684 19 347 128 
L 347 722 
Q 666 556 975 473 
Q 1284 391 1588 391 
Q 1994 391 2212 530 
Q 2431 669 2431 922 
Q 2431 1156 2273 1281 
Q 2116 1406 1581 1522 
L 1381 1569 
Q 847 1681 609 1914 
Q 372 2147 372 2553 
Q 372 3047 722 3315 
Q 1072 3584 1716 3584 
Q 2034 3584 2315 3537 
Q 2597 3491 2834 3397 
z
" transform="scale(0.015625)"/>
       <path id="DejaVuSans-74" d="M 1172 4494 
L 1172 3500 
L 2356 3500 
L 2356 3053 
L 1172 3053 
L 1172 1153 
Q 1172 725 1289 603 
Q 1406 481 1766 481 
L 2356 481 
L 2356 0 
L 1766 0 
Q 1100 0 847 248 
Q 594 497 594 1153 
L 594 3053 
L 172 3053 
L 172 3500 
L 594 3500 
L 594 4494 
L 1172 4494 
z
" transform="scale(0.015625)"/>
       <path id="DejaVuSans-44" d="M 1259 4147 
L 1259 519 
L 2022 519 
Q 2988 519 3436 956 
Q 3884 1394 3884 2338 
Q 3884 3275 3436 3711 
Q 2988 4147 2022 4147 
L 1259 4147 
z
M 628 4666 
L 1925 4666 
Q 3281 4666 3915 4102 
Q 4550 3538 4550 2338 
Q 4550 1131 3912 565 
Q 3275 0 1925 0 
L 628 0 
L 628 4666 
z
" transform="scale(0.015625)"/>
      </defs>
      <use xlink:href="#DejaVuSans-46"/>
      <use xlink:href="#DejaVuSans-6f" transform="translate(53.894531 0)"/>
      <use xlink:href="#DejaVuSans-72" transform="translate(115.076172 0)"/>
      <use xlink:href="#DejaVuSans-65" transform="translate(153.939453 0)"/>
      <use xlink:href="#DejaVuSans-63" transform="translate(215.462891 0)"/>
      <use xlink:href="#DejaVuSans-61" transform="translate(270.443359 0)"/>
      <use xlink:href="#DejaVuSans-73" transform="translate(331.722656 0)"/>
      <use xlink:href="#DejaVuSans-74" transform="translate(383.822266 0)"/>
      <use xlink:href="#DejaVuSans-20" transform="translate(423.03125 0)"/>
      <use xlink:href="#DejaVuSans-44" transform="translate(454.818359 0)"/>
      <use xlink:href="#DejaVuSans-61" transform="translate(531.820312 0)"/>
      <use xlink:href="#DejaVuSans-74" transform="translate(593.099609 0)"/>
      <use xlink:href="#DejaVuSans-65" transform="translate(632.308594 0)"/>
     </g>
    </g>
   </g>
   <g id="matplotlib.axis_2">
    <g id="ytick_1">
     <g id="line2d_7">
      <defs>
       <path id="m720674999d" d="M 0 0 
L -3.5 0 
" style="stroke: #000000; stroke-width: 0.8"/>
      </defs>
      <g>
       <use xlink:href="#m720674999d" x="102.25471" y="396.951575" style="stroke: #000000; stroke-width: 0.8"/>
      </g>
     </g>
     <g id="text_8">
      <!-- 2 -->
      <g transform="translate(88.89221 400.750794) scale(0.1 -0.1)">
       <use xlink:href="#DejaVuSans-32"/>
      </g>
     </g>
    </g>
    <g id="ytick_2">
     <g id="line2d_8">
      <g>
       <use xlink:href="#m720674999d" x="102.25471" y="336.221665" style="stroke: #000000; stroke-width: 0.8"/>
      </g>
     </g>
     <g id="text_9">
      <!-- 4 -->
      <g transform="translate(88.89221 340.020883) scale(0.1 -0.1)">
       <defs>
        <path id="DejaVuSans-34" d="M 2419 4116 
L 825 1625 
L 2419 1625 
L 2419 4116 
z
M 2253 4666 
L 3047 4666 
L 3047 1625 
L 3713 1625 
L 3713 1100 
L 3047 1100 
L 3047 0 
L 2419 0 
L 2419 1100 
L 313 1100 
L 313 1709 
L 2253 4666 
z
" transform="scale(0.015625)"/>
       </defs>
       <use xlink:href="#DejaVuSans-34"/>
      </g>
     </g>
    </g>
    <g id="ytick_3">
     <g id="line2d_9">
      <g>
       <use xlink:href="#m720674999d" x="102.25471" y="275.491754" style="stroke: #000000; stroke-width: 0.8"/>
      </g>
     </g>
     <g id="text_10">
      <!-- 6 -->
      <g transform="translate(88.89221 279.290973) scale(0.1 -0.1)">
       <use xlink:href="#DejaVuSans-36"/>
      </g>
     </g>
    </g>
    <g id="ytick_4">
     <g id="line2d_10">
      <g>
       <use xlink:href="#m720674999d" x="102.25471" y="214.761844" style="stroke: #000000; stroke-width: 0.8"/>
      </g>
     </g>
     <g id="text_11">
      <!-- 8 -->
      <g transform="translate(88.89221 218.561063) scale(0.1 -0.1)">
       <use xlink:href="#DejaVuSans-38"/>
      </g>
     </g>
    </g>
    <g id="ytick_5">
     <g id="line2d_11">
      <g>
       <use xlink:href="#m720674999d" x="102.25471" y="154.031934" style="stroke: #000000; stroke-width: 0.8"/>
      </g>
     </g>
     <g id="text_12">
      <!-- 10 -->
      <g transform="translate(82.52971 157.831153) scale(0.1 -0.1)">
       <use xlink:href="#DejaVuSans-31"/>
       <use xlink:href="#DejaVuSans-30" transform="translate(63.623047 0)"/>
      </g>
     </g>
    </g>
    <g id="ytick_6">
     <g id="line2d_12">
      <g>
       <use xlink:href="#m720674999d" x="102.25471" y="93.302024" style="stroke: #000000; stroke-width: 0.8"/>
      </g>
     </g>
     <g id="text_13">
      <!-- 12 -->
      <g transform="translate(82.52971 97.101243) scale(0.1 -0.1)">
       <use xlink:href="#DejaVuSans-31"/>
       <use xlink:href="#DejaVuSans-32" transform="translate(63.623047 0)"/>
      </g>
     </g>
    </g>
    <g id="ytick_7">
     <g id="line2d_13">
      <g>
       <use xlink:href="#m720674999d" x="102.25471" y="32.572114" style="stroke: #000000; stroke-width: 0.8"/>
      </g>
     </g>
     <g id="text_14">
      <!-- 14 -->
      <g transform="translate(82.52971 36.371332) scale(0.1 -0.1)">
       <use xlink:href="#DejaVuSans-31"/>
       <use xlink:href="#DejaVuSans-34" transform="translate(63.623047 0)"/>
      </g>
     </g>
    </g>
    <g id="text_15">
     <!-- Root Mean Squared Error (RMSE) -->
     <g transform="translate(75.20221 360.62625) rotate(-90) scale(0.16 -0.16)">
      <defs>
       <path id="DejaVuSans-52" d="M 2841 2188 
Q 3044 2119 3236 1894 
Q 3428 1669 3622 1275 
L 4263 0 
L 3584 0 
L 2988 1197 
Q 2756 1666 2539 1819 
Q 2322 1972 1947 1972 
L 1259 1972 
L 1259 0 
L 628 0 
L 628 4666 
L 2053 4666 
Q 2853 4666 3247 4331 
Q 3641 3997 3641 3322 
Q 3641 2881 3436 2590 
Q 3231 2300 2841 2188 
z
M 1259 4147 
L 1259 2491 
L 2053 2491 
Q 2509 2491 2742 2702 
Q 2975 2913 2975 3322 
Q 2975 3731 2742 3939 
Q 2509 4147 2053 4147 
L 1259 4147 
z
" transform="scale(0.015625)"/>
       <path id="DejaVuSans-4d" d="M 628 4666 
L 1569 4666 
L 2759 1491 
L 3956 4666 
L 4897 4666 
L 4897 0 
L 4281 0 
L 4281 4097 
L 3078 897 
L 2444 897 
L 1241 4097 
L 1241 0 
L 628 0 
L 628 4666 
z
" transform="scale(0.015625)"/>
       <path id="DejaVuSans-6e" d="M 3513 2113 
L 3513 0 
L 2938 0 
L 2938 2094 
Q 2938 2591 2744 2837 
Q 2550 3084 2163 3084 
Q 1697 3084 1428 2787 
Q 1159 2491 1159 1978 
L 1159 0 
L 581 0 
L 581 3500 
L 1159 3500 
L 1159 2956 
Q 1366 3272 1645 3428 
Q 1925 3584 2291 3584 
Q 2894 3584 3203 3211 
Q 3513 2838 3513 2113 
z
" transform="scale(0.015625)"/>
       <path id="DejaVuSans-53" d="M 3425 4513 
L 3425 3897 
Q 3066 4069 2747 4153 
Q 2428 4238 2131 4238 
Q 1616 4238 1336 4038 
Q 1056 3838 1056 3469 
Q 1056 3159 1242 3001 
Q 1428 2844 1947 2747 
L 2328 2669 
Q 3034 2534 3370 2195 
Q 3706 1856 3706 1288 
Q 3706 609 3251 259 
Q 2797 -91 1919 -91 
Q 1588 -91 1214 -16 
Q 841 59 441 206 
L 441 856 
Q 825 641 1194 531 
Q 1563 422 1919 422 
Q 2459 422 2753 634 
Q 3047 847 3047 1241 
Q 3047 1584 2836 1778 
Q 2625 1972 2144 2069 
L 1759 2144 
Q 1053 2284 737 2584 
Q 422 2884 422 3419 
Q 422 4038 858 4394 
Q 1294 4750 2059 4750 
Q 2388 4750 2728 4690 
Q 3069 4631 3425 4513 
z
" transform="scale(0.015625)"/>
       <path id="DejaVuSans-71" d="M 947 1747 
Q 947 1113 1208 752 
Q 1469 391 1925 391 
Q 2381 391 2643 752 
Q 2906 1113 2906 1747 
Q 2906 2381 2643 2742 
Q 2381 3103 1925 3103 
Q 1469 3103 1208 2742 
Q 947 2381 947 1747 
z
M 2906 525 
Q 2725 213 2448 61 
Q 2172 -91 1784 -91 
Q 1150 -91 751 415 
Q 353 922 353 1747 
Q 353 2572 751 3078 
Q 1150 3584 1784 3584 
Q 2172 3584 2448 3432 
Q 2725 3281 2906 2969 
L 2906 3500 
L 3481 3500 
L 3481 -1331 
L 2906 -1331 
L 2906 525 
z
" transform="scale(0.015625)"/>
       <path id="DejaVuSans-75" d="M 544 1381 
L 544 3500 
L 1119 3500 
L 1119 1403 
Q 1119 906 1312 657 
Q 1506 409 1894 409 
Q 2359 409 2629 706 
Q 2900 1003 2900 1516 
L 2900 3500 
L 3475 3500 
L 3475 0 
L 2900 0 
L 2900 538 
Q 2691 219 2414 64 
Q 2138 -91 1772 -91 
Q 1169 -91 856 284 
Q 544 659 544 1381 
z
M 1991 3584 
L 1991 3584 
z
" transform="scale(0.015625)"/>
       <path id="DejaVuSans-64" d="M 2906 2969 
L 2906 4863 
L 3481 4863 
L 3481 0 
L 2906 0 
L 2906 525 
Q 2725 213 2448 61 
Q 2172 -91 1784 -91 
Q 1150 -91 751 415 
Q 353 922 353 1747 
Q 353 2572 751 3078 
Q 1150 3584 1784 3584 
Q 2172 3584 2448 3432 
Q 2725 3281 2906 2969 
z
M 947 1747 
Q 947 1113 1208 752 
Q 1469 391 1925 391 
Q 2381 391 2643 752 
Q 2906 1113 2906 1747 
Q 2906 2381 2643 2742 
Q 2381 3103 1925 3103 
Q 1469 3103 1208 2742 
Q 947 2381 947 1747 
z
" transform="scale(0.015625)"/>
       <path id="DejaVuSans-45" d="M 628 4666 
L 3578 4666 
L 3578 4134 
L 1259 4134 
L 1259 2753 
L 3481 2753 
L 3481 2222 
L 1259 2222 
L 1259 531 
L 3634 531 
L 3634 0 
L 628 0 
L 628 4666 
z
" transform="scale(0.015625)"/>
      </defs>
      <use xlink:href="#DejaVuSans-52"/>
      <use xlink:href="#DejaVuSans-6f" transform="translate(64.982422 0)"/>
      <use xlink:href="#DejaVuSans-6f" transform="translate(126.164062 0)"/>
      <use xlink:href="#DejaVuSans-74" transform="translate(187.345703 0)"/>
      <use xlink:href="#DejaVuSans-20" transform="translate(226.554688 0)"/>
      <use xlink:href="#DejaVuSans-4d" transform="translate(258.341797 0)"/>
      <use xlink:href="#DejaVuSans-65" transform="translate(344.621094 0)"/>
      <use xlink:href="#DejaVuSans-61" transform="translate(406.144531 0)"/>
      <use xlink:href="#DejaVuSans-6e" transform="translate(467.423828 0)"/>
      <use xlink:href="#DejaVuSans-20" transform="translate(530.802734 0)"/>
      <use xlink:href="#DejaVuSans-53" transform="translate(562.589844 0)"/>
      <use xlink:href="#DejaVuSans-71" transform="translate(626.066406 0)"/>
      <use xlink:href="#DejaVuSans-75" transform="translate(689.542969 0)"/>
      <use xlink:href="#DejaVuSans-61" transform="translate(752.921875 0)"/>
      <use xlink:href="#DejaVuSans-72" transform="translate(814.201172 0)"/>
      <use xlink:href="#DejaVuSans-65" transform="translate(853.064453 0)"/>
      <use xlink:href="#DejaVuSans-64" transform="translate(914.587891 0)"/>
      <use xlink:href="#DejaVuSans-20" transform="translate(978.064453 0)"/>
      <use xlink:href="#DejaVuSans-45" transform="translate(1009.851562 0)"/>
      <use xlink:href="#DejaVuSans-72" transform="translate(1073.035156 0)"/>
      <use xlink:href="#DejaVuSans-72" transform="translate(1112.398438 0)"/>
      <use xlink:href="#DejaVuSans-6f" transform="translate(1151.261719 0)"/>
      <use xlink:href="#DejaVuSans-72" transform="translate(1212.443359 0)"/>
      <use xlink:href="#DejaVuSans-20" transform="translate(1253.556641 0)"/>
      <use xlink:href="#DejaVuSans-28" transform="translate(1285.34375 0)"/>
      <use xlink:href="#DejaVuSans-52" transform="translate(1324.357422 0)"/>
      <use xlink:href="#DejaVuSans-4d" transform="translate(1393.839844 0)"/>
      <use xlink:href="#DejaVuSans-53" transform="translate(1480.119141 0)"/>
      <use xlink:href="#DejaVuSans-45" transform="translate(1543.595703 0)"/>
      <use xlink:href="#DejaVuSans-29" transform="translate(1606.779297 0)"/>
     </g>
    </g>
   </g>
   <g id="line2d_14">
    <path d="M 132.691074 394.716807 
L 133.948775 409.121769 
L 135.206476 418.193547 
L 136.464177 399.882084 
L 137.721878 397.640999 
L 138.979579 408.381664 
L 140.23728 411.342637 
L 141.49498 408.041194 
L 142.752681 391.506166 
L 144.010382 407.026952 
L 145.268083 416.242805 
L 146.525784 415.079656 
L 147.783485 402.777988 
L 149.041186 409.617122 
L 150.298887 414.45617 
L 151.556588 409.565996 
L 152.814289 402.942749 
L 154.07199 410.701468 
L 155.329691 417.268996 
L 156.587392 419.572388 
L 157.845093 398.22984 
L 159.102794 413.854011 
L 160.360495 418.089518 
L 161.618196 415.108987 
L 162.875897 403.323446 
L 164.133598 412.766136 
L 165.391299 418.133809 
L 166.649 399.435116 
L 167.906701 406.157574 
L 169.164402 412.044405 
L 170.422103 420.79029 
L 171.679804 407.29524 
L 172.937505 406.828581 
L 174.195206 405.847471 
L 175.452907 417.516542 
L 176.710608 419.472094 
L 177.968309 404.980941 
L 179.22601 406.415122 
L 180.483711 414.679583 
L 181.741412 412.651229 
L 182.999113 403.285557 
L 184.256814 407.540488 
L 185.514515 418.257696 
L 186.772216 403.09423 
L 188.029917 401.816855 
L 189.287618 410.500766 
L 190.545319 417.945367 
L 191.80302 399.736011 
L 193.060721 395.719147 
L 194.318422 417.955017 
L 195.576122 422.892136 
L 196.833823 414.552536 
L 198.091524 396.939449 
L 199.349225 413.615341 
L 200.606926 427.55776 
L 201.864627 424.382503 
L 203.122328 403.214146 
L 204.380029 413.112002 
L 205.63773 428.438261 
L 206.895431 422.6117 
L 208.153132 403.614143 
L 209.410833 412.383372 
L 210.668534 428.395691 
L 211.926235 410.389023 
L 213.183936 399.996588 
L 215.699338 424.282419 
L 216.957039 404.793911 
L 218.21474 400.286892 
L 219.472441 413.360171 
L 220.730142 424.466786 
L 221.987843 412.77828 
L 223.245544 407.80298 
L 224.503245 418.30239 
L 225.760946 424.613278 
L 227.018647 405.131662 
L 228.276348 412.976698 
L 229.534049 419.41104 
L 230.79175 421.352334 
L 232.049451 403.257189 
L 233.307152 411.885912 
L 234.564853 419.40035 
L 235.822554 422.852629 
L 237.080255 408.586533 
L 238.337956 410.985303 
L 239.595657 422.340039 
L 240.853358 424.425075 
L 242.111059 419.223379 
L 243.36876 420.452394 
L 244.626461 423.750865 
L 245.884162 426.675937 
L 247.141863 414.894493 
L 248.399564 406.207867 
L 249.657264 418.336973 
L 250.914965 422.012774 
L 252.172666 420.222595 
L 253.430367 406.99154 
L 254.688068 414.681516 
L 255.945769 425.375272 
L 257.20347 424.942769 
L 258.461171 405.010566 
L 259.718872 417.592351 
L 260.976573 427.367118 
L 262.234274 422.097488 
L 263.491975 408.407249 
L 264.749676 418.713511 
L 266.007377 425.935564 
L 267.265078 424.698477 
L 268.522779 401.949658 
L 269.78048 416.748945 
L 271.038181 425.589784 
L 272.295882 417.83989 
L 273.553583 392.191949 
L 274.811284 415.717056 
L 276.068985 422.938074 
L 277.326686 408.73039 
L 278.584387 377.272745 
L 279.842088 419.552244 
L 281.099789 425.32752 
L 282.35749 414.205547 
L 283.615191 384.11416 
L 284.872892 419.564298 
L 286.130593 427.506136 
L 287.388294 416.946889 
L 288.645995 388.290328 
L 289.903696 415.473539 
L 291.161397 423.276517 
L 292.419098 417.419079 
L 293.676799 400.386924 
L 294.9345 411.075439 
L 296.192201 425.586371 
L 297.449902 415.761265 
L 298.707603 399.289659 
L 299.965304 419.875545 
L 301.223005 425.217728 
L 302.480706 415.778643 
L 303.738406 402.337138 
L 304.996107 413.367675 
L 306.253808 423.208389 
L 307.511509 400.4391 
L 308.76921 414.33815 
L 310.026911 404.48995 
L 311.284612 421.514938 
L 313.800014 394.89351 
L 316.315416 426.849049 
L 317.573117 417.888316 
L 318.830818 395.066746 
L 320.088519 418.960398 
L 321.34622 428.782277 
L 322.603921 425.664109 
L 323.861622 386.58142 
L 325.119323 420.054304 
L 326.377024 427.736497 
L 327.634725 424.19149 
L 328.892426 365.212368 
L 330.150127 420.900288 
L 331.407828 424.95002 
L 332.665529 423.573057 
L 333.92323 383.607752 
L 335.180931 419.527687 
L 336.438632 426.395845 
L 337.696333 417.259023 
L 338.954034 376.994435 
L 340.211735 419.043494 
L 341.469436 424.859503 
L 342.727137 419.483276 
L 343.984838 371.400007 
L 345.242539 424.143857 
L 346.50024 426.268544 
L 347.757941 418.88283 
L 349.015642 373.631655 
L 350.273343 421.609371 
L 351.531044 426.470087 
L 352.788745 416.179774 
L 354.046446 360.77992 
L 355.304147 420.101705 
L 356.561848 425.363779 
L 357.819548 413.538275 
L 359.077249 360.782309 
L 360.33495 414.860927 
L 361.592651 423.623419 
L 362.850352 419.709216 
L 364.108053 353.252288 
L 365.365754 408.003049 
L 366.623455 419.015697 
L 367.881156 413.353467 
L 369.138857 369.947445 
L 370.396558 414.407292 
L 371.654259 422.952431 
L 372.91196 422.424069 
L 374.169661 381.684749 
L 375.427362 419.959484 
L 376.685063 424.960423 
L 377.942764 422.02161 
L 379.200465 363.442569 
L 380.458166 416.748543 
L 381.715867 424.550135 
L 382.973568 422.70512 
L 384.231269 370.929536 
L 385.48897 416.726299 
L 386.746671 425.653246 
L 388.004372 421.585205 
L 389.262073 364.893082 
L 390.519774 416.496812 
L 391.777475 423.092161 
L 393.035176 424.293691 
L 394.292877 360.326151 
L 395.550578 419.123857 
L 396.808279 423.890918 
L 398.06598 424.413173 
L 399.323681 360.086189 
L 400.581382 411.895472 
L 401.839083 421.937722 
L 403.096784 418.387408 
L 404.354485 365.501568 
L 405.612186 418.393688 
L 406.869887 427.748891 
L 408.127588 421.68324 
L 409.385289 365.848502 
L 410.64299 423.088705 
L 411.90069 424.142225 
L 413.158391 421.012541 
L 414.416092 358.892594 
L 415.673793 421.724306 
L 416.931494 426.876382 
L 418.189195 423.770509 
L 419.446896 365.256255 
L 420.704597 420.687991 
L 421.962298 425.615459 
L 423.219999 425.334705 
L 424.4777 367.808217 
L 425.735401 419.652439 
L 426.993102 422.010682 
L 428.250803 419.230774 
L 429.508504 358.306746 
L 430.766205 415.38539 
L 432.023906 416.776915 
L 433.281607 415.441888 
L 434.539308 360.31598 
L 435.797009 416.61182 
L 437.05471 420.496262 
L 438.312411 419.098663 
L 439.570112 373.355161 
L 440.827813 419.617201 
L 442.085514 426.012473 
L 443.343215 426.684675 
L 444.600916 378.18892 
L 445.858617 423.103806 
L 447.116318 427.325219 
L 448.374019 423.531002 
L 449.63172 372.575554 
L 450.889421 424.243242 
L 452.147122 428.601045 
L 453.404823 423.365368 
L 454.662524 371.808927 
L 455.920225 425.369183 
L 457.177926 428.532633 
L 458.435627 420.175158 
L 459.693328 388.129805 
L 460.951029 421.526525 
L 462.20873 423.912919 
L 463.466431 419.06349 
L 464.724131 388.938465 
L 465.981832 422.717174 
L 467.239533 425.666234 
L 468.497234 421.921386 
L 469.754935 393.084566 
L 471.012636 420.840775 
L 472.270337 423.784181 
L 473.528038 424.987329 
L 474.785739 364.585168 
L 476.04344 421.336037 
L 477.301141 425.579254 
L 478.558842 427.193428 
L 479.816543 379.162374 
L 481.074244 418.519005 
L 482.331945 428.449108 
L 483.589646 428.383237 
L 484.847347 387.993339 
L 486.105048 412.804766 
L 487.362749 421.850706 
L 488.62045 420.473316 
L 489.878151 400.835741 
L 491.135852 415.189498 
L 492.393553 423.877966 
L 493.651254 420.427917 
L 494.908955 383.321391 
L 496.166656 409.104115 
L 497.424357 421.844556 
L 498.682058 420.450671 
L 499.939759 379.052311 
L 501.19746 413.255664 
L 502.455161 419.691888 
L 503.712862 416.235431 
L 504.970563 387.29792 
L 506.228264 415.287348 
L 508.743666 424.304909 
L 510.001367 377.138632 
L 511.259068 414.815621 
L 512.516769 421.85223 
L 513.77447 424.152085 
L 515.032171 393.295281 
L 516.289872 416.921019 
L 517.547573 420.104746 
L 518.805273 420.471017 
L 520.062974 379.865293 
L 521.320675 408.959458 
L 522.578376 412.4852 
L 523.836077 422.651735 
L 525.093778 385.55448 
L 526.351479 421.086714 
L 527.60918 420.793833 
L 528.866881 422.256353 
L 530.124582 378.765422 
L 531.382283 416.551663 
L 532.639984 421.671581 
L 533.897685 417.502023 
L 535.155386 374.491513 
L 536.413087 413.499851 
L 537.670788 419.597936 
L 538.928489 417.959719 
L 540.18619 375.80047 
L 541.443891 413.429103 
L 542.701592 419.488289 
L 543.959293 415.874289 
L 545.216994 383.493773 
L 546.474695 418.279698 
L 547.732396 417.460623 
L 548.990097 414.05104 
L 550.247798 376.796469 
L 551.505499 415.296275 
L 552.7632 421.057119 
L 554.020901 419.341902 
L 555.278602 376.710079 
L 556.536303 417.525559 
L 557.794004 419.169216 
L 559.051705 422.3398 
L 560.309406 381.575453 
L 561.567107 419.185849 
L 562.824808 422.470492 
L 564.082509 426.650385 
L 565.34021 395.740829 
L 566.597911 423.49988 
L 567.855612 423.803489 
L 569.113313 425.760374 
L 570.371014 391.87356 
L 571.628715 425.260051 
L 572.886415 428.12382 
L 574.144116 427.852522 
L 575.401817 400.092118 
L 576.659518 428.907197 
L 577.917219 430.457061 
L 579.17492 430.56 
L 580.432621 392.951459 
L 581.690322 425.683211 
L 582.948023 429.047024 
L 584.205724 428.990002 
L 585.463425 394.985568 
L 586.721126 420.90095 
L 587.978827 424.025476 
L 589.236528 425.232128 
L 590.494229 383.955961 
L 591.75193 419.965478 
L 593.009631 425.640928 
L 594.267332 425.254045 
L 595.525033 393.604954 
L 596.782734 424.398835 
L 598.040435 424.74561 
L 599.298136 424.179737 
L 600.555837 397.961618 
L 601.813538 422.081098 
L 603.071239 425.132182 
L 604.32894 423.753391 
L 605.586641 385.250049 
L 606.844342 420.577913 
L 608.102043 424.489076 
L 609.359744 420.590926 
L 610.617445 380.162637 
L 611.875146 420.74901 
L 613.132847 423.647849 
L 614.390548 422.913167 
L 615.648249 381.644707 
L 616.90595 419.178986 
L 618.163651 421.671211 
L 619.421352 416.454841 
L 620.679053 379.42963 
L 621.936754 413.598353 
L 623.194455 418.494955 
L 624.452156 417.520839 
L 625.709857 372.064165 
L 626.967557 414.413851 
L 628.225258 418.278825 
L 629.482959 415.195315 
L 630.74066 386.465305 
L 631.998361 418.461411 
L 633.256062 423.143143 
L 634.513763 421.501994 
L 635.771464 390.188955 
L 637.029165 403.796352 
L 638.286866 413.728082 
L 639.544567 413.885152 
L 640.802268 386.665674 
L 642.059969 406.705628 
L 643.31767 413.613169 
L 644.575371 413.765569 
L 645.833072 386.815808 
L 647.090773 410.997024 
L 648.348474 413.765659 
L 649.606175 412.839154 
L 650.863876 373.424972 
L 652.121577 400.14686 
L 653.379278 405.536535 
L 654.636979 405.490842 
L 655.89468 372.294571 
L 657.152381 396.585477 
L 658.410082 405.224325 
L 659.667783 403.715892 
L 660.925484 359.027402 
L 662.183185 390.600098 
L 663.440886 397.74745 
L 664.698587 395.218241 
L 665.956288 365.803682 
L 667.213989 400.032898 
L 668.47169 406.609421 
L 669.729391 397.606691 
L 670.987092 360.731126 
L 672.244793 402.157249 
L 673.502494 405.153471 
L 674.760195 404.581838 
L 676.017896 362.764156 
L 677.275597 394.436483 
L 678.533298 401.303725 
L 679.790999 396.01489 
L 681.048699 373.442376 
L 682.3064 393.814771 
L 683.564101 398.483779 
L 684.821802 394.146097 
L 686.079503 370.265943 
L 687.337204 409.931746 
L 688.594905 417.076879 
L 689.852606 418.594836 
L 691.110307 376.130711 
L 692.368008 413.202276 
L 693.625709 419.557239 
L 694.88341 418.319645 
L 696.141111 386.81457 
L 697.398812 414.226997 
L 698.656513 422.484038 
L 699.914214 421.27802 
L 701.171915 384.123637 
L 702.429616 412.18503 
L 703.687317 417.075135 
L 704.945018 414.311407 
L 706.202719 377.954669 
L 707.46042 401.056193 
L 708.718121 407.827381 
L 709.975822 405.066129 
L 711.233523 367.90939 
L 712.491224 399.941546 
L 713.748925 403.86679 
L 715.006626 399.360701 
L 716.264327 373.684482 
L 717.522028 409.178201 
L 718.779729 412.05841 
L 720.03743 420.517191 
L 721.295131 370.009756 
L 722.552832 419.659375 
L 723.810533 416.123374 
L 725.068234 407.24221 
L 726.325935 359.251184 
L 727.583636 405.102899 
L 728.841337 407.404319 
L 730.099038 400.290555 
L 731.356739 347.703274 
L 732.61444 402.944266 
L 733.872141 411.669652 
L 735.129841 419.546814 
L 736.387542 357.879626 
L 737.645243 418.662016 
L 738.902944 417.084448 
L 740.160645 412.597055 
L 741.418346 358.020457 
L 741.418346 358.020457 
" clip-path="url(#p499c5a0712)" style="fill: none; stroke: #0000ff; stroke-width: 2; stroke-linecap: square"/>
   </g>
   <g id="line2d_15">
    <path d="M 132.691074 369.101407 
L 133.948775 407.177297 
L 135.206476 420.441951 
L 136.464177 383.71261 
L 137.721878 391.026465 
L 138.979579 401.138884 
L 140.23728 401.660462 
L 141.49498 403.933694 
L 142.752681 403.215207 
L 144.010382 399.965143 
L 145.268083 406.354208 
L 146.525784 391.208309 
L 147.783485 383.291311 
L 149.041186 397.195407 
L 150.298887 399.044904 
L 151.556588 405.598498 
L 152.814289 406.18671 
L 154.07199 389.10845 
L 155.329691 406.971866 
L 156.587392 408.119338 
L 157.845093 404.856026 
L 159.102794 404.845663 
L 160.360495 416.958871 
L 161.618196 393.903506 
L 164.133598 415.852892 
L 165.391299 413.60211 
L 166.649 407.859108 
L 167.906701 405.295693 
L 169.164402 407.721209 
L 170.422103 412.288606 
L 171.679804 390.147574 
L 172.937505 413.603421 
L 174.195206 407.741798 
L 175.452907 407.087649 
L 176.710608 373.881065 
L 177.968309 403.658497 
L 179.22601 395.087755 
L 180.483711 408.427588 
L 181.741412 398.191764 
L 182.999113 398.325493 
L 184.256814 394.402168 
L 185.514515 397.929775 
L 186.772216 400.701266 
L 188.029917 398.731484 
L 189.287618 407.081271 
L 190.545319 420.345422 
L 191.80302 387.861803 
L 193.060721 404.728574 
L 194.318422 416.428217 
L 195.576122 419.648863 
L 196.833823 386.3222 
L 198.091524 395.876709 
L 199.349225 410.221297 
L 200.606926 419.727304 
L 201.864627 390.656451 
L 203.122328 413.439506 
L 204.380029 411.090392 
L 205.63773 414.642762 
L 206.895431 357.440937 
L 208.153132 400.070526 
L 209.410833 394.849667 
L 210.668534 410.889067 
L 211.926235 414.646932 
L 213.183936 413.591095 
L 214.441637 394.463197 
L 215.699338 410.484857 
L 216.957039 388.100289 
L 218.21474 401.34216 
L 219.472441 402.665463 
L 220.730142 406.429952 
L 221.987843 397.343931 
L 223.245544 398.621353 
L 224.503245 396.630978 
L 225.760946 419.794972 
L 227.018647 404.872905 
L 228.276348 387.22677 
L 229.534049 407.806133 
L 230.79175 422.096333 
L 232.049451 411.092832 
L 233.307152 402.260699 
L 234.564853 410.705432 
L 235.822554 412.113452 
L 237.080255 407.277127 
L 238.337956 412.170695 
L 239.595657 396.97999 
L 240.853358 404.551414 
L 242.111059 391.566645 
L 243.36876 410.743494 
L 244.626461 401.422161 
L 245.884162 408.739111 
L 247.141863 402.524128 
L 248.399564 407.637407 
L 249.657264 403.407859 
L 250.914965 414.184385 
L 252.172666 389.310817 
L 253.430367 386.111811 
L 254.688068 387.40327 
L 255.945769 405.038214 
L 257.20347 398.512209 
L 258.461171 396.545384 
L 259.718872 398.174436 
L 260.976573 406.68957 
L 262.234274 369.454025 
L 263.491975 403.582622 
L 264.749676 396.116795 
L 266.007377 410.241795 
L 267.265078 409.663285 
L 268.522779 401.324155 
L 269.78048 392.185911 
L 271.038181 416.243699 
L 272.295882 421.283818 
L 274.811284 394.433515 
L 276.068985 410.048959 
L 277.326686 414.447728 
L 278.584387 410.411183 
L 279.842088 400.923264 
L 281.099789 409.528777 
L 282.35749 382.233443 
L 283.615191 412.748156 
L 284.872892 401.858515 
L 286.130593 407.084717 
L 287.388294 361.850768 
L 288.645995 402.124964 
L 289.903696 391.101329 
L 291.161397 398.526214 
L 292.419098 400.687924 
L 293.676799 404.996097 
L 294.9345 388.923681 
L 296.192201 397.97037 
L 297.449902 402.089704 
L 298.707603 399.043144 
L 299.965304 399.423652 
L 301.223005 404.353749 
L 302.480706 403.6101 
L 303.738406 404.947965 
L 304.996107 394.87544 
L 306.253808 404.635712 
L 307.511509 388.581257 
L 308.76921 402.222477 
L 310.026911 391.155568 
L 311.284612 400.083919 
L 312.542313 390.333732 
L 313.800014 398.892482 
L 315.057715 401.89447 
L 316.315416 414.925381 
L 317.573117 349.447011 
L 318.830818 397.653147 
L 320.088519 393.663283 
L 321.34622 419.312484 
L 322.603921 391.098948 
L 323.861622 401.67648 
L 325.119323 399.601804 
L 326.377024 411.617672 
L 327.634725 335.681057 
L 328.892426 400.084307 
L 330.150127 394.747329 
L 331.407828 411.985858 
L 332.665529 361.786068 
L 333.92323 407.492906 
L 335.180931 398.833204 
L 336.438632 422.503834 
L 337.696333 361.387921 
L 338.954034 404.620849 
L 340.211735 403.024404 
L 341.469436 419.852255 
L 342.727137 352.897636 
L 343.984838 398.165061 
L 345.242539 381.340073 
L 346.50024 409.285629 
L 347.757941 371.448092 
L 349.015642 413.073419 
L 350.273343 401.122595 
L 351.531044 414.86821 
L 352.788745 384.559148 
L 354.046446 411.31908 
L 355.304147 401.230298 
L 356.561848 411.166871 
L 357.819548 412.792079 
L 359.077249 400.522015 
L 360.33495 389.78902 
L 361.592651 408.651591 
L 362.850352 409.08067 
L 364.108053 404.016012 
L 365.365754 387.53047 
L 366.623455 414.059836 
L 367.881156 418.550816 
L 369.138857 407.016477 
L 370.396558 393.511889 
L 371.654259 402.988485 
L 372.91196 403.844137 
L 375.427362 389.269791 
L 376.685063 407.594907 
L 377.942764 395.771424 
L 379.200465 399.233643 
L 380.458166 393.411469 
L 381.715867 410.847581 
L 382.973568 401.611219 
L 384.231269 402.767161 
L 385.48897 394.83146 
L 386.746671 408.06751 
L 388.004372 411.040747 
L 389.262073 384.729147 
L 390.519774 403.6125 
L 391.777475 414.707365 
L 393.035176 412.529467 
L 394.292877 391.883579 
L 395.550578 385.106445 
L 396.808279 409.256751 
L 398.06598 412.261559 
L 399.323681 393.367829 
L 400.581382 389.426158 
L 401.839083 404.950608 
L 403.096784 399.879202 
L 404.354485 398.332617 
L 405.612186 397.995557 
L 406.869887 404.243374 
L 408.127588 384.274198 
L 409.385289 395.862563 
L 410.64299 396.429037 
L 411.90069 399.057388 
L 413.158391 373.239342 
L 414.416092 386.527058 
L 415.673793 381.299119 
L 416.931494 409.97699 
L 418.189195 407.457254 
L 419.446896 395.014244 
L 420.704597 403.283411 
L 421.962298 405.916953 
L 423.219999 377.520961 
L 424.4777 388.698531 
L 425.735401 394.057622 
L 426.993102 410.582931 
L 428.250803 412.086119 
L 429.508504 393.901754 
L 430.766205 388.498183 
L 432.023906 410.486323 
L 433.281607 410.47302 
L 434.539308 391.474486 
L 435.797009 388.709448 
L 437.05471 412.28318 
L 438.312411 400.490718 
L 439.570112 395.243398 
L 440.827813 380.196974 
L 442.085514 406.58447 
L 443.343215 417.916749 
L 444.600916 398.131382 
L 445.858617 384.132223 
L 447.116318 408.007114 
L 448.374019 420.04233 
L 449.63172 401.179317 
L 450.889421 376.263159 
L 452.147122 417.953005 
L 453.404823 412.400552 
L 454.662524 397.389228 
L 455.920225 385.455703 
L 457.177926 411.157507 
L 458.435627 416.149324 
L 459.693328 407.174806 
L 460.951029 390.663661 
L 462.20873 414.19064 
L 463.466431 409.497676 
L 464.724131 400.65363 
L 465.981832 379.375464 
L 467.239533 404.670664 
L 468.497234 401.927917 
L 469.754935 378.138511 
L 471.012636 385.65301 
L 472.270337 419.512042 
L 473.528038 425.522847 
L 474.785739 410.865984 
L 476.04344 389.386341 
L 477.301141 407.847199 
L 478.558842 408.598848 
L 479.816543 418.718922 
L 481.074244 384.464107 
L 482.331945 409.19764 
L 483.589646 406.386319 
L 484.847347 386.801858 
L 486.105048 382.441429 
L 487.362749 403.034055 
L 488.62045 410.010307 
L 489.878151 380.300681 
L 491.135852 382.787415 
L 492.393553 406.877868 
L 493.651254 405.908214 
L 494.908955 405.334978 
L 496.166656 382.966623 
L 497.424357 414.012543 
L 498.682058 415.944983 
L 499.939759 407.037587 
L 501.19746 381.479978 
L 502.455161 425.623173 
L 503.712862 409.490328 
L 504.970563 403.435286 
L 506.228264 396.445203 
L 507.485965 414.772427 
L 508.743666 410.501689 
L 510.001367 408.314734 
L 511.259068 371.22908 
L 512.516769 408.291904 
L 513.77447 410.910869 
L 515.032171 412.491318 
L 516.289872 388.438543 
L 517.547573 413.373188 
L 518.805273 401.48681 
L 520.062974 409.886937 
L 521.320675 389.020532 
L 522.578376 398.36888 
L 523.836077 396.138861 
L 525.093778 393.670023 
L 526.351479 381.437272 
L 527.60918 399.972969 
L 528.866881 406.489067 
L 530.124582 397.7143 
L 531.382283 374.073826 
L 532.639984 411.512637 
L 533.897685 413.318587 
L 535.155386 407.791284 
L 536.413087 399.152306 
L 537.670788 413.632126 
L 538.928489 406.515509 
L 540.18619 398.358665 
L 541.443891 372.566584 
L 542.701592 402.402037 
L 543.959293 413.985189 
L 545.216994 395.14662 
L 546.474695 399.49203 
L 547.732396 413.500315 
L 548.990097 376.830871 
L 550.247798 398.738416 
L 551.505499 383.081081 
L 552.7632 409.856556 
L 554.020901 398.869612 
L 555.278602 406.828458 
L 556.536303 383.292983 
L 557.794004 400.377752 
L 559.051705 394.667397 
L 560.309406 401.082799 
L 561.567107 392.078635 
L 564.082509 405.966334 
L 565.34021 389.65393 
L 566.597911 390.076315 
L 569.113313 417.42924 
L 570.371014 404.955252 
L 571.628715 406.972981 
L 572.886415 421.13279 
L 574.144116 363.15636 
L 575.401817 403.604945 
L 576.659518 402.348467 
L 577.917219 415.638283 
L 579.17492 350.412531 
L 580.432621 393.291632 
L 581.690322 390.659774 
L 582.948023 413.032193 
L 584.205724 385.858513 
L 585.463425 392.103134 
L 586.721126 394.442637 
L 587.978827 412.472998 
L 589.236528 419.029431 
L 590.494229 391.829485 
L 591.75193 389.292581 
L 593.009631 398.595265 
L 594.267332 404.715611 
L 595.525033 394.089831 
L 596.782734 396.680685 
L 598.040435 402.098293 
L 599.298136 392.048772 
L 600.555837 387.297616 
L 601.813538 398.346064 
L 603.071239 412.655428 
L 604.32894 400.814298 
L 605.586641 398.982339 
L 606.844342 394.328621 
L 608.102043 412.493758 
L 609.359744 406.000667 
L 610.617445 398.400672 
L 611.875146 385.37108 
L 613.132847 409.583505 
L 614.390548 393.202274 
L 615.648249 392.647137 
L 616.90595 393.871623 
L 618.163651 415.146564 
L 619.421352 351.887058 
L 620.679053 388.544589 
L 621.936754 388.683226 
L 623.194455 407.38079 
L 624.452156 382.900664 
L 625.709857 389.804817 
L 626.967557 385.297642 
L 628.225258 401.298712 
L 629.482959 381.832031 
L 630.74066 403.447159 
L 631.998361 372.119012 
L 633.256062 404.069711 
L 634.513763 412.528645 
L 635.771464 394.117703 
L 637.029165 386.898412 
L 638.286866 414.564054 
L 639.544567 413.904808 
L 640.802268 398.001924 
L 642.059969 394.505035 
L 643.31767 411.277651 
L 644.575371 409.696399 
L 645.833072 394.937042 
L 647.090773 391.348481 
L 648.348474 411.427532 
L 649.606175 423.636816 
L 650.863876 402.647704 
L 652.121577 388.659386 
L 653.379278 415.334662 
L 654.636979 421.27238 
L 655.89468 404.322032 
L 657.152381 380.478839 
L 658.410082 405.648803 
L 659.667783 395.335956 
L 660.925484 374.864112 
L 662.183185 391.229274 
L 663.440886 405.638997 
L 664.698587 411.076138 
L 665.956288 365.570944 
L 667.213989 402.335588 
L 668.47169 408.17408 
L 669.729391 418.05198 
L 670.987092 391.071669 
L 672.244793 401.091642 
L 674.760195 424.147043 
L 676.017896 403.53474 
L 677.275597 408.061979 
L 679.790999 419.05263 
L 681.048699 401.313444 
L 682.3064 398.898675 
L 683.564101 406.129065 
L 684.821802 405.305864 
L 686.079503 402.672069 
L 687.337204 399.616033 
L 688.594905 414.945717 
L 689.852606 372.242512 
L 691.110307 396.206572 
L 692.368008 405.273199 
L 693.625709 421.493567 
L 694.88341 374.269367 
L 696.141111 396.395844 
L 697.398812 398.457843 
L 698.656513 412.672416 
L 699.914214 411.381108 
L 701.171915 386.345881 
L 702.429616 388.797481 
L 703.687317 407.487237 
L 704.945018 419.213837 
L 706.202719 385.872304 
L 707.46042 394.153423 
L 708.718121 403.560122 
L 709.975822 406.713512 
L 711.233523 393.487267 
L 712.491224 391.978591 
L 713.748925 411.098345 
L 715.006626 380.308434 
L 716.264327 396.013269 
L 717.522028 403.778232 
L 718.779729 416.81628 
L 720.03743 366.033155 
L 721.295131 397.384027 
L 722.552832 386.739815 
L 723.810533 415.59326 
L 725.068234 407.18909 
L 726.325935 390.278415 
L 727.583636 386.843739 
L 728.841337 397.141766 
L 730.099038 414.211505 
L 731.356739 384.096785 
L 732.61444 389.927875 
L 733.872141 414.35462 
L 735.129841 396.400108 
L 736.387542 392.791515 
L 737.645243 391.190883 
L 738.902944 414.225198 
L 740.160645 389.471948 
L 741.418346 393.500573 
L 741.418346 393.500573 
" clip-path="url(#p499c5a0712)" style="fill: none; stroke: #ffa500; stroke-width: 2; stroke-linecap: square"/>
   </g>
   <g id="line2d_16">
    <path d="M 132.691074 388.552762 
L 133.948775 401.18681 
L 135.206476 368.031971 
L 136.464177 239.137026 
L 137.721878 394.305498 
L 138.979579 395.119537 
L 140.23728 355.716435 
L 141.49498 249.638296 
L 142.752681 393.27425 
L 144.010382 397.123649 
L 145.268083 365.649957 
L 146.525784 238.67921 
L 147.783485 397.661842 
L 149.041186 397.219707 
L 150.298887 361.036787 
L 151.556588 229.161377 
L 152.814289 404.78531 
L 154.07199 398.747893 
L 155.329691 372.570073 
L 156.587392 264.437323 
L 157.845093 408.093352 
L 159.102794 402.745819 
L 160.360495 378.31352 
L 161.618196 244.206737 
L 162.875897 405.72783 
L 164.133598 400.768135 
L 165.391299 362.211161 
L 166.649 229.838349 
L 167.906701 403.032143 
L 169.164402 403.821347 
L 170.422103 368.646509 
L 171.679804 238.878602 
L 172.937505 403.154749 
L 174.195206 395.288392 
L 175.452907 364.841087 
L 176.710608 258.308274 
L 177.968309 397.125151 
L 179.22601 388.345015 
L 180.483711 359.760024 
L 181.741412 253.228008 
L 182.999113 390.002804 
L 184.256814 394.476771 
L 185.514515 371.344457 
L 186.772216 238.141512 
L 188.029917 400.843419 
L 189.287618 403.217393 
L 190.545319 378.119399 
L 191.80302 253.809852 
L 193.060721 401.982192 
L 194.318422 408.897505 
L 195.576122 385.928404 
L 196.833823 288.73394 
L 198.091524 403.312952 
L 199.349225 411.288489 
L 200.606926 404.333724 
L 201.864627 311.362532 
L 203.122328 410.919292 
L 204.380029 410.92436 
L 205.63773 410.48898 
L 206.895431 321.832774 
L 208.153132 410.642878 
L 209.410833 406.677078 
L 210.668534 403.247698 
L 211.926235 308.434633 
L 213.183936 404.035074 
L 214.441637 402.209551 
L 215.699338 398.195119 
L 216.957039 288.854783 
L 218.21474 406.654198 
L 219.472441 406.1175 
L 220.730142 399.959645 
L 221.987843 289.186573 
L 223.245544 405.560719 
L 224.503245 411.601502 
L 225.760946 389.97048 
L 227.018647 264.414402 
L 228.276348 409.708134 
L 229.534049 407.524738 
L 230.79175 379.288082 
L 232.049451 244.162156 
L 233.307152 406.177172 
L 234.564853 406.315766 
L 235.822554 379.770991 
L 237.080255 239.299771 
L 238.337956 405.773595 
L 239.595657 403.105046 
L 240.853358 384.545508 
L 242.111059 263.502477 
L 243.36876 410.70684 
L 244.626461 406.350263 
L 245.884162 389.402796 
L 247.141863 267.881953 
L 248.399564 404.75203 
L 249.657264 401.537828 
L 250.914965 388.492645 
L 252.172666 272.880196 
L 253.430367 392.654159 
L 254.688068 396.365524 
L 255.945769 390.248682 
L 257.20347 304.81592 
L 258.461171 412.390782 
L 259.718872 410.641691 
L 260.976573 405.181297 
L 262.234274 313.515218 
L 263.491975 413.119278 
L 264.749676 404.214829 
L 266.007377 403.436387 
L 267.265078 316.435443 
L 268.522779 403.200301 
L 269.78048 400.115466 
L 271.038181 404.009623 
L 272.295882 299.093706 
L 273.553583 406.133466 
L 274.811284 407.574448 
L 276.068985 403.476809 
L 277.326686 266.869326 
L 278.584387 385.371746 
L 279.842088 408.281682 
L 281.099789 395.316692 
L 282.35749 300.35497 
L 283.615191 402.254357 
L 284.872892 406.412458 
L 286.130593 405.934729 
L 287.388294 327.420665 
L 288.645995 403.427091 
L 289.903696 400.5156 
L 291.161397 403.808309 
L 292.419098 301.591691 
L 293.676799 406.812502 
L 294.9345 404.869532 
L 296.192201 404.2846 
L 297.449902 290.138402 
L 298.707603 408.911007 
L 299.965304 405.065807 
L 301.223005 394.056753 
L 302.480706 298.59422 
L 303.738406 407.845972 
L 304.996107 393.684668 
L 306.253808 409.257315 
L 307.511509 334.914792 
L 308.76921 406.327871 
L 310.026911 390.30009 
L 311.284612 404.822221 
L 312.542313 299.437065 
L 313.800014 407.847525 
L 315.057715 403.290252 
L 316.315416 401.792418 
L 317.573117 295.610851 
L 318.830818 411.132527 
L 320.088519 411.691183 
L 321.34622 409.00519 
L 322.603921 275.745385 
L 323.861622 398.180376 
L 325.119323 410.561231 
L 326.377024 405.804526 
L 327.634725 272.161813 
L 328.892426 398.486657 
L 330.150127 409.176619 
L 331.407828 408.361737 
L 332.665529 282.314716 
L 333.92323 402.147273 
L 335.180931 412.551091 
L 336.438632 401.573287 
L 337.696333 268.159345 
L 338.954034 387.867392 
L 340.211735 409.528977 
L 341.469436 400.55759 
L 342.727137 279.091587 
L 343.984838 390.214612 
L 345.242539 411.451365 
L 346.50024 399.004901 
L 347.757941 288.422523 
L 349.015642 393.965962 
L 350.273343 408.794482 
L 351.531044 402.32436 
L 352.788745 285.28653 
L 354.046446 385.614293 
L 355.304147 404.738014 
L 356.561848 401.650591 
L 357.819548 280.920172 
L 359.077249 397.457574 
L 360.33495 400.378515 
L 361.592651 407.256085 
L 362.850352 287.81828 
L 364.108053 391.939505 
L 365.365754 389.290308 
L 366.623455 404.069205 
L 367.881156 301.121872 
L 369.138857 390.018326 
L 370.396558 394.766267 
L 371.654259 406.867693 
L 372.91196 302.909307 
L 374.169661 389.530632 
L 375.427362 410.962447 
L 376.685063 405.010635 
L 377.942764 305.566634 
L 379.200465 385.26696 
L 380.458166 402.253408 
L 381.715867 402.003788 
L 382.973568 304.841649 
L 384.231269 387.677361 
L 385.48897 397.710897 
L 386.746671 396.784261 
L 388.004372 313.267234 
L 389.262073 391.882544 
L 390.519774 401.238413 
L 391.777475 402.787475 
L 393.035176 310.506033 
L 394.292877 379.399753 
L 395.550578 394.740951 
L 396.808279 400.97515 
L 398.06598 306.957558 
L 399.323681 384.265525 
L 400.581382 387.834459 
L 401.839083 400.105938 
L 403.096784 306.366332 
L 404.354485 384.394151 
L 405.612186 402.9329 
L 406.869887 406.402789 
L 408.127588 297.188715 
L 409.385289 388.953487 
L 410.64299 406.338256 
L 411.90069 403.502868 
L 413.158391 291.705291 
L 414.416092 390.75273 
L 415.673793 410.156788 
L 416.931494 407.747528 
L 418.189195 298.407888 
L 419.446896 393.413966 
L 420.704597 409.809459 
L 421.962298 410.311089 
L 423.219999 302.47266 
L 424.4777 395.007439 
L 425.735401 405.194693 
L 426.993102 396.611185 
L 428.250803 298.35779 
L 429.508504 402.267649 
L 430.766205 393.905345 
L 432.023906 397.77597 
L 433.281607 295.837015 
L 434.539308 400.938637 
L 435.797009 399.82286 
L 437.05471 403.400746 
L 438.312411 303.289008 
L 439.570112 398.468627 
L 440.827813 410.573038 
L 442.085514 413.674101 
L 443.343215 323.260041 
L 444.600916 402.374374 
L 445.858617 411.270068 
L 447.116318 415.583356 
L 448.374019 319.33505 
L 449.63172 408.470447 
L 450.889421 412.118766 
L 452.147122 413.271291 
L 453.404823 332.397217 
L 454.662524 405.385069 
L 455.920225 416.393334 
L 457.177926 412.457556 
L 458.435627 337.171735 
L 459.693328 406.145426 
L 460.951029 404.911749 
L 462.20873 403.110382 
L 463.466431 335.969076 
L 464.724131 407.196767 
L 465.981832 409.040429 
L 467.239533 409.817039 
L 468.497234 339.863096 
L 469.754935 408.742274 
L 471.012636 404.905708 
L 472.270337 410.43587 
L 473.528038 329.330174 
L 474.785739 402.888648 
L 476.04344 407.644061 
L 477.301141 413.655745 
L 478.558842 336.099461 
L 479.816543 406.984033 
L 481.074244 405.464197 
L 482.331945 417.97439 
L 483.589646 340.825205 
L 484.847347 406.987967 
L 486.105048 400.777915 
L 487.362749 397.052589 
L 488.62045 340.446026 
L 489.878151 408.496212 
L 491.135852 408.874404 
L 492.393553 411.685796 
L 493.651254 344.803595 
L 494.908955 402.730268 
L 496.166656 393.611006 
L 497.424357 407.688942 
L 498.682058 343.555247 
L 499.939759 399.841408 
L 501.19746 391.633539 
L 502.455161 404.009189 
L 503.712862 352.917046 
L 504.970563 402.700586 
L 506.228264 398.615937 
L 507.485965 400.354191 
L 508.743666 336.584012 
L 510.001367 377.644997 
L 511.259068 388.936633 
L 512.516769 397.009202 
L 513.77447 356.258976 
L 515.032171 389.003447 
L 516.289872 392.352906 
L 517.547573 397.332836 
L 518.805273 369.395558 
L 520.062974 379.142002 
L 521.320675 375.011285 
L 522.578376 388.819953 
L 523.836077 368.091408 
L 525.093778 396.346455 
L 526.351479 393.495332 
L 527.60918 397.995561 
L 528.866881 352.186117 
L 530.124582 383.573459 
L 531.382283 392.004285 
L 532.639984 396.858423 
L 533.897685 344.916112 
L 535.155386 378.946186 
L 536.413087 389.746393 
L 537.670788 389.311092 
L 538.928489 354.594823 
L 540.18619 390.288688 
L 541.443891 390.156993 
L 542.701592 395.872597 
L 543.959293 363.844365 
L 545.216994 396.245217 
L 546.474695 396.693506 
L 547.732396 397.284284 
L 548.990097 352.528078 
L 550.247798 397.206143 
L 551.505499 392.659198 
L 552.7632 400.771331 
L 554.020901 355.981121 
L 555.278602 388.956093 
L 556.536303 389.450642 
L 557.794004 396.768312 
L 559.051705 360.361068 
L 560.309406 399.121581 
L 561.567107 395.931802 
L 562.824808 404.465857 
L 564.082509 368.629351 
L 565.34021 399.938125 
L 566.597911 398.823836 
L 567.855612 404.545268 
L 569.113313 360.344308 
L 570.371014 394.855871 
L 571.628715 402.326434 
L 572.886415 403.530762 
L 574.144116 369.454155 
L 575.401817 405.799643 
L 576.659518 410.102629 
L 577.917219 408.693947 
L 579.17492 370.192432 
L 580.432621 402.195307 
L 582.948023 412.123128 
L 584.205724 381.676735 
L 585.463425 407.411384 
L 586.721126 400.855791 
L 587.978827 401.246558 
L 589.236528 369.223741 
L 590.494229 397.158572 
L 591.75193 399.061772 
L 593.009631 395.652369 
L 594.267332 360.734955 
L 595.525033 383.589328 
L 596.782734 386.151853 
L 598.040435 384.67821 
L 599.298136 357.559477 
L 600.555837 379.910186 
L 603.071239 385.120765 
L 604.32894 356.707662 
L 605.586641 385.165418 
L 606.844342 389.358794 
L 608.102043 388.484674 
L 609.359744 348.332979 
L 610.617445 382.026399 
L 611.875146 397.641365 
L 613.132847 402.95771 
L 614.390548 362.668072 
L 615.648249 388.537074 
L 616.90595 385.35448 
L 618.163651 383.879157 
L 619.421352 347.05125 
L 620.679053 369.368106 
L 621.936754 370.112949 
L 623.194455 377.499641 
L 624.452156 346.446318 
L 625.709857 369.387276 
L 626.967557 368.757759 
L 628.225258 376.81451 
L 629.482959 348.215025 
L 630.74066 382.709836 
L 631.998361 382.7558 
L 633.256062 385.499401 
L 634.513763 353.303291 
L 635.771464 357.510538 
L 637.029165 347.091444 
L 638.286866 358.652095 
L 639.544567 339.689592 
L 640.802268 355.870131 
L 642.059969 362.483319 
L 643.31767 375.020624 
L 644.575371 360.744606 
L 645.833072 381.471529 
L 647.090773 380.548839 
L 648.348474 386.582296 
L 649.606175 342.618707 
L 650.863876 357.056899 
L 652.121577 349.51961 
L 653.379278 362.870469 
L 654.636979 336.079885 
L 655.89468 353.230961 
L 657.152381 351.347869 
L 658.410082 354.583182 
L 659.667783 310.89267 
L 660.925484 319.985424 
L 662.183185 318.806938 
L 663.440886 327.973029 
L 664.698587 302.389491 
L 665.956288 323.759035 
L 667.213989 324.555547 
L 668.47169 322.671333 
L 669.729391 286.489659 
L 670.987092 318.993994 
L 673.502494 343.133079 
L 674.760195 298.402704 
L 676.017896 318.666939 
L 677.275597 318.874382 
L 678.533298 320.298174 
L 679.790999 296.641186 
L 681.048699 320.131895 
L 682.3064 324.417793 
L 683.564101 321.342395 
L 684.821802 310.735745 
L 686.079503 353.762265 
L 687.337204 364.745568 
L 688.594905 370.555417 
L 689.852606 336.948438 
L 691.110307 359.770768 
L 692.368008 367.238369 
L 693.625709 370.282883 
L 694.88341 337.699094 
L 696.141111 367.035299 
L 697.398812 371.306124 
L 698.656513 373.382461 
L 699.914214 337.602374 
L 701.171915 360.381092 
L 702.429616 356.824813 
L 703.687317 359.518816 
L 704.945018 326.455297 
L 706.202719 342.071874 
L 707.46042 340.643673 
L 708.718121 345.516099 
L 709.975822 306.546467 
L 711.233523 339.834268 
L 712.491224 335.215654 
L 713.748925 338.533006 
L 715.006626 313.201542 
L 716.264327 348.923163 
L 717.522028 350.995845 
L 718.779729 370.213224 
L 720.03743 337.030723 
L 721.295131 365.826183 
L 722.552832 362.925193 
L 723.810533 343.56295 
L 725.068234 300.286614 
L 726.325935 338.676769 
L 727.583636 336.6943 
L 728.841337 331.136533 
L 730.099038 278.960594 
L 731.356739 332.463546 
L 732.61444 345.853448 
L 733.872141 368.979001 
L 735.129841 325.476131 
L 736.387542 362.451986 
L 737.645243 368.056115 
L 738.902944 359.41474 
L 740.160645 313.81456 
L 741.418346 352.993959 
L 741.418346 352.993959 
" clip-path="url(#p499c5a0712)" style="fill: none; stroke-dasharray: 7.4,3.2; stroke-dashoffset: 0; stroke: #0000ff; stroke-width: 2"/>
   </g>
   <g id="line2d_17">
    <path d="M 132.691074 387.712024 
L 133.948775 389.025426 
L 135.206476 380.440622 
L 136.464177 112.561827 
L 137.721878 384.901094 
L 138.979579 349.131924 
L 140.23728 383.601555 
L 141.49498 115.982581 
L 142.752681 394.553221 
L 144.010382 369.101856 
L 145.268083 377.68577 
L 146.525784 89.489203 
L 147.783485 385.971139 
L 149.041186 351.071708 
L 150.298887 384.424267 
L 151.556588 145.87265 
L 152.814289 400.760819 
L 154.07199 370.182753 
L 155.329691 388.960429 
L 156.587392 72.075983 
L 157.845093 393.313054 
L 159.102794 397.888346 
L 160.360495 376.640702 
L 161.618196 61.589611 
L 162.875897 397.897207 
L 164.133598 397.533231 
L 165.391299 367.761262 
L 166.649 81.953622 
L 167.906701 405.220521 
L 169.164402 387.878917 
L 170.422103 381.510855 
L 171.679804 52.208664 
L 172.937505 402.298406 
L 174.195206 390.3399 
L 175.452907 344.850544 
L 176.710608 44.843039 
L 177.968309 402.647994 
L 179.22601 368.484726 
L 180.483711 363.404554 
L 181.741412 88.156456 
L 182.999113 395.756402 
L 184.256814 351.68697 
L 185.514515 384.061862 
L 186.772216 126.710146 
L 188.029917 390.678502 
L 189.287618 399.519027 
L 190.545319 368.892633 
L 191.80302 79.949738 
L 193.060721 388.962145 
L 194.318422 409.79957 
L 195.576122 362.195741 
L 196.833823 74.879955 
L 198.091524 391.645296 
L 199.349225 397.143246 
L 200.606926 355.257258 
L 201.864627 83.091914 
L 203.122328 403.010852 
L 204.380029 397.323663 
L 205.63773 343.80048 
L 206.895431 65.842076 
L 208.153132 391.555156 
L 209.410833 367.81794 
L 210.668534 382.017147 
L 211.926235 174.4514 
L 213.183936 391.682348 
L 214.441637 363.353841 
L 215.699338 383.221644 
L 216.957039 149.186114 
L 218.21474 379.522521 
L 219.472441 354.283652 
L 220.730142 379.533496 
L 221.987843 195.3428 
L 223.245544 394.698643 
L 224.503245 375.533721 
L 225.760946 390.457247 
L 227.018647 161.00251 
L 228.276348 381.285378 
L 229.534049 399.708139 
L 230.79175 387.647577 
L 232.049451 181.25897 
L 233.307152 395.76936 
L 234.564853 375.665018 
L 235.822554 358.032641 
L 237.080255 118.077365 
L 238.337956 389.446827 
L 239.595657 357.631533 
L 240.853358 357.964589 
L 242.111059 100.721395 
L 243.36876 391.368795 
L 244.626461 386.903255 
L 245.884162 356.721048 
L 247.141863 84.982571 
L 248.399564 393.330965 
L 249.657264 386.373044 
L 250.914965 370.419769 
L 252.172666 142.671717 
L 253.430367 369.317935 
L 254.688068 345.446628 
L 255.945769 381.300371 
L 257.20347 174.287062 
L 258.461171 382.967123 
L 259.718872 359.584276 
L 260.976573 378.325668 
L 262.234274 109.543013 
L 263.491975 397.05227 
L 264.749676 376.650859 
L 266.007377 398.46446 
L 267.265078 163.263891 
L 268.522779 383.857923 
L 269.78048 377.813795 
L 271.038181 389.82293 
L 272.295882 159.643353 
L 273.553583 389.705519 
L 274.811284 366.36089 
L 276.068985 383.731223 
L 277.326686 148.904523 
L 278.584387 396.472699 
L 279.842088 362.496762 
L 281.099789 377.796593 
L 282.35749 86.087822 
L 283.615191 395.541003 
L 284.872892 372.752742 
L 286.130593 369.477959 
L 287.388294 48.887584 
L 288.645995 391.749054 
L 289.903696 366.135008 
L 291.161397 346.245471 
L 292.419098 115.449488 
L 293.676799 382.002631 
L 294.9345 340.629187 
L 296.192201 375.488648 
L 297.449902 136.29412 
L 298.707603 381.323972 
L 299.965304 366.985672 
L 301.223005 361.906955 
L 302.480706 97.443666 
L 303.738406 392.252522 
L 304.996107 357.274057 
L 306.253808 346.491892 
L 307.511509 96.407278 
L 308.76921 390.187594 
L 310.026911 353.389594 
L 311.284612 365.48302 
L 312.542313 102.032568 
L 313.800014 385.473064 
L 315.057715 387.388277 
L 316.315416 318.667562 
L 317.573117 27.36 
L 318.830818 395.597869 
L 320.088519 388.249822 
L 321.34622 331.86382 
L 322.603921 103.047729 
L 323.861622 395.855214 
L 325.119323 378.565609 
L 326.377024 355.522082 
L 327.634725 79.504881 
L 328.892426 390.923055 
L 330.150127 376.815979 
L 331.407828 358.665647 
L 332.665529 101.253475 
L 333.92323 405.678083 
L 335.180931 387.396472 
L 336.438632 342.043386 
L 337.696333 95.427185 
L 338.954034 403.440057 
L 340.211735 385.582939 
L 341.469436 337.345383 
L 342.727137 97.352389 
L 343.984838 390.452657 
L 345.242539 351.692617 
L 346.50024 344.636614 
L 347.757941 112.940138 
L 349.015642 393.829663 
L 350.273343 381.467366 
L 351.531044 371.906675 
L 352.788745 176.788912 
L 354.046446 385.922974 
L 355.304147 363.059277 
L 356.561848 404.298297 
L 357.819548 259.195064 
L 359.077249 373.933617 
L 360.33495 352.646785 
L 361.592651 397.202147 
L 362.850352 241.035661 
L 364.108053 375.828719 
L 365.365754 359.884943 
L 366.623455 387.41573 
L 367.881156 238.110773 
L 369.138857 390.732618 
L 370.396558 357.494314 
L 371.654259 392.433895 
L 372.91196 191.184854 
L 374.169661 380.628076 
L 375.427362 360.665217 
L 376.685063 377.098265 
L 377.942764 172.911747 
L 379.200465 382.979133 
L 380.458166 372.807734 
L 381.715867 380.952865 
L 382.973568 205.023841 
L 384.231269 390.911168 
L 385.48897 366.093439 
L 386.746671 388.888649 
L 388.004372 190.24594 
L 389.262073 375.406102 
L 390.519774 376.132354 
L 391.777475 385.966708 
L 393.035176 202.942349 
L 394.292877 385.861785 
L 395.550578 353.796385 
L 396.808279 388.591841 
L 398.06598 194.394677 
L 399.323681 379.932071 
L 400.581382 349.434668 
L 401.839083 373.574629 
L 403.096784 152.298781 
L 404.354485 391.286503 
L 405.612186 349.867225 
L 406.869887 373.126354 
L 408.127588 161.988076 
L 409.385289 386.09558 
L 410.64299 352.118253 
L 411.90069 351.038464 
L 413.158391 170.826171 
L 414.416092 372.861538 
L 415.673793 341.688806 
L 416.931494 389.29324 
L 418.189195 166.636227 
L 419.446896 378.242298 
L 420.704597 364.628714 
L 421.962298 374.884144 
L 423.219999 142.353813 
L 424.4777 373.87982 
L 425.735401 345.949619 
L 426.993102 372.953749 
L 428.250803 216.218865 
L 429.508504 385.804788 
L 430.766205 346.513118 
L 432.023906 395.423722 
L 433.281607 223.264154 
L 434.539308 365.11677 
L 435.797009 353.200989 
L 437.05471 379.25187 
L 438.312411 225.27451 
L 439.570112 365.080905 
L 440.827813 338.305567 
L 442.085514 397.971232 
L 443.343215 283.580033 
L 444.600916 363.758735 
L 445.858617 339.753793 
L 447.116318 412.205992 
L 448.374019 301.970277 
L 449.63172 364.679333 
L 450.889421 343.818934 
L 452.147122 389.067908 
L 453.404823 299.610452 
L 454.662524 377.89592 
L 455.920225 348.570053 
L 457.177926 385.065404 
L 458.435627 266.499254 
L 459.693328 386.271451 
L 460.951029 365.99957 
L 462.20873 362.089732 
L 463.466431 229.561942 
L 464.724131 375.322239 
L 465.981832 347.988984 
L 467.239533 379.191861 
L 468.497234 332.471495 
L 469.754935 351.801225 
L 471.012636 356.049477 
L 472.270337 397.47623 
L 473.528038 299.268672 
L 474.785739 379.37891 
L 476.04344 342.25518 
L 477.301141 380.477573 
L 478.558842 333.593715 
L 479.816543 378.696696 
L 481.074244 348.206012 
L 482.331945 367.960024 
L 483.589646 238.655884 
L 484.847347 371.170773 
L 486.105048 349.527096 
L 487.362749 391.078119 
L 488.62045 262.042473 
L 489.878151 367.242315 
L 491.135852 335.375924 
L 492.393553 387.152057 
L 493.651254 291.623991 
L 494.908955 379.911829 
L 496.166656 342.208767 
L 497.424357 402.7458 
L 498.682058 285.904007 
L 499.939759 370.428348 
L 501.19746 370.433712 
L 502.455161 337.41143 
L 503.712862 232.863403 
L 504.970563 384.828612 
L 506.228264 373.002565 
L 507.485965 338.730335 
L 508.743666 199.425453 
L 510.001367 376.770319 
L 511.259068 344.750536 
L 512.516769 355.849267 
L 513.77447 232.337564 
L 515.032171 385.343135 
L 516.289872 365.93668 
L 517.547573 344.628216 
L 518.805273 193.713086 
L 520.062974 392.867994 
L 521.320675 344.484475 
L 522.578376 362.852262 
L 523.836077 194.682059 
L 525.093778 385.131761 
L 526.351479 329.77228 
L 527.60918 390.463617 
L 528.866881 239.514062 
L 530.124582 373.175793 
L 531.382283 326.226903 
L 532.639984 361.887183 
L 533.897685 181.217965 
L 535.155386 388.799154 
L 536.413087 371.882654 
L 537.670788 341.768311 
L 538.928489 210.095276 
L 540.18619 371.177173 
L 541.443891 330.46166 
L 542.701592 387.089218 
L 543.959293 260.163848 
L 545.216994 382.183577 
L 546.474695 362.428356 
L 547.732396 354.056358 
L 548.990097 183.764209 
L 550.247798 380.306813 
L 551.505499 350.620126 
L 552.7632 363.816333 
L 554.020901 196.616848 
L 555.278602 385.447769 
L 556.536303 340.643159 
L 557.794004 380.280497 
L 559.051705 179.929322 
L 560.309406 383.271728 
L 561.567107 351.247181 
L 562.824808 389.288881 
L 564.082509 217.558258 
L 565.34021 371.096452 
L 566.597911 345.75179 
L 567.855612 396.155157 
L 569.113313 248.3799 
L 570.371014 378.488913 
L 571.628715 378.677331 
L 572.886415 373.495572 
L 574.144116 171.806293 
L 575.401817 373.280441 
L 576.659518 373.657978 
L 577.917219 360.86563 
L 579.17492 136.102619 
L 580.432621 385.54404 
L 581.690322 368.623943 
L 582.948023 340.519659 
L 584.205724 173.424656 
L 585.463425 389.439638 
L 586.721126 373.389947 
L 587.978827 351.212446 
L 589.236528 199.995294 
L 590.494229 386.909829 
L 591.75193 347.009745 
L 593.009631 363.793876 
L 594.267332 217.402303 
L 595.525033 380.919722 
L 596.782734 341.321391 
L 598.040435 380.717441 
L 599.298136 171.440116 
L 600.555837 380.328278 
L 601.813538 361.466767 
L 603.071239 364.665021 
L 604.32894 190.558284 
L 605.586641 388.100036 
L 606.844342 355.516073 
L 608.102043 389.706894 
L 609.359744 224.029043 
L 610.617445 375.23931 
L 611.875146 352.328346 
L 613.132847 368.895536 
L 614.390548 177.489384 
L 615.648249 377.0811 
L 616.90595 361.198722 
L 618.163651 352.174859 
L 619.421352 144.113724 
L 620.679053 381.458259 
L 621.936754 346.471194 
L 623.194455 383.628233 
L 624.452156 211.785339 
L 625.709857 373.158759 
L 626.967557 343.592227 
L 628.225258 394.045532 
L 629.482959 181.514469 
L 630.74066 376.318831 
L 631.998361 346.977471 
L 633.256062 388.835974 
L 634.513763 256.573485 
L 635.771464 389.552177 
L 637.029165 358.656555 
L 638.286866 402.872518 
L 639.544567 268.251041 
L 640.802268 387.960109 
L 642.059969 356.574498 
L 643.31767 413.527771 
L 644.575371 266.748092 
L 645.833072 370.893671 
L 647.090773 357.659717 
L 648.348474 416.230563 
L 649.606175 281.397259 
L 650.863876 376.598597 
L 652.121577 361.209676 
L 653.379278 393.900075 
L 654.636979 268.041731 
L 655.89468 384.32911 
L 657.152381 344.140327 
L 658.410082 383.756069 
L 659.667783 255.554632 
L 660.925484 394.819341 
L 662.183185 349.906333 
L 663.440886 405.168725 
L 664.698587 266.791747 
L 665.956288 395.842154 
L 667.213989 350.099738 
L 668.47169 407.40383 
L 669.729391 274.142965 
L 670.987092 389.204381 
L 672.244793 364.185826 
L 673.502494 402.478439 
L 674.760195 301.326129 
L 676.017896 383.029289 
L 677.275597 369.572877 
L 678.533298 386.085828 
L 679.790999 264.381824 
L 681.048699 382.684077 
L 682.3064 352.816198 
L 683.564101 394.771581 
L 684.821802 222.004107 
L 686.079503 375.078591 
L 687.337204 371.361984 
L 688.594905 379.899594 
L 689.852606 189.947351 
L 691.110307 372.865918 
L 692.368008 385.076002 
L 693.625709 351.768626 
L 694.88341 170.33585 
L 696.141111 389.765144 
L 697.398812 371.813719 
L 698.656513 367.972194 
L 699.914214 214.769301 
L 701.171915 389.969387 
L 702.429616 354.604097 
L 703.687317 374.959508 
L 704.945018 230.911716 
L 706.202719 383.284737 
L 707.46042 342.420705 
L 708.718121 378.958718 
L 709.975822 210.719211 
L 711.233523 370.075636 
L 712.491224 355.252733 
L 713.748925 374.940192 
L 715.006626 156.345208 
L 716.264327 371.691935 
L 717.522028 380.12948 
L 718.779729 347.632507 
L 720.03743 138.590077 
L 721.295131 386.81069 
L 722.552832 377.074736 
L 723.810533 354.298167 
L 725.068234 200.295041 
L 726.325935 381.55364 
L 727.583636 340.540053 
L 728.841337 395.832953 
L 730.099038 214.757993 
L 731.356739 368.238986 
L 732.61444 364.417637 
L 733.872141 383.859219 
L 735.129841 205.077067 
L 736.387542 369.395536 
L 737.645243 372.613098 
L 738.902944 373.858239 
L 740.160645 204.927932 
L 741.418346 378.007576 
L 741.418346 378.007576 
" clip-path="url(#p499c5a0712)" style="fill: none; stroke-dasharray: 7.4,3.2; stroke-dashoffset: 0; stroke: #ffa500; stroke-width: 2"/>
   </g>
   <g id="patch_3">
    <path d="M 102.25471 450.72 
L 102.25471 7.2 
" style="fill: none; stroke: #000000; stroke-width: 0.8; stroke-linejoin: miter; stroke-linecap: square"/>
   </g>
   <g id="patch_4">
    <path d="M 771.85471 450.72 
L 771.85471 7.2 
" style="fill: none; stroke: #000000; stroke-width: 0.8; stroke-linejoin: miter; stroke-linecap: square"/>
   </g>
   <g id="patch_5">
    <path d="M 102.25471 450.72 
L 771.85471 450.72 
" style="fill: none; stroke: #000000; stroke-width: 0.8; stroke-linejoin: miter; stroke-linecap: square"/>
   </g>
   <g id="patch_6">
    <path d="M 102.25471 7.2 
L 771.85471 7.2 
" style="fill: none; stroke: #000000; stroke-width: 0.8; stroke-linejoin: miter; stroke-linecap: square"/>
   </g>
   <g id="legend_1">
    <g id="text_16">
     <!-- Forecast Horizon -->
     <g transform="translate(887.954554 31.9575) scale(0.16 -0.16)">
      <defs>
       <path id="DejaVuSans-48" d="M 628 4666 
L 1259 4666 
L 1259 2753 
L 3553 2753 
L 3553 4666 
L 4184 4666 
L 4184 0 
L 3553 0 
L 3553 2222 
L 1259 2222 
L 1259 0 
L 628 0 
L 628 4666 
z
" transform="scale(0.015625)"/>
       <path id="DejaVuSans-69" d="M 603 3500 
L 1178 3500 
L 1178 0 
L 603 0 
L 603 3500 
z
M 603 4863 
L 1178 4863 
L 1178 4134 
L 603 4134 
L 603 4863 
z
" transform="scale(0.015625)"/>
       <path id="DejaVuSans-7a" d="M 353 3500 
L 3084 3500 
L 3084 2975 
L 922 459 
L 3084 459 
L 3084 0 
L 275 0 
L 275 525 
L 2438 3041 
L 353 3041 
L 353 3500 
z
" transform="scale(0.015625)"/>
      </defs>
      <use xlink:href="#DejaVuSans-46"/>
      <use xlink:href="#DejaVuSans-6f" transform="translate(53.894531 0)"/>
      <use xlink:href="#DejaVuSans-72" transform="translate(115.076172 0)"/>
      <use xlink:href="#DejaVuSans-65" transform="translate(153.939453 0)"/>
      <use xlink:href="#DejaVuSans-63" transform="translate(215.462891 0)"/>
      <use xlink:href="#DejaVuSans-61" transform="translate(270.443359 0)"/>
      <use xlink:href="#DejaVuSans-73" transform="translate(331.722656 0)"/>
      <use xlink:href="#DejaVuSans-74" transform="translate(383.822266 0)"/>
      <use xlink:href="#DejaVuSans-20" transform="translate(423.03125 0)"/>
      <use xlink:href="#DejaVuSans-48" transform="translate(454.818359 0)"/>
      <use xlink:href="#DejaVuSans-6f" transform="translate(530.013672 0)"/>
      <use xlink:href="#DejaVuSans-72" transform="translate(591.195312 0)"/>
      <use xlink:href="#DejaVuSans-69" transform="translate(632.308594 0)"/>
      <use xlink:href="#DejaVuSans-7a" transform="translate(660.091797 0)"/>
      <use xlink:href="#DejaVuSans-6f" transform="translate(712.582031 0)"/>
      <use xlink:href="#DejaVuSans-6e" transform="translate(773.763672 0)"/>
     </g>
    </g>
    <g id="line2d_18">
     <path d="M 817.93471 48.022812 
L 831.93471 48.022812 
L 845.93471 48.022812 
" style="fill: none; stroke: #0000ff; stroke-width: 2; stroke-linecap: square"/>
    </g>
    <g id="text_17">
     <!-- Europe RMSE (6h Forecast) -->
     <g transform="translate(857.13471 52.922812) scale(0.14 -0.14)">
      <defs>
       <path id="DejaVuSans-70" d="M 1159 525 
L 1159 -1331 
L 581 -1331 
L 581 3500 
L 1159 3500 
L 1159 2969 
Q 1341 3281 1617 3432 
Q 1894 3584 2278 3584 
Q 2916 3584 3314 3078 
Q 3713 2572 3713 1747 
Q 3713 922 3314 415 
Q 2916 -91 2278 -91 
Q 1894 -91 1617 61 
Q 1341 213 1159 525 
z
M 3116 1747 
Q 3116 2381 2855 2742 
Q 2594 3103 2138 3103 
Q 1681 3103 1420 2742 
Q 1159 2381 1159 1747 
Q 1159 1113 1420 752 
Q 1681 391 2138 391 
Q 2594 391 2855 752 
Q 3116 1113 3116 1747 
z
" transform="scale(0.015625)"/>
       <path id="DejaVuSans-68" d="M 3513 2113 
L 3513 0 
L 2938 0 
L 2938 2094 
Q 2938 2591 2744 2837 
Q 2550 3084 2163 3084 
Q 1697 3084 1428 2787 
Q 1159 2491 1159 1978 
L 1159 0 
L 581 0 
L 581 4863 
L 1159 4863 
L 1159 2956 
Q 1366 3272 1645 3428 
Q 1925 3584 2291 3584 
Q 2894 3584 3203 3211 
Q 3513 2838 3513 2113 
z
" transform="scale(0.015625)"/>
      </defs>
      <use xlink:href="#DejaVuSans-45"/>
      <use xlink:href="#DejaVuSans-75" transform="translate(63.183594 0)"/>
      <use xlink:href="#DejaVuSans-72" transform="translate(126.5625 0)"/>
      <use xlink:href="#DejaVuSans-6f" transform="translate(165.425781 0)"/>
      <use xlink:href="#DejaVuSans-70" transform="translate(226.607422 0)"/>
      <use xlink:href="#DejaVuSans-65" transform="translate(290.083984 0)"/>
      <use xlink:href="#DejaVuSans-20" transform="translate(351.607422 0)"/>
      <use xlink:href="#DejaVuSans-52" transform="translate(383.394531 0)"/>
      <use xlink:href="#DejaVuSans-4d" transform="translate(452.876953 0)"/>
      <use xlink:href="#DejaVuSans-53" transform="translate(539.15625 0)"/>
      <use xlink:href="#DejaVuSans-45" transform="translate(602.632812 0)"/>
      <use xlink:href="#DejaVuSans-20" transform="translate(665.816406 0)"/>
      <use xlink:href="#DejaVuSans-28" transform="translate(697.603516 0)"/>
      <use xlink:href="#DejaVuSans-36" transform="translate(736.617188 0)"/>
      <use xlink:href="#DejaVuSans-68" transform="translate(800.240234 0)"/>
      <use xlink:href="#DejaVuSans-20" transform="translate(863.619141 0)"/>
      <use xlink:href="#DejaVuSans-46" transform="translate(895.40625 0)"/>
      <use xlink:href="#DejaVuSans-6f" transform="translate(949.300781 0)"/>
      <use xlink:href="#DejaVuSans-72" transform="translate(1010.482422 0)"/>
      <use xlink:href="#DejaVuSans-65" transform="translate(1049.345703 0)"/>
      <use xlink:href="#DejaVuSans-63" transform="translate(1110.869141 0)"/>
      <use xlink:href="#DejaVuSans-61" transform="translate(1165.849609 0)"/>
      <use xlink:href="#DejaVuSans-73" transform="translate(1227.128906 0)"/>
      <use xlink:href="#DejaVuSans-74" transform="translate(1279.228516 0)"/>
      <use xlink:href="#DejaVuSans-29" transform="translate(1318.4375 0)"/>
     </g>
    </g>
    <g id="line2d_19">
     <path d="M 817.93471 68.572187 
L 831.93471 68.572187 
L 845.93471 68.572187 
" style="fill: none; stroke: #ffa500; stroke-width: 2; stroke-linecap: square"/>
    </g>
    <g id="text_18">
     <!-- South Africa RMSE (6h Forecast) -->
     <g transform="translate(857.13471 73.472187) scale(0.14 -0.14)">
      <defs>
       <path id="DejaVuSans-41" d="M 2188 4044 
L 1331 1722 
L 3047 1722 
L 2188 4044 
z
M 1831 4666 
L 2547 4666 
L 4325 0 
L 3669 0 
L 3244 1197 
L 1141 1197 
L 716 0 
L 50 0 
L 1831 4666 
z
" transform="scale(0.015625)"/>
       <path id="DejaVuSans-66" d="M 2375 4863 
L 2375 4384 
L 1825 4384 
Q 1516 4384 1395 4259 
Q 1275 4134 1275 3809 
L 1275 3500 
L 2222 3500 
L 2222 3053 
L 1275 3053 
L 1275 0 
L 697 0 
L 697 3053 
L 147 3053 
L 147 3500 
L 697 3500 
L 697 3744 
Q 697 4328 969 4595 
Q 1241 4863 1831 4863 
L 2375 4863 
z
" transform="scale(0.015625)"/>
      </defs>
      <use xlink:href="#DejaVuSans-53"/>
      <use xlink:href="#DejaVuSans-6f" transform="translate(63.476562 0)"/>
      <use xlink:href="#DejaVuSans-75" transform="translate(124.658203 0)"/>
      <use xlink:href="#DejaVuSans-74" transform="translate(188.037109 0)"/>
      <use xlink:href="#DejaVuSans-68" transform="translate(227.246094 0)"/>
      <use xlink:href="#DejaVuSans-20" transform="translate(290.625 0)"/>
      <use xlink:href="#DejaVuSans-41" transform="translate(322.412109 0)"/>
      <use xlink:href="#DejaVuSans-66" transform="translate(387.195312 0)"/>
      <use xlink:href="#DejaVuSans-72" transform="translate(422.400391 0)"/>
      <use xlink:href="#DejaVuSans-69" transform="translate(463.513672 0)"/>
      <use xlink:href="#DejaVuSans-63" transform="translate(491.296875 0)"/>
      <use xlink:href="#DejaVuSans-61" transform="translate(546.277344 0)"/>
      <use xlink:href="#DejaVuSans-20" transform="translate(607.556641 0)"/>
      <use xlink:href="#DejaVuSans-52" transform="translate(639.34375 0)"/>
      <use xlink:href="#DejaVuSans-4d" transform="translate(708.826172 0)"/>
      <use xlink:href="#DejaVuSans-53" transform="translate(795.105469 0)"/>
      <use xlink:href="#DejaVuSans-45" transform="translate(858.582031 0)"/>
      <use xlink:href="#DejaVuSans-20" transform="translate(921.765625 0)"/>
      <use xlink:href="#DejaVuSans-28" transform="translate(953.552734 0)"/>
      <use xlink:href="#DejaVuSans-36" transform="translate(992.566406 0)"/>
      <use xlink:href="#DejaVuSans-68" transform="translate(1056.189453 0)"/>
      <use xlink:href="#DejaVuSans-20" transform="translate(1119.568359 0)"/>
      <use xlink:href="#DejaVuSans-46" transform="translate(1151.355469 0)"/>
      <use xlink:href="#DejaVuSans-6f" transform="translate(1205.25 0)"/>
      <use xlink:href="#DejaVuSans-72" transform="translate(1266.431641 0)"/>
      <use xlink:href="#DejaVuSans-65" transform="translate(1305.294922 0)"/>
      <use xlink:href="#DejaVuSans-63" transform="translate(1366.818359 0)"/>
      <use xlink:href="#DejaVuSans-61" transform="translate(1421.798828 0)"/>
      <use xlink:href="#DejaVuSans-73" transform="translate(1483.078125 0)"/>
      <use xlink:href="#DejaVuSans-74" transform="translate(1535.177734 0)"/>
      <use xlink:href="#DejaVuSans-29" transform="translate(1574.386719 0)"/>
     </g>
    </g>
    <g id="line2d_20">
     <path d="M 817.93471 89.121562 
L 831.93471 89.121562 
L 845.93471 89.121562 
" style="fill: none; stroke-dasharray: 7.4,3.2; stroke-dashoffset: 0; stroke: #0000ff; stroke-width: 2"/>
    </g>
    <g id="text_19">
     <!-- Europe RMSE (12h Forecast) -->
     <g transform="translate(857.13471 94.021562) scale(0.14 -0.14)">
      <use xlink:href="#DejaVuSans-45"/>
      <use xlink:href="#DejaVuSans-75" transform="translate(63.183594 0)"/>
      <use xlink:href="#DejaVuSans-72" transform="translate(126.5625 0)"/>
      <use xlink:href="#DejaVuSans-6f" transform="translate(165.425781 0)"/>
      <use xlink:href="#DejaVuSans-70" transform="translate(226.607422 0)"/>
      <use xlink:href="#DejaVuSans-65" transform="translate(290.083984 0)"/>
      <use xlink:href="#DejaVuSans-20" transform="translate(351.607422 0)"/>
      <use xlink:href="#DejaVuSans-52" transform="translate(383.394531 0)"/>
      <use xlink:href="#DejaVuSans-4d" transform="translate(452.876953 0)"/>
      <use xlink:href="#DejaVuSans-53" transform="translate(539.15625 0)"/>
      <use xlink:href="#DejaVuSans-45" transform="translate(602.632812 0)"/>
      <use xlink:href="#DejaVuSans-20" transform="translate(665.816406 0)"/>
      <use xlink:href="#DejaVuSans-28" transform="translate(697.603516 0)"/>
      <use xlink:href="#DejaVuSans-31" transform="translate(736.617188 0)"/>
      <use xlink:href="#DejaVuSans-32" transform="translate(800.240234 0)"/>
      <use xlink:href="#DejaVuSans-68" transform="translate(863.863281 0)"/>
      <use xlink:href="#DejaVuSans-20" transform="translate(927.242188 0)"/>
      <use xlink:href="#DejaVuSans-46" transform="translate(959.029297 0)"/>
      <use xlink:href="#DejaVuSans-6f" transform="translate(1012.923828 0)"/>
      <use xlink:href="#DejaVuSans-72" transform="translate(1074.105469 0)"/>
      <use xlink:href="#DejaVuSans-65" transform="translate(1112.96875 0)"/>
      <use xlink:href="#DejaVuSans-63" transform="translate(1174.492188 0)"/>
      <use xlink:href="#DejaVuSans-61" transform="translate(1229.472656 0)"/>
      <use xlink:href="#DejaVuSans-73" transform="translate(1290.751953 0)"/>
      <use xlink:href="#DejaVuSans-74" transform="translate(1342.851562 0)"/>
      <use xlink:href="#DejaVuSans-29" transform="translate(1382.060547 0)"/>
     </g>
    </g>
    <g id="line2d_21">
     <path d="M 817.93471 109.670937 
L 831.93471 109.670937 
L 845.93471 109.670937 
" style="fill: none; stroke-dasharray: 7.4,3.2; stroke-dashoffset: 0; stroke: #ffa500; stroke-width: 2"/>
    </g>
    <g id="text_20">
     <!-- South Africa RMSE (12h Forecast) -->
     <g transform="translate(857.13471 114.570937) scale(0.14 -0.14)">
      <use xlink:href="#DejaVuSans-53"/>
      <use xlink:href="#DejaVuSans-6f" transform="translate(63.476562 0)"/>
      <use xlink:href="#DejaVuSans-75" transform="translate(124.658203 0)"/>
      <use xlink:href="#DejaVuSans-74" transform="translate(188.037109 0)"/>
      <use xlink:href="#DejaVuSans-68" transform="translate(227.246094 0)"/>
      <use xlink:href="#DejaVuSans-20" transform="translate(290.625 0)"/>
      <use xlink:href="#DejaVuSans-41" transform="translate(322.412109 0)"/>
      <use xlink:href="#DejaVuSans-66" transform="translate(387.195312 0)"/>
      <use xlink:href="#DejaVuSans-72" transform="translate(422.400391 0)"/>
      <use xlink:href="#DejaVuSans-69" transform="translate(463.513672 0)"/>
      <use xlink:href="#DejaVuSans-63" transform="translate(491.296875 0)"/>
      <use xlink:href="#DejaVuSans-61" transform="translate(546.277344 0)"/>
      <use xlink:href="#DejaVuSans-20" transform="translate(607.556641 0)"/>
      <use xlink:href="#DejaVuSans-52" transform="translate(639.34375 0)"/>
      <use xlink:href="#DejaVuSans-4d" transform="translate(708.826172 0)"/>
      <use xlink:href="#DejaVuSans-53" transform="translate(795.105469 0)"/>
      <use xlink:href="#DejaVuSans-45" transform="translate(858.582031 0)"/>
      <use xlink:href="#DejaVuSans-20" transform="translate(921.765625 0)"/>
      <use xlink:href="#DejaVuSans-28" transform="translate(953.552734 0)"/>
      <use xlink:href="#DejaVuSans-31" transform="translate(992.566406 0)"/>
      <use xlink:href="#DejaVuSans-32" transform="translate(1056.189453 0)"/>
      <use xlink:href="#DejaVuSans-68" transform="translate(1119.8125 0)"/>
      <use xlink:href="#DejaVuSans-20" transform="translate(1183.191406 0)"/>
      <use xlink:href="#DejaVuSans-46" transform="translate(1214.978516 0)"/>
      <use xlink:href="#DejaVuSans-6f" transform="translate(1268.873047 0)"/>
      <use xlink:href="#DejaVuSans-72" transform="translate(1330.054688 0)"/>
      <use xlink:href="#DejaVuSans-65" transform="translate(1368.917969 0)"/>
      <use xlink:href="#DejaVuSans-63" transform="translate(1430.441406 0)"/>
      <use xlink:href="#DejaVuSans-61" transform="translate(1485.421875 0)"/>
      <use xlink:href="#DejaVuSans-73" transform="translate(1546.701172 0)"/>
      <use xlink:href="#DejaVuSans-74" transform="translate(1598.800781 0)"/>
      <use xlink:href="#DejaVuSans-29" transform="translate(1638.009766 0)"/>
     </g>
    </g>
   </g>
  </g>
 </g>
 <defs>
  <clipPath id="p499c5a0712">
   <rect x="102.25471" y="7.2" width="669.6" height="443.52"/>
  </clipPath>
 </defs>
</svg>
