<?xml version="1.0" encoding="utf-8" standalone="no"?>
<!DOCTYPE svg PUBLIC "-//W3C//DTD SVG 1.1//EN"
  "http://www.w3.org/Graphics/SVG/1.1/DTD/svg11.dtd">
<svg xmlns:xlink="http://www.w3.org/1999/xlink" width="864pt" height="576pt" viewBox="0 0 864 576" xmlns="http://www.w3.org/2000/svg" version="1.1">
 <metadata>
  <rdf:RDF xmlns:dc="http://purl.org/dc/elements/1.1/" xmlns:cc="http://creativecommons.org/ns#" xmlns:rdf="http://www.w3.org/1999/02/22-rdf-syntax-ns#">
   <cc:Work>
    <dc:type rdf:resource="http://purl.org/dc/dcmitype/StillImage"/>
    <dc:date>2025-02-17T08:35:18.658284</dc:date>
    <dc:format>image/svg+xml</dc:format>
    <dc:creator>
     <cc:Agent>
      <dc:title>Matplotlib v3.10.0, https://matplotlib.org/</dc:title>
     </cc:Agent>
    </dc:creator>
   </cc:Work>
  </rdf:RDF>
 </metadata>
 <defs>
  <style type="text/css">*{stroke-linejoin: round; stroke-linecap: butt}</style>
 </defs>
 <g id="figure_1">
  <g id="patch_1">
   <path d="M 0 576 
L 864 576 
L 864 0 
L 0 0 
z
" style="fill: #ffffff"/>
  </g>
  <g id="axes_1">
   <g id="patch_2">
    <path d="M 108 512.64 
L 777.6 512.64 
L 777.6 69.12 
L 108 69.12 
z
" style="fill: #ffffff"/>
   </g>
   <g id="matplotlib.axis_1">
    <g id="xtick_1">
     <g id="line2d_1">
      <defs>
       <path id="md406ba4a85" d="M 0 0 
L 0 3.5 
" style="stroke: #000000; stroke-width: 0.8"/>
      </defs>
      <g>
       <use xlink:href="#md406ba4a85" x="138.436364" y="512.64" style="stroke: #000000; stroke-width: 0.8"/>
      </g>
     </g>
     <g id="text_1">
      <!-- 2022-01-01 (06:00) -->
      <g transform="translate(52.599101 575.178252) rotate(-30) scale(0.1 -0.1)">
       <defs>
        <path id="DejaVuSans-32" d="M 1228 531 
L 3431 531 
L 3431 0 
L 469 0 
L 469 531 
Q 828 903 1448 1529 
Q 2069 2156 2228 2338 
Q 2531 2678 2651 2914 
Q 2772 3150 2772 3378 
Q 2772 3750 2511 3984 
Q 2250 4219 1831 4219 
Q 1534 4219 1204 4116 
Q 875 4013 500 3803 
L 500 4441 
Q 881 4594 1212 4672 
Q 1544 4750 1819 4750 
Q 2544 4750 2975 4387 
Q 3406 4025 3406 3419 
Q 3406 3131 3298 2873 
Q 3191 2616 2906 2266 
Q 2828 2175 2409 1742 
Q 1991 1309 1228 531 
z
" transform="scale(0.015625)"/>
        <path id="DejaVuSans-30" d="M 2034 4250 
Q 1547 4250 1301 3770 
Q 1056 3291 1056 2328 
Q 1056 1369 1301 889 
Q 1547 409 2034 409 
Q 2525 409 2770 889 
Q 3016 1369 3016 2328 
Q 3016 3291 2770 3770 
Q 2525 4250 2034 4250 
z
M 2034 4750 
Q 2819 4750 3233 4129 
Q 3647 3509 3647 2328 
Q 3647 1150 3233 529 
Q 2819 -91 2034 -91 
Q 1250 -91 836 529 
Q 422 1150 422 2328 
Q 422 3509 836 4129 
Q 1250 4750 2034 4750 
z
" transform="scale(0.015625)"/>
        <path id="DejaVuSans-2d" d="M 313 2009 
L 1997 2009 
L 1997 1497 
L 313 1497 
L 313 2009 
z
" transform="scale(0.015625)"/>
        <path id="DejaVuSans-31" d="M 794 531 
L 1825 531 
L 1825 4091 
L 703 3866 
L 703 4441 
L 1819 4666 
L 2450 4666 
L 2450 531 
L 3481 531 
L 3481 0 
L 794 0 
L 794 531 
z
" transform="scale(0.015625)"/>
        <path id="DejaVuSans-20" transform="scale(0.015625)"/>
        <path id="DejaVuSans-28" d="M 1984 4856 
Q 1566 4138 1362 3434 
Q 1159 2731 1159 2009 
Q 1159 1288 1364 580 
Q 1569 -128 1984 -844 
L 1484 -844 
Q 1016 -109 783 600 
Q 550 1309 550 2009 
Q 550 2706 781 3412 
Q 1013 4119 1484 4856 
L 1984 4856 
z
" transform="scale(0.015625)"/>
        <path id="DejaVuSans-36" d="M 2113 2584 
Q 1688 2584 1439 2293 
Q 1191 2003 1191 1497 
Q 1191 994 1439 701 
Q 1688 409 2113 409 
Q 2538 409 2786 701 
Q 3034 994 3034 1497 
Q 3034 2003 2786 2293 
Q 2538 2584 2113 2584 
z
M 3366 4563 
L 3366 3988 
Q 3128 4100 2886 4159 
Q 2644 4219 2406 4219 
Q 1781 4219 1451 3797 
Q 1122 3375 1075 2522 
Q 1259 2794 1537 2939 
Q 1816 3084 2150 3084 
Q 2853 3084 3261 2657 
Q 3669 2231 3669 1497 
Q 3669 778 3244 343 
Q 2819 -91 2113 -91 
Q 1303 -91 875 529 
Q 447 1150 447 2328 
Q 447 3434 972 4092 
Q 1497 4750 2381 4750 
Q 2619 4750 2861 4703 
Q 3103 4656 3366 4563 
z
" transform="scale(0.015625)"/>
        <path id="DejaVuSans-3a" d="M 750 794 
L 1409 794 
L 1409 0 
L 750 0 
L 750 794 
z
M 750 3309 
L 1409 3309 
L 1409 2516 
L 750 2516 
L 750 3309 
z
" transform="scale(0.015625)"/>
        <path id="DejaVuSans-29" d="M 513 4856 
L 1013 4856 
Q 1481 4119 1714 3412 
Q 1947 2706 1947 2009 
Q 1947 1309 1714 600 
Q 1481 -109 1013 -844 
L 513 -844 
Q 928 -128 1133 580 
Q 1338 1288 1338 2009 
Q 1338 2731 1133 3434 
Q 928 4138 513 4856 
z
" transform="scale(0.015625)"/>
       </defs>
       <use xlink:href="#DejaVuSans-32"/>
       <use xlink:href="#DejaVuSans-30" transform="translate(63.623047 0)"/>
       <use xlink:href="#DejaVuSans-32" transform="translate(127.246094 0)"/>
       <use xlink:href="#DejaVuSans-32" transform="translate(190.869141 0)"/>
       <use xlink:href="#DejaVuSans-2d" transform="translate(254.492188 0)"/>
       <use xlink:href="#DejaVuSans-30" transform="translate(290.576172 0)"/>
       <use xlink:href="#DejaVuSans-31" transform="translate(354.199219 0)"/>
       <use xlink:href="#DejaVuSans-2d" transform="translate(417.822266 0)"/>
       <use xlink:href="#DejaVuSans-30" transform="translate(453.90625 0)"/>
       <use xlink:href="#DejaVuSans-31" transform="translate(517.529297 0)"/>
       <use xlink:href="#DejaVuSans-20" transform="translate(581.152344 0)"/>
       <use xlink:href="#DejaVuSans-28" transform="translate(612.939453 0)"/>
       <use xlink:href="#DejaVuSans-30" transform="translate(651.953125 0)"/>
       <use xlink:href="#DejaVuSans-36" transform="translate(715.576172 0)"/>
       <use xlink:href="#DejaVuSans-3a" transform="translate(779.199219 0)"/>
       <use xlink:href="#DejaVuSans-30" transform="translate(812.890625 0)"/>
       <use xlink:href="#DejaVuSans-30" transform="translate(876.513672 0)"/>
       <use xlink:href="#DejaVuSans-29" transform="translate(940.136719 0)"/>
      </g>
     </g>
    </g>
    <g id="xtick_2">
     <g id="line2d_2">
      <g>
       <use xlink:href="#md406ba4a85" x="258.226068" y="512.64" style="stroke: #000000; stroke-width: 0.8"/>
      </g>
     </g>
     <g id="text_2">
      <!-- 2022-03-15 (18:00) -->
      <g transform="translate(172.388805 575.178252) rotate(-30) scale(0.1 -0.1)">
       <defs>
        <path id="DejaVuSans-33" d="M 2597 2516 
Q 3050 2419 3304 2112 
Q 3559 1806 3559 1356 
Q 3559 666 3084 287 
Q 2609 -91 1734 -91 
Q 1441 -91 1130 -33 
Q 819 25 488 141 
L 488 750 
Q 750 597 1062 519 
Q 1375 441 1716 441 
Q 2309 441 2620 675 
Q 2931 909 2931 1356 
Q 2931 1769 2642 2001 
Q 2353 2234 1838 2234 
L 1294 2234 
L 1294 2753 
L 1863 2753 
Q 2328 2753 2575 2939 
Q 2822 3125 2822 3475 
Q 2822 3834 2567 4026 
Q 2313 4219 1838 4219 
Q 1578 4219 1281 4162 
Q 984 4106 628 3988 
L 628 4550 
Q 988 4650 1302 4700 
Q 1616 4750 1894 4750 
Q 2613 4750 3031 4423 
Q 3450 4097 3450 3541 
Q 3450 3153 3228 2886 
Q 3006 2619 2597 2516 
z
" transform="scale(0.015625)"/>
        <path id="DejaVuSans-35" d="M 691 4666 
L 3169 4666 
L 3169 4134 
L 1269 4134 
L 1269 2991 
Q 1406 3038 1543 3061 
Q 1681 3084 1819 3084 
Q 2600 3084 3056 2656 
Q 3513 2228 3513 1497 
Q 3513 744 3044 326 
Q 2575 -91 1722 -91 
Q 1428 -91 1123 -41 
Q 819 9 494 109 
L 494 744 
Q 775 591 1075 516 
Q 1375 441 1709 441 
Q 2250 441 2565 725 
Q 2881 1009 2881 1497 
Q 2881 1984 2565 2268 
Q 2250 2553 1709 2553 
Q 1456 2553 1204 2497 
Q 953 2441 691 2322 
L 691 4666 
z
" transform="scale(0.015625)"/>
        <path id="DejaVuSans-38" d="M 2034 2216 
Q 1584 2216 1326 1975 
Q 1069 1734 1069 1313 
Q 1069 891 1326 650 
Q 1584 409 2034 409 
Q 2484 409 2743 651 
Q 3003 894 3003 1313 
Q 3003 1734 2745 1975 
Q 2488 2216 2034 2216 
z
M 1403 2484 
Q 997 2584 770 2862 
Q 544 3141 544 3541 
Q 544 4100 942 4425 
Q 1341 4750 2034 4750 
Q 2731 4750 3128 4425 
Q 3525 4100 3525 3541 
Q 3525 3141 3298 2862 
Q 3072 2584 2669 2484 
Q 3125 2378 3379 2068 
Q 3634 1759 3634 1313 
Q 3634 634 3220 271 
Q 2806 -91 2034 -91 
Q 1263 -91 848 271 
Q 434 634 434 1313 
Q 434 1759 690 2068 
Q 947 2378 1403 2484 
z
M 1172 3481 
Q 1172 3119 1398 2916 
Q 1625 2713 2034 2713 
Q 2441 2713 2670 2916 
Q 2900 3119 2900 3481 
Q 2900 3844 2670 4047 
Q 2441 4250 2034 4250 
Q 1625 4250 1398 4047 
Q 1172 3844 1172 3481 
z
" transform="scale(0.015625)"/>
       </defs>
       <use xlink:href="#DejaVuSans-32"/>
       <use xlink:href="#DejaVuSans-30" transform="translate(63.623047 0)"/>
       <use xlink:href="#DejaVuSans-32" transform="translate(127.246094 0)"/>
       <use xlink:href="#DejaVuSans-32" transform="translate(190.869141 0)"/>
       <use xlink:href="#DejaVuSans-2d" transform="translate(254.492188 0)"/>
       <use xlink:href="#DejaVuSans-30" transform="translate(290.576172 0)"/>
       <use xlink:href="#DejaVuSans-33" transform="translate(354.199219 0)"/>
       <use xlink:href="#DejaVuSans-2d" transform="translate(417.822266 0)"/>
       <use xlink:href="#DejaVuSans-31" transform="translate(453.90625 0)"/>
       <use xlink:href="#DejaVuSans-35" transform="translate(517.529297 0)"/>
       <use xlink:href="#DejaVuSans-20" transform="translate(581.152344 0)"/>
       <use xlink:href="#DejaVuSans-28" transform="translate(612.939453 0)"/>
       <use xlink:href="#DejaVuSans-31" transform="translate(651.953125 0)"/>
       <use xlink:href="#DejaVuSans-38" transform="translate(715.576172 0)"/>
       <use xlink:href="#DejaVuSans-3a" transform="translate(779.199219 0)"/>
       <use xlink:href="#DejaVuSans-30" transform="translate(812.890625 0)"/>
       <use xlink:href="#DejaVuSans-30" transform="translate(876.513672 0)"/>
       <use xlink:href="#DejaVuSans-29" transform="translate(940.136719 0)"/>
      </g>
     </g>
    </g>
    <g id="xtick_3">
     <g id="line2d_3">
      <g>
       <use xlink:href="#md406ba4a85" x="380.46046" y="512.64" style="stroke: #000000; stroke-width: 0.8"/>
      </g>
     </g>
     <g id="text_3">
      <!-- 2022-05-29 (18:00) -->
      <g transform="translate(294.623198 575.178252) rotate(-30) scale(0.1 -0.1)">
       <defs>
        <path id="DejaVuSans-39" d="M 703 97 
L 703 672 
Q 941 559 1184 500 
Q 1428 441 1663 441 
Q 2288 441 2617 861 
Q 2947 1281 2994 2138 
Q 2813 1869 2534 1725 
Q 2256 1581 1919 1581 
Q 1219 1581 811 2004 
Q 403 2428 403 3163 
Q 403 3881 828 4315 
Q 1253 4750 1959 4750 
Q 2769 4750 3195 4129 
Q 3622 3509 3622 2328 
Q 3622 1225 3098 567 
Q 2575 -91 1691 -91 
Q 1453 -91 1209 -44 
Q 966 3 703 97 
z
M 1959 2075 
Q 2384 2075 2632 2365 
Q 2881 2656 2881 3163 
Q 2881 3666 2632 3958 
Q 2384 4250 1959 4250 
Q 1534 4250 1286 3958 
Q 1038 3666 1038 3163 
Q 1038 2656 1286 2365 
Q 1534 2075 1959 2075 
z
" transform="scale(0.015625)"/>
       </defs>
       <use xlink:href="#DejaVuSans-32"/>
       <use xlink:href="#DejaVuSans-30" transform="translate(63.623047 0)"/>
       <use xlink:href="#DejaVuSans-32" transform="translate(127.246094 0)"/>
       <use xlink:href="#DejaVuSans-32" transform="translate(190.869141 0)"/>
       <use xlink:href="#DejaVuSans-2d" transform="translate(254.492188 0)"/>
       <use xlink:href="#DejaVuSans-30" transform="translate(290.576172 0)"/>
       <use xlink:href="#DejaVuSans-35" transform="translate(354.199219 0)"/>
       <use xlink:href="#DejaVuSans-2d" transform="translate(417.822266 0)"/>
       <use xlink:href="#DejaVuSans-32" transform="translate(453.90625 0)"/>
       <use xlink:href="#DejaVuSans-39" transform="translate(517.529297 0)"/>
       <use xlink:href="#DejaVuSans-20" transform="translate(581.152344 0)"/>
       <use xlink:href="#DejaVuSans-28" transform="translate(612.939453 0)"/>
       <use xlink:href="#DejaVuSans-31" transform="translate(651.953125 0)"/>
       <use xlink:href="#DejaVuSans-38" transform="translate(715.576172 0)"/>
       <use xlink:href="#DejaVuSans-3a" transform="translate(779.199219 0)"/>
       <use xlink:href="#DejaVuSans-30" transform="translate(812.890625 0)"/>
       <use xlink:href="#DejaVuSans-30" transform="translate(876.513672 0)"/>
       <use xlink:href="#DejaVuSans-29" transform="translate(940.136719 0)"/>
      </g>
     </g>
    </g>
    <g id="xtick_4">
     <g id="line2d_4">
      <g>
       <use xlink:href="#md406ba4a85" x="502.694852" y="512.64" style="stroke: #000000; stroke-width: 0.8"/>
      </g>
     </g>
     <g id="text_4">
      <!-- 2022-08-12 (18:00) -->
      <g transform="translate(416.85759 575.178252) rotate(-30) scale(0.1 -0.1)">
       <use xlink:href="#DejaVuSans-32"/>
       <use xlink:href="#DejaVuSans-30" transform="translate(63.623047 0)"/>
       <use xlink:href="#DejaVuSans-32" transform="translate(127.246094 0)"/>
       <use xlink:href="#DejaVuSans-32" transform="translate(190.869141 0)"/>
       <use xlink:href="#DejaVuSans-2d" transform="translate(254.492188 0)"/>
       <use xlink:href="#DejaVuSans-30" transform="translate(290.576172 0)"/>
       <use xlink:href="#DejaVuSans-38" transform="translate(354.199219 0)"/>
       <use xlink:href="#DejaVuSans-2d" transform="translate(417.822266 0)"/>
       <use xlink:href="#DejaVuSans-31" transform="translate(453.90625 0)"/>
       <use xlink:href="#DejaVuSans-32" transform="translate(517.529297 0)"/>
       <use xlink:href="#DejaVuSans-20" transform="translate(581.152344 0)"/>
       <use xlink:href="#DejaVuSans-28" transform="translate(612.939453 0)"/>
       <use xlink:href="#DejaVuSans-31" transform="translate(651.953125 0)"/>
       <use xlink:href="#DejaVuSans-38" transform="translate(715.576172 0)"/>
       <use xlink:href="#DejaVuSans-3a" transform="translate(779.199219 0)"/>
       <use xlink:href="#DejaVuSans-30" transform="translate(812.890625 0)"/>
       <use xlink:href="#DejaVuSans-30" transform="translate(876.513672 0)"/>
       <use xlink:href="#DejaVuSans-29" transform="translate(940.136719 0)"/>
      </g>
     </g>
    </g>
    <g id="xtick_5">
     <g id="line2d_5">
      <g>
       <use xlink:href="#md406ba4a85" x="624.929244" y="512.64" style="stroke: #000000; stroke-width: 0.8"/>
      </g>
     </g>
     <g id="text_5">
      <!-- 2022-10-26 (18:00) -->
      <g transform="translate(539.091982 575.178252) rotate(-30) scale(0.1 -0.1)">
       <use xlink:href="#DejaVuSans-32"/>
       <use xlink:href="#DejaVuSans-30" transform="translate(63.623047 0)"/>
       <use xlink:href="#DejaVuSans-32" transform="translate(127.246094 0)"/>
       <use xlink:href="#DejaVuSans-32" transform="translate(190.869141 0)"/>
       <use xlink:href="#DejaVuSans-2d" transform="translate(254.492188 0)"/>
       <use xlink:href="#DejaVuSans-31" transform="translate(290.576172 0)"/>
       <use xlink:href="#DejaVuSans-30" transform="translate(354.199219 0)"/>
       <use xlink:href="#DejaVuSans-2d" transform="translate(417.822266 0)"/>
       <use xlink:href="#DejaVuSans-32" transform="translate(453.90625 0)"/>
       <use xlink:href="#DejaVuSans-36" transform="translate(517.529297 0)"/>
       <use xlink:href="#DejaVuSans-20" transform="translate(581.152344 0)"/>
       <use xlink:href="#DejaVuSans-28" transform="translate(612.939453 0)"/>
       <use xlink:href="#DejaVuSans-31" transform="translate(651.953125 0)"/>
       <use xlink:href="#DejaVuSans-38" transform="translate(715.576172 0)"/>
       <use xlink:href="#DejaVuSans-3a" transform="translate(779.199219 0)"/>
       <use xlink:href="#DejaVuSans-30" transform="translate(812.890625 0)"/>
       <use xlink:href="#DejaVuSans-30" transform="translate(876.513672 0)"/>
       <use xlink:href="#DejaVuSans-29" transform="translate(940.136719 0)"/>
      </g>
     </g>
    </g>
    <g id="xtick_6">
     <g id="line2d_6">
      <g>
       <use xlink:href="#md406ba4a85" x="747.163636" y="512.64" style="stroke: #000000; stroke-width: 0.8"/>
      </g>
     </g>
     <g id="text_6">
      <!-- 2023-01-09 (18:00) -->
      <g transform="translate(661.326374 575.178252) rotate(-30) scale(0.1 -0.1)">
       <use xlink:href="#DejaVuSans-32"/>
       <use xlink:href="#DejaVuSans-30" transform="translate(63.623047 0)"/>
       <use xlink:href="#DejaVuSans-32" transform="translate(127.246094 0)"/>
       <use xlink:href="#DejaVuSans-33" transform="translate(190.869141 0)"/>
       <use xlink:href="#DejaVuSans-2d" transform="translate(254.492188 0)"/>
       <use xlink:href="#DejaVuSans-30" transform="translate(290.576172 0)"/>
       <use xlink:href="#DejaVuSans-31" transform="translate(354.199219 0)"/>
       <use xlink:href="#DejaVuSans-2d" transform="translate(417.822266 0)"/>
       <use xlink:href="#DejaVuSans-30" transform="translate(453.90625 0)"/>
       <use xlink:href="#DejaVuSans-39" transform="translate(517.529297 0)"/>
       <use xlink:href="#DejaVuSans-20" transform="translate(581.152344 0)"/>
       <use xlink:href="#DejaVuSans-28" transform="translate(612.939453 0)"/>
       <use xlink:href="#DejaVuSans-31" transform="translate(651.953125 0)"/>
       <use xlink:href="#DejaVuSans-38" transform="translate(715.576172 0)"/>
       <use xlink:href="#DejaVuSans-3a" transform="translate(779.199219 0)"/>
       <use xlink:href="#DejaVuSans-30" transform="translate(812.890625 0)"/>
       <use xlink:href="#DejaVuSans-30" transform="translate(876.513672 0)"/>
       <use xlink:href="#DejaVuSans-29" transform="translate(940.136719 0)"/>
      </g>
     </g>
    </g>
    <g id="text_7">
     <!-- Dates -->
     <g transform="translate(428.244531 588.577752) scale(0.1 -0.1)">
      <defs>
       <path id="DejaVuSans-44" d="M 1259 4147 
L 1259 519 
L 2022 519 
Q 2988 519 3436 956 
Q 3884 1394 3884 2338 
Q 3884 3275 3436 3711 
Q 2988 4147 2022 4147 
L 1259 4147 
z
M 628 4666 
L 1925 4666 
Q 3281 4666 3915 4102 
Q 4550 3538 4550 2338 
Q 4550 1131 3912 565 
Q 3275 0 1925 0 
L 628 0 
L 628 4666 
z
" transform="scale(0.015625)"/>
       <path id="DejaVuSans-61" d="M 2194 1759 
Q 1497 1759 1228 1600 
Q 959 1441 959 1056 
Q 959 750 1161 570 
Q 1363 391 1709 391 
Q 2188 391 2477 730 
Q 2766 1069 2766 1631 
L 2766 1759 
L 2194 1759 
z
M 3341 1997 
L 3341 0 
L 2766 0 
L 2766 531 
Q 2569 213 2275 61 
Q 1981 -91 1556 -91 
Q 1019 -91 701 211 
Q 384 513 384 1019 
Q 384 1609 779 1909 
Q 1175 2209 1959 2209 
L 2766 2209 
L 2766 2266 
Q 2766 2663 2505 2880 
Q 2244 3097 1772 3097 
Q 1472 3097 1187 3025 
Q 903 2953 641 2809 
L 641 3341 
Q 956 3463 1253 3523 
Q 1550 3584 1831 3584 
Q 2591 3584 2966 3190 
Q 3341 2797 3341 1997 
z
" transform="scale(0.015625)"/>
       <path id="DejaVuSans-74" d="M 1172 4494 
L 1172 3500 
L 2356 3500 
L 2356 3053 
L 1172 3053 
L 1172 1153 
Q 1172 725 1289 603 
Q 1406 481 1766 481 
L 2356 481 
L 2356 0 
L 1766 0 
Q 1100 0 847 248 
Q 594 497 594 1153 
L 594 3053 
L 172 3053 
L 172 3500 
L 594 3500 
L 594 4494 
L 1172 4494 
z
" transform="scale(0.015625)"/>
       <path id="DejaVuSans-65" d="M 3597 1894 
L 3597 1613 
L 953 1613 
Q 991 1019 1311 708 
Q 1631 397 2203 397 
Q 2534 397 2845 478 
Q 3156 559 3463 722 
L 3463 178 
Q 3153 47 2828 -22 
Q 2503 -91 2169 -91 
Q 1331 -91 842 396 
Q 353 884 353 1716 
Q 353 2575 817 3079 
Q 1281 3584 2069 3584 
Q 2775 3584 3186 3129 
Q 3597 2675 3597 1894 
z
M 3022 2063 
Q 3016 2534 2758 2815 
Q 2500 3097 2075 3097 
Q 1594 3097 1305 2825 
Q 1016 2553 972 2059 
L 3022 2063 
z
" transform="scale(0.015625)"/>
       <path id="DejaVuSans-73" d="M 2834 3397 
L 2834 2853 
Q 2591 2978 2328 3040 
Q 2066 3103 1784 3103 
Q 1356 3103 1142 2972 
Q 928 2841 928 2578 
Q 928 2378 1081 2264 
Q 1234 2150 1697 2047 
L 1894 2003 
Q 2506 1872 2764 1633 
Q 3022 1394 3022 966 
Q 3022 478 2636 193 
Q 2250 -91 1575 -91 
Q 1294 -91 989 -36 
Q 684 19 347 128 
L 347 722 
Q 666 556 975 473 
Q 1284 391 1588 391 
Q 1994 391 2212 530 
Q 2431 669 2431 922 
Q 2431 1156 2273 1281 
Q 2116 1406 1581 1522 
L 1381 1569 
Q 847 1681 609 1914 
Q 372 2147 372 2553 
Q 372 3047 722 3315 
Q 1072 3584 1716 3584 
Q 2034 3584 2315 3537 
Q 2597 3491 2834 3397 
z
" transform="scale(0.015625)"/>
      </defs>
      <use xlink:href="#DejaVuSans-44"/>
      <use xlink:href="#DejaVuSans-61" transform="translate(77.001953 0)"/>
      <use xlink:href="#DejaVuSans-74" transform="translate(138.28125 0)"/>
      <use xlink:href="#DejaVuSans-65" transform="translate(177.490234 0)"/>
      <use xlink:href="#DejaVuSans-73" transform="translate(239.013672 0)"/>
     </g>
    </g>
   </g>
   <g id="matplotlib.axis_2">
    <g id="ytick_1">
     <g id="line2d_7">
      <defs>
       <path id="m4767187156" d="M 0 0 
L -3.5 0 
" style="stroke: #000000; stroke-width: 0.8"/>
      </defs>
      <g>
       <use xlink:href="#m4767187156" x="108" y="469.750727" style="stroke: #000000; stroke-width: 0.8"/>
      </g>
     </g>
     <g id="text_8">
      <!-- 2 -->
      <g transform="translate(94.6375 473.549946) scale(0.1 -0.1)">
       <use xlink:href="#DejaVuSans-32"/>
      </g>
     </g>
    </g>
    <g id="ytick_2">
     <g id="line2d_8">
      <g>
       <use xlink:href="#m4767187156" x="108" y="408.521852" style="stroke: #000000; stroke-width: 0.8"/>
      </g>
     </g>
     <g id="text_9">
      <!-- 4 -->
      <g transform="translate(94.6375 412.32107) scale(0.1 -0.1)">
       <defs>
        <path id="DejaVuSans-34" d="M 2419 4116 
L 825 1625 
L 2419 1625 
L 2419 4116 
z
M 2253 4666 
L 3047 4666 
L 3047 1625 
L 3713 1625 
L 3713 1100 
L 3047 1100 
L 3047 0 
L 2419 0 
L 2419 1100 
L 313 1100 
L 313 1709 
L 2253 4666 
z
" transform="scale(0.015625)"/>
       </defs>
       <use xlink:href="#DejaVuSans-34"/>
      </g>
     </g>
    </g>
    <g id="ytick_3">
     <g id="line2d_9">
      <g>
       <use xlink:href="#m4767187156" x="108" y="347.292976" style="stroke: #000000; stroke-width: 0.8"/>
      </g>
     </g>
     <g id="text_10">
      <!-- 6 -->
      <g transform="translate(94.6375 351.092195) scale(0.1 -0.1)">
       <use xlink:href="#DejaVuSans-36"/>
      </g>
     </g>
    </g>
    <g id="ytick_4">
     <g id="line2d_10">
      <g>
       <use xlink:href="#m4767187156" x="108" y="286.064101" style="stroke: #000000; stroke-width: 0.8"/>
      </g>
     </g>
     <g id="text_11">
      <!-- 8 -->
      <g transform="translate(94.6375 289.86332) scale(0.1 -0.1)">
       <use xlink:href="#DejaVuSans-38"/>
      </g>
     </g>
    </g>
    <g id="ytick_5">
     <g id="line2d_11">
      <g>
       <use xlink:href="#m4767187156" x="108" y="224.835226" style="stroke: #000000; stroke-width: 0.8"/>
      </g>
     </g>
     <g id="text_12">
      <!-- 10 -->
      <g transform="translate(88.275 228.634444) scale(0.1 -0.1)">
       <use xlink:href="#DejaVuSans-31"/>
       <use xlink:href="#DejaVuSans-30" transform="translate(63.623047 0)"/>
      </g>
     </g>
    </g>
    <g id="ytick_6">
     <g id="line2d_12">
      <g>
       <use xlink:href="#m4767187156" x="108" y="163.60635" style="stroke: #000000; stroke-width: 0.8"/>
      </g>
     </g>
     <g id="text_13">
      <!-- 12 -->
      <g transform="translate(88.275 167.405569) scale(0.1 -0.1)">
       <use xlink:href="#DejaVuSans-31"/>
       <use xlink:href="#DejaVuSans-32" transform="translate(63.623047 0)"/>
      </g>
     </g>
    </g>
    <g id="ytick_7">
     <g id="line2d_13">
      <g>
       <use xlink:href="#m4767187156" x="108" y="102.377475" style="stroke: #000000; stroke-width: 0.8"/>
      </g>
     </g>
     <g id="text_14">
      <!-- 14 -->
      <g transform="translate(88.275 106.176694) scale(0.1 -0.1)">
       <use xlink:href="#DejaVuSans-31"/>
       <use xlink:href="#DejaVuSans-34" transform="translate(63.623047 0)"/>
      </g>
     </g>
    </g>
    <g id="text_15">
     <!-- RMSEs -->
     <g transform="translate(82.195312 307.606562) rotate(-90) scale(0.1 -0.1)">
      <defs>
       <path id="DejaVuSans-52" d="M 2841 2188 
Q 3044 2119 3236 1894 
Q 3428 1669 3622 1275 
L 4263 0 
L 3584 0 
L 2988 1197 
Q 2756 1666 2539 1819 
Q 2322 1972 1947 1972 
L 1259 1972 
L 1259 0 
L 628 0 
L 628 4666 
L 2053 4666 
Q 2853 4666 3247 4331 
Q 3641 3997 3641 3322 
Q 3641 2881 3436 2590 
Q 3231 2300 2841 2188 
z
M 1259 4147 
L 1259 2491 
L 2053 2491 
Q 2509 2491 2742 2702 
Q 2975 2913 2975 3322 
Q 2975 3731 2742 3939 
Q 2509 4147 2053 4147 
L 1259 4147 
z
" transform="scale(0.015625)"/>
       <path id="DejaVuSans-4d" d="M 628 4666 
L 1569 4666 
L 2759 1491 
L 3956 4666 
L 4897 4666 
L 4897 0 
L 4281 0 
L 4281 4097 
L 3078 897 
L 2444 897 
L 1241 4097 
L 1241 0 
L 628 0 
L 628 4666 
z
" transform="scale(0.015625)"/>
       <path id="DejaVuSans-53" d="M 3425 4513 
L 3425 3897 
Q 3066 4069 2747 4153 
Q 2428 4238 2131 4238 
Q 1616 4238 1336 4038 
Q 1056 3838 1056 3469 
Q 1056 3159 1242 3001 
Q 1428 2844 1947 2747 
L 2328 2669 
Q 3034 2534 3370 2195 
Q 3706 1856 3706 1288 
Q 3706 609 3251 259 
Q 2797 -91 1919 -91 
Q 1588 -91 1214 -16 
Q 841 59 441 206 
L 441 856 
Q 825 641 1194 531 
Q 1563 422 1919 422 
Q 2459 422 2753 634 
Q 3047 847 3047 1241 
Q 3047 1584 2836 1778 
Q 2625 1972 2144 2069 
L 1759 2144 
Q 1053 2284 737 2584 
Q 422 2884 422 3419 
Q 422 4038 858 4394 
Q 1294 4750 2059 4750 
Q 2388 4750 2728 4690 
Q 3069 4631 3425 4513 
z
" transform="scale(0.015625)"/>
       <path id="DejaVuSans-45" d="M 628 4666 
L 3578 4666 
L 3578 4134 
L 1259 4134 
L 1259 2753 
L 3481 2753 
L 3481 2222 
L 1259 2222 
L 1259 531 
L 3634 531 
L 3634 0 
L 628 0 
L 628 4666 
z
" transform="scale(0.015625)"/>
      </defs>
      <use xlink:href="#DejaVuSans-52"/>
      <use xlink:href="#DejaVuSans-4d" transform="translate(69.482422 0)"/>
      <use xlink:href="#DejaVuSans-53" transform="translate(155.761719 0)"/>
      <use xlink:href="#DejaVuSans-45" transform="translate(219.238281 0)"/>
      <use xlink:href="#DejaVuSans-73" transform="translate(282.421875 0)"/>
     </g>
    </g>
   </g>
   <g id="line2d_14">
    <path d="M 138.436364 366.9691 
L 140.881051 396.072999 
L 143.325739 393.460436 
L 145.770427 391.017005 
L 148.215115 390.93838 
L 150.659803 402.654495 
L 153.104491 386.742199 
L 155.549179 401.357395 
L 157.993866 400.977567 
L 160.438554 410.640715 
L 162.883242 394.732456 
L 165.32793 407.846062 
L 167.772618 401.62638 
L 170.217306 393.863869 
L 172.661993 387.880355 
L 175.106681 400.982954 
L 177.551369 404.018761 
L 179.996057 407.446833 
L 182.440745 393.636678 
L 184.885433 413.251534 
L 187.33012 404.590247 
L 189.774808 400.509873 
L 192.219496 401.916094 
L 194.664184 412.852772 
L 197.108872 394.137452 
L 199.55356 404.088875 
L 201.998248 388.744446 
L 204.442935 406.98943 
L 206.887623 390.757553 
L 209.332311 400.098119 
L 211.776999 397.746219 
L 214.221687 405.212491 
L 216.666375 392.270179 
L 219.111062 397.533174 
L 221.55575 393.420364 
L 224.000438 397.078706 
L 226.445126 391.577572 
L 228.889814 400.687518 
L 231.334502 392.639453 
L 233.779189 413.143771 
L 236.223877 398.596223 
L 238.668565 404.907362 
L 241.113253 391.219642 
L 243.557941 401.618132 
L 246.002629 392.872176 
L 248.447317 395.791971 
L 250.892004 401.412401 
L 253.336692 397.407864 
L 255.78138 369.608948 
L 258.226068 392.44251 
L 260.670756 368.940457 
L 263.115444 376.783229 
L 265.560131 392.019545 
L 268.004819 390.579223 
L 270.449507 391.76926 
L 272.894195 406.595107 
L 275.338883 395.230835 
L 277.783571 394.560665 
L 280.228258 385.57006 
L 282.672946 396.776642 
L 285.117634 388.327582 
L 287.562322 394.236748 
L 290.00701 389.252562 
L 292.451698 391.957488 
L 294.896386 387.552847 
L 297.341073 400.693897 
L 299.785761 385.774272 
L 302.230449 393.88978 
L 304.675137 390.978101 
L 307.119825 400.965597 
L 309.564513 390.554888 
L 312.0092 388.264738 
L 314.453888 383.277121 
L 316.898576 391.570609 
L 319.343264 379.272249 
L 321.787952 406.334414 
L 324.23264 386.74671 
L 326.677327 395.680179 
L 329.122015 391.87695 
L 331.566703 398.156878 
L 334.011391 387.510162 
L 336.456079 403.535476 
L 338.900767 393.563994 
L 341.345455 400.345834 
L 343.790142 393.244778 
L 346.23483 400.806828 
L 348.679518 393.164722 
L 351.124206 401.899437 
L 353.568894 400.531566 
L 356.013582 385.829862 
L 358.458269 389.634273 
L 360.902957 412.105642 
L 363.347645 397.328421 
L 365.792333 394.036068 
L 368.237021 383.853746 
L 370.681709 383.345017 
L 373.126396 381.364536 
L 375.571084 397.793094 
L 378.015772 392.466465 
L 380.46046 404.398676 
L 382.905148 387.798649 
L 385.349836 402.083972 
L 387.794524 390.739977 
L 390.239211 403.853714 
L 392.683899 393.009967 
L 395.128587 400.182701 
L 397.573275 400.577667 
L 400.017963 396.842188 
L 402.462651 399.551055 
L 404.907338 412.224441 
L 407.352026 396.179755 
L 409.796714 396.097583 
L 412.241402 393.064739 
L 414.68609 400.457568 
L 417.130778 395.437208 
L 419.575465 413.490323 
L 422.020153 394.604868 
L 424.464841 405.23795 
L 426.909529 390.894294 
L 429.354217 411.038353 
L 431.798905 388.749774 
L 434.243593 399.237313 
L 436.68828 398.735839 
L 439.132968 404.822182 
L 441.577656 383.504925 
L 444.022344 399.881936 
L 446.467032 393.713625 
L 448.91172 388.174361 
L 451.356407 389.834355 
L 453.801095 399.544807 
L 456.245783 387.560759 
L 458.690471 398.887834 
L 461.135159 379.649945 
L 463.579847 399.51129 
L 466.024535 391.379812 
L 468.469222 403.82011 
L 470.91391 397.907587 
L 473.358598 402.670173 
L 475.803286 392.12941 
L 478.247974 398.474416 
L 480.692662 402.541637 
L 483.137349 409.262902 
L 485.582037 402.350241 
L 488.026725 393.771638 
L 490.471413 399.850185 
L 492.916101 395.598328 
L 495.360789 389.313816 
L 497.805476 385.597008 
L 500.250164 392.013997 
L 502.694852 389.772853 
L 505.13954 401.834301 
L 507.584228 404.940207 
L 510.028916 395.723798 
L 512.473604 401.669649 
L 514.918291 395.940522 
L 517.362979 394.177728 
L 519.807667 383.383994 
L 522.252355 398.556501 
L 524.697043 386.963609 
L 527.141731 411.644254 
L 529.586418 394.480828 
L 532.031106 405.288591 
L 534.475794 387.674668 
L 536.920482 395.458507 
L 539.36517 375.730706 
L 541.809858 401.001056 
L 544.254545 374.161585 
L 546.699233 397.013175 
L 549.143921 399.028385 
L 551.588609 405.357348 
L 554.033297 396.280935 
L 556.477985 393.563746 
L 558.922673 404.722885 
L 561.36736 413.933587 
L 563.812048 401.213838 
L 566.256736 408.485736 
L 568.701424 402.399437 
L 571.146112 398.897265 
L 573.5908 397.04897 
L 576.035487 397.370508 
L 578.480175 396.218002 
L 580.924863 408.712379 
L 583.369551 389.778021 
L 585.814239 407.870017 
L 588.258927 387.540424 
L 590.703614 389.69668 
L 593.148302 384.513668 
L 595.59299 400.352769 
L 598.037678 402.875393 
L 600.482366 405.750008 
L 602.927054 398.256204 
L 605.371742 408.126258 
L 607.816429 400.701254 
L 610.261117 392.841841 
L 612.705805 390.681643 
L 615.150493 413.652201 
L 617.595181 398.728598 
L 620.039869 408.022465 
L 622.484556 403.149166 
L 624.929244 415.233248 
L 627.373932 404.669456 
L 629.81862 415.234993 
L 632.263308 400.957874 
L 634.707996 406.638682 
L 637.152683 395.614765 
L 639.597371 412.357182 
L 642.042059 395.188325 
L 644.486747 409.68389 
L 646.931435 404.444558 
L 649.376123 411.148451 
L 651.820811 400.449788 
L 654.265498 413.10721 
L 656.710186 406.475825 
L 659.154874 401.721253 
L 661.599562 391.661949 
L 664.04425 411.020193 
L 666.488938 402.400357 
L 668.933625 414.662871 
L 671.378313 393.060462 
L 673.823001 411.091482 
L 676.267689 391.273012 
L 678.712377 406.136244 
L 681.157065 365.13917 
L 683.601752 388.849494 
L 686.04644 378.279782 
L 688.491128 395.264046 
L 690.935816 372.867361 
L 693.380504 403.005901 
L 695.825192 399.065785 
L 698.26988 406.276795 
L 700.714567 389.785597 
L 703.159255 407.059954 
L 705.603943 406.204082 
L 708.048631 416.486532 
L 710.493319 404.782913 
L 712.938007 403.818139 
L 715.382694 394.487164 
L 717.827382 399.747619 
L 720.27207 382.781764 
L 722.716758 414.399244 
L 725.161446 403.941449 
L 727.606134 403.073942 
L 730.050821 387.148158 
L 732.495509 417.680803 
L 734.940197 399.194234 
L 737.384885 415.105719 
L 739.829573 401.612556 
L 742.274261 416.483525 
L 744.718949 400.516545 
L 747.163636 408.811624 
L 747.163636 408.811624 
" clip-path="url(#pec2ae14340)" style="fill: none; stroke: #1f77b4; stroke-width: 1.5; stroke-linecap: square"/>
   </g>
   <g id="line2d_15">
    <path d="M 138.436364 186.410512 
L 140.881051 303.981373 
L 143.325739 231.305659 
L 145.770427 277.383719 
L 148.215115 223.350599 
L 150.659803 308.574213 
L 153.104491 259.831137 
L 155.549179 360.327373 
L 157.993866 309.050417 
L 160.438554 367.459961 
L 162.883242 288.629936 
L 165.32793 316.007814 
L 167.772618 318.093474 
L 170.217306 318.392035 
L 172.661993 264.940853 
L 175.106681 334.695428 
L 177.551369 299.903495 
L 179.996057 372.342632 
L 182.440745 278.924958 
L 184.885433 328.16669 
L 187.33012 293.100853 
L 189.774808 399.566588 
L 192.219496 334.489478 
L 194.664184 327.176413 
L 197.108872 286.066086 
L 199.55356 345.085247 
L 201.998248 279.028488 
L 204.442935 294.030343 
L 206.887623 233.229659 
L 209.332311 353.732389 
L 211.776999 265.562994 
L 214.221687 376.369737 
L 216.666375 287.830749 
L 219.111062 369.603517 
L 221.55575 237.532246 
L 224.000438 251.687733 
L 226.445126 208.695623 
L 228.889814 311.843618 
L 231.334502 234.735658 
L 233.779189 398.457161 
L 236.223877 222.072564 
L 238.668565 383.258596 
L 241.113253 249.679618 
L 243.557941 368.851496 
L 246.002629 303.884719 
L 248.447317 407.863579 
L 250.892004 301.456252 
L 253.336692 407.324063 
L 255.78138 236.417972 
L 258.226068 333.223282 
L 260.670756 302.642595 
L 263.115444 339.956671 
L 265.560131 286.050992 
L 268.004819 392.875942 
L 270.449507 279.537494 
L 272.894195 402.029112 
L 275.338883 259.382596 
L 277.783571 283.002587 
L 280.228258 269.062189 
L 282.672946 427.95391 
L 285.117634 258.500929 
L 287.562322 404.603342 
L 290.00701 255.73018 
L 292.451698 421.045329 
L 294.896386 201.905433 
L 297.341073 325.162284 
L 299.785761 293.504417 
L 302.230449 418.138709 
L 304.675137 307.573717 
L 307.119825 391.251845 
L 309.564513 214.743704 
L 312.0092 389.275174 
L 314.453888 304.60004 
L 316.898576 381.165681 
L 319.343264 270.932585 
L 321.787952 406.07775 
L 324.23264 246.187839 
L 326.677327 418.956618 
L 329.122015 250.536118 
L 331.566703 391.930029 
L 334.011391 188.080564 
L 336.456079 344.249666 
L 338.900767 189.407998 
L 341.345455 327.74679 
L 343.790142 191.947163 
L 346.23483 315.315193 
L 348.679518 226.223242 
L 351.124206 371.41701 
L 353.568894 164.169457 
L 356.013582 296.447906 
L 358.458269 225.341751 
L 360.902957 392.186123 
L 363.347645 250.308504 
L 365.792333 406.982934 
L 368.237021 285.404821 
L 370.681709 371.942892 
L 373.126396 246.830419 
L 375.571084 301.328898 
L 378.015772 186.238137 
L 380.46046 412.231798 
L 382.905148 165.212696 
L 385.349836 315.700203 
L 387.794524 178.689109 
L 390.239211 361.265899 
L 392.683899 197.474092 
L 395.128587 378.693638 
L 397.573275 169.128491 
L 400.017963 388.343392 
L 402.462651 218.142142 
L 404.907338 388.455418 
L 407.352026 144.639563 
L 409.796714 392.149395 
L 412.241402 247.527887 
L 414.68609 312.711869 
L 417.130778 257.793622 
L 419.575465 447.659296 
L 422.020153 297.340886 
L 424.464841 408.37863 
L 426.909529 295.759488 
L 429.354217 347.656717 
L 431.798905 198.897553 
L 434.243593 348.575668 
L 436.68828 241.231258 
L 439.132968 370.6615 
L 441.577656 156.694266 
L 444.022344 377.755083 
L 446.467032 197.488047 
L 448.91172 390.19049 
L 451.356407 211.85909 
L 453.801095 346.194309 
L 456.245783 166.021081 
L 458.690471 253.571618 
L 461.135159 198.177516 
L 463.579847 402.988281 
L 466.024535 237.484656 
L 468.469222 372.3398 
L 470.91391 178.333557 
L 473.358598 390.842762 
L 475.803286 231.250653 
L 478.247974 359.328045 
L 480.692662 190.458419 
L 483.137349 395.92515 
L 485.582037 285.657281 
L 488.026725 396.343999 
L 490.471413 258.9335 
L 492.916101 329.46033 
L 495.360789 126.859951 
L 497.805476 373.221963 
L 500.250164 163.268142 
L 502.694852 340.780092 
L 505.13954 132.102392 
L 507.584228 370.334036 
L 510.028916 245.738714 
L 512.473604 334.64994 
L 514.918291 147.737105 
L 517.362979 274.985952 
L 519.807667 223.216384 
L 522.252355 270.564246 
L 524.697043 132.210447 
L 527.141731 346.276291 
L 529.586418 152.315712 
L 532.031106 288.012378 
L 534.475794 250.044658 
L 536.920482 326.470317 
L 539.36517 160.338799 
L 541.809858 224.551672 
L 544.254545 188.662707 
L 546.699233 269.140989 
L 549.143921 140.533788 
L 551.588609 310.310175 
L 554.033297 89.28 
L 556.477985 240.531805 
L 558.922673 207.272337 
L 561.36736 377.432246 
L 563.812048 146.015492 
L 566.256736 332.448926 
L 571.146112 237.121747 
L 573.5908 225.17688 
L 576.035487 314.683898 
L 578.480175 258.120357 
L 580.924863 375.95321 
L 583.369551 152.08477 
L 585.814239 206.772148 
L 588.258927 169.020699 
L 590.703614 242.420507 
L 593.148302 132.291145 
L 595.59299 216.146465 
L 598.037678 174.984227 
L 600.482366 261.702964 
L 602.927054 191.036066 
L 605.371742 284.980104 
L 607.816429 183.770095 
L 610.261117 316.247457 
L 612.705805 304.668666 
L 615.150493 342.612767 
L 617.595181 215.497988 
L 620.039869 388.684229 
L 622.484556 238.606899 
L 624.929244 315.373352 
L 627.373932 201.460746 
L 629.81862 296.923541 
L 632.263308 219.267685 
L 634.707996 341.333141 
L 637.152683 281.549842 
L 639.597371 359.494566 
L 642.042059 267.987389 
L 644.486747 372.176039 
L 646.931435 360.411443 
L 649.376123 287.911257 
L 651.820811 249.97412 
L 654.265498 316.000063 
L 656.710186 285.86291 
L 659.154874 333.52104 
L 661.599562 223.199596 
L 664.04425 265.662816 
L 666.488938 206.345767 
L 668.933625 277.356304 
L 671.378313 297.716583 
L 673.823001 267.189953 
L 676.267689 218.678038 
L 678.712377 297.286654 
L 681.157065 262.546005 
L 683.601752 322.330719 
L 686.04644 232.501068 
L 688.491128 279.747824 
L 690.935816 154.208647 
L 693.380504 252.023664 
L 695.825192 277.479571 
L 698.26988 407.683964 
L 700.714567 295.77305 
L 703.159255 319.340999 
L 705.603943 279.393644 
L 708.048631 411.84235 
L 710.493319 264.083156 
L 712.938007 370.480367 
L 715.382694 227.006343 
L 717.827382 250.603269 
L 720.27207 251.232126 
L 722.716758 300.554571 
L 725.161446 231.776127 
L 727.606134 311.885646 
L 730.050821 189.716485 
L 732.495509 297.746786 
L 734.940197 298.1767 
L 737.384885 378.726937 
L 739.829573 245.323194 
L 742.274261 306.722955 
L 744.718949 282.815702 
L 747.163636 266.462646 
L 747.163636 266.462646 
" clip-path="url(#pec2ae14340)" style="fill: none; stroke: #ff7f0e; stroke-width: 1.5; stroke-linecap: square"/>
   </g>
   <g id="line2d_16">
    <path d="M 138.436364 381.342245 
L 140.881051 409.210692 
L 143.325739 408.349652 
L 145.770427 403.386896 
L 148.215115 408.685774 
L 150.659803 415.914082 
L 153.104491 412.942741 
L 155.549179 412.860166 
L 157.993866 424.033159 
L 160.438554 422.81486 
L 162.883242 415.154893 
L 165.32793 420.652232 
L 167.772618 420.347562 
L 170.217306 405.126538 
L 172.661993 410.719442 
L 175.106681 411.018178 
L 177.551369 428.842161 
L 179.996057 423.160864 
L 182.440745 423.293232 
L 184.885433 432.467979 
L 187.33012 431.292707 
L 189.774808 417.205131 
L 192.219496 426.978078 
L 194.664184 424.361959 
L 197.108872 418.412058 
L 199.55356 420.25647 
L 201.998248 420.070548 
L 204.442935 427.821688 
L 206.887623 415.607938 
L 209.332311 417.217598 
L 211.776999 428.818789 
L 214.221687 423.746635 
L 216.666375 419.023886 
L 219.111062 416.037137 
L 221.55575 416.374754 
L 224.000438 414.988876 
L 226.445126 420.666903 
L 228.889814 417.251976 
L 231.334502 417.311624 
L 233.779189 432.734679 
L 236.223877 435.506048 
L 238.668565 427.111877 
L 241.113253 420.289534 
L 243.557941 419.489471 
L 246.002629 422.768402 
L 248.447317 415.554268 
L 250.892004 423.637937 
L 253.336692 409.544821 
L 255.78138 384.015931 
L 258.226068 406.762839 
L 260.670756 392.012304 
L 263.115444 396.715783 
L 265.560131 416.659549 
L 268.004819 411.44064 
L 270.449507 419.329213 
L 272.894195 426.209393 
L 275.338883 426.225663 
L 277.783571 420.558782 
L 280.228258 413.845648 
L 282.672946 417.804383 
L 285.117634 415.908301 
L 287.562322 425.583791 
L 290.00701 421.189507 
L 292.451698 419.447406 
L 294.896386 419.942676 
L 297.341073 424.790976 
L 299.785761 416.533976 
L 304.675137 417.206802 
L 307.119825 427.886153 
L 309.564513 420.120459 
L 312.0092 413.648508 
L 314.453888 417.556427 
L 316.898576 415.928125 
L 319.343264 411.141817 
L 321.787952 432.713979 
L 324.23264 412.030257 
L 326.677327 420.147159 
L 329.122015 423.23292 
L 334.011391 422.270716 
L 336.456079 430.67731 
L 338.900767 426.353075 
L 341.345455 424.579464 
L 343.790142 420.105138 
L 346.23483 426.606724 
L 348.679518 424.82823 
L 351.124206 430.087926 
L 353.568894 440.646558 
L 356.013582 409.29404 
L 358.458269 420.769359 
L 360.902957 440.292021 
L 363.347645 432.591522 
L 365.792333 421.096744 
L 368.237021 413.683945 
L 370.681709 401.709545 
L 373.126396 410.636189 
L 375.571084 422.085999 
L 378.015772 426.979998 
L 380.46046 433.124667 
L 382.905148 424.570289 
L 385.349836 428.921633 
L 387.794524 430.514052 
L 390.239211 435.70456 
L 392.683899 425.632228 
L 395.128587 429.368926 
L 397.573275 435.361833 
L 400.017963 426.152285 
L 402.462651 438.144954 
L 404.907338 443.044077 
L 407.352026 432.274218 
L 409.796714 422.688068 
L 412.241402 426.30223 
L 414.68609 424.762911 
L 417.130778 428.815775 
L 419.575465 444.32579 
L 422.020153 419.712515 
L 424.464841 428.741032 
L 426.909529 425.783479 
L 429.354217 440.743562 
L 431.798905 420.478726 
L 434.243593 430.192938 
L 436.68828 426.231181 
L 439.132968 434.736297 
L 441.577656 415.386309 
L 444.022344 427.048419 
L 446.467032 425.884089 
L 448.91172 411.58211 
L 451.356407 422.365063 
L 453.801095 423.748992 
L 456.245783 416.613251 
L 458.690471 425.863068 
L 461.135159 413.005921 
L 463.579847 422.514249 
L 466.024535 422.621056 
L 468.469222 434.791325 
L 470.91391 436.004464 
L 473.358598 430.837801 
L 475.803286 427.313863 
L 478.247974 428.425947 
L 480.692662 440.221899 
L 483.137349 436.791316 
L 485.582037 435.467626 
L 488.026725 422.713316 
L 490.471413 428.32268 
L 492.916101 421.924179 
L 495.360789 426.027114 
L 497.805476 406.946862 
L 500.250164 429.299023 
L 502.694852 425.252466 
L 505.13954 444.145299 
L 507.584228 435.208086 
L 510.028916 430.532489 
L 512.473604 428.925976 
L 514.918291 431.787481 
L 517.362979 415.772385 
L 519.807667 414.723008 
L 522.252355 434.198328 
L 524.697043 425.692562 
L 527.141731 437.903896 
L 529.586418 428.154218 
L 532.031106 431.2513 
L 534.475794 420.001536 
L 536.920482 423.187221 
L 539.36517 408.994159 
L 541.809858 425.436153 
L 544.254545 397.417572 
L 546.699233 420.541074 
L 549.143921 428.955143 
L 551.588609 429.53695 
L 554.033297 430.812342 
L 556.477985 419.192071 
L 558.922673 436.437027 
L 561.36736 436.972398 
L 563.812048 433.246284 
L 566.256736 435.483881 
L 568.701424 435.599841 
L 571.146112 422.223958 
L 573.5908 432.014438 
L 576.035487 415.246007 
L 578.480175 423.362617 
L 580.924863 428.36308 
L 583.369551 415.10426 
L 585.814239 431.214892 
L 588.258927 414.05178 
L 590.703614 411.881225 
L 593.148302 416.828996 
L 595.59299 429.504549 
L 598.037678 435.88411 
L 600.482366 425.133221 
L 602.927054 436.473136 
L 605.371742 436.851883 
L 607.816429 431.969702 
L 610.261117 418.544791 
L 612.705805 422.526803 
L 615.150493 430.272045 
L 617.595181 430.022753 
L 620.039869 427.284821 
L 622.484556 431.910244 
L 624.929244 435.556127 
L 627.373932 436.261981 
L 629.81862 438.467988 
L 632.263308 429.792373 
L 634.707996 425.472364 
L 637.152683 426.949911 
L 639.597371 432.10269 
L 642.042059 426.597491 
L 644.486747 431.686615 
L 649.376123 432.02562 
L 651.820811 425.774158 
L 654.265498 425.496458 
L 656.710186 429.92007 
L 659.154874 418.543879 
L 661.599562 418.614242 
L 664.04425 428.087986 
L 666.488938 427.005515 
L 668.933625 433.522502 
L 671.378313 422.643763 
L 673.823001 433.700314 
L 676.267689 416.805785 
L 678.712377 418.619555 
L 681.157065 387.08762 
L 683.601752 404.249936 
L 686.04644 396.384771 
L 688.491128 413.916938 
L 690.935816 397.750058 
L 693.380504 414.171485 
L 695.825192 427.238968 
L 698.26988 418.488669 
L 700.714567 413.92639 
L 703.159255 423.123179 
L 705.603943 430.992205 
L 708.048631 434.123761 
L 710.493319 428.019974 
L 712.938007 419.317104 
L 715.382694 412.267491 
L 717.827382 410.548696 
L 720.27207 397.824626 
L 722.716758 422.149953 
L 725.161446 425.105886 
L 727.606134 408.665935 
L 730.050821 402.757601 
L 732.495509 427.929662 
L 734.940197 418.599527 
L 737.384885 430.683127 
L 739.829573 418.693889 
L 742.274261 429.590328 
L 744.718949 420.268798 
L 747.163636 428.951369 
L 747.163636 428.951369 
" clip-path="url(#pec2ae14340)" style="fill: none; stroke: #2ca02c; stroke-width: 1.5; stroke-linecap: square"/>
   </g>
   <g id="line2d_17">
    <path d="M 138.436364 392.04804 
L 140.881051 458.491583 
L 143.325739 420.103343 
L 145.770427 449.709424 
L 148.215115 409.001604 
L 150.659803 454.317541 
L 153.104491 393.735843 
L 155.549179 449.031247 
L 157.993866 438.919464 
L 160.438554 473.587422 
L 162.883242 408.861265 
L 165.32793 458.737386 
L 167.772618 462.895502 
L 170.217306 462.737682 
L 172.661993 425.042968 
L 175.106681 486.857968 
L 177.551369 437.593555 
L 179.996057 456.014227 
L 182.440745 433.070055 
L 184.885433 446.059461 
L 187.33012 377.280396 
L 189.774808 471.944296 
L 192.219496 456.771657 
L 197.108872 399.280275 
L 199.55356 474.107932 
L 201.998248 463.834671 
L 204.442935 450.508984 
L 206.887623 433.77348 
L 209.332311 474.676312 
L 211.776999 380.424389 
L 214.221687 448.231009 
L 216.666375 425.549683 
L 219.111062 454.28336 
L 221.55575 439.067634 
L 224.000438 460.938065 
L 226.445126 433.200103 
L 228.889814 471.266419 
L 231.334502 437.390772 
L 233.779189 477.965068 
L 236.223877 411.819928 
L 238.668565 474.813892 
L 241.113253 416.309953 
L 243.557941 457.267409 
L 246.002629 429.018965 
L 248.447317 486.653759 
L 250.892004 455.04141 
L 253.336692 476.766622 
L 255.78138 337.065707 
L 258.226068 441.838558 
L 260.670756 417.407913 
L 263.115444 448.434594 
L 265.560131 418.521748 
L 268.004819 482.267909 
L 270.449507 419.727865 
L 272.894195 430.06589 
L 275.338883 402.865832 
L 277.783571 442.627403 
L 280.228258 431.078977 
L 282.672946 449.609536 
L 285.117634 422.378647 
L 287.562322 464.950324 
L 290.00701 364.236511 
L 292.451698 462.375496 
L 294.896386 397.329356 
L 297.341073 428.800155 
L 299.785761 362.296949 
L 302.230449 486.431605 
L 304.675137 447.024045 
L 307.119825 458.474175 
L 309.564513 313.438315 
L 312.0092 449.083129 
L 314.453888 446.822759 
L 316.898576 456.071123 
L 319.343264 417.058391 
L 321.787952 433.190059 
L 324.23264 390.835639 
L 326.677327 437.221704 
L 329.122015 425.693795 
L 331.566703 428.64732 
L 334.011391 395.327941 
L 336.456079 439.408354 
L 338.900767 429.776198 
L 341.345455 463.332642 
L 343.790142 372.590201 
L 346.23483 442.572062 
L 348.679518 419.579505 
L 351.124206 455.990907 
L 353.568894 439.389201 
L 356.013582 445.706895 
L 358.458269 376.25158 
L 360.902957 440.013781 
L 363.347645 397.000753 
L 365.792333 390.982831 
L 368.237021 377.043148 
L 370.681709 449.712906 
L 373.126396 450.333916 
L 375.571084 436.451655 
L 378.015772 387.724871 
L 380.46046 433.825485 
L 382.905148 338.800224 
L 385.349836 455.720024 
L 387.794524 457.320954 
L 390.239211 446.59581 
L 392.683899 387.282402 
L 395.128587 455.495812 
L 397.573275 423.94803 
L 400.017963 465.668995 
L 402.462651 419.891473 
L 404.907338 426.903825 
L 407.352026 264.979975 
L 409.796714 406.798064 
L 412.241402 423.640266 
L 414.68609 400.719473 
L 417.130778 344.144034 
L 419.575465 468.739268 
L 422.020153 413.427127 
L 424.464841 443.470152 
L 426.909529 449.129726 
L 429.354217 446.388823 
L 431.798905 379.549408 
L 434.243593 422.45498 
L 436.68828 411.86054 
L 439.132968 445.827271 
L 441.577656 342.811155 
L 444.022344 462.061286 
L 446.467032 410.575023 
L 448.91172 410.088885 
L 451.356407 431.715009 
L 453.801095 446.80057 
L 456.245783 388.278022 
L 458.690471 420.440654 
L 461.135159 402.639985 
L 463.579847 434.272508 
L 466.024535 399.559464 
L 468.469222 452.878431 
L 470.91391 305.350645 
L 473.358598 439.759584 
L 475.803286 399.866988 
L 478.247974 455.764096 
L 480.692662 365.842521 
L 483.137349 435.06893 
L 485.582037 363.575085 
L 488.026725 438.345641 
L 490.471413 466.194965 
L 492.916101 426.794397 
L 495.360789 278.065509 
L 497.805476 451.063252 
L 500.250164 454.329628 
L 502.694852 450.897804 
L 505.13954 264.80255 
L 507.584228 440.082553 
L 510.028916 438.07565 
L 512.473604 433.052231 
L 514.918291 331.035202 
L 517.362979 448.672667 
L 519.807667 466.370317 
L 522.252355 397.051408 
L 524.697043 340.379987 
L 527.141731 465.371588 
L 529.586418 384.245866 
L 532.031106 400.294975 
L 534.475794 373.898498 
L 536.920482 396.425193 
L 539.36517 439.523876 
L 541.809858 416.746072 
L 544.254545 338.639995 
L 546.699233 406.978336 
L 549.143921 444.628971 
L 551.588609 437.063286 
L 554.033297 285.803642 
L 556.477985 380.044488 
L 558.922673 444.739486 
L 561.36736 447.358115 
L 563.812048 307.306587 
L 566.256736 412.743608 
L 568.701424 403.619079 
L 571.146112 393.991091 
L 573.5908 430.791912 
L 576.035487 450.79607 
L 578.480175 388.62696 
L 580.924863 456.493658 
L 583.369551 422.316262 
L 585.814239 429.893136 
L 588.258927 396.275271 
L 590.703614 450.199657 
L 593.148302 374.237597 
L 595.59299 407.03356 
L 598.037678 429.308402 
L 600.482366 444.166868 
L 602.927054 453.280222 
L 605.371742 444.520573 
L 607.816429 330.308465 
L 610.261117 444.509077 
L 612.705805 468.037012 
L 615.150493 449.699986 
L 617.595181 410.415671 
L 620.039869 492.48 
L 622.484556 446.86494 
L 624.929244 446.993615 
L 627.373932 402.04682 
L 629.81862 424.048553 
L 632.263308 362.110954 
L 634.707996 427.992661 
L 637.152683 387.461229 
L 639.597371 469.051113 
L 642.042059 466.14293 
L 644.486747 460.066492 
L 646.931435 411.491529 
L 649.376123 410.768397 
L 651.820811 348.846097 
L 654.265498 455.694595 
L 656.710186 425.991502 
L 659.154874 436.106388 
L 661.599562 466.371777 
L 664.04425 453.455165 
L 666.488938 371.533182 
L 668.933625 426.250954 
L 671.378313 438.034921 
L 673.823001 435.728822 
L 676.267689 399.4924 
L 678.712377 435.247669 
L 681.157065 430.35102 
L 683.601752 450.68611 
L 686.04644 386.307585 
L 688.491128 446.7519 
L 690.935816 384.987055 
L 693.380504 412.854378 
L 695.825192 457.147419 
L 698.26988 472.553281 
L 700.714567 421.136093 
L 703.159255 457.581815 
L 705.603943 440.584107 
L 708.048631 479.125347 
L 710.493319 409.593425 
L 712.938007 463.29276 
L 715.382694 416.939818 
L 717.827382 394.316965 
L 720.27207 397.643959 
L 722.716758 410.452969 
L 725.161446 372.439987 
L 727.606134 447.432974 
L 730.050821 339.04518 
L 732.495509 426.614527 
L 734.940197 451.591119 
L 737.384885 442.107368 
L 739.829573 360.46277 
L 742.274261 426.816097 
L 744.718949 412.047913 
L 747.163636 430.827094 
L 747.163636 430.827094 
" clip-path="url(#pec2ae14340)" style="fill: none; stroke: #d62728; stroke-width: 1.5; stroke-linecap: square"/>
   </g>
   <g id="patch_3">
    <path d="M 108 512.64 
L 108 69.12 
" style="fill: none; stroke: #000000; stroke-width: 0.8; stroke-linejoin: miter; stroke-linecap: square"/>
   </g>
   <g id="patch_4">
    <path d="M 777.6 512.64 
L 777.6 69.12 
" style="fill: none; stroke: #000000; stroke-width: 0.8; stroke-linejoin: miter; stroke-linecap: square"/>
   </g>
   <g id="patch_5">
    <path d="M 108 512.64 
L 777.6 512.64 
" style="fill: none; stroke: #000000; stroke-width: 0.8; stroke-linejoin: miter; stroke-linecap: square"/>
   </g>
   <g id="patch_6">
    <path d="M 108 69.12 
L 777.6 69.12 
" style="fill: none; stroke: #000000; stroke-width: 0.8; stroke-linejoin: miter; stroke-linecap: square"/>
   </g>
   <g id="text_16">
    <!-- Temperature two steps forward prediction: RMSES -->
    <g transform="translate(217.119375 49.12) scale(0.18 -0.18)">
     <defs>
      <path id="DejaVuSans-54" d="M -19 4666 
L 3928 4666 
L 3928 4134 
L 2272 4134 
L 2272 0 
L 1638 0 
L 1638 4134 
L -19 4134 
L -19 4666 
z
" transform="scale(0.015625)"/>
      <path id="DejaVuSans-6d" d="M 3328 2828 
Q 3544 3216 3844 3400 
Q 4144 3584 4550 3584 
Q 5097 3584 5394 3201 
Q 5691 2819 5691 2113 
L 5691 0 
L 5113 0 
L 5113 2094 
Q 5113 2597 4934 2840 
Q 4756 3084 4391 3084 
Q 3944 3084 3684 2787 
Q 3425 2491 3425 1978 
L 3425 0 
L 2847 0 
L 2847 2094 
Q 2847 2600 2669 2842 
Q 2491 3084 2119 3084 
Q 1678 3084 1418 2786 
Q 1159 2488 1159 1978 
L 1159 0 
L 581 0 
L 581 3500 
L 1159 3500 
L 1159 2956 
Q 1356 3278 1631 3431 
Q 1906 3584 2284 3584 
Q 2666 3584 2933 3390 
Q 3200 3197 3328 2828 
z
" transform="scale(0.015625)"/>
      <path id="DejaVuSans-70" d="M 1159 525 
L 1159 -1331 
L 581 -1331 
L 581 3500 
L 1159 3500 
L 1159 2969 
Q 1341 3281 1617 3432 
Q 1894 3584 2278 3584 
Q 2916 3584 3314 3078 
Q 3713 2572 3713 1747 
Q 3713 922 3314 415 
Q 2916 -91 2278 -91 
Q 1894 -91 1617 61 
Q 1341 213 1159 525 
z
M 3116 1747 
Q 3116 2381 2855 2742 
Q 2594 3103 2138 3103 
Q 1681 3103 1420 2742 
Q 1159 2381 1159 1747 
Q 1159 1113 1420 752 
Q 1681 391 2138 391 
Q 2594 391 2855 752 
Q 3116 1113 3116 1747 
z
" transform="scale(0.015625)"/>
      <path id="DejaVuSans-72" d="M 2631 2963 
Q 2534 3019 2420 3045 
Q 2306 3072 2169 3072 
Q 1681 3072 1420 2755 
Q 1159 2438 1159 1844 
L 1159 0 
L 581 0 
L 581 3500 
L 1159 3500 
L 1159 2956 
Q 1341 3275 1631 3429 
Q 1922 3584 2338 3584 
Q 2397 3584 2469 3576 
Q 2541 3569 2628 3553 
L 2631 2963 
z
" transform="scale(0.015625)"/>
      <path id="DejaVuSans-75" d="M 544 1381 
L 544 3500 
L 1119 3500 
L 1119 1403 
Q 1119 906 1312 657 
Q 1506 409 1894 409 
Q 2359 409 2629 706 
Q 2900 1003 2900 1516 
L 2900 3500 
L 3475 3500 
L 3475 0 
L 2900 0 
L 2900 538 
Q 2691 219 2414 64 
Q 2138 -91 1772 -91 
Q 1169 -91 856 284 
Q 544 659 544 1381 
z
M 1991 3584 
L 1991 3584 
z
" transform="scale(0.015625)"/>
      <path id="DejaVuSans-77" d="M 269 3500 
L 844 3500 
L 1563 769 
L 2278 3500 
L 2956 3500 
L 3675 769 
L 4391 3500 
L 4966 3500 
L 4050 0 
L 3372 0 
L 2619 2869 
L 1863 0 
L 1184 0 
L 269 3500 
z
" transform="scale(0.015625)"/>
      <path id="DejaVuSans-6f" d="M 1959 3097 
Q 1497 3097 1228 2736 
Q 959 2375 959 1747 
Q 959 1119 1226 758 
Q 1494 397 1959 397 
Q 2419 397 2687 759 
Q 2956 1122 2956 1747 
Q 2956 2369 2687 2733 
Q 2419 3097 1959 3097 
z
M 1959 3584 
Q 2709 3584 3137 3096 
Q 3566 2609 3566 1747 
Q 3566 888 3137 398 
Q 2709 -91 1959 -91 
Q 1206 -91 779 398 
Q 353 888 353 1747 
Q 353 2609 779 3096 
Q 1206 3584 1959 3584 
z
" transform="scale(0.015625)"/>
      <path id="DejaVuSans-66" d="M 2375 4863 
L 2375 4384 
L 1825 4384 
Q 1516 4384 1395 4259 
Q 1275 4134 1275 3809 
L 1275 3500 
L 2222 3500 
L 2222 3053 
L 1275 3053 
L 1275 0 
L 697 0 
L 697 3053 
L 147 3053 
L 147 3500 
L 697 3500 
L 697 3744 
Q 697 4328 969 4595 
Q 1241 4863 1831 4863 
L 2375 4863 
z
" transform="scale(0.015625)"/>
      <path id="DejaVuSans-64" d="M 2906 2969 
L 2906 4863 
L 3481 4863 
L 3481 0 
L 2906 0 
L 2906 525 
Q 2725 213 2448 61 
Q 2172 -91 1784 -91 
Q 1150 -91 751 415 
Q 353 922 353 1747 
Q 353 2572 751 3078 
Q 1150 3584 1784 3584 
Q 2172 3584 2448 3432 
Q 2725 3281 2906 2969 
z
M 947 1747 
Q 947 1113 1208 752 
Q 1469 391 1925 391 
Q 2381 391 2643 752 
Q 2906 1113 2906 1747 
Q 2906 2381 2643 2742 
Q 2381 3103 1925 3103 
Q 1469 3103 1208 2742 
Q 947 2381 947 1747 
z
" transform="scale(0.015625)"/>
      <path id="DejaVuSans-69" d="M 603 3500 
L 1178 3500 
L 1178 0 
L 603 0 
L 603 3500 
z
M 603 4863 
L 1178 4863 
L 1178 4134 
L 603 4134 
L 603 4863 
z
" transform="scale(0.015625)"/>
      <path id="DejaVuSans-63" d="M 3122 3366 
L 3122 2828 
Q 2878 2963 2633 3030 
Q 2388 3097 2138 3097 
Q 1578 3097 1268 2742 
Q 959 2388 959 1747 
Q 959 1106 1268 751 
Q 1578 397 2138 397 
Q 2388 397 2633 464 
Q 2878 531 3122 666 
L 3122 134 
Q 2881 22 2623 -34 
Q 2366 -91 2075 -91 
Q 1284 -91 818 406 
Q 353 903 353 1747 
Q 353 2603 823 3093 
Q 1294 3584 2113 3584 
Q 2378 3584 2631 3529 
Q 2884 3475 3122 3366 
z
" transform="scale(0.015625)"/>
      <path id="DejaVuSans-6e" d="M 3513 2113 
L 3513 0 
L 2938 0 
L 2938 2094 
Q 2938 2591 2744 2837 
Q 2550 3084 2163 3084 
Q 1697 3084 1428 2787 
Q 1159 2491 1159 1978 
L 1159 0 
L 581 0 
L 581 3500 
L 1159 3500 
L 1159 2956 
Q 1366 3272 1645 3428 
Q 1925 3584 2291 3584 
Q 2894 3584 3203 3211 
Q 3513 2838 3513 2113 
z
" transform="scale(0.015625)"/>
     </defs>
     <use xlink:href="#DejaVuSans-54"/>
     <use xlink:href="#DejaVuSans-65" transform="translate(44.083984 0)"/>
     <use xlink:href="#DejaVuSans-6d" transform="translate(105.607422 0)"/>
     <use xlink:href="#DejaVuSans-70" transform="translate(203.019531 0)"/>
     <use xlink:href="#DejaVuSans-65" transform="translate(266.496094 0)"/>
     <use xlink:href="#DejaVuSans-72" transform="translate(328.019531 0)"/>
     <use xlink:href="#DejaVuSans-61" transform="translate(369.132812 0)"/>
     <use xlink:href="#DejaVuSans-74" transform="translate(430.412109 0)"/>
     <use xlink:href="#DejaVuSans-75" transform="translate(469.621094 0)"/>
     <use xlink:href="#DejaVuSans-72" transform="translate(533 0)"/>
     <use xlink:href="#DejaVuSans-65" transform="translate(571.863281 0)"/>
     <use xlink:href="#DejaVuSans-20" transform="translate(633.386719 0)"/>
     <use xlink:href="#DejaVuSans-74" transform="translate(665.173828 0)"/>
     <use xlink:href="#DejaVuSans-77" transform="translate(704.382812 0)"/>
     <use xlink:href="#DejaVuSans-6f" transform="translate(786.169922 0)"/>
     <use xlink:href="#DejaVuSans-20" transform="translate(847.351562 0)"/>
     <use xlink:href="#DejaVuSans-73" transform="translate(879.138672 0)"/>
     <use xlink:href="#DejaVuSans-74" transform="translate(931.238281 0)"/>
     <use xlink:href="#DejaVuSans-65" transform="translate(970.447266 0)"/>
     <use xlink:href="#DejaVuSans-70" transform="translate(1031.970703 0)"/>
     <use xlink:href="#DejaVuSans-73" transform="translate(1095.447266 0)"/>
     <use xlink:href="#DejaVuSans-20" transform="translate(1147.546875 0)"/>
     <use xlink:href="#DejaVuSans-66" transform="translate(1179.333984 0)"/>
     <use xlink:href="#DejaVuSans-6f" transform="translate(1214.539062 0)"/>
     <use xlink:href="#DejaVuSans-72" transform="translate(1275.720703 0)"/>
     <use xlink:href="#DejaVuSans-77" transform="translate(1316.833984 0)"/>
     <use xlink:href="#DejaVuSans-61" transform="translate(1398.621094 0)"/>
     <use xlink:href="#DejaVuSans-72" transform="translate(1459.900391 0)"/>
     <use xlink:href="#DejaVuSans-64" transform="translate(1499.263672 0)"/>
     <use xlink:href="#DejaVuSans-20" transform="translate(1562.740234 0)"/>
     <use xlink:href="#DejaVuSans-70" transform="translate(1594.527344 0)"/>
     <use xlink:href="#DejaVuSans-72" transform="translate(1658.003906 0)"/>
     <use xlink:href="#DejaVuSans-65" transform="translate(1696.867188 0)"/>
     <use xlink:href="#DejaVuSans-64" transform="translate(1758.390625 0)"/>
     <use xlink:href="#DejaVuSans-69" transform="translate(1821.867188 0)"/>
     <use xlink:href="#DejaVuSans-63" transform="translate(1849.650391 0)"/>
     <use xlink:href="#DejaVuSans-74" transform="translate(1904.630859 0)"/>
     <use xlink:href="#DejaVuSans-69" transform="translate(1943.839844 0)"/>
     <use xlink:href="#DejaVuSans-6f" transform="translate(1971.623047 0)"/>
     <use xlink:href="#DejaVuSans-6e" transform="translate(2032.804688 0)"/>
     <use xlink:href="#DejaVuSans-3a" transform="translate(2096.183594 0)"/>
     <use xlink:href="#DejaVuSans-20" transform="translate(2129.875 0)"/>
     <use xlink:href="#DejaVuSans-52" transform="translate(2161.662109 0)"/>
     <use xlink:href="#DejaVuSans-4d" transform="translate(2231.144531 0)"/>
     <use xlink:href="#DejaVuSans-53" transform="translate(2317.423828 0)"/>
     <use xlink:href="#DejaVuSans-45" transform="translate(2380.900391 0)"/>
     <use xlink:href="#DejaVuSans-53" transform="translate(2444.083984 0)"/>
    </g>
   </g>
   <g id="legend_1">
    <g id="text_17">
     <!-- RMSEs -->
     <g transform="translate(871.899219 256.412594) scale(0.18 -0.18)">
      <use xlink:href="#DejaVuSans-52"/>
      <use xlink:href="#DejaVuSans-4d" transform="translate(69.482422 0)"/>
      <use xlink:href="#DejaVuSans-53" transform="translate(155.761719 0)"/>
      <use xlink:href="#DejaVuSans-45" transform="translate(219.238281 0)"/>
      <use xlink:href="#DejaVuSans-73" transform="translate(282.421875 0)"/>
     </g>
     <!--  -->
     <g transform="translate(871.899219 276.568656) scale(0.18 -0.18)"/>
    </g>
    <g id="line2d_18">
     <path d="M 786.6 289.410531 
L 796.6 289.410531 
L 806.6 289.410531 
" style="fill: none; stroke: #1f77b4; stroke-width: 1.5; stroke-linecap: square"/>
    </g>
    <g id="text_18">
     <!-- World 6 hours forward prediction -->
     <g transform="translate(814.6 292.910531) scale(0.1 -0.1)">
      <defs>
       <path id="DejaVuSans-57" d="M 213 4666 
L 850 4666 
L 1831 722 
L 2809 4666 
L 3519 4666 
L 4500 722 
L 5478 4666 
L 6119 4666 
L 4947 0 
L 4153 0 
L 3169 4050 
L 2175 0 
L 1381 0 
L 213 4666 
z
" transform="scale(0.015625)"/>
       <path id="DejaVuSans-6c" d="M 603 4863 
L 1178 4863 
L 1178 0 
L 603 0 
L 603 4863 
z
" transform="scale(0.015625)"/>
       <path id="DejaVuSans-68" d="M 3513 2113 
L 3513 0 
L 2938 0 
L 2938 2094 
Q 2938 2591 2744 2837 
Q 2550 3084 2163 3084 
Q 1697 3084 1428 2787 
Q 1159 2491 1159 1978 
L 1159 0 
L 581 0 
L 581 4863 
L 1159 4863 
L 1159 2956 
Q 1366 3272 1645 3428 
Q 1925 3584 2291 3584 
Q 2894 3584 3203 3211 
Q 3513 2838 3513 2113 
z
" transform="scale(0.015625)"/>
      </defs>
      <use xlink:href="#DejaVuSans-57"/>
      <use xlink:href="#DejaVuSans-6f" transform="translate(93.001953 0)"/>
      <use xlink:href="#DejaVuSans-72" transform="translate(154.183594 0)"/>
      <use xlink:href="#DejaVuSans-6c" transform="translate(195.296875 0)"/>
      <use xlink:href="#DejaVuSans-64" transform="translate(223.080078 0)"/>
      <use xlink:href="#DejaVuSans-20" transform="translate(286.556641 0)"/>
      <use xlink:href="#DejaVuSans-36" transform="translate(318.34375 0)"/>
      <use xlink:href="#DejaVuSans-20" transform="translate(381.966797 0)"/>
      <use xlink:href="#DejaVuSans-68" transform="translate(413.753906 0)"/>
      <use xlink:href="#DejaVuSans-6f" transform="translate(477.132812 0)"/>
      <use xlink:href="#DejaVuSans-75" transform="translate(538.314453 0)"/>
      <use xlink:href="#DejaVuSans-72" transform="translate(601.693359 0)"/>
      <use xlink:href="#DejaVuSans-73" transform="translate(642.806641 0)"/>
      <use xlink:href="#DejaVuSans-20" transform="translate(694.90625 0)"/>
      <use xlink:href="#DejaVuSans-66" transform="translate(726.693359 0)"/>
      <use xlink:href="#DejaVuSans-6f" transform="translate(761.898438 0)"/>
      <use xlink:href="#DejaVuSans-72" transform="translate(823.080078 0)"/>
      <use xlink:href="#DejaVuSans-77" transform="translate(864.193359 0)"/>
      <use xlink:href="#DejaVuSans-61" transform="translate(945.980469 0)"/>
      <use xlink:href="#DejaVuSans-72" transform="translate(1007.259766 0)"/>
      <use xlink:href="#DejaVuSans-64" transform="translate(1046.623047 0)"/>
      <use xlink:href="#DejaVuSans-20" transform="translate(1110.099609 0)"/>
      <use xlink:href="#DejaVuSans-70" transform="translate(1141.886719 0)"/>
      <use xlink:href="#DejaVuSans-72" transform="translate(1205.363281 0)"/>
      <use xlink:href="#DejaVuSans-65" transform="translate(1244.226562 0)"/>
      <use xlink:href="#DejaVuSans-64" transform="translate(1305.75 0)"/>
      <use xlink:href="#DejaVuSans-69" transform="translate(1369.226562 0)"/>
      <use xlink:href="#DejaVuSans-63" transform="translate(1397.009766 0)"/>
      <use xlink:href="#DejaVuSans-74" transform="translate(1451.990234 0)"/>
      <use xlink:href="#DejaVuSans-69" transform="translate(1491.199219 0)"/>
      <use xlink:href="#DejaVuSans-6f" transform="translate(1518.982422 0)"/>
      <use xlink:href="#DejaVuSans-6e" transform="translate(1580.164062 0)"/>
     </g>
    </g>
    <g id="line2d_19">
     <path d="M 786.6 304.088656 
L 796.6 304.088656 
L 806.6 304.088656 
" style="fill: none; stroke: #ff7f0e; stroke-width: 1.5; stroke-linecap: square"/>
    </g>
    <g id="text_19">
     <!-- South Africa 6 hours forward prediction -->
     <g transform="translate(814.6 307.588656) scale(0.1 -0.1)">
      <defs>
       <path id="DejaVuSans-41" d="M 2188 4044 
L 1331 1722 
L 3047 1722 
L 2188 4044 
z
M 1831 4666 
L 2547 4666 
L 4325 0 
L 3669 0 
L 3244 1197 
L 1141 1197 
L 716 0 
L 50 0 
L 1831 4666 
z
" transform="scale(0.015625)"/>
      </defs>
      <use xlink:href="#DejaVuSans-53"/>
      <use xlink:href="#DejaVuSans-6f" transform="translate(63.476562 0)"/>
      <use xlink:href="#DejaVuSans-75" transform="translate(124.658203 0)"/>
      <use xlink:href="#DejaVuSans-74" transform="translate(188.037109 0)"/>
      <use xlink:href="#DejaVuSans-68" transform="translate(227.246094 0)"/>
      <use xlink:href="#DejaVuSans-20" transform="translate(290.625 0)"/>
      <use xlink:href="#DejaVuSans-41" transform="translate(322.412109 0)"/>
      <use xlink:href="#DejaVuSans-66" transform="translate(387.195312 0)"/>
      <use xlink:href="#DejaVuSans-72" transform="translate(422.400391 0)"/>
      <use xlink:href="#DejaVuSans-69" transform="translate(463.513672 0)"/>
      <use xlink:href="#DejaVuSans-63" transform="translate(491.296875 0)"/>
      <use xlink:href="#DejaVuSans-61" transform="translate(546.277344 0)"/>
      <use xlink:href="#DejaVuSans-20" transform="translate(607.556641 0)"/>
      <use xlink:href="#DejaVuSans-36" transform="translate(639.34375 0)"/>
      <use xlink:href="#DejaVuSans-20" transform="translate(702.966797 0)"/>
      <use xlink:href="#DejaVuSans-68" transform="translate(734.753906 0)"/>
      <use xlink:href="#DejaVuSans-6f" transform="translate(798.132812 0)"/>
      <use xlink:href="#DejaVuSans-75" transform="translate(859.314453 0)"/>
      <use xlink:href="#DejaVuSans-72" transform="translate(922.693359 0)"/>
      <use xlink:href="#DejaVuSans-73" transform="translate(963.806641 0)"/>
      <use xlink:href="#DejaVuSans-20" transform="translate(1015.90625 0)"/>
      <use xlink:href="#DejaVuSans-66" transform="translate(1047.693359 0)"/>
      <use xlink:href="#DejaVuSans-6f" transform="translate(1082.898438 0)"/>
      <use xlink:href="#DejaVuSans-72" transform="translate(1144.080078 0)"/>
      <use xlink:href="#DejaVuSans-77" transform="translate(1185.193359 0)"/>
      <use xlink:href="#DejaVuSans-61" transform="translate(1266.980469 0)"/>
      <use xlink:href="#DejaVuSans-72" transform="translate(1328.259766 0)"/>
      <use xlink:href="#DejaVuSans-64" transform="translate(1367.623047 0)"/>
      <use xlink:href="#DejaVuSans-20" transform="translate(1431.099609 0)"/>
      <use xlink:href="#DejaVuSans-70" transform="translate(1462.886719 0)"/>
      <use xlink:href="#DejaVuSans-72" transform="translate(1526.363281 0)"/>
      <use xlink:href="#DejaVuSans-65" transform="translate(1565.226562 0)"/>
      <use xlink:href="#DejaVuSans-64" transform="translate(1626.75 0)"/>
      <use xlink:href="#DejaVuSans-69" transform="translate(1690.226562 0)"/>
      <use xlink:href="#DejaVuSans-63" transform="translate(1718.009766 0)"/>
      <use xlink:href="#DejaVuSans-74" transform="translate(1772.990234 0)"/>
      <use xlink:href="#DejaVuSans-69" transform="translate(1812.199219 0)"/>
      <use xlink:href="#DejaVuSans-6f" transform="translate(1839.982422 0)"/>
      <use xlink:href="#DejaVuSans-6e" transform="translate(1901.164062 0)"/>
     </g>
    </g>
    <g id="line2d_20">
     <path d="M 786.6 318.766781 
L 796.6 318.766781 
L 806.6 318.766781 
" style="fill: none; stroke: #2ca02c; stroke-width: 1.5; stroke-linecap: square"/>
    </g>
    <g id="text_20">
     <!-- World 12 hours forward prediction -->
     <g transform="translate(814.6 322.266781) scale(0.1 -0.1)">
      <use xlink:href="#DejaVuSans-57"/>
      <use xlink:href="#DejaVuSans-6f" transform="translate(93.001953 0)"/>
      <use xlink:href="#DejaVuSans-72" transform="translate(154.183594 0)"/>
      <use xlink:href="#DejaVuSans-6c" transform="translate(195.296875 0)"/>
      <use xlink:href="#DejaVuSans-64" transform="translate(223.080078 0)"/>
      <use xlink:href="#DejaVuSans-20" transform="translate(286.556641 0)"/>
      <use xlink:href="#DejaVuSans-31" transform="translate(318.34375 0)"/>
      <use xlink:href="#DejaVuSans-32" transform="translate(381.966797 0)"/>
      <use xlink:href="#DejaVuSans-20" transform="translate(445.589844 0)"/>
      <use xlink:href="#DejaVuSans-68" transform="translate(477.376953 0)"/>
      <use xlink:href="#DejaVuSans-6f" transform="translate(540.755859 0)"/>
      <use xlink:href="#DejaVuSans-75" transform="translate(601.9375 0)"/>
      <use xlink:href="#DejaVuSans-72" transform="translate(665.316406 0)"/>
      <use xlink:href="#DejaVuSans-73" transform="translate(706.429688 0)"/>
      <use xlink:href="#DejaVuSans-20" transform="translate(758.529297 0)"/>
      <use xlink:href="#DejaVuSans-66" transform="translate(790.316406 0)"/>
      <use xlink:href="#DejaVuSans-6f" transform="translate(825.521484 0)"/>
      <use xlink:href="#DejaVuSans-72" transform="translate(886.703125 0)"/>
      <use xlink:href="#DejaVuSans-77" transform="translate(927.816406 0)"/>
      <use xlink:href="#DejaVuSans-61" transform="translate(1009.603516 0)"/>
      <use xlink:href="#DejaVuSans-72" transform="translate(1070.882812 0)"/>
      <use xlink:href="#DejaVuSans-64" transform="translate(1110.246094 0)"/>
      <use xlink:href="#DejaVuSans-20" transform="translate(1173.722656 0)"/>
      <use xlink:href="#DejaVuSans-70" transform="translate(1205.509766 0)"/>
      <use xlink:href="#DejaVuSans-72" transform="translate(1268.986328 0)"/>
      <use xlink:href="#DejaVuSans-65" transform="translate(1307.849609 0)"/>
      <use xlink:href="#DejaVuSans-64" transform="translate(1369.373047 0)"/>
      <use xlink:href="#DejaVuSans-69" transform="translate(1432.849609 0)"/>
      <use xlink:href="#DejaVuSans-63" transform="translate(1460.632812 0)"/>
      <use xlink:href="#DejaVuSans-74" transform="translate(1515.613281 0)"/>
      <use xlink:href="#DejaVuSans-69" transform="translate(1554.822266 0)"/>
      <use xlink:href="#DejaVuSans-6f" transform="translate(1582.605469 0)"/>
      <use xlink:href="#DejaVuSans-6e" transform="translate(1643.787109 0)"/>
     </g>
    </g>
    <g id="line2d_21">
     <path d="M 786.6 333.444906 
L 796.6 333.444906 
L 806.6 333.444906 
" style="fill: none; stroke: #d62728; stroke-width: 1.5; stroke-linecap: square"/>
    </g>
    <g id="text_21">
     <!-- South Africa 12 hours forward prediction -->
     <g transform="translate(814.6 336.944906) scale(0.1 -0.1)">
      <use xlink:href="#DejaVuSans-53"/>
      <use xlink:href="#DejaVuSans-6f" transform="translate(63.476562 0)"/>
      <use xlink:href="#DejaVuSans-75" transform="translate(124.658203 0)"/>
      <use xlink:href="#DejaVuSans-74" transform="translate(188.037109 0)"/>
      <use xlink:href="#DejaVuSans-68" transform="translate(227.246094 0)"/>
      <use xlink:href="#DejaVuSans-20" transform="translate(290.625 0)"/>
      <use xlink:href="#DejaVuSans-41" transform="translate(322.412109 0)"/>
      <use xlink:href="#DejaVuSans-66" transform="translate(387.195312 0)"/>
      <use xlink:href="#DejaVuSans-72" transform="translate(422.400391 0)"/>
      <use xlink:href="#DejaVuSans-69" transform="translate(463.513672 0)"/>
      <use xlink:href="#DejaVuSans-63" transform="translate(491.296875 0)"/>
      <use xlink:href="#DejaVuSans-61" transform="translate(546.277344 0)"/>
      <use xlink:href="#DejaVuSans-20" transform="translate(607.556641 0)"/>
      <use xlink:href="#DejaVuSans-31" transform="translate(639.34375 0)"/>
      <use xlink:href="#DejaVuSans-32" transform="translate(702.966797 0)"/>
      <use xlink:href="#DejaVuSans-20" transform="translate(766.589844 0)"/>
      <use xlink:href="#DejaVuSans-68" transform="translate(798.376953 0)"/>
      <use xlink:href="#DejaVuSans-6f" transform="translate(861.755859 0)"/>
      <use xlink:href="#DejaVuSans-75" transform="translate(922.9375 0)"/>
      <use xlink:href="#DejaVuSans-72" transform="translate(986.316406 0)"/>
      <use xlink:href="#DejaVuSans-73" transform="translate(1027.429688 0)"/>
      <use xlink:href="#DejaVuSans-20" transform="translate(1079.529297 0)"/>
      <use xlink:href="#DejaVuSans-66" transform="translate(1111.316406 0)"/>
      <use xlink:href="#DejaVuSans-6f" transform="translate(1146.521484 0)"/>
      <use xlink:href="#DejaVuSans-72" transform="translate(1207.703125 0)"/>
      <use xlink:href="#DejaVuSans-77" transform="translate(1248.816406 0)"/>
      <use xlink:href="#DejaVuSans-61" transform="translate(1330.603516 0)"/>
      <use xlink:href="#DejaVuSans-72" transform="translate(1391.882812 0)"/>
      <use xlink:href="#DejaVuSans-64" transform="translate(1431.246094 0)"/>
      <use xlink:href="#DejaVuSans-20" transform="translate(1494.722656 0)"/>
      <use xlink:href="#DejaVuSans-70" transform="translate(1526.509766 0)"/>
      <use xlink:href="#DejaVuSans-72" transform="translate(1589.986328 0)"/>
      <use xlink:href="#DejaVuSans-65" transform="translate(1628.849609 0)"/>
      <use xlink:href="#DejaVuSans-64" transform="translate(1690.373047 0)"/>
      <use xlink:href="#DejaVuSans-69" transform="translate(1753.849609 0)"/>
      <use xlink:href="#DejaVuSans-63" transform="translate(1781.632812 0)"/>
      <use xlink:href="#DejaVuSans-74" transform="translate(1836.613281 0)"/>
      <use xlink:href="#DejaVuSans-69" transform="translate(1875.822266 0)"/>
      <use xlink:href="#DejaVuSans-6f" transform="translate(1903.605469 0)"/>
      <use xlink:href="#DejaVuSans-6e" transform="translate(1964.787109 0)"/>
     </g>
    </g>
   </g>
  </g>
 </g>
 <defs>
  <clipPath id="pec2ae14340">
   <rect x="108" y="69.12" width="669.6" height="443.52"/>
  </clipPath>
 </defs>
</svg>
