<?xml version="1.0" encoding="utf-8" standalone="no"?>
<!DOCTYPE svg PUBLIC "-//W3C//DTD SVG 1.1//EN"
  "http://www.w3.org/Graphics/SVG/1.1/DTD/svg11.dtd">
<svg xmlns:xlink="http://www.w3.org/1999/xlink" width="864pt" height="576pt" viewBox="0 0 864 576" xmlns="http://www.w3.org/2000/svg" version="1.1">
 <metadata>
  <rdf:RDF xmlns:dc="http://purl.org/dc/elements/1.1/" xmlns:cc="http://creativecommons.org/ns#" xmlns:rdf="http://www.w3.org/1999/02/22-rdf-syntax-ns#">
   <cc:Work>
    <dc:type rdf:resource="http://purl.org/dc/dcmitype/StillImage"/>
    <dc:date>2025-02-17T09:09:44.284798</dc:date>
    <dc:format>image/svg+xml</dc:format>
    <dc:creator>
     <cc:Agent>
      <dc:title>Matplotlib v3.10.0, https://matplotlib.org/</dc:title>
     </cc:Agent>
    </dc:creator>
   </cc:Work>
  </rdf:RDF>
 </metadata>
 <defs>
  <style type="text/css">*{stroke-linejoin: round; stroke-linecap: butt}</style>
 </defs>
 <g id="figure_1">
  <g id="patch_1">
   <path d="M 0 576 
L 864 576 
L 864 0 
L 0 0 
z
" style="fill: #ffffff"/>
  </g>
  <g id="axes_1">
   <g id="patch_2">
    <path d="M 108 512.64 
L 777.6 512.64 
L 777.6 69.12 
L 108 69.12 
z
" style="fill: #ffffff"/>
   </g>
   <g id="matplotlib.axis_1">
    <g id="xtick_1">
     <g id="line2d_1">
      <defs>
       <path id="mf54d27ceda" d="M 0 0 
L 0 3.5 
" style="stroke: #000000; stroke-width: 0.8"/>
      </defs>
      <g>
       <use xlink:href="#mf54d27ceda" x="138.436364" y="512.64" style="stroke: #000000; stroke-width: 0.8"/>
      </g>
     </g>
     <g id="text_1">
      <!-- 2022-01-01 (06:00) -->
      <g transform="translate(52.599101 575.178252) rotate(-30) scale(0.1 -0.1)">
       <defs>
        <path id="DejaVuSans-32" d="M 1228 531 
L 3431 531 
L 3431 0 
L 469 0 
L 469 531 
Q 828 903 1448 1529 
Q 2069 2156 2228 2338 
Q 2531 2678 2651 2914 
Q 2772 3150 2772 3378 
Q 2772 3750 2511 3984 
Q 2250 4219 1831 4219 
Q 1534 4219 1204 4116 
Q 875 4013 500 3803 
L 500 4441 
Q 881 4594 1212 4672 
Q 1544 4750 1819 4750 
Q 2544 4750 2975 4387 
Q 3406 4025 3406 3419 
Q 3406 3131 3298 2873 
Q 3191 2616 2906 2266 
Q 2828 2175 2409 1742 
Q 1991 1309 1228 531 
z
" transform="scale(0.015625)"/>
        <path id="DejaVuSans-30" d="M 2034 4250 
Q 1547 4250 1301 3770 
Q 1056 3291 1056 2328 
Q 1056 1369 1301 889 
Q 1547 409 2034 409 
Q 2525 409 2770 889 
Q 3016 1369 3016 2328 
Q 3016 3291 2770 3770 
Q 2525 4250 2034 4250 
z
M 2034 4750 
Q 2819 4750 3233 4129 
Q 3647 3509 3647 2328 
Q 3647 1150 3233 529 
Q 2819 -91 2034 -91 
Q 1250 -91 836 529 
Q 422 1150 422 2328 
Q 422 3509 836 4129 
Q 1250 4750 2034 4750 
z
" transform="scale(0.015625)"/>
        <path id="DejaVuSans-2d" d="M 313 2009 
L 1997 2009 
L 1997 1497 
L 313 1497 
L 313 2009 
z
" transform="scale(0.015625)"/>
        <path id="DejaVuSans-31" d="M 794 531 
L 1825 531 
L 1825 4091 
L 703 3866 
L 703 4441 
L 1819 4666 
L 2450 4666 
L 2450 531 
L 3481 531 
L 3481 0 
L 794 0 
L 794 531 
z
" transform="scale(0.015625)"/>
        <path id="DejaVuSans-20" transform="scale(0.015625)"/>
        <path id="DejaVuSans-28" d="M 1984 4856 
Q 1566 4138 1362 3434 
Q 1159 2731 1159 2009 
Q 1159 1288 1364 580 
Q 1569 -128 1984 -844 
L 1484 -844 
Q 1016 -109 783 600 
Q 550 1309 550 2009 
Q 550 2706 781 3412 
Q 1013 4119 1484 4856 
L 1984 4856 
z
" transform="scale(0.015625)"/>
        <path id="DejaVuSans-36" d="M 2113 2584 
Q 1688 2584 1439 2293 
Q 1191 2003 1191 1497 
Q 1191 994 1439 701 
Q 1688 409 2113 409 
Q 2538 409 2786 701 
Q 3034 994 3034 1497 
Q 3034 2003 2786 2293 
Q 2538 2584 2113 2584 
z
M 3366 4563 
L 3366 3988 
Q 3128 4100 2886 4159 
Q 2644 4219 2406 4219 
Q 1781 4219 1451 3797 
Q 1122 3375 1075 2522 
Q 1259 2794 1537 2939 
Q 1816 3084 2150 3084 
Q 2853 3084 3261 2657 
Q 3669 2231 3669 1497 
Q 3669 778 3244 343 
Q 2819 -91 2113 -91 
Q 1303 -91 875 529 
Q 447 1150 447 2328 
Q 447 3434 972 4092 
Q 1497 4750 2381 4750 
Q 2619 4750 2861 4703 
Q 3103 4656 3366 4563 
z
" transform="scale(0.015625)"/>
        <path id="DejaVuSans-3a" d="M 750 794 
L 1409 794 
L 1409 0 
L 750 0 
L 750 794 
z
M 750 3309 
L 1409 3309 
L 1409 2516 
L 750 2516 
L 750 3309 
z
" transform="scale(0.015625)"/>
        <path id="DejaVuSans-29" d="M 513 4856 
L 1013 4856 
Q 1481 4119 1714 3412 
Q 1947 2706 1947 2009 
Q 1947 1309 1714 600 
Q 1481 -109 1013 -844 
L 513 -844 
Q 928 -128 1133 580 
Q 1338 1288 1338 2009 
Q 1338 2731 1133 3434 
Q 928 4138 513 4856 
z
" transform="scale(0.015625)"/>
       </defs>
       <use xlink:href="#DejaVuSans-32"/>
       <use xlink:href="#DejaVuSans-30" transform="translate(63.623047 0)"/>
       <use xlink:href="#DejaVuSans-32" transform="translate(127.246094 0)"/>
       <use xlink:href="#DejaVuSans-32" transform="translate(190.869141 0)"/>
       <use xlink:href="#DejaVuSans-2d" transform="translate(254.492188 0)"/>
       <use xlink:href="#DejaVuSans-30" transform="translate(290.576172 0)"/>
       <use xlink:href="#DejaVuSans-31" transform="translate(354.199219 0)"/>
       <use xlink:href="#DejaVuSans-2d" transform="translate(417.822266 0)"/>
       <use xlink:href="#DejaVuSans-30" transform="translate(453.90625 0)"/>
       <use xlink:href="#DejaVuSans-31" transform="translate(517.529297 0)"/>
       <use xlink:href="#DejaVuSans-20" transform="translate(581.152344 0)"/>
       <use xlink:href="#DejaVuSans-28" transform="translate(612.939453 0)"/>
       <use xlink:href="#DejaVuSans-30" transform="translate(651.953125 0)"/>
       <use xlink:href="#DejaVuSans-36" transform="translate(715.576172 0)"/>
       <use xlink:href="#DejaVuSans-3a" transform="translate(779.199219 0)"/>
       <use xlink:href="#DejaVuSans-30" transform="translate(812.890625 0)"/>
       <use xlink:href="#DejaVuSans-30" transform="translate(876.513672 0)"/>
       <use xlink:href="#DejaVuSans-29" transform="translate(940.136719 0)"/>
      </g>
     </g>
    </g>
    <g id="xtick_2">
     <g id="line2d_2">
      <g>
       <use xlink:href="#mf54d27ceda" x="258.226068" y="512.64" style="stroke: #000000; stroke-width: 0.8"/>
      </g>
     </g>
     <g id="text_2">
      <!-- 2022-03-15 (18:00) -->
      <g transform="translate(172.388805 575.178252) rotate(-30) scale(0.1 -0.1)">
       <defs>
        <path id="DejaVuSans-33" d="M 2597 2516 
Q 3050 2419 3304 2112 
Q 3559 1806 3559 1356 
Q 3559 666 3084 287 
Q 2609 -91 1734 -91 
Q 1441 -91 1130 -33 
Q 819 25 488 141 
L 488 750 
Q 750 597 1062 519 
Q 1375 441 1716 441 
Q 2309 441 2620 675 
Q 2931 909 2931 1356 
Q 2931 1769 2642 2001 
Q 2353 2234 1838 2234 
L 1294 2234 
L 1294 2753 
L 1863 2753 
Q 2328 2753 2575 2939 
Q 2822 3125 2822 3475 
Q 2822 3834 2567 4026 
Q 2313 4219 1838 4219 
Q 1578 4219 1281 4162 
Q 984 4106 628 3988 
L 628 4550 
Q 988 4650 1302 4700 
Q 1616 4750 1894 4750 
Q 2613 4750 3031 4423 
Q 3450 4097 3450 3541 
Q 3450 3153 3228 2886 
Q 3006 2619 2597 2516 
z
" transform="scale(0.015625)"/>
        <path id="DejaVuSans-35" d="M 691 4666 
L 3169 4666 
L 3169 4134 
L 1269 4134 
L 1269 2991 
Q 1406 3038 1543 3061 
Q 1681 3084 1819 3084 
Q 2600 3084 3056 2656 
Q 3513 2228 3513 1497 
Q 3513 744 3044 326 
Q 2575 -91 1722 -91 
Q 1428 -91 1123 -41 
Q 819 9 494 109 
L 494 744 
Q 775 591 1075 516 
Q 1375 441 1709 441 
Q 2250 441 2565 725 
Q 2881 1009 2881 1497 
Q 2881 1984 2565 2268 
Q 2250 2553 1709 2553 
Q 1456 2553 1204 2497 
Q 953 2441 691 2322 
L 691 4666 
z
" transform="scale(0.015625)"/>
        <path id="DejaVuSans-38" d="M 2034 2216 
Q 1584 2216 1326 1975 
Q 1069 1734 1069 1313 
Q 1069 891 1326 650 
Q 1584 409 2034 409 
Q 2484 409 2743 651 
Q 3003 894 3003 1313 
Q 3003 1734 2745 1975 
Q 2488 2216 2034 2216 
z
M 1403 2484 
Q 997 2584 770 2862 
Q 544 3141 544 3541 
Q 544 4100 942 4425 
Q 1341 4750 2034 4750 
Q 2731 4750 3128 4425 
Q 3525 4100 3525 3541 
Q 3525 3141 3298 2862 
Q 3072 2584 2669 2484 
Q 3125 2378 3379 2068 
Q 3634 1759 3634 1313 
Q 3634 634 3220 271 
Q 2806 -91 2034 -91 
Q 1263 -91 848 271 
Q 434 634 434 1313 
Q 434 1759 690 2068 
Q 947 2378 1403 2484 
z
M 1172 3481 
Q 1172 3119 1398 2916 
Q 1625 2713 2034 2713 
Q 2441 2713 2670 2916 
Q 2900 3119 2900 3481 
Q 2900 3844 2670 4047 
Q 2441 4250 2034 4250 
Q 1625 4250 1398 4047 
Q 1172 3844 1172 3481 
z
" transform="scale(0.015625)"/>
       </defs>
       <use xlink:href="#DejaVuSans-32"/>
       <use xlink:href="#DejaVuSans-30" transform="translate(63.623047 0)"/>
       <use xlink:href="#DejaVuSans-32" transform="translate(127.246094 0)"/>
       <use xlink:href="#DejaVuSans-32" transform="translate(190.869141 0)"/>
       <use xlink:href="#DejaVuSans-2d" transform="translate(254.492188 0)"/>
       <use xlink:href="#DejaVuSans-30" transform="translate(290.576172 0)"/>
       <use xlink:href="#DejaVuSans-33" transform="translate(354.199219 0)"/>
       <use xlink:href="#DejaVuSans-2d" transform="translate(417.822266 0)"/>
       <use xlink:href="#DejaVuSans-31" transform="translate(453.90625 0)"/>
       <use xlink:href="#DejaVuSans-35" transform="translate(517.529297 0)"/>
       <use xlink:href="#DejaVuSans-20" transform="translate(581.152344 0)"/>
       <use xlink:href="#DejaVuSans-28" transform="translate(612.939453 0)"/>
       <use xlink:href="#DejaVuSans-31" transform="translate(651.953125 0)"/>
       <use xlink:href="#DejaVuSans-38" transform="translate(715.576172 0)"/>
       <use xlink:href="#DejaVuSans-3a" transform="translate(779.199219 0)"/>
       <use xlink:href="#DejaVuSans-30" transform="translate(812.890625 0)"/>
       <use xlink:href="#DejaVuSans-30" transform="translate(876.513672 0)"/>
       <use xlink:href="#DejaVuSans-29" transform="translate(940.136719 0)"/>
      </g>
     </g>
    </g>
    <g id="xtick_3">
     <g id="line2d_3">
      <g>
       <use xlink:href="#mf54d27ceda" x="380.46046" y="512.64" style="stroke: #000000; stroke-width: 0.8"/>
      </g>
     </g>
     <g id="text_3">
      <!-- 2022-05-29 (18:00) -->
      <g transform="translate(294.623198 575.178252) rotate(-30) scale(0.1 -0.1)">
       <defs>
        <path id="DejaVuSans-39" d="M 703 97 
L 703 672 
Q 941 559 1184 500 
Q 1428 441 1663 441 
Q 2288 441 2617 861 
Q 2947 1281 2994 2138 
Q 2813 1869 2534 1725 
Q 2256 1581 1919 1581 
Q 1219 1581 811 2004 
Q 403 2428 403 3163 
Q 403 3881 828 4315 
Q 1253 4750 1959 4750 
Q 2769 4750 3195 4129 
Q 3622 3509 3622 2328 
Q 3622 1225 3098 567 
Q 2575 -91 1691 -91 
Q 1453 -91 1209 -44 
Q 966 3 703 97 
z
M 1959 2075 
Q 2384 2075 2632 2365 
Q 2881 2656 2881 3163 
Q 2881 3666 2632 3958 
Q 2384 4250 1959 4250 
Q 1534 4250 1286 3958 
Q 1038 3666 1038 3163 
Q 1038 2656 1286 2365 
Q 1534 2075 1959 2075 
z
" transform="scale(0.015625)"/>
       </defs>
       <use xlink:href="#DejaVuSans-32"/>
       <use xlink:href="#DejaVuSans-30" transform="translate(63.623047 0)"/>
       <use xlink:href="#DejaVuSans-32" transform="translate(127.246094 0)"/>
       <use xlink:href="#DejaVuSans-32" transform="translate(190.869141 0)"/>
       <use xlink:href="#DejaVuSans-2d" transform="translate(254.492188 0)"/>
       <use xlink:href="#DejaVuSans-30" transform="translate(290.576172 0)"/>
       <use xlink:href="#DejaVuSans-35" transform="translate(354.199219 0)"/>
       <use xlink:href="#DejaVuSans-2d" transform="translate(417.822266 0)"/>
       <use xlink:href="#DejaVuSans-32" transform="translate(453.90625 0)"/>
       <use xlink:href="#DejaVuSans-39" transform="translate(517.529297 0)"/>
       <use xlink:href="#DejaVuSans-20" transform="translate(581.152344 0)"/>
       <use xlink:href="#DejaVuSans-28" transform="translate(612.939453 0)"/>
       <use xlink:href="#DejaVuSans-31" transform="translate(651.953125 0)"/>
       <use xlink:href="#DejaVuSans-38" transform="translate(715.576172 0)"/>
       <use xlink:href="#DejaVuSans-3a" transform="translate(779.199219 0)"/>
       <use xlink:href="#DejaVuSans-30" transform="translate(812.890625 0)"/>
       <use xlink:href="#DejaVuSans-30" transform="translate(876.513672 0)"/>
       <use xlink:href="#DejaVuSans-29" transform="translate(940.136719 0)"/>
      </g>
     </g>
    </g>
    <g id="xtick_4">
     <g id="line2d_4">
      <g>
       <use xlink:href="#mf54d27ceda" x="502.694852" y="512.64" style="stroke: #000000; stroke-width: 0.8"/>
      </g>
     </g>
     <g id="text_4">
      <!-- 2022-08-12 (18:00) -->
      <g transform="translate(416.85759 575.178252) rotate(-30) scale(0.1 -0.1)">
       <use xlink:href="#DejaVuSans-32"/>
       <use xlink:href="#DejaVuSans-30" transform="translate(63.623047 0)"/>
       <use xlink:href="#DejaVuSans-32" transform="translate(127.246094 0)"/>
       <use xlink:href="#DejaVuSans-32" transform="translate(190.869141 0)"/>
       <use xlink:href="#DejaVuSans-2d" transform="translate(254.492188 0)"/>
       <use xlink:href="#DejaVuSans-30" transform="translate(290.576172 0)"/>
       <use xlink:href="#DejaVuSans-38" transform="translate(354.199219 0)"/>
       <use xlink:href="#DejaVuSans-2d" transform="translate(417.822266 0)"/>
       <use xlink:href="#DejaVuSans-31" transform="translate(453.90625 0)"/>
       <use xlink:href="#DejaVuSans-32" transform="translate(517.529297 0)"/>
       <use xlink:href="#DejaVuSans-20" transform="translate(581.152344 0)"/>
       <use xlink:href="#DejaVuSans-28" transform="translate(612.939453 0)"/>
       <use xlink:href="#DejaVuSans-31" transform="translate(651.953125 0)"/>
       <use xlink:href="#DejaVuSans-38" transform="translate(715.576172 0)"/>
       <use xlink:href="#DejaVuSans-3a" transform="translate(779.199219 0)"/>
       <use xlink:href="#DejaVuSans-30" transform="translate(812.890625 0)"/>
       <use xlink:href="#DejaVuSans-30" transform="translate(876.513672 0)"/>
       <use xlink:href="#DejaVuSans-29" transform="translate(940.136719 0)"/>
      </g>
     </g>
    </g>
    <g id="xtick_5">
     <g id="line2d_5">
      <g>
       <use xlink:href="#mf54d27ceda" x="624.929244" y="512.64" style="stroke: #000000; stroke-width: 0.8"/>
      </g>
     </g>
     <g id="text_5">
      <!-- 2022-10-26 (18:00) -->
      <g transform="translate(539.091982 575.178252) rotate(-30) scale(0.1 -0.1)">
       <use xlink:href="#DejaVuSans-32"/>
       <use xlink:href="#DejaVuSans-30" transform="translate(63.623047 0)"/>
       <use xlink:href="#DejaVuSans-32" transform="translate(127.246094 0)"/>
       <use xlink:href="#DejaVuSans-32" transform="translate(190.869141 0)"/>
       <use xlink:href="#DejaVuSans-2d" transform="translate(254.492188 0)"/>
       <use xlink:href="#DejaVuSans-31" transform="translate(290.576172 0)"/>
       <use xlink:href="#DejaVuSans-30" transform="translate(354.199219 0)"/>
       <use xlink:href="#DejaVuSans-2d" transform="translate(417.822266 0)"/>
       <use xlink:href="#DejaVuSans-32" transform="translate(453.90625 0)"/>
       <use xlink:href="#DejaVuSans-36" transform="translate(517.529297 0)"/>
       <use xlink:href="#DejaVuSans-20" transform="translate(581.152344 0)"/>
       <use xlink:href="#DejaVuSans-28" transform="translate(612.939453 0)"/>
       <use xlink:href="#DejaVuSans-31" transform="translate(651.953125 0)"/>
       <use xlink:href="#DejaVuSans-38" transform="translate(715.576172 0)"/>
       <use xlink:href="#DejaVuSans-3a" transform="translate(779.199219 0)"/>
       <use xlink:href="#DejaVuSans-30" transform="translate(812.890625 0)"/>
       <use xlink:href="#DejaVuSans-30" transform="translate(876.513672 0)"/>
       <use xlink:href="#DejaVuSans-29" transform="translate(940.136719 0)"/>
      </g>
     </g>
    </g>
    <g id="xtick_6">
     <g id="line2d_6">
      <g>
       <use xlink:href="#mf54d27ceda" x="747.163636" y="512.64" style="stroke: #000000; stroke-width: 0.8"/>
      </g>
     </g>
     <g id="text_6">
      <!-- 2023-01-09 (18:00) -->
      <g transform="translate(661.326374 575.178252) rotate(-30) scale(0.1 -0.1)">
       <use xlink:href="#DejaVuSans-32"/>
       <use xlink:href="#DejaVuSans-30" transform="translate(63.623047 0)"/>
       <use xlink:href="#DejaVuSans-32" transform="translate(127.246094 0)"/>
       <use xlink:href="#DejaVuSans-33" transform="translate(190.869141 0)"/>
       <use xlink:href="#DejaVuSans-2d" transform="translate(254.492188 0)"/>
       <use xlink:href="#DejaVuSans-30" transform="translate(290.576172 0)"/>
       <use xlink:href="#DejaVuSans-31" transform="translate(354.199219 0)"/>
       <use xlink:href="#DejaVuSans-2d" transform="translate(417.822266 0)"/>
       <use xlink:href="#DejaVuSans-30" transform="translate(453.90625 0)"/>
       <use xlink:href="#DejaVuSans-39" transform="translate(517.529297 0)"/>
       <use xlink:href="#DejaVuSans-20" transform="translate(581.152344 0)"/>
       <use xlink:href="#DejaVuSans-28" transform="translate(612.939453 0)"/>
       <use xlink:href="#DejaVuSans-31" transform="translate(651.953125 0)"/>
       <use xlink:href="#DejaVuSans-38" transform="translate(715.576172 0)"/>
       <use xlink:href="#DejaVuSans-3a" transform="translate(779.199219 0)"/>
       <use xlink:href="#DejaVuSans-30" transform="translate(812.890625 0)"/>
       <use xlink:href="#DejaVuSans-30" transform="translate(876.513672 0)"/>
       <use xlink:href="#DejaVuSans-29" transform="translate(940.136719 0)"/>
      </g>
     </g>
    </g>
    <g id="text_7">
     <!-- Dates -->
     <g transform="translate(428.244531 588.577752) scale(0.1 -0.1)">
      <defs>
       <path id="DejaVuSans-44" d="M 1259 4147 
L 1259 519 
L 2022 519 
Q 2988 519 3436 956 
Q 3884 1394 3884 2338 
Q 3884 3275 3436 3711 
Q 2988 4147 2022 4147 
L 1259 4147 
z
M 628 4666 
L 1925 4666 
Q 3281 4666 3915 4102 
Q 4550 3538 4550 2338 
Q 4550 1131 3912 565 
Q 3275 0 1925 0 
L 628 0 
L 628 4666 
z
" transform="scale(0.015625)"/>
       <path id="DejaVuSans-61" d="M 2194 1759 
Q 1497 1759 1228 1600 
Q 959 1441 959 1056 
Q 959 750 1161 570 
Q 1363 391 1709 391 
Q 2188 391 2477 730 
Q 2766 1069 2766 1631 
L 2766 1759 
L 2194 1759 
z
M 3341 1997 
L 3341 0 
L 2766 0 
L 2766 531 
Q 2569 213 2275 61 
Q 1981 -91 1556 -91 
Q 1019 -91 701 211 
Q 384 513 384 1019 
Q 384 1609 779 1909 
Q 1175 2209 1959 2209 
L 2766 2209 
L 2766 2266 
Q 2766 2663 2505 2880 
Q 2244 3097 1772 3097 
Q 1472 3097 1187 3025 
Q 903 2953 641 2809 
L 641 3341 
Q 956 3463 1253 3523 
Q 1550 3584 1831 3584 
Q 2591 3584 2966 3190 
Q 3341 2797 3341 1997 
z
" transform="scale(0.015625)"/>
       <path id="DejaVuSans-74" d="M 1172 4494 
L 1172 3500 
L 2356 3500 
L 2356 3053 
L 1172 3053 
L 1172 1153 
Q 1172 725 1289 603 
Q 1406 481 1766 481 
L 2356 481 
L 2356 0 
L 1766 0 
Q 1100 0 847 248 
Q 594 497 594 1153 
L 594 3053 
L 172 3053 
L 172 3500 
L 594 3500 
L 594 4494 
L 1172 4494 
z
" transform="scale(0.015625)"/>
       <path id="DejaVuSans-65" d="M 3597 1894 
L 3597 1613 
L 953 1613 
Q 991 1019 1311 708 
Q 1631 397 2203 397 
Q 2534 397 2845 478 
Q 3156 559 3463 722 
L 3463 178 
Q 3153 47 2828 -22 
Q 2503 -91 2169 -91 
Q 1331 -91 842 396 
Q 353 884 353 1716 
Q 353 2575 817 3079 
Q 1281 3584 2069 3584 
Q 2775 3584 3186 3129 
Q 3597 2675 3597 1894 
z
M 3022 2063 
Q 3016 2534 2758 2815 
Q 2500 3097 2075 3097 
Q 1594 3097 1305 2825 
Q 1016 2553 972 2059 
L 3022 2063 
z
" transform="scale(0.015625)"/>
       <path id="DejaVuSans-73" d="M 2834 3397 
L 2834 2853 
Q 2591 2978 2328 3040 
Q 2066 3103 1784 3103 
Q 1356 3103 1142 2972 
Q 928 2841 928 2578 
Q 928 2378 1081 2264 
Q 1234 2150 1697 2047 
L 1894 2003 
Q 2506 1872 2764 1633 
Q 3022 1394 3022 966 
Q 3022 478 2636 193 
Q 2250 -91 1575 -91 
Q 1294 -91 989 -36 
Q 684 19 347 128 
L 347 722 
Q 666 556 975 473 
Q 1284 391 1588 391 
Q 1994 391 2212 530 
Q 2431 669 2431 922 
Q 2431 1156 2273 1281 
Q 2116 1406 1581 1522 
L 1381 1569 
Q 847 1681 609 1914 
Q 372 2147 372 2553 
Q 372 3047 722 3315 
Q 1072 3584 1716 3584 
Q 2034 3584 2315 3537 
Q 2597 3491 2834 3397 
z
" transform="scale(0.015625)"/>
      </defs>
      <use xlink:href="#DejaVuSans-44"/>
      <use xlink:href="#DejaVuSans-61" transform="translate(77.001953 0)"/>
      <use xlink:href="#DejaVuSans-74" transform="translate(138.28125 0)"/>
      <use xlink:href="#DejaVuSans-65" transform="translate(177.490234 0)"/>
      <use xlink:href="#DejaVuSans-73" transform="translate(239.013672 0)"/>
     </g>
    </g>
   </g>
   <g id="matplotlib.axis_2">
    <g id="ytick_1">
     <g id="line2d_7">
      <defs>
       <path id="md5b5dd7144" d="M 0 0 
L -3.5 0 
" style="stroke: #000000; stroke-width: 0.8"/>
      </defs>
      <g>
       <use xlink:href="#md5b5dd7144" x="108" y="483.231237" style="stroke: #000000; stroke-width: 0.8"/>
      </g>
     </g>
     <g id="text_8">
      <!-- 2 -->
      <g transform="translate(94.6375 487.030456) scale(0.1 -0.1)">
       <use xlink:href="#DejaVuSans-32"/>
      </g>
     </g>
    </g>
    <g id="ytick_2">
     <g id="line2d_8">
      <g>
       <use xlink:href="#md5b5dd7144" x="108" y="396.913636" style="stroke: #000000; stroke-width: 0.8"/>
      </g>
     </g>
     <g id="text_9">
      <!-- 4 -->
      <g transform="translate(94.6375 400.712855) scale(0.1 -0.1)">
       <defs>
        <path id="DejaVuSans-34" d="M 2419 4116 
L 825 1625 
L 2419 1625 
L 2419 4116 
z
M 2253 4666 
L 3047 4666 
L 3047 1625 
L 3713 1625 
L 3713 1100 
L 3047 1100 
L 3047 0 
L 2419 0 
L 2419 1100 
L 313 1100 
L 313 1709 
L 2253 4666 
z
" transform="scale(0.015625)"/>
       </defs>
       <use xlink:href="#DejaVuSans-34"/>
      </g>
     </g>
    </g>
    <g id="ytick_3">
     <g id="line2d_9">
      <g>
       <use xlink:href="#md5b5dd7144" x="108" y="310.596035" style="stroke: #000000; stroke-width: 0.8"/>
      </g>
     </g>
     <g id="text_10">
      <!-- 6 -->
      <g transform="translate(94.6375 314.395254) scale(0.1 -0.1)">
       <use xlink:href="#DejaVuSans-36"/>
      </g>
     </g>
    </g>
    <g id="ytick_4">
     <g id="line2d_10">
      <g>
       <use xlink:href="#md5b5dd7144" x="108" y="224.278434" style="stroke: #000000; stroke-width: 0.8"/>
      </g>
     </g>
     <g id="text_11">
      <!-- 8 -->
      <g transform="translate(94.6375 228.077653) scale(0.1 -0.1)">
       <use xlink:href="#DejaVuSans-38"/>
      </g>
     </g>
    </g>
    <g id="ytick_5">
     <g id="line2d_11">
      <g>
       <use xlink:href="#md5b5dd7144" x="108" y="137.960833" style="stroke: #000000; stroke-width: 0.8"/>
      </g>
     </g>
     <g id="text_12">
      <!-- 10 -->
      <g transform="translate(88.275 141.760052) scale(0.1 -0.1)">
       <use xlink:href="#DejaVuSans-31"/>
       <use xlink:href="#DejaVuSans-30" transform="translate(63.623047 0)"/>
      </g>
     </g>
    </g>
    <g id="text_13">
     <!-- RMSEs -->
     <g transform="translate(82.195312 307.606562) rotate(-90) scale(0.1 -0.1)">
      <defs>
       <path id="DejaVuSans-52" d="M 2841 2188 
Q 3044 2119 3236 1894 
Q 3428 1669 3622 1275 
L 4263 0 
L 3584 0 
L 2988 1197 
Q 2756 1666 2539 1819 
Q 2322 1972 1947 1972 
L 1259 1972 
L 1259 0 
L 628 0 
L 628 4666 
L 2053 4666 
Q 2853 4666 3247 4331 
Q 3641 3997 3641 3322 
Q 3641 2881 3436 2590 
Q 3231 2300 2841 2188 
z
M 1259 4147 
L 1259 2491 
L 2053 2491 
Q 2509 2491 2742 2702 
Q 2975 2913 2975 3322 
Q 2975 3731 2742 3939 
Q 2509 4147 2053 4147 
L 1259 4147 
z
" transform="scale(0.015625)"/>
       <path id="DejaVuSans-4d" d="M 628 4666 
L 1569 4666 
L 2759 1491 
L 3956 4666 
L 4897 4666 
L 4897 0 
L 4281 0 
L 4281 4097 
L 3078 897 
L 2444 897 
L 1241 4097 
L 1241 0 
L 628 0 
L 628 4666 
z
" transform="scale(0.015625)"/>
       <path id="DejaVuSans-53" d="M 3425 4513 
L 3425 3897 
Q 3066 4069 2747 4153 
Q 2428 4238 2131 4238 
Q 1616 4238 1336 4038 
Q 1056 3838 1056 3469 
Q 1056 3159 1242 3001 
Q 1428 2844 1947 2747 
L 2328 2669 
Q 3034 2534 3370 2195 
Q 3706 1856 3706 1288 
Q 3706 609 3251 259 
Q 2797 -91 1919 -91 
Q 1588 -91 1214 -16 
Q 841 59 441 206 
L 441 856 
Q 825 641 1194 531 
Q 1563 422 1919 422 
Q 2459 422 2753 634 
Q 3047 847 3047 1241 
Q 3047 1584 2836 1778 
Q 2625 1972 2144 2069 
L 1759 2144 
Q 1053 2284 737 2584 
Q 422 2884 422 3419 
Q 422 4038 858 4394 
Q 1294 4750 2059 4750 
Q 2388 4750 2728 4690 
Q 3069 4631 3425 4513 
z
" transform="scale(0.015625)"/>
       <path id="DejaVuSans-45" d="M 628 4666 
L 3578 4666 
L 3578 4134 
L 1259 4134 
L 1259 2753 
L 3481 2753 
L 3481 2222 
L 1259 2222 
L 1259 531 
L 3634 531 
L 3634 0 
L 628 0 
L 628 4666 
z
" transform="scale(0.015625)"/>
      </defs>
      <use xlink:href="#DejaVuSans-52"/>
      <use xlink:href="#DejaVuSans-4d" transform="translate(69.482422 0)"/>
      <use xlink:href="#DejaVuSans-53" transform="translate(155.761719 0)"/>
      <use xlink:href="#DejaVuSans-45" transform="translate(219.238281 0)"/>
      <use xlink:href="#DejaVuSans-73" transform="translate(282.421875 0)"/>
     </g>
    </g>
   </g>
   <g id="line2d_12">
    <path d="M 138.436364 322.767849 
L 140.881051 348.599534 
L 143.325739 329.497026 
L 145.770427 304.663458 
L 148.215115 319.625408 
L 150.659803 328.345262 
L 153.104491 327.318189 
L 155.549179 339.945782 
L 157.993866 334.586082 
L 160.438554 335.653161 
L 162.883242 314.568888 
L 165.32793 317.963842 
L 167.772618 308.144065 
L 170.217306 317.664387 
L 172.661993 323.622586 
L 175.106681 323.931015 
L 177.551369 350.090082 
L 179.996057 342.848181 
L 182.440745 337.303984 
L 184.885433 328.965534 
L 187.33012 329.577102 
L 189.774808 335.760814 
L 192.219496 339.523363 
L 194.664184 330.775788 
L 197.108872 343.425771 
L 199.55356 341.175153 
L 201.998248 342.836533 
L 204.442935 347.311984 
L 206.887623 341.372739 
L 209.332311 328.839442 
L 211.776999 329.702391 
L 214.221687 332.149937 
L 216.666375 319.263678 
L 219.111062 323.900412 
L 221.55575 327.596345 
L 224.000438 329.151904 
L 226.445126 339.637539 
L 228.889814 336.148145 
L 231.334502 339.670775 
L 233.779189 344.432737 
L 236.223877 336.488471 
L 238.668565 334.202579 
L 241.113253 329.339488 
L 243.557941 336.546712 
L 246.002629 332.213405 
L 248.447317 347.098675 
L 250.892004 349.706537 
L 253.336692 306.091608 
L 255.78138 296.673772 
L 258.226068 337.014715 
L 260.670756 327.311254 
L 263.115444 319.635122 
L 265.560131 318.853833 
L 268.004819 318.27153 
L 270.449507 324.791658 
L 272.894195 344.641951 
L 275.338883 333.522378 
L 277.783571 301.254324 
L 280.228258 297.210121 
L 282.672946 305.091434 
L 285.117634 313.707051 
L 287.562322 334.656238 
L 290.00701 324.715822 
L 292.451698 333.59877 
L 294.896386 322.996366 
L 297.341073 341.008395 
L 299.785761 339.703806 
L 302.230449 326.300954 
L 304.675137 333.993016 
L 307.119825 354.516244 
L 309.564513 327.960544 
L 312.0092 317.579454 
L 314.453888 328.731954 
L 316.898576 310.577946 
L 319.343264 321.475113 
L 321.787952 329.660244 
L 324.23264 348.23838 
L 326.677327 341.188509 
L 329.122015 338.073912 
L 331.566703 320.958027 
L 334.011391 331.118173 
L 336.456079 330.259422 
L 338.900767 324.917318 
L 341.345455 333.405773 
L 343.790142 325.656212 
L 346.23483 328.979858 
L 348.679518 335.667094 
L 351.124206 333.209566 
L 353.568894 352.825929 
L 356.013582 323.341344 
L 358.458269 305.174411 
L 360.902957 324.250906 
L 363.347645 331.511801 
L 365.792333 318.331787 
L 368.237021 303.653858 
L 370.681709 327.884955 
L 373.126396 337.24741 
L 375.571084 353.56009 
L 378.015772 352.507684 
L 380.46046 343.268542 
L 382.905148 310.840378 
L 385.349836 324.930119 
L 387.794524 332.514877 
L 390.239211 337.238726 
L 392.683899 329.414604 
L 395.128587 358.323575 
L 397.573275 346.325866 
L 400.017963 328.187292 
L 402.462651 342.382359 
L 404.907338 339.617474 
L 407.352026 328.926536 
L 409.796714 322.133726 
L 412.241402 304.908418 
L 414.68609 309.993338 
L 417.130778 330.148745 
L 419.575465 359.372749 
L 422.020153 336.756728 
L 424.464841 338.158763 
L 426.909529 343.218287 
L 429.354217 351.653358 
L 431.798905 340.395037 
L 434.243593 333.034762 
L 436.68828 326.513811 
L 439.132968 341.541513 
L 441.577656 332.275412 
L 444.022344 308.015832 
L 446.467032 292.819314 
L 448.91172 285.611021 
L 451.356407 295.957331 
L 453.801095 327.256039 
L 456.245783 308.154889 
L 458.690471 309.261132 
L 461.135159 306.943629 
L 463.579847 341.276837 
L 466.024535 359.94894 
L 468.469222 334.470795 
L 470.91391 336.597276 
L 473.358598 341.096209 
L 475.803286 334.692932 
L 478.247974 335.070714 
L 480.692662 336.825752 
L 483.137349 319.701656 
L 485.582037 334.115877 
L 488.026725 333.796006 
L 490.471413 322.821397 
L 492.916101 308.395137 
L 495.360789 325.264519 
L 497.805476 336.281337 
L 500.250164 328.730102 
L 502.694852 331.356466 
L 505.13954 343.576168 
L 507.584228 334.475837 
L 510.028916 314.29417 
L 512.473604 313.288068 
L 514.918291 322.206784 
L 517.362979 315.616808 
L 522.252355 340.004373 
L 524.697043 336.032939 
L 527.141731 339.613996 
L 529.586418 322.139303 
L 532.031106 344.087924 
L 534.475794 334.64459 
L 536.920482 311.744342 
L 539.36517 300.275861 
L 541.809858 293.261449 
L 544.254545 301.88501 
L 546.699233 328.56816 
L 549.143921 340.254725 
L 551.588609 320.900095 
L 554.033297 292.105507 
L 556.477985 302.150345 
L 558.922673 346.616081 
L 561.36736 351.214722 
L 563.812048 341.179824 
L 566.256736 336.289836 
L 568.701424 333.261489 
L 571.146112 314.890982 
L 573.5908 311.495637 
L 576.035487 304.570972 
L 578.480175 294.929435 
L 580.924863 299.639969 
L 583.369551 318.468828 
L 585.814239 326.166939 
L 588.258927 302.551999 
L 590.703614 302.282899 
L 593.148302 302.987713 
L 595.59299 315.210688 
L 598.037678 323.67597 
L 600.482366 301.227138 
L 602.927054 315.852404 
L 605.371742 298.764322 
L 607.816429 297.682405 
L 610.261117 306.224347 
L 612.705805 316.762522 
L 615.150493 336.267507 
L 617.595181 325.900473 
L 620.039869 338.250178 
L 622.484556 359.521294 
L 624.929244 356.137947 
L 627.373932 330.393417 
L 629.81862 300.892615 
L 632.263308 286.039202 
L 634.707996 308.2078 
L 637.152683 337.359426 
L 639.597371 315.650579 
L 642.042059 333.541805 
L 644.486747 337.051224 
L 646.931435 331.485295 
L 649.376123 325.067097 
L 651.820811 347.178113 
L 654.265498 338.015466 
L 656.710186 318.995607 
L 659.154874 333.640814 
L 661.599562 328.865517 
L 664.04425 334.088711 
L 666.488938 338.683381 
L 668.933625 339.534455 
L 671.378313 327.101444 
L 673.823001 335.343642 
L 676.267689 311.372796 
L 678.712377 333.03077 
L 681.157065 311.82024 
L 683.601752 327.692596 
L 686.04644 327.036577 
L 688.491128 347.342133 
L 690.935816 321.791629 
L 693.380504 318.156016 
L 695.825192 343.367942 
L 698.26988 319.17002 
L 700.714567 314.811997 
L 705.603943 333.244758 
L 708.048631 349.941331 
L 710.493319 367.594574 
L 712.938007 358.335861 
L 715.382694 343.981115 
L 717.827382 317.701245 
L 720.27207 353.332314 
L 722.716758 349.185521 
L 725.161446 326.886159 
L 727.606134 325.986105 
L 730.050821 357.244889 
L 732.495509 362.992702 
L 734.940197 356.049289 
L 737.384885 352.081211 
L 739.829573 353.777864 
L 742.274261 343.316082 
L 744.718949 341.366441 
L 747.163636 339.802197 
L 747.163636 339.802197 
" clip-path="url(#pb1d4b464a4)" style="fill: none; stroke: #1f77b4; stroke-width: 1.5; stroke-linecap: square"/>
   </g>
   <g id="line2d_13">
    <path d="M 138.436364 420.653465 
L 140.881051 337.639331 
L 143.325739 363.193724 
L 145.770427 358.515769 
L 148.215115 393.608698 
L 150.659803 445.626553 
L 153.104491 408.269824 
L 155.549179 318.608173 
L 160.438554 457.25747 
L 162.883242 422.802821 
L 165.32793 416.65854 
L 167.772618 438.463946 
L 170.217306 406.491047 
L 172.661993 428.425571 
L 175.106681 421.691454 
L 177.551369 375.885464 
L 182.440745 415.286829 
L 184.885433 387.463738 
L 187.33012 409.426353 
L 189.774808 462.477464 
L 192.219496 392.60877 
L 194.664184 280.178777 
L 197.108872 306.726719 
L 199.55356 417.329377 
L 201.998248 425.223397 
L 204.442935 421.950892 
L 206.887623 469.477543 
L 209.332311 445.174376 
L 211.776999 325.612645 
L 214.221687 302.900002 
L 216.666375 305.52441 
L 219.111062 335.289929 
L 224.000438 460.297856 
L 226.445126 455.767076 
L 228.889814 426.761176 
L 231.334502 437.810736 
L 233.779189 447.536753 
L 236.223877 436.315671 
L 238.668565 402.196471 
L 241.113253 371.194872 
L 243.557941 403.555401 
L 246.002629 397.73131 
L 248.447317 397.694616 
L 250.892004 438.721399 
L 253.336692 389.478389 
L 255.78138 231.47864 
L 258.226068 318.495725 
L 260.670756 446.002504 
L 263.115444 418.579368 
L 268.004819 479.583153 
L 270.449507 488.519073 
L 272.894195 357.424899 
L 275.338883 368.564084 
L 277.783571 401.777859 
L 280.228258 342.081237 
L 282.672946 297.779521 
L 285.117634 366.738869 
L 287.562322 449.896228 
L 290.00701 327.621987 
L 294.896386 370.286237 
L 297.341073 398.462713 
L 299.785761 390.001176 
L 302.230449 457.1783 
L 304.675137 409.545036 
L 307.119825 390.551272 
L 309.564513 404.189082 
L 312.0092 366.310008 
L 314.453888 437.606657 
L 316.898576 398.52616 
L 319.343264 357.325932 
L 321.787952 382.680537 
L 324.23264 390.509598 
L 326.677327 433.430559 
L 329.122015 347.859919 
L 331.566703 335.038363 
L 334.011391 322.999885 
L 336.456079 394.779067 
L 338.900767 382.695952 
L 341.345455 473.454028 
L 343.790142 321.780578 
L 346.23483 339.919296 
L 348.679518 401.647682 
L 351.124206 404.302219 
L 353.568894 470.503236 
L 356.013582 361.797925 
L 358.458269 343.677215 
L 360.902957 447.016014 
L 363.347645 414.783696 
L 365.792333 225.7391 
L 368.237021 291.606716 
L 370.681709 439.850238 
L 373.126396 445.628303 
L 375.571084 448.17282 
L 378.015772 306.212184 
L 380.46046 298.867077 
L 382.905148 377.954158 
L 385.349836 365.780924 
L 390.239211 401.741721 
L 392.683899 319.967607 
L 395.128587 450.029481 
L 397.573275 322.75085 
L 400.017963 359.142606 
L 402.462651 374.587151 
L 404.907338 430.874074 
L 407.352026 194.339469 
L 409.796714 229.04443 
L 412.241402 241.033681 
L 414.68609 202.724388 
L 417.130778 333.610418 
L 419.575465 427.298965 
L 422.020153 251.995921 
L 424.464841 324.790156 
L 426.909529 411.703952 
L 429.354217 399.2113 
L 431.798905 448.31019 
L 434.243593 381.707364 
L 436.68828 324.007942 
L 439.132968 348.185758 
L 441.577656 399.359968 
L 444.022344 404.773607 
L 446.467032 418.70473 
L 448.91172 273.136459 
L 451.356407 339.637724 
L 453.801095 427.091758 
L 456.245783 328.682748 
L 458.690471 300.924987 
L 461.135159 420.027872 
L 463.579847 352.48871 
L 466.024535 326.561329 
L 468.469222 416.182078 
L 470.91391 201.539902 
L 473.358598 310.107925 
L 475.803286 286.252758 
L 478.247974 404.757668 
L 480.692662 283.742691 
L 483.137349 354.333496 
L 485.582037 321.310084 
L 488.026725 391.351617 
L 490.471413 375.651884 
L 492.916101 398.468702 
L 495.360789 351.597834 
L 497.805476 381.007777 
L 500.250164 404.75596 
L 502.694852 398.927135 
L 505.13954 385.113266 
L 507.584228 277.416135 
L 510.028916 266.446651 
L 512.473604 166.91226 
L 514.918291 400.256061 
L 517.362979 389.762307 
L 519.807667 453.882365 
L 522.252355 317.536916 
L 524.697043 245.237047 
L 527.141731 437.083768 
L 529.586418 442.251109 
L 534.475794 107.643078 
L 536.920482 311.919496 
L 539.36517 350.559011 
L 541.809858 267.684315 
L 544.254545 346.223873 
L 546.699233 367.380298 
L 549.143921 434.63723 
L 551.588609 342.401025 
L 554.033297 405.591394 
L 556.477985 290.791965 
L 558.922673 417.034212 
L 561.36736 417.969787 
L 563.812048 391.10783 
L 566.256736 341.181677 
L 568.701424 273.998379 
L 571.146112 313.85895 
L 573.5908 323.074157 
L 576.035487 370.959934 
L 578.480175 295.246466 
L 580.924863 386.794465 
L 583.369551 379.681743 
L 585.814239 388.811339 
L 588.258927 373.538697 
L 590.703614 356.076475 
L 593.148302 284.415113 
L 598.037678 323.942189 
L 600.482366 320.552277 
L 602.927054 380.427038 
L 605.371742 329.79395 
L 607.816429 283.064321 
L 610.261117 324.231581 
L 612.705805 429.911848 
L 615.150493 405.557777 
L 617.595181 356.030253 
L 620.039869 400.200166 
L 622.484556 405.877833 
L 624.929244 382.041866 
L 627.373932 423.220774 
L 629.81862 235.106454 
L 632.263308 211.349802 
L 634.707996 312.872975 
L 639.597371 449.527943 
L 642.042059 334.651093 
L 644.486747 346.738077 
L 646.931435 377.547955 
L 649.376123 395.167282 
L 651.820811 279.919205 
L 654.265498 219.164539 
L 656.710186 200.221277 
L 659.154874 320.376382 
L 661.599562 418.425648 
L 664.04425 371.894295 
L 666.488938 298.137855 
L 668.933625 430.034864 
L 671.378313 421.077438 
L 673.823001 299.909193 
L 676.267689 452.219349 
L 678.712377 413.68973 
L 681.157065 357.734665 
L 683.601752 404.615782 
L 686.04644 287.238053 
L 688.491128 378.15658 
L 690.935816 402.261956 
L 693.380504 324.834773 
L 695.825192 403.046341 
L 698.26988 390.30057 
L 700.714567 373.110042 
L 703.159255 443.461556 
L 705.603943 365.115129 
L 708.048631 471.506714 
L 710.493319 312.771229 
L 712.938007 432.379264 
L 715.382694 399.023901 
L 717.827382 210.542747 
L 720.27207 370.191199 
L 722.716758 302.727606 
L 725.161446 271.513666 
L 727.606134 353.958657 
L 730.050821 266.43848 
L 732.495509 348.287257 
L 734.940197 434.0135 
L 737.384885 411.862889 
L 739.829573 264.347766 
L 742.274261 383.210959 
L 744.718949 333.604574 
L 747.163636 352.5274 
L 747.163636 352.5274 
" clip-path="url(#pb1d4b464a4)" style="fill: none; stroke: #ff7f0e; stroke-width: 1.5; stroke-linecap: square"/>
   </g>
   <g id="line2d_14">
    <path d="M 138.436364 325.841121 
L 140.881051 343.217546 
L 143.325739 324.980765 
L 145.770427 300.252462 
L 148.215115 321.661071 
L 150.659803 329.19541 
L 153.104491 334.687046 
L 155.549179 344.764709 
L 157.993866 327.49252 
L 162.883242 318.977949 
L 165.32793 314.82914 
L 167.772618 319.320807 
L 170.217306 319.643127 
L 172.661993 322.31209 
L 175.106681 315.880825 
L 177.551369 346.249144 
L 179.996057 338.464598 
L 182.440745 340.527056 
L 184.885433 335.501242 
L 187.33012 326.032142 
L 189.774808 330.261233 
L 192.219496 333.77343 
L 194.664184 330.180314 
L 197.108872 341.826892 
L 199.55356 342.707313 
L 201.998248 336.195951 
L 204.442935 349.502819 
L 206.887623 342.784466 
L 209.332311 324.310731 
L 211.776999 337.757005 
L 214.221687 337.003746 
L 216.666375 319.267197 
L 219.111062 324.422561 
L 221.55575 321.617957 
L 224.000438 330.607775 
L 226.445126 332.07443 
L 228.889814 336.525865 
L 231.334502 341.766449 
L 233.779189 352.630607 
L 236.223877 339.471646 
L 238.668565 332.585569 
L 241.113253 330.736049 
L 243.557941 339.415669 
L 246.002629 342.899136 
L 248.447317 348.610811 
L 250.892004 347.509426 
L 253.336692 305.169245 
L 255.78138 303.772006 
L 258.226068 340.883909 
L 260.670756 325.831799 
L 263.115444 329.530921 
L 265.560131 318.530814 
L 268.004819 313.952073 
L 270.449507 328.567317 
L 272.894195 338.265654 
L 275.338883 328.589399 
L 277.783571 300.302327 
L 280.228258 298.721228 
L 282.672946 306.977112 
L 285.117634 306.218749 
L 287.562322 334.09328 
L 290.00701 317.147177 
L 292.451698 329.845358 
L 294.896386 324.349236 
L 297.341073 332.703264 
L 299.785761 329.538515 
L 302.230449 320.515357 
L 304.675137 331.84579 
L 307.119825 348.035464 
L 309.564513 330.805876 
L 312.0092 327.79247 
L 314.453888 331.773843 
L 316.898576 310.487189 
L 319.343264 318.233972 
L 321.787952 330.153931 
L 324.23264 339.380313 
L 326.677327 343.450426 
L 329.122015 333.739885 
L 331.566703 316.737497 
L 334.011391 331.807059 
L 336.456079 334.764508 
L 338.900767 326.471684 
L 341.345455 333.226195 
L 343.790142 323.5031 
L 346.23483 325.160035 
L 348.679518 333.203413 
L 351.124206 337.846198 
L 353.568894 348.813295 
L 356.013582 320.967988 
L 358.458269 308.950954 
L 360.902957 323.932599 
L 363.347645 328.548713 
L 368.237021 299.194171 
L 370.681709 324.472693 
L 373.126396 332.578489 
L 375.571084 351.324865 
L 378.015772 343.449418 
L 380.46046 338.892862 
L 382.905148 314.164147 
L 385.349836 324.456868 
L 387.794524 325.831161 
L 390.239211 335.723873 
L 392.683899 337.656268 
L 395.128587 354.343025 
L 397.573275 348.406146 
L 400.017963 335.531576 
L 402.462651 337.456788 
L 404.907338 331.216853 
L 407.352026 329.12017 
L 412.241402 297.872603 
L 417.130778 336.723163 
L 419.575465 363.651911 
L 422.020153 326.914045 
L 424.464841 327.054357 
L 426.909529 343.788263 
L 429.354217 353.698612 
L 431.798905 338.129869 
L 434.243593 333.742602 
L 436.68828 338.499851 
L 439.132968 350.180529 
L 441.577656 334.337376 
L 444.022344 310.531415 
L 446.467032 297.822965 
L 448.91172 290.142737 
L 451.356407 299.515029 
L 453.801095 331.101915 
L 456.245783 300.030366 
L 458.690471 303.177293 
L 461.135159 312.607538 
L 463.579847 338.834148 
L 466.024535 358.16153 
L 468.469222 333.533944 
L 470.91391 342.985468 
L 473.358598 351.635145 
L 475.803286 338.092496 
L 478.247974 339.248809 
L 480.692662 339.814278 
L 483.137349 325.536006 
L 485.582037 336.796961 
L 488.026725 338.764938 
L 490.471413 325.958446 
L 492.916101 310.262026 
L 495.360789 334.834541 
L 497.805476 329.612499 
L 500.250164 321.444161 
L 502.694852 332.920504 
L 505.13954 350.066127 
L 507.584228 338.402015 
L 510.028916 316.091685 
L 512.473604 317.437619 
L 514.918291 334.977364 
L 517.362979 319.573259 
L 519.807667 328.469481 
L 522.252355 338.595012 
L 524.697043 333.582841 
L 527.141731 335.259018 
L 529.586418 326.036999 
L 532.031106 341.095324 
L 534.475794 330.73646 
L 536.920482 315.520824 
L 539.36517 301.275583 
L 541.809858 292.38572 
L 544.254545 303.092011 
L 546.699233 320.625747 
L 549.143921 334.822502 
L 551.588609 316.346379 
L 554.033297 291.248217 
L 556.477985 299.803577 
L 558.922673 346.622378 
L 561.36736 344.556174 
L 563.812048 337.288796 
L 566.256736 338.815626 
L 568.701424 339.811643 
L 571.146112 313.908341 
L 573.5908 309.72753 
L 576.035487 301.885669 
L 578.480175 298.781547 
L 580.924863 302.213771 
L 583.369551 323.389542 
L 585.814239 316.898945 
L 588.258927 303.074045 
L 590.703614 307.686907 
L 593.148302 301.019757 
L 595.59299 326.200978 
L 598.037678 325.732625 
L 600.482366 303.910302 
L 602.927054 310.898784 
L 605.371742 299.239343 
L 607.816429 297.203515 
L 610.261117 306.836676 
L 612.705805 322.052066 
L 615.150493 338.53389 
L 617.595181 326.075195 
L 620.039869 342.648743 
L 622.484556 360.091928 
L 624.929244 359.587437 
L 627.373932 329.672448 
L 629.81862 308.2852 
L 632.263308 297.664604 
L 634.707996 311.763173 
L 637.152683 341.953004 
L 639.597371 320.098597 
L 642.042059 335.473994 
L 644.486747 336.456758 
L 646.931435 327.736266 
L 649.376123 330.786922 
L 651.820811 348.381142 
L 654.265498 330.642596 
L 656.710186 323.795456 
L 659.154874 333.427176 
L 661.599562 328.435956 
L 664.04425 329.440514 
L 666.488938 337.77314 
L 668.933625 343.616669 
L 671.378313 329.958382 
L 673.823001 349.802892 
L 676.267689 317.713984 
L 678.712377 333.655838 
L 681.157065 312.161987 
L 683.601752 331.759931 
L 686.04644 337.119981 
L 688.491128 351.261417 
L 690.935816 329.92706 
L 693.380504 315.632819 
L 695.825192 350.650797 
L 698.26988 318.924401 
L 700.714567 322.920797 
L 703.159255 323.694636 
L 705.603943 333.254122 
L 708.048631 339.069065 
L 710.493319 364.741834 
L 712.938007 349.02611 
L 715.382694 339.656925 
L 717.827382 318.652954 
L 720.27207 345.069577 
L 722.716758 344.926815 
L 725.161446 324.870705 
L 727.606134 326.449931 
L 730.050821 356.313986 
L 732.495509 352.894398 
L 734.940197 351.611088 
L 737.384885 349.799496 
L 739.829573 356.174908 
L 742.274261 338.149893 
L 744.718949 344.076194 
L 747.163636 342.330972 
L 747.163636 342.330972 
" clip-path="url(#pb1d4b464a4)" style="fill: none; stroke: #2ca02c; stroke-width: 1.5; stroke-linecap: square"/>
   </g>
   <g id="line2d_15">
    <path d="M 138.436364 451.351471 
L 140.881051 391.848268 
L 143.325739 384.021779 
L 145.770427 398.955916 
L 148.215115 396.122552 
L 150.659803 436.919685 
L 153.104491 410.41314 
L 155.549179 349.936186 
L 157.993866 393.439738 
L 160.438554 434.42637 
L 162.883242 419.530913 
L 165.32793 440.583915 
L 167.772618 437.277875 
L 170.217306 423.894801 
L 172.661993 432.418057 
L 175.106681 401.363239 
L 177.551369 399.438171 
L 179.996057 391.345567 
L 182.440745 426.925011 
L 184.885433 379.971835 
L 187.33012 413.024624 
L 189.774808 460.178741 
L 192.219496 391.290392 
L 194.664184 333.670737 
L 197.108872 293.450597 
L 199.55356 452.56872 
L 201.998248 417.252882 
L 204.442935 453.639494 
L 206.887623 460.414255 
L 209.332311 468.213063 
L 211.776999 314.939509 
L 214.221687 382.309609 
L 216.666375 311.928552 
L 219.111062 341.647869 
L 221.55575 410.600498 
L 224.000438 457.675146 
L 226.445126 460.837889 
L 228.889814 450.44015 
L 231.334502 423.979127 
L 233.779189 442.408955 
L 236.223877 422.610956 
L 238.668565 434.288013 
L 241.113253 382.779999 
L 243.557941 394.278465 
L 246.002629 426.9974 
L 248.447317 395.314304 
L 250.892004 459.735268 
L 253.336692 398.621856 
L 255.78138 237.34882 
L 258.226068 313.486375 
L 260.670756 439.42113 
L 263.115444 414.616033 
L 265.560131 459.480841 
L 268.004819 467.509216 
L 270.449507 471.726093 
L 272.894195 370.799063 
L 275.338883 351.742098 
L 277.783571 383.934295 
L 280.228258 374.40784 
L 282.672946 313.022302 
L 285.117634 383.77083 
L 287.562322 438.753575 
L 290.00701 357.087639 
L 292.451698 347.036298 
L 294.896386 399.951223 
L 297.341073 362.837407 
L 299.785761 400.968932 
L 302.230449 470.848379 
L 304.675137 413.178591 
L 307.119825 414.695142 
L 309.564513 408.237071 
L 312.0092 371.766042 
L 314.453888 450.565851 
L 316.898576 388.700188 
L 319.343264 355.598655 
L 324.23264 395.560643 
L 326.677327 423.736482 
L 329.122015 345.003063 
L 331.566703 339.123005 
L 334.011391 347.241498 
L 336.456079 351.385246 
L 338.900767 391.22497 
L 341.345455 470.434253 
L 343.790142 332.516771 
L 346.23483 318.478294 
L 348.679518 392.345885 
L 351.124206 450.869329 
L 353.568894 492.48 
L 356.013582 388.471238 
L 358.458269 332.096306 
L 360.902957 453.954147 
L 363.347645 380.720422 
L 365.792333 264.583177 
L 368.237021 287.386721 
L 370.681709 445.633489 
L 373.126396 436.978214 
L 375.571084 475.080351 
L 378.015772 305.681639 
L 380.46046 303.466829 
L 382.905148 358.558492 
L 385.349836 384.719576 
L 387.794524 373.048076 
L 390.239211 422.935097 
L 392.683899 341.038256 
L 395.128587 476.552141 
L 397.573275 377.957368 
L 400.017963 378.805397 
L 402.462651 397.981415 
L 404.907338 414.924904 
L 407.352026 223.887667 
L 409.796714 235.049901 
L 412.241402 278.899933 
L 414.68609 253.833423 
L 417.130778 326.207049 
L 419.575465 414.50159 
L 422.020153 283.646419 
L 424.464841 298.118675 
L 426.909529 400.131975 
L 429.354217 410.595302 
L 431.798905 422.83793 
L 434.243593 402.081842 
L 436.68828 311.164056 
L 439.132968 374.54772 
L 441.577656 445.10709 
L 444.022344 409.946773 
L 446.467032 436.934997 
L 448.91172 289.852954 
L 451.356407 344.180286 
L 453.801095 448.152313 
L 456.245783 361.813154 
L 458.690471 329.070326 
L 461.135159 408.936833 
L 463.579847 341.892973 
L 466.024535 332.59697 
L 468.469222 423.458378 
L 470.91391 253.246818 
L 473.358598 280.270192 
L 475.803286 320.203184 
L 478.247974 401.884153 
L 480.692662 302.779528 
L 483.137349 387.744527 
L 485.582037 313.152983 
L 488.026725 388.986493 
L 490.471413 382.162381 
L 492.916101 433.925758 
L 495.360789 354.272827 
L 497.805476 412.905725 
L 500.250164 412.487926 
L 502.694852 420.926815 
L 505.13954 361.712581 
L 507.584228 314.725253 
L 510.028916 312.112802 
L 512.473604 227.148461 
L 514.918291 411.31552 
L 517.362979 384.156721 
L 519.807667 452.015527 
L 522.252355 330.324866 
L 524.697043 298.48771 
L 527.141731 447.375572 
L 529.586418 447.299983 
L 532.031106 315.040534 
L 534.475794 89.28 
L 536.920482 347.247919 
L 539.36517 379.238888 
L 541.809858 301.268113 
L 544.254545 322.741424 
L 546.699233 403.503612 
L 549.143921 417.425278 
L 551.588609 381.523916 
L 554.033297 404.266657 
L 556.477985 277.283622 
L 558.922673 409.61475 
L 561.36736 421.395024 
L 563.812048 384.722293 
L 566.256736 314.299623 
L 568.701424 273.848291 
L 571.146112 373.473088 
L 573.5908 329.265422 
L 576.035487 375.239075 
L 578.480175 319.389626 
L 580.924863 432.808218 
L 583.369551 398.812239 
L 585.814239 403.807297 
L 588.258927 427.187948 
L 590.703614 390.354406 
L 593.148302 329.633799 
L 595.59299 326.595306 
L 598.037678 363.388738 
L 600.482366 392.647913 
L 602.927054 406.769511 
L 605.371742 384.185224 
L 607.816429 265.082586 
L 610.261117 366.904906 
L 612.705805 442.11378 
L 615.150493 444.370892 
L 617.595181 339.939937 
L 620.039869 391.034298 
L 622.484556 387.987924 
L 624.929244 396.766615 
L 627.373932 450.55305 
L 629.81862 258.088712 
L 632.263308 295.752624 
L 634.707996 282.24706 
L 637.152683 384.605708 
L 639.597371 437.243435 
L 642.042059 369.448848 
L 644.486747 362.82368 
L 646.931435 382.928647 
L 649.376123 416.300062 
L 651.820811 294.149094 
L 654.265498 282.368336 
L 656.710186 205.535331 
L 659.154874 363.817619 
L 661.599562 436.165305 
L 664.04425 419.656809 
L 666.488938 289.128054 
L 668.933625 439.830224 
L 671.378313 450.482667 
L 673.823001 342.492852 
L 676.267689 453.372358 
L 678.712377 389.876977 
L 681.157065 362.549908 
L 683.601752 409.861408 
L 686.04644 317.241371 
L 688.491128 375.181082 
L 690.935816 424.328128 
L 693.380504 352.01729 
L 695.825192 424.021542 
L 698.26988 428.914308 
L 700.714567 362.105222 
L 703.159255 449.66025 
L 705.603943 374.2346 
L 708.048631 456.781914 
L 710.493319 343.344893 
L 712.938007 442.935868 
L 715.382694 404.391843 
L 717.827382 239.219105 
L 720.27207 366.706003 
L 722.716758 349.179943 
L 725.161446 278.13731 
L 727.606134 401.086771 
L 730.050821 337.867951 
L 732.495509 340.750634 
L 734.940197 433.481576 
L 737.384885 406.793713 
L 739.829573 314.12202 
L 742.274261 353.359499 
L 744.718949 301.687918 
L 747.163636 362.578638 
L 747.163636 362.578638 
" clip-path="url(#pb1d4b464a4)" style="fill: none; stroke: #d62728; stroke-width: 1.5; stroke-linecap: square"/>
   </g>
   <g id="patch_3">
    <path d="M 108 512.64 
L 108 69.12 
" style="fill: none; stroke: #000000; stroke-width: 0.8; stroke-linejoin: miter; stroke-linecap: square"/>
   </g>
   <g id="patch_4">
    <path d="M 777.6 512.64 
L 777.6 69.12 
" style="fill: none; stroke: #000000; stroke-width: 0.8; stroke-linejoin: miter; stroke-linecap: square"/>
   </g>
   <g id="patch_5">
    <path d="M 108 512.64 
L 777.6 512.64 
" style="fill: none; stroke: #000000; stroke-width: 0.8; stroke-linejoin: miter; stroke-linecap: square"/>
   </g>
   <g id="patch_6">
    <path d="M 108 69.12 
L 777.6 69.12 
" style="fill: none; stroke: #000000; stroke-width: 0.8; stroke-linejoin: miter; stroke-linecap: square"/>
   </g>
   <g id="text_14">
    <!-- Ten-meter southward wind speed two steps forward prediction: RMSES -->
    <g transform="translate(124.285781 49.12) scale(0.18 -0.18)">
     <defs>
      <path id="DejaVuSans-54" d="M -19 4666 
L 3928 4666 
L 3928 4134 
L 2272 4134 
L 2272 0 
L 1638 0 
L 1638 4134 
L -19 4134 
L -19 4666 
z
" transform="scale(0.015625)"/>
      <path id="DejaVuSans-6e" d="M 3513 2113 
L 3513 0 
L 2938 0 
L 2938 2094 
Q 2938 2591 2744 2837 
Q 2550 3084 2163 3084 
Q 1697 3084 1428 2787 
Q 1159 2491 1159 1978 
L 1159 0 
L 581 0 
L 581 3500 
L 1159 3500 
L 1159 2956 
Q 1366 3272 1645 3428 
Q 1925 3584 2291 3584 
Q 2894 3584 3203 3211 
Q 3513 2838 3513 2113 
z
" transform="scale(0.015625)"/>
      <path id="DejaVuSans-6d" d="M 3328 2828 
Q 3544 3216 3844 3400 
Q 4144 3584 4550 3584 
Q 5097 3584 5394 3201 
Q 5691 2819 5691 2113 
L 5691 0 
L 5113 0 
L 5113 2094 
Q 5113 2597 4934 2840 
Q 4756 3084 4391 3084 
Q 3944 3084 3684 2787 
Q 3425 2491 3425 1978 
L 3425 0 
L 2847 0 
L 2847 2094 
Q 2847 2600 2669 2842 
Q 2491 3084 2119 3084 
Q 1678 3084 1418 2786 
Q 1159 2488 1159 1978 
L 1159 0 
L 581 0 
L 581 3500 
L 1159 3500 
L 1159 2956 
Q 1356 3278 1631 3431 
Q 1906 3584 2284 3584 
Q 2666 3584 2933 3390 
Q 3200 3197 3328 2828 
z
" transform="scale(0.015625)"/>
      <path id="DejaVuSans-72" d="M 2631 2963 
Q 2534 3019 2420 3045 
Q 2306 3072 2169 3072 
Q 1681 3072 1420 2755 
Q 1159 2438 1159 1844 
L 1159 0 
L 581 0 
L 581 3500 
L 1159 3500 
L 1159 2956 
Q 1341 3275 1631 3429 
Q 1922 3584 2338 3584 
Q 2397 3584 2469 3576 
Q 2541 3569 2628 3553 
L 2631 2963 
z
" transform="scale(0.015625)"/>
      <path id="DejaVuSans-6f" d="M 1959 3097 
Q 1497 3097 1228 2736 
Q 959 2375 959 1747 
Q 959 1119 1226 758 
Q 1494 397 1959 397 
Q 2419 397 2687 759 
Q 2956 1122 2956 1747 
Q 2956 2369 2687 2733 
Q 2419 3097 1959 3097 
z
M 1959 3584 
Q 2709 3584 3137 3096 
Q 3566 2609 3566 1747 
Q 3566 888 3137 398 
Q 2709 -91 1959 -91 
Q 1206 -91 779 398 
Q 353 888 353 1747 
Q 353 2609 779 3096 
Q 1206 3584 1959 3584 
z
" transform="scale(0.015625)"/>
      <path id="DejaVuSans-75" d="M 544 1381 
L 544 3500 
L 1119 3500 
L 1119 1403 
Q 1119 906 1312 657 
Q 1506 409 1894 409 
Q 2359 409 2629 706 
Q 2900 1003 2900 1516 
L 2900 3500 
L 3475 3500 
L 3475 0 
L 2900 0 
L 2900 538 
Q 2691 219 2414 64 
Q 2138 -91 1772 -91 
Q 1169 -91 856 284 
Q 544 659 544 1381 
z
M 1991 3584 
L 1991 3584 
z
" transform="scale(0.015625)"/>
      <path id="DejaVuSans-68" d="M 3513 2113 
L 3513 0 
L 2938 0 
L 2938 2094 
Q 2938 2591 2744 2837 
Q 2550 3084 2163 3084 
Q 1697 3084 1428 2787 
Q 1159 2491 1159 1978 
L 1159 0 
L 581 0 
L 581 4863 
L 1159 4863 
L 1159 2956 
Q 1366 3272 1645 3428 
Q 1925 3584 2291 3584 
Q 2894 3584 3203 3211 
Q 3513 2838 3513 2113 
z
" transform="scale(0.015625)"/>
      <path id="DejaVuSans-77" d="M 269 3500 
L 844 3500 
L 1563 769 
L 2278 3500 
L 2956 3500 
L 3675 769 
L 4391 3500 
L 4966 3500 
L 4050 0 
L 3372 0 
L 2619 2869 
L 1863 0 
L 1184 0 
L 269 3500 
z
" transform="scale(0.015625)"/>
      <path id="DejaVuSans-64" d="M 2906 2969 
L 2906 4863 
L 3481 4863 
L 3481 0 
L 2906 0 
L 2906 525 
Q 2725 213 2448 61 
Q 2172 -91 1784 -91 
Q 1150 -91 751 415 
Q 353 922 353 1747 
Q 353 2572 751 3078 
Q 1150 3584 1784 3584 
Q 2172 3584 2448 3432 
Q 2725 3281 2906 2969 
z
M 947 1747 
Q 947 1113 1208 752 
Q 1469 391 1925 391 
Q 2381 391 2643 752 
Q 2906 1113 2906 1747 
Q 2906 2381 2643 2742 
Q 2381 3103 1925 3103 
Q 1469 3103 1208 2742 
Q 947 2381 947 1747 
z
" transform="scale(0.015625)"/>
      <path id="DejaVuSans-69" d="M 603 3500 
L 1178 3500 
L 1178 0 
L 603 0 
L 603 3500 
z
M 603 4863 
L 1178 4863 
L 1178 4134 
L 603 4134 
L 603 4863 
z
" transform="scale(0.015625)"/>
      <path id="DejaVuSans-70" d="M 1159 525 
L 1159 -1331 
L 581 -1331 
L 581 3500 
L 1159 3500 
L 1159 2969 
Q 1341 3281 1617 3432 
Q 1894 3584 2278 3584 
Q 2916 3584 3314 3078 
Q 3713 2572 3713 1747 
Q 3713 922 3314 415 
Q 2916 -91 2278 -91 
Q 1894 -91 1617 61 
Q 1341 213 1159 525 
z
M 3116 1747 
Q 3116 2381 2855 2742 
Q 2594 3103 2138 3103 
Q 1681 3103 1420 2742 
Q 1159 2381 1159 1747 
Q 1159 1113 1420 752 
Q 1681 391 2138 391 
Q 2594 391 2855 752 
Q 3116 1113 3116 1747 
z
" transform="scale(0.015625)"/>
      <path id="DejaVuSans-66" d="M 2375 4863 
L 2375 4384 
L 1825 4384 
Q 1516 4384 1395 4259 
Q 1275 4134 1275 3809 
L 1275 3500 
L 2222 3500 
L 2222 3053 
L 1275 3053 
L 1275 0 
L 697 0 
L 697 3053 
L 147 3053 
L 147 3500 
L 697 3500 
L 697 3744 
Q 697 4328 969 4595 
Q 1241 4863 1831 4863 
L 2375 4863 
z
" transform="scale(0.015625)"/>
      <path id="DejaVuSans-63" d="M 3122 3366 
L 3122 2828 
Q 2878 2963 2633 3030 
Q 2388 3097 2138 3097 
Q 1578 3097 1268 2742 
Q 959 2388 959 1747 
Q 959 1106 1268 751 
Q 1578 397 2138 397 
Q 2388 397 2633 464 
Q 2878 531 3122 666 
L 3122 134 
Q 2881 22 2623 -34 
Q 2366 -91 2075 -91 
Q 1284 -91 818 406 
Q 353 903 353 1747 
Q 353 2603 823 3093 
Q 1294 3584 2113 3584 
Q 2378 3584 2631 3529 
Q 2884 3475 3122 3366 
z
" transform="scale(0.015625)"/>
     </defs>
     <use xlink:href="#DejaVuSans-54"/>
     <use xlink:href="#DejaVuSans-65" transform="translate(44.083984 0)"/>
     <use xlink:href="#DejaVuSans-6e" transform="translate(105.607422 0)"/>
     <use xlink:href="#DejaVuSans-2d" transform="translate(168.986328 0)"/>
     <use xlink:href="#DejaVuSans-6d" transform="translate(205.070312 0)"/>
     <use xlink:href="#DejaVuSans-65" transform="translate(302.482422 0)"/>
     <use xlink:href="#DejaVuSans-74" transform="translate(364.005859 0)"/>
     <use xlink:href="#DejaVuSans-65" transform="translate(403.214844 0)"/>
     <use xlink:href="#DejaVuSans-72" transform="translate(464.738281 0)"/>
     <use xlink:href="#DejaVuSans-20" transform="translate(505.851562 0)"/>
     <use xlink:href="#DejaVuSans-73" transform="translate(537.638672 0)"/>
     <use xlink:href="#DejaVuSans-6f" transform="translate(589.738281 0)"/>
     <use xlink:href="#DejaVuSans-75" transform="translate(650.919922 0)"/>
     <use xlink:href="#DejaVuSans-74" transform="translate(714.298828 0)"/>
     <use xlink:href="#DejaVuSans-68" transform="translate(753.507812 0)"/>
     <use xlink:href="#DejaVuSans-77" transform="translate(816.886719 0)"/>
     <use xlink:href="#DejaVuSans-61" transform="translate(898.673828 0)"/>
     <use xlink:href="#DejaVuSans-72" transform="translate(959.953125 0)"/>
     <use xlink:href="#DejaVuSans-64" transform="translate(999.316406 0)"/>
     <use xlink:href="#DejaVuSans-20" transform="translate(1062.792969 0)"/>
     <use xlink:href="#DejaVuSans-77" transform="translate(1094.580078 0)"/>
     <use xlink:href="#DejaVuSans-69" transform="translate(1176.367188 0)"/>
     <use xlink:href="#DejaVuSans-6e" transform="translate(1204.150391 0)"/>
     <use xlink:href="#DejaVuSans-64" transform="translate(1267.529297 0)"/>
     <use xlink:href="#DejaVuSans-20" transform="translate(1331.005859 0)"/>
     <use xlink:href="#DejaVuSans-73" transform="translate(1362.792969 0)"/>
     <use xlink:href="#DejaVuSans-70" transform="translate(1414.892578 0)"/>
     <use xlink:href="#DejaVuSans-65" transform="translate(1478.369141 0)"/>
     <use xlink:href="#DejaVuSans-65" transform="translate(1539.892578 0)"/>
     <use xlink:href="#DejaVuSans-64" transform="translate(1601.416016 0)"/>
     <use xlink:href="#DejaVuSans-20" transform="translate(1664.892578 0)"/>
     <use xlink:href="#DejaVuSans-74" transform="translate(1696.679688 0)"/>
     <use xlink:href="#DejaVuSans-77" transform="translate(1735.888672 0)"/>
     <use xlink:href="#DejaVuSans-6f" transform="translate(1817.675781 0)"/>
     <use xlink:href="#DejaVuSans-20" transform="translate(1878.857422 0)"/>
     <use xlink:href="#DejaVuSans-73" transform="translate(1910.644531 0)"/>
     <use xlink:href="#DejaVuSans-74" transform="translate(1962.744141 0)"/>
     <use xlink:href="#DejaVuSans-65" transform="translate(2001.953125 0)"/>
     <use xlink:href="#DejaVuSans-70" transform="translate(2063.476562 0)"/>
     <use xlink:href="#DejaVuSans-73" transform="translate(2126.953125 0)"/>
     <use xlink:href="#DejaVuSans-20" transform="translate(2179.052734 0)"/>
     <use xlink:href="#DejaVuSans-66" transform="translate(2210.839844 0)"/>
     <use xlink:href="#DejaVuSans-6f" transform="translate(2246.044922 0)"/>
     <use xlink:href="#DejaVuSans-72" transform="translate(2307.226562 0)"/>
     <use xlink:href="#DejaVuSans-77" transform="translate(2348.339844 0)"/>
     <use xlink:href="#DejaVuSans-61" transform="translate(2430.126953 0)"/>
     <use xlink:href="#DejaVuSans-72" transform="translate(2491.40625 0)"/>
     <use xlink:href="#DejaVuSans-64" transform="translate(2530.769531 0)"/>
     <use xlink:href="#DejaVuSans-20" transform="translate(2594.246094 0)"/>
     <use xlink:href="#DejaVuSans-70" transform="translate(2626.033203 0)"/>
     <use xlink:href="#DejaVuSans-72" transform="translate(2689.509766 0)"/>
     <use xlink:href="#DejaVuSans-65" transform="translate(2728.373047 0)"/>
     <use xlink:href="#DejaVuSans-64" transform="translate(2789.896484 0)"/>
     <use xlink:href="#DejaVuSans-69" transform="translate(2853.373047 0)"/>
     <use xlink:href="#DejaVuSans-63" transform="translate(2881.15625 0)"/>
     <use xlink:href="#DejaVuSans-74" transform="translate(2936.136719 0)"/>
     <use xlink:href="#DejaVuSans-69" transform="translate(2975.345703 0)"/>
     <use xlink:href="#DejaVuSans-6f" transform="translate(3003.128906 0)"/>
     <use xlink:href="#DejaVuSans-6e" transform="translate(3064.310547 0)"/>
     <use xlink:href="#DejaVuSans-3a" transform="translate(3127.689453 0)"/>
     <use xlink:href="#DejaVuSans-20" transform="translate(3161.380859 0)"/>
     <use xlink:href="#DejaVuSans-52" transform="translate(3193.167969 0)"/>
     <use xlink:href="#DejaVuSans-4d" transform="translate(3262.650391 0)"/>
     <use xlink:href="#DejaVuSans-53" transform="translate(3348.929688 0)"/>
     <use xlink:href="#DejaVuSans-45" transform="translate(3412.40625 0)"/>
     <use xlink:href="#DejaVuSans-53" transform="translate(3475.589844 0)"/>
    </g>
   </g>
   <g id="legend_1">
    <g id="text_15">
     <!-- RMSEs -->
     <g transform="translate(871.899219 256.412594) scale(0.18 -0.18)">
      <use xlink:href="#DejaVuSans-52"/>
      <use xlink:href="#DejaVuSans-4d" transform="translate(69.482422 0)"/>
      <use xlink:href="#DejaVuSans-53" transform="translate(155.761719 0)"/>
      <use xlink:href="#DejaVuSans-45" transform="translate(219.238281 0)"/>
      <use xlink:href="#DejaVuSans-73" transform="translate(282.421875 0)"/>
     </g>
     <!--  -->
     <g transform="translate(871.899219 276.568656) scale(0.18 -0.18)"/>
    </g>
    <g id="line2d_16">
     <path d="M 786.6 289.410531 
L 796.6 289.410531 
L 806.6 289.410531 
" style="fill: none; stroke: #1f77b4; stroke-width: 1.5; stroke-linecap: square"/>
    </g>
    <g id="text_16">
     <!-- World 6 hours forward prediction -->
     <g transform="translate(814.6 292.910531) scale(0.1 -0.1)">
      <defs>
       <path id="DejaVuSans-57" d="M 213 4666 
L 850 4666 
L 1831 722 
L 2809 4666 
L 3519 4666 
L 4500 722 
L 5478 4666 
L 6119 4666 
L 4947 0 
L 4153 0 
L 3169 4050 
L 2175 0 
L 1381 0 
L 213 4666 
z
" transform="scale(0.015625)"/>
       <path id="DejaVuSans-6c" d="M 603 4863 
L 1178 4863 
L 1178 0 
L 603 0 
L 603 4863 
z
" transform="scale(0.015625)"/>
      </defs>
      <use xlink:href="#DejaVuSans-57"/>
      <use xlink:href="#DejaVuSans-6f" transform="translate(93.001953 0)"/>
      <use xlink:href="#DejaVuSans-72" transform="translate(154.183594 0)"/>
      <use xlink:href="#DejaVuSans-6c" transform="translate(195.296875 0)"/>
      <use xlink:href="#DejaVuSans-64" transform="translate(223.080078 0)"/>
      <use xlink:href="#DejaVuSans-20" transform="translate(286.556641 0)"/>
      <use xlink:href="#DejaVuSans-36" transform="translate(318.34375 0)"/>
      <use xlink:href="#DejaVuSans-20" transform="translate(381.966797 0)"/>
      <use xlink:href="#DejaVuSans-68" transform="translate(413.753906 0)"/>
      <use xlink:href="#DejaVuSans-6f" transform="translate(477.132812 0)"/>
      <use xlink:href="#DejaVuSans-75" transform="translate(538.314453 0)"/>
      <use xlink:href="#DejaVuSans-72" transform="translate(601.693359 0)"/>
      <use xlink:href="#DejaVuSans-73" transform="translate(642.806641 0)"/>
      <use xlink:href="#DejaVuSans-20" transform="translate(694.90625 0)"/>
      <use xlink:href="#DejaVuSans-66" transform="translate(726.693359 0)"/>
      <use xlink:href="#DejaVuSans-6f" transform="translate(761.898438 0)"/>
      <use xlink:href="#DejaVuSans-72" transform="translate(823.080078 0)"/>
      <use xlink:href="#DejaVuSans-77" transform="translate(864.193359 0)"/>
      <use xlink:href="#DejaVuSans-61" transform="translate(945.980469 0)"/>
      <use xlink:href="#DejaVuSans-72" transform="translate(1007.259766 0)"/>
      <use xlink:href="#DejaVuSans-64" transform="translate(1046.623047 0)"/>
      <use xlink:href="#DejaVuSans-20" transform="translate(1110.099609 0)"/>
      <use xlink:href="#DejaVuSans-70" transform="translate(1141.886719 0)"/>
      <use xlink:href="#DejaVuSans-72" transform="translate(1205.363281 0)"/>
      <use xlink:href="#DejaVuSans-65" transform="translate(1244.226562 0)"/>
      <use xlink:href="#DejaVuSans-64" transform="translate(1305.75 0)"/>
      <use xlink:href="#DejaVuSans-69" transform="translate(1369.226562 0)"/>
      <use xlink:href="#DejaVuSans-63" transform="translate(1397.009766 0)"/>
      <use xlink:href="#DejaVuSans-74" transform="translate(1451.990234 0)"/>
      <use xlink:href="#DejaVuSans-69" transform="translate(1491.199219 0)"/>
      <use xlink:href="#DejaVuSans-6f" transform="translate(1518.982422 0)"/>
      <use xlink:href="#DejaVuSans-6e" transform="translate(1580.164062 0)"/>
     </g>
    </g>
    <g id="line2d_17">
     <path d="M 786.6 304.088656 
L 796.6 304.088656 
L 806.6 304.088656 
" style="fill: none; stroke: #ff7f0e; stroke-width: 1.5; stroke-linecap: square"/>
    </g>
    <g id="text_17">
     <!-- South Africa 6 hours forward prediction -->
     <g transform="translate(814.6 307.588656) scale(0.1 -0.1)">
      <defs>
       <path id="DejaVuSans-41" d="M 2188 4044 
L 1331 1722 
L 3047 1722 
L 2188 4044 
z
M 1831 4666 
L 2547 4666 
L 4325 0 
L 3669 0 
L 3244 1197 
L 1141 1197 
L 716 0 
L 50 0 
L 1831 4666 
z
" transform="scale(0.015625)"/>
      </defs>
      <use xlink:href="#DejaVuSans-53"/>
      <use xlink:href="#DejaVuSans-6f" transform="translate(63.476562 0)"/>
      <use xlink:href="#DejaVuSans-75" transform="translate(124.658203 0)"/>
      <use xlink:href="#DejaVuSans-74" transform="translate(188.037109 0)"/>
      <use xlink:href="#DejaVuSans-68" transform="translate(227.246094 0)"/>
      <use xlink:href="#DejaVuSans-20" transform="translate(290.625 0)"/>
      <use xlink:href="#DejaVuSans-41" transform="translate(322.412109 0)"/>
      <use xlink:href="#DejaVuSans-66" transform="translate(387.195312 0)"/>
      <use xlink:href="#DejaVuSans-72" transform="translate(422.400391 0)"/>
      <use xlink:href="#DejaVuSans-69" transform="translate(463.513672 0)"/>
      <use xlink:href="#DejaVuSans-63" transform="translate(491.296875 0)"/>
      <use xlink:href="#DejaVuSans-61" transform="translate(546.277344 0)"/>
      <use xlink:href="#DejaVuSans-20" transform="translate(607.556641 0)"/>
      <use xlink:href="#DejaVuSans-36" transform="translate(639.34375 0)"/>
      <use xlink:href="#DejaVuSans-20" transform="translate(702.966797 0)"/>
      <use xlink:href="#DejaVuSans-68" transform="translate(734.753906 0)"/>
      <use xlink:href="#DejaVuSans-6f" transform="translate(798.132812 0)"/>
      <use xlink:href="#DejaVuSans-75" transform="translate(859.314453 0)"/>
      <use xlink:href="#DejaVuSans-72" transform="translate(922.693359 0)"/>
      <use xlink:href="#DejaVuSans-73" transform="translate(963.806641 0)"/>
      <use xlink:href="#DejaVuSans-20" transform="translate(1015.90625 0)"/>
      <use xlink:href="#DejaVuSans-66" transform="translate(1047.693359 0)"/>
      <use xlink:href="#DejaVuSans-6f" transform="translate(1082.898438 0)"/>
      <use xlink:href="#DejaVuSans-72" transform="translate(1144.080078 0)"/>
      <use xlink:href="#DejaVuSans-77" transform="translate(1185.193359 0)"/>
      <use xlink:href="#DejaVuSans-61" transform="translate(1266.980469 0)"/>
      <use xlink:href="#DejaVuSans-72" transform="translate(1328.259766 0)"/>
      <use xlink:href="#DejaVuSans-64" transform="translate(1367.623047 0)"/>
      <use xlink:href="#DejaVuSans-20" transform="translate(1431.099609 0)"/>
      <use xlink:href="#DejaVuSans-70" transform="translate(1462.886719 0)"/>
      <use xlink:href="#DejaVuSans-72" transform="translate(1526.363281 0)"/>
      <use xlink:href="#DejaVuSans-65" transform="translate(1565.226562 0)"/>
      <use xlink:href="#DejaVuSans-64" transform="translate(1626.75 0)"/>
      <use xlink:href="#DejaVuSans-69" transform="translate(1690.226562 0)"/>
      <use xlink:href="#DejaVuSans-63" transform="translate(1718.009766 0)"/>
      <use xlink:href="#DejaVuSans-74" transform="translate(1772.990234 0)"/>
      <use xlink:href="#DejaVuSans-69" transform="translate(1812.199219 0)"/>
      <use xlink:href="#DejaVuSans-6f" transform="translate(1839.982422 0)"/>
      <use xlink:href="#DejaVuSans-6e" transform="translate(1901.164062 0)"/>
     </g>
    </g>
    <g id="line2d_18">
     <path d="M 786.6 318.766781 
L 796.6 318.766781 
L 806.6 318.766781 
" style="fill: none; stroke: #2ca02c; stroke-width: 1.5; stroke-linecap: square"/>
    </g>
    <g id="text_18">
     <!-- World 12 hours forward prediction -->
     <g transform="translate(814.6 322.266781) scale(0.1 -0.1)">
      <use xlink:href="#DejaVuSans-57"/>
      <use xlink:href="#DejaVuSans-6f" transform="translate(93.001953 0)"/>
      <use xlink:href="#DejaVuSans-72" transform="translate(154.183594 0)"/>
      <use xlink:href="#DejaVuSans-6c" transform="translate(195.296875 0)"/>
      <use xlink:href="#DejaVuSans-64" transform="translate(223.080078 0)"/>
      <use xlink:href="#DejaVuSans-20" transform="translate(286.556641 0)"/>
      <use xlink:href="#DejaVuSans-31" transform="translate(318.34375 0)"/>
      <use xlink:href="#DejaVuSans-32" transform="translate(381.966797 0)"/>
      <use xlink:href="#DejaVuSans-20" transform="translate(445.589844 0)"/>
      <use xlink:href="#DejaVuSans-68" transform="translate(477.376953 0)"/>
      <use xlink:href="#DejaVuSans-6f" transform="translate(540.755859 0)"/>
      <use xlink:href="#DejaVuSans-75" transform="translate(601.9375 0)"/>
      <use xlink:href="#DejaVuSans-72" transform="translate(665.316406 0)"/>
      <use xlink:href="#DejaVuSans-73" transform="translate(706.429688 0)"/>
      <use xlink:href="#DejaVuSans-20" transform="translate(758.529297 0)"/>
      <use xlink:href="#DejaVuSans-66" transform="translate(790.316406 0)"/>
      <use xlink:href="#DejaVuSans-6f" transform="translate(825.521484 0)"/>
      <use xlink:href="#DejaVuSans-72" transform="translate(886.703125 0)"/>
      <use xlink:href="#DejaVuSans-77" transform="translate(927.816406 0)"/>
      <use xlink:href="#DejaVuSans-61" transform="translate(1009.603516 0)"/>
      <use xlink:href="#DejaVuSans-72" transform="translate(1070.882812 0)"/>
      <use xlink:href="#DejaVuSans-64" transform="translate(1110.246094 0)"/>
      <use xlink:href="#DejaVuSans-20" transform="translate(1173.722656 0)"/>
      <use xlink:href="#DejaVuSans-70" transform="translate(1205.509766 0)"/>
      <use xlink:href="#DejaVuSans-72" transform="translate(1268.986328 0)"/>
      <use xlink:href="#DejaVuSans-65" transform="translate(1307.849609 0)"/>
      <use xlink:href="#DejaVuSans-64" transform="translate(1369.373047 0)"/>
      <use xlink:href="#DejaVuSans-69" transform="translate(1432.849609 0)"/>
      <use xlink:href="#DejaVuSans-63" transform="translate(1460.632812 0)"/>
      <use xlink:href="#DejaVuSans-74" transform="translate(1515.613281 0)"/>
      <use xlink:href="#DejaVuSans-69" transform="translate(1554.822266 0)"/>
      <use xlink:href="#DejaVuSans-6f" transform="translate(1582.605469 0)"/>
      <use xlink:href="#DejaVuSans-6e" transform="translate(1643.787109 0)"/>
     </g>
    </g>
    <g id="line2d_19">
     <path d="M 786.6 333.444906 
L 796.6 333.444906 
L 806.6 333.444906 
" style="fill: none; stroke: #d62728; stroke-width: 1.5; stroke-linecap: square"/>
    </g>
    <g id="text_19">
     <!-- South Africa 12 hours forward prediction -->
     <g transform="translate(814.6 336.944906) scale(0.1 -0.1)">
      <use xlink:href="#DejaVuSans-53"/>
      <use xlink:href="#DejaVuSans-6f" transform="translate(63.476562 0)"/>
      <use xlink:href="#DejaVuSans-75" transform="translate(124.658203 0)"/>
      <use xlink:href="#DejaVuSans-74" transform="translate(188.037109 0)"/>
      <use xlink:href="#DejaVuSans-68" transform="translate(227.246094 0)"/>
      <use xlink:href="#DejaVuSans-20" transform="translate(290.625 0)"/>
      <use xlink:href="#DejaVuSans-41" transform="translate(322.412109 0)"/>
      <use xlink:href="#DejaVuSans-66" transform="translate(387.195312 0)"/>
      <use xlink:href="#DejaVuSans-72" transform="translate(422.400391 0)"/>
      <use xlink:href="#DejaVuSans-69" transform="translate(463.513672 0)"/>
      <use xlink:href="#DejaVuSans-63" transform="translate(491.296875 0)"/>
      <use xlink:href="#DejaVuSans-61" transform="translate(546.277344 0)"/>
      <use xlink:href="#DejaVuSans-20" transform="translate(607.556641 0)"/>
      <use xlink:href="#DejaVuSans-31" transform="translate(639.34375 0)"/>
      <use xlink:href="#DejaVuSans-32" transform="translate(702.966797 0)"/>
      <use xlink:href="#DejaVuSans-20" transform="translate(766.589844 0)"/>
      <use xlink:href="#DejaVuSans-68" transform="translate(798.376953 0)"/>
      <use xlink:href="#DejaVuSans-6f" transform="translate(861.755859 0)"/>
      <use xlink:href="#DejaVuSans-75" transform="translate(922.9375 0)"/>
      <use xlink:href="#DejaVuSans-72" transform="translate(986.316406 0)"/>
      <use xlink:href="#DejaVuSans-73" transform="translate(1027.429688 0)"/>
      <use xlink:href="#DejaVuSans-20" transform="translate(1079.529297 0)"/>
      <use xlink:href="#DejaVuSans-66" transform="translate(1111.316406 0)"/>
      <use xlink:href="#DejaVuSans-6f" transform="translate(1146.521484 0)"/>
      <use xlink:href="#DejaVuSans-72" transform="translate(1207.703125 0)"/>
      <use xlink:href="#DejaVuSans-77" transform="translate(1248.816406 0)"/>
      <use xlink:href="#DejaVuSans-61" transform="translate(1330.603516 0)"/>
      <use xlink:href="#DejaVuSans-72" transform="translate(1391.882812 0)"/>
      <use xlink:href="#DejaVuSans-64" transform="translate(1431.246094 0)"/>
      <use xlink:href="#DejaVuSans-20" transform="translate(1494.722656 0)"/>
      <use xlink:href="#DejaVuSans-70" transform="translate(1526.509766 0)"/>
      <use xlink:href="#DejaVuSans-72" transform="translate(1589.986328 0)"/>
      <use xlink:href="#DejaVuSans-65" transform="translate(1628.849609 0)"/>
      <use xlink:href="#DejaVuSans-64" transform="translate(1690.373047 0)"/>
      <use xlink:href="#DejaVuSans-69" transform="translate(1753.849609 0)"/>
      <use xlink:href="#DejaVuSans-63" transform="translate(1781.632812 0)"/>
      <use xlink:href="#DejaVuSans-74" transform="translate(1836.613281 0)"/>
      <use xlink:href="#DejaVuSans-69" transform="translate(1875.822266 0)"/>
      <use xlink:href="#DejaVuSans-6f" transform="translate(1903.605469 0)"/>
      <use xlink:href="#DejaVuSans-6e" transform="translate(1964.787109 0)"/>
     </g>
    </g>
   </g>
  </g>
 </g>
 <defs>
  <clipPath id="pb1d4b464a4">
   <rect x="108" y="69.12" width="669.6" height="443.52"/>
  </clipPath>
 </defs>
</svg>
