<?xml version="1.0" encoding="utf-8" standalone="no"?>
<!DOCTYPE svg PUBLIC "-//W3C//DTD SVG 1.1//EN"
  "http://www.w3.org/Graphics/SVG/1.1/DTD/svg11.dtd">
<svg xmlns:xlink="http://www.w3.org/1999/xlink" width="864pt" height="576pt" viewBox="0 0 864 576" xmlns="http://www.w3.org/2000/svg" version="1.1">
 <metadata>
  <rdf:RDF xmlns:dc="http://purl.org/dc/elements/1.1/" xmlns:cc="http://creativecommons.org/ns#" xmlns:rdf="http://www.w3.org/1999/02/22-rdf-syntax-ns#">
   <cc:Work>
    <dc:type rdf:resource="http://purl.org/dc/dcmitype/StillImage"/>
    <dc:date>2025-02-17T08:54:16.265656</dc:date>
    <dc:format>image/svg+xml</dc:format>
    <dc:creator>
     <cc:Agent>
      <dc:title>Matplotlib v3.10.0, https://matplotlib.org/</dc:title>
     </cc:Agent>
    </dc:creator>
   </cc:Work>
  </rdf:RDF>
 </metadata>
 <defs>
  <style type="text/css">*{stroke-linejoin: round; stroke-linecap: butt}</style>
 </defs>
 <g id="figure_1">
  <g id="patch_1">
   <path d="M 0 576 
L 864 576 
L 864 0 
L 0 0 
z
" style="fill: #ffffff"/>
  </g>
  <g id="axes_1">
   <g id="patch_2">
    <path d="M 108 512.64 
L 777.6 512.64 
L 777.6 69.12 
L 108 69.12 
z
" style="fill: #ffffff"/>
   </g>
   <g id="matplotlib.axis_1">
    <g id="xtick_1">
     <g id="line2d_1">
      <defs>
       <path id="m5150186466" d="M 0 0 
L 0 3.5 
" style="stroke: #000000; stroke-width: 0.8"/>
      </defs>
      <g>
       <use xlink:href="#m5150186466" x="138.436364" y="512.64" style="stroke: #000000; stroke-width: 0.8"/>
      </g>
     </g>
     <g id="text_1">
      <!-- 2022-01-01 (06:00) -->
      <g transform="translate(52.599101 575.178252) rotate(-30) scale(0.1 -0.1)">
       <defs>
        <path id="DejaVuSans-32" d="M 1228 531 
L 3431 531 
L 3431 0 
L 469 0 
L 469 531 
Q 828 903 1448 1529 
Q 2069 2156 2228 2338 
Q 2531 2678 2651 2914 
Q 2772 3150 2772 3378 
Q 2772 3750 2511 3984 
Q 2250 4219 1831 4219 
Q 1534 4219 1204 4116 
Q 875 4013 500 3803 
L 500 4441 
Q 881 4594 1212 4672 
Q 1544 4750 1819 4750 
Q 2544 4750 2975 4387 
Q 3406 4025 3406 3419 
Q 3406 3131 3298 2873 
Q 3191 2616 2906 2266 
Q 2828 2175 2409 1742 
Q 1991 1309 1228 531 
z
" transform="scale(0.015625)"/>
        <path id="DejaVuSans-30" d="M 2034 4250 
Q 1547 4250 1301 3770 
Q 1056 3291 1056 2328 
Q 1056 1369 1301 889 
Q 1547 409 2034 409 
Q 2525 409 2770 889 
Q 3016 1369 3016 2328 
Q 3016 3291 2770 3770 
Q 2525 4250 2034 4250 
z
M 2034 4750 
Q 2819 4750 3233 4129 
Q 3647 3509 3647 2328 
Q 3647 1150 3233 529 
Q 2819 -91 2034 -91 
Q 1250 -91 836 529 
Q 422 1150 422 2328 
Q 422 3509 836 4129 
Q 1250 4750 2034 4750 
z
" transform="scale(0.015625)"/>
        <path id="DejaVuSans-2d" d="M 313 2009 
L 1997 2009 
L 1997 1497 
L 313 1497 
L 313 2009 
z
" transform="scale(0.015625)"/>
        <path id="DejaVuSans-31" d="M 794 531 
L 1825 531 
L 1825 4091 
L 703 3866 
L 703 4441 
L 1819 4666 
L 2450 4666 
L 2450 531 
L 3481 531 
L 3481 0 
L 794 0 
L 794 531 
z
" transform="scale(0.015625)"/>
        <path id="DejaVuSans-20" transform="scale(0.015625)"/>
        <path id="DejaVuSans-28" d="M 1984 4856 
Q 1566 4138 1362 3434 
Q 1159 2731 1159 2009 
Q 1159 1288 1364 580 
Q 1569 -128 1984 -844 
L 1484 -844 
Q 1016 -109 783 600 
Q 550 1309 550 2009 
Q 550 2706 781 3412 
Q 1013 4119 1484 4856 
L 1984 4856 
z
" transform="scale(0.015625)"/>
        <path id="DejaVuSans-36" d="M 2113 2584 
Q 1688 2584 1439 2293 
Q 1191 2003 1191 1497 
Q 1191 994 1439 701 
Q 1688 409 2113 409 
Q 2538 409 2786 701 
Q 3034 994 3034 1497 
Q 3034 2003 2786 2293 
Q 2538 2584 2113 2584 
z
M 3366 4563 
L 3366 3988 
Q 3128 4100 2886 4159 
Q 2644 4219 2406 4219 
Q 1781 4219 1451 3797 
Q 1122 3375 1075 2522 
Q 1259 2794 1537 2939 
Q 1816 3084 2150 3084 
Q 2853 3084 3261 2657 
Q 3669 2231 3669 1497 
Q 3669 778 3244 343 
Q 2819 -91 2113 -91 
Q 1303 -91 875 529 
Q 447 1150 447 2328 
Q 447 3434 972 4092 
Q 1497 4750 2381 4750 
Q 2619 4750 2861 4703 
Q 3103 4656 3366 4563 
z
" transform="scale(0.015625)"/>
        <path id="DejaVuSans-3a" d="M 750 794 
L 1409 794 
L 1409 0 
L 750 0 
L 750 794 
z
M 750 3309 
L 1409 3309 
L 1409 2516 
L 750 2516 
L 750 3309 
z
" transform="scale(0.015625)"/>
        <path id="DejaVuSans-29" d="M 513 4856 
L 1013 4856 
Q 1481 4119 1714 3412 
Q 1947 2706 1947 2009 
Q 1947 1309 1714 600 
Q 1481 -109 1013 -844 
L 513 -844 
Q 928 -128 1133 580 
Q 1338 1288 1338 2009 
Q 1338 2731 1133 3434 
Q 928 4138 513 4856 
z
" transform="scale(0.015625)"/>
       </defs>
       <use xlink:href="#DejaVuSans-32"/>
       <use xlink:href="#DejaVuSans-30" transform="translate(63.623047 0)"/>
       <use xlink:href="#DejaVuSans-32" transform="translate(127.246094 0)"/>
       <use xlink:href="#DejaVuSans-32" transform="translate(190.869141 0)"/>
       <use xlink:href="#DejaVuSans-2d" transform="translate(254.492188 0)"/>
       <use xlink:href="#DejaVuSans-30" transform="translate(290.576172 0)"/>
       <use xlink:href="#DejaVuSans-31" transform="translate(354.199219 0)"/>
       <use xlink:href="#DejaVuSans-2d" transform="translate(417.822266 0)"/>
       <use xlink:href="#DejaVuSans-30" transform="translate(453.90625 0)"/>
       <use xlink:href="#DejaVuSans-31" transform="translate(517.529297 0)"/>
       <use xlink:href="#DejaVuSans-20" transform="translate(581.152344 0)"/>
       <use xlink:href="#DejaVuSans-28" transform="translate(612.939453 0)"/>
       <use xlink:href="#DejaVuSans-30" transform="translate(651.953125 0)"/>
       <use xlink:href="#DejaVuSans-36" transform="translate(715.576172 0)"/>
       <use xlink:href="#DejaVuSans-3a" transform="translate(779.199219 0)"/>
       <use xlink:href="#DejaVuSans-30" transform="translate(812.890625 0)"/>
       <use xlink:href="#DejaVuSans-30" transform="translate(876.513672 0)"/>
       <use xlink:href="#DejaVuSans-29" transform="translate(940.136719 0)"/>
      </g>
     </g>
    </g>
    <g id="xtick_2">
     <g id="line2d_2">
      <g>
       <use xlink:href="#m5150186466" x="258.226068" y="512.64" style="stroke: #000000; stroke-width: 0.8"/>
      </g>
     </g>
     <g id="text_2">
      <!-- 2022-03-15 (18:00) -->
      <g transform="translate(172.388805 575.178252) rotate(-30) scale(0.1 -0.1)">
       <defs>
        <path id="DejaVuSans-33" d="M 2597 2516 
Q 3050 2419 3304 2112 
Q 3559 1806 3559 1356 
Q 3559 666 3084 287 
Q 2609 -91 1734 -91 
Q 1441 -91 1130 -33 
Q 819 25 488 141 
L 488 750 
Q 750 597 1062 519 
Q 1375 441 1716 441 
Q 2309 441 2620 675 
Q 2931 909 2931 1356 
Q 2931 1769 2642 2001 
Q 2353 2234 1838 2234 
L 1294 2234 
L 1294 2753 
L 1863 2753 
Q 2328 2753 2575 2939 
Q 2822 3125 2822 3475 
Q 2822 3834 2567 4026 
Q 2313 4219 1838 4219 
Q 1578 4219 1281 4162 
Q 984 4106 628 3988 
L 628 4550 
Q 988 4650 1302 4700 
Q 1616 4750 1894 4750 
Q 2613 4750 3031 4423 
Q 3450 4097 3450 3541 
Q 3450 3153 3228 2886 
Q 3006 2619 2597 2516 
z
" transform="scale(0.015625)"/>
        <path id="DejaVuSans-35" d="M 691 4666 
L 3169 4666 
L 3169 4134 
L 1269 4134 
L 1269 2991 
Q 1406 3038 1543 3061 
Q 1681 3084 1819 3084 
Q 2600 3084 3056 2656 
Q 3513 2228 3513 1497 
Q 3513 744 3044 326 
Q 2575 -91 1722 -91 
Q 1428 -91 1123 -41 
Q 819 9 494 109 
L 494 744 
Q 775 591 1075 516 
Q 1375 441 1709 441 
Q 2250 441 2565 725 
Q 2881 1009 2881 1497 
Q 2881 1984 2565 2268 
Q 2250 2553 1709 2553 
Q 1456 2553 1204 2497 
Q 953 2441 691 2322 
L 691 4666 
z
" transform="scale(0.015625)"/>
        <path id="DejaVuSans-38" d="M 2034 2216 
Q 1584 2216 1326 1975 
Q 1069 1734 1069 1313 
Q 1069 891 1326 650 
Q 1584 409 2034 409 
Q 2484 409 2743 651 
Q 3003 894 3003 1313 
Q 3003 1734 2745 1975 
Q 2488 2216 2034 2216 
z
M 1403 2484 
Q 997 2584 770 2862 
Q 544 3141 544 3541 
Q 544 4100 942 4425 
Q 1341 4750 2034 4750 
Q 2731 4750 3128 4425 
Q 3525 4100 3525 3541 
Q 3525 3141 3298 2862 
Q 3072 2584 2669 2484 
Q 3125 2378 3379 2068 
Q 3634 1759 3634 1313 
Q 3634 634 3220 271 
Q 2806 -91 2034 -91 
Q 1263 -91 848 271 
Q 434 634 434 1313 
Q 434 1759 690 2068 
Q 947 2378 1403 2484 
z
M 1172 3481 
Q 1172 3119 1398 2916 
Q 1625 2713 2034 2713 
Q 2441 2713 2670 2916 
Q 2900 3119 2900 3481 
Q 2900 3844 2670 4047 
Q 2441 4250 2034 4250 
Q 1625 4250 1398 4047 
Q 1172 3844 1172 3481 
z
" transform="scale(0.015625)"/>
       </defs>
       <use xlink:href="#DejaVuSans-32"/>
       <use xlink:href="#DejaVuSans-30" transform="translate(63.623047 0)"/>
       <use xlink:href="#DejaVuSans-32" transform="translate(127.246094 0)"/>
       <use xlink:href="#DejaVuSans-32" transform="translate(190.869141 0)"/>
       <use xlink:href="#DejaVuSans-2d" transform="translate(254.492188 0)"/>
       <use xlink:href="#DejaVuSans-30" transform="translate(290.576172 0)"/>
       <use xlink:href="#DejaVuSans-33" transform="translate(354.199219 0)"/>
       <use xlink:href="#DejaVuSans-2d" transform="translate(417.822266 0)"/>
       <use xlink:href="#DejaVuSans-31" transform="translate(453.90625 0)"/>
       <use xlink:href="#DejaVuSans-35" transform="translate(517.529297 0)"/>
       <use xlink:href="#DejaVuSans-20" transform="translate(581.152344 0)"/>
       <use xlink:href="#DejaVuSans-28" transform="translate(612.939453 0)"/>
       <use xlink:href="#DejaVuSans-31" transform="translate(651.953125 0)"/>
       <use xlink:href="#DejaVuSans-38" transform="translate(715.576172 0)"/>
       <use xlink:href="#DejaVuSans-3a" transform="translate(779.199219 0)"/>
       <use xlink:href="#DejaVuSans-30" transform="translate(812.890625 0)"/>
       <use xlink:href="#DejaVuSans-30" transform="translate(876.513672 0)"/>
       <use xlink:href="#DejaVuSans-29" transform="translate(940.136719 0)"/>
      </g>
     </g>
    </g>
    <g id="xtick_3">
     <g id="line2d_3">
      <g>
       <use xlink:href="#m5150186466" x="380.46046" y="512.64" style="stroke: #000000; stroke-width: 0.8"/>
      </g>
     </g>
     <g id="text_3">
      <!-- 2022-05-29 (18:00) -->
      <g transform="translate(294.623198 575.178252) rotate(-30) scale(0.1 -0.1)">
       <defs>
        <path id="DejaVuSans-39" d="M 703 97 
L 703 672 
Q 941 559 1184 500 
Q 1428 441 1663 441 
Q 2288 441 2617 861 
Q 2947 1281 2994 2138 
Q 2813 1869 2534 1725 
Q 2256 1581 1919 1581 
Q 1219 1581 811 2004 
Q 403 2428 403 3163 
Q 403 3881 828 4315 
Q 1253 4750 1959 4750 
Q 2769 4750 3195 4129 
Q 3622 3509 3622 2328 
Q 3622 1225 3098 567 
Q 2575 -91 1691 -91 
Q 1453 -91 1209 -44 
Q 966 3 703 97 
z
M 1959 2075 
Q 2384 2075 2632 2365 
Q 2881 2656 2881 3163 
Q 2881 3666 2632 3958 
Q 2384 4250 1959 4250 
Q 1534 4250 1286 3958 
Q 1038 3666 1038 3163 
Q 1038 2656 1286 2365 
Q 1534 2075 1959 2075 
z
" transform="scale(0.015625)"/>
       </defs>
       <use xlink:href="#DejaVuSans-32"/>
       <use xlink:href="#DejaVuSans-30" transform="translate(63.623047 0)"/>
       <use xlink:href="#DejaVuSans-32" transform="translate(127.246094 0)"/>
       <use xlink:href="#DejaVuSans-32" transform="translate(190.869141 0)"/>
       <use xlink:href="#DejaVuSans-2d" transform="translate(254.492188 0)"/>
       <use xlink:href="#DejaVuSans-30" transform="translate(290.576172 0)"/>
       <use xlink:href="#DejaVuSans-35" transform="translate(354.199219 0)"/>
       <use xlink:href="#DejaVuSans-2d" transform="translate(417.822266 0)"/>
       <use xlink:href="#DejaVuSans-32" transform="translate(453.90625 0)"/>
       <use xlink:href="#DejaVuSans-39" transform="translate(517.529297 0)"/>
       <use xlink:href="#DejaVuSans-20" transform="translate(581.152344 0)"/>
       <use xlink:href="#DejaVuSans-28" transform="translate(612.939453 0)"/>
       <use xlink:href="#DejaVuSans-31" transform="translate(651.953125 0)"/>
       <use xlink:href="#DejaVuSans-38" transform="translate(715.576172 0)"/>
       <use xlink:href="#DejaVuSans-3a" transform="translate(779.199219 0)"/>
       <use xlink:href="#DejaVuSans-30" transform="translate(812.890625 0)"/>
       <use xlink:href="#DejaVuSans-30" transform="translate(876.513672 0)"/>
       <use xlink:href="#DejaVuSans-29" transform="translate(940.136719 0)"/>
      </g>
     </g>
    </g>
    <g id="xtick_4">
     <g id="line2d_4">
      <g>
       <use xlink:href="#m5150186466" x="502.694852" y="512.64" style="stroke: #000000; stroke-width: 0.8"/>
      </g>
     </g>
     <g id="text_4">
      <!-- 2022-08-12 (18:00) -->
      <g transform="translate(416.85759 575.178252) rotate(-30) scale(0.1 -0.1)">
       <use xlink:href="#DejaVuSans-32"/>
       <use xlink:href="#DejaVuSans-30" transform="translate(63.623047 0)"/>
       <use xlink:href="#DejaVuSans-32" transform="translate(127.246094 0)"/>
       <use xlink:href="#DejaVuSans-32" transform="translate(190.869141 0)"/>
       <use xlink:href="#DejaVuSans-2d" transform="translate(254.492188 0)"/>
       <use xlink:href="#DejaVuSans-30" transform="translate(290.576172 0)"/>
       <use xlink:href="#DejaVuSans-38" transform="translate(354.199219 0)"/>
       <use xlink:href="#DejaVuSans-2d" transform="translate(417.822266 0)"/>
       <use xlink:href="#DejaVuSans-31" transform="translate(453.90625 0)"/>
       <use xlink:href="#DejaVuSans-32" transform="translate(517.529297 0)"/>
       <use xlink:href="#DejaVuSans-20" transform="translate(581.152344 0)"/>
       <use xlink:href="#DejaVuSans-28" transform="translate(612.939453 0)"/>
       <use xlink:href="#DejaVuSans-31" transform="translate(651.953125 0)"/>
       <use xlink:href="#DejaVuSans-38" transform="translate(715.576172 0)"/>
       <use xlink:href="#DejaVuSans-3a" transform="translate(779.199219 0)"/>
       <use xlink:href="#DejaVuSans-30" transform="translate(812.890625 0)"/>
       <use xlink:href="#DejaVuSans-30" transform="translate(876.513672 0)"/>
       <use xlink:href="#DejaVuSans-29" transform="translate(940.136719 0)"/>
      </g>
     </g>
    </g>
    <g id="xtick_5">
     <g id="line2d_5">
      <g>
       <use xlink:href="#m5150186466" x="624.929244" y="512.64" style="stroke: #000000; stroke-width: 0.8"/>
      </g>
     </g>
     <g id="text_5">
      <!-- 2022-10-26 (18:00) -->
      <g transform="translate(539.091982 575.178252) rotate(-30) scale(0.1 -0.1)">
       <use xlink:href="#DejaVuSans-32"/>
       <use xlink:href="#DejaVuSans-30" transform="translate(63.623047 0)"/>
       <use xlink:href="#DejaVuSans-32" transform="translate(127.246094 0)"/>
       <use xlink:href="#DejaVuSans-32" transform="translate(190.869141 0)"/>
       <use xlink:href="#DejaVuSans-2d" transform="translate(254.492188 0)"/>
       <use xlink:href="#DejaVuSans-31" transform="translate(290.576172 0)"/>
       <use xlink:href="#DejaVuSans-30" transform="translate(354.199219 0)"/>
       <use xlink:href="#DejaVuSans-2d" transform="translate(417.822266 0)"/>
       <use xlink:href="#DejaVuSans-32" transform="translate(453.90625 0)"/>
       <use xlink:href="#DejaVuSans-36" transform="translate(517.529297 0)"/>
       <use xlink:href="#DejaVuSans-20" transform="translate(581.152344 0)"/>
       <use xlink:href="#DejaVuSans-28" transform="translate(612.939453 0)"/>
       <use xlink:href="#DejaVuSans-31" transform="translate(651.953125 0)"/>
       <use xlink:href="#DejaVuSans-38" transform="translate(715.576172 0)"/>
       <use xlink:href="#DejaVuSans-3a" transform="translate(779.199219 0)"/>
       <use xlink:href="#DejaVuSans-30" transform="translate(812.890625 0)"/>
       <use xlink:href="#DejaVuSans-30" transform="translate(876.513672 0)"/>
       <use xlink:href="#DejaVuSans-29" transform="translate(940.136719 0)"/>
      </g>
     </g>
    </g>
    <g id="xtick_6">
     <g id="line2d_6">
      <g>
       <use xlink:href="#m5150186466" x="747.163636" y="512.64" style="stroke: #000000; stroke-width: 0.8"/>
      </g>
     </g>
     <g id="text_6">
      <!-- 2023-01-09 (18:00) -->
      <g transform="translate(661.326374 575.178252) rotate(-30) scale(0.1 -0.1)">
       <use xlink:href="#DejaVuSans-32"/>
       <use xlink:href="#DejaVuSans-30" transform="translate(63.623047 0)"/>
       <use xlink:href="#DejaVuSans-32" transform="translate(127.246094 0)"/>
       <use xlink:href="#DejaVuSans-33" transform="translate(190.869141 0)"/>
       <use xlink:href="#DejaVuSans-2d" transform="translate(254.492188 0)"/>
       <use xlink:href="#DejaVuSans-30" transform="translate(290.576172 0)"/>
       <use xlink:href="#DejaVuSans-31" transform="translate(354.199219 0)"/>
       <use xlink:href="#DejaVuSans-2d" transform="translate(417.822266 0)"/>
       <use xlink:href="#DejaVuSans-30" transform="translate(453.90625 0)"/>
       <use xlink:href="#DejaVuSans-39" transform="translate(517.529297 0)"/>
       <use xlink:href="#DejaVuSans-20" transform="translate(581.152344 0)"/>
       <use xlink:href="#DejaVuSans-28" transform="translate(612.939453 0)"/>
       <use xlink:href="#DejaVuSans-31" transform="translate(651.953125 0)"/>
       <use xlink:href="#DejaVuSans-38" transform="translate(715.576172 0)"/>
       <use xlink:href="#DejaVuSans-3a" transform="translate(779.199219 0)"/>
       <use xlink:href="#DejaVuSans-30" transform="translate(812.890625 0)"/>
       <use xlink:href="#DejaVuSans-30" transform="translate(876.513672 0)"/>
       <use xlink:href="#DejaVuSans-29" transform="translate(940.136719 0)"/>
      </g>
     </g>
    </g>
    <g id="text_7">
     <!-- Dates -->
     <g transform="translate(428.244531 588.577752) scale(0.1 -0.1)">
      <defs>
       <path id="DejaVuSans-44" d="M 1259 4147 
L 1259 519 
L 2022 519 
Q 2988 519 3436 956 
Q 3884 1394 3884 2338 
Q 3884 3275 3436 3711 
Q 2988 4147 2022 4147 
L 1259 4147 
z
M 628 4666 
L 1925 4666 
Q 3281 4666 3915 4102 
Q 4550 3538 4550 2338 
Q 4550 1131 3912 565 
Q 3275 0 1925 0 
L 628 0 
L 628 4666 
z
" transform="scale(0.015625)"/>
       <path id="DejaVuSans-61" d="M 2194 1759 
Q 1497 1759 1228 1600 
Q 959 1441 959 1056 
Q 959 750 1161 570 
Q 1363 391 1709 391 
Q 2188 391 2477 730 
Q 2766 1069 2766 1631 
L 2766 1759 
L 2194 1759 
z
M 3341 1997 
L 3341 0 
L 2766 0 
L 2766 531 
Q 2569 213 2275 61 
Q 1981 -91 1556 -91 
Q 1019 -91 701 211 
Q 384 513 384 1019 
Q 384 1609 779 1909 
Q 1175 2209 1959 2209 
L 2766 2209 
L 2766 2266 
Q 2766 2663 2505 2880 
Q 2244 3097 1772 3097 
Q 1472 3097 1187 3025 
Q 903 2953 641 2809 
L 641 3341 
Q 956 3463 1253 3523 
Q 1550 3584 1831 3584 
Q 2591 3584 2966 3190 
Q 3341 2797 3341 1997 
z
" transform="scale(0.015625)"/>
       <path id="DejaVuSans-74" d="M 1172 4494 
L 1172 3500 
L 2356 3500 
L 2356 3053 
L 1172 3053 
L 1172 1153 
Q 1172 725 1289 603 
Q 1406 481 1766 481 
L 2356 481 
L 2356 0 
L 1766 0 
Q 1100 0 847 248 
Q 594 497 594 1153 
L 594 3053 
L 172 3053 
L 172 3500 
L 594 3500 
L 594 4494 
L 1172 4494 
z
" transform="scale(0.015625)"/>
       <path id="DejaVuSans-65" d="M 3597 1894 
L 3597 1613 
L 953 1613 
Q 991 1019 1311 708 
Q 1631 397 2203 397 
Q 2534 397 2845 478 
Q 3156 559 3463 722 
L 3463 178 
Q 3153 47 2828 -22 
Q 2503 -91 2169 -91 
Q 1331 -91 842 396 
Q 353 884 353 1716 
Q 353 2575 817 3079 
Q 1281 3584 2069 3584 
Q 2775 3584 3186 3129 
Q 3597 2675 3597 1894 
z
M 3022 2063 
Q 3016 2534 2758 2815 
Q 2500 3097 2075 3097 
Q 1594 3097 1305 2825 
Q 1016 2553 972 2059 
L 3022 2063 
z
" transform="scale(0.015625)"/>
       <path id="DejaVuSans-73" d="M 2834 3397 
L 2834 2853 
Q 2591 2978 2328 3040 
Q 2066 3103 1784 3103 
Q 1356 3103 1142 2972 
Q 928 2841 928 2578 
Q 928 2378 1081 2264 
Q 1234 2150 1697 2047 
L 1894 2003 
Q 2506 1872 2764 1633 
Q 3022 1394 3022 966 
Q 3022 478 2636 193 
Q 2250 -91 1575 -91 
Q 1294 -91 989 -36 
Q 684 19 347 128 
L 347 722 
Q 666 556 975 473 
Q 1284 391 1588 391 
Q 1994 391 2212 530 
Q 2431 669 2431 922 
Q 2431 1156 2273 1281 
Q 2116 1406 1581 1522 
L 1381 1569 
Q 847 1681 609 1914 
Q 372 2147 372 2553 
Q 372 3047 722 3315 
Q 1072 3584 1716 3584 
Q 2034 3584 2315 3537 
Q 2597 3491 2834 3397 
z
" transform="scale(0.015625)"/>
      </defs>
      <use xlink:href="#DejaVuSans-44"/>
      <use xlink:href="#DejaVuSans-61" transform="translate(77.001953 0)"/>
      <use xlink:href="#DejaVuSans-74" transform="translate(138.28125 0)"/>
      <use xlink:href="#DejaVuSans-65" transform="translate(177.490234 0)"/>
      <use xlink:href="#DejaVuSans-73" transform="translate(239.013672 0)"/>
     </g>
    </g>
   </g>
   <g id="matplotlib.axis_2">
    <g id="ytick_1">
     <g id="line2d_7">
      <defs>
       <path id="m8789f469fa" d="M 0 0 
L -3.5 0 
" style="stroke: #000000; stroke-width: 0.8"/>
      </defs>
      <g>
       <use xlink:href="#m8789f469fa" x="108" y="480.450371" style="stroke: #000000; stroke-width: 0.8"/>
      </g>
     </g>
     <g id="text_8">
      <!-- 2 -->
      <g transform="translate(94.6375 484.24959) scale(0.1 -0.1)">
       <use xlink:href="#DejaVuSans-32"/>
      </g>
     </g>
    </g>
    <g id="ytick_2">
     <g id="line2d_8">
      <g>
       <use xlink:href="#m8789f469fa" x="108" y="430.095362" style="stroke: #000000; stroke-width: 0.8"/>
      </g>
     </g>
     <g id="text_9">
      <!-- 3 -->
      <g transform="translate(94.6375 433.894581) scale(0.1 -0.1)">
       <use xlink:href="#DejaVuSans-33"/>
      </g>
     </g>
    </g>
    <g id="ytick_3">
     <g id="line2d_9">
      <g>
       <use xlink:href="#m8789f469fa" x="108" y="379.740353" style="stroke: #000000; stroke-width: 0.8"/>
      </g>
     </g>
     <g id="text_10">
      <!-- 4 -->
      <g transform="translate(94.6375 383.539572) scale(0.1 -0.1)">
       <defs>
        <path id="DejaVuSans-34" d="M 2419 4116 
L 825 1625 
L 2419 1625 
L 2419 4116 
z
M 2253 4666 
L 3047 4666 
L 3047 1625 
L 3713 1625 
L 3713 1100 
L 3047 1100 
L 3047 0 
L 2419 0 
L 2419 1100 
L 313 1100 
L 313 1709 
L 2253 4666 
z
" transform="scale(0.015625)"/>
       </defs>
       <use xlink:href="#DejaVuSans-34"/>
      </g>
     </g>
    </g>
    <g id="ytick_4">
     <g id="line2d_10">
      <g>
       <use xlink:href="#m8789f469fa" x="108" y="329.385344" style="stroke: #000000; stroke-width: 0.8"/>
      </g>
     </g>
     <g id="text_11">
      <!-- 5 -->
      <g transform="translate(94.6375 333.184562) scale(0.1 -0.1)">
       <use xlink:href="#DejaVuSans-35"/>
      </g>
     </g>
    </g>
    <g id="ytick_5">
     <g id="line2d_11">
      <g>
       <use xlink:href="#m8789f469fa" x="108" y="279.030335" style="stroke: #000000; stroke-width: 0.8"/>
      </g>
     </g>
     <g id="text_12">
      <!-- 6 -->
      <g transform="translate(94.6375 282.829553) scale(0.1 -0.1)">
       <use xlink:href="#DejaVuSans-36"/>
      </g>
     </g>
    </g>
    <g id="ytick_6">
     <g id="line2d_12">
      <g>
       <use xlink:href="#m8789f469fa" x="108" y="228.675325" style="stroke: #000000; stroke-width: 0.8"/>
      </g>
     </g>
     <g id="text_13">
      <!-- 7 -->
      <g transform="translate(94.6375 232.474544) scale(0.1 -0.1)">
       <defs>
        <path id="DejaVuSans-37" d="M 525 4666 
L 3525 4666 
L 3525 4397 
L 1831 0 
L 1172 0 
L 2766 4134 
L 525 4134 
L 525 4666 
z
" transform="scale(0.015625)"/>
       </defs>
       <use xlink:href="#DejaVuSans-37"/>
      </g>
     </g>
    </g>
    <g id="ytick_7">
     <g id="line2d_13">
      <g>
       <use xlink:href="#m8789f469fa" x="108" y="178.320316" style="stroke: #000000; stroke-width: 0.8"/>
      </g>
     </g>
     <g id="text_14">
      <!-- 8 -->
      <g transform="translate(94.6375 182.119535) scale(0.1 -0.1)">
       <use xlink:href="#DejaVuSans-38"/>
      </g>
     </g>
    </g>
    <g id="ytick_8">
     <g id="line2d_14">
      <g>
       <use xlink:href="#m8789f469fa" x="108" y="127.965307" style="stroke: #000000; stroke-width: 0.8"/>
      </g>
     </g>
     <g id="text_15">
      <!-- 9 -->
      <g transform="translate(94.6375 131.764526) scale(0.1 -0.1)">
       <use xlink:href="#DejaVuSans-39"/>
      </g>
     </g>
    </g>
    <g id="ytick_9">
     <g id="line2d_15">
      <g>
       <use xlink:href="#m8789f469fa" x="108" y="77.610298" style="stroke: #000000; stroke-width: 0.8"/>
      </g>
     </g>
     <g id="text_16">
      <!-- 10 -->
      <g transform="translate(88.275 81.409517) scale(0.1 -0.1)">
       <use xlink:href="#DejaVuSans-31"/>
       <use xlink:href="#DejaVuSans-30" transform="translate(63.623047 0)"/>
      </g>
     </g>
    </g>
    <g id="text_17">
     <!-- RMSEs -->
     <g transform="translate(82.195312 307.606562) rotate(-90) scale(0.1 -0.1)">
      <defs>
       <path id="DejaVuSans-52" d="M 2841 2188 
Q 3044 2119 3236 1894 
Q 3428 1669 3622 1275 
L 4263 0 
L 3584 0 
L 2988 1197 
Q 2756 1666 2539 1819 
Q 2322 1972 1947 1972 
L 1259 1972 
L 1259 0 
L 628 0 
L 628 4666 
L 2053 4666 
Q 2853 4666 3247 4331 
Q 3641 3997 3641 3322 
Q 3641 2881 3436 2590 
Q 3231 2300 2841 2188 
z
M 1259 4147 
L 1259 2491 
L 2053 2491 
Q 2509 2491 2742 2702 
Q 2975 2913 2975 3322 
Q 2975 3731 2742 3939 
Q 2509 4147 2053 4147 
L 1259 4147 
z
" transform="scale(0.015625)"/>
       <path id="DejaVuSans-4d" d="M 628 4666 
L 1569 4666 
L 2759 1491 
L 3956 4666 
L 4897 4666 
L 4897 0 
L 4281 0 
L 4281 4097 
L 3078 897 
L 2444 897 
L 1241 4097 
L 1241 0 
L 628 0 
L 628 4666 
z
" transform="scale(0.015625)"/>
       <path id="DejaVuSans-53" d="M 3425 4513 
L 3425 3897 
Q 3066 4069 2747 4153 
Q 2428 4238 2131 4238 
Q 1616 4238 1336 4038 
Q 1056 3838 1056 3469 
Q 1056 3159 1242 3001 
Q 1428 2844 1947 2747 
L 2328 2669 
Q 3034 2534 3370 2195 
Q 3706 1856 3706 1288 
Q 3706 609 3251 259 
Q 2797 -91 1919 -91 
Q 1588 -91 1214 -16 
Q 841 59 441 206 
L 441 856 
Q 825 641 1194 531 
Q 1563 422 1919 422 
Q 2459 422 2753 634 
Q 3047 847 3047 1241 
Q 3047 1584 2836 1778 
Q 2625 1972 2144 2069 
L 1759 2144 
Q 1053 2284 737 2584 
Q 422 2884 422 3419 
Q 422 4038 858 4394 
Q 1294 4750 2059 4750 
Q 2388 4750 2728 4690 
Q 3069 4631 3425 4513 
z
" transform="scale(0.015625)"/>
       <path id="DejaVuSans-45" d="M 628 4666 
L 3578 4666 
L 3578 4134 
L 1259 4134 
L 1259 2753 
L 3481 2753 
L 3481 2222 
L 1259 2222 
L 1259 531 
L 3634 531 
L 3634 0 
L 628 0 
L 628 4666 
z
" transform="scale(0.015625)"/>
      </defs>
      <use xlink:href="#DejaVuSans-52"/>
      <use xlink:href="#DejaVuSans-4d" transform="translate(69.482422 0)"/>
      <use xlink:href="#DejaVuSans-53" transform="translate(155.761719 0)"/>
      <use xlink:href="#DejaVuSans-45" transform="translate(219.238281 0)"/>
      <use xlink:href="#DejaVuSans-73" transform="translate(282.421875 0)"/>
     </g>
    </g>
   </g>
   <g id="line2d_16">
    <path d="M 138.436364 273.935891 
L 140.881051 336.782119 
L 143.325739 327.810429 
L 145.770427 304.520296 
L 148.215115 314.295543 
L 150.659803 329.491881 
L 153.104491 323.007673 
L 155.549179 329.871497 
L 157.993866 327.590679 
L 160.438554 319.410684 
L 162.883242 324.090551 
L 165.32793 324.459915 
L 167.772618 303.983503 
L 170.217306 329.186483 
L 172.661993 328.083724 
L 177.551369 357.13509 
L 179.996057 320.207734 
L 182.440745 335.949965 
L 184.885433 332.571934 
L 187.33012 324.840179 
L 189.774808 323.821386 
L 192.219496 333.890554 
L 194.664184 333.502174 
L 197.108872 350.934237 
L 199.55356 327.060201 
L 201.998248 326.618204 
L 204.442935 327.361685 
L 206.887623 317.125928 
L 209.332311 322.400119 
L 211.776999 324.68658 
L 214.221687 342.37537 
L 216.666375 338.763687 
L 219.111062 337.411499 
L 221.55575 319.335097 
L 224.000438 314.304307 
L 226.445126 334.688468 
L 228.889814 333.271066 
L 231.334502 339.139293 
L 233.779189 344.204587 
L 236.223877 317.891427 
L 238.668565 307.415319 
L 241.113253 300.350786 
L 243.557941 325.553814 
L 246.002629 311.766834 
L 248.447317 311.216235 
L 250.892004 333.827933 
L 253.336692 322.004127 
L 255.78138 302.656023 
L 258.226068 315.448198 
L 260.670756 302.646683 
L 263.115444 300.106112 
L 265.560131 318.616564 
L 268.004819 318.291405 
L 270.449507 323.750986 
L 272.894195 341.791611 
L 275.338883 331.052509 
L 277.783571 301.987841 
L 280.228258 302.797521 
L 282.672946 310.463437 
L 285.117634 313.524017 
L 287.562322 336.094464 
L 290.00701 300.981174 
L 292.451698 296.306445 
L 294.896386 326.429741 
L 297.341073 339.954111 
L 299.785761 318.105343 
L 302.230449 319.392364 
L 304.675137 343.165865 
L 307.119825 337.347269 
L 309.564513 338.514691 
L 312.0092 316.274853 
L 314.453888 329.77795 
L 316.898576 312.05953 
L 319.343264 336.972432 
L 321.787952 344.544056 
L 324.23264 329.983269 
L 326.677327 336.825652 
L 329.122015 325.171029 
L 331.566703 326.897694 
L 334.011391 319.994443 
L 336.456079 326.410364 
L 338.900767 320.322459 
L 341.345455 341.113465 
L 343.790142 311.429405 
L 346.23483 304.40778 
L 348.679518 313.12111 
L 351.124206 301.085983 
L 353.568894 316.816353 
L 356.013582 288.638488 
L 358.458269 301.16097 
L 360.902957 317.573232 
L 363.347645 323.69055 
L 365.792333 312.572072 
L 368.237021 310.109249 
L 373.126396 324.533437 
L 375.571084 341.298158 
L 378.015772 334.353849 
L 380.46046 323.492746 
L 382.905148 311.521488 
L 385.349836 318.623839 
L 387.794524 324.172549 
L 390.239211 319.509154 
L 392.683899 324.124743 
L 395.128587 330.134755 
L 397.573275 341.045345 
L 400.017963 324.325428 
L 402.462651 323.292997 
L 404.907338 330.67527 
L 407.352026 329.060305 
L 409.796714 333.735394 
L 412.241402 314.864799 
L 414.68609 330.52316 
L 417.130778 342.035709 
L 419.575465 346.812028 
L 422.020153 335.249488 
L 424.464841 338.833151 
L 426.909529 357.146807 
L 429.354217 339.449445 
L 431.798905 336.395516 
L 434.243593 330.89987 
L 436.68828 346.185602 
L 439.132968 341.595801 
L 441.577656 307.922386 
L 444.022344 320.125376 
L 446.467032 313.600901 
L 448.91172 314.218563 
L 451.356407 321.808196 
L 453.801095 324.750522 
L 456.245783 299.447991 
L 458.690471 327.969647 
L 461.135159 303.691936 
L 463.579847 329.445948 
L 466.024535 357.190651 
L 468.469222 339.25409 
L 470.91391 341.277941 
L 473.358598 341.319528 
L 475.803286 330.819001 
L 478.247974 327.292605 
L 480.692662 323.518894 
L 483.137349 327.709342 
L 485.582037 327.248088 
L 488.026725 327.73429 
L 490.471413 334.330798 
L 492.916101 336.493313 
L 495.360789 322.301385 
L 497.805476 318.752107 
L 500.250164 342.600042 
L 502.694852 328.341171 
L 505.13954 323.069358 
L 507.584228 321.72872 
L 510.028916 312.33998 
L 512.473604 307.851626 
L 514.918291 307.427421 
L 517.362979 336.17106 
L 519.807667 329.735882 
L 522.252355 333.017461 
L 524.697043 330.837393 
L 527.141731 334.151483 
L 529.586418 342.758924 
L 532.031106 344.736626 
L 534.475794 316.517126 
L 536.920482 298.044828 
L 539.36517 301.401009 
L 541.809858 312.72046 
L 544.254545 294.388412 
L 546.699233 315.30622 
L 549.143921 344.171475 
L 551.588609 324.814079 
L 554.033297 323.06105 
L 556.477985 319.537415 
L 558.922673 336.552717 
L 561.36736 341.449213 
L 563.812048 346.6203 
L 566.256736 342.276997 
L 568.701424 325.781752 
L 571.146112 330.208037 
L 573.5908 293.645579 
L 576.035487 315.712104 
L 578.480175 310.984719 
L 580.924863 317.413246 
L 583.369551 320.016413 
L 585.814239 322.238596 
L 588.258927 307.427901 
L 590.703614 300.473123 
L 593.148302 303.821164 
L 595.59299 319.84202 
L 598.037678 333.522007 
L 600.482366 297.163859 
L 602.927054 310.782473 
L 605.371742 305.838532 
L 607.816429 302.284643 
L 610.261117 299.876854 
L 612.705805 323.509194 
L 615.150493 313.786603 
L 617.595181 331.424898 
L 620.039869 333.831558 
L 622.484556 317.584541 
L 624.929244 322.189301 
L 627.373932 335.86487 
L 629.81862 329.332063 
L 632.263308 314.5904 
L 634.707996 331.263111 
L 637.152683 337.658694 
L 639.597371 328.618356 
L 642.042059 351.20369 
L 644.486747 332.482685 
L 646.931435 337.773107 
L 649.376123 328.530955 
L 651.820811 330.1021 
L 654.265498 330.150147 
L 656.710186 316.133716 
L 659.154874 323.679385 
L 661.599562 319.351881 
L 664.04425 345.778877 
L 666.488938 331.760238 
L 668.933625 345.200377 
L 671.378313 325.78557 
L 673.823001 325.790468 
L 676.267689 298.742784 
L 678.712377 312.801858 
L 681.157065 302.066406 
L 683.601752 316.13057 
L 686.04644 327.995723 
L 688.491128 310.007202 
L 690.935816 309.13286 
L 693.380504 309.048413 
L 695.825192 322.342036 
L 698.26988 316.433903 
L 700.714567 315.812303 
L 703.159255 300.413143 
L 705.603943 298.762977 
L 708.048631 343.488503 
L 710.493319 348.203546 
L 712.938007 336.622781 
L 715.382694 346.299223 
L 717.827382 316.298961 
L 720.27207 321.284009 
L 722.716758 315.667684 
L 725.161446 315.179705 
L 727.606134 333.195647 
L 730.050821 346.334327 
L 732.495509 346.905888 
L 734.940197 347.850558 
L 737.384885 358.022157 
L 739.829573 353.714991 
L 742.274261 333.688476 
L 744.718949 328.895108 
L 747.163636 330.764856 
L 747.163636 330.764856 
" clip-path="url(#pb1643381fe)" style="fill: none; stroke: #1f77b4; stroke-width: 1.5; stroke-linecap: square"/>
   </g>
   <g id="line2d_17">
    <path d="M 138.436364 386.234922 
L 140.881051 354.945154 
L 143.325739 360.762452 
L 145.770427 370.419277 
L 148.215115 283.636391 
L 150.659803 443.591015 
L 153.104491 288.932817 
L 155.549179 279.565999 
L 157.993866 275.310865 
L 160.438554 416.475067 
L 162.883242 275.438892 
L 165.32793 355.421943 
L 167.772618 304.858445 
L 170.217306 368.37821 
L 172.661993 320.366472 
L 175.106681 406.653227 
L 177.551369 276.42431 
L 179.996057 349.977633 
L 182.440745 283.682349 
L 184.885433 327.620261 
L 187.33012 452.127359 
L 189.774808 434.590043 
L 192.219496 269.181541 
L 197.108872 319.357668 
L 199.55356 348.540398 
L 201.998248 303.888083 
L 204.442935 439.643608 
L 206.887623 396.887224 
L 209.332311 430.063247 
L 211.776999 304.422547 
L 214.221687 239.459449 
L 216.666375 314.339003 
L 219.111062 343.955255 
L 221.55575 280.580326 
L 224.000438 425.097275 
L 226.445126 346.483196 
L 228.889814 399.420303 
L 231.334502 432.52344 
L 233.779189 419.65509 
L 236.223877 391.764747 
L 238.668565 321.777462 
L 241.113253 317.255204 
L 243.557941 402.187287 
L 246.002629 393.106262 
L 248.447317 377.130942 
L 250.892004 419.622399 
L 253.336692 330.257188 
L 255.78138 293.303732 
L 258.226068 301.944885 
L 260.670756 363.533674 
L 263.115444 400.843779 
L 265.560131 436.415766 
L 268.004819 477.690795 
L 270.449507 437.788219 
L 272.894195 374.098431 
L 275.338883 283.197636 
L 277.783571 426.540777 
L 280.228258 270.548712 
L 282.672946 398.750044 
L 285.117634 244.872424 
L 287.562322 342.590942 
L 290.00701 319.891315 
L 292.451698 246.337608 
L 294.896386 318.715033 
L 297.341073 99.501014 
L 299.785761 396.077724 
L 302.230449 418.804208 
L 304.675137 329.25662 
L 307.119825 334.330006 
L 309.564513 256.259707 
L 312.0092 424.679854 
L 314.453888 435.205125 
L 316.898576 362.387839 
L 319.343264 356.390072 
L 321.787952 346.502093 
L 324.23264 386.675574 
L 326.677327 419.899464 
L 329.122015 414.103247 
L 331.566703 293.043668 
L 334.011391 314.975899 
L 336.456079 215.063819 
L 338.900767 421.822492 
L 341.345455 427.318246 
L 343.790142 374.000514 
L 346.23483 396.643235 
L 348.679518 358.123652 
L 351.124206 445.297895 
L 353.568894 466.774899 
L 356.013582 383.525625 
L 358.458269 292.005858 
L 360.902957 396.983268 
L 363.347645 396.946423 
L 365.792333 363.185272 
L 368.237021 381.558837 
L 370.681709 427.296167 
L 373.126396 454.386255 
L 375.571084 410.191784 
L 378.015772 350.75922 
L 380.46046 231.283199 
L 382.905148 380.706081 
L 385.349836 420.356732 
L 387.794524 333.701082 
L 390.239211 446.349619 
L 392.683899 328.149058 
L 395.128587 449.789863 
L 397.573275 289.812465 
L 400.017963 381.358968 
L 402.462651 380.679164 
L 404.907338 475.422871 
L 407.352026 330.087574 
L 409.796714 247.526495 
L 412.241402 246.155939 
L 414.68609 310.585726 
L 417.130778 274.500297 
L 419.575465 424.230209 
L 422.020153 243.521893 
L 424.464841 426.225907 
L 426.909529 307.147259 
L 429.354217 391.1628 
L 431.798905 416.943717 
L 434.243593 393.386436 
L 436.68828 363.488053 
L 439.132968 322.927164 
L 441.577656 437.509498 
L 446.467032 390.732532 
L 448.91172 344.526504 
L 451.356407 292.175809 
L 453.801095 429.508842 
L 456.245783 237.977817 
L 458.690471 363.61039 
L 461.135159 341.469478 
L 463.579847 456.641405 
L 466.024535 387.250149 
L 468.469222 429.785138 
L 470.91391 282.362192 
L 473.358598 304.840965 
L 475.803286 298.059787 
L 478.247974 338.834255 
L 480.692662 147.39296 
L 483.137349 415.061735 
L 485.582037 317.899375 
L 488.026725 347.035092 
L 490.471413 440.678824 
L 492.916101 308.15503 
L 495.360789 274.955092 
L 497.805476 315.52938 
L 500.250164 351.058831 
L 502.694852 448.021118 
L 505.13954 381.481893 
L 507.584228 276.603745 
L 510.028916 297.065149 
L 512.473604 319.900896 
L 514.918291 242.418966 
L 517.362979 337.895228 
L 519.807667 127.620459 
L 522.252355 284.739847 
L 524.697043 382.39015 
L 527.141731 443.985902 
L 529.586418 404.120664 
L 532.031106 198.083069 
L 534.475794 179.897824 
L 536.920482 139.374392 
L 539.36517 353.704066 
L 541.809858 196.931519 
L 544.254545 128.296373 
L 546.699233 397.200173 
L 551.588609 452.489627 
L 554.033297 364.628054 
L 556.477985 228.615058 
L 558.922673 383.590047 
L 561.36736 438.810037 
L 563.812048 401.149525 
L 566.256736 309.339764 
L 568.701424 355.131984 
L 571.146112 412.428002 
L 573.5908 319.141183 
L 576.035487 397.50856 
L 578.480175 264.545927 
L 580.924863 276.292152 
L 583.369551 328.984214 
L 585.814239 359.797757 
L 588.258927 305.897119 
L 590.703614 352.072269 
L 593.148302 328.063338 
L 595.59299 378.871606 
L 598.037678 306.131564 
L 600.482366 229.324467 
L 602.927054 372.700071 
L 605.371742 406.330445 
L 607.816429 311.887658 
L 610.261117 209.629161 
L 612.705805 319.297736 
L 615.150493 353.844387 
L 617.595181 284.395312 
L 620.039869 428.953452 
L 622.484556 361.533186 
L 624.929244 320.66966 
L 627.373932 359.728413 
L 629.81862 240.189915 
L 632.263308 244.863203 
L 634.707996 190.618102 
L 637.152683 416.531661 
L 639.597371 418.154502 
L 642.042059 330.240404 
L 644.486747 280.376399 
L 646.931435 320.35036 
L 649.376123 221.482356 
L 651.820811 337.300952 
L 654.265498 204.615467 
L 656.710186 288.467553 
L 659.154874 359.155579 
L 661.599562 437.091416 
L 664.04425 437.40787 
L 666.488938 352.946707 
L 668.933625 391.085016 
L 671.378313 330.759213 
L 673.823001 377.958582 
L 676.267689 315.178001 
L 678.712377 329.102541 
L 681.157065 303.830888 
L 683.601752 422.06049 
L 686.04644 279.93493 
L 688.491128 228.382582 
L 690.935816 305.468088 
L 693.380504 323.815792 
L 695.825192 287.757639 
L 698.26988 376.23026 
L 700.714567 382.809745 
L 703.159255 303.436265 
L 705.603943 311.91263 
L 708.048631 412.410894 
L 710.493319 370.230837 
L 712.938007 299.073921 
L 715.382694 256.31534 
L 717.827382 289.127379 
L 720.27207 348.134706 
L 722.716758 387.575548 
L 725.161446 377.317293 
L 727.606134 386.222052 
L 730.050821 246.147944 
L 732.495509 357.948179 
L 734.940197 476.944853 
L 737.384885 344.609871 
L 739.829573 337.667698 
L 742.274261 393.187131 
L 744.718949 403.594099 
L 747.163636 384.39484 
L 747.163636 384.39484 
" clip-path="url(#pb1643381fe)" style="fill: none; stroke: #ff7f0e; stroke-width: 1.5; stroke-linecap: square"/>
   </g>
   <g id="line2d_18">
    <path d="M 138.436364 279.948256 
L 140.881051 326.857955 
L 143.325739 312.907339 
L 145.770427 295.87595 
L 148.215115 314.528259 
L 150.659803 322.427996 
L 153.104491 325.24275 
L 155.549179 319.118421 
L 157.993866 322.246448 
L 160.438554 311.323396 
L 162.883242 318.141431 
L 165.32793 314.624112 
L 167.772618 309.894613 
L 170.217306 324.490769 
L 172.661993 321.527218 
L 175.106681 328.814887 
L 177.551369 348.34951 
L 179.996057 316.156454 
L 182.440745 331.759253 
L 184.885433 333.173101 
L 187.33012 321.144336 
L 189.774808 322.514364 
L 192.219496 328.282656 
L 194.664184 326.650907 
L 197.108872 344.0179 
L 199.55356 323.341908 
L 201.998248 315.118381 
L 204.442935 326.868064 
L 206.887623 309.010739 
L 209.332311 318.274333 
L 211.776999 326.922089 
L 214.221687 332.87325 
L 216.666375 332.421864 
L 219.111062 328.869632 
L 221.55575 317.428397 
L 224.000438 308.884897 
L 226.445126 326.957265 
L 228.889814 330.216465 
L 231.334502 332.894404 
L 233.779189 346.238787 
L 236.223877 313.506009 
L 238.668565 301.983183 
L 241.113253 299.780137 
L 243.557941 323.42878 
L 246.002629 306.222494 
L 248.447317 318.921961 
L 250.892004 326.313671 
L 253.336692 312.19356 
L 255.78138 301.140248 
L 258.226068 309.726728 
L 260.670756 302.366305 
L 263.115444 298.384562 
L 265.560131 317.414782 
L 268.004819 313.94294 
L 270.449507 320.898655 
L 272.894195 338.124726 
L 275.338883 325.930165 
L 277.783571 297.137975 
L 280.228258 298.710033 
L 282.672946 307.744296 
L 285.117634 310.396062 
L 287.562322 327.049828 
L 290.00701 290.847921 
L 292.451698 285.384138 
L 294.896386 322.26508 
L 297.341073 329.74868 
L 299.785761 312.740822 
L 302.230449 311.171574 
L 304.675137 334.508985 
L 309.564513 331.927547 
L 312.0092 316.747513 
L 314.453888 324.280383 
L 316.898576 317.283777 
L 319.343264 328.288923 
L 321.787952 337.344868 
L 324.23264 316.914294 
L 326.677327 334.733249 
L 329.122015 326.649683 
L 331.566703 325.749673 
L 334.011391 321.414078 
L 336.456079 328.778846 
L 338.900767 320.301521 
L 341.345455 338.75353 
L 343.790142 304.779712 
L 346.23483 299.025299 
L 348.679518 300.255534 
L 351.124206 300.256326 
L 353.568894 309.808485 
L 356.013582 281.734853 
L 358.458269 288.895815 
L 360.902957 315.357076 
L 363.347645 312.588327 
L 365.792333 306.414727 
L 368.237021 305.085518 
L 370.681709 316.156334 
L 373.126396 318.675487 
L 375.571084 336.785721 
L 378.015772 332.544273 
L 380.46046 312.518815 
L 382.905148 303.092738 
L 385.349836 311.311199 
L 387.794524 320.714633 
L 390.239211 318.117492 
L 392.683899 319.701219 
L 395.128587 333.984677 
L 397.573275 339.753594 
L 400.017963 319.550237 
L 402.462651 317.772164 
L 404.907338 327.055927 
L 407.352026 321.491177 
L 409.796714 328.063194 
L 412.241402 312.181915 
L 414.68609 327.068725 
L 417.130778 340.816231 
L 419.575465 344.309347 
L 422.020153 324.805435 
L 424.464841 335.512698 
L 426.909529 349.106125 
L 431.798905 334.123678 
L 434.243593 325.318721 
L 436.68828 342.766272 
L 439.132968 343.076375 
L 441.577656 307.511916 
L 444.022344 314.411589 
L 446.467032 311.300105 
L 448.91172 313.22407 
L 451.356407 314.599188 
L 453.801095 320.605623 
L 456.245783 290.753701 
L 458.690471 327.108511 
L 461.135159 299.159353 
L 463.579847 324.790596 
L 466.024535 354.870119 
L 468.469222 332.800784 
L 470.91391 343.690076 
L 473.358598 337.323282 
L 475.803286 326.702267 
L 478.247974 326.594553 
L 480.692662 320.996692 
L 483.137349 324.7911 
L 485.582037 322.465621 
L 488.026725 324.025889 
L 490.471413 330.508993 
L 492.916101 333.831679 
L 495.360789 318.816937 
L 497.805476 311.179666 
L 500.250164 333.380461 
L 502.694852 330.314431 
L 505.13954 322.236267 
L 507.584228 322.958954 
L 510.028916 309.773093 
L 512.473604 310.562699 
L 514.918291 309.262328 
L 517.362979 332.022559 
L 519.807667 324.600572 
L 522.252355 331.301769 
L 524.697043 330.949453 
L 527.141731 331.71356 
L 529.586418 337.852728 
L 532.031106 340.63245 
L 534.475794 316.604094 
L 536.920482 288.868923 
L 539.36517 296.909437 
L 541.809858 312.790717 
L 544.254545 290.878727 
L 546.699233 316.121614 
L 549.143921 337.66813 
L 551.588609 318.127385 
L 554.033297 318.853818 
L 556.477985 316.602413 
L 558.922673 335.618419 
L 561.36736 336.230079 
L 563.812048 341.781815 
L 566.256736 340.732504 
L 568.701424 324.826589 
L 571.146112 324.283745 
L 573.5908 284.384867 
L 576.035487 305.018935 
L 578.480175 311.490058 
L 580.924863 314.403953 
L 583.369551 318.147674 
L 585.814239 311.820859 
L 588.258927 301.327511 
L 590.703614 301.397864 
L 593.148302 300.310183 
L 595.59299 317.851641 
L 598.037678 330.45079 
L 600.482366 297.098261 
L 602.927054 303.622976 
L 605.371742 304.202149 
L 607.816429 290.899017 
L 610.261117 301.549302 
L 612.705805 320.019102 
L 615.150493 312.139823 
L 617.595181 324.524072 
L 620.039869 328.526249 
L 622.484556 319.318073 
L 624.929244 313.78024 
L 627.373932 331.013299 
L 629.81862 329.609224 
L 632.263308 317.89803 
L 634.707996 326.202307 
L 637.152683 328.354209 
L 639.597371 327.119869 
L 642.042059 349.006815 
L 644.486747 325.898158 
L 646.931435 335.545522 
L 649.376123 324.785146 
L 651.820811 323.450582 
L 654.265498 323.579426 
L 656.710186 314.45344 
L 659.154874 320.00568 
L 661.599562 318.57769 
L 664.04425 339.490456 
L 666.488938 322.844565 
L 668.933625 343.969158 
L 671.378313 321.963453 
L 673.823001 321.670805 
L 676.267689 299.248602 
L 678.712377 313.014765 
L 681.157065 295.5275 
L 683.601752 317.125664 
L 686.04644 327.456289 
L 688.491128 310.388883 
L 690.935816 304.149132 
L 693.380504 302.244304 
L 695.825192 321.194928 
L 698.26988 315.400464 
L 700.714567 311.19825 
L 703.159255 289.257063 
L 705.603943 295.581237 
L 708.048631 339.586596 
L 710.493319 345.868151 
L 712.938007 330.873794 
L 715.382694 335.431829 
L 717.827382 309.184628 
L 720.27207 311.221613 
L 722.716758 311.885113 
L 725.161446 310.333489 
L 727.606134 325.821466 
L 730.050821 343.896308 
L 732.495509 338.049739 
L 734.940197 341.112816 
L 737.384885 351.449924 
L 739.829573 346.308467 
L 742.274261 332.410987 
L 744.718949 325.160248 
L 747.163636 331.212976 
L 747.163636 331.212976 
" clip-path="url(#pb1643381fe)" style="fill: none; stroke: #2ca02c; stroke-width: 1.5; stroke-linecap: square"/>
   </g>
   <g id="line2d_19">
    <path d="M 138.436364 362.126621 
L 140.881051 355.242796 
L 143.325739 395.423445 
L 145.770427 397.729342 
L 148.215115 311.648411 
L 150.659803 478.601585 
L 153.104491 224.568844 
L 155.549179 280.298699 
L 157.993866 292.276728 
L 160.438554 450.856786 
L 162.883242 233.194798 
L 165.32793 371.75905 
L 167.772618 324.143664 
L 170.217306 400.392778 
L 172.661993 349.206515 
L 175.106681 400.046706 
L 177.551369 275.320085 
L 179.996057 393.972464 
L 182.440745 298.077051 
L 184.885433 310.343238 
L 187.33012 447.609207 
L 189.774808 434.406826 
L 192.219496 241.362115 
L 194.664184 307.20102 
L 199.55356 343.573742 
L 201.998248 299.39022 
L 204.442935 444.802017 
L 206.887623 412.569847 
L 209.332311 448.534837 
L 211.776999 338.69696 
L 214.221687 254.655763 
L 216.666375 312.624464 
L 219.111062 340.682681 
L 221.55575 304.411214 
L 224.000438 421.694993 
L 226.445126 371.700271 
L 228.889814 428.37572 
L 231.334502 473.053896 
L 233.779189 398.344376 
L 236.223877 361.111983 
L 238.668565 290.013198 
L 241.113253 329.250425 
L 243.557941 437.139426 
L 246.002629 401.436794 
L 248.447317 411.366673 
L 250.892004 448.531967 
L 253.336692 338.876323 
L 255.78138 284.924709 
L 258.226068 307.407804 
L 260.670756 387.650547 
L 263.115444 412.15209 
L 265.560131 449.718298 
L 268.004819 492.48 
L 270.449507 431.476963 
L 272.894195 382.121321 
L 275.338883 301.053544 
L 277.783571 449.6709 
L 280.228258 239.159886 
L 282.672946 398.756215 
L 285.117634 261.694796 
L 287.562322 349.283663 
L 290.00701 246.204082 
L 292.451698 217.722644 
L 294.896386 328.797095 
L 297.341073 89.28 
L 299.785761 399.915593 
L 302.230449 410.305357 
L 304.675137 273.255656 
L 307.119825 280.264099 
L 309.564513 240.100642 
L 312.0092 431.288932 
L 314.453888 448.488543 
L 316.898576 391.332283 
L 319.343264 340.678383 
L 321.787952 371.282549 
L 324.23264 369.021972 
L 326.677327 434.88412 
L 329.122015 392.86884 
L 331.566703 321.346102 
L 334.011391 296.748202 
L 336.456079 273.599471 
L 338.900767 421.875797 
L 341.345455 413.860182 
L 343.790142 387.44213 
L 346.23483 410.328456 
L 348.679518 349.088813 
L 351.124206 485.190362 
L 353.568894 490.413091 
L 356.013582 365.958487 
L 358.458269 313.563419 
L 360.902957 382.111117 
L 363.347645 365.734799 
L 365.792333 364.394882 
L 368.237021 368.236904 
L 370.681709 421.683323 
L 373.126396 470.7695 
L 375.571084 396.946807 
L 378.015772 350.060039 
L 380.46046 246.293547 
L 382.905148 373.199262 
L 385.349836 401.309499 
L 387.794524 356.966507 
L 390.239211 477.569755 
L 392.683899 336.941121 
L 395.128587 467.147984 
L 397.573275 282.161627 
L 400.017963 405.361751 
L 402.462651 348.91125 
L 404.907338 453.95612 
L 407.352026 323.088206 
L 409.796714 253.322736 
L 412.241402 240.09183 
L 414.68609 328.036734 
L 417.130778 292.926445 
L 419.575465 412.983259 
L 422.020153 249.904774 
L 424.464841 434.296759 
L 426.909529 292.44531 
L 429.354217 407.918349 
L 431.798905 432.256485 
L 434.243593 419.366729 
L 436.68828 353.349733 
L 439.132968 333.127432 
L 441.577656 450.049435 
L 444.022344 420.525962 
L 446.467032 452.277201 
L 448.91172 315.591544 
L 451.356407 328.368184 
L 453.801095 461.5692 
L 456.245783 239.464011 
L 458.690471 419.725659 
L 461.135159 313.86147 
L 463.579847 455.671812 
L 466.024535 407.050755 
L 468.469222 436.929004 
L 470.91391 254.941255 
L 473.358598 300.478477 
L 475.803286 297.478405 
L 478.247974 406.426753 
L 480.692662 154.754391 
L 483.137349 397.329065 
L 485.582037 328.853689 
L 488.026725 347.268048 
L 490.471413 462.636903 
L 492.916101 324.657574 
L 495.360789 263.717374 
L 497.805476 263.047992 
L 500.250164 348.179967 
L 502.694852 454.431828 
L 505.13954 400.339245 
L 507.584228 272.220823 
L 510.028916 271.884499 
L 512.473604 329.29487 
L 514.918291 273.562134 
L 517.362979 324.560017 
L 519.807667 134.28307 
L 522.252355 244.216103 
L 524.697043 376.257033 
L 527.141731 456.122333 
L 529.586418 422.043358 
L 532.031106 193.159969 
L 534.475794 189.278088 
L 536.920482 125.232359 
L 539.36517 421.588311 
L 541.809858 237.976785 
L 544.254545 109.488399 
L 546.699233 418.626837 
L 549.143921 452.907529 
L 551.588609 451.562893 
L 554.033297 368.744283 
L 556.477985 293.375622 
L 558.922673 370.584425 
L 561.36736 454.567683 
L 563.812048 412.405203 
L 566.256736 318.094297 
L 568.701424 284.704647 
L 571.146112 431.9268 
L 573.5908 393.24818 
L 576.035487 429.731041 
L 578.480175 263.804055 
L 580.924863 269.731757 
L 583.369551 371.41036 
L 585.814239 434.173078 
L 588.258927 333.429924 
L 590.703614 417.198403 
L 593.148302 351.409369 
L 595.59299 432.458634 
L 598.037678 353.801335 
L 600.482366 219.994554 
L 602.927054 421.242863 
L 605.371742 428.422914 
L 607.816429 336.370136 
L 610.261117 211.65138 
L 612.705805 359.958872 
L 615.150493 330.739428 
L 617.595181 289.622633 
L 620.039869 455.26666 
L 622.484556 331.540343 
L 624.929244 343.043048 
L 627.373932 406.478329 
L 629.81862 280.474725 
L 632.263308 299.123384 
L 634.707996 213.686468 
L 637.152683 359.37288 
L 639.597371 403.067295 
L 642.042059 343.292644 
L 644.486747 331.491529 
L 646.931435 311.62416 
L 649.376123 259.5555 
L 651.820811 291.780514 
L 654.265498 220.306771 
L 656.710186 358.34309 
L 659.154874 336.347278 
L 661.599562 445.852984 
L 664.04425 442.747888 
L 666.488938 383.969351 
L 668.933625 449.333723 
L 671.378313 312.945781 
L 673.823001 362.860858 
L 676.267689 310.970577 
L 678.712377 366.219272 
L 681.157065 264.244371 
L 683.601752 397.204363 
L 688.491128 297.282402 
L 690.935816 383.588786 
L 693.380504 373.292642 
L 695.825192 374.180958 
L 698.26988 374.783541 
L 700.714567 388.42493 
L 703.159255 273.566384 
L 705.603943 304.573025 
L 708.048631 406.437931 
L 710.493319 422.98756 
L 712.938007 300.340413 
L 715.382694 269.555611 
L 717.827382 320.73838 
L 720.27207 327.953127 
L 722.716758 376.939646 
L 725.161446 411.871748 
L 727.606134 367.718888 
L 730.050821 271.897249 
L 732.495509 384.804878 
L 734.940197 444.919299 
L 737.384885 329.234458 
L 739.829573 369.833213 
L 742.274261 390.748404 
L 744.718949 382.464621 
L 747.163636 385.105018 
L 747.163636 385.105018 
" clip-path="url(#pb1643381fe)" style="fill: none; stroke: #d62728; stroke-width: 1.5; stroke-linecap: square"/>
   </g>
   <g id="patch_3">
    <path d="M 108 512.64 
L 108 69.12 
" style="fill: none; stroke: #000000; stroke-width: 0.8; stroke-linejoin: miter; stroke-linecap: square"/>
   </g>
   <g id="patch_4">
    <path d="M 777.6 512.64 
L 777.6 69.12 
" style="fill: none; stroke: #000000; stroke-width: 0.8; stroke-linejoin: miter; stroke-linecap: square"/>
   </g>
   <g id="patch_5">
    <path d="M 108 512.64 
L 777.6 512.64 
" style="fill: none; stroke: #000000; stroke-width: 0.8; stroke-linejoin: miter; stroke-linecap: square"/>
   </g>
   <g id="patch_6">
    <path d="M 108 69.12 
L 777.6 69.12 
" style="fill: none; stroke: #000000; stroke-width: 0.8; stroke-linejoin: miter; stroke-linecap: square"/>
   </g>
   <g id="text_18">
    <!-- Ten-meter eastward wind speed two steps forward prediction: RMSES -->
    <g transform="translate(130.147031 49.12) scale(0.18 -0.18)">
     <defs>
      <path id="DejaVuSans-54" d="M -19 4666 
L 3928 4666 
L 3928 4134 
L 2272 4134 
L 2272 0 
L 1638 0 
L 1638 4134 
L -19 4134 
L -19 4666 
z
" transform="scale(0.015625)"/>
      <path id="DejaVuSans-6e" d="M 3513 2113 
L 3513 0 
L 2938 0 
L 2938 2094 
Q 2938 2591 2744 2837 
Q 2550 3084 2163 3084 
Q 1697 3084 1428 2787 
Q 1159 2491 1159 1978 
L 1159 0 
L 581 0 
L 581 3500 
L 1159 3500 
L 1159 2956 
Q 1366 3272 1645 3428 
Q 1925 3584 2291 3584 
Q 2894 3584 3203 3211 
Q 3513 2838 3513 2113 
z
" transform="scale(0.015625)"/>
      <path id="DejaVuSans-6d" d="M 3328 2828 
Q 3544 3216 3844 3400 
Q 4144 3584 4550 3584 
Q 5097 3584 5394 3201 
Q 5691 2819 5691 2113 
L 5691 0 
L 5113 0 
L 5113 2094 
Q 5113 2597 4934 2840 
Q 4756 3084 4391 3084 
Q 3944 3084 3684 2787 
Q 3425 2491 3425 1978 
L 3425 0 
L 2847 0 
L 2847 2094 
Q 2847 2600 2669 2842 
Q 2491 3084 2119 3084 
Q 1678 3084 1418 2786 
Q 1159 2488 1159 1978 
L 1159 0 
L 581 0 
L 581 3500 
L 1159 3500 
L 1159 2956 
Q 1356 3278 1631 3431 
Q 1906 3584 2284 3584 
Q 2666 3584 2933 3390 
Q 3200 3197 3328 2828 
z
" transform="scale(0.015625)"/>
      <path id="DejaVuSans-72" d="M 2631 2963 
Q 2534 3019 2420 3045 
Q 2306 3072 2169 3072 
Q 1681 3072 1420 2755 
Q 1159 2438 1159 1844 
L 1159 0 
L 581 0 
L 581 3500 
L 1159 3500 
L 1159 2956 
Q 1341 3275 1631 3429 
Q 1922 3584 2338 3584 
Q 2397 3584 2469 3576 
Q 2541 3569 2628 3553 
L 2631 2963 
z
" transform="scale(0.015625)"/>
      <path id="DejaVuSans-77" d="M 269 3500 
L 844 3500 
L 1563 769 
L 2278 3500 
L 2956 3500 
L 3675 769 
L 4391 3500 
L 4966 3500 
L 4050 0 
L 3372 0 
L 2619 2869 
L 1863 0 
L 1184 0 
L 269 3500 
z
" transform="scale(0.015625)"/>
      <path id="DejaVuSans-64" d="M 2906 2969 
L 2906 4863 
L 3481 4863 
L 3481 0 
L 2906 0 
L 2906 525 
Q 2725 213 2448 61 
Q 2172 -91 1784 -91 
Q 1150 -91 751 415 
Q 353 922 353 1747 
Q 353 2572 751 3078 
Q 1150 3584 1784 3584 
Q 2172 3584 2448 3432 
Q 2725 3281 2906 2969 
z
M 947 1747 
Q 947 1113 1208 752 
Q 1469 391 1925 391 
Q 2381 391 2643 752 
Q 2906 1113 2906 1747 
Q 2906 2381 2643 2742 
Q 2381 3103 1925 3103 
Q 1469 3103 1208 2742 
Q 947 2381 947 1747 
z
" transform="scale(0.015625)"/>
      <path id="DejaVuSans-69" d="M 603 3500 
L 1178 3500 
L 1178 0 
L 603 0 
L 603 3500 
z
M 603 4863 
L 1178 4863 
L 1178 4134 
L 603 4134 
L 603 4863 
z
" transform="scale(0.015625)"/>
      <path id="DejaVuSans-70" d="M 1159 525 
L 1159 -1331 
L 581 -1331 
L 581 3500 
L 1159 3500 
L 1159 2969 
Q 1341 3281 1617 3432 
Q 1894 3584 2278 3584 
Q 2916 3584 3314 3078 
Q 3713 2572 3713 1747 
Q 3713 922 3314 415 
Q 2916 -91 2278 -91 
Q 1894 -91 1617 61 
Q 1341 213 1159 525 
z
M 3116 1747 
Q 3116 2381 2855 2742 
Q 2594 3103 2138 3103 
Q 1681 3103 1420 2742 
Q 1159 2381 1159 1747 
Q 1159 1113 1420 752 
Q 1681 391 2138 391 
Q 2594 391 2855 752 
Q 3116 1113 3116 1747 
z
" transform="scale(0.015625)"/>
      <path id="DejaVuSans-6f" d="M 1959 3097 
Q 1497 3097 1228 2736 
Q 959 2375 959 1747 
Q 959 1119 1226 758 
Q 1494 397 1959 397 
Q 2419 397 2687 759 
Q 2956 1122 2956 1747 
Q 2956 2369 2687 2733 
Q 2419 3097 1959 3097 
z
M 1959 3584 
Q 2709 3584 3137 3096 
Q 3566 2609 3566 1747 
Q 3566 888 3137 398 
Q 2709 -91 1959 -91 
Q 1206 -91 779 398 
Q 353 888 353 1747 
Q 353 2609 779 3096 
Q 1206 3584 1959 3584 
z
" transform="scale(0.015625)"/>
      <path id="DejaVuSans-66" d="M 2375 4863 
L 2375 4384 
L 1825 4384 
Q 1516 4384 1395 4259 
Q 1275 4134 1275 3809 
L 1275 3500 
L 2222 3500 
L 2222 3053 
L 1275 3053 
L 1275 0 
L 697 0 
L 697 3053 
L 147 3053 
L 147 3500 
L 697 3500 
L 697 3744 
Q 697 4328 969 4595 
Q 1241 4863 1831 4863 
L 2375 4863 
z
" transform="scale(0.015625)"/>
      <path id="DejaVuSans-63" d="M 3122 3366 
L 3122 2828 
Q 2878 2963 2633 3030 
Q 2388 3097 2138 3097 
Q 1578 3097 1268 2742 
Q 959 2388 959 1747 
Q 959 1106 1268 751 
Q 1578 397 2138 397 
Q 2388 397 2633 464 
Q 2878 531 3122 666 
L 3122 134 
Q 2881 22 2623 -34 
Q 2366 -91 2075 -91 
Q 1284 -91 818 406 
Q 353 903 353 1747 
Q 353 2603 823 3093 
Q 1294 3584 2113 3584 
Q 2378 3584 2631 3529 
Q 2884 3475 3122 3366 
z
" transform="scale(0.015625)"/>
     </defs>
     <use xlink:href="#DejaVuSans-54"/>
     <use xlink:href="#DejaVuSans-65" transform="translate(44.083984 0)"/>
     <use xlink:href="#DejaVuSans-6e" transform="translate(105.607422 0)"/>
     <use xlink:href="#DejaVuSans-2d" transform="translate(168.986328 0)"/>
     <use xlink:href="#DejaVuSans-6d" transform="translate(205.070312 0)"/>
     <use xlink:href="#DejaVuSans-65" transform="translate(302.482422 0)"/>
     <use xlink:href="#DejaVuSans-74" transform="translate(364.005859 0)"/>
     <use xlink:href="#DejaVuSans-65" transform="translate(403.214844 0)"/>
     <use xlink:href="#DejaVuSans-72" transform="translate(464.738281 0)"/>
     <use xlink:href="#DejaVuSans-20" transform="translate(505.851562 0)"/>
     <use xlink:href="#DejaVuSans-65" transform="translate(537.638672 0)"/>
     <use xlink:href="#DejaVuSans-61" transform="translate(599.162109 0)"/>
     <use xlink:href="#DejaVuSans-73" transform="translate(660.441406 0)"/>
     <use xlink:href="#DejaVuSans-74" transform="translate(712.541016 0)"/>
     <use xlink:href="#DejaVuSans-77" transform="translate(751.75 0)"/>
     <use xlink:href="#DejaVuSans-61" transform="translate(833.537109 0)"/>
     <use xlink:href="#DejaVuSans-72" transform="translate(894.816406 0)"/>
     <use xlink:href="#DejaVuSans-64" transform="translate(934.179688 0)"/>
     <use xlink:href="#DejaVuSans-20" transform="translate(997.65625 0)"/>
     <use xlink:href="#DejaVuSans-77" transform="translate(1029.443359 0)"/>
     <use xlink:href="#DejaVuSans-69" transform="translate(1111.230469 0)"/>
     <use xlink:href="#DejaVuSans-6e" transform="translate(1139.013672 0)"/>
     <use xlink:href="#DejaVuSans-64" transform="translate(1202.392578 0)"/>
     <use xlink:href="#DejaVuSans-20" transform="translate(1265.869141 0)"/>
     <use xlink:href="#DejaVuSans-73" transform="translate(1297.65625 0)"/>
     <use xlink:href="#DejaVuSans-70" transform="translate(1349.755859 0)"/>
     <use xlink:href="#DejaVuSans-65" transform="translate(1413.232422 0)"/>
     <use xlink:href="#DejaVuSans-65" transform="translate(1474.755859 0)"/>
     <use xlink:href="#DejaVuSans-64" transform="translate(1536.279297 0)"/>
     <use xlink:href="#DejaVuSans-20" transform="translate(1599.755859 0)"/>
     <use xlink:href="#DejaVuSans-74" transform="translate(1631.542969 0)"/>
     <use xlink:href="#DejaVuSans-77" transform="translate(1670.751953 0)"/>
     <use xlink:href="#DejaVuSans-6f" transform="translate(1752.539062 0)"/>
     <use xlink:href="#DejaVuSans-20" transform="translate(1813.720703 0)"/>
     <use xlink:href="#DejaVuSans-73" transform="translate(1845.507812 0)"/>
     <use xlink:href="#DejaVuSans-74" transform="translate(1897.607422 0)"/>
     <use xlink:href="#DejaVuSans-65" transform="translate(1936.816406 0)"/>
     <use xlink:href="#DejaVuSans-70" transform="translate(1998.339844 0)"/>
     <use xlink:href="#DejaVuSans-73" transform="translate(2061.816406 0)"/>
     <use xlink:href="#DejaVuSans-20" transform="translate(2113.916016 0)"/>
     <use xlink:href="#DejaVuSans-66" transform="translate(2145.703125 0)"/>
     <use xlink:href="#DejaVuSans-6f" transform="translate(2180.908203 0)"/>
     <use xlink:href="#DejaVuSans-72" transform="translate(2242.089844 0)"/>
     <use xlink:href="#DejaVuSans-77" transform="translate(2283.203125 0)"/>
     <use xlink:href="#DejaVuSans-61" transform="translate(2364.990234 0)"/>
     <use xlink:href="#DejaVuSans-72" transform="translate(2426.269531 0)"/>
     <use xlink:href="#DejaVuSans-64" transform="translate(2465.632812 0)"/>
     <use xlink:href="#DejaVuSans-20" transform="translate(2529.109375 0)"/>
     <use xlink:href="#DejaVuSans-70" transform="translate(2560.896484 0)"/>
     <use xlink:href="#DejaVuSans-72" transform="translate(2624.373047 0)"/>
     <use xlink:href="#DejaVuSans-65" transform="translate(2663.236328 0)"/>
     <use xlink:href="#DejaVuSans-64" transform="translate(2724.759766 0)"/>
     <use xlink:href="#DejaVuSans-69" transform="translate(2788.236328 0)"/>
     <use xlink:href="#DejaVuSans-63" transform="translate(2816.019531 0)"/>
     <use xlink:href="#DejaVuSans-74" transform="translate(2871 0)"/>
     <use xlink:href="#DejaVuSans-69" transform="translate(2910.208984 0)"/>
     <use xlink:href="#DejaVuSans-6f" transform="translate(2937.992188 0)"/>
     <use xlink:href="#DejaVuSans-6e" transform="translate(2999.173828 0)"/>
     <use xlink:href="#DejaVuSans-3a" transform="translate(3062.552734 0)"/>
     <use xlink:href="#DejaVuSans-20" transform="translate(3096.244141 0)"/>
     <use xlink:href="#DejaVuSans-52" transform="translate(3128.03125 0)"/>
     <use xlink:href="#DejaVuSans-4d" transform="translate(3197.513672 0)"/>
     <use xlink:href="#DejaVuSans-53" transform="translate(3283.792969 0)"/>
     <use xlink:href="#DejaVuSans-45" transform="translate(3347.269531 0)"/>
     <use xlink:href="#DejaVuSans-53" transform="translate(3410.453125 0)"/>
    </g>
   </g>
   <g id="legend_1">
    <g id="text_19">
     <!-- RMSEs -->
     <g transform="translate(871.899219 256.412594) scale(0.18 -0.18)">
      <use xlink:href="#DejaVuSans-52"/>
      <use xlink:href="#DejaVuSans-4d" transform="translate(69.482422 0)"/>
      <use xlink:href="#DejaVuSans-53" transform="translate(155.761719 0)"/>
      <use xlink:href="#DejaVuSans-45" transform="translate(219.238281 0)"/>
      <use xlink:href="#DejaVuSans-73" transform="translate(282.421875 0)"/>
     </g>
     <!--  -->
     <g transform="translate(871.899219 276.568656) scale(0.18 -0.18)"/>
    </g>
    <g id="line2d_20">
     <path d="M 786.6 289.410531 
L 796.6 289.410531 
L 806.6 289.410531 
" style="fill: none; stroke: #1f77b4; stroke-width: 1.5; stroke-linecap: square"/>
    </g>
    <g id="text_20">
     <!-- World 6 hours forward prediction -->
     <g transform="translate(814.6 292.910531) scale(0.1 -0.1)">
      <defs>
       <path id="DejaVuSans-57" d="M 213 4666 
L 850 4666 
L 1831 722 
L 2809 4666 
L 3519 4666 
L 4500 722 
L 5478 4666 
L 6119 4666 
L 4947 0 
L 4153 0 
L 3169 4050 
L 2175 0 
L 1381 0 
L 213 4666 
z
" transform="scale(0.015625)"/>
       <path id="DejaVuSans-6c" d="M 603 4863 
L 1178 4863 
L 1178 0 
L 603 0 
L 603 4863 
z
" transform="scale(0.015625)"/>
       <path id="DejaVuSans-68" d="M 3513 2113 
L 3513 0 
L 2938 0 
L 2938 2094 
Q 2938 2591 2744 2837 
Q 2550 3084 2163 3084 
Q 1697 3084 1428 2787 
Q 1159 2491 1159 1978 
L 1159 0 
L 581 0 
L 581 4863 
L 1159 4863 
L 1159 2956 
Q 1366 3272 1645 3428 
Q 1925 3584 2291 3584 
Q 2894 3584 3203 3211 
Q 3513 2838 3513 2113 
z
" transform="scale(0.015625)"/>
       <path id="DejaVuSans-75" d="M 544 1381 
L 544 3500 
L 1119 3500 
L 1119 1403 
Q 1119 906 1312 657 
Q 1506 409 1894 409 
Q 2359 409 2629 706 
Q 2900 1003 2900 1516 
L 2900 3500 
L 3475 3500 
L 3475 0 
L 2900 0 
L 2900 538 
Q 2691 219 2414 64 
Q 2138 -91 1772 -91 
Q 1169 -91 856 284 
Q 544 659 544 1381 
z
M 1991 3584 
L 1991 3584 
z
" transform="scale(0.015625)"/>
      </defs>
      <use xlink:href="#DejaVuSans-57"/>
      <use xlink:href="#DejaVuSans-6f" transform="translate(93.001953 0)"/>
      <use xlink:href="#DejaVuSans-72" transform="translate(154.183594 0)"/>
      <use xlink:href="#DejaVuSans-6c" transform="translate(195.296875 0)"/>
      <use xlink:href="#DejaVuSans-64" transform="translate(223.080078 0)"/>
      <use xlink:href="#DejaVuSans-20" transform="translate(286.556641 0)"/>
      <use xlink:href="#DejaVuSans-36" transform="translate(318.34375 0)"/>
      <use xlink:href="#DejaVuSans-20" transform="translate(381.966797 0)"/>
      <use xlink:href="#DejaVuSans-68" transform="translate(413.753906 0)"/>
      <use xlink:href="#DejaVuSans-6f" transform="translate(477.132812 0)"/>
      <use xlink:href="#DejaVuSans-75" transform="translate(538.314453 0)"/>
      <use xlink:href="#DejaVuSans-72" transform="translate(601.693359 0)"/>
      <use xlink:href="#DejaVuSans-73" transform="translate(642.806641 0)"/>
      <use xlink:href="#DejaVuSans-20" transform="translate(694.90625 0)"/>
      <use xlink:href="#DejaVuSans-66" transform="translate(726.693359 0)"/>
      <use xlink:href="#DejaVuSans-6f" transform="translate(761.898438 0)"/>
      <use xlink:href="#DejaVuSans-72" transform="translate(823.080078 0)"/>
      <use xlink:href="#DejaVuSans-77" transform="translate(864.193359 0)"/>
      <use xlink:href="#DejaVuSans-61" transform="translate(945.980469 0)"/>
      <use xlink:href="#DejaVuSans-72" transform="translate(1007.259766 0)"/>
      <use xlink:href="#DejaVuSans-64" transform="translate(1046.623047 0)"/>
      <use xlink:href="#DejaVuSans-20" transform="translate(1110.099609 0)"/>
      <use xlink:href="#DejaVuSans-70" transform="translate(1141.886719 0)"/>
      <use xlink:href="#DejaVuSans-72" transform="translate(1205.363281 0)"/>
      <use xlink:href="#DejaVuSans-65" transform="translate(1244.226562 0)"/>
      <use xlink:href="#DejaVuSans-64" transform="translate(1305.75 0)"/>
      <use xlink:href="#DejaVuSans-69" transform="translate(1369.226562 0)"/>
      <use xlink:href="#DejaVuSans-63" transform="translate(1397.009766 0)"/>
      <use xlink:href="#DejaVuSans-74" transform="translate(1451.990234 0)"/>
      <use xlink:href="#DejaVuSans-69" transform="translate(1491.199219 0)"/>
      <use xlink:href="#DejaVuSans-6f" transform="translate(1518.982422 0)"/>
      <use xlink:href="#DejaVuSans-6e" transform="translate(1580.164062 0)"/>
     </g>
    </g>
    <g id="line2d_21">
     <path d="M 786.6 304.088656 
L 796.6 304.088656 
L 806.6 304.088656 
" style="fill: none; stroke: #ff7f0e; stroke-width: 1.5; stroke-linecap: square"/>
    </g>
    <g id="text_21">
     <!-- South Africa 6 hours forward prediction -->
     <g transform="translate(814.6 307.588656) scale(0.1 -0.1)">
      <defs>
       <path id="DejaVuSans-41" d="M 2188 4044 
L 1331 1722 
L 3047 1722 
L 2188 4044 
z
M 1831 4666 
L 2547 4666 
L 4325 0 
L 3669 0 
L 3244 1197 
L 1141 1197 
L 716 0 
L 50 0 
L 1831 4666 
z
" transform="scale(0.015625)"/>
      </defs>
      <use xlink:href="#DejaVuSans-53"/>
      <use xlink:href="#DejaVuSans-6f" transform="translate(63.476562 0)"/>
      <use xlink:href="#DejaVuSans-75" transform="translate(124.658203 0)"/>
      <use xlink:href="#DejaVuSans-74" transform="translate(188.037109 0)"/>
      <use xlink:href="#DejaVuSans-68" transform="translate(227.246094 0)"/>
      <use xlink:href="#DejaVuSans-20" transform="translate(290.625 0)"/>
      <use xlink:href="#DejaVuSans-41" transform="translate(322.412109 0)"/>
      <use xlink:href="#DejaVuSans-66" transform="translate(387.195312 0)"/>
      <use xlink:href="#DejaVuSans-72" transform="translate(422.400391 0)"/>
      <use xlink:href="#DejaVuSans-69" transform="translate(463.513672 0)"/>
      <use xlink:href="#DejaVuSans-63" transform="translate(491.296875 0)"/>
      <use xlink:href="#DejaVuSans-61" transform="translate(546.277344 0)"/>
      <use xlink:href="#DejaVuSans-20" transform="translate(607.556641 0)"/>
      <use xlink:href="#DejaVuSans-36" transform="translate(639.34375 0)"/>
      <use xlink:href="#DejaVuSans-20" transform="translate(702.966797 0)"/>
      <use xlink:href="#DejaVuSans-68" transform="translate(734.753906 0)"/>
      <use xlink:href="#DejaVuSans-6f" transform="translate(798.132812 0)"/>
      <use xlink:href="#DejaVuSans-75" transform="translate(859.314453 0)"/>
      <use xlink:href="#DejaVuSans-72" transform="translate(922.693359 0)"/>
      <use xlink:href="#DejaVuSans-73" transform="translate(963.806641 0)"/>
      <use xlink:href="#DejaVuSans-20" transform="translate(1015.90625 0)"/>
      <use xlink:href="#DejaVuSans-66" transform="translate(1047.693359 0)"/>
      <use xlink:href="#DejaVuSans-6f" transform="translate(1082.898438 0)"/>
      <use xlink:href="#DejaVuSans-72" transform="translate(1144.080078 0)"/>
      <use xlink:href="#DejaVuSans-77" transform="translate(1185.193359 0)"/>
      <use xlink:href="#DejaVuSans-61" transform="translate(1266.980469 0)"/>
      <use xlink:href="#DejaVuSans-72" transform="translate(1328.259766 0)"/>
      <use xlink:href="#DejaVuSans-64" transform="translate(1367.623047 0)"/>
      <use xlink:href="#DejaVuSans-20" transform="translate(1431.099609 0)"/>
      <use xlink:href="#DejaVuSans-70" transform="translate(1462.886719 0)"/>
      <use xlink:href="#DejaVuSans-72" transform="translate(1526.363281 0)"/>
      <use xlink:href="#DejaVuSans-65" transform="translate(1565.226562 0)"/>
      <use xlink:href="#DejaVuSans-64" transform="translate(1626.75 0)"/>
      <use xlink:href="#DejaVuSans-69" transform="translate(1690.226562 0)"/>
      <use xlink:href="#DejaVuSans-63" transform="translate(1718.009766 0)"/>
      <use xlink:href="#DejaVuSans-74" transform="translate(1772.990234 0)"/>
      <use xlink:href="#DejaVuSans-69" transform="translate(1812.199219 0)"/>
      <use xlink:href="#DejaVuSans-6f" transform="translate(1839.982422 0)"/>
      <use xlink:href="#DejaVuSans-6e" transform="translate(1901.164062 0)"/>
     </g>
    </g>
    <g id="line2d_22">
     <path d="M 786.6 318.766781 
L 796.6 318.766781 
L 806.6 318.766781 
" style="fill: none; stroke: #2ca02c; stroke-width: 1.5; stroke-linecap: square"/>
    </g>
    <g id="text_22">
     <!-- World 12 hours forward prediction -->
     <g transform="translate(814.6 322.266781) scale(0.1 -0.1)">
      <use xlink:href="#DejaVuSans-57"/>
      <use xlink:href="#DejaVuSans-6f" transform="translate(93.001953 0)"/>
      <use xlink:href="#DejaVuSans-72" transform="translate(154.183594 0)"/>
      <use xlink:href="#DejaVuSans-6c" transform="translate(195.296875 0)"/>
      <use xlink:href="#DejaVuSans-64" transform="translate(223.080078 0)"/>
      <use xlink:href="#DejaVuSans-20" transform="translate(286.556641 0)"/>
      <use xlink:href="#DejaVuSans-31" transform="translate(318.34375 0)"/>
      <use xlink:href="#DejaVuSans-32" transform="translate(381.966797 0)"/>
      <use xlink:href="#DejaVuSans-20" transform="translate(445.589844 0)"/>
      <use xlink:href="#DejaVuSans-68" transform="translate(477.376953 0)"/>
      <use xlink:href="#DejaVuSans-6f" transform="translate(540.755859 0)"/>
      <use xlink:href="#DejaVuSans-75" transform="translate(601.9375 0)"/>
      <use xlink:href="#DejaVuSans-72" transform="translate(665.316406 0)"/>
      <use xlink:href="#DejaVuSans-73" transform="translate(706.429688 0)"/>
      <use xlink:href="#DejaVuSans-20" transform="translate(758.529297 0)"/>
      <use xlink:href="#DejaVuSans-66" transform="translate(790.316406 0)"/>
      <use xlink:href="#DejaVuSans-6f" transform="translate(825.521484 0)"/>
      <use xlink:href="#DejaVuSans-72" transform="translate(886.703125 0)"/>
      <use xlink:href="#DejaVuSans-77" transform="translate(927.816406 0)"/>
      <use xlink:href="#DejaVuSans-61" transform="translate(1009.603516 0)"/>
      <use xlink:href="#DejaVuSans-72" transform="translate(1070.882812 0)"/>
      <use xlink:href="#DejaVuSans-64" transform="translate(1110.246094 0)"/>
      <use xlink:href="#DejaVuSans-20" transform="translate(1173.722656 0)"/>
      <use xlink:href="#DejaVuSans-70" transform="translate(1205.509766 0)"/>
      <use xlink:href="#DejaVuSans-72" transform="translate(1268.986328 0)"/>
      <use xlink:href="#DejaVuSans-65" transform="translate(1307.849609 0)"/>
      <use xlink:href="#DejaVuSans-64" transform="translate(1369.373047 0)"/>
      <use xlink:href="#DejaVuSans-69" transform="translate(1432.849609 0)"/>
      <use xlink:href="#DejaVuSans-63" transform="translate(1460.632812 0)"/>
      <use xlink:href="#DejaVuSans-74" transform="translate(1515.613281 0)"/>
      <use xlink:href="#DejaVuSans-69" transform="translate(1554.822266 0)"/>
      <use xlink:href="#DejaVuSans-6f" transform="translate(1582.605469 0)"/>
      <use xlink:href="#DejaVuSans-6e" transform="translate(1643.787109 0)"/>
     </g>
    </g>
    <g id="line2d_23">
     <path d="M 786.6 333.444906 
L 796.6 333.444906 
L 806.6 333.444906 
" style="fill: none; stroke: #d62728; stroke-width: 1.5; stroke-linecap: square"/>
    </g>
    <g id="text_23">
     <!-- South Africa 12 hours forward prediction -->
     <g transform="translate(814.6 336.944906) scale(0.1 -0.1)">
      <use xlink:href="#DejaVuSans-53"/>
      <use xlink:href="#DejaVuSans-6f" transform="translate(63.476562 0)"/>
      <use xlink:href="#DejaVuSans-75" transform="translate(124.658203 0)"/>
      <use xlink:href="#DejaVuSans-74" transform="translate(188.037109 0)"/>
      <use xlink:href="#DejaVuSans-68" transform="translate(227.246094 0)"/>
      <use xlink:href="#DejaVuSans-20" transform="translate(290.625 0)"/>
      <use xlink:href="#DejaVuSans-41" transform="translate(322.412109 0)"/>
      <use xlink:href="#DejaVuSans-66" transform="translate(387.195312 0)"/>
      <use xlink:href="#DejaVuSans-72" transform="translate(422.400391 0)"/>
      <use xlink:href="#DejaVuSans-69" transform="translate(463.513672 0)"/>
      <use xlink:href="#DejaVuSans-63" transform="translate(491.296875 0)"/>
      <use xlink:href="#DejaVuSans-61" transform="translate(546.277344 0)"/>
      <use xlink:href="#DejaVuSans-20" transform="translate(607.556641 0)"/>
      <use xlink:href="#DejaVuSans-31" transform="translate(639.34375 0)"/>
      <use xlink:href="#DejaVuSans-32" transform="translate(702.966797 0)"/>
      <use xlink:href="#DejaVuSans-20" transform="translate(766.589844 0)"/>
      <use xlink:href="#DejaVuSans-68" transform="translate(798.376953 0)"/>
      <use xlink:href="#DejaVuSans-6f" transform="translate(861.755859 0)"/>
      <use xlink:href="#DejaVuSans-75" transform="translate(922.9375 0)"/>
      <use xlink:href="#DejaVuSans-72" transform="translate(986.316406 0)"/>
      <use xlink:href="#DejaVuSans-73" transform="translate(1027.429688 0)"/>
      <use xlink:href="#DejaVuSans-20" transform="translate(1079.529297 0)"/>
      <use xlink:href="#DejaVuSans-66" transform="translate(1111.316406 0)"/>
      <use xlink:href="#DejaVuSans-6f" transform="translate(1146.521484 0)"/>
      <use xlink:href="#DejaVuSans-72" transform="translate(1207.703125 0)"/>
      <use xlink:href="#DejaVuSans-77" transform="translate(1248.816406 0)"/>
      <use xlink:href="#DejaVuSans-61" transform="translate(1330.603516 0)"/>
      <use xlink:href="#DejaVuSans-72" transform="translate(1391.882812 0)"/>
      <use xlink:href="#DejaVuSans-64" transform="translate(1431.246094 0)"/>
      <use xlink:href="#DejaVuSans-20" transform="translate(1494.722656 0)"/>
      <use xlink:href="#DejaVuSans-70" transform="translate(1526.509766 0)"/>
      <use xlink:href="#DejaVuSans-72" transform="translate(1589.986328 0)"/>
      <use xlink:href="#DejaVuSans-65" transform="translate(1628.849609 0)"/>
      <use xlink:href="#DejaVuSans-64" transform="translate(1690.373047 0)"/>
      <use xlink:href="#DejaVuSans-69" transform="translate(1753.849609 0)"/>
      <use xlink:href="#DejaVuSans-63" transform="translate(1781.632812 0)"/>
      <use xlink:href="#DejaVuSans-74" transform="translate(1836.613281 0)"/>
      <use xlink:href="#DejaVuSans-69" transform="translate(1875.822266 0)"/>
      <use xlink:href="#DejaVuSans-6f" transform="translate(1903.605469 0)"/>
      <use xlink:href="#DejaVuSans-6e" transform="translate(1964.787109 0)"/>
     </g>
    </g>
   </g>
  </g>
 </g>
 <defs>
  <clipPath id="pb1643381fe">
   <rect x="108" y="69.12" width="669.6" height="443.52"/>
  </clipPath>
 </defs>
</svg>
