<?xml version="1.0" encoding="utf-8" standalone="no"?>
<!DOCTYPE svg PUBLIC "-//W3C//DTD SVG 1.1//EN"
  "http://www.w3.org/Graphics/SVG/1.1/DTD/svg11.dtd">
<svg xmlns:xlink="http://www.w3.org/1999/xlink" width="1068.862305pt" height="575.421502pt" viewBox="0 0 1068.862305 575.421502" xmlns="http://www.w3.org/2000/svg" version="1.1">
 <metadata>
  <rdf:RDF xmlns:dc="http://purl.org/dc/elements/1.1/" xmlns:cc="http://creativecommons.org/ns#" xmlns:rdf="http://www.w3.org/1999/02/22-rdf-syntax-ns#">
   <cc:Work>
    <dc:type rdf:resource="http://purl.org/dc/dcmitype/StillImage"/>
    <dc:date>2025-02-28T00:57:38.355978</dc:date>
    <dc:format>image/svg+xml</dc:format>
    <dc:creator>
     <cc:Agent>
      <dc:title>Matplotlib v3.10.0, https://matplotlib.org/</dc:title>
     </cc:Agent>
    </dc:creator>
   </cc:Work>
  </rdf:RDF>
 </metadata>
 <defs>
  <style type="text/css">*{stroke-linejoin: round; stroke-linecap: butt}</style>
 </defs>
 <g id="figure_1">
  <g id="patch_1">
   <path d="M 0 575.421502 
L 1068.862305 575.421502 
L 1068.862305 0 
L 0 0 
z
" style="fill: #ffffff"/>
  </g>
  <g id="axes_1">
   <g id="patch_2">
    <path d="M 66.400118 484.397187 
L 736.000118 484.397187 
L 736.000118 40.877187 
L 66.400118 40.877187 
z
" style="fill: #ffffff"/>
   </g>
   <g id="matplotlib.axis_1">
    <g id="xtick_1">
     <g id="line2d_1">
      <defs>
       <path id="mbed3344dfd" d="M 0 0 
L 0 3.5 
" style="stroke: #000000; stroke-width: 0.8"/>
      </defs>
      <g>
       <use xlink:href="#mbed3344dfd" x="96.836481" y="484.397187" style="stroke: #000000; stroke-width: 0.8"/>
      </g>
     </g>
     <g id="text_1">
      <!-- 2022-11-01 (18:00) -->
      <g transform="translate(10.999219 546.93544) rotate(-30) scale(0.1 -0.1)">
       <defs>
        <path id="DejaVuSans-32" d="M 1228 531 
L 3431 531 
L 3431 0 
L 469 0 
L 469 531 
Q 828 903 1448 1529 
Q 2069 2156 2228 2338 
Q 2531 2678 2651 2914 
Q 2772 3150 2772 3378 
Q 2772 3750 2511 3984 
Q 2250 4219 1831 4219 
Q 1534 4219 1204 4116 
Q 875 4013 500 3803 
L 500 4441 
Q 881 4594 1212 4672 
Q 1544 4750 1819 4750 
Q 2544 4750 2975 4387 
Q 3406 4025 3406 3419 
Q 3406 3131 3298 2873 
Q 3191 2616 2906 2266 
Q 2828 2175 2409 1742 
Q 1991 1309 1228 531 
z
" transform="scale(0.015625)"/>
        <path id="DejaVuSans-30" d="M 2034 4250 
Q 1547 4250 1301 3770 
Q 1056 3291 1056 2328 
Q 1056 1369 1301 889 
Q 1547 409 2034 409 
Q 2525 409 2770 889 
Q 3016 1369 3016 2328 
Q 3016 3291 2770 3770 
Q 2525 4250 2034 4250 
z
M 2034 4750 
Q 2819 4750 3233 4129 
Q 3647 3509 3647 2328 
Q 3647 1150 3233 529 
Q 2819 -91 2034 -91 
Q 1250 -91 836 529 
Q 422 1150 422 2328 
Q 422 3509 836 4129 
Q 1250 4750 2034 4750 
z
" transform="scale(0.015625)"/>
        <path id="DejaVuSans-2d" d="M 313 2009 
L 1997 2009 
L 1997 1497 
L 313 1497 
L 313 2009 
z
" transform="scale(0.015625)"/>
        <path id="DejaVuSans-31" d="M 794 531 
L 1825 531 
L 1825 4091 
L 703 3866 
L 703 4441 
L 1819 4666 
L 2450 4666 
L 2450 531 
L 3481 531 
L 3481 0 
L 794 0 
L 794 531 
z
" transform="scale(0.015625)"/>
        <path id="DejaVuSans-20" transform="scale(0.015625)"/>
        <path id="DejaVuSans-28" d="M 1984 4856 
Q 1566 4138 1362 3434 
Q 1159 2731 1159 2009 
Q 1159 1288 1364 580 
Q 1569 -128 1984 -844 
L 1484 -844 
Q 1016 -109 783 600 
Q 550 1309 550 2009 
Q 550 2706 781 3412 
Q 1013 4119 1484 4856 
L 1984 4856 
z
" transform="scale(0.015625)"/>
        <path id="DejaVuSans-38" d="M 2034 2216 
Q 1584 2216 1326 1975 
Q 1069 1734 1069 1313 
Q 1069 891 1326 650 
Q 1584 409 2034 409 
Q 2484 409 2743 651 
Q 3003 894 3003 1313 
Q 3003 1734 2745 1975 
Q 2488 2216 2034 2216 
z
M 1403 2484 
Q 997 2584 770 2862 
Q 544 3141 544 3541 
Q 544 4100 942 4425 
Q 1341 4750 2034 4750 
Q 2731 4750 3128 4425 
Q 3525 4100 3525 3541 
Q 3525 3141 3298 2862 
Q 3072 2584 2669 2484 
Q 3125 2378 3379 2068 
Q 3634 1759 3634 1313 
Q 3634 634 3220 271 
Q 2806 -91 2034 -91 
Q 1263 -91 848 271 
Q 434 634 434 1313 
Q 434 1759 690 2068 
Q 947 2378 1403 2484 
z
M 1172 3481 
Q 1172 3119 1398 2916 
Q 1625 2713 2034 2713 
Q 2441 2713 2670 2916 
Q 2900 3119 2900 3481 
Q 2900 3844 2670 4047 
Q 2441 4250 2034 4250 
Q 1625 4250 1398 4047 
Q 1172 3844 1172 3481 
z
" transform="scale(0.015625)"/>
        <path id="DejaVuSans-3a" d="M 750 794 
L 1409 794 
L 1409 0 
L 750 0 
L 750 794 
z
M 750 3309 
L 1409 3309 
L 1409 2516 
L 750 2516 
L 750 3309 
z
" transform="scale(0.015625)"/>
        <path id="DejaVuSans-29" d="M 513 4856 
L 1013 4856 
Q 1481 4119 1714 3412 
Q 1947 2706 1947 2009 
Q 1947 1309 1714 600 
Q 1481 -109 1013 -844 
L 513 -844 
Q 928 -128 1133 580 
Q 1338 1288 1338 2009 
Q 1338 2731 1133 3434 
Q 928 4138 513 4856 
z
" transform="scale(0.015625)"/>
       </defs>
       <use xlink:href="#DejaVuSans-32"/>
       <use xlink:href="#DejaVuSans-30" transform="translate(63.623047 0)"/>
       <use xlink:href="#DejaVuSans-32" transform="translate(127.246094 0)"/>
       <use xlink:href="#DejaVuSans-32" transform="translate(190.869141 0)"/>
       <use xlink:href="#DejaVuSans-2d" transform="translate(254.492188 0)"/>
       <use xlink:href="#DejaVuSans-31" transform="translate(290.576172 0)"/>
       <use xlink:href="#DejaVuSans-31" transform="translate(354.199219 0)"/>
       <use xlink:href="#DejaVuSans-2d" transform="translate(417.822266 0)"/>
       <use xlink:href="#DejaVuSans-30" transform="translate(453.90625 0)"/>
       <use xlink:href="#DejaVuSans-31" transform="translate(517.529297 0)"/>
       <use xlink:href="#DejaVuSans-20" transform="translate(581.152344 0)"/>
       <use xlink:href="#DejaVuSans-28" transform="translate(612.939453 0)"/>
       <use xlink:href="#DejaVuSans-31" transform="translate(651.953125 0)"/>
       <use xlink:href="#DejaVuSans-38" transform="translate(715.576172 0)"/>
       <use xlink:href="#DejaVuSans-3a" transform="translate(779.199219 0)"/>
       <use xlink:href="#DejaVuSans-30" transform="translate(812.890625 0)"/>
       <use xlink:href="#DejaVuSans-30" transform="translate(876.513672 0)"/>
       <use xlink:href="#DejaVuSans-29" transform="translate(940.136719 0)"/>
      </g>
     </g>
    </g>
    <g id="xtick_2">
     <g id="line2d_2">
      <g>
       <use xlink:href="#mbed3344dfd" x="218.581936" y="484.397187" style="stroke: #000000; stroke-width: 0.8"/>
      </g>
     </g>
     <g id="text_2">
      <!-- 2022-11-13 (18:00) -->
      <g transform="translate(132.744673 546.93544) rotate(-30) scale(0.1 -0.1)">
       <defs>
        <path id="DejaVuSans-33" d="M 2597 2516 
Q 3050 2419 3304 2112 
Q 3559 1806 3559 1356 
Q 3559 666 3084 287 
Q 2609 -91 1734 -91 
Q 1441 -91 1130 -33 
Q 819 25 488 141 
L 488 750 
Q 750 597 1062 519 
Q 1375 441 1716 441 
Q 2309 441 2620 675 
Q 2931 909 2931 1356 
Q 2931 1769 2642 2001 
Q 2353 2234 1838 2234 
L 1294 2234 
L 1294 2753 
L 1863 2753 
Q 2328 2753 2575 2939 
Q 2822 3125 2822 3475 
Q 2822 3834 2567 4026 
Q 2313 4219 1838 4219 
Q 1578 4219 1281 4162 
Q 984 4106 628 3988 
L 628 4550 
Q 988 4650 1302 4700 
Q 1616 4750 1894 4750 
Q 2613 4750 3031 4423 
Q 3450 4097 3450 3541 
Q 3450 3153 3228 2886 
Q 3006 2619 2597 2516 
z
" transform="scale(0.015625)"/>
       </defs>
       <use xlink:href="#DejaVuSans-32"/>
       <use xlink:href="#DejaVuSans-30" transform="translate(63.623047 0)"/>
       <use xlink:href="#DejaVuSans-32" transform="translate(127.246094 0)"/>
       <use xlink:href="#DejaVuSans-32" transform="translate(190.869141 0)"/>
       <use xlink:href="#DejaVuSans-2d" transform="translate(254.492188 0)"/>
       <use xlink:href="#DejaVuSans-31" transform="translate(290.576172 0)"/>
       <use xlink:href="#DejaVuSans-31" transform="translate(354.199219 0)"/>
       <use xlink:href="#DejaVuSans-2d" transform="translate(417.822266 0)"/>
       <use xlink:href="#DejaVuSans-31" transform="translate(453.90625 0)"/>
       <use xlink:href="#DejaVuSans-33" transform="translate(517.529297 0)"/>
       <use xlink:href="#DejaVuSans-20" transform="translate(581.152344 0)"/>
       <use xlink:href="#DejaVuSans-28" transform="translate(612.939453 0)"/>
       <use xlink:href="#DejaVuSans-31" transform="translate(651.953125 0)"/>
       <use xlink:href="#DejaVuSans-38" transform="translate(715.576172 0)"/>
       <use xlink:href="#DejaVuSans-3a" transform="translate(779.199219 0)"/>
       <use xlink:href="#DejaVuSans-30" transform="translate(812.890625 0)"/>
       <use xlink:href="#DejaVuSans-30" transform="translate(876.513672 0)"/>
       <use xlink:href="#DejaVuSans-29" transform="translate(940.136719 0)"/>
      </g>
     </g>
    </g>
    <g id="xtick_3">
     <g id="line2d_3">
      <g>
       <use xlink:href="#mbed3344dfd" x="340.32739" y="484.397187" style="stroke: #000000; stroke-width: 0.8"/>
      </g>
     </g>
     <g id="text_3">
      <!-- 2022-11-25 (18:00) -->
      <g transform="translate(254.490128 546.93544) rotate(-30) scale(0.1 -0.1)">
       <defs>
        <path id="DejaVuSans-35" d="M 691 4666 
L 3169 4666 
L 3169 4134 
L 1269 4134 
L 1269 2991 
Q 1406 3038 1543 3061 
Q 1681 3084 1819 3084 
Q 2600 3084 3056 2656 
Q 3513 2228 3513 1497 
Q 3513 744 3044 326 
Q 2575 -91 1722 -91 
Q 1428 -91 1123 -41 
Q 819 9 494 109 
L 494 744 
Q 775 591 1075 516 
Q 1375 441 1709 441 
Q 2250 441 2565 725 
Q 2881 1009 2881 1497 
Q 2881 1984 2565 2268 
Q 2250 2553 1709 2553 
Q 1456 2553 1204 2497 
Q 953 2441 691 2322 
L 691 4666 
z
" transform="scale(0.015625)"/>
       </defs>
       <use xlink:href="#DejaVuSans-32"/>
       <use xlink:href="#DejaVuSans-30" transform="translate(63.623047 0)"/>
       <use xlink:href="#DejaVuSans-32" transform="translate(127.246094 0)"/>
       <use xlink:href="#DejaVuSans-32" transform="translate(190.869141 0)"/>
       <use xlink:href="#DejaVuSans-2d" transform="translate(254.492188 0)"/>
       <use xlink:href="#DejaVuSans-31" transform="translate(290.576172 0)"/>
       <use xlink:href="#DejaVuSans-31" transform="translate(354.199219 0)"/>
       <use xlink:href="#DejaVuSans-2d" transform="translate(417.822266 0)"/>
       <use xlink:href="#DejaVuSans-32" transform="translate(453.90625 0)"/>
       <use xlink:href="#DejaVuSans-35" transform="translate(517.529297 0)"/>
       <use xlink:href="#DejaVuSans-20" transform="translate(581.152344 0)"/>
       <use xlink:href="#DejaVuSans-28" transform="translate(612.939453 0)"/>
       <use xlink:href="#DejaVuSans-31" transform="translate(651.953125 0)"/>
       <use xlink:href="#DejaVuSans-38" transform="translate(715.576172 0)"/>
       <use xlink:href="#DejaVuSans-3a" transform="translate(779.199219 0)"/>
       <use xlink:href="#DejaVuSans-30" transform="translate(812.890625 0)"/>
       <use xlink:href="#DejaVuSans-30" transform="translate(876.513672 0)"/>
       <use xlink:href="#DejaVuSans-29" transform="translate(940.136719 0)"/>
      </g>
     </g>
    </g>
    <g id="xtick_4">
     <g id="line2d_4">
      <g>
       <use xlink:href="#mbed3344dfd" x="462.072845" y="484.397187" style="stroke: #000000; stroke-width: 0.8"/>
      </g>
     </g>
     <g id="text_4">
      <!-- 2022-12-07 (18:00) -->
      <g transform="translate(376.235582 546.93544) rotate(-30) scale(0.1 -0.1)">
       <defs>
        <path id="DejaVuSans-37" d="M 525 4666 
L 3525 4666 
L 3525 4397 
L 1831 0 
L 1172 0 
L 2766 4134 
L 525 4134 
L 525 4666 
z
" transform="scale(0.015625)"/>
       </defs>
       <use xlink:href="#DejaVuSans-32"/>
       <use xlink:href="#DejaVuSans-30" transform="translate(63.623047 0)"/>
       <use xlink:href="#DejaVuSans-32" transform="translate(127.246094 0)"/>
       <use xlink:href="#DejaVuSans-32" transform="translate(190.869141 0)"/>
       <use xlink:href="#DejaVuSans-2d" transform="translate(254.492188 0)"/>
       <use xlink:href="#DejaVuSans-31" transform="translate(290.576172 0)"/>
       <use xlink:href="#DejaVuSans-32" transform="translate(354.199219 0)"/>
       <use xlink:href="#DejaVuSans-2d" transform="translate(417.822266 0)"/>
       <use xlink:href="#DejaVuSans-30" transform="translate(453.90625 0)"/>
       <use xlink:href="#DejaVuSans-37" transform="translate(517.529297 0)"/>
       <use xlink:href="#DejaVuSans-20" transform="translate(581.152344 0)"/>
       <use xlink:href="#DejaVuSans-28" transform="translate(612.939453 0)"/>
       <use xlink:href="#DejaVuSans-31" transform="translate(651.953125 0)"/>
       <use xlink:href="#DejaVuSans-38" transform="translate(715.576172 0)"/>
       <use xlink:href="#DejaVuSans-3a" transform="translate(779.199219 0)"/>
       <use xlink:href="#DejaVuSans-30" transform="translate(812.890625 0)"/>
       <use xlink:href="#DejaVuSans-30" transform="translate(876.513672 0)"/>
       <use xlink:href="#DejaVuSans-29" transform="translate(940.136719 0)"/>
      </g>
     </g>
    </g>
    <g id="xtick_5">
     <g id="line2d_5">
      <g>
       <use xlink:href="#mbed3344dfd" x="583.818299" y="484.397187" style="stroke: #000000; stroke-width: 0.8"/>
      </g>
     </g>
     <g id="text_5">
      <!-- 2022-12-19 (18:00) -->
      <g transform="translate(497.981037 546.93544) rotate(-30) scale(0.1 -0.1)">
       <defs>
        <path id="DejaVuSans-39" d="M 703 97 
L 703 672 
Q 941 559 1184 500 
Q 1428 441 1663 441 
Q 2288 441 2617 861 
Q 2947 1281 2994 2138 
Q 2813 1869 2534 1725 
Q 2256 1581 1919 1581 
Q 1219 1581 811 2004 
Q 403 2428 403 3163 
Q 403 3881 828 4315 
Q 1253 4750 1959 4750 
Q 2769 4750 3195 4129 
Q 3622 3509 3622 2328 
Q 3622 1225 3098 567 
Q 2575 -91 1691 -91 
Q 1453 -91 1209 -44 
Q 966 3 703 97 
z
M 1959 2075 
Q 2384 2075 2632 2365 
Q 2881 2656 2881 3163 
Q 2881 3666 2632 3958 
Q 2384 4250 1959 4250 
Q 1534 4250 1286 3958 
Q 1038 3666 1038 3163 
Q 1038 2656 1286 2365 
Q 1534 2075 1959 2075 
z
" transform="scale(0.015625)"/>
       </defs>
       <use xlink:href="#DejaVuSans-32"/>
       <use xlink:href="#DejaVuSans-30" transform="translate(63.623047 0)"/>
       <use xlink:href="#DejaVuSans-32" transform="translate(127.246094 0)"/>
       <use xlink:href="#DejaVuSans-32" transform="translate(190.869141 0)"/>
       <use xlink:href="#DejaVuSans-2d" transform="translate(254.492188 0)"/>
       <use xlink:href="#DejaVuSans-31" transform="translate(290.576172 0)"/>
       <use xlink:href="#DejaVuSans-32" transform="translate(354.199219 0)"/>
       <use xlink:href="#DejaVuSans-2d" transform="translate(417.822266 0)"/>
       <use xlink:href="#DejaVuSans-31" transform="translate(453.90625 0)"/>
       <use xlink:href="#DejaVuSans-39" transform="translate(517.529297 0)"/>
       <use xlink:href="#DejaVuSans-20" transform="translate(581.152344 0)"/>
       <use xlink:href="#DejaVuSans-28" transform="translate(612.939453 0)"/>
       <use xlink:href="#DejaVuSans-31" transform="translate(651.953125 0)"/>
       <use xlink:href="#DejaVuSans-38" transform="translate(715.576172 0)"/>
       <use xlink:href="#DejaVuSans-3a" transform="translate(779.199219 0)"/>
       <use xlink:href="#DejaVuSans-30" transform="translate(812.890625 0)"/>
       <use xlink:href="#DejaVuSans-30" transform="translate(876.513672 0)"/>
       <use xlink:href="#DejaVuSans-29" transform="translate(940.136719 0)"/>
      </g>
     </g>
    </g>
    <g id="xtick_6">
     <g id="line2d_6">
      <g>
       <use xlink:href="#mbed3344dfd" x="705.563754" y="484.397187" style="stroke: #000000; stroke-width: 0.8"/>
      </g>
     </g>
     <g id="text_6">
      <!-- 2022-12-31 (18:00) -->
      <g transform="translate(619.726491 546.93544) rotate(-30) scale(0.1 -0.1)">
       <use xlink:href="#DejaVuSans-32"/>
       <use xlink:href="#DejaVuSans-30" transform="translate(63.623047 0)"/>
       <use xlink:href="#DejaVuSans-32" transform="translate(127.246094 0)"/>
       <use xlink:href="#DejaVuSans-32" transform="translate(190.869141 0)"/>
       <use xlink:href="#DejaVuSans-2d" transform="translate(254.492188 0)"/>
       <use xlink:href="#DejaVuSans-31" transform="translate(290.576172 0)"/>
       <use xlink:href="#DejaVuSans-32" transform="translate(354.199219 0)"/>
       <use xlink:href="#DejaVuSans-2d" transform="translate(417.822266 0)"/>
       <use xlink:href="#DejaVuSans-33" transform="translate(453.90625 0)"/>
       <use xlink:href="#DejaVuSans-31" transform="translate(517.529297 0)"/>
       <use xlink:href="#DejaVuSans-20" transform="translate(581.152344 0)"/>
       <use xlink:href="#DejaVuSans-28" transform="translate(612.939453 0)"/>
       <use xlink:href="#DejaVuSans-31" transform="translate(651.953125 0)"/>
       <use xlink:href="#DejaVuSans-38" transform="translate(715.576172 0)"/>
       <use xlink:href="#DejaVuSans-3a" transform="translate(779.199219 0)"/>
       <use xlink:href="#DejaVuSans-30" transform="translate(812.890625 0)"/>
       <use xlink:href="#DejaVuSans-30" transform="translate(876.513672 0)"/>
       <use xlink:href="#DejaVuSans-29" transform="translate(940.136719 0)"/>
      </g>
     </g>
    </g>
    <g id="text_7">
     <!-- Forecast Date -->
     <g transform="translate(345.693868 564.894002) scale(0.16 -0.16)">
      <defs>
       <path id="DejaVuSans-46" d="M 628 4666 
L 3309 4666 
L 3309 4134 
L 1259 4134 
L 1259 2759 
L 3109 2759 
L 3109 2228 
L 1259 2228 
L 1259 0 
L 628 0 
L 628 4666 
z
" transform="scale(0.015625)"/>
       <path id="DejaVuSans-6f" d="M 1959 3097 
Q 1497 3097 1228 2736 
Q 959 2375 959 1747 
Q 959 1119 1226 758 
Q 1494 397 1959 397 
Q 2419 397 2687 759 
Q 2956 1122 2956 1747 
Q 2956 2369 2687 2733 
Q 2419 3097 1959 3097 
z
M 1959 3584 
Q 2709 3584 3137 3096 
Q 3566 2609 3566 1747 
Q 3566 888 3137 398 
Q 2709 -91 1959 -91 
Q 1206 -91 779 398 
Q 353 888 353 1747 
Q 353 2609 779 3096 
Q 1206 3584 1959 3584 
z
" transform="scale(0.015625)"/>
       <path id="DejaVuSans-72" d="M 2631 2963 
Q 2534 3019 2420 3045 
Q 2306 3072 2169 3072 
Q 1681 3072 1420 2755 
Q 1159 2438 1159 1844 
L 1159 0 
L 581 0 
L 581 3500 
L 1159 3500 
L 1159 2956 
Q 1341 3275 1631 3429 
Q 1922 3584 2338 3584 
Q 2397 3584 2469 3576 
Q 2541 3569 2628 3553 
L 2631 2963 
z
" transform="scale(0.015625)"/>
       <path id="DejaVuSans-65" d="M 3597 1894 
L 3597 1613 
L 953 1613 
Q 991 1019 1311 708 
Q 1631 397 2203 397 
Q 2534 397 2845 478 
Q 3156 559 3463 722 
L 3463 178 
Q 3153 47 2828 -22 
Q 2503 -91 2169 -91 
Q 1331 -91 842 396 
Q 353 884 353 1716 
Q 353 2575 817 3079 
Q 1281 3584 2069 3584 
Q 2775 3584 3186 3129 
Q 3597 2675 3597 1894 
z
M 3022 2063 
Q 3016 2534 2758 2815 
Q 2500 3097 2075 3097 
Q 1594 3097 1305 2825 
Q 1016 2553 972 2059 
L 3022 2063 
z
" transform="scale(0.015625)"/>
       <path id="DejaVuSans-63" d="M 3122 3366 
L 3122 2828 
Q 2878 2963 2633 3030 
Q 2388 3097 2138 3097 
Q 1578 3097 1268 2742 
Q 959 2388 959 1747 
Q 959 1106 1268 751 
Q 1578 397 2138 397 
Q 2388 397 2633 464 
Q 2878 531 3122 666 
L 3122 134 
Q 2881 22 2623 -34 
Q 2366 -91 2075 -91 
Q 1284 -91 818 406 
Q 353 903 353 1747 
Q 353 2603 823 3093 
Q 1294 3584 2113 3584 
Q 2378 3584 2631 3529 
Q 2884 3475 3122 3366 
z
" transform="scale(0.015625)"/>
       <path id="DejaVuSans-61" d="M 2194 1759 
Q 1497 1759 1228 1600 
Q 959 1441 959 1056 
Q 959 750 1161 570 
Q 1363 391 1709 391 
Q 2188 391 2477 730 
Q 2766 1069 2766 1631 
L 2766 1759 
L 2194 1759 
z
M 3341 1997 
L 3341 0 
L 2766 0 
L 2766 531 
Q 2569 213 2275 61 
Q 1981 -91 1556 -91 
Q 1019 -91 701 211 
Q 384 513 384 1019 
Q 384 1609 779 1909 
Q 1175 2209 1959 2209 
L 2766 2209 
L 2766 2266 
Q 2766 2663 2505 2880 
Q 2244 3097 1772 3097 
Q 1472 3097 1187 3025 
Q 903 2953 641 2809 
L 641 3341 
Q 956 3463 1253 3523 
Q 1550 3584 1831 3584 
Q 2591 3584 2966 3190 
Q 3341 2797 3341 1997 
z
" transform="scale(0.015625)"/>
       <path id="DejaVuSans-73" d="M 2834 3397 
L 2834 2853 
Q 2591 2978 2328 3040 
Q 2066 3103 1784 3103 
Q 1356 3103 1142 2972 
Q 928 2841 928 2578 
Q 928 2378 1081 2264 
Q 1234 2150 1697 2047 
L 1894 2003 
Q 2506 1872 2764 1633 
Q 3022 1394 3022 966 
Q 3022 478 2636 193 
Q 2250 -91 1575 -91 
Q 1294 -91 989 -36 
Q 684 19 347 128 
L 347 722 
Q 666 556 975 473 
Q 1284 391 1588 391 
Q 1994 391 2212 530 
Q 2431 669 2431 922 
Q 2431 1156 2273 1281 
Q 2116 1406 1581 1522 
L 1381 1569 
Q 847 1681 609 1914 
Q 372 2147 372 2553 
Q 372 3047 722 3315 
Q 1072 3584 1716 3584 
Q 2034 3584 2315 3537 
Q 2597 3491 2834 3397 
z
" transform="scale(0.015625)"/>
       <path id="DejaVuSans-74" d="M 1172 4494 
L 1172 3500 
L 2356 3500 
L 2356 3053 
L 1172 3053 
L 1172 1153 
Q 1172 725 1289 603 
Q 1406 481 1766 481 
L 2356 481 
L 2356 0 
L 1766 0 
Q 1100 0 847 248 
Q 594 497 594 1153 
L 594 3053 
L 172 3053 
L 172 3500 
L 594 3500 
L 594 4494 
L 1172 4494 
z
" transform="scale(0.015625)"/>
       <path id="DejaVuSans-44" d="M 1259 4147 
L 1259 519 
L 2022 519 
Q 2988 519 3436 956 
Q 3884 1394 3884 2338 
Q 3884 3275 3436 3711 
Q 2988 4147 2022 4147 
L 1259 4147 
z
M 628 4666 
L 1925 4666 
Q 3281 4666 3915 4102 
Q 4550 3538 4550 2338 
Q 4550 1131 3912 565 
Q 3275 0 1925 0 
L 628 0 
L 628 4666 
z
" transform="scale(0.015625)"/>
      </defs>
      <use xlink:href="#DejaVuSans-46"/>
      <use xlink:href="#DejaVuSans-6f" transform="translate(53.894531 0)"/>
      <use xlink:href="#DejaVuSans-72" transform="translate(115.076172 0)"/>
      <use xlink:href="#DejaVuSans-65" transform="translate(153.939453 0)"/>
      <use xlink:href="#DejaVuSans-63" transform="translate(215.462891 0)"/>
      <use xlink:href="#DejaVuSans-61" transform="translate(270.443359 0)"/>
      <use xlink:href="#DejaVuSans-73" transform="translate(331.722656 0)"/>
      <use xlink:href="#DejaVuSans-74" transform="translate(383.822266 0)"/>
      <use xlink:href="#DejaVuSans-20" transform="translate(423.03125 0)"/>
      <use xlink:href="#DejaVuSans-44" transform="translate(454.818359 0)"/>
      <use xlink:href="#DejaVuSans-61" transform="translate(531.820312 0)"/>
      <use xlink:href="#DejaVuSans-74" transform="translate(593.099609 0)"/>
      <use xlink:href="#DejaVuSans-65" transform="translate(632.308594 0)"/>
     </g>
    </g>
   </g>
   <g id="matplotlib.axis_2">
    <g id="ytick_1">
     <g id="line2d_7">
      <defs>
       <path id="mbcb454ab45" d="M 0 0 
L -3.5 0 
" style="stroke: #000000; stroke-width: 0.8"/>
      </defs>
      <g>
       <use xlink:href="#mbcb454ab45" x="66.400118" y="449.485649" style="stroke: #000000; stroke-width: 0.8"/>
      </g>
     </g>
     <g id="text_8">
      <!-- 1 -->
      <g transform="translate(53.037618 453.284868) scale(0.1 -0.1)">
       <use xlink:href="#DejaVuSans-31"/>
      </g>
     </g>
    </g>
    <g id="ytick_2">
     <g id="line2d_8">
      <g>
       <use xlink:href="#mbcb454ab45" x="66.400118" y="353.704474" style="stroke: #000000; stroke-width: 0.8"/>
      </g>
     </g>
     <g id="text_9">
      <!-- 2 -->
      <g transform="translate(53.037618 357.503692) scale(0.1 -0.1)">
       <use xlink:href="#DejaVuSans-32"/>
      </g>
     </g>
    </g>
    <g id="ytick_3">
     <g id="line2d_9">
      <g>
       <use xlink:href="#mbcb454ab45" x="66.400118" y="257.923298" style="stroke: #000000; stroke-width: 0.8"/>
      </g>
     </g>
     <g id="text_10">
      <!-- 3 -->
      <g transform="translate(53.037618 261.722517) scale(0.1 -0.1)">
       <use xlink:href="#DejaVuSans-33"/>
      </g>
     </g>
    </g>
    <g id="ytick_4">
     <g id="line2d_10">
      <g>
       <use xlink:href="#mbcb454ab45" x="66.400118" y="162.142122" style="stroke: #000000; stroke-width: 0.8"/>
      </g>
     </g>
     <g id="text_11">
      <!-- 4 -->
      <g transform="translate(53.037618 165.941341) scale(0.1 -0.1)">
       <defs>
        <path id="DejaVuSans-34" d="M 2419 4116 
L 825 1625 
L 2419 1625 
L 2419 4116 
z
M 2253 4666 
L 3047 4666 
L 3047 1625 
L 3713 1625 
L 3713 1100 
L 3047 1100 
L 3047 0 
L 2419 0 
L 2419 1100 
L 313 1100 
L 313 1709 
L 2253 4666 
z
" transform="scale(0.015625)"/>
       </defs>
       <use xlink:href="#DejaVuSans-34"/>
      </g>
     </g>
    </g>
    <g id="ytick_5">
     <g id="line2d_11">
      <g>
       <use xlink:href="#mbcb454ab45" x="66.400118" y="66.360947" style="stroke: #000000; stroke-width: 0.8"/>
      </g>
     </g>
     <g id="text_12">
      <!-- 5 -->
      <g transform="translate(53.037618 70.160166) scale(0.1 -0.1)">
       <use xlink:href="#DejaVuSans-35"/>
      </g>
     </g>
    </g>
    <g id="text_13">
     <!-- Root Mean Squared Error (RMSE) -->
     <g transform="translate(45.710118 394.303437) rotate(-90) scale(0.16 -0.16)">
      <defs>
       <path id="DejaVuSans-52" d="M 2841 2188 
Q 3044 2119 3236 1894 
Q 3428 1669 3622 1275 
L 4263 0 
L 3584 0 
L 2988 1197 
Q 2756 1666 2539 1819 
Q 2322 1972 1947 1972 
L 1259 1972 
L 1259 0 
L 628 0 
L 628 4666 
L 2053 4666 
Q 2853 4666 3247 4331 
Q 3641 3997 3641 3322 
Q 3641 2881 3436 2590 
Q 3231 2300 2841 2188 
z
M 1259 4147 
L 1259 2491 
L 2053 2491 
Q 2509 2491 2742 2702 
Q 2975 2913 2975 3322 
Q 2975 3731 2742 3939 
Q 2509 4147 2053 4147 
L 1259 4147 
z
" transform="scale(0.015625)"/>
       <path id="DejaVuSans-4d" d="M 628 4666 
L 1569 4666 
L 2759 1491 
L 3956 4666 
L 4897 4666 
L 4897 0 
L 4281 0 
L 4281 4097 
L 3078 897 
L 2444 897 
L 1241 4097 
L 1241 0 
L 628 0 
L 628 4666 
z
" transform="scale(0.015625)"/>
       <path id="DejaVuSans-6e" d="M 3513 2113 
L 3513 0 
L 2938 0 
L 2938 2094 
Q 2938 2591 2744 2837 
Q 2550 3084 2163 3084 
Q 1697 3084 1428 2787 
Q 1159 2491 1159 1978 
L 1159 0 
L 581 0 
L 581 3500 
L 1159 3500 
L 1159 2956 
Q 1366 3272 1645 3428 
Q 1925 3584 2291 3584 
Q 2894 3584 3203 3211 
Q 3513 2838 3513 2113 
z
" transform="scale(0.015625)"/>
       <path id="DejaVuSans-53" d="M 3425 4513 
L 3425 3897 
Q 3066 4069 2747 4153 
Q 2428 4238 2131 4238 
Q 1616 4238 1336 4038 
Q 1056 3838 1056 3469 
Q 1056 3159 1242 3001 
Q 1428 2844 1947 2747 
L 2328 2669 
Q 3034 2534 3370 2195 
Q 3706 1856 3706 1288 
Q 3706 609 3251 259 
Q 2797 -91 1919 -91 
Q 1588 -91 1214 -16 
Q 841 59 441 206 
L 441 856 
Q 825 641 1194 531 
Q 1563 422 1919 422 
Q 2459 422 2753 634 
Q 3047 847 3047 1241 
Q 3047 1584 2836 1778 
Q 2625 1972 2144 2069 
L 1759 2144 
Q 1053 2284 737 2584 
Q 422 2884 422 3419 
Q 422 4038 858 4394 
Q 1294 4750 2059 4750 
Q 2388 4750 2728 4690 
Q 3069 4631 3425 4513 
z
" transform="scale(0.015625)"/>
       <path id="DejaVuSans-71" d="M 947 1747 
Q 947 1113 1208 752 
Q 1469 391 1925 391 
Q 2381 391 2643 752 
Q 2906 1113 2906 1747 
Q 2906 2381 2643 2742 
Q 2381 3103 1925 3103 
Q 1469 3103 1208 2742 
Q 947 2381 947 1747 
z
M 2906 525 
Q 2725 213 2448 61 
Q 2172 -91 1784 -91 
Q 1150 -91 751 415 
Q 353 922 353 1747 
Q 353 2572 751 3078 
Q 1150 3584 1784 3584 
Q 2172 3584 2448 3432 
Q 2725 3281 2906 2969 
L 2906 3500 
L 3481 3500 
L 3481 -1331 
L 2906 -1331 
L 2906 525 
z
" transform="scale(0.015625)"/>
       <path id="DejaVuSans-75" d="M 544 1381 
L 544 3500 
L 1119 3500 
L 1119 1403 
Q 1119 906 1312 657 
Q 1506 409 1894 409 
Q 2359 409 2629 706 
Q 2900 1003 2900 1516 
L 2900 3500 
L 3475 3500 
L 3475 0 
L 2900 0 
L 2900 538 
Q 2691 219 2414 64 
Q 2138 -91 1772 -91 
Q 1169 -91 856 284 
Q 544 659 544 1381 
z
M 1991 3584 
L 1991 3584 
z
" transform="scale(0.015625)"/>
       <path id="DejaVuSans-64" d="M 2906 2969 
L 2906 4863 
L 3481 4863 
L 3481 0 
L 2906 0 
L 2906 525 
Q 2725 213 2448 61 
Q 2172 -91 1784 -91 
Q 1150 -91 751 415 
Q 353 922 353 1747 
Q 353 2572 751 3078 
Q 1150 3584 1784 3584 
Q 2172 3584 2448 3432 
Q 2725 3281 2906 2969 
z
M 947 1747 
Q 947 1113 1208 752 
Q 1469 391 1925 391 
Q 2381 391 2643 752 
Q 2906 1113 2906 1747 
Q 2906 2381 2643 2742 
Q 2381 3103 1925 3103 
Q 1469 3103 1208 2742 
Q 947 2381 947 1747 
z
" transform="scale(0.015625)"/>
       <path id="DejaVuSans-45" d="M 628 4666 
L 3578 4666 
L 3578 4134 
L 1259 4134 
L 1259 2753 
L 3481 2753 
L 3481 2222 
L 1259 2222 
L 1259 531 
L 3634 531 
L 3634 0 
L 628 0 
L 628 4666 
z
" transform="scale(0.015625)"/>
      </defs>
      <use xlink:href="#DejaVuSans-52"/>
      <use xlink:href="#DejaVuSans-6f" transform="translate(64.982422 0)"/>
      <use xlink:href="#DejaVuSans-6f" transform="translate(126.164062 0)"/>
      <use xlink:href="#DejaVuSans-74" transform="translate(187.345703 0)"/>
      <use xlink:href="#DejaVuSans-20" transform="translate(226.554688 0)"/>
      <use xlink:href="#DejaVuSans-4d" transform="translate(258.341797 0)"/>
      <use xlink:href="#DejaVuSans-65" transform="translate(344.621094 0)"/>
      <use xlink:href="#DejaVuSans-61" transform="translate(406.144531 0)"/>
      <use xlink:href="#DejaVuSans-6e" transform="translate(467.423828 0)"/>
      <use xlink:href="#DejaVuSans-20" transform="translate(530.802734 0)"/>
      <use xlink:href="#DejaVuSans-53" transform="translate(562.589844 0)"/>
      <use xlink:href="#DejaVuSans-71" transform="translate(626.066406 0)"/>
      <use xlink:href="#DejaVuSans-75" transform="translate(689.542969 0)"/>
      <use xlink:href="#DejaVuSans-61" transform="translate(752.921875 0)"/>
      <use xlink:href="#DejaVuSans-72" transform="translate(814.201172 0)"/>
      <use xlink:href="#DejaVuSans-65" transform="translate(853.064453 0)"/>
      <use xlink:href="#DejaVuSans-64" transform="translate(914.587891 0)"/>
      <use xlink:href="#DejaVuSans-20" transform="translate(978.064453 0)"/>
      <use xlink:href="#DejaVuSans-45" transform="translate(1009.851562 0)"/>
      <use xlink:href="#DejaVuSans-72" transform="translate(1073.035156 0)"/>
      <use xlink:href="#DejaVuSans-72" transform="translate(1112.398438 0)"/>
      <use xlink:href="#DejaVuSans-6f" transform="translate(1151.261719 0)"/>
      <use xlink:href="#DejaVuSans-72" transform="translate(1212.443359 0)"/>
      <use xlink:href="#DejaVuSans-20" transform="translate(1253.556641 0)"/>
      <use xlink:href="#DejaVuSans-28" transform="translate(1285.34375 0)"/>
      <use xlink:href="#DejaVuSans-52" transform="translate(1324.357422 0)"/>
      <use xlink:href="#DejaVuSans-4d" transform="translate(1393.839844 0)"/>
      <use xlink:href="#DejaVuSans-53" transform="translate(1480.119141 0)"/>
      <use xlink:href="#DejaVuSans-45" transform="translate(1543.595703 0)"/>
      <use xlink:href="#DejaVuSans-29" transform="translate(1606.779297 0)"/>
     </g>
    </g>
   </g>
   <g id="line2d_12">
    <path d="M 96.836481 437.235682 
L 99.372845 437.348846 
L 101.909208 441.64036 
L 104.445572 441.28397 
L 106.981936 439.531717 
L 109.518299 437.040982 
L 112.054663 441.502225 
L 114.591027 442.343812 
L 117.12739 439.543398 
L 119.663754 436.040022 
M 127.272845 439.139703 
L 129.809208 437.384869 
L 132.345572 440.798602 
L 134.881936 444.533135 
L 137.418299 438.762623 
L 139.954663 437.705829 
L 145.02739 443.186187 
L 147.563754 438.940584 
L 150.100118 437.438831 
L 152.636481 441.274835 
L 155.172845 442.50073 
L 157.709208 439.783667 
L 160.245572 436.725936 
L 162.781936 439.1917 
L 165.318299 442.912452 
L 167.854663 439.59543 
L 170.391027 436.902778 
L 172.92739 440.723129 
L 175.463754 443.12856 
L 178.000118 438.45823 
L 180.536481 435.827465 
L 183.072845 439.159353 
L 185.609208 441.896626 
L 188.145572 435.662349 
L 190.681936 434.350009 
L 193.218299 438.594082 
L 195.754663 441.117061 
L 198.291027 436.337781 
L 200.82739 435.111841 
L 203.363754 439.365608 
L 205.900118 441.340969 
L 208.436481 437.216419 
L 210.972845 433.964012 
L 213.509208 438.372059 
L 216.045572 441.000107 
L 221.118299 435.391091 
L 223.654663 440.75172 
L 226.191027 443.047138 
L 228.72739 436.598831 
L 231.263754 434.271579 
L 233.800118 442.005599 
L 236.336481 441.336424 
L 238.872845 437.079563 
L 241.409208 434.948347 
L 243.945572 440.074095 
L 246.481936 442.13629 
L 249.018299 437.917554 
L 251.554663 433.317719 
L 254.091027 439.627583 
M 261.700118 432.634705 
L 264.236481 439.83845 
L 266.772845 439.17922 
L 269.309208 435.833973 
M 276.918299 440.21529 
L 279.454663 435.727957 
L 281.991027 435.240111 
L 284.52739 437.667191 
L 287.063754 437.457545 
L 289.600118 435.066329 
L 292.136481 433.40139 
L 294.672845 438.074928 
L 297.209208 438.195856 
L 299.745572 436.218394 
L 302.281936 433.018224 
L 304.818299 438.375142 
L 307.354663 438.779579 
L 309.891027 435.223818 
L 312.42739 433.777339 
L 314.963754 437.496869 
L 317.500118 436.822909 
L 320.036481 434.939201 
L 322.572845 432.196619 
L 327.645572 441.189018 
L 330.181936 437.115496 
L 332.718299 432.179001 
L 335.254663 438.276558 
L 337.791027 440.509327 
L 340.32739 438.906878 
L 342.863754 433.403274 
L 345.400118 439.179883 
L 347.936481 439.387896 
L 350.472845 437.10973 
L 353.009208 433.942991 
L 355.545572 436.095788 
L 358.081936 437.713445 
L 360.618299 436.71147 
L 363.154663 433.685835 
L 365.691027 437.858819 
L 368.22739 439.793886 
L 370.763754 439.085513 
L 373.300118 435.282506 
L 375.836481 439.58875 
L 378.372845 443.014209 
L 380.909208 440.675984 
L 383.445572 435.164741 
L 385.981936 439.104535 
L 388.518299 442.629354 
L 391.054663 438.679911 
L 393.591027 433.366633 
L 396.12739 438.96914 
L 398.663754 442.657784 
L 401.200118 440.105106 
L 403.736481 434.662908 
L 406.272845 439.974656 
L 408.809208 441.594391 
L 411.345572 438.54865 
L 413.881936 433.818021 
L 416.418299 439.108006 
L 418.954663 441.218659 
L 421.491027 437.367103 
L 424.02739 432.641247 
L 426.563754 438.284528 
L 429.100118 441.732435 
L 431.636481 439.854824 
L 434.172845 433.927451 
L 436.709208 439.432906 
L 439.245572 442.636707 
L 441.781936 439.357958 
L 444.318299 434.592927 
L 446.854663 438.514304 
M 469.681936 442.621407 
L 472.218299 437.39454 
L 474.754663 433.735755 
L 477.291027 439.146222 
L 479.82739 442.49936 
L 482.363754 436.51452 
L 484.900118 434.121272 
L 487.436481 438.351929 
L 489.972845 441.648981 
L 495.045572 431.946005 
L 497.581936 436.554666 
L 500.118299 440.281058 
L 502.654663 436.646661 
L 505.191027 431.562805 
L 507.72739 435.149932 
L 510.263754 441.281275 
L 512.800118 436.559085 
L 515.336481 432.773696 
L 517.872845 436.665341 
L 520.409208 439.751674 
L 522.945572 436.988219 
L 525.481936 433.105184 
L 528.018299 437.700874 
L 530.554663 440.163886 
L 533.091027 435.98404 
L 535.62739 432.523208 
L 538.163754 435.603169 
L 540.700118 439.128433 
L 543.236481 436.631338 
L 545.772845 432.984929 
L 548.309208 435.926721 
L 550.845572 440.509338 
L 553.381936 436.970784 
L 555.918299 431.743712 
L 558.454663 435.494687 
L 560.991027 440.026242 
L 563.52739 437.325336 
L 566.063754 431.71173 
L 571.136481 438.289495 
L 573.672845 436.567306 
L 576.209208 431.866159 
L 581.281936 439.53818 
L 583.818299 436.057754 
L 586.354663 431.971399 
L 588.891027 436.981665 
L 591.42739 438.912245 
L 593.963754 435.94056 
L 596.500118 430.79008 
L 599.036481 435.066295 
L 601.572845 436.867234 
L 604.109208 434.925545 
L 606.645572 428.520763 
L 609.181936 433.192497 
L 611.718299 437.597313 
L 614.254663 434.500487 
L 616.791027 428.775259 
L 619.32739 433.784144 
L 621.863754 437.578884 
L 624.400118 434.841954 
L 626.936481 430.529955 
L 629.472845 434.820773 
L 632.009208 437.708204 
L 634.545572 437.274902 
L 637.081936 433.166487 
L 639.618299 436.393706 
L 642.154663 438.927077 
L 644.691027 438.036084 
L 647.22739 433.733003 
L 649.763754 436.246551 
L 652.300118 439.225977 
L 654.836481 438.020453 
L 657.372845 433.402246 
L 662.445572 438.44269 
L 664.981936 439.294805 
L 667.518299 434.549413 
L 670.054663 437.821482 
L 672.591027 439.779693 
L 675.12739 438.543603 
L 677.663754 434.240887 
L 682.736481 439.057436 
L 685.272845 438.709895 
L 687.809208 433.633974 
L 690.345572 437.441149 
L 692.881936 441.527447 
L 695.418299 439.262892 
L 697.954663 434.474602 
L 700.491027 439.200823 
L 703.02739 442.782869 
L 705.563754 438.919518 
L 705.563754 438.919518 
" clip-path="url(#p25e7d5c3a4)" style="fill: none; stroke: #0000ff; stroke-linecap: square"/>
   </g>
   <g id="line2d_13">
    <path d="M 96.836481 387.150268 
L 99.372845 405.247761 
L 101.909208 450.701421 
L 104.445572 391.671638 
L 106.981936 384.240298 
L 109.518299 407.346939 
L 112.054663 436.573826 
L 114.591027 264.377372 
L 117.12739 402.598727 
L 119.663754 388.343541 
L 122.200118 456.674968 
L 124.736481 278.737615 
L 127.272845 378.741751 
L 129.809208 387.520748 
L 132.345572 452.468021 
L 134.881936 226.427208 
L 137.418299 408.837286 
L 139.954663 385.626398 
L 142.491027 451.954205 
L 145.02739 361.287993 
L 147.563754 384.569559 
L 150.100118 377.045001 
L 152.636481 421.714513 
L 155.172845 336.962914 
L 157.709208 394.61182 
L 160.245572 414.755318 
L 162.781936 453.700086 
L 165.318299 328.412609 
L 167.854663 412.276001 
L 170.391027 403.972861 
L 172.92739 427.433746 
L 175.463754 208.370271 
L 178.000118 438.118385 
L 180.536481 383.695841 
L 183.072845 443.70147 
L 185.609208 333.484373 
L 188.145572 381.379813 
L 190.681936 397.449743 
L 193.218299 426.464609 
L 195.754663 371.061921 
L 198.291027 374.857917 
L 200.82739 383.744585 
L 203.363754 421.566444 
L 205.900118 374.686578 
L 208.436481 384.066287 
L 210.972845 377.15015 
L 213.509208 426.11685 
L 216.045572 269.869318 
L 218.581936 394.833809 
L 221.118299 401.981629 
L 223.654663 464.237187 
L 226.191027 392.370352 
L 228.72739 395.565749 
L 231.263754 399.693107 
L 233.800118 430.350693 
L 236.336481 304.470352 
L 238.872845 426.620795 
L 241.409208 355.272234 
L 243.945572 435.69416 
L 246.481936 174.398324 
L 249.018299 413.858331 
L 251.554663 386.443231 
L 254.091027 442.072817 
L 256.62739 197.605147 
L 259.163754 422.308512 
L 261.700118 383.181426 
L 264.236481 418.680851 
L 266.772845 246.484831 
L 269.309208 397.540482 
L 271.845572 366.762082 
L 274.381936 433.616573 
L 276.918299 151.390106 
L 279.454663 396.630969 
L 281.991027 398.254198 
L 284.52739 451.844866 
L 287.063754 256.156316 
L 289.600118 418.807397 
L 292.136481 388.057051 
L 294.672845 423.742898 
L 297.209208 285.578211 
L 299.745572 375.424569 
L 302.281936 353.890736 
L 304.818299 439.775982 
L 307.354663 281.510615 
L 309.891027 397.229558 
L 312.42739 415.498836 
L 314.963754 446.830152 
L 317.500118 398.772462 
L 320.036481 415.621111 
L 322.572845 355.901835 
L 325.109208 442.195013 
L 327.645572 299.781525 
L 330.181936 422.123528 
L 332.718299 365.278484 
L 335.254663 435.827465 
L 337.791027 407.213223 
L 340.32739 398.003162 
L 342.863754 405.067266 
L 345.400118 423.718121 
L 347.936481 361.570897 
L 350.472845 376.43979 
L 353.009208 409.128068 
L 355.545572 437.723379 
L 358.081936 300.353727 
L 360.618299 402.121888 
L 363.154663 406.19299 
L 365.691027 452.501544 
L 368.22739 352.436207 
L 370.763754 397.666148 
L 373.300118 398.576243 
L 375.836481 433.314008 
L 378.372845 346.085604 
L 380.909208 398.889736 
L 383.445572 381.747142 
L 385.981936 433.937157 
L 388.518299 286.992354 
L 391.054663 394.100716 
L 393.591027 393.736585 
L 396.12739 439.656687 
L 398.663754 216.505486 
L 401.200118 411.53906 
L 403.736481 375.441023 
L 406.272845 390.812193 
L 408.809208 234.109403 
L 411.345572 418.734093 
L 413.881936 395.090132 
L 416.418299 424.945557 
L 418.954663 233.777435 
L 421.491027 406.19517 
L 424.02739 388.935941 
L 426.563754 442.287647 
L 429.100118 315.044544 
L 431.636481 420.883362 
L 434.172845 385.422906 
L 436.709208 429.370868 
L 439.245572 285.714565 
L 441.781936 402.413356 
L 444.318299 412.865935 
L 446.854663 440.939226 
L 449.391027 334.484088 
L 451.92739 395.508545 
L 454.463754 404.971366 
L 457.000118 438.415858 
L 459.536481 424.134479 
L 462.072845 374.573905 
L 464.609208 382.273626 
L 467.145572 429.899282 
L 469.681936 438.523872 
L 472.218299 370.286067 
L 474.754663 388.215716 
L 477.291027 412.199352 
L 479.82739 434.457589 
L 482.363754 411.486126 
L 484.900118 361.807695 
L 487.436481 427.775304 
L 489.972845 280.231844 
L 492.509208 384.756346 
L 495.045572 400.442574 
L 497.581936 448.40884 
L 500.118299 335.276885 
L 502.654663 399.822507 
L 505.191027 409.351199 
L 507.72739 434.007389 
L 510.263754 432.912859 
L 512.800118 385.709669 
L 515.336481 400.493749 
L 517.872845 433.43497 
L 520.409208 299.640992 
L 522.945572 408.436194 
L 525.481936 374.190728 
L 528.018299 451.844329 
L 530.554663 207.192961 
L 533.091027 417.588388 
L 535.62739 332.724619 
L 538.163754 427.444079 
L 540.700118 293.710343 
L 543.236481 372.802778 
L 545.772845 392.085541 
L 548.309208 420.062487 
L 550.845572 307.869858 
L 553.381936 377.891989 
L 555.918299 395.03488 
L 558.454663 418.20995 
L 560.991027 279.141561 
L 563.52739 394.019477 
L 566.063754 400.005504 
L 568.600118 423.75 
L 571.136481 243.993399 
L 573.672845 417.668394 
L 576.209208 417.163136 
L 578.745572 421.036272 
L 581.281936 236.160693 
L 583.818299 425.307828 
L 586.354663 388.130001 
L 588.891027 419.152038 
L 591.42739 200.186804 
L 593.963754 421.030437 
L 596.500118 398.252908 
L 599.036481 445.209823 
L 601.572845 407.265323 
L 604.109208 400.780512 
L 606.645572 393.363627 
L 609.181936 431.739179 
L 611.718299 400.047168 
L 614.254663 402.468253 
L 616.791027 396.436064 
L 619.32739 432.290029 
L 621.863754 225.537769 
L 624.400118 378.86872 
L 626.936481 386.339658 
L 629.472845 430.792775 
L 632.009208 269.149596 
L 634.545572 396.007009 
L 637.081936 382.028881 
L 639.618299 436.873708 
L 642.154663 314.11626 
L 644.691027 410.076299 
L 647.22739 392.43862 
L 649.763754 450.190237 
L 652.300118 404.71542 
L 654.836481 415.10665 
L 657.372845 392.586803 
L 659.909208 437.88846 
L 662.445572 432.214351 
L 664.981936 400.867963 
L 667.518299 387.797954 
L 670.054663 448.283413 
L 672.591027 292.847484 
L 675.12739 379.957826 
L 677.663754 366.266529 
L 680.200118 395.003652 
L 682.736481 315.834853 
L 685.272845 375.440064 
L 687.809208 404.959411 
L 690.345572 450.735401 
L 692.881936 424.661511 
L 695.418299 352.112393 
L 697.954663 392.303282 
L 700.491027 451.749925 
L 703.02739 353.789001 
L 705.563754 373.363208 
L 705.563754 373.363208 
" clip-path="url(#p25e7d5c3a4)" style="fill: none; stroke: #ffa500; stroke-linecap: square"/>
   </g>
   <g id="line2d_14">
    <path d="M 96.836481 430.511287 
L 99.372845 433.997638 
L 101.909208 434.205092 
L 104.445572 431.067115 
L 106.981936 430.060481 
L 109.518299 432.522203 
L 112.054663 435.713798 
L 114.591027 432.079436 
L 117.12739 429.251401 
L 119.663754 432.184481 
M 127.272845 430.111405 
L 129.809208 431.146516 
L 132.345572 438.514966 
L 134.881936 432.307373 
L 137.418299 429.827109 
L 139.954663 430.408137 
L 142.491027 436.304966 
L 145.02739 432.207888 
L 147.563754 429.795629 
L 150.100118 431.763043 
L 152.636481 436.346173 
L 155.172845 432.351938 
L 157.709208 427.860837 
L 160.245572 429.936973 
L 162.781936 436.582046 
L 165.318299 433.524761 
L 167.854663 429.135075 
L 172.92739 436.022279 
L 175.463754 433.906796 
L 178.000118 426.80168 
L 180.536481 431.566596 
L 183.072845 434.143023 
L 185.609208 430.542938 
L 188.145572 424.742111 
L 190.681936 430.390267 
L 193.218299 432.988572 
L 195.754663 429.641201 
L 198.291027 425.865129 
L 200.82739 431.579099 
L 203.363754 434.052376 
L 205.900118 431.424088 
L 208.436481 426.984356 
L 210.972845 429.349379 
L 213.509208 432.929678 
L 216.045572 431.82824 
L 218.581936 427.007752 
L 221.118299 430.282984 
L 223.654663 435.378395 
L 226.191027 430.998402 
L 228.72739 425.050397 
L 231.263754 432.847856 
L 233.800118 434.297189 
L 236.336481 431.110652 
L 238.872845 426.18835 
L 241.409208 430.745767 
L 243.945572 434.001006 
L 246.481936 431.910598 
L 249.018299 425.725738 
L 251.554663 428.959785 
L 254.091027 433.682021 
M 261.700118 429.195978 
L 264.236481 433.897034 
L 266.772845 428.060298 
L 269.309208 422.88117 
M 276.918299 428.835283 
L 279.454663 424.878465 
L 281.991027 429.728468 
L 284.52739 430.497585 
L 287.063754 428.158538 
L 289.600118 424.676435 
L 292.136481 428.920199 
L 294.672845 431.173839 
L 297.209208 428.451262 
L 299.745572 425.560999 
L 304.818299 431.596568 
L 307.354663 427.304677 
L 309.891027 425.046492 
L 312.42739 428.066886 
L 314.963754 430.834451 
L 317.500118 427.189127 
L 320.036481 424.289661 
L 322.572845 426.625968 
L 325.109208 434.058896 
L 327.645572 430.314075 
L 330.181936 425.216392 
L 332.718299 427.079069 
L 335.254663 434.268462 
L 340.32739 426.382159 
L 342.863754 428.570454 
L 345.400118 431.498887 
L 350.472845 425.178108 
L 353.009208 426.230231 
L 355.545572 429.900949 
L 360.618299 426.123838 
L 363.154663 428.057272 
L 365.691027 432.987053 
L 368.22739 430.703269 
L 370.763754 428.02561 
L 373.300118 429.798449 
L 375.836481 434.995983 
L 378.372845 433.080407 
L 380.909208 428.066041 
L 383.445572 429.577465 
L 385.981936 434.886233 
L 388.518299 430.084527 
L 391.054663 424.747717 
L 396.12739 433.59207 
L 398.663754 431.979106 
L 401.200118 426.130301 
L 403.736481 429.741862 
L 406.272845 434.640586 
L 408.809208 430.900824 
L 411.345572 424.967388 
L 416.418299 433.755279 
L 418.954663 429.889154 
L 421.491027 423.043237 
L 424.02739 426.810825 
L 426.563754 432.985786 
L 429.100118 431.532593 
L 431.636481 424.511125 
L 434.172845 429.152259 
L 436.709208 434.035374 
L 439.245572 430.791713 
L 441.781936 426.775224 
L 444.318299 429.334844 
L 446.854663 435.01875 
M 469.681936 430.681484 
L 472.218299 425.17128 
L 474.754663 431.085224 
L 477.291027 435.254578 
L 479.82739 430.860164 
L 482.363754 425.546224 
L 484.900118 430.48981 
L 487.436481 434.263529 
L 489.972845 430.736895 
L 492.509208 422.951711 
L 495.045572 427.173644 
L 497.581936 430.647983 
L 500.118299 429.103207 
L 502.654663 423.313559 
L 505.191027 426.199916 
L 507.72739 432.489776 
L 510.263754 429.599308 
L 512.800118 424.153319 
L 515.336481 427.721765 
L 517.872845 430.020861 
L 520.409208 430.151448 
L 522.945572 424.902945 
L 525.481936 426.26855 
L 528.018299 432.157421 
L 530.554663 428.981959 
L 533.091027 423.110467 
L 535.62739 425.721787 
L 538.163754 431.448888 
L 540.700118 428.217878 
L 543.236481 425.412519 
L 545.772845 424.980074 
L 548.309208 432.234995 
L 550.845572 428.583482 
L 553.381936 424.051721 
L 555.918299 423.909053 
L 558.454663 431.653932 
L 560.991027 429.736027 
L 563.52739 423.094367 
L 566.063754 423.693379 
L 568.600118 430.229662 
L 571.136481 428.861773 
L 573.672845 423.726822 
L 576.209208 424.545208 
L 578.745572 430.712118 
L 581.281936 428.231043 
L 583.818299 424.343897 
L 586.354663 426.976284 
L 588.891027 431.506298 
L 591.42739 428.881869 
L 593.963754 423.440892 
L 596.500118 424.324566 
L 599.036481 428.794453 
L 601.572845 426.625431 
L 604.109208 420.073425 
L 606.645572 421.740135 
L 609.181936 429.477432 
L 611.718299 425.831766 
L 614.254663 419.607776 
L 616.791027 424.333894 
L 619.32739 429.968258 
L 621.863754 427.692706 
L 624.400118 422.130722 
L 626.936481 423.806748 
L 629.472845 429.45463 
L 632.009208 428.957582 
L 634.545572 425.278974 
L 637.081936 426.640994 
L 639.618299 431.115345 
L 642.154663 430.341615 
L 644.691027 426.31936 
L 647.22739 424.997817 
L 649.763754 431.428883 
L 652.300118 431.732374 
L 654.836481 425.759798 
L 657.372845 424.305475 
L 659.909208 429.499652 
L 662.445572 431.884542 
L 664.981936 425.638276 
L 667.518299 428.760941 
L 670.054663 433.358355 
L 672.591027 431.348683 
L 675.12739 425.823727 
L 677.663754 427.883364 
L 680.200118 432.27127 
L 682.736481 432.85489 
L 685.272845 424.18151 
L 687.809208 428.552962 
L 690.345572 434.084255 
L 692.881936 434.078694 
L 695.418299 426.570659 
L 697.954663 429.890924 
L 700.491027 435.832237 
L 703.02739 433.881254 
L 705.563754 425.018153 
L 705.563754 425.018153 
" clip-path="url(#p25e7d5c3a4)" style="fill: none; stroke-dasharray: 3.7,1.6; stroke-dashoffset: 0; stroke: #0000ff"/>
   </g>
   <g id="line2d_15">
    <path d="M 96.836481 382.856983 
L 99.372845 416.946296 
L 101.909208 257.368497 
L 104.445572 365.974731 
L 106.981936 382.953283 
L 109.518299 394.024455 
L 112.054663 168.452329 
L 114.591027 376.306131 
L 117.12739 341.1 
L 119.663754 408.918502 
L 122.200118 148.267555 
L 124.736481 345.499266 
L 129.809208 411.001215 
L 132.345572 129.845197 
L 134.881936 399.324077 
L 137.418299 364.3688 
L 139.954663 409.789011 
L 142.491027 179.910983 
L 145.02739 348.413164 
L 147.563754 347.248322 
L 150.100118 383.341118 
L 152.636481 62.25421 
L 155.172845 258.490339 
L 157.709208 355.712284 
L 160.245572 424.032882 
L 162.781936 240.276153 
L 165.318299 404.697596 
L 167.854663 384.769876 
L 170.391027 392.412998 
L 172.92739 72.662864 
L 175.463754 408.638327 
L 178.000118 345.315276 
L 180.536481 399.390199 
L 183.072845 173.387579 
L 185.609208 375.230737 
L 188.145572 344.941519 
L 190.681936 389.790647 
L 193.218299 156.592515 
L 195.754663 335.389147 
L 198.291027 310.678299 
L 200.82739 352.556667 
L 203.363754 81.405174 
L 205.900118 375.281662 
L 208.436481 345.857243 
L 210.972845 387.211902 
L 213.509208 129.805736 
L 216.045572 402.502918 
L 218.581936 353.525439 
L 221.118299 426.745971 
L 223.654663 332.910549 
L 226.191027 366.244447 
L 228.72739 365.027379 
L 231.263754 388.723304 
L 233.800118 206.429051 
L 236.336481 401.557485 
L 238.872845 326.452 
L 241.409208 387.051822 
L 243.945572 133.747095 
L 246.481936 414.984649 
L 249.018299 369.573721 
L 251.554663 405.965611 
L 254.091027 157.728606 
L 256.62739 430.870006 
L 259.163754 368.86126 
L 261.700118 384.757659 
L 264.236481 111.910661 
L 266.772845 400.360295 
L 269.309208 341.935364 
L 271.845572 401.439834 
L 274.381936 61.037187 
L 276.918299 292.712363 
L 279.454663 349.200892 
L 281.991027 391.85637 
L 284.52739 271.765164 
L 287.063754 395.7111 
L 289.600118 368.584293 
L 292.136481 383.74777 
L 294.672845 310.873844 
L 297.209208 317.983676 
L 299.745572 269.881056 
L 302.281936 364.257154 
L 304.818299 130.015964 
L 307.354663 377.824634 
L 309.891027 390.161276 
L 312.42739 412.485236 
L 314.963754 256.694812 
L 317.500118 393.630169 
L 320.036481 350.551642 
L 322.572845 405.273086 
L 325.109208 128.910153 
L 327.645572 403.526623 
L 330.181936 351.669328 
L 332.718299 392.896162 
L 335.254663 283.909675 
L 337.791027 408.611631 
L 340.32739 381.560366 
L 342.863754 394.625419 
L 345.400118 171.38815 
L 347.936481 365.412485 
L 350.472845 375.795289 
L 353.009208 398.654913 
L 355.545572 229.505777 
L 358.081936 373.568869 
L 360.618299 385.179566 
L 363.154663 409.296986 
L 365.691027 293.778714 
L 368.22739 367.420958 
L 370.763754 357.721876 
L 373.300118 393.168185 
L 375.836481 223.310595 
L 378.372845 359.21647 
L 380.909208 337.089357 
L 383.445572 386.401258 
L 385.981936 155.302691 
L 388.518299 380.803318 
L 391.054663 349.597508 
L 393.591027 410.184622 
L 396.12739 131.617728 
L 398.663754 399.179753 
L 401.200118 333.182047 
L 403.736481 361.638149 
L 406.272845 65.291262 
L 408.809208 362.563978 
L 411.345572 350.554817 
L 413.881936 387.051822 
L 416.418299 187.411563 
L 418.954663 407.831062 
L 421.491027 364.440334 
L 424.02739 399.266336 
L 426.563754 213.702709 
L 429.100118 417.129373 
L 431.636481 364.291351 
L 434.172845 380.419833 
L 436.709208 138.34846 
L 439.245572 357.180514 
L 441.781936 360.83262 
L 444.318299 408.901306 
L 446.854663 169.636742 
L 449.391027 390.18804 
L 451.92739 393.129398 
L 454.463754 413.500879 
L 457.000118 342.104762 
L 462.072845 378.053896 
L 464.609208 418.802407 
L 467.145572 157.786975 
L 469.681936 381.101134 
L 472.218299 361.18667 
L 474.754663 370.545267 
L 477.291027 143.076473 
L 479.82739 399.949681 
L 482.363754 327.844951 
L 484.900118 374.895265 
L 487.436481 119.049107 
L 489.972845 329.782861 
L 492.509208 386.661292 
L 495.045572 408.493592 
L 497.581936 169.827285 
L 500.118299 359.323822 
L 502.654663 405.373028 
L 505.191027 390.350141 
L 507.72739 212.142027 
L 510.263754 376.000665 
L 512.800118 388.280102 
L 515.336481 399.33803 
L 517.872845 179.781686 
L 520.409208 386.860867 
L 522.945572 352.953055 
L 525.481936 390.12725 
L 528.018299 130.562521 
L 530.554663 390.965297 
L 533.091027 287.705956 
L 535.62739 355.410015 
L 538.163754 185.454311 
L 540.700118 371.872108 
L 543.236481 344.389025 
L 545.772845 386.424391 
L 548.309208 195.950153 
L 550.845572 370.401252 
L 553.381936 375.787548 
L 555.918299 372.569817 
L 558.454663 167.663368 
L 560.991027 387.96589 
L 563.52739 347.521875 
L 566.063754 382.926873 
L 568.600118 187.610144 
L 571.136481 423.580078 
L 573.672845 379.538386 
L 576.209208 398.418081 
L 578.745572 141.014518 
L 581.281936 406.962712 
L 583.818299 360.546508 
L 586.354663 370.719997 
L 588.891027 167.766427 
L 591.42739 397.941128 
L 593.963754 350.041166 
L 596.500118 376.838735 
L 599.036481 271.13811 
L 601.572845 360.348075 
L 604.109208 349.277461 
L 606.645572 379.319491 
L 609.181936 275.417761 
L 611.718299 387.167543 
L 614.254663 351.249397 
L 616.791027 394.458739 
L 619.32739 85.545937 
L 621.863754 342.6837 
L 624.400118 347.463574 
L 626.936481 404.117596 
L 629.472845 112.609808 
L 632.009208 403.705029 
L 634.545572 338.581644 
L 637.081936 394.755036 
L 639.618299 181.75289 
L 642.154663 403.199953 
L 644.691027 359.400026 
L 647.22739 405.746386 
L 649.763754 304.397208 
L 652.300118 388.556144 
L 654.836481 362.308683 
L 657.372845 384.629549 
L 659.909208 232.416683 
L 662.445572 389.666328 
L 664.981936 339.971513 
L 667.518299 418.919545 
L 670.054663 161.133547 
L 672.591027 369.831767 
L 675.12739 318.229688 
L 677.663754 341.445463 
L 680.200118 62.114362 
L 682.736481 385.022271 
L 685.272845 350.215725 
L 687.809208 412.816894 
L 690.345572 343.37892 
L 692.881936 353.229119 
L 695.418299 383.501804 
L 697.954663 406.498912 
L 700.491027 292.766028 
L 703.02739 375.101029 
L 705.563754 377.580346 
L 705.563754 377.580346 
" clip-path="url(#p25e7d5c3a4)" style="fill: none; stroke-dasharray: 3.7,1.6; stroke-dashoffset: 0; stroke: #ffa500"/>
   </g>
   <g id="patch_3">
    <path d="M 66.400118 484.397187 
L 66.400118 40.877187 
" style="fill: none; stroke: #000000; stroke-width: 0.8; stroke-linejoin: miter; stroke-linecap: square"/>
   </g>
   <g id="patch_4">
    <path d="M 736.000118 484.397187 
L 736.000118 40.877187 
" style="fill: none; stroke: #000000; stroke-width: 0.8; stroke-linejoin: miter; stroke-linecap: square"/>
   </g>
   <g id="patch_5">
    <path d="M 66.400118 484.397187 
L 736.000118 484.397187 
" style="fill: none; stroke: #000000; stroke-width: 0.8; stroke-linejoin: miter; stroke-linecap: square"/>
   </g>
   <g id="patch_6">
    <path d="M 66.400118 40.877187 
L 736.000118 40.877187 
" style="fill: none; stroke: #000000; stroke-width: 0.8; stroke-linejoin: miter; stroke-linecap: square"/>
   </g>
   <g id="text_14">
    <!-- Two-meter temperature two steps forward prediction: RMSES -->
    <g transform="translate(125.732618 20.877187) scale(0.18 -0.18)">
     <defs>
      <path id="DejaVuSans-54" d="M -19 4666 
L 3928 4666 
L 3928 4134 
L 2272 4134 
L 2272 0 
L 1638 0 
L 1638 4134 
L -19 4134 
L -19 4666 
z
" transform="scale(0.015625)"/>
      <path id="DejaVuSans-77" d="M 269 3500 
L 844 3500 
L 1563 769 
L 2278 3500 
L 2956 3500 
L 3675 769 
L 4391 3500 
L 4966 3500 
L 4050 0 
L 3372 0 
L 2619 2869 
L 1863 0 
L 1184 0 
L 269 3500 
z
" transform="scale(0.015625)"/>
      <path id="DejaVuSans-6d" d="M 3328 2828 
Q 3544 3216 3844 3400 
Q 4144 3584 4550 3584 
Q 5097 3584 5394 3201 
Q 5691 2819 5691 2113 
L 5691 0 
L 5113 0 
L 5113 2094 
Q 5113 2597 4934 2840 
Q 4756 3084 4391 3084 
Q 3944 3084 3684 2787 
Q 3425 2491 3425 1978 
L 3425 0 
L 2847 0 
L 2847 2094 
Q 2847 2600 2669 2842 
Q 2491 3084 2119 3084 
Q 1678 3084 1418 2786 
Q 1159 2488 1159 1978 
L 1159 0 
L 581 0 
L 581 3500 
L 1159 3500 
L 1159 2956 
Q 1356 3278 1631 3431 
Q 1906 3584 2284 3584 
Q 2666 3584 2933 3390 
Q 3200 3197 3328 2828 
z
" transform="scale(0.015625)"/>
      <path id="DejaVuSans-70" d="M 1159 525 
L 1159 -1331 
L 581 -1331 
L 581 3500 
L 1159 3500 
L 1159 2969 
Q 1341 3281 1617 3432 
Q 1894 3584 2278 3584 
Q 2916 3584 3314 3078 
Q 3713 2572 3713 1747 
Q 3713 922 3314 415 
Q 2916 -91 2278 -91 
Q 1894 -91 1617 61 
Q 1341 213 1159 525 
z
M 3116 1747 
Q 3116 2381 2855 2742 
Q 2594 3103 2138 3103 
Q 1681 3103 1420 2742 
Q 1159 2381 1159 1747 
Q 1159 1113 1420 752 
Q 1681 391 2138 391 
Q 2594 391 2855 752 
Q 3116 1113 3116 1747 
z
" transform="scale(0.015625)"/>
      <path id="DejaVuSans-66" d="M 2375 4863 
L 2375 4384 
L 1825 4384 
Q 1516 4384 1395 4259 
Q 1275 4134 1275 3809 
L 1275 3500 
L 2222 3500 
L 2222 3053 
L 1275 3053 
L 1275 0 
L 697 0 
L 697 3053 
L 147 3053 
L 147 3500 
L 697 3500 
L 697 3744 
Q 697 4328 969 4595 
Q 1241 4863 1831 4863 
L 2375 4863 
z
" transform="scale(0.015625)"/>
      <path id="DejaVuSans-69" d="M 603 3500 
L 1178 3500 
L 1178 0 
L 603 0 
L 603 3500 
z
M 603 4863 
L 1178 4863 
L 1178 4134 
L 603 4134 
L 603 4863 
z
" transform="scale(0.015625)"/>
     </defs>
     <use xlink:href="#DejaVuSans-54"/>
     <use xlink:href="#DejaVuSans-77" transform="translate(44.583984 0)"/>
     <use xlink:href="#DejaVuSans-6f" transform="translate(126.371094 0)"/>
     <use xlink:href="#DejaVuSans-2d" transform="translate(189.427734 0)"/>
     <use xlink:href="#DejaVuSans-6d" transform="translate(225.511719 0)"/>
     <use xlink:href="#DejaVuSans-65" transform="translate(322.923828 0)"/>
     <use xlink:href="#DejaVuSans-74" transform="translate(384.447266 0)"/>
     <use xlink:href="#DejaVuSans-65" transform="translate(423.65625 0)"/>
     <use xlink:href="#DejaVuSans-72" transform="translate(485.179688 0)"/>
     <use xlink:href="#DejaVuSans-20" transform="translate(526.292969 0)"/>
     <use xlink:href="#DejaVuSans-74" transform="translate(558.080078 0)"/>
     <use xlink:href="#DejaVuSans-65" transform="translate(597.289062 0)"/>
     <use xlink:href="#DejaVuSans-6d" transform="translate(658.8125 0)"/>
     <use xlink:href="#DejaVuSans-70" transform="translate(756.224609 0)"/>
     <use xlink:href="#DejaVuSans-65" transform="translate(819.701172 0)"/>
     <use xlink:href="#DejaVuSans-72" transform="translate(881.224609 0)"/>
     <use xlink:href="#DejaVuSans-61" transform="translate(922.337891 0)"/>
     <use xlink:href="#DejaVuSans-74" transform="translate(983.617188 0)"/>
     <use xlink:href="#DejaVuSans-75" transform="translate(1022.826172 0)"/>
     <use xlink:href="#DejaVuSans-72" transform="translate(1086.205078 0)"/>
     <use xlink:href="#DejaVuSans-65" transform="translate(1125.068359 0)"/>
     <use xlink:href="#DejaVuSans-20" transform="translate(1186.591797 0)"/>
     <use xlink:href="#DejaVuSans-74" transform="translate(1218.378906 0)"/>
     <use xlink:href="#DejaVuSans-77" transform="translate(1257.587891 0)"/>
     <use xlink:href="#DejaVuSans-6f" transform="translate(1339.375 0)"/>
     <use xlink:href="#DejaVuSans-20" transform="translate(1400.556641 0)"/>
     <use xlink:href="#DejaVuSans-73" transform="translate(1432.34375 0)"/>
     <use xlink:href="#DejaVuSans-74" transform="translate(1484.443359 0)"/>
     <use xlink:href="#DejaVuSans-65" transform="translate(1523.652344 0)"/>
     <use xlink:href="#DejaVuSans-70" transform="translate(1585.175781 0)"/>
     <use xlink:href="#DejaVuSans-73" transform="translate(1648.652344 0)"/>
     <use xlink:href="#DejaVuSans-20" transform="translate(1700.751953 0)"/>
     <use xlink:href="#DejaVuSans-66" transform="translate(1732.539062 0)"/>
     <use xlink:href="#DejaVuSans-6f" transform="translate(1767.744141 0)"/>
     <use xlink:href="#DejaVuSans-72" transform="translate(1828.925781 0)"/>
     <use xlink:href="#DejaVuSans-77" transform="translate(1870.039062 0)"/>
     <use xlink:href="#DejaVuSans-61" transform="translate(1951.826172 0)"/>
     <use xlink:href="#DejaVuSans-72" transform="translate(2013.105469 0)"/>
     <use xlink:href="#DejaVuSans-64" transform="translate(2052.46875 0)"/>
     <use xlink:href="#DejaVuSans-20" transform="translate(2115.945312 0)"/>
     <use xlink:href="#DejaVuSans-70" transform="translate(2147.732422 0)"/>
     <use xlink:href="#DejaVuSans-72" transform="translate(2211.208984 0)"/>
     <use xlink:href="#DejaVuSans-65" transform="translate(2250.072266 0)"/>
     <use xlink:href="#DejaVuSans-64" transform="translate(2311.595703 0)"/>
     <use xlink:href="#DejaVuSans-69" transform="translate(2375.072266 0)"/>
     <use xlink:href="#DejaVuSans-63" transform="translate(2402.855469 0)"/>
     <use xlink:href="#DejaVuSans-74" transform="translate(2457.835938 0)"/>
     <use xlink:href="#DejaVuSans-69" transform="translate(2497.044922 0)"/>
     <use xlink:href="#DejaVuSans-6f" transform="translate(2524.828125 0)"/>
     <use xlink:href="#DejaVuSans-6e" transform="translate(2586.009766 0)"/>
     <use xlink:href="#DejaVuSans-3a" transform="translate(2649.388672 0)"/>
     <use xlink:href="#DejaVuSans-20" transform="translate(2683.080078 0)"/>
     <use xlink:href="#DejaVuSans-52" transform="translate(2714.867188 0)"/>
     <use xlink:href="#DejaVuSans-4d" transform="translate(2784.349609 0)"/>
     <use xlink:href="#DejaVuSans-53" transform="translate(2870.628906 0)"/>
     <use xlink:href="#DejaVuSans-45" transform="translate(2934.105469 0)"/>
     <use xlink:href="#DejaVuSans-53" transform="translate(2997.289062 0)"/>
    </g>
   </g>
   <g id="legend_1">
    <g id="text_15">
     <!-- Forecast Horizon -->
     <g transform="translate(852.099961 65.634687) scale(0.16 -0.16)">
      <defs>
       <path id="DejaVuSans-48" d="M 628 4666 
L 1259 4666 
L 1259 2753 
L 3553 2753 
L 3553 4666 
L 4184 4666 
L 4184 0 
L 3553 0 
L 3553 2222 
L 1259 2222 
L 1259 0 
L 628 0 
L 628 4666 
z
" transform="scale(0.015625)"/>
       <path id="DejaVuSans-7a" d="M 353 3500 
L 3084 3500 
L 3084 2975 
L 922 459 
L 3084 459 
L 3084 0 
L 275 0 
L 275 525 
L 2438 3041 
L 353 3041 
L 353 3500 
z
" transform="scale(0.015625)"/>
      </defs>
      <use xlink:href="#DejaVuSans-46"/>
      <use xlink:href="#DejaVuSans-6f" transform="translate(53.894531 0)"/>
      <use xlink:href="#DejaVuSans-72" transform="translate(115.076172 0)"/>
      <use xlink:href="#DejaVuSans-65" transform="translate(153.939453 0)"/>
      <use xlink:href="#DejaVuSans-63" transform="translate(215.462891 0)"/>
      <use xlink:href="#DejaVuSans-61" transform="translate(270.443359 0)"/>
      <use xlink:href="#DejaVuSans-73" transform="translate(331.722656 0)"/>
      <use xlink:href="#DejaVuSans-74" transform="translate(383.822266 0)"/>
      <use xlink:href="#DejaVuSans-20" transform="translate(423.03125 0)"/>
      <use xlink:href="#DejaVuSans-48" transform="translate(454.818359 0)"/>
      <use xlink:href="#DejaVuSans-6f" transform="translate(530.013672 0)"/>
      <use xlink:href="#DejaVuSans-72" transform="translate(591.195312 0)"/>
      <use xlink:href="#DejaVuSans-69" transform="translate(632.308594 0)"/>
      <use xlink:href="#DejaVuSans-7a" transform="translate(660.091797 0)"/>
      <use xlink:href="#DejaVuSans-6f" transform="translate(712.582031 0)"/>
      <use xlink:href="#DejaVuSans-6e" transform="translate(773.763672 0)"/>
     </g>
    </g>
    <g id="line2d_16">
     <path d="M 782.080118 81.7 
L 796.080118 81.7 
L 810.080118 81.7 
" style="fill: none; stroke: #0000ff; stroke-linecap: square"/>
    </g>
    <g id="text_16">
     <!-- Global RMSE (6h Forecast) -->
     <g transform="translate(821.280118 86.6) scale(0.14 -0.14)">
      <defs>
       <path id="DejaVuSans-47" d="M 3809 666 
L 3809 1919 
L 2778 1919 
L 2778 2438 
L 4434 2438 
L 4434 434 
Q 4069 175 3628 42 
Q 3188 -91 2688 -91 
Q 1594 -91 976 548 
Q 359 1188 359 2328 
Q 359 3472 976 4111 
Q 1594 4750 2688 4750 
Q 3144 4750 3555 4637 
Q 3966 4525 4313 4306 
L 4313 3634 
Q 3963 3931 3569 4081 
Q 3175 4231 2741 4231 
Q 1884 4231 1454 3753 
Q 1025 3275 1025 2328 
Q 1025 1384 1454 906 
Q 1884 428 2741 428 
Q 3075 428 3337 486 
Q 3600 544 3809 666 
z
" transform="scale(0.015625)"/>
       <path id="DejaVuSans-6c" d="M 603 4863 
L 1178 4863 
L 1178 0 
L 603 0 
L 603 4863 
z
" transform="scale(0.015625)"/>
       <path id="DejaVuSans-62" d="M 3116 1747 
Q 3116 2381 2855 2742 
Q 2594 3103 2138 3103 
Q 1681 3103 1420 2742 
Q 1159 2381 1159 1747 
Q 1159 1113 1420 752 
Q 1681 391 2138 391 
Q 2594 391 2855 752 
Q 3116 1113 3116 1747 
z
M 1159 2969 
Q 1341 3281 1617 3432 
Q 1894 3584 2278 3584 
Q 2916 3584 3314 3078 
Q 3713 2572 3713 1747 
Q 3713 922 3314 415 
Q 2916 -91 2278 -91 
Q 1894 -91 1617 61 
Q 1341 213 1159 525 
L 1159 0 
L 581 0 
L 581 4863 
L 1159 4863 
L 1159 2969 
z
" transform="scale(0.015625)"/>
       <path id="DejaVuSans-36" d="M 2113 2584 
Q 1688 2584 1439 2293 
Q 1191 2003 1191 1497 
Q 1191 994 1439 701 
Q 1688 409 2113 409 
Q 2538 409 2786 701 
Q 3034 994 3034 1497 
Q 3034 2003 2786 2293 
Q 2538 2584 2113 2584 
z
M 3366 4563 
L 3366 3988 
Q 3128 4100 2886 4159 
Q 2644 4219 2406 4219 
Q 1781 4219 1451 3797 
Q 1122 3375 1075 2522 
Q 1259 2794 1537 2939 
Q 1816 3084 2150 3084 
Q 2853 3084 3261 2657 
Q 3669 2231 3669 1497 
Q 3669 778 3244 343 
Q 2819 -91 2113 -91 
Q 1303 -91 875 529 
Q 447 1150 447 2328 
Q 447 3434 972 4092 
Q 1497 4750 2381 4750 
Q 2619 4750 2861 4703 
Q 3103 4656 3366 4563 
z
" transform="scale(0.015625)"/>
       <path id="DejaVuSans-68" d="M 3513 2113 
L 3513 0 
L 2938 0 
L 2938 2094 
Q 2938 2591 2744 2837 
Q 2550 3084 2163 3084 
Q 1697 3084 1428 2787 
Q 1159 2491 1159 1978 
L 1159 0 
L 581 0 
L 581 4863 
L 1159 4863 
L 1159 2956 
Q 1366 3272 1645 3428 
Q 1925 3584 2291 3584 
Q 2894 3584 3203 3211 
Q 3513 2838 3513 2113 
z
" transform="scale(0.015625)"/>
      </defs>
      <use xlink:href="#DejaVuSans-47"/>
      <use xlink:href="#DejaVuSans-6c" transform="translate(77.490234 0)"/>
      <use xlink:href="#DejaVuSans-6f" transform="translate(105.273438 0)"/>
      <use xlink:href="#DejaVuSans-62" transform="translate(166.455078 0)"/>
      <use xlink:href="#DejaVuSans-61" transform="translate(229.931641 0)"/>
      <use xlink:href="#DejaVuSans-6c" transform="translate(291.210938 0)"/>
      <use xlink:href="#DejaVuSans-20" transform="translate(318.994141 0)"/>
      <use xlink:href="#DejaVuSans-52" transform="translate(350.78125 0)"/>
      <use xlink:href="#DejaVuSans-4d" transform="translate(420.263672 0)"/>
      <use xlink:href="#DejaVuSans-53" transform="translate(506.542969 0)"/>
      <use xlink:href="#DejaVuSans-45" transform="translate(570.019531 0)"/>
      <use xlink:href="#DejaVuSans-20" transform="translate(633.203125 0)"/>
      <use xlink:href="#DejaVuSans-28" transform="translate(664.990234 0)"/>
      <use xlink:href="#DejaVuSans-36" transform="translate(704.003906 0)"/>
      <use xlink:href="#DejaVuSans-68" transform="translate(767.626953 0)"/>
      <use xlink:href="#DejaVuSans-20" transform="translate(831.005859 0)"/>
      <use xlink:href="#DejaVuSans-46" transform="translate(862.792969 0)"/>
      <use xlink:href="#DejaVuSans-6f" transform="translate(916.6875 0)"/>
      <use xlink:href="#DejaVuSans-72" transform="translate(977.869141 0)"/>
      <use xlink:href="#DejaVuSans-65" transform="translate(1016.732422 0)"/>
      <use xlink:href="#DejaVuSans-63" transform="translate(1078.255859 0)"/>
      <use xlink:href="#DejaVuSans-61" transform="translate(1133.236328 0)"/>
      <use xlink:href="#DejaVuSans-73" transform="translate(1194.515625 0)"/>
      <use xlink:href="#DejaVuSans-74" transform="translate(1246.615234 0)"/>
      <use xlink:href="#DejaVuSans-29" transform="translate(1285.824219 0)"/>
     </g>
    </g>
    <g id="line2d_17">
     <path d="M 782.080118 102.249375 
L 796.080118 102.249375 
L 810.080118 102.249375 
" style="fill: none; stroke: #ffa500; stroke-linecap: square"/>
    </g>
    <g id="text_17">
     <!-- South Africa RMSE (6h Forecast) -->
     <g transform="translate(821.280118 107.149375) scale(0.14 -0.14)">
      <defs>
       <path id="DejaVuSans-41" d="M 2188 4044 
L 1331 1722 
L 3047 1722 
L 2188 4044 
z
M 1831 4666 
L 2547 4666 
L 4325 0 
L 3669 0 
L 3244 1197 
L 1141 1197 
L 716 0 
L 50 0 
L 1831 4666 
z
" transform="scale(0.015625)"/>
      </defs>
      <use xlink:href="#DejaVuSans-53"/>
      <use xlink:href="#DejaVuSans-6f" transform="translate(63.476562 0)"/>
      <use xlink:href="#DejaVuSans-75" transform="translate(124.658203 0)"/>
      <use xlink:href="#DejaVuSans-74" transform="translate(188.037109 0)"/>
      <use xlink:href="#DejaVuSans-68" transform="translate(227.246094 0)"/>
      <use xlink:href="#DejaVuSans-20" transform="translate(290.625 0)"/>
      <use xlink:href="#DejaVuSans-41" transform="translate(322.412109 0)"/>
      <use xlink:href="#DejaVuSans-66" transform="translate(387.195312 0)"/>
      <use xlink:href="#DejaVuSans-72" transform="translate(422.400391 0)"/>
      <use xlink:href="#DejaVuSans-69" transform="translate(463.513672 0)"/>
      <use xlink:href="#DejaVuSans-63" transform="translate(491.296875 0)"/>
      <use xlink:href="#DejaVuSans-61" transform="translate(546.277344 0)"/>
      <use xlink:href="#DejaVuSans-20" transform="translate(607.556641 0)"/>
      <use xlink:href="#DejaVuSans-52" transform="translate(639.34375 0)"/>
      <use xlink:href="#DejaVuSans-4d" transform="translate(708.826172 0)"/>
      <use xlink:href="#DejaVuSans-53" transform="translate(795.105469 0)"/>
      <use xlink:href="#DejaVuSans-45" transform="translate(858.582031 0)"/>
      <use xlink:href="#DejaVuSans-20" transform="translate(921.765625 0)"/>
      <use xlink:href="#DejaVuSans-28" transform="translate(953.552734 0)"/>
      <use xlink:href="#DejaVuSans-36" transform="translate(992.566406 0)"/>
      <use xlink:href="#DejaVuSans-68" transform="translate(1056.189453 0)"/>
      <use xlink:href="#DejaVuSans-20" transform="translate(1119.568359 0)"/>
      <use xlink:href="#DejaVuSans-46" transform="translate(1151.355469 0)"/>
      <use xlink:href="#DejaVuSans-6f" transform="translate(1205.25 0)"/>
      <use xlink:href="#DejaVuSans-72" transform="translate(1266.431641 0)"/>
      <use xlink:href="#DejaVuSans-65" transform="translate(1305.294922 0)"/>
      <use xlink:href="#DejaVuSans-63" transform="translate(1366.818359 0)"/>
      <use xlink:href="#DejaVuSans-61" transform="translate(1421.798828 0)"/>
      <use xlink:href="#DejaVuSans-73" transform="translate(1483.078125 0)"/>
      <use xlink:href="#DejaVuSans-74" transform="translate(1535.177734 0)"/>
      <use xlink:href="#DejaVuSans-29" transform="translate(1574.386719 0)"/>
     </g>
    </g>
    <g id="line2d_18">
     <path d="M 782.080118 122.79875 
L 796.080118 122.79875 
L 810.080118 122.79875 
" style="fill: none; stroke-dasharray: 3.7,1.6; stroke-dashoffset: 0; stroke: #0000ff"/>
    </g>
    <g id="text_18">
     <!-- Global RMSE (12h Forecast) -->
     <g transform="translate(821.280118 127.69875) scale(0.14 -0.14)">
      <use xlink:href="#DejaVuSans-47"/>
      <use xlink:href="#DejaVuSans-6c" transform="translate(77.490234 0)"/>
      <use xlink:href="#DejaVuSans-6f" transform="translate(105.273438 0)"/>
      <use xlink:href="#DejaVuSans-62" transform="translate(166.455078 0)"/>
      <use xlink:href="#DejaVuSans-61" transform="translate(229.931641 0)"/>
      <use xlink:href="#DejaVuSans-6c" transform="translate(291.210938 0)"/>
      <use xlink:href="#DejaVuSans-20" transform="translate(318.994141 0)"/>
      <use xlink:href="#DejaVuSans-52" transform="translate(350.78125 0)"/>
      <use xlink:href="#DejaVuSans-4d" transform="translate(420.263672 0)"/>
      <use xlink:href="#DejaVuSans-53" transform="translate(506.542969 0)"/>
      <use xlink:href="#DejaVuSans-45" transform="translate(570.019531 0)"/>
      <use xlink:href="#DejaVuSans-20" transform="translate(633.203125 0)"/>
      <use xlink:href="#DejaVuSans-28" transform="translate(664.990234 0)"/>
      <use xlink:href="#DejaVuSans-31" transform="translate(704.003906 0)"/>
      <use xlink:href="#DejaVuSans-32" transform="translate(767.626953 0)"/>
      <use xlink:href="#DejaVuSans-68" transform="translate(831.25 0)"/>
      <use xlink:href="#DejaVuSans-20" transform="translate(894.628906 0)"/>
      <use xlink:href="#DejaVuSans-46" transform="translate(926.416016 0)"/>
      <use xlink:href="#DejaVuSans-6f" transform="translate(980.310547 0)"/>
      <use xlink:href="#DejaVuSans-72" transform="translate(1041.492188 0)"/>
      <use xlink:href="#DejaVuSans-65" transform="translate(1080.355469 0)"/>
      <use xlink:href="#DejaVuSans-63" transform="translate(1141.878906 0)"/>
      <use xlink:href="#DejaVuSans-61" transform="translate(1196.859375 0)"/>
      <use xlink:href="#DejaVuSans-73" transform="translate(1258.138672 0)"/>
      <use xlink:href="#DejaVuSans-74" transform="translate(1310.238281 0)"/>
      <use xlink:href="#DejaVuSans-29" transform="translate(1349.447266 0)"/>
     </g>
    </g>
    <g id="line2d_19">
     <path d="M 782.080118 143.348125 
L 796.080118 143.348125 
L 810.080118 143.348125 
" style="fill: none; stroke-dasharray: 3.7,1.6; stroke-dashoffset: 0; stroke: #ffa500"/>
    </g>
    <g id="text_19">
     <!-- South Africa RMSE (12h Forecast) -->
     <g transform="translate(821.280118 148.248125) scale(0.14 -0.14)">
      <use xlink:href="#DejaVuSans-53"/>
      <use xlink:href="#DejaVuSans-6f" transform="translate(63.476562 0)"/>
      <use xlink:href="#DejaVuSans-75" transform="translate(124.658203 0)"/>
      <use xlink:href="#DejaVuSans-74" transform="translate(188.037109 0)"/>
      <use xlink:href="#DejaVuSans-68" transform="translate(227.246094 0)"/>
      <use xlink:href="#DejaVuSans-20" transform="translate(290.625 0)"/>
      <use xlink:href="#DejaVuSans-41" transform="translate(322.412109 0)"/>
      <use xlink:href="#DejaVuSans-66" transform="translate(387.195312 0)"/>
      <use xlink:href="#DejaVuSans-72" transform="translate(422.400391 0)"/>
      <use xlink:href="#DejaVuSans-69" transform="translate(463.513672 0)"/>
      <use xlink:href="#DejaVuSans-63" transform="translate(491.296875 0)"/>
      <use xlink:href="#DejaVuSans-61" transform="translate(546.277344 0)"/>
      <use xlink:href="#DejaVuSans-20" transform="translate(607.556641 0)"/>
      <use xlink:href="#DejaVuSans-52" transform="translate(639.34375 0)"/>
      <use xlink:href="#DejaVuSans-4d" transform="translate(708.826172 0)"/>
      <use xlink:href="#DejaVuSans-53" transform="translate(795.105469 0)"/>
      <use xlink:href="#DejaVuSans-45" transform="translate(858.582031 0)"/>
      <use xlink:href="#DejaVuSans-20" transform="translate(921.765625 0)"/>
      <use xlink:href="#DejaVuSans-28" transform="translate(953.552734 0)"/>
      <use xlink:href="#DejaVuSans-31" transform="translate(992.566406 0)"/>
      <use xlink:href="#DejaVuSans-32" transform="translate(1056.189453 0)"/>
      <use xlink:href="#DejaVuSans-68" transform="translate(1119.8125 0)"/>
      <use xlink:href="#DejaVuSans-20" transform="translate(1183.191406 0)"/>
      <use xlink:href="#DejaVuSans-46" transform="translate(1214.978516 0)"/>
      <use xlink:href="#DejaVuSans-6f" transform="translate(1268.873047 0)"/>
      <use xlink:href="#DejaVuSans-72" transform="translate(1330.054688 0)"/>
      <use xlink:href="#DejaVuSans-65" transform="translate(1368.917969 0)"/>
      <use xlink:href="#DejaVuSans-63" transform="translate(1430.441406 0)"/>
      <use xlink:href="#DejaVuSans-61" transform="translate(1485.421875 0)"/>
      <use xlink:href="#DejaVuSans-73" transform="translate(1546.701172 0)"/>
      <use xlink:href="#DejaVuSans-74" transform="translate(1598.800781 0)"/>
      <use xlink:href="#DejaVuSans-29" transform="translate(1638.009766 0)"/>
     </g>
    </g>
   </g>
  </g>
 </g>
 <defs>
  <clipPath id="p25e7d5c3a4">
   <rect x="66.400118" y="40.877187" width="669.6" height="443.52"/>
  </clipPath>
 </defs>
</svg>
