<?xml version="1.0" encoding="utf-8" standalone="no"?>
<!DOCTYPE svg PUBLIC "-//W3C//DTD SVG 1.1//EN"
  "http://www.w3.org/Graphics/SVG/1.1/DTD/svg11.dtd">
<svg xmlns:xlink="http://www.w3.org/1999/xlink" width="1068.862305pt" height="575.421502pt" viewBox="0 0 1068.862305 575.421502" xmlns="http://www.w3.org/2000/svg" version="1.1">
 <metadata>
  <rdf:RDF xmlns:dc="http://purl.org/dc/elements/1.1/" xmlns:cc="http://creativecommons.org/ns#" xmlns:rdf="http://www.w3.org/1999/02/22-rdf-syntax-ns#">
   <cc:Work>
    <dc:type rdf:resource="http://purl.org/dc/dcmitype/StillImage"/>
    <dc:date>2025-02-28T00:57:39.727512</dc:date>
    <dc:format>image/svg+xml</dc:format>
    <dc:creator>
     <cc:Agent>
      <dc:title>Matplotlib v3.10.0, https://matplotlib.org/</dc:title>
     </cc:Agent>
    </dc:creator>
   </cc:Work>
  </rdf:RDF>
 </metadata>
 <defs>
  <style type="text/css">*{stroke-linejoin: round; stroke-linecap: butt}</style>
 </defs>
 <g id="figure_1">
  <g id="patch_1">
   <path d="M 0 575.421502 
L 1068.862305 575.421502 
L 1068.862305 0 
L 0 0 
z
" style="fill: #ffffff"/>
  </g>
  <g id="axes_1">
   <g id="patch_2">
    <path d="M 66.400118 484.397187 
L 736.000118 484.397187 
L 736.000118 40.877187 
L 66.400118 40.877187 
z
" style="fill: #ffffff"/>
   </g>
   <g id="matplotlib.axis_1">
    <g id="xtick_1">
     <g id="line2d_1">
      <defs>
       <path id="meacf9298de" d="M 0 0 
L 0 3.5 
" style="stroke: #000000; stroke-width: 0.8"/>
      </defs>
      <g>
       <use xlink:href="#meacf9298de" x="96.836481" y="484.397187" style="stroke: #000000; stroke-width: 0.8"/>
      </g>
     </g>
     <g id="text_1">
      <!-- 2022-11-01 (18:00) -->
      <g transform="translate(10.999219 546.93544) rotate(-30) scale(0.1 -0.1)">
       <defs>
        <path id="DejaVuSans-32" d="M 1228 531 
L 3431 531 
L 3431 0 
L 469 0 
L 469 531 
Q 828 903 1448 1529 
Q 2069 2156 2228 2338 
Q 2531 2678 2651 2914 
Q 2772 3150 2772 3378 
Q 2772 3750 2511 3984 
Q 2250 4219 1831 4219 
Q 1534 4219 1204 4116 
Q 875 4013 500 3803 
L 500 4441 
Q 881 4594 1212 4672 
Q 1544 4750 1819 4750 
Q 2544 4750 2975 4387 
Q 3406 4025 3406 3419 
Q 3406 3131 3298 2873 
Q 3191 2616 2906 2266 
Q 2828 2175 2409 1742 
Q 1991 1309 1228 531 
z
" transform="scale(0.015625)"/>
        <path id="DejaVuSans-30" d="M 2034 4250 
Q 1547 4250 1301 3770 
Q 1056 3291 1056 2328 
Q 1056 1369 1301 889 
Q 1547 409 2034 409 
Q 2525 409 2770 889 
Q 3016 1369 3016 2328 
Q 3016 3291 2770 3770 
Q 2525 4250 2034 4250 
z
M 2034 4750 
Q 2819 4750 3233 4129 
Q 3647 3509 3647 2328 
Q 3647 1150 3233 529 
Q 2819 -91 2034 -91 
Q 1250 -91 836 529 
Q 422 1150 422 2328 
Q 422 3509 836 4129 
Q 1250 4750 2034 4750 
z
" transform="scale(0.015625)"/>
        <path id="DejaVuSans-2d" d="M 313 2009 
L 1997 2009 
L 1997 1497 
L 313 1497 
L 313 2009 
z
" transform="scale(0.015625)"/>
        <path id="DejaVuSans-31" d="M 794 531 
L 1825 531 
L 1825 4091 
L 703 3866 
L 703 4441 
L 1819 4666 
L 2450 4666 
L 2450 531 
L 3481 531 
L 3481 0 
L 794 0 
L 794 531 
z
" transform="scale(0.015625)"/>
        <path id="DejaVuSans-20" transform="scale(0.015625)"/>
        <path id="DejaVuSans-28" d="M 1984 4856 
Q 1566 4138 1362 3434 
Q 1159 2731 1159 2009 
Q 1159 1288 1364 580 
Q 1569 -128 1984 -844 
L 1484 -844 
Q 1016 -109 783 600 
Q 550 1309 550 2009 
Q 550 2706 781 3412 
Q 1013 4119 1484 4856 
L 1984 4856 
z
" transform="scale(0.015625)"/>
        <path id="DejaVuSans-38" d="M 2034 2216 
Q 1584 2216 1326 1975 
Q 1069 1734 1069 1313 
Q 1069 891 1326 650 
Q 1584 409 2034 409 
Q 2484 409 2743 651 
Q 3003 894 3003 1313 
Q 3003 1734 2745 1975 
Q 2488 2216 2034 2216 
z
M 1403 2484 
Q 997 2584 770 2862 
Q 544 3141 544 3541 
Q 544 4100 942 4425 
Q 1341 4750 2034 4750 
Q 2731 4750 3128 4425 
Q 3525 4100 3525 3541 
Q 3525 3141 3298 2862 
Q 3072 2584 2669 2484 
Q 3125 2378 3379 2068 
Q 3634 1759 3634 1313 
Q 3634 634 3220 271 
Q 2806 -91 2034 -91 
Q 1263 -91 848 271 
Q 434 634 434 1313 
Q 434 1759 690 2068 
Q 947 2378 1403 2484 
z
M 1172 3481 
Q 1172 3119 1398 2916 
Q 1625 2713 2034 2713 
Q 2441 2713 2670 2916 
Q 2900 3119 2900 3481 
Q 2900 3844 2670 4047 
Q 2441 4250 2034 4250 
Q 1625 4250 1398 4047 
Q 1172 3844 1172 3481 
z
" transform="scale(0.015625)"/>
        <path id="DejaVuSans-3a" d="M 750 794 
L 1409 794 
L 1409 0 
L 750 0 
L 750 794 
z
M 750 3309 
L 1409 3309 
L 1409 2516 
L 750 2516 
L 750 3309 
z
" transform="scale(0.015625)"/>
        <path id="DejaVuSans-29" d="M 513 4856 
L 1013 4856 
Q 1481 4119 1714 3412 
Q 1947 2706 1947 2009 
Q 1947 1309 1714 600 
Q 1481 -109 1013 -844 
L 513 -844 
Q 928 -128 1133 580 
Q 1338 1288 1338 2009 
Q 1338 2731 1133 3434 
Q 928 4138 513 4856 
z
" transform="scale(0.015625)"/>
       </defs>
       <use xlink:href="#DejaVuSans-32"/>
       <use xlink:href="#DejaVuSans-30" transform="translate(63.623047 0)"/>
       <use xlink:href="#DejaVuSans-32" transform="translate(127.246094 0)"/>
       <use xlink:href="#DejaVuSans-32" transform="translate(190.869141 0)"/>
       <use xlink:href="#DejaVuSans-2d" transform="translate(254.492188 0)"/>
       <use xlink:href="#DejaVuSans-31" transform="translate(290.576172 0)"/>
       <use xlink:href="#DejaVuSans-31" transform="translate(354.199219 0)"/>
       <use xlink:href="#DejaVuSans-2d" transform="translate(417.822266 0)"/>
       <use xlink:href="#DejaVuSans-30" transform="translate(453.90625 0)"/>
       <use xlink:href="#DejaVuSans-31" transform="translate(517.529297 0)"/>
       <use xlink:href="#DejaVuSans-20" transform="translate(581.152344 0)"/>
       <use xlink:href="#DejaVuSans-28" transform="translate(612.939453 0)"/>
       <use xlink:href="#DejaVuSans-31" transform="translate(651.953125 0)"/>
       <use xlink:href="#DejaVuSans-38" transform="translate(715.576172 0)"/>
       <use xlink:href="#DejaVuSans-3a" transform="translate(779.199219 0)"/>
       <use xlink:href="#DejaVuSans-30" transform="translate(812.890625 0)"/>
       <use xlink:href="#DejaVuSans-30" transform="translate(876.513672 0)"/>
       <use xlink:href="#DejaVuSans-29" transform="translate(940.136719 0)"/>
      </g>
     </g>
    </g>
    <g id="xtick_2">
     <g id="line2d_2">
      <g>
       <use xlink:href="#meacf9298de" x="218.581936" y="484.397187" style="stroke: #000000; stroke-width: 0.8"/>
      </g>
     </g>
     <g id="text_2">
      <!-- 2022-11-13 (18:00) -->
      <g transform="translate(132.744673 546.93544) rotate(-30) scale(0.1 -0.1)">
       <defs>
        <path id="DejaVuSans-33" d="M 2597 2516 
Q 3050 2419 3304 2112 
Q 3559 1806 3559 1356 
Q 3559 666 3084 287 
Q 2609 -91 1734 -91 
Q 1441 -91 1130 -33 
Q 819 25 488 141 
L 488 750 
Q 750 597 1062 519 
Q 1375 441 1716 441 
Q 2309 441 2620 675 
Q 2931 909 2931 1356 
Q 2931 1769 2642 2001 
Q 2353 2234 1838 2234 
L 1294 2234 
L 1294 2753 
L 1863 2753 
Q 2328 2753 2575 2939 
Q 2822 3125 2822 3475 
Q 2822 3834 2567 4026 
Q 2313 4219 1838 4219 
Q 1578 4219 1281 4162 
Q 984 4106 628 3988 
L 628 4550 
Q 988 4650 1302 4700 
Q 1616 4750 1894 4750 
Q 2613 4750 3031 4423 
Q 3450 4097 3450 3541 
Q 3450 3153 3228 2886 
Q 3006 2619 2597 2516 
z
" transform="scale(0.015625)"/>
       </defs>
       <use xlink:href="#DejaVuSans-32"/>
       <use xlink:href="#DejaVuSans-30" transform="translate(63.623047 0)"/>
       <use xlink:href="#DejaVuSans-32" transform="translate(127.246094 0)"/>
       <use xlink:href="#DejaVuSans-32" transform="translate(190.869141 0)"/>
       <use xlink:href="#DejaVuSans-2d" transform="translate(254.492188 0)"/>
       <use xlink:href="#DejaVuSans-31" transform="translate(290.576172 0)"/>
       <use xlink:href="#DejaVuSans-31" transform="translate(354.199219 0)"/>
       <use xlink:href="#DejaVuSans-2d" transform="translate(417.822266 0)"/>
       <use xlink:href="#DejaVuSans-31" transform="translate(453.90625 0)"/>
       <use xlink:href="#DejaVuSans-33" transform="translate(517.529297 0)"/>
       <use xlink:href="#DejaVuSans-20" transform="translate(581.152344 0)"/>
       <use xlink:href="#DejaVuSans-28" transform="translate(612.939453 0)"/>
       <use xlink:href="#DejaVuSans-31" transform="translate(651.953125 0)"/>
       <use xlink:href="#DejaVuSans-38" transform="translate(715.576172 0)"/>
       <use xlink:href="#DejaVuSans-3a" transform="translate(779.199219 0)"/>
       <use xlink:href="#DejaVuSans-30" transform="translate(812.890625 0)"/>
       <use xlink:href="#DejaVuSans-30" transform="translate(876.513672 0)"/>
       <use xlink:href="#DejaVuSans-29" transform="translate(940.136719 0)"/>
      </g>
     </g>
    </g>
    <g id="xtick_3">
     <g id="line2d_3">
      <g>
       <use xlink:href="#meacf9298de" x="340.32739" y="484.397187" style="stroke: #000000; stroke-width: 0.8"/>
      </g>
     </g>
     <g id="text_3">
      <!-- 2022-11-25 (18:00) -->
      <g transform="translate(254.490128 546.93544) rotate(-30) scale(0.1 -0.1)">
       <defs>
        <path id="DejaVuSans-35" d="M 691 4666 
L 3169 4666 
L 3169 4134 
L 1269 4134 
L 1269 2991 
Q 1406 3038 1543 3061 
Q 1681 3084 1819 3084 
Q 2600 3084 3056 2656 
Q 3513 2228 3513 1497 
Q 3513 744 3044 326 
Q 2575 -91 1722 -91 
Q 1428 -91 1123 -41 
Q 819 9 494 109 
L 494 744 
Q 775 591 1075 516 
Q 1375 441 1709 441 
Q 2250 441 2565 725 
Q 2881 1009 2881 1497 
Q 2881 1984 2565 2268 
Q 2250 2553 1709 2553 
Q 1456 2553 1204 2497 
Q 953 2441 691 2322 
L 691 4666 
z
" transform="scale(0.015625)"/>
       </defs>
       <use xlink:href="#DejaVuSans-32"/>
       <use xlink:href="#DejaVuSans-30" transform="translate(63.623047 0)"/>
       <use xlink:href="#DejaVuSans-32" transform="translate(127.246094 0)"/>
       <use xlink:href="#DejaVuSans-32" transform="translate(190.869141 0)"/>
       <use xlink:href="#DejaVuSans-2d" transform="translate(254.492188 0)"/>
       <use xlink:href="#DejaVuSans-31" transform="translate(290.576172 0)"/>
       <use xlink:href="#DejaVuSans-31" transform="translate(354.199219 0)"/>
       <use xlink:href="#DejaVuSans-2d" transform="translate(417.822266 0)"/>
       <use xlink:href="#DejaVuSans-32" transform="translate(453.90625 0)"/>
       <use xlink:href="#DejaVuSans-35" transform="translate(517.529297 0)"/>
       <use xlink:href="#DejaVuSans-20" transform="translate(581.152344 0)"/>
       <use xlink:href="#DejaVuSans-28" transform="translate(612.939453 0)"/>
       <use xlink:href="#DejaVuSans-31" transform="translate(651.953125 0)"/>
       <use xlink:href="#DejaVuSans-38" transform="translate(715.576172 0)"/>
       <use xlink:href="#DejaVuSans-3a" transform="translate(779.199219 0)"/>
       <use xlink:href="#DejaVuSans-30" transform="translate(812.890625 0)"/>
       <use xlink:href="#DejaVuSans-30" transform="translate(876.513672 0)"/>
       <use xlink:href="#DejaVuSans-29" transform="translate(940.136719 0)"/>
      </g>
     </g>
    </g>
    <g id="xtick_4">
     <g id="line2d_4">
      <g>
       <use xlink:href="#meacf9298de" x="462.072845" y="484.397187" style="stroke: #000000; stroke-width: 0.8"/>
      </g>
     </g>
     <g id="text_4">
      <!-- 2022-12-07 (18:00) -->
      <g transform="translate(376.235582 546.93544) rotate(-30) scale(0.1 -0.1)">
       <defs>
        <path id="DejaVuSans-37" d="M 525 4666 
L 3525 4666 
L 3525 4397 
L 1831 0 
L 1172 0 
L 2766 4134 
L 525 4134 
L 525 4666 
z
" transform="scale(0.015625)"/>
       </defs>
       <use xlink:href="#DejaVuSans-32"/>
       <use xlink:href="#DejaVuSans-30" transform="translate(63.623047 0)"/>
       <use xlink:href="#DejaVuSans-32" transform="translate(127.246094 0)"/>
       <use xlink:href="#DejaVuSans-32" transform="translate(190.869141 0)"/>
       <use xlink:href="#DejaVuSans-2d" transform="translate(254.492188 0)"/>
       <use xlink:href="#DejaVuSans-31" transform="translate(290.576172 0)"/>
       <use xlink:href="#DejaVuSans-32" transform="translate(354.199219 0)"/>
       <use xlink:href="#DejaVuSans-2d" transform="translate(417.822266 0)"/>
       <use xlink:href="#DejaVuSans-30" transform="translate(453.90625 0)"/>
       <use xlink:href="#DejaVuSans-37" transform="translate(517.529297 0)"/>
       <use xlink:href="#DejaVuSans-20" transform="translate(581.152344 0)"/>
       <use xlink:href="#DejaVuSans-28" transform="translate(612.939453 0)"/>
       <use xlink:href="#DejaVuSans-31" transform="translate(651.953125 0)"/>
       <use xlink:href="#DejaVuSans-38" transform="translate(715.576172 0)"/>
       <use xlink:href="#DejaVuSans-3a" transform="translate(779.199219 0)"/>
       <use xlink:href="#DejaVuSans-30" transform="translate(812.890625 0)"/>
       <use xlink:href="#DejaVuSans-30" transform="translate(876.513672 0)"/>
       <use xlink:href="#DejaVuSans-29" transform="translate(940.136719 0)"/>
      </g>
     </g>
    </g>
    <g id="xtick_5">
     <g id="line2d_5">
      <g>
       <use xlink:href="#meacf9298de" x="583.818299" y="484.397187" style="stroke: #000000; stroke-width: 0.8"/>
      </g>
     </g>
     <g id="text_5">
      <!-- 2022-12-19 (18:00) -->
      <g transform="translate(497.981037 546.93544) rotate(-30) scale(0.1 -0.1)">
       <defs>
        <path id="DejaVuSans-39" d="M 703 97 
L 703 672 
Q 941 559 1184 500 
Q 1428 441 1663 441 
Q 2288 441 2617 861 
Q 2947 1281 2994 2138 
Q 2813 1869 2534 1725 
Q 2256 1581 1919 1581 
Q 1219 1581 811 2004 
Q 403 2428 403 3163 
Q 403 3881 828 4315 
Q 1253 4750 1959 4750 
Q 2769 4750 3195 4129 
Q 3622 3509 3622 2328 
Q 3622 1225 3098 567 
Q 2575 -91 1691 -91 
Q 1453 -91 1209 -44 
Q 966 3 703 97 
z
M 1959 2075 
Q 2384 2075 2632 2365 
Q 2881 2656 2881 3163 
Q 2881 3666 2632 3958 
Q 2384 4250 1959 4250 
Q 1534 4250 1286 3958 
Q 1038 3666 1038 3163 
Q 1038 2656 1286 2365 
Q 1534 2075 1959 2075 
z
" transform="scale(0.015625)"/>
       </defs>
       <use xlink:href="#DejaVuSans-32"/>
       <use xlink:href="#DejaVuSans-30" transform="translate(63.623047 0)"/>
       <use xlink:href="#DejaVuSans-32" transform="translate(127.246094 0)"/>
       <use xlink:href="#DejaVuSans-32" transform="translate(190.869141 0)"/>
       <use xlink:href="#DejaVuSans-2d" transform="translate(254.492188 0)"/>
       <use xlink:href="#DejaVuSans-31" transform="translate(290.576172 0)"/>
       <use xlink:href="#DejaVuSans-32" transform="translate(354.199219 0)"/>
       <use xlink:href="#DejaVuSans-2d" transform="translate(417.822266 0)"/>
       <use xlink:href="#DejaVuSans-31" transform="translate(453.90625 0)"/>
       <use xlink:href="#DejaVuSans-39" transform="translate(517.529297 0)"/>
       <use xlink:href="#DejaVuSans-20" transform="translate(581.152344 0)"/>
       <use xlink:href="#DejaVuSans-28" transform="translate(612.939453 0)"/>
       <use xlink:href="#DejaVuSans-31" transform="translate(651.953125 0)"/>
       <use xlink:href="#DejaVuSans-38" transform="translate(715.576172 0)"/>
       <use xlink:href="#DejaVuSans-3a" transform="translate(779.199219 0)"/>
       <use xlink:href="#DejaVuSans-30" transform="translate(812.890625 0)"/>
       <use xlink:href="#DejaVuSans-30" transform="translate(876.513672 0)"/>
       <use xlink:href="#DejaVuSans-29" transform="translate(940.136719 0)"/>
      </g>
     </g>
    </g>
    <g id="xtick_6">
     <g id="line2d_6">
      <g>
       <use xlink:href="#meacf9298de" x="705.563754" y="484.397187" style="stroke: #000000; stroke-width: 0.8"/>
      </g>
     </g>
     <g id="text_6">
      <!-- 2022-12-31 (18:00) -->
      <g transform="translate(619.726491 546.93544) rotate(-30) scale(0.1 -0.1)">
       <use xlink:href="#DejaVuSans-32"/>
       <use xlink:href="#DejaVuSans-30" transform="translate(63.623047 0)"/>
       <use xlink:href="#DejaVuSans-32" transform="translate(127.246094 0)"/>
       <use xlink:href="#DejaVuSans-32" transform="translate(190.869141 0)"/>
       <use xlink:href="#DejaVuSans-2d" transform="translate(254.492188 0)"/>
       <use xlink:href="#DejaVuSans-31" transform="translate(290.576172 0)"/>
       <use xlink:href="#DejaVuSans-32" transform="translate(354.199219 0)"/>
       <use xlink:href="#DejaVuSans-2d" transform="translate(417.822266 0)"/>
       <use xlink:href="#DejaVuSans-33" transform="translate(453.90625 0)"/>
       <use xlink:href="#DejaVuSans-31" transform="translate(517.529297 0)"/>
       <use xlink:href="#DejaVuSans-20" transform="translate(581.152344 0)"/>
       <use xlink:href="#DejaVuSans-28" transform="translate(612.939453 0)"/>
       <use xlink:href="#DejaVuSans-31" transform="translate(651.953125 0)"/>
       <use xlink:href="#DejaVuSans-38" transform="translate(715.576172 0)"/>
       <use xlink:href="#DejaVuSans-3a" transform="translate(779.199219 0)"/>
       <use xlink:href="#DejaVuSans-30" transform="translate(812.890625 0)"/>
       <use xlink:href="#DejaVuSans-30" transform="translate(876.513672 0)"/>
       <use xlink:href="#DejaVuSans-29" transform="translate(940.136719 0)"/>
      </g>
     </g>
    </g>
    <g id="text_7">
     <!-- Forecast Date -->
     <g transform="translate(345.693868 564.894002) scale(0.16 -0.16)">
      <defs>
       <path id="DejaVuSans-46" d="M 628 4666 
L 3309 4666 
L 3309 4134 
L 1259 4134 
L 1259 2759 
L 3109 2759 
L 3109 2228 
L 1259 2228 
L 1259 0 
L 628 0 
L 628 4666 
z
" transform="scale(0.015625)"/>
       <path id="DejaVuSans-6f" d="M 1959 3097 
Q 1497 3097 1228 2736 
Q 959 2375 959 1747 
Q 959 1119 1226 758 
Q 1494 397 1959 397 
Q 2419 397 2687 759 
Q 2956 1122 2956 1747 
Q 2956 2369 2687 2733 
Q 2419 3097 1959 3097 
z
M 1959 3584 
Q 2709 3584 3137 3096 
Q 3566 2609 3566 1747 
Q 3566 888 3137 398 
Q 2709 -91 1959 -91 
Q 1206 -91 779 398 
Q 353 888 353 1747 
Q 353 2609 779 3096 
Q 1206 3584 1959 3584 
z
" transform="scale(0.015625)"/>
       <path id="DejaVuSans-72" d="M 2631 2963 
Q 2534 3019 2420 3045 
Q 2306 3072 2169 3072 
Q 1681 3072 1420 2755 
Q 1159 2438 1159 1844 
L 1159 0 
L 581 0 
L 581 3500 
L 1159 3500 
L 1159 2956 
Q 1341 3275 1631 3429 
Q 1922 3584 2338 3584 
Q 2397 3584 2469 3576 
Q 2541 3569 2628 3553 
L 2631 2963 
z
" transform="scale(0.015625)"/>
       <path id="DejaVuSans-65" d="M 3597 1894 
L 3597 1613 
L 953 1613 
Q 991 1019 1311 708 
Q 1631 397 2203 397 
Q 2534 397 2845 478 
Q 3156 559 3463 722 
L 3463 178 
Q 3153 47 2828 -22 
Q 2503 -91 2169 -91 
Q 1331 -91 842 396 
Q 353 884 353 1716 
Q 353 2575 817 3079 
Q 1281 3584 2069 3584 
Q 2775 3584 3186 3129 
Q 3597 2675 3597 1894 
z
M 3022 2063 
Q 3016 2534 2758 2815 
Q 2500 3097 2075 3097 
Q 1594 3097 1305 2825 
Q 1016 2553 972 2059 
L 3022 2063 
z
" transform="scale(0.015625)"/>
       <path id="DejaVuSans-63" d="M 3122 3366 
L 3122 2828 
Q 2878 2963 2633 3030 
Q 2388 3097 2138 3097 
Q 1578 3097 1268 2742 
Q 959 2388 959 1747 
Q 959 1106 1268 751 
Q 1578 397 2138 397 
Q 2388 397 2633 464 
Q 2878 531 3122 666 
L 3122 134 
Q 2881 22 2623 -34 
Q 2366 -91 2075 -91 
Q 1284 -91 818 406 
Q 353 903 353 1747 
Q 353 2603 823 3093 
Q 1294 3584 2113 3584 
Q 2378 3584 2631 3529 
Q 2884 3475 3122 3366 
z
" transform="scale(0.015625)"/>
       <path id="DejaVuSans-61" d="M 2194 1759 
Q 1497 1759 1228 1600 
Q 959 1441 959 1056 
Q 959 750 1161 570 
Q 1363 391 1709 391 
Q 2188 391 2477 730 
Q 2766 1069 2766 1631 
L 2766 1759 
L 2194 1759 
z
M 3341 1997 
L 3341 0 
L 2766 0 
L 2766 531 
Q 2569 213 2275 61 
Q 1981 -91 1556 -91 
Q 1019 -91 701 211 
Q 384 513 384 1019 
Q 384 1609 779 1909 
Q 1175 2209 1959 2209 
L 2766 2209 
L 2766 2266 
Q 2766 2663 2505 2880 
Q 2244 3097 1772 3097 
Q 1472 3097 1187 3025 
Q 903 2953 641 2809 
L 641 3341 
Q 956 3463 1253 3523 
Q 1550 3584 1831 3584 
Q 2591 3584 2966 3190 
Q 3341 2797 3341 1997 
z
" transform="scale(0.015625)"/>
       <path id="DejaVuSans-73" d="M 2834 3397 
L 2834 2853 
Q 2591 2978 2328 3040 
Q 2066 3103 1784 3103 
Q 1356 3103 1142 2972 
Q 928 2841 928 2578 
Q 928 2378 1081 2264 
Q 1234 2150 1697 2047 
L 1894 2003 
Q 2506 1872 2764 1633 
Q 3022 1394 3022 966 
Q 3022 478 2636 193 
Q 2250 -91 1575 -91 
Q 1294 -91 989 -36 
Q 684 19 347 128 
L 347 722 
Q 666 556 975 473 
Q 1284 391 1588 391 
Q 1994 391 2212 530 
Q 2431 669 2431 922 
Q 2431 1156 2273 1281 
Q 2116 1406 1581 1522 
L 1381 1569 
Q 847 1681 609 1914 
Q 372 2147 372 2553 
Q 372 3047 722 3315 
Q 1072 3584 1716 3584 
Q 2034 3584 2315 3537 
Q 2597 3491 2834 3397 
z
" transform="scale(0.015625)"/>
       <path id="DejaVuSans-74" d="M 1172 4494 
L 1172 3500 
L 2356 3500 
L 2356 3053 
L 1172 3053 
L 1172 1153 
Q 1172 725 1289 603 
Q 1406 481 1766 481 
L 2356 481 
L 2356 0 
L 1766 0 
Q 1100 0 847 248 
Q 594 497 594 1153 
L 594 3053 
L 172 3053 
L 172 3500 
L 594 3500 
L 594 4494 
L 1172 4494 
z
" transform="scale(0.015625)"/>
       <path id="DejaVuSans-44" d="M 1259 4147 
L 1259 519 
L 2022 519 
Q 2988 519 3436 956 
Q 3884 1394 3884 2338 
Q 3884 3275 3436 3711 
Q 2988 4147 2022 4147 
L 1259 4147 
z
M 628 4666 
L 1925 4666 
Q 3281 4666 3915 4102 
Q 4550 3538 4550 2338 
Q 4550 1131 3912 565 
Q 3275 0 1925 0 
L 628 0 
L 628 4666 
z
" transform="scale(0.015625)"/>
      </defs>
      <use xlink:href="#DejaVuSans-46"/>
      <use xlink:href="#DejaVuSans-6f" transform="translate(53.894531 0)"/>
      <use xlink:href="#DejaVuSans-72" transform="translate(115.076172 0)"/>
      <use xlink:href="#DejaVuSans-65" transform="translate(153.939453 0)"/>
      <use xlink:href="#DejaVuSans-63" transform="translate(215.462891 0)"/>
      <use xlink:href="#DejaVuSans-61" transform="translate(270.443359 0)"/>
      <use xlink:href="#DejaVuSans-73" transform="translate(331.722656 0)"/>
      <use xlink:href="#DejaVuSans-74" transform="translate(383.822266 0)"/>
      <use xlink:href="#DejaVuSans-20" transform="translate(423.03125 0)"/>
      <use xlink:href="#DejaVuSans-44" transform="translate(454.818359 0)"/>
      <use xlink:href="#DejaVuSans-61" transform="translate(531.820312 0)"/>
      <use xlink:href="#DejaVuSans-74" transform="translate(593.099609 0)"/>
      <use xlink:href="#DejaVuSans-65" transform="translate(632.308594 0)"/>
     </g>
    </g>
   </g>
   <g id="matplotlib.axis_2">
    <g id="ytick_1">
     <g id="line2d_7">
      <defs>
       <path id="m376ed9c699" d="M 0 0 
L -3.5 0 
" style="stroke: #000000; stroke-width: 0.8"/>
      </defs>
      <g>
       <use xlink:href="#m376ed9c699" x="66.400118" y="462.400763" style="stroke: #000000; stroke-width: 0.8"/>
      </g>
     </g>
     <g id="text_8">
      <!-- 1.0 -->
      <g transform="translate(43.496993 466.199982) scale(0.1 -0.1)">
       <defs>
        <path id="DejaVuSans-2e" d="M 684 794 
L 1344 794 
L 1344 0 
L 684 0 
L 684 794 
z
" transform="scale(0.015625)"/>
       </defs>
       <use xlink:href="#DejaVuSans-31"/>
       <use xlink:href="#DejaVuSans-2e" transform="translate(63.623047 0)"/>
       <use xlink:href="#DejaVuSans-30" transform="translate(95.410156 0)"/>
      </g>
     </g>
    </g>
    <g id="ytick_2">
     <g id="line2d_8">
      <g>
       <use xlink:href="#m376ed9c699" x="66.400118" y="390.415262" style="stroke: #000000; stroke-width: 0.8"/>
      </g>
     </g>
     <g id="text_9">
      <!-- 1.5 -->
      <g transform="translate(43.496993 394.21448) scale(0.1 -0.1)">
       <use xlink:href="#DejaVuSans-31"/>
       <use xlink:href="#DejaVuSans-2e" transform="translate(63.623047 0)"/>
       <use xlink:href="#DejaVuSans-35" transform="translate(95.410156 0)"/>
      </g>
     </g>
    </g>
    <g id="ytick_3">
     <g id="line2d_9">
      <g>
       <use xlink:href="#m376ed9c699" x="66.400118" y="318.42976" style="stroke: #000000; stroke-width: 0.8"/>
      </g>
     </g>
     <g id="text_10">
      <!-- 2.0 -->
      <g transform="translate(43.496993 322.228979) scale(0.1 -0.1)">
       <use xlink:href="#DejaVuSans-32"/>
       <use xlink:href="#DejaVuSans-2e" transform="translate(63.623047 0)"/>
       <use xlink:href="#DejaVuSans-30" transform="translate(95.410156 0)"/>
      </g>
     </g>
    </g>
    <g id="ytick_4">
     <g id="line2d_10">
      <g>
       <use xlink:href="#m376ed9c699" x="66.400118" y="246.444258" style="stroke: #000000; stroke-width: 0.8"/>
      </g>
     </g>
     <g id="text_11">
      <!-- 2.5 -->
      <g transform="translate(43.496993 250.243477) scale(0.1 -0.1)">
       <use xlink:href="#DejaVuSans-32"/>
       <use xlink:href="#DejaVuSans-2e" transform="translate(63.623047 0)"/>
       <use xlink:href="#DejaVuSans-35" transform="translate(95.410156 0)"/>
      </g>
     </g>
    </g>
    <g id="ytick_5">
     <g id="line2d_11">
      <g>
       <use xlink:href="#m376ed9c699" x="66.400118" y="174.458756" style="stroke: #000000; stroke-width: 0.8"/>
      </g>
     </g>
     <g id="text_12">
      <!-- 3.0 -->
      <g transform="translate(43.496993 178.257975) scale(0.1 -0.1)">
       <use xlink:href="#DejaVuSans-33"/>
       <use xlink:href="#DejaVuSans-2e" transform="translate(63.623047 0)"/>
       <use xlink:href="#DejaVuSans-30" transform="translate(95.410156 0)"/>
      </g>
     </g>
    </g>
    <g id="ytick_6">
     <g id="line2d_12">
      <g>
       <use xlink:href="#m376ed9c699" x="66.400118" y="102.473254" style="stroke: #000000; stroke-width: 0.8"/>
      </g>
     </g>
     <g id="text_13">
      <!-- 3.5 -->
      <g transform="translate(43.496993 106.272473) scale(0.1 -0.1)">
       <use xlink:href="#DejaVuSans-33"/>
       <use xlink:href="#DejaVuSans-2e" transform="translate(63.623047 0)"/>
       <use xlink:href="#DejaVuSans-35" transform="translate(95.410156 0)"/>
      </g>
     </g>
    </g>
    <g id="text_14">
     <!-- Root Mean Squared Error (RMSE) -->
     <g transform="translate(36.169493 394.303437) rotate(-90) scale(0.16 -0.16)">
      <defs>
       <path id="DejaVuSans-52" d="M 2841 2188 
Q 3044 2119 3236 1894 
Q 3428 1669 3622 1275 
L 4263 0 
L 3584 0 
L 2988 1197 
Q 2756 1666 2539 1819 
Q 2322 1972 1947 1972 
L 1259 1972 
L 1259 0 
L 628 0 
L 628 4666 
L 2053 4666 
Q 2853 4666 3247 4331 
Q 3641 3997 3641 3322 
Q 3641 2881 3436 2590 
Q 3231 2300 2841 2188 
z
M 1259 4147 
L 1259 2491 
L 2053 2491 
Q 2509 2491 2742 2702 
Q 2975 2913 2975 3322 
Q 2975 3731 2742 3939 
Q 2509 4147 2053 4147 
L 1259 4147 
z
" transform="scale(0.015625)"/>
       <path id="DejaVuSans-4d" d="M 628 4666 
L 1569 4666 
L 2759 1491 
L 3956 4666 
L 4897 4666 
L 4897 0 
L 4281 0 
L 4281 4097 
L 3078 897 
L 2444 897 
L 1241 4097 
L 1241 0 
L 628 0 
L 628 4666 
z
" transform="scale(0.015625)"/>
       <path id="DejaVuSans-6e" d="M 3513 2113 
L 3513 0 
L 2938 0 
L 2938 2094 
Q 2938 2591 2744 2837 
Q 2550 3084 2163 3084 
Q 1697 3084 1428 2787 
Q 1159 2491 1159 1978 
L 1159 0 
L 581 0 
L 581 3500 
L 1159 3500 
L 1159 2956 
Q 1366 3272 1645 3428 
Q 1925 3584 2291 3584 
Q 2894 3584 3203 3211 
Q 3513 2838 3513 2113 
z
" transform="scale(0.015625)"/>
       <path id="DejaVuSans-53" d="M 3425 4513 
L 3425 3897 
Q 3066 4069 2747 4153 
Q 2428 4238 2131 4238 
Q 1616 4238 1336 4038 
Q 1056 3838 1056 3469 
Q 1056 3159 1242 3001 
Q 1428 2844 1947 2747 
L 2328 2669 
Q 3034 2534 3370 2195 
Q 3706 1856 3706 1288 
Q 3706 609 3251 259 
Q 2797 -91 1919 -91 
Q 1588 -91 1214 -16 
Q 841 59 441 206 
L 441 856 
Q 825 641 1194 531 
Q 1563 422 1919 422 
Q 2459 422 2753 634 
Q 3047 847 3047 1241 
Q 3047 1584 2836 1778 
Q 2625 1972 2144 2069 
L 1759 2144 
Q 1053 2284 737 2584 
Q 422 2884 422 3419 
Q 422 4038 858 4394 
Q 1294 4750 2059 4750 
Q 2388 4750 2728 4690 
Q 3069 4631 3425 4513 
z
" transform="scale(0.015625)"/>
       <path id="DejaVuSans-71" d="M 947 1747 
Q 947 1113 1208 752 
Q 1469 391 1925 391 
Q 2381 391 2643 752 
Q 2906 1113 2906 1747 
Q 2906 2381 2643 2742 
Q 2381 3103 1925 3103 
Q 1469 3103 1208 2742 
Q 947 2381 947 1747 
z
M 2906 525 
Q 2725 213 2448 61 
Q 2172 -91 1784 -91 
Q 1150 -91 751 415 
Q 353 922 353 1747 
Q 353 2572 751 3078 
Q 1150 3584 1784 3584 
Q 2172 3584 2448 3432 
Q 2725 3281 2906 2969 
L 2906 3500 
L 3481 3500 
L 3481 -1331 
L 2906 -1331 
L 2906 525 
z
" transform="scale(0.015625)"/>
       <path id="DejaVuSans-75" d="M 544 1381 
L 544 3500 
L 1119 3500 
L 1119 1403 
Q 1119 906 1312 657 
Q 1506 409 1894 409 
Q 2359 409 2629 706 
Q 2900 1003 2900 1516 
L 2900 3500 
L 3475 3500 
L 3475 0 
L 2900 0 
L 2900 538 
Q 2691 219 2414 64 
Q 2138 -91 1772 -91 
Q 1169 -91 856 284 
Q 544 659 544 1381 
z
M 1991 3584 
L 1991 3584 
z
" transform="scale(0.015625)"/>
       <path id="DejaVuSans-64" d="M 2906 2969 
L 2906 4863 
L 3481 4863 
L 3481 0 
L 2906 0 
L 2906 525 
Q 2725 213 2448 61 
Q 2172 -91 1784 -91 
Q 1150 -91 751 415 
Q 353 922 353 1747 
Q 353 2572 751 3078 
Q 1150 3584 1784 3584 
Q 2172 3584 2448 3432 
Q 2725 3281 2906 2969 
z
M 947 1747 
Q 947 1113 1208 752 
Q 1469 391 1925 391 
Q 2381 391 2643 752 
Q 2906 1113 2906 1747 
Q 2906 2381 2643 2742 
Q 2381 3103 1925 3103 
Q 1469 3103 1208 2742 
Q 947 2381 947 1747 
z
" transform="scale(0.015625)"/>
       <path id="DejaVuSans-45" d="M 628 4666 
L 3578 4666 
L 3578 4134 
L 1259 4134 
L 1259 2753 
L 3481 2753 
L 3481 2222 
L 1259 2222 
L 1259 531 
L 3634 531 
L 3634 0 
L 628 0 
L 628 4666 
z
" transform="scale(0.015625)"/>
      </defs>
      <use xlink:href="#DejaVuSans-52"/>
      <use xlink:href="#DejaVuSans-6f" transform="translate(64.982422 0)"/>
      <use xlink:href="#DejaVuSans-6f" transform="translate(126.164062 0)"/>
      <use xlink:href="#DejaVuSans-74" transform="translate(187.345703 0)"/>
      <use xlink:href="#DejaVuSans-20" transform="translate(226.554688 0)"/>
      <use xlink:href="#DejaVuSans-4d" transform="translate(258.341797 0)"/>
      <use xlink:href="#DejaVuSans-65" transform="translate(344.621094 0)"/>
      <use xlink:href="#DejaVuSans-61" transform="translate(406.144531 0)"/>
      <use xlink:href="#DejaVuSans-6e" transform="translate(467.423828 0)"/>
      <use xlink:href="#DejaVuSans-20" transform="translate(530.802734 0)"/>
      <use xlink:href="#DejaVuSans-53" transform="translate(562.589844 0)"/>
      <use xlink:href="#DejaVuSans-71" transform="translate(626.066406 0)"/>
      <use xlink:href="#DejaVuSans-75" transform="translate(689.542969 0)"/>
      <use xlink:href="#DejaVuSans-61" transform="translate(752.921875 0)"/>
      <use xlink:href="#DejaVuSans-72" transform="translate(814.201172 0)"/>
      <use xlink:href="#DejaVuSans-65" transform="translate(853.064453 0)"/>
      <use xlink:href="#DejaVuSans-64" transform="translate(914.587891 0)"/>
      <use xlink:href="#DejaVuSans-20" transform="translate(978.064453 0)"/>
      <use xlink:href="#DejaVuSans-45" transform="translate(1009.851562 0)"/>
      <use xlink:href="#DejaVuSans-72" transform="translate(1073.035156 0)"/>
      <use xlink:href="#DejaVuSans-72" transform="translate(1112.398438 0)"/>
      <use xlink:href="#DejaVuSans-6f" transform="translate(1151.261719 0)"/>
      <use xlink:href="#DejaVuSans-72" transform="translate(1212.443359 0)"/>
      <use xlink:href="#DejaVuSans-20" transform="translate(1253.556641 0)"/>
      <use xlink:href="#DejaVuSans-28" transform="translate(1285.34375 0)"/>
      <use xlink:href="#DejaVuSans-52" transform="translate(1324.357422 0)"/>
      <use xlink:href="#DejaVuSans-4d" transform="translate(1393.839844 0)"/>
      <use xlink:href="#DejaVuSans-53" transform="translate(1480.119141 0)"/>
      <use xlink:href="#DejaVuSans-45" transform="translate(1543.595703 0)"/>
      <use xlink:href="#DejaVuSans-29" transform="translate(1606.779297 0)"/>
     </g>
    </g>
   </g>
   <g id="line2d_13">
    <path d="M 96.836481 457.618348 
L 99.372845 458.582565 
L 101.909208 458.851847 
L 104.445572 461.838463 
L 106.981936 458.410629 
L 109.518299 462.246059 
L 112.054663 461.676069 
L 114.591027 463.198785 
L 117.12739 460.615416 
L 119.663754 460.288707 
M 127.272845 456.946292 
L 129.809208 459.690072 
L 132.345572 460.972279 
L 134.881936 461.358748 
L 137.418299 459.160295 
L 139.954663 462.046646 
L 142.491027 461.528951 
L 145.02739 463.711374 
L 147.563754 462.862397 
L 150.100118 463.790795 
L 152.636481 463.701214 
L 155.172845 462.844608 
L 157.709208 459.215112 
L 160.245572 463.897881 
L 162.781936 461.290201 
L 165.318299 462.15925 
L 167.854663 460.976707 
L 170.391027 462.127928 
L 172.92739 461.179519 
L 175.463754 462.534401 
L 178.000118 460.786648 
L 180.536481 464.237187 
L 183.072845 462.961794 
L 185.609208 463.034925 
L 188.145572 458.376269 
L 190.681936 462.387102 
L 193.218299 458.481511 
L 195.754663 459.452369 
L 198.291027 458.018221 
L 200.82739 463.292674 
L 203.363754 460.569488 
L 205.900118 461.194193 
L 208.436481 458.646273 
L 210.972845 459.690913 
L 213.509208 458.609167 
L 216.045572 459.93682 
L 218.581936 455.94914 
L 221.118299 458.977684 
L 223.654663 458.844553 
L 226.191027 460.268026 
L 228.72739 455.550434 
L 231.263754 457.333379 
L 233.800118 456.494227 
L 236.336481 456.769928 
L 241.409208 459.088915 
L 243.945572 456.210356 
L 246.481936 458.386979 
L 249.018299 455.99457 
L 251.554663 458.980413 
L 254.091027 459.182881 
M 261.700118 460.717328 
L 264.236481 461.60862 
L 266.772845 462.23722 
L 269.309208 459.43071 
M 276.918299 461.480209 
L 279.454663 457.528553 
L 281.991027 457.673749 
L 284.52739 457.157599 
L 287.063754 458.873043 
L 289.600118 455.855483 
L 292.136481 460.359983 
L 297.209208 460.083458 
L 299.745572 457.519628 
L 302.281936 458.353409 
L 304.818299 458.843815 
L 307.354663 458.546334 
L 309.891027 454.36499 
L 312.42739 458.279626 
L 314.963754 456.000817 
L 317.500118 456.391113 
L 320.036481 455.76749 
L 322.572845 457.183943 
L 325.109208 455.926399 
L 327.645572 457.181386 
L 330.181936 457.291708 
L 332.718299 459.517279 
L 335.254663 457.559394 
L 337.791027 459.565368 
L 340.32739 457.399404 
L 342.863754 460.719061 
L 345.400118 458.634447 
L 347.936481 458.862334 
L 350.472845 458.056717 
L 353.009208 460.931792 
L 355.545572 456.433848 
L 358.081936 456.756146 
L 360.618299 458.09892 
L 363.154663 462.413627 
L 365.691027 461.77908 
L 368.22739 461.579169 
L 370.763754 458.536569 
L 373.300118 460.610507 
L 375.836481 460.072869 
L 378.372845 460.58744 
L 380.909208 459.612017 
L 383.445572 462.205984 
L 385.981936 457.404329 
L 388.518299 461.561474 
L 391.054663 456.964192 
L 393.591027 458.954085 
L 396.12739 455.885758 
L 398.663754 459.576816 
L 401.200118 458.965361 
L 403.736481 459.034733 
L 406.272845 458.728568 
L 408.809208 459.674334 
L 411.345572 455.677403 
L 413.881936 458.546506 
L 416.418299 458.832659 
L 418.954663 459.514653 
L 421.491027 458.021036 
L 424.02739 460.114763 
L 426.563754 458.026425 
L 429.100118 462.56477 
L 431.636481 457.66927 
L 434.172845 458.675552 
L 436.709208 456.88454 
L 439.245572 459.068904 
L 441.781936 455.923345 
L 444.318299 459.221651 
L 446.854663 459.074224 
M 469.681936 460.690331 
L 472.218299 456.548976 
L 474.754663 457.788156 
L 477.291027 454.586389 
L 479.82739 459.653533 
L 482.363754 454.678913 
L 484.900118 459.110952 
L 487.436481 456.261261 
L 489.972845 458.585259 
L 492.509208 457.812441 
L 495.045572 457.945211 
L 497.581936 454.509071 
L 500.118299 456.881091 
L 502.654663 455.041989 
L 505.191027 457.133811 
L 507.72739 451.688968 
L 510.263754 455.772982 
L 512.800118 447.909763 
L 515.336481 455.525754 
L 517.872845 449.74193 
L 520.409208 456.079954 
L 522.945572 454.952864 
L 525.481936 459.229563 
L 528.018299 454.877468 
L 530.554663 456.404723 
L 533.091027 451.631576 
L 535.62739 454.836895 
L 538.163754 451.710095 
L 540.700118 456.092689 
L 543.236481 452.203505 
L 545.772845 456.89803 
L 548.309208 454.786231 
L 550.845572 458.472277 
L 553.381936 456.558604 
L 555.918299 460.176566 
L 558.454663 456.971298 
L 560.991027 459.785188 
L 563.52739 454.018029 
L 566.063754 456.745986 
L 568.600118 453.521582 
L 571.136481 454.262752 
L 573.672845 452.21001 
L 576.209208 456.646889 
L 578.745572 452.007198 
L 581.281936 455.41466 
L 583.818299 455.430655 
L 586.354663 457.025206 
L 588.891027 454.584552 
L 591.42739 456.223331 
L 593.963754 454.395729 
L 596.500118 458.035607 
L 599.036481 456.08361 
L 601.572845 460.465088 
L 604.109208 454.886925 
L 606.645572 456.753538 
L 609.181936 454.971554 
L 611.718299 458.556924 
L 614.254663 454.899144 
L 616.791027 455.240407 
L 619.32739 451.774781 
L 621.863754 453.175908 
L 624.400118 448.22015 
L 626.936481 450.21562 
L 629.472845 447.247472 
L 632.009208 452.424852 
L 634.545572 451.721062 
L 637.081936 456.13091 
L 642.154663 456.367463 
L 644.691027 455.9339 
L 647.22739 457.874055 
L 649.763754 457.492666 
L 652.300118 457.815273 
L 654.836481 453.661183 
L 657.372845 454.063013 
L 659.909208 451.612748 
L 662.445572 456.65511 
L 664.981936 454.113505 
L 667.518299 457.168411 
L 670.054663 453.844069 
L 672.591027 458.823288 
L 675.12739 454.79301 
L 677.663754 457.362641 
L 680.200118 455.276243 
L 682.736481 456.090749 
L 685.272845 452.320795 
L 687.809208 456.183531 
L 690.345572 454.949671 
L 692.881936 456.021206 
L 695.418299 456.846096 
L 697.954663 458.009228 
L 700.491027 457.918455 
L 703.02739 460.562228 
L 705.563754 459.20545 
L 705.563754 459.20545 
" clip-path="url(#p39bf9ed102)" style="fill: none; stroke: #0000ff; stroke-linecap: square"/>
   </g>
   <g id="line2d_14">
    <path d="M 96.836481 377.070642 
L 99.372845 339.579246 
L 101.909208 406.780685 
L 104.445572 382.158673 
L 106.981936 380.450523 
L 109.518299 355.243728 
L 112.054663 426.945428 
L 114.591027 347.620494 
L 117.12739 384.871201 
L 119.663754 352.710533 
L 122.200118 383.902059 
L 124.736481 348.877386 
L 127.272845 356.681085 
L 129.809208 384.843054 
L 132.345572 409.687665 
L 134.881936 411.692678 
L 137.418299 400.951054 
L 139.954663 375.362097 
L 142.491027 386.225474 
L 145.02739 381.667855 
L 147.563754 377.686405 
L 150.100118 299.189056 
L 152.636481 316.029181 
L 155.172845 296.460601 
L 157.709208 337.312021 
L 160.245572 397.381216 
L 162.781936 436.742658 
L 165.318299 420.364586 
L 167.854663 343.838457 
L 170.391027 310.184087 
L 172.92739 379.046788 
L 175.463754 372.0647 
L 178.000118 345.80482 
L 180.536481 357.11228 
L 183.072845 401.909161 
L 185.609208 417.547675 
L 188.145572 374.449351 
L 190.681936 318.566392 
L 193.218299 409.582321 
L 195.754663 360.694853 
L 198.291027 330.776266 
L 200.82739 332.011259 
L 203.363754 388.782095 
L 205.900118 351.15393 
L 208.436481 345.21487 
L 210.972845 314.800814 
L 213.509208 399.266468 
L 216.045572 395.837725 
L 221.118299 418.702192 
L 223.654663 405.605075 
L 226.191027 347.732343 
L 228.72739 363.093406 
L 231.263754 278.123135 
L 233.800118 343.974643 
L 236.336481 356.724661 
L 238.872845 371.974905 
L 241.409208 351.831856 
L 243.945572 384.60614 
L 246.481936 346.097546 
L 249.018299 379.849847 
L 251.554663 389.271369 
L 254.091027 412.580212 
L 256.62739 438.730972 
L 259.163754 408.330732 
L 261.700118 379.798942 
L 264.236481 406.64201 
L 266.772845 403.704051 
L 269.309208 341.513205 
L 271.845572 352.738405 
L 274.381936 396.561784 
L 276.918299 390.93917 
L 279.454663 362.508296 
L 284.52739 403.960891 
L 287.063754 435.521036 
L 289.600118 458.394959 
L 292.136481 400.308037 
L 294.672845 462.73384 
L 297.209208 422.529384 
L 299.745572 373.4326 
L 302.281936 372.502022 
L 304.818299 406.711725 
L 307.354663 394.807655 
L 309.891027 373.989752 
L 312.42739 342.011215 
L 314.963754 391.523525 
L 317.500118 358.71742 
L 320.036481 269.463223 
L 322.572845 350.218512 
L 325.109208 399.513388 
L 327.645572 411.489026 
L 330.181936 388.647574 
L 332.718299 412.295329 
L 335.254663 412.604755 
L 337.791027 443.390897 
L 340.32739 387.680594 
L 345.400118 424.78087 
L 347.936481 412.646666 
L 350.472845 384.532512 
L 353.009208 398.901452 
L 355.545572 410.792255 
L 358.081936 415.825074 
L 360.618299 422.911854 
L 363.154663 392.543589 
L 365.691027 433.025307 
L 368.22739 389.461549 
L 370.763754 383.333802 
L 373.300118 350.24913 
L 375.836481 432.370791 
L 378.372845 380.933464 
L 380.909208 363.776618 
L 383.445572 361.120556 
L 385.981936 424.253993 
L 388.518299 394.791797 
L 391.054663 393.752579 
L 393.591027 354.544263 
L 396.12739 437.263528 
L 398.663754 418.813698 
L 401.200118 379.252843 
L 403.736481 321.985541 
L 406.272845 340.754014 
L 408.809208 364.234381 
L 411.345572 389.650801 
L 413.881936 387.127201 
L 416.418299 394.922662 
L 418.954663 432.771746 
L 421.491027 363.498909 
L 424.02739 384.916356 
L 426.563754 424.023018 
L 429.100118 446.804177 
L 431.636481 379.792901 
L 434.172845 350.010157 
L 436.709208 404.954867 
L 439.245572 372.677562 
L 441.781936 296.634459 
L 444.318299 335.742254 
L 446.854663 342.020912 
L 449.391027 420.027563 
L 451.92739 402.672763 
L 454.463754 352.380186 
L 457.000118 433.671894 
L 459.536481 387.822581 
L 462.072845 363.590695 
L 464.609208 314.240281 
L 467.145572 332.231954 
L 469.681936 352.604914 
L 472.218299 363.235771 
L 474.754663 303.996666 
L 477.291027 391.717875 
L 479.82739 401.775601 
L 482.363754 394.100312 
L 484.900118 364.389944 
L 487.436481 388.191201 
L 489.972845 383.338367 
L 492.509208 345.451474 
L 495.045572 290.51308 
L 497.581936 374.115503 
L 500.118299 365.502703 
L 502.654663 345.778664 
L 505.191027 337.702507 
L 507.72739 382.73963 
L 510.263754 382.53766 
L 512.800118 367.330958 
L 515.336481 374.818589 
L 517.872845 407.596907 
L 520.409208 392.436665 
L 522.945572 369.160946 
L 525.481936 395.140611 
L 528.018299 406.956791 
L 530.554663 365.994311 
L 533.091027 345.786164 
L 535.62739 340.191765 
L 538.163754 388.234039 
L 540.700118 330.084542 
L 543.236481 343.284531 
L 545.772845 333.751829 
L 548.309208 416.604775 
L 550.845572 408.014287 
L 553.381936 351.196665 
L 558.454663 407.907844 
L 560.991027 348.218922 
L 563.52739 402.896255 
L 566.063754 407.966592 
L 568.600118 424.752723 
L 571.136481 462.504666 
L 573.672845 403.504346 
L 576.209208 397.565921 
L 578.745572 394.608637 
L 581.281936 427.534159 
L 583.818299 340.232698 
L 586.354663 332.619247 
L 588.891027 385.908084 
L 591.42739 396.308772 
L 593.963754 393.560512 
L 596.500118 385.735153 
L 599.036481 400.489206 
L 601.572845 376.705558 
L 604.109208 400.460339 
L 606.645572 320.84908 
L 609.181936 372.650273 
L 611.718299 378.862066 
L 614.254663 413.73387 
L 616.791027 369.222629 
L 619.32739 420.305907 
L 621.863754 382.809825 
L 626.936481 318.681691 
L 629.472845 394.448372 
L 632.009208 401.344783 
L 634.545572 365.97641 
L 637.081936 385.842403 
L 639.618299 427.693738 
L 642.154663 430.870447 
L 644.691027 400.522107 
L 647.22739 367.973237 
L 649.763754 418.85022 
L 652.300118 399.564738 
L 654.836481 376.630866 
L 657.372845 339.464754 
L 659.909208 418.052344 
L 662.445572 375.502093 
L 664.981936 379.881357 
L 667.518299 367.46469 
L 670.054663 430.142629 
L 672.591027 398.69526 
L 675.12739 335.824892 
L 677.663754 330.659166 
L 680.200118 411.658353 
L 682.736481 408.252058 
L 685.272845 384.981025 
L 687.809208 386.425179 
L 690.345572 380.610874 
L 692.881936 414.751737 
L 695.418299 433.89621 
L 697.954663 400.031632 
L 700.491027 427.68229 
L 703.02739 436.580831 
L 705.563754 426.013631 
L 705.563754 426.013631 
" clip-path="url(#p39bf9ed102)" style="fill: none; stroke: #ffa500; stroke-linecap: square"/>
   </g>
   <g id="line2d_15">
    <path d="M 96.836481 445.825407 
L 99.372845 449.041641 
L 101.909208 448.460702 
L 104.445572 449.896051 
L 106.981936 447.796867 
L 109.518299 451.880932 
L 112.054663 449.373928 
L 114.591027 450.753842 
L 117.12739 447.31729 
L 119.663754 450.860971 
M 127.272845 445.746355 
L 129.809208 451.245038 
L 132.345572 448.378956 
L 134.881936 449.854157 
L 137.418299 447.979821 
L 139.954663 452.070803 
L 142.491027 447.766214 
L 145.02739 453.175565 
L 147.563754 449.871577 
L 150.100118 450.979463 
L 152.636481 448.255333 
L 155.172845 451.699952 
L 157.709208 447.215086 
L 160.245572 451.447901 
L 162.781936 445.186714 
L 165.318299 452.262356 
L 167.854663 449.635779 
L 170.391027 453.452124 
L 172.92739 449.532717 
L 175.463754 452.586233 
L 178.000118 450.161163 
L 180.536481 453.82452 
L 183.072845 448.620486 
L 185.609208 451.080585 
L 188.145572 447.875901 
L 190.681936 447.16564 
L 193.218299 446.01236 
L 195.754663 448.909918 
L 198.291027 446.203535 
L 200.82739 450.650025 
L 203.363754 446.582023 
L 205.900118 448.953442 
L 208.436481 445.481449 
L 210.972845 449.151157 
L 213.509208 445.174958 
L 216.045572 447.001102 
L 218.581936 442.82954 
L 221.118299 446.772254 
L 223.654663 446.956891 
L 226.191027 443.941819 
L 228.72739 439.985736 
L 231.263754 445.766573 
L 233.800118 440.501234 
L 236.336481 446.035512 
L 238.872845 442.577953 
L 241.409208 447.617156 
L 243.945572 443.367556 
L 246.481936 447.272426 
L 249.018299 446.070936 
L 251.554663 448.696517 
L 254.091027 446.226807 
M 261.700118 451.554601 
L 264.236481 449.872847 
L 266.772845 449.682136 
L 269.309208 446.906793 
M 276.918299 450.585716 
L 279.454663 442.237994 
L 281.991027 446.954556 
L 284.52739 444.807162 
L 287.063754 447.354224 
L 289.600118 442.714928 
L 292.136481 449.046584 
L 294.672845 445.171663 
L 297.209208 448.186597 
L 299.745572 445.016255 
L 302.281936 450.705306 
L 304.818299 446.383691 
L 307.354663 443.981723 
L 309.891027 442.899341 
L 312.42739 445.544505 
L 314.963754 442.377166 
L 317.500118 447.109999 
L 320.036481 443.905658 
L 322.572845 445.710056 
L 325.109208 443.210483 
L 327.645572 446.463446 
L 330.181936 447.967738 
L 332.718299 447.35134 
L 335.254663 444.884857 
L 337.791027 447.894076 
L 340.32739 443.685924 
L 342.863754 447.504483 
L 345.400118 444.915218 
L 347.936481 448.030502 
L 350.472845 446.226413 
L 353.009208 447.654159 
L 355.545572 443.675317 
L 358.081936 449.314082 
L 360.618299 445.8021 
L 363.154663 449.669281 
L 365.691027 447.873961 
L 368.22739 447.741671 
L 370.763754 444.877134 
L 373.300118 449.758424 
L 375.836481 447.588992 
L 378.372845 450.222554 
L 380.909208 445.860487 
L 383.445572 447.687815 
L 385.981936 447.839808 
L 388.518299 447.554152 
L 391.054663 445.017851 
L 393.591027 444.1672 
L 396.12739 446.018658 
L 398.663754 450.414261 
L 401.200118 445.833799 
L 403.736481 447.932074 
L 406.272845 446.388874 
L 408.809208 445.833679 
L 411.345572 443.793259 
L 413.881936 448.058306 
L 416.418299 446.426976 
L 418.954663 447.790465 
L 421.491027 446.826489 
L 424.02739 448.523294 
L 426.563754 446.428726 
L 429.100118 451.094762 
L 431.636481 443.304947 
L 434.172845 447.206522 
L 436.709208 443.605191 
L 439.245572 444.320411 
L 441.781936 445.824222 
L 444.318299 446.385253 
L 446.854663 446.45387 
M 469.681936 445.70223 
L 472.218299 440.651751 
L 474.754663 442.572478 
L 477.291027 444.668436 
L 479.82739 444.595237 
L 482.363754 443.640185 
L 484.900118 444.435367 
L 487.436481 444.178338 
L 489.972845 446.647602 
L 492.509208 441.421154 
L 495.045572 441.780763 
L 497.581936 441.712336 
L 500.118299 444.681428 
L 502.654663 441.686523 
L 505.191027 439.687689 
L 507.72739 440.157774 
L 510.263754 436.781377 
L 512.800118 436.866865 
L 515.336481 440.558901 
L 517.872845 440.426782 
L 520.409208 445.975134 
L 522.945572 443.844198 
L 525.481936 443.291714 
L 528.018299 440.003345 
L 530.554663 440.464592 
L 533.091027 438.001472 
L 535.62739 440.842377 
L 538.163754 440.256923 
L 540.700118 442.841606 
L 543.236481 441.022619 
L 545.772845 443.912832 
L 548.309208 443.695398 
L 550.845572 447.85776 
L 553.381936 444.961111 
L 555.918299 447.05573 
L 558.454663 445.320738 
L 560.991027 447.659102 
L 563.52739 440.894379 
L 566.063754 442.112913 
L 568.600118 441.308189 
L 571.136481 443.745307 
L 573.672845 442.153554 
L 576.209208 444.003228 
L 578.745572 440.816495 
L 581.281936 444.058354 
L 583.818299 442.107644 
L 586.354663 442.298355 
L 588.891027 441.770878 
L 591.42739 445.632326 
L 593.963754 442.571705 
L 596.500118 445.392598 
L 599.036481 444.096747 
L 601.572845 445.79103 
L 604.109208 443.226891 
L 606.645572 443.691347 
L 609.181936 443.729431 
L 611.718299 447.037864 
L 614.254663 439.031302 
L 616.791027 442.641283 
L 619.32739 439.085896 
L 621.863754 436.95436 
L 624.400118 434.5925 
L 626.936481 438.850356 
L 629.472845 437.37155 
L 632.009208 442.138107 
L 634.545572 442.183812 
L 637.081936 446.588133 
L 639.618299 442.192547 
L 642.154663 445.630541 
L 644.691027 443.136409 
L 647.22739 445.013886 
L 649.763754 443.660403 
L 652.300118 446.012463 
L 654.836481 440.068614 
L 657.372845 441.096075 
L 659.909208 440.366112 
L 662.445572 445.845384 
L 664.981936 441.823859 
L 667.518299 444.795217 
L 670.054663 443.038839 
L 672.591027 445.320841 
L 675.12739 442.808053 
L 677.663754 444.940482 
L 680.200118 441.173273 
L 682.736481 445.245874 
L 685.272845 440.380083 
L 687.809208 444.688636 
L 690.345572 442.21431 
L 692.881936 448.70908 
L 695.418299 442.848883 
L 697.954663 444.146072 
L 700.491027 446.544197 
L 703.02739 448.640378 
L 705.563754 445.631623 
L 705.563754 445.631623 
" clip-path="url(#p39bf9ed102)" style="fill: none; stroke-dasharray: 3.7,1.6; stroke-dashoffset: 0; stroke: #0000ff"/>
   </g>
   <g id="line2d_16">
    <path d="M 96.836481 236.658578 
L 99.372845 330.77721 
L 101.909208 296.627731 
L 104.445572 325.918816 
L 106.981936 306.500392 
L 109.518299 377.974721 
L 112.054663 279.336536 
L 114.591027 308.553426 
L 117.12739 266.061992 
L 119.663754 323.721032 
L 122.200118 249.287874 
L 124.736481 269.624175 
L 127.272845 283.643442 
L 129.809208 335.289228 
L 132.345572 377.144493 
L 134.881936 368.173148 
L 137.418299 300.53207 
L 139.954663 284.04426 
L 142.491027 209.149683 
L 145.02739 207.0742 
L 147.563754 160.664286 
L 150.100118 210.298004 
L 152.636481 126.711834 
L 155.172845 181.372365 
L 157.709208 334.464338 
L 160.245572 381.703313 
L 162.781936 334.196892 
L 165.318299 275.924698 
L 167.854663 200.850978 
L 170.391027 272.773973 
L 172.92739 294.097334 
L 175.463754 168.703285 
L 178.000118 138.679269 
L 180.536481 185.975567 
L 183.072845 264.727628 
L 185.609208 245.065545 
L 188.145572 147.931739 
L 190.681936 255.739257 
L 193.218299 218.759824 
L 195.754663 236.172119 
L 198.291027 193.218356 
L 200.82739 276.946358 
L 203.363754 229.802842 
L 205.900118 272.965749 
L 208.436481 219.217861 
L 210.972845 301.78347 
L 213.509208 332.448324 
L 216.045572 308.488998 
L 218.581936 297.953995 
L 221.118299 282.869852 
L 223.654663 187.468446 
L 226.191027 200.057067 
L 228.72739 137.823881 
L 231.263754 210.03363 
L 233.800118 222.169739 
L 236.336481 272.927991 
L 238.872845 269.440157 
L 241.409208 261.029036 
L 243.945572 217.147218 
L 246.481936 275.21612 
L 249.018299 314.221814 
L 251.554663 383.120058 
L 254.091027 378.259707 
L 256.62739 382.350758 
L 259.163754 298.073001 
L 261.700118 359.485399 
L 264.236481 317.920268 
L 266.772845 318.754117 
L 269.309208 303.454462 
L 271.845572 344.078666 
L 274.381936 332.422888 
L 276.918299 250.698303 
L 279.454663 269.402159 
L 284.52739 359.00771 
L 287.063754 419.689578 
L 289.600118 380.263501 
L 292.136481 426.689824 
L 294.672845 400.771687 
L 297.209208 338.986516 
L 299.745572 304.687567 
L 302.281936 375.602409 
L 304.818299 307.017366 
L 307.354663 283.438623 
L 309.891027 232.197722 
L 312.42739 292.959174 
L 317.500118 191.972345 
L 320.036481 196.794647 
L 322.572845 354.984743 
L 325.109208 361.067249 
L 327.645572 326.545305 
L 330.181936 323.152964 
L 332.718299 390.864203 
L 335.254663 396.362543 
L 337.791027 386.455711 
L 340.32739 366.91629 
L 342.863754 379.23223 
L 345.400118 303.671845 
L 347.936481 336.505856 
L 350.472845 326.886448 
L 353.009208 362.583228 
L 355.545572 351.959323 
L 358.081936 349.383187 
L 360.618299 326.13141 
L 363.154663 348.261554 
L 365.691027 321.718713 
L 368.22739 292.911908 
L 370.763754 280.016144 
L 373.300118 358.778811 
L 375.836481 322.199629 
L 378.372845 299.016983 
L 380.909208 284.425134 
L 383.445572 359.84403 
L 385.981936 324.414799 
L 388.518299 330.805872 
L 391.054663 283.768833 
L 393.591027 367.141962 
L 396.12739 344.267181 
L 398.663754 339.403912 
L 401.200118 239.710205 
L 403.736481 266.679162 
L 406.272845 192.910972 
L 408.809208 206.304351 
L 411.345572 290.885785 
L 416.418299 354.060893 
L 418.954663 356.310577 
L 421.491027 349.376528 
L 424.02739 374.808687 
L 426.563754 392.302762 
L 429.100118 365.048544 
L 431.636481 267.4613 
L 434.172845 331.244962 
L 436.709208 298.642081 
L 439.245572 176.297943 
L 441.781936 276.784102 
L 444.318299 279.714081 
L 446.854663 345.564782 
L 449.391027 373.554524 
L 451.92739 284.929717 
L 454.463754 355.86754 
L 457.000118 348.344176 
L 459.536481 309.892115 
L 462.072845 184.855016 
L 464.609208 93.939523 
L 467.145572 61.037187 
L 469.681936 138.236952 
L 472.218299 149.344605 
L 474.754663 243.231027 
L 477.291027 313.877702 
L 479.82739 338.458643 
L 482.363754 309.076854 
L 484.900118 268.389423 
L 487.436481 190.431549 
L 489.972845 161.52623 
L 492.509208 127.999447 
L 495.045572 189.986898 
L 497.581936 221.765833 
L 500.118299 212.259493 
L 502.654663 247.105536 
L 505.191027 301.353167 
L 507.72739 270.30955 
L 510.263754 299.246242 
L 512.800118 296.299684 
L 515.336481 353.691913 
L 517.872845 309.256444 
L 520.409208 324.407504 
L 522.945572 316.899329 
L 525.481936 359.157471 
L 528.018299 251.930378 
L 530.554663 244.028508 
L 533.091027 206.951281 
L 535.62739 271.341542 
L 538.163754 166.653581 
L 540.700118 185.528411 
L 543.236481 264.086224 
L 545.772845 376.557615 
L 548.309208 283.304102 
L 550.845572 248.553414 
L 553.381936 290.006095 
L 555.918299 273.43326 
L 558.454663 154.198348 
L 560.991027 150.908571 
L 563.52739 306.256579 
L 566.063754 411.616098 
L 568.600118 423.191125 
L 571.136481 402.567195 
L 573.672845 371.872564 
L 576.209208 378.553103 
L 578.745572 366.05112 
L 581.281936 253.592034 
L 583.818299 253.217613 
L 586.354663 268.10387 
L 588.891027 299.756282 
L 591.42739 247.718965 
L 593.963754 252.8031 
L 596.500118 292.35086 
L 599.036481 290.136531 
L 601.572845 302.214871 
L 604.109208 272.35184 
L 606.645572 255.632025 
L 609.181936 290.433377 
L 611.718299 282.067737 
L 614.254663 304.733734 
L 616.791027 357.193494 
L 619.32739 326.335079 
L 621.863754 284.729222 
L 624.400118 226.136275 
L 626.936481 345.755237 
L 629.472845 340.565877 
L 632.009208 304.992754 
L 634.545572 318.817482 
L 637.081936 353.271238 
L 639.618299 332.341795 
L 642.154663 346.634069 
L 644.691027 311.290325 
L 647.22739 373.533465 
L 649.763754 342.924201 
L 652.300118 307.095834 
L 654.836481 252.935596 
L 657.372845 325.125917 
L 659.909208 314.505684 
L 662.445572 307.638278 
L 664.981936 281.320233 
L 667.518299 386.356133 
L 670.054663 334.847529 
L 672.591027 278.137689 
L 675.12739 243.45064 
L 677.663754 354.816085 
L 680.200118 311.183195 
L 682.736481 284.706259 
L 685.272845 271.453511 
L 687.809208 314.407342 
L 690.345572 331.237874 
L 692.881936 386.267951 
L 695.418299 345.549851 
L 697.954663 372.580112 
L 700.491027 354.803642 
L 703.02739 363.608372 
L 705.563754 344.772055 
L 705.563754 344.772055 
" clip-path="url(#p39bf9ed102)" style="fill: none; stroke-dasharray: 3.7,1.6; stroke-dashoffset: 0; stroke: #ffa500"/>
   </g>
   <g id="patch_3">
    <path d="M 66.400118 484.397187 
L 66.400118 40.877187 
" style="fill: none; stroke: #000000; stroke-width: 0.8; stroke-linejoin: miter; stroke-linecap: square"/>
   </g>
   <g id="patch_4">
    <path d="M 736.000118 484.397187 
L 736.000118 40.877187 
" style="fill: none; stroke: #000000; stroke-width: 0.8; stroke-linejoin: miter; stroke-linecap: square"/>
   </g>
   <g id="patch_5">
    <path d="M 66.400118 484.397187 
L 736.000118 484.397187 
" style="fill: none; stroke: #000000; stroke-width: 0.8; stroke-linejoin: miter; stroke-linecap: square"/>
   </g>
   <g id="patch_6">
    <path d="M 66.400118 40.877187 
L 736.000118 40.877187 
" style="fill: none; stroke: #000000; stroke-width: 0.8; stroke-linejoin: miter; stroke-linecap: square"/>
   </g>
   <g id="text_15">
    <!-- Ten-meter eastward wind speed two steps forward prediction: RMSES -->
    <g transform="translate(88.547149 20.877187) scale(0.18 -0.18)">
     <defs>
      <path id="DejaVuSans-54" d="M -19 4666 
L 3928 4666 
L 3928 4134 
L 2272 4134 
L 2272 0 
L 1638 0 
L 1638 4134 
L -19 4134 
L -19 4666 
z
" transform="scale(0.015625)"/>
      <path id="DejaVuSans-6d" d="M 3328 2828 
Q 3544 3216 3844 3400 
Q 4144 3584 4550 3584 
Q 5097 3584 5394 3201 
Q 5691 2819 5691 2113 
L 5691 0 
L 5113 0 
L 5113 2094 
Q 5113 2597 4934 2840 
Q 4756 3084 4391 3084 
Q 3944 3084 3684 2787 
Q 3425 2491 3425 1978 
L 3425 0 
L 2847 0 
L 2847 2094 
Q 2847 2600 2669 2842 
Q 2491 3084 2119 3084 
Q 1678 3084 1418 2786 
Q 1159 2488 1159 1978 
L 1159 0 
L 581 0 
L 581 3500 
L 1159 3500 
L 1159 2956 
Q 1356 3278 1631 3431 
Q 1906 3584 2284 3584 
Q 2666 3584 2933 3390 
Q 3200 3197 3328 2828 
z
" transform="scale(0.015625)"/>
      <path id="DejaVuSans-77" d="M 269 3500 
L 844 3500 
L 1563 769 
L 2278 3500 
L 2956 3500 
L 3675 769 
L 4391 3500 
L 4966 3500 
L 4050 0 
L 3372 0 
L 2619 2869 
L 1863 0 
L 1184 0 
L 269 3500 
z
" transform="scale(0.015625)"/>
      <path id="DejaVuSans-69" d="M 603 3500 
L 1178 3500 
L 1178 0 
L 603 0 
L 603 3500 
z
M 603 4863 
L 1178 4863 
L 1178 4134 
L 603 4134 
L 603 4863 
z
" transform="scale(0.015625)"/>
      <path id="DejaVuSans-70" d="M 1159 525 
L 1159 -1331 
L 581 -1331 
L 581 3500 
L 1159 3500 
L 1159 2969 
Q 1341 3281 1617 3432 
Q 1894 3584 2278 3584 
Q 2916 3584 3314 3078 
Q 3713 2572 3713 1747 
Q 3713 922 3314 415 
Q 2916 -91 2278 -91 
Q 1894 -91 1617 61 
Q 1341 213 1159 525 
z
M 3116 1747 
Q 3116 2381 2855 2742 
Q 2594 3103 2138 3103 
Q 1681 3103 1420 2742 
Q 1159 2381 1159 1747 
Q 1159 1113 1420 752 
Q 1681 391 2138 391 
Q 2594 391 2855 752 
Q 3116 1113 3116 1747 
z
" transform="scale(0.015625)"/>
      <path id="DejaVuSans-66" d="M 2375 4863 
L 2375 4384 
L 1825 4384 
Q 1516 4384 1395 4259 
Q 1275 4134 1275 3809 
L 1275 3500 
L 2222 3500 
L 2222 3053 
L 1275 3053 
L 1275 0 
L 697 0 
L 697 3053 
L 147 3053 
L 147 3500 
L 697 3500 
L 697 3744 
Q 697 4328 969 4595 
Q 1241 4863 1831 4863 
L 2375 4863 
z
" transform="scale(0.015625)"/>
     </defs>
     <use xlink:href="#DejaVuSans-54"/>
     <use xlink:href="#DejaVuSans-65" transform="translate(44.083984 0)"/>
     <use xlink:href="#DejaVuSans-6e" transform="translate(105.607422 0)"/>
     <use xlink:href="#DejaVuSans-2d" transform="translate(168.986328 0)"/>
     <use xlink:href="#DejaVuSans-6d" transform="translate(205.070312 0)"/>
     <use xlink:href="#DejaVuSans-65" transform="translate(302.482422 0)"/>
     <use xlink:href="#DejaVuSans-74" transform="translate(364.005859 0)"/>
     <use xlink:href="#DejaVuSans-65" transform="translate(403.214844 0)"/>
     <use xlink:href="#DejaVuSans-72" transform="translate(464.738281 0)"/>
     <use xlink:href="#DejaVuSans-20" transform="translate(505.851562 0)"/>
     <use xlink:href="#DejaVuSans-65" transform="translate(537.638672 0)"/>
     <use xlink:href="#DejaVuSans-61" transform="translate(599.162109 0)"/>
     <use xlink:href="#DejaVuSans-73" transform="translate(660.441406 0)"/>
     <use xlink:href="#DejaVuSans-74" transform="translate(712.541016 0)"/>
     <use xlink:href="#DejaVuSans-77" transform="translate(751.75 0)"/>
     <use xlink:href="#DejaVuSans-61" transform="translate(833.537109 0)"/>
     <use xlink:href="#DejaVuSans-72" transform="translate(894.816406 0)"/>
     <use xlink:href="#DejaVuSans-64" transform="translate(934.179688 0)"/>
     <use xlink:href="#DejaVuSans-20" transform="translate(997.65625 0)"/>
     <use xlink:href="#DejaVuSans-77" transform="translate(1029.443359 0)"/>
     <use xlink:href="#DejaVuSans-69" transform="translate(1111.230469 0)"/>
     <use xlink:href="#DejaVuSans-6e" transform="translate(1139.013672 0)"/>
     <use xlink:href="#DejaVuSans-64" transform="translate(1202.392578 0)"/>
     <use xlink:href="#DejaVuSans-20" transform="translate(1265.869141 0)"/>
     <use xlink:href="#DejaVuSans-73" transform="translate(1297.65625 0)"/>
     <use xlink:href="#DejaVuSans-70" transform="translate(1349.755859 0)"/>
     <use xlink:href="#DejaVuSans-65" transform="translate(1413.232422 0)"/>
     <use xlink:href="#DejaVuSans-65" transform="translate(1474.755859 0)"/>
     <use xlink:href="#DejaVuSans-64" transform="translate(1536.279297 0)"/>
     <use xlink:href="#DejaVuSans-20" transform="translate(1599.755859 0)"/>
     <use xlink:href="#DejaVuSans-74" transform="translate(1631.542969 0)"/>
     <use xlink:href="#DejaVuSans-77" transform="translate(1670.751953 0)"/>
     <use xlink:href="#DejaVuSans-6f" transform="translate(1752.539062 0)"/>
     <use xlink:href="#DejaVuSans-20" transform="translate(1813.720703 0)"/>
     <use xlink:href="#DejaVuSans-73" transform="translate(1845.507812 0)"/>
     <use xlink:href="#DejaVuSans-74" transform="translate(1897.607422 0)"/>
     <use xlink:href="#DejaVuSans-65" transform="translate(1936.816406 0)"/>
     <use xlink:href="#DejaVuSans-70" transform="translate(1998.339844 0)"/>
     <use xlink:href="#DejaVuSans-73" transform="translate(2061.816406 0)"/>
     <use xlink:href="#DejaVuSans-20" transform="translate(2113.916016 0)"/>
     <use xlink:href="#DejaVuSans-66" transform="translate(2145.703125 0)"/>
     <use xlink:href="#DejaVuSans-6f" transform="translate(2180.908203 0)"/>
     <use xlink:href="#DejaVuSans-72" transform="translate(2242.089844 0)"/>
     <use xlink:href="#DejaVuSans-77" transform="translate(2283.203125 0)"/>
     <use xlink:href="#DejaVuSans-61" transform="translate(2364.990234 0)"/>
     <use xlink:href="#DejaVuSans-72" transform="translate(2426.269531 0)"/>
     <use xlink:href="#DejaVuSans-64" transform="translate(2465.632812 0)"/>
     <use xlink:href="#DejaVuSans-20" transform="translate(2529.109375 0)"/>
     <use xlink:href="#DejaVuSans-70" transform="translate(2560.896484 0)"/>
     <use xlink:href="#DejaVuSans-72" transform="translate(2624.373047 0)"/>
     <use xlink:href="#DejaVuSans-65" transform="translate(2663.236328 0)"/>
     <use xlink:href="#DejaVuSans-64" transform="translate(2724.759766 0)"/>
     <use xlink:href="#DejaVuSans-69" transform="translate(2788.236328 0)"/>
     <use xlink:href="#DejaVuSans-63" transform="translate(2816.019531 0)"/>
     <use xlink:href="#DejaVuSans-74" transform="translate(2871 0)"/>
     <use xlink:href="#DejaVuSans-69" transform="translate(2910.208984 0)"/>
     <use xlink:href="#DejaVuSans-6f" transform="translate(2937.992188 0)"/>
     <use xlink:href="#DejaVuSans-6e" transform="translate(2999.173828 0)"/>
     <use xlink:href="#DejaVuSans-3a" transform="translate(3062.552734 0)"/>
     <use xlink:href="#DejaVuSans-20" transform="translate(3096.244141 0)"/>
     <use xlink:href="#DejaVuSans-52" transform="translate(3128.03125 0)"/>
     <use xlink:href="#DejaVuSans-4d" transform="translate(3197.513672 0)"/>
     <use xlink:href="#DejaVuSans-53" transform="translate(3283.792969 0)"/>
     <use xlink:href="#DejaVuSans-45" transform="translate(3347.269531 0)"/>
     <use xlink:href="#DejaVuSans-53" transform="translate(3410.453125 0)"/>
    </g>
   </g>
   <g id="legend_1">
    <g id="text_16">
     <!-- Forecast Horizon -->
     <g transform="translate(852.099961 65.634687) scale(0.16 -0.16)">
      <defs>
       <path id="DejaVuSans-48" d="M 628 4666 
L 1259 4666 
L 1259 2753 
L 3553 2753 
L 3553 4666 
L 4184 4666 
L 4184 0 
L 3553 0 
L 3553 2222 
L 1259 2222 
L 1259 0 
L 628 0 
L 628 4666 
z
" transform="scale(0.015625)"/>
       <path id="DejaVuSans-7a" d="M 353 3500 
L 3084 3500 
L 3084 2975 
L 922 459 
L 3084 459 
L 3084 0 
L 275 0 
L 275 525 
L 2438 3041 
L 353 3041 
L 353 3500 
z
" transform="scale(0.015625)"/>
      </defs>
      <use xlink:href="#DejaVuSans-46"/>
      <use xlink:href="#DejaVuSans-6f" transform="translate(53.894531 0)"/>
      <use xlink:href="#DejaVuSans-72" transform="translate(115.076172 0)"/>
      <use xlink:href="#DejaVuSans-65" transform="translate(153.939453 0)"/>
      <use xlink:href="#DejaVuSans-63" transform="translate(215.462891 0)"/>
      <use xlink:href="#DejaVuSans-61" transform="translate(270.443359 0)"/>
      <use xlink:href="#DejaVuSans-73" transform="translate(331.722656 0)"/>
      <use xlink:href="#DejaVuSans-74" transform="translate(383.822266 0)"/>
      <use xlink:href="#DejaVuSans-20" transform="translate(423.03125 0)"/>
      <use xlink:href="#DejaVuSans-48" transform="translate(454.818359 0)"/>
      <use xlink:href="#DejaVuSans-6f" transform="translate(530.013672 0)"/>
      <use xlink:href="#DejaVuSans-72" transform="translate(591.195312 0)"/>
      <use xlink:href="#DejaVuSans-69" transform="translate(632.308594 0)"/>
      <use xlink:href="#DejaVuSans-7a" transform="translate(660.091797 0)"/>
      <use xlink:href="#DejaVuSans-6f" transform="translate(712.582031 0)"/>
      <use xlink:href="#DejaVuSans-6e" transform="translate(773.763672 0)"/>
     </g>
    </g>
    <g id="line2d_17">
     <path d="M 782.080118 81.7 
L 796.080118 81.7 
L 810.080118 81.7 
" style="fill: none; stroke: #0000ff; stroke-linecap: square"/>
    </g>
    <g id="text_17">
     <!-- Global RMSE (6h Forecast) -->
     <g transform="translate(821.280118 86.6) scale(0.14 -0.14)">
      <defs>
       <path id="DejaVuSans-47" d="M 3809 666 
L 3809 1919 
L 2778 1919 
L 2778 2438 
L 4434 2438 
L 4434 434 
Q 4069 175 3628 42 
Q 3188 -91 2688 -91 
Q 1594 -91 976 548 
Q 359 1188 359 2328 
Q 359 3472 976 4111 
Q 1594 4750 2688 4750 
Q 3144 4750 3555 4637 
Q 3966 4525 4313 4306 
L 4313 3634 
Q 3963 3931 3569 4081 
Q 3175 4231 2741 4231 
Q 1884 4231 1454 3753 
Q 1025 3275 1025 2328 
Q 1025 1384 1454 906 
Q 1884 428 2741 428 
Q 3075 428 3337 486 
Q 3600 544 3809 666 
z
" transform="scale(0.015625)"/>
       <path id="DejaVuSans-6c" d="M 603 4863 
L 1178 4863 
L 1178 0 
L 603 0 
L 603 4863 
z
" transform="scale(0.015625)"/>
       <path id="DejaVuSans-62" d="M 3116 1747 
Q 3116 2381 2855 2742 
Q 2594 3103 2138 3103 
Q 1681 3103 1420 2742 
Q 1159 2381 1159 1747 
Q 1159 1113 1420 752 
Q 1681 391 2138 391 
Q 2594 391 2855 752 
Q 3116 1113 3116 1747 
z
M 1159 2969 
Q 1341 3281 1617 3432 
Q 1894 3584 2278 3584 
Q 2916 3584 3314 3078 
Q 3713 2572 3713 1747 
Q 3713 922 3314 415 
Q 2916 -91 2278 -91 
Q 1894 -91 1617 61 
Q 1341 213 1159 525 
L 1159 0 
L 581 0 
L 581 4863 
L 1159 4863 
L 1159 2969 
z
" transform="scale(0.015625)"/>
       <path id="DejaVuSans-36" d="M 2113 2584 
Q 1688 2584 1439 2293 
Q 1191 2003 1191 1497 
Q 1191 994 1439 701 
Q 1688 409 2113 409 
Q 2538 409 2786 701 
Q 3034 994 3034 1497 
Q 3034 2003 2786 2293 
Q 2538 2584 2113 2584 
z
M 3366 4563 
L 3366 3988 
Q 3128 4100 2886 4159 
Q 2644 4219 2406 4219 
Q 1781 4219 1451 3797 
Q 1122 3375 1075 2522 
Q 1259 2794 1537 2939 
Q 1816 3084 2150 3084 
Q 2853 3084 3261 2657 
Q 3669 2231 3669 1497 
Q 3669 778 3244 343 
Q 2819 -91 2113 -91 
Q 1303 -91 875 529 
Q 447 1150 447 2328 
Q 447 3434 972 4092 
Q 1497 4750 2381 4750 
Q 2619 4750 2861 4703 
Q 3103 4656 3366 4563 
z
" transform="scale(0.015625)"/>
       <path id="DejaVuSans-68" d="M 3513 2113 
L 3513 0 
L 2938 0 
L 2938 2094 
Q 2938 2591 2744 2837 
Q 2550 3084 2163 3084 
Q 1697 3084 1428 2787 
Q 1159 2491 1159 1978 
L 1159 0 
L 581 0 
L 581 4863 
L 1159 4863 
L 1159 2956 
Q 1366 3272 1645 3428 
Q 1925 3584 2291 3584 
Q 2894 3584 3203 3211 
Q 3513 2838 3513 2113 
z
" transform="scale(0.015625)"/>
      </defs>
      <use xlink:href="#DejaVuSans-47"/>
      <use xlink:href="#DejaVuSans-6c" transform="translate(77.490234 0)"/>
      <use xlink:href="#DejaVuSans-6f" transform="translate(105.273438 0)"/>
      <use xlink:href="#DejaVuSans-62" transform="translate(166.455078 0)"/>
      <use xlink:href="#DejaVuSans-61" transform="translate(229.931641 0)"/>
      <use xlink:href="#DejaVuSans-6c" transform="translate(291.210938 0)"/>
      <use xlink:href="#DejaVuSans-20" transform="translate(318.994141 0)"/>
      <use xlink:href="#DejaVuSans-52" transform="translate(350.78125 0)"/>
      <use xlink:href="#DejaVuSans-4d" transform="translate(420.263672 0)"/>
      <use xlink:href="#DejaVuSans-53" transform="translate(506.542969 0)"/>
      <use xlink:href="#DejaVuSans-45" transform="translate(570.019531 0)"/>
      <use xlink:href="#DejaVuSans-20" transform="translate(633.203125 0)"/>
      <use xlink:href="#DejaVuSans-28" transform="translate(664.990234 0)"/>
      <use xlink:href="#DejaVuSans-36" transform="translate(704.003906 0)"/>
      <use xlink:href="#DejaVuSans-68" transform="translate(767.626953 0)"/>
      <use xlink:href="#DejaVuSans-20" transform="translate(831.005859 0)"/>
      <use xlink:href="#DejaVuSans-46" transform="translate(862.792969 0)"/>
      <use xlink:href="#DejaVuSans-6f" transform="translate(916.6875 0)"/>
      <use xlink:href="#DejaVuSans-72" transform="translate(977.869141 0)"/>
      <use xlink:href="#DejaVuSans-65" transform="translate(1016.732422 0)"/>
      <use xlink:href="#DejaVuSans-63" transform="translate(1078.255859 0)"/>
      <use xlink:href="#DejaVuSans-61" transform="translate(1133.236328 0)"/>
      <use xlink:href="#DejaVuSans-73" transform="translate(1194.515625 0)"/>
      <use xlink:href="#DejaVuSans-74" transform="translate(1246.615234 0)"/>
      <use xlink:href="#DejaVuSans-29" transform="translate(1285.824219 0)"/>
     </g>
    </g>
    <g id="line2d_18">
     <path d="M 782.080118 102.249375 
L 796.080118 102.249375 
L 810.080118 102.249375 
" style="fill: none; stroke: #ffa500; stroke-linecap: square"/>
    </g>
    <g id="text_18">
     <!-- South Africa RMSE (6h Forecast) -->
     <g transform="translate(821.280118 107.149375) scale(0.14 -0.14)">
      <defs>
       <path id="DejaVuSans-41" d="M 2188 4044 
L 1331 1722 
L 3047 1722 
L 2188 4044 
z
M 1831 4666 
L 2547 4666 
L 4325 0 
L 3669 0 
L 3244 1197 
L 1141 1197 
L 716 0 
L 50 0 
L 1831 4666 
z
" transform="scale(0.015625)"/>
      </defs>
      <use xlink:href="#DejaVuSans-53"/>
      <use xlink:href="#DejaVuSans-6f" transform="translate(63.476562 0)"/>
      <use xlink:href="#DejaVuSans-75" transform="translate(124.658203 0)"/>
      <use xlink:href="#DejaVuSans-74" transform="translate(188.037109 0)"/>
      <use xlink:href="#DejaVuSans-68" transform="translate(227.246094 0)"/>
      <use xlink:href="#DejaVuSans-20" transform="translate(290.625 0)"/>
      <use xlink:href="#DejaVuSans-41" transform="translate(322.412109 0)"/>
      <use xlink:href="#DejaVuSans-66" transform="translate(387.195312 0)"/>
      <use xlink:href="#DejaVuSans-72" transform="translate(422.400391 0)"/>
      <use xlink:href="#DejaVuSans-69" transform="translate(463.513672 0)"/>
      <use xlink:href="#DejaVuSans-63" transform="translate(491.296875 0)"/>
      <use xlink:href="#DejaVuSans-61" transform="translate(546.277344 0)"/>
      <use xlink:href="#DejaVuSans-20" transform="translate(607.556641 0)"/>
      <use xlink:href="#DejaVuSans-52" transform="translate(639.34375 0)"/>
      <use xlink:href="#DejaVuSans-4d" transform="translate(708.826172 0)"/>
      <use xlink:href="#DejaVuSans-53" transform="translate(795.105469 0)"/>
      <use xlink:href="#DejaVuSans-45" transform="translate(858.582031 0)"/>
      <use xlink:href="#DejaVuSans-20" transform="translate(921.765625 0)"/>
      <use xlink:href="#DejaVuSans-28" transform="translate(953.552734 0)"/>
      <use xlink:href="#DejaVuSans-36" transform="translate(992.566406 0)"/>
      <use xlink:href="#DejaVuSans-68" transform="translate(1056.189453 0)"/>
      <use xlink:href="#DejaVuSans-20" transform="translate(1119.568359 0)"/>
      <use xlink:href="#DejaVuSans-46" transform="translate(1151.355469 0)"/>
      <use xlink:href="#DejaVuSans-6f" transform="translate(1205.25 0)"/>
      <use xlink:href="#DejaVuSans-72" transform="translate(1266.431641 0)"/>
      <use xlink:href="#DejaVuSans-65" transform="translate(1305.294922 0)"/>
      <use xlink:href="#DejaVuSans-63" transform="translate(1366.818359 0)"/>
      <use xlink:href="#DejaVuSans-61" transform="translate(1421.798828 0)"/>
      <use xlink:href="#DejaVuSans-73" transform="translate(1483.078125 0)"/>
      <use xlink:href="#DejaVuSans-74" transform="translate(1535.177734 0)"/>
      <use xlink:href="#DejaVuSans-29" transform="translate(1574.386719 0)"/>
     </g>
    </g>
    <g id="line2d_19">
     <path d="M 782.080118 122.79875 
L 796.080118 122.79875 
L 810.080118 122.79875 
" style="fill: none; stroke-dasharray: 3.7,1.6; stroke-dashoffset: 0; stroke: #0000ff"/>
    </g>
    <g id="text_19">
     <!-- Global RMSE (12h Forecast) -->
     <g transform="translate(821.280118 127.69875) scale(0.14 -0.14)">
      <use xlink:href="#DejaVuSans-47"/>
      <use xlink:href="#DejaVuSans-6c" transform="translate(77.490234 0)"/>
      <use xlink:href="#DejaVuSans-6f" transform="translate(105.273438 0)"/>
      <use xlink:href="#DejaVuSans-62" transform="translate(166.455078 0)"/>
      <use xlink:href="#DejaVuSans-61" transform="translate(229.931641 0)"/>
      <use xlink:href="#DejaVuSans-6c" transform="translate(291.210938 0)"/>
      <use xlink:href="#DejaVuSans-20" transform="translate(318.994141 0)"/>
      <use xlink:href="#DejaVuSans-52" transform="translate(350.78125 0)"/>
      <use xlink:href="#DejaVuSans-4d" transform="translate(420.263672 0)"/>
      <use xlink:href="#DejaVuSans-53" transform="translate(506.542969 0)"/>
      <use xlink:href="#DejaVuSans-45" transform="translate(570.019531 0)"/>
      <use xlink:href="#DejaVuSans-20" transform="translate(633.203125 0)"/>
      <use xlink:href="#DejaVuSans-28" transform="translate(664.990234 0)"/>
      <use xlink:href="#DejaVuSans-31" transform="translate(704.003906 0)"/>
      <use xlink:href="#DejaVuSans-32" transform="translate(767.626953 0)"/>
      <use xlink:href="#DejaVuSans-68" transform="translate(831.25 0)"/>
      <use xlink:href="#DejaVuSans-20" transform="translate(894.628906 0)"/>
      <use xlink:href="#DejaVuSans-46" transform="translate(926.416016 0)"/>
      <use xlink:href="#DejaVuSans-6f" transform="translate(980.310547 0)"/>
      <use xlink:href="#DejaVuSans-72" transform="translate(1041.492188 0)"/>
      <use xlink:href="#DejaVuSans-65" transform="translate(1080.355469 0)"/>
      <use xlink:href="#DejaVuSans-63" transform="translate(1141.878906 0)"/>
      <use xlink:href="#DejaVuSans-61" transform="translate(1196.859375 0)"/>
      <use xlink:href="#DejaVuSans-73" transform="translate(1258.138672 0)"/>
      <use xlink:href="#DejaVuSans-74" transform="translate(1310.238281 0)"/>
      <use xlink:href="#DejaVuSans-29" transform="translate(1349.447266 0)"/>
     </g>
    </g>
    <g id="line2d_20">
     <path d="M 782.080118 143.348125 
L 796.080118 143.348125 
L 810.080118 143.348125 
" style="fill: none; stroke-dasharray: 3.7,1.6; stroke-dashoffset: 0; stroke: #ffa500"/>
    </g>
    <g id="text_20">
     <!-- South Africa RMSE (12h Forecast) -->
     <g transform="translate(821.280118 148.248125) scale(0.14 -0.14)">
      <use xlink:href="#DejaVuSans-53"/>
      <use xlink:href="#DejaVuSans-6f" transform="translate(63.476562 0)"/>
      <use xlink:href="#DejaVuSans-75" transform="translate(124.658203 0)"/>
      <use xlink:href="#DejaVuSans-74" transform="translate(188.037109 0)"/>
      <use xlink:href="#DejaVuSans-68" transform="translate(227.246094 0)"/>
      <use xlink:href="#DejaVuSans-20" transform="translate(290.625 0)"/>
      <use xlink:href="#DejaVuSans-41" transform="translate(322.412109 0)"/>
      <use xlink:href="#DejaVuSans-66" transform="translate(387.195312 0)"/>
      <use xlink:href="#DejaVuSans-72" transform="translate(422.400391 0)"/>
      <use xlink:href="#DejaVuSans-69" transform="translate(463.513672 0)"/>
      <use xlink:href="#DejaVuSans-63" transform="translate(491.296875 0)"/>
      <use xlink:href="#DejaVuSans-61" transform="translate(546.277344 0)"/>
      <use xlink:href="#DejaVuSans-20" transform="translate(607.556641 0)"/>
      <use xlink:href="#DejaVuSans-52" transform="translate(639.34375 0)"/>
      <use xlink:href="#DejaVuSans-4d" transform="translate(708.826172 0)"/>
      <use xlink:href="#DejaVuSans-53" transform="translate(795.105469 0)"/>
      <use xlink:href="#DejaVuSans-45" transform="translate(858.582031 0)"/>
      <use xlink:href="#DejaVuSans-20" transform="translate(921.765625 0)"/>
      <use xlink:href="#DejaVuSans-28" transform="translate(953.552734 0)"/>
      <use xlink:href="#DejaVuSans-31" transform="translate(992.566406 0)"/>
      <use xlink:href="#DejaVuSans-32" transform="translate(1056.189453 0)"/>
      <use xlink:href="#DejaVuSans-68" transform="translate(1119.8125 0)"/>
      <use xlink:href="#DejaVuSans-20" transform="translate(1183.191406 0)"/>
      <use xlink:href="#DejaVuSans-46" transform="translate(1214.978516 0)"/>
      <use xlink:href="#DejaVuSans-6f" transform="translate(1268.873047 0)"/>
      <use xlink:href="#DejaVuSans-72" transform="translate(1330.054688 0)"/>
      <use xlink:href="#DejaVuSans-65" transform="translate(1368.917969 0)"/>
      <use xlink:href="#DejaVuSans-63" transform="translate(1430.441406 0)"/>
      <use xlink:href="#DejaVuSans-61" transform="translate(1485.421875 0)"/>
      <use xlink:href="#DejaVuSans-73" transform="translate(1546.701172 0)"/>
      <use xlink:href="#DejaVuSans-74" transform="translate(1598.800781 0)"/>
      <use xlink:href="#DejaVuSans-29" transform="translate(1638.009766 0)"/>
     </g>
    </g>
   </g>
  </g>
 </g>
 <defs>
  <clipPath id="p39bf9ed102">
   <rect x="66.400118" y="40.877187" width="669.6" height="443.52"/>
  </clipPath>
 </defs>
</svg>
