<?xml version="1.0" encoding="utf-8" standalone="no"?>
<!DOCTYPE svg PUBLIC "-//W3C//DTD SVG 1.1//EN"
  "http://www.w3.org/Graphics/SVG/1.1/DTD/svg11.dtd">
<svg xmlns:xlink="http://www.w3.org/1999/xlink" width="1068.862305pt" height="575.421502pt" viewBox="0 0 1068.862305 575.421502" xmlns="http://www.w3.org/2000/svg" version="1.1">
 <metadata>
  <rdf:RDF xmlns:dc="http://purl.org/dc/elements/1.1/" xmlns:cc="http://creativecommons.org/ns#" xmlns:rdf="http://www.w3.org/1999/02/22-rdf-syntax-ns#">
   <cc:Work>
    <dc:type rdf:resource="http://purl.org/dc/dcmitype/StillImage"/>
    <dc:date>2025-02-28T13:09:50.338310</dc:date>
    <dc:format>image/svg+xml</dc:format>
    <dc:creator>
     <cc:Agent>
      <dc:title>Matplotlib v3.10.0, https://matplotlib.org/</dc:title>
     </cc:Agent>
    </dc:creator>
   </cc:Work>
  </rdf:RDF>
 </metadata>
 <defs>
  <style type="text/css">*{stroke-linejoin: round; stroke-linecap: butt}</style>
 </defs>
 <g id="figure_1">
  <g id="patch_1">
   <path d="M 0 575.421502 
L 1068.862305 575.421502 
L 1068.862305 0 
L 0 0 
z
" style="fill: #ffffff"/>
  </g>
  <g id="axes_1">
   <g id="patch_2">
    <path d="M 66.400118 484.397187 
L 736.000118 484.397187 
L 736.000118 40.877187 
L 66.400118 40.877187 
z
" style="fill: #ffffff"/>
   </g>
   <g id="matplotlib.axis_1">
    <g id="xtick_1">
     <g id="line2d_1">
      <defs>
       <path id="ma30e63b66f" d="M 0 0 
L 0 3.5 
" style="stroke: #000000; stroke-width: 0.8"/>
      </defs>
      <g>
       <use xlink:href="#ma30e63b66f" x="96.836481" y="484.397187" style="stroke: #000000; stroke-width: 0.8"/>
      </g>
     </g>
     <g id="text_1">
      <!-- 2022-11-01 (18:00) -->
      <g transform="translate(10.999219 546.93544) rotate(-30) scale(0.1 -0.1)">
       <defs>
        <path id="DejaVuSans-32" d="M 1228 531 
L 3431 531 
L 3431 0 
L 469 0 
L 469 531 
Q 828 903 1448 1529 
Q 2069 2156 2228 2338 
Q 2531 2678 2651 2914 
Q 2772 3150 2772 3378 
Q 2772 3750 2511 3984 
Q 2250 4219 1831 4219 
Q 1534 4219 1204 4116 
Q 875 4013 500 3803 
L 500 4441 
Q 881 4594 1212 4672 
Q 1544 4750 1819 4750 
Q 2544 4750 2975 4387 
Q 3406 4025 3406 3419 
Q 3406 3131 3298 2873 
Q 3191 2616 2906 2266 
Q 2828 2175 2409 1742 
Q 1991 1309 1228 531 
z
" transform="scale(0.015625)"/>
        <path id="DejaVuSans-30" d="M 2034 4250 
Q 1547 4250 1301 3770 
Q 1056 3291 1056 2328 
Q 1056 1369 1301 889 
Q 1547 409 2034 409 
Q 2525 409 2770 889 
Q 3016 1369 3016 2328 
Q 3016 3291 2770 3770 
Q 2525 4250 2034 4250 
z
M 2034 4750 
Q 2819 4750 3233 4129 
Q 3647 3509 3647 2328 
Q 3647 1150 3233 529 
Q 2819 -91 2034 -91 
Q 1250 -91 836 529 
Q 422 1150 422 2328 
Q 422 3509 836 4129 
Q 1250 4750 2034 4750 
z
" transform="scale(0.015625)"/>
        <path id="DejaVuSans-2d" d="M 313 2009 
L 1997 2009 
L 1997 1497 
L 313 1497 
L 313 2009 
z
" transform="scale(0.015625)"/>
        <path id="DejaVuSans-31" d="M 794 531 
L 1825 531 
L 1825 4091 
L 703 3866 
L 703 4441 
L 1819 4666 
L 2450 4666 
L 2450 531 
L 3481 531 
L 3481 0 
L 794 0 
L 794 531 
z
" transform="scale(0.015625)"/>
        <path id="DejaVuSans-20" transform="scale(0.015625)"/>
        <path id="DejaVuSans-28" d="M 1984 4856 
Q 1566 4138 1362 3434 
Q 1159 2731 1159 2009 
Q 1159 1288 1364 580 
Q 1569 -128 1984 -844 
L 1484 -844 
Q 1016 -109 783 600 
Q 550 1309 550 2009 
Q 550 2706 781 3412 
Q 1013 4119 1484 4856 
L 1984 4856 
z
" transform="scale(0.015625)"/>
        <path id="DejaVuSans-38" d="M 2034 2216 
Q 1584 2216 1326 1975 
Q 1069 1734 1069 1313 
Q 1069 891 1326 650 
Q 1584 409 2034 409 
Q 2484 409 2743 651 
Q 3003 894 3003 1313 
Q 3003 1734 2745 1975 
Q 2488 2216 2034 2216 
z
M 1403 2484 
Q 997 2584 770 2862 
Q 544 3141 544 3541 
Q 544 4100 942 4425 
Q 1341 4750 2034 4750 
Q 2731 4750 3128 4425 
Q 3525 4100 3525 3541 
Q 3525 3141 3298 2862 
Q 3072 2584 2669 2484 
Q 3125 2378 3379 2068 
Q 3634 1759 3634 1313 
Q 3634 634 3220 271 
Q 2806 -91 2034 -91 
Q 1263 -91 848 271 
Q 434 634 434 1313 
Q 434 1759 690 2068 
Q 947 2378 1403 2484 
z
M 1172 3481 
Q 1172 3119 1398 2916 
Q 1625 2713 2034 2713 
Q 2441 2713 2670 2916 
Q 2900 3119 2900 3481 
Q 2900 3844 2670 4047 
Q 2441 4250 2034 4250 
Q 1625 4250 1398 4047 
Q 1172 3844 1172 3481 
z
" transform="scale(0.015625)"/>
        <path id="DejaVuSans-3a" d="M 750 794 
L 1409 794 
L 1409 0 
L 750 0 
L 750 794 
z
M 750 3309 
L 1409 3309 
L 1409 2516 
L 750 2516 
L 750 3309 
z
" transform="scale(0.015625)"/>
        <path id="DejaVuSans-29" d="M 513 4856 
L 1013 4856 
Q 1481 4119 1714 3412 
Q 1947 2706 1947 2009 
Q 1947 1309 1714 600 
Q 1481 -109 1013 -844 
L 513 -844 
Q 928 -128 1133 580 
Q 1338 1288 1338 2009 
Q 1338 2731 1133 3434 
Q 928 4138 513 4856 
z
" transform="scale(0.015625)"/>
       </defs>
       <use xlink:href="#DejaVuSans-32"/>
       <use xlink:href="#DejaVuSans-30" transform="translate(63.623047 0)"/>
       <use xlink:href="#DejaVuSans-32" transform="translate(127.246094 0)"/>
       <use xlink:href="#DejaVuSans-32" transform="translate(190.869141 0)"/>
       <use xlink:href="#DejaVuSans-2d" transform="translate(254.492188 0)"/>
       <use xlink:href="#DejaVuSans-31" transform="translate(290.576172 0)"/>
       <use xlink:href="#DejaVuSans-31" transform="translate(354.199219 0)"/>
       <use xlink:href="#DejaVuSans-2d" transform="translate(417.822266 0)"/>
       <use xlink:href="#DejaVuSans-30" transform="translate(453.90625 0)"/>
       <use xlink:href="#DejaVuSans-31" transform="translate(517.529297 0)"/>
       <use xlink:href="#DejaVuSans-20" transform="translate(581.152344 0)"/>
       <use xlink:href="#DejaVuSans-28" transform="translate(612.939453 0)"/>
       <use xlink:href="#DejaVuSans-31" transform="translate(651.953125 0)"/>
       <use xlink:href="#DejaVuSans-38" transform="translate(715.576172 0)"/>
       <use xlink:href="#DejaVuSans-3a" transform="translate(779.199219 0)"/>
       <use xlink:href="#DejaVuSans-30" transform="translate(812.890625 0)"/>
       <use xlink:href="#DejaVuSans-30" transform="translate(876.513672 0)"/>
       <use xlink:href="#DejaVuSans-29" transform="translate(940.136719 0)"/>
      </g>
     </g>
    </g>
    <g id="xtick_2">
     <g id="line2d_2">
      <g>
       <use xlink:href="#ma30e63b66f" x="218.581936" y="484.397187" style="stroke: #000000; stroke-width: 0.8"/>
      </g>
     </g>
     <g id="text_2">
      <!-- 2022-11-13 (18:00) -->
      <g transform="translate(132.744673 546.93544) rotate(-30) scale(0.1 -0.1)">
       <defs>
        <path id="DejaVuSans-33" d="M 2597 2516 
Q 3050 2419 3304 2112 
Q 3559 1806 3559 1356 
Q 3559 666 3084 287 
Q 2609 -91 1734 -91 
Q 1441 -91 1130 -33 
Q 819 25 488 141 
L 488 750 
Q 750 597 1062 519 
Q 1375 441 1716 441 
Q 2309 441 2620 675 
Q 2931 909 2931 1356 
Q 2931 1769 2642 2001 
Q 2353 2234 1838 2234 
L 1294 2234 
L 1294 2753 
L 1863 2753 
Q 2328 2753 2575 2939 
Q 2822 3125 2822 3475 
Q 2822 3834 2567 4026 
Q 2313 4219 1838 4219 
Q 1578 4219 1281 4162 
Q 984 4106 628 3988 
L 628 4550 
Q 988 4650 1302 4700 
Q 1616 4750 1894 4750 
Q 2613 4750 3031 4423 
Q 3450 4097 3450 3541 
Q 3450 3153 3228 2886 
Q 3006 2619 2597 2516 
z
" transform="scale(0.015625)"/>
       </defs>
       <use xlink:href="#DejaVuSans-32"/>
       <use xlink:href="#DejaVuSans-30" transform="translate(63.623047 0)"/>
       <use xlink:href="#DejaVuSans-32" transform="translate(127.246094 0)"/>
       <use xlink:href="#DejaVuSans-32" transform="translate(190.869141 0)"/>
       <use xlink:href="#DejaVuSans-2d" transform="translate(254.492188 0)"/>
       <use xlink:href="#DejaVuSans-31" transform="translate(290.576172 0)"/>
       <use xlink:href="#DejaVuSans-31" transform="translate(354.199219 0)"/>
       <use xlink:href="#DejaVuSans-2d" transform="translate(417.822266 0)"/>
       <use xlink:href="#DejaVuSans-31" transform="translate(453.90625 0)"/>
       <use xlink:href="#DejaVuSans-33" transform="translate(517.529297 0)"/>
       <use xlink:href="#DejaVuSans-20" transform="translate(581.152344 0)"/>
       <use xlink:href="#DejaVuSans-28" transform="translate(612.939453 0)"/>
       <use xlink:href="#DejaVuSans-31" transform="translate(651.953125 0)"/>
       <use xlink:href="#DejaVuSans-38" transform="translate(715.576172 0)"/>
       <use xlink:href="#DejaVuSans-3a" transform="translate(779.199219 0)"/>
       <use xlink:href="#DejaVuSans-30" transform="translate(812.890625 0)"/>
       <use xlink:href="#DejaVuSans-30" transform="translate(876.513672 0)"/>
       <use xlink:href="#DejaVuSans-29" transform="translate(940.136719 0)"/>
      </g>
     </g>
    </g>
    <g id="xtick_3">
     <g id="line2d_3">
      <g>
       <use xlink:href="#ma30e63b66f" x="340.32739" y="484.397187" style="stroke: #000000; stroke-width: 0.8"/>
      </g>
     </g>
     <g id="text_3">
      <!-- 2022-11-25 (18:00) -->
      <g transform="translate(254.490128 546.93544) rotate(-30) scale(0.1 -0.1)">
       <defs>
        <path id="DejaVuSans-35" d="M 691 4666 
L 3169 4666 
L 3169 4134 
L 1269 4134 
L 1269 2991 
Q 1406 3038 1543 3061 
Q 1681 3084 1819 3084 
Q 2600 3084 3056 2656 
Q 3513 2228 3513 1497 
Q 3513 744 3044 326 
Q 2575 -91 1722 -91 
Q 1428 -91 1123 -41 
Q 819 9 494 109 
L 494 744 
Q 775 591 1075 516 
Q 1375 441 1709 441 
Q 2250 441 2565 725 
Q 2881 1009 2881 1497 
Q 2881 1984 2565 2268 
Q 2250 2553 1709 2553 
Q 1456 2553 1204 2497 
Q 953 2441 691 2322 
L 691 4666 
z
" transform="scale(0.015625)"/>
       </defs>
       <use xlink:href="#DejaVuSans-32"/>
       <use xlink:href="#DejaVuSans-30" transform="translate(63.623047 0)"/>
       <use xlink:href="#DejaVuSans-32" transform="translate(127.246094 0)"/>
       <use xlink:href="#DejaVuSans-32" transform="translate(190.869141 0)"/>
       <use xlink:href="#DejaVuSans-2d" transform="translate(254.492188 0)"/>
       <use xlink:href="#DejaVuSans-31" transform="translate(290.576172 0)"/>
       <use xlink:href="#DejaVuSans-31" transform="translate(354.199219 0)"/>
       <use xlink:href="#DejaVuSans-2d" transform="translate(417.822266 0)"/>
       <use xlink:href="#DejaVuSans-32" transform="translate(453.90625 0)"/>
       <use xlink:href="#DejaVuSans-35" transform="translate(517.529297 0)"/>
       <use xlink:href="#DejaVuSans-20" transform="translate(581.152344 0)"/>
       <use xlink:href="#DejaVuSans-28" transform="translate(612.939453 0)"/>
       <use xlink:href="#DejaVuSans-31" transform="translate(651.953125 0)"/>
       <use xlink:href="#DejaVuSans-38" transform="translate(715.576172 0)"/>
       <use xlink:href="#DejaVuSans-3a" transform="translate(779.199219 0)"/>
       <use xlink:href="#DejaVuSans-30" transform="translate(812.890625 0)"/>
       <use xlink:href="#DejaVuSans-30" transform="translate(876.513672 0)"/>
       <use xlink:href="#DejaVuSans-29" transform="translate(940.136719 0)"/>
      </g>
     </g>
    </g>
    <g id="xtick_4">
     <g id="line2d_4">
      <g>
       <use xlink:href="#ma30e63b66f" x="462.072845" y="484.397187" style="stroke: #000000; stroke-width: 0.8"/>
      </g>
     </g>
     <g id="text_4">
      <!-- 2022-12-07 (18:00) -->
      <g transform="translate(376.235582 546.93544) rotate(-30) scale(0.1 -0.1)">
       <defs>
        <path id="DejaVuSans-37" d="M 525 4666 
L 3525 4666 
L 3525 4397 
L 1831 0 
L 1172 0 
L 2766 4134 
L 525 4134 
L 525 4666 
z
" transform="scale(0.015625)"/>
       </defs>
       <use xlink:href="#DejaVuSans-32"/>
       <use xlink:href="#DejaVuSans-30" transform="translate(63.623047 0)"/>
       <use xlink:href="#DejaVuSans-32" transform="translate(127.246094 0)"/>
       <use xlink:href="#DejaVuSans-32" transform="translate(190.869141 0)"/>
       <use xlink:href="#DejaVuSans-2d" transform="translate(254.492188 0)"/>
       <use xlink:href="#DejaVuSans-31" transform="translate(290.576172 0)"/>
       <use xlink:href="#DejaVuSans-32" transform="translate(354.199219 0)"/>
       <use xlink:href="#DejaVuSans-2d" transform="translate(417.822266 0)"/>
       <use xlink:href="#DejaVuSans-30" transform="translate(453.90625 0)"/>
       <use xlink:href="#DejaVuSans-37" transform="translate(517.529297 0)"/>
       <use xlink:href="#DejaVuSans-20" transform="translate(581.152344 0)"/>
       <use xlink:href="#DejaVuSans-28" transform="translate(612.939453 0)"/>
       <use xlink:href="#DejaVuSans-31" transform="translate(651.953125 0)"/>
       <use xlink:href="#DejaVuSans-38" transform="translate(715.576172 0)"/>
       <use xlink:href="#DejaVuSans-3a" transform="translate(779.199219 0)"/>
       <use xlink:href="#DejaVuSans-30" transform="translate(812.890625 0)"/>
       <use xlink:href="#DejaVuSans-30" transform="translate(876.513672 0)"/>
       <use xlink:href="#DejaVuSans-29" transform="translate(940.136719 0)"/>
      </g>
     </g>
    </g>
    <g id="xtick_5">
     <g id="line2d_5">
      <g>
       <use xlink:href="#ma30e63b66f" x="583.818299" y="484.397187" style="stroke: #000000; stroke-width: 0.8"/>
      </g>
     </g>
     <g id="text_5">
      <!-- 2022-12-19 (18:00) -->
      <g transform="translate(497.981037 546.93544) rotate(-30) scale(0.1 -0.1)">
       <defs>
        <path id="DejaVuSans-39" d="M 703 97 
L 703 672 
Q 941 559 1184 500 
Q 1428 441 1663 441 
Q 2288 441 2617 861 
Q 2947 1281 2994 2138 
Q 2813 1869 2534 1725 
Q 2256 1581 1919 1581 
Q 1219 1581 811 2004 
Q 403 2428 403 3163 
Q 403 3881 828 4315 
Q 1253 4750 1959 4750 
Q 2769 4750 3195 4129 
Q 3622 3509 3622 2328 
Q 3622 1225 3098 567 
Q 2575 -91 1691 -91 
Q 1453 -91 1209 -44 
Q 966 3 703 97 
z
M 1959 2075 
Q 2384 2075 2632 2365 
Q 2881 2656 2881 3163 
Q 2881 3666 2632 3958 
Q 2384 4250 1959 4250 
Q 1534 4250 1286 3958 
Q 1038 3666 1038 3163 
Q 1038 2656 1286 2365 
Q 1534 2075 1959 2075 
z
" transform="scale(0.015625)"/>
       </defs>
       <use xlink:href="#DejaVuSans-32"/>
       <use xlink:href="#DejaVuSans-30" transform="translate(63.623047 0)"/>
       <use xlink:href="#DejaVuSans-32" transform="translate(127.246094 0)"/>
       <use xlink:href="#DejaVuSans-32" transform="translate(190.869141 0)"/>
       <use xlink:href="#DejaVuSans-2d" transform="translate(254.492188 0)"/>
       <use xlink:href="#DejaVuSans-31" transform="translate(290.576172 0)"/>
       <use xlink:href="#DejaVuSans-32" transform="translate(354.199219 0)"/>
       <use xlink:href="#DejaVuSans-2d" transform="translate(417.822266 0)"/>
       <use xlink:href="#DejaVuSans-31" transform="translate(453.90625 0)"/>
       <use xlink:href="#DejaVuSans-39" transform="translate(517.529297 0)"/>
       <use xlink:href="#DejaVuSans-20" transform="translate(581.152344 0)"/>
       <use xlink:href="#DejaVuSans-28" transform="translate(612.939453 0)"/>
       <use xlink:href="#DejaVuSans-31" transform="translate(651.953125 0)"/>
       <use xlink:href="#DejaVuSans-38" transform="translate(715.576172 0)"/>
       <use xlink:href="#DejaVuSans-3a" transform="translate(779.199219 0)"/>
       <use xlink:href="#DejaVuSans-30" transform="translate(812.890625 0)"/>
       <use xlink:href="#DejaVuSans-30" transform="translate(876.513672 0)"/>
       <use xlink:href="#DejaVuSans-29" transform="translate(940.136719 0)"/>
      </g>
     </g>
    </g>
    <g id="xtick_6">
     <g id="line2d_6">
      <g>
       <use xlink:href="#ma30e63b66f" x="705.563754" y="484.397187" style="stroke: #000000; stroke-width: 0.8"/>
      </g>
     </g>
     <g id="text_6">
      <!-- 2022-12-31 (18:00) -->
      <g transform="translate(619.726491 546.93544) rotate(-30) scale(0.1 -0.1)">
       <use xlink:href="#DejaVuSans-32"/>
       <use xlink:href="#DejaVuSans-30" transform="translate(63.623047 0)"/>
       <use xlink:href="#DejaVuSans-32" transform="translate(127.246094 0)"/>
       <use xlink:href="#DejaVuSans-32" transform="translate(190.869141 0)"/>
       <use xlink:href="#DejaVuSans-2d" transform="translate(254.492188 0)"/>
       <use xlink:href="#DejaVuSans-31" transform="translate(290.576172 0)"/>
       <use xlink:href="#DejaVuSans-32" transform="translate(354.199219 0)"/>
       <use xlink:href="#DejaVuSans-2d" transform="translate(417.822266 0)"/>
       <use xlink:href="#DejaVuSans-33" transform="translate(453.90625 0)"/>
       <use xlink:href="#DejaVuSans-31" transform="translate(517.529297 0)"/>
       <use xlink:href="#DejaVuSans-20" transform="translate(581.152344 0)"/>
       <use xlink:href="#DejaVuSans-28" transform="translate(612.939453 0)"/>
       <use xlink:href="#DejaVuSans-31" transform="translate(651.953125 0)"/>
       <use xlink:href="#DejaVuSans-38" transform="translate(715.576172 0)"/>
       <use xlink:href="#DejaVuSans-3a" transform="translate(779.199219 0)"/>
       <use xlink:href="#DejaVuSans-30" transform="translate(812.890625 0)"/>
       <use xlink:href="#DejaVuSans-30" transform="translate(876.513672 0)"/>
       <use xlink:href="#DejaVuSans-29" transform="translate(940.136719 0)"/>
      </g>
     </g>
    </g>
    <g id="text_7">
     <!-- Forecast Date -->
     <g transform="translate(345.693868 564.894002) scale(0.16 -0.16)">
      <defs>
       <path id="DejaVuSans-46" d="M 628 4666 
L 3309 4666 
L 3309 4134 
L 1259 4134 
L 1259 2759 
L 3109 2759 
L 3109 2228 
L 1259 2228 
L 1259 0 
L 628 0 
L 628 4666 
z
" transform="scale(0.015625)"/>
       <path id="DejaVuSans-6f" d="M 1959 3097 
Q 1497 3097 1228 2736 
Q 959 2375 959 1747 
Q 959 1119 1226 758 
Q 1494 397 1959 397 
Q 2419 397 2687 759 
Q 2956 1122 2956 1747 
Q 2956 2369 2687 2733 
Q 2419 3097 1959 3097 
z
M 1959 3584 
Q 2709 3584 3137 3096 
Q 3566 2609 3566 1747 
Q 3566 888 3137 398 
Q 2709 -91 1959 -91 
Q 1206 -91 779 398 
Q 353 888 353 1747 
Q 353 2609 779 3096 
Q 1206 3584 1959 3584 
z
" transform="scale(0.015625)"/>
       <path id="DejaVuSans-72" d="M 2631 2963 
Q 2534 3019 2420 3045 
Q 2306 3072 2169 3072 
Q 1681 3072 1420 2755 
Q 1159 2438 1159 1844 
L 1159 0 
L 581 0 
L 581 3500 
L 1159 3500 
L 1159 2956 
Q 1341 3275 1631 3429 
Q 1922 3584 2338 3584 
Q 2397 3584 2469 3576 
Q 2541 3569 2628 3553 
L 2631 2963 
z
" transform="scale(0.015625)"/>
       <path id="DejaVuSans-65" d="M 3597 1894 
L 3597 1613 
L 953 1613 
Q 991 1019 1311 708 
Q 1631 397 2203 397 
Q 2534 397 2845 478 
Q 3156 559 3463 722 
L 3463 178 
Q 3153 47 2828 -22 
Q 2503 -91 2169 -91 
Q 1331 -91 842 396 
Q 353 884 353 1716 
Q 353 2575 817 3079 
Q 1281 3584 2069 3584 
Q 2775 3584 3186 3129 
Q 3597 2675 3597 1894 
z
M 3022 2063 
Q 3016 2534 2758 2815 
Q 2500 3097 2075 3097 
Q 1594 3097 1305 2825 
Q 1016 2553 972 2059 
L 3022 2063 
z
" transform="scale(0.015625)"/>
       <path id="DejaVuSans-63" d="M 3122 3366 
L 3122 2828 
Q 2878 2963 2633 3030 
Q 2388 3097 2138 3097 
Q 1578 3097 1268 2742 
Q 959 2388 959 1747 
Q 959 1106 1268 751 
Q 1578 397 2138 397 
Q 2388 397 2633 464 
Q 2878 531 3122 666 
L 3122 134 
Q 2881 22 2623 -34 
Q 2366 -91 2075 -91 
Q 1284 -91 818 406 
Q 353 903 353 1747 
Q 353 2603 823 3093 
Q 1294 3584 2113 3584 
Q 2378 3584 2631 3529 
Q 2884 3475 3122 3366 
z
" transform="scale(0.015625)"/>
       <path id="DejaVuSans-61" d="M 2194 1759 
Q 1497 1759 1228 1600 
Q 959 1441 959 1056 
Q 959 750 1161 570 
Q 1363 391 1709 391 
Q 2188 391 2477 730 
Q 2766 1069 2766 1631 
L 2766 1759 
L 2194 1759 
z
M 3341 1997 
L 3341 0 
L 2766 0 
L 2766 531 
Q 2569 213 2275 61 
Q 1981 -91 1556 -91 
Q 1019 -91 701 211 
Q 384 513 384 1019 
Q 384 1609 779 1909 
Q 1175 2209 1959 2209 
L 2766 2209 
L 2766 2266 
Q 2766 2663 2505 2880 
Q 2244 3097 1772 3097 
Q 1472 3097 1187 3025 
Q 903 2953 641 2809 
L 641 3341 
Q 956 3463 1253 3523 
Q 1550 3584 1831 3584 
Q 2591 3584 2966 3190 
Q 3341 2797 3341 1997 
z
" transform="scale(0.015625)"/>
       <path id="DejaVuSans-73" d="M 2834 3397 
L 2834 2853 
Q 2591 2978 2328 3040 
Q 2066 3103 1784 3103 
Q 1356 3103 1142 2972 
Q 928 2841 928 2578 
Q 928 2378 1081 2264 
Q 1234 2150 1697 2047 
L 1894 2003 
Q 2506 1872 2764 1633 
Q 3022 1394 3022 966 
Q 3022 478 2636 193 
Q 2250 -91 1575 -91 
Q 1294 -91 989 -36 
Q 684 19 347 128 
L 347 722 
Q 666 556 975 473 
Q 1284 391 1588 391 
Q 1994 391 2212 530 
Q 2431 669 2431 922 
Q 2431 1156 2273 1281 
Q 2116 1406 1581 1522 
L 1381 1569 
Q 847 1681 609 1914 
Q 372 2147 372 2553 
Q 372 3047 722 3315 
Q 1072 3584 1716 3584 
Q 2034 3584 2315 3537 
Q 2597 3491 2834 3397 
z
" transform="scale(0.015625)"/>
       <path id="DejaVuSans-74" d="M 1172 4494 
L 1172 3500 
L 2356 3500 
L 2356 3053 
L 1172 3053 
L 1172 1153 
Q 1172 725 1289 603 
Q 1406 481 1766 481 
L 2356 481 
L 2356 0 
L 1766 0 
Q 1100 0 847 248 
Q 594 497 594 1153 
L 594 3053 
L 172 3053 
L 172 3500 
L 594 3500 
L 594 4494 
L 1172 4494 
z
" transform="scale(0.015625)"/>
       <path id="DejaVuSans-44" d="M 1259 4147 
L 1259 519 
L 2022 519 
Q 2988 519 3436 956 
Q 3884 1394 3884 2338 
Q 3884 3275 3436 3711 
Q 2988 4147 2022 4147 
L 1259 4147 
z
M 628 4666 
L 1925 4666 
Q 3281 4666 3915 4102 
Q 4550 3538 4550 2338 
Q 4550 1131 3912 565 
Q 3275 0 1925 0 
L 628 0 
L 628 4666 
z
" transform="scale(0.015625)"/>
      </defs>
      <use xlink:href="#DejaVuSans-46"/>
      <use xlink:href="#DejaVuSans-6f" transform="translate(53.894531 0)"/>
      <use xlink:href="#DejaVuSans-72" transform="translate(115.076172 0)"/>
      <use xlink:href="#DejaVuSans-65" transform="translate(153.939453 0)"/>
      <use xlink:href="#DejaVuSans-63" transform="translate(215.462891 0)"/>
      <use xlink:href="#DejaVuSans-61" transform="translate(270.443359 0)"/>
      <use xlink:href="#DejaVuSans-73" transform="translate(331.722656 0)"/>
      <use xlink:href="#DejaVuSans-74" transform="translate(383.822266 0)"/>
      <use xlink:href="#DejaVuSans-20" transform="translate(423.03125 0)"/>
      <use xlink:href="#DejaVuSans-44" transform="translate(454.818359 0)"/>
      <use xlink:href="#DejaVuSans-61" transform="translate(531.820312 0)"/>
      <use xlink:href="#DejaVuSans-74" transform="translate(593.099609 0)"/>
      <use xlink:href="#DejaVuSans-65" transform="translate(632.308594 0)"/>
     </g>
    </g>
   </g>
   <g id="matplotlib.axis_2">
    <g id="ytick_1">
     <g id="line2d_7">
      <defs>
       <path id="mc9e2fa7b53" d="M 0 0 
L -3.5 0 
" style="stroke: #000000; stroke-width: 0.8"/>
      </defs>
      <g>
       <use xlink:href="#mc9e2fa7b53" x="66.400118" y="462.014873" style="stroke: #000000; stroke-width: 0.8"/>
      </g>
     </g>
     <g id="text_8">
      <!-- 0.50 -->
      <g transform="translate(37.134493 465.814092) scale(0.1 -0.1)">
       <defs>
        <path id="DejaVuSans-2e" d="M 684 794 
L 1344 794 
L 1344 0 
L 684 0 
L 684 794 
z
" transform="scale(0.015625)"/>
       </defs>
       <use xlink:href="#DejaVuSans-30"/>
       <use xlink:href="#DejaVuSans-2e" transform="translate(63.623047 0)"/>
       <use xlink:href="#DejaVuSans-35" transform="translate(95.410156 0)"/>
       <use xlink:href="#DejaVuSans-30" transform="translate(159.033203 0)"/>
      </g>
     </g>
    </g>
    <g id="ytick_2">
     <g id="line2d_8">
      <g>
       <use xlink:href="#mc9e2fa7b53" x="66.400118" y="403.874149" style="stroke: #000000; stroke-width: 0.8"/>
      </g>
     </g>
     <g id="text_9">
      <!-- 0.75 -->
      <g transform="translate(37.134493 407.673368) scale(0.1 -0.1)">
       <use xlink:href="#DejaVuSans-30"/>
       <use xlink:href="#DejaVuSans-2e" transform="translate(63.623047 0)"/>
       <use xlink:href="#DejaVuSans-37" transform="translate(95.410156 0)"/>
       <use xlink:href="#DejaVuSans-35" transform="translate(159.033203 0)"/>
      </g>
     </g>
    </g>
    <g id="ytick_3">
     <g id="line2d_9">
      <g>
       <use xlink:href="#mc9e2fa7b53" x="66.400118" y="345.733425" style="stroke: #000000; stroke-width: 0.8"/>
      </g>
     </g>
     <g id="text_10">
      <!-- 1.00 -->
      <g transform="translate(37.134493 349.532643) scale(0.1 -0.1)">
       <use xlink:href="#DejaVuSans-31"/>
       <use xlink:href="#DejaVuSans-2e" transform="translate(63.623047 0)"/>
       <use xlink:href="#DejaVuSans-30" transform="translate(95.410156 0)"/>
       <use xlink:href="#DejaVuSans-30" transform="translate(159.033203 0)"/>
      </g>
     </g>
    </g>
    <g id="ytick_4">
     <g id="line2d_10">
      <g>
       <use xlink:href="#mc9e2fa7b53" x="66.400118" y="287.5927" style="stroke: #000000; stroke-width: 0.8"/>
      </g>
     </g>
     <g id="text_11">
      <!-- 1.25 -->
      <g transform="translate(37.134493 291.391919) scale(0.1 -0.1)">
       <use xlink:href="#DejaVuSans-31"/>
       <use xlink:href="#DejaVuSans-2e" transform="translate(63.623047 0)"/>
       <use xlink:href="#DejaVuSans-32" transform="translate(95.410156 0)"/>
       <use xlink:href="#DejaVuSans-35" transform="translate(159.033203 0)"/>
      </g>
     </g>
    </g>
    <g id="ytick_5">
     <g id="line2d_11">
      <g>
       <use xlink:href="#mc9e2fa7b53" x="66.400118" y="229.451976" style="stroke: #000000; stroke-width: 0.8"/>
      </g>
     </g>
     <g id="text_12">
      <!-- 1.50 -->
      <g transform="translate(37.134493 233.251195) scale(0.1 -0.1)">
       <use xlink:href="#DejaVuSans-31"/>
       <use xlink:href="#DejaVuSans-2e" transform="translate(63.623047 0)"/>
       <use xlink:href="#DejaVuSans-35" transform="translate(95.410156 0)"/>
       <use xlink:href="#DejaVuSans-30" transform="translate(159.033203 0)"/>
      </g>
     </g>
    </g>
    <g id="ytick_6">
     <g id="line2d_12">
      <g>
       <use xlink:href="#mc9e2fa7b53" x="66.400118" y="171.311252" style="stroke: #000000; stroke-width: 0.8"/>
      </g>
     </g>
     <g id="text_13">
      <!-- 1.75 -->
      <g transform="translate(37.134493 175.110471) scale(0.1 -0.1)">
       <use xlink:href="#DejaVuSans-31"/>
       <use xlink:href="#DejaVuSans-2e" transform="translate(63.623047 0)"/>
       <use xlink:href="#DejaVuSans-37" transform="translate(95.410156 0)"/>
       <use xlink:href="#DejaVuSans-35" transform="translate(159.033203 0)"/>
      </g>
     </g>
    </g>
    <g id="ytick_7">
     <g id="line2d_13">
      <g>
       <use xlink:href="#mc9e2fa7b53" x="66.400118" y="113.170528" style="stroke: #000000; stroke-width: 0.8"/>
      </g>
     </g>
     <g id="text_14">
      <!-- 2.00 -->
      <g transform="translate(37.134493 116.969747) scale(0.1 -0.1)">
       <use xlink:href="#DejaVuSans-32"/>
       <use xlink:href="#DejaVuSans-2e" transform="translate(63.623047 0)"/>
       <use xlink:href="#DejaVuSans-30" transform="translate(95.410156 0)"/>
       <use xlink:href="#DejaVuSans-30" transform="translate(159.033203 0)"/>
      </g>
     </g>
    </g>
    <g id="ytick_8">
     <g id="line2d_14">
      <g>
       <use xlink:href="#mc9e2fa7b53" x="66.400118" y="55.029804" style="stroke: #000000; stroke-width: 0.8"/>
      </g>
     </g>
     <g id="text_15">
      <!-- 2.25 -->
      <g transform="translate(37.134493 58.829022) scale(0.1 -0.1)">
       <use xlink:href="#DejaVuSans-32"/>
       <use xlink:href="#DejaVuSans-2e" transform="translate(63.623047 0)"/>
       <use xlink:href="#DejaVuSans-32" transform="translate(95.410156 0)"/>
       <use xlink:href="#DejaVuSans-35" transform="translate(159.033203 0)"/>
      </g>
     </g>
    </g>
    <g id="text_16">
     <!-- Root Mean Squared Error (RMSE) -->
     <g transform="translate(29.806993 394.303437) rotate(-90) scale(0.16 -0.16)">
      <defs>
       <path id="DejaVuSans-52" d="M 2841 2188 
Q 3044 2119 3236 1894 
Q 3428 1669 3622 1275 
L 4263 0 
L 3584 0 
L 2988 1197 
Q 2756 1666 2539 1819 
Q 2322 1972 1947 1972 
L 1259 1972 
L 1259 0 
L 628 0 
L 628 4666 
L 2053 4666 
Q 2853 4666 3247 4331 
Q 3641 3997 3641 3322 
Q 3641 2881 3436 2590 
Q 3231 2300 2841 2188 
z
M 1259 4147 
L 1259 2491 
L 2053 2491 
Q 2509 2491 2742 2702 
Q 2975 2913 2975 3322 
Q 2975 3731 2742 3939 
Q 2509 4147 2053 4147 
L 1259 4147 
z
" transform="scale(0.015625)"/>
       <path id="DejaVuSans-4d" d="M 628 4666 
L 1569 4666 
L 2759 1491 
L 3956 4666 
L 4897 4666 
L 4897 0 
L 4281 0 
L 4281 4097 
L 3078 897 
L 2444 897 
L 1241 4097 
L 1241 0 
L 628 0 
L 628 4666 
z
" transform="scale(0.015625)"/>
       <path id="DejaVuSans-6e" d="M 3513 2113 
L 3513 0 
L 2938 0 
L 2938 2094 
Q 2938 2591 2744 2837 
Q 2550 3084 2163 3084 
Q 1697 3084 1428 2787 
Q 1159 2491 1159 1978 
L 1159 0 
L 581 0 
L 581 3500 
L 1159 3500 
L 1159 2956 
Q 1366 3272 1645 3428 
Q 1925 3584 2291 3584 
Q 2894 3584 3203 3211 
Q 3513 2838 3513 2113 
z
" transform="scale(0.015625)"/>
       <path id="DejaVuSans-53" d="M 3425 4513 
L 3425 3897 
Q 3066 4069 2747 4153 
Q 2428 4238 2131 4238 
Q 1616 4238 1336 4038 
Q 1056 3838 1056 3469 
Q 1056 3159 1242 3001 
Q 1428 2844 1947 2747 
L 2328 2669 
Q 3034 2534 3370 2195 
Q 3706 1856 3706 1288 
Q 3706 609 3251 259 
Q 2797 -91 1919 -91 
Q 1588 -91 1214 -16 
Q 841 59 441 206 
L 441 856 
Q 825 641 1194 531 
Q 1563 422 1919 422 
Q 2459 422 2753 634 
Q 3047 847 3047 1241 
Q 3047 1584 2836 1778 
Q 2625 1972 2144 2069 
L 1759 2144 
Q 1053 2284 737 2584 
Q 422 2884 422 3419 
Q 422 4038 858 4394 
Q 1294 4750 2059 4750 
Q 2388 4750 2728 4690 
Q 3069 4631 3425 4513 
z
" transform="scale(0.015625)"/>
       <path id="DejaVuSans-71" d="M 947 1747 
Q 947 1113 1208 752 
Q 1469 391 1925 391 
Q 2381 391 2643 752 
Q 2906 1113 2906 1747 
Q 2906 2381 2643 2742 
Q 2381 3103 1925 3103 
Q 1469 3103 1208 2742 
Q 947 2381 947 1747 
z
M 2906 525 
Q 2725 213 2448 61 
Q 2172 -91 1784 -91 
Q 1150 -91 751 415 
Q 353 922 353 1747 
Q 353 2572 751 3078 
Q 1150 3584 1784 3584 
Q 2172 3584 2448 3432 
Q 2725 3281 2906 2969 
L 2906 3500 
L 3481 3500 
L 3481 -1331 
L 2906 -1331 
L 2906 525 
z
" transform="scale(0.015625)"/>
       <path id="DejaVuSans-75" d="M 544 1381 
L 544 3500 
L 1119 3500 
L 1119 1403 
Q 1119 906 1312 657 
Q 1506 409 1894 409 
Q 2359 409 2629 706 
Q 2900 1003 2900 1516 
L 2900 3500 
L 3475 3500 
L 3475 0 
L 2900 0 
L 2900 538 
Q 2691 219 2414 64 
Q 2138 -91 1772 -91 
Q 1169 -91 856 284 
Q 544 659 544 1381 
z
M 1991 3584 
L 1991 3584 
z
" transform="scale(0.015625)"/>
       <path id="DejaVuSans-64" d="M 2906 2969 
L 2906 4863 
L 3481 4863 
L 3481 0 
L 2906 0 
L 2906 525 
Q 2725 213 2448 61 
Q 2172 -91 1784 -91 
Q 1150 -91 751 415 
Q 353 922 353 1747 
Q 353 2572 751 3078 
Q 1150 3584 1784 3584 
Q 2172 3584 2448 3432 
Q 2725 3281 2906 2969 
z
M 947 1747 
Q 947 1113 1208 752 
Q 1469 391 1925 391 
Q 2381 391 2643 752 
Q 2906 1113 2906 1747 
Q 2906 2381 2643 2742 
Q 2381 3103 1925 3103 
Q 1469 3103 1208 2742 
Q 947 2381 947 1747 
z
" transform="scale(0.015625)"/>
       <path id="DejaVuSans-45" d="M 628 4666 
L 3578 4666 
L 3578 4134 
L 1259 4134 
L 1259 2753 
L 3481 2753 
L 3481 2222 
L 1259 2222 
L 1259 531 
L 3634 531 
L 3634 0 
L 628 0 
L 628 4666 
z
" transform="scale(0.015625)"/>
      </defs>
      <use xlink:href="#DejaVuSans-52"/>
      <use xlink:href="#DejaVuSans-6f" transform="translate(64.982422 0)"/>
      <use xlink:href="#DejaVuSans-6f" transform="translate(126.164062 0)"/>
      <use xlink:href="#DejaVuSans-74" transform="translate(187.345703 0)"/>
      <use xlink:href="#DejaVuSans-20" transform="translate(226.554688 0)"/>
      <use xlink:href="#DejaVuSans-4d" transform="translate(258.341797 0)"/>
      <use xlink:href="#DejaVuSans-65" transform="translate(344.621094 0)"/>
      <use xlink:href="#DejaVuSans-61" transform="translate(406.144531 0)"/>
      <use xlink:href="#DejaVuSans-6e" transform="translate(467.423828 0)"/>
      <use xlink:href="#DejaVuSans-20" transform="translate(530.802734 0)"/>
      <use xlink:href="#DejaVuSans-53" transform="translate(562.589844 0)"/>
      <use xlink:href="#DejaVuSans-71" transform="translate(626.066406 0)"/>
      <use xlink:href="#DejaVuSans-75" transform="translate(689.542969 0)"/>
      <use xlink:href="#DejaVuSans-61" transform="translate(752.921875 0)"/>
      <use xlink:href="#DejaVuSans-72" transform="translate(814.201172 0)"/>
      <use xlink:href="#DejaVuSans-65" transform="translate(853.064453 0)"/>
      <use xlink:href="#DejaVuSans-64" transform="translate(914.587891 0)"/>
      <use xlink:href="#DejaVuSans-20" transform="translate(978.064453 0)"/>
      <use xlink:href="#DejaVuSans-45" transform="translate(1009.851562 0)"/>
      <use xlink:href="#DejaVuSans-72" transform="translate(1073.035156 0)"/>
      <use xlink:href="#DejaVuSans-72" transform="translate(1112.398438 0)"/>
      <use xlink:href="#DejaVuSans-6f" transform="translate(1151.261719 0)"/>
      <use xlink:href="#DejaVuSans-72" transform="translate(1212.443359 0)"/>
      <use xlink:href="#DejaVuSans-20" transform="translate(1253.556641 0)"/>
      <use xlink:href="#DejaVuSans-28" transform="translate(1285.34375 0)"/>
      <use xlink:href="#DejaVuSans-52" transform="translate(1324.357422 0)"/>
      <use xlink:href="#DejaVuSans-4d" transform="translate(1393.839844 0)"/>
      <use xlink:href="#DejaVuSans-53" transform="translate(1480.119141 0)"/>
      <use xlink:href="#DejaVuSans-45" transform="translate(1543.595703 0)"/>
      <use xlink:href="#DejaVuSans-29" transform="translate(1606.779297 0)"/>
     </g>
    </g>
   </g>
   <g id="line2d_15">
    <path d="M 96.836481 414.077342 
L 99.372845 413.349735 
L 101.909208 414.082596 
L 104.445572 419.857031 
L 106.981936 417.867097 
L 109.518299 416.968393 
L 112.054663 415.598802 
L 114.591027 421.83894 
L 117.12739 416.915052 
L 119.663754 419.97451 
M 127.272845 412.204429 
L 129.809208 421.518386 
L 132.345572 417.305041 
L 134.881936 420.549264 
L 137.418299 415.379813 
L 139.954663 422.983539 
L 142.491027 419.570909 
L 145.02739 422.715327 
L 147.563754 421.599463 
L 152.636481 420.610921 
L 155.172845 420.066151 
L 157.709208 418.681687 
L 160.245572 419.81747 
L 162.781936 418.475173 
L 165.318299 422.344758 
L 167.854663 418.470835 
L 170.391027 421.369856 
L 172.92739 418.101237 
L 175.463754 421.051394 
L 178.000118 417.436465 
L 180.536481 423.31772 
L 183.072845 421.767399 
L 185.609208 426.282488 
L 188.145572 420.31791 
L 190.681936 424.89783 
L 193.218299 419.504095 
L 195.754663 422.826679 
L 198.291027 417.044328 
L 200.82739 419.813589 
L 203.363754 419.606229 
L 205.900118 422.465994 
L 208.436481 418.51888 
L 210.972845 420.087374 
L 213.509208 418.732227 
L 216.045572 420.103481 
L 218.581936 412.536447 
L 221.118299 414.461342 
L 223.654663 413.859018 
L 226.191027 416.894495 
L 228.72739 406.003035 
L 231.263754 414.5398 
L 233.800118 409.476351 
L 236.336481 413.995724 
L 238.872845 409.625047 
L 241.409208 406.951752 
L 243.945572 408.400105 
L 246.481936 410.648896 
L 249.018299 409.004675 
L 251.554663 414.982616 
L 254.091027 404.861638 
M 261.700118 416.601636 
L 264.236481 410.206925 
L 266.772845 414.401307 
L 269.309208 413.8671 
M 276.918299 413.025908 
L 279.454663 410.61937 
L 281.991027 414.715846 
L 284.52739 412.917259 
L 287.063754 416.511327 
L 289.600118 414.747575 
L 292.136481 414.346511 
L 294.672845 413.649718 
L 297.209208 415.97967 
L 299.745572 412.453872 
L 302.281936 414.855226 
L 304.818299 407.924714 
L 307.354663 413.768764 
L 309.891027 412.700959 
L 312.42739 412.360651 
L 314.963754 413.699094 
L 317.500118 411.82406 
L 320.036481 403.959704 
L 322.572845 405.281942 
L 325.109208 406.063153 
L 327.645572 404.888765 
L 330.181936 406.91287 
L 332.718299 412.809941 
L 335.254663 405.396178 
L 337.791027 408.966777 
L 340.32739 405.490466 
L 342.863754 410.895498 
L 345.400118 402.462017 
L 347.936481 407.407862 
L 350.472845 402.467589 
L 353.009208 406.010215 
L 355.545572 398.734987 
L 358.081936 405.941779 
L 360.618299 402.744521 
L 363.154663 410.063594 
L 365.691027 408.412414 
L 368.22739 412.493254 
L 370.763754 412.20472 
L 373.300118 410.76923 
L 375.836481 407.494027 
L 378.372845 410.243659 
L 383.445572 409.790779 
L 385.981936 400.574022 
L 388.518299 403.983948 
L 391.054663 405.803812 
L 393.591027 408.196364 
L 396.12739 401.877186 
L 398.663754 406.081091 
L 401.200118 402.037803 
L 403.736481 402.935315 
L 406.272845 397.699758 
L 408.809208 400.14163 
L 411.345572 398.273235 
L 413.881936 400.589769 
L 416.418299 394.858041 
L 418.954663 400.377461 
L 421.491027 399.819106 
L 424.02739 400.472012 
L 426.563754 395.170667 
L 429.100118 403.467928 
L 431.636481 400.821497 
L 434.172845 401.221965 
L 436.709208 400.953974 
L 439.245572 401.717096 
L 441.781936 399.205804 
L 444.318299 400.573786 
L 446.854663 397.043206 
M 469.681936 404.867307 
L 472.218299 405.870474 
L 474.754663 408.500174 
L 477.291027 406.286467 
L 479.82739 406.730365 
L 482.363754 405.80129 
L 484.900118 407.947489 
L 487.436481 399.127969 
L 489.972845 406.685286 
L 492.509208 400.429845 
L 495.045572 405.286226 
L 497.581936 400.027713 
L 500.118299 402.993133 
L 502.654663 400.220337 
L 505.191027 398.696853 
L 507.72739 399.428646 
L 510.263754 399.505621 
L 512.800118 398.41184 
L 515.336481 400.912347 
L 517.872845 393.517214 
L 520.409208 399.123284 
L 522.945572 398.468576 
L 525.481936 401.250964 
L 528.018299 397.671563 
L 530.554663 403.796121 
L 533.091027 404.955219 
L 535.62739 402.046134 
L 538.163754 399.956546 
L 540.700118 401.312358 
L 543.236481 405.776865 
L 545.772845 406.25873 
L 548.309208 401.866748 
L 550.845572 405.276425 
L 553.381936 398.962196 
L 555.918299 406.37492 
L 558.454663 401.242633 
L 560.991027 409.697198 
L 563.52739 404.982083 
L 566.063754 411.145468 
L 568.600118 407.001863 
L 571.136481 407.09988 
L 573.672845 406.097531 
L 576.209208 412.663435 
L 578.745572 412.782134 
L 581.281936 415.592468 
L 583.818299 407.950996 
L 586.354663 413.646364 
L 588.891027 409.635374 
L 591.42739 410.503194 
L 593.963754 408.267642 
L 596.500118 412.13609 
L 599.036481 408.075295 
L 601.572845 410.881955 
L 604.109208 408.981207 
L 606.645572 408.201521 
L 609.181936 405.130294 
L 611.718299 410.285064 
L 614.254663 404.243774 
L 616.791027 409.126326 
L 619.32739 407.419381 
L 621.863754 407.846963 
L 624.400118 404.026144 
L 626.936481 405.849196 
L 629.472845 405.545303 
L 632.009208 402.813608 
L 634.545572 404.095896 
L 637.081936 404.650134 
L 639.618299 400.448212 
L 642.154663 404.270805 
L 644.691027 405.059113 
L 647.22739 405.24166 
L 649.763754 402.36637 
L 652.300118 403.908526 
L 654.836481 408.646264 
L 657.372845 403.783645 
L 659.909208 409.254548 
L 662.445572 403.604301 
L 664.981936 410.433053 
L 667.518299 408.540124 
L 670.054663 407.15175 
L 672.591027 411.240546 
L 675.12739 413.856329 
L 677.663754 417.16975 
L 680.200118 408.926286 
L 682.736481 409.204119 
L 685.272845 412.96877 
L 687.809208 414.252043 
L 690.345572 409.079085 
L 692.881936 412.9206 
L 695.418299 414.761007 
L 697.954663 417.59729 
L 700.491027 414.964444 
L 703.02739 413.587867 
L 705.563754 409.304978 
L 705.563754 409.304978 
" clip-path="url(#pb0cacc0682)" style="fill: none; stroke: #0000ff; stroke-linecap: square"/>
   </g>
   <g id="line2d_16">
    <path d="M 96.836481 404.109051 
L 99.372845 408.765143 
L 104.445572 405.765859 
L 106.981936 425.619311 
L 109.518299 358.683367 
L 112.054663 420.401122 
L 114.591027 418.360897 
L 117.12739 403.877656 
L 119.663754 417.479257 
L 122.200118 439.042551 
L 124.736481 385.916247 
L 127.272845 435.943407 
L 129.809208 387.455076 
L 132.345572 407.935623 
L 134.881936 392.574859 
L 137.418299 439.780458 
L 139.954663 421.372005 
L 142.491027 427.844938 
L 145.02739 431.006613 
L 147.563754 396.969239 
L 150.100118 392.95337 
L 152.636481 400.045345 
L 155.172845 391.736621 
L 157.709208 382.205435 
L 160.245572 380.539562 
L 162.781936 339.523325 
L 165.318299 415.163638 
L 167.854663 389.977222 
L 170.391027 388.593617 
L 172.92739 396.139969 
L 175.463754 397.07872 
L 178.000118 406.234998 
L 180.536481 359.38637 
L 183.072845 367.029075 
L 185.609208 420.185876 
L 188.145572 405.009446 
L 190.681936 412.728406 
L 193.218299 346.89366 
L 195.754663 396.544596 
L 198.291027 420.207653 
L 200.82739 384.586759 
L 203.363754 374.922652 
L 205.900118 378.528294 
L 208.436481 236.326806 
L 210.972845 389.531107 
L 213.509208 393.656262 
L 216.045572 324.098658 
L 218.581936 412.390676 
L 221.118299 350.820522 
L 223.654663 380.843316 
L 226.191027 420.133658 
L 228.72739 319.34918 
L 231.263754 402.413833 
L 233.800118 427.378002 
L 236.336481 407.402982 
L 238.872845 425.281761 
L 241.409208 436.03276 
L 246.481936 360.663335 
L 249.018299 414.92972 
L 251.554663 421.711301 
L 254.091027 353.072376 
L 256.62739 419.219859 
L 259.163754 427.069646 
L 261.700118 392.828461 
L 264.236481 351.190716 
L 266.772845 353.658828 
L 269.309208 429.154756 
L 271.845572 407.704934 
L 274.381936 348.689529 
L 276.918299 378.976682 
L 279.454663 328.665687 
L 281.991027 419.777991 
L 284.52739 425.125608 
L 287.063754 402.021058 
L 289.600118 414.754201 
L 292.136481 393.561225 
L 294.672845 427.859978 
L 297.209208 418.609578 
L 299.745572 437.259019 
L 302.281936 464.237187 
L 304.818299 441.408169 
L 307.354663 427.490297 
L 309.891027 429.356418 
L 312.42739 375.346297 
L 314.963754 446.643283 
L 320.036481 395.4069 
L 322.572845 401.661538 
L 325.109208 414.904893 
L 327.645572 405.870446 
L 330.181936 360.97226 
L 332.718299 363.626661 
L 335.254663 393.048227 
L 337.791027 399.870257 
L 340.32739 442.318004 
L 342.863754 428.477744 
L 345.400118 384.49857 
L 347.936481 394.750238 
L 350.472845 375.02272 
L 353.009208 401.19639 
L 355.545572 354.510832 
L 358.081936 432.921972 
L 360.618299 408.227248 
L 363.154663 407.781341 
L 365.691027 432.93794 
L 368.22739 410.275403 
L 370.763754 420.95669 
L 373.300118 412.874329 
L 375.836481 416.39138 
L 378.372845 451.427069 
L 380.909208 424.606801 
L 383.445572 421.83639 
L 385.981936 327.155802 
L 388.518299 434.891599 
L 391.054663 419.192537 
L 393.591027 398.983751 
L 396.12739 386.372911 
L 398.663754 401.425235 
L 401.200118 420.649831 
L 403.736481 352.534703 
L 406.272845 310.969094 
L 408.809208 366.871341 
L 411.345572 401.78305 
L 413.881936 369.79128 
L 416.418299 290.062684 
L 418.954663 378.846035 
L 421.491027 388.857255 
L 424.02739 366.658354 
L 426.563754 353.092905 
L 429.100118 422.004035 
L 431.636481 405.510454 
L 434.172845 374.999003 
L 436.709208 338.841739 
L 439.245572 363.646179 
L 441.781936 348.721605 
L 444.318299 352.391455 
L 446.854663 368.569831 
L 449.391027 372.20371 
L 451.92739 382.024621 
L 454.463754 362.425465 
L 457.000118 400.134671 
L 459.536481 371.585569 
L 462.072845 321.646168 
L 464.609208 392.612965 
L 467.145572 345.452168 
L 469.681936 410.279977 
L 472.218299 338.303096 
L 474.754663 360.998431 
L 477.291027 375.936201 
L 479.82739 417.961163 
L 482.363754 273.79422 
L 484.900118 371.710894 
L 487.436481 353.928607 
L 489.972845 294.317184 
L 492.509208 329.442061 
L 495.045572 384.16766 
L 497.581936 363.922431 
L 500.118299 306.99014 
L 502.654663 361.961939 
L 505.191027 339.505554 
L 507.72739 390.08375 
L 510.263754 380.883973 
L 512.800118 310.33755 
L 515.336481 306.057239 
L 517.872845 386.939749 
L 520.409208 284.487928 
L 522.945572 272.42517 
L 525.481936 388.127361 
L 528.018299 331.551914 
L 530.554663 376.186823 
L 533.091027 350.051357 
L 535.62739 391.431951 
L 538.163754 292.033698 
L 540.700118 332.657035 
L 543.236481 370.228953 
L 545.772845 376.825978 
L 548.309208 308.280565 
L 550.845572 383.785517 
L 553.381936 372.115936 
L 555.918299 372.396292 
L 558.454663 363.569384 
L 560.991027 332.767319 
L 563.52739 334.248151 
L 566.063754 352.480531 
L 568.600118 357.050235 
L 571.136481 375.282297 
L 573.672845 360.746298 
L 576.209208 404.354988 
L 578.745572 426.443632 
L 581.281936 347.019539 
L 583.818299 395.605457 
L 586.354663 361.32313 
L 588.891027 396.330528 
L 591.42739 386.869635 
L 593.963754 369.726642 
L 596.500118 348.611459 
L 599.036481 335.097188 
L 601.572845 271.503387 
L 604.109208 355.78307 
L 606.645572 388.183265 
L 609.181936 330.448429 
L 611.718299 410.520591 
L 614.254663 350.607465 
L 616.791027 400.441821 
L 619.32739 368.016301 
L 621.863754 374.856448 
L 624.400118 428.446153 
L 626.936481 354.559611 
L 629.472845 333.925669 
L 632.009208 404.730643 
L 634.545572 387.664556 
L 637.081936 285.112182 
L 639.618299 391.048422 
L 642.154663 376.951109 
L 644.691027 396.693791 
L 647.22739 257.741696 
L 649.763754 370.371703 
L 652.300118 380.682782 
L 654.836481 394.658403 
L 657.372845 348.546447 
L 659.909208 339.176391 
L 662.445572 388.409698 
L 664.981936 359.362929 
L 667.518299 311.958912 
L 670.054663 442.05639 
L 672.591027 426.337741 
L 675.12739 407.674771 
L 677.663754 337.407677 
L 680.200118 383.679169 
L 682.736481 416.466899 
L 685.272845 425.179904 
L 687.809208 398.47419 
L 690.345572 382.211382 
L 692.881936 417.598413 
L 695.418299 402.627166 
L 697.954663 403.676299 
L 700.491027 388.864131 
L 703.02739 404.822353 
L 705.563754 388.221219 
L 705.563754 388.221219 
" clip-path="url(#pb0cacc0682)" style="fill: none; stroke: #ffa500; stroke-linecap: square"/>
   </g>
   <g id="line2d_17">
    <path d="M 96.836481 376.394279 
L 99.372845 380.801467 
L 101.909208 386.334694 
L 104.445572 386.975817 
L 109.518299 379.53128 
L 112.054663 386.85454 
L 114.591027 390.253086 
L 117.12739 383.840881 
L 119.663754 390.198567 
M 127.272845 380.882365 
L 129.809208 383.700683 
L 132.345572 383.599048 
L 134.881936 382.610103 
L 137.418299 383.26653 
L 139.954663 379.954995 
L 142.491027 386.055128 
L 145.02739 384.907466 
L 147.563754 387.552469 
L 150.100118 386.316091 
L 152.636481 385.656614 
L 155.172845 387.919295 
L 157.709208 386.422425 
L 160.245572 382.686399 
L 162.781936 388.809252 
L 165.318299 392.153349 
L 167.854663 390.056705 
L 170.391027 382.98903 
L 172.92739 382.570486 
L 175.463754 390.213095 
L 178.000118 382.303313 
L 180.536481 387.684586 
L 183.072845 397.004656 
L 185.609208 394.8351 
L 188.145572 388.629547 
L 190.681936 390.990688 
L 193.218299 386.133212 
L 195.754663 387.123667 
L 198.291027 382.830368 
L 200.82739 381.838124 
L 203.363754 390.437947 
L 205.900118 389.658746 
L 208.436481 390.247181 
L 210.972845 389.527766 
L 213.509208 389.879912 
L 216.045572 384.177502 
L 218.581936 380.627612 
L 221.118299 384.791955 
L 223.654663 386.918096 
L 226.191027 381.048527 
L 228.72739 378.345096 
L 231.263754 377.74255 
L 233.800118 375.689405 
L 236.336481 377.134085 
L 238.872845 376.728474 
L 241.409208 370.959804 
L 243.945572 372.944111 
L 246.481936 375.756843 
L 249.018299 383.92652 
L 251.554663 375.285194 
L 254.091027 373.666756 
M 261.700118 380.534003 
L 264.236481 377.742688 
L 266.772845 380.435182 
L 269.309208 379.019529 
M 276.918299 377.34789 
L 279.454663 379.767708 
L 281.991027 380.852229 
L 284.52739 378.671473 
L 287.063754 382.957162 
L 289.600118 383.987609 
L 292.136481 377.953014 
L 294.672845 377.588434 
L 297.209208 377.935673 
L 299.745572 377.75942 
L 302.281936 370.480074 
L 304.818299 374.031267 
L 307.354663 382.804931 
L 309.891027 375.112088 
L 312.42739 379.685008 
L 314.963754 377.782624 
L 317.500118 367.625009 
L 320.036481 361.211584 
L 322.572845 366.83293 
L 325.109208 367.825465 
L 327.645572 369.983738 
L 330.181936 376.249492 
L 332.718299 372.488445 
L 335.254663 373.433074 
L 337.791027 367.669228 
L 340.32739 369.039844 
L 342.863754 366.712471 
L 345.400118 366.699247 
L 347.936481 368.69858 
L 350.472845 363.915847 
L 353.009208 363.641951 
L 355.545572 364.478096 
L 358.081936 368.23845 
L 360.618299 369.166139 
L 365.691027 375.692108 
L 368.22739 377.784745 
L 370.763754 378.295415 
L 373.300118 373.205837 
L 375.836481 375.957091 
L 378.372845 377.396586 
L 380.909208 376.278436 
L 383.445572 370.611374 
L 385.981936 368.527622 
L 388.518299 376.656753 
L 391.054663 377.530755 
L 393.591027 371.672829 
L 396.12739 369.195111 
L 398.663754 377.991827 
L 401.200118 375.953417 
L 403.736481 366.4228 
L 406.272845 365.249757 
L 408.809208 362.449251 
L 411.345572 364.10599 
L 413.881936 356.972152 
L 416.418299 363.500948 
L 418.954663 366.414941 
L 421.491027 363.818426 
L 424.02739 358.881619 
L 426.563754 366.680741 
L 429.100118 368.008219 
L 431.636481 364.396145 
L 434.172845 362.143155 
L 436.709208 366.039174 
L 439.245572 364.869679 
L 441.781936 367.911186 
L 444.318299 367.58876 
L 446.854663 368.232074 
M 469.681936 369.562546 
L 472.218299 368.065552 
L 474.754663 366.812068 
L 477.291027 368.466685 
L 479.82739 366.002315 
L 482.363754 373.732046 
L 484.900118 365.751583 
L 487.436481 364.184655 
L 489.972845 366.175547 
L 492.509208 363.420286 
L 495.045572 366.693868 
L 497.581936 370.294756 
L 500.118299 368.859516 
L 502.654663 363.62522 
L 505.191027 358.907277 
L 507.72739 364.018688 
L 510.263754 362.766327 
L 512.800118 360.381982 
L 515.336481 358.242006 
L 517.872845 370.610459 
L 520.409208 368.569013 
L 522.945572 367.434686 
L 525.481936 364.817947 
L 528.018299 369.88536 
L 530.554663 374.125694 
L 533.091027 372.437448 
L 535.62739 364.52305 
L 538.163754 363.641161 
L 540.700118 371.555281 
L 543.236481 373.792719 
L 545.772845 363.13982 
L 548.309208 365.929763 
L 550.845572 364.190408 
L 553.381936 365.525233 
L 555.918299 370.96083 
L 558.454663 374.232998 
L 560.991027 374.815736 
L 563.52739 370.937237 
L 566.063754 370.093274 
L 568.600118 372.64726 
L 571.136481 372.741368 
L 573.672845 377.026767 
L 576.209208 377.836339 
L 578.745572 376.804215 
L 581.281936 377.874237 
L 583.818299 378.298728 
L 586.354663 372.469926 
L 588.891027 373.840057 
L 593.963754 372.135981 
L 596.500118 375.835689 
L 599.036481 367.780608 
L 601.572845 372.215367 
L 604.109208 374.588305 
L 606.645572 366.99808 
L 609.181936 367.426466 
L 611.718299 371.927374 
L 614.254663 366.047061 
L 616.791027 367.414115 
L 619.32739 368.012918 
L 621.863754 363.424584 
L 624.400118 368.650826 
L 626.936481 369.447798 
L 629.472845 375.347226 
L 632.009208 361.908571 
L 634.545572 372.160807 
L 637.081936 362.271293 
L 639.618299 371.688978 
L 642.154663 371.543457 
L 644.691027 372.397096 
L 647.22739 367.194363 
L 649.763754 368.716129 
L 652.300118 375.334487 
L 654.836481 372.478645 
L 657.372845 370.279618 
L 659.909208 378.275801 
L 662.445572 375.655943 
L 664.981936 377.935881 
L 667.518299 381.460528 
L 670.054663 375.693688 
L 672.591027 375.120044 
L 675.12739 385.616817 
L 677.663754 377.873073 
L 680.200118 370.688182 
L 682.736481 379.759973 
L 685.272845 376.61751 
L 687.809208 371.634889 
L 690.345572 368.660654 
L 692.881936 378.768187 
L 695.418299 382.988753 
L 697.954663 386.560558 
L 700.491027 380.596423 
L 703.02739 377.503045 
L 705.563754 371.203606 
L 705.563754 371.203606 
" clip-path="url(#pb0cacc0682)" style="fill: none; stroke-dasharray: 3.7,1.6; stroke-dashoffset: 0; stroke: #0000ff"/>
   </g>
   <g id="line2d_18">
    <path d="M 96.836481 412.00906 
L 99.372845 351.764138 
L 101.909208 399.008647 
L 104.445572 400.040965 
L 106.981936 313.376922 
L 109.518299 318.716082 
L 112.054663 408.207135 
L 114.591027 417.933453 
L 117.12739 387.411411 
L 119.663754 416.733795 
L 122.200118 409.232674 
L 124.736481 418.202012 
L 127.272845 370.390485 
L 129.809208 409.464874 
L 132.345572 361.824 
L 134.881936 406.138368 
L 137.418299 396.964166 
L 139.954663 370.849395 
L 142.491027 365.150645 
L 145.02739 353.756956 
L 147.563754 399.059367 
L 150.100118 366.144912 
L 152.636481 355.911791 
L 155.172845 380.232495 
L 157.709208 410.971419 
L 160.245572 355.919235 
L 162.781936 283.641941 
L 165.318299 341.107011 
L 167.854663 378.065586 
L 170.391027 323.66093 
L 172.92739 341.873598 
L 175.463754 339.695073 
L 178.000118 339.194828 
L 180.536481 305.381863 
L 183.072845 371.987465 
L 185.609208 384.766325 
L 188.145572 347.791573 
L 190.681936 358.620933 
L 193.218299 400.984054 
L 195.754663 355.964937 
L 198.291027 379.790094 
L 200.82739 332.125101 
L 203.363754 360.743983 
L 205.900118 316.634646 
L 208.436481 238.265327 
L 210.972845 408.063734 
L 213.509208 307.346111 
L 216.045572 265.121955 
L 218.581936 348.989014 
L 221.118299 336.279214 
L 223.654663 340.920265 
L 226.191027 294.294784 
L 228.72739 393.116884 
L 231.263754 267.99468 
L 233.800118 420.399985 
L 236.336481 322.139926 
L 238.872845 404.465328 
L 241.409208 360.349254 
L 243.945572 364.536593 
L 246.481936 407.765192 
L 249.018299 383.364686 
L 251.554663 344.125563 
L 254.091027 331.240106 
L 256.62739 393.158373 
L 259.163754 317.775169 
L 261.700118 249.203613 
L 264.236481 344.283921 
L 266.772845 412.474818 
L 269.309208 311.802939 
L 271.845572 365.953757 
L 274.381936 356.134301 
L 276.918299 289.977545 
L 279.454663 243.912165 
L 281.991027 375.716408 
L 284.52739 382.787729 
L 287.063754 320.17005 
L 289.600118 333.668227 
L 292.136481 378.703757 
L 294.672845 418.569392 
L 297.209208 447.437136 
L 299.745572 439.889329 
L 302.281936 425.805558 
L 304.818299 402.49437 
L 307.354663 348.7568 
L 309.891027 417.261487 
L 312.42739 402.006212 
L 314.963754 402.90145 
L 317.500118 337.31034 
L 320.036481 355.52391 
L 322.572845 399.987888 
L 325.109208 353.16245 
L 327.645572 365.84235 
L 330.181936 383.159281 
L 332.718299 304.743775 
L 335.254663 317.334419 
L 337.791027 371.576018 
L 340.32739 382.378666 
L 342.863754 377.316021 
L 345.400118 303.596376 
L 347.936481 339.099292 
L 350.472845 348.579438 
L 353.009208 317.256959 
L 355.545572 321.952903 
L 358.081936 426.207177 
L 360.618299 397.769288 
L 363.154663 344.210675 
L 365.691027 363.678033 
L 368.22739 297.880395 
L 370.763754 255.724522 
L 375.836481 441.724815 
L 378.372845 409.942705 
L 383.445572 283.968054 
L 385.981936 359.329231 
L 388.518299 383.965194 
L 391.054663 393.807245 
L 393.591027 349.078395 
L 396.12739 329.541949 
L 398.663754 422.64976 
L 401.200118 275.364405 
L 403.736481 297.942579 
L 406.272845 343.423961 
L 408.809208 353.681201 
L 411.345572 352.453625 
L 413.881936 365.685434 
L 416.418299 266.769101 
L 418.954663 314.703055 
L 421.491027 334.369081 
L 424.02739 354.927518 
L 426.563754 362.242946 
L 429.100118 371.741473 
L 431.636481 344.156253 
L 434.172845 320.554688 
L 436.709208 319.762623 
L 439.245572 300.170758 
L 441.781936 321.177888 
L 444.318299 345.978516 
L 446.854663 331.457543 
L 449.391027 357.416562 
L 451.92739 288.65593 
L 454.463754 345.647065 
L 457.000118 358.757167 
L 459.536481 308.546712 
L 462.072845 330.381283 
L 464.609208 320.285851 
L 467.145572 354.822681 
L 469.681936 331.322667 
L 472.218299 281.906772 
L 474.754663 312.606343 
L 477.291027 322.738203 
L 479.82739 326.210757 
L 482.363754 326.137345 
L 484.900118 253.517442 
L 487.436481 315.156143 
L 489.972845 162.908821 
L 492.509208 322.067096 
L 495.045572 352.281531 
L 497.581936 296.518471 
L 500.118299 305.23221 
L 502.654663 314.360724 
L 505.191027 285.387561 
L 507.72739 325.459031 
L 510.263754 321.020806 
L 512.800118 158.460671 
L 515.336481 276.805425 
L 517.872845 289.543697 
L 520.409208 61.037187 
L 522.945572 295.614624 
L 525.481936 315.913248 
L 528.018299 305.778117 
L 530.554663 258.266005 
L 533.091027 343.278855 
L 535.62739 260.112761 
L 538.163754 304.067955 
L 540.700118 339.318669 
L 543.236481 346.403464 
L 545.772845 264.72681 
L 548.309208 260.775163 
L 550.845572 281.216758 
L 553.381936 264.071034 
L 555.918299 259.527986 
L 558.454663 271.99221 
L 560.991027 180.438823 
L 563.52739 296.259116 
L 566.063754 271.624123 
L 568.600118 326.893175 
L 571.136481 270.958423 
L 573.672845 400.973811 
L 576.209208 393.10628 
L 578.745572 361.378952 
L 581.281936 290.267257 
L 583.818299 321.504223 
L 586.354663 391.037319 
L 588.891027 368.679603 
L 591.42739 351.302345 
L 593.963754 331.533173 
L 596.500118 289.061001 
L 599.036481 227.716087 
L 601.572845 203.839725 
L 604.109208 359.951669 
L 606.645572 255.634864 
L 609.181936 385.104789 
L 611.718299 309.562285 
L 614.254663 337.919124 
L 616.791027 294.464924 
L 619.32739 379.911579 
L 621.863754 386.727122 
L 624.400118 374.720061 
L 626.936481 335.741014 
L 629.472845 352.55386 
L 632.009208 402.492471 
L 634.545572 290.184363 
L 637.081936 337.258108 
L 639.618299 379.913382 
L 642.154663 279.4509 
L 644.691027 224.426897 
L 647.22739 270.474395 
L 649.763754 302.623913 
L 652.300118 278.964045 
L 654.836481 322.196483 
L 657.372845 316.686018 
L 659.909208 313.021699 
L 662.445572 306.660977 
L 664.981936 354.08246 
L 667.518299 275.249906 
L 670.054663 392.886016 
L 672.591027 384.582434 
L 675.12739 302.683741 
L 677.663754 278.379048 
L 680.200118 387.91795 
L 682.736481 380.89814 
L 685.272845 351.09238 
L 687.809208 351.106186 
L 690.345572 347.070384 
L 692.881936 393.411739 
L 695.418299 392.848644 
L 697.954663 356.069289 
L 700.491027 342.710686 
L 703.02739 360.052597 
L 705.563754 386.055156 
L 705.563754 386.055156 
" clip-path="url(#pb0cacc0682)" style="fill: none; stroke-dasharray: 3.7,1.6; stroke-dashoffset: 0; stroke: #ffa500"/>
   </g>
   <g id="patch_3">
    <path d="M 66.400118 484.397187 
L 66.400118 40.877187 
" style="fill: none; stroke: #000000; stroke-width: 0.8; stroke-linejoin: miter; stroke-linecap: square"/>
   </g>
   <g id="patch_4">
    <path d="M 736.000118 484.397187 
L 736.000118 40.877187 
" style="fill: none; stroke: #000000; stroke-width: 0.8; stroke-linejoin: miter; stroke-linecap: square"/>
   </g>
   <g id="patch_5">
    <path d="M 66.400118 484.397187 
L 736.000118 484.397187 
" style="fill: none; stroke: #000000; stroke-width: 0.8; stroke-linejoin: miter; stroke-linecap: square"/>
   </g>
   <g id="patch_6">
    <path d="M 66.400118 40.877187 
L 736.000118 40.877187 
" style="fill: none; stroke: #000000; stroke-width: 0.8; stroke-linejoin: miter; stroke-linecap: square"/>
   </g>
   <g id="text_17">
    <!-- Temperature in K two steps forward prediction: RMSES -->
    <g transform="translate(155.692774 20.877187) scale(0.18 -0.18)">
     <defs>
      <path id="DejaVuSans-54" d="M -19 4666 
L 3928 4666 
L 3928 4134 
L 2272 4134 
L 2272 0 
L 1638 0 
L 1638 4134 
L -19 4134 
L -19 4666 
z
" transform="scale(0.015625)"/>
      <path id="DejaVuSans-6d" d="M 3328 2828 
Q 3544 3216 3844 3400 
Q 4144 3584 4550 3584 
Q 5097 3584 5394 3201 
Q 5691 2819 5691 2113 
L 5691 0 
L 5113 0 
L 5113 2094 
Q 5113 2597 4934 2840 
Q 4756 3084 4391 3084 
Q 3944 3084 3684 2787 
Q 3425 2491 3425 1978 
L 3425 0 
L 2847 0 
L 2847 2094 
Q 2847 2600 2669 2842 
Q 2491 3084 2119 3084 
Q 1678 3084 1418 2786 
Q 1159 2488 1159 1978 
L 1159 0 
L 581 0 
L 581 3500 
L 1159 3500 
L 1159 2956 
Q 1356 3278 1631 3431 
Q 1906 3584 2284 3584 
Q 2666 3584 2933 3390 
Q 3200 3197 3328 2828 
z
" transform="scale(0.015625)"/>
      <path id="DejaVuSans-70" d="M 1159 525 
L 1159 -1331 
L 581 -1331 
L 581 3500 
L 1159 3500 
L 1159 2969 
Q 1341 3281 1617 3432 
Q 1894 3584 2278 3584 
Q 2916 3584 3314 3078 
Q 3713 2572 3713 1747 
Q 3713 922 3314 415 
Q 2916 -91 2278 -91 
Q 1894 -91 1617 61 
Q 1341 213 1159 525 
z
M 3116 1747 
Q 3116 2381 2855 2742 
Q 2594 3103 2138 3103 
Q 1681 3103 1420 2742 
Q 1159 2381 1159 1747 
Q 1159 1113 1420 752 
Q 1681 391 2138 391 
Q 2594 391 2855 752 
Q 3116 1113 3116 1747 
z
" transform="scale(0.015625)"/>
      <path id="DejaVuSans-69" d="M 603 3500 
L 1178 3500 
L 1178 0 
L 603 0 
L 603 3500 
z
M 603 4863 
L 1178 4863 
L 1178 4134 
L 603 4134 
L 603 4863 
z
" transform="scale(0.015625)"/>
      <path id="DejaVuSans-4b" d="M 628 4666 
L 1259 4666 
L 1259 2694 
L 3353 4666 
L 4166 4666 
L 1850 2491 
L 4331 0 
L 3500 0 
L 1259 2247 
L 1259 0 
L 628 0 
L 628 4666 
z
" transform="scale(0.015625)"/>
      <path id="DejaVuSans-77" d="M 269 3500 
L 844 3500 
L 1563 769 
L 2278 3500 
L 2956 3500 
L 3675 769 
L 4391 3500 
L 4966 3500 
L 4050 0 
L 3372 0 
L 2619 2869 
L 1863 0 
L 1184 0 
L 269 3500 
z
" transform="scale(0.015625)"/>
      <path id="DejaVuSans-66" d="M 2375 4863 
L 2375 4384 
L 1825 4384 
Q 1516 4384 1395 4259 
Q 1275 4134 1275 3809 
L 1275 3500 
L 2222 3500 
L 2222 3053 
L 1275 3053 
L 1275 0 
L 697 0 
L 697 3053 
L 147 3053 
L 147 3500 
L 697 3500 
L 697 3744 
Q 697 4328 969 4595 
Q 1241 4863 1831 4863 
L 2375 4863 
z
" transform="scale(0.015625)"/>
     </defs>
     <use xlink:href="#DejaVuSans-54"/>
     <use xlink:href="#DejaVuSans-65" transform="translate(44.083984 0)"/>
     <use xlink:href="#DejaVuSans-6d" transform="translate(105.607422 0)"/>
     <use xlink:href="#DejaVuSans-70" transform="translate(203.019531 0)"/>
     <use xlink:href="#DejaVuSans-65" transform="translate(266.496094 0)"/>
     <use xlink:href="#DejaVuSans-72" transform="translate(328.019531 0)"/>
     <use xlink:href="#DejaVuSans-61" transform="translate(369.132812 0)"/>
     <use xlink:href="#DejaVuSans-74" transform="translate(430.412109 0)"/>
     <use xlink:href="#DejaVuSans-75" transform="translate(469.621094 0)"/>
     <use xlink:href="#DejaVuSans-72" transform="translate(533 0)"/>
     <use xlink:href="#DejaVuSans-65" transform="translate(571.863281 0)"/>
     <use xlink:href="#DejaVuSans-20" transform="translate(633.386719 0)"/>
     <use xlink:href="#DejaVuSans-69" transform="translate(665.173828 0)"/>
     <use xlink:href="#DejaVuSans-6e" transform="translate(692.957031 0)"/>
     <use xlink:href="#DejaVuSans-20" transform="translate(756.335938 0)"/>
     <use xlink:href="#DejaVuSans-4b" transform="translate(788.123047 0)"/>
     <use xlink:href="#DejaVuSans-20" transform="translate(853.699219 0)"/>
     <use xlink:href="#DejaVuSans-74" transform="translate(885.486328 0)"/>
     <use xlink:href="#DejaVuSans-77" transform="translate(924.695312 0)"/>
     <use xlink:href="#DejaVuSans-6f" transform="translate(1006.482422 0)"/>
     <use xlink:href="#DejaVuSans-20" transform="translate(1067.664062 0)"/>
     <use xlink:href="#DejaVuSans-73" transform="translate(1099.451172 0)"/>
     <use xlink:href="#DejaVuSans-74" transform="translate(1151.550781 0)"/>
     <use xlink:href="#DejaVuSans-65" transform="translate(1190.759766 0)"/>
     <use xlink:href="#DejaVuSans-70" transform="translate(1252.283203 0)"/>
     <use xlink:href="#DejaVuSans-73" transform="translate(1315.759766 0)"/>
     <use xlink:href="#DejaVuSans-20" transform="translate(1367.859375 0)"/>
     <use xlink:href="#DejaVuSans-66" transform="translate(1399.646484 0)"/>
     <use xlink:href="#DejaVuSans-6f" transform="translate(1434.851562 0)"/>
     <use xlink:href="#DejaVuSans-72" transform="translate(1496.033203 0)"/>
     <use xlink:href="#DejaVuSans-77" transform="translate(1537.146484 0)"/>
     <use xlink:href="#DejaVuSans-61" transform="translate(1618.933594 0)"/>
     <use xlink:href="#DejaVuSans-72" transform="translate(1680.212891 0)"/>
     <use xlink:href="#DejaVuSans-64" transform="translate(1719.576172 0)"/>
     <use xlink:href="#DejaVuSans-20" transform="translate(1783.052734 0)"/>
     <use xlink:href="#DejaVuSans-70" transform="translate(1814.839844 0)"/>
     <use xlink:href="#DejaVuSans-72" transform="translate(1878.316406 0)"/>
     <use xlink:href="#DejaVuSans-65" transform="translate(1917.179688 0)"/>
     <use xlink:href="#DejaVuSans-64" transform="translate(1978.703125 0)"/>
     <use xlink:href="#DejaVuSans-69" transform="translate(2042.179688 0)"/>
     <use xlink:href="#DejaVuSans-63" transform="translate(2069.962891 0)"/>
     <use xlink:href="#DejaVuSans-74" transform="translate(2124.943359 0)"/>
     <use xlink:href="#DejaVuSans-69" transform="translate(2164.152344 0)"/>
     <use xlink:href="#DejaVuSans-6f" transform="translate(2191.935547 0)"/>
     <use xlink:href="#DejaVuSans-6e" transform="translate(2253.117188 0)"/>
     <use xlink:href="#DejaVuSans-3a" transform="translate(2316.496094 0)"/>
     <use xlink:href="#DejaVuSans-20" transform="translate(2350.1875 0)"/>
     <use xlink:href="#DejaVuSans-52" transform="translate(2381.974609 0)"/>
     <use xlink:href="#DejaVuSans-4d" transform="translate(2451.457031 0)"/>
     <use xlink:href="#DejaVuSans-53" transform="translate(2537.736328 0)"/>
     <use xlink:href="#DejaVuSans-45" transform="translate(2601.212891 0)"/>
     <use xlink:href="#DejaVuSans-53" transform="translate(2664.396484 0)"/>
    </g>
   </g>
   <g id="legend_1">
    <g id="text_18">
     <!-- Forecast Horizon -->
     <g transform="translate(852.099961 65.634687) scale(0.16 -0.16)">
      <defs>
       <path id="DejaVuSans-48" d="M 628 4666 
L 1259 4666 
L 1259 2753 
L 3553 2753 
L 3553 4666 
L 4184 4666 
L 4184 0 
L 3553 0 
L 3553 2222 
L 1259 2222 
L 1259 0 
L 628 0 
L 628 4666 
z
" transform="scale(0.015625)"/>
       <path id="DejaVuSans-7a" d="M 353 3500 
L 3084 3500 
L 3084 2975 
L 922 459 
L 3084 459 
L 3084 0 
L 275 0 
L 275 525 
L 2438 3041 
L 353 3041 
L 353 3500 
z
" transform="scale(0.015625)"/>
      </defs>
      <use xlink:href="#DejaVuSans-46"/>
      <use xlink:href="#DejaVuSans-6f" transform="translate(53.894531 0)"/>
      <use xlink:href="#DejaVuSans-72" transform="translate(115.076172 0)"/>
      <use xlink:href="#DejaVuSans-65" transform="translate(153.939453 0)"/>
      <use xlink:href="#DejaVuSans-63" transform="translate(215.462891 0)"/>
      <use xlink:href="#DejaVuSans-61" transform="translate(270.443359 0)"/>
      <use xlink:href="#DejaVuSans-73" transform="translate(331.722656 0)"/>
      <use xlink:href="#DejaVuSans-74" transform="translate(383.822266 0)"/>
      <use xlink:href="#DejaVuSans-20" transform="translate(423.03125 0)"/>
      <use xlink:href="#DejaVuSans-48" transform="translate(454.818359 0)"/>
      <use xlink:href="#DejaVuSans-6f" transform="translate(530.013672 0)"/>
      <use xlink:href="#DejaVuSans-72" transform="translate(591.195312 0)"/>
      <use xlink:href="#DejaVuSans-69" transform="translate(632.308594 0)"/>
      <use xlink:href="#DejaVuSans-7a" transform="translate(660.091797 0)"/>
      <use xlink:href="#DejaVuSans-6f" transform="translate(712.582031 0)"/>
      <use xlink:href="#DejaVuSans-6e" transform="translate(773.763672 0)"/>
     </g>
    </g>
    <g id="line2d_19">
     <path d="M 782.080118 81.7 
L 796.080118 81.7 
L 810.080118 81.7 
" style="fill: none; stroke: #0000ff; stroke-linecap: square"/>
    </g>
    <g id="text_19">
     <!-- Global RMSE (6h Forecast) -->
     <g transform="translate(821.280118 86.6) scale(0.14 -0.14)">
      <defs>
       <path id="DejaVuSans-47" d="M 3809 666 
L 3809 1919 
L 2778 1919 
L 2778 2438 
L 4434 2438 
L 4434 434 
Q 4069 175 3628 42 
Q 3188 -91 2688 -91 
Q 1594 -91 976 548 
Q 359 1188 359 2328 
Q 359 3472 976 4111 
Q 1594 4750 2688 4750 
Q 3144 4750 3555 4637 
Q 3966 4525 4313 4306 
L 4313 3634 
Q 3963 3931 3569 4081 
Q 3175 4231 2741 4231 
Q 1884 4231 1454 3753 
Q 1025 3275 1025 2328 
Q 1025 1384 1454 906 
Q 1884 428 2741 428 
Q 3075 428 3337 486 
Q 3600 544 3809 666 
z
" transform="scale(0.015625)"/>
       <path id="DejaVuSans-6c" d="M 603 4863 
L 1178 4863 
L 1178 0 
L 603 0 
L 603 4863 
z
" transform="scale(0.015625)"/>
       <path id="DejaVuSans-62" d="M 3116 1747 
Q 3116 2381 2855 2742 
Q 2594 3103 2138 3103 
Q 1681 3103 1420 2742 
Q 1159 2381 1159 1747 
Q 1159 1113 1420 752 
Q 1681 391 2138 391 
Q 2594 391 2855 752 
Q 3116 1113 3116 1747 
z
M 1159 2969 
Q 1341 3281 1617 3432 
Q 1894 3584 2278 3584 
Q 2916 3584 3314 3078 
Q 3713 2572 3713 1747 
Q 3713 922 3314 415 
Q 2916 -91 2278 -91 
Q 1894 -91 1617 61 
Q 1341 213 1159 525 
L 1159 0 
L 581 0 
L 581 4863 
L 1159 4863 
L 1159 2969 
z
" transform="scale(0.015625)"/>
       <path id="DejaVuSans-36" d="M 2113 2584 
Q 1688 2584 1439 2293 
Q 1191 2003 1191 1497 
Q 1191 994 1439 701 
Q 1688 409 2113 409 
Q 2538 409 2786 701 
Q 3034 994 3034 1497 
Q 3034 2003 2786 2293 
Q 2538 2584 2113 2584 
z
M 3366 4563 
L 3366 3988 
Q 3128 4100 2886 4159 
Q 2644 4219 2406 4219 
Q 1781 4219 1451 3797 
Q 1122 3375 1075 2522 
Q 1259 2794 1537 2939 
Q 1816 3084 2150 3084 
Q 2853 3084 3261 2657 
Q 3669 2231 3669 1497 
Q 3669 778 3244 343 
Q 2819 -91 2113 -91 
Q 1303 -91 875 529 
Q 447 1150 447 2328 
Q 447 3434 972 4092 
Q 1497 4750 2381 4750 
Q 2619 4750 2861 4703 
Q 3103 4656 3366 4563 
z
" transform="scale(0.015625)"/>
       <path id="DejaVuSans-68" d="M 3513 2113 
L 3513 0 
L 2938 0 
L 2938 2094 
Q 2938 2591 2744 2837 
Q 2550 3084 2163 3084 
Q 1697 3084 1428 2787 
Q 1159 2491 1159 1978 
L 1159 0 
L 581 0 
L 581 4863 
L 1159 4863 
L 1159 2956 
Q 1366 3272 1645 3428 
Q 1925 3584 2291 3584 
Q 2894 3584 3203 3211 
Q 3513 2838 3513 2113 
z
" transform="scale(0.015625)"/>
      </defs>
      <use xlink:href="#DejaVuSans-47"/>
      <use xlink:href="#DejaVuSans-6c" transform="translate(77.490234 0)"/>
      <use xlink:href="#DejaVuSans-6f" transform="translate(105.273438 0)"/>
      <use xlink:href="#DejaVuSans-62" transform="translate(166.455078 0)"/>
      <use xlink:href="#DejaVuSans-61" transform="translate(229.931641 0)"/>
      <use xlink:href="#DejaVuSans-6c" transform="translate(291.210938 0)"/>
      <use xlink:href="#DejaVuSans-20" transform="translate(318.994141 0)"/>
      <use xlink:href="#DejaVuSans-52" transform="translate(350.78125 0)"/>
      <use xlink:href="#DejaVuSans-4d" transform="translate(420.263672 0)"/>
      <use xlink:href="#DejaVuSans-53" transform="translate(506.542969 0)"/>
      <use xlink:href="#DejaVuSans-45" transform="translate(570.019531 0)"/>
      <use xlink:href="#DejaVuSans-20" transform="translate(633.203125 0)"/>
      <use xlink:href="#DejaVuSans-28" transform="translate(664.990234 0)"/>
      <use xlink:href="#DejaVuSans-36" transform="translate(704.003906 0)"/>
      <use xlink:href="#DejaVuSans-68" transform="translate(767.626953 0)"/>
      <use xlink:href="#DejaVuSans-20" transform="translate(831.005859 0)"/>
      <use xlink:href="#DejaVuSans-46" transform="translate(862.792969 0)"/>
      <use xlink:href="#DejaVuSans-6f" transform="translate(916.6875 0)"/>
      <use xlink:href="#DejaVuSans-72" transform="translate(977.869141 0)"/>
      <use xlink:href="#DejaVuSans-65" transform="translate(1016.732422 0)"/>
      <use xlink:href="#DejaVuSans-63" transform="translate(1078.255859 0)"/>
      <use xlink:href="#DejaVuSans-61" transform="translate(1133.236328 0)"/>
      <use xlink:href="#DejaVuSans-73" transform="translate(1194.515625 0)"/>
      <use xlink:href="#DejaVuSans-74" transform="translate(1246.615234 0)"/>
      <use xlink:href="#DejaVuSans-29" transform="translate(1285.824219 0)"/>
     </g>
    </g>
    <g id="line2d_20">
     <path d="M 782.080118 102.249375 
L 796.080118 102.249375 
L 810.080118 102.249375 
" style="fill: none; stroke: #ffa500; stroke-linecap: square"/>
    </g>
    <g id="text_20">
     <!-- South Africa RMSE (6h Forecast) -->
     <g transform="translate(821.280118 107.149375) scale(0.14 -0.14)">
      <defs>
       <path id="DejaVuSans-41" d="M 2188 4044 
L 1331 1722 
L 3047 1722 
L 2188 4044 
z
M 1831 4666 
L 2547 4666 
L 4325 0 
L 3669 0 
L 3244 1197 
L 1141 1197 
L 716 0 
L 50 0 
L 1831 4666 
z
" transform="scale(0.015625)"/>
      </defs>
      <use xlink:href="#DejaVuSans-53"/>
      <use xlink:href="#DejaVuSans-6f" transform="translate(63.476562 0)"/>
      <use xlink:href="#DejaVuSans-75" transform="translate(124.658203 0)"/>
      <use xlink:href="#DejaVuSans-74" transform="translate(188.037109 0)"/>
      <use xlink:href="#DejaVuSans-68" transform="translate(227.246094 0)"/>
      <use xlink:href="#DejaVuSans-20" transform="translate(290.625 0)"/>
      <use xlink:href="#DejaVuSans-41" transform="translate(322.412109 0)"/>
      <use xlink:href="#DejaVuSans-66" transform="translate(387.195312 0)"/>
      <use xlink:href="#DejaVuSans-72" transform="translate(422.400391 0)"/>
      <use xlink:href="#DejaVuSans-69" transform="translate(463.513672 0)"/>
      <use xlink:href="#DejaVuSans-63" transform="translate(491.296875 0)"/>
      <use xlink:href="#DejaVuSans-61" transform="translate(546.277344 0)"/>
      <use xlink:href="#DejaVuSans-20" transform="translate(607.556641 0)"/>
      <use xlink:href="#DejaVuSans-52" transform="translate(639.34375 0)"/>
      <use xlink:href="#DejaVuSans-4d" transform="translate(708.826172 0)"/>
      <use xlink:href="#DejaVuSans-53" transform="translate(795.105469 0)"/>
      <use xlink:href="#DejaVuSans-45" transform="translate(858.582031 0)"/>
      <use xlink:href="#DejaVuSans-20" transform="translate(921.765625 0)"/>
      <use xlink:href="#DejaVuSans-28" transform="translate(953.552734 0)"/>
      <use xlink:href="#DejaVuSans-36" transform="translate(992.566406 0)"/>
      <use xlink:href="#DejaVuSans-68" transform="translate(1056.189453 0)"/>
      <use xlink:href="#DejaVuSans-20" transform="translate(1119.568359 0)"/>
      <use xlink:href="#DejaVuSans-46" transform="translate(1151.355469 0)"/>
      <use xlink:href="#DejaVuSans-6f" transform="translate(1205.25 0)"/>
      <use xlink:href="#DejaVuSans-72" transform="translate(1266.431641 0)"/>
      <use xlink:href="#DejaVuSans-65" transform="translate(1305.294922 0)"/>
      <use xlink:href="#DejaVuSans-63" transform="translate(1366.818359 0)"/>
      <use xlink:href="#DejaVuSans-61" transform="translate(1421.798828 0)"/>
      <use xlink:href="#DejaVuSans-73" transform="translate(1483.078125 0)"/>
      <use xlink:href="#DejaVuSans-74" transform="translate(1535.177734 0)"/>
      <use xlink:href="#DejaVuSans-29" transform="translate(1574.386719 0)"/>
     </g>
    </g>
    <g id="line2d_21">
     <path d="M 782.080118 122.79875 
L 796.080118 122.79875 
L 810.080118 122.79875 
" style="fill: none; stroke-dasharray: 3.7,1.6; stroke-dashoffset: 0; stroke: #0000ff"/>
    </g>
    <g id="text_21">
     <!-- Global RMSE (12h Forecast) -->
     <g transform="translate(821.280118 127.69875) scale(0.14 -0.14)">
      <use xlink:href="#DejaVuSans-47"/>
      <use xlink:href="#DejaVuSans-6c" transform="translate(77.490234 0)"/>
      <use xlink:href="#DejaVuSans-6f" transform="translate(105.273438 0)"/>
      <use xlink:href="#DejaVuSans-62" transform="translate(166.455078 0)"/>
      <use xlink:href="#DejaVuSans-61" transform="translate(229.931641 0)"/>
      <use xlink:href="#DejaVuSans-6c" transform="translate(291.210938 0)"/>
      <use xlink:href="#DejaVuSans-20" transform="translate(318.994141 0)"/>
      <use xlink:href="#DejaVuSans-52" transform="translate(350.78125 0)"/>
      <use xlink:href="#DejaVuSans-4d" transform="translate(420.263672 0)"/>
      <use xlink:href="#DejaVuSans-53" transform="translate(506.542969 0)"/>
      <use xlink:href="#DejaVuSans-45" transform="translate(570.019531 0)"/>
      <use xlink:href="#DejaVuSans-20" transform="translate(633.203125 0)"/>
      <use xlink:href="#DejaVuSans-28" transform="translate(664.990234 0)"/>
      <use xlink:href="#DejaVuSans-31" transform="translate(704.003906 0)"/>
      <use xlink:href="#DejaVuSans-32" transform="translate(767.626953 0)"/>
      <use xlink:href="#DejaVuSans-68" transform="translate(831.25 0)"/>
      <use xlink:href="#DejaVuSans-20" transform="translate(894.628906 0)"/>
      <use xlink:href="#DejaVuSans-46" transform="translate(926.416016 0)"/>
      <use xlink:href="#DejaVuSans-6f" transform="translate(980.310547 0)"/>
      <use xlink:href="#DejaVuSans-72" transform="translate(1041.492188 0)"/>
      <use xlink:href="#DejaVuSans-65" transform="translate(1080.355469 0)"/>
      <use xlink:href="#DejaVuSans-63" transform="translate(1141.878906 0)"/>
      <use xlink:href="#DejaVuSans-61" transform="translate(1196.859375 0)"/>
      <use xlink:href="#DejaVuSans-73" transform="translate(1258.138672 0)"/>
      <use xlink:href="#DejaVuSans-74" transform="translate(1310.238281 0)"/>
      <use xlink:href="#DejaVuSans-29" transform="translate(1349.447266 0)"/>
     </g>
    </g>
    <g id="line2d_22">
     <path d="M 782.080118 143.348125 
L 796.080118 143.348125 
L 810.080118 143.348125 
" style="fill: none; stroke-dasharray: 3.7,1.6; stroke-dashoffset: 0; stroke: #ffa500"/>
    </g>
    <g id="text_22">
     <!-- South Africa RMSE (12h Forecast) -->
     <g transform="translate(821.280118 148.248125) scale(0.14 -0.14)">
      <use xlink:href="#DejaVuSans-53"/>
      <use xlink:href="#DejaVuSans-6f" transform="translate(63.476562 0)"/>
      <use xlink:href="#DejaVuSans-75" transform="translate(124.658203 0)"/>
      <use xlink:href="#DejaVuSans-74" transform="translate(188.037109 0)"/>
      <use xlink:href="#DejaVuSans-68" transform="translate(227.246094 0)"/>
      <use xlink:href="#DejaVuSans-20" transform="translate(290.625 0)"/>
      <use xlink:href="#DejaVuSans-41" transform="translate(322.412109 0)"/>
      <use xlink:href="#DejaVuSans-66" transform="translate(387.195312 0)"/>
      <use xlink:href="#DejaVuSans-72" transform="translate(422.400391 0)"/>
      <use xlink:href="#DejaVuSans-69" transform="translate(463.513672 0)"/>
      <use xlink:href="#DejaVuSans-63" transform="translate(491.296875 0)"/>
      <use xlink:href="#DejaVuSans-61" transform="translate(546.277344 0)"/>
      <use xlink:href="#DejaVuSans-20" transform="translate(607.556641 0)"/>
      <use xlink:href="#DejaVuSans-52" transform="translate(639.34375 0)"/>
      <use xlink:href="#DejaVuSans-4d" transform="translate(708.826172 0)"/>
      <use xlink:href="#DejaVuSans-53" transform="translate(795.105469 0)"/>
      <use xlink:href="#DejaVuSans-45" transform="translate(858.582031 0)"/>
      <use xlink:href="#DejaVuSans-20" transform="translate(921.765625 0)"/>
      <use xlink:href="#DejaVuSans-28" transform="translate(953.552734 0)"/>
      <use xlink:href="#DejaVuSans-31" transform="translate(992.566406 0)"/>
      <use xlink:href="#DejaVuSans-32" transform="translate(1056.189453 0)"/>
      <use xlink:href="#DejaVuSans-68" transform="translate(1119.8125 0)"/>
      <use xlink:href="#DejaVuSans-20" transform="translate(1183.191406 0)"/>
      <use xlink:href="#DejaVuSans-46" transform="translate(1214.978516 0)"/>
      <use xlink:href="#DejaVuSans-6f" transform="translate(1268.873047 0)"/>
      <use xlink:href="#DejaVuSans-72" transform="translate(1330.054688 0)"/>
      <use xlink:href="#DejaVuSans-65" transform="translate(1368.917969 0)"/>
      <use xlink:href="#DejaVuSans-63" transform="translate(1430.441406 0)"/>
      <use xlink:href="#DejaVuSans-61" transform="translate(1485.421875 0)"/>
      <use xlink:href="#DejaVuSans-73" transform="translate(1546.701172 0)"/>
      <use xlink:href="#DejaVuSans-74" transform="translate(1598.800781 0)"/>
      <use xlink:href="#DejaVuSans-29" transform="translate(1638.009766 0)"/>
     </g>
    </g>
   </g>
  </g>
 </g>
 <defs>
  <clipPath id="pb0cacc0682">
   <rect x="66.400118" y="40.877187" width="669.6" height="443.52"/>
  </clipPath>
 </defs>
</svg>
