<?xml version="1.0" encoding="utf-8" standalone="no"?>
<!DOCTYPE svg PUBLIC "-//W3C//DTD SVG 1.1//EN"
  "http://www.w3.org/Graphics/SVG/1.1/DTD/svg11.dtd">
<svg xmlns:xlink="http://www.w3.org/1999/xlink" width="1068.862305pt" height="575.421502pt" viewBox="0 0 1068.862305 575.421502" xmlns="http://www.w3.org/2000/svg" version="1.1">
 <metadata>
  <rdf:RDF xmlns:dc="http://purl.org/dc/elements/1.1/" xmlns:cc="http://creativecommons.org/ns#" xmlns:rdf="http://www.w3.org/1999/02/22-rdf-syntax-ns#">
   <cc:Work>
    <dc:type rdf:resource="http://purl.org/dc/dcmitype/StillImage"/>
    <dc:date>2025-02-28T11:04:08.332960</dc:date>
    <dc:format>image/svg+xml</dc:format>
    <dc:creator>
     <cc:Agent>
      <dc:title>Matplotlib v3.10.0, https://matplotlib.org/</dc:title>
     </cc:Agent>
    </dc:creator>
   </cc:Work>
  </rdf:RDF>
 </metadata>
 <defs>
  <style type="text/css">*{stroke-linejoin: round; stroke-linecap: butt}</style>
 </defs>
 <g id="figure_1">
  <g id="patch_1">
   <path d="M 0 575.421502 
L 1068.862305 575.421502 
L 1068.862305 0 
L 0 0 
z
" style="fill: #ffffff"/>
  </g>
  <g id="axes_1">
   <g id="patch_2">
    <path d="M 66.400118 484.397187 
L 736.000118 484.397187 
L 736.000118 40.877187 
L 66.400118 40.877187 
z
" style="fill: #ffffff"/>
   </g>
   <g id="matplotlib.axis_1">
    <g id="xtick_1">
     <g id="line2d_1">
      <defs>
       <path id="mef64005aae" d="M 0 0 
L 0 3.5 
" style="stroke: #000000; stroke-width: 0.8"/>
      </defs>
      <g>
       <use xlink:href="#mef64005aae" x="96.836481" y="484.397187" style="stroke: #000000; stroke-width: 0.8"/>
      </g>
     </g>
     <g id="text_1">
      <!-- 2022-11-01 (18:00) -->
      <g transform="translate(10.999219 546.93544) rotate(-30) scale(0.1 -0.1)">
       <defs>
        <path id="DejaVuSans-32" d="M 1228 531 
L 3431 531 
L 3431 0 
L 469 0 
L 469 531 
Q 828 903 1448 1529 
Q 2069 2156 2228 2338 
Q 2531 2678 2651 2914 
Q 2772 3150 2772 3378 
Q 2772 3750 2511 3984 
Q 2250 4219 1831 4219 
Q 1534 4219 1204 4116 
Q 875 4013 500 3803 
L 500 4441 
Q 881 4594 1212 4672 
Q 1544 4750 1819 4750 
Q 2544 4750 2975 4387 
Q 3406 4025 3406 3419 
Q 3406 3131 3298 2873 
Q 3191 2616 2906 2266 
Q 2828 2175 2409 1742 
Q 1991 1309 1228 531 
z
" transform="scale(0.015625)"/>
        <path id="DejaVuSans-30" d="M 2034 4250 
Q 1547 4250 1301 3770 
Q 1056 3291 1056 2328 
Q 1056 1369 1301 889 
Q 1547 409 2034 409 
Q 2525 409 2770 889 
Q 3016 1369 3016 2328 
Q 3016 3291 2770 3770 
Q 2525 4250 2034 4250 
z
M 2034 4750 
Q 2819 4750 3233 4129 
Q 3647 3509 3647 2328 
Q 3647 1150 3233 529 
Q 2819 -91 2034 -91 
Q 1250 -91 836 529 
Q 422 1150 422 2328 
Q 422 3509 836 4129 
Q 1250 4750 2034 4750 
z
" transform="scale(0.015625)"/>
        <path id="DejaVuSans-2d" d="M 313 2009 
L 1997 2009 
L 1997 1497 
L 313 1497 
L 313 2009 
z
" transform="scale(0.015625)"/>
        <path id="DejaVuSans-31" d="M 794 531 
L 1825 531 
L 1825 4091 
L 703 3866 
L 703 4441 
L 1819 4666 
L 2450 4666 
L 2450 531 
L 3481 531 
L 3481 0 
L 794 0 
L 794 531 
z
" transform="scale(0.015625)"/>
        <path id="DejaVuSans-20" transform="scale(0.015625)"/>
        <path id="DejaVuSans-28" d="M 1984 4856 
Q 1566 4138 1362 3434 
Q 1159 2731 1159 2009 
Q 1159 1288 1364 580 
Q 1569 -128 1984 -844 
L 1484 -844 
Q 1016 -109 783 600 
Q 550 1309 550 2009 
Q 550 2706 781 3412 
Q 1013 4119 1484 4856 
L 1984 4856 
z
" transform="scale(0.015625)"/>
        <path id="DejaVuSans-38" d="M 2034 2216 
Q 1584 2216 1326 1975 
Q 1069 1734 1069 1313 
Q 1069 891 1326 650 
Q 1584 409 2034 409 
Q 2484 409 2743 651 
Q 3003 894 3003 1313 
Q 3003 1734 2745 1975 
Q 2488 2216 2034 2216 
z
M 1403 2484 
Q 997 2584 770 2862 
Q 544 3141 544 3541 
Q 544 4100 942 4425 
Q 1341 4750 2034 4750 
Q 2731 4750 3128 4425 
Q 3525 4100 3525 3541 
Q 3525 3141 3298 2862 
Q 3072 2584 2669 2484 
Q 3125 2378 3379 2068 
Q 3634 1759 3634 1313 
Q 3634 634 3220 271 
Q 2806 -91 2034 -91 
Q 1263 -91 848 271 
Q 434 634 434 1313 
Q 434 1759 690 2068 
Q 947 2378 1403 2484 
z
M 1172 3481 
Q 1172 3119 1398 2916 
Q 1625 2713 2034 2713 
Q 2441 2713 2670 2916 
Q 2900 3119 2900 3481 
Q 2900 3844 2670 4047 
Q 2441 4250 2034 4250 
Q 1625 4250 1398 4047 
Q 1172 3844 1172 3481 
z
" transform="scale(0.015625)"/>
        <path id="DejaVuSans-3a" d="M 750 794 
L 1409 794 
L 1409 0 
L 750 0 
L 750 794 
z
M 750 3309 
L 1409 3309 
L 1409 2516 
L 750 2516 
L 750 3309 
z
" transform="scale(0.015625)"/>
        <path id="DejaVuSans-29" d="M 513 4856 
L 1013 4856 
Q 1481 4119 1714 3412 
Q 1947 2706 1947 2009 
Q 1947 1309 1714 600 
Q 1481 -109 1013 -844 
L 513 -844 
Q 928 -128 1133 580 
Q 1338 1288 1338 2009 
Q 1338 2731 1133 3434 
Q 928 4138 513 4856 
z
" transform="scale(0.015625)"/>
       </defs>
       <use xlink:href="#DejaVuSans-32"/>
       <use xlink:href="#DejaVuSans-30" transform="translate(63.623047 0)"/>
       <use xlink:href="#DejaVuSans-32" transform="translate(127.246094 0)"/>
       <use xlink:href="#DejaVuSans-32" transform="translate(190.869141 0)"/>
       <use xlink:href="#DejaVuSans-2d" transform="translate(254.492188 0)"/>
       <use xlink:href="#DejaVuSans-31" transform="translate(290.576172 0)"/>
       <use xlink:href="#DejaVuSans-31" transform="translate(354.199219 0)"/>
       <use xlink:href="#DejaVuSans-2d" transform="translate(417.822266 0)"/>
       <use xlink:href="#DejaVuSans-30" transform="translate(453.90625 0)"/>
       <use xlink:href="#DejaVuSans-31" transform="translate(517.529297 0)"/>
       <use xlink:href="#DejaVuSans-20" transform="translate(581.152344 0)"/>
       <use xlink:href="#DejaVuSans-28" transform="translate(612.939453 0)"/>
       <use xlink:href="#DejaVuSans-31" transform="translate(651.953125 0)"/>
       <use xlink:href="#DejaVuSans-38" transform="translate(715.576172 0)"/>
       <use xlink:href="#DejaVuSans-3a" transform="translate(779.199219 0)"/>
       <use xlink:href="#DejaVuSans-30" transform="translate(812.890625 0)"/>
       <use xlink:href="#DejaVuSans-30" transform="translate(876.513672 0)"/>
       <use xlink:href="#DejaVuSans-29" transform="translate(940.136719 0)"/>
      </g>
     </g>
    </g>
    <g id="xtick_2">
     <g id="line2d_2">
      <g>
       <use xlink:href="#mef64005aae" x="218.581936" y="484.397187" style="stroke: #000000; stroke-width: 0.8"/>
      </g>
     </g>
     <g id="text_2">
      <!-- 2022-11-13 (18:00) -->
      <g transform="translate(132.744673 546.93544) rotate(-30) scale(0.1 -0.1)">
       <defs>
        <path id="DejaVuSans-33" d="M 2597 2516 
Q 3050 2419 3304 2112 
Q 3559 1806 3559 1356 
Q 3559 666 3084 287 
Q 2609 -91 1734 -91 
Q 1441 -91 1130 -33 
Q 819 25 488 141 
L 488 750 
Q 750 597 1062 519 
Q 1375 441 1716 441 
Q 2309 441 2620 675 
Q 2931 909 2931 1356 
Q 2931 1769 2642 2001 
Q 2353 2234 1838 2234 
L 1294 2234 
L 1294 2753 
L 1863 2753 
Q 2328 2753 2575 2939 
Q 2822 3125 2822 3475 
Q 2822 3834 2567 4026 
Q 2313 4219 1838 4219 
Q 1578 4219 1281 4162 
Q 984 4106 628 3988 
L 628 4550 
Q 988 4650 1302 4700 
Q 1616 4750 1894 4750 
Q 2613 4750 3031 4423 
Q 3450 4097 3450 3541 
Q 3450 3153 3228 2886 
Q 3006 2619 2597 2516 
z
" transform="scale(0.015625)"/>
       </defs>
       <use xlink:href="#DejaVuSans-32"/>
       <use xlink:href="#DejaVuSans-30" transform="translate(63.623047 0)"/>
       <use xlink:href="#DejaVuSans-32" transform="translate(127.246094 0)"/>
       <use xlink:href="#DejaVuSans-32" transform="translate(190.869141 0)"/>
       <use xlink:href="#DejaVuSans-2d" transform="translate(254.492188 0)"/>
       <use xlink:href="#DejaVuSans-31" transform="translate(290.576172 0)"/>
       <use xlink:href="#DejaVuSans-31" transform="translate(354.199219 0)"/>
       <use xlink:href="#DejaVuSans-2d" transform="translate(417.822266 0)"/>
       <use xlink:href="#DejaVuSans-31" transform="translate(453.90625 0)"/>
       <use xlink:href="#DejaVuSans-33" transform="translate(517.529297 0)"/>
       <use xlink:href="#DejaVuSans-20" transform="translate(581.152344 0)"/>
       <use xlink:href="#DejaVuSans-28" transform="translate(612.939453 0)"/>
       <use xlink:href="#DejaVuSans-31" transform="translate(651.953125 0)"/>
       <use xlink:href="#DejaVuSans-38" transform="translate(715.576172 0)"/>
       <use xlink:href="#DejaVuSans-3a" transform="translate(779.199219 0)"/>
       <use xlink:href="#DejaVuSans-30" transform="translate(812.890625 0)"/>
       <use xlink:href="#DejaVuSans-30" transform="translate(876.513672 0)"/>
       <use xlink:href="#DejaVuSans-29" transform="translate(940.136719 0)"/>
      </g>
     </g>
    </g>
    <g id="xtick_3">
     <g id="line2d_3">
      <g>
       <use xlink:href="#mef64005aae" x="340.32739" y="484.397187" style="stroke: #000000; stroke-width: 0.8"/>
      </g>
     </g>
     <g id="text_3">
      <!-- 2022-11-25 (18:00) -->
      <g transform="translate(254.490128 546.93544) rotate(-30) scale(0.1 -0.1)">
       <defs>
        <path id="DejaVuSans-35" d="M 691 4666 
L 3169 4666 
L 3169 4134 
L 1269 4134 
L 1269 2991 
Q 1406 3038 1543 3061 
Q 1681 3084 1819 3084 
Q 2600 3084 3056 2656 
Q 3513 2228 3513 1497 
Q 3513 744 3044 326 
Q 2575 -91 1722 -91 
Q 1428 -91 1123 -41 
Q 819 9 494 109 
L 494 744 
Q 775 591 1075 516 
Q 1375 441 1709 441 
Q 2250 441 2565 725 
Q 2881 1009 2881 1497 
Q 2881 1984 2565 2268 
Q 2250 2553 1709 2553 
Q 1456 2553 1204 2497 
Q 953 2441 691 2322 
L 691 4666 
z
" transform="scale(0.015625)"/>
       </defs>
       <use xlink:href="#DejaVuSans-32"/>
       <use xlink:href="#DejaVuSans-30" transform="translate(63.623047 0)"/>
       <use xlink:href="#DejaVuSans-32" transform="translate(127.246094 0)"/>
       <use xlink:href="#DejaVuSans-32" transform="translate(190.869141 0)"/>
       <use xlink:href="#DejaVuSans-2d" transform="translate(254.492188 0)"/>
       <use xlink:href="#DejaVuSans-31" transform="translate(290.576172 0)"/>
       <use xlink:href="#DejaVuSans-31" transform="translate(354.199219 0)"/>
       <use xlink:href="#DejaVuSans-2d" transform="translate(417.822266 0)"/>
       <use xlink:href="#DejaVuSans-32" transform="translate(453.90625 0)"/>
       <use xlink:href="#DejaVuSans-35" transform="translate(517.529297 0)"/>
       <use xlink:href="#DejaVuSans-20" transform="translate(581.152344 0)"/>
       <use xlink:href="#DejaVuSans-28" transform="translate(612.939453 0)"/>
       <use xlink:href="#DejaVuSans-31" transform="translate(651.953125 0)"/>
       <use xlink:href="#DejaVuSans-38" transform="translate(715.576172 0)"/>
       <use xlink:href="#DejaVuSans-3a" transform="translate(779.199219 0)"/>
       <use xlink:href="#DejaVuSans-30" transform="translate(812.890625 0)"/>
       <use xlink:href="#DejaVuSans-30" transform="translate(876.513672 0)"/>
       <use xlink:href="#DejaVuSans-29" transform="translate(940.136719 0)"/>
      </g>
     </g>
    </g>
    <g id="xtick_4">
     <g id="line2d_4">
      <g>
       <use xlink:href="#mef64005aae" x="462.072845" y="484.397187" style="stroke: #000000; stroke-width: 0.8"/>
      </g>
     </g>
     <g id="text_4">
      <!-- 2022-12-07 (18:00) -->
      <g transform="translate(376.235582 546.93544) rotate(-30) scale(0.1 -0.1)">
       <defs>
        <path id="DejaVuSans-37" d="M 525 4666 
L 3525 4666 
L 3525 4397 
L 1831 0 
L 1172 0 
L 2766 4134 
L 525 4134 
L 525 4666 
z
" transform="scale(0.015625)"/>
       </defs>
       <use xlink:href="#DejaVuSans-32"/>
       <use xlink:href="#DejaVuSans-30" transform="translate(63.623047 0)"/>
       <use xlink:href="#DejaVuSans-32" transform="translate(127.246094 0)"/>
       <use xlink:href="#DejaVuSans-32" transform="translate(190.869141 0)"/>
       <use xlink:href="#DejaVuSans-2d" transform="translate(254.492188 0)"/>
       <use xlink:href="#DejaVuSans-31" transform="translate(290.576172 0)"/>
       <use xlink:href="#DejaVuSans-32" transform="translate(354.199219 0)"/>
       <use xlink:href="#DejaVuSans-2d" transform="translate(417.822266 0)"/>
       <use xlink:href="#DejaVuSans-30" transform="translate(453.90625 0)"/>
       <use xlink:href="#DejaVuSans-37" transform="translate(517.529297 0)"/>
       <use xlink:href="#DejaVuSans-20" transform="translate(581.152344 0)"/>
       <use xlink:href="#DejaVuSans-28" transform="translate(612.939453 0)"/>
       <use xlink:href="#DejaVuSans-31" transform="translate(651.953125 0)"/>
       <use xlink:href="#DejaVuSans-38" transform="translate(715.576172 0)"/>
       <use xlink:href="#DejaVuSans-3a" transform="translate(779.199219 0)"/>
       <use xlink:href="#DejaVuSans-30" transform="translate(812.890625 0)"/>
       <use xlink:href="#DejaVuSans-30" transform="translate(876.513672 0)"/>
       <use xlink:href="#DejaVuSans-29" transform="translate(940.136719 0)"/>
      </g>
     </g>
    </g>
    <g id="xtick_5">
     <g id="line2d_5">
      <g>
       <use xlink:href="#mef64005aae" x="583.818299" y="484.397187" style="stroke: #000000; stroke-width: 0.8"/>
      </g>
     </g>
     <g id="text_5">
      <!-- 2022-12-19 (18:00) -->
      <g transform="translate(497.981037 546.93544) rotate(-30) scale(0.1 -0.1)">
       <defs>
        <path id="DejaVuSans-39" d="M 703 97 
L 703 672 
Q 941 559 1184 500 
Q 1428 441 1663 441 
Q 2288 441 2617 861 
Q 2947 1281 2994 2138 
Q 2813 1869 2534 1725 
Q 2256 1581 1919 1581 
Q 1219 1581 811 2004 
Q 403 2428 403 3163 
Q 403 3881 828 4315 
Q 1253 4750 1959 4750 
Q 2769 4750 3195 4129 
Q 3622 3509 3622 2328 
Q 3622 1225 3098 567 
Q 2575 -91 1691 -91 
Q 1453 -91 1209 -44 
Q 966 3 703 97 
z
M 1959 2075 
Q 2384 2075 2632 2365 
Q 2881 2656 2881 3163 
Q 2881 3666 2632 3958 
Q 2384 4250 1959 4250 
Q 1534 4250 1286 3958 
Q 1038 3666 1038 3163 
Q 1038 2656 1286 2365 
Q 1534 2075 1959 2075 
z
" transform="scale(0.015625)"/>
       </defs>
       <use xlink:href="#DejaVuSans-32"/>
       <use xlink:href="#DejaVuSans-30" transform="translate(63.623047 0)"/>
       <use xlink:href="#DejaVuSans-32" transform="translate(127.246094 0)"/>
       <use xlink:href="#DejaVuSans-32" transform="translate(190.869141 0)"/>
       <use xlink:href="#DejaVuSans-2d" transform="translate(254.492188 0)"/>
       <use xlink:href="#DejaVuSans-31" transform="translate(290.576172 0)"/>
       <use xlink:href="#DejaVuSans-32" transform="translate(354.199219 0)"/>
       <use xlink:href="#DejaVuSans-2d" transform="translate(417.822266 0)"/>
       <use xlink:href="#DejaVuSans-31" transform="translate(453.90625 0)"/>
       <use xlink:href="#DejaVuSans-39" transform="translate(517.529297 0)"/>
       <use xlink:href="#DejaVuSans-20" transform="translate(581.152344 0)"/>
       <use xlink:href="#DejaVuSans-28" transform="translate(612.939453 0)"/>
       <use xlink:href="#DejaVuSans-31" transform="translate(651.953125 0)"/>
       <use xlink:href="#DejaVuSans-38" transform="translate(715.576172 0)"/>
       <use xlink:href="#DejaVuSans-3a" transform="translate(779.199219 0)"/>
       <use xlink:href="#DejaVuSans-30" transform="translate(812.890625 0)"/>
       <use xlink:href="#DejaVuSans-30" transform="translate(876.513672 0)"/>
       <use xlink:href="#DejaVuSans-29" transform="translate(940.136719 0)"/>
      </g>
     </g>
    </g>
    <g id="xtick_6">
     <g id="line2d_6">
      <g>
       <use xlink:href="#mef64005aae" x="705.563754" y="484.397187" style="stroke: #000000; stroke-width: 0.8"/>
      </g>
     </g>
     <g id="text_6">
      <!-- 2022-12-31 (18:00) -->
      <g transform="translate(619.726491 546.93544) rotate(-30) scale(0.1 -0.1)">
       <use xlink:href="#DejaVuSans-32"/>
       <use xlink:href="#DejaVuSans-30" transform="translate(63.623047 0)"/>
       <use xlink:href="#DejaVuSans-32" transform="translate(127.246094 0)"/>
       <use xlink:href="#DejaVuSans-32" transform="translate(190.869141 0)"/>
       <use xlink:href="#DejaVuSans-2d" transform="translate(254.492188 0)"/>
       <use xlink:href="#DejaVuSans-31" transform="translate(290.576172 0)"/>
       <use xlink:href="#DejaVuSans-32" transform="translate(354.199219 0)"/>
       <use xlink:href="#DejaVuSans-2d" transform="translate(417.822266 0)"/>
       <use xlink:href="#DejaVuSans-33" transform="translate(453.90625 0)"/>
       <use xlink:href="#DejaVuSans-31" transform="translate(517.529297 0)"/>
       <use xlink:href="#DejaVuSans-20" transform="translate(581.152344 0)"/>
       <use xlink:href="#DejaVuSans-28" transform="translate(612.939453 0)"/>
       <use xlink:href="#DejaVuSans-31" transform="translate(651.953125 0)"/>
       <use xlink:href="#DejaVuSans-38" transform="translate(715.576172 0)"/>
       <use xlink:href="#DejaVuSans-3a" transform="translate(779.199219 0)"/>
       <use xlink:href="#DejaVuSans-30" transform="translate(812.890625 0)"/>
       <use xlink:href="#DejaVuSans-30" transform="translate(876.513672 0)"/>
       <use xlink:href="#DejaVuSans-29" transform="translate(940.136719 0)"/>
      </g>
     </g>
    </g>
    <g id="text_7">
     <!-- Forecast Date -->
     <g transform="translate(345.693868 564.894002) scale(0.16 -0.16)">
      <defs>
       <path id="DejaVuSans-46" d="M 628 4666 
L 3309 4666 
L 3309 4134 
L 1259 4134 
L 1259 2759 
L 3109 2759 
L 3109 2228 
L 1259 2228 
L 1259 0 
L 628 0 
L 628 4666 
z
" transform="scale(0.015625)"/>
       <path id="DejaVuSans-6f" d="M 1959 3097 
Q 1497 3097 1228 2736 
Q 959 2375 959 1747 
Q 959 1119 1226 758 
Q 1494 397 1959 397 
Q 2419 397 2687 759 
Q 2956 1122 2956 1747 
Q 2956 2369 2687 2733 
Q 2419 3097 1959 3097 
z
M 1959 3584 
Q 2709 3584 3137 3096 
Q 3566 2609 3566 1747 
Q 3566 888 3137 398 
Q 2709 -91 1959 -91 
Q 1206 -91 779 398 
Q 353 888 353 1747 
Q 353 2609 779 3096 
Q 1206 3584 1959 3584 
z
" transform="scale(0.015625)"/>
       <path id="DejaVuSans-72" d="M 2631 2963 
Q 2534 3019 2420 3045 
Q 2306 3072 2169 3072 
Q 1681 3072 1420 2755 
Q 1159 2438 1159 1844 
L 1159 0 
L 581 0 
L 581 3500 
L 1159 3500 
L 1159 2956 
Q 1341 3275 1631 3429 
Q 1922 3584 2338 3584 
Q 2397 3584 2469 3576 
Q 2541 3569 2628 3553 
L 2631 2963 
z
" transform="scale(0.015625)"/>
       <path id="DejaVuSans-65" d="M 3597 1894 
L 3597 1613 
L 953 1613 
Q 991 1019 1311 708 
Q 1631 397 2203 397 
Q 2534 397 2845 478 
Q 3156 559 3463 722 
L 3463 178 
Q 3153 47 2828 -22 
Q 2503 -91 2169 -91 
Q 1331 -91 842 396 
Q 353 884 353 1716 
Q 353 2575 817 3079 
Q 1281 3584 2069 3584 
Q 2775 3584 3186 3129 
Q 3597 2675 3597 1894 
z
M 3022 2063 
Q 3016 2534 2758 2815 
Q 2500 3097 2075 3097 
Q 1594 3097 1305 2825 
Q 1016 2553 972 2059 
L 3022 2063 
z
" transform="scale(0.015625)"/>
       <path id="DejaVuSans-63" d="M 3122 3366 
L 3122 2828 
Q 2878 2963 2633 3030 
Q 2388 3097 2138 3097 
Q 1578 3097 1268 2742 
Q 959 2388 959 1747 
Q 959 1106 1268 751 
Q 1578 397 2138 397 
Q 2388 397 2633 464 
Q 2878 531 3122 666 
L 3122 134 
Q 2881 22 2623 -34 
Q 2366 -91 2075 -91 
Q 1284 -91 818 406 
Q 353 903 353 1747 
Q 353 2603 823 3093 
Q 1294 3584 2113 3584 
Q 2378 3584 2631 3529 
Q 2884 3475 3122 3366 
z
" transform="scale(0.015625)"/>
       <path id="DejaVuSans-61" d="M 2194 1759 
Q 1497 1759 1228 1600 
Q 959 1441 959 1056 
Q 959 750 1161 570 
Q 1363 391 1709 391 
Q 2188 391 2477 730 
Q 2766 1069 2766 1631 
L 2766 1759 
L 2194 1759 
z
M 3341 1997 
L 3341 0 
L 2766 0 
L 2766 531 
Q 2569 213 2275 61 
Q 1981 -91 1556 -91 
Q 1019 -91 701 211 
Q 384 513 384 1019 
Q 384 1609 779 1909 
Q 1175 2209 1959 2209 
L 2766 2209 
L 2766 2266 
Q 2766 2663 2505 2880 
Q 2244 3097 1772 3097 
Q 1472 3097 1187 3025 
Q 903 2953 641 2809 
L 641 3341 
Q 956 3463 1253 3523 
Q 1550 3584 1831 3584 
Q 2591 3584 2966 3190 
Q 3341 2797 3341 1997 
z
" transform="scale(0.015625)"/>
       <path id="DejaVuSans-73" d="M 2834 3397 
L 2834 2853 
Q 2591 2978 2328 3040 
Q 2066 3103 1784 3103 
Q 1356 3103 1142 2972 
Q 928 2841 928 2578 
Q 928 2378 1081 2264 
Q 1234 2150 1697 2047 
L 1894 2003 
Q 2506 1872 2764 1633 
Q 3022 1394 3022 966 
Q 3022 478 2636 193 
Q 2250 -91 1575 -91 
Q 1294 -91 989 -36 
Q 684 19 347 128 
L 347 722 
Q 666 556 975 473 
Q 1284 391 1588 391 
Q 1994 391 2212 530 
Q 2431 669 2431 922 
Q 2431 1156 2273 1281 
Q 2116 1406 1581 1522 
L 1381 1569 
Q 847 1681 609 1914 
Q 372 2147 372 2553 
Q 372 3047 722 3315 
Q 1072 3584 1716 3584 
Q 2034 3584 2315 3537 
Q 2597 3491 2834 3397 
z
" transform="scale(0.015625)"/>
       <path id="DejaVuSans-74" d="M 1172 4494 
L 1172 3500 
L 2356 3500 
L 2356 3053 
L 1172 3053 
L 1172 1153 
Q 1172 725 1289 603 
Q 1406 481 1766 481 
L 2356 481 
L 2356 0 
L 1766 0 
Q 1100 0 847 248 
Q 594 497 594 1153 
L 594 3053 
L 172 3053 
L 172 3500 
L 594 3500 
L 594 4494 
L 1172 4494 
z
" transform="scale(0.015625)"/>
       <path id="DejaVuSans-44" d="M 1259 4147 
L 1259 519 
L 2022 519 
Q 2988 519 3436 956 
Q 3884 1394 3884 2338 
Q 3884 3275 3436 3711 
Q 2988 4147 2022 4147 
L 1259 4147 
z
M 628 4666 
L 1925 4666 
Q 3281 4666 3915 4102 
Q 4550 3538 4550 2338 
Q 4550 1131 3912 565 
Q 3275 0 1925 0 
L 628 0 
L 628 4666 
z
" transform="scale(0.015625)"/>
      </defs>
      <use xlink:href="#DejaVuSans-46"/>
      <use xlink:href="#DejaVuSans-6f" transform="translate(53.894531 0)"/>
      <use xlink:href="#DejaVuSans-72" transform="translate(115.076172 0)"/>
      <use xlink:href="#DejaVuSans-65" transform="translate(153.939453 0)"/>
      <use xlink:href="#DejaVuSans-63" transform="translate(215.462891 0)"/>
      <use xlink:href="#DejaVuSans-61" transform="translate(270.443359 0)"/>
      <use xlink:href="#DejaVuSans-73" transform="translate(331.722656 0)"/>
      <use xlink:href="#DejaVuSans-74" transform="translate(383.822266 0)"/>
      <use xlink:href="#DejaVuSans-20" transform="translate(423.03125 0)"/>
      <use xlink:href="#DejaVuSans-44" transform="translate(454.818359 0)"/>
      <use xlink:href="#DejaVuSans-61" transform="translate(531.820312 0)"/>
      <use xlink:href="#DejaVuSans-74" transform="translate(593.099609 0)"/>
      <use xlink:href="#DejaVuSans-65" transform="translate(632.308594 0)"/>
     </g>
    </g>
   </g>
   <g id="matplotlib.axis_2">
    <g id="ytick_1">
     <g id="line2d_7">
      <defs>
       <path id="m3723267159" d="M 0 0 
L -3.5 0 
" style="stroke: #000000; stroke-width: 0.8"/>
      </defs>
      <g>
       <use xlink:href="#m3723267159" x="66.400118" y="450.516245" style="stroke: #000000; stroke-width: 0.8"/>
      </g>
     </g>
     <g id="text_8">
      <!-- 50 -->
      <g transform="translate(46.675118 454.315463) scale(0.1 -0.1)">
       <use xlink:href="#DejaVuSans-35"/>
       <use xlink:href="#DejaVuSans-30" transform="translate(63.623047 0)"/>
      </g>
     </g>
    </g>
    <g id="ytick_2">
     <g id="line2d_8">
      <g>
       <use xlink:href="#m3723267159" x="66.400118" y="399.97781" style="stroke: #000000; stroke-width: 0.8"/>
      </g>
     </g>
     <g id="text_9">
      <!-- 100 -->
      <g transform="translate(40.312618 403.777028) scale(0.1 -0.1)">
       <use xlink:href="#DejaVuSans-31"/>
       <use xlink:href="#DejaVuSans-30" transform="translate(63.623047 0)"/>
       <use xlink:href="#DejaVuSans-30" transform="translate(127.246094 0)"/>
      </g>
     </g>
    </g>
    <g id="ytick_3">
     <g id="line2d_9">
      <g>
       <use xlink:href="#m3723267159" x="66.400118" y="349.439375" style="stroke: #000000; stroke-width: 0.8"/>
      </g>
     </g>
     <g id="text_10">
      <!-- 150 -->
      <g transform="translate(40.312618 353.238593) scale(0.1 -0.1)">
       <use xlink:href="#DejaVuSans-31"/>
       <use xlink:href="#DejaVuSans-35" transform="translate(63.623047 0)"/>
       <use xlink:href="#DejaVuSans-30" transform="translate(127.246094 0)"/>
      </g>
     </g>
    </g>
    <g id="ytick_4">
     <g id="line2d_10">
      <g>
       <use xlink:href="#m3723267159" x="66.400118" y="298.90094" style="stroke: #000000; stroke-width: 0.8"/>
      </g>
     </g>
     <g id="text_11">
      <!-- 200 -->
      <g transform="translate(40.312618 302.700159) scale(0.1 -0.1)">
       <use xlink:href="#DejaVuSans-32"/>
       <use xlink:href="#DejaVuSans-30" transform="translate(63.623047 0)"/>
       <use xlink:href="#DejaVuSans-30" transform="translate(127.246094 0)"/>
      </g>
     </g>
    </g>
    <g id="ytick_5">
     <g id="line2d_11">
      <g>
       <use xlink:href="#m3723267159" x="66.400118" y="248.362505" style="stroke: #000000; stroke-width: 0.8"/>
      </g>
     </g>
     <g id="text_12">
      <!-- 250 -->
      <g transform="translate(40.312618 252.161724) scale(0.1 -0.1)">
       <use xlink:href="#DejaVuSans-32"/>
       <use xlink:href="#DejaVuSans-35" transform="translate(63.623047 0)"/>
       <use xlink:href="#DejaVuSans-30" transform="translate(127.246094 0)"/>
      </g>
     </g>
    </g>
    <g id="ytick_6">
     <g id="line2d_12">
      <g>
       <use xlink:href="#m3723267159" x="66.400118" y="197.82407" style="stroke: #000000; stroke-width: 0.8"/>
      </g>
     </g>
     <g id="text_13">
      <!-- 300 -->
      <g transform="translate(40.312618 201.623289) scale(0.1 -0.1)">
       <use xlink:href="#DejaVuSans-33"/>
       <use xlink:href="#DejaVuSans-30" transform="translate(63.623047 0)"/>
       <use xlink:href="#DejaVuSans-30" transform="translate(127.246094 0)"/>
      </g>
     </g>
    </g>
    <g id="ytick_7">
     <g id="line2d_13">
      <g>
       <use xlink:href="#m3723267159" x="66.400118" y="147.285635" style="stroke: #000000; stroke-width: 0.8"/>
      </g>
     </g>
     <g id="text_14">
      <!-- 350 -->
      <g transform="translate(40.312618 151.084854) scale(0.1 -0.1)">
       <use xlink:href="#DejaVuSans-33"/>
       <use xlink:href="#DejaVuSans-35" transform="translate(63.623047 0)"/>
       <use xlink:href="#DejaVuSans-30" transform="translate(127.246094 0)"/>
      </g>
     </g>
    </g>
    <g id="ytick_8">
     <g id="line2d_14">
      <g>
       <use xlink:href="#m3723267159" x="66.400118" y="96.7472" style="stroke: #000000; stroke-width: 0.8"/>
      </g>
     </g>
     <g id="text_15">
      <!-- 400 -->
      <g transform="translate(40.312618 100.546419) scale(0.1 -0.1)">
       <defs>
        <path id="DejaVuSans-34" d="M 2419 4116 
L 825 1625 
L 2419 1625 
L 2419 4116 
z
M 2253 4666 
L 3047 4666 
L 3047 1625 
L 3713 1625 
L 3713 1100 
L 3047 1100 
L 3047 0 
L 2419 0 
L 2419 1100 
L 313 1100 
L 313 1709 
L 2253 4666 
z
" transform="scale(0.015625)"/>
       </defs>
       <use xlink:href="#DejaVuSans-34"/>
       <use xlink:href="#DejaVuSans-30" transform="translate(63.623047 0)"/>
       <use xlink:href="#DejaVuSans-30" transform="translate(127.246094 0)"/>
      </g>
     </g>
    </g>
    <g id="ytick_9">
     <g id="line2d_15">
      <g>
       <use xlink:href="#m3723267159" x="66.400118" y="46.208765" style="stroke: #000000; stroke-width: 0.8"/>
      </g>
     </g>
     <g id="text_16">
      <!-- 450 -->
      <g transform="translate(40.312618 50.007984) scale(0.1 -0.1)">
       <use xlink:href="#DejaVuSans-34"/>
       <use xlink:href="#DejaVuSans-35" transform="translate(63.623047 0)"/>
       <use xlink:href="#DejaVuSans-30" transform="translate(127.246094 0)"/>
      </g>
     </g>
    </g>
    <g id="text_17">
     <!-- Root Mean Squared Error (RMSE) -->
     <g transform="translate(32.985118 394.303437) rotate(-90) scale(0.16 -0.16)">
      <defs>
       <path id="DejaVuSans-52" d="M 2841 2188 
Q 3044 2119 3236 1894 
Q 3428 1669 3622 1275 
L 4263 0 
L 3584 0 
L 2988 1197 
Q 2756 1666 2539 1819 
Q 2322 1972 1947 1972 
L 1259 1972 
L 1259 0 
L 628 0 
L 628 4666 
L 2053 4666 
Q 2853 4666 3247 4331 
Q 3641 3997 3641 3322 
Q 3641 2881 3436 2590 
Q 3231 2300 2841 2188 
z
M 1259 4147 
L 1259 2491 
L 2053 2491 
Q 2509 2491 2742 2702 
Q 2975 2913 2975 3322 
Q 2975 3731 2742 3939 
Q 2509 4147 2053 4147 
L 1259 4147 
z
" transform="scale(0.015625)"/>
       <path id="DejaVuSans-4d" d="M 628 4666 
L 1569 4666 
L 2759 1491 
L 3956 4666 
L 4897 4666 
L 4897 0 
L 4281 0 
L 4281 4097 
L 3078 897 
L 2444 897 
L 1241 4097 
L 1241 0 
L 628 0 
L 628 4666 
z
" transform="scale(0.015625)"/>
       <path id="DejaVuSans-6e" d="M 3513 2113 
L 3513 0 
L 2938 0 
L 2938 2094 
Q 2938 2591 2744 2837 
Q 2550 3084 2163 3084 
Q 1697 3084 1428 2787 
Q 1159 2491 1159 1978 
L 1159 0 
L 581 0 
L 581 3500 
L 1159 3500 
L 1159 2956 
Q 1366 3272 1645 3428 
Q 1925 3584 2291 3584 
Q 2894 3584 3203 3211 
Q 3513 2838 3513 2113 
z
" transform="scale(0.015625)"/>
       <path id="DejaVuSans-53" d="M 3425 4513 
L 3425 3897 
Q 3066 4069 2747 4153 
Q 2428 4238 2131 4238 
Q 1616 4238 1336 4038 
Q 1056 3838 1056 3469 
Q 1056 3159 1242 3001 
Q 1428 2844 1947 2747 
L 2328 2669 
Q 3034 2534 3370 2195 
Q 3706 1856 3706 1288 
Q 3706 609 3251 259 
Q 2797 -91 1919 -91 
Q 1588 -91 1214 -16 
Q 841 59 441 206 
L 441 856 
Q 825 641 1194 531 
Q 1563 422 1919 422 
Q 2459 422 2753 634 
Q 3047 847 3047 1241 
Q 3047 1584 2836 1778 
Q 2625 1972 2144 2069 
L 1759 2144 
Q 1053 2284 737 2584 
Q 422 2884 422 3419 
Q 422 4038 858 4394 
Q 1294 4750 2059 4750 
Q 2388 4750 2728 4690 
Q 3069 4631 3425 4513 
z
" transform="scale(0.015625)"/>
       <path id="DejaVuSans-71" d="M 947 1747 
Q 947 1113 1208 752 
Q 1469 391 1925 391 
Q 2381 391 2643 752 
Q 2906 1113 2906 1747 
Q 2906 2381 2643 2742 
Q 2381 3103 1925 3103 
Q 1469 3103 1208 2742 
Q 947 2381 947 1747 
z
M 2906 525 
Q 2725 213 2448 61 
Q 2172 -91 1784 -91 
Q 1150 -91 751 415 
Q 353 922 353 1747 
Q 353 2572 751 3078 
Q 1150 3584 1784 3584 
Q 2172 3584 2448 3432 
Q 2725 3281 2906 2969 
L 2906 3500 
L 3481 3500 
L 3481 -1331 
L 2906 -1331 
L 2906 525 
z
" transform="scale(0.015625)"/>
       <path id="DejaVuSans-75" d="M 544 1381 
L 544 3500 
L 1119 3500 
L 1119 1403 
Q 1119 906 1312 657 
Q 1506 409 1894 409 
Q 2359 409 2629 706 
Q 2900 1003 2900 1516 
L 2900 3500 
L 3475 3500 
L 3475 0 
L 2900 0 
L 2900 538 
Q 2691 219 2414 64 
Q 2138 -91 1772 -91 
Q 1169 -91 856 284 
Q 544 659 544 1381 
z
M 1991 3584 
L 1991 3584 
z
" transform="scale(0.015625)"/>
       <path id="DejaVuSans-64" d="M 2906 2969 
L 2906 4863 
L 3481 4863 
L 3481 0 
L 2906 0 
L 2906 525 
Q 2725 213 2448 61 
Q 2172 -91 1784 -91 
Q 1150 -91 751 415 
Q 353 922 353 1747 
Q 353 2572 751 3078 
Q 1150 3584 1784 3584 
Q 2172 3584 2448 3432 
Q 2725 3281 2906 2969 
z
M 947 1747 
Q 947 1113 1208 752 
Q 1469 391 1925 391 
Q 2381 391 2643 752 
Q 2906 1113 2906 1747 
Q 2906 2381 2643 2742 
Q 2381 3103 1925 3103 
Q 1469 3103 1208 2742 
Q 947 2381 947 1747 
z
" transform="scale(0.015625)"/>
       <path id="DejaVuSans-45" d="M 628 4666 
L 3578 4666 
L 3578 4134 
L 1259 4134 
L 1259 2753 
L 3481 2753 
L 3481 2222 
L 1259 2222 
L 1259 531 
L 3634 531 
L 3634 0 
L 628 0 
L 628 4666 
z
" transform="scale(0.015625)"/>
      </defs>
      <use xlink:href="#DejaVuSans-52"/>
      <use xlink:href="#DejaVuSans-6f" transform="translate(64.982422 0)"/>
      <use xlink:href="#DejaVuSans-6f" transform="translate(126.164062 0)"/>
      <use xlink:href="#DejaVuSans-74" transform="translate(187.345703 0)"/>
      <use xlink:href="#DejaVuSans-20" transform="translate(226.554688 0)"/>
      <use xlink:href="#DejaVuSans-4d" transform="translate(258.341797 0)"/>
      <use xlink:href="#DejaVuSans-65" transform="translate(344.621094 0)"/>
      <use xlink:href="#DejaVuSans-61" transform="translate(406.144531 0)"/>
      <use xlink:href="#DejaVuSans-6e" transform="translate(467.423828 0)"/>
      <use xlink:href="#DejaVuSans-20" transform="translate(530.802734 0)"/>
      <use xlink:href="#DejaVuSans-53" transform="translate(562.589844 0)"/>
      <use xlink:href="#DejaVuSans-71" transform="translate(626.066406 0)"/>
      <use xlink:href="#DejaVuSans-75" transform="translate(689.542969 0)"/>
      <use xlink:href="#DejaVuSans-61" transform="translate(752.921875 0)"/>
      <use xlink:href="#DejaVuSans-72" transform="translate(814.201172 0)"/>
      <use xlink:href="#DejaVuSans-65" transform="translate(853.064453 0)"/>
      <use xlink:href="#DejaVuSans-64" transform="translate(914.587891 0)"/>
      <use xlink:href="#DejaVuSans-20" transform="translate(978.064453 0)"/>
      <use xlink:href="#DejaVuSans-45" transform="translate(1009.851562 0)"/>
      <use xlink:href="#DejaVuSans-72" transform="translate(1073.035156 0)"/>
      <use xlink:href="#DejaVuSans-72" transform="translate(1112.398438 0)"/>
      <use xlink:href="#DejaVuSans-6f" transform="translate(1151.261719 0)"/>
      <use xlink:href="#DejaVuSans-72" transform="translate(1212.443359 0)"/>
      <use xlink:href="#DejaVuSans-20" transform="translate(1253.556641 0)"/>
      <use xlink:href="#DejaVuSans-28" transform="translate(1285.34375 0)"/>
      <use xlink:href="#DejaVuSans-52" transform="translate(1324.357422 0)"/>
      <use xlink:href="#DejaVuSans-4d" transform="translate(1393.839844 0)"/>
      <use xlink:href="#DejaVuSans-53" transform="translate(1480.119141 0)"/>
      <use xlink:href="#DejaVuSans-45" transform="translate(1543.595703 0)"/>
      <use xlink:href="#DejaVuSans-29" transform="translate(1606.779297 0)"/>
     </g>
    </g>
   </g>
   <g id="line2d_16">
    <path d="M 96.836481 443.564171 
L 99.372845 440.524971 
L 101.909208 444.28354 
L 104.445572 442.24865 
L 106.981936 448.263515 
L 109.518299 444.086864 
L 112.054663 445.878011 
L 114.591027 443.833532 
L 117.12739 445.84902 
L 119.663754 443.773663 
M 127.272845 448.914347 
L 129.809208 444.028299 
L 132.345572 445.080525 
L 134.881936 445.2463 
L 137.418299 450.732905 
L 139.954663 440.80143 
L 142.491027 444.705281 
L 145.02739 447.875577 
L 147.563754 454.029647 
L 150.100118 445.793659 
L 152.636481 447.827739 
L 155.172845 439.136475 
L 157.709208 452.203185 
L 160.245572 439.514808 
L 162.781936 449.916795 
L 165.318299 447.877987 
L 167.854663 452.695819 
L 170.391027 441.496072 
L 172.92739 450.942196 
L 175.463754 447.649737 
L 178.000118 449.216713 
L 180.536481 448.089623 
L 183.072845 446.236171 
L 185.609208 446.793874 
L 188.145572 449.978699 
L 190.681936 446.621602 
L 193.218299 447.214948 
L 195.754663 447.001053 
L 198.291027 448.515124 
L 200.82739 447.243465 
L 203.363754 449.369799 
L 205.900118 443.465571 
L 208.436481 450.136451 
L 210.972845 442.600119 
L 213.509208 445.817356 
L 216.045572 440.449676 
L 218.581936 449.398652 
L 221.118299 438.623734 
L 223.654663 447.00539 
L 226.191027 441.91878 
L 228.72739 449.182331 
L 231.263754 441.459708 
L 233.800118 447.336474 
L 236.336481 442.62209 
L 238.872845 445.171209 
L 241.409208 441.415528 
L 243.945572 446.839947 
L 246.481936 443.794677 
L 249.018299 450.114446 
L 251.554663 445.351324 
L 254.091027 448.568707 
M 261.700118 447.097193 
L 264.236481 451.848828 
L 266.772845 445.652795 
L 269.309208 445.226821 
M 276.918299 450.34132 
L 279.454663 445.927944 
L 281.991027 439.074189 
L 284.52739 450.357761 
L 287.063754 443.880195 
L 289.600118 446.89611 
L 292.136481 444.548941 
L 294.672845 448.480098 
L 297.209208 442.618812 
L 299.745572 450.220329 
L 302.281936 449.067136 
L 304.818299 448.599245 
L 307.354663 446.348466 
L 309.891027 451.314614 
L 312.42739 445.515063 
L 314.963754 449.070914 
L 317.500118 447.855296 
L 320.036481 447.170391 
L 322.572845 449.217372 
L 325.109208 445.889953 
L 330.181936 442.424708 
L 332.718299 445.47538 
L 335.254663 449.499553 
L 337.791027 442.323383 
L 340.32739 443.267057 
L 342.863754 442.541373 
L 345.400118 446.801458 
L 347.936481 446.596709 
L 350.472845 442.809388 
L 353.009208 445.092879 
L 355.545572 445.960764 
L 358.081936 444.292601 
L 360.618299 444.104771 
L 363.154663 450.854847 
L 365.691027 449.39328 
L 368.22739 446.335256 
L 370.763754 442.646138 
L 373.300118 453.207388 
L 375.836481 447.416347 
L 378.372845 449.685645 
L 380.909208 446.520985 
L 383.445572 450.067798 
L 385.981936 442.228777 
L 388.518299 447.935014 
L 391.054663 443.713112 
L 393.591027 445.450097 
L 396.12739 441.753129 
L 398.663754 447.250961 
L 401.200118 441.895457 
L 403.736481 446.96305 
L 406.272845 440.265836 
L 408.809208 444.875964 
L 411.345572 442.621785 
L 413.881936 444.708871 
L 416.418299 441.60472 
L 418.954663 444.12243 
L 421.491027 439.501432 
L 424.02739 441.066546 
L 426.563754 440.812119 
L 429.100118 448.85166 
L 431.636481 444.180552 
L 434.172845 443.543643 
L 436.709208 442.223468 
L 439.245572 444.413483 
L 441.781936 443.713012 
L 444.318299 445.823857 
L 446.854663 441.066376 
M 469.681936 443.925265 
L 472.218299 443.947517 
L 474.754663 441.834 
L 477.291027 439.278749 
L 479.82739 446.56338 
L 482.363754 442.260761 
L 484.900118 444.363119 
L 487.436481 437.663723 
L 489.972845 445.492461 
L 492.509208 449.328608 
L 495.045572 442.69036 
L 497.581936 439.332495 
L 500.118299 439.451739 
L 502.654663 446.594095 
L 505.191027 442.199824 
L 507.72739 444.319391 
L 510.263754 442.672812 
L 512.800118 445.646245 
L 515.336481 440.158136 
L 517.872845 444.549862 
L 520.409208 444.085106 
L 522.945572 446.788584 
L 525.481936 437.040687 
L 528.018299 446.327429 
L 530.554663 440.99196 
L 533.091027 446.252812 
L 535.62739 441.889669 
L 538.163754 443.746118 
L 540.700118 444.947192 
L 543.236481 444.430148 
L 548.309208 442.450974 
L 550.845572 443.096632 
L 553.381936 442.516765 
L 555.918299 443.392373 
L 558.454663 440.481035 
L 560.991027 435.393819 
L 563.52739 444.165063 
L 566.063754 436.124682 
L 568.600118 442.839725 
L 571.136481 444.192135 
L 573.672845 441.554903 
L 576.209208 443.138204 
L 578.745572 447.506745 
L 583.818299 446.290221 
L 586.354663 441.796722 
L 588.891027 447.624532 
L 591.42739 447.278938 
L 593.963754 449.768563 
L 596.500118 445.189065 
L 599.036481 441.5075 
L 601.572845 448.424216 
L 604.109208 443.170366 
L 606.645572 441.220661 
L 609.181936 441.762679 
L 611.718299 442.851385 
L 616.791027 441.334426 
L 619.32739 438.703718 
L 621.863754 449.798712 
L 624.400118 445.574739 
L 626.936481 437.992921 
L 629.472845 443.877673 
L 632.009208 447.521791 
L 634.545572 435.059647 
L 637.081936 442.633711 
L 639.618299 442.144582 
L 642.154663 442.457968 
L 644.691027 445.996854 
L 647.22739 440.375321 
L 649.763754 443.22929 
L 652.300118 444.776555 
L 654.836481 448.098634 
L 657.372845 439.194651 
L 659.909208 451.300845 
L 662.445572 443.509261 
L 664.981936 442.805135 
L 667.518299 441.404528 
L 670.054663 448.789127 
L 672.591027 442.679251 
L 675.12739 442.782016 
L 677.663754 445.265552 
L 680.200118 444.071372 
L 682.736481 445.376487 
L 685.272845 447.790338 
L 687.809208 447.57106 
L 690.345572 449.237199 
L 692.881936 443.248349 
L 695.418299 444.618884 
L 697.954663 444.863772 
L 700.491027 444.888654 
L 703.02739 448.217319 
L 705.563754 439.920894 
L 705.563754 439.920894 
" clip-path="url(#p24adbf790f)" style="fill: none; stroke: #0000ff; stroke-linecap: square"/>
   </g>
   <g id="line2d_17">
    <path d="M 96.836481 453.907975 
L 99.372845 358.160016 
L 101.909208 443.791292 
L 104.445572 371.404624 
L 106.981936 423.37615 
L 109.518299 413.883537 
L 112.054663 397.219456 
L 114.591027 411.78456 
L 117.12739 380.678584 
L 119.663754 414.359401 
L 122.200118 372.233546 
L 124.736481 381.738005 
L 127.272845 392.218992 
L 129.809208 405.812618 
L 132.345572 401.810568 
L 134.881936 360.394407 
L 137.418299 422.794591 
L 139.954663 268.51705 
L 142.491027 419.034754 
L 145.02739 320.637865 
L 147.563754 449.528487 
L 150.100118 384.000528 
L 152.636481 387.050948 
L 155.172845 427.488907 
L 157.709208 330.032619 
L 160.245572 357.543662 
L 162.781936 274.31384 
L 165.318299 397.543789 
L 167.854663 198.746187 
L 170.391027 326.831291 
L 172.92739 260.530688 
L 175.463754 433.029588 
L 178.000118 332.449512 
L 180.536481 444.90041 
L 183.072845 407.216359 
L 185.609208 447.76398 
L 188.145572 433.195834 
L 190.681936 438.692286 
L 193.218299 428.360212 
L 195.754663 367.059826 
L 198.291027 370.350855 
L 200.82739 417.482526 
L 203.363754 428.264319 
L 205.900118 404.726993 
L 208.436481 406.775829 
L 210.972845 431.45482 
L 213.509208 287.620896 
L 216.045572 404.17921 
L 218.581936 291.474236 
L 221.118299 408.202227 
L 223.654663 413.335816 
L 226.191027 410.166877 
L 228.72739 457.765841 
L 231.263754 365.479051 
L 233.800118 445.397751 
L 236.336481 386.478651 
L 238.872845 442.294001 
L 241.409208 359.327113 
L 243.945572 402.818221 
L 246.481936 390.879765 
L 249.018299 417.155965 
L 251.554663 332.57447 
L 254.091027 422.722226 
L 256.62739 355.320221 
L 259.163754 454.619543 
L 261.700118 282.28956 
L 264.236481 428.883772 
L 266.772845 297.44321 
L 269.309208 415.135507 
L 271.845572 365.724586 
L 274.381936 383.982028 
L 276.918299 350.944886 
L 279.454663 403.73639 
L 281.991027 358.340713 
L 284.52739 426.280915 
L 287.063754 308.399537 
L 289.600118 450.837839 
L 292.136481 306.452679 
L 294.672845 455.552128 
L 297.209208 328.353968 
L 299.745572 368.253544 
L 302.281936 318.564861 
L 304.818299 438.31061 
L 307.354663 350.345097 
L 309.891027 409.952472 
L 312.42739 347.372247 
L 314.963754 441.944302 
L 317.500118 350.19065 
L 320.036481 439.678987 
L 322.572845 383.161172 
L 325.109208 456.942008 
L 327.645572 413.509665 
L 330.181936 407.397905 
L 332.718299 436.911912 
L 335.254663 439.129269 
L 337.791027 336.249827 
L 340.32739 459.850004 
L 342.863754 378.898163 
L 345.400118 405.445123 
L 347.936481 464.237187 
L 350.472845 403.506146 
L 353.009208 416.718913 
L 355.545572 399.641586 
L 358.081936 452.477562 
L 360.618299 406.701042 
L 363.154663 452.443335 
L 365.691027 410.545884 
L 368.22739 360.561717 
L 370.763754 433.142717 
L 373.300118 435.769704 
L 375.836481 421.869529 
L 378.372845 318.097849 
L 380.909208 414.771059 
L 383.445572 395.111002 
L 385.981936 440.005301 
L 388.518299 299.280117 
L 391.054663 419.034638 
L 393.591027 352.366233 
L 396.12739 398.515514 
L 398.663754 389.585397 
L 401.200118 273.217967 
L 403.736481 447.894583 
L 406.272845 314.45778 
L 408.809208 392.02726 
L 411.345572 206.074476 
L 413.881936 395.925813 
L 416.418299 304.59731 
L 418.954663 373.851121 
L 421.491027 364.363266 
L 424.02739 376.257851 
L 426.563754 355.099948 
L 429.100118 407.095504 
L 431.636481 396.25134 
L 434.172845 400.549984 
L 436.709208 402.393947 
L 439.245572 422.110661 
L 441.781936 368.308419 
L 444.318299 445.407048 
L 446.854663 424.340318 
L 449.391027 338.010036 
L 451.92739 432.141973 
L 454.463754 352.394935 
L 457.000118 421.298696 
L 459.536481 324.571574 
L 462.072845 443.316122 
L 464.609208 326.658105 
L 467.145572 432.440395 
L 469.681936 275.678708 
L 472.218299 449.232572 
L 474.754663 408.074671 
L 477.291027 385.551213 
L 479.82739 411.484642 
L 482.363754 392.457225 
L 484.900118 431.33246 
L 487.436481 332.374016 
L 489.972845 443.248595 
L 492.509208 408.28781 
L 495.045572 439.225752 
L 497.581936 413.516768 
L 500.118299 381.942353 
L 502.654663 426.881969 
L 505.191027 442.582687 
L 507.72739 440.945636 
L 510.263754 374.709209 
L 512.800118 427.464685 
L 515.336481 386.949935 
L 517.872845 413.845056 
L 520.409208 366.983112 
L 522.945572 413.15414 
L 525.481936 399.818528 
L 528.018299 413.119769 
L 530.554663 385.633249 
L 533.091027 412.007277 
L 535.62739 433.123461 
L 538.163754 417.727368 
L 540.700118 423.608538 
L 543.236481 418.610989 
L 545.772845 434.405067 
L 548.309208 430.334246 
L 550.845572 442.974685 
L 553.381936 387.998575 
L 555.918299 387.645756 
L 558.454663 315.722922 
L 560.991027 423.938793 
L 563.52739 331.093297 
L 566.063754 427.167196 
L 568.600118 255.945152 
L 571.136481 374.263636 
L 573.672845 408.201896 
L 576.209208 406.883976 
L 578.745572 300.847305 
L 581.281936 463.929288 
L 583.818299 379.653988 
L 586.354663 396.079828 
L 588.891027 349.036847 
L 591.42739 438.410907 
L 593.963754 414.680541 
L 596.500118 335.806166 
L 599.036481 424.09405 
L 601.572845 304.341549 
L 604.109208 425.976663 
L 606.645572 278.686244 
L 609.181936 441.842224 
L 611.718299 285.53213 
L 614.254663 408.178453 
L 616.791027 287.076985 
L 619.32739 436.66296 
L 621.863754 366.788272 
L 624.400118 449.956201 
L 626.936481 422.5114 
L 629.472845 358.421375 
L 632.009208 443.485849 
L 634.545572 375.259791 
L 637.081936 398.865472 
L 639.618299 362.739028 
L 642.154663 441.455397 
L 644.691027 304.426376 
L 647.22739 455.970298 
L 649.763754 443.659398 
L 652.300118 269.886977 
L 654.836481 418.542317 
L 657.372845 260.653826 
L 659.909208 455.865363 
L 662.445572 321.523491 
L 664.981936 365.165607 
L 667.518299 277.547418 
L 670.054663 393.627901 
L 672.591027 333.704567 
L 675.12739 456.874289 
L 677.663754 399.812829 
L 680.200118 421.796832 
L 682.736481 390.62011 
L 685.272845 423.070673 
L 687.809208 452.288641 
L 690.345572 442.611004 
L 692.881936 353.300179 
L 695.418299 450.75499 
L 697.954663 323.927243 
L 700.491027 426.900292 
L 703.02739 427.563516 
L 705.563754 413.673004 
L 705.563754 413.673004 
" clip-path="url(#p24adbf790f)" style="fill: none; stroke: #ffa500; stroke-linecap: square"/>
   </g>
   <g id="line2d_18">
    <path d="M 96.836481 424.761754 
L 99.372845 425.836383 
L 101.909208 429.300497 
L 104.445572 436.816975 
L 106.981936 434.379426 
L 109.518299 431.700718 
L 112.054663 432.47057 
L 114.591027 434.720608 
L 117.12739 433.789115 
L 119.663754 434.663636 
M 127.272845 428.983452 
L 129.809208 437.307326 
L 132.345572 430.632822 
L 134.881936 436.975066 
L 137.418299 432.262281 
L 139.954663 422.862422 
L 142.491027 433.689913 
L 145.02739 440.043547 
L 147.563754 438.942973 
L 150.100118 427.073169 
L 152.636481 428.145777 
L 155.172845 433.855033 
L 157.709208 431.157054 
L 160.245572 429.567571 
L 162.781936 435.70286 
L 165.318299 439.042622 
L 167.854663 435.084524 
L 170.391027 433.759695 
L 172.92739 436.81679 
L 175.463754 435.165935 
L 178.000118 434.715272 
L 180.536481 433.84345 
L 183.072845 435.595955 
L 185.609208 434.067517 
L 188.145572 430.08349 
L 190.681936 432.806532 
L 193.218299 432.989311 
L 195.754663 441.367551 
L 198.291027 432.083597 
L 200.82739 433.10247 
L 203.363754 431.247148 
L 205.900118 436.790185 
L 208.436481 432.293459 
L 210.972845 424.669231 
L 213.509208 427.24425 
L 216.045572 433.872754 
L 218.581936 430.335033 
L 221.118299 429.376217 
L 223.654663 431.102664 
L 226.191027 433.629146 
L 228.72739 432.025775 
L 231.263754 429.816539 
L 233.800118 433.213054 
L 236.336481 430.396964 
L 238.872845 428.717334 
L 241.409208 432.054462 
L 243.945572 430.460284 
L 246.481936 431.064322 
L 249.018299 436.390819 
L 251.554663 430.686333 
L 254.091027 433.098198 
M 261.700118 437.073801 
L 264.236481 434.219373 
L 266.772845 428.320374 
L 269.309208 428.721784 
M 276.918299 434.445283 
L 279.454663 427.101363 
L 281.991027 427.165021 
L 284.52739 435.055313 
L 287.063754 428.807312 
L 289.600118 432.550338 
L 292.136481 435.151314 
L 294.672845 428.178667 
L 297.209208 432.809909 
L 299.745572 437.008673 
L 302.281936 434.010436 
L 304.818299 438.507783 
L 307.354663 433.938125 
L 309.891027 436.110022 
L 312.42739 433.679302 
L 314.963754 440.816896 
L 317.500118 430.806455 
L 320.036481 431.650038 
L 322.572845 428.408872 
L 325.109208 426.744719 
L 327.645572 424.052963 
L 330.181936 428.993747 
L 332.718299 427.788416 
L 335.254663 427.085407 
L 337.791027 412.923433 
L 340.32739 424.126577 
L 342.863754 421.254494 
L 345.400118 434.439075 
L 347.936481 423.089034 
L 350.472845 422.791291 
L 353.009208 429.354324 
L 355.545572 427.641341 
L 358.081936 427.731427 
L 363.154663 436.810382 
L 365.691027 431.554993 
L 368.22739 423.048479 
L 370.763754 433.582229 
L 373.300118 426.922493 
L 375.836481 435.336006 
L 378.372845 434.934697 
L 380.909208 434.713614 
L 383.445572 427.158899 
L 385.981936 430.999167 
L 388.518299 433.05435 
L 391.054663 433.309888 
L 393.591027 420.824205 
L 396.12739 429.532036 
L 398.663754 428.902087 
L 401.200118 429.148579 
L 403.736481 421.771338 
L 406.272845 423.481428 
L 408.809208 425.724496 
L 411.345572 422.705353 
L 413.881936 421.3619 
L 416.418299 424.365396 
L 418.954663 428.49565 
L 421.491027 423.966632 
L 424.02739 412.350873 
L 426.563754 427.037149 
L 429.100118 430.373267 
L 431.636481 432.162254 
L 434.172845 420.538353 
L 436.709208 424.701759 
L 439.245572 429.417481 
L 441.781936 427.509034 
L 444.318299 421.355284 
L 446.854663 425.762745 
M 469.681936 430.21818 
L 472.218299 428.172065 
L 474.754663 414.83212 
L 477.291027 421.251571 
L 479.82739 425.060708 
L 482.363754 425.892515 
L 484.900118 409.591664 
L 487.436481 418.741746 
L 489.972845 431.567686 
L 492.509208 430.791742 
L 495.045572 417.057944 
L 497.581936 416.818639 
L 500.118299 426.234846 
L 502.654663 434.713969 
L 505.191027 420.857241 
L 507.72739 431.060397 
L 510.263754 430.866112 
L 512.800118 422.399845 
L 515.336481 425.592412 
L 517.872845 426.417433 
L 520.409208 429.544198 
L 522.945572 424.450015 
L 525.481936 427.926113 
L 528.018299 432.158052 
L 530.554663 430.010947 
L 533.091027 437.234486 
L 535.62739 422.651287 
L 538.163754 433.062601 
L 540.700118 425.683933 
L 543.236481 437.419062 
L 545.772845 418.590854 
L 548.309208 425.803007 
L 550.845572 421.0781 
L 553.381936 430.194305 
L 555.918299 420.32472 
L 558.454663 415.373833 
L 560.991027 417.643127 
L 563.52739 429.892613 
L 566.063754 422.566584 
L 568.600118 427.045022 
L 571.136481 422.43558 
L 573.672845 429.679458 
L 576.209208 422.636265 
L 578.745572 433.920666 
L 581.281936 431.019695 
L 583.818299 428.574084 
L 586.354663 418.748416 
L 588.891027 432.460105 
L 591.42739 436.110346 
L 593.963754 434.32981 
L 596.500118 423.110696 
L 599.036481 427.250381 
L 601.572845 426.756093 
L 604.109208 426.773452 
L 606.645572 418.134091 
L 609.181936 422.100922 
L 611.718299 419.589215 
L 614.254663 418.430724 
L 616.791027 415.468739 
L 619.32739 426.086707 
L 621.863754 429.618005 
L 624.400118 419.289868 
L 626.936481 418.520579 
L 629.472845 431.613338 
L 632.009208 417.950972 
L 634.545572 421.611863 
L 637.081936 417.118279 
L 639.618299 418.765536 
L 642.154663 428.657099 
L 644.691027 426.581789 
L 647.22739 421.856072 
L 649.763754 427.463798 
L 652.300118 433.572867 
L 654.836481 427.785347 
L 657.372845 429.978736 
L 659.909208 432.768691 
L 662.445572 420.657404 
L 664.981936 424.021715 
L 667.518299 433.859328 
L 670.054663 431.669039 
L 672.591027 423.401143 
L 675.12739 428.910809 
L 677.663754 432.160658 
L 680.200118 428.45545 
L 682.736481 429.677176 
L 685.272845 433.405187 
L 687.809208 433.203399 
L 690.345572 433.208558 
L 692.881936 425.325839 
L 695.418299 429.94317 
L 697.954663 432.521482 
L 700.491027 434.876135 
L 703.02739 428.989128 
L 705.563754 427.616996 
L 705.563754 427.616996 
" clip-path="url(#p24adbf790f)" style="fill: none; stroke-dasharray: 3.7,1.6; stroke-dashoffset: 0; stroke: #0000ff"/>
   </g>
   <g id="line2d_19">
    <path d="M 96.836481 395.660219 
L 99.372845 407.914594 
L 101.909208 409.398845 
L 104.445572 424.923705 
L 106.981936 400.184965 
L 109.518299 353.941935 
L 112.054663 424.523529 
L 117.12739 343.525292 
L 119.663754 297.499242 
L 122.200118 440.880408 
L 124.736481 384.908617 
L 127.272845 306.583729 
L 132.345572 417.372028 
L 134.881936 391.452395 
L 137.418299 359.98406 
L 139.954663 367.011737 
L 142.491027 381.113407 
L 145.02739 264.343974 
L 147.563754 289.610986 
L 150.100118 416.563278 
L 152.636481 400.377453 
L 155.172845 370.831362 
L 157.709208 277.905188 
L 160.245572 139.442893 
L 162.781936 290.243302 
L 165.318299 205.779894 
L 167.854663 61.037187 
L 170.391027 113.864658 
L 172.92739 254.989629 
L 175.463754 290.415116 
L 178.000118 365.394301 
L 180.536481 423.86925 
L 183.072845 449.858476 
L 185.609208 431.476242 
L 188.145572 419.243722 
L 190.681936 420.872911 
L 193.218299 279.893041 
L 195.754663 410.493469 
L 198.291027 326.988529 
L 200.82739 435.537069 
L 203.363754 278.762496 
L 205.900118 399.535683 
L 208.436481 391.262976 
L 210.972845 329.797817 
L 213.509208 311.999491 
L 216.045572 216.819384 
L 218.581936 251.993999 
L 221.118299 406.350036 
L 223.654663 426.299592 
L 226.191027 418.480301 
L 228.72739 376.83274 
L 231.263754 420.496263 
L 233.800118 409.692855 
L 236.336481 411.718611 
L 238.872845 385.970213 
L 241.409208 400.678451 
L 243.945572 442.220364 
L 246.481936 402.219928 
L 249.018299 390.946339 
L 251.554663 449.076532 
L 254.091027 425.093752 
L 256.62739 412.334324 
L 259.163754 367.088529 
L 261.700118 375.373482 
L 264.236481 329.551125 
L 266.772845 268.291981 
L 271.845572 384.058226 
L 274.381936 343.749205 
L 276.918299 402.078421 
L 279.454663 406.0399 
L 281.991027 374.034502 
L 284.52739 300.896304 
L 287.063754 366.764644 
L 289.600118 397.329531 
L 292.136481 412.217155 
L 294.672845 377.134246 
L 297.209208 455.536454 
L 299.745572 407.552043 
L 302.281936 380.785304 
L 304.818299 382.082665 
L 307.354663 394.521624 
L 309.891027 375.379644 
L 312.42739 358.777048 
L 314.963754 345.678157 
L 317.500118 350.95869 
L 320.036481 373.481869 
L 322.572845 433.552169 
L 325.109208 360.878816 
L 327.645572 442.181687 
L 330.181936 444.118844 
L 332.718299 434.54568 
L 335.254663 350.0135 
L 337.791027 307.381936 
L 340.32739 442.39633 
L 342.863754 425.422164 
L 345.400118 413.11943 
L 347.936481 410.396072 
L 350.472845 298.892102 
L 353.009208 314.56605 
L 355.545572 395.302781 
L 358.081936 375.734931 
L 360.618299 361.707284 
L 363.154663 339.376692 
L 365.691027 426.939921 
L 368.22739 385.803366 
L 370.763754 428.743661 
L 373.300118 415.512371 
L 375.836481 321.86303 
L 378.372845 371.411425 
L 380.909208 395.517401 
L 383.445572 411.011955 
L 385.981936 355.017604 
L 388.518299 400.562507 
L 391.054663 419.111885 
L 393.591027 410.045381 
L 396.12739 413.294359 
L 398.663754 325.975278 
L 401.200118 286.629576 
L 403.736481 297.664392 
L 406.272845 266.994574 
L 408.809208 157.494467 
L 411.345572 111.151857 
L 413.881936 227.63385 
L 416.418299 203.428272 
L 418.954663 239.379409 
L 421.491027 299.497166 
L 424.02739 320.420924 
L 426.563754 352.375996 
L 429.100118 392.490763 
L 431.636481 377.40796 
L 434.172845 434.528298 
L 436.709208 411.759459 
L 439.245572 437.681664 
L 441.781936 424.815789 
L 444.318299 450.424863 
L 446.854663 355.651447 
L 449.391027 324.684317 
L 454.463754 355.226155 
L 457.000118 316.680188 
L 459.536481 321.783061 
L 462.072845 291.750263 
L 464.609208 373.673324 
L 467.145572 277.590325 
L 469.681936 204.936004 
L 472.218299 338.324991 
L 474.754663 330.0868 
L 477.291027 350.934984 
L 479.82739 352.124861 
L 482.363754 359.660761 
L 484.900118 247.105044 
L 487.436481 323.907795 
L 489.972845 371.893891 
L 492.509208 377.670901 
L 495.045572 391.000104 
L 497.581936 389.965669 
L 500.118299 322.653819 
L 502.654663 341.253947 
L 505.191027 405.209566 
L 507.72739 424.101306 
L 510.263754 302.308058 
L 512.800118 341.743491 
L 515.336481 355.502213 
L 517.872845 372.828307 
L 520.409208 316.654956 
L 522.945572 366.146208 
L 525.481936 403.780963 
L 528.018299 359.699781 
L 530.554663 341.435847 
L 533.091027 402.686462 
L 535.62739 365.838224 
L 538.163754 411.352983 
L 540.700118 405.558368 
L 543.236481 405.409535 
L 545.772845 423.87845 
L 548.309208 421.226701 
L 550.845572 348.373391 
L 553.381936 347.312066 
L 555.918299 321.194593 
L 558.454663 327.184711 
L 560.991027 358.759897 
L 563.52739 311.127098 
L 566.063754 259.154885 
L 568.600118 354.87548 
L 571.136481 352.461193 
L 573.672845 366.202178 
L 576.209208 251.217754 
L 578.745572 345.454291 
L 581.281936 417.575667 
L 583.818299 396.169883 
L 586.354663 416.28574 
L 588.891027 405.257926 
L 591.42739 398.62097 
L 593.963754 446.285968 
L 596.500118 355.466401 
L 599.036481 374.240231 
L 601.572845 221.688458 
L 604.109208 215.236294 
L 606.645572 288.705495 
L 609.181936 322.016968 
L 611.718299 240.864593 
L 614.254663 172.039412 
L 616.791027 413.429396 
L 619.32739 378.132414 
L 621.863754 387.409867 
L 624.400118 401.073506 
L 626.936481 383.879842 
L 629.472845 411.663257 
L 632.009208 303.699145 
L 634.545572 410.081209 
L 637.081936 389.427919 
L 639.618299 410.87206 
L 642.154663 293.040931 
L 644.691027 312.194593 
L 647.22739 391.225197 
L 649.763754 309.302391 
L 652.300118 217.981977 
L 654.836481 284.500786 
L 657.372845 304.733589 
L 659.909208 386.418069 
L 662.445572 236.483906 
L 664.981936 168.763298 
L 667.518299 279.769224 
L 670.054663 288.844303 
L 672.591027 391.838057 
L 675.12739 379.566416 
L 677.663754 442.015923 
L 680.200118 387.479634 
L 682.736481 447.916607 
L 685.272845 447.936086 
L 687.809208 431.009331 
L 690.345572 360.529452 
L 692.881936 302.736358 
L 695.418299 282.547635 
L 697.954663 379.041483 
L 700.491027 437.619327 
L 703.02739 388.070316 
L 705.563754 380.34074 
L 705.563754 380.34074 
" clip-path="url(#p24adbf790f)" style="fill: none; stroke-dasharray: 3.7,1.6; stroke-dashoffset: 0; stroke: #ffa500"/>
   </g>
   <g id="patch_3">
    <path d="M 66.400118 484.397187 
L 66.400118 40.877187 
" style="fill: none; stroke: #000000; stroke-width: 0.8; stroke-linejoin: miter; stroke-linecap: square"/>
   </g>
   <g id="patch_4">
    <path d="M 736.000118 484.397187 
L 736.000118 40.877187 
" style="fill: none; stroke: #000000; stroke-width: 0.8; stroke-linejoin: miter; stroke-linecap: square"/>
   </g>
   <g id="patch_5">
    <path d="M 66.400118 484.397187 
L 736.000118 484.397187 
" style="fill: none; stroke: #000000; stroke-width: 0.8; stroke-linejoin: miter; stroke-linecap: square"/>
   </g>
   <g id="patch_6">
    <path d="M 66.400118 40.877187 
L 736.000118 40.877187 
" style="fill: none; stroke: #000000; stroke-width: 0.8; stroke-linejoin: miter; stroke-linecap: square"/>
   </g>
   <g id="text_18">
    <!-- Geopotential two steps forward prediction: RMSES -->
    <g transform="translate(174.471836 20.877187) scale(0.18 -0.18)">
     <defs>
      <path id="DejaVuSans-47" d="M 3809 666 
L 3809 1919 
L 2778 1919 
L 2778 2438 
L 4434 2438 
L 4434 434 
Q 4069 175 3628 42 
Q 3188 -91 2688 -91 
Q 1594 -91 976 548 
Q 359 1188 359 2328 
Q 359 3472 976 4111 
Q 1594 4750 2688 4750 
Q 3144 4750 3555 4637 
Q 3966 4525 4313 4306 
L 4313 3634 
Q 3963 3931 3569 4081 
Q 3175 4231 2741 4231 
Q 1884 4231 1454 3753 
Q 1025 3275 1025 2328 
Q 1025 1384 1454 906 
Q 1884 428 2741 428 
Q 3075 428 3337 486 
Q 3600 544 3809 666 
z
" transform="scale(0.015625)"/>
      <path id="DejaVuSans-70" d="M 1159 525 
L 1159 -1331 
L 581 -1331 
L 581 3500 
L 1159 3500 
L 1159 2969 
Q 1341 3281 1617 3432 
Q 1894 3584 2278 3584 
Q 2916 3584 3314 3078 
Q 3713 2572 3713 1747 
Q 3713 922 3314 415 
Q 2916 -91 2278 -91 
Q 1894 -91 1617 61 
Q 1341 213 1159 525 
z
M 3116 1747 
Q 3116 2381 2855 2742 
Q 2594 3103 2138 3103 
Q 1681 3103 1420 2742 
Q 1159 2381 1159 1747 
Q 1159 1113 1420 752 
Q 1681 391 2138 391 
Q 2594 391 2855 752 
Q 3116 1113 3116 1747 
z
" transform="scale(0.015625)"/>
      <path id="DejaVuSans-69" d="M 603 3500 
L 1178 3500 
L 1178 0 
L 603 0 
L 603 3500 
z
M 603 4863 
L 1178 4863 
L 1178 4134 
L 603 4134 
L 603 4863 
z
" transform="scale(0.015625)"/>
      <path id="DejaVuSans-6c" d="M 603 4863 
L 1178 4863 
L 1178 0 
L 603 0 
L 603 4863 
z
" transform="scale(0.015625)"/>
      <path id="DejaVuSans-77" d="M 269 3500 
L 844 3500 
L 1563 769 
L 2278 3500 
L 2956 3500 
L 3675 769 
L 4391 3500 
L 4966 3500 
L 4050 0 
L 3372 0 
L 2619 2869 
L 1863 0 
L 1184 0 
L 269 3500 
z
" transform="scale(0.015625)"/>
      <path id="DejaVuSans-66" d="M 2375 4863 
L 2375 4384 
L 1825 4384 
Q 1516 4384 1395 4259 
Q 1275 4134 1275 3809 
L 1275 3500 
L 2222 3500 
L 2222 3053 
L 1275 3053 
L 1275 0 
L 697 0 
L 697 3053 
L 147 3053 
L 147 3500 
L 697 3500 
L 697 3744 
Q 697 4328 969 4595 
Q 1241 4863 1831 4863 
L 2375 4863 
z
" transform="scale(0.015625)"/>
     </defs>
     <use xlink:href="#DejaVuSans-47"/>
     <use xlink:href="#DejaVuSans-65" transform="translate(77.490234 0)"/>
     <use xlink:href="#DejaVuSans-6f" transform="translate(139.013672 0)"/>
     <use xlink:href="#DejaVuSans-70" transform="translate(200.195312 0)"/>
     <use xlink:href="#DejaVuSans-6f" transform="translate(263.671875 0)"/>
     <use xlink:href="#DejaVuSans-74" transform="translate(324.853516 0)"/>
     <use xlink:href="#DejaVuSans-65" transform="translate(364.0625 0)"/>
     <use xlink:href="#DejaVuSans-6e" transform="translate(425.585938 0)"/>
     <use xlink:href="#DejaVuSans-74" transform="translate(488.964844 0)"/>
     <use xlink:href="#DejaVuSans-69" transform="translate(528.173828 0)"/>
     <use xlink:href="#DejaVuSans-61" transform="translate(555.957031 0)"/>
     <use xlink:href="#DejaVuSans-6c" transform="translate(617.236328 0)"/>
     <use xlink:href="#DejaVuSans-20" transform="translate(645.019531 0)"/>
     <use xlink:href="#DejaVuSans-74" transform="translate(676.806641 0)"/>
     <use xlink:href="#DejaVuSans-77" transform="translate(716.015625 0)"/>
     <use xlink:href="#DejaVuSans-6f" transform="translate(797.802734 0)"/>
     <use xlink:href="#DejaVuSans-20" transform="translate(858.984375 0)"/>
     <use xlink:href="#DejaVuSans-73" transform="translate(890.771484 0)"/>
     <use xlink:href="#DejaVuSans-74" transform="translate(942.871094 0)"/>
     <use xlink:href="#DejaVuSans-65" transform="translate(982.080078 0)"/>
     <use xlink:href="#DejaVuSans-70" transform="translate(1043.603516 0)"/>
     <use xlink:href="#DejaVuSans-73" transform="translate(1107.080078 0)"/>
     <use xlink:href="#DejaVuSans-20" transform="translate(1159.179688 0)"/>
     <use xlink:href="#DejaVuSans-66" transform="translate(1190.966797 0)"/>
     <use xlink:href="#DejaVuSans-6f" transform="translate(1226.171875 0)"/>
     <use xlink:href="#DejaVuSans-72" transform="translate(1287.353516 0)"/>
     <use xlink:href="#DejaVuSans-77" transform="translate(1328.466797 0)"/>
     <use xlink:href="#DejaVuSans-61" transform="translate(1410.253906 0)"/>
     <use xlink:href="#DejaVuSans-72" transform="translate(1471.533203 0)"/>
     <use xlink:href="#DejaVuSans-64" transform="translate(1510.896484 0)"/>
     <use xlink:href="#DejaVuSans-20" transform="translate(1574.373047 0)"/>
     <use xlink:href="#DejaVuSans-70" transform="translate(1606.160156 0)"/>
     <use xlink:href="#DejaVuSans-72" transform="translate(1669.636719 0)"/>
     <use xlink:href="#DejaVuSans-65" transform="translate(1708.5 0)"/>
     <use xlink:href="#DejaVuSans-64" transform="translate(1770.023438 0)"/>
     <use xlink:href="#DejaVuSans-69" transform="translate(1833.5 0)"/>
     <use xlink:href="#DejaVuSans-63" transform="translate(1861.283203 0)"/>
     <use xlink:href="#DejaVuSans-74" transform="translate(1916.263672 0)"/>
     <use xlink:href="#DejaVuSans-69" transform="translate(1955.472656 0)"/>
     <use xlink:href="#DejaVuSans-6f" transform="translate(1983.255859 0)"/>
     <use xlink:href="#DejaVuSans-6e" transform="translate(2044.4375 0)"/>
     <use xlink:href="#DejaVuSans-3a" transform="translate(2107.816406 0)"/>
     <use xlink:href="#DejaVuSans-20" transform="translate(2141.507812 0)"/>
     <use xlink:href="#DejaVuSans-52" transform="translate(2173.294922 0)"/>
     <use xlink:href="#DejaVuSans-4d" transform="translate(2242.777344 0)"/>
     <use xlink:href="#DejaVuSans-53" transform="translate(2329.056641 0)"/>
     <use xlink:href="#DejaVuSans-45" transform="translate(2392.533203 0)"/>
     <use xlink:href="#DejaVuSans-53" transform="translate(2455.716797 0)"/>
    </g>
   </g>
   <g id="legend_1">
    <g id="text_19">
     <!-- Forecast Horizon -->
     <g transform="translate(852.099961 65.634687) scale(0.16 -0.16)">
      <defs>
       <path id="DejaVuSans-48" d="M 628 4666 
L 1259 4666 
L 1259 2753 
L 3553 2753 
L 3553 4666 
L 4184 4666 
L 4184 0 
L 3553 0 
L 3553 2222 
L 1259 2222 
L 1259 0 
L 628 0 
L 628 4666 
z
" transform="scale(0.015625)"/>
       <path id="DejaVuSans-7a" d="M 353 3500 
L 3084 3500 
L 3084 2975 
L 922 459 
L 3084 459 
L 3084 0 
L 275 0 
L 275 525 
L 2438 3041 
L 353 3041 
L 353 3500 
z
" transform="scale(0.015625)"/>
      </defs>
      <use xlink:href="#DejaVuSans-46"/>
      <use xlink:href="#DejaVuSans-6f" transform="translate(53.894531 0)"/>
      <use xlink:href="#DejaVuSans-72" transform="translate(115.076172 0)"/>
      <use xlink:href="#DejaVuSans-65" transform="translate(153.939453 0)"/>
      <use xlink:href="#DejaVuSans-63" transform="translate(215.462891 0)"/>
      <use xlink:href="#DejaVuSans-61" transform="translate(270.443359 0)"/>
      <use xlink:href="#DejaVuSans-73" transform="translate(331.722656 0)"/>
      <use xlink:href="#DejaVuSans-74" transform="translate(383.822266 0)"/>
      <use xlink:href="#DejaVuSans-20" transform="translate(423.03125 0)"/>
      <use xlink:href="#DejaVuSans-48" transform="translate(454.818359 0)"/>
      <use xlink:href="#DejaVuSans-6f" transform="translate(530.013672 0)"/>
      <use xlink:href="#DejaVuSans-72" transform="translate(591.195312 0)"/>
      <use xlink:href="#DejaVuSans-69" transform="translate(632.308594 0)"/>
      <use xlink:href="#DejaVuSans-7a" transform="translate(660.091797 0)"/>
      <use xlink:href="#DejaVuSans-6f" transform="translate(712.582031 0)"/>
      <use xlink:href="#DejaVuSans-6e" transform="translate(773.763672 0)"/>
     </g>
    </g>
    <g id="line2d_20">
     <path d="M 782.080118 81.7 
L 796.080118 81.7 
L 810.080118 81.7 
" style="fill: none; stroke: #0000ff; stroke-linecap: square"/>
    </g>
    <g id="text_20">
     <!-- Global RMSE (6h Forecast) -->
     <g transform="translate(821.280118 86.6) scale(0.14 -0.14)">
      <defs>
       <path id="DejaVuSans-62" d="M 3116 1747 
Q 3116 2381 2855 2742 
Q 2594 3103 2138 3103 
Q 1681 3103 1420 2742 
Q 1159 2381 1159 1747 
Q 1159 1113 1420 752 
Q 1681 391 2138 391 
Q 2594 391 2855 752 
Q 3116 1113 3116 1747 
z
M 1159 2969 
Q 1341 3281 1617 3432 
Q 1894 3584 2278 3584 
Q 2916 3584 3314 3078 
Q 3713 2572 3713 1747 
Q 3713 922 3314 415 
Q 2916 -91 2278 -91 
Q 1894 -91 1617 61 
Q 1341 213 1159 525 
L 1159 0 
L 581 0 
L 581 4863 
L 1159 4863 
L 1159 2969 
z
" transform="scale(0.015625)"/>
       <path id="DejaVuSans-36" d="M 2113 2584 
Q 1688 2584 1439 2293 
Q 1191 2003 1191 1497 
Q 1191 994 1439 701 
Q 1688 409 2113 409 
Q 2538 409 2786 701 
Q 3034 994 3034 1497 
Q 3034 2003 2786 2293 
Q 2538 2584 2113 2584 
z
M 3366 4563 
L 3366 3988 
Q 3128 4100 2886 4159 
Q 2644 4219 2406 4219 
Q 1781 4219 1451 3797 
Q 1122 3375 1075 2522 
Q 1259 2794 1537 2939 
Q 1816 3084 2150 3084 
Q 2853 3084 3261 2657 
Q 3669 2231 3669 1497 
Q 3669 778 3244 343 
Q 2819 -91 2113 -91 
Q 1303 -91 875 529 
Q 447 1150 447 2328 
Q 447 3434 972 4092 
Q 1497 4750 2381 4750 
Q 2619 4750 2861 4703 
Q 3103 4656 3366 4563 
z
" transform="scale(0.015625)"/>
       <path id="DejaVuSans-68" d="M 3513 2113 
L 3513 0 
L 2938 0 
L 2938 2094 
Q 2938 2591 2744 2837 
Q 2550 3084 2163 3084 
Q 1697 3084 1428 2787 
Q 1159 2491 1159 1978 
L 1159 0 
L 581 0 
L 581 4863 
L 1159 4863 
L 1159 2956 
Q 1366 3272 1645 3428 
Q 1925 3584 2291 3584 
Q 2894 3584 3203 3211 
Q 3513 2838 3513 2113 
z
" transform="scale(0.015625)"/>
      </defs>
      <use xlink:href="#DejaVuSans-47"/>
      <use xlink:href="#DejaVuSans-6c" transform="translate(77.490234 0)"/>
      <use xlink:href="#DejaVuSans-6f" transform="translate(105.273438 0)"/>
      <use xlink:href="#DejaVuSans-62" transform="translate(166.455078 0)"/>
      <use xlink:href="#DejaVuSans-61" transform="translate(229.931641 0)"/>
      <use xlink:href="#DejaVuSans-6c" transform="translate(291.210938 0)"/>
      <use xlink:href="#DejaVuSans-20" transform="translate(318.994141 0)"/>
      <use xlink:href="#DejaVuSans-52" transform="translate(350.78125 0)"/>
      <use xlink:href="#DejaVuSans-4d" transform="translate(420.263672 0)"/>
      <use xlink:href="#DejaVuSans-53" transform="translate(506.542969 0)"/>
      <use xlink:href="#DejaVuSans-45" transform="translate(570.019531 0)"/>
      <use xlink:href="#DejaVuSans-20" transform="translate(633.203125 0)"/>
      <use xlink:href="#DejaVuSans-28" transform="translate(664.990234 0)"/>
      <use xlink:href="#DejaVuSans-36" transform="translate(704.003906 0)"/>
      <use xlink:href="#DejaVuSans-68" transform="translate(767.626953 0)"/>
      <use xlink:href="#DejaVuSans-20" transform="translate(831.005859 0)"/>
      <use xlink:href="#DejaVuSans-46" transform="translate(862.792969 0)"/>
      <use xlink:href="#DejaVuSans-6f" transform="translate(916.6875 0)"/>
      <use xlink:href="#DejaVuSans-72" transform="translate(977.869141 0)"/>
      <use xlink:href="#DejaVuSans-65" transform="translate(1016.732422 0)"/>
      <use xlink:href="#DejaVuSans-63" transform="translate(1078.255859 0)"/>
      <use xlink:href="#DejaVuSans-61" transform="translate(1133.236328 0)"/>
      <use xlink:href="#DejaVuSans-73" transform="translate(1194.515625 0)"/>
      <use xlink:href="#DejaVuSans-74" transform="translate(1246.615234 0)"/>
      <use xlink:href="#DejaVuSans-29" transform="translate(1285.824219 0)"/>
     </g>
    </g>
    <g id="line2d_21">
     <path d="M 782.080118 102.249375 
L 796.080118 102.249375 
L 810.080118 102.249375 
" style="fill: none; stroke: #ffa500; stroke-linecap: square"/>
    </g>
    <g id="text_21">
     <!-- South Africa RMSE (6h Forecast) -->
     <g transform="translate(821.280118 107.149375) scale(0.14 -0.14)">
      <defs>
       <path id="DejaVuSans-41" d="M 2188 4044 
L 1331 1722 
L 3047 1722 
L 2188 4044 
z
M 1831 4666 
L 2547 4666 
L 4325 0 
L 3669 0 
L 3244 1197 
L 1141 1197 
L 716 0 
L 50 0 
L 1831 4666 
z
" transform="scale(0.015625)"/>
      </defs>
      <use xlink:href="#DejaVuSans-53"/>
      <use xlink:href="#DejaVuSans-6f" transform="translate(63.476562 0)"/>
      <use xlink:href="#DejaVuSans-75" transform="translate(124.658203 0)"/>
      <use xlink:href="#DejaVuSans-74" transform="translate(188.037109 0)"/>
      <use xlink:href="#DejaVuSans-68" transform="translate(227.246094 0)"/>
      <use xlink:href="#DejaVuSans-20" transform="translate(290.625 0)"/>
      <use xlink:href="#DejaVuSans-41" transform="translate(322.412109 0)"/>
      <use xlink:href="#DejaVuSans-66" transform="translate(387.195312 0)"/>
      <use xlink:href="#DejaVuSans-72" transform="translate(422.400391 0)"/>
      <use xlink:href="#DejaVuSans-69" transform="translate(463.513672 0)"/>
      <use xlink:href="#DejaVuSans-63" transform="translate(491.296875 0)"/>
      <use xlink:href="#DejaVuSans-61" transform="translate(546.277344 0)"/>
      <use xlink:href="#DejaVuSans-20" transform="translate(607.556641 0)"/>
      <use xlink:href="#DejaVuSans-52" transform="translate(639.34375 0)"/>
      <use xlink:href="#DejaVuSans-4d" transform="translate(708.826172 0)"/>
      <use xlink:href="#DejaVuSans-53" transform="translate(795.105469 0)"/>
      <use xlink:href="#DejaVuSans-45" transform="translate(858.582031 0)"/>
      <use xlink:href="#DejaVuSans-20" transform="translate(921.765625 0)"/>
      <use xlink:href="#DejaVuSans-28" transform="translate(953.552734 0)"/>
      <use xlink:href="#DejaVuSans-36" transform="translate(992.566406 0)"/>
      <use xlink:href="#DejaVuSans-68" transform="translate(1056.189453 0)"/>
      <use xlink:href="#DejaVuSans-20" transform="translate(1119.568359 0)"/>
      <use xlink:href="#DejaVuSans-46" transform="translate(1151.355469 0)"/>
      <use xlink:href="#DejaVuSans-6f" transform="translate(1205.25 0)"/>
      <use xlink:href="#DejaVuSans-72" transform="translate(1266.431641 0)"/>
      <use xlink:href="#DejaVuSans-65" transform="translate(1305.294922 0)"/>
      <use xlink:href="#DejaVuSans-63" transform="translate(1366.818359 0)"/>
      <use xlink:href="#DejaVuSans-61" transform="translate(1421.798828 0)"/>
      <use xlink:href="#DejaVuSans-73" transform="translate(1483.078125 0)"/>
      <use xlink:href="#DejaVuSans-74" transform="translate(1535.177734 0)"/>
      <use xlink:href="#DejaVuSans-29" transform="translate(1574.386719 0)"/>
     </g>
    </g>
    <g id="line2d_22">
     <path d="M 782.080118 122.79875 
L 796.080118 122.79875 
L 810.080118 122.79875 
" style="fill: none; stroke-dasharray: 3.7,1.6; stroke-dashoffset: 0; stroke: #0000ff"/>
    </g>
    <g id="text_22">
     <!-- Global RMSE (12h Forecast) -->
     <g transform="translate(821.280118 127.69875) scale(0.14 -0.14)">
      <use xlink:href="#DejaVuSans-47"/>
      <use xlink:href="#DejaVuSans-6c" transform="translate(77.490234 0)"/>
      <use xlink:href="#DejaVuSans-6f" transform="translate(105.273438 0)"/>
      <use xlink:href="#DejaVuSans-62" transform="translate(166.455078 0)"/>
      <use xlink:href="#DejaVuSans-61" transform="translate(229.931641 0)"/>
      <use xlink:href="#DejaVuSans-6c" transform="translate(291.210938 0)"/>
      <use xlink:href="#DejaVuSans-20" transform="translate(318.994141 0)"/>
      <use xlink:href="#DejaVuSans-52" transform="translate(350.78125 0)"/>
      <use xlink:href="#DejaVuSans-4d" transform="translate(420.263672 0)"/>
      <use xlink:href="#DejaVuSans-53" transform="translate(506.542969 0)"/>
      <use xlink:href="#DejaVuSans-45" transform="translate(570.019531 0)"/>
      <use xlink:href="#DejaVuSans-20" transform="translate(633.203125 0)"/>
      <use xlink:href="#DejaVuSans-28" transform="translate(664.990234 0)"/>
      <use xlink:href="#DejaVuSans-31" transform="translate(704.003906 0)"/>
      <use xlink:href="#DejaVuSans-32" transform="translate(767.626953 0)"/>
      <use xlink:href="#DejaVuSans-68" transform="translate(831.25 0)"/>
      <use xlink:href="#DejaVuSans-20" transform="translate(894.628906 0)"/>
      <use xlink:href="#DejaVuSans-46" transform="translate(926.416016 0)"/>
      <use xlink:href="#DejaVuSans-6f" transform="translate(980.310547 0)"/>
      <use xlink:href="#DejaVuSans-72" transform="translate(1041.492188 0)"/>
      <use xlink:href="#DejaVuSans-65" transform="translate(1080.355469 0)"/>
      <use xlink:href="#DejaVuSans-63" transform="translate(1141.878906 0)"/>
      <use xlink:href="#DejaVuSans-61" transform="translate(1196.859375 0)"/>
      <use xlink:href="#DejaVuSans-73" transform="translate(1258.138672 0)"/>
      <use xlink:href="#DejaVuSans-74" transform="translate(1310.238281 0)"/>
      <use xlink:href="#DejaVuSans-29" transform="translate(1349.447266 0)"/>
     </g>
    </g>
    <g id="line2d_23">
     <path d="M 782.080118 143.348125 
L 796.080118 143.348125 
L 810.080118 143.348125 
" style="fill: none; stroke-dasharray: 3.7,1.6; stroke-dashoffset: 0; stroke: #ffa500"/>
    </g>
    <g id="text_23">
     <!-- South Africa RMSE (12h Forecast) -->
     <g transform="translate(821.280118 148.248125) scale(0.14 -0.14)">
      <use xlink:href="#DejaVuSans-53"/>
      <use xlink:href="#DejaVuSans-6f" transform="translate(63.476562 0)"/>
      <use xlink:href="#DejaVuSans-75" transform="translate(124.658203 0)"/>
      <use xlink:href="#DejaVuSans-74" transform="translate(188.037109 0)"/>
      <use xlink:href="#DejaVuSans-68" transform="translate(227.246094 0)"/>
      <use xlink:href="#DejaVuSans-20" transform="translate(290.625 0)"/>
      <use xlink:href="#DejaVuSans-41" transform="translate(322.412109 0)"/>
      <use xlink:href="#DejaVuSans-66" transform="translate(387.195312 0)"/>
      <use xlink:href="#DejaVuSans-72" transform="translate(422.400391 0)"/>
      <use xlink:href="#DejaVuSans-69" transform="translate(463.513672 0)"/>
      <use xlink:href="#DejaVuSans-63" transform="translate(491.296875 0)"/>
      <use xlink:href="#DejaVuSans-61" transform="translate(546.277344 0)"/>
      <use xlink:href="#DejaVuSans-20" transform="translate(607.556641 0)"/>
      <use xlink:href="#DejaVuSans-52" transform="translate(639.34375 0)"/>
      <use xlink:href="#DejaVuSans-4d" transform="translate(708.826172 0)"/>
      <use xlink:href="#DejaVuSans-53" transform="translate(795.105469 0)"/>
      <use xlink:href="#DejaVuSans-45" transform="translate(858.582031 0)"/>
      <use xlink:href="#DejaVuSans-20" transform="translate(921.765625 0)"/>
      <use xlink:href="#DejaVuSans-28" transform="translate(953.552734 0)"/>
      <use xlink:href="#DejaVuSans-31" transform="translate(992.566406 0)"/>
      <use xlink:href="#DejaVuSans-32" transform="translate(1056.189453 0)"/>
      <use xlink:href="#DejaVuSans-68" transform="translate(1119.8125 0)"/>
      <use xlink:href="#DejaVuSans-20" transform="translate(1183.191406 0)"/>
      <use xlink:href="#DejaVuSans-46" transform="translate(1214.978516 0)"/>
      <use xlink:href="#DejaVuSans-6f" transform="translate(1268.873047 0)"/>
      <use xlink:href="#DejaVuSans-72" transform="translate(1330.054688 0)"/>
      <use xlink:href="#DejaVuSans-65" transform="translate(1368.917969 0)"/>
      <use xlink:href="#DejaVuSans-63" transform="translate(1430.441406 0)"/>
      <use xlink:href="#DejaVuSans-61" transform="translate(1485.421875 0)"/>
      <use xlink:href="#DejaVuSans-73" transform="translate(1546.701172 0)"/>
      <use xlink:href="#DejaVuSans-74" transform="translate(1598.800781 0)"/>
      <use xlink:href="#DejaVuSans-29" transform="translate(1638.009766 0)"/>
     </g>
    </g>
   </g>
  </g>
 </g>
 <defs>
  <clipPath id="p24adbf790f">
   <rect x="66.400118" y="40.877187" width="669.6" height="443.52"/>
  </clipPath>
 </defs>
</svg>
