<?xml version="1.0" encoding="utf-8" standalone="no"?>
<!DOCTYPE svg PUBLIC "-//W3C//DTD SVG 1.1//EN"
  "http://www.w3.org/Graphics/SVG/1.1/DTD/svg11.dtd">
<svg xmlns:xlink="http://www.w3.org/1999/xlink" width="1068.862305pt" height="575.421502pt" viewBox="0 0 1068.862305 575.421502" xmlns="http://www.w3.org/2000/svg" version="1.1">
 <metadata>
  <rdf:RDF xmlns:dc="http://purl.org/dc/elements/1.1/" xmlns:cc="http://creativecommons.org/ns#" xmlns:rdf="http://www.w3.org/1999/02/22-rdf-syntax-ns#">
   <cc:Work>
    <dc:type rdf:resource="http://purl.org/dc/dcmitype/StillImage"/>
    <dc:date>2025-02-28T00:57:42.567544</dc:date>
    <dc:format>image/svg+xml</dc:format>
    <dc:creator>
     <cc:Agent>
      <dc:title>Matplotlib v3.10.0, https://matplotlib.org/</dc:title>
     </cc:Agent>
    </dc:creator>
   </cc:Work>
  </rdf:RDF>
 </metadata>
 <defs>
  <style type="text/css">*{stroke-linejoin: round; stroke-linecap: butt}</style>
 </defs>
 <g id="figure_1">
  <g id="patch_1">
   <path d="M 0 575.421502 
L 1068.862305 575.421502 
L 1068.862305 0 
L 0 0 
z
" style="fill: #ffffff"/>
  </g>
  <g id="axes_1">
   <g id="patch_2">
    <path d="M 66.400118 484.397187 
L 736.000118 484.397187 
L 736.000118 40.877187 
L 66.400118 40.877187 
z
" style="fill: #ffffff"/>
   </g>
   <g id="matplotlib.axis_1">
    <g id="xtick_1">
     <g id="line2d_1">
      <defs>
       <path id="mc8a5251f97" d="M 0 0 
L 0 3.5 
" style="stroke: #000000; stroke-width: 0.8"/>
      </defs>
      <g>
       <use xlink:href="#mc8a5251f97" x="96.836481" y="484.397187" style="stroke: #000000; stroke-width: 0.8"/>
      </g>
     </g>
     <g id="text_1">
      <!-- 2022-11-01 (18:00) -->
      <g transform="translate(10.999219 546.93544) rotate(-30) scale(0.1 -0.1)">
       <defs>
        <path id="DejaVuSans-32" d="M 1228 531 
L 3431 531 
L 3431 0 
L 469 0 
L 469 531 
Q 828 903 1448 1529 
Q 2069 2156 2228 2338 
Q 2531 2678 2651 2914 
Q 2772 3150 2772 3378 
Q 2772 3750 2511 3984 
Q 2250 4219 1831 4219 
Q 1534 4219 1204 4116 
Q 875 4013 500 3803 
L 500 4441 
Q 881 4594 1212 4672 
Q 1544 4750 1819 4750 
Q 2544 4750 2975 4387 
Q 3406 4025 3406 3419 
Q 3406 3131 3298 2873 
Q 3191 2616 2906 2266 
Q 2828 2175 2409 1742 
Q 1991 1309 1228 531 
z
" transform="scale(0.015625)"/>
        <path id="DejaVuSans-30" d="M 2034 4250 
Q 1547 4250 1301 3770 
Q 1056 3291 1056 2328 
Q 1056 1369 1301 889 
Q 1547 409 2034 409 
Q 2525 409 2770 889 
Q 3016 1369 3016 2328 
Q 3016 3291 2770 3770 
Q 2525 4250 2034 4250 
z
M 2034 4750 
Q 2819 4750 3233 4129 
Q 3647 3509 3647 2328 
Q 3647 1150 3233 529 
Q 2819 -91 2034 -91 
Q 1250 -91 836 529 
Q 422 1150 422 2328 
Q 422 3509 836 4129 
Q 1250 4750 2034 4750 
z
" transform="scale(0.015625)"/>
        <path id="DejaVuSans-2d" d="M 313 2009 
L 1997 2009 
L 1997 1497 
L 313 1497 
L 313 2009 
z
" transform="scale(0.015625)"/>
        <path id="DejaVuSans-31" d="M 794 531 
L 1825 531 
L 1825 4091 
L 703 3866 
L 703 4441 
L 1819 4666 
L 2450 4666 
L 2450 531 
L 3481 531 
L 3481 0 
L 794 0 
L 794 531 
z
" transform="scale(0.015625)"/>
        <path id="DejaVuSans-20" transform="scale(0.015625)"/>
        <path id="DejaVuSans-28" d="M 1984 4856 
Q 1566 4138 1362 3434 
Q 1159 2731 1159 2009 
Q 1159 1288 1364 580 
Q 1569 -128 1984 -844 
L 1484 -844 
Q 1016 -109 783 600 
Q 550 1309 550 2009 
Q 550 2706 781 3412 
Q 1013 4119 1484 4856 
L 1984 4856 
z
" transform="scale(0.015625)"/>
        <path id="DejaVuSans-38" d="M 2034 2216 
Q 1584 2216 1326 1975 
Q 1069 1734 1069 1313 
Q 1069 891 1326 650 
Q 1584 409 2034 409 
Q 2484 409 2743 651 
Q 3003 894 3003 1313 
Q 3003 1734 2745 1975 
Q 2488 2216 2034 2216 
z
M 1403 2484 
Q 997 2584 770 2862 
Q 544 3141 544 3541 
Q 544 4100 942 4425 
Q 1341 4750 2034 4750 
Q 2731 4750 3128 4425 
Q 3525 4100 3525 3541 
Q 3525 3141 3298 2862 
Q 3072 2584 2669 2484 
Q 3125 2378 3379 2068 
Q 3634 1759 3634 1313 
Q 3634 634 3220 271 
Q 2806 -91 2034 -91 
Q 1263 -91 848 271 
Q 434 634 434 1313 
Q 434 1759 690 2068 
Q 947 2378 1403 2484 
z
M 1172 3481 
Q 1172 3119 1398 2916 
Q 1625 2713 2034 2713 
Q 2441 2713 2670 2916 
Q 2900 3119 2900 3481 
Q 2900 3844 2670 4047 
Q 2441 4250 2034 4250 
Q 1625 4250 1398 4047 
Q 1172 3844 1172 3481 
z
" transform="scale(0.015625)"/>
        <path id="DejaVuSans-3a" d="M 750 794 
L 1409 794 
L 1409 0 
L 750 0 
L 750 794 
z
M 750 3309 
L 1409 3309 
L 1409 2516 
L 750 2516 
L 750 3309 
z
" transform="scale(0.015625)"/>
        <path id="DejaVuSans-29" d="M 513 4856 
L 1013 4856 
Q 1481 4119 1714 3412 
Q 1947 2706 1947 2009 
Q 1947 1309 1714 600 
Q 1481 -109 1013 -844 
L 513 -844 
Q 928 -128 1133 580 
Q 1338 1288 1338 2009 
Q 1338 2731 1133 3434 
Q 928 4138 513 4856 
z
" transform="scale(0.015625)"/>
       </defs>
       <use xlink:href="#DejaVuSans-32"/>
       <use xlink:href="#DejaVuSans-30" transform="translate(63.623047 0)"/>
       <use xlink:href="#DejaVuSans-32" transform="translate(127.246094 0)"/>
       <use xlink:href="#DejaVuSans-32" transform="translate(190.869141 0)"/>
       <use xlink:href="#DejaVuSans-2d" transform="translate(254.492188 0)"/>
       <use xlink:href="#DejaVuSans-31" transform="translate(290.576172 0)"/>
       <use xlink:href="#DejaVuSans-31" transform="translate(354.199219 0)"/>
       <use xlink:href="#DejaVuSans-2d" transform="translate(417.822266 0)"/>
       <use xlink:href="#DejaVuSans-30" transform="translate(453.90625 0)"/>
       <use xlink:href="#DejaVuSans-31" transform="translate(517.529297 0)"/>
       <use xlink:href="#DejaVuSans-20" transform="translate(581.152344 0)"/>
       <use xlink:href="#DejaVuSans-28" transform="translate(612.939453 0)"/>
       <use xlink:href="#DejaVuSans-31" transform="translate(651.953125 0)"/>
       <use xlink:href="#DejaVuSans-38" transform="translate(715.576172 0)"/>
       <use xlink:href="#DejaVuSans-3a" transform="translate(779.199219 0)"/>
       <use xlink:href="#DejaVuSans-30" transform="translate(812.890625 0)"/>
       <use xlink:href="#DejaVuSans-30" transform="translate(876.513672 0)"/>
       <use xlink:href="#DejaVuSans-29" transform="translate(940.136719 0)"/>
      </g>
     </g>
    </g>
    <g id="xtick_2">
     <g id="line2d_2">
      <g>
       <use xlink:href="#mc8a5251f97" x="218.581936" y="484.397187" style="stroke: #000000; stroke-width: 0.8"/>
      </g>
     </g>
     <g id="text_2">
      <!-- 2022-11-13 (18:00) -->
      <g transform="translate(132.744673 546.93544) rotate(-30) scale(0.1 -0.1)">
       <defs>
        <path id="DejaVuSans-33" d="M 2597 2516 
Q 3050 2419 3304 2112 
Q 3559 1806 3559 1356 
Q 3559 666 3084 287 
Q 2609 -91 1734 -91 
Q 1441 -91 1130 -33 
Q 819 25 488 141 
L 488 750 
Q 750 597 1062 519 
Q 1375 441 1716 441 
Q 2309 441 2620 675 
Q 2931 909 2931 1356 
Q 2931 1769 2642 2001 
Q 2353 2234 1838 2234 
L 1294 2234 
L 1294 2753 
L 1863 2753 
Q 2328 2753 2575 2939 
Q 2822 3125 2822 3475 
Q 2822 3834 2567 4026 
Q 2313 4219 1838 4219 
Q 1578 4219 1281 4162 
Q 984 4106 628 3988 
L 628 4550 
Q 988 4650 1302 4700 
Q 1616 4750 1894 4750 
Q 2613 4750 3031 4423 
Q 3450 4097 3450 3541 
Q 3450 3153 3228 2886 
Q 3006 2619 2597 2516 
z
" transform="scale(0.015625)"/>
       </defs>
       <use xlink:href="#DejaVuSans-32"/>
       <use xlink:href="#DejaVuSans-30" transform="translate(63.623047 0)"/>
       <use xlink:href="#DejaVuSans-32" transform="translate(127.246094 0)"/>
       <use xlink:href="#DejaVuSans-32" transform="translate(190.869141 0)"/>
       <use xlink:href="#DejaVuSans-2d" transform="translate(254.492188 0)"/>
       <use xlink:href="#DejaVuSans-31" transform="translate(290.576172 0)"/>
       <use xlink:href="#DejaVuSans-31" transform="translate(354.199219 0)"/>
       <use xlink:href="#DejaVuSans-2d" transform="translate(417.822266 0)"/>
       <use xlink:href="#DejaVuSans-31" transform="translate(453.90625 0)"/>
       <use xlink:href="#DejaVuSans-33" transform="translate(517.529297 0)"/>
       <use xlink:href="#DejaVuSans-20" transform="translate(581.152344 0)"/>
       <use xlink:href="#DejaVuSans-28" transform="translate(612.939453 0)"/>
       <use xlink:href="#DejaVuSans-31" transform="translate(651.953125 0)"/>
       <use xlink:href="#DejaVuSans-38" transform="translate(715.576172 0)"/>
       <use xlink:href="#DejaVuSans-3a" transform="translate(779.199219 0)"/>
       <use xlink:href="#DejaVuSans-30" transform="translate(812.890625 0)"/>
       <use xlink:href="#DejaVuSans-30" transform="translate(876.513672 0)"/>
       <use xlink:href="#DejaVuSans-29" transform="translate(940.136719 0)"/>
      </g>
     </g>
    </g>
    <g id="xtick_3">
     <g id="line2d_3">
      <g>
       <use xlink:href="#mc8a5251f97" x="340.32739" y="484.397187" style="stroke: #000000; stroke-width: 0.8"/>
      </g>
     </g>
     <g id="text_3">
      <!-- 2022-11-25 (18:00) -->
      <g transform="translate(254.490128 546.93544) rotate(-30) scale(0.1 -0.1)">
       <defs>
        <path id="DejaVuSans-35" d="M 691 4666 
L 3169 4666 
L 3169 4134 
L 1269 4134 
L 1269 2991 
Q 1406 3038 1543 3061 
Q 1681 3084 1819 3084 
Q 2600 3084 3056 2656 
Q 3513 2228 3513 1497 
Q 3513 744 3044 326 
Q 2575 -91 1722 -91 
Q 1428 -91 1123 -41 
Q 819 9 494 109 
L 494 744 
Q 775 591 1075 516 
Q 1375 441 1709 441 
Q 2250 441 2565 725 
Q 2881 1009 2881 1497 
Q 2881 1984 2565 2268 
Q 2250 2553 1709 2553 
Q 1456 2553 1204 2497 
Q 953 2441 691 2322 
L 691 4666 
z
" transform="scale(0.015625)"/>
       </defs>
       <use xlink:href="#DejaVuSans-32"/>
       <use xlink:href="#DejaVuSans-30" transform="translate(63.623047 0)"/>
       <use xlink:href="#DejaVuSans-32" transform="translate(127.246094 0)"/>
       <use xlink:href="#DejaVuSans-32" transform="translate(190.869141 0)"/>
       <use xlink:href="#DejaVuSans-2d" transform="translate(254.492188 0)"/>
       <use xlink:href="#DejaVuSans-31" transform="translate(290.576172 0)"/>
       <use xlink:href="#DejaVuSans-31" transform="translate(354.199219 0)"/>
       <use xlink:href="#DejaVuSans-2d" transform="translate(417.822266 0)"/>
       <use xlink:href="#DejaVuSans-32" transform="translate(453.90625 0)"/>
       <use xlink:href="#DejaVuSans-35" transform="translate(517.529297 0)"/>
       <use xlink:href="#DejaVuSans-20" transform="translate(581.152344 0)"/>
       <use xlink:href="#DejaVuSans-28" transform="translate(612.939453 0)"/>
       <use xlink:href="#DejaVuSans-31" transform="translate(651.953125 0)"/>
       <use xlink:href="#DejaVuSans-38" transform="translate(715.576172 0)"/>
       <use xlink:href="#DejaVuSans-3a" transform="translate(779.199219 0)"/>
       <use xlink:href="#DejaVuSans-30" transform="translate(812.890625 0)"/>
       <use xlink:href="#DejaVuSans-30" transform="translate(876.513672 0)"/>
       <use xlink:href="#DejaVuSans-29" transform="translate(940.136719 0)"/>
      </g>
     </g>
    </g>
    <g id="xtick_4">
     <g id="line2d_4">
      <g>
       <use xlink:href="#mc8a5251f97" x="462.072845" y="484.397187" style="stroke: #000000; stroke-width: 0.8"/>
      </g>
     </g>
     <g id="text_4">
      <!-- 2022-12-07 (18:00) -->
      <g transform="translate(376.235582 546.93544) rotate(-30) scale(0.1 -0.1)">
       <defs>
        <path id="DejaVuSans-37" d="M 525 4666 
L 3525 4666 
L 3525 4397 
L 1831 0 
L 1172 0 
L 2766 4134 
L 525 4134 
L 525 4666 
z
" transform="scale(0.015625)"/>
       </defs>
       <use xlink:href="#DejaVuSans-32"/>
       <use xlink:href="#DejaVuSans-30" transform="translate(63.623047 0)"/>
       <use xlink:href="#DejaVuSans-32" transform="translate(127.246094 0)"/>
       <use xlink:href="#DejaVuSans-32" transform="translate(190.869141 0)"/>
       <use xlink:href="#DejaVuSans-2d" transform="translate(254.492188 0)"/>
       <use xlink:href="#DejaVuSans-31" transform="translate(290.576172 0)"/>
       <use xlink:href="#DejaVuSans-32" transform="translate(354.199219 0)"/>
       <use xlink:href="#DejaVuSans-2d" transform="translate(417.822266 0)"/>
       <use xlink:href="#DejaVuSans-30" transform="translate(453.90625 0)"/>
       <use xlink:href="#DejaVuSans-37" transform="translate(517.529297 0)"/>
       <use xlink:href="#DejaVuSans-20" transform="translate(581.152344 0)"/>
       <use xlink:href="#DejaVuSans-28" transform="translate(612.939453 0)"/>
       <use xlink:href="#DejaVuSans-31" transform="translate(651.953125 0)"/>
       <use xlink:href="#DejaVuSans-38" transform="translate(715.576172 0)"/>
       <use xlink:href="#DejaVuSans-3a" transform="translate(779.199219 0)"/>
       <use xlink:href="#DejaVuSans-30" transform="translate(812.890625 0)"/>
       <use xlink:href="#DejaVuSans-30" transform="translate(876.513672 0)"/>
       <use xlink:href="#DejaVuSans-29" transform="translate(940.136719 0)"/>
      </g>
     </g>
    </g>
    <g id="xtick_5">
     <g id="line2d_5">
      <g>
       <use xlink:href="#mc8a5251f97" x="583.818299" y="484.397187" style="stroke: #000000; stroke-width: 0.8"/>
      </g>
     </g>
     <g id="text_5">
      <!-- 2022-12-19 (18:00) -->
      <g transform="translate(497.981037 546.93544) rotate(-30) scale(0.1 -0.1)">
       <defs>
        <path id="DejaVuSans-39" d="M 703 97 
L 703 672 
Q 941 559 1184 500 
Q 1428 441 1663 441 
Q 2288 441 2617 861 
Q 2947 1281 2994 2138 
Q 2813 1869 2534 1725 
Q 2256 1581 1919 1581 
Q 1219 1581 811 2004 
Q 403 2428 403 3163 
Q 403 3881 828 4315 
Q 1253 4750 1959 4750 
Q 2769 4750 3195 4129 
Q 3622 3509 3622 2328 
Q 3622 1225 3098 567 
Q 2575 -91 1691 -91 
Q 1453 -91 1209 -44 
Q 966 3 703 97 
z
M 1959 2075 
Q 2384 2075 2632 2365 
Q 2881 2656 2881 3163 
Q 2881 3666 2632 3958 
Q 2384 4250 1959 4250 
Q 1534 4250 1286 3958 
Q 1038 3666 1038 3163 
Q 1038 2656 1286 2365 
Q 1534 2075 1959 2075 
z
" transform="scale(0.015625)"/>
       </defs>
       <use xlink:href="#DejaVuSans-32"/>
       <use xlink:href="#DejaVuSans-30" transform="translate(63.623047 0)"/>
       <use xlink:href="#DejaVuSans-32" transform="translate(127.246094 0)"/>
       <use xlink:href="#DejaVuSans-32" transform="translate(190.869141 0)"/>
       <use xlink:href="#DejaVuSans-2d" transform="translate(254.492188 0)"/>
       <use xlink:href="#DejaVuSans-31" transform="translate(290.576172 0)"/>
       <use xlink:href="#DejaVuSans-32" transform="translate(354.199219 0)"/>
       <use xlink:href="#DejaVuSans-2d" transform="translate(417.822266 0)"/>
       <use xlink:href="#DejaVuSans-31" transform="translate(453.90625 0)"/>
       <use xlink:href="#DejaVuSans-39" transform="translate(517.529297 0)"/>
       <use xlink:href="#DejaVuSans-20" transform="translate(581.152344 0)"/>
       <use xlink:href="#DejaVuSans-28" transform="translate(612.939453 0)"/>
       <use xlink:href="#DejaVuSans-31" transform="translate(651.953125 0)"/>
       <use xlink:href="#DejaVuSans-38" transform="translate(715.576172 0)"/>
       <use xlink:href="#DejaVuSans-3a" transform="translate(779.199219 0)"/>
       <use xlink:href="#DejaVuSans-30" transform="translate(812.890625 0)"/>
       <use xlink:href="#DejaVuSans-30" transform="translate(876.513672 0)"/>
       <use xlink:href="#DejaVuSans-29" transform="translate(940.136719 0)"/>
      </g>
     </g>
    </g>
    <g id="xtick_6">
     <g id="line2d_6">
      <g>
       <use xlink:href="#mc8a5251f97" x="705.563754" y="484.397187" style="stroke: #000000; stroke-width: 0.8"/>
      </g>
     </g>
     <g id="text_6">
      <!-- 2022-12-31 (18:00) -->
      <g transform="translate(619.726491 546.93544) rotate(-30) scale(0.1 -0.1)">
       <use xlink:href="#DejaVuSans-32"/>
       <use xlink:href="#DejaVuSans-30" transform="translate(63.623047 0)"/>
       <use xlink:href="#DejaVuSans-32" transform="translate(127.246094 0)"/>
       <use xlink:href="#DejaVuSans-32" transform="translate(190.869141 0)"/>
       <use xlink:href="#DejaVuSans-2d" transform="translate(254.492188 0)"/>
       <use xlink:href="#DejaVuSans-31" transform="translate(290.576172 0)"/>
       <use xlink:href="#DejaVuSans-32" transform="translate(354.199219 0)"/>
       <use xlink:href="#DejaVuSans-2d" transform="translate(417.822266 0)"/>
       <use xlink:href="#DejaVuSans-33" transform="translate(453.90625 0)"/>
       <use xlink:href="#DejaVuSans-31" transform="translate(517.529297 0)"/>
       <use xlink:href="#DejaVuSans-20" transform="translate(581.152344 0)"/>
       <use xlink:href="#DejaVuSans-28" transform="translate(612.939453 0)"/>
       <use xlink:href="#DejaVuSans-31" transform="translate(651.953125 0)"/>
       <use xlink:href="#DejaVuSans-38" transform="translate(715.576172 0)"/>
       <use xlink:href="#DejaVuSans-3a" transform="translate(779.199219 0)"/>
       <use xlink:href="#DejaVuSans-30" transform="translate(812.890625 0)"/>
       <use xlink:href="#DejaVuSans-30" transform="translate(876.513672 0)"/>
       <use xlink:href="#DejaVuSans-29" transform="translate(940.136719 0)"/>
      </g>
     </g>
    </g>
    <g id="text_7">
     <!-- Forecast Date -->
     <g transform="translate(345.693868 564.894002) scale(0.16 -0.16)">
      <defs>
       <path id="DejaVuSans-46" d="M 628 4666 
L 3309 4666 
L 3309 4134 
L 1259 4134 
L 1259 2759 
L 3109 2759 
L 3109 2228 
L 1259 2228 
L 1259 0 
L 628 0 
L 628 4666 
z
" transform="scale(0.015625)"/>
       <path id="DejaVuSans-6f" d="M 1959 3097 
Q 1497 3097 1228 2736 
Q 959 2375 959 1747 
Q 959 1119 1226 758 
Q 1494 397 1959 397 
Q 2419 397 2687 759 
Q 2956 1122 2956 1747 
Q 2956 2369 2687 2733 
Q 2419 3097 1959 3097 
z
M 1959 3584 
Q 2709 3584 3137 3096 
Q 3566 2609 3566 1747 
Q 3566 888 3137 398 
Q 2709 -91 1959 -91 
Q 1206 -91 779 398 
Q 353 888 353 1747 
Q 353 2609 779 3096 
Q 1206 3584 1959 3584 
z
" transform="scale(0.015625)"/>
       <path id="DejaVuSans-72" d="M 2631 2963 
Q 2534 3019 2420 3045 
Q 2306 3072 2169 3072 
Q 1681 3072 1420 2755 
Q 1159 2438 1159 1844 
L 1159 0 
L 581 0 
L 581 3500 
L 1159 3500 
L 1159 2956 
Q 1341 3275 1631 3429 
Q 1922 3584 2338 3584 
Q 2397 3584 2469 3576 
Q 2541 3569 2628 3553 
L 2631 2963 
z
" transform="scale(0.015625)"/>
       <path id="DejaVuSans-65" d="M 3597 1894 
L 3597 1613 
L 953 1613 
Q 991 1019 1311 708 
Q 1631 397 2203 397 
Q 2534 397 2845 478 
Q 3156 559 3463 722 
L 3463 178 
Q 3153 47 2828 -22 
Q 2503 -91 2169 -91 
Q 1331 -91 842 396 
Q 353 884 353 1716 
Q 353 2575 817 3079 
Q 1281 3584 2069 3584 
Q 2775 3584 3186 3129 
Q 3597 2675 3597 1894 
z
M 3022 2063 
Q 3016 2534 2758 2815 
Q 2500 3097 2075 3097 
Q 1594 3097 1305 2825 
Q 1016 2553 972 2059 
L 3022 2063 
z
" transform="scale(0.015625)"/>
       <path id="DejaVuSans-63" d="M 3122 3366 
L 3122 2828 
Q 2878 2963 2633 3030 
Q 2388 3097 2138 3097 
Q 1578 3097 1268 2742 
Q 959 2388 959 1747 
Q 959 1106 1268 751 
Q 1578 397 2138 397 
Q 2388 397 2633 464 
Q 2878 531 3122 666 
L 3122 134 
Q 2881 22 2623 -34 
Q 2366 -91 2075 -91 
Q 1284 -91 818 406 
Q 353 903 353 1747 
Q 353 2603 823 3093 
Q 1294 3584 2113 3584 
Q 2378 3584 2631 3529 
Q 2884 3475 3122 3366 
z
" transform="scale(0.015625)"/>
       <path id="DejaVuSans-61" d="M 2194 1759 
Q 1497 1759 1228 1600 
Q 959 1441 959 1056 
Q 959 750 1161 570 
Q 1363 391 1709 391 
Q 2188 391 2477 730 
Q 2766 1069 2766 1631 
L 2766 1759 
L 2194 1759 
z
M 3341 1997 
L 3341 0 
L 2766 0 
L 2766 531 
Q 2569 213 2275 61 
Q 1981 -91 1556 -91 
Q 1019 -91 701 211 
Q 384 513 384 1019 
Q 384 1609 779 1909 
Q 1175 2209 1959 2209 
L 2766 2209 
L 2766 2266 
Q 2766 2663 2505 2880 
Q 2244 3097 1772 3097 
Q 1472 3097 1187 3025 
Q 903 2953 641 2809 
L 641 3341 
Q 956 3463 1253 3523 
Q 1550 3584 1831 3584 
Q 2591 3584 2966 3190 
Q 3341 2797 3341 1997 
z
" transform="scale(0.015625)"/>
       <path id="DejaVuSans-73" d="M 2834 3397 
L 2834 2853 
Q 2591 2978 2328 3040 
Q 2066 3103 1784 3103 
Q 1356 3103 1142 2972 
Q 928 2841 928 2578 
Q 928 2378 1081 2264 
Q 1234 2150 1697 2047 
L 1894 2003 
Q 2506 1872 2764 1633 
Q 3022 1394 3022 966 
Q 3022 478 2636 193 
Q 2250 -91 1575 -91 
Q 1294 -91 989 -36 
Q 684 19 347 128 
L 347 722 
Q 666 556 975 473 
Q 1284 391 1588 391 
Q 1994 391 2212 530 
Q 2431 669 2431 922 
Q 2431 1156 2273 1281 
Q 2116 1406 1581 1522 
L 1381 1569 
Q 847 1681 609 1914 
Q 372 2147 372 2553 
Q 372 3047 722 3315 
Q 1072 3584 1716 3584 
Q 2034 3584 2315 3537 
Q 2597 3491 2834 3397 
z
" transform="scale(0.015625)"/>
       <path id="DejaVuSans-74" d="M 1172 4494 
L 1172 3500 
L 2356 3500 
L 2356 3053 
L 1172 3053 
L 1172 1153 
Q 1172 725 1289 603 
Q 1406 481 1766 481 
L 2356 481 
L 2356 0 
L 1766 0 
Q 1100 0 847 248 
Q 594 497 594 1153 
L 594 3053 
L 172 3053 
L 172 3500 
L 594 3500 
L 594 4494 
L 1172 4494 
z
" transform="scale(0.015625)"/>
       <path id="DejaVuSans-44" d="M 1259 4147 
L 1259 519 
L 2022 519 
Q 2988 519 3436 956 
Q 3884 1394 3884 2338 
Q 3884 3275 3436 3711 
Q 2988 4147 2022 4147 
L 1259 4147 
z
M 628 4666 
L 1925 4666 
Q 3281 4666 3915 4102 
Q 4550 3538 4550 2338 
Q 4550 1131 3912 565 
Q 3275 0 1925 0 
L 628 0 
L 628 4666 
z
" transform="scale(0.015625)"/>
      </defs>
      <use xlink:href="#DejaVuSans-46"/>
      <use xlink:href="#DejaVuSans-6f" transform="translate(53.894531 0)"/>
      <use xlink:href="#DejaVuSans-72" transform="translate(115.076172 0)"/>
      <use xlink:href="#DejaVuSans-65" transform="translate(153.939453 0)"/>
      <use xlink:href="#DejaVuSans-63" transform="translate(215.462891 0)"/>
      <use xlink:href="#DejaVuSans-61" transform="translate(270.443359 0)"/>
      <use xlink:href="#DejaVuSans-73" transform="translate(331.722656 0)"/>
      <use xlink:href="#DejaVuSans-74" transform="translate(383.822266 0)"/>
      <use xlink:href="#DejaVuSans-20" transform="translate(423.03125 0)"/>
      <use xlink:href="#DejaVuSans-44" transform="translate(454.818359 0)"/>
      <use xlink:href="#DejaVuSans-61" transform="translate(531.820312 0)"/>
      <use xlink:href="#DejaVuSans-74" transform="translate(593.099609 0)"/>
      <use xlink:href="#DejaVuSans-65" transform="translate(632.308594 0)"/>
     </g>
    </g>
   </g>
   <g id="matplotlib.axis_2">
    <g id="ytick_1">
     <g id="line2d_7">
      <defs>
       <path id="ma723fb9715" d="M 0 0 
L -3.5 0 
" style="stroke: #000000; stroke-width: 0.8"/>
      </defs>
      <g>
       <use xlink:href="#ma723fb9715" x="66.400118" y="468.20027" style="stroke: #000000; stroke-width: 0.8"/>
      </g>
     </g>
     <g id="text_8">
      <!-- 50 -->
      <g transform="translate(46.675118 471.999488) scale(0.1 -0.1)">
       <use xlink:href="#DejaVuSans-35"/>
       <use xlink:href="#DejaVuSans-30" transform="translate(63.623047 0)"/>
      </g>
     </g>
    </g>
    <g id="ytick_2">
     <g id="line2d_8">
      <g>
       <use xlink:href="#ma723fb9715" x="66.400118" y="402.582691" style="stroke: #000000; stroke-width: 0.8"/>
      </g>
     </g>
     <g id="text_9">
      <!-- 100 -->
      <g transform="translate(40.312618 406.38191) scale(0.1 -0.1)">
       <use xlink:href="#DejaVuSans-31"/>
       <use xlink:href="#DejaVuSans-30" transform="translate(63.623047 0)"/>
       <use xlink:href="#DejaVuSans-30" transform="translate(127.246094 0)"/>
      </g>
     </g>
    </g>
    <g id="ytick_3">
     <g id="line2d_9">
      <g>
       <use xlink:href="#ma723fb9715" x="66.400118" y="336.965113" style="stroke: #000000; stroke-width: 0.8"/>
      </g>
     </g>
     <g id="text_10">
      <!-- 150 -->
      <g transform="translate(40.312618 340.764331) scale(0.1 -0.1)">
       <use xlink:href="#DejaVuSans-31"/>
       <use xlink:href="#DejaVuSans-35" transform="translate(63.623047 0)"/>
       <use xlink:href="#DejaVuSans-30" transform="translate(127.246094 0)"/>
      </g>
     </g>
    </g>
    <g id="ytick_4">
     <g id="line2d_10">
      <g>
       <use xlink:href="#ma723fb9715" x="66.400118" y="271.347534" style="stroke: #000000; stroke-width: 0.8"/>
      </g>
     </g>
     <g id="text_11">
      <!-- 200 -->
      <g transform="translate(40.312618 275.146753) scale(0.1 -0.1)">
       <use xlink:href="#DejaVuSans-32"/>
       <use xlink:href="#DejaVuSans-30" transform="translate(63.623047 0)"/>
       <use xlink:href="#DejaVuSans-30" transform="translate(127.246094 0)"/>
      </g>
     </g>
    </g>
    <g id="ytick_5">
     <g id="line2d_11">
      <g>
       <use xlink:href="#ma723fb9715" x="66.400118" y="205.729956" style="stroke: #000000; stroke-width: 0.8"/>
      </g>
     </g>
     <g id="text_12">
      <!-- 250 -->
      <g transform="translate(40.312618 209.529174) scale(0.1 -0.1)">
       <use xlink:href="#DejaVuSans-32"/>
       <use xlink:href="#DejaVuSans-35" transform="translate(63.623047 0)"/>
       <use xlink:href="#DejaVuSans-30" transform="translate(127.246094 0)"/>
      </g>
     </g>
    </g>
    <g id="ytick_6">
     <g id="line2d_12">
      <g>
       <use xlink:href="#ma723fb9715" x="66.400118" y="140.112377" style="stroke: #000000; stroke-width: 0.8"/>
      </g>
     </g>
     <g id="text_13">
      <!-- 300 -->
      <g transform="translate(40.312618 143.911596) scale(0.1 -0.1)">
       <use xlink:href="#DejaVuSans-33"/>
       <use xlink:href="#DejaVuSans-30" transform="translate(63.623047 0)"/>
       <use xlink:href="#DejaVuSans-30" transform="translate(127.246094 0)"/>
      </g>
     </g>
    </g>
    <g id="ytick_7">
     <g id="line2d_13">
      <g>
       <use xlink:href="#ma723fb9715" x="66.400118" y="74.494799" style="stroke: #000000; stroke-width: 0.8"/>
      </g>
     </g>
     <g id="text_14">
      <!-- 350 -->
      <g transform="translate(40.312618 78.294017) scale(0.1 -0.1)">
       <use xlink:href="#DejaVuSans-33"/>
       <use xlink:href="#DejaVuSans-35" transform="translate(63.623047 0)"/>
       <use xlink:href="#DejaVuSans-30" transform="translate(127.246094 0)"/>
      </g>
     </g>
    </g>
    <g id="text_15">
     <!-- Root Mean Squared Error (RMSE) -->
     <g transform="translate(32.985118 394.303437) rotate(-90) scale(0.16 -0.16)">
      <defs>
       <path id="DejaVuSans-52" d="M 2841 2188 
Q 3044 2119 3236 1894 
Q 3428 1669 3622 1275 
L 4263 0 
L 3584 0 
L 2988 1197 
Q 2756 1666 2539 1819 
Q 2322 1972 1947 1972 
L 1259 1972 
L 1259 0 
L 628 0 
L 628 4666 
L 2053 4666 
Q 2853 4666 3247 4331 
Q 3641 3997 3641 3322 
Q 3641 2881 3436 2590 
Q 3231 2300 2841 2188 
z
M 1259 4147 
L 1259 2491 
L 2053 2491 
Q 2509 2491 2742 2702 
Q 2975 2913 2975 3322 
Q 2975 3731 2742 3939 
Q 2509 4147 2053 4147 
L 1259 4147 
z
" transform="scale(0.015625)"/>
       <path id="DejaVuSans-4d" d="M 628 4666 
L 1569 4666 
L 2759 1491 
L 3956 4666 
L 4897 4666 
L 4897 0 
L 4281 0 
L 4281 4097 
L 3078 897 
L 2444 897 
L 1241 4097 
L 1241 0 
L 628 0 
L 628 4666 
z
" transform="scale(0.015625)"/>
       <path id="DejaVuSans-6e" d="M 3513 2113 
L 3513 0 
L 2938 0 
L 2938 2094 
Q 2938 2591 2744 2837 
Q 2550 3084 2163 3084 
Q 1697 3084 1428 2787 
Q 1159 2491 1159 1978 
L 1159 0 
L 581 0 
L 581 3500 
L 1159 3500 
L 1159 2956 
Q 1366 3272 1645 3428 
Q 1925 3584 2291 3584 
Q 2894 3584 3203 3211 
Q 3513 2838 3513 2113 
z
" transform="scale(0.015625)"/>
       <path id="DejaVuSans-53" d="M 3425 4513 
L 3425 3897 
Q 3066 4069 2747 4153 
Q 2428 4238 2131 4238 
Q 1616 4238 1336 4038 
Q 1056 3838 1056 3469 
Q 1056 3159 1242 3001 
Q 1428 2844 1947 2747 
L 2328 2669 
Q 3034 2534 3370 2195 
Q 3706 1856 3706 1288 
Q 3706 609 3251 259 
Q 2797 -91 1919 -91 
Q 1588 -91 1214 -16 
Q 841 59 441 206 
L 441 856 
Q 825 641 1194 531 
Q 1563 422 1919 422 
Q 2459 422 2753 634 
Q 3047 847 3047 1241 
Q 3047 1584 2836 1778 
Q 2625 1972 2144 2069 
L 1759 2144 
Q 1053 2284 737 2584 
Q 422 2884 422 3419 
Q 422 4038 858 4394 
Q 1294 4750 2059 4750 
Q 2388 4750 2728 4690 
Q 3069 4631 3425 4513 
z
" transform="scale(0.015625)"/>
       <path id="DejaVuSans-71" d="M 947 1747 
Q 947 1113 1208 752 
Q 1469 391 1925 391 
Q 2381 391 2643 752 
Q 2906 1113 2906 1747 
Q 2906 2381 2643 2742 
Q 2381 3103 1925 3103 
Q 1469 3103 1208 2742 
Q 947 2381 947 1747 
z
M 2906 525 
Q 2725 213 2448 61 
Q 2172 -91 1784 -91 
Q 1150 -91 751 415 
Q 353 922 353 1747 
Q 353 2572 751 3078 
Q 1150 3584 1784 3584 
Q 2172 3584 2448 3432 
Q 2725 3281 2906 2969 
L 2906 3500 
L 3481 3500 
L 3481 -1331 
L 2906 -1331 
L 2906 525 
z
" transform="scale(0.015625)"/>
       <path id="DejaVuSans-75" d="M 544 1381 
L 544 3500 
L 1119 3500 
L 1119 1403 
Q 1119 906 1312 657 
Q 1506 409 1894 409 
Q 2359 409 2629 706 
Q 2900 1003 2900 1516 
L 2900 3500 
L 3475 3500 
L 3475 0 
L 2900 0 
L 2900 538 
Q 2691 219 2414 64 
Q 2138 -91 1772 -91 
Q 1169 -91 856 284 
Q 544 659 544 1381 
z
M 1991 3584 
L 1991 3584 
z
" transform="scale(0.015625)"/>
       <path id="DejaVuSans-64" d="M 2906 2969 
L 2906 4863 
L 3481 4863 
L 3481 0 
L 2906 0 
L 2906 525 
Q 2725 213 2448 61 
Q 2172 -91 1784 -91 
Q 1150 -91 751 415 
Q 353 922 353 1747 
Q 353 2572 751 3078 
Q 1150 3584 1784 3584 
Q 2172 3584 2448 3432 
Q 2725 3281 2906 2969 
z
M 947 1747 
Q 947 1113 1208 752 
Q 1469 391 1925 391 
Q 2381 391 2643 752 
Q 2906 1113 2906 1747 
Q 2906 2381 2643 2742 
Q 2381 3103 1925 3103 
Q 1469 3103 1208 2742 
Q 947 2381 947 1747 
z
" transform="scale(0.015625)"/>
       <path id="DejaVuSans-45" d="M 628 4666 
L 3578 4666 
L 3578 4134 
L 1259 4134 
L 1259 2753 
L 3481 2753 
L 3481 2222 
L 1259 2222 
L 1259 531 
L 3634 531 
L 3634 0 
L 628 0 
L 628 4666 
z
" transform="scale(0.015625)"/>
      </defs>
      <use xlink:href="#DejaVuSans-52"/>
      <use xlink:href="#DejaVuSans-6f" transform="translate(64.982422 0)"/>
      <use xlink:href="#DejaVuSans-6f" transform="translate(126.164062 0)"/>
      <use xlink:href="#DejaVuSans-74" transform="translate(187.345703 0)"/>
      <use xlink:href="#DejaVuSans-20" transform="translate(226.554688 0)"/>
      <use xlink:href="#DejaVuSans-4d" transform="translate(258.341797 0)"/>
      <use xlink:href="#DejaVuSans-65" transform="translate(344.621094 0)"/>
      <use xlink:href="#DejaVuSans-61" transform="translate(406.144531 0)"/>
      <use xlink:href="#DejaVuSans-6e" transform="translate(467.423828 0)"/>
      <use xlink:href="#DejaVuSans-20" transform="translate(530.802734 0)"/>
      <use xlink:href="#DejaVuSans-53" transform="translate(562.589844 0)"/>
      <use xlink:href="#DejaVuSans-71" transform="translate(626.066406 0)"/>
      <use xlink:href="#DejaVuSans-75" transform="translate(689.542969 0)"/>
      <use xlink:href="#DejaVuSans-61" transform="translate(752.921875 0)"/>
      <use xlink:href="#DejaVuSans-72" transform="translate(814.201172 0)"/>
      <use xlink:href="#DejaVuSans-65" transform="translate(853.064453 0)"/>
      <use xlink:href="#DejaVuSans-64" transform="translate(914.587891 0)"/>
      <use xlink:href="#DejaVuSans-20" transform="translate(978.064453 0)"/>
      <use xlink:href="#DejaVuSans-45" transform="translate(1009.851562 0)"/>
      <use xlink:href="#DejaVuSans-72" transform="translate(1073.035156 0)"/>
      <use xlink:href="#DejaVuSans-72" transform="translate(1112.398438 0)"/>
      <use xlink:href="#DejaVuSans-6f" transform="translate(1151.261719 0)"/>
      <use xlink:href="#DejaVuSans-72" transform="translate(1212.443359 0)"/>
      <use xlink:href="#DejaVuSans-20" transform="translate(1253.556641 0)"/>
      <use xlink:href="#DejaVuSans-28" transform="translate(1285.34375 0)"/>
      <use xlink:href="#DejaVuSans-52" transform="translate(1324.357422 0)"/>
      <use xlink:href="#DejaVuSans-4d" transform="translate(1393.839844 0)"/>
      <use xlink:href="#DejaVuSans-53" transform="translate(1480.119141 0)"/>
      <use xlink:href="#DejaVuSans-45" transform="translate(1543.595703 0)"/>
      <use xlink:href="#DejaVuSans-29" transform="translate(1606.779297 0)"/>
     </g>
    </g>
   </g>
   <g id="line2d_14">
    <path d="M 96.836481 451.451477 
L 99.372845 451.806879 
L 101.909208 449.415796 
L 104.445572 454.296419 
L 106.981936 450.988561 
L 109.518299 451.656131 
L 112.054663 448.505344 
L 114.591027 453.28389 
L 117.12739 454.418335 
L 119.663754 449.925995 
M 127.272845 451.133932 
L 129.809208 453.233963 
L 132.345572 454.013462 
L 134.881936 454.264819 
L 137.418299 452.674773 
L 139.954663 453.479113 
L 142.491027 453.200661 
L 145.02739 456.283514 
L 147.563754 458.817324 
L 150.100118 455.13806 
L 152.636481 453.796037 
L 155.172845 455.681095 
L 157.709208 453.517731 
L 160.245572 455.481722 
L 162.781936 450.078505 
L 165.318299 452.890946 
L 167.854663 454.471912 
L 170.391027 454.965686 
L 172.92739 449.461202 
L 175.463754 454.382646 
L 178.000118 451.184785 
L 180.536481 450.993077 
L 183.072845 453.489691 
L 185.609208 456.687396 
L 188.145572 451.835504 
L 190.681936 451.468603 
L 193.218299 450.41283 
L 195.754663 455.732654 
L 198.291027 448.633413 
L 200.82739 454.227208 
L 203.363754 450.039977 
L 205.900118 453.976431 
L 208.436481 450.608514 
L 210.972845 452.741816 
L 213.509208 449.512907 
L 216.045572 455.031893 
L 218.581936 448.158883 
L 221.118299 452.603699 
L 223.654663 452.043092 
L 226.191027 451.717858 
L 228.72739 447.422518 
L 231.263754 448.819044 
L 233.800118 450.603808 
L 236.336481 450.417346 
L 238.872845 447.953888 
L 241.409208 451.102233 
L 243.945572 445.108771 
L 246.481936 452.546874 
L 249.018299 447.866259 
L 251.554663 450.246749 
L 254.091027 447.519228 
M 261.700118 448.346246 
L 264.236481 448.587797 
L 266.772845 451.585899 
L 269.309208 447.607047 
M 276.918299 451.309871 
L 279.454663 450.574547 
L 281.991027 449.702342 
L 284.52739 451.594009 
L 287.063754 454.243443 
L 289.600118 451.697538 
L 292.136481 452.856824 
L 294.672845 453.197362 
L 297.209208 453.974133 
L 299.745572 450.548389 
L 302.281936 452.11351 
L 304.818299 450.555443 
L 307.354663 451.071554 
L 309.891027 449.884789 
L 312.42739 449.878681 
L 314.963754 447.481942 
L 317.500118 453.345476 
L 320.036481 448.681974 
L 322.572845 450.805624 
L 325.109208 448.630379 
L 327.645572 451.047299 
L 330.181936 452.93015 
L 332.718299 452.869855 
L 335.254663 448.267238 
L 337.791027 450.226674 
L 340.32739 450.363785 
L 342.863754 452.453883 
L 345.400118 446.017361 
L 347.936481 450.479869 
L 350.472845 448.168365 
L 353.009208 454.134633 
L 355.545572 448.861166 
L 358.081936 452.108218 
L 360.618299 445.270002 
L 363.154663 450.959085 
L 365.691027 444.026316 
L 368.22739 443.905535 
L 370.763754 445.955184 
L 373.300118 447.299745 
L 375.836481 443.683029 
L 378.372845 445.756817 
L 380.909208 444.152853 
L 383.445572 445.776642 
L 385.981936 440.03234 
L 388.518299 444.868933 
L 391.054663 446.657306 
L 393.591027 444.768769 
L 396.12739 443.20978 
L 398.663754 445.820646 
L 401.200118 448.098478 
L 403.736481 445.826033 
L 406.272845 449.275061 
L 408.809208 450.129023 
L 411.345572 447.627953 
L 413.881936 448.44615 
L 416.418299 451.147384 
L 418.954663 449.976268 
L 421.491027 447.816337 
L 424.02739 447.729349 
L 426.563754 444.239961 
L 429.100118 448.814568 
L 431.636481 446.403761 
L 434.172845 447.641049 
L 436.709208 447.214709 
L 439.245572 446.624726 
L 441.781936 447.315325 
L 444.318299 449.014287 
L 446.854663 449.026362 
M 469.681936 450.875611 
L 472.218299 451.653878 
L 474.754663 451.930803 
L 477.291027 447.11023 
L 479.82739 452.581802 
L 482.363754 450.745799 
L 484.900118 449.873345 
L 487.436481 447.270979 
L 489.972845 449.816104 
L 492.509208 451.233401 
L 495.045572 447.756573 
L 497.581936 448.08403 
L 500.118299 448.983719 
L 502.654663 443.012836 
L 505.191027 445.393736 
L 507.72739 445.097467 
L 510.263754 443.707679 
L 512.800118 446.499801 
L 515.336481 446.341964 
L 517.872845 444.241443 
L 520.409208 446.455666 
L 522.945572 450.151721 
L 525.481936 443.368968 
L 528.018299 446.445994 
L 530.554663 446.331351 
L 533.091027 446.828109 
L 535.62739 445.964435 
L 538.163754 442.332029 
L 540.700118 445.310272 
L 543.236481 444.417372 
L 545.772845 448.541048 
L 548.309208 444.639238 
L 550.845572 447.679067 
L 553.381936 445.780927 
L 555.918299 444.736368 
L 558.454663 440.98986 
L 560.991027 442.771756 
L 563.52739 446.172604 
L 566.063754 442.679371 
L 568.600118 441.378093 
L 571.136481 442.339929 
L 573.672845 445.657323 
L 576.209208 445.350462 
L 578.745572 444.918304 
L 581.281936 445.127084 
L 583.818299 447.230399 
L 586.354663 447.001284 
L 588.891027 443.58777 
L 591.42739 446.342145 
L 593.963754 444.41638 
L 596.500118 443.932989 
L 599.036481 440.173295 
L 601.572845 444.937028 
L 604.109208 444.014251 
L 606.645572 443.440377 
L 609.181936 439.009759 
L 611.718299 439.196421 
L 614.254663 440.588351 
L 616.791027 444.834741 
L 619.32739 439.672683 
L 621.863754 439.870529 
L 624.400118 438.413507 
L 626.936481 441.353763 
L 629.472845 435.243306 
L 632.009208 440.987127 
L 634.545572 441.623208 
L 637.081936 440.427131 
L 639.618299 441.136643 
L 642.154663 447.334598 
L 644.691027 442.716447 
L 647.22739 446.026933 
L 649.763754 445.409595 
L 652.300118 443.359256 
L 654.836481 445.870108 
L 657.372845 449.039428 
L 659.909208 442.765808 
L 662.445572 446.302225 
L 664.981936 447.854715 
L 667.518299 448.38112 
L 670.054663 443.538028 
L 672.591027 447.423189 
L 675.12739 447.548695 
L 677.663754 444.571483 
L 680.200118 443.932148 
L 682.736481 446.042933 
L 685.272845 443.985204 
L 687.809208 449.883848 
L 690.345572 444.807737 
L 692.881936 445.83193 
L 695.418299 451.543286 
L 697.954663 448.449204 
L 700.491027 446.145891 
L 703.02739 449.92976 
L 705.563754 455.302419 
L 705.563754 455.302419 
" clip-path="url(#p6831a15068)" style="fill: none; stroke: #0000ff; stroke-linecap: square"/>
   </g>
   <g id="line2d_15">
    <path d="M 96.836481 357.237917 
L 99.372845 276.103667 
L 101.909208 418.187812 
L 104.445572 407.534668 
L 106.981936 296.413297 
L 109.518299 395.008384 
L 112.054663 391.76318 
L 114.591027 391.620733 
L 117.12739 327.53643 
L 119.663754 321.901465 
L 122.200118 412.944894 
L 124.736481 377.256575 
L 127.272845 290.203136 
L 129.809208 342.341517 
L 132.345572 440.074332 
L 134.881936 325.017539 
L 137.418299 344.12954 
L 139.954663 322.029264 
L 142.491027 419.36086 
L 145.02739 315.686678 
L 147.563754 276.731027 
L 150.100118 352.48731 
L 152.636481 353.515389 
L 155.172845 425.653013 
L 157.709208 269.345986 
L 160.245572 369.794297 
L 162.781936 353.522297 
L 165.318299 409.782632 
L 167.854663 260.684437 
L 170.391027 417.010468 
L 172.92739 349.121966 
L 175.463754 371.360645 
L 178.000118 276.182225 
L 180.536481 311.190468 
L 183.072845 404.727818 
L 185.609208 381.586878 
L 188.145572 209.960315 
L 190.681936 380.224004 
L 193.218299 384.026651 
L 195.754663 405.233166 
L 198.291027 263.865993 
L 200.82739 400.105241 
L 203.363754 387.242389 
L 205.900118 438.544 
L 208.436481 267.227252 
L 210.972845 422.030059 
L 213.509208 409.616306 
L 216.045572 284.134431 
L 218.581936 376.56114 
L 221.118299 254.596388 
L 223.654663 414.744571 
L 226.191027 340.671981 
L 228.72739 301.98186 
L 231.263754 368.369326 
L 233.800118 372.890006 
L 236.336481 418.402629 
L 238.872845 190.206056 
L 241.409208 384.348552 
L 243.945572 428.270577 
L 246.481936 397.180074 
L 249.018299 280.682099 
L 251.554663 393.819636 
L 254.091027 459.378122 
L 256.62739 350.892107 
L 259.163754 281.27007 
L 261.700118 403.167718 
L 264.236481 454.592922 
L 266.772845 403.552637 
L 269.309208 263.128456 
L 271.845572 412.948378 
L 274.381936 396.133483 
L 276.918299 209.711786 
L 279.454663 367.711147 
L 281.991027 226.256054 
L 284.52739 421.269343 
L 287.063754 318.248003 
L 289.600118 344.106932 
L 292.136481 424.276191 
L 294.672845 405.147019 
L 297.209208 384.279936 
L 299.745572 222.648069 
L 302.281936 344.155071 
L 304.818299 442.688122 
L 307.354663 346.183093 
L 309.891027 393.249848 
L 312.42739 320.267694 
L 314.963754 365.647211 
L 317.500118 371.668407 
L 320.036481 266.854869 
L 322.572845 415.131522 
L 325.109208 445.656642 
L 327.645572 414.995123 
L 330.181936 340.12376 
L 332.718299 395.15741 
L 335.254663 464.237187 
L 337.791027 400.978827 
L 340.32739 298.741852 
L 342.863754 405.872681 
L 345.400118 449.117455 
L 347.936481 454.999803 
L 350.472845 243.908801 
L 353.009208 399.177528 
L 355.545572 426.84944 
L 358.081936 426.629747 
L 360.618299 243.645354 
L 363.154663 411.708376 
L 365.691027 429.368122 
L 368.22739 382.663717 
L 370.763754 349.399552 
L 373.300118 382.834499 
L 375.836481 433.313797 
L 378.372845 381.560255 
L 380.909208 379.383879 
L 383.445572 336.820112 
L 385.981936 419.081123 
L 388.518299 384.550403 
L 391.054663 329.867288 
L 393.591027 328.815 
L 396.12739 403.139323 
L 398.663754 403.12061 
L 401.200118 158.168545 
L 403.736481 409.826337 
L 406.272845 300.394326 
L 408.809208 372.986616 
L 411.345572 159.054126 
L 413.881936 437.002063 
L 416.418299 427.086966 
L 418.954663 370.642141 
L 421.491027 343.989666 
L 424.02739 364.856969 
L 426.563754 455.286219 
L 431.636481 330.742957 
L 434.172845 373.38403 
L 436.709208 440.3619 
L 439.245572 343.314607 
L 441.781936 291.548529 
L 444.318299 401.908443 
L 446.854663 411.456613 
L 449.391027 389.962231 
L 451.92739 311.667341 
L 454.463754 381.659428 
L 457.000118 430.780077 
L 459.536481 437.30595 
L 462.072845 320.641218 
L 464.609208 303.388048 
L 467.145572 382.945858 
L 469.681936 333.245748 
L 472.218299 353.805209 
L 474.754663 314.754359 
L 477.291027 435.200293 
L 479.82739 446.165064 
L 482.363754 352.894136 
L 484.900118 407.395885 
L 487.436481 375.562038 
L 489.972845 428.492944 
L 492.509208 314.77088 
L 495.045572 346.74353 
L 497.581936 414.597398 
L 500.118299 350.329628 
L 502.654663 381.943982 
L 505.191027 301.415376 
L 507.72739 413.272491 
L 510.263754 373.967195 
L 512.800118 375.507891 
L 515.336481 331.972125 
L 517.872845 432.02139 
L 520.409208 423.53524 
L 522.945572 343.294762 
L 525.481936 426.785211 
L 528.018299 436.213342 
L 530.554663 401.744008 
L 533.091027 378.29886 
L 535.62739 389.667224 
L 538.163754 385.065032 
L 540.700118 412.337368 
L 543.236481 326.717632 
L 545.772845 390.046816 
L 548.309208 419.73033 
L 550.845572 357.967964 
L 553.381936 217.11481 
L 555.918299 425.475232 
L 558.454663 399.073859 
L 560.991027 347.833945 
L 563.52739 334.081247 
L 566.063754 346.042959 
L 568.600118 451.059339 
L 571.136481 354.115595 
L 573.672845 365.35693 
L 576.209208 436.682465 
L 578.745572 378.828058 
L 581.281936 431.548222 
L 583.818299 268.522642 
L 586.354663 391.099094 
L 588.891027 417.442896 
L 591.42739 375.99775 
L 593.963754 329.904214 
L 596.500118 297.987594 
L 599.036481 347.983591 
L 601.572845 285.009519 
L 604.109208 385.021668 
L 606.645572 361.926165 
L 609.181936 407.202895 
L 611.718299 415.575464 
L 614.254663 342.744117 
L 616.791027 420.377865 
L 619.32739 380.138528 
L 621.863754 423.370826 
L 624.400118 284.416462 
L 626.936481 399.616073 
L 629.472845 410.695087 
L 632.009208 429.034717 
L 634.545572 181.214877 
L 637.081936 410.889659 
L 639.618299 414.870868 
L 642.154663 362.496534 
L 644.691027 338.975792 
L 647.22739 395.843132 
L 649.763754 392.204138 
L 652.300118 347.534713 
L 654.836481 426.922241 
L 657.372845 334.883545 
L 659.909208 403.694323 
L 662.445572 434.652652 
L 664.981936 384.143026 
L 667.518299 390.885939 
L 670.054663 449.414644 
L 672.591027 428.198127 
L 675.12739 244.233905 
L 677.663754 395.558759 
L 680.200118 377.036 
L 682.736481 368.423563 
L 685.272845 303.113247 
L 687.809208 349.628777 
L 690.345572 350.144137 
L 692.881936 317.3285 
L 695.418299 383.400223 
L 697.954663 324.443786 
L 700.491027 434.660582 
L 703.02739 443.029416 
L 705.563754 369.588331 
L 705.563754 369.588331 
" clip-path="url(#p6831a15068)" style="fill: none; stroke: #ffa500; stroke-linecap: square"/>
   </g>
   <g id="line2d_16">
    <path d="M 96.836481 443.445513 
L 99.372845 439.103846 
L 101.909208 444.067126 
L 104.445572 444.599598 
L 106.981936 440.001532 
L 109.518299 436.650295 
L 112.054663 440.457358 
L 114.591027 442.991108 
L 117.12739 440.929586 
L 119.663754 439.254042 
M 127.272845 441.389607 
L 129.809208 446.391166 
L 132.345572 448.03541 
L 134.881936 444.598647 
L 137.418299 442.644888 
L 139.954663 444.57709 
L 142.491027 445.781057 
L 145.02739 449.172954 
L 147.563754 447.653996 
L 150.100118 444.530022 
L 152.636481 448.669178 
L 155.172845 447.001855 
L 157.709208 447.184111 
L 160.245572 444.081855 
L 162.781936 445.214803 
L 165.318299 445.122328 
L 167.854663 446.099693 
L 170.391027 442.769733 
L 172.92739 443.597913 
L 175.463754 441.944377 
L 178.000118 443.483911 
L 180.536481 445.861667 
L 183.072845 448.600192 
L 185.609208 445.804096 
L 188.145572 439.617654 
L 190.681936 442.024246 
L 193.218299 444.10214 
L 195.754663 442.698254 
L 198.291027 440.100164 
L 200.82739 444.094921 
L 203.363754 444.095101 
L 205.900118 444.857399 
L 208.436481 442.693098 
L 210.972845 442.403138 
L 213.509208 441.176533 
L 216.045572 442.899825 
L 218.581936 439.38082 
L 221.118299 443.859879 
L 223.654663 439.454191 
L 226.191027 438.303571 
L 228.72739 434.724661 
L 231.263754 440.906647 
L 233.800118 439.932226 
L 236.336481 436.566962 
L 238.872845 435.668254 
L 241.409208 437.639755 
L 243.945572 437.966782 
L 246.481936 443.956439 
L 249.018299 438.877674 
L 251.554663 441.112383 
L 254.091027 436.43652 
M 261.700118 440.713767 
L 264.236481 441.212277 
L 266.772845 436.926098 
L 269.309208 436.264265 
M 276.918299 442.016827 
L 279.454663 438.425372 
L 281.991027 442.54999 
L 287.063754 447.14241 
L 289.600118 443.365824 
L 292.136481 445.465214 
L 294.672845 446.354019 
L 297.209208 445.394096 
L 299.745572 441.527429 
L 302.281936 441.739573 
L 304.818299 443.725111 
L 307.354663 440.565012 
L 309.891027 440.027995 
L 312.42739 439.074559 
L 314.963754 442.467508 
L 317.500118 444.435735 
L 320.036481 439.917708 
L 322.572845 439.253021 
L 325.109208 442.956085 
L 327.645572 444.131937 
L 330.181936 443.268714 
L 332.718299 443.586639 
L 335.254663 443.267963 
L 337.791027 440.052085 
L 340.32739 442.61445 
L 342.863754 442.503652 
L 345.400118 440.025932 
L 347.936481 437.785767 
L 350.472845 441.771182 
L 353.009208 444.094981 
L 355.545572 441.738752 
L 358.081936 439.212481 
L 360.618299 436.095966 
L 363.154663 436.723657 
L 365.691027 430.868928 
L 368.22739 429.597056 
L 370.763754 430.028873 
L 373.300118 432.622978 
L 375.836481 436.430953 
L 378.372845 433.038014 
L 380.909208 433.603357 
L 383.445572 432.150551 
L 385.981936 430.041449 
L 388.518299 436.148812 
L 391.054663 436.079175 
L 393.591027 436.298768 
L 396.12739 436.398482 
L 398.663754 437.825396 
L 401.200118 434.528798 
L 403.736481 436.813318 
L 406.272845 439.4287 
L 408.809208 435.532125 
L 411.345572 435.987321 
L 413.881936 441.231831 
L 416.418299 442.780967 
L 418.954663 441.034015 
L 421.491027 441.061249 
L 424.02739 435.345713 
L 426.563754 434.349595 
L 429.100118 437.993175 
L 431.636481 438.083567 
L 434.172845 439.391043 
L 436.709208 436.65374 
L 439.245572 432.877224 
L 441.781936 439.636788 
L 444.318299 438.628605 
L 446.854663 442.481685 
M 469.681936 442.829137 
L 472.218299 442.049558 
L 474.754663 440.789451 
L 477.291027 443.469784 
L 479.82739 440.768976 
L 482.363754 442.995264 
L 484.900118 440.867969 
L 487.436481 438.369333 
L 489.972845 443.401268 
L 492.509208 442.258237 
L 495.045572 440.082392 
L 497.581936 440.519486 
L 500.118299 435.705451 
L 502.654663 434.319237 
L 505.191027 436.681294 
L 507.72739 436.329496 
L 510.263754 434.014869 
L 512.800118 435.501727 
L 515.336481 433.792703 
L 517.872845 433.512324 
L 520.409208 440.809186 
L 522.945572 436.46141 
L 525.481936 435.371816 
L 528.018299 437.774102 
L 530.554663 434.206397 
L 533.091027 436.05055 
L 535.62739 433.525971 
L 538.163754 430.810155 
L 540.700118 431.255328 
L 543.236481 434.573443 
L 545.772845 439.894419 
L 548.309208 436.883435 
L 550.845572 439.462101 
L 553.381936 436.922123 
L 555.918299 434.815805 
L 558.454663 434.934292 
L 560.991027 436.680082 
L 563.52739 435.796414 
L 566.063754 434.365194 
L 568.600118 432.549157 
L 571.136481 433.02658 
L 573.672845 435.988643 
L 576.209208 435.281734 
L 578.745572 433.876337 
L 581.281936 431.881757 
L 583.818299 436.503323 
L 586.354663 437.439677 
L 588.891027 436.394988 
L 591.42739 437.827299 
L 593.963754 432.817931 
L 596.500118 433.710601 
L 599.036481 433.896752 
L 601.572845 435.105775 
L 604.109208 433.501681 
L 609.181936 429.332147 
L 611.718299 428.796271 
L 614.254663 434.831414 
L 616.791027 431.390166 
L 619.32739 430.897003 
L 621.863754 426.687699 
L 624.400118 429.549307 
L 626.936481 431.420754 
L 629.472845 429.926106 
L 632.009208 433.330578 
L 634.545572 429.141931 
L 637.081936 430.655052 
L 639.618299 435.008965 
L 642.154663 433.701349 
L 644.691027 434.915278 
L 647.22739 435.959426 
L 649.763754 434.629002 
L 652.300118 432.570733 
L 654.836481 440.380393 
L 657.372845 437.276203 
L 659.909208 432.12544 
L 662.445572 438.669205 
L 667.518299 439.589459 
L 670.054663 436.41296 
L 672.591027 440.953786 
L 675.12739 434.894382 
L 677.663754 435.83346 
L 680.200118 436.982949 
L 682.736481 433.521756 
L 685.272845 437.48268 
L 687.809208 438.258084 
L 690.345572 436.685329 
L 695.418299 439.945943 
L 697.954663 435.082827 
L 700.491027 438.960507 
L 703.02739 447.186574 
L 705.563754 445.229421 
L 705.563754 445.229421 
" clip-path="url(#p6831a15068)" style="fill: none; stroke-dasharray: 3.7,1.6; stroke-dashoffset: 0; stroke: #0000ff"/>
   </g>
   <g id="line2d_17">
    <path d="M 96.836481 294.653729 
L 99.372845 342.811681 
L 101.909208 388.538771 
L 104.445572 347.949329 
L 106.981936 365.274148 
L 109.518299 393.710781 
L 112.054663 413.48043 
L 114.591027 410.041945 
L 117.12739 370.602632 
L 119.663754 372.85296 
L 122.200118 326.205716 
L 124.736481 274.421396 
L 127.272845 348.788392 
L 129.809208 341.568916 
L 132.345572 295.255698 
L 134.881936 416.88345 
L 137.418299 335.12144 
L 139.954663 259.079562 
L 142.491027 267.823212 
L 145.02739 361.09351 
L 147.563754 322.254964 
L 150.100118 379.588934 
L 152.636481 369.08105 
L 155.172845 326.144039 
L 157.709208 397.240519 
L 160.245572 417.070423 
L 162.781936 347.44402 
L 165.318299 294.837738 
L 167.854663 282.283911 
L 170.391027 347.115332 
L 172.92739 347.469212 
L 175.463754 318.658453 
L 178.000118 259.40771 
L 180.536481 239.677941 
L 183.072845 301.142536 
L 185.609208 226.583942 
L 188.145572 252.519246 
L 190.681936 349.946351 
L 193.218299 351.866198 
L 195.754663 258.169911 
L 198.291027 347.133895 
L 200.82739 318.839598 
L 203.363754 325.932116 
L 205.900118 279.563849 
L 208.436481 301.938987 
L 210.972845 357.326226 
L 213.509208 273.075643 
L 216.045572 289.236875 
L 221.118299 154.171776 
L 223.654663 236.512866 
L 226.191027 230.858797 
L 228.72739 222.84239 
L 231.263754 337.831009 
L 233.800118 292.028786 
L 236.336481 203.864496 
L 238.872845 212.049532 
L 241.409208 349.030713 
L 243.945572 412.458169 
L 246.481936 353.779096 
L 249.018299 393.028423 
L 251.554663 424.152187 
L 254.091027 381.749731 
L 256.62739 432.91384 
L 259.163754 394.35297 
L 261.700118 414.935519 
L 264.236481 367.207441 
L 266.772845 355.347126 
L 269.309208 334.624523 
L 271.845572 331.991109 
L 274.381936 234.104812 
L 276.918299 178.260645 
L 279.454663 192.474115 
L 281.991027 196.746787 
L 284.52739 242.325493 
L 287.063754 382.583357 
L 289.600118 388.904616 
L 292.136481 420.574029 
L 294.672845 377.602865 
L 297.209208 295.41065 
L 299.745572 289.767955 
L 302.281936 362.677039 
L 304.818299 376.281342 
L 307.354663 348.390417 
L 309.891027 275.773877 
L 312.42739 287.197419 
L 314.963754 213.53572 
L 317.500118 194.412886 
L 320.036481 251.30027 
L 322.572845 365.524258 
L 325.109208 343.968419 
L 327.645572 345.588473 
L 330.181936 362.230844 
L 332.718299 368.506927 
L 335.254663 356.319194 
L 337.791027 384.768213 
L 340.32739 371.648613 
L 342.863754 396.601084 
L 345.400118 414.806618 
L 347.936481 285.794275 
L 350.472845 351.992055 
L 353.009208 414.142883 
L 355.545572 355.136664 
L 358.081936 186.858974 
L 360.618299 302.420645 
L 363.154663 377.404739 
L 365.691027 336.197779 
L 368.22739 328.38094 
L 370.763754 331.526591 
L 373.300118 369.187793 
L 375.836481 318.115077 
L 378.372845 357.597243 
L 380.909208 335.423616 
L 383.445572 326.046678 
L 385.981936 312.07643 
L 388.518299 383.214662 
L 391.054663 360.128751 
L 393.591027 376.849138 
L 396.12739 376.780743 
L 398.663754 218.503036 
L 401.200118 118.332419 
L 403.736481 231.830164 
L 406.272845 132.359218 
L 408.809208 78.907044 
L 411.345572 132.178874 
L 413.881936 367.449212 
L 416.418299 382.048001 
L 418.954663 431.00742 
L 421.491027 386.081005 
L 424.02739 374.88794 
L 426.563754 412.065951 
L 429.100118 424.39579 
L 431.636481 373.984366 
L 434.172845 328.037634 
L 436.709208 320.411552 
L 439.245572 382.374217 
L 441.781936 341.365303 
L 444.318299 375.672245 
L 446.854663 376.788212 
L 449.391027 352.206762 
L 451.92739 291.983149 
L 454.463754 339.091536 
L 457.000118 378.978405 
L 459.536481 249.971358 
L 462.072845 283.585429 
L 464.609208 185.003107 
L 467.145572 215.115784 
L 469.681936 283.61044 
L 472.218299 255.275753 
L 474.754663 283.37713 
L 477.291027 349.682824 
L 479.82739 330.253068 
L 482.363754 288.846109 
L 484.900118 314.367518 
L 487.436481 364.098546 
L 489.972845 320.712607 
L 492.509208 299.64097 
L 495.045572 258.205395 
L 497.581936 284.759188 
L 500.118299 277.46524 
L 502.654663 282.964397 
L 505.191027 260.259769 
L 507.72739 289.894372 
L 510.263754 298.301865 
L 512.800118 280.359278 
L 515.336481 295.425128 
L 517.872845 357.149427 
L 520.409208 333.044458 
L 522.945572 326.58687 
L 525.481936 425.948891 
L 528.018299 328.098689 
L 530.554663 374.179239 
L 533.091027 372.318495 
L 535.62739 329.173826 
L 538.163754 305.693194 
L 540.700118 310.686422 
L 543.236481 314.751856 
L 545.772845 414.750979 
L 548.309208 244.952499 
L 550.845572 61.037187 
L 553.381936 249.865927 
L 555.918299 353.465507 
L 558.454663 325.831971 
L 560.991027 338.256518 
L 563.52739 378.834596 
L 566.063754 380.361465 
L 568.600118 353.273167 
L 571.136481 412.312958 
L 573.672845 360.468153 
L 576.209208 376.065614 
L 578.745572 310.517512 
L 581.281936 269.891564 
L 583.818299 332.300994 
L 586.354663 321.894376 
L 588.891027 343.93656 
L 591.42739 358.639559 
L 593.963754 312.200404 
L 596.500118 129.454647 
L 599.036481 108.058126 
L 601.572845 264.784855 
L 604.109208 276.039888 
L 606.645572 317.871435 
L 609.181936 324.523565 
L 611.718299 327.534909 
L 614.254663 342.028768 
L 616.791027 363.081441 
L 619.32739 312.005261 
L 621.863754 278.573157 
L 624.400118 258.258962 
L 626.936481 366.376288 
L 629.472845 347.979306 
L 632.009208 196.21785 
L 634.545572 182.092488 
L 637.081936 318.664701 
L 639.618299 292.8442 
L 642.154663 368.399663 
L 644.691027 325.884377 
L 647.22739 338.045656 
L 649.763754 236.036033 
L 652.300118 341.132774 
L 654.836481 291.96753 
L 657.372845 252.268795 
L 659.909208 317.840496 
L 662.445572 376.899501 
L 664.981936 360.380363 
L 667.518299 427.070075 
L 670.054663 384.201198 
L 672.591027 259.595704 
L 675.12739 238.069481 
L 677.663754 272.143844 
L 680.200118 256.828604 
L 682.736481 330.229178 
L 685.272845 297.715576 
L 687.809208 165.884138 
L 690.345572 128.131682 
L 692.881936 337.354156 
L 695.418299 321.749256 
L 697.954663 300.888941 
L 700.491027 371.280895 
L 703.02739 384.309954 
L 705.563754 367.810771 
L 705.563754 367.810771 
" clip-path="url(#p6831a15068)" style="fill: none; stroke-dasharray: 3.7,1.6; stroke-dashoffset: 0; stroke: #ffa500"/>
   </g>
   <g id="patch_3">
    <path d="M 66.400118 484.397187 
L 66.400118 40.877187 
" style="fill: none; stroke: #000000; stroke-width: 0.8; stroke-linejoin: miter; stroke-linecap: square"/>
   </g>
   <g id="patch_4">
    <path d="M 736.000118 484.397187 
L 736.000118 40.877187 
" style="fill: none; stroke: #000000; stroke-width: 0.8; stroke-linejoin: miter; stroke-linecap: square"/>
   </g>
   <g id="patch_5">
    <path d="M 66.400118 484.397187 
L 736.000118 484.397187 
" style="fill: none; stroke: #000000; stroke-width: 0.8; stroke-linejoin: miter; stroke-linecap: square"/>
   </g>
   <g id="patch_6">
    <path d="M 66.400118 40.877187 
L 736.000118 40.877187 
" style="fill: none; stroke: #000000; stroke-width: 0.8; stroke-linejoin: miter; stroke-linecap: square"/>
   </g>
   <g id="text_16">
    <!-- Mean sea-level pressure two steps forward prediction: RMSES -->
    <g transform="translate(123.025586 20.877187) scale(0.18 -0.18)">
     <defs>
      <path id="DejaVuSans-6c" d="M 603 4863 
L 1178 4863 
L 1178 0 
L 603 0 
L 603 4863 
z
" transform="scale(0.015625)"/>
      <path id="DejaVuSans-76" d="M 191 3500 
L 800 3500 
L 1894 563 
L 2988 3500 
L 3597 3500 
L 2284 0 
L 1503 0 
L 191 3500 
z
" transform="scale(0.015625)"/>
      <path id="DejaVuSans-70" d="M 1159 525 
L 1159 -1331 
L 581 -1331 
L 581 3500 
L 1159 3500 
L 1159 2969 
Q 1341 3281 1617 3432 
Q 1894 3584 2278 3584 
Q 2916 3584 3314 3078 
Q 3713 2572 3713 1747 
Q 3713 922 3314 415 
Q 2916 -91 2278 -91 
Q 1894 -91 1617 61 
Q 1341 213 1159 525 
z
M 3116 1747 
Q 3116 2381 2855 2742 
Q 2594 3103 2138 3103 
Q 1681 3103 1420 2742 
Q 1159 2381 1159 1747 
Q 1159 1113 1420 752 
Q 1681 391 2138 391 
Q 2594 391 2855 752 
Q 3116 1113 3116 1747 
z
" transform="scale(0.015625)"/>
      <path id="DejaVuSans-77" d="M 269 3500 
L 844 3500 
L 1563 769 
L 2278 3500 
L 2956 3500 
L 3675 769 
L 4391 3500 
L 4966 3500 
L 4050 0 
L 3372 0 
L 2619 2869 
L 1863 0 
L 1184 0 
L 269 3500 
z
" transform="scale(0.015625)"/>
      <path id="DejaVuSans-66" d="M 2375 4863 
L 2375 4384 
L 1825 4384 
Q 1516 4384 1395 4259 
Q 1275 4134 1275 3809 
L 1275 3500 
L 2222 3500 
L 2222 3053 
L 1275 3053 
L 1275 0 
L 697 0 
L 697 3053 
L 147 3053 
L 147 3500 
L 697 3500 
L 697 3744 
Q 697 4328 969 4595 
Q 1241 4863 1831 4863 
L 2375 4863 
z
" transform="scale(0.015625)"/>
      <path id="DejaVuSans-69" d="M 603 3500 
L 1178 3500 
L 1178 0 
L 603 0 
L 603 3500 
z
M 603 4863 
L 1178 4863 
L 1178 4134 
L 603 4134 
L 603 4863 
z
" transform="scale(0.015625)"/>
     </defs>
     <use xlink:href="#DejaVuSans-4d"/>
     <use xlink:href="#DejaVuSans-65" transform="translate(86.279297 0)"/>
     <use xlink:href="#DejaVuSans-61" transform="translate(147.802734 0)"/>
     <use xlink:href="#DejaVuSans-6e" transform="translate(209.082031 0)"/>
     <use xlink:href="#DejaVuSans-20" transform="translate(272.460938 0)"/>
     <use xlink:href="#DejaVuSans-73" transform="translate(304.248047 0)"/>
     <use xlink:href="#DejaVuSans-65" transform="translate(356.347656 0)"/>
     <use xlink:href="#DejaVuSans-61" transform="translate(417.871094 0)"/>
     <use xlink:href="#DejaVuSans-2d" transform="translate(479.150391 0)"/>
     <use xlink:href="#DejaVuSans-6c" transform="translate(515.234375 0)"/>
     <use xlink:href="#DejaVuSans-65" transform="translate(543.017578 0)"/>
     <use xlink:href="#DejaVuSans-76" transform="translate(604.541016 0)"/>
     <use xlink:href="#DejaVuSans-65" transform="translate(663.720703 0)"/>
     <use xlink:href="#DejaVuSans-6c" transform="translate(725.244141 0)"/>
     <use xlink:href="#DejaVuSans-20" transform="translate(753.027344 0)"/>
     <use xlink:href="#DejaVuSans-70" transform="translate(784.814453 0)"/>
     <use xlink:href="#DejaVuSans-72" transform="translate(848.291016 0)"/>
     <use xlink:href="#DejaVuSans-65" transform="translate(887.154297 0)"/>
     <use xlink:href="#DejaVuSans-73" transform="translate(948.677734 0)"/>
     <use xlink:href="#DejaVuSans-73" transform="translate(1000.777344 0)"/>
     <use xlink:href="#DejaVuSans-75" transform="translate(1052.876953 0)"/>
     <use xlink:href="#DejaVuSans-72" transform="translate(1116.255859 0)"/>
     <use xlink:href="#DejaVuSans-65" transform="translate(1155.119141 0)"/>
     <use xlink:href="#DejaVuSans-20" transform="translate(1216.642578 0)"/>
     <use xlink:href="#DejaVuSans-74" transform="translate(1248.429688 0)"/>
     <use xlink:href="#DejaVuSans-77" transform="translate(1287.638672 0)"/>
     <use xlink:href="#DejaVuSans-6f" transform="translate(1369.425781 0)"/>
     <use xlink:href="#DejaVuSans-20" transform="translate(1430.607422 0)"/>
     <use xlink:href="#DejaVuSans-73" transform="translate(1462.394531 0)"/>
     <use xlink:href="#DejaVuSans-74" transform="translate(1514.494141 0)"/>
     <use xlink:href="#DejaVuSans-65" transform="translate(1553.703125 0)"/>
     <use xlink:href="#DejaVuSans-70" transform="translate(1615.226562 0)"/>
     <use xlink:href="#DejaVuSans-73" transform="translate(1678.703125 0)"/>
     <use xlink:href="#DejaVuSans-20" transform="translate(1730.802734 0)"/>
     <use xlink:href="#DejaVuSans-66" transform="translate(1762.589844 0)"/>
     <use xlink:href="#DejaVuSans-6f" transform="translate(1797.794922 0)"/>
     <use xlink:href="#DejaVuSans-72" transform="translate(1858.976562 0)"/>
     <use xlink:href="#DejaVuSans-77" transform="translate(1900.089844 0)"/>
     <use xlink:href="#DejaVuSans-61" transform="translate(1981.876953 0)"/>
     <use xlink:href="#DejaVuSans-72" transform="translate(2043.15625 0)"/>
     <use xlink:href="#DejaVuSans-64" transform="translate(2082.519531 0)"/>
     <use xlink:href="#DejaVuSans-20" transform="translate(2145.996094 0)"/>
     <use xlink:href="#DejaVuSans-70" transform="translate(2177.783203 0)"/>
     <use xlink:href="#DejaVuSans-72" transform="translate(2241.259766 0)"/>
     <use xlink:href="#DejaVuSans-65" transform="translate(2280.123047 0)"/>
     <use xlink:href="#DejaVuSans-64" transform="translate(2341.646484 0)"/>
     <use xlink:href="#DejaVuSans-69" transform="translate(2405.123047 0)"/>
     <use xlink:href="#DejaVuSans-63" transform="translate(2432.90625 0)"/>
     <use xlink:href="#DejaVuSans-74" transform="translate(2487.886719 0)"/>
     <use xlink:href="#DejaVuSans-69" transform="translate(2527.095703 0)"/>
     <use xlink:href="#DejaVuSans-6f" transform="translate(2554.878906 0)"/>
     <use xlink:href="#DejaVuSans-6e" transform="translate(2616.060547 0)"/>
     <use xlink:href="#DejaVuSans-3a" transform="translate(2679.439453 0)"/>
     <use xlink:href="#DejaVuSans-20" transform="translate(2713.130859 0)"/>
     <use xlink:href="#DejaVuSans-52" transform="translate(2744.917969 0)"/>
     <use xlink:href="#DejaVuSans-4d" transform="translate(2814.400391 0)"/>
     <use xlink:href="#DejaVuSans-53" transform="translate(2900.679688 0)"/>
     <use xlink:href="#DejaVuSans-45" transform="translate(2964.15625 0)"/>
     <use xlink:href="#DejaVuSans-53" transform="translate(3027.339844 0)"/>
    </g>
   </g>
   <g id="legend_1">
    <g id="text_17">
     <!-- Forecast Horizon -->
     <g transform="translate(852.099961 65.634687) scale(0.16 -0.16)">
      <defs>
       <path id="DejaVuSans-48" d="M 628 4666 
L 1259 4666 
L 1259 2753 
L 3553 2753 
L 3553 4666 
L 4184 4666 
L 4184 0 
L 3553 0 
L 3553 2222 
L 1259 2222 
L 1259 0 
L 628 0 
L 628 4666 
z
" transform="scale(0.015625)"/>
       <path id="DejaVuSans-7a" d="M 353 3500 
L 3084 3500 
L 3084 2975 
L 922 459 
L 3084 459 
L 3084 0 
L 275 0 
L 275 525 
L 2438 3041 
L 353 3041 
L 353 3500 
z
" transform="scale(0.015625)"/>
      </defs>
      <use xlink:href="#DejaVuSans-46"/>
      <use xlink:href="#DejaVuSans-6f" transform="translate(53.894531 0)"/>
      <use xlink:href="#DejaVuSans-72" transform="translate(115.076172 0)"/>
      <use xlink:href="#DejaVuSans-65" transform="translate(153.939453 0)"/>
      <use xlink:href="#DejaVuSans-63" transform="translate(215.462891 0)"/>
      <use xlink:href="#DejaVuSans-61" transform="translate(270.443359 0)"/>
      <use xlink:href="#DejaVuSans-73" transform="translate(331.722656 0)"/>
      <use xlink:href="#DejaVuSans-74" transform="translate(383.822266 0)"/>
      <use xlink:href="#DejaVuSans-20" transform="translate(423.03125 0)"/>
      <use xlink:href="#DejaVuSans-48" transform="translate(454.818359 0)"/>
      <use xlink:href="#DejaVuSans-6f" transform="translate(530.013672 0)"/>
      <use xlink:href="#DejaVuSans-72" transform="translate(591.195312 0)"/>
      <use xlink:href="#DejaVuSans-69" transform="translate(632.308594 0)"/>
      <use xlink:href="#DejaVuSans-7a" transform="translate(660.091797 0)"/>
      <use xlink:href="#DejaVuSans-6f" transform="translate(712.582031 0)"/>
      <use xlink:href="#DejaVuSans-6e" transform="translate(773.763672 0)"/>
     </g>
    </g>
    <g id="line2d_18">
     <path d="M 782.080118 81.7 
L 796.080118 81.7 
L 810.080118 81.7 
" style="fill: none; stroke: #0000ff; stroke-linecap: square"/>
    </g>
    <g id="text_18">
     <!-- Global RMSE (6h Forecast) -->
     <g transform="translate(821.280118 86.6) scale(0.14 -0.14)">
      <defs>
       <path id="DejaVuSans-47" d="M 3809 666 
L 3809 1919 
L 2778 1919 
L 2778 2438 
L 4434 2438 
L 4434 434 
Q 4069 175 3628 42 
Q 3188 -91 2688 -91 
Q 1594 -91 976 548 
Q 359 1188 359 2328 
Q 359 3472 976 4111 
Q 1594 4750 2688 4750 
Q 3144 4750 3555 4637 
Q 3966 4525 4313 4306 
L 4313 3634 
Q 3963 3931 3569 4081 
Q 3175 4231 2741 4231 
Q 1884 4231 1454 3753 
Q 1025 3275 1025 2328 
Q 1025 1384 1454 906 
Q 1884 428 2741 428 
Q 3075 428 3337 486 
Q 3600 544 3809 666 
z
" transform="scale(0.015625)"/>
       <path id="DejaVuSans-62" d="M 3116 1747 
Q 3116 2381 2855 2742 
Q 2594 3103 2138 3103 
Q 1681 3103 1420 2742 
Q 1159 2381 1159 1747 
Q 1159 1113 1420 752 
Q 1681 391 2138 391 
Q 2594 391 2855 752 
Q 3116 1113 3116 1747 
z
M 1159 2969 
Q 1341 3281 1617 3432 
Q 1894 3584 2278 3584 
Q 2916 3584 3314 3078 
Q 3713 2572 3713 1747 
Q 3713 922 3314 415 
Q 2916 -91 2278 -91 
Q 1894 -91 1617 61 
Q 1341 213 1159 525 
L 1159 0 
L 581 0 
L 581 4863 
L 1159 4863 
L 1159 2969 
z
" transform="scale(0.015625)"/>
       <path id="DejaVuSans-36" d="M 2113 2584 
Q 1688 2584 1439 2293 
Q 1191 2003 1191 1497 
Q 1191 994 1439 701 
Q 1688 409 2113 409 
Q 2538 409 2786 701 
Q 3034 994 3034 1497 
Q 3034 2003 2786 2293 
Q 2538 2584 2113 2584 
z
M 3366 4563 
L 3366 3988 
Q 3128 4100 2886 4159 
Q 2644 4219 2406 4219 
Q 1781 4219 1451 3797 
Q 1122 3375 1075 2522 
Q 1259 2794 1537 2939 
Q 1816 3084 2150 3084 
Q 2853 3084 3261 2657 
Q 3669 2231 3669 1497 
Q 3669 778 3244 343 
Q 2819 -91 2113 -91 
Q 1303 -91 875 529 
Q 447 1150 447 2328 
Q 447 3434 972 4092 
Q 1497 4750 2381 4750 
Q 2619 4750 2861 4703 
Q 3103 4656 3366 4563 
z
" transform="scale(0.015625)"/>
       <path id="DejaVuSans-68" d="M 3513 2113 
L 3513 0 
L 2938 0 
L 2938 2094 
Q 2938 2591 2744 2837 
Q 2550 3084 2163 3084 
Q 1697 3084 1428 2787 
Q 1159 2491 1159 1978 
L 1159 0 
L 581 0 
L 581 4863 
L 1159 4863 
L 1159 2956 
Q 1366 3272 1645 3428 
Q 1925 3584 2291 3584 
Q 2894 3584 3203 3211 
Q 3513 2838 3513 2113 
z
" transform="scale(0.015625)"/>
      </defs>
      <use xlink:href="#DejaVuSans-47"/>
      <use xlink:href="#DejaVuSans-6c" transform="translate(77.490234 0)"/>
      <use xlink:href="#DejaVuSans-6f" transform="translate(105.273438 0)"/>
      <use xlink:href="#DejaVuSans-62" transform="translate(166.455078 0)"/>
      <use xlink:href="#DejaVuSans-61" transform="translate(229.931641 0)"/>
      <use xlink:href="#DejaVuSans-6c" transform="translate(291.210938 0)"/>
      <use xlink:href="#DejaVuSans-20" transform="translate(318.994141 0)"/>
      <use xlink:href="#DejaVuSans-52" transform="translate(350.78125 0)"/>
      <use xlink:href="#DejaVuSans-4d" transform="translate(420.263672 0)"/>
      <use xlink:href="#DejaVuSans-53" transform="translate(506.542969 0)"/>
      <use xlink:href="#DejaVuSans-45" transform="translate(570.019531 0)"/>
      <use xlink:href="#DejaVuSans-20" transform="translate(633.203125 0)"/>
      <use xlink:href="#DejaVuSans-28" transform="translate(664.990234 0)"/>
      <use xlink:href="#DejaVuSans-36" transform="translate(704.003906 0)"/>
      <use xlink:href="#DejaVuSans-68" transform="translate(767.626953 0)"/>
      <use xlink:href="#DejaVuSans-20" transform="translate(831.005859 0)"/>
      <use xlink:href="#DejaVuSans-46" transform="translate(862.792969 0)"/>
      <use xlink:href="#DejaVuSans-6f" transform="translate(916.6875 0)"/>
      <use xlink:href="#DejaVuSans-72" transform="translate(977.869141 0)"/>
      <use xlink:href="#DejaVuSans-65" transform="translate(1016.732422 0)"/>
      <use xlink:href="#DejaVuSans-63" transform="translate(1078.255859 0)"/>
      <use xlink:href="#DejaVuSans-61" transform="translate(1133.236328 0)"/>
      <use xlink:href="#DejaVuSans-73" transform="translate(1194.515625 0)"/>
      <use xlink:href="#DejaVuSans-74" transform="translate(1246.615234 0)"/>
      <use xlink:href="#DejaVuSans-29" transform="translate(1285.824219 0)"/>
     </g>
    </g>
    <g id="line2d_19">
     <path d="M 782.080118 102.249375 
L 796.080118 102.249375 
L 810.080118 102.249375 
" style="fill: none; stroke: #ffa500; stroke-linecap: square"/>
    </g>
    <g id="text_19">
     <!-- South Africa RMSE (6h Forecast) -->
     <g transform="translate(821.280118 107.149375) scale(0.14 -0.14)">
      <defs>
       <path id="DejaVuSans-41" d="M 2188 4044 
L 1331 1722 
L 3047 1722 
L 2188 4044 
z
M 1831 4666 
L 2547 4666 
L 4325 0 
L 3669 0 
L 3244 1197 
L 1141 1197 
L 716 0 
L 50 0 
L 1831 4666 
z
" transform="scale(0.015625)"/>
      </defs>
      <use xlink:href="#DejaVuSans-53"/>
      <use xlink:href="#DejaVuSans-6f" transform="translate(63.476562 0)"/>
      <use xlink:href="#DejaVuSans-75" transform="translate(124.658203 0)"/>
      <use xlink:href="#DejaVuSans-74" transform="translate(188.037109 0)"/>
      <use xlink:href="#DejaVuSans-68" transform="translate(227.246094 0)"/>
      <use xlink:href="#DejaVuSans-20" transform="translate(290.625 0)"/>
      <use xlink:href="#DejaVuSans-41" transform="translate(322.412109 0)"/>
      <use xlink:href="#DejaVuSans-66" transform="translate(387.195312 0)"/>
      <use xlink:href="#DejaVuSans-72" transform="translate(422.400391 0)"/>
      <use xlink:href="#DejaVuSans-69" transform="translate(463.513672 0)"/>
      <use xlink:href="#DejaVuSans-63" transform="translate(491.296875 0)"/>
      <use xlink:href="#DejaVuSans-61" transform="translate(546.277344 0)"/>
      <use xlink:href="#DejaVuSans-20" transform="translate(607.556641 0)"/>
      <use xlink:href="#DejaVuSans-52" transform="translate(639.34375 0)"/>
      <use xlink:href="#DejaVuSans-4d" transform="translate(708.826172 0)"/>
      <use xlink:href="#DejaVuSans-53" transform="translate(795.105469 0)"/>
      <use xlink:href="#DejaVuSans-45" transform="translate(858.582031 0)"/>
      <use xlink:href="#DejaVuSans-20" transform="translate(921.765625 0)"/>
      <use xlink:href="#DejaVuSans-28" transform="translate(953.552734 0)"/>
      <use xlink:href="#DejaVuSans-36" transform="translate(992.566406 0)"/>
      <use xlink:href="#DejaVuSans-68" transform="translate(1056.189453 0)"/>
      <use xlink:href="#DejaVuSans-20" transform="translate(1119.568359 0)"/>
      <use xlink:href="#DejaVuSans-46" transform="translate(1151.355469 0)"/>
      <use xlink:href="#DejaVuSans-6f" transform="translate(1205.25 0)"/>
      <use xlink:href="#DejaVuSans-72" transform="translate(1266.431641 0)"/>
      <use xlink:href="#DejaVuSans-65" transform="translate(1305.294922 0)"/>
      <use xlink:href="#DejaVuSans-63" transform="translate(1366.818359 0)"/>
      <use xlink:href="#DejaVuSans-61" transform="translate(1421.798828 0)"/>
      <use xlink:href="#DejaVuSans-73" transform="translate(1483.078125 0)"/>
      <use xlink:href="#DejaVuSans-74" transform="translate(1535.177734 0)"/>
      <use xlink:href="#DejaVuSans-29" transform="translate(1574.386719 0)"/>
     </g>
    </g>
    <g id="line2d_20">
     <path d="M 782.080118 122.79875 
L 796.080118 122.79875 
L 810.080118 122.79875 
" style="fill: none; stroke-dasharray: 3.7,1.6; stroke-dashoffset: 0; stroke: #0000ff"/>
    </g>
    <g id="text_20">
     <!-- Global RMSE (12h Forecast) -->
     <g transform="translate(821.280118 127.69875) scale(0.14 -0.14)">
      <use xlink:href="#DejaVuSans-47"/>
      <use xlink:href="#DejaVuSans-6c" transform="translate(77.490234 0)"/>
      <use xlink:href="#DejaVuSans-6f" transform="translate(105.273438 0)"/>
      <use xlink:href="#DejaVuSans-62" transform="translate(166.455078 0)"/>
      <use xlink:href="#DejaVuSans-61" transform="translate(229.931641 0)"/>
      <use xlink:href="#DejaVuSans-6c" transform="translate(291.210938 0)"/>
      <use xlink:href="#DejaVuSans-20" transform="translate(318.994141 0)"/>
      <use xlink:href="#DejaVuSans-52" transform="translate(350.78125 0)"/>
      <use xlink:href="#DejaVuSans-4d" transform="translate(420.263672 0)"/>
      <use xlink:href="#DejaVuSans-53" transform="translate(506.542969 0)"/>
      <use xlink:href="#DejaVuSans-45" transform="translate(570.019531 0)"/>
      <use xlink:href="#DejaVuSans-20" transform="translate(633.203125 0)"/>
      <use xlink:href="#DejaVuSans-28" transform="translate(664.990234 0)"/>
      <use xlink:href="#DejaVuSans-31" transform="translate(704.003906 0)"/>
      <use xlink:href="#DejaVuSans-32" transform="translate(767.626953 0)"/>
      <use xlink:href="#DejaVuSans-68" transform="translate(831.25 0)"/>
      <use xlink:href="#DejaVuSans-20" transform="translate(894.628906 0)"/>
      <use xlink:href="#DejaVuSans-46" transform="translate(926.416016 0)"/>
      <use xlink:href="#DejaVuSans-6f" transform="translate(980.310547 0)"/>
      <use xlink:href="#DejaVuSans-72" transform="translate(1041.492188 0)"/>
      <use xlink:href="#DejaVuSans-65" transform="translate(1080.355469 0)"/>
      <use xlink:href="#DejaVuSans-63" transform="translate(1141.878906 0)"/>
      <use xlink:href="#DejaVuSans-61" transform="translate(1196.859375 0)"/>
      <use xlink:href="#DejaVuSans-73" transform="translate(1258.138672 0)"/>
      <use xlink:href="#DejaVuSans-74" transform="translate(1310.238281 0)"/>
      <use xlink:href="#DejaVuSans-29" transform="translate(1349.447266 0)"/>
     </g>
    </g>
    <g id="line2d_21">
     <path d="M 782.080118 143.348125 
L 796.080118 143.348125 
L 810.080118 143.348125 
" style="fill: none; stroke-dasharray: 3.7,1.6; stroke-dashoffset: 0; stroke: #ffa500"/>
    </g>
    <g id="text_21">
     <!-- South Africa RMSE (12h Forecast) -->
     <g transform="translate(821.280118 148.248125) scale(0.14 -0.14)">
      <use xlink:href="#DejaVuSans-53"/>
      <use xlink:href="#DejaVuSans-6f" transform="translate(63.476562 0)"/>
      <use xlink:href="#DejaVuSans-75" transform="translate(124.658203 0)"/>
      <use xlink:href="#DejaVuSans-74" transform="translate(188.037109 0)"/>
      <use xlink:href="#DejaVuSans-68" transform="translate(227.246094 0)"/>
      <use xlink:href="#DejaVuSans-20" transform="translate(290.625 0)"/>
      <use xlink:href="#DejaVuSans-41" transform="translate(322.412109 0)"/>
      <use xlink:href="#DejaVuSans-66" transform="translate(387.195312 0)"/>
      <use xlink:href="#DejaVuSans-72" transform="translate(422.400391 0)"/>
      <use xlink:href="#DejaVuSans-69" transform="translate(463.513672 0)"/>
      <use xlink:href="#DejaVuSans-63" transform="translate(491.296875 0)"/>
      <use xlink:href="#DejaVuSans-61" transform="translate(546.277344 0)"/>
      <use xlink:href="#DejaVuSans-20" transform="translate(607.556641 0)"/>
      <use xlink:href="#DejaVuSans-52" transform="translate(639.34375 0)"/>
      <use xlink:href="#DejaVuSans-4d" transform="translate(708.826172 0)"/>
      <use xlink:href="#DejaVuSans-53" transform="translate(795.105469 0)"/>
      <use xlink:href="#DejaVuSans-45" transform="translate(858.582031 0)"/>
      <use xlink:href="#DejaVuSans-20" transform="translate(921.765625 0)"/>
      <use xlink:href="#DejaVuSans-28" transform="translate(953.552734 0)"/>
      <use xlink:href="#DejaVuSans-31" transform="translate(992.566406 0)"/>
      <use xlink:href="#DejaVuSans-32" transform="translate(1056.189453 0)"/>
      <use xlink:href="#DejaVuSans-68" transform="translate(1119.8125 0)"/>
      <use xlink:href="#DejaVuSans-20" transform="translate(1183.191406 0)"/>
      <use xlink:href="#DejaVuSans-46" transform="translate(1214.978516 0)"/>
      <use xlink:href="#DejaVuSans-6f" transform="translate(1268.873047 0)"/>
      <use xlink:href="#DejaVuSans-72" transform="translate(1330.054688 0)"/>
      <use xlink:href="#DejaVuSans-65" transform="translate(1368.917969 0)"/>
      <use xlink:href="#DejaVuSans-63" transform="translate(1430.441406 0)"/>
      <use xlink:href="#DejaVuSans-61" transform="translate(1485.421875 0)"/>
      <use xlink:href="#DejaVuSans-73" transform="translate(1546.701172 0)"/>
      <use xlink:href="#DejaVuSans-74" transform="translate(1598.800781 0)"/>
      <use xlink:href="#DejaVuSans-29" transform="translate(1638.009766 0)"/>
     </g>
    </g>
   </g>
  </g>
 </g>
 <defs>
  <clipPath id="p6831a15068">
   <rect x="66.400118" y="40.877187" width="669.6" height="443.52"/>
  </clipPath>
 </defs>
</svg>
