<?xml version="1.0" encoding="utf-8" standalone="no"?>
<!DOCTYPE svg PUBLIC "-//W3C//DTD SVG 1.1//EN"
  "http://www.w3.org/Graphics/SVG/1.1/DTD/svg11.dtd">
<svg xmlns:xlink="http://www.w3.org/1999/xlink" width="1068.862305pt" height="575.421502pt" viewBox="0 0 1068.862305 575.421502" xmlns="http://www.w3.org/2000/svg" version="1.1">
 <metadata>
  <rdf:RDF xmlns:dc="http://purl.org/dc/elements/1.1/" xmlns:cc="http://creativecommons.org/ns#" xmlns:rdf="http://www.w3.org/1999/02/22-rdf-syntax-ns#">
   <cc:Work>
    <dc:type rdf:resource="http://purl.org/dc/dcmitype/StillImage"/>
    <dc:date>2025-02-28T07:32:57.804657</dc:date>
    <dc:format>image/svg+xml</dc:format>
    <dc:creator>
     <cc:Agent>
      <dc:title>Matplotlib v3.10.0, https://matplotlib.org/</dc:title>
     </cc:Agent>
    </dc:creator>
   </cc:Work>
  </rdf:RDF>
 </metadata>
 <defs>
  <style type="text/css">*{stroke-linejoin: round; stroke-linecap: butt}</style>
 </defs>
 <g id="figure_1">
  <g id="patch_1">
   <path d="M 0 575.421502 
L 1068.862305 575.421502 
L 1068.862305 0 
L 0 0 
z
" style="fill: #ffffff"/>
  </g>
  <g id="axes_1">
   <g id="patch_2">
    <path d="M 66.400118 484.397187 
L 736.000118 484.397187 
L 736.000118 40.877187 
L 66.400118 40.877187 
z
" style="fill: #ffffff"/>
   </g>
   <g id="matplotlib.axis_1">
    <g id="xtick_1">
     <g id="line2d_1">
      <defs>
       <path id="m0dd61b052b" d="M 0 0 
L 0 3.5 
" style="stroke: #000000; stroke-width: 0.8"/>
      </defs>
      <g>
       <use xlink:href="#m0dd61b052b" x="96.836481" y="484.397187" style="stroke: #000000; stroke-width: 0.8"/>
      </g>
     </g>
     <g id="text_1">
      <!-- 2022-11-01 (18:00) -->
      <g transform="translate(10.999219 546.93544) rotate(-30) scale(0.1 -0.1)">
       <defs>
        <path id="DejaVuSans-32" d="M 1228 531 
L 3431 531 
L 3431 0 
L 469 0 
L 469 531 
Q 828 903 1448 1529 
Q 2069 2156 2228 2338 
Q 2531 2678 2651 2914 
Q 2772 3150 2772 3378 
Q 2772 3750 2511 3984 
Q 2250 4219 1831 4219 
Q 1534 4219 1204 4116 
Q 875 4013 500 3803 
L 500 4441 
Q 881 4594 1212 4672 
Q 1544 4750 1819 4750 
Q 2544 4750 2975 4387 
Q 3406 4025 3406 3419 
Q 3406 3131 3298 2873 
Q 3191 2616 2906 2266 
Q 2828 2175 2409 1742 
Q 1991 1309 1228 531 
z
" transform="scale(0.015625)"/>
        <path id="DejaVuSans-30" d="M 2034 4250 
Q 1547 4250 1301 3770 
Q 1056 3291 1056 2328 
Q 1056 1369 1301 889 
Q 1547 409 2034 409 
Q 2525 409 2770 889 
Q 3016 1369 3016 2328 
Q 3016 3291 2770 3770 
Q 2525 4250 2034 4250 
z
M 2034 4750 
Q 2819 4750 3233 4129 
Q 3647 3509 3647 2328 
Q 3647 1150 3233 529 
Q 2819 -91 2034 -91 
Q 1250 -91 836 529 
Q 422 1150 422 2328 
Q 422 3509 836 4129 
Q 1250 4750 2034 4750 
z
" transform="scale(0.015625)"/>
        <path id="DejaVuSans-2d" d="M 313 2009 
L 1997 2009 
L 1997 1497 
L 313 1497 
L 313 2009 
z
" transform="scale(0.015625)"/>
        <path id="DejaVuSans-31" d="M 794 531 
L 1825 531 
L 1825 4091 
L 703 3866 
L 703 4441 
L 1819 4666 
L 2450 4666 
L 2450 531 
L 3481 531 
L 3481 0 
L 794 0 
L 794 531 
z
" transform="scale(0.015625)"/>
        <path id="DejaVuSans-20" transform="scale(0.015625)"/>
        <path id="DejaVuSans-28" d="M 1984 4856 
Q 1566 4138 1362 3434 
Q 1159 2731 1159 2009 
Q 1159 1288 1364 580 
Q 1569 -128 1984 -844 
L 1484 -844 
Q 1016 -109 783 600 
Q 550 1309 550 2009 
Q 550 2706 781 3412 
Q 1013 4119 1484 4856 
L 1984 4856 
z
" transform="scale(0.015625)"/>
        <path id="DejaVuSans-38" d="M 2034 2216 
Q 1584 2216 1326 1975 
Q 1069 1734 1069 1313 
Q 1069 891 1326 650 
Q 1584 409 2034 409 
Q 2484 409 2743 651 
Q 3003 894 3003 1313 
Q 3003 1734 2745 1975 
Q 2488 2216 2034 2216 
z
M 1403 2484 
Q 997 2584 770 2862 
Q 544 3141 544 3541 
Q 544 4100 942 4425 
Q 1341 4750 2034 4750 
Q 2731 4750 3128 4425 
Q 3525 4100 3525 3541 
Q 3525 3141 3298 2862 
Q 3072 2584 2669 2484 
Q 3125 2378 3379 2068 
Q 3634 1759 3634 1313 
Q 3634 634 3220 271 
Q 2806 -91 2034 -91 
Q 1263 -91 848 271 
Q 434 634 434 1313 
Q 434 1759 690 2068 
Q 947 2378 1403 2484 
z
M 1172 3481 
Q 1172 3119 1398 2916 
Q 1625 2713 2034 2713 
Q 2441 2713 2670 2916 
Q 2900 3119 2900 3481 
Q 2900 3844 2670 4047 
Q 2441 4250 2034 4250 
Q 1625 4250 1398 4047 
Q 1172 3844 1172 3481 
z
" transform="scale(0.015625)"/>
        <path id="DejaVuSans-3a" d="M 750 794 
L 1409 794 
L 1409 0 
L 750 0 
L 750 794 
z
M 750 3309 
L 1409 3309 
L 1409 2516 
L 750 2516 
L 750 3309 
z
" transform="scale(0.015625)"/>
        <path id="DejaVuSans-29" d="M 513 4856 
L 1013 4856 
Q 1481 4119 1714 3412 
Q 1947 2706 1947 2009 
Q 1947 1309 1714 600 
Q 1481 -109 1013 -844 
L 513 -844 
Q 928 -128 1133 580 
Q 1338 1288 1338 2009 
Q 1338 2731 1133 3434 
Q 928 4138 513 4856 
z
" transform="scale(0.015625)"/>
       </defs>
       <use xlink:href="#DejaVuSans-32"/>
       <use xlink:href="#DejaVuSans-30" transform="translate(63.623047 0)"/>
       <use xlink:href="#DejaVuSans-32" transform="translate(127.246094 0)"/>
       <use xlink:href="#DejaVuSans-32" transform="translate(190.869141 0)"/>
       <use xlink:href="#DejaVuSans-2d" transform="translate(254.492188 0)"/>
       <use xlink:href="#DejaVuSans-31" transform="translate(290.576172 0)"/>
       <use xlink:href="#DejaVuSans-31" transform="translate(354.199219 0)"/>
       <use xlink:href="#DejaVuSans-2d" transform="translate(417.822266 0)"/>
       <use xlink:href="#DejaVuSans-30" transform="translate(453.90625 0)"/>
       <use xlink:href="#DejaVuSans-31" transform="translate(517.529297 0)"/>
       <use xlink:href="#DejaVuSans-20" transform="translate(581.152344 0)"/>
       <use xlink:href="#DejaVuSans-28" transform="translate(612.939453 0)"/>
       <use xlink:href="#DejaVuSans-31" transform="translate(651.953125 0)"/>
       <use xlink:href="#DejaVuSans-38" transform="translate(715.576172 0)"/>
       <use xlink:href="#DejaVuSans-3a" transform="translate(779.199219 0)"/>
       <use xlink:href="#DejaVuSans-30" transform="translate(812.890625 0)"/>
       <use xlink:href="#DejaVuSans-30" transform="translate(876.513672 0)"/>
       <use xlink:href="#DejaVuSans-29" transform="translate(940.136719 0)"/>
      </g>
     </g>
    </g>
    <g id="xtick_2">
     <g id="line2d_2">
      <g>
       <use xlink:href="#m0dd61b052b" x="218.581936" y="484.397187" style="stroke: #000000; stroke-width: 0.8"/>
      </g>
     </g>
     <g id="text_2">
      <!-- 2022-11-13 (18:00) -->
      <g transform="translate(132.744673 546.93544) rotate(-30) scale(0.1 -0.1)">
       <defs>
        <path id="DejaVuSans-33" d="M 2597 2516 
Q 3050 2419 3304 2112 
Q 3559 1806 3559 1356 
Q 3559 666 3084 287 
Q 2609 -91 1734 -91 
Q 1441 -91 1130 -33 
Q 819 25 488 141 
L 488 750 
Q 750 597 1062 519 
Q 1375 441 1716 441 
Q 2309 441 2620 675 
Q 2931 909 2931 1356 
Q 2931 1769 2642 2001 
Q 2353 2234 1838 2234 
L 1294 2234 
L 1294 2753 
L 1863 2753 
Q 2328 2753 2575 2939 
Q 2822 3125 2822 3475 
Q 2822 3834 2567 4026 
Q 2313 4219 1838 4219 
Q 1578 4219 1281 4162 
Q 984 4106 628 3988 
L 628 4550 
Q 988 4650 1302 4700 
Q 1616 4750 1894 4750 
Q 2613 4750 3031 4423 
Q 3450 4097 3450 3541 
Q 3450 3153 3228 2886 
Q 3006 2619 2597 2516 
z
" transform="scale(0.015625)"/>
       </defs>
       <use xlink:href="#DejaVuSans-32"/>
       <use xlink:href="#DejaVuSans-30" transform="translate(63.623047 0)"/>
       <use xlink:href="#DejaVuSans-32" transform="translate(127.246094 0)"/>
       <use xlink:href="#DejaVuSans-32" transform="translate(190.869141 0)"/>
       <use xlink:href="#DejaVuSans-2d" transform="translate(254.492188 0)"/>
       <use xlink:href="#DejaVuSans-31" transform="translate(290.576172 0)"/>
       <use xlink:href="#DejaVuSans-31" transform="translate(354.199219 0)"/>
       <use xlink:href="#DejaVuSans-2d" transform="translate(417.822266 0)"/>
       <use xlink:href="#DejaVuSans-31" transform="translate(453.90625 0)"/>
       <use xlink:href="#DejaVuSans-33" transform="translate(517.529297 0)"/>
       <use xlink:href="#DejaVuSans-20" transform="translate(581.152344 0)"/>
       <use xlink:href="#DejaVuSans-28" transform="translate(612.939453 0)"/>
       <use xlink:href="#DejaVuSans-31" transform="translate(651.953125 0)"/>
       <use xlink:href="#DejaVuSans-38" transform="translate(715.576172 0)"/>
       <use xlink:href="#DejaVuSans-3a" transform="translate(779.199219 0)"/>
       <use xlink:href="#DejaVuSans-30" transform="translate(812.890625 0)"/>
       <use xlink:href="#DejaVuSans-30" transform="translate(876.513672 0)"/>
       <use xlink:href="#DejaVuSans-29" transform="translate(940.136719 0)"/>
      </g>
     </g>
    </g>
    <g id="xtick_3">
     <g id="line2d_3">
      <g>
       <use xlink:href="#m0dd61b052b" x="340.32739" y="484.397187" style="stroke: #000000; stroke-width: 0.8"/>
      </g>
     </g>
     <g id="text_3">
      <!-- 2022-11-25 (18:00) -->
      <g transform="translate(254.490128 546.93544) rotate(-30) scale(0.1 -0.1)">
       <defs>
        <path id="DejaVuSans-35" d="M 691 4666 
L 3169 4666 
L 3169 4134 
L 1269 4134 
L 1269 2991 
Q 1406 3038 1543 3061 
Q 1681 3084 1819 3084 
Q 2600 3084 3056 2656 
Q 3513 2228 3513 1497 
Q 3513 744 3044 326 
Q 2575 -91 1722 -91 
Q 1428 -91 1123 -41 
Q 819 9 494 109 
L 494 744 
Q 775 591 1075 516 
Q 1375 441 1709 441 
Q 2250 441 2565 725 
Q 2881 1009 2881 1497 
Q 2881 1984 2565 2268 
Q 2250 2553 1709 2553 
Q 1456 2553 1204 2497 
Q 953 2441 691 2322 
L 691 4666 
z
" transform="scale(0.015625)"/>
       </defs>
       <use xlink:href="#DejaVuSans-32"/>
       <use xlink:href="#DejaVuSans-30" transform="translate(63.623047 0)"/>
       <use xlink:href="#DejaVuSans-32" transform="translate(127.246094 0)"/>
       <use xlink:href="#DejaVuSans-32" transform="translate(190.869141 0)"/>
       <use xlink:href="#DejaVuSans-2d" transform="translate(254.492188 0)"/>
       <use xlink:href="#DejaVuSans-31" transform="translate(290.576172 0)"/>
       <use xlink:href="#DejaVuSans-31" transform="translate(354.199219 0)"/>
       <use xlink:href="#DejaVuSans-2d" transform="translate(417.822266 0)"/>
       <use xlink:href="#DejaVuSans-32" transform="translate(453.90625 0)"/>
       <use xlink:href="#DejaVuSans-35" transform="translate(517.529297 0)"/>
       <use xlink:href="#DejaVuSans-20" transform="translate(581.152344 0)"/>
       <use xlink:href="#DejaVuSans-28" transform="translate(612.939453 0)"/>
       <use xlink:href="#DejaVuSans-31" transform="translate(651.953125 0)"/>
       <use xlink:href="#DejaVuSans-38" transform="translate(715.576172 0)"/>
       <use xlink:href="#DejaVuSans-3a" transform="translate(779.199219 0)"/>
       <use xlink:href="#DejaVuSans-30" transform="translate(812.890625 0)"/>
       <use xlink:href="#DejaVuSans-30" transform="translate(876.513672 0)"/>
       <use xlink:href="#DejaVuSans-29" transform="translate(940.136719 0)"/>
      </g>
     </g>
    </g>
    <g id="xtick_4">
     <g id="line2d_4">
      <g>
       <use xlink:href="#m0dd61b052b" x="462.072845" y="484.397187" style="stroke: #000000; stroke-width: 0.8"/>
      </g>
     </g>
     <g id="text_4">
      <!-- 2022-12-07 (18:00) -->
      <g transform="translate(376.235582 546.93544) rotate(-30) scale(0.1 -0.1)">
       <defs>
        <path id="DejaVuSans-37" d="M 525 4666 
L 3525 4666 
L 3525 4397 
L 1831 0 
L 1172 0 
L 2766 4134 
L 525 4134 
L 525 4666 
z
" transform="scale(0.015625)"/>
       </defs>
       <use xlink:href="#DejaVuSans-32"/>
       <use xlink:href="#DejaVuSans-30" transform="translate(63.623047 0)"/>
       <use xlink:href="#DejaVuSans-32" transform="translate(127.246094 0)"/>
       <use xlink:href="#DejaVuSans-32" transform="translate(190.869141 0)"/>
       <use xlink:href="#DejaVuSans-2d" transform="translate(254.492188 0)"/>
       <use xlink:href="#DejaVuSans-31" transform="translate(290.576172 0)"/>
       <use xlink:href="#DejaVuSans-32" transform="translate(354.199219 0)"/>
       <use xlink:href="#DejaVuSans-2d" transform="translate(417.822266 0)"/>
       <use xlink:href="#DejaVuSans-30" transform="translate(453.90625 0)"/>
       <use xlink:href="#DejaVuSans-37" transform="translate(517.529297 0)"/>
       <use xlink:href="#DejaVuSans-20" transform="translate(581.152344 0)"/>
       <use xlink:href="#DejaVuSans-28" transform="translate(612.939453 0)"/>
       <use xlink:href="#DejaVuSans-31" transform="translate(651.953125 0)"/>
       <use xlink:href="#DejaVuSans-38" transform="translate(715.576172 0)"/>
       <use xlink:href="#DejaVuSans-3a" transform="translate(779.199219 0)"/>
       <use xlink:href="#DejaVuSans-30" transform="translate(812.890625 0)"/>
       <use xlink:href="#DejaVuSans-30" transform="translate(876.513672 0)"/>
       <use xlink:href="#DejaVuSans-29" transform="translate(940.136719 0)"/>
      </g>
     </g>
    </g>
    <g id="xtick_5">
     <g id="line2d_5">
      <g>
       <use xlink:href="#m0dd61b052b" x="583.818299" y="484.397187" style="stroke: #000000; stroke-width: 0.8"/>
      </g>
     </g>
     <g id="text_5">
      <!-- 2022-12-19 (18:00) -->
      <g transform="translate(497.981037 546.93544) rotate(-30) scale(0.1 -0.1)">
       <defs>
        <path id="DejaVuSans-39" d="M 703 97 
L 703 672 
Q 941 559 1184 500 
Q 1428 441 1663 441 
Q 2288 441 2617 861 
Q 2947 1281 2994 2138 
Q 2813 1869 2534 1725 
Q 2256 1581 1919 1581 
Q 1219 1581 811 2004 
Q 403 2428 403 3163 
Q 403 3881 828 4315 
Q 1253 4750 1959 4750 
Q 2769 4750 3195 4129 
Q 3622 3509 3622 2328 
Q 3622 1225 3098 567 
Q 2575 -91 1691 -91 
Q 1453 -91 1209 -44 
Q 966 3 703 97 
z
M 1959 2075 
Q 2384 2075 2632 2365 
Q 2881 2656 2881 3163 
Q 2881 3666 2632 3958 
Q 2384 4250 1959 4250 
Q 1534 4250 1286 3958 
Q 1038 3666 1038 3163 
Q 1038 2656 1286 2365 
Q 1534 2075 1959 2075 
z
" transform="scale(0.015625)"/>
       </defs>
       <use xlink:href="#DejaVuSans-32"/>
       <use xlink:href="#DejaVuSans-30" transform="translate(63.623047 0)"/>
       <use xlink:href="#DejaVuSans-32" transform="translate(127.246094 0)"/>
       <use xlink:href="#DejaVuSans-32" transform="translate(190.869141 0)"/>
       <use xlink:href="#DejaVuSans-2d" transform="translate(254.492188 0)"/>
       <use xlink:href="#DejaVuSans-31" transform="translate(290.576172 0)"/>
       <use xlink:href="#DejaVuSans-32" transform="translate(354.199219 0)"/>
       <use xlink:href="#DejaVuSans-2d" transform="translate(417.822266 0)"/>
       <use xlink:href="#DejaVuSans-31" transform="translate(453.90625 0)"/>
       <use xlink:href="#DejaVuSans-39" transform="translate(517.529297 0)"/>
       <use xlink:href="#DejaVuSans-20" transform="translate(581.152344 0)"/>
       <use xlink:href="#DejaVuSans-28" transform="translate(612.939453 0)"/>
       <use xlink:href="#DejaVuSans-31" transform="translate(651.953125 0)"/>
       <use xlink:href="#DejaVuSans-38" transform="translate(715.576172 0)"/>
       <use xlink:href="#DejaVuSans-3a" transform="translate(779.199219 0)"/>
       <use xlink:href="#DejaVuSans-30" transform="translate(812.890625 0)"/>
       <use xlink:href="#DejaVuSans-30" transform="translate(876.513672 0)"/>
       <use xlink:href="#DejaVuSans-29" transform="translate(940.136719 0)"/>
      </g>
     </g>
    </g>
    <g id="xtick_6">
     <g id="line2d_6">
      <g>
       <use xlink:href="#m0dd61b052b" x="705.563754" y="484.397187" style="stroke: #000000; stroke-width: 0.8"/>
      </g>
     </g>
     <g id="text_6">
      <!-- 2022-12-31 (18:00) -->
      <g transform="translate(619.726491 546.93544) rotate(-30) scale(0.1 -0.1)">
       <use xlink:href="#DejaVuSans-32"/>
       <use xlink:href="#DejaVuSans-30" transform="translate(63.623047 0)"/>
       <use xlink:href="#DejaVuSans-32" transform="translate(127.246094 0)"/>
       <use xlink:href="#DejaVuSans-32" transform="translate(190.869141 0)"/>
       <use xlink:href="#DejaVuSans-2d" transform="translate(254.492188 0)"/>
       <use xlink:href="#DejaVuSans-31" transform="translate(290.576172 0)"/>
       <use xlink:href="#DejaVuSans-32" transform="translate(354.199219 0)"/>
       <use xlink:href="#DejaVuSans-2d" transform="translate(417.822266 0)"/>
       <use xlink:href="#DejaVuSans-33" transform="translate(453.90625 0)"/>
       <use xlink:href="#DejaVuSans-31" transform="translate(517.529297 0)"/>
       <use xlink:href="#DejaVuSans-20" transform="translate(581.152344 0)"/>
       <use xlink:href="#DejaVuSans-28" transform="translate(612.939453 0)"/>
       <use xlink:href="#DejaVuSans-31" transform="translate(651.953125 0)"/>
       <use xlink:href="#DejaVuSans-38" transform="translate(715.576172 0)"/>
       <use xlink:href="#DejaVuSans-3a" transform="translate(779.199219 0)"/>
       <use xlink:href="#DejaVuSans-30" transform="translate(812.890625 0)"/>
       <use xlink:href="#DejaVuSans-30" transform="translate(876.513672 0)"/>
       <use xlink:href="#DejaVuSans-29" transform="translate(940.136719 0)"/>
      </g>
     </g>
    </g>
    <g id="text_7">
     <!-- Forecast Date -->
     <g transform="translate(345.693868 564.894002) scale(0.16 -0.16)">
      <defs>
       <path id="DejaVuSans-46" d="M 628 4666 
L 3309 4666 
L 3309 4134 
L 1259 4134 
L 1259 2759 
L 3109 2759 
L 3109 2228 
L 1259 2228 
L 1259 0 
L 628 0 
L 628 4666 
z
" transform="scale(0.015625)"/>
       <path id="DejaVuSans-6f" d="M 1959 3097 
Q 1497 3097 1228 2736 
Q 959 2375 959 1747 
Q 959 1119 1226 758 
Q 1494 397 1959 397 
Q 2419 397 2687 759 
Q 2956 1122 2956 1747 
Q 2956 2369 2687 2733 
Q 2419 3097 1959 3097 
z
M 1959 3584 
Q 2709 3584 3137 3096 
Q 3566 2609 3566 1747 
Q 3566 888 3137 398 
Q 2709 -91 1959 -91 
Q 1206 -91 779 398 
Q 353 888 353 1747 
Q 353 2609 779 3096 
Q 1206 3584 1959 3584 
z
" transform="scale(0.015625)"/>
       <path id="DejaVuSans-72" d="M 2631 2963 
Q 2534 3019 2420 3045 
Q 2306 3072 2169 3072 
Q 1681 3072 1420 2755 
Q 1159 2438 1159 1844 
L 1159 0 
L 581 0 
L 581 3500 
L 1159 3500 
L 1159 2956 
Q 1341 3275 1631 3429 
Q 1922 3584 2338 3584 
Q 2397 3584 2469 3576 
Q 2541 3569 2628 3553 
L 2631 2963 
z
" transform="scale(0.015625)"/>
       <path id="DejaVuSans-65" d="M 3597 1894 
L 3597 1613 
L 953 1613 
Q 991 1019 1311 708 
Q 1631 397 2203 397 
Q 2534 397 2845 478 
Q 3156 559 3463 722 
L 3463 178 
Q 3153 47 2828 -22 
Q 2503 -91 2169 -91 
Q 1331 -91 842 396 
Q 353 884 353 1716 
Q 353 2575 817 3079 
Q 1281 3584 2069 3584 
Q 2775 3584 3186 3129 
Q 3597 2675 3597 1894 
z
M 3022 2063 
Q 3016 2534 2758 2815 
Q 2500 3097 2075 3097 
Q 1594 3097 1305 2825 
Q 1016 2553 972 2059 
L 3022 2063 
z
" transform="scale(0.015625)"/>
       <path id="DejaVuSans-63" d="M 3122 3366 
L 3122 2828 
Q 2878 2963 2633 3030 
Q 2388 3097 2138 3097 
Q 1578 3097 1268 2742 
Q 959 2388 959 1747 
Q 959 1106 1268 751 
Q 1578 397 2138 397 
Q 2388 397 2633 464 
Q 2878 531 3122 666 
L 3122 134 
Q 2881 22 2623 -34 
Q 2366 -91 2075 -91 
Q 1284 -91 818 406 
Q 353 903 353 1747 
Q 353 2603 823 3093 
Q 1294 3584 2113 3584 
Q 2378 3584 2631 3529 
Q 2884 3475 3122 3366 
z
" transform="scale(0.015625)"/>
       <path id="DejaVuSans-61" d="M 2194 1759 
Q 1497 1759 1228 1600 
Q 959 1441 959 1056 
Q 959 750 1161 570 
Q 1363 391 1709 391 
Q 2188 391 2477 730 
Q 2766 1069 2766 1631 
L 2766 1759 
L 2194 1759 
z
M 3341 1997 
L 3341 0 
L 2766 0 
L 2766 531 
Q 2569 213 2275 61 
Q 1981 -91 1556 -91 
Q 1019 -91 701 211 
Q 384 513 384 1019 
Q 384 1609 779 1909 
Q 1175 2209 1959 2209 
L 2766 2209 
L 2766 2266 
Q 2766 2663 2505 2880 
Q 2244 3097 1772 3097 
Q 1472 3097 1187 3025 
Q 903 2953 641 2809 
L 641 3341 
Q 956 3463 1253 3523 
Q 1550 3584 1831 3584 
Q 2591 3584 2966 3190 
Q 3341 2797 3341 1997 
z
" transform="scale(0.015625)"/>
       <path id="DejaVuSans-73" d="M 2834 3397 
L 2834 2853 
Q 2591 2978 2328 3040 
Q 2066 3103 1784 3103 
Q 1356 3103 1142 2972 
Q 928 2841 928 2578 
Q 928 2378 1081 2264 
Q 1234 2150 1697 2047 
L 1894 2003 
Q 2506 1872 2764 1633 
Q 3022 1394 3022 966 
Q 3022 478 2636 193 
Q 2250 -91 1575 -91 
Q 1294 -91 989 -36 
Q 684 19 347 128 
L 347 722 
Q 666 556 975 473 
Q 1284 391 1588 391 
Q 1994 391 2212 530 
Q 2431 669 2431 922 
Q 2431 1156 2273 1281 
Q 2116 1406 1581 1522 
L 1381 1569 
Q 847 1681 609 1914 
Q 372 2147 372 2553 
Q 372 3047 722 3315 
Q 1072 3584 1716 3584 
Q 2034 3584 2315 3537 
Q 2597 3491 2834 3397 
z
" transform="scale(0.015625)"/>
       <path id="DejaVuSans-74" d="M 1172 4494 
L 1172 3500 
L 2356 3500 
L 2356 3053 
L 1172 3053 
L 1172 1153 
Q 1172 725 1289 603 
Q 1406 481 1766 481 
L 2356 481 
L 2356 0 
L 1766 0 
Q 1100 0 847 248 
Q 594 497 594 1153 
L 594 3053 
L 172 3053 
L 172 3500 
L 594 3500 
L 594 4494 
L 1172 4494 
z
" transform="scale(0.015625)"/>
       <path id="DejaVuSans-44" d="M 1259 4147 
L 1259 519 
L 2022 519 
Q 2988 519 3436 956 
Q 3884 1394 3884 2338 
Q 3884 3275 3436 3711 
Q 2988 4147 2022 4147 
L 1259 4147 
z
M 628 4666 
L 1925 4666 
Q 3281 4666 3915 4102 
Q 4550 3538 4550 2338 
Q 4550 1131 3912 565 
Q 3275 0 1925 0 
L 628 0 
L 628 4666 
z
" transform="scale(0.015625)"/>
      </defs>
      <use xlink:href="#DejaVuSans-46"/>
      <use xlink:href="#DejaVuSans-6f" transform="translate(53.894531 0)"/>
      <use xlink:href="#DejaVuSans-72" transform="translate(115.076172 0)"/>
      <use xlink:href="#DejaVuSans-65" transform="translate(153.939453 0)"/>
      <use xlink:href="#DejaVuSans-63" transform="translate(215.462891 0)"/>
      <use xlink:href="#DejaVuSans-61" transform="translate(270.443359 0)"/>
      <use xlink:href="#DejaVuSans-73" transform="translate(331.722656 0)"/>
      <use xlink:href="#DejaVuSans-74" transform="translate(383.822266 0)"/>
      <use xlink:href="#DejaVuSans-20" transform="translate(423.03125 0)"/>
      <use xlink:href="#DejaVuSans-44" transform="translate(454.818359 0)"/>
      <use xlink:href="#DejaVuSans-61" transform="translate(531.820312 0)"/>
      <use xlink:href="#DejaVuSans-74" transform="translate(593.099609 0)"/>
      <use xlink:href="#DejaVuSans-65" transform="translate(632.308594 0)"/>
     </g>
    </g>
   </g>
   <g id="matplotlib.axis_2">
    <g id="ytick_1">
     <g id="line2d_7">
      <defs>
       <path id="mc56e83d04a" d="M 0 0 
L -3.5 0 
" style="stroke: #000000; stroke-width: 0.8"/>
      </defs>
      <g>
       <use xlink:href="#mc56e83d04a" x="66.400118" y="464.743567" style="stroke: #000000; stroke-width: 0.8"/>
      </g>
     </g>
     <g id="text_8">
      <!-- 1.0 -->
      <g transform="translate(43.496993 468.542786) scale(0.1 -0.1)">
       <defs>
        <path id="DejaVuSans-2e" d="M 684 794 
L 1344 794 
L 1344 0 
L 684 0 
L 684 794 
z
" transform="scale(0.015625)"/>
       </defs>
       <use xlink:href="#DejaVuSans-31"/>
       <use xlink:href="#DejaVuSans-2e" transform="translate(63.623047 0)"/>
       <use xlink:href="#DejaVuSans-30" transform="translate(95.410156 0)"/>
      </g>
     </g>
    </g>
    <g id="ytick_2">
     <g id="line2d_8">
      <g>
       <use xlink:href="#mc56e83d04a" x="66.400118" y="403.984001" style="stroke: #000000; stroke-width: 0.8"/>
      </g>
     </g>
     <g id="text_9">
      <!-- 1.5 -->
      <g transform="translate(43.496993 407.78322) scale(0.1 -0.1)">
       <use xlink:href="#DejaVuSans-31"/>
       <use xlink:href="#DejaVuSans-2e" transform="translate(63.623047 0)"/>
       <use xlink:href="#DejaVuSans-35" transform="translate(95.410156 0)"/>
      </g>
     </g>
    </g>
    <g id="ytick_3">
     <g id="line2d_9">
      <g>
       <use xlink:href="#mc56e83d04a" x="66.400118" y="343.224435" style="stroke: #000000; stroke-width: 0.8"/>
      </g>
     </g>
     <g id="text_10">
      <!-- 2.0 -->
      <g transform="translate(43.496993 347.023653) scale(0.1 -0.1)">
       <use xlink:href="#DejaVuSans-32"/>
       <use xlink:href="#DejaVuSans-2e" transform="translate(63.623047 0)"/>
       <use xlink:href="#DejaVuSans-30" transform="translate(95.410156 0)"/>
      </g>
     </g>
    </g>
    <g id="ytick_4">
     <g id="line2d_10">
      <g>
       <use xlink:href="#mc56e83d04a" x="66.400118" y="282.464868" style="stroke: #000000; stroke-width: 0.8"/>
      </g>
     </g>
     <g id="text_11">
      <!-- 2.5 -->
      <g transform="translate(43.496993 286.264087) scale(0.1 -0.1)">
       <use xlink:href="#DejaVuSans-32"/>
       <use xlink:href="#DejaVuSans-2e" transform="translate(63.623047 0)"/>
       <use xlink:href="#DejaVuSans-35" transform="translate(95.410156 0)"/>
      </g>
     </g>
    </g>
    <g id="ytick_5">
     <g id="line2d_11">
      <g>
       <use xlink:href="#mc56e83d04a" x="66.400118" y="221.705302" style="stroke: #000000; stroke-width: 0.8"/>
      </g>
     </g>
     <g id="text_12">
      <!-- 3.0 -->
      <g transform="translate(43.496993 225.50452) scale(0.1 -0.1)">
       <use xlink:href="#DejaVuSans-33"/>
       <use xlink:href="#DejaVuSans-2e" transform="translate(63.623047 0)"/>
       <use xlink:href="#DejaVuSans-30" transform="translate(95.410156 0)"/>
      </g>
     </g>
    </g>
    <g id="ytick_6">
     <g id="line2d_12">
      <g>
       <use xlink:href="#mc56e83d04a" x="66.400118" y="160.945735" style="stroke: #000000; stroke-width: 0.8"/>
      </g>
     </g>
     <g id="text_13">
      <!-- 3.5 -->
      <g transform="translate(43.496993 164.744954) scale(0.1 -0.1)">
       <use xlink:href="#DejaVuSans-33"/>
       <use xlink:href="#DejaVuSans-2e" transform="translate(63.623047 0)"/>
       <use xlink:href="#DejaVuSans-35" transform="translate(95.410156 0)"/>
      </g>
     </g>
    </g>
    <g id="ytick_7">
     <g id="line2d_13">
      <g>
       <use xlink:href="#mc56e83d04a" x="66.400118" y="100.186169" style="stroke: #000000; stroke-width: 0.8"/>
      </g>
     </g>
     <g id="text_14">
      <!-- 4.0 -->
      <g transform="translate(43.496993 103.985387) scale(0.1 -0.1)">
       <defs>
        <path id="DejaVuSans-34" d="M 2419 4116 
L 825 1625 
L 2419 1625 
L 2419 4116 
z
M 2253 4666 
L 3047 4666 
L 3047 1625 
L 3713 1625 
L 3713 1100 
L 3047 1100 
L 3047 0 
L 2419 0 
L 2419 1100 
L 313 1100 
L 313 1709 
L 2253 4666 
z
" transform="scale(0.015625)"/>
       </defs>
       <use xlink:href="#DejaVuSans-34"/>
       <use xlink:href="#DejaVuSans-2e" transform="translate(63.623047 0)"/>
       <use xlink:href="#DejaVuSans-30" transform="translate(95.410156 0)"/>
      </g>
     </g>
    </g>
    <g id="text_15">
     <!-- Root Mean Squared Error (RMSE) -->
     <g transform="translate(36.169493 394.303437) rotate(-90) scale(0.16 -0.16)">
      <defs>
       <path id="DejaVuSans-52" d="M 2841 2188 
Q 3044 2119 3236 1894 
Q 3428 1669 3622 1275 
L 4263 0 
L 3584 0 
L 2988 1197 
Q 2756 1666 2539 1819 
Q 2322 1972 1947 1972 
L 1259 1972 
L 1259 0 
L 628 0 
L 628 4666 
L 2053 4666 
Q 2853 4666 3247 4331 
Q 3641 3997 3641 3322 
Q 3641 2881 3436 2590 
Q 3231 2300 2841 2188 
z
M 1259 4147 
L 1259 2491 
L 2053 2491 
Q 2509 2491 2742 2702 
Q 2975 2913 2975 3322 
Q 2975 3731 2742 3939 
Q 2509 4147 2053 4147 
L 1259 4147 
z
" transform="scale(0.015625)"/>
       <path id="DejaVuSans-4d" d="M 628 4666 
L 1569 4666 
L 2759 1491 
L 3956 4666 
L 4897 4666 
L 4897 0 
L 4281 0 
L 4281 4097 
L 3078 897 
L 2444 897 
L 1241 4097 
L 1241 0 
L 628 0 
L 628 4666 
z
" transform="scale(0.015625)"/>
       <path id="DejaVuSans-6e" d="M 3513 2113 
L 3513 0 
L 2938 0 
L 2938 2094 
Q 2938 2591 2744 2837 
Q 2550 3084 2163 3084 
Q 1697 3084 1428 2787 
Q 1159 2491 1159 1978 
L 1159 0 
L 581 0 
L 581 3500 
L 1159 3500 
L 1159 2956 
Q 1366 3272 1645 3428 
Q 1925 3584 2291 3584 
Q 2894 3584 3203 3211 
Q 3513 2838 3513 2113 
z
" transform="scale(0.015625)"/>
       <path id="DejaVuSans-53" d="M 3425 4513 
L 3425 3897 
Q 3066 4069 2747 4153 
Q 2428 4238 2131 4238 
Q 1616 4238 1336 4038 
Q 1056 3838 1056 3469 
Q 1056 3159 1242 3001 
Q 1428 2844 1947 2747 
L 2328 2669 
Q 3034 2534 3370 2195 
Q 3706 1856 3706 1288 
Q 3706 609 3251 259 
Q 2797 -91 1919 -91 
Q 1588 -91 1214 -16 
Q 841 59 441 206 
L 441 856 
Q 825 641 1194 531 
Q 1563 422 1919 422 
Q 2459 422 2753 634 
Q 3047 847 3047 1241 
Q 3047 1584 2836 1778 
Q 2625 1972 2144 2069 
L 1759 2144 
Q 1053 2284 737 2584 
Q 422 2884 422 3419 
Q 422 4038 858 4394 
Q 1294 4750 2059 4750 
Q 2388 4750 2728 4690 
Q 3069 4631 3425 4513 
z
" transform="scale(0.015625)"/>
       <path id="DejaVuSans-71" d="M 947 1747 
Q 947 1113 1208 752 
Q 1469 391 1925 391 
Q 2381 391 2643 752 
Q 2906 1113 2906 1747 
Q 2906 2381 2643 2742 
Q 2381 3103 1925 3103 
Q 1469 3103 1208 2742 
Q 947 2381 947 1747 
z
M 2906 525 
Q 2725 213 2448 61 
Q 2172 -91 1784 -91 
Q 1150 -91 751 415 
Q 353 922 353 1747 
Q 353 2572 751 3078 
Q 1150 3584 1784 3584 
Q 2172 3584 2448 3432 
Q 2725 3281 2906 2969 
L 2906 3500 
L 3481 3500 
L 3481 -1331 
L 2906 -1331 
L 2906 525 
z
" transform="scale(0.015625)"/>
       <path id="DejaVuSans-75" d="M 544 1381 
L 544 3500 
L 1119 3500 
L 1119 1403 
Q 1119 906 1312 657 
Q 1506 409 1894 409 
Q 2359 409 2629 706 
Q 2900 1003 2900 1516 
L 2900 3500 
L 3475 3500 
L 3475 0 
L 2900 0 
L 2900 538 
Q 2691 219 2414 64 
Q 2138 -91 1772 -91 
Q 1169 -91 856 284 
Q 544 659 544 1381 
z
M 1991 3584 
L 1991 3584 
z
" transform="scale(0.015625)"/>
       <path id="DejaVuSans-64" d="M 2906 2969 
L 2906 4863 
L 3481 4863 
L 3481 0 
L 2906 0 
L 2906 525 
Q 2725 213 2448 61 
Q 2172 -91 1784 -91 
Q 1150 -91 751 415 
Q 353 922 353 1747 
Q 353 2572 751 3078 
Q 1150 3584 1784 3584 
Q 2172 3584 2448 3432 
Q 2725 3281 2906 2969 
z
M 947 1747 
Q 947 1113 1208 752 
Q 1469 391 1925 391 
Q 2381 391 2643 752 
Q 2906 1113 2906 1747 
Q 2906 2381 2643 2742 
Q 2381 3103 1925 3103 
Q 1469 3103 1208 2742 
Q 947 2381 947 1747 
z
" transform="scale(0.015625)"/>
       <path id="DejaVuSans-45" d="M 628 4666 
L 3578 4666 
L 3578 4134 
L 1259 4134 
L 1259 2753 
L 3481 2753 
L 3481 2222 
L 1259 2222 
L 1259 531 
L 3634 531 
L 3634 0 
L 628 0 
L 628 4666 
z
" transform="scale(0.015625)"/>
      </defs>
      <use xlink:href="#DejaVuSans-52"/>
      <use xlink:href="#DejaVuSans-6f" transform="translate(64.982422 0)"/>
      <use xlink:href="#DejaVuSans-6f" transform="translate(126.164062 0)"/>
      <use xlink:href="#DejaVuSans-74" transform="translate(187.345703 0)"/>
      <use xlink:href="#DejaVuSans-20" transform="translate(226.554688 0)"/>
      <use xlink:href="#DejaVuSans-4d" transform="translate(258.341797 0)"/>
      <use xlink:href="#DejaVuSans-65" transform="translate(344.621094 0)"/>
      <use xlink:href="#DejaVuSans-61" transform="translate(406.144531 0)"/>
      <use xlink:href="#DejaVuSans-6e" transform="translate(467.423828 0)"/>
      <use xlink:href="#DejaVuSans-20" transform="translate(530.802734 0)"/>
      <use xlink:href="#DejaVuSans-53" transform="translate(562.589844 0)"/>
      <use xlink:href="#DejaVuSans-71" transform="translate(626.066406 0)"/>
      <use xlink:href="#DejaVuSans-75" transform="translate(689.542969 0)"/>
      <use xlink:href="#DejaVuSans-61" transform="translate(752.921875 0)"/>
      <use xlink:href="#DejaVuSans-72" transform="translate(814.201172 0)"/>
      <use xlink:href="#DejaVuSans-65" transform="translate(853.064453 0)"/>
      <use xlink:href="#DejaVuSans-64" transform="translate(914.587891 0)"/>
      <use xlink:href="#DejaVuSans-20" transform="translate(978.064453 0)"/>
      <use xlink:href="#DejaVuSans-45" transform="translate(1009.851562 0)"/>
      <use xlink:href="#DejaVuSans-72" transform="translate(1073.035156 0)"/>
      <use xlink:href="#DejaVuSans-72" transform="translate(1112.398438 0)"/>
      <use xlink:href="#DejaVuSans-6f" transform="translate(1151.261719 0)"/>
      <use xlink:href="#DejaVuSans-72" transform="translate(1212.443359 0)"/>
      <use xlink:href="#DejaVuSans-20" transform="translate(1253.556641 0)"/>
      <use xlink:href="#DejaVuSans-28" transform="translate(1285.34375 0)"/>
      <use xlink:href="#DejaVuSans-52" transform="translate(1324.357422 0)"/>
      <use xlink:href="#DejaVuSans-4d" transform="translate(1393.839844 0)"/>
      <use xlink:href="#DejaVuSans-53" transform="translate(1480.119141 0)"/>
      <use xlink:href="#DejaVuSans-45" transform="translate(1543.595703 0)"/>
      <use xlink:href="#DejaVuSans-29" transform="translate(1606.779297 0)"/>
     </g>
    </g>
   </g>
   <g id="line2d_14">
    <path d="M 96.836481 444.579879 
L 99.372845 450.712964 
L 101.909208 441.840189 
L 104.445572 453.000727 
L 106.981936 445.427569 
L 109.518299 446.559869 
L 112.054663 447.125179 
L 114.591027 451.278114 
L 117.12739 445.342839 
L 119.663754 452.604631 
M 127.272845 446.575557 
L 129.809208 453.015706 
L 132.345572 446.821837 
L 134.881936 454.210109 
L 137.418299 445.633461 
L 139.954663 453.046142 
L 142.491027 447.150066 
L 145.02739 453.921282 
L 147.563754 450.289387 
L 150.100118 453.709132 
L 152.636481 447.705091 
L 155.172845 451.768487 
L 157.709208 448.689588 
L 160.245572 450.576069 
L 162.781936 443.081237 
L 165.318299 450.42479 
L 167.854663 439.990242 
L 170.391027 454.429039 
L 172.92739 444.082988 
L 175.463754 447.946547 
L 178.000118 447.805886 
L 180.536481 454.369442 
L 183.072845 451.480197 
L 185.609208 455.602233 
L 188.145572 448.617505 
L 190.681936 456.300135 
L 193.218299 449.968039 
L 195.754663 455.307193 
L 198.291027 449.067185 
L 200.82739 453.750881 
L 203.363754 449.460964 
L 205.900118 455.737274 
L 208.436481 445.910582 
L 210.972845 452.853649 
L 213.509208 448.692688 
L 216.045572 456.307321 
L 218.581936 445.670024 
L 221.118299 447.300549 
L 223.654663 443.395313 
L 226.191027 447.68552 
L 228.72739 444.591294 
L 231.263754 447.382222 
L 233.800118 441.55229 
L 236.336481 446.706397 
L 238.872845 435.582639 
L 241.409208 446.467751 
L 243.945572 436.243066 
L 246.481936 444.521949 
L 249.018299 435.841841 
L 251.554663 443.165055 
L 254.091027 438.783353 
M 261.700118 447.127801 
L 264.236481 440.58028 
L 266.772845 445.967426 
L 269.309208 435.200117 
M 276.918299 446.67176 
L 279.454663 441.97917 
L 281.991027 447.793471 
L 284.52739 445.510097 
L 287.063754 449.063042 
L 289.600118 440.611411 
L 292.136481 447.358885 
L 294.672845 439.623263 
L 297.209208 448.829047 
L 299.745572 438.668405 
L 302.281936 449.351868 
L 304.818299 440.893023 
L 307.354663 448.29917 
L 309.891027 441.929816 
L 312.42739 447.219788 
L 314.963754 440.16273 
L 317.500118 441.864251 
L 320.036481 440.436345 
L 322.572845 440.523581 
L 325.109208 432.681689 
L 327.645572 439.419978 
L 330.181936 432.457877 
L 332.718299 443.207412 
L 335.254663 433.032531 
L 337.791027 442.640741 
L 340.32739 438.391371 
L 342.863754 443.913934 
L 345.400118 435.190643 
L 347.936481 437.667031 
L 350.472845 432.730131 
L 353.009208 438.114177 
L 355.545572 430.455651 
L 358.081936 436.014575 
L 360.618299 428.503519 
L 363.154663 440.646685 
L 365.691027 438.608693 
L 368.22739 443.743866 
L 370.763754 435.429129 
L 373.300118 443.81818 
L 375.836481 435.990107 
L 378.372845 442.177269 
L 380.909208 434.028878 
L 383.445572 439.100471 
L 385.981936 433.88403 
L 388.518299 433.167049 
L 391.054663 429.605398 
L 393.591027 435.927513 
L 396.12739 430.022513 
L 398.663754 434.491726 
L 401.200118 425.454345 
L 403.736481 431.383913 
L 406.272845 422.222892 
L 408.809208 429.191802 
L 411.345572 421.92733 
L 413.881936 427.605475 
L 416.418299 419.174631 
L 418.954663 428.765139 
L 421.491027 420.485851 
L 424.02739 428.727012 
L 426.563754 423.067626 
L 429.100118 428.814422 
L 431.636481 416.340057 
L 434.172845 426.765043 
L 436.709208 419.745533 
L 439.245572 429.732514 
L 441.781936 418.518957 
L 444.318299 430.727717 
L 446.854663 422.528595 
M 469.681936 435.676988 
L 472.218299 426.737403 
L 474.754663 439.519499 
L 477.291027 433.692334 
L 479.82739 438.072732 
L 482.363754 429.943332 
L 484.900118 436.227029 
L 487.436481 427.251345 
L 489.972845 430.205199 
L 492.509208 429.133176 
L 495.045572 434.396567 
L 497.581936 431.269849 
L 500.118299 434.426756 
L 502.654663 431.075328 
L 505.191027 432.005255 
L 507.72739 425.808794 
L 510.263754 433.161458 
L 512.800118 424.157902 
L 515.336481 430.920485 
L 517.872845 419.576262 
L 520.409208 427.34875 
L 522.945572 423.057921 
L 525.481936 429.045216 
L 528.018299 420.733999 
L 530.554663 428.649409 
L 533.091027 424.017994 
L 535.62739 428.970206 
L 538.163754 421.941526 
L 540.700118 422.698532 
L 543.236481 425.604321 
L 545.772845 430.676508 
L 548.309208 426.831071 
L 550.845572 434.757056 
L 553.381936 429.105232 
L 555.918299 426.031606 
L 558.454663 422.579716 
L 560.991027 430.615825 
L 563.52739 432.778095 
L 566.063754 437.32013 
L 568.600118 428.877002 
L 571.136481 436.08941 
L 573.672845 428.112029 
L 576.209208 437.709143 
L 578.745572 434.878407 
L 581.281936 442.443207 
L 583.818299 433.163703 
L 586.354663 442.192639 
L 588.891027 432.386083 
L 591.42739 441.420249 
L 593.963754 437.162737 
L 596.500118 444.844166 
L 599.036481 433.77873 
L 601.572845 439.120288 
L 604.109208 435.167175 
L 606.645572 441.254584 
L 609.181936 436.460301 
L 611.718299 435.489145 
L 614.254663 432.930229 
L 616.791027 438.430903 
L 619.32739 437.562223 
L 621.863754 440.409386 
L 624.400118 431.745286 
L 626.936481 440.05601 
L 629.472845 435.095048 
L 632.009208 433.647673 
L 634.545572 433.50087 
L 637.081936 437.670783 
L 639.618299 433.23244 
L 642.154663 437.386969 
L 644.691027 430.184223 
L 647.22739 435.829731 
L 649.763754 423.905972 
L 652.300118 435.797412 
L 654.836481 429.556941 
L 657.372845 438.576562 
L 659.909208 434.305419 
L 662.445572 438.045918 
L 664.981936 426.17615 
L 667.518299 440.143043 
L 670.054663 435.197364 
L 672.591027 440.692983 
L 675.12739 436.337632 
L 677.663754 445.163529 
L 680.200118 435.252064 
L 682.736481 443.846298 
L 685.272845 436.804073 
L 687.809208 445.835124 
L 690.345572 438.636752 
L 692.881936 445.204177 
L 695.418299 439.921085 
L 697.954663 448.56379 
L 700.491027 442.990163 
L 703.02739 444.779238 
L 705.563754 437.84004 
L 705.563754 437.84004 
" clip-path="url(#p46e38ea7cc)" style="fill: none; stroke: #0000ff; stroke-linecap: square"/>
   </g>
   <g id="line2d_15">
    <path d="M 96.836481 402.606812 
L 99.372845 374.434944 
L 101.909208 410.898732 
L 104.445572 457.364437 
L 106.981936 393.701892 
L 109.518299 389.566485 
L 112.054663 440.036903 
L 114.591027 409.261472 
L 117.12739 424.487072 
L 119.663754 337.501165 
L 124.736481 433.226515 
L 127.272845 445.997036 
L 129.809208 363.382039 
L 132.345572 398.857549 
L 134.881936 430.103448 
L 137.418299 429.450453 
L 139.954663 289.027092 
L 142.491027 316.544024 
L 145.02739 367.176339 
L 147.563754 362.22304 
L 150.100118 329.740265 
L 152.636481 371.945793 
L 155.172845 392.752191 
L 157.709208 313.550072 
L 160.245572 317.344039 
L 162.781936 384.594282 
L 165.318299 310.643037 
L 167.854663 402.501555 
L 170.391027 380.05442 
L 172.92739 302.956741 
L 175.463754 392.532015 
L 178.000118 381.559566 
L 180.536481 340.912117 
L 183.072845 362.080177 
L 185.609208 394.777827 
L 188.145572 383.438297 
L 190.681936 298.690871 
L 193.218299 369.977552 
L 195.754663 379.876631 
L 198.291027 382.409588 
L 200.82739 303.427746 
L 203.363754 411.865919 
L 205.900118 423.281515 
L 208.436481 359.68652 
L 210.972845 386.451385 
L 213.509208 426.953074 
L 216.045572 419.629774 
L 218.581936 412.680811 
L 221.118299 306.307373 
L 223.654663 429.697993 
L 226.191027 303.252202 
L 228.72739 401.918528 
L 231.263754 256.862057 
L 233.800118 428.733053 
L 236.336481 431.137647 
L 238.872845 355.479652 
L 241.409208 345.357167 
L 243.945572 240.265758 
L 246.481936 356.269107 
L 249.018299 417.238173 
L 251.554663 328.745497 
L 254.091027 262.286505 
L 256.62739 405.384455 
L 259.163754 392.192965 
L 261.700118 389.480466 
L 264.236481 394.767049 
L 266.772845 405.543079 
L 269.309208 387.343489 
L 271.845572 395.71604 
L 274.381936 314.851687 
L 276.918299 431.620386 
L 279.454663 441.06793 
L 281.991027 435.418945 
L 284.52739 447.566487 
L 287.063754 417.530476 
L 289.600118 404.931703 
L 292.136481 406.488102 
L 294.672845 447.817228 
L 297.209208 464.237187 
L 299.745572 449.109847 
L 302.281936 443.896637 
L 304.818299 440.15921 
L 307.354663 393.633575 
L 309.891027 440.981852 
L 312.42739 252.8056 
L 314.963754 373.348029 
L 317.500118 360.017906 
L 320.036481 395.447365 
L 322.572845 328.018927 
L 325.109208 430.055194 
L 327.645572 431.548824 
L 330.181936 422.581831 
L 332.718299 308.09584 
L 335.254663 374.69697 
L 337.791027 448.246151 
L 340.32739 370.063817 
L 342.863754 414.032592 
L 345.400118 422.131948 
L 347.936481 445.749945 
L 350.472845 433.122881 
L 353.009208 370.746118 
L 355.545572 414.125463 
L 358.081936 437.495326 
L 360.618299 431.699872 
L 363.154663 274.68699 
L 365.691027 448.976342 
L 368.22739 350.444666 
L 370.763754 348.520071 
L 373.300118 285.703289 
L 375.836481 263.947436 
L 378.372845 300.045303 
L 380.909208 329.454105 
L 383.445572 148.159482 
L 385.981936 277.357697 
L 388.518299 271.109824 
L 391.054663 425.567236 
L 393.591027 244.897781 
L 396.12739 301.692443 
L 398.663754 448.468195 
L 401.200118 456.428773 
L 403.736481 359.463331 
L 406.272845 349.274759 
L 408.809208 422.569301 
L 411.345572 448.409961 
L 413.881936 323.686797 
L 416.418299 359.315238 
L 418.954663 424.294405 
L 421.491027 443.415941 
L 424.02739 348.099826 
L 426.563754 310.62829 
L 429.100118 322.859374 
L 431.636481 399.083563 
L 434.172845 366.885717 
L 436.709208 372.125306 
L 439.245572 356.021233 
L 441.781936 395.897132 
L 444.318299 390.70794 
L 446.854663 381.794257 
L 449.391027 338.289649 
L 451.92739 393.439938 
L 454.463754 204.946322 
L 457.000118 329.455524 
L 459.536481 304.816075 
L 462.072845 378.265344 
L 464.609208 221.204166 
L 467.145572 342.121628 
L 469.681936 370.129237 
L 472.218299 430.664108 
L 474.754663 390.817529 
L 477.291027 419.966216 
L 479.82739 454.056337 
L 482.363754 394.128989 
L 484.900118 403.112018 
L 487.436481 381.108118 
L 489.972845 430.704684 
L 492.509208 272.91382 
L 495.045572 367.783398 
L 497.581936 409.025825 
L 500.118299 429.225149 
L 502.654663 370.651045 
L 505.191027 412.736366 
L 507.72739 428.835687 
L 510.263754 415.370611 
L 512.800118 285.965895 
L 515.336481 394.240316 
L 517.872845 395.103984 
L 520.409208 326.086206 
L 522.945572 393.518975 
L 525.481936 401.391824 
L 528.018299 395.061684 
L 530.554663 396.844081 
L 533.091027 408.013862 
L 535.62739 374.335337 
L 538.163754 387.395191 
L 540.700118 362.996937 
L 543.236481 375.559581 
L 545.772845 376.84274 
L 548.309208 311.520235 
L 550.845572 382.301738 
L 553.381936 333.795013 
L 555.918299 447.268665 
L 558.454663 407.060669 
L 560.991027 394.668021 
L 563.52739 372.850891 
L 566.063754 413.696034 
L 568.600118 362.855508 
L 571.136481 390.074459 
L 573.672845 238.145063 
L 576.209208 381.67744 
L 578.745572 345.136542 
L 581.281936 397.907572 
L 583.818299 349.343858 
L 586.354663 367.557515 
L 588.891027 410.350907 
L 591.42739 376.270549 
L 593.963754 441.150921 
L 596.500118 185.586343 
L 599.036481 315.521848 
L 601.572845 272.754791 
L 604.109208 442.785429 
L 606.645572 142.417844 
L 609.181936 391.64824 
L 611.718299 453.53324 
L 614.254663 365.232348 
L 616.791027 335.787244 
L 619.32739 438.451807 
L 621.863754 433.462612 
L 624.400118 378.612086 
L 626.936481 299.312446 
L 629.472845 392.093633 
L 632.009208 382.319324 
L 634.545572 358.251718 
L 637.081936 377.360492 
L 639.618299 409.476389 
L 642.154663 360.416798 
L 644.691027 420.663176 
L 647.22739 345.196587 
L 649.763754 423.869308 
L 652.300118 403.494092 
L 654.836481 435.865801 
L 657.372845 293.565245 
L 659.909208 375.113695 
L 662.445572 398.873136 
L 664.981936 394.420959 
L 667.518299 427.9551 
L 672.591027 448.260362 
L 675.12739 403.991824 
L 677.663754 373.990753 
L 680.200118 428.918896 
L 682.736481 389.818024 
L 685.272845 407.919498 
L 687.809208 358.70447 
L 690.345572 346.138451 
L 692.881936 392.306552 
L 695.418299 444.900937 
L 697.954663 452.221108 
L 700.491027 433.715483 
L 703.02739 448.853181 
L 705.563754 327.359225 
L 705.563754 327.359225 
" clip-path="url(#p46e38ea7cc)" style="fill: none; stroke: #ffa500; stroke-linecap: square"/>
   </g>
   <g id="line2d_16">
    <path d="M 96.836481 417.379283 
L 99.372845 408.403555 
L 101.909208 411.982605 
L 104.445572 414.141094 
L 106.981936 411.284558 
L 109.518299 417.793241 
L 112.054663 412.053761 
L 114.591027 411.210939 
L 117.12739 411.521654 
L 119.663754 413.786138 
M 127.272845 420.501583 
L 129.809208 414.745705 
L 132.345572 417.067931 
L 134.881936 413.723326 
L 137.418299 412.376195 
L 139.954663 418.580726 
L 142.491027 417.678467 
L 145.02739 419.800552 
L 147.563754 422.934107 
L 150.100118 419.814589 
L 152.636481 414.111136 
L 155.172845 419.120265 
L 157.709208 412.680724 
L 160.245572 417.080056 
L 162.781936 421.904688 
L 165.318299 415.729651 
L 167.854663 411.069684 
L 170.391027 416.534911 
L 172.92739 415.178987 
L 175.463754 417.294828 
L 178.000118 412.645045 
L 180.536481 423.927412 
L 183.072845 420.30373 
L 185.609208 424.299765 
L 188.145572 421.504811 
L 190.681936 425.920164 
L 193.218299 422.411227 
L 195.754663 421.361962 
L 198.291027 418.646377 
L 200.82739 419.02128 
L 203.363754 422.245882 
L 205.900118 421.511996 
L 208.436481 416.677281 
L 210.972845 418.036537 
L 213.509208 423.488726 
L 216.045572 419.079385 
L 218.581936 416.683539 
L 221.118299 415.891042 
L 223.654663 416.280475 
L 226.191027 419.270747 
L 228.72739 413.646549 
L 231.263754 414.963085 
L 233.800118 409.779441 
L 236.336481 407.824904 
L 238.872845 412.495055 
L 241.409208 413.185656 
L 243.945572 403.845397 
L 246.481936 406.884068 
L 249.018299 403.290169 
L 251.554663 407.839404 
L 254.091027 408.811371 
M 261.700118 409.778065 
L 264.236481 412.721605 
L 266.772845 409.225401 
L 269.309208 408.34845 
M 276.918299 410.882131 
L 279.454663 412.762398 
L 281.991027 419.719516 
L 284.52739 417.588841 
L 287.063754 411.46523 
L 289.600118 411.240187 
L 292.136481 405.141768 
L 294.672845 409.857942 
L 297.209208 415.295587 
L 299.745572 412.149761 
L 302.281936 410.680092 
L 304.818299 410.195383 
L 307.354663 414.819729 
L 309.891027 415.702562 
L 312.42739 413.073185 
L 314.963754 410.76204 
L 317.500118 409.849656 
L 320.036481 402.138125 
L 322.572845 401.758267 
L 325.109208 403.744819 
L 327.645572 403.903458 
L 330.181936 406.478744 
L 332.718299 406.430533 
L 335.254663 406.106129 
L 337.791027 411.378385 
L 340.32739 405.822084 
L 342.863754 406.17969 
L 345.400118 401.574524 
L 347.936481 403.391979 
L 350.472845 401.715808 
L 353.009208 401.211254 
L 355.545572 396.866608 
L 358.081936 400.529837 
L 360.618299 403.403017 
L 363.154663 408.156478 
L 365.691027 404.509271 
L 368.22739 403.89381 
L 370.763754 407.15115 
L 373.300118 403.170847 
L 375.836481 405.127311 
L 378.372845 407.695498 
L 380.909208 398.868399 
L 383.445572 405.838163 
L 385.981936 399.056966 
L 388.518299 403.866054 
L 391.054663 397.622295 
L 393.591027 403.702824 
L 396.12739 403.233804 
L 398.663754 398.965254 
L 401.200118 395.194088 
L 403.736481 396.48746 
L 406.272845 397.210626 
L 408.809208 398.397249 
L 411.345572 388.257279 
L 413.881936 386.635432 
L 418.954663 396.283567 
L 421.491027 386.446561 
L 424.02739 393.560014 
L 426.563754 391.785439 
L 431.636481 384.970547 
L 434.172845 391.501698 
L 436.709208 389.778983 
L 439.245572 390.443929 
L 441.781936 395.410903 
L 444.318299 391.9457 
L 446.854663 385.915656 
M 469.681936 392.289284 
L 472.218299 396.625093 
L 474.754663 409.483647 
L 477.291027 401.457809 
L 479.82739 400.732397 
L 482.363754 396.693715 
L 484.900118 401.536672 
L 487.436481 397.260575 
L 489.972845 398.405275 
L 492.509208 394.512106 
L 495.045572 399.439141 
L 497.581936 398.814003 
L 500.118299 405.040046 
L 502.654663 393.608311 
L 505.191027 396.266545 
L 507.72739 392.681136 
L 510.263754 393.678714 
L 512.800118 391.260937 
L 515.336481 391.877629 
L 517.872845 389.159712 
L 520.409208 391.229458 
L 522.945572 389.685142 
L 525.481936 390.816066 
L 528.018299 387.130035 
L 530.554663 393.497666 
L 533.091027 390.202951 
L 535.62739 396.502352 
L 538.163754 389.595936 
L 540.700118 392.083536 
L 543.236481 392.256951 
L 545.772845 397.052625 
L 548.309208 393.030181 
L 550.845572 397.952248 
L 553.381936 386.319633 
L 555.918299 395.114327 
L 558.454663 398.485862 
L 560.991027 401.138895 
L 563.52739 401.647028 
L 566.063754 401.866523 
L 568.600118 399.587089 
L 571.136481 400.786967 
L 573.672845 394.741959 
L 576.209208 407.947051 
L 578.745572 406.126584 
L 581.281936 403.015381 
L 583.818299 405.493305 
L 586.354663 400.457768 
L 588.891027 402.330009 
L 591.42739 409.877005 
L 593.963754 409.087493 
L 596.500118 406.055138 
L 599.036481 401.97556 
L 601.572845 404.570707 
L 604.109208 401.589967 
L 606.645572 403.876745 
L 609.181936 396.423895 
L 611.718299 400.957846 
L 614.254663 401.238343 
L 616.791027 406.53198 
L 619.32739 402.909095 
L 621.863754 404.884261 
L 624.400118 400.512323 
L 626.936481 403.970804 
L 629.472845 399.338752 
L 632.009208 396.528224 
L 634.545572 396.490864 
L 637.081936 404.160037 
L 639.618299 402.296676 
L 642.154663 398.548384 
L 644.691027 405.115374 
L 647.22739 398.87825 
L 649.763754 396.574537 
L 652.300118 402.427414 
L 654.836481 399.454641 
L 657.372845 405.016839 
L 659.909208 409.372234 
L 662.445572 396.704362 
L 667.518299 403.06107 
L 670.054663 403.046149 
L 672.591027 403.389864 
L 675.12739 405.033179 
L 677.663754 405.696966 
L 680.200118 399.077319 
L 682.736481 403.12846 
L 685.272845 404.758028 
L 687.809208 406.736627 
L 690.345572 404.264975 
L 692.881936 409.698492 
L 695.418299 404.102686 
L 697.954663 410.519846 
L 700.491027 410.623161 
L 703.02739 405.098498 
L 705.563754 411.540312 
L 705.563754 411.540312 
" clip-path="url(#p46e38ea7cc)" style="fill: none; stroke-dasharray: 3.7,1.6; stroke-dashoffset: 0; stroke: #0000ff"/>
   </g>
   <g id="line2d_17">
    <path d="M 96.836481 309.270903 
L 99.372845 258.031674 
L 101.909208 269.42105 
L 104.445572 401.058091 
L 106.981936 376.728067 
L 109.518299 343.241123 
L 112.054663 321.816019 
L 114.591027 426.540232 
L 117.12739 397.026724 
L 119.663754 253.628561 
L 122.200118 359.09667 
L 124.736481 425.969678 
L 127.272845 388.546902 
L 129.809208 390.625746 
L 132.345572 382.467996 
L 134.881936 333.659451 
L 137.418299 388.457942 
L 139.954663 247.804178 
L 142.491027 274.025985 
L 145.02739 326.168198 
L 147.563754 327.110149 
L 150.100118 278.382162 
L 152.636481 321.320446 
L 155.172845 212.134929 
L 157.709208 293.579905 
L 160.245572 292.695869 
L 162.781936 297.379956 
L 165.318299 298.986158 
L 167.854663 136.498837 
L 170.391027 291.596569 
L 172.92739 308.595354 
L 175.463754 287.540546 
L 178.000118 297.085886 
L 180.536481 294.832701 
L 183.072845 291.230444 
L 185.609208 337.560327 
L 188.145572 190.553606 
L 190.681936 264.706658 
L 193.218299 425.815892 
L 195.754663 337.094769 
L 198.291027 320.981845 
L 200.82739 319.333952 
L 203.363754 322.55864 
L 205.900118 334.196484 
L 208.436481 260.990279 
L 210.972845 420.264936 
L 213.509208 376.987573 
L 216.045572 302.340121 
L 218.581936 311.151213 
L 221.118299 404.801617 
L 223.654663 395.475004 
L 226.191027 270.01174 
L 228.72739 279.515708 
L 231.263754 243.624211 
L 233.800118 348.975547 
L 236.336481 339.910193 
L 238.872845 366.20191 
L 241.409208 130.263335 
L 243.945572 254.804523 
L 246.481936 294.931816 
L 249.018299 346.323889 
L 251.554663 213.598326 
L 254.091027 244.261199 
L 256.62739 329.439039 
L 259.163754 408.324823 
L 261.700118 304.071339 
L 264.236481 335.393624 
L 266.772845 310.856158 
L 269.309208 355.223898 
L 271.845572 340.051926 
L 274.381936 415.071775 
L 276.918299 334.558523 
L 279.454663 336.346933 
L 281.991027 305.366899 
L 284.52739 375.444647 
L 289.600118 436.752792 
L 292.136481 329.244634 
L 294.672845 349.014616 
L 297.209208 412.735323 
L 299.745572 286.648891 
L 302.281936 415.263427 
L 304.818299 336.061265 
L 307.354663 335.401476 
L 309.891027 203.280668 
L 312.42739 325.077531 
L 314.963754 186.052683 
L 317.500118 376.252413 
L 320.036481 276.322223 
L 322.572845 210.176857 
L 325.109208 366.738682 
L 327.645572 414.105689 
L 330.181936 406.542063 
L 332.718299 221.200052 
L 335.254663 331.236343 
L 337.791027 297.272179 
L 340.32739 300.479744 
L 342.863754 278.971895 
L 345.400118 436.215455 
L 347.936481 387.11242 
L 350.472845 377.466314 
L 353.009208 403.799635 
L 355.545572 421.469348 
L 358.081936 326.989276 
L 360.618299 262.414071 
L 363.154663 233.296008 
L 365.691027 141.837643 
L 368.22739 209.613663 
L 370.763754 328.53565 
L 373.300118 90.877388 
L 375.836481 131.966884 
L 378.372845 158.959995 
L 380.909208 143.479654 
L 383.445572 87.287068 
L 385.981936 125.764643 
L 388.518299 367.362849 
L 391.054663 357.237524 
L 393.591027 176.900991 
L 396.12739 271.708278 
L 398.663754 306.085936 
L 401.200118 332.11638 
L 403.736481 335.364652 
L 406.272845 298.021898 
L 408.809208 199.866964 
L 411.345572 382.46042 
L 413.881936 216.136049 
L 416.418299 281.186257 
L 418.954663 243.508119 
L 421.491027 236.198001 
L 424.02739 91.974458 
L 426.563754 294.387018 
L 429.100118 286.817945 
L 431.636481 318.052994 
L 434.172845 204.957824 
L 436.709208 307.098262 
L 439.245572 384.278265 
L 441.781936 253.807118 
L 444.318299 373.604826 
L 446.854663 223.028298 
L 449.391027 163.45043 
L 451.92739 194.875654 
L 454.463754 92.222114 
L 457.000118 250.713415 
L 462.072845 383.375079 
L 464.609208 184.567904 
L 467.145572 267.800536 
L 469.681936 392.844627 
L 472.218299 330.375398 
L 474.754663 408.482737 
L 477.291027 441.517393 
L 479.82739 399.337013 
L 482.363754 224.406893 
L 484.900118 288.675164 
L 487.436481 315.78118 
L 489.972845 378.089771 
L 492.509208 155.141082 
L 495.045572 364.960152 
L 497.581936 331.631353 
L 500.118299 382.570616 
L 502.654663 375.887114 
L 505.191027 71.230959 
L 507.72739 129.397697 
L 510.263754 314.338122 
L 512.800118 305.41114 
L 515.336481 72.809956 
L 517.872845 312.603166 
L 520.409208 331.112428 
L 522.945572 276.811741 
L 525.481936 324.152876 
L 528.018299 242.230174 
L 530.554663 287.248417 
L 533.091027 369.610833 
L 535.62739 344.653108 
L 538.163754 308.278801 
L 540.700118 305.761619 
L 543.236481 313.005535 
L 545.772845 338.615821 
L 548.309208 334.456975 
L 550.845572 314.318739 
L 553.381936 158.092242 
L 555.918299 343.624384 
L 558.454663 339.479344 
L 560.991027 240.839122 
L 563.52739 186.626482 
L 566.063754 286.612733 
L 568.600118 185.870331 
L 571.136481 61.037187 
L 573.672845 165.685797 
L 576.209208 247.956544 
L 578.745572 210.542866 
L 581.281936 328.707833 
L 583.818299 291.698871 
L 586.354663 339.563103 
L 588.891027 356.124752 
L 591.42739 396.25329 
L 593.963754 366.53066 
L 596.500118 191.739708 
L 599.036481 138.211744 
L 601.572845 273.361734 
L 604.109208 147.259454 
L 606.645572 92.658844 
L 609.181936 290.436253 
L 611.718299 327.16624 
L 614.254663 250.59822 
L 616.791027 192.715123 
L 619.32739 387.477443 
L 621.863754 325.332894 
L 624.400118 333.6578 
L 626.936481 245.399438 
L 629.472845 262.648284 
L 632.009208 293.549745 
L 634.545572 326.318304 
L 637.081936 345.720394 
L 639.618299 352.815348 
L 642.154663 276.999714 
L 644.691027 333.908875 
L 647.22739 406.144445 
L 649.763754 378.828322 
L 652.300118 388.041942 
L 654.836481 283.474122 
L 657.372845 242.307965 
L 659.909208 227.294023 
L 662.445572 286.704054 
L 664.981936 334.65871 
L 667.518299 318.372299 
L 670.054663 334.529058 
L 672.591027 368.368148 
L 675.12739 277.549871 
L 677.663754 292.472898 
L 680.200118 394.546395 
L 682.736481 253.744741 
L 685.272845 302.347191 
L 687.809208 295.045822 
L 690.345572 384.159087 
L 692.881936 422.270769 
L 695.418299 407.472338 
L 697.954663 359.251846 
L 700.491027 363.720205 
L 703.02739 388.968885 
L 705.563754 362.950596 
L 705.563754 362.950596 
" clip-path="url(#p46e38ea7cc)" style="fill: none; stroke-dasharray: 3.7,1.6; stroke-dashoffset: 0; stroke: #ffa500"/>
   </g>
   <g id="patch_3">
    <path d="M 66.400118 484.397187 
L 66.400118 40.877187 
" style="fill: none; stroke: #000000; stroke-width: 0.8; stroke-linejoin: miter; stroke-linecap: square"/>
   </g>
   <g id="patch_4">
    <path d="M 736.000118 484.397187 
L 736.000118 40.877187 
" style="fill: none; stroke: #000000; stroke-width: 0.8; stroke-linejoin: miter; stroke-linecap: square"/>
   </g>
   <g id="patch_5">
    <path d="M 66.400118 484.397187 
L 736.000118 484.397187 
" style="fill: none; stroke: #000000; stroke-width: 0.8; stroke-linejoin: miter; stroke-linecap: square"/>
   </g>
   <g id="patch_6">
    <path d="M 66.400118 40.877187 
L 736.000118 40.877187 
" style="fill: none; stroke: #000000; stroke-width: 0.8; stroke-linejoin: miter; stroke-linecap: square"/>
   </g>
   <g id="text_16">
    <!-- Eastward wind speed two steps forward prediction: RMSES -->
    <g transform="translate(136.784336 20.877187) scale(0.18 -0.18)">
     <defs>
      <path id="DejaVuSans-77" d="M 269 3500 
L 844 3500 
L 1563 769 
L 2278 3500 
L 2956 3500 
L 3675 769 
L 4391 3500 
L 4966 3500 
L 4050 0 
L 3372 0 
L 2619 2869 
L 1863 0 
L 1184 0 
L 269 3500 
z
" transform="scale(0.015625)"/>
      <path id="DejaVuSans-69" d="M 603 3500 
L 1178 3500 
L 1178 0 
L 603 0 
L 603 3500 
z
M 603 4863 
L 1178 4863 
L 1178 4134 
L 603 4134 
L 603 4863 
z
" transform="scale(0.015625)"/>
      <path id="DejaVuSans-70" d="M 1159 525 
L 1159 -1331 
L 581 -1331 
L 581 3500 
L 1159 3500 
L 1159 2969 
Q 1341 3281 1617 3432 
Q 1894 3584 2278 3584 
Q 2916 3584 3314 3078 
Q 3713 2572 3713 1747 
Q 3713 922 3314 415 
Q 2916 -91 2278 -91 
Q 1894 -91 1617 61 
Q 1341 213 1159 525 
z
M 3116 1747 
Q 3116 2381 2855 2742 
Q 2594 3103 2138 3103 
Q 1681 3103 1420 2742 
Q 1159 2381 1159 1747 
Q 1159 1113 1420 752 
Q 1681 391 2138 391 
Q 2594 391 2855 752 
Q 3116 1113 3116 1747 
z
" transform="scale(0.015625)"/>
      <path id="DejaVuSans-66" d="M 2375 4863 
L 2375 4384 
L 1825 4384 
Q 1516 4384 1395 4259 
Q 1275 4134 1275 3809 
L 1275 3500 
L 2222 3500 
L 2222 3053 
L 1275 3053 
L 1275 0 
L 697 0 
L 697 3053 
L 147 3053 
L 147 3500 
L 697 3500 
L 697 3744 
Q 697 4328 969 4595 
Q 1241 4863 1831 4863 
L 2375 4863 
z
" transform="scale(0.015625)"/>
     </defs>
     <use xlink:href="#DejaVuSans-45"/>
     <use xlink:href="#DejaVuSans-61" transform="translate(63.183594 0)"/>
     <use xlink:href="#DejaVuSans-73" transform="translate(124.462891 0)"/>
     <use xlink:href="#DejaVuSans-74" transform="translate(176.5625 0)"/>
     <use xlink:href="#DejaVuSans-77" transform="translate(215.771484 0)"/>
     <use xlink:href="#DejaVuSans-61" transform="translate(297.558594 0)"/>
     <use xlink:href="#DejaVuSans-72" transform="translate(358.837891 0)"/>
     <use xlink:href="#DejaVuSans-64" transform="translate(398.201172 0)"/>
     <use xlink:href="#DejaVuSans-20" transform="translate(461.677734 0)"/>
     <use xlink:href="#DejaVuSans-77" transform="translate(493.464844 0)"/>
     <use xlink:href="#DejaVuSans-69" transform="translate(575.251953 0)"/>
     <use xlink:href="#DejaVuSans-6e" transform="translate(603.035156 0)"/>
     <use xlink:href="#DejaVuSans-64" transform="translate(666.414062 0)"/>
     <use xlink:href="#DejaVuSans-20" transform="translate(729.890625 0)"/>
     <use xlink:href="#DejaVuSans-73" transform="translate(761.677734 0)"/>
     <use xlink:href="#DejaVuSans-70" transform="translate(813.777344 0)"/>
     <use xlink:href="#DejaVuSans-65" transform="translate(877.253906 0)"/>
     <use xlink:href="#DejaVuSans-65" transform="translate(938.777344 0)"/>
     <use xlink:href="#DejaVuSans-64" transform="translate(1000.300781 0)"/>
     <use xlink:href="#DejaVuSans-20" transform="translate(1063.777344 0)"/>
     <use xlink:href="#DejaVuSans-74" transform="translate(1095.564453 0)"/>
     <use xlink:href="#DejaVuSans-77" transform="translate(1134.773438 0)"/>
     <use xlink:href="#DejaVuSans-6f" transform="translate(1216.560547 0)"/>
     <use xlink:href="#DejaVuSans-20" transform="translate(1277.742188 0)"/>
     <use xlink:href="#DejaVuSans-73" transform="translate(1309.529297 0)"/>
     <use xlink:href="#DejaVuSans-74" transform="translate(1361.628906 0)"/>
     <use xlink:href="#DejaVuSans-65" transform="translate(1400.837891 0)"/>
     <use xlink:href="#DejaVuSans-70" transform="translate(1462.361328 0)"/>
     <use xlink:href="#DejaVuSans-73" transform="translate(1525.837891 0)"/>
     <use xlink:href="#DejaVuSans-20" transform="translate(1577.9375 0)"/>
     <use xlink:href="#DejaVuSans-66" transform="translate(1609.724609 0)"/>
     <use xlink:href="#DejaVuSans-6f" transform="translate(1644.929688 0)"/>
     <use xlink:href="#DejaVuSans-72" transform="translate(1706.111328 0)"/>
     <use xlink:href="#DejaVuSans-77" transform="translate(1747.224609 0)"/>
     <use xlink:href="#DejaVuSans-61" transform="translate(1829.011719 0)"/>
     <use xlink:href="#DejaVuSans-72" transform="translate(1890.291016 0)"/>
     <use xlink:href="#DejaVuSans-64" transform="translate(1929.654297 0)"/>
     <use xlink:href="#DejaVuSans-20" transform="translate(1993.130859 0)"/>
     <use xlink:href="#DejaVuSans-70" transform="translate(2024.917969 0)"/>
     <use xlink:href="#DejaVuSans-72" transform="translate(2088.394531 0)"/>
     <use xlink:href="#DejaVuSans-65" transform="translate(2127.257812 0)"/>
     <use xlink:href="#DejaVuSans-64" transform="translate(2188.78125 0)"/>
     <use xlink:href="#DejaVuSans-69" transform="translate(2252.257812 0)"/>
     <use xlink:href="#DejaVuSans-63" transform="translate(2280.041016 0)"/>
     <use xlink:href="#DejaVuSans-74" transform="translate(2335.021484 0)"/>
     <use xlink:href="#DejaVuSans-69" transform="translate(2374.230469 0)"/>
     <use xlink:href="#DejaVuSans-6f" transform="translate(2402.013672 0)"/>
     <use xlink:href="#DejaVuSans-6e" transform="translate(2463.195312 0)"/>
     <use xlink:href="#DejaVuSans-3a" transform="translate(2526.574219 0)"/>
     <use xlink:href="#DejaVuSans-20" transform="translate(2560.265625 0)"/>
     <use xlink:href="#DejaVuSans-52" transform="translate(2592.052734 0)"/>
     <use xlink:href="#DejaVuSans-4d" transform="translate(2661.535156 0)"/>
     <use xlink:href="#DejaVuSans-53" transform="translate(2747.814453 0)"/>
     <use xlink:href="#DejaVuSans-45" transform="translate(2811.291016 0)"/>
     <use xlink:href="#DejaVuSans-53" transform="translate(2874.474609 0)"/>
    </g>
   </g>
   <g id="legend_1">
    <g id="text_17">
     <!-- Forecast Horizon -->
     <g transform="translate(852.099961 65.634687) scale(0.16 -0.16)">
      <defs>
       <path id="DejaVuSans-48" d="M 628 4666 
L 1259 4666 
L 1259 2753 
L 3553 2753 
L 3553 4666 
L 4184 4666 
L 4184 0 
L 3553 0 
L 3553 2222 
L 1259 2222 
L 1259 0 
L 628 0 
L 628 4666 
z
" transform="scale(0.015625)"/>
       <path id="DejaVuSans-7a" d="M 353 3500 
L 3084 3500 
L 3084 2975 
L 922 459 
L 3084 459 
L 3084 0 
L 275 0 
L 275 525 
L 2438 3041 
L 353 3041 
L 353 3500 
z
" transform="scale(0.015625)"/>
      </defs>
      <use xlink:href="#DejaVuSans-46"/>
      <use xlink:href="#DejaVuSans-6f" transform="translate(53.894531 0)"/>
      <use xlink:href="#DejaVuSans-72" transform="translate(115.076172 0)"/>
      <use xlink:href="#DejaVuSans-65" transform="translate(153.939453 0)"/>
      <use xlink:href="#DejaVuSans-63" transform="translate(215.462891 0)"/>
      <use xlink:href="#DejaVuSans-61" transform="translate(270.443359 0)"/>
      <use xlink:href="#DejaVuSans-73" transform="translate(331.722656 0)"/>
      <use xlink:href="#DejaVuSans-74" transform="translate(383.822266 0)"/>
      <use xlink:href="#DejaVuSans-20" transform="translate(423.03125 0)"/>
      <use xlink:href="#DejaVuSans-48" transform="translate(454.818359 0)"/>
      <use xlink:href="#DejaVuSans-6f" transform="translate(530.013672 0)"/>
      <use xlink:href="#DejaVuSans-72" transform="translate(591.195312 0)"/>
      <use xlink:href="#DejaVuSans-69" transform="translate(632.308594 0)"/>
      <use xlink:href="#DejaVuSans-7a" transform="translate(660.091797 0)"/>
      <use xlink:href="#DejaVuSans-6f" transform="translate(712.582031 0)"/>
      <use xlink:href="#DejaVuSans-6e" transform="translate(773.763672 0)"/>
     </g>
    </g>
    <g id="line2d_18">
     <path d="M 782.080118 81.7 
L 796.080118 81.7 
L 810.080118 81.7 
" style="fill: none; stroke: #0000ff; stroke-linecap: square"/>
    </g>
    <g id="text_18">
     <!-- Global RMSE (6h Forecast) -->
     <g transform="translate(821.280118 86.6) scale(0.14 -0.14)">
      <defs>
       <path id="DejaVuSans-47" d="M 3809 666 
L 3809 1919 
L 2778 1919 
L 2778 2438 
L 4434 2438 
L 4434 434 
Q 4069 175 3628 42 
Q 3188 -91 2688 -91 
Q 1594 -91 976 548 
Q 359 1188 359 2328 
Q 359 3472 976 4111 
Q 1594 4750 2688 4750 
Q 3144 4750 3555 4637 
Q 3966 4525 4313 4306 
L 4313 3634 
Q 3963 3931 3569 4081 
Q 3175 4231 2741 4231 
Q 1884 4231 1454 3753 
Q 1025 3275 1025 2328 
Q 1025 1384 1454 906 
Q 1884 428 2741 428 
Q 3075 428 3337 486 
Q 3600 544 3809 666 
z
" transform="scale(0.015625)"/>
       <path id="DejaVuSans-6c" d="M 603 4863 
L 1178 4863 
L 1178 0 
L 603 0 
L 603 4863 
z
" transform="scale(0.015625)"/>
       <path id="DejaVuSans-62" d="M 3116 1747 
Q 3116 2381 2855 2742 
Q 2594 3103 2138 3103 
Q 1681 3103 1420 2742 
Q 1159 2381 1159 1747 
Q 1159 1113 1420 752 
Q 1681 391 2138 391 
Q 2594 391 2855 752 
Q 3116 1113 3116 1747 
z
M 1159 2969 
Q 1341 3281 1617 3432 
Q 1894 3584 2278 3584 
Q 2916 3584 3314 3078 
Q 3713 2572 3713 1747 
Q 3713 922 3314 415 
Q 2916 -91 2278 -91 
Q 1894 -91 1617 61 
Q 1341 213 1159 525 
L 1159 0 
L 581 0 
L 581 4863 
L 1159 4863 
L 1159 2969 
z
" transform="scale(0.015625)"/>
       <path id="DejaVuSans-36" d="M 2113 2584 
Q 1688 2584 1439 2293 
Q 1191 2003 1191 1497 
Q 1191 994 1439 701 
Q 1688 409 2113 409 
Q 2538 409 2786 701 
Q 3034 994 3034 1497 
Q 3034 2003 2786 2293 
Q 2538 2584 2113 2584 
z
M 3366 4563 
L 3366 3988 
Q 3128 4100 2886 4159 
Q 2644 4219 2406 4219 
Q 1781 4219 1451 3797 
Q 1122 3375 1075 2522 
Q 1259 2794 1537 2939 
Q 1816 3084 2150 3084 
Q 2853 3084 3261 2657 
Q 3669 2231 3669 1497 
Q 3669 778 3244 343 
Q 2819 -91 2113 -91 
Q 1303 -91 875 529 
Q 447 1150 447 2328 
Q 447 3434 972 4092 
Q 1497 4750 2381 4750 
Q 2619 4750 2861 4703 
Q 3103 4656 3366 4563 
z
" transform="scale(0.015625)"/>
       <path id="DejaVuSans-68" d="M 3513 2113 
L 3513 0 
L 2938 0 
L 2938 2094 
Q 2938 2591 2744 2837 
Q 2550 3084 2163 3084 
Q 1697 3084 1428 2787 
Q 1159 2491 1159 1978 
L 1159 0 
L 581 0 
L 581 4863 
L 1159 4863 
L 1159 2956 
Q 1366 3272 1645 3428 
Q 1925 3584 2291 3584 
Q 2894 3584 3203 3211 
Q 3513 2838 3513 2113 
z
" transform="scale(0.015625)"/>
      </defs>
      <use xlink:href="#DejaVuSans-47"/>
      <use xlink:href="#DejaVuSans-6c" transform="translate(77.490234 0)"/>
      <use xlink:href="#DejaVuSans-6f" transform="translate(105.273438 0)"/>
      <use xlink:href="#DejaVuSans-62" transform="translate(166.455078 0)"/>
      <use xlink:href="#DejaVuSans-61" transform="translate(229.931641 0)"/>
      <use xlink:href="#DejaVuSans-6c" transform="translate(291.210938 0)"/>
      <use xlink:href="#DejaVuSans-20" transform="translate(318.994141 0)"/>
      <use xlink:href="#DejaVuSans-52" transform="translate(350.78125 0)"/>
      <use xlink:href="#DejaVuSans-4d" transform="translate(420.263672 0)"/>
      <use xlink:href="#DejaVuSans-53" transform="translate(506.542969 0)"/>
      <use xlink:href="#DejaVuSans-45" transform="translate(570.019531 0)"/>
      <use xlink:href="#DejaVuSans-20" transform="translate(633.203125 0)"/>
      <use xlink:href="#DejaVuSans-28" transform="translate(664.990234 0)"/>
      <use xlink:href="#DejaVuSans-36" transform="translate(704.003906 0)"/>
      <use xlink:href="#DejaVuSans-68" transform="translate(767.626953 0)"/>
      <use xlink:href="#DejaVuSans-20" transform="translate(831.005859 0)"/>
      <use xlink:href="#DejaVuSans-46" transform="translate(862.792969 0)"/>
      <use xlink:href="#DejaVuSans-6f" transform="translate(916.6875 0)"/>
      <use xlink:href="#DejaVuSans-72" transform="translate(977.869141 0)"/>
      <use xlink:href="#DejaVuSans-65" transform="translate(1016.732422 0)"/>
      <use xlink:href="#DejaVuSans-63" transform="translate(1078.255859 0)"/>
      <use xlink:href="#DejaVuSans-61" transform="translate(1133.236328 0)"/>
      <use xlink:href="#DejaVuSans-73" transform="translate(1194.515625 0)"/>
      <use xlink:href="#DejaVuSans-74" transform="translate(1246.615234 0)"/>
      <use xlink:href="#DejaVuSans-29" transform="translate(1285.824219 0)"/>
     </g>
    </g>
    <g id="line2d_19">
     <path d="M 782.080118 102.249375 
L 796.080118 102.249375 
L 810.080118 102.249375 
" style="fill: none; stroke: #ffa500; stroke-linecap: square"/>
    </g>
    <g id="text_19">
     <!-- South Africa RMSE (6h Forecast) -->
     <g transform="translate(821.280118 107.149375) scale(0.14 -0.14)">
      <defs>
       <path id="DejaVuSans-41" d="M 2188 4044 
L 1331 1722 
L 3047 1722 
L 2188 4044 
z
M 1831 4666 
L 2547 4666 
L 4325 0 
L 3669 0 
L 3244 1197 
L 1141 1197 
L 716 0 
L 50 0 
L 1831 4666 
z
" transform="scale(0.015625)"/>
      </defs>
      <use xlink:href="#DejaVuSans-53"/>
      <use xlink:href="#DejaVuSans-6f" transform="translate(63.476562 0)"/>
      <use xlink:href="#DejaVuSans-75" transform="translate(124.658203 0)"/>
      <use xlink:href="#DejaVuSans-74" transform="translate(188.037109 0)"/>
      <use xlink:href="#DejaVuSans-68" transform="translate(227.246094 0)"/>
      <use xlink:href="#DejaVuSans-20" transform="translate(290.625 0)"/>
      <use xlink:href="#DejaVuSans-41" transform="translate(322.412109 0)"/>
      <use xlink:href="#DejaVuSans-66" transform="translate(387.195312 0)"/>
      <use xlink:href="#DejaVuSans-72" transform="translate(422.400391 0)"/>
      <use xlink:href="#DejaVuSans-69" transform="translate(463.513672 0)"/>
      <use xlink:href="#DejaVuSans-63" transform="translate(491.296875 0)"/>
      <use xlink:href="#DejaVuSans-61" transform="translate(546.277344 0)"/>
      <use xlink:href="#DejaVuSans-20" transform="translate(607.556641 0)"/>
      <use xlink:href="#DejaVuSans-52" transform="translate(639.34375 0)"/>
      <use xlink:href="#DejaVuSans-4d" transform="translate(708.826172 0)"/>
      <use xlink:href="#DejaVuSans-53" transform="translate(795.105469 0)"/>
      <use xlink:href="#DejaVuSans-45" transform="translate(858.582031 0)"/>
      <use xlink:href="#DejaVuSans-20" transform="translate(921.765625 0)"/>
      <use xlink:href="#DejaVuSans-28" transform="translate(953.552734 0)"/>
      <use xlink:href="#DejaVuSans-36" transform="translate(992.566406 0)"/>
      <use xlink:href="#DejaVuSans-68" transform="translate(1056.189453 0)"/>
      <use xlink:href="#DejaVuSans-20" transform="translate(1119.568359 0)"/>
      <use xlink:href="#DejaVuSans-46" transform="translate(1151.355469 0)"/>
      <use xlink:href="#DejaVuSans-6f" transform="translate(1205.25 0)"/>
      <use xlink:href="#DejaVuSans-72" transform="translate(1266.431641 0)"/>
      <use xlink:href="#DejaVuSans-65" transform="translate(1305.294922 0)"/>
      <use xlink:href="#DejaVuSans-63" transform="translate(1366.818359 0)"/>
      <use xlink:href="#DejaVuSans-61" transform="translate(1421.798828 0)"/>
      <use xlink:href="#DejaVuSans-73" transform="translate(1483.078125 0)"/>
      <use xlink:href="#DejaVuSans-74" transform="translate(1535.177734 0)"/>
      <use xlink:href="#DejaVuSans-29" transform="translate(1574.386719 0)"/>
     </g>
    </g>
    <g id="line2d_20">
     <path d="M 782.080118 122.79875 
L 796.080118 122.79875 
L 810.080118 122.79875 
" style="fill: none; stroke-dasharray: 3.7,1.6; stroke-dashoffset: 0; stroke: #0000ff"/>
    </g>
    <g id="text_20">
     <!-- Global RMSE (12h Forecast) -->
     <g transform="translate(821.280118 127.69875) scale(0.14 -0.14)">
      <use xlink:href="#DejaVuSans-47"/>
      <use xlink:href="#DejaVuSans-6c" transform="translate(77.490234 0)"/>
      <use xlink:href="#DejaVuSans-6f" transform="translate(105.273438 0)"/>
      <use xlink:href="#DejaVuSans-62" transform="translate(166.455078 0)"/>
      <use xlink:href="#DejaVuSans-61" transform="translate(229.931641 0)"/>
      <use xlink:href="#DejaVuSans-6c" transform="translate(291.210938 0)"/>
      <use xlink:href="#DejaVuSans-20" transform="translate(318.994141 0)"/>
      <use xlink:href="#DejaVuSans-52" transform="translate(350.78125 0)"/>
      <use xlink:href="#DejaVuSans-4d" transform="translate(420.263672 0)"/>
      <use xlink:href="#DejaVuSans-53" transform="translate(506.542969 0)"/>
      <use xlink:href="#DejaVuSans-45" transform="translate(570.019531 0)"/>
      <use xlink:href="#DejaVuSans-20" transform="translate(633.203125 0)"/>
      <use xlink:href="#DejaVuSans-28" transform="translate(664.990234 0)"/>
      <use xlink:href="#DejaVuSans-31" transform="translate(704.003906 0)"/>
      <use xlink:href="#DejaVuSans-32" transform="translate(767.626953 0)"/>
      <use xlink:href="#DejaVuSans-68" transform="translate(831.25 0)"/>
      <use xlink:href="#DejaVuSans-20" transform="translate(894.628906 0)"/>
      <use xlink:href="#DejaVuSans-46" transform="translate(926.416016 0)"/>
      <use xlink:href="#DejaVuSans-6f" transform="translate(980.310547 0)"/>
      <use xlink:href="#DejaVuSans-72" transform="translate(1041.492188 0)"/>
      <use xlink:href="#DejaVuSans-65" transform="translate(1080.355469 0)"/>
      <use xlink:href="#DejaVuSans-63" transform="translate(1141.878906 0)"/>
      <use xlink:href="#DejaVuSans-61" transform="translate(1196.859375 0)"/>
      <use xlink:href="#DejaVuSans-73" transform="translate(1258.138672 0)"/>
      <use xlink:href="#DejaVuSans-74" transform="translate(1310.238281 0)"/>
      <use xlink:href="#DejaVuSans-29" transform="translate(1349.447266 0)"/>
     </g>
    </g>
    <g id="line2d_21">
     <path d="M 782.080118 143.348125 
L 796.080118 143.348125 
L 810.080118 143.348125 
" style="fill: none; stroke-dasharray: 3.7,1.6; stroke-dashoffset: 0; stroke: #ffa500"/>
    </g>
    <g id="text_21">
     <!-- South Africa RMSE (12h Forecast) -->
     <g transform="translate(821.280118 148.248125) scale(0.14 -0.14)">
      <use xlink:href="#DejaVuSans-53"/>
      <use xlink:href="#DejaVuSans-6f" transform="translate(63.476562 0)"/>
      <use xlink:href="#DejaVuSans-75" transform="translate(124.658203 0)"/>
      <use xlink:href="#DejaVuSans-74" transform="translate(188.037109 0)"/>
      <use xlink:href="#DejaVuSans-68" transform="translate(227.246094 0)"/>
      <use xlink:href="#DejaVuSans-20" transform="translate(290.625 0)"/>
      <use xlink:href="#DejaVuSans-41" transform="translate(322.412109 0)"/>
      <use xlink:href="#DejaVuSans-66" transform="translate(387.195312 0)"/>
      <use xlink:href="#DejaVuSans-72" transform="translate(422.400391 0)"/>
      <use xlink:href="#DejaVuSans-69" transform="translate(463.513672 0)"/>
      <use xlink:href="#DejaVuSans-63" transform="translate(491.296875 0)"/>
      <use xlink:href="#DejaVuSans-61" transform="translate(546.277344 0)"/>
      <use xlink:href="#DejaVuSans-20" transform="translate(607.556641 0)"/>
      <use xlink:href="#DejaVuSans-52" transform="translate(639.34375 0)"/>
      <use xlink:href="#DejaVuSans-4d" transform="translate(708.826172 0)"/>
      <use xlink:href="#DejaVuSans-53" transform="translate(795.105469 0)"/>
      <use xlink:href="#DejaVuSans-45" transform="translate(858.582031 0)"/>
      <use xlink:href="#DejaVuSans-20" transform="translate(921.765625 0)"/>
      <use xlink:href="#DejaVuSans-28" transform="translate(953.552734 0)"/>
      <use xlink:href="#DejaVuSans-31" transform="translate(992.566406 0)"/>
      <use xlink:href="#DejaVuSans-32" transform="translate(1056.189453 0)"/>
      <use xlink:href="#DejaVuSans-68" transform="translate(1119.8125 0)"/>
      <use xlink:href="#DejaVuSans-20" transform="translate(1183.191406 0)"/>
      <use xlink:href="#DejaVuSans-46" transform="translate(1214.978516 0)"/>
      <use xlink:href="#DejaVuSans-6f" transform="translate(1268.873047 0)"/>
      <use xlink:href="#DejaVuSans-72" transform="translate(1330.054688 0)"/>
      <use xlink:href="#DejaVuSans-65" transform="translate(1368.917969 0)"/>
      <use xlink:href="#DejaVuSans-63" transform="translate(1430.441406 0)"/>
      <use xlink:href="#DejaVuSans-61" transform="translate(1485.421875 0)"/>
      <use xlink:href="#DejaVuSans-73" transform="translate(1546.701172 0)"/>
      <use xlink:href="#DejaVuSans-74" transform="translate(1598.800781 0)"/>
      <use xlink:href="#DejaVuSans-29" transform="translate(1638.009766 0)"/>
     </g>
    </g>
   </g>
  </g>
 </g>
 <defs>
  <clipPath id="p46e38ea7cc">
   <rect x="66.400118" y="40.877187" width="669.6" height="443.52"/>
  </clipPath>
 </defs>
</svg>
