<?xml version="1.0" encoding="utf-8" standalone="no"?>
<!DOCTYPE svg PUBLIC "-//W3C//DTD SVG 1.1//EN"
  "http://www.w3.org/Graphics/SVG/1.1/DTD/svg11.dtd">
<svg xmlns:xlink="http://www.w3.org/1999/xlink" width="1237.023214pt" height="575.421502pt" viewBox="0 0 1237.023214 575.421502" xmlns="http://www.w3.org/2000/svg" version="1.1">
 <metadata>
  <rdf:RDF xmlns:dc="http://purl.org/dc/elements/1.1/" xmlns:cc="http://creativecommons.org/ns#" xmlns:rdf="http://www.w3.org/1999/02/22-rdf-syntax-ns#">
   <cc:Work>
    <dc:type rdf:resource="http://purl.org/dc/dcmitype/StillImage"/>
    <dc:date>2025-02-18T11:41:49.165573</dc:date>
    <dc:format>image/svg+xml</dc:format>
    <dc:creator>
     <cc:Agent>
      <dc:title>Matplotlib v3.10.0, https://matplotlib.org/</dc:title>
     </cc:Agent>
    </dc:creator>
   </cc:Work>
  </rdf:RDF>
 </metadata>
 <defs>
  <style type="text/css">*{stroke-linejoin: round; stroke-linecap: butt}</style>
 </defs>
 <g id="figure_1">
  <g id="patch_1">
   <path d="M 0 575.421502 
L 1237.023214 575.421502 
L 1237.023214 0 
L 0 0 
z
" style="fill: #ffffff"/>
  </g>
  <g id="axes_1">
   <g id="patch_2">
    <path d="M 58.791027 484.397187 
L 895.791027 484.397187 
L 895.791027 40.877187 
L 58.791027 40.877187 
z
" style="fill: #ffffff"/>
   </g>
   <g id="matplotlib.axis_1">
    <g id="xtick_1">
     <g id="line2d_1">
      <defs>
       <path id="m21137348f9" d="M 0 0 
L 0 3.5 
" style="stroke: #000000; stroke-width: 0.8"/>
      </defs>
      <g>
       <use xlink:href="#m21137348f9" x="96.836481" y="484.397187" style="stroke: #000000; stroke-width: 0.8"/>
      </g>
     </g>
     <g id="text_1">
      <!-- 2022-01-01 (12:00) -->
      <g transform="translate(10.999219 546.93544) rotate(-30) scale(0.1 -0.1)">
       <defs>
        <path id="DejaVuSans-32" d="M 1228 531 
L 3431 531 
L 3431 0 
L 469 0 
L 469 531 
Q 828 903 1448 1529 
Q 2069 2156 2228 2338 
Q 2531 2678 2651 2914 
Q 2772 3150 2772 3378 
Q 2772 3750 2511 3984 
Q 2250 4219 1831 4219 
Q 1534 4219 1204 4116 
Q 875 4013 500 3803 
L 500 4441 
Q 881 4594 1212 4672 
Q 1544 4750 1819 4750 
Q 2544 4750 2975 4387 
Q 3406 4025 3406 3419 
Q 3406 3131 3298 2873 
Q 3191 2616 2906 2266 
Q 2828 2175 2409 1742 
Q 1991 1309 1228 531 
z
" transform="scale(0.015625)"/>
        <path id="DejaVuSans-30" d="M 2034 4250 
Q 1547 4250 1301 3770 
Q 1056 3291 1056 2328 
Q 1056 1369 1301 889 
Q 1547 409 2034 409 
Q 2525 409 2770 889 
Q 3016 1369 3016 2328 
Q 3016 3291 2770 3770 
Q 2525 4250 2034 4250 
z
M 2034 4750 
Q 2819 4750 3233 4129 
Q 3647 3509 3647 2328 
Q 3647 1150 3233 529 
Q 2819 -91 2034 -91 
Q 1250 -91 836 529 
Q 422 1150 422 2328 
Q 422 3509 836 4129 
Q 1250 4750 2034 4750 
z
" transform="scale(0.015625)"/>
        <path id="DejaVuSans-2d" d="M 313 2009 
L 1997 2009 
L 1997 1497 
L 313 1497 
L 313 2009 
z
" transform="scale(0.015625)"/>
        <path id="DejaVuSans-31" d="M 794 531 
L 1825 531 
L 1825 4091 
L 703 3866 
L 703 4441 
L 1819 4666 
L 2450 4666 
L 2450 531 
L 3481 531 
L 3481 0 
L 794 0 
L 794 531 
z
" transform="scale(0.015625)"/>
        <path id="DejaVuSans-20" transform="scale(0.015625)"/>
        <path id="DejaVuSans-28" d="M 1984 4856 
Q 1566 4138 1362 3434 
Q 1159 2731 1159 2009 
Q 1159 1288 1364 580 
Q 1569 -128 1984 -844 
L 1484 -844 
Q 1016 -109 783 600 
Q 550 1309 550 2009 
Q 550 2706 781 3412 
Q 1013 4119 1484 4856 
L 1984 4856 
z
" transform="scale(0.015625)"/>
        <path id="DejaVuSans-3a" d="M 750 794 
L 1409 794 
L 1409 0 
L 750 0 
L 750 794 
z
M 750 3309 
L 1409 3309 
L 1409 2516 
L 750 2516 
L 750 3309 
z
" transform="scale(0.015625)"/>
        <path id="DejaVuSans-29" d="M 513 4856 
L 1013 4856 
Q 1481 4119 1714 3412 
Q 1947 2706 1947 2009 
Q 1947 1309 1714 600 
Q 1481 -109 1013 -844 
L 513 -844 
Q 928 -128 1133 580 
Q 1338 1288 1338 2009 
Q 1338 2731 1133 3434 
Q 928 4138 513 4856 
z
" transform="scale(0.015625)"/>
       </defs>
       <use xlink:href="#DejaVuSans-32"/>
       <use xlink:href="#DejaVuSans-30" transform="translate(63.623047 0)"/>
       <use xlink:href="#DejaVuSans-32" transform="translate(127.246094 0)"/>
       <use xlink:href="#DejaVuSans-32" transform="translate(190.869141 0)"/>
       <use xlink:href="#DejaVuSans-2d" transform="translate(254.492188 0)"/>
       <use xlink:href="#DejaVuSans-30" transform="translate(290.576172 0)"/>
       <use xlink:href="#DejaVuSans-31" transform="translate(354.199219 0)"/>
       <use xlink:href="#DejaVuSans-2d" transform="translate(417.822266 0)"/>
       <use xlink:href="#DejaVuSans-30" transform="translate(453.90625 0)"/>
       <use xlink:href="#DejaVuSans-31" transform="translate(517.529297 0)"/>
       <use xlink:href="#DejaVuSans-20" transform="translate(581.152344 0)"/>
       <use xlink:href="#DejaVuSans-28" transform="translate(612.939453 0)"/>
       <use xlink:href="#DejaVuSans-31" transform="translate(651.953125 0)"/>
       <use xlink:href="#DejaVuSans-32" transform="translate(715.576172 0)"/>
       <use xlink:href="#DejaVuSans-3a" transform="translate(779.199219 0)"/>
       <use xlink:href="#DejaVuSans-30" transform="translate(812.890625 0)"/>
       <use xlink:href="#DejaVuSans-30" transform="translate(876.513672 0)"/>
       <use xlink:href="#DejaVuSans-29" transform="translate(940.136719 0)"/>
      </g>
     </g>
    </g>
    <g id="xtick_2">
     <g id="line2d_2">
      <g>
       <use xlink:href="#m21137348f9" x="246.573612" y="484.397187" style="stroke: #000000; stroke-width: 0.8"/>
      </g>
     </g>
     <g id="text_2">
      <!-- 2022-03-16 (00:00) -->
      <g transform="translate(160.736349 546.93544) rotate(-30) scale(0.1 -0.1)">
       <defs>
        <path id="DejaVuSans-33" d="M 2597 2516 
Q 3050 2419 3304 2112 
Q 3559 1806 3559 1356 
Q 3559 666 3084 287 
Q 2609 -91 1734 -91 
Q 1441 -91 1130 -33 
Q 819 25 488 141 
L 488 750 
Q 750 597 1062 519 
Q 1375 441 1716 441 
Q 2309 441 2620 675 
Q 2931 909 2931 1356 
Q 2931 1769 2642 2001 
Q 2353 2234 1838 2234 
L 1294 2234 
L 1294 2753 
L 1863 2753 
Q 2328 2753 2575 2939 
Q 2822 3125 2822 3475 
Q 2822 3834 2567 4026 
Q 2313 4219 1838 4219 
Q 1578 4219 1281 4162 
Q 984 4106 628 3988 
L 628 4550 
Q 988 4650 1302 4700 
Q 1616 4750 1894 4750 
Q 2613 4750 3031 4423 
Q 3450 4097 3450 3541 
Q 3450 3153 3228 2886 
Q 3006 2619 2597 2516 
z
" transform="scale(0.015625)"/>
        <path id="DejaVuSans-36" d="M 2113 2584 
Q 1688 2584 1439 2293 
Q 1191 2003 1191 1497 
Q 1191 994 1439 701 
Q 1688 409 2113 409 
Q 2538 409 2786 701 
Q 3034 994 3034 1497 
Q 3034 2003 2786 2293 
Q 2538 2584 2113 2584 
z
M 3366 4563 
L 3366 3988 
Q 3128 4100 2886 4159 
Q 2644 4219 2406 4219 
Q 1781 4219 1451 3797 
Q 1122 3375 1075 2522 
Q 1259 2794 1537 2939 
Q 1816 3084 2150 3084 
Q 2853 3084 3261 2657 
Q 3669 2231 3669 1497 
Q 3669 778 3244 343 
Q 2819 -91 2113 -91 
Q 1303 -91 875 529 
Q 447 1150 447 2328 
Q 447 3434 972 4092 
Q 1497 4750 2381 4750 
Q 2619 4750 2861 4703 
Q 3103 4656 3366 4563 
z
" transform="scale(0.015625)"/>
       </defs>
       <use xlink:href="#DejaVuSans-32"/>
       <use xlink:href="#DejaVuSans-30" transform="translate(63.623047 0)"/>
       <use xlink:href="#DejaVuSans-32" transform="translate(127.246094 0)"/>
       <use xlink:href="#DejaVuSans-32" transform="translate(190.869141 0)"/>
       <use xlink:href="#DejaVuSans-2d" transform="translate(254.492188 0)"/>
       <use xlink:href="#DejaVuSans-30" transform="translate(290.576172 0)"/>
       <use xlink:href="#DejaVuSans-33" transform="translate(354.199219 0)"/>
       <use xlink:href="#DejaVuSans-2d" transform="translate(417.822266 0)"/>
       <use xlink:href="#DejaVuSans-31" transform="translate(453.90625 0)"/>
       <use xlink:href="#DejaVuSans-36" transform="translate(517.529297 0)"/>
       <use xlink:href="#DejaVuSans-20" transform="translate(581.152344 0)"/>
       <use xlink:href="#DejaVuSans-28" transform="translate(612.939453 0)"/>
       <use xlink:href="#DejaVuSans-30" transform="translate(651.953125 0)"/>
       <use xlink:href="#DejaVuSans-30" transform="translate(715.576172 0)"/>
       <use xlink:href="#DejaVuSans-3a" transform="translate(779.199219 0)"/>
       <use xlink:href="#DejaVuSans-30" transform="translate(812.890625 0)"/>
       <use xlink:href="#DejaVuSans-30" transform="translate(876.513672 0)"/>
       <use xlink:href="#DejaVuSans-29" transform="translate(940.136719 0)"/>
      </g>
     </g>
    </g>
    <g id="xtick_3">
     <g id="line2d_3">
      <g>
       <use xlink:href="#m21137348f9" x="399.366602" y="484.397187" style="stroke: #000000; stroke-width: 0.8"/>
      </g>
     </g>
     <g id="text_3">
      <!-- 2022-05-30 (00:00) -->
      <g transform="translate(313.529339 546.93544) rotate(-30) scale(0.1 -0.1)">
       <defs>
        <path id="DejaVuSans-35" d="M 691 4666 
L 3169 4666 
L 3169 4134 
L 1269 4134 
L 1269 2991 
Q 1406 3038 1543 3061 
Q 1681 3084 1819 3084 
Q 2600 3084 3056 2656 
Q 3513 2228 3513 1497 
Q 3513 744 3044 326 
Q 2575 -91 1722 -91 
Q 1428 -91 1123 -41 
Q 819 9 494 109 
L 494 744 
Q 775 591 1075 516 
Q 1375 441 1709 441 
Q 2250 441 2565 725 
Q 2881 1009 2881 1497 
Q 2881 1984 2565 2268 
Q 2250 2553 1709 2553 
Q 1456 2553 1204 2497 
Q 953 2441 691 2322 
L 691 4666 
z
" transform="scale(0.015625)"/>
       </defs>
       <use xlink:href="#DejaVuSans-32"/>
       <use xlink:href="#DejaVuSans-30" transform="translate(63.623047 0)"/>
       <use xlink:href="#DejaVuSans-32" transform="translate(127.246094 0)"/>
       <use xlink:href="#DejaVuSans-32" transform="translate(190.869141 0)"/>
       <use xlink:href="#DejaVuSans-2d" transform="translate(254.492188 0)"/>
       <use xlink:href="#DejaVuSans-30" transform="translate(290.576172 0)"/>
       <use xlink:href="#DejaVuSans-35" transform="translate(354.199219 0)"/>
       <use xlink:href="#DejaVuSans-2d" transform="translate(417.822266 0)"/>
       <use xlink:href="#DejaVuSans-33" transform="translate(453.90625 0)"/>
       <use xlink:href="#DejaVuSans-30" transform="translate(517.529297 0)"/>
       <use xlink:href="#DejaVuSans-20" transform="translate(581.152344 0)"/>
       <use xlink:href="#DejaVuSans-28" transform="translate(612.939453 0)"/>
       <use xlink:href="#DejaVuSans-30" transform="translate(651.953125 0)"/>
       <use xlink:href="#DejaVuSans-30" transform="translate(715.576172 0)"/>
       <use xlink:href="#DejaVuSans-3a" transform="translate(779.199219 0)"/>
       <use xlink:href="#DejaVuSans-30" transform="translate(812.890625 0)"/>
       <use xlink:href="#DejaVuSans-30" transform="translate(876.513672 0)"/>
       <use xlink:href="#DejaVuSans-29" transform="translate(940.136719 0)"/>
      </g>
     </g>
    </g>
    <g id="xtick_4">
     <g id="line2d_4">
      <g>
       <use xlink:href="#m21137348f9" x="552.159592" y="484.397187" style="stroke: #000000; stroke-width: 0.8"/>
      </g>
     </g>
     <g id="text_4">
      <!-- 2022-08-13 (00:00) -->
      <g transform="translate(466.322329 546.93544) rotate(-30) scale(0.1 -0.1)">
       <defs>
        <path id="DejaVuSans-38" d="M 2034 2216 
Q 1584 2216 1326 1975 
Q 1069 1734 1069 1313 
Q 1069 891 1326 650 
Q 1584 409 2034 409 
Q 2484 409 2743 651 
Q 3003 894 3003 1313 
Q 3003 1734 2745 1975 
Q 2488 2216 2034 2216 
z
M 1403 2484 
Q 997 2584 770 2862 
Q 544 3141 544 3541 
Q 544 4100 942 4425 
Q 1341 4750 2034 4750 
Q 2731 4750 3128 4425 
Q 3525 4100 3525 3541 
Q 3525 3141 3298 2862 
Q 3072 2584 2669 2484 
Q 3125 2378 3379 2068 
Q 3634 1759 3634 1313 
Q 3634 634 3220 271 
Q 2806 -91 2034 -91 
Q 1263 -91 848 271 
Q 434 634 434 1313 
Q 434 1759 690 2068 
Q 947 2378 1403 2484 
z
M 1172 3481 
Q 1172 3119 1398 2916 
Q 1625 2713 2034 2713 
Q 2441 2713 2670 2916 
Q 2900 3119 2900 3481 
Q 2900 3844 2670 4047 
Q 2441 4250 2034 4250 
Q 1625 4250 1398 4047 
Q 1172 3844 1172 3481 
z
" transform="scale(0.015625)"/>
       </defs>
       <use xlink:href="#DejaVuSans-32"/>
       <use xlink:href="#DejaVuSans-30" transform="translate(63.623047 0)"/>
       <use xlink:href="#DejaVuSans-32" transform="translate(127.246094 0)"/>
       <use xlink:href="#DejaVuSans-32" transform="translate(190.869141 0)"/>
       <use xlink:href="#DejaVuSans-2d" transform="translate(254.492188 0)"/>
       <use xlink:href="#DejaVuSans-30" transform="translate(290.576172 0)"/>
       <use xlink:href="#DejaVuSans-38" transform="translate(354.199219 0)"/>
       <use xlink:href="#DejaVuSans-2d" transform="translate(417.822266 0)"/>
       <use xlink:href="#DejaVuSans-31" transform="translate(453.90625 0)"/>
       <use xlink:href="#DejaVuSans-33" transform="translate(517.529297 0)"/>
       <use xlink:href="#DejaVuSans-20" transform="translate(581.152344 0)"/>
       <use xlink:href="#DejaVuSans-28" transform="translate(612.939453 0)"/>
       <use xlink:href="#DejaVuSans-30" transform="translate(651.953125 0)"/>
       <use xlink:href="#DejaVuSans-30" transform="translate(715.576172 0)"/>
       <use xlink:href="#DejaVuSans-3a" transform="translate(779.199219 0)"/>
       <use xlink:href="#DejaVuSans-30" transform="translate(812.890625 0)"/>
       <use xlink:href="#DejaVuSans-30" transform="translate(876.513672 0)"/>
       <use xlink:href="#DejaVuSans-29" transform="translate(940.136719 0)"/>
      </g>
     </g>
    </g>
    <g id="xtick_5">
     <g id="line2d_5">
      <g>
       <use xlink:href="#m21137348f9" x="704.952582" y="484.397187" style="stroke: #000000; stroke-width: 0.8"/>
      </g>
     </g>
     <g id="text_5">
      <!-- 2022-10-27 (00:00) -->
      <g transform="translate(619.11532 546.93544) rotate(-30) scale(0.1 -0.1)">
       <defs>
        <path id="DejaVuSans-37" d="M 525 4666 
L 3525 4666 
L 3525 4397 
L 1831 0 
L 1172 0 
L 2766 4134 
L 525 4134 
L 525 4666 
z
" transform="scale(0.015625)"/>
       </defs>
       <use xlink:href="#DejaVuSans-32"/>
       <use xlink:href="#DejaVuSans-30" transform="translate(63.623047 0)"/>
       <use xlink:href="#DejaVuSans-32" transform="translate(127.246094 0)"/>
       <use xlink:href="#DejaVuSans-32" transform="translate(190.869141 0)"/>
       <use xlink:href="#DejaVuSans-2d" transform="translate(254.492188 0)"/>
       <use xlink:href="#DejaVuSans-31" transform="translate(290.576172 0)"/>
       <use xlink:href="#DejaVuSans-30" transform="translate(354.199219 0)"/>
       <use xlink:href="#DejaVuSans-2d" transform="translate(417.822266 0)"/>
       <use xlink:href="#DejaVuSans-32" transform="translate(453.90625 0)"/>
       <use xlink:href="#DejaVuSans-37" transform="translate(517.529297 0)"/>
       <use xlink:href="#DejaVuSans-20" transform="translate(581.152344 0)"/>
       <use xlink:href="#DejaVuSans-28" transform="translate(612.939453 0)"/>
       <use xlink:href="#DejaVuSans-30" transform="translate(651.953125 0)"/>
       <use xlink:href="#DejaVuSans-30" transform="translate(715.576172 0)"/>
       <use xlink:href="#DejaVuSans-3a" transform="translate(779.199219 0)"/>
       <use xlink:href="#DejaVuSans-30" transform="translate(812.890625 0)"/>
       <use xlink:href="#DejaVuSans-30" transform="translate(876.513672 0)"/>
       <use xlink:href="#DejaVuSans-29" transform="translate(940.136719 0)"/>
      </g>
     </g>
    </g>
    <g id="xtick_6">
     <g id="line2d_6">
      <g>
       <use xlink:href="#m21137348f9" x="857.745572" y="484.397187" style="stroke: #000000; stroke-width: 0.8"/>
      </g>
     </g>
     <g id="text_6">
      <!-- 2023-01-10 (00:00) -->
      <g transform="translate(771.90831 546.93544) rotate(-30) scale(0.1 -0.1)">
       <use xlink:href="#DejaVuSans-32"/>
       <use xlink:href="#DejaVuSans-30" transform="translate(63.623047 0)"/>
       <use xlink:href="#DejaVuSans-32" transform="translate(127.246094 0)"/>
       <use xlink:href="#DejaVuSans-33" transform="translate(190.869141 0)"/>
       <use xlink:href="#DejaVuSans-2d" transform="translate(254.492188 0)"/>
       <use xlink:href="#DejaVuSans-30" transform="translate(290.576172 0)"/>
       <use xlink:href="#DejaVuSans-31" transform="translate(354.199219 0)"/>
       <use xlink:href="#DejaVuSans-2d" transform="translate(417.822266 0)"/>
       <use xlink:href="#DejaVuSans-31" transform="translate(453.90625 0)"/>
       <use xlink:href="#DejaVuSans-30" transform="translate(517.529297 0)"/>
       <use xlink:href="#DejaVuSans-20" transform="translate(581.152344 0)"/>
       <use xlink:href="#DejaVuSans-28" transform="translate(612.939453 0)"/>
       <use xlink:href="#DejaVuSans-30" transform="translate(651.953125 0)"/>
       <use xlink:href="#DejaVuSans-30" transform="translate(715.576172 0)"/>
       <use xlink:href="#DejaVuSans-3a" transform="translate(779.199219 0)"/>
       <use xlink:href="#DejaVuSans-30" transform="translate(812.890625 0)"/>
       <use xlink:href="#DejaVuSans-30" transform="translate(876.513672 0)"/>
       <use xlink:href="#DejaVuSans-29" transform="translate(940.136719 0)"/>
      </g>
     </g>
    </g>
    <g id="text_7">
     <!-- Forecast Date -->
     <g transform="translate(421.784777 564.894002) scale(0.16 -0.16)">
      <defs>
       <path id="DejaVuSans-46" d="M 628 4666 
L 3309 4666 
L 3309 4134 
L 1259 4134 
L 1259 2759 
L 3109 2759 
L 3109 2228 
L 1259 2228 
L 1259 0 
L 628 0 
L 628 4666 
z
" transform="scale(0.015625)"/>
       <path id="DejaVuSans-6f" d="M 1959 3097 
Q 1497 3097 1228 2736 
Q 959 2375 959 1747 
Q 959 1119 1226 758 
Q 1494 397 1959 397 
Q 2419 397 2687 759 
Q 2956 1122 2956 1747 
Q 2956 2369 2687 2733 
Q 2419 3097 1959 3097 
z
M 1959 3584 
Q 2709 3584 3137 3096 
Q 3566 2609 3566 1747 
Q 3566 888 3137 398 
Q 2709 -91 1959 -91 
Q 1206 -91 779 398 
Q 353 888 353 1747 
Q 353 2609 779 3096 
Q 1206 3584 1959 3584 
z
" transform="scale(0.015625)"/>
       <path id="DejaVuSans-72" d="M 2631 2963 
Q 2534 3019 2420 3045 
Q 2306 3072 2169 3072 
Q 1681 3072 1420 2755 
Q 1159 2438 1159 1844 
L 1159 0 
L 581 0 
L 581 3500 
L 1159 3500 
L 1159 2956 
Q 1341 3275 1631 3429 
Q 1922 3584 2338 3584 
Q 2397 3584 2469 3576 
Q 2541 3569 2628 3553 
L 2631 2963 
z
" transform="scale(0.015625)"/>
       <path id="DejaVuSans-65" d="M 3597 1894 
L 3597 1613 
L 953 1613 
Q 991 1019 1311 708 
Q 1631 397 2203 397 
Q 2534 397 2845 478 
Q 3156 559 3463 722 
L 3463 178 
Q 3153 47 2828 -22 
Q 2503 -91 2169 -91 
Q 1331 -91 842 396 
Q 353 884 353 1716 
Q 353 2575 817 3079 
Q 1281 3584 2069 3584 
Q 2775 3584 3186 3129 
Q 3597 2675 3597 1894 
z
M 3022 2063 
Q 3016 2534 2758 2815 
Q 2500 3097 2075 3097 
Q 1594 3097 1305 2825 
Q 1016 2553 972 2059 
L 3022 2063 
z
" transform="scale(0.015625)"/>
       <path id="DejaVuSans-63" d="M 3122 3366 
L 3122 2828 
Q 2878 2963 2633 3030 
Q 2388 3097 2138 3097 
Q 1578 3097 1268 2742 
Q 959 2388 959 1747 
Q 959 1106 1268 751 
Q 1578 397 2138 397 
Q 2388 397 2633 464 
Q 2878 531 3122 666 
L 3122 134 
Q 2881 22 2623 -34 
Q 2366 -91 2075 -91 
Q 1284 -91 818 406 
Q 353 903 353 1747 
Q 353 2603 823 3093 
Q 1294 3584 2113 3584 
Q 2378 3584 2631 3529 
Q 2884 3475 3122 3366 
z
" transform="scale(0.015625)"/>
       <path id="DejaVuSans-61" d="M 2194 1759 
Q 1497 1759 1228 1600 
Q 959 1441 959 1056 
Q 959 750 1161 570 
Q 1363 391 1709 391 
Q 2188 391 2477 730 
Q 2766 1069 2766 1631 
L 2766 1759 
L 2194 1759 
z
M 3341 1997 
L 3341 0 
L 2766 0 
L 2766 531 
Q 2569 213 2275 61 
Q 1981 -91 1556 -91 
Q 1019 -91 701 211 
Q 384 513 384 1019 
Q 384 1609 779 1909 
Q 1175 2209 1959 2209 
L 2766 2209 
L 2766 2266 
Q 2766 2663 2505 2880 
Q 2244 3097 1772 3097 
Q 1472 3097 1187 3025 
Q 903 2953 641 2809 
L 641 3341 
Q 956 3463 1253 3523 
Q 1550 3584 1831 3584 
Q 2591 3584 2966 3190 
Q 3341 2797 3341 1997 
z
" transform="scale(0.015625)"/>
       <path id="DejaVuSans-73" d="M 2834 3397 
L 2834 2853 
Q 2591 2978 2328 3040 
Q 2066 3103 1784 3103 
Q 1356 3103 1142 2972 
Q 928 2841 928 2578 
Q 928 2378 1081 2264 
Q 1234 2150 1697 2047 
L 1894 2003 
Q 2506 1872 2764 1633 
Q 3022 1394 3022 966 
Q 3022 478 2636 193 
Q 2250 -91 1575 -91 
Q 1294 -91 989 -36 
Q 684 19 347 128 
L 347 722 
Q 666 556 975 473 
Q 1284 391 1588 391 
Q 1994 391 2212 530 
Q 2431 669 2431 922 
Q 2431 1156 2273 1281 
Q 2116 1406 1581 1522 
L 1381 1569 
Q 847 1681 609 1914 
Q 372 2147 372 2553 
Q 372 3047 722 3315 
Q 1072 3584 1716 3584 
Q 2034 3584 2315 3537 
Q 2597 3491 2834 3397 
z
" transform="scale(0.015625)"/>
       <path id="DejaVuSans-74" d="M 1172 4494 
L 1172 3500 
L 2356 3500 
L 2356 3053 
L 1172 3053 
L 1172 1153 
Q 1172 725 1289 603 
Q 1406 481 1766 481 
L 2356 481 
L 2356 0 
L 1766 0 
Q 1100 0 847 248 
Q 594 497 594 1153 
L 594 3053 
L 172 3053 
L 172 3500 
L 594 3500 
L 594 4494 
L 1172 4494 
z
" transform="scale(0.015625)"/>
       <path id="DejaVuSans-44" d="M 1259 4147 
L 1259 519 
L 2022 519 
Q 2988 519 3436 956 
Q 3884 1394 3884 2338 
Q 3884 3275 3436 3711 
Q 2988 4147 2022 4147 
L 1259 4147 
z
M 628 4666 
L 1925 4666 
Q 3281 4666 3915 4102 
Q 4550 3538 4550 2338 
Q 4550 1131 3912 565 
Q 3275 0 1925 0 
L 628 0 
L 628 4666 
z
" transform="scale(0.015625)"/>
      </defs>
      <use xlink:href="#DejaVuSans-46"/>
      <use xlink:href="#DejaVuSans-6f" transform="translate(53.894531 0)"/>
      <use xlink:href="#DejaVuSans-72" transform="translate(115.076172 0)"/>
      <use xlink:href="#DejaVuSans-65" transform="translate(153.939453 0)"/>
      <use xlink:href="#DejaVuSans-63" transform="translate(215.462891 0)"/>
      <use xlink:href="#DejaVuSans-61" transform="translate(270.443359 0)"/>
      <use xlink:href="#DejaVuSans-73" transform="translate(331.722656 0)"/>
      <use xlink:href="#DejaVuSans-74" transform="translate(383.822266 0)"/>
      <use xlink:href="#DejaVuSans-20" transform="translate(423.03125 0)"/>
      <use xlink:href="#DejaVuSans-44" transform="translate(454.818359 0)"/>
      <use xlink:href="#DejaVuSans-61" transform="translate(531.820312 0)"/>
      <use xlink:href="#DejaVuSans-74" transform="translate(593.099609 0)"/>
      <use xlink:href="#DejaVuSans-65" transform="translate(632.308594 0)"/>
     </g>
    </g>
   </g>
   <g id="matplotlib.axis_2">
    <g id="ytick_1">
     <g id="line2d_7">
      <defs>
       <path id="me6cefaabef" d="M 0 0 
L -3.5 0 
" style="stroke: #000000; stroke-width: 0.8"/>
      </defs>
      <g>
       <use xlink:href="#me6cefaabef" x="58.791027" y="452.579955" style="stroke: #000000; stroke-width: 0.8"/>
      </g>
     </g>
     <g id="text_8">
      <!-- 2 -->
      <g transform="translate(45.428527 456.379173) scale(0.1 -0.1)">
       <use xlink:href="#DejaVuSans-32"/>
      </g>
     </g>
    </g>
    <g id="ytick_2">
     <g id="line2d_8">
      <g>
       <use xlink:href="#me6cefaabef" x="58.791027" y="384.275151" style="stroke: #000000; stroke-width: 0.8"/>
      </g>
     </g>
     <g id="text_9">
      <!-- 4 -->
      <g transform="translate(45.428527 388.074369) scale(0.1 -0.1)">
       <defs>
        <path id="DejaVuSans-34" d="M 2419 4116 
L 825 1625 
L 2419 1625 
L 2419 4116 
z
M 2253 4666 
L 3047 4666 
L 3047 1625 
L 3713 1625 
L 3713 1100 
L 3047 1100 
L 3047 0 
L 2419 0 
L 2419 1100 
L 313 1100 
L 313 1709 
L 2253 4666 
z
" transform="scale(0.015625)"/>
       </defs>
       <use xlink:href="#DejaVuSans-34"/>
      </g>
     </g>
    </g>
    <g id="ytick_3">
     <g id="line2d_9">
      <g>
       <use xlink:href="#me6cefaabef" x="58.791027" y="315.970347" style="stroke: #000000; stroke-width: 0.8"/>
      </g>
     </g>
     <g id="text_10">
      <!-- 6 -->
      <g transform="translate(45.428527 319.769566) scale(0.1 -0.1)">
       <use xlink:href="#DejaVuSans-36"/>
      </g>
     </g>
    </g>
    <g id="ytick_4">
     <g id="line2d_10">
      <g>
       <use xlink:href="#me6cefaabef" x="58.791027" y="247.665543" style="stroke: #000000; stroke-width: 0.8"/>
      </g>
     </g>
     <g id="text_11">
      <!-- 8 -->
      <g transform="translate(45.428527 251.464762) scale(0.1 -0.1)">
       <use xlink:href="#DejaVuSans-38"/>
      </g>
     </g>
    </g>
    <g id="ytick_5">
     <g id="line2d_11">
      <g>
       <use xlink:href="#me6cefaabef" x="58.791027" y="179.360739" style="stroke: #000000; stroke-width: 0.8"/>
      </g>
     </g>
     <g id="text_12">
      <!-- 10 -->
      <g transform="translate(39.066027 183.159958) scale(0.1 -0.1)">
       <use xlink:href="#DejaVuSans-31"/>
       <use xlink:href="#DejaVuSans-30" transform="translate(63.623047 0)"/>
      </g>
     </g>
    </g>
    <g id="ytick_6">
     <g id="line2d_12">
      <g>
       <use xlink:href="#me6cefaabef" x="58.791027" y="111.055935" style="stroke: #000000; stroke-width: 0.8"/>
      </g>
     </g>
     <g id="text_13">
      <!-- 12 -->
      <g transform="translate(39.066027 114.855154) scale(0.1 -0.1)">
       <use xlink:href="#DejaVuSans-31"/>
       <use xlink:href="#DejaVuSans-32" transform="translate(63.623047 0)"/>
      </g>
     </g>
    </g>
    <g id="ytick_7">
     <g id="line2d_13">
      <g>
       <use xlink:href="#me6cefaabef" x="58.791027" y="42.751131" style="stroke: #000000; stroke-width: 0.8"/>
      </g>
     </g>
     <g id="text_14">
      <!-- 14 -->
      <g transform="translate(39.066027 46.55035) scale(0.1 -0.1)">
       <use xlink:href="#DejaVuSans-31"/>
       <use xlink:href="#DejaVuSans-34" transform="translate(63.623047 0)"/>
      </g>
     </g>
    </g>
    <g id="text_15">
     <!-- Root Mean Squared Error (RMSE) -->
     <g transform="translate(31.738527 394.303437) rotate(-90) scale(0.16 -0.16)">
      <defs>
       <path id="DejaVuSans-52" d="M 2841 2188 
Q 3044 2119 3236 1894 
Q 3428 1669 3622 1275 
L 4263 0 
L 3584 0 
L 2988 1197 
Q 2756 1666 2539 1819 
Q 2322 1972 1947 1972 
L 1259 1972 
L 1259 0 
L 628 0 
L 628 4666 
L 2053 4666 
Q 2853 4666 3247 4331 
Q 3641 3997 3641 3322 
Q 3641 2881 3436 2590 
Q 3231 2300 2841 2188 
z
M 1259 4147 
L 1259 2491 
L 2053 2491 
Q 2509 2491 2742 2702 
Q 2975 2913 2975 3322 
Q 2975 3731 2742 3939 
Q 2509 4147 2053 4147 
L 1259 4147 
z
" transform="scale(0.015625)"/>
       <path id="DejaVuSans-4d" d="M 628 4666 
L 1569 4666 
L 2759 1491 
L 3956 4666 
L 4897 4666 
L 4897 0 
L 4281 0 
L 4281 4097 
L 3078 897 
L 2444 897 
L 1241 4097 
L 1241 0 
L 628 0 
L 628 4666 
z
" transform="scale(0.015625)"/>
       <path id="DejaVuSans-6e" d="M 3513 2113 
L 3513 0 
L 2938 0 
L 2938 2094 
Q 2938 2591 2744 2837 
Q 2550 3084 2163 3084 
Q 1697 3084 1428 2787 
Q 1159 2491 1159 1978 
L 1159 0 
L 581 0 
L 581 3500 
L 1159 3500 
L 1159 2956 
Q 1366 3272 1645 3428 
Q 1925 3584 2291 3584 
Q 2894 3584 3203 3211 
Q 3513 2838 3513 2113 
z
" transform="scale(0.015625)"/>
       <path id="DejaVuSans-53" d="M 3425 4513 
L 3425 3897 
Q 3066 4069 2747 4153 
Q 2428 4238 2131 4238 
Q 1616 4238 1336 4038 
Q 1056 3838 1056 3469 
Q 1056 3159 1242 3001 
Q 1428 2844 1947 2747 
L 2328 2669 
Q 3034 2534 3370 2195 
Q 3706 1856 3706 1288 
Q 3706 609 3251 259 
Q 2797 -91 1919 -91 
Q 1588 -91 1214 -16 
Q 841 59 441 206 
L 441 856 
Q 825 641 1194 531 
Q 1563 422 1919 422 
Q 2459 422 2753 634 
Q 3047 847 3047 1241 
Q 3047 1584 2836 1778 
Q 2625 1972 2144 2069 
L 1759 2144 
Q 1053 2284 737 2584 
Q 422 2884 422 3419 
Q 422 4038 858 4394 
Q 1294 4750 2059 4750 
Q 2388 4750 2728 4690 
Q 3069 4631 3425 4513 
z
" transform="scale(0.015625)"/>
       <path id="DejaVuSans-71" d="M 947 1747 
Q 947 1113 1208 752 
Q 1469 391 1925 391 
Q 2381 391 2643 752 
Q 2906 1113 2906 1747 
Q 2906 2381 2643 2742 
Q 2381 3103 1925 3103 
Q 1469 3103 1208 2742 
Q 947 2381 947 1747 
z
M 2906 525 
Q 2725 213 2448 61 
Q 2172 -91 1784 -91 
Q 1150 -91 751 415 
Q 353 922 353 1747 
Q 353 2572 751 3078 
Q 1150 3584 1784 3584 
Q 2172 3584 2448 3432 
Q 2725 3281 2906 2969 
L 2906 3500 
L 3481 3500 
L 3481 -1331 
L 2906 -1331 
L 2906 525 
z
" transform="scale(0.015625)"/>
       <path id="DejaVuSans-75" d="M 544 1381 
L 544 3500 
L 1119 3500 
L 1119 1403 
Q 1119 906 1312 657 
Q 1506 409 1894 409 
Q 2359 409 2629 706 
Q 2900 1003 2900 1516 
L 2900 3500 
L 3475 3500 
L 3475 0 
L 2900 0 
L 2900 538 
Q 2691 219 2414 64 
Q 2138 -91 1772 -91 
Q 1169 -91 856 284 
Q 544 659 544 1381 
z
M 1991 3584 
L 1991 3584 
z
" transform="scale(0.015625)"/>
       <path id="DejaVuSans-64" d="M 2906 2969 
L 2906 4863 
L 3481 4863 
L 3481 0 
L 2906 0 
L 2906 525 
Q 2725 213 2448 61 
Q 2172 -91 1784 -91 
Q 1150 -91 751 415 
Q 353 922 353 1747 
Q 353 2572 751 3078 
Q 1150 3584 1784 3584 
Q 2172 3584 2448 3432 
Q 2725 3281 2906 2969 
z
M 947 1747 
Q 947 1113 1208 752 
Q 1469 391 1925 391 
Q 2381 391 2643 752 
Q 2906 1113 2906 1747 
Q 2906 2381 2643 2742 
Q 2381 3103 1925 3103 
Q 1469 3103 1208 2742 
Q 947 2381 947 1747 
z
" transform="scale(0.015625)"/>
       <path id="DejaVuSans-45" d="M 628 4666 
L 3578 4666 
L 3578 4134 
L 1259 4134 
L 1259 2753 
L 3481 2753 
L 3481 2222 
L 1259 2222 
L 1259 531 
L 3634 531 
L 3634 0 
L 628 0 
L 628 4666 
z
" transform="scale(0.015625)"/>
      </defs>
      <use xlink:href="#DejaVuSans-52"/>
      <use xlink:href="#DejaVuSans-6f" transform="translate(64.982422 0)"/>
      <use xlink:href="#DejaVuSans-6f" transform="translate(126.164062 0)"/>
      <use xlink:href="#DejaVuSans-74" transform="translate(187.345703 0)"/>
      <use xlink:href="#DejaVuSans-20" transform="translate(226.554688 0)"/>
      <use xlink:href="#DejaVuSans-4d" transform="translate(258.341797 0)"/>
      <use xlink:href="#DejaVuSans-65" transform="translate(344.621094 0)"/>
      <use xlink:href="#DejaVuSans-61" transform="translate(406.144531 0)"/>
      <use xlink:href="#DejaVuSans-6e" transform="translate(467.423828 0)"/>
      <use xlink:href="#DejaVuSans-20" transform="translate(530.802734 0)"/>
      <use xlink:href="#DejaVuSans-53" transform="translate(562.589844 0)"/>
      <use xlink:href="#DejaVuSans-71" transform="translate(626.066406 0)"/>
      <use xlink:href="#DejaVuSans-75" transform="translate(689.542969 0)"/>
      <use xlink:href="#DejaVuSans-61" transform="translate(752.921875 0)"/>
      <use xlink:href="#DejaVuSans-72" transform="translate(814.201172 0)"/>
      <use xlink:href="#DejaVuSans-65" transform="translate(853.064453 0)"/>
      <use xlink:href="#DejaVuSans-64" transform="translate(914.587891 0)"/>
      <use xlink:href="#DejaVuSans-20" transform="translate(978.064453 0)"/>
      <use xlink:href="#DejaVuSans-45" transform="translate(1009.851562 0)"/>
      <use xlink:href="#DejaVuSans-72" transform="translate(1073.035156 0)"/>
      <use xlink:href="#DejaVuSans-72" transform="translate(1112.398438 0)"/>
      <use xlink:href="#DejaVuSans-6f" transform="translate(1151.261719 0)"/>
      <use xlink:href="#DejaVuSans-72" transform="translate(1212.443359 0)"/>
      <use xlink:href="#DejaVuSans-20" transform="translate(1253.556641 0)"/>
      <use xlink:href="#DejaVuSans-28" transform="translate(1285.34375 0)"/>
      <use xlink:href="#DejaVuSans-52" transform="translate(1324.357422 0)"/>
      <use xlink:href="#DejaVuSans-4d" transform="translate(1393.839844 0)"/>
      <use xlink:href="#DejaVuSans-53" transform="translate(1480.119141 0)"/>
      <use xlink:href="#DejaVuSans-45" transform="translate(1543.595703 0)"/>
      <use xlink:href="#DejaVuSans-29" transform="translate(1606.779297 0)"/>
     </g>
    </g>
   </g>
   <g id="line2d_14">
    <path d="M 96.836481 291.900267 
L 99.892341 309.449193 
L 102.948201 294.103369 
L 106.004061 265.040413 
L 109.05992 287.206435 
L 112.11578 299.783868 
L 115.17164 299.614633 
L 118.2275 303.941235 
L 121.28336 305.397712 
L 124.339219 307.865643 
L 127.395079 288.076322 
L 130.450939 287.591481 
L 133.506799 276.924343 
L 136.562659 290.110466 
L 139.618518 289.641144 
L 142.674378 295.800361 
L 145.730238 321.788895 
L 148.786098 314.404043 
L 151.841958 310.488885 
L 154.897817 300.162856 
L 157.953677 301.871231 
L 161.009537 303.122402 
L 164.065397 307.38471 
L 167.121257 294.738994 
L 170.177116 312.637252 
L 173.232976 308.563933 
L 176.288836 310.711975 
L 179.344696 321.672798 
L 182.400556 312.090837 
L 185.456415 299.569214 
L 188.512275 300.743307 
L 191.568135 300.578045 
L 194.623995 287.04544 
L 197.679855 287.69398 
L 200.735714 292.326253 
L 203.791574 295.903365 
L 206.847434 308.39232 
L 209.903294 301.456709 
L 212.959154 303.050324 
L 216.015013 311.365481 
L 219.070873 305.541835 
L 225.182593 298.321235 
L 228.238453 301.523169 
L 231.294313 299.613525 
L 234.350172 315.874379 
L 237.406032 316.432763 
L 240.461892 269.66163 
L 243.517752 268.602216 
L 246.573612 308.105897 
L 249.629471 306.339188 
L 252.685331 291.17509 
L 255.741191 284.123741 
L 258.797051 283.463851 
L 261.852911 287.593631 
L 264.90877 308.654299 
L 267.96463 294.329244 
L 271.02049 267.896223 
L 274.07635 266.363369 
L 277.13221 277.419916 
L 280.188069 284.197903 
L 283.243929 302.885877 
L 286.299789 292.087823 
L 289.355649 300.687449 
L 292.411509 290.50038 
L 295.467368 305.496498 
L 298.523228 304.523086 
L 301.579088 294.439836 
L 304.634948 300.894791 
L 307.690808 314.174048 
L 310.746667 296.863878 
L 313.802527 290.327188 
L 316.858387 298.560529 
L 319.914247 275.371002 
L 322.970107 281.723475 
L 326.025966 293.624651 
L 329.081826 309.562505 
L 332.137686 309.64323 
L 335.193546 305.269874 
L 338.249406 292.781912 
L 341.305265 303.249654 
L 344.361125 303.814878 
L 347.416985 295.82233 
L 350.472845 307.025118 
L 353.528705 297.722365 
L 356.584564 299.546056 
L 359.640424 306.824843 
L 362.696284 306.159286 
L 365.752144 323.495072 
L 368.808004 296.170099 
L 371.863863 277.528668 
L 374.919723 298.58906 
L 377.975583 306.586787 
L 381.031443 295.141448 
L 384.087303 284.180674 
L 387.143162 303.52528 
L 390.199022 311.28614 
L 393.254882 324.431598 
L 396.310742 321.796679 
L 399.366602 312.368727 
L 402.422461 274.933046 
L 405.478321 298.400136 
L 408.534181 298.888772 
L 411.590041 303.578581 
L 414.645901 294.735476 
L 417.70176 324.510874 
L 420.75762 313.735766 
L 423.81348 297.636705 
L 426.86934 308.252138 
L 429.9252 308.381881 
L 432.981059 295.941667 
L 436.036919 293.786476 
L 439.092779 277.041987 
L 442.148639 281.516328 
L 445.204499 302.261895 
L 448.260359 328.142964 
L 451.316218 309.442158 
L 454.372078 308.058019 
L 457.427938 310.613906 
L 460.483798 319.896286 
L 466.595517 302.022357 
L 469.651377 295.839657 
L 472.707237 310.265143 
L 475.763097 306.549934 
L 478.818957 282.823405 
L 481.874816 269.385075 
L 484.930676 263.434455 
L 487.986536 271.082801 
L 491.042396 302.11046 
L 494.098256 281.248128 
L 497.154115 281.988613 
L 500.209975 276.508568 
L 503.265835 306.802191 
L 506.321695 327.367742 
L 509.377555 300.518458 
L 515.489274 315.51521 
L 518.545134 309.128441 
L 524.656854 302.374165 
L 527.712713 291.57077 
L 530.768573 307.573276 
L 533.824433 309.539689 
L 536.880293 299.552798 
L 539.936153 284.083777 
L 542.992012 299.90428 
L 546.047872 314.230362 
L 549.103732 296.802793 
L 552.159592 306.46486 
L 555.215452 314.311999 
L 558.271311 306.163618 
L 561.327171 281.145955 
L 564.383031 284.972261 
L 567.438891 294.562886 
L 570.494751 291.472391 
L 573.55061 298.572726 
L 576.60647 307.773338 
L 579.66233 310.730133 
L 582.71819 308.411895 
L 585.77405 290.952244 
L 588.829909 312.024947 
L 591.885769 303.613855 
L 594.941629 285.72097 
L 597.997489 279.269728 
L 601.053349 269.848583 
L 604.109208 280.423921 
L 607.165068 303.927897 
L 610.220928 315.043446 
L 613.276788 289.98222 
L 616.332648 268.531913 
L 619.388507 278.981986 
L 622.444367 316.530099 
L 625.500227 320.690235 
L 628.556087 310.971218 
L 631.611947 306.71943 
L 634.667806 304.901194 
L 637.723666 285.868172 
L 640.779526 281.997879 
L 643.835386 276.392178 
L 646.891246 270.26418 
L 649.947105 271.285192 
L 653.002965 289.963118 
L 656.058825 298.061064 
L 659.114685 276.138162 
L 662.170545 277.419949 
L 665.226405 276.843276 
L 668.282264 289.100934 
L 671.338124 300.15455 
L 674.393984 278.49055 
L 677.449844 291.633826 
L 680.505704 273.746609 
L 683.561563 275.051993 
L 686.617423 280.511144 
L 689.673283 287.221792 
L 692.729143 308.901573 
L 695.785003 294.197904 
L 698.840862 308.282086 
L 701.896722 331.292215 
L 704.952582 325.651533 
L 708.008442 302.442791 
L 711.064302 277.359857 
L 714.120161 262.223867 
L 717.176021 280.097144 
L 720.231881 308.039258 
L 723.287741 287.447781 
L 726.343601 298.003854 
L 729.39946 301.230737 
L 732.45532 299.317006 
L 735.51118 294.112765 
L 738.56704 317.734711 
L 741.6229 308.511088 
L 744.678759 289.446032 
L 747.734619 299.8195 
L 750.790479 295.236716 
L 753.846339 306.59405 
L 756.902199 308.792039 
L 759.958058 303.738012 
L 763.013918 289.977497 
L 766.069778 302.245366 
L 769.125638 285.28005 
L 772.181498 303.328409 
L 775.237357 282.701755 
L 778.293217 291.955913 
L 781.349077 290.594769 
L 784.404937 312.52381 
L 787.460797 282.285817 
L 790.516656 271.208734 
L 793.572516 304.257655 
L 796.628376 288.635358 
L 799.684236 284.250472 
L 802.740096 288.906375 
L 805.795955 293.335834 
L 808.851815 311.427902 
L 811.907675 328.709165 
L 814.963535 315.50995 
L 818.019395 308.479006 
L 821.075254 283.522494 
L 824.131114 316.36189 
L 827.186974 312.067272 
L 830.242834 296.803297 
L 833.298694 299.291324 
L 836.354553 326.595941 
L 839.410413 333.513557 
L 842.466273 321.829396 
L 845.522133 316.524937 
L 848.577993 322.830313 
L 851.633852 313.152432 
L 854.689712 311.716181 
L 857.745572 306.779913 
L 857.745572 306.779913 
" clip-path="url(#p990db38902)" style="fill: none; stroke: #0000ff; stroke-width: 2; stroke-linecap: square"/>
   </g>
   <g id="line2d_15">
    <path d="M 96.836481 389.255112 
L 99.892341 309.394279 
L 102.948201 306.6951 
L 106.004061 312.409732 
L 109.05992 355.342216 
L 112.11578 400.509956 
L 115.17164 368.784112 
L 118.2275 274.206273 
L 121.28336 337.537043 
L 124.339219 393.336346 
L 127.395079 380.026962 
L 130.450939 373.307471 
L 133.506799 377.05087 
L 136.562659 353.110664 
L 139.618518 389.667786 
L 142.674378 375.170702 
L 145.730238 312.454419 
L 148.786098 344.241682 
L 151.841958 369.280532 
L 154.897817 299.096261 
L 157.953677 360.419758 
L 161.009537 399.509568 
L 164.065397 357.795636 
L 167.121257 200.796861 
L 170.177116 276.012636 
L 173.232976 374.835701 
L 176.288836 379.476475 
L 179.344696 379.488901 
L 182.400556 432.965333 
L 185.456415 406.520571 
L 188.512275 288.777641 
L 191.568135 267.915505 
L 194.623995 256.948705 
L 197.679855 279.658096 
L 200.735714 353.576533 
L 203.791574 422.609876 
L 206.847434 423.621517 
L 209.903294 377.623667 
L 212.959154 390.46798 
L 216.015013 401.291072 
L 219.070873 401.141436 
L 222.126733 360.080783 
L 225.182593 313.335949 
L 228.238453 363.258664 
L 231.294313 349.968382 
L 234.350172 342.31077 
L 237.406032 400.225121 
L 240.461892 338.5875 
L 243.517752 203.089189 
L 246.573612 255.108712 
L 249.629471 408.369227 
L 252.685331 386.56901 
L 255.741191 414.465713 
L 258.797051 438.1901 
L 261.852911 433.103545 
L 264.90877 311.524587 
L 267.96463 336.852449 
L 271.02049 358.906152 
L 274.07635 272.891916 
L 277.13221 238.092099 
L 283.243929 409.052999 
L 286.299789 284.870952 
L 289.355649 301.48441 
L 292.411509 327.834344 
L 295.467368 351.404763 
L 298.523228 353.557919 
L 301.579088 415.230569 
L 304.634948 360.901342 
L 307.690808 344.665942 
L 310.746667 357.835177 
L 313.802527 301.803062 
L 316.858387 398.982223 
L 319.914247 346.349923 
L 322.970107 303.351143 
L 326.025966 313.738795 
L 329.081826 360.107327 
L 332.137686 390.490828 
L 335.193546 306.302156 
L 338.249406 290.980597 
L 341.305265 210.954518 
L 344.361125 354.143956 
L 347.416985 326.787308 
L 350.472845 415.797715 
L 353.528705 290.954394 
L 356.584564 299.650981 
L 359.640424 373.101855 
L 362.696284 367.723282 
L 365.752144 423.977608 
L 368.808004 287.426838 
L 371.863863 293.491097 
L 374.919723 389.669284 
L 377.975583 362.925633 
L 381.031443 170.858661 
L 384.087303 281.896065 
L 387.143162 397.669437 
L 390.199022 413.242944 
L 393.254882 409.518363 
L 396.310742 270.534838 
L 399.366602 273.413448 
L 402.422461 334.028851 
L 405.478321 291.253259 
L 408.534181 344.329605 
L 411.590041 370.261337 
L 414.645901 271.610227 
L 417.70176 402.417238 
L 420.75762 249.39719 
L 423.81348 284.988384 
L 426.86934 296.891384 
L 429.9252 373.605391 
L 432.981059 182.169306 
L 436.036919 190.989758 
L 439.092779 157.206801 
L 442.148639 171.776817 
L 445.204499 283.398938 
L 448.260359 379.498737 
L 451.316218 203.490846 
L 454.372078 234.17598 
L 457.427938 360.802507 
L 460.483798 334.991009 
L 463.539658 398.575005 
L 466.595517 311.300112 
L 469.651377 273.441474 
L 472.707237 250.04757 
L 475.763097 362.34256 
L 478.818957 366.536422 
L 481.874816 348.515764 
L 484.930676 226.264662 
L 487.986536 290.100124 
L 491.042396 370.053066 
L 494.098256 247.651668 
L 497.154115 233.201966 
L 500.209975 348.703939 
L 503.265835 285.525842 
L 506.321695 286.330653 
L 509.377555 351.159933 
L 512.433414 167.103016 
L 515.489274 262.728136 
L 518.545134 221.534612 
L 521.600994 358.036314 
L 524.656854 252.154866 
L 527.712713 247.087486 
L 530.768573 285.836025 
L 533.824433 337.849441 
L 536.880293 311.457085 
L 539.936153 363.745573 
L 542.992012 309.237958 
L 546.047872 326.448186 
L 549.103732 362.069279 
L 552.159592 357.210463 
L 555.215452 352.039525 
L 558.271311 216.367697 
L 561.327171 183.532665 
L 564.383031 144.448017 
L 567.438891 366.513948 
L 570.494751 350.267524 
L 573.55061 415.462624 
L 576.60647 244.36979 
L 579.66233 188.132662 
L 582.71819 393.335418 
L 585.77405 406.228179 
L 588.829909 156.350072 
L 591.885769 61.037187 
L 594.941629 229.030008 
L 597.997489 305.429452 
L 601.053349 249.5241 
L 604.109208 309.405272 
L 607.165068 296.816032 
L 610.220928 385.034738 
L 613.276788 283.659859 
L 616.332648 375.967061 
L 619.388507 234.957601 
L 622.444367 376.207528 
L 625.500227 351.598052 
L 628.556087 358.889606 
L 631.611947 271.621252 
L 634.667806 244.95853 
L 637.723666 287.068223 
L 640.779526 259.451013 
L 643.835386 321.962641 
L 646.891246 235.091693 
L 649.947105 337.649997 
L 653.002965 341.116825 
L 656.058825 343.383227 
L 659.114685 344.544309 
L 662.170545 289.947793 
L 665.226405 243.501727 
L 668.282264 236.20869 
L 671.338124 271.545657 
L 674.393984 189.629754 
L 677.449844 329.397538 
L 680.505704 274.232346 
L 683.561563 254.482875 
L 686.617423 265.661659 
L 689.673283 380.104723 
L 692.729143 345.658977 
L 695.785003 253.697866 
L 698.840862 354.5568 
L 701.896722 364.810409 
L 704.952582 332.751266 
L 708.008442 381.599405 
L 711.064302 153.997782 
L 714.120161 155.232586 
L 717.176021 282.908853 
L 720.231881 329.109649 
L 723.287741 408.690508 
L 726.343601 272.693531 
L 729.39946 292.28769 
L 732.45532 339.676552 
L 735.51118 304.245018 
L 738.56704 214.017654 
L 741.6229 164.154365 
L 744.678759 162.298087 
L 747.734619 277.685625 
L 750.790479 387.577369 
L 753.846339 336.104375 
L 756.902199 264.720394 
L 759.958058 391.34412 
L 763.013918 378.195943 
L 766.069778 203.268619 
L 769.125638 415.12781 
L 772.181498 368.511369 
L 775.237357 291.08785 
L 778.293217 362.79058 
L 781.349077 226.397614 
L 784.404937 343.902446 
L 787.460797 363.435879 
L 790.516656 269.62362 
L 793.572516 366.906518 
L 796.628376 340.266432 
L 799.684236 329.013844 
L 802.740096 402.763631 
L 805.795955 313.635091 
L 808.851815 423.764802 
L 811.907675 276.890633 
L 814.963535 390.801671 
L 818.019395 362.023111 
L 821.075254 155.219949 
L 824.131114 324.279674 
L 827.186974 224.901075 
L 830.242834 240.069244 
L 833.298694 322.028645 
L 836.354553 211.414834 
L 839.410413 303.787454 
L 842.466273 383.970993 
L 845.522133 366.282325 
L 848.577993 217.000342 
L 851.633852 331.936781 
L 854.689712 309.799877 
L 857.745572 290.94161 
L 857.745572 290.94161 
" clip-path="url(#p990db38902)" style="fill: none; stroke: #ffa500; stroke-width: 2; stroke-linecap: square"/>
   </g>
   <g id="line2d_16">
    <path d="M 96.836481 377.368234 
L 99.892341 377.542632 
L 102.948201 366.444492 
L 106.004061 364.004213 
L 109.05992 377.536427 
L 112.11578 368.765694 
L 115.17164 371.613654 
L 118.2275 374.847149 
L 121.28336 382.184726 
L 124.339219 375.986245 
L 127.395079 373.840451 
L 130.450939 360.466056 
L 133.506799 366.961431 
L 136.562659 368.591084 
L 139.618518 374.850162 
L 142.674378 382.875525 
L 145.730238 376.468823 
L 148.786098 378.230451 
L 151.841958 370.947494 
L 154.897817 371.128846 
L 157.953677 374.910124 
L 161.009537 385.608919 
L 164.065397 372.750699 
L 167.121257 385.604571 
L 173.232976 387.525932 
L 176.288836 388.723427 
L 179.344696 381.603428 
L 182.400556 378.439112 
L 185.456415 363.555086 
L 188.512275 373.857371 
L 191.568135 375.365375 
L 194.623995 372.027492 
L 197.679855 376.130662 
L 200.735714 358.688909 
L 203.791574 367.832327 
L 206.847434 372.708373 
L 209.903294 364.093879 
L 212.959154 367.639511 
L 216.015013 380.166476 
L 219.070873 382.042133 
L 222.126733 377.244305 
L 225.182593 375.21946 
L 228.238453 372.203404 
L 231.294313 360.532158 
L 234.350172 368.562064 
L 237.406032 369.478934 
L 240.461892 348.247288 
L 243.517752 363.873558 
L 246.573612 376.675904 
L 249.629471 367.482197 
L 252.685331 356.616234 
L 255.741191 354.178838 
L 258.797051 363.156279 
L 261.852911 370.418586 
L 264.90877 382.685021 
L 267.96463 365.615904 
L 271.02049 364.819854 
L 274.07635 367.450653 
L 277.13221 372.110693 
L 280.188069 373.278809 
L 283.243929 386.739018 
L 286.299789 382.411757 
L 289.355649 382.83035 
L 292.411509 366.890916 
L 295.467368 376.830239 
L 298.523228 377.113063 
L 301.579088 371.82339 
L 304.634948 378.469093 
L 307.690808 376.174436 
L 310.746667 361.043364 
L 313.802527 359.403647 
L 316.858387 362.867527 
L 319.914247 358.976765 
L 322.970107 372.60778 
L 326.025966 368.604992 
L 329.081826 378.888191 
L 332.137686 366.379531 
L 335.193546 372.508473 
L 338.249406 376.436774 
L 341.305265 378.739133 
L 344.361125 375.883779 
L 347.416985 380.861037 
L 350.472845 373.071223 
L 353.528705 379.37339 
L 356.584564 375.314842 
L 359.640424 376.322533 
L 362.696284 376.388325 
L 365.752144 382.178309 
L 368.808004 368.526025 
L 371.863863 365.08198 
L 374.919723 367.689865 
L 377.975583 375.311748 
L 381.031443 363.86579 
L 384.087303 375.798755 
L 387.143162 391.429406 
L 390.199022 389.141019 
L 393.254882 377.098504 
L 396.310742 377.227677 
L 399.366602 365.143603 
L 402.422461 363.190934 
L 405.478321 374.156594 
L 408.534181 387.653087 
L 411.590041 370.249856 
L 414.645901 378.340766 
L 417.70176 373.64656 
L 420.75762 383.92945 
L 423.81348 377.07261 
L 426.86934 389.370671 
L 429.9252 388.611654 
L 432.981059 377.724472 
L 436.036919 388.023231 
L 439.092779 374.781894 
L 442.148639 374.990914 
L 445.204499 374.959142 
L 448.260359 382.711534 
L 451.316218 379.959476 
L 454.372078 370.062055 
L 457.427938 362.956916 
L 460.483798 386.635632 
L 463.539658 383.454331 
L 466.595517 375.898696 
L 469.651377 369.75013 
L 472.707237 362.877689 
L 475.763097 371.764389 
L 478.818957 367.972542 
L 481.874816 359.080077 
L 484.930676 354.852196 
L 487.986536 378.156728 
L 491.042396 385.409337 
L 494.098256 374.139609 
L 497.154115 377.495714 
L 500.209975 372.239508 
L 503.265835 382.996458 
L 506.321695 377.693758 
L 509.377555 378.222813 
L 512.433414 383.115714 
L 515.489274 379.337726 
L 518.545134 383.072217 
L 521.600994 378.58563 
L 524.656854 384.943053 
L 527.712713 372.438154 
L 530.768573 382.648933 
L 533.824433 387.159142 
L 536.880293 369.694598 
L 539.936153 366.388781 
L 542.992012 369.684664 
L 546.047872 378.540471 
L 549.103732 364.38838 
L 552.159592 372.093691 
L 555.215452 375.128817 
L 558.271311 372.592814 
L 561.327171 367.860712 
L 564.383031 367.670241 
L 567.438891 362.429767 
L 570.494751 370.057202 
L 573.55061 364.099058 
L 576.60647 366.763436 
L 579.66233 380.002143 
L 582.71819 377.028266 
L 585.77405 375.150753 
L 588.829909 381.052062 
L 591.885769 371.27463 
L 594.941629 368.538777 
L 597.997489 364.585886 
L 601.053349 355.720975 
L 604.109208 366.257474 
L 607.165068 384.165763 
L 610.220928 386.174323 
L 613.276788 377.74377 
L 616.332648 357.877844 
L 619.388507 362.358014 
L 622.444367 374.28142 
L 625.500227 384.959729 
L 628.556087 392.667638 
L 631.611947 370.363852 
L 634.667806 374.781732 
L 637.723666 370.725821 
L 640.779526 359.861943 
L 643.835386 362.448804 
L 646.891246 370.01333 
L 649.947105 357.650438 
L 653.002965 379.960421 
L 656.058825 365.978867 
L 659.114685 350.946907 
L 662.170545 366.180885 
L 665.226405 356.764364 
L 671.338124 363.221029 
L 674.393984 372.713194 
L 677.449844 366.971723 
L 680.505704 354.919388 
L 683.561563 364.739732 
L 686.617423 364.108715 
L 689.673283 365.919329 
L 692.729143 367.400495 
L 695.785003 377.300146 
L 698.840862 372.149631 
L 701.896722 385.942325 
L 704.952582 380.009146 
L 708.008442 374.933167 
L 711.064302 366.207722 
L 714.120161 353.279329 
L 717.176021 372.377574 
L 720.231881 371.226117 
L 723.287741 374.675341 
L 726.343601 378.548125 
L 729.39946 371.711951 
L 732.45532 369.941383 
L 735.51118 372.304991 
L 738.56704 376.684324 
L 741.6229 353.627831 
L 744.678759 357.824852 
L 747.734619 373.114704 
L 750.790479 372.011679 
L 753.846339 385.286913 
L 756.902199 377.864573 
L 759.958058 360.059221 
L 763.013918 361.855846 
L 766.069778 367.435768 
L 769.125638 364.607171 
L 772.181498 362.487416 
L 775.237357 370.118467 
L 778.293217 378.319807 
L 781.349077 343.832013 
L 784.404937 354.360336 
L 787.460797 371.71498 
L 790.516656 375.196107 
L 796.628376 361.125099 
L 799.684236 360.957183 
L 802.740096 377.336381 
L 805.795955 374.602286 
L 808.851815 381.569734 
L 811.907675 395.07778 
L 814.963535 387.823006 
L 818.019395 378.671583 
L 821.075254 372.665934 
L 824.131114 386.067818 
L 827.186974 377.905204 
L 830.242834 368.214898 
L 833.298694 374.763671 
L 836.354553 384.675366 
L 839.410413 382.206662 
L 842.466273 382.923354 
L 845.522133 385.228254 
L 848.577993 377.542192 
L 851.633852 368.368776 
L 854.689712 380.985554 
L 857.745572 369.268627 
L 857.745572 369.268627 
" clip-path="url(#p990db38902)" style="fill: none; stroke-dasharray: 7.4,3.2; stroke-dashoffset: 0; stroke: #0000ff; stroke-width: 2"/>
   </g>
   <g id="line2d_17">
    <path d="M 96.836481 368.700293 
L 99.892341 409.294638 
L 102.948201 410.81093 
L 106.004061 324.762316 
L 109.05992 428.722127 
L 112.11578 433.420958 
L 115.17164 403.589931 
L 118.2275 355.902082 
L 121.28336 430.727788 
L 124.339219 435.557372 
L 127.395079 421.036366 
L 130.450939 435.742021 
L 133.506799 351.782383 
L 136.562659 413.012216 
L 139.618518 427.035524 
L 142.674378 434.237527 
L 145.730238 366.708393 
L 148.786098 418.520239 
L 151.841958 351.645816 
L 154.897817 440.939104 
L 157.953677 439.209631 
L 161.009537 423.769744 
L 164.065397 368.766671 
L 167.121257 367.821009 
L 170.177116 437.009094 
L 173.232976 450.405034 
L 176.288836 413.167023 
L 179.344696 442.237477 
L 182.400556 432.066019 
L 185.456415 374.195304 
L 188.512275 427.869975 
L 191.568135 279.976454 
L 194.623995 401.430074 
L 197.679855 421.190057 
L 200.735714 439.529903 
L 203.791574 445.700405 
L 206.847434 432.309718 
L 209.903294 428.308688 
L 212.959154 443.454246 
L 216.015013 442.349283 
L 219.070873 410.752222 
L 222.126733 393.041544 
L 225.182593 392.877203 
L 228.238453 424.694642 
L 231.294313 381.09582 
L 234.350172 393.053872 
L 237.406032 439.390103 
L 240.461892 397.497491 
L 243.517752 313.044511 
L 246.573612 435.279059 
L 249.629471 416.102687 
L 252.685331 436.154622 
L 255.741191 444.112988 
L 258.797051 443.392834 
L 261.852911 420.474724 
L 264.90877 354.742695 
L 267.96463 446.268634 
L 271.02049 418.973919 
L 274.07635 387.303184 
L 277.13221 370.214826 
L 280.188069 407.574594 
L 283.243929 429.394223 
L 286.299789 374.493778 
L 289.355649 399.802969 
L 292.411509 373.028767 
L 295.467368 417.424616 
L 298.523228 455.802632 
L 301.579088 409.636552 
L 304.634948 419.254235 
L 307.690808 397.415153 
L 310.746667 397.176828 
L 313.802527 464.237187 
L 316.858387 442.164007 
L 319.914247 396.01718 
L 322.970107 375.289372 
L 326.025966 408.626752 
L 329.081826 404.228145 
L 332.137686 421.030218 
L 335.193546 420.302533 
L 338.249406 300.663949 
L 341.305265 458.736362 
L 344.361125 391.221265 
L 347.416985 443.223583 
L 350.472845 431.341925 
L 353.528705 380.585753 
L 356.584564 414.585922 
L 359.640424 451.152872 
L 365.752144 357.162633 
L 368.808004 435.132884 
L 371.863863 446.228964 
L 374.919723 417.600203 
L 377.975583 337.36219 
L 381.031443 379.654928 
L 384.087303 451.09339 
L 387.143162 438.425999 
L 390.199022 462.456294 
L 393.254882 442.788998 
L 396.310742 434.529984 
L 399.366602 322.130362 
L 402.422461 302.393072 
L 405.478321 461.04445 
L 408.534181 447.293808 
L 411.590041 383.653563 
L 414.645901 419.674562 
L 417.70176 396.928488 
L 420.75762 328.39763 
L 423.81348 421.069034 
L 426.86934 409.456422 
L 429.9252 411.77479 
L 432.981059 318.702878 
L 436.036919 349.002104 
L 439.092779 364.862424 
L 442.148639 368.048252 
L 445.204499 428.467517 
L 448.260359 417.374246 
L 451.316218 313.121653 
L 454.372078 416.583334 
L 457.427938 444.397473 
L 460.483798 381.559474 
L 463.539658 444.310624 
L 466.595517 411.368688 
L 469.651377 317.60228 
L 472.707237 407.206094 
L 475.763097 354.045544 
L 478.818957 440.069348 
L 481.874816 444.173528 
L 484.930676 334.537159 
L 487.986536 441.535108 
L 491.042396 387.564113 
L 494.098256 411.349984 
L 497.154115 411.268689 
L 500.209975 357.442509 
L 503.265835 343.915768 
L 506.321695 414.951792 
L 509.377555 378.85637 
L 512.433414 322.575369 
L 515.489274 406.523152 
L 518.545134 365.977483 
L 521.600994 383.618453 
L 524.656854 341.818128 
L 527.712713 416.391813 
L 530.768573 436.360694 
L 533.824433 390.460741 
L 536.880293 434.035453 
L 539.936153 399.238193 
L 542.992012 352.368013 
L 546.047872 389.749822 
L 549.103732 452.001596 
L 552.159592 323.048045 
L 555.215452 293.678718 
L 558.271311 380.596046 
L 561.327171 402.462462 
L 564.383031 385.060469 
L 567.438891 346.035929 
L 570.494751 425.55922 
L 573.55061 431.926439 
L 576.60647 346.103757 
L 579.66233 369.014335 
L 582.71819 365.997221 
L 585.77405 369.823706 
L 588.829909 373.017563 
L 591.885769 372.11053 
L 594.941629 301.61974 
L 597.997489 416.163088 
L 601.053349 335.49321 
L 604.109208 412.851132 
L 607.165068 391.529852 
L 610.220928 413.555879 
L 613.276788 380.879309 
L 616.332648 410.980564 
L 619.388507 398.067674 
L 622.444367 422.158469 
L 625.500227 363.216029 
L 628.556087 371.826599 
L 631.611947 423.905367 
L 634.667806 397.384203 
L 637.723666 357.294673 
L 640.779526 391.756509 
L 643.835386 374.970769 
L 646.891246 362.67792 
L 653.002965 332.956882 
L 656.058825 382.690102 
L 659.114685 380.324931 
L 662.170545 394.473097 
L 665.226405 376.194565 
L 668.282264 367.795523 
L 671.338124 398.488466 
L 674.393984 269.925221 
L 677.449844 419.922414 
L 680.505704 323.340933 
L 683.561563 400.256518 
L 686.617423 358.43162 
L 689.673283 443.457104 
L 692.729143 272.122818 
L 695.785003 358.973442 
L 698.840862 411.534316 
L 701.896722 388.852381 
L 704.952582 428.257317 
L 708.008442 321.902109 
L 711.064302 372.438627 
L 714.120161 345.789307 
L 717.176021 416.043157 
L 720.231881 419.245775 
L 723.287741 399.185469 
L 726.343601 392.001128 
L 729.39946 396.410833 
L 732.45532 370.307505 
L 735.51118 382.6838 
L 738.56704 425.047688 
L 741.6229 312.808523 
L 744.678759 342.596655 
L 747.734619 391.849025 
L 750.790479 421.196946 
L 753.846339 360.114477 
L 756.902199 405.543715 
L 759.958058 414.595775 
L 763.013918 328.552714 
L 766.069778 405.557843 
L 769.125638 439.429643 
L 772.181498 418.331421 
L 775.237357 413.316243 
L 778.293217 401.363158 
L 781.349077 304.214857 
L 784.404937 421.991799 
L 787.460797 369.3936 
L 790.516656 396.43601 
L 793.572516 413.300235 
L 796.628376 390.542346 
L 799.684236 430.559913 
L 802.740096 395.621517 
L 805.795955 417.191421 
L 808.851815 411.394834 
L 811.907675 415.907623 
L 814.963535 435.183335 
L 818.019395 394.477861 
L 821.075254 381.021462 
L 824.131114 417.723888 
L 827.186974 353.275372 
L 830.242834 387.812705 
L 833.298694 375.233921 
L 836.354553 349.316618 
L 839.410413 449.401227 
L 842.466273 440.382275 
L 845.522133 400.388501 
L 848.577993 379.307077 
L 851.633852 402.251276 
L 854.689712 418.025074 
L 857.745572 430.482949 
L 857.745572 430.482949 
" clip-path="url(#p990db38902)" style="fill: none; stroke-dasharray: 7.4,3.2; stroke-dashoffset: 0; stroke: #ffa500; stroke-width: 2"/>
   </g>
   <g id="patch_3">
    <path d="M 58.791027 484.397187 
L 58.791027 40.877187 
" style="fill: none; stroke: #000000; stroke-width: 0.8; stroke-linejoin: miter; stroke-linecap: square"/>
   </g>
   <g id="patch_4">
    <path d="M 895.791027 484.397187 
L 895.791027 40.877187 
" style="fill: none; stroke: #000000; stroke-width: 0.8; stroke-linejoin: miter; stroke-linecap: square"/>
   </g>
   <g id="patch_5">
    <path d="M 58.791027 484.397187 
L 895.791027 484.397187 
" style="fill: none; stroke: #000000; stroke-width: 0.8; stroke-linejoin: miter; stroke-linecap: square"/>
   </g>
   <g id="patch_6">
    <path d="M 58.791027 40.877187 
L 895.791027 40.877187 
" style="fill: none; stroke: #000000; stroke-width: 0.8; stroke-linejoin: miter; stroke-linecap: square"/>
   </g>
   <g id="text_16">
    <!-- Southward wind speed  two steps forward prediction: RMSES -->
    <g transform="translate(203.277589 20.877187) scale(0.18 -0.18)">
     <defs>
      <path id="DejaVuSans-68" d="M 3513 2113 
L 3513 0 
L 2938 0 
L 2938 2094 
Q 2938 2591 2744 2837 
Q 2550 3084 2163 3084 
Q 1697 3084 1428 2787 
Q 1159 2491 1159 1978 
L 1159 0 
L 581 0 
L 581 4863 
L 1159 4863 
L 1159 2956 
Q 1366 3272 1645 3428 
Q 1925 3584 2291 3584 
Q 2894 3584 3203 3211 
Q 3513 2838 3513 2113 
z
" transform="scale(0.015625)"/>
      <path id="DejaVuSans-77" d="M 269 3500 
L 844 3500 
L 1563 769 
L 2278 3500 
L 2956 3500 
L 3675 769 
L 4391 3500 
L 4966 3500 
L 4050 0 
L 3372 0 
L 2619 2869 
L 1863 0 
L 1184 0 
L 269 3500 
z
" transform="scale(0.015625)"/>
      <path id="DejaVuSans-69" d="M 603 3500 
L 1178 3500 
L 1178 0 
L 603 0 
L 603 3500 
z
M 603 4863 
L 1178 4863 
L 1178 4134 
L 603 4134 
L 603 4863 
z
" transform="scale(0.015625)"/>
      <path id="DejaVuSans-70" d="M 1159 525 
L 1159 -1331 
L 581 -1331 
L 581 3500 
L 1159 3500 
L 1159 2969 
Q 1341 3281 1617 3432 
Q 1894 3584 2278 3584 
Q 2916 3584 3314 3078 
Q 3713 2572 3713 1747 
Q 3713 922 3314 415 
Q 2916 -91 2278 -91 
Q 1894 -91 1617 61 
Q 1341 213 1159 525 
z
M 3116 1747 
Q 3116 2381 2855 2742 
Q 2594 3103 2138 3103 
Q 1681 3103 1420 2742 
Q 1159 2381 1159 1747 
Q 1159 1113 1420 752 
Q 1681 391 2138 391 
Q 2594 391 2855 752 
Q 3116 1113 3116 1747 
z
" transform="scale(0.015625)"/>
      <path id="DejaVuSans-66" d="M 2375 4863 
L 2375 4384 
L 1825 4384 
Q 1516 4384 1395 4259 
Q 1275 4134 1275 3809 
L 1275 3500 
L 2222 3500 
L 2222 3053 
L 1275 3053 
L 1275 0 
L 697 0 
L 697 3053 
L 147 3053 
L 147 3500 
L 697 3500 
L 697 3744 
Q 697 4328 969 4595 
Q 1241 4863 1831 4863 
L 2375 4863 
z
" transform="scale(0.015625)"/>
     </defs>
     <use xlink:href="#DejaVuSans-53"/>
     <use xlink:href="#DejaVuSans-6f" transform="translate(63.476562 0)"/>
     <use xlink:href="#DejaVuSans-75" transform="translate(124.658203 0)"/>
     <use xlink:href="#DejaVuSans-74" transform="translate(188.037109 0)"/>
     <use xlink:href="#DejaVuSans-68" transform="translate(227.246094 0)"/>
     <use xlink:href="#DejaVuSans-77" transform="translate(290.625 0)"/>
     <use xlink:href="#DejaVuSans-61" transform="translate(372.412109 0)"/>
     <use xlink:href="#DejaVuSans-72" transform="translate(433.691406 0)"/>
     <use xlink:href="#DejaVuSans-64" transform="translate(473.054688 0)"/>
     <use xlink:href="#DejaVuSans-20" transform="translate(536.53125 0)"/>
     <use xlink:href="#DejaVuSans-77" transform="translate(568.318359 0)"/>
     <use xlink:href="#DejaVuSans-69" transform="translate(650.105469 0)"/>
     <use xlink:href="#DejaVuSans-6e" transform="translate(677.888672 0)"/>
     <use xlink:href="#DejaVuSans-64" transform="translate(741.267578 0)"/>
     <use xlink:href="#DejaVuSans-20" transform="translate(804.744141 0)"/>
     <use xlink:href="#DejaVuSans-73" transform="translate(836.53125 0)"/>
     <use xlink:href="#DejaVuSans-70" transform="translate(888.630859 0)"/>
     <use xlink:href="#DejaVuSans-65" transform="translate(952.107422 0)"/>
     <use xlink:href="#DejaVuSans-65" transform="translate(1013.630859 0)"/>
     <use xlink:href="#DejaVuSans-64" transform="translate(1075.154297 0)"/>
     <use xlink:href="#DejaVuSans-20" transform="translate(1138.630859 0)"/>
     <use xlink:href="#DejaVuSans-20" transform="translate(1170.417969 0)"/>
     <use xlink:href="#DejaVuSans-74" transform="translate(1202.205078 0)"/>
     <use xlink:href="#DejaVuSans-77" transform="translate(1241.414062 0)"/>
     <use xlink:href="#DejaVuSans-6f" transform="translate(1323.201172 0)"/>
     <use xlink:href="#DejaVuSans-20" transform="translate(1384.382812 0)"/>
     <use xlink:href="#DejaVuSans-73" transform="translate(1416.169922 0)"/>
     <use xlink:href="#DejaVuSans-74" transform="translate(1468.269531 0)"/>
     <use xlink:href="#DejaVuSans-65" transform="translate(1507.478516 0)"/>
     <use xlink:href="#DejaVuSans-70" transform="translate(1569.001953 0)"/>
     <use xlink:href="#DejaVuSans-73" transform="translate(1632.478516 0)"/>
     <use xlink:href="#DejaVuSans-20" transform="translate(1684.578125 0)"/>
     <use xlink:href="#DejaVuSans-66" transform="translate(1716.365234 0)"/>
     <use xlink:href="#DejaVuSans-6f" transform="translate(1751.570312 0)"/>
     <use xlink:href="#DejaVuSans-72" transform="translate(1812.751953 0)"/>
     <use xlink:href="#DejaVuSans-77" transform="translate(1853.865234 0)"/>
     <use xlink:href="#DejaVuSans-61" transform="translate(1935.652344 0)"/>
     <use xlink:href="#DejaVuSans-72" transform="translate(1996.931641 0)"/>
     <use xlink:href="#DejaVuSans-64" transform="translate(2036.294922 0)"/>
     <use xlink:href="#DejaVuSans-20" transform="translate(2099.771484 0)"/>
     <use xlink:href="#DejaVuSans-70" transform="translate(2131.558594 0)"/>
     <use xlink:href="#DejaVuSans-72" transform="translate(2195.035156 0)"/>
     <use xlink:href="#DejaVuSans-65" transform="translate(2233.898438 0)"/>
     <use xlink:href="#DejaVuSans-64" transform="translate(2295.421875 0)"/>
     <use xlink:href="#DejaVuSans-69" transform="translate(2358.898438 0)"/>
     <use xlink:href="#DejaVuSans-63" transform="translate(2386.681641 0)"/>
     <use xlink:href="#DejaVuSans-74" transform="translate(2441.662109 0)"/>
     <use xlink:href="#DejaVuSans-69" transform="translate(2480.871094 0)"/>
     <use xlink:href="#DejaVuSans-6f" transform="translate(2508.654297 0)"/>
     <use xlink:href="#DejaVuSans-6e" transform="translate(2569.835938 0)"/>
     <use xlink:href="#DejaVuSans-3a" transform="translate(2633.214844 0)"/>
     <use xlink:href="#DejaVuSans-20" transform="translate(2666.90625 0)"/>
     <use xlink:href="#DejaVuSans-52" transform="translate(2698.693359 0)"/>
     <use xlink:href="#DejaVuSans-4d" transform="translate(2768.175781 0)"/>
     <use xlink:href="#DejaVuSans-53" transform="translate(2854.455078 0)"/>
     <use xlink:href="#DejaVuSans-45" transform="translate(2917.931641 0)"/>
     <use xlink:href="#DejaVuSans-53" transform="translate(2981.115234 0)"/>
    </g>
   </g>
   <g id="legend_1">
    <g id="text_17">
     <!-- Forecast Horizon -->
     <g transform="translate(1020.26087 65.634687) scale(0.16 -0.16)">
      <defs>
       <path id="DejaVuSans-48" d="M 628 4666 
L 1259 4666 
L 1259 2753 
L 3553 2753 
L 3553 4666 
L 4184 4666 
L 4184 0 
L 3553 0 
L 3553 2222 
L 1259 2222 
L 1259 0 
L 628 0 
L 628 4666 
z
" transform="scale(0.015625)"/>
       <path id="DejaVuSans-7a" d="M 353 3500 
L 3084 3500 
L 3084 2975 
L 922 459 
L 3084 459 
L 3084 0 
L 275 0 
L 275 525 
L 2438 3041 
L 353 3041 
L 353 3500 
z
" transform="scale(0.015625)"/>
      </defs>
      <use xlink:href="#DejaVuSans-46"/>
      <use xlink:href="#DejaVuSans-6f" transform="translate(53.894531 0)"/>
      <use xlink:href="#DejaVuSans-72" transform="translate(115.076172 0)"/>
      <use xlink:href="#DejaVuSans-65" transform="translate(153.939453 0)"/>
      <use xlink:href="#DejaVuSans-63" transform="translate(215.462891 0)"/>
      <use xlink:href="#DejaVuSans-61" transform="translate(270.443359 0)"/>
      <use xlink:href="#DejaVuSans-73" transform="translate(331.722656 0)"/>
      <use xlink:href="#DejaVuSans-74" transform="translate(383.822266 0)"/>
      <use xlink:href="#DejaVuSans-20" transform="translate(423.03125 0)"/>
      <use xlink:href="#DejaVuSans-48" transform="translate(454.818359 0)"/>
      <use xlink:href="#DejaVuSans-6f" transform="translate(530.013672 0)"/>
      <use xlink:href="#DejaVuSans-72" transform="translate(591.195312 0)"/>
      <use xlink:href="#DejaVuSans-69" transform="translate(632.308594 0)"/>
      <use xlink:href="#DejaVuSans-7a" transform="translate(660.091797 0)"/>
      <use xlink:href="#DejaVuSans-6f" transform="translate(712.582031 0)"/>
      <use xlink:href="#DejaVuSans-6e" transform="translate(773.763672 0)"/>
     </g>
    </g>
    <g id="line2d_18">
     <path d="M 950.241027 81.7 
L 964.241027 81.7 
L 978.241027 81.7 
" style="fill: none; stroke: #0000ff; stroke-width: 2; stroke-linecap: square"/>
    </g>
    <g id="text_18">
     <!-- Global RMSE (6h Forecast) -->
     <g transform="translate(989.441027 86.6) scale(0.14 -0.14)">
      <defs>
       <path id="DejaVuSans-47" d="M 3809 666 
L 3809 1919 
L 2778 1919 
L 2778 2438 
L 4434 2438 
L 4434 434 
Q 4069 175 3628 42 
Q 3188 -91 2688 -91 
Q 1594 -91 976 548 
Q 359 1188 359 2328 
Q 359 3472 976 4111 
Q 1594 4750 2688 4750 
Q 3144 4750 3555 4637 
Q 3966 4525 4313 4306 
L 4313 3634 
Q 3963 3931 3569 4081 
Q 3175 4231 2741 4231 
Q 1884 4231 1454 3753 
Q 1025 3275 1025 2328 
Q 1025 1384 1454 906 
Q 1884 428 2741 428 
Q 3075 428 3337 486 
Q 3600 544 3809 666 
z
" transform="scale(0.015625)"/>
       <path id="DejaVuSans-6c" d="M 603 4863 
L 1178 4863 
L 1178 0 
L 603 0 
L 603 4863 
z
" transform="scale(0.015625)"/>
       <path id="DejaVuSans-62" d="M 3116 1747 
Q 3116 2381 2855 2742 
Q 2594 3103 2138 3103 
Q 1681 3103 1420 2742 
Q 1159 2381 1159 1747 
Q 1159 1113 1420 752 
Q 1681 391 2138 391 
Q 2594 391 2855 752 
Q 3116 1113 3116 1747 
z
M 1159 2969 
Q 1341 3281 1617 3432 
Q 1894 3584 2278 3584 
Q 2916 3584 3314 3078 
Q 3713 2572 3713 1747 
Q 3713 922 3314 415 
Q 2916 -91 2278 -91 
Q 1894 -91 1617 61 
Q 1341 213 1159 525 
L 1159 0 
L 581 0 
L 581 4863 
L 1159 4863 
L 1159 2969 
z
" transform="scale(0.015625)"/>
      </defs>
      <use xlink:href="#DejaVuSans-47"/>
      <use xlink:href="#DejaVuSans-6c" transform="translate(77.490234 0)"/>
      <use xlink:href="#DejaVuSans-6f" transform="translate(105.273438 0)"/>
      <use xlink:href="#DejaVuSans-62" transform="translate(166.455078 0)"/>
      <use xlink:href="#DejaVuSans-61" transform="translate(229.931641 0)"/>
      <use xlink:href="#DejaVuSans-6c" transform="translate(291.210938 0)"/>
      <use xlink:href="#DejaVuSans-20" transform="translate(318.994141 0)"/>
      <use xlink:href="#DejaVuSans-52" transform="translate(350.78125 0)"/>
      <use xlink:href="#DejaVuSans-4d" transform="translate(420.263672 0)"/>
      <use xlink:href="#DejaVuSans-53" transform="translate(506.542969 0)"/>
      <use xlink:href="#DejaVuSans-45" transform="translate(570.019531 0)"/>
      <use xlink:href="#DejaVuSans-20" transform="translate(633.203125 0)"/>
      <use xlink:href="#DejaVuSans-28" transform="translate(664.990234 0)"/>
      <use xlink:href="#DejaVuSans-36" transform="translate(704.003906 0)"/>
      <use xlink:href="#DejaVuSans-68" transform="translate(767.626953 0)"/>
      <use xlink:href="#DejaVuSans-20" transform="translate(831.005859 0)"/>
      <use xlink:href="#DejaVuSans-46" transform="translate(862.792969 0)"/>
      <use xlink:href="#DejaVuSans-6f" transform="translate(916.6875 0)"/>
      <use xlink:href="#DejaVuSans-72" transform="translate(977.869141 0)"/>
      <use xlink:href="#DejaVuSans-65" transform="translate(1016.732422 0)"/>
      <use xlink:href="#DejaVuSans-63" transform="translate(1078.255859 0)"/>
      <use xlink:href="#DejaVuSans-61" transform="translate(1133.236328 0)"/>
      <use xlink:href="#DejaVuSans-73" transform="translate(1194.515625 0)"/>
      <use xlink:href="#DejaVuSans-74" transform="translate(1246.615234 0)"/>
      <use xlink:href="#DejaVuSans-29" transform="translate(1285.824219 0)"/>
     </g>
    </g>
    <g id="line2d_19">
     <path d="M 950.241027 102.249375 
L 964.241027 102.249375 
L 978.241027 102.249375 
" style="fill: none; stroke: #ffa500; stroke-width: 2; stroke-linecap: square"/>
    </g>
    <g id="text_19">
     <!-- South Africa RMSE (6h Forecast) -->
     <g transform="translate(989.441027 107.149375) scale(0.14 -0.14)">
      <defs>
       <path id="DejaVuSans-41" d="M 2188 4044 
L 1331 1722 
L 3047 1722 
L 2188 4044 
z
M 1831 4666 
L 2547 4666 
L 4325 0 
L 3669 0 
L 3244 1197 
L 1141 1197 
L 716 0 
L 50 0 
L 1831 4666 
z
" transform="scale(0.015625)"/>
      </defs>
      <use xlink:href="#DejaVuSans-53"/>
      <use xlink:href="#DejaVuSans-6f" transform="translate(63.476562 0)"/>
      <use xlink:href="#DejaVuSans-75" transform="translate(124.658203 0)"/>
      <use xlink:href="#DejaVuSans-74" transform="translate(188.037109 0)"/>
      <use xlink:href="#DejaVuSans-68" transform="translate(227.246094 0)"/>
      <use xlink:href="#DejaVuSans-20" transform="translate(290.625 0)"/>
      <use xlink:href="#DejaVuSans-41" transform="translate(322.412109 0)"/>
      <use xlink:href="#DejaVuSans-66" transform="translate(387.195312 0)"/>
      <use xlink:href="#DejaVuSans-72" transform="translate(422.400391 0)"/>
      <use xlink:href="#DejaVuSans-69" transform="translate(463.513672 0)"/>
      <use xlink:href="#DejaVuSans-63" transform="translate(491.296875 0)"/>
      <use xlink:href="#DejaVuSans-61" transform="translate(546.277344 0)"/>
      <use xlink:href="#DejaVuSans-20" transform="translate(607.556641 0)"/>
      <use xlink:href="#DejaVuSans-52" transform="translate(639.34375 0)"/>
      <use xlink:href="#DejaVuSans-4d" transform="translate(708.826172 0)"/>
      <use xlink:href="#DejaVuSans-53" transform="translate(795.105469 0)"/>
      <use xlink:href="#DejaVuSans-45" transform="translate(858.582031 0)"/>
      <use xlink:href="#DejaVuSans-20" transform="translate(921.765625 0)"/>
      <use xlink:href="#DejaVuSans-28" transform="translate(953.552734 0)"/>
      <use xlink:href="#DejaVuSans-36" transform="translate(992.566406 0)"/>
      <use xlink:href="#DejaVuSans-68" transform="translate(1056.189453 0)"/>
      <use xlink:href="#DejaVuSans-20" transform="translate(1119.568359 0)"/>
      <use xlink:href="#DejaVuSans-46" transform="translate(1151.355469 0)"/>
      <use xlink:href="#DejaVuSans-6f" transform="translate(1205.25 0)"/>
      <use xlink:href="#DejaVuSans-72" transform="translate(1266.431641 0)"/>
      <use xlink:href="#DejaVuSans-65" transform="translate(1305.294922 0)"/>
      <use xlink:href="#DejaVuSans-63" transform="translate(1366.818359 0)"/>
      <use xlink:href="#DejaVuSans-61" transform="translate(1421.798828 0)"/>
      <use xlink:href="#DejaVuSans-73" transform="translate(1483.078125 0)"/>
      <use xlink:href="#DejaVuSans-74" transform="translate(1535.177734 0)"/>
      <use xlink:href="#DejaVuSans-29" transform="translate(1574.386719 0)"/>
     </g>
    </g>
    <g id="line2d_20">
     <path d="M 950.241027 122.79875 
L 964.241027 122.79875 
L 978.241027 122.79875 
" style="fill: none; stroke-dasharray: 7.4,3.2; stroke-dashoffset: 0; stroke: #0000ff; stroke-width: 2"/>
    </g>
    <g id="text_20">
     <!-- Global RMSE (12h Forecast) -->
     <g transform="translate(989.441027 127.69875) scale(0.14 -0.14)">
      <use xlink:href="#DejaVuSans-47"/>
      <use xlink:href="#DejaVuSans-6c" transform="translate(77.490234 0)"/>
      <use xlink:href="#DejaVuSans-6f" transform="translate(105.273438 0)"/>
      <use xlink:href="#DejaVuSans-62" transform="translate(166.455078 0)"/>
      <use xlink:href="#DejaVuSans-61" transform="translate(229.931641 0)"/>
      <use xlink:href="#DejaVuSans-6c" transform="translate(291.210938 0)"/>
      <use xlink:href="#DejaVuSans-20" transform="translate(318.994141 0)"/>
      <use xlink:href="#DejaVuSans-52" transform="translate(350.78125 0)"/>
      <use xlink:href="#DejaVuSans-4d" transform="translate(420.263672 0)"/>
      <use xlink:href="#DejaVuSans-53" transform="translate(506.542969 0)"/>
      <use xlink:href="#DejaVuSans-45" transform="translate(570.019531 0)"/>
      <use xlink:href="#DejaVuSans-20" transform="translate(633.203125 0)"/>
      <use xlink:href="#DejaVuSans-28" transform="translate(664.990234 0)"/>
      <use xlink:href="#DejaVuSans-31" transform="translate(704.003906 0)"/>
      <use xlink:href="#DejaVuSans-32" transform="translate(767.626953 0)"/>
      <use xlink:href="#DejaVuSans-68" transform="translate(831.25 0)"/>
      <use xlink:href="#DejaVuSans-20" transform="translate(894.628906 0)"/>
      <use xlink:href="#DejaVuSans-46" transform="translate(926.416016 0)"/>
      <use xlink:href="#DejaVuSans-6f" transform="translate(980.310547 0)"/>
      <use xlink:href="#DejaVuSans-72" transform="translate(1041.492188 0)"/>
      <use xlink:href="#DejaVuSans-65" transform="translate(1080.355469 0)"/>
      <use xlink:href="#DejaVuSans-63" transform="translate(1141.878906 0)"/>
      <use xlink:href="#DejaVuSans-61" transform="translate(1196.859375 0)"/>
      <use xlink:href="#DejaVuSans-73" transform="translate(1258.138672 0)"/>
      <use xlink:href="#DejaVuSans-74" transform="translate(1310.238281 0)"/>
      <use xlink:href="#DejaVuSans-29" transform="translate(1349.447266 0)"/>
     </g>
    </g>
    <g id="line2d_21">
     <path d="M 950.241027 143.348125 
L 964.241027 143.348125 
L 978.241027 143.348125 
" style="fill: none; stroke-dasharray: 7.4,3.2; stroke-dashoffset: 0; stroke: #ffa500; stroke-width: 2"/>
    </g>
    <g id="text_21">
     <!-- South Africa RMSE (12h Forecast) -->
     <g transform="translate(989.441027 148.248125) scale(0.14 -0.14)">
      <use xlink:href="#DejaVuSans-53"/>
      <use xlink:href="#DejaVuSans-6f" transform="translate(63.476562 0)"/>
      <use xlink:href="#DejaVuSans-75" transform="translate(124.658203 0)"/>
      <use xlink:href="#DejaVuSans-74" transform="translate(188.037109 0)"/>
      <use xlink:href="#DejaVuSans-68" transform="translate(227.246094 0)"/>
      <use xlink:href="#DejaVuSans-20" transform="translate(290.625 0)"/>
      <use xlink:href="#DejaVuSans-41" transform="translate(322.412109 0)"/>
      <use xlink:href="#DejaVuSans-66" transform="translate(387.195312 0)"/>
      <use xlink:href="#DejaVuSans-72" transform="translate(422.400391 0)"/>
      <use xlink:href="#DejaVuSans-69" transform="translate(463.513672 0)"/>
      <use xlink:href="#DejaVuSans-63" transform="translate(491.296875 0)"/>
      <use xlink:href="#DejaVuSans-61" transform="translate(546.277344 0)"/>
      <use xlink:href="#DejaVuSans-20" transform="translate(607.556641 0)"/>
      <use xlink:href="#DejaVuSans-52" transform="translate(639.34375 0)"/>
      <use xlink:href="#DejaVuSans-4d" transform="translate(708.826172 0)"/>
      <use xlink:href="#DejaVuSans-53" transform="translate(795.105469 0)"/>
      <use xlink:href="#DejaVuSans-45" transform="translate(858.582031 0)"/>
      <use xlink:href="#DejaVuSans-20" transform="translate(921.765625 0)"/>
      <use xlink:href="#DejaVuSans-28" transform="translate(953.552734 0)"/>
      <use xlink:href="#DejaVuSans-31" transform="translate(992.566406 0)"/>
      <use xlink:href="#DejaVuSans-32" transform="translate(1056.189453 0)"/>
      <use xlink:href="#DejaVuSans-68" transform="translate(1119.8125 0)"/>
      <use xlink:href="#DejaVuSans-20" transform="translate(1183.191406 0)"/>
      <use xlink:href="#DejaVuSans-46" transform="translate(1214.978516 0)"/>
      <use xlink:href="#DejaVuSans-6f" transform="translate(1268.873047 0)"/>
      <use xlink:href="#DejaVuSans-72" transform="translate(1330.054688 0)"/>
      <use xlink:href="#DejaVuSans-65" transform="translate(1368.917969 0)"/>
      <use xlink:href="#DejaVuSans-63" transform="translate(1430.441406 0)"/>
      <use xlink:href="#DejaVuSans-61" transform="translate(1485.421875 0)"/>
      <use xlink:href="#DejaVuSans-73" transform="translate(1546.701172 0)"/>
      <use xlink:href="#DejaVuSans-74" transform="translate(1598.800781 0)"/>
      <use xlink:href="#DejaVuSans-29" transform="translate(1638.009766 0)"/>
     </g>
    </g>
   </g>
  </g>
 </g>
 <defs>
  <clipPath id="p990db38902">
   <rect x="58.791027" y="40.877187" width="837" height="443.52"/>
  </clipPath>
 </defs>
</svg>
