<?xml version="1.0" encoding="utf-8" standalone="no"?>
<!DOCTYPE svg PUBLIC "-//W3C//DTD SVG 1.1//EN"
  "http://www.w3.org/Graphics/SVG/1.1/DTD/svg11.dtd">
<svg xmlns:xlink="http://www.w3.org/1999/xlink" width="1246.907812pt" height="575.421502pt" viewBox="0 0 1246.907812 575.421502" xmlns="http://www.w3.org/2000/svg" version="1.1">
 <metadata>
  <rdf:RDF xmlns:dc="http://purl.org/dc/elements/1.1/" xmlns:cc="http://creativecommons.org/ns#" xmlns:rdf="http://www.w3.org/1999/02/22-rdf-syntax-ns#">
   <cc:Work>
    <dc:type rdf:resource="http://purl.org/dc/dcmitype/StillImage"/>
    <dc:date>2025-02-18T12:09:51.474106</dc:date>
    <dc:format>image/svg+xml</dc:format>
    <dc:creator>
     <cc:Agent>
      <dc:title>Matplotlib v3.10.0, https://matplotlib.org/</dc:title>
     </cc:Agent>
    </dc:creator>
   </cc:Work>
  </rdf:RDF>
 </metadata>
 <defs>
  <style type="text/css">*{stroke-linejoin: round; stroke-linecap: butt}</style>
 </defs>
 <g id="figure_1">
  <g id="patch_1">
   <path d="M 0 575.421502 
L 1246.907812 575.421502 
L 1246.907812 0 
L 0 0 
z
" style="fill: #ffffff"/>
  </g>
  <g id="axes_1">
   <g id="patch_2">
    <path d="M 68.675625 484.397187 
L 905.675625 484.397187 
L 905.675625 40.877187 
L 68.675625 40.877187 
z
" style="fill: #ffffff"/>
   </g>
   <g id="matplotlib.axis_1">
    <g id="xtick_1">
     <g id="line2d_1">
      <defs>
       <path id="m42a1584bb6" d="M 0 0 
L 0 3.5 
" style="stroke: #000000; stroke-width: 0.8"/>
      </defs>
      <g>
       <use xlink:href="#m42a1584bb6" x="106.72108" y="484.397187" style="stroke: #000000; stroke-width: 0.8"/>
      </g>
     </g>
     <g id="text_1">
      <!-- 2022-01-01 (12:00) -->
      <g transform="translate(20.883817 546.93544) rotate(-30) scale(0.1 -0.1)">
       <defs>
        <path id="DejaVuSans-32" d="M 1228 531 
L 3431 531 
L 3431 0 
L 469 0 
L 469 531 
Q 828 903 1448 1529 
Q 2069 2156 2228 2338 
Q 2531 2678 2651 2914 
Q 2772 3150 2772 3378 
Q 2772 3750 2511 3984 
Q 2250 4219 1831 4219 
Q 1534 4219 1204 4116 
Q 875 4013 500 3803 
L 500 4441 
Q 881 4594 1212 4672 
Q 1544 4750 1819 4750 
Q 2544 4750 2975 4387 
Q 3406 4025 3406 3419 
Q 3406 3131 3298 2873 
Q 3191 2616 2906 2266 
Q 2828 2175 2409 1742 
Q 1991 1309 1228 531 
z
" transform="scale(0.015625)"/>
        <path id="DejaVuSans-30" d="M 2034 4250 
Q 1547 4250 1301 3770 
Q 1056 3291 1056 2328 
Q 1056 1369 1301 889 
Q 1547 409 2034 409 
Q 2525 409 2770 889 
Q 3016 1369 3016 2328 
Q 3016 3291 2770 3770 
Q 2525 4250 2034 4250 
z
M 2034 4750 
Q 2819 4750 3233 4129 
Q 3647 3509 3647 2328 
Q 3647 1150 3233 529 
Q 2819 -91 2034 -91 
Q 1250 -91 836 529 
Q 422 1150 422 2328 
Q 422 3509 836 4129 
Q 1250 4750 2034 4750 
z
" transform="scale(0.015625)"/>
        <path id="DejaVuSans-2d" d="M 313 2009 
L 1997 2009 
L 1997 1497 
L 313 1497 
L 313 2009 
z
" transform="scale(0.015625)"/>
        <path id="DejaVuSans-31" d="M 794 531 
L 1825 531 
L 1825 4091 
L 703 3866 
L 703 4441 
L 1819 4666 
L 2450 4666 
L 2450 531 
L 3481 531 
L 3481 0 
L 794 0 
L 794 531 
z
" transform="scale(0.015625)"/>
        <path id="DejaVuSans-20" transform="scale(0.015625)"/>
        <path id="DejaVuSans-28" d="M 1984 4856 
Q 1566 4138 1362 3434 
Q 1159 2731 1159 2009 
Q 1159 1288 1364 580 
Q 1569 -128 1984 -844 
L 1484 -844 
Q 1016 -109 783 600 
Q 550 1309 550 2009 
Q 550 2706 781 3412 
Q 1013 4119 1484 4856 
L 1984 4856 
z
" transform="scale(0.015625)"/>
        <path id="DejaVuSans-3a" d="M 750 794 
L 1409 794 
L 1409 0 
L 750 0 
L 750 794 
z
M 750 3309 
L 1409 3309 
L 1409 2516 
L 750 2516 
L 750 3309 
z
" transform="scale(0.015625)"/>
        <path id="DejaVuSans-29" d="M 513 4856 
L 1013 4856 
Q 1481 4119 1714 3412 
Q 1947 2706 1947 2009 
Q 1947 1309 1714 600 
Q 1481 -109 1013 -844 
L 513 -844 
Q 928 -128 1133 580 
Q 1338 1288 1338 2009 
Q 1338 2731 1133 3434 
Q 928 4138 513 4856 
z
" transform="scale(0.015625)"/>
       </defs>
       <use xlink:href="#DejaVuSans-32"/>
       <use xlink:href="#DejaVuSans-30" transform="translate(63.623047 0)"/>
       <use xlink:href="#DejaVuSans-32" transform="translate(127.246094 0)"/>
       <use xlink:href="#DejaVuSans-32" transform="translate(190.869141 0)"/>
       <use xlink:href="#DejaVuSans-2d" transform="translate(254.492188 0)"/>
       <use xlink:href="#DejaVuSans-30" transform="translate(290.576172 0)"/>
       <use xlink:href="#DejaVuSans-31" transform="translate(354.199219 0)"/>
       <use xlink:href="#DejaVuSans-2d" transform="translate(417.822266 0)"/>
       <use xlink:href="#DejaVuSans-30" transform="translate(453.90625 0)"/>
       <use xlink:href="#DejaVuSans-31" transform="translate(517.529297 0)"/>
       <use xlink:href="#DejaVuSans-20" transform="translate(581.152344 0)"/>
       <use xlink:href="#DejaVuSans-28" transform="translate(612.939453 0)"/>
       <use xlink:href="#DejaVuSans-31" transform="translate(651.953125 0)"/>
       <use xlink:href="#DejaVuSans-32" transform="translate(715.576172 0)"/>
       <use xlink:href="#DejaVuSans-3a" transform="translate(779.199219 0)"/>
       <use xlink:href="#DejaVuSans-30" transform="translate(812.890625 0)"/>
       <use xlink:href="#DejaVuSans-30" transform="translate(876.513672 0)"/>
       <use xlink:href="#DejaVuSans-29" transform="translate(940.136719 0)"/>
      </g>
     </g>
    </g>
    <g id="xtick_2">
     <g id="line2d_2">
      <g>
       <use xlink:href="#m42a1584bb6" x="256.45821" y="484.397187" style="stroke: #000000; stroke-width: 0.8"/>
      </g>
     </g>
     <g id="text_2">
      <!-- 2022-03-16 (00:00) -->
      <g transform="translate(170.620947 546.93544) rotate(-30) scale(0.1 -0.1)">
       <defs>
        <path id="DejaVuSans-33" d="M 2597 2516 
Q 3050 2419 3304 2112 
Q 3559 1806 3559 1356 
Q 3559 666 3084 287 
Q 2609 -91 1734 -91 
Q 1441 -91 1130 -33 
Q 819 25 488 141 
L 488 750 
Q 750 597 1062 519 
Q 1375 441 1716 441 
Q 2309 441 2620 675 
Q 2931 909 2931 1356 
Q 2931 1769 2642 2001 
Q 2353 2234 1838 2234 
L 1294 2234 
L 1294 2753 
L 1863 2753 
Q 2328 2753 2575 2939 
Q 2822 3125 2822 3475 
Q 2822 3834 2567 4026 
Q 2313 4219 1838 4219 
Q 1578 4219 1281 4162 
Q 984 4106 628 3988 
L 628 4550 
Q 988 4650 1302 4700 
Q 1616 4750 1894 4750 
Q 2613 4750 3031 4423 
Q 3450 4097 3450 3541 
Q 3450 3153 3228 2886 
Q 3006 2619 2597 2516 
z
" transform="scale(0.015625)"/>
        <path id="DejaVuSans-36" d="M 2113 2584 
Q 1688 2584 1439 2293 
Q 1191 2003 1191 1497 
Q 1191 994 1439 701 
Q 1688 409 2113 409 
Q 2538 409 2786 701 
Q 3034 994 3034 1497 
Q 3034 2003 2786 2293 
Q 2538 2584 2113 2584 
z
M 3366 4563 
L 3366 3988 
Q 3128 4100 2886 4159 
Q 2644 4219 2406 4219 
Q 1781 4219 1451 3797 
Q 1122 3375 1075 2522 
Q 1259 2794 1537 2939 
Q 1816 3084 2150 3084 
Q 2853 3084 3261 2657 
Q 3669 2231 3669 1497 
Q 3669 778 3244 343 
Q 2819 -91 2113 -91 
Q 1303 -91 875 529 
Q 447 1150 447 2328 
Q 447 3434 972 4092 
Q 1497 4750 2381 4750 
Q 2619 4750 2861 4703 
Q 3103 4656 3366 4563 
z
" transform="scale(0.015625)"/>
       </defs>
       <use xlink:href="#DejaVuSans-32"/>
       <use xlink:href="#DejaVuSans-30" transform="translate(63.623047 0)"/>
       <use xlink:href="#DejaVuSans-32" transform="translate(127.246094 0)"/>
       <use xlink:href="#DejaVuSans-32" transform="translate(190.869141 0)"/>
       <use xlink:href="#DejaVuSans-2d" transform="translate(254.492188 0)"/>
       <use xlink:href="#DejaVuSans-30" transform="translate(290.576172 0)"/>
       <use xlink:href="#DejaVuSans-33" transform="translate(354.199219 0)"/>
       <use xlink:href="#DejaVuSans-2d" transform="translate(417.822266 0)"/>
       <use xlink:href="#DejaVuSans-31" transform="translate(453.90625 0)"/>
       <use xlink:href="#DejaVuSans-36" transform="translate(517.529297 0)"/>
       <use xlink:href="#DejaVuSans-20" transform="translate(581.152344 0)"/>
       <use xlink:href="#DejaVuSans-28" transform="translate(612.939453 0)"/>
       <use xlink:href="#DejaVuSans-30" transform="translate(651.953125 0)"/>
       <use xlink:href="#DejaVuSans-30" transform="translate(715.576172 0)"/>
       <use xlink:href="#DejaVuSans-3a" transform="translate(779.199219 0)"/>
       <use xlink:href="#DejaVuSans-30" transform="translate(812.890625 0)"/>
       <use xlink:href="#DejaVuSans-30" transform="translate(876.513672 0)"/>
       <use xlink:href="#DejaVuSans-29" transform="translate(940.136719 0)"/>
      </g>
     </g>
    </g>
    <g id="xtick_3">
     <g id="line2d_3">
      <g>
       <use xlink:href="#m42a1584bb6" x="409.2512" y="484.397187" style="stroke: #000000; stroke-width: 0.8"/>
      </g>
     </g>
     <g id="text_3">
      <!-- 2022-05-30 (00:00) -->
      <g transform="translate(323.413938 546.93544) rotate(-30) scale(0.1 -0.1)">
       <defs>
        <path id="DejaVuSans-35" d="M 691 4666 
L 3169 4666 
L 3169 4134 
L 1269 4134 
L 1269 2991 
Q 1406 3038 1543 3061 
Q 1681 3084 1819 3084 
Q 2600 3084 3056 2656 
Q 3513 2228 3513 1497 
Q 3513 744 3044 326 
Q 2575 -91 1722 -91 
Q 1428 -91 1123 -41 
Q 819 9 494 109 
L 494 744 
Q 775 591 1075 516 
Q 1375 441 1709 441 
Q 2250 441 2565 725 
Q 2881 1009 2881 1497 
Q 2881 1984 2565 2268 
Q 2250 2553 1709 2553 
Q 1456 2553 1204 2497 
Q 953 2441 691 2322 
L 691 4666 
z
" transform="scale(0.015625)"/>
       </defs>
       <use xlink:href="#DejaVuSans-32"/>
       <use xlink:href="#DejaVuSans-30" transform="translate(63.623047 0)"/>
       <use xlink:href="#DejaVuSans-32" transform="translate(127.246094 0)"/>
       <use xlink:href="#DejaVuSans-32" transform="translate(190.869141 0)"/>
       <use xlink:href="#DejaVuSans-2d" transform="translate(254.492188 0)"/>
       <use xlink:href="#DejaVuSans-30" transform="translate(290.576172 0)"/>
       <use xlink:href="#DejaVuSans-35" transform="translate(354.199219 0)"/>
       <use xlink:href="#DejaVuSans-2d" transform="translate(417.822266 0)"/>
       <use xlink:href="#DejaVuSans-33" transform="translate(453.90625 0)"/>
       <use xlink:href="#DejaVuSans-30" transform="translate(517.529297 0)"/>
       <use xlink:href="#DejaVuSans-20" transform="translate(581.152344 0)"/>
       <use xlink:href="#DejaVuSans-28" transform="translate(612.939453 0)"/>
       <use xlink:href="#DejaVuSans-30" transform="translate(651.953125 0)"/>
       <use xlink:href="#DejaVuSans-30" transform="translate(715.576172 0)"/>
       <use xlink:href="#DejaVuSans-3a" transform="translate(779.199219 0)"/>
       <use xlink:href="#DejaVuSans-30" transform="translate(812.890625 0)"/>
       <use xlink:href="#DejaVuSans-30" transform="translate(876.513672 0)"/>
       <use xlink:href="#DejaVuSans-29" transform="translate(940.136719 0)"/>
      </g>
     </g>
    </g>
    <g id="xtick_4">
     <g id="line2d_4">
      <g>
       <use xlink:href="#m42a1584bb6" x="562.04419" y="484.397187" style="stroke: #000000; stroke-width: 0.8"/>
      </g>
     </g>
     <g id="text_4">
      <!-- 2022-08-13 (00:00) -->
      <g transform="translate(476.206928 546.93544) rotate(-30) scale(0.1 -0.1)">
       <defs>
        <path id="DejaVuSans-38" d="M 2034 2216 
Q 1584 2216 1326 1975 
Q 1069 1734 1069 1313 
Q 1069 891 1326 650 
Q 1584 409 2034 409 
Q 2484 409 2743 651 
Q 3003 894 3003 1313 
Q 3003 1734 2745 1975 
Q 2488 2216 2034 2216 
z
M 1403 2484 
Q 997 2584 770 2862 
Q 544 3141 544 3541 
Q 544 4100 942 4425 
Q 1341 4750 2034 4750 
Q 2731 4750 3128 4425 
Q 3525 4100 3525 3541 
Q 3525 3141 3298 2862 
Q 3072 2584 2669 2484 
Q 3125 2378 3379 2068 
Q 3634 1759 3634 1313 
Q 3634 634 3220 271 
Q 2806 -91 2034 -91 
Q 1263 -91 848 271 
Q 434 634 434 1313 
Q 434 1759 690 2068 
Q 947 2378 1403 2484 
z
M 1172 3481 
Q 1172 3119 1398 2916 
Q 1625 2713 2034 2713 
Q 2441 2713 2670 2916 
Q 2900 3119 2900 3481 
Q 2900 3844 2670 4047 
Q 2441 4250 2034 4250 
Q 1625 4250 1398 4047 
Q 1172 3844 1172 3481 
z
" transform="scale(0.015625)"/>
       </defs>
       <use xlink:href="#DejaVuSans-32"/>
       <use xlink:href="#DejaVuSans-30" transform="translate(63.623047 0)"/>
       <use xlink:href="#DejaVuSans-32" transform="translate(127.246094 0)"/>
       <use xlink:href="#DejaVuSans-32" transform="translate(190.869141 0)"/>
       <use xlink:href="#DejaVuSans-2d" transform="translate(254.492188 0)"/>
       <use xlink:href="#DejaVuSans-30" transform="translate(290.576172 0)"/>
       <use xlink:href="#DejaVuSans-38" transform="translate(354.199219 0)"/>
       <use xlink:href="#DejaVuSans-2d" transform="translate(417.822266 0)"/>
       <use xlink:href="#DejaVuSans-31" transform="translate(453.90625 0)"/>
       <use xlink:href="#DejaVuSans-33" transform="translate(517.529297 0)"/>
       <use xlink:href="#DejaVuSans-20" transform="translate(581.152344 0)"/>
       <use xlink:href="#DejaVuSans-28" transform="translate(612.939453 0)"/>
       <use xlink:href="#DejaVuSans-30" transform="translate(651.953125 0)"/>
       <use xlink:href="#DejaVuSans-30" transform="translate(715.576172 0)"/>
       <use xlink:href="#DejaVuSans-3a" transform="translate(779.199219 0)"/>
       <use xlink:href="#DejaVuSans-30" transform="translate(812.890625 0)"/>
       <use xlink:href="#DejaVuSans-30" transform="translate(876.513672 0)"/>
       <use xlink:href="#DejaVuSans-29" transform="translate(940.136719 0)"/>
      </g>
     </g>
    </g>
    <g id="xtick_5">
     <g id="line2d_5">
      <g>
       <use xlink:href="#m42a1584bb6" x="714.83718" y="484.397187" style="stroke: #000000; stroke-width: 0.8"/>
      </g>
     </g>
     <g id="text_5">
      <!-- 2022-10-27 (00:00) -->
      <g transform="translate(628.999918 546.93544) rotate(-30) scale(0.1 -0.1)">
       <defs>
        <path id="DejaVuSans-37" d="M 525 4666 
L 3525 4666 
L 3525 4397 
L 1831 0 
L 1172 0 
L 2766 4134 
L 525 4134 
L 525 4666 
z
" transform="scale(0.015625)"/>
       </defs>
       <use xlink:href="#DejaVuSans-32"/>
       <use xlink:href="#DejaVuSans-30" transform="translate(63.623047 0)"/>
       <use xlink:href="#DejaVuSans-32" transform="translate(127.246094 0)"/>
       <use xlink:href="#DejaVuSans-32" transform="translate(190.869141 0)"/>
       <use xlink:href="#DejaVuSans-2d" transform="translate(254.492188 0)"/>
       <use xlink:href="#DejaVuSans-31" transform="translate(290.576172 0)"/>
       <use xlink:href="#DejaVuSans-30" transform="translate(354.199219 0)"/>
       <use xlink:href="#DejaVuSans-2d" transform="translate(417.822266 0)"/>
       <use xlink:href="#DejaVuSans-32" transform="translate(453.90625 0)"/>
       <use xlink:href="#DejaVuSans-37" transform="translate(517.529297 0)"/>
       <use xlink:href="#DejaVuSans-20" transform="translate(581.152344 0)"/>
       <use xlink:href="#DejaVuSans-28" transform="translate(612.939453 0)"/>
       <use xlink:href="#DejaVuSans-30" transform="translate(651.953125 0)"/>
       <use xlink:href="#DejaVuSans-30" transform="translate(715.576172 0)"/>
       <use xlink:href="#DejaVuSans-3a" transform="translate(779.199219 0)"/>
       <use xlink:href="#DejaVuSans-30" transform="translate(812.890625 0)"/>
       <use xlink:href="#DejaVuSans-30" transform="translate(876.513672 0)"/>
       <use xlink:href="#DejaVuSans-29" transform="translate(940.136719 0)"/>
      </g>
     </g>
    </g>
    <g id="xtick_6">
     <g id="line2d_6">
      <g>
       <use xlink:href="#m42a1584bb6" x="867.63017" y="484.397187" style="stroke: #000000; stroke-width: 0.8"/>
      </g>
     </g>
     <g id="text_6">
      <!-- 2023-01-10 (00:00) -->
      <g transform="translate(781.792908 546.93544) rotate(-30) scale(0.1 -0.1)">
       <use xlink:href="#DejaVuSans-32"/>
       <use xlink:href="#DejaVuSans-30" transform="translate(63.623047 0)"/>
       <use xlink:href="#DejaVuSans-32" transform="translate(127.246094 0)"/>
       <use xlink:href="#DejaVuSans-33" transform="translate(190.869141 0)"/>
       <use xlink:href="#DejaVuSans-2d" transform="translate(254.492188 0)"/>
       <use xlink:href="#DejaVuSans-30" transform="translate(290.576172 0)"/>
       <use xlink:href="#DejaVuSans-31" transform="translate(354.199219 0)"/>
       <use xlink:href="#DejaVuSans-2d" transform="translate(417.822266 0)"/>
       <use xlink:href="#DejaVuSans-31" transform="translate(453.90625 0)"/>
       <use xlink:href="#DejaVuSans-30" transform="translate(517.529297 0)"/>
       <use xlink:href="#DejaVuSans-20" transform="translate(581.152344 0)"/>
       <use xlink:href="#DejaVuSans-28" transform="translate(612.939453 0)"/>
       <use xlink:href="#DejaVuSans-30" transform="translate(651.953125 0)"/>
       <use xlink:href="#DejaVuSans-30" transform="translate(715.576172 0)"/>
       <use xlink:href="#DejaVuSans-3a" transform="translate(779.199219 0)"/>
       <use xlink:href="#DejaVuSans-30" transform="translate(812.890625 0)"/>
       <use xlink:href="#DejaVuSans-30" transform="translate(876.513672 0)"/>
       <use xlink:href="#DejaVuSans-29" transform="translate(940.136719 0)"/>
      </g>
     </g>
    </g>
    <g id="text_7">
     <!-- Forecast Date -->
     <g transform="translate(431.669375 564.894002) scale(0.16 -0.16)">
      <defs>
       <path id="DejaVuSans-46" d="M 628 4666 
L 3309 4666 
L 3309 4134 
L 1259 4134 
L 1259 2759 
L 3109 2759 
L 3109 2228 
L 1259 2228 
L 1259 0 
L 628 0 
L 628 4666 
z
" transform="scale(0.015625)"/>
       <path id="DejaVuSans-6f" d="M 1959 3097 
Q 1497 3097 1228 2736 
Q 959 2375 959 1747 
Q 959 1119 1226 758 
Q 1494 397 1959 397 
Q 2419 397 2687 759 
Q 2956 1122 2956 1747 
Q 2956 2369 2687 2733 
Q 2419 3097 1959 3097 
z
M 1959 3584 
Q 2709 3584 3137 3096 
Q 3566 2609 3566 1747 
Q 3566 888 3137 398 
Q 2709 -91 1959 -91 
Q 1206 -91 779 398 
Q 353 888 353 1747 
Q 353 2609 779 3096 
Q 1206 3584 1959 3584 
z
" transform="scale(0.015625)"/>
       <path id="DejaVuSans-72" d="M 2631 2963 
Q 2534 3019 2420 3045 
Q 2306 3072 2169 3072 
Q 1681 3072 1420 2755 
Q 1159 2438 1159 1844 
L 1159 0 
L 581 0 
L 581 3500 
L 1159 3500 
L 1159 2956 
Q 1341 3275 1631 3429 
Q 1922 3584 2338 3584 
Q 2397 3584 2469 3576 
Q 2541 3569 2628 3553 
L 2631 2963 
z
" transform="scale(0.015625)"/>
       <path id="DejaVuSans-65" d="M 3597 1894 
L 3597 1613 
L 953 1613 
Q 991 1019 1311 708 
Q 1631 397 2203 397 
Q 2534 397 2845 478 
Q 3156 559 3463 722 
L 3463 178 
Q 3153 47 2828 -22 
Q 2503 -91 2169 -91 
Q 1331 -91 842 396 
Q 353 884 353 1716 
Q 353 2575 817 3079 
Q 1281 3584 2069 3584 
Q 2775 3584 3186 3129 
Q 3597 2675 3597 1894 
z
M 3022 2063 
Q 3016 2534 2758 2815 
Q 2500 3097 2075 3097 
Q 1594 3097 1305 2825 
Q 1016 2553 972 2059 
L 3022 2063 
z
" transform="scale(0.015625)"/>
       <path id="DejaVuSans-63" d="M 3122 3366 
L 3122 2828 
Q 2878 2963 2633 3030 
Q 2388 3097 2138 3097 
Q 1578 3097 1268 2742 
Q 959 2388 959 1747 
Q 959 1106 1268 751 
Q 1578 397 2138 397 
Q 2388 397 2633 464 
Q 2878 531 3122 666 
L 3122 134 
Q 2881 22 2623 -34 
Q 2366 -91 2075 -91 
Q 1284 -91 818 406 
Q 353 903 353 1747 
Q 353 2603 823 3093 
Q 1294 3584 2113 3584 
Q 2378 3584 2631 3529 
Q 2884 3475 3122 3366 
z
" transform="scale(0.015625)"/>
       <path id="DejaVuSans-61" d="M 2194 1759 
Q 1497 1759 1228 1600 
Q 959 1441 959 1056 
Q 959 750 1161 570 
Q 1363 391 1709 391 
Q 2188 391 2477 730 
Q 2766 1069 2766 1631 
L 2766 1759 
L 2194 1759 
z
M 3341 1997 
L 3341 0 
L 2766 0 
L 2766 531 
Q 2569 213 2275 61 
Q 1981 -91 1556 -91 
Q 1019 -91 701 211 
Q 384 513 384 1019 
Q 384 1609 779 1909 
Q 1175 2209 1959 2209 
L 2766 2209 
L 2766 2266 
Q 2766 2663 2505 2880 
Q 2244 3097 1772 3097 
Q 1472 3097 1187 3025 
Q 903 2953 641 2809 
L 641 3341 
Q 956 3463 1253 3523 
Q 1550 3584 1831 3584 
Q 2591 3584 2966 3190 
Q 3341 2797 3341 1997 
z
" transform="scale(0.015625)"/>
       <path id="DejaVuSans-73" d="M 2834 3397 
L 2834 2853 
Q 2591 2978 2328 3040 
Q 2066 3103 1784 3103 
Q 1356 3103 1142 2972 
Q 928 2841 928 2578 
Q 928 2378 1081 2264 
Q 1234 2150 1697 2047 
L 1894 2003 
Q 2506 1872 2764 1633 
Q 3022 1394 3022 966 
Q 3022 478 2636 193 
Q 2250 -91 1575 -91 
Q 1294 -91 989 -36 
Q 684 19 347 128 
L 347 722 
Q 666 556 975 473 
Q 1284 391 1588 391 
Q 1994 391 2212 530 
Q 2431 669 2431 922 
Q 2431 1156 2273 1281 
Q 2116 1406 1581 1522 
L 1381 1569 
Q 847 1681 609 1914 
Q 372 2147 372 2553 
Q 372 3047 722 3315 
Q 1072 3584 1716 3584 
Q 2034 3584 2315 3537 
Q 2597 3491 2834 3397 
z
" transform="scale(0.015625)"/>
       <path id="DejaVuSans-74" d="M 1172 4494 
L 1172 3500 
L 2356 3500 
L 2356 3053 
L 1172 3053 
L 1172 1153 
Q 1172 725 1289 603 
Q 1406 481 1766 481 
L 2356 481 
L 2356 0 
L 1766 0 
Q 1100 0 847 248 
Q 594 497 594 1153 
L 594 3053 
L 172 3053 
L 172 3500 
L 594 3500 
L 594 4494 
L 1172 4494 
z
" transform="scale(0.015625)"/>
       <path id="DejaVuSans-44" d="M 1259 4147 
L 1259 519 
L 2022 519 
Q 2988 519 3436 956 
Q 3884 1394 3884 2338 
Q 3884 3275 3436 3711 
Q 2988 4147 2022 4147 
L 1259 4147 
z
M 628 4666 
L 1925 4666 
Q 3281 4666 3915 4102 
Q 4550 3538 4550 2338 
Q 4550 1131 3912 565 
Q 3275 0 1925 0 
L 628 0 
L 628 4666 
z
" transform="scale(0.015625)"/>
      </defs>
      <use xlink:href="#DejaVuSans-46"/>
      <use xlink:href="#DejaVuSans-6f" transform="translate(53.894531 0)"/>
      <use xlink:href="#DejaVuSans-72" transform="translate(115.076172 0)"/>
      <use xlink:href="#DejaVuSans-65" transform="translate(153.939453 0)"/>
      <use xlink:href="#DejaVuSans-63" transform="translate(215.462891 0)"/>
      <use xlink:href="#DejaVuSans-61" transform="translate(270.443359 0)"/>
      <use xlink:href="#DejaVuSans-73" transform="translate(331.722656 0)"/>
      <use xlink:href="#DejaVuSans-74" transform="translate(383.822266 0)"/>
      <use xlink:href="#DejaVuSans-20" transform="translate(423.03125 0)"/>
      <use xlink:href="#DejaVuSans-44" transform="translate(454.818359 0)"/>
      <use xlink:href="#DejaVuSans-61" transform="translate(531.820312 0)"/>
      <use xlink:href="#DejaVuSans-74" transform="translate(593.099609 0)"/>
      <use xlink:href="#DejaVuSans-65" transform="translate(632.308594 0)"/>
     </g>
    </g>
   </g>
   <g id="matplotlib.axis_2">
    <g id="ytick_1">
     <g id="line2d_7">
      <defs>
       <path id="m131149c60d" d="M 0 0 
L -3.5 0 
" style="stroke: #000000; stroke-width: 0.8"/>
      </defs>
      <g>
       <use xlink:href="#m131149c60d" x="68.675625" y="473.809166" style="stroke: #000000; stroke-width: 0.8"/>
      </g>
     </g>
     <g id="text_8">
      <!-- 0.0000 -->
      <g transform="translate(26.685 477.608384) scale(0.1 -0.1)">
       <defs>
        <path id="DejaVuSans-2e" d="M 684 794 
L 1344 794 
L 1344 0 
L 684 0 
L 684 794 
z
" transform="scale(0.015625)"/>
       </defs>
       <use xlink:href="#DejaVuSans-30"/>
       <use xlink:href="#DejaVuSans-2e" transform="translate(63.623047 0)"/>
       <use xlink:href="#DejaVuSans-30" transform="translate(95.410156 0)"/>
       <use xlink:href="#DejaVuSans-30" transform="translate(159.033203 0)"/>
       <use xlink:href="#DejaVuSans-30" transform="translate(222.65625 0)"/>
       <use xlink:href="#DejaVuSans-30" transform="translate(286.279297 0)"/>
      </g>
     </g>
    </g>
    <g id="ytick_2">
     <g id="line2d_8">
      <g>
       <use xlink:href="#m131149c60d" x="68.675625" y="410.414017" style="stroke: #000000; stroke-width: 0.8"/>
      </g>
     </g>
     <g id="text_9">
      <!-- 0.0002 -->
      <g transform="translate(26.685 414.213236) scale(0.1 -0.1)">
       <use xlink:href="#DejaVuSans-30"/>
       <use xlink:href="#DejaVuSans-2e" transform="translate(63.623047 0)"/>
       <use xlink:href="#DejaVuSans-30" transform="translate(95.410156 0)"/>
       <use xlink:href="#DejaVuSans-30" transform="translate(159.033203 0)"/>
       <use xlink:href="#DejaVuSans-30" transform="translate(222.65625 0)"/>
       <use xlink:href="#DejaVuSans-32" transform="translate(286.279297 0)"/>
      </g>
     </g>
    </g>
    <g id="ytick_3">
     <g id="line2d_9">
      <g>
       <use xlink:href="#m131149c60d" x="68.675625" y="347.018869" style="stroke: #000000; stroke-width: 0.8"/>
      </g>
     </g>
     <g id="text_10">
      <!-- 0.0004 -->
      <g transform="translate(26.685 350.818088) scale(0.1 -0.1)">
       <defs>
        <path id="DejaVuSans-34" d="M 2419 4116 
L 825 1625 
L 2419 1625 
L 2419 4116 
z
M 2253 4666 
L 3047 4666 
L 3047 1625 
L 3713 1625 
L 3713 1100 
L 3047 1100 
L 3047 0 
L 2419 0 
L 2419 1100 
L 313 1100 
L 313 1709 
L 2253 4666 
z
" transform="scale(0.015625)"/>
       </defs>
       <use xlink:href="#DejaVuSans-30"/>
       <use xlink:href="#DejaVuSans-2e" transform="translate(63.623047 0)"/>
       <use xlink:href="#DejaVuSans-30" transform="translate(95.410156 0)"/>
       <use xlink:href="#DejaVuSans-30" transform="translate(159.033203 0)"/>
       <use xlink:href="#DejaVuSans-30" transform="translate(222.65625 0)"/>
       <use xlink:href="#DejaVuSans-34" transform="translate(286.279297 0)"/>
      </g>
     </g>
    </g>
    <g id="ytick_4">
     <g id="line2d_10">
      <g>
       <use xlink:href="#m131149c60d" x="68.675625" y="283.623721" style="stroke: #000000; stroke-width: 0.8"/>
      </g>
     </g>
     <g id="text_11">
      <!-- 0.0006 -->
      <g transform="translate(26.685 287.42294) scale(0.1 -0.1)">
       <use xlink:href="#DejaVuSans-30"/>
       <use xlink:href="#DejaVuSans-2e" transform="translate(63.623047 0)"/>
       <use xlink:href="#DejaVuSans-30" transform="translate(95.410156 0)"/>
       <use xlink:href="#DejaVuSans-30" transform="translate(159.033203 0)"/>
       <use xlink:href="#DejaVuSans-30" transform="translate(222.65625 0)"/>
       <use xlink:href="#DejaVuSans-36" transform="translate(286.279297 0)"/>
      </g>
     </g>
    </g>
    <g id="ytick_5">
     <g id="line2d_11">
      <g>
       <use xlink:href="#m131149c60d" x="68.675625" y="220.228573" style="stroke: #000000; stroke-width: 0.8"/>
      </g>
     </g>
     <g id="text_12">
      <!-- 0.0008 -->
      <g transform="translate(26.685 224.027792) scale(0.1 -0.1)">
       <use xlink:href="#DejaVuSans-30"/>
       <use xlink:href="#DejaVuSans-2e" transform="translate(63.623047 0)"/>
       <use xlink:href="#DejaVuSans-30" transform="translate(95.410156 0)"/>
       <use xlink:href="#DejaVuSans-30" transform="translate(159.033203 0)"/>
       <use xlink:href="#DejaVuSans-30" transform="translate(222.65625 0)"/>
       <use xlink:href="#DejaVuSans-38" transform="translate(286.279297 0)"/>
      </g>
     </g>
    </g>
    <g id="ytick_6">
     <g id="line2d_12">
      <g>
       <use xlink:href="#m131149c60d" x="68.675625" y="156.833425" style="stroke: #000000; stroke-width: 0.8"/>
      </g>
     </g>
     <g id="text_13">
      <!-- 0.0010 -->
      <g transform="translate(26.685 160.632644) scale(0.1 -0.1)">
       <use xlink:href="#DejaVuSans-30"/>
       <use xlink:href="#DejaVuSans-2e" transform="translate(63.623047 0)"/>
       <use xlink:href="#DejaVuSans-30" transform="translate(95.410156 0)"/>
       <use xlink:href="#DejaVuSans-30" transform="translate(159.033203 0)"/>
       <use xlink:href="#DejaVuSans-31" transform="translate(222.65625 0)"/>
       <use xlink:href="#DejaVuSans-30" transform="translate(286.279297 0)"/>
      </g>
     </g>
    </g>
    <g id="ytick_7">
     <g id="line2d_13">
      <g>
       <use xlink:href="#m131149c60d" x="68.675625" y="93.438277" style="stroke: #000000; stroke-width: 0.8"/>
      </g>
     </g>
     <g id="text_14">
      <!-- 0.0012 -->
      <g transform="translate(26.685 97.237496) scale(0.1 -0.1)">
       <use xlink:href="#DejaVuSans-30"/>
       <use xlink:href="#DejaVuSans-2e" transform="translate(63.623047 0)"/>
       <use xlink:href="#DejaVuSans-30" transform="translate(95.410156 0)"/>
       <use xlink:href="#DejaVuSans-30" transform="translate(159.033203 0)"/>
       <use xlink:href="#DejaVuSans-31" transform="translate(222.65625 0)"/>
       <use xlink:href="#DejaVuSans-32" transform="translate(286.279297 0)"/>
      </g>
     </g>
    </g>
    <g id="text_15">
     <!-- Root Mean Squared Error (RMSE) -->
     <g transform="translate(19.3575 394.303437) rotate(-90) scale(0.16 -0.16)">
      <defs>
       <path id="DejaVuSans-52" d="M 2841 2188 
Q 3044 2119 3236 1894 
Q 3428 1669 3622 1275 
L 4263 0 
L 3584 0 
L 2988 1197 
Q 2756 1666 2539 1819 
Q 2322 1972 1947 1972 
L 1259 1972 
L 1259 0 
L 628 0 
L 628 4666 
L 2053 4666 
Q 2853 4666 3247 4331 
Q 3641 3997 3641 3322 
Q 3641 2881 3436 2590 
Q 3231 2300 2841 2188 
z
M 1259 4147 
L 1259 2491 
L 2053 2491 
Q 2509 2491 2742 2702 
Q 2975 2913 2975 3322 
Q 2975 3731 2742 3939 
Q 2509 4147 2053 4147 
L 1259 4147 
z
" transform="scale(0.015625)"/>
       <path id="DejaVuSans-4d" d="M 628 4666 
L 1569 4666 
L 2759 1491 
L 3956 4666 
L 4897 4666 
L 4897 0 
L 4281 0 
L 4281 4097 
L 3078 897 
L 2444 897 
L 1241 4097 
L 1241 0 
L 628 0 
L 628 4666 
z
" transform="scale(0.015625)"/>
       <path id="DejaVuSans-6e" d="M 3513 2113 
L 3513 0 
L 2938 0 
L 2938 2094 
Q 2938 2591 2744 2837 
Q 2550 3084 2163 3084 
Q 1697 3084 1428 2787 
Q 1159 2491 1159 1978 
L 1159 0 
L 581 0 
L 581 3500 
L 1159 3500 
L 1159 2956 
Q 1366 3272 1645 3428 
Q 1925 3584 2291 3584 
Q 2894 3584 3203 3211 
Q 3513 2838 3513 2113 
z
" transform="scale(0.015625)"/>
       <path id="DejaVuSans-53" d="M 3425 4513 
L 3425 3897 
Q 3066 4069 2747 4153 
Q 2428 4238 2131 4238 
Q 1616 4238 1336 4038 
Q 1056 3838 1056 3469 
Q 1056 3159 1242 3001 
Q 1428 2844 1947 2747 
L 2328 2669 
Q 3034 2534 3370 2195 
Q 3706 1856 3706 1288 
Q 3706 609 3251 259 
Q 2797 -91 1919 -91 
Q 1588 -91 1214 -16 
Q 841 59 441 206 
L 441 856 
Q 825 641 1194 531 
Q 1563 422 1919 422 
Q 2459 422 2753 634 
Q 3047 847 3047 1241 
Q 3047 1584 2836 1778 
Q 2625 1972 2144 2069 
L 1759 2144 
Q 1053 2284 737 2584 
Q 422 2884 422 3419 
Q 422 4038 858 4394 
Q 1294 4750 2059 4750 
Q 2388 4750 2728 4690 
Q 3069 4631 3425 4513 
z
" transform="scale(0.015625)"/>
       <path id="DejaVuSans-71" d="M 947 1747 
Q 947 1113 1208 752 
Q 1469 391 1925 391 
Q 2381 391 2643 752 
Q 2906 1113 2906 1747 
Q 2906 2381 2643 2742 
Q 2381 3103 1925 3103 
Q 1469 3103 1208 2742 
Q 947 2381 947 1747 
z
M 2906 525 
Q 2725 213 2448 61 
Q 2172 -91 1784 -91 
Q 1150 -91 751 415 
Q 353 922 353 1747 
Q 353 2572 751 3078 
Q 1150 3584 1784 3584 
Q 2172 3584 2448 3432 
Q 2725 3281 2906 2969 
L 2906 3500 
L 3481 3500 
L 3481 -1331 
L 2906 -1331 
L 2906 525 
z
" transform="scale(0.015625)"/>
       <path id="DejaVuSans-75" d="M 544 1381 
L 544 3500 
L 1119 3500 
L 1119 1403 
Q 1119 906 1312 657 
Q 1506 409 1894 409 
Q 2359 409 2629 706 
Q 2900 1003 2900 1516 
L 2900 3500 
L 3475 3500 
L 3475 0 
L 2900 0 
L 2900 538 
Q 2691 219 2414 64 
Q 2138 -91 1772 -91 
Q 1169 -91 856 284 
Q 544 659 544 1381 
z
M 1991 3584 
L 1991 3584 
z
" transform="scale(0.015625)"/>
       <path id="DejaVuSans-64" d="M 2906 2969 
L 2906 4863 
L 3481 4863 
L 3481 0 
L 2906 0 
L 2906 525 
Q 2725 213 2448 61 
Q 2172 -91 1784 -91 
Q 1150 -91 751 415 
Q 353 922 353 1747 
Q 353 2572 751 3078 
Q 1150 3584 1784 3584 
Q 2172 3584 2448 3432 
Q 2725 3281 2906 2969 
z
M 947 1747 
Q 947 1113 1208 752 
Q 1469 391 1925 391 
Q 2381 391 2643 752 
Q 2906 1113 2906 1747 
Q 2906 2381 2643 2742 
Q 2381 3103 1925 3103 
Q 1469 3103 1208 2742 
Q 947 2381 947 1747 
z
" transform="scale(0.015625)"/>
       <path id="DejaVuSans-45" d="M 628 4666 
L 3578 4666 
L 3578 4134 
L 1259 4134 
L 1259 2753 
L 3481 2753 
L 3481 2222 
L 1259 2222 
L 1259 531 
L 3634 531 
L 3634 0 
L 628 0 
L 628 4666 
z
" transform="scale(0.015625)"/>
      </defs>
      <use xlink:href="#DejaVuSans-52"/>
      <use xlink:href="#DejaVuSans-6f" transform="translate(64.982422 0)"/>
      <use xlink:href="#DejaVuSans-6f" transform="translate(126.164062 0)"/>
      <use xlink:href="#DejaVuSans-74" transform="translate(187.345703 0)"/>
      <use xlink:href="#DejaVuSans-20" transform="translate(226.554688 0)"/>
      <use xlink:href="#DejaVuSans-4d" transform="translate(258.341797 0)"/>
      <use xlink:href="#DejaVuSans-65" transform="translate(344.621094 0)"/>
      <use xlink:href="#DejaVuSans-61" transform="translate(406.144531 0)"/>
      <use xlink:href="#DejaVuSans-6e" transform="translate(467.423828 0)"/>
      <use xlink:href="#DejaVuSans-20" transform="translate(530.802734 0)"/>
      <use xlink:href="#DejaVuSans-53" transform="translate(562.589844 0)"/>
      <use xlink:href="#DejaVuSans-71" transform="translate(626.066406 0)"/>
      <use xlink:href="#DejaVuSans-75" transform="translate(689.542969 0)"/>
      <use xlink:href="#DejaVuSans-61" transform="translate(752.921875 0)"/>
      <use xlink:href="#DejaVuSans-72" transform="translate(814.201172 0)"/>
      <use xlink:href="#DejaVuSans-65" transform="translate(853.064453 0)"/>
      <use xlink:href="#DejaVuSans-64" transform="translate(914.587891 0)"/>
      <use xlink:href="#DejaVuSans-20" transform="translate(978.064453 0)"/>
      <use xlink:href="#DejaVuSans-45" transform="translate(1009.851562 0)"/>
      <use xlink:href="#DejaVuSans-72" transform="translate(1073.035156 0)"/>
      <use xlink:href="#DejaVuSans-72" transform="translate(1112.398438 0)"/>
      <use xlink:href="#DejaVuSans-6f" transform="translate(1151.261719 0)"/>
      <use xlink:href="#DejaVuSans-72" transform="translate(1212.443359 0)"/>
      <use xlink:href="#DejaVuSans-20" transform="translate(1253.556641 0)"/>
      <use xlink:href="#DejaVuSans-28" transform="translate(1285.34375 0)"/>
      <use xlink:href="#DejaVuSans-52" transform="translate(1324.357422 0)"/>
      <use xlink:href="#DejaVuSans-4d" transform="translate(1393.839844 0)"/>
      <use xlink:href="#DejaVuSans-53" transform="translate(1480.119141 0)"/>
      <use xlink:href="#DejaVuSans-45" transform="translate(1543.595703 0)"/>
      <use xlink:href="#DejaVuSans-29" transform="translate(1606.779297 0)"/>
     </g>
    </g>
   </g>
   <g id="line2d_14">
    <path d="M 106.72108 306.522506 
L 109.776939 331.384608 
L 112.832799 343.376401 
L 115.888659 333.951061 
L 118.944519 324.11567 
L 122.000379 330.049351 
L 125.056238 329.877532 
L 128.112098 327.177581 
L 131.167958 330.353359 
L 134.223818 331.810775 
L 140.335537 325.562634 
L 143.391397 326.148767 
L 146.447257 334.274939 
L 149.503117 337.888859 
L 152.558977 335.965754 
L 155.614836 335.132874 
L 158.670696 329.125557 
L 161.726556 322.010385 
L 164.782416 318.436142 
L 167.838276 322.41205 
L 170.894135 321.293226 
L 173.949995 320.688846 
L 177.005855 317.976782 
L 180.061715 323.008709 
L 183.117575 324.094857 
L 186.173434 327.546746 
L 189.229294 335.829802 
L 192.285154 335.551948 
L 195.341014 332.05433 
L 198.396874 333.419384 
L 201.452733 333.233266 
L 204.508593 328.727379 
L 207.564453 319.525215 
L 210.620313 328.205509 
L 213.676173 332.552039 
L 216.732032 347.414366 
L 219.787892 334.380485 
L 222.843752 340.128878 
L 225.899612 331.637148 
L 228.955472 333.322307 
L 232.011331 327.809757 
L 235.067191 332.812384 
L 238.123051 335.612936 
L 241.178911 340.157107 
L 244.234771 339.734436 
L 247.29063 340.132596 
L 250.34649 337.627777 
L 253.40235 335.611884 
L 256.45821 331.609362 
L 262.569929 329.598395 
L 265.625789 325.522366 
L 268.681649 334.096948 
L 271.737509 332.083888 
L 274.793369 332.271667 
L 277.849229 322.807101 
L 280.905088 326.536106 
L 283.960948 331.093672 
L 287.016808 330.466377 
L 290.072668 330.131806 
L 293.128528 332.717918 
L 296.184387 332.855503 
L 299.240247 336.727369 
L 302.296107 339.054593 
L 305.351967 342.304791 
L 308.407827 335.160919 
L 311.463686 334.10169 
L 314.519546 327.618518 
L 317.575406 328.813754 
L 320.631266 325.623216 
L 323.687126 333.6147 
L 326.742985 328.445696 
L 329.798845 332.373836 
L 332.854705 333.741307 
L 335.910565 331.44852 
L 338.966425 337.716283 
L 345.078144 326.480358 
L 348.134004 326.879966 
L 351.189864 330.51313 
L 354.245724 328.452874 
L 357.301583 335.12983 
L 363.413303 326.908408 
L 366.469163 323.96993 
L 369.525023 328.817195 
L 372.580882 331.14561 
L 375.636742 325.934023 
L 378.692602 327.275571 
L 381.748462 327.692689 
L 384.804322 329.757373 
L 387.860181 334.977956 
L 390.916041 330.261771 
L 393.971901 328.674528 
L 397.027761 332.537556 
L 400.083621 337.059993 
L 403.13948 339.384164 
L 406.19534 335.935966 
L 409.2512 332.669928 
L 412.30706 333.489422 
L 415.36292 339.978203 
L 418.418779 339.300399 
L 421.474639 337.677381 
L 424.530499 334.258804 
L 427.586359 338.189223 
L 430.642219 329.611966 
L 433.698078 335.89246 
L 436.753938 334.106118 
L 439.809798 335.073058 
L 442.865658 328.118128 
L 445.921518 331.623614 
L 448.977377 333.993497 
L 452.033237 334.866866 
L 455.089097 327.817211 
L 458.144957 327.271632 
L 461.200817 327.491681 
L 464.256676 322.353563 
L 467.312536 315.985318 
L 470.368396 324.702264 
L 473.424256 323.331084 
L 476.480116 326.026819 
L 479.535975 320.703348 
L 482.591835 325.512412 
L 485.647695 325.709583 
L 488.703555 312.390125 
L 491.759415 318.814893 
L 494.815275 324.794257 
L 497.871134 318.049588 
L 500.926994 324.512197 
L 503.982854 320.194642 
L 507.038714 318.51094 
L 510.094574 304.290891 
L 513.150433 312.791256 
L 516.206293 308.900082 
L 519.262153 311.978294 
L 522.318013 313.133234 
L 525.373873 320.945288 
L 528.429732 311.652533 
L 531.485592 313.725068 
L 534.541452 322.836475 
L 537.597312 315.593192 
L 540.653172 310.442094 
L 543.709031 323.779245 
L 546.764891 326.41615 
L 549.820751 319.042266 
L 552.876611 314.960195 
L 555.932471 310.027826 
L 558.98833 304.422885 
L 562.04419 311.303544 
L 565.10005 314.397808 
L 568.15591 316.491063 
L 571.21177 307.365025 
L 574.267629 304.079375 
L 577.323489 309.748967 
L 580.379349 311.725117 
L 583.435209 322.964659 
L 586.491069 319.999788 
L 589.546928 322.085229 
L 592.602788 323.463051 
L 595.658648 323.46294 
L 598.714508 321.524069 
L 601.770368 324.379889 
L 604.826227 323.156645 
L 607.882087 320.901764 
L 610.937947 326.2647 
L 613.993807 323.943001 
L 617.049667 320.808737 
L 620.105526 319.13271 
L 623.161386 330.456561 
L 626.217246 327.339695 
L 629.273106 327.593905 
L 632.328966 324.48346 
L 635.384825 336.152509 
L 638.440685 331.750876 
L 641.496545 330.996965 
L 644.552405 330.811197 
L 647.608265 325.517421 
L 650.664124 328.485983 
L 653.719984 323.612545 
L 656.775844 327.945662 
L 662.887564 335.062255 
L 665.943423 338.028584 
L 668.999283 334.003801 
L 672.055143 333.360583 
L 675.111003 331.970842 
L 678.166863 335.659643 
L 681.222722 337.384692 
L 684.278582 336.84916 
L 687.334442 329.99698 
L 690.390302 333.688613 
L 693.446162 329.835649 
L 696.502021 332.633553 
L 699.557881 332.739348 
L 702.613741 334.225483 
L 705.669601 333.584894 
L 708.725461 338.641083 
L 711.781321 327.25141 
L 714.83718 325.901864 
L 717.89304 326.375394 
L 720.9489 331.114448 
L 724.00476 326.096248 
L 727.06062 324.469244 
L 730.116479 324.644929 
L 733.172339 326.87849 
L 736.228199 334.627831 
L 739.284059 344.638354 
L 742.339919 342.944375 
L 745.395778 342.113008 
L 748.451638 338.8115 
L 751.507498 339.709417 
L 754.563358 330.112553 
L 757.619218 329.049615 
L 760.675077 328.771383 
L 763.730937 334.426722 
L 766.786797 332.117016 
L 769.842657 332.279462 
L 772.898517 335.806684 
L 775.954376 338.503941 
L 779.010236 338.590307 
L 785.121956 341.17021 
L 788.177816 340.049929 
L 791.233675 337.071912 
L 794.289535 335.16579 
L 797.345395 333.746575 
L 800.401255 330.511359 
L 803.457115 336.965933 
L 806.512974 336.971117 
L 809.568834 341.186548 
L 812.624694 332.988355 
L 815.680554 332.027319 
L 818.736414 348.156922 
L 821.792273 343.62668 
L 824.848133 335.664698 
L 827.903993 335.008925 
L 830.959853 325.98763 
L 834.015713 331.186792 
L 837.071572 330.283819 
L 840.127432 333.810127 
L 843.183292 327.432455 
L 846.239152 334.129771 
L 849.295012 330.627707 
L 852.350871 333.265628 
L 855.406731 339.869585 
L 858.462591 335.731978 
L 861.518451 329.68597 
L 864.574311 328.988194 
L 867.63017 337.721265 
L 867.63017 337.721265 
" clip-path="url(#p6a38b983af)" style="fill: none; stroke: #0000ff; stroke-width: 2; stroke-linecap: square"/>
   </g>
   <g id="line2d_15">
    <path d="M 106.72108 341.194012 
L 109.776939 343.671045 
L 112.832799 307.441871 
L 115.888659 282.803794 
L 118.944519 307.709384 
L 122.000379 273.06583 
L 125.056238 218.059309 
L 128.112098 203.403571 
L 131.167958 274.036618 
L 134.223818 244.831048 
L 137.279678 220.743346 
L 140.335537 141.61547 
L 143.391397 246.330291 
L 146.447257 284.45352 
L 149.503117 326.544685 
L 152.558977 323.477221 
L 155.614836 350.723356 
L 158.670696 182.950362 
L 161.726556 282.194691 
L 164.782416 280.200127 
L 167.838276 124.786587 
L 170.894135 61.037187 
L 173.949995 173.79473 
L 177.005855 111.859598 
L 180.061715 177.091709 
L 183.117575 250.903264 
L 186.173434 229.643606 
L 189.229294 306.008901 
L 192.285154 291.101924 
L 195.341014 224.077466 
L 198.396874 249.987662 
L 201.452733 215.144604 
L 204.508593 240.744243 
L 207.564453 297.276338 
L 210.620313 275.86998 
L 213.676173 355.434458 
L 216.732032 359.938491 
L 219.787892 365.956666 
L 222.843752 323.38673 
L 225.899612 300.565586 
L 228.955472 251.670967 
L 232.011331 166.808222 
L 235.067191 247.327297 
L 238.123051 139.741018 
L 241.178911 240.430365 
L 244.234771 221.053479 
L 247.29063 246.279811 
L 250.34649 298.507479 
L 253.40235 208.203152 
L 256.45821 132.927021 
L 259.51407 301.604086 
L 262.569929 173.23976 
L 265.625789 239.40312 
L 268.681649 265.285954 
L 271.737509 280.375074 
L 274.793369 243.084162 
L 277.849229 243.934154 
L 280.905088 186.636644 
L 283.960948 383.499174 
L 287.016808 375.176939 
L 290.072668 305.798733 
L 293.128528 322.214373 
L 296.184387 231.098126 
L 299.240247 182.783773 
L 302.296107 384.738018 
L 305.351967 376.993751 
L 308.407827 331.894697 
L 311.463686 315.438171 
L 314.519546 335.488146 
L 317.575406 275.983284 
L 320.631266 264.678751 
L 323.687126 323.832391 
L 326.742985 340.297884 
L 329.798845 352.883393 
L 332.854705 368.898972 
L 335.910565 318.065769 
L 338.966425 390.465932 
L 342.022284 383.170139 
L 345.078144 416.357779 
L 348.134004 388.22987 
L 351.189864 411.499595 
L 354.245724 426.882976 
L 357.301583 406.442641 
L 360.357443 394.113976 
L 363.413303 392.479352 
L 366.469163 340.744513 
L 369.525023 372.716234 
L 372.580882 417.11997 
L 375.636742 412.139848 
L 378.692602 389.400355 
L 381.748462 395.90588 
L 384.804322 423.33831 
L 387.860181 404.242613 
L 390.916041 333.610318 
L 393.971901 321.669661 
L 397.027761 331.845213 
L 400.083621 329.238252 
L 403.13948 400.075204 
L 406.19534 447.812633 
L 409.2512 438.35664 
L 412.30706 420.527702 
L 415.36292 410.321047 
L 418.418779 411.115688 
L 421.474639 351.278825 
L 424.530499 396.603569 
L 427.586359 377.912453 
L 430.642219 440.285465 
L 433.698078 406.587689 
L 436.753938 401.06047 
L 439.809798 370.600599 
L 442.865658 306.540126 
L 445.921518 339.806088 
L 448.977377 364.984781 
L 452.033237 431.545313 
L 455.089097 366.100764 
L 458.144957 385.803345 
L 461.200817 375.153534 
L 464.256676 397.858571 
L 470.368396 455.877296 
L 473.424256 384.212707 
L 476.480116 392.196977 
L 479.535975 457.602166 
L 482.591835 436.535551 
L 485.647695 422.605944 
L 488.703555 425.145666 
L 491.759415 429.602088 
L 494.815275 437.665635 
L 497.871134 441.645094 
L 500.926994 438.349179 
L 503.982854 438.29535 
L 507.038714 432.137715 
L 510.094574 436.970211 
L 513.150433 420.988612 
L 516.206293 445.037907 
L 519.262153 404.313638 
L 522.318013 387.4151 
L 525.373873 413.275812 
L 528.429732 431.389868 
L 531.485592 424.176249 
L 534.541452 421.511502 
L 537.597312 424.38984 
L 540.653172 377.198929 
L 543.709031 379.894498 
L 546.764891 408.213498 
L 549.820751 440.531056 
L 552.876611 419.270422 
L 555.932471 369.427318 
L 558.98833 377.576941 
L 562.04419 355.837387 
L 565.10005 329.274369 
L 568.15591 389.031513 
L 571.21177 432.231775 
L 574.267629 418.024041 
L 577.323489 433.336927 
L 583.435209 405.469483 
L 586.491069 443.392953 
L 589.546928 447.417263 
L 592.602788 444.683179 
L 595.658648 440.803562 
L 598.714508 447.857239 
L 601.770368 369.581536 
L 604.826227 374.030928 
L 607.882087 432.833185 
L 610.937947 319.683723 
L 613.993807 365.201693 
L 617.049667 385.146815 
L 620.105526 424.543131 
L 623.161386 437.161318 
L 626.217246 422.641931 
L 629.273106 422.79655 
L 632.328966 416.63019 
L 635.384825 329.109505 
L 638.440685 332.177155 
L 641.496545 291.46418 
L 644.552405 385.255755 
L 647.608265 421.935986 
L 650.664124 302.244943 
L 653.719984 293.321915 
L 656.775844 371.125698 
L 659.831704 373.644973 
L 662.887564 327.910302 
L 665.943423 363.594339 
L 668.999283 371.425803 
L 672.055143 344.63863 
L 675.111003 370.196009 
L 678.166863 321.148363 
L 681.222722 327.726029 
L 684.278582 353.528189 
L 687.334442 355.273423 
L 690.390302 292.088431 
L 693.446162 326.804403 
L 696.502021 291.9283 
L 699.557881 306.602691 
L 702.613741 346.930818 
L 705.669601 346.471956 
L 708.725461 324.247904 
L 711.781321 348.868573 
L 714.83718 354.769551 
L 717.89304 346.873188 
L 720.9489 317.40934 
L 724.00476 266.890402 
L 727.06062 302.648103 
L 730.116479 309.787325 
L 733.172339 360.381697 
L 736.228199 290.361989 
L 739.284059 177.712141 
L 742.339919 224.919026 
L 745.395778 307.905733 
L 748.451638 236.119333 
L 751.507498 189.193208 
L 754.563358 226.137049 
L 757.619218 385.557032 
L 760.675077 299.880872 
L 763.730937 285.61204 
L 766.786797 299.233521 
L 769.842657 208.148686 
L 772.898517 239.765412 
L 775.954376 276.346388 
L 779.010236 297.036575 
L 782.066096 282.500119 
L 785.121956 326.928666 
L 788.177816 331.416333 
L 791.233675 303.033882 
L 794.289535 340.092559 
L 797.345395 303.684315 
L 800.401255 279.68667 
L 803.457115 298.268343 
L 806.512974 272.794997 
L 809.568834 218.538909 
L 812.624694 183.279425 
L 815.680554 212.122445 
L 818.736414 230.34891 
L 821.792273 211.219869 
L 824.848133 208.390128 
L 827.903993 394.247446 
L 830.959853 332.235596 
L 834.015713 281.068053 
L 837.071572 227.408319 
L 840.127432 262.640275 
L 843.183292 259.434718 
L 846.239152 273.051162 
L 849.295012 200.193346 
L 852.350871 255.020069 
L 855.406731 307.816304 
L 858.462591 264.151604 
L 861.518451 193.25396 
L 864.574311 237.588779 
L 867.63017 361.344984 
L 867.63017 361.344984 
" clip-path="url(#p6a38b983af)" style="fill: none; stroke: #ffa500; stroke-width: 2; stroke-linecap: square"/>
   </g>
   <g id="line2d_16">
    <path d="M 106.72108 376.338245 
L 109.776939 379.817864 
L 112.832799 378.914135 
L 115.888659 377.477041 
L 118.944519 380.97298 
L 122.000379 380.603391 
L 125.056238 377.292242 
L 128.112098 375.794207 
L 131.167958 379.842975 
L 134.223818 379.197893 
L 137.279678 376.909257 
L 140.335537 375.405272 
L 143.391397 376.028158 
L 146.447257 381.317699 
L 149.503117 380.29883 
L 152.558977 381.558338 
L 155.614836 379.207829 
L 158.670696 377.070219 
L 161.726556 371.163281 
L 164.782416 374.378275 
L 167.838276 374.493037 
L 170.894135 373.214322 
L 173.949995 371.650243 
L 177.005855 369.184437 
L 183.117575 377.514523 
L 186.173434 378.193914 
L 189.229294 382.486403 
L 192.285154 373.171268 
L 195.341014 380.778171 
L 198.396874 378.96718 
L 201.452733 378.374147 
L 204.508593 373.786008 
L 207.564453 372.442458 
L 210.620313 374.543268 
L 213.676173 380.984475 
L 216.732032 384.797835 
L 219.787892 383.144059 
L 222.843752 381.751726 
L 225.899612 382.366033 
L 228.955472 378.761513 
L 232.011331 376.806129 
L 235.067191 380.395768 
L 238.123051 380.277566 
L 241.178911 378.993186 
L 244.234771 382.723067 
L 247.29063 382.88353 
L 250.34649 375.680054 
L 253.40235 375.721069 
L 256.45821 378.443114 
L 259.51407 377.027838 
L 262.569929 375.027666 
L 265.625789 374.997444 
L 268.681649 376.902292 
L 271.737509 380.030145 
L 274.793369 374.753594 
L 277.849229 374.528831 
L 280.905088 376.624355 
L 283.960948 378.154781 
L 287.016808 378.28028 
L 290.072668 380.98513 
L 293.128528 379.588461 
L 296.184387 384.35543 
L 299.240247 382.657743 
L 302.296107 386.039428 
L 305.351967 384.395422 
L 308.407827 384.388549 
L 311.463686 381.231867 
L 314.519546 381.626088 
L 317.575406 377.069287 
L 320.631266 378.14597 
L 323.687126 374.611701 
L 326.742985 378.733422 
L 329.798845 379.860485 
L 332.854705 379.218281 
L 335.910565 379.814829 
L 338.966425 379.789072 
L 342.022284 372.250583 
L 345.078144 370.750822 
L 348.134004 376.669245 
L 351.189864 381.623044 
L 354.245724 379.360571 
L 357.301583 381.049715 
L 360.357443 381.034069 
L 363.413303 377.778899 
L 366.469163 373.510755 
L 369.525023 376.552334 
L 372.580882 376.037475 
L 375.636742 375.920823 
L 378.692602 372.152076 
L 381.748462 378.351508 
L 384.804322 380.510161 
L 387.860181 383.877085 
L 390.916041 382.191197 
L 393.971901 377.011971 
L 397.027761 382.874194 
L 400.083621 382.759866 
L 403.13948 383.015589 
L 406.19534 376.531614 
L 409.2512 377.449587 
L 412.30706 379.15161 
L 415.36292 380.254558 
L 418.418779 384.393872 
L 421.474639 380.218174 
L 424.530499 379.259988 
L 427.586359 379.243706 
L 430.642219 380.56625 
L 433.698078 380.077259 
L 436.753938 380.067166 
L 439.809798 379.019238 
L 442.865658 375.172944 
L 445.921518 377.586674 
L 448.977377 375.028505 
L 452.033237 375.305068 
L 455.089097 374.428442 
L 458.144957 369.516037 
L 461.200817 372.656123 
L 464.256676 372.884973 
L 467.312536 372.02939 
L 470.368396 369.284457 
L 473.424256 376.158021 
L 476.480116 372.603954 
L 479.535975 375.988231 
L 482.591835 371.02732 
L 485.647695 363.362639 
L 488.703555 361.643826 
L 491.759415 367.981673 
L 494.815275 368.103575 
L 497.871134 366.059684 
L 500.926994 366.84033 
L 503.982854 370.774227 
L 507.038714 364.783588 
L 510.094574 363.290858 
L 513.150433 359.502627 
L 516.206293 363.218836 
L 519.262153 363.343764 
L 522.318013 365.054441 
L 525.373873 365.27317 
L 528.429732 363.61302 
L 531.485592 367.681134 
L 534.541452 365.474962 
L 537.597312 363.430702 
L 540.653172 365.775667 
L 543.709031 367.46281 
L 546.764891 366.635245 
L 549.820751 363.014599 
L 552.876611 369.412438 
L 555.932471 363.855154 
L 558.98833 356.988444 
L 562.04419 364.605542 
L 565.10005 369.32097 
L 568.15591 366.339051 
L 571.21177 365.369325 
L 574.267629 358.511775 
L 577.323489 357.308411 
L 580.379349 364.668384 
L 583.435209 369.30478 
L 586.491069 362.612371 
L 589.546928 374.281531 
L 592.602788 370.62249 
L 595.658648 369.814537 
L 598.714508 371.509328 
L 601.770368 370.653828 
L 604.826227 371.093428 
L 607.882087 374.266383 
L 613.993807 373.950078 
L 617.049667 372.228654 
L 623.161386 379.137773 
L 626.217246 377.999926 
L 629.273106 375.309025 
L 632.328966 377.878642 
L 635.384825 378.820813 
L 638.440685 377.383747 
L 641.496545 371.699801 
L 644.552405 372.90834 
L 647.608265 374.574182 
L 650.664124 370.243482 
L 653.719984 377.268469 
L 656.775844 377.31572 
L 659.831704 372.433445 
L 662.887564 381.452949 
L 665.943423 379.778408 
L 668.999283 378.991479 
L 672.055143 376.393338 
L 675.111003 381.559989 
L 678.166863 378.880177 
L 681.222722 378.228222 
L 684.278582 379.926878 
L 687.334442 382.461993 
L 690.390302 381.39138 
L 693.446162 379.394381 
L 696.502021 381.144587 
L 699.557881 377.68542 
L 702.613741 377.719655 
L 705.669601 381.983214 
L 708.725461 380.791714 
L 711.781321 375.347384 
L 714.83718 371.94962 
L 717.89304 376.087356 
L 720.9489 377.544754 
L 724.00476 379.901112 
L 727.06062 372.547339 
L 730.116479 378.630598 
L 733.172339 379.600915 
L 736.228199 382.942184 
L 739.284059 387.101231 
L 742.339919 382.987194 
L 745.395778 380.111742 
L 748.451638 385.788419 
L 751.507498 378.495956 
L 754.563358 376.062974 
L 757.619218 378.052261 
L 760.675077 385.070024 
L 763.730937 383.993645 
L 766.786797 383.391664 
L 769.842657 379.414298 
L 772.898517 382.503036 
L 775.954376 382.756997 
L 779.010236 378.792741 
L 782.066096 388.634451 
L 785.121956 387.014624 
L 788.177816 383.078754 
L 791.233675 382.797736 
L 794.289535 384.723931 
L 797.345395 379.267442 
L 800.401255 382.238171 
L 803.457115 378.393086 
L 806.512974 379.152819 
L 809.568834 380.379338 
L 812.624694 376.833048 
L 815.680554 382.171907 
L 818.736414 391.256772 
L 821.792273 381.364267 
L 824.848133 384.142042 
L 827.903993 381.458125 
L 830.959853 377.23059 
L 834.015713 381.391408 
L 837.071572 378.527737 
L 840.127432 378.449323 
L 843.183292 372.012545 
L 846.239152 379.969296 
L 849.295012 375.11084 
L 852.350871 384.548569 
L 855.406731 379.641303 
L 858.462591 382.286816 
L 861.518451 377.248404 
L 864.574311 380.988811 
L 867.63017 378.507709 
L 867.63017 378.507709 
" clip-path="url(#p6a38b983af)" style="fill: none; stroke-dasharray: 7.4,3.2; stroke-dashoffset: 0; stroke: #0000ff; stroke-width: 2"/>
   </g>
   <g id="line2d_17">
    <path d="M 106.72108 326.385089 
L 109.776939 357.27997 
L 112.832799 326.429785 
L 115.888659 325.312437 
L 118.944519 336.777342 
L 122.000379 280.817994 
L 125.056238 177.813674 
L 128.112098 326.222421 
L 131.167958 341.629395 
L 134.223818 285.009874 
L 137.279678 254.218287 
L 140.335537 319.600576 
L 143.391397 333.554939 
L 146.447257 333.764776 
L 149.503117 353.139771 
L 152.558977 375.272051 
L 155.614836 372.839529 
L 158.670696 297.865386 
L 161.726556 358.799334 
L 164.782416 307.079948 
L 167.838276 268.577638 
L 170.894135 245.866817 
L 173.949995 238.542555 
L 177.005855 284.302374 
L 180.061715 324.72493 
L 183.117575 339.612276 
L 186.173434 316.287555 
L 189.229294 377.895072 
L 192.285154 352.319972 
L 195.341014 313.61861 
L 198.396874 299.795871 
L 201.452733 255.487196 
L 204.508593 343.229609 
L 207.564453 350.22621 
L 210.620313 369.741557 
L 213.676173 390.634162 
L 216.732032 412.73563 
L 219.787892 371.500038 
L 222.843752 346.693739 
L 225.899612 318.866997 
L 228.955472 331.69058 
L 232.011331 227.257616 
L 235.067191 315.409315 
L 238.123051 349.403174 
L 241.178911 273.404672 
L 244.234771 332.956814 
L 247.29063 343.490332 
L 250.34649 339.159595 
L 253.40235 163.542277 
L 256.45821 271.224663 
L 259.51407 374.940275 
L 262.569929 331.517036 
L 265.625789 367.759401 
L 268.681649 357.066453 
L 271.737509 310.86804 
L 274.793369 329.906748 
L 277.849229 354.916398 
L 280.905088 375.759345 
L 283.960948 426.433353 
L 287.016808 389.524693 
L 290.072668 295.691631 
L 293.128528 388.882628 
L 296.184387 276.267587 
L 299.240247 407.084706 
L 302.296107 427.133344 
L 305.351967 360.601331 
L 308.407827 352.134712 
L 311.463686 377.404135 
L 314.519546 354.674596 
L 317.575406 325.56661 
L 320.631266 351.348281 
L 323.687126 362.994101 
L 326.742985 386.880951 
L 329.798845 400.212858 
L 332.854705 400.255898 
L 335.910565 391.066004 
L 338.966425 392.613385 
L 342.022284 427.900784 
L 345.078144 436.083624 
L 348.134004 420.431553 
L 351.189864 437.93234 
L 354.245724 443.256865 
L 357.301583 414.312952 
L 360.357443 428.568703 
L 363.413303 435.400837 
L 366.469163 372.78582 
L 369.525023 427.266934 
L 372.580882 446.578975 
L 375.636742 422.867068 
L 378.692602 412.922385 
L 381.748462 441.346774 
L 384.804322 444.753198 
L 387.860181 399.477133 
L 390.916041 341.618002 
L 393.971901 387.206601 
L 397.027761 374.98666 
L 400.083621 428.399776 
L 403.13948 453.9375 
L 406.19534 453.695935 
L 409.2512 433.27843 
L 412.30706 401.620671 
L 415.36292 425.677527 
L 418.418779 451.039571 
L 421.474639 406.620692 
L 424.530499 400.380982 
L 427.586359 455.517025 
L 430.642219 451.091961 
L 433.698078 420.272409 
L 436.753938 419.231265 
L 439.809798 380.981799 
L 442.865658 421.537461 
L 445.921518 368.966722 
L 448.977377 452.836759 
L 452.033237 427.40117 
L 455.089097 367.758469 
L 458.144957 427.239604 
L 461.200817 434.292516 
L 464.256676 426.862588 
L 467.312536 457.956179 
L 470.368396 462.436215 
L 473.424256 428.403046 
L 476.480116 455.857473 
L 479.535975 457.739668 
L 482.591835 459.791705 
L 485.647695 422.804636 
L 488.703555 440.343348 
L 491.759415 460.110155 
L 494.815275 423.390441 
L 497.871134 458.15435 
L 500.926994 443.142618 
L 503.982854 464.237187 
L 507.038714 443.345554 
L 510.094574 437.360114 
L 513.150433 449.055752 
L 516.206293 438.660331 
L 519.262153 422.451514 
L 522.318013 414.37447 
L 525.373873 442.58631 
L 528.429732 432.697122 
L 531.485592 423.384556 
L 534.541452 442.945849 
L 537.597312 453.337981 
L 540.653172 379.980191 
L 543.709031 408.476509 
L 546.764891 446.484542 
L 549.820751 453.854782 
L 552.876611 417.885404 
L 555.932471 402.16333 
L 558.98833 417.75943 
L 562.04419 348.225004 
L 565.10005 424.813222 
L 568.15591 431.018946 
L 571.21177 445.834386 
L 574.267629 446.481354 
L 577.323489 445.885696 
L 580.379349 433.654865 
L 583.435209 439.309382 
L 586.491069 452.054042 
L 589.546928 456.112618 
L 592.602788 443.664442 
L 595.658648 455.555775 
L 598.714508 459.406724 
L 601.770368 365.524197 
L 604.826227 443.608855 
L 607.882087 452.946618 
L 610.937947 387.275993 
L 613.993807 419.797809 
L 617.049667 445.731276 
L 620.105526 459.319415 
L 623.161386 424.622934 
L 626.217246 432.943753 
L 629.273106 448.557379 
L 632.328966 419.623512 
L 635.384825 389.408529 
L 638.440685 366.118015 
L 641.496545 391.141733 
L 644.552405 432.710014 
L 647.608265 414.845744 
L 650.664124 346.710585 
L 653.719984 318.489925 
L 656.775844 389.103147 
L 659.831704 392.74608 
L 662.887564 399.690245 
L 665.943423 416.399528 
L 668.999283 358.959844 
L 672.055143 405.883473 
L 675.111003 365.341381 
L 678.166863 370.824956 
L 681.222722 378.45924 
L 684.278582 381.352127 
L 687.334442 382.789525 
L 690.390302 357.054718 
L 693.446162 337.109606 
L 696.502021 338.233559 
L 699.557881 374.301134 
L 702.613741 394.901901 
L 705.669601 325.085765 
L 708.725461 329.424565 
L 711.781321 357.320699 
L 714.83718 383.229448 
L 717.89304 344.619922 
L 720.9489 385.434743 
L 724.00476 354.155318 
L 727.06062 330.101132 
L 730.116479 355.333313 
L 733.172339 342.482487 
L 736.228199 356.500237 
L 739.284059 271.991887 
L 742.339919 318.345477 
L 745.395778 348.878223 
L 748.451638 347.899529 
L 751.507498 239.825376 
L 754.563358 386.460079 
L 757.619218 411.110905 
L 760.675077 383.012176 
L 763.730937 358.210489 
L 766.786797 348.128462 
L 769.842657 308.418803 
L 772.898517 369.998949 
L 775.954376 336.671224 
L 779.010236 346.187238 
L 782.066096 351.855871 
L 785.121956 385.116593 
L 788.177816 349.215109 
L 791.233675 359.150151 
L 794.289535 388.034407 
L 797.345395 275.529754 
L 800.401255 334.246627 
L 803.457115 348.188408 
L 806.512974 315.540774 
L 809.568834 308.910469 
L 812.624694 301.279857 
L 815.680554 311.363434 
L 818.736414 312.459665 
L 821.792273 222.286982 
L 824.848133 368.821757 
L 827.903993 391.221402 
L 830.959853 361.013643 
L 834.015713 281.612525 
L 837.071572 340.523939 
L 840.127432 385.651757 
L 843.183292 335.258918 
L 846.239152 278.144935 
L 849.295012 314.981689 
L 852.350871 375.51733 
L 855.406731 297.99666 
L 858.462591 279.603145 
L 861.518451 326.581651 
L 864.574311 371.270331 
L 867.63017 423.388181 
L 867.63017 423.388181 
" clip-path="url(#p6a38b983af)" style="fill: none; stroke-dasharray: 7.4,3.2; stroke-dashoffset: 0; stroke: #ffa500; stroke-width: 2"/>
   </g>
   <g id="patch_3">
    <path d="M 68.675625 484.397187 
L 68.675625 40.877187 
" style="fill: none; stroke: #000000; stroke-width: 0.8; stroke-linejoin: miter; stroke-linecap: square"/>
   </g>
   <g id="patch_4">
    <path d="M 905.675625 484.397187 
L 905.675625 40.877187 
" style="fill: none; stroke: #000000; stroke-width: 0.8; stroke-linejoin: miter; stroke-linecap: square"/>
   </g>
   <g id="patch_5">
    <path d="M 68.675625 484.397187 
L 905.675625 484.397187 
" style="fill: none; stroke: #000000; stroke-width: 0.8; stroke-linejoin: miter; stroke-linecap: square"/>
   </g>
   <g id="patch_6">
    <path d="M 68.675625 40.877187 
L 905.675625 40.877187 
" style="fill: none; stroke: #000000; stroke-width: 0.8; stroke-linejoin: miter; stroke-linecap: square"/>
   </g>
   <g id="text_16">
    <!-- Southward wind speed  two steps forward prediction: RMSES -->
    <g transform="translate(213.162188 20.877187) scale(0.18 -0.18)">
     <defs>
      <path id="DejaVuSans-68" d="M 3513 2113 
L 3513 0 
L 2938 0 
L 2938 2094 
Q 2938 2591 2744 2837 
Q 2550 3084 2163 3084 
Q 1697 3084 1428 2787 
Q 1159 2491 1159 1978 
L 1159 0 
L 581 0 
L 581 4863 
L 1159 4863 
L 1159 2956 
Q 1366 3272 1645 3428 
Q 1925 3584 2291 3584 
Q 2894 3584 3203 3211 
Q 3513 2838 3513 2113 
z
" transform="scale(0.015625)"/>
      <path id="DejaVuSans-77" d="M 269 3500 
L 844 3500 
L 1563 769 
L 2278 3500 
L 2956 3500 
L 3675 769 
L 4391 3500 
L 4966 3500 
L 4050 0 
L 3372 0 
L 2619 2869 
L 1863 0 
L 1184 0 
L 269 3500 
z
" transform="scale(0.015625)"/>
      <path id="DejaVuSans-69" d="M 603 3500 
L 1178 3500 
L 1178 0 
L 603 0 
L 603 3500 
z
M 603 4863 
L 1178 4863 
L 1178 4134 
L 603 4134 
L 603 4863 
z
" transform="scale(0.015625)"/>
      <path id="DejaVuSans-70" d="M 1159 525 
L 1159 -1331 
L 581 -1331 
L 581 3500 
L 1159 3500 
L 1159 2969 
Q 1341 3281 1617 3432 
Q 1894 3584 2278 3584 
Q 2916 3584 3314 3078 
Q 3713 2572 3713 1747 
Q 3713 922 3314 415 
Q 2916 -91 2278 -91 
Q 1894 -91 1617 61 
Q 1341 213 1159 525 
z
M 3116 1747 
Q 3116 2381 2855 2742 
Q 2594 3103 2138 3103 
Q 1681 3103 1420 2742 
Q 1159 2381 1159 1747 
Q 1159 1113 1420 752 
Q 1681 391 2138 391 
Q 2594 391 2855 752 
Q 3116 1113 3116 1747 
z
" transform="scale(0.015625)"/>
      <path id="DejaVuSans-66" d="M 2375 4863 
L 2375 4384 
L 1825 4384 
Q 1516 4384 1395 4259 
Q 1275 4134 1275 3809 
L 1275 3500 
L 2222 3500 
L 2222 3053 
L 1275 3053 
L 1275 0 
L 697 0 
L 697 3053 
L 147 3053 
L 147 3500 
L 697 3500 
L 697 3744 
Q 697 4328 969 4595 
Q 1241 4863 1831 4863 
L 2375 4863 
z
" transform="scale(0.015625)"/>
     </defs>
     <use xlink:href="#DejaVuSans-53"/>
     <use xlink:href="#DejaVuSans-6f" transform="translate(63.476562 0)"/>
     <use xlink:href="#DejaVuSans-75" transform="translate(124.658203 0)"/>
     <use xlink:href="#DejaVuSans-74" transform="translate(188.037109 0)"/>
     <use xlink:href="#DejaVuSans-68" transform="translate(227.246094 0)"/>
     <use xlink:href="#DejaVuSans-77" transform="translate(290.625 0)"/>
     <use xlink:href="#DejaVuSans-61" transform="translate(372.412109 0)"/>
     <use xlink:href="#DejaVuSans-72" transform="translate(433.691406 0)"/>
     <use xlink:href="#DejaVuSans-64" transform="translate(473.054688 0)"/>
     <use xlink:href="#DejaVuSans-20" transform="translate(536.53125 0)"/>
     <use xlink:href="#DejaVuSans-77" transform="translate(568.318359 0)"/>
     <use xlink:href="#DejaVuSans-69" transform="translate(650.105469 0)"/>
     <use xlink:href="#DejaVuSans-6e" transform="translate(677.888672 0)"/>
     <use xlink:href="#DejaVuSans-64" transform="translate(741.267578 0)"/>
     <use xlink:href="#DejaVuSans-20" transform="translate(804.744141 0)"/>
     <use xlink:href="#DejaVuSans-73" transform="translate(836.53125 0)"/>
     <use xlink:href="#DejaVuSans-70" transform="translate(888.630859 0)"/>
     <use xlink:href="#DejaVuSans-65" transform="translate(952.107422 0)"/>
     <use xlink:href="#DejaVuSans-65" transform="translate(1013.630859 0)"/>
     <use xlink:href="#DejaVuSans-64" transform="translate(1075.154297 0)"/>
     <use xlink:href="#DejaVuSans-20" transform="translate(1138.630859 0)"/>
     <use xlink:href="#DejaVuSans-20" transform="translate(1170.417969 0)"/>
     <use xlink:href="#DejaVuSans-74" transform="translate(1202.205078 0)"/>
     <use xlink:href="#DejaVuSans-77" transform="translate(1241.414062 0)"/>
     <use xlink:href="#DejaVuSans-6f" transform="translate(1323.201172 0)"/>
     <use xlink:href="#DejaVuSans-20" transform="translate(1384.382812 0)"/>
     <use xlink:href="#DejaVuSans-73" transform="translate(1416.169922 0)"/>
     <use xlink:href="#DejaVuSans-74" transform="translate(1468.269531 0)"/>
     <use xlink:href="#DejaVuSans-65" transform="translate(1507.478516 0)"/>
     <use xlink:href="#DejaVuSans-70" transform="translate(1569.001953 0)"/>
     <use xlink:href="#DejaVuSans-73" transform="translate(1632.478516 0)"/>
     <use xlink:href="#DejaVuSans-20" transform="translate(1684.578125 0)"/>
     <use xlink:href="#DejaVuSans-66" transform="translate(1716.365234 0)"/>
     <use xlink:href="#DejaVuSans-6f" transform="translate(1751.570312 0)"/>
     <use xlink:href="#DejaVuSans-72" transform="translate(1812.751953 0)"/>
     <use xlink:href="#DejaVuSans-77" transform="translate(1853.865234 0)"/>
     <use xlink:href="#DejaVuSans-61" transform="translate(1935.652344 0)"/>
     <use xlink:href="#DejaVuSans-72" transform="translate(1996.931641 0)"/>
     <use xlink:href="#DejaVuSans-64" transform="translate(2036.294922 0)"/>
     <use xlink:href="#DejaVuSans-20" transform="translate(2099.771484 0)"/>
     <use xlink:href="#DejaVuSans-70" transform="translate(2131.558594 0)"/>
     <use xlink:href="#DejaVuSans-72" transform="translate(2195.035156 0)"/>
     <use xlink:href="#DejaVuSans-65" transform="translate(2233.898438 0)"/>
     <use xlink:href="#DejaVuSans-64" transform="translate(2295.421875 0)"/>
     <use xlink:href="#DejaVuSans-69" transform="translate(2358.898438 0)"/>
     <use xlink:href="#DejaVuSans-63" transform="translate(2386.681641 0)"/>
     <use xlink:href="#DejaVuSans-74" transform="translate(2441.662109 0)"/>
     <use xlink:href="#DejaVuSans-69" transform="translate(2480.871094 0)"/>
     <use xlink:href="#DejaVuSans-6f" transform="translate(2508.654297 0)"/>
     <use xlink:href="#DejaVuSans-6e" transform="translate(2569.835938 0)"/>
     <use xlink:href="#DejaVuSans-3a" transform="translate(2633.214844 0)"/>
     <use xlink:href="#DejaVuSans-20" transform="translate(2666.90625 0)"/>
     <use xlink:href="#DejaVuSans-52" transform="translate(2698.693359 0)"/>
     <use xlink:href="#DejaVuSans-4d" transform="translate(2768.175781 0)"/>
     <use xlink:href="#DejaVuSans-53" transform="translate(2854.455078 0)"/>
     <use xlink:href="#DejaVuSans-45" transform="translate(2917.931641 0)"/>
     <use xlink:href="#DejaVuSans-53" transform="translate(2981.115234 0)"/>
    </g>
   </g>
   <g id="legend_1">
    <g id="text_17">
     <!-- Forecast Horizon -->
     <g transform="translate(1030.145469 65.634687) scale(0.16 -0.16)">
      <defs>
       <path id="DejaVuSans-48" d="M 628 4666 
L 1259 4666 
L 1259 2753 
L 3553 2753 
L 3553 4666 
L 4184 4666 
L 4184 0 
L 3553 0 
L 3553 2222 
L 1259 2222 
L 1259 0 
L 628 0 
L 628 4666 
z
" transform="scale(0.015625)"/>
       <path id="DejaVuSans-7a" d="M 353 3500 
L 3084 3500 
L 3084 2975 
L 922 459 
L 3084 459 
L 3084 0 
L 275 0 
L 275 525 
L 2438 3041 
L 353 3041 
L 353 3500 
z
" transform="scale(0.015625)"/>
      </defs>
      <use xlink:href="#DejaVuSans-46"/>
      <use xlink:href="#DejaVuSans-6f" transform="translate(53.894531 0)"/>
      <use xlink:href="#DejaVuSans-72" transform="translate(115.076172 0)"/>
      <use xlink:href="#DejaVuSans-65" transform="translate(153.939453 0)"/>
      <use xlink:href="#DejaVuSans-63" transform="translate(215.462891 0)"/>
      <use xlink:href="#DejaVuSans-61" transform="translate(270.443359 0)"/>
      <use xlink:href="#DejaVuSans-73" transform="translate(331.722656 0)"/>
      <use xlink:href="#DejaVuSans-74" transform="translate(383.822266 0)"/>
      <use xlink:href="#DejaVuSans-20" transform="translate(423.03125 0)"/>
      <use xlink:href="#DejaVuSans-48" transform="translate(454.818359 0)"/>
      <use xlink:href="#DejaVuSans-6f" transform="translate(530.013672 0)"/>
      <use xlink:href="#DejaVuSans-72" transform="translate(591.195312 0)"/>
      <use xlink:href="#DejaVuSans-69" transform="translate(632.308594 0)"/>
      <use xlink:href="#DejaVuSans-7a" transform="translate(660.091797 0)"/>
      <use xlink:href="#DejaVuSans-6f" transform="translate(712.582031 0)"/>
      <use xlink:href="#DejaVuSans-6e" transform="translate(773.763672 0)"/>
     </g>
    </g>
    <g id="line2d_18">
     <path d="M 960.125625 81.7 
L 974.125625 81.7 
L 988.125625 81.7 
" style="fill: none; stroke: #0000ff; stroke-width: 2; stroke-linecap: square"/>
    </g>
    <g id="text_18">
     <!-- Global RMSE (6h Forecast) -->
     <g transform="translate(999.325625 86.6) scale(0.14 -0.14)">
      <defs>
       <path id="DejaVuSans-47" d="M 3809 666 
L 3809 1919 
L 2778 1919 
L 2778 2438 
L 4434 2438 
L 4434 434 
Q 4069 175 3628 42 
Q 3188 -91 2688 -91 
Q 1594 -91 976 548 
Q 359 1188 359 2328 
Q 359 3472 976 4111 
Q 1594 4750 2688 4750 
Q 3144 4750 3555 4637 
Q 3966 4525 4313 4306 
L 4313 3634 
Q 3963 3931 3569 4081 
Q 3175 4231 2741 4231 
Q 1884 4231 1454 3753 
Q 1025 3275 1025 2328 
Q 1025 1384 1454 906 
Q 1884 428 2741 428 
Q 3075 428 3337 486 
Q 3600 544 3809 666 
z
" transform="scale(0.015625)"/>
       <path id="DejaVuSans-6c" d="M 603 4863 
L 1178 4863 
L 1178 0 
L 603 0 
L 603 4863 
z
" transform="scale(0.015625)"/>
       <path id="DejaVuSans-62" d="M 3116 1747 
Q 3116 2381 2855 2742 
Q 2594 3103 2138 3103 
Q 1681 3103 1420 2742 
Q 1159 2381 1159 1747 
Q 1159 1113 1420 752 
Q 1681 391 2138 391 
Q 2594 391 2855 752 
Q 3116 1113 3116 1747 
z
M 1159 2969 
Q 1341 3281 1617 3432 
Q 1894 3584 2278 3584 
Q 2916 3584 3314 3078 
Q 3713 2572 3713 1747 
Q 3713 922 3314 415 
Q 2916 -91 2278 -91 
Q 1894 -91 1617 61 
Q 1341 213 1159 525 
L 1159 0 
L 581 0 
L 581 4863 
L 1159 4863 
L 1159 2969 
z
" transform="scale(0.015625)"/>
      </defs>
      <use xlink:href="#DejaVuSans-47"/>
      <use xlink:href="#DejaVuSans-6c" transform="translate(77.490234 0)"/>
      <use xlink:href="#DejaVuSans-6f" transform="translate(105.273438 0)"/>
      <use xlink:href="#DejaVuSans-62" transform="translate(166.455078 0)"/>
      <use xlink:href="#DejaVuSans-61" transform="translate(229.931641 0)"/>
      <use xlink:href="#DejaVuSans-6c" transform="translate(291.210938 0)"/>
      <use xlink:href="#DejaVuSans-20" transform="translate(318.994141 0)"/>
      <use xlink:href="#DejaVuSans-52" transform="translate(350.78125 0)"/>
      <use xlink:href="#DejaVuSans-4d" transform="translate(420.263672 0)"/>
      <use xlink:href="#DejaVuSans-53" transform="translate(506.542969 0)"/>
      <use xlink:href="#DejaVuSans-45" transform="translate(570.019531 0)"/>
      <use xlink:href="#DejaVuSans-20" transform="translate(633.203125 0)"/>
      <use xlink:href="#DejaVuSans-28" transform="translate(664.990234 0)"/>
      <use xlink:href="#DejaVuSans-36" transform="translate(704.003906 0)"/>
      <use xlink:href="#DejaVuSans-68" transform="translate(767.626953 0)"/>
      <use xlink:href="#DejaVuSans-20" transform="translate(831.005859 0)"/>
      <use xlink:href="#DejaVuSans-46" transform="translate(862.792969 0)"/>
      <use xlink:href="#DejaVuSans-6f" transform="translate(916.6875 0)"/>
      <use xlink:href="#DejaVuSans-72" transform="translate(977.869141 0)"/>
      <use xlink:href="#DejaVuSans-65" transform="translate(1016.732422 0)"/>
      <use xlink:href="#DejaVuSans-63" transform="translate(1078.255859 0)"/>
      <use xlink:href="#DejaVuSans-61" transform="translate(1133.236328 0)"/>
      <use xlink:href="#DejaVuSans-73" transform="translate(1194.515625 0)"/>
      <use xlink:href="#DejaVuSans-74" transform="translate(1246.615234 0)"/>
      <use xlink:href="#DejaVuSans-29" transform="translate(1285.824219 0)"/>
     </g>
    </g>
    <g id="line2d_19">
     <path d="M 960.125625 102.249375 
L 974.125625 102.249375 
L 988.125625 102.249375 
" style="fill: none; stroke: #ffa500; stroke-width: 2; stroke-linecap: square"/>
    </g>
    <g id="text_19">
     <!-- South Africa RMSE (6h Forecast) -->
     <g transform="translate(999.325625 107.149375) scale(0.14 -0.14)">
      <defs>
       <path id="DejaVuSans-41" d="M 2188 4044 
L 1331 1722 
L 3047 1722 
L 2188 4044 
z
M 1831 4666 
L 2547 4666 
L 4325 0 
L 3669 0 
L 3244 1197 
L 1141 1197 
L 716 0 
L 50 0 
L 1831 4666 
z
" transform="scale(0.015625)"/>
      </defs>
      <use xlink:href="#DejaVuSans-53"/>
      <use xlink:href="#DejaVuSans-6f" transform="translate(63.476562 0)"/>
      <use xlink:href="#DejaVuSans-75" transform="translate(124.658203 0)"/>
      <use xlink:href="#DejaVuSans-74" transform="translate(188.037109 0)"/>
      <use xlink:href="#DejaVuSans-68" transform="translate(227.246094 0)"/>
      <use xlink:href="#DejaVuSans-20" transform="translate(290.625 0)"/>
      <use xlink:href="#DejaVuSans-41" transform="translate(322.412109 0)"/>
      <use xlink:href="#DejaVuSans-66" transform="translate(387.195312 0)"/>
      <use xlink:href="#DejaVuSans-72" transform="translate(422.400391 0)"/>
      <use xlink:href="#DejaVuSans-69" transform="translate(463.513672 0)"/>
      <use xlink:href="#DejaVuSans-63" transform="translate(491.296875 0)"/>
      <use xlink:href="#DejaVuSans-61" transform="translate(546.277344 0)"/>
      <use xlink:href="#DejaVuSans-20" transform="translate(607.556641 0)"/>
      <use xlink:href="#DejaVuSans-52" transform="translate(639.34375 0)"/>
      <use xlink:href="#DejaVuSans-4d" transform="translate(708.826172 0)"/>
      <use xlink:href="#DejaVuSans-53" transform="translate(795.105469 0)"/>
      <use xlink:href="#DejaVuSans-45" transform="translate(858.582031 0)"/>
      <use xlink:href="#DejaVuSans-20" transform="translate(921.765625 0)"/>
      <use xlink:href="#DejaVuSans-28" transform="translate(953.552734 0)"/>
      <use xlink:href="#DejaVuSans-36" transform="translate(992.566406 0)"/>
      <use xlink:href="#DejaVuSans-68" transform="translate(1056.189453 0)"/>
      <use xlink:href="#DejaVuSans-20" transform="translate(1119.568359 0)"/>
      <use xlink:href="#DejaVuSans-46" transform="translate(1151.355469 0)"/>
      <use xlink:href="#DejaVuSans-6f" transform="translate(1205.25 0)"/>
      <use xlink:href="#DejaVuSans-72" transform="translate(1266.431641 0)"/>
      <use xlink:href="#DejaVuSans-65" transform="translate(1305.294922 0)"/>
      <use xlink:href="#DejaVuSans-63" transform="translate(1366.818359 0)"/>
      <use xlink:href="#DejaVuSans-61" transform="translate(1421.798828 0)"/>
      <use xlink:href="#DejaVuSans-73" transform="translate(1483.078125 0)"/>
      <use xlink:href="#DejaVuSans-74" transform="translate(1535.177734 0)"/>
      <use xlink:href="#DejaVuSans-29" transform="translate(1574.386719 0)"/>
     </g>
    </g>
    <g id="line2d_20">
     <path d="M 960.125625 122.79875 
L 974.125625 122.79875 
L 988.125625 122.79875 
" style="fill: none; stroke-dasharray: 7.4,3.2; stroke-dashoffset: 0; stroke: #0000ff; stroke-width: 2"/>
    </g>
    <g id="text_20">
     <!-- Global RMSE (12h Forecast) -->
     <g transform="translate(999.325625 127.69875) scale(0.14 -0.14)">
      <use xlink:href="#DejaVuSans-47"/>
      <use xlink:href="#DejaVuSans-6c" transform="translate(77.490234 0)"/>
      <use xlink:href="#DejaVuSans-6f" transform="translate(105.273438 0)"/>
      <use xlink:href="#DejaVuSans-62" transform="translate(166.455078 0)"/>
      <use xlink:href="#DejaVuSans-61" transform="translate(229.931641 0)"/>
      <use xlink:href="#DejaVuSans-6c" transform="translate(291.210938 0)"/>
      <use xlink:href="#DejaVuSans-20" transform="translate(318.994141 0)"/>
      <use xlink:href="#DejaVuSans-52" transform="translate(350.78125 0)"/>
      <use xlink:href="#DejaVuSans-4d" transform="translate(420.263672 0)"/>
      <use xlink:href="#DejaVuSans-53" transform="translate(506.542969 0)"/>
      <use xlink:href="#DejaVuSans-45" transform="translate(570.019531 0)"/>
      <use xlink:href="#DejaVuSans-20" transform="translate(633.203125 0)"/>
      <use xlink:href="#DejaVuSans-28" transform="translate(664.990234 0)"/>
      <use xlink:href="#DejaVuSans-31" transform="translate(704.003906 0)"/>
      <use xlink:href="#DejaVuSans-32" transform="translate(767.626953 0)"/>
      <use xlink:href="#DejaVuSans-68" transform="translate(831.25 0)"/>
      <use xlink:href="#DejaVuSans-20" transform="translate(894.628906 0)"/>
      <use xlink:href="#DejaVuSans-46" transform="translate(926.416016 0)"/>
      <use xlink:href="#DejaVuSans-6f" transform="translate(980.310547 0)"/>
      <use xlink:href="#DejaVuSans-72" transform="translate(1041.492188 0)"/>
      <use xlink:href="#DejaVuSans-65" transform="translate(1080.355469 0)"/>
      <use xlink:href="#DejaVuSans-63" transform="translate(1141.878906 0)"/>
      <use xlink:href="#DejaVuSans-61" transform="translate(1196.859375 0)"/>
      <use xlink:href="#DejaVuSans-73" transform="translate(1258.138672 0)"/>
      <use xlink:href="#DejaVuSans-74" transform="translate(1310.238281 0)"/>
      <use xlink:href="#DejaVuSans-29" transform="translate(1349.447266 0)"/>
     </g>
    </g>
    <g id="line2d_21">
     <path d="M 960.125625 143.348125 
L 974.125625 143.348125 
L 988.125625 143.348125 
" style="fill: none; stroke-dasharray: 7.4,3.2; stroke-dashoffset: 0; stroke: #ffa500; stroke-width: 2"/>
    </g>
    <g id="text_21">
     <!-- South Africa RMSE (12h Forecast) -->
     <g transform="translate(999.325625 148.248125) scale(0.14 -0.14)">
      <use xlink:href="#DejaVuSans-53"/>
      <use xlink:href="#DejaVuSans-6f" transform="translate(63.476562 0)"/>
      <use xlink:href="#DejaVuSans-75" transform="translate(124.658203 0)"/>
      <use xlink:href="#DejaVuSans-74" transform="translate(188.037109 0)"/>
      <use xlink:href="#DejaVuSans-68" transform="translate(227.246094 0)"/>
      <use xlink:href="#DejaVuSans-20" transform="translate(290.625 0)"/>
      <use xlink:href="#DejaVuSans-41" transform="translate(322.412109 0)"/>
      <use xlink:href="#DejaVuSans-66" transform="translate(387.195312 0)"/>
      <use xlink:href="#DejaVuSans-72" transform="translate(422.400391 0)"/>
      <use xlink:href="#DejaVuSans-69" transform="translate(463.513672 0)"/>
      <use xlink:href="#DejaVuSans-63" transform="translate(491.296875 0)"/>
      <use xlink:href="#DejaVuSans-61" transform="translate(546.277344 0)"/>
      <use xlink:href="#DejaVuSans-20" transform="translate(607.556641 0)"/>
      <use xlink:href="#DejaVuSans-52" transform="translate(639.34375 0)"/>
      <use xlink:href="#DejaVuSans-4d" transform="translate(708.826172 0)"/>
      <use xlink:href="#DejaVuSans-53" transform="translate(795.105469 0)"/>
      <use xlink:href="#DejaVuSans-45" transform="translate(858.582031 0)"/>
      <use xlink:href="#DejaVuSans-20" transform="translate(921.765625 0)"/>
      <use xlink:href="#DejaVuSans-28" transform="translate(953.552734 0)"/>
      <use xlink:href="#DejaVuSans-31" transform="translate(992.566406 0)"/>
      <use xlink:href="#DejaVuSans-32" transform="translate(1056.189453 0)"/>
      <use xlink:href="#DejaVuSans-68" transform="translate(1119.8125 0)"/>
      <use xlink:href="#DejaVuSans-20" transform="translate(1183.191406 0)"/>
      <use xlink:href="#DejaVuSans-46" transform="translate(1214.978516 0)"/>
      <use xlink:href="#DejaVuSans-6f" transform="translate(1268.873047 0)"/>
      <use xlink:href="#DejaVuSans-72" transform="translate(1330.054688 0)"/>
      <use xlink:href="#DejaVuSans-65" transform="translate(1368.917969 0)"/>
      <use xlink:href="#DejaVuSans-63" transform="translate(1430.441406 0)"/>
      <use xlink:href="#DejaVuSans-61" transform="translate(1485.421875 0)"/>
      <use xlink:href="#DejaVuSans-73" transform="translate(1546.701172 0)"/>
      <use xlink:href="#DejaVuSans-74" transform="translate(1598.800781 0)"/>
      <use xlink:href="#DejaVuSans-29" transform="translate(1638.009766 0)"/>
     </g>
    </g>
   </g>
  </g>
 </g>
 <defs>
  <clipPath id="p6a38b983af">
   <rect x="68.675625" y="40.877187" width="837" height="443.52"/>
  </clipPath>
 </defs>
</svg>
