<?xml version="1.0" encoding="utf-8" standalone="no"?>
<!DOCTYPE svg PUBLIC "-//W3C//DTD SVG 1.1//EN"
  "http://www.w3.org/Graphics/SVG/1.1/DTD/svg11.dtd">
<svg xmlns:xlink="http://www.w3.org/1999/xlink" width="1237.023214pt" height="575.421502pt" viewBox="0 0 1237.023214 575.421502" xmlns="http://www.w3.org/2000/svg" version="1.1">
 <metadata>
  <rdf:RDF xmlns:dc="http://purl.org/dc/elements/1.1/" xmlns:cc="http://creativecommons.org/ns#" xmlns:rdf="http://www.w3.org/1999/02/22-rdf-syntax-ns#">
   <cc:Work>
    <dc:type rdf:resource="http://purl.org/dc/dcmitype/StillImage"/>
    <dc:date>2025-02-18T10:18:49.533960</dc:date>
    <dc:format>image/svg+xml</dc:format>
    <dc:creator>
     <cc:Agent>
      <dc:title>Matplotlib v3.10.0, https://matplotlib.org/</dc:title>
     </cc:Agent>
    </dc:creator>
   </cc:Work>
  </rdf:RDF>
 </metadata>
 <defs>
  <style type="text/css">*{stroke-linejoin: round; stroke-linecap: butt}</style>
 </defs>
 <g id="figure_1">
  <g id="patch_1">
   <path d="M 0 575.421502 
L 1237.023214 575.421502 
L 1237.023214 0 
L 0 0 
z
" style="fill: #ffffff"/>
  </g>
  <g id="axes_1">
   <g id="patch_2">
    <path d="M 58.791027 484.397187 
L 895.791027 484.397187 
L 895.791027 40.877187 
L 58.791027 40.877187 
z
" style="fill: #ffffff"/>
   </g>
   <g id="matplotlib.axis_1">
    <g id="xtick_1">
     <g id="line2d_1">
      <defs>
       <path id="m0ad5f6a698" d="M 0 0 
L 0 3.5 
" style="stroke: #000000; stroke-width: 0.8"/>
      </defs>
      <g>
       <use xlink:href="#m0ad5f6a698" x="96.836481" y="484.397187" style="stroke: #000000; stroke-width: 0.8"/>
      </g>
     </g>
     <g id="text_1">
      <!-- 2022-01-01 (12:00) -->
      <g transform="translate(10.999219 546.93544) rotate(-30) scale(0.1 -0.1)">
       <defs>
        <path id="DejaVuSans-32" d="M 1228 531 
L 3431 531 
L 3431 0 
L 469 0 
L 469 531 
Q 828 903 1448 1529 
Q 2069 2156 2228 2338 
Q 2531 2678 2651 2914 
Q 2772 3150 2772 3378 
Q 2772 3750 2511 3984 
Q 2250 4219 1831 4219 
Q 1534 4219 1204 4116 
Q 875 4013 500 3803 
L 500 4441 
Q 881 4594 1212 4672 
Q 1544 4750 1819 4750 
Q 2544 4750 2975 4387 
Q 3406 4025 3406 3419 
Q 3406 3131 3298 2873 
Q 3191 2616 2906 2266 
Q 2828 2175 2409 1742 
Q 1991 1309 1228 531 
z
" transform="scale(0.015625)"/>
        <path id="DejaVuSans-30" d="M 2034 4250 
Q 1547 4250 1301 3770 
Q 1056 3291 1056 2328 
Q 1056 1369 1301 889 
Q 1547 409 2034 409 
Q 2525 409 2770 889 
Q 3016 1369 3016 2328 
Q 3016 3291 2770 3770 
Q 2525 4250 2034 4250 
z
M 2034 4750 
Q 2819 4750 3233 4129 
Q 3647 3509 3647 2328 
Q 3647 1150 3233 529 
Q 2819 -91 2034 -91 
Q 1250 -91 836 529 
Q 422 1150 422 2328 
Q 422 3509 836 4129 
Q 1250 4750 2034 4750 
z
" transform="scale(0.015625)"/>
        <path id="DejaVuSans-2d" d="M 313 2009 
L 1997 2009 
L 1997 1497 
L 313 1497 
L 313 2009 
z
" transform="scale(0.015625)"/>
        <path id="DejaVuSans-31" d="M 794 531 
L 1825 531 
L 1825 4091 
L 703 3866 
L 703 4441 
L 1819 4666 
L 2450 4666 
L 2450 531 
L 3481 531 
L 3481 0 
L 794 0 
L 794 531 
z
" transform="scale(0.015625)"/>
        <path id="DejaVuSans-20" transform="scale(0.015625)"/>
        <path id="DejaVuSans-28" d="M 1984 4856 
Q 1566 4138 1362 3434 
Q 1159 2731 1159 2009 
Q 1159 1288 1364 580 
Q 1569 -128 1984 -844 
L 1484 -844 
Q 1016 -109 783 600 
Q 550 1309 550 2009 
Q 550 2706 781 3412 
Q 1013 4119 1484 4856 
L 1984 4856 
z
" transform="scale(0.015625)"/>
        <path id="DejaVuSans-3a" d="M 750 794 
L 1409 794 
L 1409 0 
L 750 0 
L 750 794 
z
M 750 3309 
L 1409 3309 
L 1409 2516 
L 750 2516 
L 750 3309 
z
" transform="scale(0.015625)"/>
        <path id="DejaVuSans-29" d="M 513 4856 
L 1013 4856 
Q 1481 4119 1714 3412 
Q 1947 2706 1947 2009 
Q 1947 1309 1714 600 
Q 1481 -109 1013 -844 
L 513 -844 
Q 928 -128 1133 580 
Q 1338 1288 1338 2009 
Q 1338 2731 1133 3434 
Q 928 4138 513 4856 
z
" transform="scale(0.015625)"/>
       </defs>
       <use xlink:href="#DejaVuSans-32"/>
       <use xlink:href="#DejaVuSans-30" transform="translate(63.623047 0)"/>
       <use xlink:href="#DejaVuSans-32" transform="translate(127.246094 0)"/>
       <use xlink:href="#DejaVuSans-32" transform="translate(190.869141 0)"/>
       <use xlink:href="#DejaVuSans-2d" transform="translate(254.492188 0)"/>
       <use xlink:href="#DejaVuSans-30" transform="translate(290.576172 0)"/>
       <use xlink:href="#DejaVuSans-31" transform="translate(354.199219 0)"/>
       <use xlink:href="#DejaVuSans-2d" transform="translate(417.822266 0)"/>
       <use xlink:href="#DejaVuSans-30" transform="translate(453.90625 0)"/>
       <use xlink:href="#DejaVuSans-31" transform="translate(517.529297 0)"/>
       <use xlink:href="#DejaVuSans-20" transform="translate(581.152344 0)"/>
       <use xlink:href="#DejaVuSans-28" transform="translate(612.939453 0)"/>
       <use xlink:href="#DejaVuSans-31" transform="translate(651.953125 0)"/>
       <use xlink:href="#DejaVuSans-32" transform="translate(715.576172 0)"/>
       <use xlink:href="#DejaVuSans-3a" transform="translate(779.199219 0)"/>
       <use xlink:href="#DejaVuSans-30" transform="translate(812.890625 0)"/>
       <use xlink:href="#DejaVuSans-30" transform="translate(876.513672 0)"/>
       <use xlink:href="#DejaVuSans-29" transform="translate(940.136719 0)"/>
      </g>
     </g>
    </g>
    <g id="xtick_2">
     <g id="line2d_2">
      <g>
       <use xlink:href="#m0ad5f6a698" x="246.573612" y="484.397187" style="stroke: #000000; stroke-width: 0.8"/>
      </g>
     </g>
     <g id="text_2">
      <!-- 2022-03-16 (00:00) -->
      <g transform="translate(160.736349 546.93544) rotate(-30) scale(0.1 -0.1)">
       <defs>
        <path id="DejaVuSans-33" d="M 2597 2516 
Q 3050 2419 3304 2112 
Q 3559 1806 3559 1356 
Q 3559 666 3084 287 
Q 2609 -91 1734 -91 
Q 1441 -91 1130 -33 
Q 819 25 488 141 
L 488 750 
Q 750 597 1062 519 
Q 1375 441 1716 441 
Q 2309 441 2620 675 
Q 2931 909 2931 1356 
Q 2931 1769 2642 2001 
Q 2353 2234 1838 2234 
L 1294 2234 
L 1294 2753 
L 1863 2753 
Q 2328 2753 2575 2939 
Q 2822 3125 2822 3475 
Q 2822 3834 2567 4026 
Q 2313 4219 1838 4219 
Q 1578 4219 1281 4162 
Q 984 4106 628 3988 
L 628 4550 
Q 988 4650 1302 4700 
Q 1616 4750 1894 4750 
Q 2613 4750 3031 4423 
Q 3450 4097 3450 3541 
Q 3450 3153 3228 2886 
Q 3006 2619 2597 2516 
z
" transform="scale(0.015625)"/>
        <path id="DejaVuSans-36" d="M 2113 2584 
Q 1688 2584 1439 2293 
Q 1191 2003 1191 1497 
Q 1191 994 1439 701 
Q 1688 409 2113 409 
Q 2538 409 2786 701 
Q 3034 994 3034 1497 
Q 3034 2003 2786 2293 
Q 2538 2584 2113 2584 
z
M 3366 4563 
L 3366 3988 
Q 3128 4100 2886 4159 
Q 2644 4219 2406 4219 
Q 1781 4219 1451 3797 
Q 1122 3375 1075 2522 
Q 1259 2794 1537 2939 
Q 1816 3084 2150 3084 
Q 2853 3084 3261 2657 
Q 3669 2231 3669 1497 
Q 3669 778 3244 343 
Q 2819 -91 2113 -91 
Q 1303 -91 875 529 
Q 447 1150 447 2328 
Q 447 3434 972 4092 
Q 1497 4750 2381 4750 
Q 2619 4750 2861 4703 
Q 3103 4656 3366 4563 
z
" transform="scale(0.015625)"/>
       </defs>
       <use xlink:href="#DejaVuSans-32"/>
       <use xlink:href="#DejaVuSans-30" transform="translate(63.623047 0)"/>
       <use xlink:href="#DejaVuSans-32" transform="translate(127.246094 0)"/>
       <use xlink:href="#DejaVuSans-32" transform="translate(190.869141 0)"/>
       <use xlink:href="#DejaVuSans-2d" transform="translate(254.492188 0)"/>
       <use xlink:href="#DejaVuSans-30" transform="translate(290.576172 0)"/>
       <use xlink:href="#DejaVuSans-33" transform="translate(354.199219 0)"/>
       <use xlink:href="#DejaVuSans-2d" transform="translate(417.822266 0)"/>
       <use xlink:href="#DejaVuSans-31" transform="translate(453.90625 0)"/>
       <use xlink:href="#DejaVuSans-36" transform="translate(517.529297 0)"/>
       <use xlink:href="#DejaVuSans-20" transform="translate(581.152344 0)"/>
       <use xlink:href="#DejaVuSans-28" transform="translate(612.939453 0)"/>
       <use xlink:href="#DejaVuSans-30" transform="translate(651.953125 0)"/>
       <use xlink:href="#DejaVuSans-30" transform="translate(715.576172 0)"/>
       <use xlink:href="#DejaVuSans-3a" transform="translate(779.199219 0)"/>
       <use xlink:href="#DejaVuSans-30" transform="translate(812.890625 0)"/>
       <use xlink:href="#DejaVuSans-30" transform="translate(876.513672 0)"/>
       <use xlink:href="#DejaVuSans-29" transform="translate(940.136719 0)"/>
      </g>
     </g>
    </g>
    <g id="xtick_3">
     <g id="line2d_3">
      <g>
       <use xlink:href="#m0ad5f6a698" x="399.366602" y="484.397187" style="stroke: #000000; stroke-width: 0.8"/>
      </g>
     </g>
     <g id="text_3">
      <!-- 2022-05-30 (00:00) -->
      <g transform="translate(313.529339 546.93544) rotate(-30) scale(0.1 -0.1)">
       <defs>
        <path id="DejaVuSans-35" d="M 691 4666 
L 3169 4666 
L 3169 4134 
L 1269 4134 
L 1269 2991 
Q 1406 3038 1543 3061 
Q 1681 3084 1819 3084 
Q 2600 3084 3056 2656 
Q 3513 2228 3513 1497 
Q 3513 744 3044 326 
Q 2575 -91 1722 -91 
Q 1428 -91 1123 -41 
Q 819 9 494 109 
L 494 744 
Q 775 591 1075 516 
Q 1375 441 1709 441 
Q 2250 441 2565 725 
Q 2881 1009 2881 1497 
Q 2881 1984 2565 2268 
Q 2250 2553 1709 2553 
Q 1456 2553 1204 2497 
Q 953 2441 691 2322 
L 691 4666 
z
" transform="scale(0.015625)"/>
       </defs>
       <use xlink:href="#DejaVuSans-32"/>
       <use xlink:href="#DejaVuSans-30" transform="translate(63.623047 0)"/>
       <use xlink:href="#DejaVuSans-32" transform="translate(127.246094 0)"/>
       <use xlink:href="#DejaVuSans-32" transform="translate(190.869141 0)"/>
       <use xlink:href="#DejaVuSans-2d" transform="translate(254.492188 0)"/>
       <use xlink:href="#DejaVuSans-30" transform="translate(290.576172 0)"/>
       <use xlink:href="#DejaVuSans-35" transform="translate(354.199219 0)"/>
       <use xlink:href="#DejaVuSans-2d" transform="translate(417.822266 0)"/>
       <use xlink:href="#DejaVuSans-33" transform="translate(453.90625 0)"/>
       <use xlink:href="#DejaVuSans-30" transform="translate(517.529297 0)"/>
       <use xlink:href="#DejaVuSans-20" transform="translate(581.152344 0)"/>
       <use xlink:href="#DejaVuSans-28" transform="translate(612.939453 0)"/>
       <use xlink:href="#DejaVuSans-30" transform="translate(651.953125 0)"/>
       <use xlink:href="#DejaVuSans-30" transform="translate(715.576172 0)"/>
       <use xlink:href="#DejaVuSans-3a" transform="translate(779.199219 0)"/>
       <use xlink:href="#DejaVuSans-30" transform="translate(812.890625 0)"/>
       <use xlink:href="#DejaVuSans-30" transform="translate(876.513672 0)"/>
       <use xlink:href="#DejaVuSans-29" transform="translate(940.136719 0)"/>
      </g>
     </g>
    </g>
    <g id="xtick_4">
     <g id="line2d_4">
      <g>
       <use xlink:href="#m0ad5f6a698" x="552.159592" y="484.397187" style="stroke: #000000; stroke-width: 0.8"/>
      </g>
     </g>
     <g id="text_4">
      <!-- 2022-08-13 (00:00) -->
      <g transform="translate(466.322329 546.93544) rotate(-30) scale(0.1 -0.1)">
       <defs>
        <path id="DejaVuSans-38" d="M 2034 2216 
Q 1584 2216 1326 1975 
Q 1069 1734 1069 1313 
Q 1069 891 1326 650 
Q 1584 409 2034 409 
Q 2484 409 2743 651 
Q 3003 894 3003 1313 
Q 3003 1734 2745 1975 
Q 2488 2216 2034 2216 
z
M 1403 2484 
Q 997 2584 770 2862 
Q 544 3141 544 3541 
Q 544 4100 942 4425 
Q 1341 4750 2034 4750 
Q 2731 4750 3128 4425 
Q 3525 4100 3525 3541 
Q 3525 3141 3298 2862 
Q 3072 2584 2669 2484 
Q 3125 2378 3379 2068 
Q 3634 1759 3634 1313 
Q 3634 634 3220 271 
Q 2806 -91 2034 -91 
Q 1263 -91 848 271 
Q 434 634 434 1313 
Q 434 1759 690 2068 
Q 947 2378 1403 2484 
z
M 1172 3481 
Q 1172 3119 1398 2916 
Q 1625 2713 2034 2713 
Q 2441 2713 2670 2916 
Q 2900 3119 2900 3481 
Q 2900 3844 2670 4047 
Q 2441 4250 2034 4250 
Q 1625 4250 1398 4047 
Q 1172 3844 1172 3481 
z
" transform="scale(0.015625)"/>
       </defs>
       <use xlink:href="#DejaVuSans-32"/>
       <use xlink:href="#DejaVuSans-30" transform="translate(63.623047 0)"/>
       <use xlink:href="#DejaVuSans-32" transform="translate(127.246094 0)"/>
       <use xlink:href="#DejaVuSans-32" transform="translate(190.869141 0)"/>
       <use xlink:href="#DejaVuSans-2d" transform="translate(254.492188 0)"/>
       <use xlink:href="#DejaVuSans-30" transform="translate(290.576172 0)"/>
       <use xlink:href="#DejaVuSans-38" transform="translate(354.199219 0)"/>
       <use xlink:href="#DejaVuSans-2d" transform="translate(417.822266 0)"/>
       <use xlink:href="#DejaVuSans-31" transform="translate(453.90625 0)"/>
       <use xlink:href="#DejaVuSans-33" transform="translate(517.529297 0)"/>
       <use xlink:href="#DejaVuSans-20" transform="translate(581.152344 0)"/>
       <use xlink:href="#DejaVuSans-28" transform="translate(612.939453 0)"/>
       <use xlink:href="#DejaVuSans-30" transform="translate(651.953125 0)"/>
       <use xlink:href="#DejaVuSans-30" transform="translate(715.576172 0)"/>
       <use xlink:href="#DejaVuSans-3a" transform="translate(779.199219 0)"/>
       <use xlink:href="#DejaVuSans-30" transform="translate(812.890625 0)"/>
       <use xlink:href="#DejaVuSans-30" transform="translate(876.513672 0)"/>
       <use xlink:href="#DejaVuSans-29" transform="translate(940.136719 0)"/>
      </g>
     </g>
    </g>
    <g id="xtick_5">
     <g id="line2d_5">
      <g>
       <use xlink:href="#m0ad5f6a698" x="704.952582" y="484.397187" style="stroke: #000000; stroke-width: 0.8"/>
      </g>
     </g>
     <g id="text_5">
      <!-- 2022-10-27 (00:00) -->
      <g transform="translate(619.11532 546.93544) rotate(-30) scale(0.1 -0.1)">
       <defs>
        <path id="DejaVuSans-37" d="M 525 4666 
L 3525 4666 
L 3525 4397 
L 1831 0 
L 1172 0 
L 2766 4134 
L 525 4134 
L 525 4666 
z
" transform="scale(0.015625)"/>
       </defs>
       <use xlink:href="#DejaVuSans-32"/>
       <use xlink:href="#DejaVuSans-30" transform="translate(63.623047 0)"/>
       <use xlink:href="#DejaVuSans-32" transform="translate(127.246094 0)"/>
       <use xlink:href="#DejaVuSans-32" transform="translate(190.869141 0)"/>
       <use xlink:href="#DejaVuSans-2d" transform="translate(254.492188 0)"/>
       <use xlink:href="#DejaVuSans-31" transform="translate(290.576172 0)"/>
       <use xlink:href="#DejaVuSans-30" transform="translate(354.199219 0)"/>
       <use xlink:href="#DejaVuSans-2d" transform="translate(417.822266 0)"/>
       <use xlink:href="#DejaVuSans-32" transform="translate(453.90625 0)"/>
       <use xlink:href="#DejaVuSans-37" transform="translate(517.529297 0)"/>
       <use xlink:href="#DejaVuSans-20" transform="translate(581.152344 0)"/>
       <use xlink:href="#DejaVuSans-28" transform="translate(612.939453 0)"/>
       <use xlink:href="#DejaVuSans-30" transform="translate(651.953125 0)"/>
       <use xlink:href="#DejaVuSans-30" transform="translate(715.576172 0)"/>
       <use xlink:href="#DejaVuSans-3a" transform="translate(779.199219 0)"/>
       <use xlink:href="#DejaVuSans-30" transform="translate(812.890625 0)"/>
       <use xlink:href="#DejaVuSans-30" transform="translate(876.513672 0)"/>
       <use xlink:href="#DejaVuSans-29" transform="translate(940.136719 0)"/>
      </g>
     </g>
    </g>
    <g id="xtick_6">
     <g id="line2d_6">
      <g>
       <use xlink:href="#m0ad5f6a698" x="857.745572" y="484.397187" style="stroke: #000000; stroke-width: 0.8"/>
      </g>
     </g>
     <g id="text_6">
      <!-- 2023-01-10 (00:00) -->
      <g transform="translate(771.90831 546.93544) rotate(-30) scale(0.1 -0.1)">
       <use xlink:href="#DejaVuSans-32"/>
       <use xlink:href="#DejaVuSans-30" transform="translate(63.623047 0)"/>
       <use xlink:href="#DejaVuSans-32" transform="translate(127.246094 0)"/>
       <use xlink:href="#DejaVuSans-33" transform="translate(190.869141 0)"/>
       <use xlink:href="#DejaVuSans-2d" transform="translate(254.492188 0)"/>
       <use xlink:href="#DejaVuSans-30" transform="translate(290.576172 0)"/>
       <use xlink:href="#DejaVuSans-31" transform="translate(354.199219 0)"/>
       <use xlink:href="#DejaVuSans-2d" transform="translate(417.822266 0)"/>
       <use xlink:href="#DejaVuSans-31" transform="translate(453.90625 0)"/>
       <use xlink:href="#DejaVuSans-30" transform="translate(517.529297 0)"/>
       <use xlink:href="#DejaVuSans-20" transform="translate(581.152344 0)"/>
       <use xlink:href="#DejaVuSans-28" transform="translate(612.939453 0)"/>
       <use xlink:href="#DejaVuSans-30" transform="translate(651.953125 0)"/>
       <use xlink:href="#DejaVuSans-30" transform="translate(715.576172 0)"/>
       <use xlink:href="#DejaVuSans-3a" transform="translate(779.199219 0)"/>
       <use xlink:href="#DejaVuSans-30" transform="translate(812.890625 0)"/>
       <use xlink:href="#DejaVuSans-30" transform="translate(876.513672 0)"/>
       <use xlink:href="#DejaVuSans-29" transform="translate(940.136719 0)"/>
      </g>
     </g>
    </g>
    <g id="text_7">
     <!-- Forecast Date -->
     <g transform="translate(421.784777 564.894002) scale(0.16 -0.16)">
      <defs>
       <path id="DejaVuSans-46" d="M 628 4666 
L 3309 4666 
L 3309 4134 
L 1259 4134 
L 1259 2759 
L 3109 2759 
L 3109 2228 
L 1259 2228 
L 1259 0 
L 628 0 
L 628 4666 
z
" transform="scale(0.015625)"/>
       <path id="DejaVuSans-6f" d="M 1959 3097 
Q 1497 3097 1228 2736 
Q 959 2375 959 1747 
Q 959 1119 1226 758 
Q 1494 397 1959 397 
Q 2419 397 2687 759 
Q 2956 1122 2956 1747 
Q 2956 2369 2687 2733 
Q 2419 3097 1959 3097 
z
M 1959 3584 
Q 2709 3584 3137 3096 
Q 3566 2609 3566 1747 
Q 3566 888 3137 398 
Q 2709 -91 1959 -91 
Q 1206 -91 779 398 
Q 353 888 353 1747 
Q 353 2609 779 3096 
Q 1206 3584 1959 3584 
z
" transform="scale(0.015625)"/>
       <path id="DejaVuSans-72" d="M 2631 2963 
Q 2534 3019 2420 3045 
Q 2306 3072 2169 3072 
Q 1681 3072 1420 2755 
Q 1159 2438 1159 1844 
L 1159 0 
L 581 0 
L 581 3500 
L 1159 3500 
L 1159 2956 
Q 1341 3275 1631 3429 
Q 1922 3584 2338 3584 
Q 2397 3584 2469 3576 
Q 2541 3569 2628 3553 
L 2631 2963 
z
" transform="scale(0.015625)"/>
       <path id="DejaVuSans-65" d="M 3597 1894 
L 3597 1613 
L 953 1613 
Q 991 1019 1311 708 
Q 1631 397 2203 397 
Q 2534 397 2845 478 
Q 3156 559 3463 722 
L 3463 178 
Q 3153 47 2828 -22 
Q 2503 -91 2169 -91 
Q 1331 -91 842 396 
Q 353 884 353 1716 
Q 353 2575 817 3079 
Q 1281 3584 2069 3584 
Q 2775 3584 3186 3129 
Q 3597 2675 3597 1894 
z
M 3022 2063 
Q 3016 2534 2758 2815 
Q 2500 3097 2075 3097 
Q 1594 3097 1305 2825 
Q 1016 2553 972 2059 
L 3022 2063 
z
" transform="scale(0.015625)"/>
       <path id="DejaVuSans-63" d="M 3122 3366 
L 3122 2828 
Q 2878 2963 2633 3030 
Q 2388 3097 2138 3097 
Q 1578 3097 1268 2742 
Q 959 2388 959 1747 
Q 959 1106 1268 751 
Q 1578 397 2138 397 
Q 2388 397 2633 464 
Q 2878 531 3122 666 
L 3122 134 
Q 2881 22 2623 -34 
Q 2366 -91 2075 -91 
Q 1284 -91 818 406 
Q 353 903 353 1747 
Q 353 2603 823 3093 
Q 1294 3584 2113 3584 
Q 2378 3584 2631 3529 
Q 2884 3475 3122 3366 
z
" transform="scale(0.015625)"/>
       <path id="DejaVuSans-61" d="M 2194 1759 
Q 1497 1759 1228 1600 
Q 959 1441 959 1056 
Q 959 750 1161 570 
Q 1363 391 1709 391 
Q 2188 391 2477 730 
Q 2766 1069 2766 1631 
L 2766 1759 
L 2194 1759 
z
M 3341 1997 
L 3341 0 
L 2766 0 
L 2766 531 
Q 2569 213 2275 61 
Q 1981 -91 1556 -91 
Q 1019 -91 701 211 
Q 384 513 384 1019 
Q 384 1609 779 1909 
Q 1175 2209 1959 2209 
L 2766 2209 
L 2766 2266 
Q 2766 2663 2505 2880 
Q 2244 3097 1772 3097 
Q 1472 3097 1187 3025 
Q 903 2953 641 2809 
L 641 3341 
Q 956 3463 1253 3523 
Q 1550 3584 1831 3584 
Q 2591 3584 2966 3190 
Q 3341 2797 3341 1997 
z
" transform="scale(0.015625)"/>
       <path id="DejaVuSans-73" d="M 2834 3397 
L 2834 2853 
Q 2591 2978 2328 3040 
Q 2066 3103 1784 3103 
Q 1356 3103 1142 2972 
Q 928 2841 928 2578 
Q 928 2378 1081 2264 
Q 1234 2150 1697 2047 
L 1894 2003 
Q 2506 1872 2764 1633 
Q 3022 1394 3022 966 
Q 3022 478 2636 193 
Q 2250 -91 1575 -91 
Q 1294 -91 989 -36 
Q 684 19 347 128 
L 347 722 
Q 666 556 975 473 
Q 1284 391 1588 391 
Q 1994 391 2212 530 
Q 2431 669 2431 922 
Q 2431 1156 2273 1281 
Q 2116 1406 1581 1522 
L 1381 1569 
Q 847 1681 609 1914 
Q 372 2147 372 2553 
Q 372 3047 722 3315 
Q 1072 3584 1716 3584 
Q 2034 3584 2315 3537 
Q 2597 3491 2834 3397 
z
" transform="scale(0.015625)"/>
       <path id="DejaVuSans-74" d="M 1172 4494 
L 1172 3500 
L 2356 3500 
L 2356 3053 
L 1172 3053 
L 1172 1153 
Q 1172 725 1289 603 
Q 1406 481 1766 481 
L 2356 481 
L 2356 0 
L 1766 0 
Q 1100 0 847 248 
Q 594 497 594 1153 
L 594 3053 
L 172 3053 
L 172 3500 
L 594 3500 
L 594 4494 
L 1172 4494 
z
" transform="scale(0.015625)"/>
       <path id="DejaVuSans-44" d="M 1259 4147 
L 1259 519 
L 2022 519 
Q 2988 519 3436 956 
Q 3884 1394 3884 2338 
Q 3884 3275 3436 3711 
Q 2988 4147 2022 4147 
L 1259 4147 
z
M 628 4666 
L 1925 4666 
Q 3281 4666 3915 4102 
Q 4550 3538 4550 2338 
Q 4550 1131 3912 565 
Q 3275 0 1925 0 
L 628 0 
L 628 4666 
z
" transform="scale(0.015625)"/>
      </defs>
      <use xlink:href="#DejaVuSans-46"/>
      <use xlink:href="#DejaVuSans-6f" transform="translate(53.894531 0)"/>
      <use xlink:href="#DejaVuSans-72" transform="translate(115.076172 0)"/>
      <use xlink:href="#DejaVuSans-65" transform="translate(153.939453 0)"/>
      <use xlink:href="#DejaVuSans-63" transform="translate(215.462891 0)"/>
      <use xlink:href="#DejaVuSans-61" transform="translate(270.443359 0)"/>
      <use xlink:href="#DejaVuSans-73" transform="translate(331.722656 0)"/>
      <use xlink:href="#DejaVuSans-74" transform="translate(383.822266 0)"/>
      <use xlink:href="#DejaVuSans-20" transform="translate(423.03125 0)"/>
      <use xlink:href="#DejaVuSans-44" transform="translate(454.818359 0)"/>
      <use xlink:href="#DejaVuSans-61" transform="translate(531.820312 0)"/>
      <use xlink:href="#DejaVuSans-74" transform="translate(593.099609 0)"/>
      <use xlink:href="#DejaVuSans-65" transform="translate(632.308594 0)"/>
     </g>
    </g>
   </g>
   <g id="matplotlib.axis_2">
    <g id="ytick_1">
     <g id="line2d_7">
      <defs>
       <path id="m9fe6a36f4e" d="M 0 0 
L -3.5 0 
" style="stroke: #000000; stroke-width: 0.8"/>
      </defs>
      <g>
       <use xlink:href="#m9fe6a36f4e" x="58.791027" y="430.428076" style="stroke: #000000; stroke-width: 0.8"/>
      </g>
     </g>
     <g id="text_8">
      <!-- 2 -->
      <g transform="translate(45.428527 434.227295) scale(0.1 -0.1)">
       <use xlink:href="#DejaVuSans-32"/>
      </g>
     </g>
    </g>
    <g id="ytick_2">
     <g id="line2d_8">
      <g>
       <use xlink:href="#m9fe6a36f4e" x="58.791027" y="354.408453" style="stroke: #000000; stroke-width: 0.8"/>
      </g>
     </g>
     <g id="text_9">
      <!-- 4 -->
      <g transform="translate(45.428527 358.207672) scale(0.1 -0.1)">
       <defs>
        <path id="DejaVuSans-34" d="M 2419 4116 
L 825 1625 
L 2419 1625 
L 2419 4116 
z
M 2253 4666 
L 3047 4666 
L 3047 1625 
L 3713 1625 
L 3713 1100 
L 3047 1100 
L 3047 0 
L 2419 0 
L 2419 1100 
L 313 1100 
L 313 1709 
L 2253 4666 
z
" transform="scale(0.015625)"/>
       </defs>
       <use xlink:href="#DejaVuSans-34"/>
      </g>
     </g>
    </g>
    <g id="ytick_3">
     <g id="line2d_9">
      <g>
       <use xlink:href="#m9fe6a36f4e" x="58.791027" y="278.388831" style="stroke: #000000; stroke-width: 0.8"/>
      </g>
     </g>
     <g id="text_10">
      <!-- 6 -->
      <g transform="translate(45.428527 282.18805) scale(0.1 -0.1)">
       <use xlink:href="#DejaVuSans-36"/>
      </g>
     </g>
    </g>
    <g id="ytick_4">
     <g id="line2d_10">
      <g>
       <use xlink:href="#m9fe6a36f4e" x="58.791027" y="202.369208" style="stroke: #000000; stroke-width: 0.8"/>
      </g>
     </g>
     <g id="text_11">
      <!-- 8 -->
      <g transform="translate(45.428527 206.168427) scale(0.1 -0.1)">
       <use xlink:href="#DejaVuSans-38"/>
      </g>
     </g>
    </g>
    <g id="ytick_5">
     <g id="line2d_11">
      <g>
       <use xlink:href="#m9fe6a36f4e" x="58.791027" y="126.349586" style="stroke: #000000; stroke-width: 0.8"/>
      </g>
     </g>
     <g id="text_12">
      <!-- 10 -->
      <g transform="translate(39.066027 130.148805) scale(0.1 -0.1)">
       <use xlink:href="#DejaVuSans-31"/>
       <use xlink:href="#DejaVuSans-30" transform="translate(63.623047 0)"/>
      </g>
     </g>
    </g>
    <g id="ytick_6">
     <g id="line2d_12">
      <g>
       <use xlink:href="#m9fe6a36f4e" x="58.791027" y="50.329964" style="stroke: #000000; stroke-width: 0.8"/>
      </g>
     </g>
     <g id="text_13">
      <!-- 12 -->
      <g transform="translate(39.066027 54.129182) scale(0.1 -0.1)">
       <use xlink:href="#DejaVuSans-31"/>
       <use xlink:href="#DejaVuSans-32" transform="translate(63.623047 0)"/>
      </g>
     </g>
    </g>
    <g id="text_14">
     <!-- Root Mean Squared Error (RMSE) -->
     <g transform="translate(31.738527 394.303437) rotate(-90) scale(0.16 -0.16)">
      <defs>
       <path id="DejaVuSans-52" d="M 2841 2188 
Q 3044 2119 3236 1894 
Q 3428 1669 3622 1275 
L 4263 0 
L 3584 0 
L 2988 1197 
Q 2756 1666 2539 1819 
Q 2322 1972 1947 1972 
L 1259 1972 
L 1259 0 
L 628 0 
L 628 4666 
L 2053 4666 
Q 2853 4666 3247 4331 
Q 3641 3997 3641 3322 
Q 3641 2881 3436 2590 
Q 3231 2300 2841 2188 
z
M 1259 4147 
L 1259 2491 
L 2053 2491 
Q 2509 2491 2742 2702 
Q 2975 2913 2975 3322 
Q 2975 3731 2742 3939 
Q 2509 4147 2053 4147 
L 1259 4147 
z
" transform="scale(0.015625)"/>
       <path id="DejaVuSans-4d" d="M 628 4666 
L 1569 4666 
L 2759 1491 
L 3956 4666 
L 4897 4666 
L 4897 0 
L 4281 0 
L 4281 4097 
L 3078 897 
L 2444 897 
L 1241 4097 
L 1241 0 
L 628 0 
L 628 4666 
z
" transform="scale(0.015625)"/>
       <path id="DejaVuSans-6e" d="M 3513 2113 
L 3513 0 
L 2938 0 
L 2938 2094 
Q 2938 2591 2744 2837 
Q 2550 3084 2163 3084 
Q 1697 3084 1428 2787 
Q 1159 2491 1159 1978 
L 1159 0 
L 581 0 
L 581 3500 
L 1159 3500 
L 1159 2956 
Q 1366 3272 1645 3428 
Q 1925 3584 2291 3584 
Q 2894 3584 3203 3211 
Q 3513 2838 3513 2113 
z
" transform="scale(0.015625)"/>
       <path id="DejaVuSans-53" d="M 3425 4513 
L 3425 3897 
Q 3066 4069 2747 4153 
Q 2428 4238 2131 4238 
Q 1616 4238 1336 4038 
Q 1056 3838 1056 3469 
Q 1056 3159 1242 3001 
Q 1428 2844 1947 2747 
L 2328 2669 
Q 3034 2534 3370 2195 
Q 3706 1856 3706 1288 
Q 3706 609 3251 259 
Q 2797 -91 1919 -91 
Q 1588 -91 1214 -16 
Q 841 59 441 206 
L 441 856 
Q 825 641 1194 531 
Q 1563 422 1919 422 
Q 2459 422 2753 634 
Q 3047 847 3047 1241 
Q 3047 1584 2836 1778 
Q 2625 1972 2144 2069 
L 1759 2144 
Q 1053 2284 737 2584 
Q 422 2884 422 3419 
Q 422 4038 858 4394 
Q 1294 4750 2059 4750 
Q 2388 4750 2728 4690 
Q 3069 4631 3425 4513 
z
" transform="scale(0.015625)"/>
       <path id="DejaVuSans-71" d="M 947 1747 
Q 947 1113 1208 752 
Q 1469 391 1925 391 
Q 2381 391 2643 752 
Q 2906 1113 2906 1747 
Q 2906 2381 2643 2742 
Q 2381 3103 1925 3103 
Q 1469 3103 1208 2742 
Q 947 2381 947 1747 
z
M 2906 525 
Q 2725 213 2448 61 
Q 2172 -91 1784 -91 
Q 1150 -91 751 415 
Q 353 922 353 1747 
Q 353 2572 751 3078 
Q 1150 3584 1784 3584 
Q 2172 3584 2448 3432 
Q 2725 3281 2906 2969 
L 2906 3500 
L 3481 3500 
L 3481 -1331 
L 2906 -1331 
L 2906 525 
z
" transform="scale(0.015625)"/>
       <path id="DejaVuSans-75" d="M 544 1381 
L 544 3500 
L 1119 3500 
L 1119 1403 
Q 1119 906 1312 657 
Q 1506 409 1894 409 
Q 2359 409 2629 706 
Q 2900 1003 2900 1516 
L 2900 3500 
L 3475 3500 
L 3475 0 
L 2900 0 
L 2900 538 
Q 2691 219 2414 64 
Q 2138 -91 1772 -91 
Q 1169 -91 856 284 
Q 544 659 544 1381 
z
M 1991 3584 
L 1991 3584 
z
" transform="scale(0.015625)"/>
       <path id="DejaVuSans-64" d="M 2906 2969 
L 2906 4863 
L 3481 4863 
L 3481 0 
L 2906 0 
L 2906 525 
Q 2725 213 2448 61 
Q 2172 -91 1784 -91 
Q 1150 -91 751 415 
Q 353 922 353 1747 
Q 353 2572 751 3078 
Q 1150 3584 1784 3584 
Q 2172 3584 2448 3432 
Q 2725 3281 2906 2969 
z
M 947 1747 
Q 947 1113 1208 752 
Q 1469 391 1925 391 
Q 2381 391 2643 752 
Q 2906 1113 2906 1747 
Q 2906 2381 2643 2742 
Q 2381 3103 1925 3103 
Q 1469 3103 1208 2742 
Q 947 2381 947 1747 
z
" transform="scale(0.015625)"/>
       <path id="DejaVuSans-45" d="M 628 4666 
L 3578 4666 
L 3578 4134 
L 1259 4134 
L 1259 2753 
L 3481 2753 
L 3481 2222 
L 1259 2222 
L 1259 531 
L 3634 531 
L 3634 0 
L 628 0 
L 628 4666 
z
" transform="scale(0.015625)"/>
      </defs>
      <use xlink:href="#DejaVuSans-52"/>
      <use xlink:href="#DejaVuSans-6f" transform="translate(64.982422 0)"/>
      <use xlink:href="#DejaVuSans-6f" transform="translate(126.164062 0)"/>
      <use xlink:href="#DejaVuSans-74" transform="translate(187.345703 0)"/>
      <use xlink:href="#DejaVuSans-20" transform="translate(226.554688 0)"/>
      <use xlink:href="#DejaVuSans-4d" transform="translate(258.341797 0)"/>
      <use xlink:href="#DejaVuSans-65" transform="translate(344.621094 0)"/>
      <use xlink:href="#DejaVuSans-61" transform="translate(406.144531 0)"/>
      <use xlink:href="#DejaVuSans-6e" transform="translate(467.423828 0)"/>
      <use xlink:href="#DejaVuSans-20" transform="translate(530.802734 0)"/>
      <use xlink:href="#DejaVuSans-53" transform="translate(562.589844 0)"/>
      <use xlink:href="#DejaVuSans-71" transform="translate(626.066406 0)"/>
      <use xlink:href="#DejaVuSans-75" transform="translate(689.542969 0)"/>
      <use xlink:href="#DejaVuSans-61" transform="translate(752.921875 0)"/>
      <use xlink:href="#DejaVuSans-72" transform="translate(814.201172 0)"/>
      <use xlink:href="#DejaVuSans-65" transform="translate(853.064453 0)"/>
      <use xlink:href="#DejaVuSans-64" transform="translate(914.587891 0)"/>
      <use xlink:href="#DejaVuSans-20" transform="translate(978.064453 0)"/>
      <use xlink:href="#DejaVuSans-45" transform="translate(1009.851562 0)"/>
      <use xlink:href="#DejaVuSans-72" transform="translate(1073.035156 0)"/>
      <use xlink:href="#DejaVuSans-72" transform="translate(1112.398438 0)"/>
      <use xlink:href="#DejaVuSans-6f" transform="translate(1151.261719 0)"/>
      <use xlink:href="#DejaVuSans-72" transform="translate(1212.443359 0)"/>
      <use xlink:href="#DejaVuSans-20" transform="translate(1253.556641 0)"/>
      <use xlink:href="#DejaVuSans-28" transform="translate(1285.34375 0)"/>
      <use xlink:href="#DejaVuSans-52" transform="translate(1324.357422 0)"/>
      <use xlink:href="#DejaVuSans-4d" transform="translate(1393.839844 0)"/>
      <use xlink:href="#DejaVuSans-53" transform="translate(1480.119141 0)"/>
      <use xlink:href="#DejaVuSans-45" transform="translate(1543.595703 0)"/>
      <use xlink:href="#DejaVuSans-29" transform="translate(1606.779297 0)"/>
     </g>
    </g>
   </g>
   <g id="line2d_13">
    <path d="M 96.836481 290.287414 
L 99.892341 337.854867 
L 102.948201 344.393241 
L 106.004061 336.616529 
L 109.05992 334.118956 
L 112.11578 349.82457 
L 115.17164 337.476609 
L 118.2275 339.672264 
L 121.28336 348.62395 
L 124.339219 351.743356 
L 127.395079 339.718373 
L 130.450939 348.668917 
L 133.506799 343.289912 
L 136.562659 320.940168 
L 139.618518 327.544388 
L 145.730238 358.440328 
L 148.786098 353.406459 
L 151.841958 350.308114 
L 154.897817 360.514549 
L 157.953677 357.014239 
L 161.009537 344.724647 
L 164.065397 358.446472 
L 167.121257 348.453271 
L 170.177116 339.087785 
L 173.232976 352.897288 
L 176.288836 342.67174 
L 179.344696 358.2909 
L 182.400556 340.036294 
L 185.456415 343.747229 
L 188.512275 355.224572 
L 191.568135 349.956154 
L 194.623995 338.988608 
L 197.679855 340.021958 
L 200.735714 330.500547 
L 203.791574 334.483657 
L 206.847434 343.478969 
L 209.903294 345.348546 
L 212.959154 339.626192 
L 216.015013 360.685789 
L 219.070873 357.46224 
L 222.126733 346.649341 
L 225.182593 334.329581 
L 228.238453 346.93433 
L 231.294313 337.319252 
L 234.350172 338.484222 
L 237.406032 342.191876 
L 240.461892 336.82342 
L 243.517752 296.728133 
L 246.573612 340.436918 
L 249.629471 310.047966 
L 252.685331 315.529392 
L 255.741191 342.2533 
L 258.797051 335.000242 
L 261.852911 337.319796 
L 264.90877 356.968375 
L 267.96463 341.104842 
L 271.02049 334.364018 
L 274.07635 328.689149 
L 277.13221 331.469392 
L 280.188069 323.620073 
L 283.243929 334.615096 
L 286.299789 336.409801 
L 289.355649 337.032015 
L 292.411509 328.759055 
L 295.467368 343.560076 
L 298.523228 328.92281 
L 301.579088 334.273848 
L 304.634948 338.369584 
L 307.690808 344.451801 
L 310.746667 333.560378 
L 313.802527 332.636808 
L 316.858387 327.637131 
L 319.914247 336.752699 
L 322.970107 330.803008 
L 326.025966 352.349856 
L 329.081826 338.659757 
L 332.137686 340.114719 
L 335.193546 339.413682 
L 338.249406 350.186263 
L 341.305265 330.30598 
L 344.361125 354.322326 
L 347.416985 336.501185 
L 350.472845 342.135382 
L 353.528705 330.894881 
L 359.640424 336.711773 
L 362.696284 343.786831 
L 365.752144 354.986407 
L 368.808004 339.850881 
L 371.863863 332.451721 
L 374.919723 349.329736 
L 377.975583 341.093713 
L 381.031443 340.642704 
L 384.087303 318.18037 
L 387.143162 320.22523 
L 390.199022 326.520391 
L 393.254882 352.708032 
L 396.310742 345.97636 
L 399.366602 354.719297 
L 402.422461 337.651311 
L 405.478321 344.468367 
L 408.534181 325.502628 
L 411.590041 358.445448 
L 414.645901 353.347391 
L 417.70176 353.344129 
L 420.75762 355.924848 
L 423.81348 344.287883 
L 429.9252 363.608436 
L 432.981059 356.45711 
L 436.036919 345.711707 
L 439.092779 343.779092 
L 442.148639 344.269468 
L 445.204499 348.560061 
L 448.260359 367.26188 
L 451.316218 356.277822 
L 454.372078 348.922587 
L 457.427938 335.02741 
L 460.483798 365.532994 
L 463.539658 342.545703 
L 466.595517 340.148539 
L 469.651377 338.801654 
L 472.707237 344.182779 
L 475.763097 332.999823 
L 478.818957 340.721563 
L 481.874816 336.035966 
L 484.930676 326.360478 
L 487.986536 323.97999 
L 491.042396 329.566121 
L 494.098256 327.479593 
L 497.154115 333.8466 
L 500.209975 320.309744 
L 503.265835 344.642307 
L 506.321695 343.357843 
L 509.377555 358.119887 
L 512.433414 343.604843 
L 515.489274 356.196878 
L 518.545134 351.76554 
L 521.600994 355.145921 
L 524.656854 354.83843 
L 527.712713 363.423004 
L 530.768573 352.506252 
L 533.824433 346.980747 
L 536.880293 350.893027 
L 539.936153 340.178064 
L 542.992012 332.248165 
L 546.047872 326.264636 
L 549.103732 331.59523 
L 552.159592 323.06947 
L 555.215452 344.564245 
L 558.271311 353.579566 
L 561.327171 338.909712 
L 564.383031 344.466174 
L 567.438891 338.011626 
L 570.494751 339.823966 
L 573.55061 323.994217 
L 576.60647 348.354094 
L 579.66233 330.147699 
L 582.71819 351.880884 
L 585.77405 341.099042 
L 588.829909 352.158697 
L 591.885769 331.280752 
L 594.941629 343.008965 
L 597.997489 327.554502 
L 601.053349 344.176019 
L 604.109208 314.732911 
L 607.165068 336.720274 
L 610.220928 346.769089 
L 613.276788 354.235908 
L 616.332648 339.518532 
L 619.388507 336.962308 
L 622.444367 354.678137 
L 625.500227 368.030304 
L 628.556087 353.397469 
L 631.611947 356.932742 
L 634.667806 343.454682 
L 637.723666 346.201376 
L 640.779526 336.280139 
L 643.835386 331.64683 
L 646.891246 320.837674 
L 649.947105 349.872745 
L 653.002965 342.329006 
L 656.058825 351.352102 
L 659.114685 328.374907 
L 662.170545 331.978744 
L 665.226405 324.128012 
L 668.282264 348.685211 
L 671.338124 342.957781 
L 674.393984 345.984951 
L 677.449844 355.624815 
L 680.505704 368.5576 
L 683.561563 353.952042 
L 686.617423 344.643014 
L 689.673283 345.219137 
L 692.729143 364.730369 
L 695.785003 345.363898 
L 698.840862 353.967195 
L 701.896722 359.608714 
L 704.952582 372.255394 
L 708.008442 359.458689 
L 711.064302 365.408642 
L 714.120161 350.162773 
L 717.176021 354.271197 
L 720.231881 346.731445 
L 723.287741 359.19331 
L 726.343601 355.492588 
L 729.39946 364.721234 
L 732.45532 359.501036 
L 735.51118 369.180919 
L 738.56704 357.143892 
L 741.6229 362.797328 
L 744.678759 360.303281 
L 747.734619 352.817304 
L 750.790479 347.07552 
L 753.846339 363.99881 
L 756.902199 360.591877 
L 759.958058 366.711158 
L 763.013918 351.161125 
L 766.069778 372.073216 
L 769.125638 334.04374 
L 772.181498 356.585576 
L 775.237357 310.905671 
L 778.293217 330.219944 
L 781.349077 327.272521 
L 784.404937 342.463363 
L 787.460797 311.550051 
L 790.516656 342.009544 
L 793.572516 355.569327 
L 796.628376 354.159586 
L 799.684236 339.409368 
L 802.740096 354.896446 
L 805.795955 373.116815 
L 808.851815 362.977395 
L 811.907675 354.053576 
L 814.963535 356.505185 
L 818.019395 339.081279 
L 821.075254 343.529373 
L 824.131114 322.918203 
L 827.186974 353.506397 
L 830.242834 350.316596 
L 833.298694 348.783083 
L 836.354553 334.822513 
L 839.410413 360.528704 
L 842.466273 352.771975 
L 845.522133 362.514641 
L 848.577993 363.706398 
L 851.633852 359.239428 
L 854.689712 344.164201 
L 857.745572 352.753905 
L 857.745572 352.753905 
" clip-path="url(#pe7c528fdc2)" style="fill: none; stroke: #0000ff; stroke-width: 2; stroke-linecap: square"/>
   </g>
   <g id="line2d_14">
    <path d="M 96.836481 139.210108 
L 99.892341 243.751063 
L 102.948201 209.684652 
L 106.004061 249.679294 
L 109.05992 199.664926 
L 112.11578 277.207676 
L 115.17164 223.237058 
L 118.2275 294.531807 
L 121.28336 288.100223 
L 124.339219 343.909806 
L 127.395079 255.475343 
L 130.450939 275.447987 
L 133.506799 300.871518 
L 136.562659 289.534559 
L 139.618518 239.485065 
L 142.674378 316.780906 
L 145.730238 304.40612 
L 148.786098 357.871065 
L 151.841958 243.106755 
L 154.897817 289.855308 
L 157.953677 254.612309 
L 161.009537 338.788242 
L 164.065397 314.060275 
L 167.121257 254.223937 
L 170.177116 269.554719 
L 173.232976 309.920569 
L 176.288836 345.248263 
L 179.344696 329.654804 
L 182.400556 268.05363 
L 185.456415 356.854 
L 188.512275 225.392404 
L 191.568135 309.840549 
L 194.623995 275.740662 
L 197.679855 316.346552 
L 200.735714 257.982703 
L 203.791574 278.931533 
L 206.847434 244.087345 
L 209.903294 333.47106 
L 212.959154 257.802835 
L 216.015013 370.56089 
L 219.070873 224.861737 
L 222.126733 339.891915 
L 225.182593 245.303172 
L 228.238453 335.69557 
L 231.294313 298.01653 
L 234.350172 346.789498 
L 237.406032 330.77091 
L 240.461892 338.966696 
L 243.517752 158.645507 
L 246.573612 280.242386 
L 249.629471 326.222279 
L 252.685331 304.036398 
L 255.741191 311.650606 
L 258.797051 346.606766 
L 261.852911 298.658645 
L 264.90877 333.283164 
L 267.96463 254.172355 
L 271.02049 249.74543 
L 274.07635 264.71528 
L 277.13221 345.414211 
L 280.188069 262.261551 
L 283.243929 356.302925 
L 286.299789 210.984486 
L 289.355649 348.489901 
L 292.411509 216.569167 
L 295.467368 273.85972 
L 298.523228 263.247541 
L 301.579088 328.344004 
L 304.634948 358.749568 
L 307.690808 340.18941 
L 310.746667 141.254043 
L 313.802527 293.481257 
L 316.858387 350.206544 
L 319.914247 314.186548 
L 322.970107 273.349026 
L 326.025966 347.122807 
L 329.081826 205.245058 
L 332.137686 295.351161 
L 335.193546 321.62348 
L 338.249406 311.400071 
L 341.305265 232.66047 
L 344.361125 267.840287 
L 347.416985 308.370834 
L 350.472845 362.61766 
L 353.528705 226.297958 
L 356.584564 333.534387 
L 359.640424 335.976463 
L 362.696284 345.299664 
L 365.752144 298.011872 
L 368.808004 333.784342 
L 371.863863 245.388792 
L 374.919723 351.456391 
L 377.975583 261.580342 
L 381.031443 288.494594 
L 384.087303 281.937534 
L 387.143162 267.633414 
L 390.199022 375.076498 
L 393.254882 353.014789 
L 396.310742 281.385498 
L 399.366602 295.842751 
L 402.422461 221.681959 
L 405.478321 285.58951 
L 408.534181 361.702863 
L 411.590041 373.868909 
L 414.645901 263.690467 
L 417.70176 313.512226 
L 420.75762 315.555998 
L 423.81348 364.593719 
L 426.86934 296.072189 
L 429.9252 340.767418 
L 432.981059 140.508075 
L 436.036919 268.003933 
L 439.092779 324.810327 
L 442.148639 307.811675 
L 445.204499 232.164602 
L 448.260359 392.997813 
L 451.316218 308.596593 
L 454.372078 348.009185 
L 457.427938 367.193596 
L 460.483798 324.284572 
L 463.539658 356.808199 
L 466.595517 361.466411 
L 469.651377 283.961731 
L 472.707237 321.733097 
L 475.763097 243.730202 
L 478.818957 284.791072 
L 481.874816 298.485665 
L 484.930676 307.863602 
L 487.986536 342.196226 
L 491.042396 326.612354 
L 494.098256 268.560319 
L 497.154115 249.640779 
L 500.209975 269.431418 
L 503.265835 352.064957 
L 506.321695 302.654315 
L 509.377555 305.346672 
L 512.433414 148.559699 
L 515.489274 239.518106 
L 518.545134 299.2764 
L 521.600994 336.802396 
L 524.656854 191.5909 
L 527.712713 331.788238 
L 530.768573 260.410188 
L 533.824433 342.151078 
L 536.880293 363.47049 
L 539.936153 286.110607 
L 542.992012 131.853559 
L 546.047872 249.300927 
L 549.103732 328.596877 
L 552.159592 360.375407 
L 555.215452 105.533101 
L 558.271311 263.816994 
L 561.327171 325.075452 
L 564.383031 300.329995 
L 567.438891 156.403906 
L 570.494751 215.231326 
L 573.55061 367.298663 
L 579.66233 153.391942 
L 582.71819 292.599138 
L 585.77405 202.684828 
L 588.829909 226.910167 
L 591.885769 214.395787 
L 594.941629 204.605861 
L 597.997489 287.578745 
L 601.053349 289.027254 
L 604.109208 195.525111 
L 607.165068 234.615124 
L 610.220928 307.452937 
L 613.276788 312.513476 
L 616.332648 61.037187 
L 619.388507 155.19667 
L 622.444367 319.042897 
L 625.500227 313.780505 
L 628.556087 66.926161 
L 631.611947 254.306386 
L 634.667806 322.99447 
L 637.723666 208.838564 
L 640.779526 279.56705 
L 643.835386 297.275547 
L 646.891246 234.258941 
L 649.947105 315.013895 
L 653.002965 197.624833 
L 656.058825 191.983984 
L 659.114685 136.909712 
L 662.170545 224.794296 
L 665.226405 117.758578 
L 668.282264 147.88438 
L 671.338124 220.695116 
L 674.393984 260.089077 
L 677.449844 256.257215 
L 680.505704 284.549871 
L 683.561563 146.440692 
L 686.617423 278.82603 
L 689.673283 327.609346 
L 692.729143 293.044348 
L 695.785003 211.50464 
L 698.840862 356.482384 
L 701.896722 231.460502 
L 704.952582 279.604259 
L 708.008442 189.903655 
L 711.064302 206.446131 
L 714.120161 134.227903 
L 717.176021 254.163818 
L 720.231881 220.206462 
L 723.287741 264.770995 
L 726.343601 291.986712 
L 729.39946 334.979833 
L 732.45532 325.559267 
L 735.51118 242.062604 
L 738.56704 153.678563 
L 741.6229 271.447713 
L 744.678759 281.303086 
L 747.734619 253.505047 
L 750.790479 250.13449 
L 753.846339 294.31888 
L 756.902199 201.331726 
L 759.958058 295.343077 
L 763.013918 269.689837 
L 766.069778 267.223692 
L 769.125638 201.653509 
L 772.181498 217.389119 
L 775.237357 227.286359 
L 778.293217 278.161604 
L 781.349077 193.148736 
L 784.404937 260.328374 
L 787.460797 140.57655 
L 790.516656 219.718986 
L 793.572516 236.160218 
L 796.628376 342.785689 
L 799.684236 245.735658 
L 802.740096 284.228179 
L 805.795955 296.266194 
L 808.851815 377.733059 
L 811.907675 229.715748 
L 814.963535 319.86428 
L 818.019395 199.376565 
L 821.075254 200.21968 
L 824.131114 211.04948 
L 827.186974 258.049709 
L 830.242834 227.257451 
L 833.298694 298.254595 
L 836.354553 106.920024 
L 839.410413 221.569333 
L 842.466273 312.388707 
L 845.522133 314.191333 
L 848.577993 154.167743 
L 851.633852 248.509159 
L 854.689712 293.356506 
L 857.745572 228.505521 
L 857.745572 228.505521 
" clip-path="url(#pe7c528fdc2)" style="fill: none; stroke: #ffa500; stroke-width: 2; stroke-linecap: square"/>
   </g>
   <g id="line2d_15">
    <path d="M 96.836481 412.08939 
L 99.892341 406.222946 
L 102.948201 410.406477 
L 106.004061 404.536752 
L 109.05992 410.638643 
L 112.11578 407.324888 
L 115.17164 410.174067 
L 118.2275 407.589251 
L 121.28336 414.542033 
L 124.339219 408.511525 
L 127.395079 411.225468 
L 130.450939 411.239642 
L 133.506799 404.904833 
L 136.562659 400.306668 
L 139.618518 409.453301 
L 142.674378 409.535033 
L 145.730238 413.08911 
L 148.786098 409.495531 
L 151.841958 416.96747 
L 154.897817 416.024833 
L 157.953677 419.191182 
L 161.009537 413.364149 
L 164.065397 415.250836 
L 167.121257 409.38006 
L 170.177116 412.89806 
L 173.232976 411.29609 
L 176.288836 412.9139 
L 179.344696 407.122346 
L 182.400556 406.420901 
L 185.456415 403.92467 
L 188.512275 414.431047 
L 191.568135 401.65446 
L 194.623995 400.795585 
L 197.679855 404.395363 
L 200.735714 404.561129 
L 203.791574 411.497462 
L 206.847434 405.779693 
L 209.903294 402.674053 
L 212.959154 409.947674 
L 216.015013 411.261364 
L 219.070873 409.939798 
L 222.126733 405.073781 
L 225.182593 413.964668 
L 228.238453 404.914711 
L 231.294313 398.028682 
L 234.350172 402.632656 
L 237.406032 410.704987 
L 240.461892 390.778542 
L 243.517752 387.602053 
L 246.573612 396.096603 
L 249.629471 389.517567 
L 252.685331 405.60153 
L 255.741191 405.319005 
L 258.797051 403.765047 
L 261.852911 406.754528 
L 264.90877 406.379659 
L 267.96463 405.584293 
L 271.02049 399.996712 
L 274.07635 401.29661 
L 277.13221 397.595833 
L 280.188069 400.635048 
L 283.243929 401.986582 
L 286.299789 396.734485 
L 289.355649 401.769396 
L 292.411509 399.998425 
L 295.467368 401.545087 
L 298.523228 396.578406 
L 301.579088 398.140311 
L 304.634948 396.632236 
L 307.690808 399.373057 
L 313.802527 396.629508 
L 316.858387 399.811942 
L 319.914247 397.485609 
L 322.970107 401.543565 
L 326.025966 402.052745 
L 329.081826 397.173614 
L 332.137686 402.970397 
L 335.193546 403.573336 
L 338.249406 398.066345 
L 341.305265 399.010214 
L 344.361125 404.54083 
L 347.416985 398.29388 
L 350.472845 395.157745 
L 353.528705 393.097389 
L 356.584564 395.068564 
L 359.640424 403.547979 
L 362.696284 405.857665 
L 365.752144 402.392389 
L 368.808004 399.988203 
L 371.863863 397.33262 
L 374.919723 402.735214 
L 377.975583 397.234902 
L 381.031443 391.153075 
L 384.087303 389.169776 
L 387.143162 391.947662 
L 390.199022 406.497423 
L 393.254882 392.556047 
L 396.310742 405.366419 
L 399.366602 401.281847 
L 402.422461 395.749011 
L 405.478321 382.975722 
L 408.534181 410.665394 
L 414.645901 400.753582 
L 417.70176 400.752621 
L 420.75762 396.697837 
L 423.81348 397.332231 
L 426.86934 411.856001 
L 429.9252 408.735635 
L 432.981059 402.075482 
L 436.036919 406.863719 
L 439.092779 399.202424 
L 442.148639 399.097031 
L 445.204499 405.379631 
L 448.260359 410.264417 
L 451.316218 400.192991 
L 454.372078 396.67829 
L 457.427938 409.962146 
L 460.483798 404.507753 
L 463.539658 398.784827 
L 466.595517 401.263306 
L 469.651377 399.460019 
L 472.707237 400.492788 
L 475.763097 398.613415 
L 478.818957 396.055433 
L 481.874816 401.529056 
L 484.930676 397.372857 
L 487.986536 394.016926 
L 491.042396 395.212037 
L 494.098256 396.050304 
L 497.154115 397.428581 
L 500.209975 398.173425 
L 503.265835 396.696641 
L 506.321695 402.973623 
L 509.377555 404.905486 
L 512.433414 400.707582 
L 515.489274 403.951349 
L 518.545134 399.139913 
L 521.600994 399.933177 
L 524.656854 406.136483 
L 527.712713 400.81284 
L 530.768573 405.886746 
L 533.824433 401.868274 
L 536.880293 393.028435 
L 539.936153 395.585719 
L 542.992012 392.97726 
L 546.047872 391.154072 
L 549.103732 397.112444 
L 552.159592 398.571148 
L 555.215452 404.605471 
L 558.271311 399.926616 
L 561.327171 402.26936 
L 564.383031 398.490676 
L 567.438891 404.988586 
L 570.494751 392.447753 
L 573.55061 393.921374 
L 579.66233 405.369427 
L 582.71819 406.022643 
L 585.77405 403.606259 
L 588.829909 404.659119 
L 591.885769 397.633206 
L 594.941629 395.401637 
L 597.997489 394.793053 
L 601.053349 395.724688 
L 604.109208 392.573039 
L 607.165068 407.123062 
L 610.220928 408.619339 
L 613.276788 405.63245 
L 616.332648 396.506153 
L 622.444367 407.894667 
L 625.500227 411.490602 
L 628.556087 413.068113 
L 631.611947 404.015809 
L 634.667806 404.133328 
L 637.723666 402.223188 
L 640.779526 402.931194 
L 643.835386 376.965061 
L 646.891246 411.954127 
L 649.947105 405.303119 
L 653.002965 415.742318 
L 656.058825 403.133799 
L 659.114685 391.5908 
L 662.170545 405.865721 
L 665.226405 401.479024 
L 668.282264 399.357117 
L 671.338124 417.01956 
L 674.393984 410.913591 
L 677.449844 412.191875 
L 680.505704 411.138009 
L 683.561563 411.618181 
L 686.617423 411.900905 
L 689.673283 412.571012 
L 692.729143 411.439364 
L 695.785003 418.247059 
L 698.840862 414.285988 
L 701.896722 416.786896 
L 704.952582 417.280525 
L 708.008442 417.325972 
L 711.064302 413.565684 
L 714.120161 411.884547 
L 717.176021 413.911074 
L 720.231881 416.253175 
L 723.287741 413.911726 
L 726.343601 415.944651 
L 729.39946 415.753845 
L 732.45532 419.527781 
L 735.51118 415.09444 
L 738.56704 419.405758 
L 741.6229 416.305319 
L 744.678759 419.064818 
L 747.734619 413.753853 
L 750.790479 411.916619 
L 753.846339 416.370658 
L 756.902199 418.790549 
L 759.958058 418.830459 
L 763.013918 417.645426 
L 766.069778 411.666936 
L 769.125638 415.664256 
L 772.181498 413.634032 
L 775.237357 401.683169 
L 778.293217 405.958754 
L 781.349077 386.282227 
L 784.404937 396.926469 
L 787.460797 392.443838 
L 790.516656 407.319731 
L 793.572516 419.367189 
L 796.628376 409.935865 
L 799.684236 408.556048 
L 802.740096 413.583392 
L 805.795955 424.61557 
L 808.851815 417.281459 
L 811.907675 424.647958 
L 814.963535 412.396392 
L 818.019395 419.795489 
L 821.075254 405.610691 
L 824.131114 412.957363 
L 827.186974 417.521672 
L 830.242834 420.511868 
L 833.298694 411.887039 
L 836.354553 419.784279 
L 839.410413 414.901369 
L 842.466273 418.22047 
L 845.522133 423.492676 
L 848.577993 419.58625 
L 851.633852 413.72634 
L 854.689712 414.529499 
L 857.745572 417.22008 
L 857.745572 417.22008 
" clip-path="url(#pe7c528fdc2)" style="fill: none; stroke-dasharray: 7.4,3.2; stroke-dashoffset: 0; stroke: #0000ff; stroke-width: 2"/>
   </g>
   <g id="line2d_16">
    <path d="M 96.836481 350.174645 
L 99.892341 322.462027 
L 102.948201 416.12382 
L 106.004061 317.535211 
L 109.05992 412.840977 
L 112.11578 343.938842 
L 115.17164 395.082873 
L 118.2275 336.625882 
L 121.28336 420.458356 
L 124.339219 365.934143 
L 127.395079 424.87369 
L 130.450939 412.206284 
L 133.506799 360.165825 
L 136.562659 343.543256 
L 139.618518 425.604089 
L 142.674378 377.527908 
L 145.730238 406.249969 
L 148.786098 325.741726 
L 151.841958 424.979174 
L 154.897817 371.573442 
L 157.953677 428.540455 
L 161.009537 400.871101 
L 164.065397 397.301546 
L 167.121257 360.172304 
L 170.177116 412.922781 
L 173.232976 380.637011 
L 176.288836 430.378088 
L 179.344696 344.750656 
L 182.400556 424.611809 
L 185.456415 368.904693 
L 188.512275 418.179717 
L 191.568135 361.203977 
L 194.623995 427.306459 
L 197.679855 330.638365 
L 200.735714 436.008076 
L 203.791574 375.917457 
L 206.847434 432.938952 
L 209.903294 337.465136 
L 212.959154 426.747363 
L 216.015013 344.053443 
L 219.070873 431.62547 
L 222.126733 325.147062 
L 225.182593 424.292492 
L 228.238453 362.041401 
L 231.294313 441.761578 
L 234.350172 363.606406 
L 237.406032 431.23027 
L 240.461892 366.674474 
L 243.517752 387.407985 
L 246.573612 398.015134 
L 249.629471 442.815449 
L 252.685331 370.836455 
L 255.741191 464.237187 
L 258.797051 387.511213 
L 261.852911 448.447535 
L 264.90877 353.414398 
L 267.96463 434.195482 
L 271.02049 420.05872 
L 274.07635 441.056458 
L 277.13221 358.766541 
L 280.188069 439.181163 
L 283.243929 359.274498 
L 286.299789 437.013242 
L 289.355649 359.483573 
L 292.411509 426.600691 
L 295.467368 362.264777 
L 298.523228 456.213897 
L 301.579088 407.675261 
L 304.634948 448.777881 
L 307.690808 328.748289 
L 310.746667 394.410817 
L 313.802527 409.892131 
L 316.858387 435.701174 
L 319.914247 393.059908 
L 322.970107 433.881901 
L 326.025966 384.766784 
L 329.081826 451.700854 
L 332.137686 389.430624 
L 335.193546 434.7476 
L 338.249406 333.82447 
L 341.305265 446.898901 
L 344.361125 395.856281 
L 347.416985 450.523215 
L 350.472845 409.780747 
L 353.528705 443.013985 
L 356.584564 404.863555 
L 359.640424 436.122655 
L 362.696284 382.758392 
L 365.752144 434.984188 
L 368.808004 391.499915 
L 371.863863 431.308704 
L 374.919723 402.848229 
L 377.975583 430.65716 
L 381.031443 353.082955 
L 384.087303 458.056156 
L 387.143162 421.375174 
L 390.199022 454.795044 
L 393.254882 399.002684 
L 396.310742 409.838057 
L 399.366602 291.278044 
L 402.422461 429.703848 
L 405.478321 442.006725 
L 408.534181 434.582069 
L 411.590041 399.09907 
L 414.645901 426.294269 
L 417.70176 425.606227 
L 420.75762 409.18301 
L 423.81348 412.7043 
L 426.86934 437.068536 
L 429.9252 381.676704 
L 436.036919 421.888722 
L 439.092779 382.532624 
L 442.148639 380.543751 
L 445.204499 426.563209 
L 448.260359 397.252066 
L 451.316218 438.628891 
L 454.372078 416.838414 
L 457.427938 434.972334 
L 460.483798 443.31796 
L 463.539658 414.989644 
L 466.595517 409.781137 
L 469.651377 416.361505 
L 472.707237 411.35717 
L 475.763097 430.37865 
L 478.818957 419.052049 
L 481.874816 421.367788 
L 484.930676 348.114923 
L 487.986536 433.140061 
L 491.042396 398.775167 
L 494.098256 427.245569 
L 497.154115 429.115083 
L 500.209975 424.700864 
L 503.265835 348.793686 
L 506.321695 439.371637 
L 509.377555 397.248197 
L 512.433414 402.874446 
L 515.489274 407.20378 
L 518.545134 387.367585 
L 521.600994 362.629414 
L 524.656854 431.721077 
L 527.712713 348.290749 
L 530.768573 421.041701 
L 533.824433 373.977384 
L 536.880293 446.803639 
L 539.936153 375.980204 
L 542.992012 380.365071 
L 546.047872 395.854722 
L 549.103732 436.725684 
L 552.159592 323.631854 
L 555.215452 397.531881 
L 558.271311 399.940889 
L 561.327171 419.330532 
L 564.383031 282.992107 
L 567.438891 439.102262 
L 570.494751 411.431888 
L 573.55061 422.722884 
L 576.60647 351.078912 
L 579.66233 437.368935 
L 582.71819 363.596618 
L 585.77405 425.852902 
L 588.829909 352.427229 
L 591.885769 393.908388 
L 594.941629 308.091083 
L 597.997489 413.484595 
L 601.053349 356.676017 
L 604.109208 424.220103 
L 607.165068 327.460472 
L 610.220928 428.881051 
L 613.276788 261.553246 
L 616.332648 421.15749 
L 619.388507 363.055756 
L 622.444367 425.944077 
L 625.500227 314.609972 
L 628.556087 380.812003 
L 631.611947 367.387908 
L 634.667806 432.434393 
L 637.723666 347.173302 
L 640.779526 413.202279 
L 643.835386 362.802521 
L 646.891246 408.753741 
L 649.947105 339.008092 
L 653.002965 425.564314 
L 656.058825 336.631953 
L 659.114685 352.180065 
L 662.170545 335.499499 
L 665.226405 415.021181 
L 668.282264 330.467035 
L 671.338124 402.392779 
L 674.393984 307.486576 
L 677.449844 413.471355 
L 680.505704 317.58344 
L 683.561563 399.434536 
L 686.617423 385.649946 
L 689.673283 416.839892 
L 692.729143 296.461793 
L 695.785003 384.251478 
L 698.840862 309.606652 
L 701.896722 407.892837 
L 704.952582 330.65968 
L 708.008442 401.555038 
L 711.064302 301.642534 
L 714.120161 378.321643 
L 717.176021 326.362345 
L 720.231881 387.594141 
L 723.287741 348.385975 
L 726.343601 406.873271 
L 729.39946 369.631448 
L 732.45532 358.938715 
L 735.51118 320.775616 
L 738.56704 401.003618 
L 741.6229 377.991578 
L 744.678759 403.177678 
L 747.734619 335.681958 
L 750.790479 384.817334 
L 753.846339 346.029465 
L 756.902199 415.872008 
L 759.958058 397.678834 
L 763.013918 405.05436 
L 766.069778 326.554827 
L 769.125638 401.256618 
L 772.181498 338.493393 
L 775.237357 383.323042 
L 778.293217 299.153425 
L 781.349077 283.282081 
L 784.404937 327.645505 
L 787.460797 399.969634 
L 790.516656 295.45409 
L 793.572516 385.505149 
L 796.628376 319.415083 
L 799.684236 423.463459 
L 802.740096 373.327775 
L 805.795955 428.012598 
L 808.851815 328.150997 
L 811.907675 414.309939 
L 814.963535 321.995739 
L 818.019395 409.059927 
L 821.075254 301.342102 
L 824.131114 360.521889 
L 827.186974 314.53617 
L 830.242834 407.51582 
L 833.298694 303.544337 
L 836.354553 376.253095 
L 839.410413 365.583208 
L 842.466273 422.90218 
L 845.522133 295.939554 
L 848.577993 364.215869 
L 851.633852 370.652319 
L 854.689712 419.501863 
L 857.745572 332.972528 
L 857.745572 332.972528 
" clip-path="url(#pe7c528fdc2)" style="fill: none; stroke-dasharray: 7.4,3.2; stroke-dashoffset: 0; stroke: #ffa500; stroke-width: 2"/>
   </g>
   <g id="patch_3">
    <path d="M 58.791027 484.397187 
L 58.791027 40.877187 
" style="fill: none; stroke: #000000; stroke-width: 0.8; stroke-linejoin: miter; stroke-linecap: square"/>
   </g>
   <g id="patch_4">
    <path d="M 895.791027 484.397187 
L 895.791027 40.877187 
" style="fill: none; stroke: #000000; stroke-width: 0.8; stroke-linejoin: miter; stroke-linecap: square"/>
   </g>
   <g id="patch_5">
    <path d="M 58.791027 484.397187 
L 895.791027 484.397187 
" style="fill: none; stroke: #000000; stroke-width: 0.8; stroke-linejoin: miter; stroke-linecap: square"/>
   </g>
   <g id="patch_6">
    <path d="M 58.791027 40.877187 
L 895.791027 40.877187 
" style="fill: none; stroke: #000000; stroke-width: 0.8; stroke-linejoin: miter; stroke-linecap: square"/>
   </g>
   <g id="text_15">
    <!-- Temperature in K  two steps forward prediction: RMSES -->
    <g transform="translate(228.92337 20.877187) scale(0.18 -0.18)">
     <defs>
      <path id="DejaVuSans-54" d="M -19 4666 
L 3928 4666 
L 3928 4134 
L 2272 4134 
L 2272 0 
L 1638 0 
L 1638 4134 
L -19 4134 
L -19 4666 
z
" transform="scale(0.015625)"/>
      <path id="DejaVuSans-6d" d="M 3328 2828 
Q 3544 3216 3844 3400 
Q 4144 3584 4550 3584 
Q 5097 3584 5394 3201 
Q 5691 2819 5691 2113 
L 5691 0 
L 5113 0 
L 5113 2094 
Q 5113 2597 4934 2840 
Q 4756 3084 4391 3084 
Q 3944 3084 3684 2787 
Q 3425 2491 3425 1978 
L 3425 0 
L 2847 0 
L 2847 2094 
Q 2847 2600 2669 2842 
Q 2491 3084 2119 3084 
Q 1678 3084 1418 2786 
Q 1159 2488 1159 1978 
L 1159 0 
L 581 0 
L 581 3500 
L 1159 3500 
L 1159 2956 
Q 1356 3278 1631 3431 
Q 1906 3584 2284 3584 
Q 2666 3584 2933 3390 
Q 3200 3197 3328 2828 
z
" transform="scale(0.015625)"/>
      <path id="DejaVuSans-70" d="M 1159 525 
L 1159 -1331 
L 581 -1331 
L 581 3500 
L 1159 3500 
L 1159 2969 
Q 1341 3281 1617 3432 
Q 1894 3584 2278 3584 
Q 2916 3584 3314 3078 
Q 3713 2572 3713 1747 
Q 3713 922 3314 415 
Q 2916 -91 2278 -91 
Q 1894 -91 1617 61 
Q 1341 213 1159 525 
z
M 3116 1747 
Q 3116 2381 2855 2742 
Q 2594 3103 2138 3103 
Q 1681 3103 1420 2742 
Q 1159 2381 1159 1747 
Q 1159 1113 1420 752 
Q 1681 391 2138 391 
Q 2594 391 2855 752 
Q 3116 1113 3116 1747 
z
" transform="scale(0.015625)"/>
      <path id="DejaVuSans-69" d="M 603 3500 
L 1178 3500 
L 1178 0 
L 603 0 
L 603 3500 
z
M 603 4863 
L 1178 4863 
L 1178 4134 
L 603 4134 
L 603 4863 
z
" transform="scale(0.015625)"/>
      <path id="DejaVuSans-4b" d="M 628 4666 
L 1259 4666 
L 1259 2694 
L 3353 4666 
L 4166 4666 
L 1850 2491 
L 4331 0 
L 3500 0 
L 1259 2247 
L 1259 0 
L 628 0 
L 628 4666 
z
" transform="scale(0.015625)"/>
      <path id="DejaVuSans-77" d="M 269 3500 
L 844 3500 
L 1563 769 
L 2278 3500 
L 2956 3500 
L 3675 769 
L 4391 3500 
L 4966 3500 
L 4050 0 
L 3372 0 
L 2619 2869 
L 1863 0 
L 1184 0 
L 269 3500 
z
" transform="scale(0.015625)"/>
      <path id="DejaVuSans-66" d="M 2375 4863 
L 2375 4384 
L 1825 4384 
Q 1516 4384 1395 4259 
Q 1275 4134 1275 3809 
L 1275 3500 
L 2222 3500 
L 2222 3053 
L 1275 3053 
L 1275 0 
L 697 0 
L 697 3053 
L 147 3053 
L 147 3500 
L 697 3500 
L 697 3744 
Q 697 4328 969 4595 
Q 1241 4863 1831 4863 
L 2375 4863 
z
" transform="scale(0.015625)"/>
     </defs>
     <use xlink:href="#DejaVuSans-54"/>
     <use xlink:href="#DejaVuSans-65" transform="translate(44.083984 0)"/>
     <use xlink:href="#DejaVuSans-6d" transform="translate(105.607422 0)"/>
     <use xlink:href="#DejaVuSans-70" transform="translate(203.019531 0)"/>
     <use xlink:href="#DejaVuSans-65" transform="translate(266.496094 0)"/>
     <use xlink:href="#DejaVuSans-72" transform="translate(328.019531 0)"/>
     <use xlink:href="#DejaVuSans-61" transform="translate(369.132812 0)"/>
     <use xlink:href="#DejaVuSans-74" transform="translate(430.412109 0)"/>
     <use xlink:href="#DejaVuSans-75" transform="translate(469.621094 0)"/>
     <use xlink:href="#DejaVuSans-72" transform="translate(533 0)"/>
     <use xlink:href="#DejaVuSans-65" transform="translate(571.863281 0)"/>
     <use xlink:href="#DejaVuSans-20" transform="translate(633.386719 0)"/>
     <use xlink:href="#DejaVuSans-69" transform="translate(665.173828 0)"/>
     <use xlink:href="#DejaVuSans-6e" transform="translate(692.957031 0)"/>
     <use xlink:href="#DejaVuSans-20" transform="translate(756.335938 0)"/>
     <use xlink:href="#DejaVuSans-4b" transform="translate(788.123047 0)"/>
     <use xlink:href="#DejaVuSans-20" transform="translate(853.699219 0)"/>
     <use xlink:href="#DejaVuSans-20" transform="translate(885.486328 0)"/>
     <use xlink:href="#DejaVuSans-74" transform="translate(917.273438 0)"/>
     <use xlink:href="#DejaVuSans-77" transform="translate(956.482422 0)"/>
     <use xlink:href="#DejaVuSans-6f" transform="translate(1038.269531 0)"/>
     <use xlink:href="#DejaVuSans-20" transform="translate(1099.451172 0)"/>
     <use xlink:href="#DejaVuSans-73" transform="translate(1131.238281 0)"/>
     <use xlink:href="#DejaVuSans-74" transform="translate(1183.337891 0)"/>
     <use xlink:href="#DejaVuSans-65" transform="translate(1222.546875 0)"/>
     <use xlink:href="#DejaVuSans-70" transform="translate(1284.070312 0)"/>
     <use xlink:href="#DejaVuSans-73" transform="translate(1347.546875 0)"/>
     <use xlink:href="#DejaVuSans-20" transform="translate(1399.646484 0)"/>
     <use xlink:href="#DejaVuSans-66" transform="translate(1431.433594 0)"/>
     <use xlink:href="#DejaVuSans-6f" transform="translate(1466.638672 0)"/>
     <use xlink:href="#DejaVuSans-72" transform="translate(1527.820312 0)"/>
     <use xlink:href="#DejaVuSans-77" transform="translate(1568.933594 0)"/>
     <use xlink:href="#DejaVuSans-61" transform="translate(1650.720703 0)"/>
     <use xlink:href="#DejaVuSans-72" transform="translate(1712 0)"/>
     <use xlink:href="#DejaVuSans-64" transform="translate(1751.363281 0)"/>
     <use xlink:href="#DejaVuSans-20" transform="translate(1814.839844 0)"/>
     <use xlink:href="#DejaVuSans-70" transform="translate(1846.626953 0)"/>
     <use xlink:href="#DejaVuSans-72" transform="translate(1910.103516 0)"/>
     <use xlink:href="#DejaVuSans-65" transform="translate(1948.966797 0)"/>
     <use xlink:href="#DejaVuSans-64" transform="translate(2010.490234 0)"/>
     <use xlink:href="#DejaVuSans-69" transform="translate(2073.966797 0)"/>
     <use xlink:href="#DejaVuSans-63" transform="translate(2101.75 0)"/>
     <use xlink:href="#DejaVuSans-74" transform="translate(2156.730469 0)"/>
     <use xlink:href="#DejaVuSans-69" transform="translate(2195.939453 0)"/>
     <use xlink:href="#DejaVuSans-6f" transform="translate(2223.722656 0)"/>
     <use xlink:href="#DejaVuSans-6e" transform="translate(2284.904297 0)"/>
     <use xlink:href="#DejaVuSans-3a" transform="translate(2348.283203 0)"/>
     <use xlink:href="#DejaVuSans-20" transform="translate(2381.974609 0)"/>
     <use xlink:href="#DejaVuSans-52" transform="translate(2413.761719 0)"/>
     <use xlink:href="#DejaVuSans-4d" transform="translate(2483.244141 0)"/>
     <use xlink:href="#DejaVuSans-53" transform="translate(2569.523438 0)"/>
     <use xlink:href="#DejaVuSans-45" transform="translate(2633 0)"/>
     <use xlink:href="#DejaVuSans-53" transform="translate(2696.183594 0)"/>
    </g>
   </g>
   <g id="legend_1">
    <g id="text_16">
     <!-- Forecast Horizon -->
     <g transform="translate(1020.26087 65.634687) scale(0.16 -0.16)">
      <defs>
       <path id="DejaVuSans-48" d="M 628 4666 
L 1259 4666 
L 1259 2753 
L 3553 2753 
L 3553 4666 
L 4184 4666 
L 4184 0 
L 3553 0 
L 3553 2222 
L 1259 2222 
L 1259 0 
L 628 0 
L 628 4666 
z
" transform="scale(0.015625)"/>
       <path id="DejaVuSans-7a" d="M 353 3500 
L 3084 3500 
L 3084 2975 
L 922 459 
L 3084 459 
L 3084 0 
L 275 0 
L 275 525 
L 2438 3041 
L 353 3041 
L 353 3500 
z
" transform="scale(0.015625)"/>
      </defs>
      <use xlink:href="#DejaVuSans-46"/>
      <use xlink:href="#DejaVuSans-6f" transform="translate(53.894531 0)"/>
      <use xlink:href="#DejaVuSans-72" transform="translate(115.076172 0)"/>
      <use xlink:href="#DejaVuSans-65" transform="translate(153.939453 0)"/>
      <use xlink:href="#DejaVuSans-63" transform="translate(215.462891 0)"/>
      <use xlink:href="#DejaVuSans-61" transform="translate(270.443359 0)"/>
      <use xlink:href="#DejaVuSans-73" transform="translate(331.722656 0)"/>
      <use xlink:href="#DejaVuSans-74" transform="translate(383.822266 0)"/>
      <use xlink:href="#DejaVuSans-20" transform="translate(423.03125 0)"/>
      <use xlink:href="#DejaVuSans-48" transform="translate(454.818359 0)"/>
      <use xlink:href="#DejaVuSans-6f" transform="translate(530.013672 0)"/>
      <use xlink:href="#DejaVuSans-72" transform="translate(591.195312 0)"/>
      <use xlink:href="#DejaVuSans-69" transform="translate(632.308594 0)"/>
      <use xlink:href="#DejaVuSans-7a" transform="translate(660.091797 0)"/>
      <use xlink:href="#DejaVuSans-6f" transform="translate(712.582031 0)"/>
      <use xlink:href="#DejaVuSans-6e" transform="translate(773.763672 0)"/>
     </g>
    </g>
    <g id="line2d_17">
     <path d="M 950.241027 81.7 
L 964.241027 81.7 
L 978.241027 81.7 
" style="fill: none; stroke: #0000ff; stroke-width: 2; stroke-linecap: square"/>
    </g>
    <g id="text_17">
     <!-- Global RMSE (6h Forecast) -->
     <g transform="translate(989.441027 86.6) scale(0.14 -0.14)">
      <defs>
       <path id="DejaVuSans-47" d="M 3809 666 
L 3809 1919 
L 2778 1919 
L 2778 2438 
L 4434 2438 
L 4434 434 
Q 4069 175 3628 42 
Q 3188 -91 2688 -91 
Q 1594 -91 976 548 
Q 359 1188 359 2328 
Q 359 3472 976 4111 
Q 1594 4750 2688 4750 
Q 3144 4750 3555 4637 
Q 3966 4525 4313 4306 
L 4313 3634 
Q 3963 3931 3569 4081 
Q 3175 4231 2741 4231 
Q 1884 4231 1454 3753 
Q 1025 3275 1025 2328 
Q 1025 1384 1454 906 
Q 1884 428 2741 428 
Q 3075 428 3337 486 
Q 3600 544 3809 666 
z
" transform="scale(0.015625)"/>
       <path id="DejaVuSans-6c" d="M 603 4863 
L 1178 4863 
L 1178 0 
L 603 0 
L 603 4863 
z
" transform="scale(0.015625)"/>
       <path id="DejaVuSans-62" d="M 3116 1747 
Q 3116 2381 2855 2742 
Q 2594 3103 2138 3103 
Q 1681 3103 1420 2742 
Q 1159 2381 1159 1747 
Q 1159 1113 1420 752 
Q 1681 391 2138 391 
Q 2594 391 2855 752 
Q 3116 1113 3116 1747 
z
M 1159 2969 
Q 1341 3281 1617 3432 
Q 1894 3584 2278 3584 
Q 2916 3584 3314 3078 
Q 3713 2572 3713 1747 
Q 3713 922 3314 415 
Q 2916 -91 2278 -91 
Q 1894 -91 1617 61 
Q 1341 213 1159 525 
L 1159 0 
L 581 0 
L 581 4863 
L 1159 4863 
L 1159 2969 
z
" transform="scale(0.015625)"/>
       <path id="DejaVuSans-68" d="M 3513 2113 
L 3513 0 
L 2938 0 
L 2938 2094 
Q 2938 2591 2744 2837 
Q 2550 3084 2163 3084 
Q 1697 3084 1428 2787 
Q 1159 2491 1159 1978 
L 1159 0 
L 581 0 
L 581 4863 
L 1159 4863 
L 1159 2956 
Q 1366 3272 1645 3428 
Q 1925 3584 2291 3584 
Q 2894 3584 3203 3211 
Q 3513 2838 3513 2113 
z
" transform="scale(0.015625)"/>
      </defs>
      <use xlink:href="#DejaVuSans-47"/>
      <use xlink:href="#DejaVuSans-6c" transform="translate(77.490234 0)"/>
      <use xlink:href="#DejaVuSans-6f" transform="translate(105.273438 0)"/>
      <use xlink:href="#DejaVuSans-62" transform="translate(166.455078 0)"/>
      <use xlink:href="#DejaVuSans-61" transform="translate(229.931641 0)"/>
      <use xlink:href="#DejaVuSans-6c" transform="translate(291.210938 0)"/>
      <use xlink:href="#DejaVuSans-20" transform="translate(318.994141 0)"/>
      <use xlink:href="#DejaVuSans-52" transform="translate(350.78125 0)"/>
      <use xlink:href="#DejaVuSans-4d" transform="translate(420.263672 0)"/>
      <use xlink:href="#DejaVuSans-53" transform="translate(506.542969 0)"/>
      <use xlink:href="#DejaVuSans-45" transform="translate(570.019531 0)"/>
      <use xlink:href="#DejaVuSans-20" transform="translate(633.203125 0)"/>
      <use xlink:href="#DejaVuSans-28" transform="translate(664.990234 0)"/>
      <use xlink:href="#DejaVuSans-36" transform="translate(704.003906 0)"/>
      <use xlink:href="#DejaVuSans-68" transform="translate(767.626953 0)"/>
      <use xlink:href="#DejaVuSans-20" transform="translate(831.005859 0)"/>
      <use xlink:href="#DejaVuSans-46" transform="translate(862.792969 0)"/>
      <use xlink:href="#DejaVuSans-6f" transform="translate(916.6875 0)"/>
      <use xlink:href="#DejaVuSans-72" transform="translate(977.869141 0)"/>
      <use xlink:href="#DejaVuSans-65" transform="translate(1016.732422 0)"/>
      <use xlink:href="#DejaVuSans-63" transform="translate(1078.255859 0)"/>
      <use xlink:href="#DejaVuSans-61" transform="translate(1133.236328 0)"/>
      <use xlink:href="#DejaVuSans-73" transform="translate(1194.515625 0)"/>
      <use xlink:href="#DejaVuSans-74" transform="translate(1246.615234 0)"/>
      <use xlink:href="#DejaVuSans-29" transform="translate(1285.824219 0)"/>
     </g>
    </g>
    <g id="line2d_18">
     <path d="M 950.241027 102.249375 
L 964.241027 102.249375 
L 978.241027 102.249375 
" style="fill: none; stroke: #ffa500; stroke-width: 2; stroke-linecap: square"/>
    </g>
    <g id="text_18">
     <!-- South Africa RMSE (6h Forecast) -->
     <g transform="translate(989.441027 107.149375) scale(0.14 -0.14)">
      <defs>
       <path id="DejaVuSans-41" d="M 2188 4044 
L 1331 1722 
L 3047 1722 
L 2188 4044 
z
M 1831 4666 
L 2547 4666 
L 4325 0 
L 3669 0 
L 3244 1197 
L 1141 1197 
L 716 0 
L 50 0 
L 1831 4666 
z
" transform="scale(0.015625)"/>
      </defs>
      <use xlink:href="#DejaVuSans-53"/>
      <use xlink:href="#DejaVuSans-6f" transform="translate(63.476562 0)"/>
      <use xlink:href="#DejaVuSans-75" transform="translate(124.658203 0)"/>
      <use xlink:href="#DejaVuSans-74" transform="translate(188.037109 0)"/>
      <use xlink:href="#DejaVuSans-68" transform="translate(227.246094 0)"/>
      <use xlink:href="#DejaVuSans-20" transform="translate(290.625 0)"/>
      <use xlink:href="#DejaVuSans-41" transform="translate(322.412109 0)"/>
      <use xlink:href="#DejaVuSans-66" transform="translate(387.195312 0)"/>
      <use xlink:href="#DejaVuSans-72" transform="translate(422.400391 0)"/>
      <use xlink:href="#DejaVuSans-69" transform="translate(463.513672 0)"/>
      <use xlink:href="#DejaVuSans-63" transform="translate(491.296875 0)"/>
      <use xlink:href="#DejaVuSans-61" transform="translate(546.277344 0)"/>
      <use xlink:href="#DejaVuSans-20" transform="translate(607.556641 0)"/>
      <use xlink:href="#DejaVuSans-52" transform="translate(639.34375 0)"/>
      <use xlink:href="#DejaVuSans-4d" transform="translate(708.826172 0)"/>
      <use xlink:href="#DejaVuSans-53" transform="translate(795.105469 0)"/>
      <use xlink:href="#DejaVuSans-45" transform="translate(858.582031 0)"/>
      <use xlink:href="#DejaVuSans-20" transform="translate(921.765625 0)"/>
      <use xlink:href="#DejaVuSans-28" transform="translate(953.552734 0)"/>
      <use xlink:href="#DejaVuSans-36" transform="translate(992.566406 0)"/>
      <use xlink:href="#DejaVuSans-68" transform="translate(1056.189453 0)"/>
      <use xlink:href="#DejaVuSans-20" transform="translate(1119.568359 0)"/>
      <use xlink:href="#DejaVuSans-46" transform="translate(1151.355469 0)"/>
      <use xlink:href="#DejaVuSans-6f" transform="translate(1205.25 0)"/>
      <use xlink:href="#DejaVuSans-72" transform="translate(1266.431641 0)"/>
      <use xlink:href="#DejaVuSans-65" transform="translate(1305.294922 0)"/>
      <use xlink:href="#DejaVuSans-63" transform="translate(1366.818359 0)"/>
      <use xlink:href="#DejaVuSans-61" transform="translate(1421.798828 0)"/>
      <use xlink:href="#DejaVuSans-73" transform="translate(1483.078125 0)"/>
      <use xlink:href="#DejaVuSans-74" transform="translate(1535.177734 0)"/>
      <use xlink:href="#DejaVuSans-29" transform="translate(1574.386719 0)"/>
     </g>
    </g>
    <g id="line2d_19">
     <path d="M 950.241027 122.79875 
L 964.241027 122.79875 
L 978.241027 122.79875 
" style="fill: none; stroke-dasharray: 7.4,3.2; stroke-dashoffset: 0; stroke: #0000ff; stroke-width: 2"/>
    </g>
    <g id="text_19">
     <!-- Global RMSE (12h Forecast) -->
     <g transform="translate(989.441027 127.69875) scale(0.14 -0.14)">
      <use xlink:href="#DejaVuSans-47"/>
      <use xlink:href="#DejaVuSans-6c" transform="translate(77.490234 0)"/>
      <use xlink:href="#DejaVuSans-6f" transform="translate(105.273438 0)"/>
      <use xlink:href="#DejaVuSans-62" transform="translate(166.455078 0)"/>
      <use xlink:href="#DejaVuSans-61" transform="translate(229.931641 0)"/>
      <use xlink:href="#DejaVuSans-6c" transform="translate(291.210938 0)"/>
      <use xlink:href="#DejaVuSans-20" transform="translate(318.994141 0)"/>
      <use xlink:href="#DejaVuSans-52" transform="translate(350.78125 0)"/>
      <use xlink:href="#DejaVuSans-4d" transform="translate(420.263672 0)"/>
      <use xlink:href="#DejaVuSans-53" transform="translate(506.542969 0)"/>
      <use xlink:href="#DejaVuSans-45" transform="translate(570.019531 0)"/>
      <use xlink:href="#DejaVuSans-20" transform="translate(633.203125 0)"/>
      <use xlink:href="#DejaVuSans-28" transform="translate(664.990234 0)"/>
      <use xlink:href="#DejaVuSans-31" transform="translate(704.003906 0)"/>
      <use xlink:href="#DejaVuSans-32" transform="translate(767.626953 0)"/>
      <use xlink:href="#DejaVuSans-68" transform="translate(831.25 0)"/>
      <use xlink:href="#DejaVuSans-20" transform="translate(894.628906 0)"/>
      <use xlink:href="#DejaVuSans-46" transform="translate(926.416016 0)"/>
      <use xlink:href="#DejaVuSans-6f" transform="translate(980.310547 0)"/>
      <use xlink:href="#DejaVuSans-72" transform="translate(1041.492188 0)"/>
      <use xlink:href="#DejaVuSans-65" transform="translate(1080.355469 0)"/>
      <use xlink:href="#DejaVuSans-63" transform="translate(1141.878906 0)"/>
      <use xlink:href="#DejaVuSans-61" transform="translate(1196.859375 0)"/>
      <use xlink:href="#DejaVuSans-73" transform="translate(1258.138672 0)"/>
      <use xlink:href="#DejaVuSans-74" transform="translate(1310.238281 0)"/>
      <use xlink:href="#DejaVuSans-29" transform="translate(1349.447266 0)"/>
     </g>
    </g>
    <g id="line2d_20">
     <path d="M 950.241027 143.348125 
L 964.241027 143.348125 
L 978.241027 143.348125 
" style="fill: none; stroke-dasharray: 7.4,3.2; stroke-dashoffset: 0; stroke: #ffa500; stroke-width: 2"/>
    </g>
    <g id="text_20">
     <!-- South Africa RMSE (12h Forecast) -->
     <g transform="translate(989.441027 148.248125) scale(0.14 -0.14)">
      <use xlink:href="#DejaVuSans-53"/>
      <use xlink:href="#DejaVuSans-6f" transform="translate(63.476562 0)"/>
      <use xlink:href="#DejaVuSans-75" transform="translate(124.658203 0)"/>
      <use xlink:href="#DejaVuSans-74" transform="translate(188.037109 0)"/>
      <use xlink:href="#DejaVuSans-68" transform="translate(227.246094 0)"/>
      <use xlink:href="#DejaVuSans-20" transform="translate(290.625 0)"/>
      <use xlink:href="#DejaVuSans-41" transform="translate(322.412109 0)"/>
      <use xlink:href="#DejaVuSans-66" transform="translate(387.195312 0)"/>
      <use xlink:href="#DejaVuSans-72" transform="translate(422.400391 0)"/>
      <use xlink:href="#DejaVuSans-69" transform="translate(463.513672 0)"/>
      <use xlink:href="#DejaVuSans-63" transform="translate(491.296875 0)"/>
      <use xlink:href="#DejaVuSans-61" transform="translate(546.277344 0)"/>
      <use xlink:href="#DejaVuSans-20" transform="translate(607.556641 0)"/>
      <use xlink:href="#DejaVuSans-52" transform="translate(639.34375 0)"/>
      <use xlink:href="#DejaVuSans-4d" transform="translate(708.826172 0)"/>
      <use xlink:href="#DejaVuSans-53" transform="translate(795.105469 0)"/>
      <use xlink:href="#DejaVuSans-45" transform="translate(858.582031 0)"/>
      <use xlink:href="#DejaVuSans-20" transform="translate(921.765625 0)"/>
      <use xlink:href="#DejaVuSans-28" transform="translate(953.552734 0)"/>
      <use xlink:href="#DejaVuSans-31" transform="translate(992.566406 0)"/>
      <use xlink:href="#DejaVuSans-32" transform="translate(1056.189453 0)"/>
      <use xlink:href="#DejaVuSans-68" transform="translate(1119.8125 0)"/>
      <use xlink:href="#DejaVuSans-20" transform="translate(1183.191406 0)"/>
      <use xlink:href="#DejaVuSans-46" transform="translate(1214.978516 0)"/>
      <use xlink:href="#DejaVuSans-6f" transform="translate(1268.873047 0)"/>
      <use xlink:href="#DejaVuSans-72" transform="translate(1330.054688 0)"/>
      <use xlink:href="#DejaVuSans-65" transform="translate(1368.917969 0)"/>
      <use xlink:href="#DejaVuSans-63" transform="translate(1430.441406 0)"/>
      <use xlink:href="#DejaVuSans-61" transform="translate(1485.421875 0)"/>
      <use xlink:href="#DejaVuSans-73" transform="translate(1546.701172 0)"/>
      <use xlink:href="#DejaVuSans-74" transform="translate(1598.800781 0)"/>
      <use xlink:href="#DejaVuSans-29" transform="translate(1638.009766 0)"/>
     </g>
    </g>
   </g>
  </g>
 </g>
 <defs>
  <clipPath id="pe7c528fdc2">
   <rect x="58.791027" y="40.877187" width="837" height="443.52"/>
  </clipPath>
 </defs>
</svg>
