<?xml version="1.0" encoding="utf-8" standalone="no"?>
<!DOCTYPE svg PUBLIC "-//W3C//DTD SVG 1.1//EN"
  "http://www.w3.org/Graphics/SVG/1.1/DTD/svg11.dtd">
<svg xmlns:xlink="http://www.w3.org/1999/xlink" width="1237.023214pt" height="575.421502pt" viewBox="0 0 1237.023214 575.421502" xmlns="http://www.w3.org/2000/svg" version="1.1">
 <metadata>
  <rdf:RDF xmlns:dc="http://purl.org/dc/elements/1.1/" xmlns:cc="http://creativecommons.org/ns#" xmlns:rdf="http://www.w3.org/1999/02/22-rdf-syntax-ns#">
   <cc:Work>
    <dc:type rdf:resource="http://purl.org/dc/dcmitype/StillImage"/>
    <dc:date>2025-02-18T10:59:59.065209</dc:date>
    <dc:format>image/svg+xml</dc:format>
    <dc:creator>
     <cc:Agent>
      <dc:title>Matplotlib v3.10.0, https://matplotlib.org/</dc:title>
     </cc:Agent>
    </dc:creator>
   </cc:Work>
  </rdf:RDF>
 </metadata>
 <defs>
  <style type="text/css">*{stroke-linejoin: round; stroke-linecap: butt}</style>
 </defs>
 <g id="figure_1">
  <g id="patch_1">
   <path d="M 0 575.421502 
L 1237.023214 575.421502 
L 1237.023214 0 
L 0 0 
z
" style="fill: #ffffff"/>
  </g>
  <g id="axes_1">
   <g id="patch_2">
    <path d="M 58.791027 484.397187 
L 895.791027 484.397187 
L 895.791027 40.877187 
L 58.791027 40.877187 
z
" style="fill: #ffffff"/>
   </g>
   <g id="matplotlib.axis_1">
    <g id="xtick_1">
     <g id="line2d_1">
      <defs>
       <path id="m911fa61e60" d="M 0 0 
L 0 3.5 
" style="stroke: #000000; stroke-width: 0.8"/>
      </defs>
      <g>
       <use xlink:href="#m911fa61e60" x="96.836481" y="484.397187" style="stroke: #000000; stroke-width: 0.8"/>
      </g>
     </g>
     <g id="text_1">
      <!-- 2022-01-01 (12:00) -->
      <g transform="translate(10.999219 546.93544) rotate(-30) scale(0.1 -0.1)">
       <defs>
        <path id="DejaVuSans-32" d="M 1228 531 
L 3431 531 
L 3431 0 
L 469 0 
L 469 531 
Q 828 903 1448 1529 
Q 2069 2156 2228 2338 
Q 2531 2678 2651 2914 
Q 2772 3150 2772 3378 
Q 2772 3750 2511 3984 
Q 2250 4219 1831 4219 
Q 1534 4219 1204 4116 
Q 875 4013 500 3803 
L 500 4441 
Q 881 4594 1212 4672 
Q 1544 4750 1819 4750 
Q 2544 4750 2975 4387 
Q 3406 4025 3406 3419 
Q 3406 3131 3298 2873 
Q 3191 2616 2906 2266 
Q 2828 2175 2409 1742 
Q 1991 1309 1228 531 
z
" transform="scale(0.015625)"/>
        <path id="DejaVuSans-30" d="M 2034 4250 
Q 1547 4250 1301 3770 
Q 1056 3291 1056 2328 
Q 1056 1369 1301 889 
Q 1547 409 2034 409 
Q 2525 409 2770 889 
Q 3016 1369 3016 2328 
Q 3016 3291 2770 3770 
Q 2525 4250 2034 4250 
z
M 2034 4750 
Q 2819 4750 3233 4129 
Q 3647 3509 3647 2328 
Q 3647 1150 3233 529 
Q 2819 -91 2034 -91 
Q 1250 -91 836 529 
Q 422 1150 422 2328 
Q 422 3509 836 4129 
Q 1250 4750 2034 4750 
z
" transform="scale(0.015625)"/>
        <path id="DejaVuSans-2d" d="M 313 2009 
L 1997 2009 
L 1997 1497 
L 313 1497 
L 313 2009 
z
" transform="scale(0.015625)"/>
        <path id="DejaVuSans-31" d="M 794 531 
L 1825 531 
L 1825 4091 
L 703 3866 
L 703 4441 
L 1819 4666 
L 2450 4666 
L 2450 531 
L 3481 531 
L 3481 0 
L 794 0 
L 794 531 
z
" transform="scale(0.015625)"/>
        <path id="DejaVuSans-20" transform="scale(0.015625)"/>
        <path id="DejaVuSans-28" d="M 1984 4856 
Q 1566 4138 1362 3434 
Q 1159 2731 1159 2009 
Q 1159 1288 1364 580 
Q 1569 -128 1984 -844 
L 1484 -844 
Q 1016 -109 783 600 
Q 550 1309 550 2009 
Q 550 2706 781 3412 
Q 1013 4119 1484 4856 
L 1984 4856 
z
" transform="scale(0.015625)"/>
        <path id="DejaVuSans-3a" d="M 750 794 
L 1409 794 
L 1409 0 
L 750 0 
L 750 794 
z
M 750 3309 
L 1409 3309 
L 1409 2516 
L 750 2516 
L 750 3309 
z
" transform="scale(0.015625)"/>
        <path id="DejaVuSans-29" d="M 513 4856 
L 1013 4856 
Q 1481 4119 1714 3412 
Q 1947 2706 1947 2009 
Q 1947 1309 1714 600 
Q 1481 -109 1013 -844 
L 513 -844 
Q 928 -128 1133 580 
Q 1338 1288 1338 2009 
Q 1338 2731 1133 3434 
Q 928 4138 513 4856 
z
" transform="scale(0.015625)"/>
       </defs>
       <use xlink:href="#DejaVuSans-32"/>
       <use xlink:href="#DejaVuSans-30" transform="translate(63.623047 0)"/>
       <use xlink:href="#DejaVuSans-32" transform="translate(127.246094 0)"/>
       <use xlink:href="#DejaVuSans-32" transform="translate(190.869141 0)"/>
       <use xlink:href="#DejaVuSans-2d" transform="translate(254.492188 0)"/>
       <use xlink:href="#DejaVuSans-30" transform="translate(290.576172 0)"/>
       <use xlink:href="#DejaVuSans-31" transform="translate(354.199219 0)"/>
       <use xlink:href="#DejaVuSans-2d" transform="translate(417.822266 0)"/>
       <use xlink:href="#DejaVuSans-30" transform="translate(453.90625 0)"/>
       <use xlink:href="#DejaVuSans-31" transform="translate(517.529297 0)"/>
       <use xlink:href="#DejaVuSans-20" transform="translate(581.152344 0)"/>
       <use xlink:href="#DejaVuSans-28" transform="translate(612.939453 0)"/>
       <use xlink:href="#DejaVuSans-31" transform="translate(651.953125 0)"/>
       <use xlink:href="#DejaVuSans-32" transform="translate(715.576172 0)"/>
       <use xlink:href="#DejaVuSans-3a" transform="translate(779.199219 0)"/>
       <use xlink:href="#DejaVuSans-30" transform="translate(812.890625 0)"/>
       <use xlink:href="#DejaVuSans-30" transform="translate(876.513672 0)"/>
       <use xlink:href="#DejaVuSans-29" transform="translate(940.136719 0)"/>
      </g>
     </g>
    </g>
    <g id="xtick_2">
     <g id="line2d_2">
      <g>
       <use xlink:href="#m911fa61e60" x="246.573612" y="484.397187" style="stroke: #000000; stroke-width: 0.8"/>
      </g>
     </g>
     <g id="text_2">
      <!-- 2022-03-16 (00:00) -->
      <g transform="translate(160.736349 546.93544) rotate(-30) scale(0.1 -0.1)">
       <defs>
        <path id="DejaVuSans-33" d="M 2597 2516 
Q 3050 2419 3304 2112 
Q 3559 1806 3559 1356 
Q 3559 666 3084 287 
Q 2609 -91 1734 -91 
Q 1441 -91 1130 -33 
Q 819 25 488 141 
L 488 750 
Q 750 597 1062 519 
Q 1375 441 1716 441 
Q 2309 441 2620 675 
Q 2931 909 2931 1356 
Q 2931 1769 2642 2001 
Q 2353 2234 1838 2234 
L 1294 2234 
L 1294 2753 
L 1863 2753 
Q 2328 2753 2575 2939 
Q 2822 3125 2822 3475 
Q 2822 3834 2567 4026 
Q 2313 4219 1838 4219 
Q 1578 4219 1281 4162 
Q 984 4106 628 3988 
L 628 4550 
Q 988 4650 1302 4700 
Q 1616 4750 1894 4750 
Q 2613 4750 3031 4423 
Q 3450 4097 3450 3541 
Q 3450 3153 3228 2886 
Q 3006 2619 2597 2516 
z
" transform="scale(0.015625)"/>
        <path id="DejaVuSans-36" d="M 2113 2584 
Q 1688 2584 1439 2293 
Q 1191 2003 1191 1497 
Q 1191 994 1439 701 
Q 1688 409 2113 409 
Q 2538 409 2786 701 
Q 3034 994 3034 1497 
Q 3034 2003 2786 2293 
Q 2538 2584 2113 2584 
z
M 3366 4563 
L 3366 3988 
Q 3128 4100 2886 4159 
Q 2644 4219 2406 4219 
Q 1781 4219 1451 3797 
Q 1122 3375 1075 2522 
Q 1259 2794 1537 2939 
Q 1816 3084 2150 3084 
Q 2853 3084 3261 2657 
Q 3669 2231 3669 1497 
Q 3669 778 3244 343 
Q 2819 -91 2113 -91 
Q 1303 -91 875 529 
Q 447 1150 447 2328 
Q 447 3434 972 4092 
Q 1497 4750 2381 4750 
Q 2619 4750 2861 4703 
Q 3103 4656 3366 4563 
z
" transform="scale(0.015625)"/>
       </defs>
       <use xlink:href="#DejaVuSans-32"/>
       <use xlink:href="#DejaVuSans-30" transform="translate(63.623047 0)"/>
       <use xlink:href="#DejaVuSans-32" transform="translate(127.246094 0)"/>
       <use xlink:href="#DejaVuSans-32" transform="translate(190.869141 0)"/>
       <use xlink:href="#DejaVuSans-2d" transform="translate(254.492188 0)"/>
       <use xlink:href="#DejaVuSans-30" transform="translate(290.576172 0)"/>
       <use xlink:href="#DejaVuSans-33" transform="translate(354.199219 0)"/>
       <use xlink:href="#DejaVuSans-2d" transform="translate(417.822266 0)"/>
       <use xlink:href="#DejaVuSans-31" transform="translate(453.90625 0)"/>
       <use xlink:href="#DejaVuSans-36" transform="translate(517.529297 0)"/>
       <use xlink:href="#DejaVuSans-20" transform="translate(581.152344 0)"/>
       <use xlink:href="#DejaVuSans-28" transform="translate(612.939453 0)"/>
       <use xlink:href="#DejaVuSans-30" transform="translate(651.953125 0)"/>
       <use xlink:href="#DejaVuSans-30" transform="translate(715.576172 0)"/>
       <use xlink:href="#DejaVuSans-3a" transform="translate(779.199219 0)"/>
       <use xlink:href="#DejaVuSans-30" transform="translate(812.890625 0)"/>
       <use xlink:href="#DejaVuSans-30" transform="translate(876.513672 0)"/>
       <use xlink:href="#DejaVuSans-29" transform="translate(940.136719 0)"/>
      </g>
     </g>
    </g>
    <g id="xtick_3">
     <g id="line2d_3">
      <g>
       <use xlink:href="#m911fa61e60" x="399.366602" y="484.397187" style="stroke: #000000; stroke-width: 0.8"/>
      </g>
     </g>
     <g id="text_3">
      <!-- 2022-05-30 (00:00) -->
      <g transform="translate(313.529339 546.93544) rotate(-30) scale(0.1 -0.1)">
       <defs>
        <path id="DejaVuSans-35" d="M 691 4666 
L 3169 4666 
L 3169 4134 
L 1269 4134 
L 1269 2991 
Q 1406 3038 1543 3061 
Q 1681 3084 1819 3084 
Q 2600 3084 3056 2656 
Q 3513 2228 3513 1497 
Q 3513 744 3044 326 
Q 2575 -91 1722 -91 
Q 1428 -91 1123 -41 
Q 819 9 494 109 
L 494 744 
Q 775 591 1075 516 
Q 1375 441 1709 441 
Q 2250 441 2565 725 
Q 2881 1009 2881 1497 
Q 2881 1984 2565 2268 
Q 2250 2553 1709 2553 
Q 1456 2553 1204 2497 
Q 953 2441 691 2322 
L 691 4666 
z
" transform="scale(0.015625)"/>
       </defs>
       <use xlink:href="#DejaVuSans-32"/>
       <use xlink:href="#DejaVuSans-30" transform="translate(63.623047 0)"/>
       <use xlink:href="#DejaVuSans-32" transform="translate(127.246094 0)"/>
       <use xlink:href="#DejaVuSans-32" transform="translate(190.869141 0)"/>
       <use xlink:href="#DejaVuSans-2d" transform="translate(254.492188 0)"/>
       <use xlink:href="#DejaVuSans-30" transform="translate(290.576172 0)"/>
       <use xlink:href="#DejaVuSans-35" transform="translate(354.199219 0)"/>
       <use xlink:href="#DejaVuSans-2d" transform="translate(417.822266 0)"/>
       <use xlink:href="#DejaVuSans-33" transform="translate(453.90625 0)"/>
       <use xlink:href="#DejaVuSans-30" transform="translate(517.529297 0)"/>
       <use xlink:href="#DejaVuSans-20" transform="translate(581.152344 0)"/>
       <use xlink:href="#DejaVuSans-28" transform="translate(612.939453 0)"/>
       <use xlink:href="#DejaVuSans-30" transform="translate(651.953125 0)"/>
       <use xlink:href="#DejaVuSans-30" transform="translate(715.576172 0)"/>
       <use xlink:href="#DejaVuSans-3a" transform="translate(779.199219 0)"/>
       <use xlink:href="#DejaVuSans-30" transform="translate(812.890625 0)"/>
       <use xlink:href="#DejaVuSans-30" transform="translate(876.513672 0)"/>
       <use xlink:href="#DejaVuSans-29" transform="translate(940.136719 0)"/>
      </g>
     </g>
    </g>
    <g id="xtick_4">
     <g id="line2d_4">
      <g>
       <use xlink:href="#m911fa61e60" x="552.159592" y="484.397187" style="stroke: #000000; stroke-width: 0.8"/>
      </g>
     </g>
     <g id="text_4">
      <!-- 2022-08-13 (00:00) -->
      <g transform="translate(466.322329 546.93544) rotate(-30) scale(0.1 -0.1)">
       <defs>
        <path id="DejaVuSans-38" d="M 2034 2216 
Q 1584 2216 1326 1975 
Q 1069 1734 1069 1313 
Q 1069 891 1326 650 
Q 1584 409 2034 409 
Q 2484 409 2743 651 
Q 3003 894 3003 1313 
Q 3003 1734 2745 1975 
Q 2488 2216 2034 2216 
z
M 1403 2484 
Q 997 2584 770 2862 
Q 544 3141 544 3541 
Q 544 4100 942 4425 
Q 1341 4750 2034 4750 
Q 2731 4750 3128 4425 
Q 3525 4100 3525 3541 
Q 3525 3141 3298 2862 
Q 3072 2584 2669 2484 
Q 3125 2378 3379 2068 
Q 3634 1759 3634 1313 
Q 3634 634 3220 271 
Q 2806 -91 2034 -91 
Q 1263 -91 848 271 
Q 434 634 434 1313 
Q 434 1759 690 2068 
Q 947 2378 1403 2484 
z
M 1172 3481 
Q 1172 3119 1398 2916 
Q 1625 2713 2034 2713 
Q 2441 2713 2670 2916 
Q 2900 3119 2900 3481 
Q 2900 3844 2670 4047 
Q 2441 4250 2034 4250 
Q 1625 4250 1398 4047 
Q 1172 3844 1172 3481 
z
" transform="scale(0.015625)"/>
       </defs>
       <use xlink:href="#DejaVuSans-32"/>
       <use xlink:href="#DejaVuSans-30" transform="translate(63.623047 0)"/>
       <use xlink:href="#DejaVuSans-32" transform="translate(127.246094 0)"/>
       <use xlink:href="#DejaVuSans-32" transform="translate(190.869141 0)"/>
       <use xlink:href="#DejaVuSans-2d" transform="translate(254.492188 0)"/>
       <use xlink:href="#DejaVuSans-30" transform="translate(290.576172 0)"/>
       <use xlink:href="#DejaVuSans-38" transform="translate(354.199219 0)"/>
       <use xlink:href="#DejaVuSans-2d" transform="translate(417.822266 0)"/>
       <use xlink:href="#DejaVuSans-31" transform="translate(453.90625 0)"/>
       <use xlink:href="#DejaVuSans-33" transform="translate(517.529297 0)"/>
       <use xlink:href="#DejaVuSans-20" transform="translate(581.152344 0)"/>
       <use xlink:href="#DejaVuSans-28" transform="translate(612.939453 0)"/>
       <use xlink:href="#DejaVuSans-30" transform="translate(651.953125 0)"/>
       <use xlink:href="#DejaVuSans-30" transform="translate(715.576172 0)"/>
       <use xlink:href="#DejaVuSans-3a" transform="translate(779.199219 0)"/>
       <use xlink:href="#DejaVuSans-30" transform="translate(812.890625 0)"/>
       <use xlink:href="#DejaVuSans-30" transform="translate(876.513672 0)"/>
       <use xlink:href="#DejaVuSans-29" transform="translate(940.136719 0)"/>
      </g>
     </g>
    </g>
    <g id="xtick_5">
     <g id="line2d_5">
      <g>
       <use xlink:href="#m911fa61e60" x="704.952582" y="484.397187" style="stroke: #000000; stroke-width: 0.8"/>
      </g>
     </g>
     <g id="text_5">
      <!-- 2022-10-27 (00:00) -->
      <g transform="translate(619.11532 546.93544) rotate(-30) scale(0.1 -0.1)">
       <defs>
        <path id="DejaVuSans-37" d="M 525 4666 
L 3525 4666 
L 3525 4397 
L 1831 0 
L 1172 0 
L 2766 4134 
L 525 4134 
L 525 4666 
z
" transform="scale(0.015625)"/>
       </defs>
       <use xlink:href="#DejaVuSans-32"/>
       <use xlink:href="#DejaVuSans-30" transform="translate(63.623047 0)"/>
       <use xlink:href="#DejaVuSans-32" transform="translate(127.246094 0)"/>
       <use xlink:href="#DejaVuSans-32" transform="translate(190.869141 0)"/>
       <use xlink:href="#DejaVuSans-2d" transform="translate(254.492188 0)"/>
       <use xlink:href="#DejaVuSans-31" transform="translate(290.576172 0)"/>
       <use xlink:href="#DejaVuSans-30" transform="translate(354.199219 0)"/>
       <use xlink:href="#DejaVuSans-2d" transform="translate(417.822266 0)"/>
       <use xlink:href="#DejaVuSans-32" transform="translate(453.90625 0)"/>
       <use xlink:href="#DejaVuSans-37" transform="translate(517.529297 0)"/>
       <use xlink:href="#DejaVuSans-20" transform="translate(581.152344 0)"/>
       <use xlink:href="#DejaVuSans-28" transform="translate(612.939453 0)"/>
       <use xlink:href="#DejaVuSans-30" transform="translate(651.953125 0)"/>
       <use xlink:href="#DejaVuSans-30" transform="translate(715.576172 0)"/>
       <use xlink:href="#DejaVuSans-3a" transform="translate(779.199219 0)"/>
       <use xlink:href="#DejaVuSans-30" transform="translate(812.890625 0)"/>
       <use xlink:href="#DejaVuSans-30" transform="translate(876.513672 0)"/>
       <use xlink:href="#DejaVuSans-29" transform="translate(940.136719 0)"/>
      </g>
     </g>
    </g>
    <g id="xtick_6">
     <g id="line2d_6">
      <g>
       <use xlink:href="#m911fa61e60" x="857.745572" y="484.397187" style="stroke: #000000; stroke-width: 0.8"/>
      </g>
     </g>
     <g id="text_6">
      <!-- 2023-01-10 (00:00) -->
      <g transform="translate(771.90831 546.93544) rotate(-30) scale(0.1 -0.1)">
       <use xlink:href="#DejaVuSans-32"/>
       <use xlink:href="#DejaVuSans-30" transform="translate(63.623047 0)"/>
       <use xlink:href="#DejaVuSans-32" transform="translate(127.246094 0)"/>
       <use xlink:href="#DejaVuSans-33" transform="translate(190.869141 0)"/>
       <use xlink:href="#DejaVuSans-2d" transform="translate(254.492188 0)"/>
       <use xlink:href="#DejaVuSans-30" transform="translate(290.576172 0)"/>
       <use xlink:href="#DejaVuSans-31" transform="translate(354.199219 0)"/>
       <use xlink:href="#DejaVuSans-2d" transform="translate(417.822266 0)"/>
       <use xlink:href="#DejaVuSans-31" transform="translate(453.90625 0)"/>
       <use xlink:href="#DejaVuSans-30" transform="translate(517.529297 0)"/>
       <use xlink:href="#DejaVuSans-20" transform="translate(581.152344 0)"/>
       <use xlink:href="#DejaVuSans-28" transform="translate(612.939453 0)"/>
       <use xlink:href="#DejaVuSans-30" transform="translate(651.953125 0)"/>
       <use xlink:href="#DejaVuSans-30" transform="translate(715.576172 0)"/>
       <use xlink:href="#DejaVuSans-3a" transform="translate(779.199219 0)"/>
       <use xlink:href="#DejaVuSans-30" transform="translate(812.890625 0)"/>
       <use xlink:href="#DejaVuSans-30" transform="translate(876.513672 0)"/>
       <use xlink:href="#DejaVuSans-29" transform="translate(940.136719 0)"/>
      </g>
     </g>
    </g>
    <g id="text_7">
     <!-- Forecast Date -->
     <g transform="translate(421.784777 564.894002) scale(0.16 -0.16)">
      <defs>
       <path id="DejaVuSans-46" d="M 628 4666 
L 3309 4666 
L 3309 4134 
L 1259 4134 
L 1259 2759 
L 3109 2759 
L 3109 2228 
L 1259 2228 
L 1259 0 
L 628 0 
L 628 4666 
z
" transform="scale(0.015625)"/>
       <path id="DejaVuSans-6f" d="M 1959 3097 
Q 1497 3097 1228 2736 
Q 959 2375 959 1747 
Q 959 1119 1226 758 
Q 1494 397 1959 397 
Q 2419 397 2687 759 
Q 2956 1122 2956 1747 
Q 2956 2369 2687 2733 
Q 2419 3097 1959 3097 
z
M 1959 3584 
Q 2709 3584 3137 3096 
Q 3566 2609 3566 1747 
Q 3566 888 3137 398 
Q 2709 -91 1959 -91 
Q 1206 -91 779 398 
Q 353 888 353 1747 
Q 353 2609 779 3096 
Q 1206 3584 1959 3584 
z
" transform="scale(0.015625)"/>
       <path id="DejaVuSans-72" d="M 2631 2963 
Q 2534 3019 2420 3045 
Q 2306 3072 2169 3072 
Q 1681 3072 1420 2755 
Q 1159 2438 1159 1844 
L 1159 0 
L 581 0 
L 581 3500 
L 1159 3500 
L 1159 2956 
Q 1341 3275 1631 3429 
Q 1922 3584 2338 3584 
Q 2397 3584 2469 3576 
Q 2541 3569 2628 3553 
L 2631 2963 
z
" transform="scale(0.015625)"/>
       <path id="DejaVuSans-65" d="M 3597 1894 
L 3597 1613 
L 953 1613 
Q 991 1019 1311 708 
Q 1631 397 2203 397 
Q 2534 397 2845 478 
Q 3156 559 3463 722 
L 3463 178 
Q 3153 47 2828 -22 
Q 2503 -91 2169 -91 
Q 1331 -91 842 396 
Q 353 884 353 1716 
Q 353 2575 817 3079 
Q 1281 3584 2069 3584 
Q 2775 3584 3186 3129 
Q 3597 2675 3597 1894 
z
M 3022 2063 
Q 3016 2534 2758 2815 
Q 2500 3097 2075 3097 
Q 1594 3097 1305 2825 
Q 1016 2553 972 2059 
L 3022 2063 
z
" transform="scale(0.015625)"/>
       <path id="DejaVuSans-63" d="M 3122 3366 
L 3122 2828 
Q 2878 2963 2633 3030 
Q 2388 3097 2138 3097 
Q 1578 3097 1268 2742 
Q 959 2388 959 1747 
Q 959 1106 1268 751 
Q 1578 397 2138 397 
Q 2388 397 2633 464 
Q 2878 531 3122 666 
L 3122 134 
Q 2881 22 2623 -34 
Q 2366 -91 2075 -91 
Q 1284 -91 818 406 
Q 353 903 353 1747 
Q 353 2603 823 3093 
Q 1294 3584 2113 3584 
Q 2378 3584 2631 3529 
Q 2884 3475 3122 3366 
z
" transform="scale(0.015625)"/>
       <path id="DejaVuSans-61" d="M 2194 1759 
Q 1497 1759 1228 1600 
Q 959 1441 959 1056 
Q 959 750 1161 570 
Q 1363 391 1709 391 
Q 2188 391 2477 730 
Q 2766 1069 2766 1631 
L 2766 1759 
L 2194 1759 
z
M 3341 1997 
L 3341 0 
L 2766 0 
L 2766 531 
Q 2569 213 2275 61 
Q 1981 -91 1556 -91 
Q 1019 -91 701 211 
Q 384 513 384 1019 
Q 384 1609 779 1909 
Q 1175 2209 1959 2209 
L 2766 2209 
L 2766 2266 
Q 2766 2663 2505 2880 
Q 2244 3097 1772 3097 
Q 1472 3097 1187 3025 
Q 903 2953 641 2809 
L 641 3341 
Q 956 3463 1253 3523 
Q 1550 3584 1831 3584 
Q 2591 3584 2966 3190 
Q 3341 2797 3341 1997 
z
" transform="scale(0.015625)"/>
       <path id="DejaVuSans-73" d="M 2834 3397 
L 2834 2853 
Q 2591 2978 2328 3040 
Q 2066 3103 1784 3103 
Q 1356 3103 1142 2972 
Q 928 2841 928 2578 
Q 928 2378 1081 2264 
Q 1234 2150 1697 2047 
L 1894 2003 
Q 2506 1872 2764 1633 
Q 3022 1394 3022 966 
Q 3022 478 2636 193 
Q 2250 -91 1575 -91 
Q 1294 -91 989 -36 
Q 684 19 347 128 
L 347 722 
Q 666 556 975 473 
Q 1284 391 1588 391 
Q 1994 391 2212 530 
Q 2431 669 2431 922 
Q 2431 1156 2273 1281 
Q 2116 1406 1581 1522 
L 1381 1569 
Q 847 1681 609 1914 
Q 372 2147 372 2553 
Q 372 3047 722 3315 
Q 1072 3584 1716 3584 
Q 2034 3584 2315 3537 
Q 2597 3491 2834 3397 
z
" transform="scale(0.015625)"/>
       <path id="DejaVuSans-74" d="M 1172 4494 
L 1172 3500 
L 2356 3500 
L 2356 3053 
L 1172 3053 
L 1172 1153 
Q 1172 725 1289 603 
Q 1406 481 1766 481 
L 2356 481 
L 2356 0 
L 1766 0 
Q 1100 0 847 248 
Q 594 497 594 1153 
L 594 3053 
L 172 3053 
L 172 3500 
L 594 3500 
L 594 4494 
L 1172 4494 
z
" transform="scale(0.015625)"/>
       <path id="DejaVuSans-44" d="M 1259 4147 
L 1259 519 
L 2022 519 
Q 2988 519 3436 956 
Q 3884 1394 3884 2338 
Q 3884 3275 3436 3711 
Q 2988 4147 2022 4147 
L 1259 4147 
z
M 628 4666 
L 1925 4666 
Q 3281 4666 3915 4102 
Q 4550 3538 4550 2338 
Q 4550 1131 3912 565 
Q 3275 0 1925 0 
L 628 0 
L 628 4666 
z
" transform="scale(0.015625)"/>
      </defs>
      <use xlink:href="#DejaVuSans-46"/>
      <use xlink:href="#DejaVuSans-6f" transform="translate(53.894531 0)"/>
      <use xlink:href="#DejaVuSans-72" transform="translate(115.076172 0)"/>
      <use xlink:href="#DejaVuSans-65" transform="translate(153.939453 0)"/>
      <use xlink:href="#DejaVuSans-63" transform="translate(215.462891 0)"/>
      <use xlink:href="#DejaVuSans-61" transform="translate(270.443359 0)"/>
      <use xlink:href="#DejaVuSans-73" transform="translate(331.722656 0)"/>
      <use xlink:href="#DejaVuSans-74" transform="translate(383.822266 0)"/>
      <use xlink:href="#DejaVuSans-20" transform="translate(423.03125 0)"/>
      <use xlink:href="#DejaVuSans-44" transform="translate(454.818359 0)"/>
      <use xlink:href="#DejaVuSans-61" transform="translate(531.820312 0)"/>
      <use xlink:href="#DejaVuSans-74" transform="translate(593.099609 0)"/>
      <use xlink:href="#DejaVuSans-65" transform="translate(632.308594 0)"/>
     </g>
    </g>
   </g>
   <g id="matplotlib.axis_2">
    <g id="ytick_1">
     <g id="line2d_7">
      <defs>
       <path id="m11d5ee00c4" d="M 0 0 
L -3.5 0 
" style="stroke: #000000; stroke-width: 0.8"/>
      </defs>
      <g>
       <use xlink:href="#m11d5ee00c4" x="58.791027" y="447.007918" style="stroke: #000000; stroke-width: 0.8"/>
      </g>
     </g>
     <g id="text_8">
      <!-- 2 -->
      <g transform="translate(45.428527 450.807137) scale(0.1 -0.1)">
       <use xlink:href="#DejaVuSans-32"/>
      </g>
     </g>
    </g>
    <g id="ytick_2">
     <g id="line2d_8">
      <g>
       <use xlink:href="#m11d5ee00c4" x="58.791027" y="363.080217" style="stroke: #000000; stroke-width: 0.8"/>
      </g>
     </g>
     <g id="text_9">
      <!-- 4 -->
      <g transform="translate(45.428527 366.879435) scale(0.1 -0.1)">
       <defs>
        <path id="DejaVuSans-34" d="M 2419 4116 
L 825 1625 
L 2419 1625 
L 2419 4116 
z
M 2253 4666 
L 3047 4666 
L 3047 1625 
L 3713 1625 
L 3713 1100 
L 3047 1100 
L 3047 0 
L 2419 0 
L 2419 1100 
L 313 1100 
L 313 1709 
L 2253 4666 
z
" transform="scale(0.015625)"/>
       </defs>
       <use xlink:href="#DejaVuSans-34"/>
      </g>
     </g>
    </g>
    <g id="ytick_3">
     <g id="line2d_9">
      <g>
       <use xlink:href="#m11d5ee00c4" x="58.791027" y="279.152515" style="stroke: #000000; stroke-width: 0.8"/>
      </g>
     </g>
     <g id="text_10">
      <!-- 6 -->
      <g transform="translate(45.428527 282.951734) scale(0.1 -0.1)">
       <use xlink:href="#DejaVuSans-36"/>
      </g>
     </g>
    </g>
    <g id="ytick_4">
     <g id="line2d_10">
      <g>
       <use xlink:href="#m11d5ee00c4" x="58.791027" y="195.224814" style="stroke: #000000; stroke-width: 0.8"/>
      </g>
     </g>
     <g id="text_11">
      <!-- 8 -->
      <g transform="translate(45.428527 199.024033) scale(0.1 -0.1)">
       <use xlink:href="#DejaVuSans-38"/>
      </g>
     </g>
    </g>
    <g id="ytick_5">
     <g id="line2d_11">
      <g>
       <use xlink:href="#m11d5ee00c4" x="58.791027" y="111.297112" style="stroke: #000000; stroke-width: 0.8"/>
      </g>
     </g>
     <g id="text_12">
      <!-- 10 -->
      <g transform="translate(39.066027 115.096331) scale(0.1 -0.1)">
       <use xlink:href="#DejaVuSans-31"/>
       <use xlink:href="#DejaVuSans-30" transform="translate(63.623047 0)"/>
      </g>
     </g>
    </g>
    <g id="text_13">
     <!-- Root Mean Squared Error (RMSE) -->
     <g transform="translate(31.738527 394.303437) rotate(-90) scale(0.16 -0.16)">
      <defs>
       <path id="DejaVuSans-52" d="M 2841 2188 
Q 3044 2119 3236 1894 
Q 3428 1669 3622 1275 
L 4263 0 
L 3584 0 
L 2988 1197 
Q 2756 1666 2539 1819 
Q 2322 1972 1947 1972 
L 1259 1972 
L 1259 0 
L 628 0 
L 628 4666 
L 2053 4666 
Q 2853 4666 3247 4331 
Q 3641 3997 3641 3322 
Q 3641 2881 3436 2590 
Q 3231 2300 2841 2188 
z
M 1259 4147 
L 1259 2491 
L 2053 2491 
Q 2509 2491 2742 2702 
Q 2975 2913 2975 3322 
Q 2975 3731 2742 3939 
Q 2509 4147 2053 4147 
L 1259 4147 
z
" transform="scale(0.015625)"/>
       <path id="DejaVuSans-4d" d="M 628 4666 
L 1569 4666 
L 2759 1491 
L 3956 4666 
L 4897 4666 
L 4897 0 
L 4281 0 
L 4281 4097 
L 3078 897 
L 2444 897 
L 1241 4097 
L 1241 0 
L 628 0 
L 628 4666 
z
" transform="scale(0.015625)"/>
       <path id="DejaVuSans-6e" d="M 3513 2113 
L 3513 0 
L 2938 0 
L 2938 2094 
Q 2938 2591 2744 2837 
Q 2550 3084 2163 3084 
Q 1697 3084 1428 2787 
Q 1159 2491 1159 1978 
L 1159 0 
L 581 0 
L 581 3500 
L 1159 3500 
L 1159 2956 
Q 1366 3272 1645 3428 
Q 1925 3584 2291 3584 
Q 2894 3584 3203 3211 
Q 3513 2838 3513 2113 
z
" transform="scale(0.015625)"/>
       <path id="DejaVuSans-53" d="M 3425 4513 
L 3425 3897 
Q 3066 4069 2747 4153 
Q 2428 4238 2131 4238 
Q 1616 4238 1336 4038 
Q 1056 3838 1056 3469 
Q 1056 3159 1242 3001 
Q 1428 2844 1947 2747 
L 2328 2669 
Q 3034 2534 3370 2195 
Q 3706 1856 3706 1288 
Q 3706 609 3251 259 
Q 2797 -91 1919 -91 
Q 1588 -91 1214 -16 
Q 841 59 441 206 
L 441 856 
Q 825 641 1194 531 
Q 1563 422 1919 422 
Q 2459 422 2753 634 
Q 3047 847 3047 1241 
Q 3047 1584 2836 1778 
Q 2625 1972 2144 2069 
L 1759 2144 
Q 1053 2284 737 2584 
Q 422 2884 422 3419 
Q 422 4038 858 4394 
Q 1294 4750 2059 4750 
Q 2388 4750 2728 4690 
Q 3069 4631 3425 4513 
z
" transform="scale(0.015625)"/>
       <path id="DejaVuSans-71" d="M 947 1747 
Q 947 1113 1208 752 
Q 1469 391 1925 391 
Q 2381 391 2643 752 
Q 2906 1113 2906 1747 
Q 2906 2381 2643 2742 
Q 2381 3103 1925 3103 
Q 1469 3103 1208 2742 
Q 947 2381 947 1747 
z
M 2906 525 
Q 2725 213 2448 61 
Q 2172 -91 1784 -91 
Q 1150 -91 751 415 
Q 353 922 353 1747 
Q 353 2572 751 3078 
Q 1150 3584 1784 3584 
Q 2172 3584 2448 3432 
Q 2725 3281 2906 2969 
L 2906 3500 
L 3481 3500 
L 3481 -1331 
L 2906 -1331 
L 2906 525 
z
" transform="scale(0.015625)"/>
       <path id="DejaVuSans-75" d="M 544 1381 
L 544 3500 
L 1119 3500 
L 1119 1403 
Q 1119 906 1312 657 
Q 1506 409 1894 409 
Q 2359 409 2629 706 
Q 2900 1003 2900 1516 
L 2900 3500 
L 3475 3500 
L 3475 0 
L 2900 0 
L 2900 538 
Q 2691 219 2414 64 
Q 2138 -91 1772 -91 
Q 1169 -91 856 284 
Q 544 659 544 1381 
z
M 1991 3584 
L 1991 3584 
z
" transform="scale(0.015625)"/>
       <path id="DejaVuSans-64" d="M 2906 2969 
L 2906 4863 
L 3481 4863 
L 3481 0 
L 2906 0 
L 2906 525 
Q 2725 213 2448 61 
Q 2172 -91 1784 -91 
Q 1150 -91 751 415 
Q 353 922 353 1747 
Q 353 2572 751 3078 
Q 1150 3584 1784 3584 
Q 2172 3584 2448 3432 
Q 2725 3281 2906 2969 
z
M 947 1747 
Q 947 1113 1208 752 
Q 1469 391 1925 391 
Q 2381 391 2643 752 
Q 2906 1113 2906 1747 
Q 2906 2381 2643 2742 
Q 2381 3103 1925 3103 
Q 1469 3103 1208 2742 
Q 947 2381 947 1747 
z
" transform="scale(0.015625)"/>
       <path id="DejaVuSans-45" d="M 628 4666 
L 3578 4666 
L 3578 4134 
L 1259 4134 
L 1259 2753 
L 3481 2753 
L 3481 2222 
L 1259 2222 
L 1259 531 
L 3634 531 
L 3634 0 
L 628 0 
L 628 4666 
z
" transform="scale(0.015625)"/>
      </defs>
      <use xlink:href="#DejaVuSans-52"/>
      <use xlink:href="#DejaVuSans-6f" transform="translate(64.982422 0)"/>
      <use xlink:href="#DejaVuSans-6f" transform="translate(126.164062 0)"/>
      <use xlink:href="#DejaVuSans-74" transform="translate(187.345703 0)"/>
      <use xlink:href="#DejaVuSans-20" transform="translate(226.554688 0)"/>
      <use xlink:href="#DejaVuSans-4d" transform="translate(258.341797 0)"/>
      <use xlink:href="#DejaVuSans-65" transform="translate(344.621094 0)"/>
      <use xlink:href="#DejaVuSans-61" transform="translate(406.144531 0)"/>
      <use xlink:href="#DejaVuSans-6e" transform="translate(467.423828 0)"/>
      <use xlink:href="#DejaVuSans-20" transform="translate(530.802734 0)"/>
      <use xlink:href="#DejaVuSans-53" transform="translate(562.589844 0)"/>
      <use xlink:href="#DejaVuSans-71" transform="translate(626.066406 0)"/>
      <use xlink:href="#DejaVuSans-75" transform="translate(689.542969 0)"/>
      <use xlink:href="#DejaVuSans-61" transform="translate(752.921875 0)"/>
      <use xlink:href="#DejaVuSans-72" transform="translate(814.201172 0)"/>
      <use xlink:href="#DejaVuSans-65" transform="translate(853.064453 0)"/>
      <use xlink:href="#DejaVuSans-64" transform="translate(914.587891 0)"/>
      <use xlink:href="#DejaVuSans-20" transform="translate(978.064453 0)"/>
      <use xlink:href="#DejaVuSans-45" transform="translate(1009.851562 0)"/>
      <use xlink:href="#DejaVuSans-72" transform="translate(1073.035156 0)"/>
      <use xlink:href="#DejaVuSans-72" transform="translate(1112.398438 0)"/>
      <use xlink:href="#DejaVuSans-6f" transform="translate(1151.261719 0)"/>
      <use xlink:href="#DejaVuSans-72" transform="translate(1212.443359 0)"/>
      <use xlink:href="#DejaVuSans-20" transform="translate(1253.556641 0)"/>
      <use xlink:href="#DejaVuSans-28" transform="translate(1285.34375 0)"/>
      <use xlink:href="#DejaVuSans-52" transform="translate(1324.357422 0)"/>
      <use xlink:href="#DejaVuSans-4d" transform="translate(1393.839844 0)"/>
      <use xlink:href="#DejaVuSans-53" transform="translate(1480.119141 0)"/>
      <use xlink:href="#DejaVuSans-45" transform="translate(1543.595703 0)"/>
      <use xlink:href="#DejaVuSans-29" transform="translate(1606.779297 0)"/>
     </g>
    </g>
   </g>
   <g id="line2d_12">
    <path d="M 96.836481 236.188489 
L 99.892341 291.790463 
L 102.948201 283.231378 
L 106.004061 267.70798 
L 109.05992 277.015235 
L 112.11578 293.804962 
L 115.17164 283.098492 
L 118.2275 288.057291 
L 121.28336 292.73219 
L 124.339219 287.759524 
L 127.395079 289.519196 
L 130.450939 292.347459 
L 133.506799 269.763159 
L 136.562659 292.138075 
L 139.618518 292.018476 
L 142.674378 306.310564 
L 145.730238 321.483988 
L 148.786098 278.264355 
L 151.841958 302.81597 
L 154.897817 300.108108 
L 157.953677 286.972613 
L 161.009537 281.283312 
L 164.065397 293.282403 
L 167.121257 300.997469 
L 170.177116 311.900796 
L 173.232976 291.445952 
L 176.288836 291.212076 
L 179.344696 287.492291 
L 182.400556 283.001784 
L 185.456415 287.958863 
L 188.512275 292.008171 
L 191.568135 300.702823 
L 194.623995 294.303989 
L 197.679855 290.966194 
L 200.735714 280.683815 
L 203.791574 273.238582 
L 206.847434 298.758898 
L 209.903294 285.699822 
L 216.015013 306.029964 
L 219.070873 280.95737 
L 222.126733 267.037087 
L 225.182593 264.359519 
L 228.238453 282.451011 
L 231.294313 269.257668 
L 234.350172 267.169433 
L 237.406032 293.989473 
L 240.461892 281.4603 
L 243.517752 266.459981 
L 246.573612 284.205341 
L 249.629471 268.836259 
L 252.685331 262.347962 
L 255.741191 285.124717 
L 258.797051 277.183499 
L 261.852911 279.520918 
L 264.90877 296.742859 
L 267.96463 284.44548 
L 271.02049 253.055313 
L 274.07635 271.536058 
L 277.13221 270.063248 
L 280.188069 282.473962 
L 283.243929 298.453487 
L 286.299789 262.397386 
L 289.355649 255.013604 
L 292.411509 287.246789 
L 295.467368 298.120342 
L 298.523228 281.926431 
L 301.579088 280.984884 
L 304.634948 298.349936 
L 307.690808 291.165653 
L 310.746667 294.566139 
L 313.802527 280.408178 
L 316.858387 296.231345 
L 319.914247 275.585786 
L 322.970107 286.84499 
L 326.025966 301.26328 
L 329.081826 288.27548 
L 332.137686 301.935734 
L 335.193546 291.142301 
L 338.249406 290.903423 
L 341.305265 287.583316 
L 344.361125 293.817808 
L 347.416985 284.984467 
L 350.472845 306.681167 
L 353.528705 277.080788 
L 356.584564 269.391975 
L 359.640424 281.600709 
L 362.696284 270.457143 
L 365.752144 285.953268 
L 368.808004 256.43605 
L 371.863863 270.71287 
L 374.919723 285.544965 
L 377.975583 289.78835 
L 381.031443 277.780715 
L 384.087303 281.90364 
L 387.143162 285.390629 
L 390.199022 288.337971 
L 393.254882 305.11449 
L 396.310742 294.802136 
L 399.366602 281.042032 
L 402.422461 270.14785 
L 405.478321 282.902975 
L 408.534181 281.797867 
L 411.590041 281.954565 
L 414.645901 284.414565 
L 417.70176 290.460483 
L 420.75762 301.793383 
L 423.81348 287.213353 
L 426.86934 289.95003 
L 429.9252 295.925433 
L 432.981059 294.36524 
L 436.036919 296.555686 
L 439.092779 285.281155 
L 442.148639 297.160746 
L 445.204499 307.991177 
L 448.260359 312.274221 
L 451.316218 303.164884 
L 454.372078 304.89178 
L 457.427938 319.101287 
L 460.483798 304.627909 
L 463.539658 302.010211 
L 466.595517 298.665652 
L 469.651377 311.451913 
L 472.707237 304.859964 
L 475.763097 274.798156 
L 478.818957 289.048903 
L 481.874816 279.393995 
L 484.930676 283.625454 
L 487.986536 289.736584 
L 491.042396 290.223806 
L 494.098256 266.246675 
L 497.154115 293.810845 
L 500.209975 259.352536 
L 503.265835 285.388208 
L 506.321695 317.148498 
L 509.377555 300.442794 
L 512.433414 302.457773 
L 515.489274 306.285231 
L 518.545134 295.896959 
L 521.600994 290.531879 
L 524.656854 287.12611 
L 527.712713 294.921115 
L 530.768573 296.56483 
L 533.824433 298.482742 
L 536.880293 302.912798 
L 539.936153 301.756505 
L 542.992012 285.397632 
L 546.047872 290.723514 
L 549.103732 311.30408 
L 552.159592 297.602865 
L 555.215452 291.443591 
L 558.271311 285.705865 
L 561.327171 278.714418 
L 564.383031 270.909587 
L 567.438891 273.169528 
L 570.494751 299.389551 
L 573.55061 291.310225 
L 576.60647 293.040703 
L 579.66233 296.657176 
L 582.71819 300.779761 
L 585.77405 306.837865 
L 588.829909 308.277439 
L 591.885769 276.740459 
L 594.941629 259.98479 
L 597.997489 266.675027 
L 601.053349 281.896536 
L 604.109208 264.46213 
L 607.165068 286.362051 
L 610.220928 312.329729 
L 613.276788 289.057928 
L 616.332648 289.78789 
L 619.388507 285.922913 
L 622.444367 300.520212 
L 628.556087 307.043947 
L 631.611947 306.110824 
L 634.667806 294.539326 
L 637.723666 291.076269 
L 640.779526 260.230131 
L 643.835386 278.411108 
L 646.891246 278.716159 
L 649.947105 287.443347 
L 653.002965 282.722846 
L 656.058825 285.905144 
L 662.170545 273.803202 
L 665.226405 273.906534 
L 668.282264 285.864824 
L 671.338124 302.142056 
L 674.393984 268.235261 
L 677.449844 278.914477 
L 680.505704 275.671949 
L 683.561563 272.672842 
L 686.617423 267.790581 
L 689.673283 290.05066 
L 692.729143 278.45653 
L 695.785003 296.396507 
L 698.840862 301.137638 
L 701.896722 288.534628 
L 704.952582 287.810689 
L 708.008442 302.248669 
L 711.064302 298.195859 
L 714.120161 285.168379 
L 717.176021 296.559688 
L 720.231881 301.859076 
L 723.287741 289.901866 
L 726.343601 308.524501 
L 729.39946 290.236672 
L 732.45532 300.618981 
L 735.51118 285.25204 
L 738.56704 295.294901 
L 741.6229 295.735039 
L 744.678759 280.596191 
L 747.734619 284.952532 
L 750.790479 277.805607 
L 753.846339 303.855086 
L 756.902199 289.998134 
L 759.958058 302.37091 
L 763.013918 284.362619 
L 766.069778 285.59457 
L 769.125638 258.741653 
L 772.181498 270.950348 
L 775.237357 255.853521 
L 778.293217 267.687129 
L 781.349077 280.402655 
L 784.404937 264.231135 
L 787.460797 253.347138 
L 790.516656 254.746172 
L 793.572516 275.485657 
L 796.628376 278.408987 
L 799.684236 276.796927 
L 802.740096 249.125144 
L 805.795955 253.699313 
L 808.851815 289.516815 
L 811.907675 306.62578 
L 814.963535 290.953588 
L 818.019395 291.285512 
L 821.075254 270.8547 
L 824.131114 282.845787 
L 827.186974 278.277221 
L 830.242834 281.064003 
L 833.298694 299.918814 
L 836.354553 308.106794 
L 839.410413 308.272597 
L 842.466273 301.953683 
L 845.522133 320.893475 
L 848.577993 320.445153 
L 851.633852 299.224589 
L 854.689712 293.268576 
L 857.745572 295.988064 
L 857.745572 295.988064 
" clip-path="url(#pac8cd3a47e)" style="fill: none; stroke: #0000ff; stroke-width: 2; stroke-linecap: square"/>
   </g>
   <g id="line2d_13">
    <path d="M 96.836481 325.764751 
L 99.892341 317.885444 
L 102.948201 323.016728 
L 106.004061 327.546575 
L 109.05992 224.904453 
L 112.11578 382.38487 
L 115.17164 208.577055 
L 118.2275 206.522397 
L 121.28336 219.856289 
L 124.339219 355.729031 
L 127.395079 189.460355 
L 130.450939 296.709262 
L 133.506799 270.855681 
L 136.562659 297.285088 
L 139.618518 219.853888 
L 142.674378 320.213158 
L 145.730238 205.933585 
L 148.786098 279.702368 
L 151.841958 246.523114 
L 154.897817 274.956795 
L 157.953677 410.784434 
L 161.009537 389.894645 
L 164.065397 223.30546 
L 167.121257 230.739586 
L 170.177116 260.366939 
L 173.232976 292.626777 
L 176.288836 270.41144 
L 179.344696 394.651794 
L 182.400556 355.317347 
L 185.456415 388.694739 
L 188.512275 238.342317 
L 191.568135 191.979084 
L 194.623995 252.930291 
L 197.679855 300.804273 
L 200.735714 243.125369 
L 203.791574 382.653013 
L 206.847434 311.872142 
L 209.903294 350.226602 
L 212.959154 378.852839 
L 216.015013 352.930223 
L 219.070873 336.514202 
L 222.126733 268.890266 
L 225.182593 276.737438 
L 228.238453 358.526118 
L 231.294313 347.748593 
L 234.350172 323.190835 
L 237.406032 375.230582 
L 240.461892 282.861515 
L 243.517752 241.203235 
L 246.573612 255.235835 
L 249.629471 322.416011 
L 252.685331 355.210154 
L 255.741191 398.249038 
L 258.797051 431.293955 
L 261.852911 393.780952 
L 264.90877 332.072259 
L 267.96463 249.739029 
L 271.02049 368.756382 
L 274.07635 214.160985 
L 277.13221 338.580387 
L 280.188069 193.888151 
L 283.243929 307.753479 
L 286.299789 274.723819 
L 289.355649 179.397125 
L 292.411509 282.465898 
L 295.467368 61.037187 
L 298.523228 350.22168 
L 301.579088 345.537137 
L 304.634948 273.149778 
L 307.690808 285.238173 
L 310.746667 223.418776 
L 313.802527 384.898747 
L 316.858387 394.82644 
L 319.914247 300.015342 
L 322.970107 309.410581 
L 326.025966 299.672692 
L 329.081826 348.654403 
L 332.137686 368.913099 
L 335.193546 370.952231 
L 338.249406 251.822142 
L 341.305265 291.430324 
L 344.361125 162.517233 
L 347.416985 381.545424 
L 350.472845 362.988051 
L 353.528705 328.995073 
L 356.584564 350.527171 
L 359.640424 315.928713 
L 362.696284 387.877324 
L 365.752144 425.145606 
L 368.808004 332.183735 
L 371.863863 261.887153 
L 374.919723 336.742855 
L 377.975583 364.827773 
L 381.031443 323.795675 
L 384.087303 335.083953 
L 387.143162 377.953122 
L 390.199022 408.004816 
L 393.254882 359.052199 
L 396.310742 301.406031 
L 399.366602 180.483904 
L 402.422461 341.739593 
L 405.478321 362.766081 
L 408.534181 271.997667 
L 411.590041 390.378705 
L 414.645901 280.870347 
L 417.70176 378.711539 
L 420.75762 231.793529 
L 423.81348 314.45018 
L 426.86934 329.314011 
L 429.9252 425.916869 
L 432.981059 283.608545 
L 436.036919 200.166024 
L 439.092779 203.321669 
L 442.148639 243.258955 
L 445.204499 231.329319 
L 448.260359 359.982661 
L 451.316218 175.679601 
L 454.372078 382.031875 
L 457.427938 255.079297 
L 460.483798 285.411559 
L 463.539658 361.318643 
L 466.595517 322.368367 
L 469.651377 327.584874 
L 472.707237 257.722067 
L 475.763097 397.216886 
L 478.818957 366.244886 
L 481.874816 348.031734 
L 484.930676 309.309691 
L 487.986536 251.632387 
L 491.042396 372.94741 
L 494.098256 176.208223 
L 497.154115 299.674292 
L 500.209975 291.146623 
L 503.265835 392.674853 
L 506.321695 343.496625 
L 509.377555 372.087163 
L 512.433414 226.761934 
L 515.489274 256.122074 
L 518.545134 261.242854 
L 521.600994 272.884907 
L 524.656854 110.886469 
L 527.712713 370.216686 
L 530.768573 278.016132 
L 533.824433 291.605991 
L 536.880293 404.638897 
L 539.936153 232.357849 
L 542.992012 204.980552 
L 546.047872 258.270219 
L 549.103732 300.27497 
L 552.159592 399.932002 
L 555.215452 302.744135 
L 558.271311 239.200402 
L 561.327171 260.925036 
L 564.383031 283.748735 
L 567.438891 209.33271 
L 570.494751 287.295213 
L 573.55061 81.171693 
L 576.60647 211.078516 
L 579.66233 349.683293 
L 582.71819 384.108105 
L 585.77405 356.721123 
L 588.829909 118.065029 
L 591.885769 98.99289 
L 594.941629 68.849302 
L 597.997489 311.60717 
L 601.053349 130.568389 
L 604.109208 71.953641 
L 607.165068 359.440212 
L 610.220928 375.557504 
L 613.276788 409.292424 
L 616.332648 329.347708 
L 619.388507 174.36779 
L 622.444367 341.110481 
L 625.500227 383.306217 
L 628.556087 370.340277 
L 631.611947 280.777621 
L 634.667806 325.270986 
L 637.723666 359.629405 
L 640.779526 238.638524 
L 643.835386 343.456905 
L 646.891246 202.468266 
L 649.947105 194.676862 
L 653.002965 287.047391 
L 656.058825 286.935755 
L 659.114685 265.717032 
L 662.170545 275.302146 
L 665.226405 292.341356 
L 668.282264 312.297813 
L 671.338124 246.603794 
L 674.393984 183.432126 
L 677.449844 303.856066 
L 680.505704 360.538496 
L 683.561563 263.920742 
L 686.617423 152.029913 
L 689.673283 254.27938 
L 692.729143 307.71404 
L 695.785003 233.069002 
L 698.840862 389.4411 
L 701.896722 313.041161 
L 704.952582 271.838308 
L 708.008442 328.654965 
L 711.064302 183.491235 
L 714.120161 210.275658 
L 717.176021 147.99259 
L 720.231881 374.23877 
L 723.287741 369.852095 
L 726.343601 286.729553 
L 729.39946 229.662472 
L 732.45532 269.20004 
L 735.51118 163.083194 
L 738.56704 288.098592 
L 741.6229 150.560904 
L 744.678759 199.342576 
L 747.734619 320.529495 
L 750.790479 399.682198 
L 753.846339 401.594077 
L 756.902199 319.743805 
L 759.958058 364.438951 
L 763.013918 290.614279 
L 766.069778 329.792889 
L 769.125638 287.394963 
L 772.181498 283.330787 
L 775.237357 235.356176 
L 778.293217 368.480745 
L 781.349077 226.366918 
L 784.404937 181.393074 
L 787.460797 281.247554 
L 793.572516 223.506119 
L 796.628376 324.158014 
L 799.684236 309.280997 
L 802.740096 204.434501 
L 805.795955 242.962488 
L 808.851815 361.164727 
L 811.907675 342.520881 
L 814.963535 275.055804 
L 818.019395 218.500117 
L 821.075254 253.515521 
L 824.131114 300.643393 
L 827.186974 340.054398 
L 830.242834 336.06652 
L 833.298694 324.836211 
L 836.354553 194.029741 
L 839.410413 321.702677 
L 842.466273 432.576141 
L 845.522133 288.044005 
L 848.577993 294.523998 
L 851.633852 356.099915 
L 854.689712 363.381656 
L 857.745572 342.873056 
L 857.745572 342.873056 
" clip-path="url(#pac8cd3a47e)" style="fill: none; stroke: #ffa500; stroke-width: 2; stroke-linecap: square"/>
   </g>
   <g id="line2d_14">
    <path d="M 96.836481 375.12492 
L 99.892341 377.618276 
L 102.948201 353.542047 
L 109.05992 374.568214 
L 112.11578 371.284966 
L 115.17164 379.194808 
L 118.2275 376.853387 
L 121.28336 375.422247 
L 124.339219 380.773221 
L 127.395079 371.09138 
L 130.450939 360.554124 
L 133.506799 363.350261 
L 136.562659 382.664359 
L 139.618518 379.587073 
L 142.674378 380.411372 
L 145.730238 370.359056 
L 148.786098 377.588031 
L 151.841958 383.987795 
L 154.897817 364.707224 
L 157.953677 377.499838 
L 161.009537 376.593058 
L 164.065397 374.521811 
L 167.121257 379.688663 
L 170.177116 375.243319 
L 173.232976 373.869237 
L 176.288836 375.187101 
L 179.344696 368.187329 
L 182.400556 368.16752 
L 185.456415 375.87148 
L 188.512275 379.286204 
L 191.568135 379.303242 
L 194.623995 376.884543 
L 197.679855 365.574994 
L 200.735714 365.724188 
L 203.791574 374.032918 
L 206.847434 375.417585 
L 209.903294 366.317992 
L 212.959154 368.756061 
L 216.015013 369.083554 
L 219.070873 371.078693 
L 222.126733 354.518591 
L 228.238453 368.363507 
L 231.294313 352.502271 
L 234.350172 367.647782 
L 237.406032 373.416603 
L 240.461892 352.065955 
L 246.573612 371.162355 
L 249.629471 350.164011 
L 252.685331 350.252595 
L 255.741191 368.433291 
L 258.797051 370.803617 
L 261.852911 371.969475 
L 264.90877 373.69347 
L 267.96463 360.983837 
L 271.02049 373.909097 
L 274.07635 372.890912 
L 277.13221 374.554157 
L 280.188069 384.298609 
L 283.243929 378.131061 
L 286.299789 365.540597 
L 289.355649 372.857586 
L 292.411509 371.444115 
L 295.467368 373.326798 
L 298.523228 370.415364 
L 301.579088 377.230924 
L 304.634948 372.508442 
L 307.690808 379.805021 
L 310.746667 374.111427 
L 313.802527 365.656794 
L 316.858387 363.914951 
L 319.914247 366.322104 
L 322.970107 388.613359 
L 326.025966 377.72591 
L 329.081826 369.956607 
L 332.137686 365.571192 
L 335.193546 370.794032 
L 338.249406 362.419189 
L 341.305265 380.439996 
L 344.361125 374.470415 
L 347.416985 378.409879 
L 350.472845 380.798964 
L 353.528705 370.956253 
L 356.584564 375.000998 
L 359.640424 377.58439 
L 362.696284 372.487582 
L 365.752144 369.330967 
L 368.808004 360.086772 
L 371.863863 363.866787 
L 374.919723 366.692228 
L 377.975583 375.695883 
L 381.031443 362.960477 
L 384.087303 365.790781 
L 387.143162 381.948314 
L 390.199022 381.568826 
L 393.254882 370.135145 
L 396.310742 380.54866 
L 399.366602 359.88023 
L 402.422461 360.379457 
L 405.478321 366.19133 
L 408.534181 383.982202 
L 411.590041 372.488873 
L 414.645901 368.24816 
L 417.70176 369.733146 
L 420.75762 382.839186 
L 423.81348 367.222561 
L 426.86934 386.152609 
L 429.9252 393.79803 
L 432.981059 375.094345 
L 436.036919 383.641063 
L 439.092779 390.209761 
L 442.148639 376.551687 
L 445.204499 385.825567 
L 448.260359 383.015413 
L 451.316218 375.482287 
L 454.372078 382.089714 
L 457.427938 377.461349 
L 460.483798 383.953988 
L 463.539658 387.946278 
L 466.595517 382.723328 
L 469.651377 371.037983 
L 475.763097 372.670273 
L 478.818957 361.665015 
L 481.874816 371.494119 
L 484.930676 380.437485 
L 487.986536 377.558847 
L 491.042396 377.190184 
L 494.098256 378.547147 
L 497.154115 380.270262 
L 500.209975 366.975528 
L 503.265835 375.268051 
L 506.321695 386.543853 
L 509.377555 379.395448 
L 512.433414 380.215975 
L 515.489274 391.085335 
L 518.545134 372.568922 
L 521.600994 376.064936 
L 524.656854 377.668381 
L 527.712713 376.111969 
L 530.768573 379.150836 
L 533.824433 379.563691 
L 536.880293 378.982813 
L 539.936153 376.723903 
L 542.992012 372.575626 
L 546.047872 379.255568 
L 549.103732 378.77393 
L 552.159592 369.044525 
L 555.215452 367.208774 
L 558.271311 381.885533 
L 561.327171 376.912206 
L 564.383031 359.675928 
L 567.438891 373.65349 
L 570.494751 385.967487 
L 573.55061 369.127956 
L 576.60647 358.281417 
L 579.66233 384.386223 
L 582.71819 380.120928 
L 585.77405 391.433648 
L 588.829909 383.058995 
L 591.885769 364.308796 
L 594.941629 363.373402 
L 597.997489 364.802281 
L 601.053349 367.715045 
L 604.109208 366.941592 
L 607.165068 385.36769 
L 610.220928 390.53073 
L 613.276788 380.984406 
L 616.332648 369.515728 
L 619.388507 368.257704 
L 622.444367 376.906133 
L 625.500227 389.68319 
L 628.556087 384.160691 
L 631.611947 372.314816 
L 634.667806 382.308212 
L 637.723666 366.643884 
L 640.779526 365.181179 
L 643.835386 366.398702 
L 646.891246 373.838512 
L 649.947105 371.371138 
L 653.002965 386.443543 
L 656.058825 378.120325 
L 659.114685 368.126299 
L 662.170545 368.744546 
L 665.226405 370.223169 
L 668.282264 366.807195 
L 671.338124 371.997519 
L 674.393984 368.434702 
L 677.449844 371.441183 
L 680.505704 369.74138 
L 683.561563 362.0387 
L 686.617423 369.78167 
L 689.673283 367.72478 
L 692.729143 369.415909 
L 695.785003 379.179681 
L 698.840862 374.510665 
L 701.896722 372.768531 
L 704.952582 377.576176 
L 708.008442 378.943904 
L 711.064302 376.49667 
L 714.120161 371.348917 
L 717.176021 377.929621 
L 720.231881 377.106653 
L 723.287741 383.921002 
L 726.343601 374.780439 
L 729.39946 377.755745 
L 732.45532 379.502861 
L 735.51118 374.50033 
L 738.56704 370.361778 
L 741.6229 361.639542 
L 744.678759 360.514004 
L 747.734619 362.076819 
L 750.790479 374.351757 
L 753.846339 383.987755 
L 756.902199 370.600796 
L 759.958058 366.220284 
L 763.013918 368.452431 
L 766.069778 371.13208 
L 769.125638 357.789933 
L 772.181498 364.810175 
L 775.237357 374.916927 
L 778.293217 368.947777 
L 781.349077 344.569297 
L 784.404937 357.142172 
L 787.460797 358.637574 
L 790.516656 362.313577 
L 793.572516 345.28113 
L 796.628376 365.625569 
L 799.684236 352.821409 
L 802.740096 359.158852 
L 805.795955 367.330585 
L 808.851815 383.338083 
L 811.907675 378.987275 
L 814.963535 390.166389 
L 818.019395 375.641266 
L 821.075254 346.434002 
L 824.131114 370.451192 
L 827.186974 370.917183 
L 830.242834 365.323719 
L 833.298694 378.686976 
L 836.354553 385.81156 
L 839.410413 380.533322 
L 842.466273 389.80447 
L 845.522133 383.758381 
L 848.577993 380.083019 
L 851.633852 361.296932 
L 854.689712 382.282259 
L 857.745572 365.492783 
L 857.745572 365.492783 
" clip-path="url(#pac8cd3a47e)" style="fill: none; stroke-dasharray: 7.4,3.2; stroke-dashoffset: 0; stroke: #0000ff; stroke-width: 2"/>
   </g>
   <g id="line2d_15">
    <path d="M 96.836481 325.133458 
L 99.892341 380.8917 
L 102.948201 403.027097 
L 106.004061 357.141712 
L 109.05992 430.521782 
L 112.11578 426.619367 
L 115.17164 288.556659 
L 118.2275 379.31929 
L 121.28336 434.456994 
L 124.339219 419.502608 
L 127.395079 337.326205 
L 130.450939 425.288007 
L 133.506799 408.660461 
L 136.562659 390.555352 
L 139.618518 431.998715 
L 142.674378 405.773979 
L 145.730238 396.249916 
L 148.786098 427.146539 
L 151.841958 413.937888 
L 154.897817 383.582054 
L 157.953677 449.475082 
L 161.009537 382.054757 
L 164.065397 401.40027 
L 167.121257 408.951095 
L 170.177116 382.380798 
L 173.232976 429.051273 
L 176.288836 415.491939 
L 179.344696 415.642924 
L 182.400556 434.233613 
L 185.456415 413.35736 
L 188.512275 388.323635 
L 191.568135 334.454941 
L 194.623995 414.206771 
L 197.679855 324.730518 
L 200.735714 442.744914 
L 203.791574 400.631669 
L 206.847434 445.021213 
L 209.903294 421.24192 
L 212.959154 432.658342 
L 216.015013 396.073509 
L 219.070873 314.210441 
L 222.126733 397.488901 
L 225.182593 436.410273 
L 228.238453 426.702848 
L 231.294313 443.006264 
L 234.350172 371.803563 
L 237.406032 455.271531 
L 240.461892 361.699632 
L 243.517752 382.712373 
L 246.573612 429.353563 
L 249.629471 440.238321 
L 252.685331 447.86949 
L 255.741191 460.02732 
L 258.797051 431.34326 
L 261.852911 420.795719 
L 264.90877 373.537123 
L 267.96463 434.161637 
L 271.02049 402.497054 
L 274.07635 379.934315 
L 277.13221 387.792482 
L 280.188069 423.196209 
L 283.243929 428.153828 
L 286.299789 248.178775 
L 289.355649 381.910805 
L 292.411509 386.27672 
L 295.467368 400.741164 
L 298.523228 433.093688 
L 301.579088 406.865361 
L 304.634948 357.228895 
L 307.690808 376.886864 
L 310.746667 415.081655 
L 313.802527 434.516023 
L 316.858387 428.266434 
L 319.914247 377.969661 
L 322.970107 428.470225 
L 326.025966 411.28049 
L 329.081826 445.873366 
L 332.137686 416.726631 
L 335.193546 416.733094 
L 338.249406 366.061915 
L 341.305265 401.683301 
L 344.361125 429.280747 
L 347.416985 420.790797 
L 350.472845 404.054387 
L 353.528705 439.170762 
L 356.584564 416.075828 
L 359.640424 453.782203 
L 362.696284 395.233902 
L 365.752144 431.853403 
L 368.808004 374.86361 
L 371.863863 400.460254 
L 374.919723 427.117824 
L 377.975583 383.91669 
L 381.031443 392.677595 
L 384.087303 444.379845 
L 387.143162 447.811992 
L 390.199022 464.237187 
L 393.254882 380.026741 
L 396.310742 381.939539 
L 399.366602 326.79058 
L 402.422461 362.24082 
L 405.478321 388.691598 
L 408.534181 450.952639 
L 411.590041 423.01538 
L 414.645901 410.063076 
L 417.70176 411.84509 
L 420.75762 377.193146 
L 423.81348 427.966245 
L 426.86934 409.942867 
L 429.9252 403.783322 
L 432.981059 422.89578 
L 436.036919 361.294871 
L 439.092779 254.553996 
L 442.148639 384.084313 
L 445.204499 418.565583 
L 448.260359 372.516276 
L 451.316218 414.16361 
L 454.372078 331.56961 
L 457.427938 406.937186 
L 460.483798 426.883678 
L 463.539658 419.478056 
L 466.595517 409.782237 
L 469.651377 418.868993 
L 472.707237 402.359466 
L 475.763097 402.665838 
L 478.818957 433.123363 
L 481.874816 310.601231 
L 484.930676 387.981026 
L 487.986536 425.8379 
L 491.042396 405.427958 
L 494.098256 398.45489 
L 497.154115 373.069331 
L 500.209975 413.86162 
L 503.265835 412.036725 
L 506.321695 415.170069 
L 509.377555 406.7221 
L 512.433414 399.953793 
L 515.489274 407.08674 
L 518.545134 391.633547 
L 521.600994 325.476668 
L 524.656854 420.819041 
L 527.712713 387.58658 
L 530.768573 437.303886 
L 533.824433 422.842884 
L 536.880293 435.139843 
L 539.936153 363.199386 
L 542.992012 339.921772 
L 546.047872 368.540625 
L 549.103732 436.90944 
L 552.159592 384.666372 
L 555.215452 253.912718 
L 558.271311 350.509883 
L 561.327171 374.884541 
L 564.383031 296.231125 
L 567.438891 383.95778 
L 570.494751 419.97097 
L 573.55061 409.885418 
L 576.60647 365.469952 
L 579.66233 444.061377 
L 582.71819 358.462887 
L 585.77405 399.548932 
L 588.829909 305.494939 
L 591.885769 267.532473 
L 594.941629 376.330758 
L 597.997489 389.189105 
L 601.053349 342.555318 
L 604.109208 400.175793 
L 607.165068 406.698868 
L 610.220928 418.852906 
L 613.276788 354.723232 
L 616.332648 385.372402 
L 619.388507 377.233085 
L 622.444367 399.339809 
L 625.500227 379.886161 
L 628.556087 384.791574 
L 631.611947 416.48188 
L 634.667806 358.643837 
L 637.723666 371.407807 
L 640.779526 310.2966 
L 643.835386 380.184439 
L 646.891246 224.832337 
L 649.947105 418.142093 
L 653.002965 316.549981 
L 656.058825 343.621567 
L 659.114685 431.8074 
L 662.170545 390.738793 
L 665.226405 421.70458 
L 668.282264 385.977892 
L 671.338124 406.452516 
L 674.393984 282.55042 
L 677.449844 402.73072 
L 680.505704 391.966072 
L 683.561563 370.135105 
L 686.617423 275.668127 
L 689.673283 433.274367 
L 692.729143 358.859664 
L 695.785003 389.693175 
L 698.840862 404.689261 
L 701.896722 383.955549 
L 704.952582 398.23271 
L 708.008442 371.820061 
L 711.064302 308.143032 
L 714.120161 383.141566 
L 717.176021 444.437223 
L 720.231881 379.763951 
L 723.287741 384.508844 
L 726.343601 415.001225 
L 729.39946 311.016777 
L 732.45532 380.10633 
L 735.51118 416.066424 
L 738.56704 258.535871 
L 741.6229 383.021276 
L 744.678759 267.070103 
L 747.734619 403.486795 
L 750.790479 410.19174 
L 753.846339 344.288838 
L 756.902199 436.654684 
L 759.958058 410.879381 
L 763.013918 378.064478 
L 766.069778 376.81912 
L 769.125638 430.0332 
L 772.181498 425.586085 
L 775.237357 343.832431 
L 778.293217 398.996248 
L 781.349077 373.55231 
L 784.404937 391.573737 
L 787.460797 388.964283 
L 790.516656 376.917949 
L 793.572516 331.377095 
L 796.628376 417.666877 
L 799.684236 405.179134 
L 802.740096 304.337845 
L 805.795955 382.374265 
L 808.851815 386.562872 
L 811.907675 438.619088 
L 814.963535 366.214931 
L 818.019395 428.447874 
L 821.075254 294.465649 
L 824.131114 419.358666 
L 827.186974 381.160093 
L 830.242834 366.589457 
L 833.298694 358.128081 
L 836.354553 393.038394 
L 839.410413 436.776684 
L 842.466273 428.524312 
L 845.522133 321.216716 
L 848.577993 399.532214 
L 851.633852 390.648819 
L 854.689712 417.469209 
L 857.745572 360.46496 
L 857.745572 360.46496 
" clip-path="url(#pac8cd3a47e)" style="fill: none; stroke-dasharray: 7.4,3.2; stroke-dashoffset: 0; stroke: #ffa500; stroke-width: 2"/>
   </g>
   <g id="patch_3">
    <path d="M 58.791027 484.397187 
L 58.791027 40.877187 
" style="fill: none; stroke: #000000; stroke-width: 0.8; stroke-linejoin: miter; stroke-linecap: square"/>
   </g>
   <g id="patch_4">
    <path d="M 895.791027 484.397187 
L 895.791027 40.877187 
" style="fill: none; stroke: #000000; stroke-width: 0.8; stroke-linejoin: miter; stroke-linecap: square"/>
   </g>
   <g id="patch_5">
    <path d="M 58.791027 484.397187 
L 895.791027 484.397187 
" style="fill: none; stroke: #000000; stroke-width: 0.8; stroke-linejoin: miter; stroke-linecap: square"/>
   </g>
   <g id="patch_6">
    <path d="M 58.791027 40.877187 
L 895.791027 40.877187 
" style="fill: none; stroke: #000000; stroke-width: 0.8; stroke-linejoin: miter; stroke-linecap: square"/>
   </g>
   <g id="text_14">
    <!-- Eastward wind speed  two steps forward prediction: RMSES -->
    <g transform="translate(210.014933 20.877187) scale(0.18 -0.18)">
     <defs>
      <path id="DejaVuSans-77" d="M 269 3500 
L 844 3500 
L 1563 769 
L 2278 3500 
L 2956 3500 
L 3675 769 
L 4391 3500 
L 4966 3500 
L 4050 0 
L 3372 0 
L 2619 2869 
L 1863 0 
L 1184 0 
L 269 3500 
z
" transform="scale(0.015625)"/>
      <path id="DejaVuSans-69" d="M 603 3500 
L 1178 3500 
L 1178 0 
L 603 0 
L 603 3500 
z
M 603 4863 
L 1178 4863 
L 1178 4134 
L 603 4134 
L 603 4863 
z
" transform="scale(0.015625)"/>
      <path id="DejaVuSans-70" d="M 1159 525 
L 1159 -1331 
L 581 -1331 
L 581 3500 
L 1159 3500 
L 1159 2969 
Q 1341 3281 1617 3432 
Q 1894 3584 2278 3584 
Q 2916 3584 3314 3078 
Q 3713 2572 3713 1747 
Q 3713 922 3314 415 
Q 2916 -91 2278 -91 
Q 1894 -91 1617 61 
Q 1341 213 1159 525 
z
M 3116 1747 
Q 3116 2381 2855 2742 
Q 2594 3103 2138 3103 
Q 1681 3103 1420 2742 
Q 1159 2381 1159 1747 
Q 1159 1113 1420 752 
Q 1681 391 2138 391 
Q 2594 391 2855 752 
Q 3116 1113 3116 1747 
z
" transform="scale(0.015625)"/>
      <path id="DejaVuSans-66" d="M 2375 4863 
L 2375 4384 
L 1825 4384 
Q 1516 4384 1395 4259 
Q 1275 4134 1275 3809 
L 1275 3500 
L 2222 3500 
L 2222 3053 
L 1275 3053 
L 1275 0 
L 697 0 
L 697 3053 
L 147 3053 
L 147 3500 
L 697 3500 
L 697 3744 
Q 697 4328 969 4595 
Q 1241 4863 1831 4863 
L 2375 4863 
z
" transform="scale(0.015625)"/>
     </defs>
     <use xlink:href="#DejaVuSans-45"/>
     <use xlink:href="#DejaVuSans-61" transform="translate(63.183594 0)"/>
     <use xlink:href="#DejaVuSans-73" transform="translate(124.462891 0)"/>
     <use xlink:href="#DejaVuSans-74" transform="translate(176.5625 0)"/>
     <use xlink:href="#DejaVuSans-77" transform="translate(215.771484 0)"/>
     <use xlink:href="#DejaVuSans-61" transform="translate(297.558594 0)"/>
     <use xlink:href="#DejaVuSans-72" transform="translate(358.837891 0)"/>
     <use xlink:href="#DejaVuSans-64" transform="translate(398.201172 0)"/>
     <use xlink:href="#DejaVuSans-20" transform="translate(461.677734 0)"/>
     <use xlink:href="#DejaVuSans-77" transform="translate(493.464844 0)"/>
     <use xlink:href="#DejaVuSans-69" transform="translate(575.251953 0)"/>
     <use xlink:href="#DejaVuSans-6e" transform="translate(603.035156 0)"/>
     <use xlink:href="#DejaVuSans-64" transform="translate(666.414062 0)"/>
     <use xlink:href="#DejaVuSans-20" transform="translate(729.890625 0)"/>
     <use xlink:href="#DejaVuSans-73" transform="translate(761.677734 0)"/>
     <use xlink:href="#DejaVuSans-70" transform="translate(813.777344 0)"/>
     <use xlink:href="#DejaVuSans-65" transform="translate(877.253906 0)"/>
     <use xlink:href="#DejaVuSans-65" transform="translate(938.777344 0)"/>
     <use xlink:href="#DejaVuSans-64" transform="translate(1000.300781 0)"/>
     <use xlink:href="#DejaVuSans-20" transform="translate(1063.777344 0)"/>
     <use xlink:href="#DejaVuSans-20" transform="translate(1095.564453 0)"/>
     <use xlink:href="#DejaVuSans-74" transform="translate(1127.351562 0)"/>
     <use xlink:href="#DejaVuSans-77" transform="translate(1166.560547 0)"/>
     <use xlink:href="#DejaVuSans-6f" transform="translate(1248.347656 0)"/>
     <use xlink:href="#DejaVuSans-20" transform="translate(1309.529297 0)"/>
     <use xlink:href="#DejaVuSans-73" transform="translate(1341.316406 0)"/>
     <use xlink:href="#DejaVuSans-74" transform="translate(1393.416016 0)"/>
     <use xlink:href="#DejaVuSans-65" transform="translate(1432.625 0)"/>
     <use xlink:href="#DejaVuSans-70" transform="translate(1494.148438 0)"/>
     <use xlink:href="#DejaVuSans-73" transform="translate(1557.625 0)"/>
     <use xlink:href="#DejaVuSans-20" transform="translate(1609.724609 0)"/>
     <use xlink:href="#DejaVuSans-66" transform="translate(1641.511719 0)"/>
     <use xlink:href="#DejaVuSans-6f" transform="translate(1676.716797 0)"/>
     <use xlink:href="#DejaVuSans-72" transform="translate(1737.898438 0)"/>
     <use xlink:href="#DejaVuSans-77" transform="translate(1779.011719 0)"/>
     <use xlink:href="#DejaVuSans-61" transform="translate(1860.798828 0)"/>
     <use xlink:href="#DejaVuSans-72" transform="translate(1922.078125 0)"/>
     <use xlink:href="#DejaVuSans-64" transform="translate(1961.441406 0)"/>
     <use xlink:href="#DejaVuSans-20" transform="translate(2024.917969 0)"/>
     <use xlink:href="#DejaVuSans-70" transform="translate(2056.705078 0)"/>
     <use xlink:href="#DejaVuSans-72" transform="translate(2120.181641 0)"/>
     <use xlink:href="#DejaVuSans-65" transform="translate(2159.044922 0)"/>
     <use xlink:href="#DejaVuSans-64" transform="translate(2220.568359 0)"/>
     <use xlink:href="#DejaVuSans-69" transform="translate(2284.044922 0)"/>
     <use xlink:href="#DejaVuSans-63" transform="translate(2311.828125 0)"/>
     <use xlink:href="#DejaVuSans-74" transform="translate(2366.808594 0)"/>
     <use xlink:href="#DejaVuSans-69" transform="translate(2406.017578 0)"/>
     <use xlink:href="#DejaVuSans-6f" transform="translate(2433.800781 0)"/>
     <use xlink:href="#DejaVuSans-6e" transform="translate(2494.982422 0)"/>
     <use xlink:href="#DejaVuSans-3a" transform="translate(2558.361328 0)"/>
     <use xlink:href="#DejaVuSans-20" transform="translate(2592.052734 0)"/>
     <use xlink:href="#DejaVuSans-52" transform="translate(2623.839844 0)"/>
     <use xlink:href="#DejaVuSans-4d" transform="translate(2693.322266 0)"/>
     <use xlink:href="#DejaVuSans-53" transform="translate(2779.601562 0)"/>
     <use xlink:href="#DejaVuSans-45" transform="translate(2843.078125 0)"/>
     <use xlink:href="#DejaVuSans-53" transform="translate(2906.261719 0)"/>
    </g>
   </g>
   <g id="legend_1">
    <g id="text_15">
     <!-- Forecast Horizon -->
     <g transform="translate(1020.26087 65.634687) scale(0.16 -0.16)">
      <defs>
       <path id="DejaVuSans-48" d="M 628 4666 
L 1259 4666 
L 1259 2753 
L 3553 2753 
L 3553 4666 
L 4184 4666 
L 4184 0 
L 3553 0 
L 3553 2222 
L 1259 2222 
L 1259 0 
L 628 0 
L 628 4666 
z
" transform="scale(0.015625)"/>
       <path id="DejaVuSans-7a" d="M 353 3500 
L 3084 3500 
L 3084 2975 
L 922 459 
L 3084 459 
L 3084 0 
L 275 0 
L 275 525 
L 2438 3041 
L 353 3041 
L 353 3500 
z
" transform="scale(0.015625)"/>
      </defs>
      <use xlink:href="#DejaVuSans-46"/>
      <use xlink:href="#DejaVuSans-6f" transform="translate(53.894531 0)"/>
      <use xlink:href="#DejaVuSans-72" transform="translate(115.076172 0)"/>
      <use xlink:href="#DejaVuSans-65" transform="translate(153.939453 0)"/>
      <use xlink:href="#DejaVuSans-63" transform="translate(215.462891 0)"/>
      <use xlink:href="#DejaVuSans-61" transform="translate(270.443359 0)"/>
      <use xlink:href="#DejaVuSans-73" transform="translate(331.722656 0)"/>
      <use xlink:href="#DejaVuSans-74" transform="translate(383.822266 0)"/>
      <use xlink:href="#DejaVuSans-20" transform="translate(423.03125 0)"/>
      <use xlink:href="#DejaVuSans-48" transform="translate(454.818359 0)"/>
      <use xlink:href="#DejaVuSans-6f" transform="translate(530.013672 0)"/>
      <use xlink:href="#DejaVuSans-72" transform="translate(591.195312 0)"/>
      <use xlink:href="#DejaVuSans-69" transform="translate(632.308594 0)"/>
      <use xlink:href="#DejaVuSans-7a" transform="translate(660.091797 0)"/>
      <use xlink:href="#DejaVuSans-6f" transform="translate(712.582031 0)"/>
      <use xlink:href="#DejaVuSans-6e" transform="translate(773.763672 0)"/>
     </g>
    </g>
    <g id="line2d_16">
     <path d="M 950.241027 81.7 
L 964.241027 81.7 
L 978.241027 81.7 
" style="fill: none; stroke: #0000ff; stroke-width: 2; stroke-linecap: square"/>
    </g>
    <g id="text_16">
     <!-- Global RMSE (6h Forecast) -->
     <g transform="translate(989.441027 86.6) scale(0.14 -0.14)">
      <defs>
       <path id="DejaVuSans-47" d="M 3809 666 
L 3809 1919 
L 2778 1919 
L 2778 2438 
L 4434 2438 
L 4434 434 
Q 4069 175 3628 42 
Q 3188 -91 2688 -91 
Q 1594 -91 976 548 
Q 359 1188 359 2328 
Q 359 3472 976 4111 
Q 1594 4750 2688 4750 
Q 3144 4750 3555 4637 
Q 3966 4525 4313 4306 
L 4313 3634 
Q 3963 3931 3569 4081 
Q 3175 4231 2741 4231 
Q 1884 4231 1454 3753 
Q 1025 3275 1025 2328 
Q 1025 1384 1454 906 
Q 1884 428 2741 428 
Q 3075 428 3337 486 
Q 3600 544 3809 666 
z
" transform="scale(0.015625)"/>
       <path id="DejaVuSans-6c" d="M 603 4863 
L 1178 4863 
L 1178 0 
L 603 0 
L 603 4863 
z
" transform="scale(0.015625)"/>
       <path id="DejaVuSans-62" d="M 3116 1747 
Q 3116 2381 2855 2742 
Q 2594 3103 2138 3103 
Q 1681 3103 1420 2742 
Q 1159 2381 1159 1747 
Q 1159 1113 1420 752 
Q 1681 391 2138 391 
Q 2594 391 2855 752 
Q 3116 1113 3116 1747 
z
M 1159 2969 
Q 1341 3281 1617 3432 
Q 1894 3584 2278 3584 
Q 2916 3584 3314 3078 
Q 3713 2572 3713 1747 
Q 3713 922 3314 415 
Q 2916 -91 2278 -91 
Q 1894 -91 1617 61 
Q 1341 213 1159 525 
L 1159 0 
L 581 0 
L 581 4863 
L 1159 4863 
L 1159 2969 
z
" transform="scale(0.015625)"/>
       <path id="DejaVuSans-68" d="M 3513 2113 
L 3513 0 
L 2938 0 
L 2938 2094 
Q 2938 2591 2744 2837 
Q 2550 3084 2163 3084 
Q 1697 3084 1428 2787 
Q 1159 2491 1159 1978 
L 1159 0 
L 581 0 
L 581 4863 
L 1159 4863 
L 1159 2956 
Q 1366 3272 1645 3428 
Q 1925 3584 2291 3584 
Q 2894 3584 3203 3211 
Q 3513 2838 3513 2113 
z
" transform="scale(0.015625)"/>
      </defs>
      <use xlink:href="#DejaVuSans-47"/>
      <use xlink:href="#DejaVuSans-6c" transform="translate(77.490234 0)"/>
      <use xlink:href="#DejaVuSans-6f" transform="translate(105.273438 0)"/>
      <use xlink:href="#DejaVuSans-62" transform="translate(166.455078 0)"/>
      <use xlink:href="#DejaVuSans-61" transform="translate(229.931641 0)"/>
      <use xlink:href="#DejaVuSans-6c" transform="translate(291.210938 0)"/>
      <use xlink:href="#DejaVuSans-20" transform="translate(318.994141 0)"/>
      <use xlink:href="#DejaVuSans-52" transform="translate(350.78125 0)"/>
      <use xlink:href="#DejaVuSans-4d" transform="translate(420.263672 0)"/>
      <use xlink:href="#DejaVuSans-53" transform="translate(506.542969 0)"/>
      <use xlink:href="#DejaVuSans-45" transform="translate(570.019531 0)"/>
      <use xlink:href="#DejaVuSans-20" transform="translate(633.203125 0)"/>
      <use xlink:href="#DejaVuSans-28" transform="translate(664.990234 0)"/>
      <use xlink:href="#DejaVuSans-36" transform="translate(704.003906 0)"/>
      <use xlink:href="#DejaVuSans-68" transform="translate(767.626953 0)"/>
      <use xlink:href="#DejaVuSans-20" transform="translate(831.005859 0)"/>
      <use xlink:href="#DejaVuSans-46" transform="translate(862.792969 0)"/>
      <use xlink:href="#DejaVuSans-6f" transform="translate(916.6875 0)"/>
      <use xlink:href="#DejaVuSans-72" transform="translate(977.869141 0)"/>
      <use xlink:href="#DejaVuSans-65" transform="translate(1016.732422 0)"/>
      <use xlink:href="#DejaVuSans-63" transform="translate(1078.255859 0)"/>
      <use xlink:href="#DejaVuSans-61" transform="translate(1133.236328 0)"/>
      <use xlink:href="#DejaVuSans-73" transform="translate(1194.515625 0)"/>
      <use xlink:href="#DejaVuSans-74" transform="translate(1246.615234 0)"/>
      <use xlink:href="#DejaVuSans-29" transform="translate(1285.824219 0)"/>
     </g>
    </g>
    <g id="line2d_17">
     <path d="M 950.241027 102.249375 
L 964.241027 102.249375 
L 978.241027 102.249375 
" style="fill: none; stroke: #ffa500; stroke-width: 2; stroke-linecap: square"/>
    </g>
    <g id="text_17">
     <!-- South Africa RMSE (6h Forecast) -->
     <g transform="translate(989.441027 107.149375) scale(0.14 -0.14)">
      <defs>
       <path id="DejaVuSans-41" d="M 2188 4044 
L 1331 1722 
L 3047 1722 
L 2188 4044 
z
M 1831 4666 
L 2547 4666 
L 4325 0 
L 3669 0 
L 3244 1197 
L 1141 1197 
L 716 0 
L 50 0 
L 1831 4666 
z
" transform="scale(0.015625)"/>
      </defs>
      <use xlink:href="#DejaVuSans-53"/>
      <use xlink:href="#DejaVuSans-6f" transform="translate(63.476562 0)"/>
      <use xlink:href="#DejaVuSans-75" transform="translate(124.658203 0)"/>
      <use xlink:href="#DejaVuSans-74" transform="translate(188.037109 0)"/>
      <use xlink:href="#DejaVuSans-68" transform="translate(227.246094 0)"/>
      <use xlink:href="#DejaVuSans-20" transform="translate(290.625 0)"/>
      <use xlink:href="#DejaVuSans-41" transform="translate(322.412109 0)"/>
      <use xlink:href="#DejaVuSans-66" transform="translate(387.195312 0)"/>
      <use xlink:href="#DejaVuSans-72" transform="translate(422.400391 0)"/>
      <use xlink:href="#DejaVuSans-69" transform="translate(463.513672 0)"/>
      <use xlink:href="#DejaVuSans-63" transform="translate(491.296875 0)"/>
      <use xlink:href="#DejaVuSans-61" transform="translate(546.277344 0)"/>
      <use xlink:href="#DejaVuSans-20" transform="translate(607.556641 0)"/>
      <use xlink:href="#DejaVuSans-52" transform="translate(639.34375 0)"/>
      <use xlink:href="#DejaVuSans-4d" transform="translate(708.826172 0)"/>
      <use xlink:href="#DejaVuSans-53" transform="translate(795.105469 0)"/>
      <use xlink:href="#DejaVuSans-45" transform="translate(858.582031 0)"/>
      <use xlink:href="#DejaVuSans-20" transform="translate(921.765625 0)"/>
      <use xlink:href="#DejaVuSans-28" transform="translate(953.552734 0)"/>
      <use xlink:href="#DejaVuSans-36" transform="translate(992.566406 0)"/>
      <use xlink:href="#DejaVuSans-68" transform="translate(1056.189453 0)"/>
      <use xlink:href="#DejaVuSans-20" transform="translate(1119.568359 0)"/>
      <use xlink:href="#DejaVuSans-46" transform="translate(1151.355469 0)"/>
      <use xlink:href="#DejaVuSans-6f" transform="translate(1205.25 0)"/>
      <use xlink:href="#DejaVuSans-72" transform="translate(1266.431641 0)"/>
      <use xlink:href="#DejaVuSans-65" transform="translate(1305.294922 0)"/>
      <use xlink:href="#DejaVuSans-63" transform="translate(1366.818359 0)"/>
      <use xlink:href="#DejaVuSans-61" transform="translate(1421.798828 0)"/>
      <use xlink:href="#DejaVuSans-73" transform="translate(1483.078125 0)"/>
      <use xlink:href="#DejaVuSans-74" transform="translate(1535.177734 0)"/>
      <use xlink:href="#DejaVuSans-29" transform="translate(1574.386719 0)"/>
     </g>
    </g>
    <g id="line2d_18">
     <path d="M 950.241027 122.79875 
L 964.241027 122.79875 
L 978.241027 122.79875 
" style="fill: none; stroke-dasharray: 7.4,3.2; stroke-dashoffset: 0; stroke: #0000ff; stroke-width: 2"/>
    </g>
    <g id="text_18">
     <!-- Global RMSE (12h Forecast) -->
     <g transform="translate(989.441027 127.69875) scale(0.14 -0.14)">
      <use xlink:href="#DejaVuSans-47"/>
      <use xlink:href="#DejaVuSans-6c" transform="translate(77.490234 0)"/>
      <use xlink:href="#DejaVuSans-6f" transform="translate(105.273438 0)"/>
      <use xlink:href="#DejaVuSans-62" transform="translate(166.455078 0)"/>
      <use xlink:href="#DejaVuSans-61" transform="translate(229.931641 0)"/>
      <use xlink:href="#DejaVuSans-6c" transform="translate(291.210938 0)"/>
      <use xlink:href="#DejaVuSans-20" transform="translate(318.994141 0)"/>
      <use xlink:href="#DejaVuSans-52" transform="translate(350.78125 0)"/>
      <use xlink:href="#DejaVuSans-4d" transform="translate(420.263672 0)"/>
      <use xlink:href="#DejaVuSans-53" transform="translate(506.542969 0)"/>
      <use xlink:href="#DejaVuSans-45" transform="translate(570.019531 0)"/>
      <use xlink:href="#DejaVuSans-20" transform="translate(633.203125 0)"/>
      <use xlink:href="#DejaVuSans-28" transform="translate(664.990234 0)"/>
      <use xlink:href="#DejaVuSans-31" transform="translate(704.003906 0)"/>
      <use xlink:href="#DejaVuSans-32" transform="translate(767.626953 0)"/>
      <use xlink:href="#DejaVuSans-68" transform="translate(831.25 0)"/>
      <use xlink:href="#DejaVuSans-20" transform="translate(894.628906 0)"/>
      <use xlink:href="#DejaVuSans-46" transform="translate(926.416016 0)"/>
      <use xlink:href="#DejaVuSans-6f" transform="translate(980.310547 0)"/>
      <use xlink:href="#DejaVuSans-72" transform="translate(1041.492188 0)"/>
      <use xlink:href="#DejaVuSans-65" transform="translate(1080.355469 0)"/>
      <use xlink:href="#DejaVuSans-63" transform="translate(1141.878906 0)"/>
      <use xlink:href="#DejaVuSans-61" transform="translate(1196.859375 0)"/>
      <use xlink:href="#DejaVuSans-73" transform="translate(1258.138672 0)"/>
      <use xlink:href="#DejaVuSans-74" transform="translate(1310.238281 0)"/>
      <use xlink:href="#DejaVuSans-29" transform="translate(1349.447266 0)"/>
     </g>
    </g>
    <g id="line2d_19">
     <path d="M 950.241027 143.348125 
L 964.241027 143.348125 
L 978.241027 143.348125 
" style="fill: none; stroke-dasharray: 7.4,3.2; stroke-dashoffset: 0; stroke: #ffa500; stroke-width: 2"/>
    </g>
    <g id="text_19">
     <!-- South Africa RMSE (12h Forecast) -->
     <g transform="translate(989.441027 148.248125) scale(0.14 -0.14)">
      <use xlink:href="#DejaVuSans-53"/>
      <use xlink:href="#DejaVuSans-6f" transform="translate(63.476562 0)"/>
      <use xlink:href="#DejaVuSans-75" transform="translate(124.658203 0)"/>
      <use xlink:href="#DejaVuSans-74" transform="translate(188.037109 0)"/>
      <use xlink:href="#DejaVuSans-68" transform="translate(227.246094 0)"/>
      <use xlink:href="#DejaVuSans-20" transform="translate(290.625 0)"/>
      <use xlink:href="#DejaVuSans-41" transform="translate(322.412109 0)"/>
      <use xlink:href="#DejaVuSans-66" transform="translate(387.195312 0)"/>
      <use xlink:href="#DejaVuSans-72" transform="translate(422.400391 0)"/>
      <use xlink:href="#DejaVuSans-69" transform="translate(463.513672 0)"/>
      <use xlink:href="#DejaVuSans-63" transform="translate(491.296875 0)"/>
      <use xlink:href="#DejaVuSans-61" transform="translate(546.277344 0)"/>
      <use xlink:href="#DejaVuSans-20" transform="translate(607.556641 0)"/>
      <use xlink:href="#DejaVuSans-52" transform="translate(639.34375 0)"/>
      <use xlink:href="#DejaVuSans-4d" transform="translate(708.826172 0)"/>
      <use xlink:href="#DejaVuSans-53" transform="translate(795.105469 0)"/>
      <use xlink:href="#DejaVuSans-45" transform="translate(858.582031 0)"/>
      <use xlink:href="#DejaVuSans-20" transform="translate(921.765625 0)"/>
      <use xlink:href="#DejaVuSans-28" transform="translate(953.552734 0)"/>
      <use xlink:href="#DejaVuSans-31" transform="translate(992.566406 0)"/>
      <use xlink:href="#DejaVuSans-32" transform="translate(1056.189453 0)"/>
      <use xlink:href="#DejaVuSans-68" transform="translate(1119.8125 0)"/>
      <use xlink:href="#DejaVuSans-20" transform="translate(1183.191406 0)"/>
      <use xlink:href="#DejaVuSans-46" transform="translate(1214.978516 0)"/>
      <use xlink:href="#DejaVuSans-6f" transform="translate(1268.873047 0)"/>
      <use xlink:href="#DejaVuSans-72" transform="translate(1330.054688 0)"/>
      <use xlink:href="#DejaVuSans-65" transform="translate(1368.917969 0)"/>
      <use xlink:href="#DejaVuSans-63" transform="translate(1430.441406 0)"/>
      <use xlink:href="#DejaVuSans-61" transform="translate(1485.421875 0)"/>
      <use xlink:href="#DejaVuSans-73" transform="translate(1546.701172 0)"/>
      <use xlink:href="#DejaVuSans-74" transform="translate(1598.800781 0)"/>
      <use xlink:href="#DejaVuSans-29" transform="translate(1638.009766 0)"/>
     </g>
    </g>
   </g>
  </g>
 </g>
 <defs>
  <clipPath id="pac8cd3a47e">
   <rect x="58.791027" y="40.877187" width="837" height="443.52"/>
  </clipPath>
 </defs>
</svg>
