<?xml version="1.0" encoding="utf-8" standalone="no"?>
<!DOCTYPE svg PUBLIC "-//W3C//DTD SVG 1.1//EN"
  "http://www.w3.org/Graphics/SVG/1.1/DTD/svg11.dtd">
<svg xmlns:xlink="http://www.w3.org/1999/xlink" width="1237.023214pt" height="575.421502pt" viewBox="0 0 1237.023214 575.421502" xmlns="http://www.w3.org/2000/svg" version="1.1">
 <metadata>
  <rdf:RDF xmlns:dc="http://purl.org/dc/elements/1.1/" xmlns:cc="http://creativecommons.org/ns#" xmlns:rdf="http://www.w3.org/1999/02/22-rdf-syntax-ns#">
   <cc:Work>
    <dc:type rdf:resource="http://purl.org/dc/dcmitype/StillImage"/>
    <dc:date>2025-02-18T11:13:51.816650</dc:date>
    <dc:format>image/svg+xml</dc:format>
    <dc:creator>
     <cc:Agent>
      <dc:title>Matplotlib v3.10.0, https://matplotlib.org/</dc:title>
     </cc:Agent>
    </dc:creator>
   </cc:Work>
  </rdf:RDF>
 </metadata>
 <defs>
  <style type="text/css">*{stroke-linejoin: round; stroke-linecap: butt}</style>
 </defs>
 <g id="figure_1">
  <g id="patch_1">
   <path d="M 0 575.421502 
L 1237.023214 575.421502 
L 1237.023214 0 
L 0 0 
z
" style="fill: #ffffff"/>
  </g>
  <g id="axes_1">
   <g id="patch_2">
    <path d="M 58.791027 484.397187 
L 895.791027 484.397187 
L 895.791027 40.877187 
L 58.791027 40.877187 
z
" style="fill: #ffffff"/>
   </g>
   <g id="matplotlib.axis_1">
    <g id="xtick_1">
     <g id="line2d_1">
      <defs>
       <path id="m904d8408ba" d="M 0 0 
L 0 3.5 
" style="stroke: #000000; stroke-width: 0.8"/>
      </defs>
      <g>
       <use xlink:href="#m904d8408ba" x="96.836481" y="484.397187" style="stroke: #000000; stroke-width: 0.8"/>
      </g>
     </g>
     <g id="text_1">
      <!-- 2022-01-01 (12:00) -->
      <g transform="translate(10.999219 546.93544) rotate(-30) scale(0.1 -0.1)">
       <defs>
        <path id="DejaVuSans-32" d="M 1228 531 
L 3431 531 
L 3431 0 
L 469 0 
L 469 531 
Q 828 903 1448 1529 
Q 2069 2156 2228 2338 
Q 2531 2678 2651 2914 
Q 2772 3150 2772 3378 
Q 2772 3750 2511 3984 
Q 2250 4219 1831 4219 
Q 1534 4219 1204 4116 
Q 875 4013 500 3803 
L 500 4441 
Q 881 4594 1212 4672 
Q 1544 4750 1819 4750 
Q 2544 4750 2975 4387 
Q 3406 4025 3406 3419 
Q 3406 3131 3298 2873 
Q 3191 2616 2906 2266 
Q 2828 2175 2409 1742 
Q 1991 1309 1228 531 
z
" transform="scale(0.015625)"/>
        <path id="DejaVuSans-30" d="M 2034 4250 
Q 1547 4250 1301 3770 
Q 1056 3291 1056 2328 
Q 1056 1369 1301 889 
Q 1547 409 2034 409 
Q 2525 409 2770 889 
Q 3016 1369 3016 2328 
Q 3016 3291 2770 3770 
Q 2525 4250 2034 4250 
z
M 2034 4750 
Q 2819 4750 3233 4129 
Q 3647 3509 3647 2328 
Q 3647 1150 3233 529 
Q 2819 -91 2034 -91 
Q 1250 -91 836 529 
Q 422 1150 422 2328 
Q 422 3509 836 4129 
Q 1250 4750 2034 4750 
z
" transform="scale(0.015625)"/>
        <path id="DejaVuSans-2d" d="M 313 2009 
L 1997 2009 
L 1997 1497 
L 313 1497 
L 313 2009 
z
" transform="scale(0.015625)"/>
        <path id="DejaVuSans-31" d="M 794 531 
L 1825 531 
L 1825 4091 
L 703 3866 
L 703 4441 
L 1819 4666 
L 2450 4666 
L 2450 531 
L 3481 531 
L 3481 0 
L 794 0 
L 794 531 
z
" transform="scale(0.015625)"/>
        <path id="DejaVuSans-20" transform="scale(0.015625)"/>
        <path id="DejaVuSans-28" d="M 1984 4856 
Q 1566 4138 1362 3434 
Q 1159 2731 1159 2009 
Q 1159 1288 1364 580 
Q 1569 -128 1984 -844 
L 1484 -844 
Q 1016 -109 783 600 
Q 550 1309 550 2009 
Q 550 2706 781 3412 
Q 1013 4119 1484 4856 
L 1984 4856 
z
" transform="scale(0.015625)"/>
        <path id="DejaVuSans-3a" d="M 750 794 
L 1409 794 
L 1409 0 
L 750 0 
L 750 794 
z
M 750 3309 
L 1409 3309 
L 1409 2516 
L 750 2516 
L 750 3309 
z
" transform="scale(0.015625)"/>
        <path id="DejaVuSans-29" d="M 513 4856 
L 1013 4856 
Q 1481 4119 1714 3412 
Q 1947 2706 1947 2009 
Q 1947 1309 1714 600 
Q 1481 -109 1013 -844 
L 513 -844 
Q 928 -128 1133 580 
Q 1338 1288 1338 2009 
Q 1338 2731 1133 3434 
Q 928 4138 513 4856 
z
" transform="scale(0.015625)"/>
       </defs>
       <use xlink:href="#DejaVuSans-32"/>
       <use xlink:href="#DejaVuSans-30" transform="translate(63.623047 0)"/>
       <use xlink:href="#DejaVuSans-32" transform="translate(127.246094 0)"/>
       <use xlink:href="#DejaVuSans-32" transform="translate(190.869141 0)"/>
       <use xlink:href="#DejaVuSans-2d" transform="translate(254.492188 0)"/>
       <use xlink:href="#DejaVuSans-30" transform="translate(290.576172 0)"/>
       <use xlink:href="#DejaVuSans-31" transform="translate(354.199219 0)"/>
       <use xlink:href="#DejaVuSans-2d" transform="translate(417.822266 0)"/>
       <use xlink:href="#DejaVuSans-30" transform="translate(453.90625 0)"/>
       <use xlink:href="#DejaVuSans-31" transform="translate(517.529297 0)"/>
       <use xlink:href="#DejaVuSans-20" transform="translate(581.152344 0)"/>
       <use xlink:href="#DejaVuSans-28" transform="translate(612.939453 0)"/>
       <use xlink:href="#DejaVuSans-31" transform="translate(651.953125 0)"/>
       <use xlink:href="#DejaVuSans-32" transform="translate(715.576172 0)"/>
       <use xlink:href="#DejaVuSans-3a" transform="translate(779.199219 0)"/>
       <use xlink:href="#DejaVuSans-30" transform="translate(812.890625 0)"/>
       <use xlink:href="#DejaVuSans-30" transform="translate(876.513672 0)"/>
       <use xlink:href="#DejaVuSans-29" transform="translate(940.136719 0)"/>
      </g>
     </g>
    </g>
    <g id="xtick_2">
     <g id="line2d_2">
      <g>
       <use xlink:href="#m904d8408ba" x="246.573612" y="484.397187" style="stroke: #000000; stroke-width: 0.8"/>
      </g>
     </g>
     <g id="text_2">
      <!-- 2022-03-16 (00:00) -->
      <g transform="translate(160.736349 546.93544) rotate(-30) scale(0.1 -0.1)">
       <defs>
        <path id="DejaVuSans-33" d="M 2597 2516 
Q 3050 2419 3304 2112 
Q 3559 1806 3559 1356 
Q 3559 666 3084 287 
Q 2609 -91 1734 -91 
Q 1441 -91 1130 -33 
Q 819 25 488 141 
L 488 750 
Q 750 597 1062 519 
Q 1375 441 1716 441 
Q 2309 441 2620 675 
Q 2931 909 2931 1356 
Q 2931 1769 2642 2001 
Q 2353 2234 1838 2234 
L 1294 2234 
L 1294 2753 
L 1863 2753 
Q 2328 2753 2575 2939 
Q 2822 3125 2822 3475 
Q 2822 3834 2567 4026 
Q 2313 4219 1838 4219 
Q 1578 4219 1281 4162 
Q 984 4106 628 3988 
L 628 4550 
Q 988 4650 1302 4700 
Q 1616 4750 1894 4750 
Q 2613 4750 3031 4423 
Q 3450 4097 3450 3541 
Q 3450 3153 3228 2886 
Q 3006 2619 2597 2516 
z
" transform="scale(0.015625)"/>
        <path id="DejaVuSans-36" d="M 2113 2584 
Q 1688 2584 1439 2293 
Q 1191 2003 1191 1497 
Q 1191 994 1439 701 
Q 1688 409 2113 409 
Q 2538 409 2786 701 
Q 3034 994 3034 1497 
Q 3034 2003 2786 2293 
Q 2538 2584 2113 2584 
z
M 3366 4563 
L 3366 3988 
Q 3128 4100 2886 4159 
Q 2644 4219 2406 4219 
Q 1781 4219 1451 3797 
Q 1122 3375 1075 2522 
Q 1259 2794 1537 2939 
Q 1816 3084 2150 3084 
Q 2853 3084 3261 2657 
Q 3669 2231 3669 1497 
Q 3669 778 3244 343 
Q 2819 -91 2113 -91 
Q 1303 -91 875 529 
Q 447 1150 447 2328 
Q 447 3434 972 4092 
Q 1497 4750 2381 4750 
Q 2619 4750 2861 4703 
Q 3103 4656 3366 4563 
z
" transform="scale(0.015625)"/>
       </defs>
       <use xlink:href="#DejaVuSans-32"/>
       <use xlink:href="#DejaVuSans-30" transform="translate(63.623047 0)"/>
       <use xlink:href="#DejaVuSans-32" transform="translate(127.246094 0)"/>
       <use xlink:href="#DejaVuSans-32" transform="translate(190.869141 0)"/>
       <use xlink:href="#DejaVuSans-2d" transform="translate(254.492188 0)"/>
       <use xlink:href="#DejaVuSans-30" transform="translate(290.576172 0)"/>
       <use xlink:href="#DejaVuSans-33" transform="translate(354.199219 0)"/>
       <use xlink:href="#DejaVuSans-2d" transform="translate(417.822266 0)"/>
       <use xlink:href="#DejaVuSans-31" transform="translate(453.90625 0)"/>
       <use xlink:href="#DejaVuSans-36" transform="translate(517.529297 0)"/>
       <use xlink:href="#DejaVuSans-20" transform="translate(581.152344 0)"/>
       <use xlink:href="#DejaVuSans-28" transform="translate(612.939453 0)"/>
       <use xlink:href="#DejaVuSans-30" transform="translate(651.953125 0)"/>
       <use xlink:href="#DejaVuSans-30" transform="translate(715.576172 0)"/>
       <use xlink:href="#DejaVuSans-3a" transform="translate(779.199219 0)"/>
       <use xlink:href="#DejaVuSans-30" transform="translate(812.890625 0)"/>
       <use xlink:href="#DejaVuSans-30" transform="translate(876.513672 0)"/>
       <use xlink:href="#DejaVuSans-29" transform="translate(940.136719 0)"/>
      </g>
     </g>
    </g>
    <g id="xtick_3">
     <g id="line2d_3">
      <g>
       <use xlink:href="#m904d8408ba" x="399.366602" y="484.397187" style="stroke: #000000; stroke-width: 0.8"/>
      </g>
     </g>
     <g id="text_3">
      <!-- 2022-05-30 (00:00) -->
      <g transform="translate(313.529339 546.93544) rotate(-30) scale(0.1 -0.1)">
       <defs>
        <path id="DejaVuSans-35" d="M 691 4666 
L 3169 4666 
L 3169 4134 
L 1269 4134 
L 1269 2991 
Q 1406 3038 1543 3061 
Q 1681 3084 1819 3084 
Q 2600 3084 3056 2656 
Q 3513 2228 3513 1497 
Q 3513 744 3044 326 
Q 2575 -91 1722 -91 
Q 1428 -91 1123 -41 
Q 819 9 494 109 
L 494 744 
Q 775 591 1075 516 
Q 1375 441 1709 441 
Q 2250 441 2565 725 
Q 2881 1009 2881 1497 
Q 2881 1984 2565 2268 
Q 2250 2553 1709 2553 
Q 1456 2553 1204 2497 
Q 953 2441 691 2322 
L 691 4666 
z
" transform="scale(0.015625)"/>
       </defs>
       <use xlink:href="#DejaVuSans-32"/>
       <use xlink:href="#DejaVuSans-30" transform="translate(63.623047 0)"/>
       <use xlink:href="#DejaVuSans-32" transform="translate(127.246094 0)"/>
       <use xlink:href="#DejaVuSans-32" transform="translate(190.869141 0)"/>
       <use xlink:href="#DejaVuSans-2d" transform="translate(254.492188 0)"/>
       <use xlink:href="#DejaVuSans-30" transform="translate(290.576172 0)"/>
       <use xlink:href="#DejaVuSans-35" transform="translate(354.199219 0)"/>
       <use xlink:href="#DejaVuSans-2d" transform="translate(417.822266 0)"/>
       <use xlink:href="#DejaVuSans-33" transform="translate(453.90625 0)"/>
       <use xlink:href="#DejaVuSans-30" transform="translate(517.529297 0)"/>
       <use xlink:href="#DejaVuSans-20" transform="translate(581.152344 0)"/>
       <use xlink:href="#DejaVuSans-28" transform="translate(612.939453 0)"/>
       <use xlink:href="#DejaVuSans-30" transform="translate(651.953125 0)"/>
       <use xlink:href="#DejaVuSans-30" transform="translate(715.576172 0)"/>
       <use xlink:href="#DejaVuSans-3a" transform="translate(779.199219 0)"/>
       <use xlink:href="#DejaVuSans-30" transform="translate(812.890625 0)"/>
       <use xlink:href="#DejaVuSans-30" transform="translate(876.513672 0)"/>
       <use xlink:href="#DejaVuSans-29" transform="translate(940.136719 0)"/>
      </g>
     </g>
    </g>
    <g id="xtick_4">
     <g id="line2d_4">
      <g>
       <use xlink:href="#m904d8408ba" x="552.159592" y="484.397187" style="stroke: #000000; stroke-width: 0.8"/>
      </g>
     </g>
     <g id="text_4">
      <!-- 2022-08-13 (00:00) -->
      <g transform="translate(466.322329 546.93544) rotate(-30) scale(0.1 -0.1)">
       <defs>
        <path id="DejaVuSans-38" d="M 2034 2216 
Q 1584 2216 1326 1975 
Q 1069 1734 1069 1313 
Q 1069 891 1326 650 
Q 1584 409 2034 409 
Q 2484 409 2743 651 
Q 3003 894 3003 1313 
Q 3003 1734 2745 1975 
Q 2488 2216 2034 2216 
z
M 1403 2484 
Q 997 2584 770 2862 
Q 544 3141 544 3541 
Q 544 4100 942 4425 
Q 1341 4750 2034 4750 
Q 2731 4750 3128 4425 
Q 3525 4100 3525 3541 
Q 3525 3141 3298 2862 
Q 3072 2584 2669 2484 
Q 3125 2378 3379 2068 
Q 3634 1759 3634 1313 
Q 3634 634 3220 271 
Q 2806 -91 2034 -91 
Q 1263 -91 848 271 
Q 434 634 434 1313 
Q 434 1759 690 2068 
Q 947 2378 1403 2484 
z
M 1172 3481 
Q 1172 3119 1398 2916 
Q 1625 2713 2034 2713 
Q 2441 2713 2670 2916 
Q 2900 3119 2900 3481 
Q 2900 3844 2670 4047 
Q 2441 4250 2034 4250 
Q 1625 4250 1398 4047 
Q 1172 3844 1172 3481 
z
" transform="scale(0.015625)"/>
       </defs>
       <use xlink:href="#DejaVuSans-32"/>
       <use xlink:href="#DejaVuSans-30" transform="translate(63.623047 0)"/>
       <use xlink:href="#DejaVuSans-32" transform="translate(127.246094 0)"/>
       <use xlink:href="#DejaVuSans-32" transform="translate(190.869141 0)"/>
       <use xlink:href="#DejaVuSans-2d" transform="translate(254.492188 0)"/>
       <use xlink:href="#DejaVuSans-30" transform="translate(290.576172 0)"/>
       <use xlink:href="#DejaVuSans-38" transform="translate(354.199219 0)"/>
       <use xlink:href="#DejaVuSans-2d" transform="translate(417.822266 0)"/>
       <use xlink:href="#DejaVuSans-31" transform="translate(453.90625 0)"/>
       <use xlink:href="#DejaVuSans-33" transform="translate(517.529297 0)"/>
       <use xlink:href="#DejaVuSans-20" transform="translate(581.152344 0)"/>
       <use xlink:href="#DejaVuSans-28" transform="translate(612.939453 0)"/>
       <use xlink:href="#DejaVuSans-30" transform="translate(651.953125 0)"/>
       <use xlink:href="#DejaVuSans-30" transform="translate(715.576172 0)"/>
       <use xlink:href="#DejaVuSans-3a" transform="translate(779.199219 0)"/>
       <use xlink:href="#DejaVuSans-30" transform="translate(812.890625 0)"/>
       <use xlink:href="#DejaVuSans-30" transform="translate(876.513672 0)"/>
       <use xlink:href="#DejaVuSans-29" transform="translate(940.136719 0)"/>
      </g>
     </g>
    </g>
    <g id="xtick_5">
     <g id="line2d_5">
      <g>
       <use xlink:href="#m904d8408ba" x="704.952582" y="484.397187" style="stroke: #000000; stroke-width: 0.8"/>
      </g>
     </g>
     <g id="text_5">
      <!-- 2022-10-27 (00:00) -->
      <g transform="translate(619.11532 546.93544) rotate(-30) scale(0.1 -0.1)">
       <defs>
        <path id="DejaVuSans-37" d="M 525 4666 
L 3525 4666 
L 3525 4397 
L 1831 0 
L 1172 0 
L 2766 4134 
L 525 4134 
L 525 4666 
z
" transform="scale(0.015625)"/>
       </defs>
       <use xlink:href="#DejaVuSans-32"/>
       <use xlink:href="#DejaVuSans-30" transform="translate(63.623047 0)"/>
       <use xlink:href="#DejaVuSans-32" transform="translate(127.246094 0)"/>
       <use xlink:href="#DejaVuSans-32" transform="translate(190.869141 0)"/>
       <use xlink:href="#DejaVuSans-2d" transform="translate(254.492188 0)"/>
       <use xlink:href="#DejaVuSans-31" transform="translate(290.576172 0)"/>
       <use xlink:href="#DejaVuSans-30" transform="translate(354.199219 0)"/>
       <use xlink:href="#DejaVuSans-2d" transform="translate(417.822266 0)"/>
       <use xlink:href="#DejaVuSans-32" transform="translate(453.90625 0)"/>
       <use xlink:href="#DejaVuSans-37" transform="translate(517.529297 0)"/>
       <use xlink:href="#DejaVuSans-20" transform="translate(581.152344 0)"/>
       <use xlink:href="#DejaVuSans-28" transform="translate(612.939453 0)"/>
       <use xlink:href="#DejaVuSans-30" transform="translate(651.953125 0)"/>
       <use xlink:href="#DejaVuSans-30" transform="translate(715.576172 0)"/>
       <use xlink:href="#DejaVuSans-3a" transform="translate(779.199219 0)"/>
       <use xlink:href="#DejaVuSans-30" transform="translate(812.890625 0)"/>
       <use xlink:href="#DejaVuSans-30" transform="translate(876.513672 0)"/>
       <use xlink:href="#DejaVuSans-29" transform="translate(940.136719 0)"/>
      </g>
     </g>
    </g>
    <g id="xtick_6">
     <g id="line2d_6">
      <g>
       <use xlink:href="#m904d8408ba" x="857.745572" y="484.397187" style="stroke: #000000; stroke-width: 0.8"/>
      </g>
     </g>
     <g id="text_6">
      <!-- 2023-01-10 (00:00) -->
      <g transform="translate(771.90831 546.93544) rotate(-30) scale(0.1 -0.1)">
       <use xlink:href="#DejaVuSans-32"/>
       <use xlink:href="#DejaVuSans-30" transform="translate(63.623047 0)"/>
       <use xlink:href="#DejaVuSans-32" transform="translate(127.246094 0)"/>
       <use xlink:href="#DejaVuSans-33" transform="translate(190.869141 0)"/>
       <use xlink:href="#DejaVuSans-2d" transform="translate(254.492188 0)"/>
       <use xlink:href="#DejaVuSans-30" transform="translate(290.576172 0)"/>
       <use xlink:href="#DejaVuSans-31" transform="translate(354.199219 0)"/>
       <use xlink:href="#DejaVuSans-2d" transform="translate(417.822266 0)"/>
       <use xlink:href="#DejaVuSans-31" transform="translate(453.90625 0)"/>
       <use xlink:href="#DejaVuSans-30" transform="translate(517.529297 0)"/>
       <use xlink:href="#DejaVuSans-20" transform="translate(581.152344 0)"/>
       <use xlink:href="#DejaVuSans-28" transform="translate(612.939453 0)"/>
       <use xlink:href="#DejaVuSans-30" transform="translate(651.953125 0)"/>
       <use xlink:href="#DejaVuSans-30" transform="translate(715.576172 0)"/>
       <use xlink:href="#DejaVuSans-3a" transform="translate(779.199219 0)"/>
       <use xlink:href="#DejaVuSans-30" transform="translate(812.890625 0)"/>
       <use xlink:href="#DejaVuSans-30" transform="translate(876.513672 0)"/>
       <use xlink:href="#DejaVuSans-29" transform="translate(940.136719 0)"/>
      </g>
     </g>
    </g>
    <g id="text_7">
     <!-- Forecast Date -->
     <g transform="translate(421.784777 564.894002) scale(0.16 -0.16)">
      <defs>
       <path id="DejaVuSans-46" d="M 628 4666 
L 3309 4666 
L 3309 4134 
L 1259 4134 
L 1259 2759 
L 3109 2759 
L 3109 2228 
L 1259 2228 
L 1259 0 
L 628 0 
L 628 4666 
z
" transform="scale(0.015625)"/>
       <path id="DejaVuSans-6f" d="M 1959 3097 
Q 1497 3097 1228 2736 
Q 959 2375 959 1747 
Q 959 1119 1226 758 
Q 1494 397 1959 397 
Q 2419 397 2687 759 
Q 2956 1122 2956 1747 
Q 2956 2369 2687 2733 
Q 2419 3097 1959 3097 
z
M 1959 3584 
Q 2709 3584 3137 3096 
Q 3566 2609 3566 1747 
Q 3566 888 3137 398 
Q 2709 -91 1959 -91 
Q 1206 -91 779 398 
Q 353 888 353 1747 
Q 353 2609 779 3096 
Q 1206 3584 1959 3584 
z
" transform="scale(0.015625)"/>
       <path id="DejaVuSans-72" d="M 2631 2963 
Q 2534 3019 2420 3045 
Q 2306 3072 2169 3072 
Q 1681 3072 1420 2755 
Q 1159 2438 1159 1844 
L 1159 0 
L 581 0 
L 581 3500 
L 1159 3500 
L 1159 2956 
Q 1341 3275 1631 3429 
Q 1922 3584 2338 3584 
Q 2397 3584 2469 3576 
Q 2541 3569 2628 3553 
L 2631 2963 
z
" transform="scale(0.015625)"/>
       <path id="DejaVuSans-65" d="M 3597 1894 
L 3597 1613 
L 953 1613 
Q 991 1019 1311 708 
Q 1631 397 2203 397 
Q 2534 397 2845 478 
Q 3156 559 3463 722 
L 3463 178 
Q 3153 47 2828 -22 
Q 2503 -91 2169 -91 
Q 1331 -91 842 396 
Q 353 884 353 1716 
Q 353 2575 817 3079 
Q 1281 3584 2069 3584 
Q 2775 3584 3186 3129 
Q 3597 2675 3597 1894 
z
M 3022 2063 
Q 3016 2534 2758 2815 
Q 2500 3097 2075 3097 
Q 1594 3097 1305 2825 
Q 1016 2553 972 2059 
L 3022 2063 
z
" transform="scale(0.015625)"/>
       <path id="DejaVuSans-63" d="M 3122 3366 
L 3122 2828 
Q 2878 2963 2633 3030 
Q 2388 3097 2138 3097 
Q 1578 3097 1268 2742 
Q 959 2388 959 1747 
Q 959 1106 1268 751 
Q 1578 397 2138 397 
Q 2388 397 2633 464 
Q 2878 531 3122 666 
L 3122 134 
Q 2881 22 2623 -34 
Q 2366 -91 2075 -91 
Q 1284 -91 818 406 
Q 353 903 353 1747 
Q 353 2603 823 3093 
Q 1294 3584 2113 3584 
Q 2378 3584 2631 3529 
Q 2884 3475 3122 3366 
z
" transform="scale(0.015625)"/>
       <path id="DejaVuSans-61" d="M 2194 1759 
Q 1497 1759 1228 1600 
Q 959 1441 959 1056 
Q 959 750 1161 570 
Q 1363 391 1709 391 
Q 2188 391 2477 730 
Q 2766 1069 2766 1631 
L 2766 1759 
L 2194 1759 
z
M 3341 1997 
L 3341 0 
L 2766 0 
L 2766 531 
Q 2569 213 2275 61 
Q 1981 -91 1556 -91 
Q 1019 -91 701 211 
Q 384 513 384 1019 
Q 384 1609 779 1909 
Q 1175 2209 1959 2209 
L 2766 2209 
L 2766 2266 
Q 2766 2663 2505 2880 
Q 2244 3097 1772 3097 
Q 1472 3097 1187 3025 
Q 903 2953 641 2809 
L 641 3341 
Q 956 3463 1253 3523 
Q 1550 3584 1831 3584 
Q 2591 3584 2966 3190 
Q 3341 2797 3341 1997 
z
" transform="scale(0.015625)"/>
       <path id="DejaVuSans-73" d="M 2834 3397 
L 2834 2853 
Q 2591 2978 2328 3040 
Q 2066 3103 1784 3103 
Q 1356 3103 1142 2972 
Q 928 2841 928 2578 
Q 928 2378 1081 2264 
Q 1234 2150 1697 2047 
L 1894 2003 
Q 2506 1872 2764 1633 
Q 3022 1394 3022 966 
Q 3022 478 2636 193 
Q 2250 -91 1575 -91 
Q 1294 -91 989 -36 
Q 684 19 347 128 
L 347 722 
Q 666 556 975 473 
Q 1284 391 1588 391 
Q 1994 391 2212 530 
Q 2431 669 2431 922 
Q 2431 1156 2273 1281 
Q 2116 1406 1581 1522 
L 1381 1569 
Q 847 1681 609 1914 
Q 372 2147 372 2553 
Q 372 3047 722 3315 
Q 1072 3584 1716 3584 
Q 2034 3584 2315 3537 
Q 2597 3491 2834 3397 
z
" transform="scale(0.015625)"/>
       <path id="DejaVuSans-74" d="M 1172 4494 
L 1172 3500 
L 2356 3500 
L 2356 3053 
L 1172 3053 
L 1172 1153 
Q 1172 725 1289 603 
Q 1406 481 1766 481 
L 2356 481 
L 2356 0 
L 1766 0 
Q 1100 0 847 248 
Q 594 497 594 1153 
L 594 3053 
L 172 3053 
L 172 3500 
L 594 3500 
L 594 4494 
L 1172 4494 
z
" transform="scale(0.015625)"/>
       <path id="DejaVuSans-44" d="M 1259 4147 
L 1259 519 
L 2022 519 
Q 2988 519 3436 956 
Q 3884 1394 3884 2338 
Q 3884 3275 3436 3711 
Q 2988 4147 2022 4147 
L 1259 4147 
z
M 628 4666 
L 1925 4666 
Q 3281 4666 3915 4102 
Q 4550 3538 4550 2338 
Q 4550 1131 3912 565 
Q 3275 0 1925 0 
L 628 0 
L 628 4666 
z
" transform="scale(0.015625)"/>
      </defs>
      <use xlink:href="#DejaVuSans-46"/>
      <use xlink:href="#DejaVuSans-6f" transform="translate(53.894531 0)"/>
      <use xlink:href="#DejaVuSans-72" transform="translate(115.076172 0)"/>
      <use xlink:href="#DejaVuSans-65" transform="translate(153.939453 0)"/>
      <use xlink:href="#DejaVuSans-63" transform="translate(215.462891 0)"/>
      <use xlink:href="#DejaVuSans-61" transform="translate(270.443359 0)"/>
      <use xlink:href="#DejaVuSans-73" transform="translate(331.722656 0)"/>
      <use xlink:href="#DejaVuSans-74" transform="translate(383.822266 0)"/>
      <use xlink:href="#DejaVuSans-20" transform="translate(423.03125 0)"/>
      <use xlink:href="#DejaVuSans-44" transform="translate(454.818359 0)"/>
      <use xlink:href="#DejaVuSans-61" transform="translate(531.820312 0)"/>
      <use xlink:href="#DejaVuSans-74" transform="translate(593.099609 0)"/>
      <use xlink:href="#DejaVuSans-65" transform="translate(632.308594 0)"/>
     </g>
    </g>
   </g>
   <g id="matplotlib.axis_2">
    <g id="ytick_1">
     <g id="line2d_7">
      <defs>
       <path id="ma6453356fd" d="M 0 0 
L -3.5 0 
" style="stroke: #000000; stroke-width: 0.8"/>
      </defs>
      <g>
       <use xlink:href="#ma6453356fd" x="58.791027" y="449.167223" style="stroke: #000000; stroke-width: 0.8"/>
      </g>
     </g>
     <g id="text_8">
      <!-- 2 -->
      <g transform="translate(45.428527 452.966442) scale(0.1 -0.1)">
       <use xlink:href="#DejaVuSans-32"/>
      </g>
     </g>
    </g>
    <g id="ytick_2">
     <g id="line2d_8">
      <g>
       <use xlink:href="#ma6453356fd" x="58.791027" y="384.875428" style="stroke: #000000; stroke-width: 0.8"/>
      </g>
     </g>
     <g id="text_9">
      <!-- 4 -->
      <g transform="translate(45.428527 388.674647) scale(0.1 -0.1)">
       <defs>
        <path id="DejaVuSans-34" d="M 2419 4116 
L 825 1625 
L 2419 1625 
L 2419 4116 
z
M 2253 4666 
L 3047 4666 
L 3047 1625 
L 3713 1625 
L 3713 1100 
L 3047 1100 
L 3047 0 
L 2419 0 
L 2419 1100 
L 313 1100 
L 313 1709 
L 2253 4666 
z
" transform="scale(0.015625)"/>
       </defs>
       <use xlink:href="#DejaVuSans-34"/>
      </g>
     </g>
    </g>
    <g id="ytick_3">
     <g id="line2d_9">
      <g>
       <use xlink:href="#ma6453356fd" x="58.791027" y="320.583634" style="stroke: #000000; stroke-width: 0.8"/>
      </g>
     </g>
     <g id="text_10">
      <!-- 6 -->
      <g transform="translate(45.428527 324.382853) scale(0.1 -0.1)">
       <use xlink:href="#DejaVuSans-36"/>
      </g>
     </g>
    </g>
    <g id="ytick_4">
     <g id="line2d_10">
      <g>
       <use xlink:href="#ma6453356fd" x="58.791027" y="256.291839" style="stroke: #000000; stroke-width: 0.8"/>
      </g>
     </g>
     <g id="text_11">
      <!-- 8 -->
      <g transform="translate(45.428527 260.091058) scale(0.1 -0.1)">
       <use xlink:href="#DejaVuSans-38"/>
      </g>
     </g>
    </g>
    <g id="ytick_5">
     <g id="line2d_11">
      <g>
       <use xlink:href="#ma6453356fd" x="58.791027" y="192.000045" style="stroke: #000000; stroke-width: 0.8"/>
      </g>
     </g>
     <g id="text_12">
      <!-- 10 -->
      <g transform="translate(39.066027 195.799263) scale(0.1 -0.1)">
       <use xlink:href="#DejaVuSans-31"/>
       <use xlink:href="#DejaVuSans-30" transform="translate(63.623047 0)"/>
      </g>
     </g>
    </g>
    <g id="ytick_6">
     <g id="line2d_12">
      <g>
       <use xlink:href="#ma6453356fd" x="58.791027" y="127.70825" style="stroke: #000000; stroke-width: 0.8"/>
      </g>
     </g>
     <g id="text_13">
      <!-- 12 -->
      <g transform="translate(39.066027 131.507469) scale(0.1 -0.1)">
       <use xlink:href="#DejaVuSans-31"/>
       <use xlink:href="#DejaVuSans-32" transform="translate(63.623047 0)"/>
      </g>
     </g>
    </g>
    <g id="ytick_7">
     <g id="line2d_13">
      <g>
       <use xlink:href="#ma6453356fd" x="58.791027" y="63.416455" style="stroke: #000000; stroke-width: 0.8"/>
      </g>
     </g>
     <g id="text_14">
      <!-- 14 -->
      <g transform="translate(39.066027 67.215674) scale(0.1 -0.1)">
       <use xlink:href="#DejaVuSans-31"/>
       <use xlink:href="#DejaVuSans-34" transform="translate(63.623047 0)"/>
      </g>
     </g>
    </g>
    <g id="text_15">
     <!-- Root Mean Squared Error (RMSE) -->
     <g transform="translate(31.738527 394.303437) rotate(-90) scale(0.16 -0.16)">
      <defs>
       <path id="DejaVuSans-52" d="M 2841 2188 
Q 3044 2119 3236 1894 
Q 3428 1669 3622 1275 
L 4263 0 
L 3584 0 
L 2988 1197 
Q 2756 1666 2539 1819 
Q 2322 1972 1947 1972 
L 1259 1972 
L 1259 0 
L 628 0 
L 628 4666 
L 2053 4666 
Q 2853 4666 3247 4331 
Q 3641 3997 3641 3322 
Q 3641 2881 3436 2590 
Q 3231 2300 2841 2188 
z
M 1259 4147 
L 1259 2491 
L 2053 2491 
Q 2509 2491 2742 2702 
Q 2975 2913 2975 3322 
Q 2975 3731 2742 3939 
Q 2509 4147 2053 4147 
L 1259 4147 
z
" transform="scale(0.015625)"/>
       <path id="DejaVuSans-4d" d="M 628 4666 
L 1569 4666 
L 2759 1491 
L 3956 4666 
L 4897 4666 
L 4897 0 
L 4281 0 
L 4281 4097 
L 3078 897 
L 2444 897 
L 1241 4097 
L 1241 0 
L 628 0 
L 628 4666 
z
" transform="scale(0.015625)"/>
       <path id="DejaVuSans-6e" d="M 3513 2113 
L 3513 0 
L 2938 0 
L 2938 2094 
Q 2938 2591 2744 2837 
Q 2550 3084 2163 3084 
Q 1697 3084 1428 2787 
Q 1159 2491 1159 1978 
L 1159 0 
L 581 0 
L 581 3500 
L 1159 3500 
L 1159 2956 
Q 1366 3272 1645 3428 
Q 1925 3584 2291 3584 
Q 2894 3584 3203 3211 
Q 3513 2838 3513 2113 
z
" transform="scale(0.015625)"/>
       <path id="DejaVuSans-53" d="M 3425 4513 
L 3425 3897 
Q 3066 4069 2747 4153 
Q 2428 4238 2131 4238 
Q 1616 4238 1336 4038 
Q 1056 3838 1056 3469 
Q 1056 3159 1242 3001 
Q 1428 2844 1947 2747 
L 2328 2669 
Q 3034 2534 3370 2195 
Q 3706 1856 3706 1288 
Q 3706 609 3251 259 
Q 2797 -91 1919 -91 
Q 1588 -91 1214 -16 
Q 841 59 441 206 
L 441 856 
Q 825 641 1194 531 
Q 1563 422 1919 422 
Q 2459 422 2753 634 
Q 3047 847 3047 1241 
Q 3047 1584 2836 1778 
Q 2625 1972 2144 2069 
L 1759 2144 
Q 1053 2284 737 2584 
Q 422 2884 422 3419 
Q 422 4038 858 4394 
Q 1294 4750 2059 4750 
Q 2388 4750 2728 4690 
Q 3069 4631 3425 4513 
z
" transform="scale(0.015625)"/>
       <path id="DejaVuSans-71" d="M 947 1747 
Q 947 1113 1208 752 
Q 1469 391 1925 391 
Q 2381 391 2643 752 
Q 2906 1113 2906 1747 
Q 2906 2381 2643 2742 
Q 2381 3103 1925 3103 
Q 1469 3103 1208 2742 
Q 947 2381 947 1747 
z
M 2906 525 
Q 2725 213 2448 61 
Q 2172 -91 1784 -91 
Q 1150 -91 751 415 
Q 353 922 353 1747 
Q 353 2572 751 3078 
Q 1150 3584 1784 3584 
Q 2172 3584 2448 3432 
Q 2725 3281 2906 2969 
L 2906 3500 
L 3481 3500 
L 3481 -1331 
L 2906 -1331 
L 2906 525 
z
" transform="scale(0.015625)"/>
       <path id="DejaVuSans-75" d="M 544 1381 
L 544 3500 
L 1119 3500 
L 1119 1403 
Q 1119 906 1312 657 
Q 1506 409 1894 409 
Q 2359 409 2629 706 
Q 2900 1003 2900 1516 
L 2900 3500 
L 3475 3500 
L 3475 0 
L 2900 0 
L 2900 538 
Q 2691 219 2414 64 
Q 2138 -91 1772 -91 
Q 1169 -91 856 284 
Q 544 659 544 1381 
z
M 1991 3584 
L 1991 3584 
z
" transform="scale(0.015625)"/>
       <path id="DejaVuSans-64" d="M 2906 2969 
L 2906 4863 
L 3481 4863 
L 3481 0 
L 2906 0 
L 2906 525 
Q 2725 213 2448 61 
Q 2172 -91 1784 -91 
Q 1150 -91 751 415 
Q 353 922 353 1747 
Q 353 2572 751 3078 
Q 1150 3584 1784 3584 
Q 2172 3584 2448 3432 
Q 2725 3281 2906 2969 
z
M 947 1747 
Q 947 1113 1208 752 
Q 1469 391 1925 391 
Q 2381 391 2643 752 
Q 2906 1113 2906 1747 
Q 2906 2381 2643 2742 
Q 2381 3103 1925 3103 
Q 1469 3103 1208 2742 
Q 947 2381 947 1747 
z
" transform="scale(0.015625)"/>
       <path id="DejaVuSans-45" d="M 628 4666 
L 3578 4666 
L 3578 4134 
L 1259 4134 
L 1259 2753 
L 3481 2753 
L 3481 2222 
L 1259 2222 
L 1259 531 
L 3634 531 
L 3634 0 
L 628 0 
L 628 4666 
z
" transform="scale(0.015625)"/>
      </defs>
      <use xlink:href="#DejaVuSans-52"/>
      <use xlink:href="#DejaVuSans-6f" transform="translate(64.982422 0)"/>
      <use xlink:href="#DejaVuSans-6f" transform="translate(126.164062 0)"/>
      <use xlink:href="#DejaVuSans-74" transform="translate(187.345703 0)"/>
      <use xlink:href="#DejaVuSans-20" transform="translate(226.554688 0)"/>
      <use xlink:href="#DejaVuSans-4d" transform="translate(258.341797 0)"/>
      <use xlink:href="#DejaVuSans-65" transform="translate(344.621094 0)"/>
      <use xlink:href="#DejaVuSans-61" transform="translate(406.144531 0)"/>
      <use xlink:href="#DejaVuSans-6e" transform="translate(467.423828 0)"/>
      <use xlink:href="#DejaVuSans-20" transform="translate(530.802734 0)"/>
      <use xlink:href="#DejaVuSans-53" transform="translate(562.589844 0)"/>
      <use xlink:href="#DejaVuSans-71" transform="translate(626.066406 0)"/>
      <use xlink:href="#DejaVuSans-75" transform="translate(689.542969 0)"/>
      <use xlink:href="#DejaVuSans-61" transform="translate(752.921875 0)"/>
      <use xlink:href="#DejaVuSans-72" transform="translate(814.201172 0)"/>
      <use xlink:href="#DejaVuSans-65" transform="translate(853.064453 0)"/>
      <use xlink:href="#DejaVuSans-64" transform="translate(914.587891 0)"/>
      <use xlink:href="#DejaVuSans-20" transform="translate(978.064453 0)"/>
      <use xlink:href="#DejaVuSans-45" transform="translate(1009.851562 0)"/>
      <use xlink:href="#DejaVuSans-72" transform="translate(1073.035156 0)"/>
      <use xlink:href="#DejaVuSans-72" transform="translate(1112.398438 0)"/>
      <use xlink:href="#DejaVuSans-6f" transform="translate(1151.261719 0)"/>
      <use xlink:href="#DejaVuSans-72" transform="translate(1212.443359 0)"/>
      <use xlink:href="#DejaVuSans-20" transform="translate(1253.556641 0)"/>
      <use xlink:href="#DejaVuSans-28" transform="translate(1285.34375 0)"/>
      <use xlink:href="#DejaVuSans-52" transform="translate(1324.357422 0)"/>
      <use xlink:href="#DejaVuSans-4d" transform="translate(1393.839844 0)"/>
      <use xlink:href="#DejaVuSans-53" transform="translate(1480.119141 0)"/>
      <use xlink:href="#DejaVuSans-45" transform="translate(1543.595703 0)"/>
      <use xlink:href="#DejaVuSans-29" transform="translate(1606.779297 0)"/>
     </g>
    </g>
   </g>
   <g id="line2d_14">
    <path d="M 96.836481 109.135277 
L 99.892341 314.232267 
L 102.948201 331.784035 
L 106.004061 326.212897 
L 109.05992 284.533144 
L 112.11578 328.401403 
L 115.17164 337.438896 
L 118.2275 314.337006 
L 121.28336 351.174822 
L 124.339219 309.737855 
L 127.395079 323.607812 
L 130.450939 342.84366 
L 133.506799 345.205484 
L 136.562659 327.665044 
L 139.618518 306.051017 
L 142.674378 333.006471 
L 145.730238 334.345281 
L 148.786098 363.946701 
L 151.841958 344.345594 
L 154.897817 342.088202 
L 157.953677 323.613958 
L 161.009537 277.487587 
L 164.065397 313.211537 
L 167.121257 305.146889 
L 173.232976 284.639047 
L 176.288836 310.84214 
L 179.344696 324.989633 
L 182.400556 328.08895 
L 185.456415 323.507932 
L 188.512275 305.697667 
L 191.568135 314.669478 
L 194.623995 293.599668 
L 197.679855 236.358474 
L 200.735714 276.152977 
L 203.791574 245.717755 
L 206.847434 225.119017 
L 209.903294 277.960313 
L 212.959154 297.101309 
L 216.015013 322.612051 
L 219.070873 296.635741 
L 222.126733 260.408914 
L 225.182593 248.637256 
L 228.238453 279.260097 
L 231.294313 234.546632 
L 234.350172 262.651223 
L 237.406032 279.684079 
L 240.461892 324.145561 
L 243.517752 348.35399 
L 246.573612 271.816799 
L 249.629471 250.814894 
L 252.685331 283.89671 
L 255.741191 253.663516 
L 258.797051 243.662314 
L 261.852911 303.899682 
L 264.90877 314.056374 
L 267.96463 307.399897 
L 271.02049 348.183431 
L 274.07635 342.901248 
L 277.13221 358.958225 
L 280.188069 344.272355 
L 283.243929 342.38643 
L 286.299789 348.647789 
L 289.355649 348.958464 
L 292.411509 369.362655 
L 295.467368 344.545935 
L 298.523228 344.389985 
L 301.579088 365.337045 
L 304.634948 362.689178 
L 307.690808 378.092001 
L 310.746667 367.284988 
L 313.802527 379.404891 
L 316.858387 367.681732 
L 319.914247 337.553062 
L 326.025966 365.096236 
L 329.081826 385.988513 
L 332.137686 362.081255 
L 335.193546 345.606535 
L 338.249406 361.601769 
L 341.305265 346.892922 
L 344.361125 334.110879 
L 347.416985 341.576066 
L 350.472845 335.425593 
L 353.528705 363.165491 
L 356.584564 389.316698 
L 359.640424 380.807558 
L 362.696284 385.393473 
L 365.752144 359.450434 
L 368.808004 332.548169 
L 371.863863 333.72882 
L 374.919723 315.849854 
L 377.975583 318.271612 
L 381.031443 312.326814 
L 384.087303 327.35466 
L 387.143162 344.870084 
L 390.199022 329.427162 
L 393.254882 319.605179 
L 396.310742 337.254235 
L 399.366602 351.250774 
L 402.422461 346.784749 
L 405.478321 286.853336 
L 408.534181 316.766244 
L 411.590041 363.141365 
L 414.645901 338.670943 
L 417.70176 329.526244 
L 420.75762 347.19276 
L 423.81348 304.106461 
L 426.86934 356.297161 
L 429.9252 375.958171 
L 432.981059 352.106203 
L 436.036919 363.165936 
L 439.092779 341.557595 
L 442.148639 305.988032 
L 445.204499 297.44468 
L 448.260359 324.919367 
L 451.316218 326.880523 
L 454.372078 316.869588 
L 457.427938 258.515555 
L 460.483798 267.200863 
L 463.539658 278.513682 
L 466.595517 270.061748 
L 469.651377 263.068568 
L 472.707237 294.993016 
L 475.763097 240.733954 
L 478.818957 262.826456 
L 481.874816 281.352724 
L 484.930676 219.923378 
L 487.986536 173.486085 
L 491.042396 167.973149 
L 494.098256 189.448639 
L 497.154115 262.598968 
L 500.209975 265.832163 
L 503.265835 333.288314 
L 506.321695 304.383828 
L 509.377555 284.132399 
L 512.433414 294.409282 
L 515.489274 342.396317 
L 518.545134 335.35033 
L 521.600994 296.055226 
L 524.656854 243.814556 
L 527.712713 288.926803 
L 530.768573 298.398625 
L 533.824433 316.848695 
L 536.880293 280.914256 
L 539.936153 354.002275 
L 542.992012 343.289838 
L 546.047872 309.395925 
L 549.103732 249.372404 
L 555.215452 289.060558 
L 558.271311 288.835737 
L 561.327171 213.48418 
L 564.383031 230.879628 
L 567.438891 143.63561 
L 570.494751 100.887394 
L 573.55061 229.595909 
L 576.60647 197.376344 
L 579.66233 207.357527 
L 582.71819 194.202178 
L 585.77405 247.749039 
L 588.829909 240.689195 
L 591.885769 204.674083 
L 594.941629 215.977613 
L 597.997489 243.676907 
L 601.053349 313.949919 
L 604.109208 238.403614 
L 607.165068 208.814119 
L 610.220928 310.104141 
L 613.276788 301.321636 
L 616.332648 192.781668 
L 619.388507 115.797993 
L 622.444367 220.594821 
L 625.500227 274.190441 
L 628.556087 158.789501 
L 631.611947 274.508045 
L 637.723666 297.952984 
L 640.779526 270.711701 
L 643.835386 325.433741 
L 646.891246 242.749388 
L 649.947105 175.837916 
L 653.002965 183.627051 
L 656.058825 196.254522 
L 659.114685 205.851056 
L 662.170545 231.601809 
L 665.226405 264.550115 
L 668.282264 130.54559 
L 671.338124 165.953546 
L 674.393984 147.063 
L 677.449844 113.02684 
L 680.505704 146.575037 
L 683.561563 186.920962 
L 686.617423 218.878382 
L 689.673283 122.667427 
L 692.729143 211.029864 
L 695.785003 217.49043 
L 698.840862 226.584469 
L 701.896722 347.278414 
L 704.952582 279.194369 
L 708.008442 275.764173 
L 711.064302 264.16243 
L 714.120161 222.885031 
L 717.176021 224.972447 
L 720.231881 156.686941 
L 723.287741 181.494907 
L 726.343601 278.381751 
L 729.39946 320.275733 
L 732.45532 229.454398 
L 735.51118 209.581672 
L 738.56704 274.675707 
L 741.6229 306.681487 
L 744.678759 240.859493 
L 747.734619 235.62397 
L 750.790479 248.782017 
L 753.846339 250.175456 
L 756.902199 247.951036 
L 759.958058 279.011394 
L 763.013918 265.09165 
L 766.069778 325.763745 
L 769.125638 280.305598 
L 772.181498 215.501729 
L 775.237357 229.124746 
L 778.293217 249.93241 
L 781.349077 255.263306 
L 784.404937 255.577262 
L 787.460797 282.167672 
L 790.516656 277.783393 
L 793.572516 286.309133 
L 796.628376 270.25044 
L 802.740096 304.922834 
L 805.795955 305.435721 
L 808.851815 312.79295 
L 811.907675 282.536426 
L 814.963535 330.502798 
L 818.019395 327.871563 
L 821.075254 302.709189 
L 824.131114 290.155831 
L 827.186974 301.217679 
L 830.242834 343.758533 
L 833.298694 334.149721 
L 836.354553 326.818045 
L 839.410413 360.432077 
L 842.466273 335.727056 
L 845.522133 331.839155 
L 848.577993 338.131784 
L 851.633852 344.820742 
L 854.689712 365.532113 
L 857.745572 358.532587 
L 857.745572 358.532587 
" clip-path="url(#p8425e14d96)" style="fill: none; stroke: #0000ff; stroke-width: 2; stroke-linecap: square"/>
   </g>
   <g id="line2d_15">
    <path d="M 96.836481 324.135874 
L 99.892341 411.227705 
L 102.948201 394.220738 
L 106.004061 399.740763 
L 109.05992 370.940479 
L 112.11578 403.198956 
L 115.17164 409.143124 
L 118.2275 367.222908 
L 121.28336 394.403958 
L 124.339219 436.350416 
L 127.395079 447.444561 
L 130.450939 355.631067 
L 133.506799 366.246185 
L 136.562659 333.022643 
L 139.618518 259.599622 
L 142.674378 392.584221 
L 145.730238 335.075968 
L 148.786098 374.934528 
L 151.841958 289.328161 
L 154.897817 288.254578 
L 157.953677 280.854231 
L 161.009537 299.988482 
L 164.065397 334.993686 
L 167.121257 424.633917 
L 170.177116 340.452405 
L 173.232976 348.832833 
L 176.288836 349.469205 
L 179.344696 397.91327 
L 182.400556 305.94056 
L 185.456415 383.073703 
L 188.512275 310.690849 
L 191.568135 325.4178 
L 194.623995 309.4844 
L 197.679855 361.457652 
L 200.735714 337.178069 
L 203.791574 380.947414 
L 206.847434 312.419413 
L 209.903294 314.861098 
L 212.959154 438.568399 
L 216.015013 388.759351 
L 219.070873 272.251235 
L 222.126733 447.757551 
L 225.182593 342.587186 
L 228.238453 419.107692 
L 231.294313 422.870965 
L 234.350172 396.717574 
L 237.406032 299.874363 
L 240.461892 378.325008 
L 243.517752 430.902725 
L 246.573612 421.320984 
L 249.629471 387.266852 
L 252.685331 413.171394 
L 255.741191 302.369222 
L 258.797051 293.25498 
L 261.852911 382.568357 
L 264.90877 393.470652 
L 267.96463 369.655672 
L 271.02049 406.000765 
L 274.07635 334.132446 
L 277.13221 350.114912 
L 280.188069 227.146008 
L 283.243929 404.365819 
L 286.299789 436.457056 
L 289.355649 400.949205 
L 292.411509 407.465183 
L 295.467368 313.164632 
L 298.523228 365.338654 
L 301.579088 409.422898 
L 304.634948 441.948394 
L 307.690808 415.602418 
L 310.746667 397.579511 
L 313.802527 287.632063 
L 316.858387 409.903005 
L 319.914247 308.407154 
L 322.970107 406.53525 
L 326.025966 381.216902 
L 329.081826 370.476827 
L 332.137686 367.324995 
L 335.193546 365.295796 
L 338.249406 395.891123 
L 341.305265 275.234088 
L 344.361125 378.490922 
L 347.416985 397.305708 
L 350.472845 419.096433 
L 353.528705 421.935835 
L 356.584564 365.239311 
L 359.640424 400.207021 
L 362.696284 412.758532 
L 365.752144 334.164038 
L 368.808004 353.70348 
L 371.863863 298.926273 
L 374.919723 390.682094 
L 377.975583 399.252011 
L 381.031443 335.334527 
L 384.087303 264.968686 
L 387.143162 409.473627 
L 390.199022 373.454912 
L 393.254882 355.568987 
L 396.310742 403.801299 
L 399.366602 290.119503 
L 402.422461 345.540255 
L 405.478321 324.042984 
L 408.534181 184.128074 
L 411.590041 325.293977 
L 414.645901 306.84872 
L 417.70176 424.154929 
L 420.75762 303.53364 
L 423.81348 165.745847 
L 426.86934 248.574992 
L 429.9252 392.555886 
L 432.981059 401.690484 
L 436.036919 217.149435 
L 439.092779 389.990295 
L 442.148639 316.338629 
L 445.204499 434.893709 
L 448.260359 405.96994 
L 451.316218 431.83003 
L 454.372078 362.946112 
L 457.427938 355.773283 
L 460.483798 310.475869 
L 463.539658 345.773553 
L 466.595517 317.776828 
L 469.651377 269.740036 
L 472.707237 380.778128 
L 475.763097 422.383308 
L 478.818957 382.827989 
L 481.874816 307.698064 
L 484.930676 363.989988 
L 487.986536 344.525135 
L 491.042396 294.414233 
L 494.098256 399.31593 
L 497.154115 414.832704 
L 500.209975 340.121788 
L 503.265835 285.426511 
L 506.321695 319.31115 
L 509.377555 422.903553 
L 512.433414 409.965537 
L 515.489274 317.050386 
L 518.545134 383.980191 
L 521.600994 156.630593 
L 524.656854 269.662904 
L 527.712713 244.138536 
L 530.768573 284.450095 
L 533.824433 357.227944 
L 536.880293 358.648515 
L 539.936153 279.711317 
L 542.992012 414.963463 
L 546.047872 259.315281 
L 549.103732 434.045215 
L 552.159592 388.7209 
L 555.215452 399.212326 
L 558.271311 298.651374 
L 561.327171 411.380245 
L 564.383031 402.011062 
L 567.438891 285.153268 
L 570.494751 240.906766 
L 573.55061 443.878579 
L 576.60647 193.893833 
L 579.66233 351.568607 
L 582.71819 369.587062 
L 585.77405 424.289359 
L 588.829909 336.025529 
L 591.885769 350.698049 
L 594.941629 293.433647 
L 597.997489 427.403966 
L 601.053349 312.459389 
L 607.165068 389.588623 
L 610.220928 397.971978 
L 613.276788 378.231398 
L 616.332648 97.40988 
L 619.388507 202.745929 
L 622.444367 397.11907 
L 625.500227 435.658885 
L 628.556087 408.563659 
L 631.611947 206.296958 
L 634.667806 317.722979 
L 637.723666 328.699248 
L 640.779526 371.059673 
L 643.835386 381.273801 
L 646.891246 280.982115 
L 649.947105 369.299533 
L 653.002965 246.603489 
L 656.058825 381.300181 
L 659.114685 332.518125 
L 662.170545 377.39266 
L 665.226405 377.397903 
L 668.282264 96.159086 
L 671.338124 396.276715 
L 674.393984 166.128259 
L 677.449844 370.699609 
L 680.505704 366.186328 
L 683.561563 249.187973 
L 686.617423 429.608889 
L 689.673283 430.777362 
L 692.729143 406.610512 
L 695.785003 256.749621 
L 698.840862 386.868935 
L 701.896722 370.907063 
L 704.952582 310.809552 
L 708.008442 215.34958 
L 711.064302 376.350455 
L 714.120161 405.527356 
L 717.176021 303.044099 
L 720.231881 354.73563 
L 723.287741 304.612297 
L 726.343601 259.767284 
L 729.39946 374.282445 
L 732.45532 328.113705 
L 735.51118 385.585568 
L 738.56704 402.604476 
L 741.6229 425.563659 
L 744.678759 412.17768 
L 747.734619 335.907394 
L 750.790479 268.136261 
L 753.846339 365.672107 
L 756.902199 361.275535 
L 759.958058 268.690948 
L 763.013918 377.636887 
L 766.069778 387.984326 
L 769.125638 310.898794 
L 772.181498 312.402 
L 775.237357 408.384547 
L 778.293217 427.63429 
L 781.349077 332.026606 
L 784.404937 390.905283 
L 787.460797 201.558809 
L 790.516656 287.622237 
L 793.572516 180.467907 
L 796.628376 420.238526 
L 799.684236 343.449053 
L 802.740096 371.437164 
L 805.795955 394.510267 
L 808.851815 362.60386 
L 811.907675 380.368079 
L 814.963535 315.650631 
L 818.019395 290.918677 
L 821.075254 320.671297 
L 824.131114 374.598991 
L 827.186974 385.74729 
L 830.242834 265.295364 
L 833.298694 365.889801 
L 836.354553 352.892349 
L 839.410413 361.92558 
L 842.466273 411.931575 
L 845.522133 322.176036 
L 848.577993 354.003134 
L 851.633852 399.61809 
L 854.689712 409.371026 
L 857.745572 434.612058 
L 857.745572 434.612058 
" clip-path="url(#p8425e14d96)" style="fill: none; stroke: #ffa500; stroke-width: 2; stroke-linecap: square"/>
   </g>
   <g id="line2d_16">
    <path d="M 96.836481 334.405981 
L 99.892341 384.702003 
L 102.948201 395.054156 
L 106.004061 384.666043 
L 109.05992 382.052573 
L 112.11578 403.124544 
L 115.17164 386.549048 
L 118.2275 398.460048 
L 121.28336 393.210821 
L 124.339219 389.559277 
L 127.395079 386.546833 
L 130.450939 397.335705 
L 133.506799 387.445833 
L 136.562659 392.082623 
L 139.618518 376.774253 
L 142.674378 394.762281 
L 145.730238 404.404079 
L 151.841958 398.3328 
L 154.897817 399.381742 
L 157.953677 379.056247 
L 161.009537 383.379396 
L 164.065397 379.77363 
L 167.121257 372.547888 
L 170.177116 375.386117 
L 173.232976 376.414451 
L 176.288836 390.36492 
L 179.344696 392.659828 
L 182.400556 399.945243 
L 185.456415 385.287248 
L 188.512275 385.848434 
L 191.568135 390.966696 
L 194.623995 372.451579 
L 197.679855 346.192722 
L 200.735714 372.452208 
L 203.791574 341.88694 
L 206.847434 371.366531 
L 209.903294 376.784753 
L 212.959154 390.588844 
L 216.015013 376.859326 
L 219.070873 365.022522 
L 222.126733 348.262894 
L 225.182593 347.564166 
L 228.238453 371.378257 
L 231.294313 368.242535 
L 234.350172 358.134923 
L 237.406032 375.726974 
L 240.461892 385.644199 
L 243.517752 385.460834 
L 246.573612 363.762178 
L 249.629471 364.707187 
L 252.685331 363.632914 
L 255.741191 355.876857 
L 258.797051 347.79262 
L 261.852911 382.928037 
L 264.90877 378.125647 
L 267.96463 396.698682 
L 271.02049 393.675723 
L 274.07635 400.989028 
L 277.13221 403.855086 
L 280.188069 401.575522 
L 283.243929 404.23303 
L 286.299789 403.82295 
L 289.355649 412.07908 
L 292.411509 410.439865 
L 295.467368 411.487628 
L 298.523228 410.380338 
L 301.579088 414.889527 
L 304.634948 413.548748 
L 307.690808 417.650233 
L 310.746667 409.836602 
L 313.802527 417.344946 
L 316.858387 408.368368 
L 319.914247 410.079066 
L 322.970107 404.955632 
L 326.025966 419.432285 
L 329.081826 417.875085 
L 332.137686 411.655611 
L 335.193546 415.536698 
L 338.249406 408.043897 
L 341.305265 411.941653 
L 344.361125 410.595992 
L 347.416985 408.441492 
L 350.472845 409.308027 
L 353.528705 419.458987 
L 356.584564 423.276553 
L 359.640424 417.481016 
L 362.696284 417.340593 
L 365.752144 406.055641 
L 368.808004 409.076163 
L 371.863863 404.317658 
L 374.919723 398.113918 
L 377.975583 403.502871 
L 381.031443 407.704136 
L 384.087303 404.735279 
L 387.143162 411.993218 
L 390.199022 405.200004 
L 393.254882 410.837851 
L 396.310742 412.387486 
L 399.366602 409.634912 
L 402.422461 394.948513 
L 405.478321 396.63871 
L 408.534181 400.344225 
L 411.590041 417.516961 
L 414.645901 407.293022 
L 417.70176 411.279147 
L 420.75762 404.279582 
L 423.81348 408.709884 
L 426.86934 415.456998 
L 429.9252 414.523378 
L 432.981059 412.556719 
L 436.036919 412.921327 
L 439.092779 411.443543 
L 442.148639 396.798301 
L 445.204499 399.556999 
L 448.260359 404.866704 
L 451.316218 401.975592 
L 454.372078 401.435259 
L 457.427938 384.569704 
L 460.483798 382.830396 
L 463.539658 383.32918 
L 466.595517 392.007292 
L 469.651377 380.633489 
L 472.707237 379.253048 
L 475.763097 373.12172 
L 478.818957 381.606258 
L 481.874816 383.717218 
L 484.930676 370.410103 
L 487.986536 364.365579 
L 491.042396 357.865895 
L 494.098256 380.501129 
L 497.154115 380.271725 
L 500.209975 400.704112 
L 503.265835 399.421849 
L 506.321695 396.628171 
L 509.377555 383.682223 
L 512.433414 395.663358 
L 515.489274 401.612907 
L 518.545134 404.409881 
L 521.600994 393.055721 
L 524.656854 393.946529 
L 527.712713 389.757725 
L 530.768573 405.083524 
L 533.824433 394.371684 
L 536.880293 409.993726 
L 539.936153 409.638545 
L 542.992012 412.767645 
L 546.047872 394.275943 
L 549.103732 379.554802 
L 552.159592 391.829269 
L 555.215452 388.532491 
L 558.271311 378.047978 
L 561.327171 364.749524 
L 567.438891 323.736692 
L 570.494751 351.166836 
L 573.55061 354.897559 
L 576.60647 368.35575 
L 579.66233 350.681969 
L 582.71819 364.027926 
L 585.77405 355.087876 
L 588.829909 358.657314 
L 591.885769 352.788131 
L 594.941629 361.979368 
L 597.997489 382.243166 
L 601.053349 373.429851 
L 604.109208 363.152156 
L 607.165068 368.488647 
L 610.220928 398.686601 
L 613.276788 374.735137 
L 616.332648 333.985478 
L 619.388507 324.212807 
L 622.444367 379.937919 
L 625.500227 332.412375 
L 628.556087 339.803985 
L 631.611947 359.064221 
L 634.667806 383.435544 
L 637.723666 368.705129 
L 640.779526 379.175594 
L 643.835386 401.361185 
L 646.891246 353.673451 
L 649.947105 348.043468 
L 653.002965 343.067392 
L 656.058825 363.065167 
L 659.114685 368.470728 
L 662.170545 367.834371 
L 665.226405 349.044042 
L 668.282264 317.123947 
L 671.338124 328.480482 
L 674.393984 315.768399 
L 677.449844 331.629509 
L 680.505704 333.717385 
L 683.561563 353.013121 
L 689.673283 315.075542 
L 692.729143 348.128157 
L 695.785003 338.856401 
L 698.840862 383.957153 
L 701.896722 398.537334 
L 704.952582 375.643235 
L 708.008442 372.804438 
L 711.064302 366.927377 
L 714.120161 368.305994 
L 717.176021 328.336472 
L 720.231881 321.488559 
L 723.287741 338.401823 
L 726.343601 392.65211 
L 729.39946 388.372241 
L 732.45532 344.088123 
L 735.51118 348.835944 
L 738.56704 378.806625 
L 741.6229 377.409322 
L 747.734619 355.220037 
L 750.790479 371.731652 
L 753.846339 371.535066 
L 756.902199 368.796532 
L 759.958058 360.349488 
L 763.013918 382.096704 
L 766.069778 381.505596 
L 769.125638 364.456032 
L 772.181498 356.154346 
L 775.237357 364.587197 
L 778.293217 369.236748 
L 781.349077 371.027713 
L 784.404937 363.721558 
L 787.460797 382.465167 
L 790.516656 390.024446 
L 793.572516 366.738133 
L 796.628376 362.628125 
L 799.684236 379.937275 
L 802.740096 390.1145 
L 805.795955 384.636751 
L 808.851815 385.847239 
L 811.907675 374.957107 
L 814.963535 393.71235 
L 818.019395 393.060343 
L 821.075254 378.212881 
L 824.131114 373.154308 
L 827.186974 393.836325 
L 830.242834 400.189585 
L 833.298694 398.347906 
L 836.354553 395.737847 
L 839.410413 405.093617 
L 842.466273 391.581854 
L 845.522133 390.608894 
L 848.577993 401.26211 
L 851.633852 405.617763 
L 854.689712 405.296634 
L 857.745572 409.209312 
L 857.745572 409.209312 
" clip-path="url(#p8425e14d96)" style="fill: none; stroke-dasharray: 7.4,3.2; stroke-dashoffset: 0; stroke: #0000ff; stroke-width: 2"/>
   </g>
   <g id="line2d_17">
    <path d="M 96.836481 356.514992 
L 99.892341 371.436582 
L 102.948201 390.507382 
L 106.004061 328.162833 
L 109.05992 385.026022 
L 112.11578 371.556587 
L 115.17164 364.919194 
L 118.2275 374.974597 
L 121.28336 424.323794 
L 124.339219 443.425105 
L 127.395079 362.383377 
L 130.450939 307.213427 
L 133.506799 392.182143 
L 136.562659 284.152909 
L 139.618518 387.490178 
L 142.674378 303.859107 
L 145.730238 397.245613 
L 148.786098 259.120872 
L 151.841958 167.228467 
L 154.897817 202.687834 
L 157.953677 346.419091 
L 161.009537 304.499158 
L 164.065397 384.378882 
L 167.121257 190.867371 
L 170.177116 355.433316 
L 173.232976 261.523668 
L 176.288836 448.639437 
L 179.344696 270.515069 
L 182.400556 393.152688 
L 185.456415 361.570729 
L 188.512275 427.51092 
L 191.568135 340.87346 
L 194.623995 389.105749 
L 197.679855 394.210728 
L 200.735714 421.422235 
L 203.791574 210.968888 
L 206.847434 200.855084 
L 209.903294 430.04118 
L 212.959154 451.345299 
L 216.015013 227.578176 
L 219.070873 400.120837 
L 222.126733 332.115572 
L 225.182593 425.899266 
L 228.238453 357.845233 
L 231.294313 385.411737 
L 234.350172 382.426524 
L 237.406032 441.245719 
L 240.461892 428.167732 
L 243.517752 433.869468 
L 246.573612 410.953978 
L 249.629471 435.830363 
L 252.685331 341.19977 
L 255.741191 270.572765 
L 258.797051 337.767214 
L 261.852911 409.915536 
L 264.90877 416.15847 
L 267.96463 419.19035 
L 271.02049 399.031796 
L 274.07635 425.600945 
L 277.13221 331.419772 
L 280.188069 424.404398 
L 283.243929 426.965767 
L 286.299789 360.784277 
L 289.355649 442.685175 
L 292.411509 352.845245 
L 295.467368 388.823531 
L 298.523228 331.599711 
L 301.579088 388.578216 
L 304.634948 375.97842 
L 307.690808 416.352496 
L 310.746667 289.585493 
L 313.802527 425.521069 
L 316.858387 357.617959 
L 319.914247 424.259813 
L 322.970107 340.781658 
L 326.025966 443.979578 
L 329.081826 440.897536 
L 332.137686 291.511977 
L 335.193546 436.995342 
L 338.249406 368.976165 
L 341.305265 371.07077 
L 344.361125 382.256303 
L 347.416985 347.647092 
L 350.472845 438.283039 
L 353.528705 395.044185 
L 356.584564 354.154609 
L 359.640424 378.454977 
L 362.696284 404.839351 
L 365.752144 236.772125 
L 368.808004 324.625063 
L 371.863863 407.05436 
L 374.919723 323.188244 
L 377.975583 330.926827 
L 381.031443 274.992498 
L 384.087303 406.148814 
L 390.199022 285.116955 
L 393.254882 374.100129 
L 396.310742 384.941517 
L 399.366602 376.812176 
L 402.422461 361.022434 
L 405.478321 252.344358 
L 408.534181 358.869274 
L 411.590041 426.613881 
L 414.645901 381.098092 
L 417.70176 275.500663 
L 420.75762 250.585183 
L 423.81348 375.53238 
L 426.86934 331.365387 
L 429.9252 427.066627 
L 432.981059 207.174659 
L 436.036919 422.362508 
L 439.092779 308.853822 
L 442.148639 305.150613 
L 445.204499 367.63521 
L 448.260359 424.802361 
L 451.316218 350.376444 
L 454.372078 370.070288 
L 457.427938 365.901741 
L 460.483798 391.160952 
L 463.539658 337.907116 
L 466.595517 286.896562 
L 469.651377 375.225583 
L 472.707237 361.95075 
L 475.763097 192.593497 
L 478.818957 429.183366 
L 481.874816 246.978329 
L 484.930676 286.225885 
L 487.986536 276.787939 
L 491.042396 390.745431 
L 494.098256 305.590246 
L 497.154115 377.921213 
L 500.209975 178.01258 
L 503.265835 379.576952 
L 506.321695 283.360938 
L 509.377555 426.050066 
L 512.433414 239.69135 
L 515.489274 380.876766 
L 518.545134 272.702947 
L 521.600994 378.086575 
L 524.656854 240.733034 
L 527.712713 374.447117 
L 530.768573 190.736099 
L 533.824433 379.465453 
L 536.880293 250.00384 
L 539.936153 423.991245 
L 542.992012 169.1603 
L 546.047872 431.104163 
L 549.103732 398.25756 
L 552.159592 391.647873 
L 555.215452 276.062708 
L 558.271311 426.948829 
L 561.327171 378.660101 
L 564.383031 306.139109 
L 567.438891 283.268861 
L 570.494751 375.296155 
L 573.55061 178.934826 
L 576.60647 289.422722 
L 579.66233 404.781486 
L 582.71819 381.842176 
L 585.77405 349.301237 
L 588.829909 387.870751 
L 591.885769 395.449168 
L 594.941629 326.303886 
L 597.997489 238.389727 
L 601.053349 354.383783 
L 604.109208 254.451915 
L 607.165068 427.08637 
L 610.220928 272.338975 
L 613.276788 321.356735 
L 616.332648 355.222735 
L 619.388507 418.777435 
L 622.444367 419.716634 
L 625.500227 426.090548 
L 628.556087 217.378318 
L 631.611947 163.353397 
L 634.667806 212.634253 
L 637.723666 342.820069 
L 640.779526 334.659267 
L 643.835386 319.32024 
L 646.891246 403.839535 
L 649.947105 408.508071 
L 653.002965 288.563322 
L 656.058825 259.732167 
L 659.114685 251.879265 
L 662.170545 343.824184 
L 665.226405 61.037187 
L 668.282264 283.784292 
L 671.338124 329.94992 
L 674.393984 442.942561 
L 677.449844 404.707113 
L 680.505704 387.647953 
L 683.561563 294.016891 
L 686.617423 416.375504 
L 689.673283 315.33712 
L 692.729143 357.897978 
L 695.785003 377.001665 
L 698.840862 378.033892 
L 701.896722 431.780381 
L 704.952582 297.818968 
L 708.008442 420.186126 
L 711.064302 397.450346 
L 714.120161 236.485393 
L 717.176021 356.667172 
L 720.231881 393.269406 
L 723.287741 253.66416 
L 726.343601 419.715139 
L 729.39946 338.472702 
L 732.45532 311.619978 
L 735.51118 368.565672 
L 738.56704 329.132719 
L 741.6229 416.277724 
L 744.678759 411.260017 
L 747.734619 263.053362 
L 750.790479 319.16317 
L 753.846339 423.620084 
L 756.902199 360.764335 
L 759.958058 357.484235 
L 763.013918 355.261056 
L 766.069778 320.26951 
L 769.125638 454.741373 
L 772.181498 339.82756 
L 775.237357 405.588662 
L 778.293217 245.959575 
L 781.349077 402.589278 
L 784.404937 163.426329 
L 787.460797 321.908433 
L 790.516656 208.227656 
L 793.572516 464.237187 
L 796.628376 398.231732 
L 799.684236 307.501554 
L 802.740096 372.933181 
L 805.795955 329.453404 
L 808.851815 349.903779 
L 811.907675 406.352137 
L 814.963535 277.312966 
L 818.019395 372.26232 
L 821.075254 308.386599 
L 824.131114 247.688369 
L 827.186974 238.907151 
L 830.242834 420.067722 
L 833.298694 306.766621 
L 836.354553 360.916561 
L 839.410413 389.70767 
L 842.466273 337.910473 
L 845.522133 263.129038 
L 848.577993 319.523586 
L 851.633852 389.286225 
L 854.689712 426.876433 
L 857.745572 284.597232 
L 857.745572 284.597232 
" clip-path="url(#p8425e14d96)" style="fill: none; stroke-dasharray: 7.4,3.2; stroke-dashoffset: 0; stroke: #ffa500; stroke-width: 2"/>
   </g>
   <g id="patch_3">
    <path d="M 58.791027 484.397187 
L 58.791027 40.877187 
" style="fill: none; stroke: #000000; stroke-width: 0.8; stroke-linejoin: miter; stroke-linecap: square"/>
   </g>
   <g id="patch_4">
    <path d="M 895.791027 484.397187 
L 895.791027 40.877187 
" style="fill: none; stroke: #000000; stroke-width: 0.8; stroke-linejoin: miter; stroke-linecap: square"/>
   </g>
   <g id="patch_5">
    <path d="M 58.791027 484.397187 
L 895.791027 484.397187 
" style="fill: none; stroke: #000000; stroke-width: 0.8; stroke-linejoin: miter; stroke-linecap: square"/>
   </g>
   <g id="patch_6">
    <path d="M 58.791027 40.877187 
L 895.791027 40.877187 
" style="fill: none; stroke: #000000; stroke-width: 0.8; stroke-linejoin: miter; stroke-linecap: square"/>
   </g>
   <g id="text_16">
    <!-- Southward wind speed two steps forward prediction: RMSES -->
    <g transform="translate(206.137902 20.877187) scale(0.18 -0.18)">
     <defs>
      <path id="DejaVuSans-68" d="M 3513 2113 
L 3513 0 
L 2938 0 
L 2938 2094 
Q 2938 2591 2744 2837 
Q 2550 3084 2163 3084 
Q 1697 3084 1428 2787 
Q 1159 2491 1159 1978 
L 1159 0 
L 581 0 
L 581 4863 
L 1159 4863 
L 1159 2956 
Q 1366 3272 1645 3428 
Q 1925 3584 2291 3584 
Q 2894 3584 3203 3211 
Q 3513 2838 3513 2113 
z
" transform="scale(0.015625)"/>
      <path id="DejaVuSans-77" d="M 269 3500 
L 844 3500 
L 1563 769 
L 2278 3500 
L 2956 3500 
L 3675 769 
L 4391 3500 
L 4966 3500 
L 4050 0 
L 3372 0 
L 2619 2869 
L 1863 0 
L 1184 0 
L 269 3500 
z
" transform="scale(0.015625)"/>
      <path id="DejaVuSans-69" d="M 603 3500 
L 1178 3500 
L 1178 0 
L 603 0 
L 603 3500 
z
M 603 4863 
L 1178 4863 
L 1178 4134 
L 603 4134 
L 603 4863 
z
" transform="scale(0.015625)"/>
      <path id="DejaVuSans-70" d="M 1159 525 
L 1159 -1331 
L 581 -1331 
L 581 3500 
L 1159 3500 
L 1159 2969 
Q 1341 3281 1617 3432 
Q 1894 3584 2278 3584 
Q 2916 3584 3314 3078 
Q 3713 2572 3713 1747 
Q 3713 922 3314 415 
Q 2916 -91 2278 -91 
Q 1894 -91 1617 61 
Q 1341 213 1159 525 
z
M 3116 1747 
Q 3116 2381 2855 2742 
Q 2594 3103 2138 3103 
Q 1681 3103 1420 2742 
Q 1159 2381 1159 1747 
Q 1159 1113 1420 752 
Q 1681 391 2138 391 
Q 2594 391 2855 752 
Q 3116 1113 3116 1747 
z
" transform="scale(0.015625)"/>
      <path id="DejaVuSans-66" d="M 2375 4863 
L 2375 4384 
L 1825 4384 
Q 1516 4384 1395 4259 
Q 1275 4134 1275 3809 
L 1275 3500 
L 2222 3500 
L 2222 3053 
L 1275 3053 
L 1275 0 
L 697 0 
L 697 3053 
L 147 3053 
L 147 3500 
L 697 3500 
L 697 3744 
Q 697 4328 969 4595 
Q 1241 4863 1831 4863 
L 2375 4863 
z
" transform="scale(0.015625)"/>
     </defs>
     <use xlink:href="#DejaVuSans-53"/>
     <use xlink:href="#DejaVuSans-6f" transform="translate(63.476562 0)"/>
     <use xlink:href="#DejaVuSans-75" transform="translate(124.658203 0)"/>
     <use xlink:href="#DejaVuSans-74" transform="translate(188.037109 0)"/>
     <use xlink:href="#DejaVuSans-68" transform="translate(227.246094 0)"/>
     <use xlink:href="#DejaVuSans-77" transform="translate(290.625 0)"/>
     <use xlink:href="#DejaVuSans-61" transform="translate(372.412109 0)"/>
     <use xlink:href="#DejaVuSans-72" transform="translate(433.691406 0)"/>
     <use xlink:href="#DejaVuSans-64" transform="translate(473.054688 0)"/>
     <use xlink:href="#DejaVuSans-20" transform="translate(536.53125 0)"/>
     <use xlink:href="#DejaVuSans-77" transform="translate(568.318359 0)"/>
     <use xlink:href="#DejaVuSans-69" transform="translate(650.105469 0)"/>
     <use xlink:href="#DejaVuSans-6e" transform="translate(677.888672 0)"/>
     <use xlink:href="#DejaVuSans-64" transform="translate(741.267578 0)"/>
     <use xlink:href="#DejaVuSans-20" transform="translate(804.744141 0)"/>
     <use xlink:href="#DejaVuSans-73" transform="translate(836.53125 0)"/>
     <use xlink:href="#DejaVuSans-70" transform="translate(888.630859 0)"/>
     <use xlink:href="#DejaVuSans-65" transform="translate(952.107422 0)"/>
     <use xlink:href="#DejaVuSans-65" transform="translate(1013.630859 0)"/>
     <use xlink:href="#DejaVuSans-64" transform="translate(1075.154297 0)"/>
     <use xlink:href="#DejaVuSans-20" transform="translate(1138.630859 0)"/>
     <use xlink:href="#DejaVuSans-74" transform="translate(1170.417969 0)"/>
     <use xlink:href="#DejaVuSans-77" transform="translate(1209.626953 0)"/>
     <use xlink:href="#DejaVuSans-6f" transform="translate(1291.414062 0)"/>
     <use xlink:href="#DejaVuSans-20" transform="translate(1352.595703 0)"/>
     <use xlink:href="#DejaVuSans-73" transform="translate(1384.382812 0)"/>
     <use xlink:href="#DejaVuSans-74" transform="translate(1436.482422 0)"/>
     <use xlink:href="#DejaVuSans-65" transform="translate(1475.691406 0)"/>
     <use xlink:href="#DejaVuSans-70" transform="translate(1537.214844 0)"/>
     <use xlink:href="#DejaVuSans-73" transform="translate(1600.691406 0)"/>
     <use xlink:href="#DejaVuSans-20" transform="translate(1652.791016 0)"/>
     <use xlink:href="#DejaVuSans-66" transform="translate(1684.578125 0)"/>
     <use xlink:href="#DejaVuSans-6f" transform="translate(1719.783203 0)"/>
     <use xlink:href="#DejaVuSans-72" transform="translate(1780.964844 0)"/>
     <use xlink:href="#DejaVuSans-77" transform="translate(1822.078125 0)"/>
     <use xlink:href="#DejaVuSans-61" transform="translate(1903.865234 0)"/>
     <use xlink:href="#DejaVuSans-72" transform="translate(1965.144531 0)"/>
     <use xlink:href="#DejaVuSans-64" transform="translate(2004.507812 0)"/>
     <use xlink:href="#DejaVuSans-20" transform="translate(2067.984375 0)"/>
     <use xlink:href="#DejaVuSans-70" transform="translate(2099.771484 0)"/>
     <use xlink:href="#DejaVuSans-72" transform="translate(2163.248047 0)"/>
     <use xlink:href="#DejaVuSans-65" transform="translate(2202.111328 0)"/>
     <use xlink:href="#DejaVuSans-64" transform="translate(2263.634766 0)"/>
     <use xlink:href="#DejaVuSans-69" transform="translate(2327.111328 0)"/>
     <use xlink:href="#DejaVuSans-63" transform="translate(2354.894531 0)"/>
     <use xlink:href="#DejaVuSans-74" transform="translate(2409.875 0)"/>
     <use xlink:href="#DejaVuSans-69" transform="translate(2449.083984 0)"/>
     <use xlink:href="#DejaVuSans-6f" transform="translate(2476.867188 0)"/>
     <use xlink:href="#DejaVuSans-6e" transform="translate(2538.048828 0)"/>
     <use xlink:href="#DejaVuSans-3a" transform="translate(2601.427734 0)"/>
     <use xlink:href="#DejaVuSans-20" transform="translate(2635.119141 0)"/>
     <use xlink:href="#DejaVuSans-52" transform="translate(2666.90625 0)"/>
     <use xlink:href="#DejaVuSans-4d" transform="translate(2736.388672 0)"/>
     <use xlink:href="#DejaVuSans-53" transform="translate(2822.667969 0)"/>
     <use xlink:href="#DejaVuSans-45" transform="translate(2886.144531 0)"/>
     <use xlink:href="#DejaVuSans-53" transform="translate(2949.328125 0)"/>
    </g>
   </g>
   <g id="legend_1">
    <g id="text_17">
     <!-- Forecast Horizon -->
     <g transform="translate(1020.26087 65.634687) scale(0.16 -0.16)">
      <defs>
       <path id="DejaVuSans-48" d="M 628 4666 
L 1259 4666 
L 1259 2753 
L 3553 2753 
L 3553 4666 
L 4184 4666 
L 4184 0 
L 3553 0 
L 3553 2222 
L 1259 2222 
L 1259 0 
L 628 0 
L 628 4666 
z
" transform="scale(0.015625)"/>
       <path id="DejaVuSans-7a" d="M 353 3500 
L 3084 3500 
L 3084 2975 
L 922 459 
L 3084 459 
L 3084 0 
L 275 0 
L 275 525 
L 2438 3041 
L 353 3041 
L 353 3500 
z
" transform="scale(0.015625)"/>
      </defs>
      <use xlink:href="#DejaVuSans-46"/>
      <use xlink:href="#DejaVuSans-6f" transform="translate(53.894531 0)"/>
      <use xlink:href="#DejaVuSans-72" transform="translate(115.076172 0)"/>
      <use xlink:href="#DejaVuSans-65" transform="translate(153.939453 0)"/>
      <use xlink:href="#DejaVuSans-63" transform="translate(215.462891 0)"/>
      <use xlink:href="#DejaVuSans-61" transform="translate(270.443359 0)"/>
      <use xlink:href="#DejaVuSans-73" transform="translate(331.722656 0)"/>
      <use xlink:href="#DejaVuSans-74" transform="translate(383.822266 0)"/>
      <use xlink:href="#DejaVuSans-20" transform="translate(423.03125 0)"/>
      <use xlink:href="#DejaVuSans-48" transform="translate(454.818359 0)"/>
      <use xlink:href="#DejaVuSans-6f" transform="translate(530.013672 0)"/>
      <use xlink:href="#DejaVuSans-72" transform="translate(591.195312 0)"/>
      <use xlink:href="#DejaVuSans-69" transform="translate(632.308594 0)"/>
      <use xlink:href="#DejaVuSans-7a" transform="translate(660.091797 0)"/>
      <use xlink:href="#DejaVuSans-6f" transform="translate(712.582031 0)"/>
      <use xlink:href="#DejaVuSans-6e" transform="translate(773.763672 0)"/>
     </g>
    </g>
    <g id="line2d_18">
     <path d="M 950.241027 81.7 
L 964.241027 81.7 
L 978.241027 81.7 
" style="fill: none; stroke: #0000ff; stroke-width: 2; stroke-linecap: square"/>
    </g>
    <g id="text_18">
     <!-- Global RMSE (6h Forecast) -->
     <g transform="translate(989.441027 86.6) scale(0.14 -0.14)">
      <defs>
       <path id="DejaVuSans-47" d="M 3809 666 
L 3809 1919 
L 2778 1919 
L 2778 2438 
L 4434 2438 
L 4434 434 
Q 4069 175 3628 42 
Q 3188 -91 2688 -91 
Q 1594 -91 976 548 
Q 359 1188 359 2328 
Q 359 3472 976 4111 
Q 1594 4750 2688 4750 
Q 3144 4750 3555 4637 
Q 3966 4525 4313 4306 
L 4313 3634 
Q 3963 3931 3569 4081 
Q 3175 4231 2741 4231 
Q 1884 4231 1454 3753 
Q 1025 3275 1025 2328 
Q 1025 1384 1454 906 
Q 1884 428 2741 428 
Q 3075 428 3337 486 
Q 3600 544 3809 666 
z
" transform="scale(0.015625)"/>
       <path id="DejaVuSans-6c" d="M 603 4863 
L 1178 4863 
L 1178 0 
L 603 0 
L 603 4863 
z
" transform="scale(0.015625)"/>
       <path id="DejaVuSans-62" d="M 3116 1747 
Q 3116 2381 2855 2742 
Q 2594 3103 2138 3103 
Q 1681 3103 1420 2742 
Q 1159 2381 1159 1747 
Q 1159 1113 1420 752 
Q 1681 391 2138 391 
Q 2594 391 2855 752 
Q 3116 1113 3116 1747 
z
M 1159 2969 
Q 1341 3281 1617 3432 
Q 1894 3584 2278 3584 
Q 2916 3584 3314 3078 
Q 3713 2572 3713 1747 
Q 3713 922 3314 415 
Q 2916 -91 2278 -91 
Q 1894 -91 1617 61 
Q 1341 213 1159 525 
L 1159 0 
L 581 0 
L 581 4863 
L 1159 4863 
L 1159 2969 
z
" transform="scale(0.015625)"/>
      </defs>
      <use xlink:href="#DejaVuSans-47"/>
      <use xlink:href="#DejaVuSans-6c" transform="translate(77.490234 0)"/>
      <use xlink:href="#DejaVuSans-6f" transform="translate(105.273438 0)"/>
      <use xlink:href="#DejaVuSans-62" transform="translate(166.455078 0)"/>
      <use xlink:href="#DejaVuSans-61" transform="translate(229.931641 0)"/>
      <use xlink:href="#DejaVuSans-6c" transform="translate(291.210938 0)"/>
      <use xlink:href="#DejaVuSans-20" transform="translate(318.994141 0)"/>
      <use xlink:href="#DejaVuSans-52" transform="translate(350.78125 0)"/>
      <use xlink:href="#DejaVuSans-4d" transform="translate(420.263672 0)"/>
      <use xlink:href="#DejaVuSans-53" transform="translate(506.542969 0)"/>
      <use xlink:href="#DejaVuSans-45" transform="translate(570.019531 0)"/>
      <use xlink:href="#DejaVuSans-20" transform="translate(633.203125 0)"/>
      <use xlink:href="#DejaVuSans-28" transform="translate(664.990234 0)"/>
      <use xlink:href="#DejaVuSans-36" transform="translate(704.003906 0)"/>
      <use xlink:href="#DejaVuSans-68" transform="translate(767.626953 0)"/>
      <use xlink:href="#DejaVuSans-20" transform="translate(831.005859 0)"/>
      <use xlink:href="#DejaVuSans-46" transform="translate(862.792969 0)"/>
      <use xlink:href="#DejaVuSans-6f" transform="translate(916.6875 0)"/>
      <use xlink:href="#DejaVuSans-72" transform="translate(977.869141 0)"/>
      <use xlink:href="#DejaVuSans-65" transform="translate(1016.732422 0)"/>
      <use xlink:href="#DejaVuSans-63" transform="translate(1078.255859 0)"/>
      <use xlink:href="#DejaVuSans-61" transform="translate(1133.236328 0)"/>
      <use xlink:href="#DejaVuSans-73" transform="translate(1194.515625 0)"/>
      <use xlink:href="#DejaVuSans-74" transform="translate(1246.615234 0)"/>
      <use xlink:href="#DejaVuSans-29" transform="translate(1285.824219 0)"/>
     </g>
    </g>
    <g id="line2d_19">
     <path d="M 950.241027 102.249375 
L 964.241027 102.249375 
L 978.241027 102.249375 
" style="fill: none; stroke: #ffa500; stroke-width: 2; stroke-linecap: square"/>
    </g>
    <g id="text_19">
     <!-- South Africa RMSE (6h Forecast) -->
     <g transform="translate(989.441027 107.149375) scale(0.14 -0.14)">
      <defs>
       <path id="DejaVuSans-41" d="M 2188 4044 
L 1331 1722 
L 3047 1722 
L 2188 4044 
z
M 1831 4666 
L 2547 4666 
L 4325 0 
L 3669 0 
L 3244 1197 
L 1141 1197 
L 716 0 
L 50 0 
L 1831 4666 
z
" transform="scale(0.015625)"/>
      </defs>
      <use xlink:href="#DejaVuSans-53"/>
      <use xlink:href="#DejaVuSans-6f" transform="translate(63.476562 0)"/>
      <use xlink:href="#DejaVuSans-75" transform="translate(124.658203 0)"/>
      <use xlink:href="#DejaVuSans-74" transform="translate(188.037109 0)"/>
      <use xlink:href="#DejaVuSans-68" transform="translate(227.246094 0)"/>
      <use xlink:href="#DejaVuSans-20" transform="translate(290.625 0)"/>
      <use xlink:href="#DejaVuSans-41" transform="translate(322.412109 0)"/>
      <use xlink:href="#DejaVuSans-66" transform="translate(387.195312 0)"/>
      <use xlink:href="#DejaVuSans-72" transform="translate(422.400391 0)"/>
      <use xlink:href="#DejaVuSans-69" transform="translate(463.513672 0)"/>
      <use xlink:href="#DejaVuSans-63" transform="translate(491.296875 0)"/>
      <use xlink:href="#DejaVuSans-61" transform="translate(546.277344 0)"/>
      <use xlink:href="#DejaVuSans-20" transform="translate(607.556641 0)"/>
      <use xlink:href="#DejaVuSans-52" transform="translate(639.34375 0)"/>
      <use xlink:href="#DejaVuSans-4d" transform="translate(708.826172 0)"/>
      <use xlink:href="#DejaVuSans-53" transform="translate(795.105469 0)"/>
      <use xlink:href="#DejaVuSans-45" transform="translate(858.582031 0)"/>
      <use xlink:href="#DejaVuSans-20" transform="translate(921.765625 0)"/>
      <use xlink:href="#DejaVuSans-28" transform="translate(953.552734 0)"/>
      <use xlink:href="#DejaVuSans-36" transform="translate(992.566406 0)"/>
      <use xlink:href="#DejaVuSans-68" transform="translate(1056.189453 0)"/>
      <use xlink:href="#DejaVuSans-20" transform="translate(1119.568359 0)"/>
      <use xlink:href="#DejaVuSans-46" transform="translate(1151.355469 0)"/>
      <use xlink:href="#DejaVuSans-6f" transform="translate(1205.25 0)"/>
      <use xlink:href="#DejaVuSans-72" transform="translate(1266.431641 0)"/>
      <use xlink:href="#DejaVuSans-65" transform="translate(1305.294922 0)"/>
      <use xlink:href="#DejaVuSans-63" transform="translate(1366.818359 0)"/>
      <use xlink:href="#DejaVuSans-61" transform="translate(1421.798828 0)"/>
      <use xlink:href="#DejaVuSans-73" transform="translate(1483.078125 0)"/>
      <use xlink:href="#DejaVuSans-74" transform="translate(1535.177734 0)"/>
      <use xlink:href="#DejaVuSans-29" transform="translate(1574.386719 0)"/>
     </g>
    </g>
    <g id="line2d_20">
     <path d="M 950.241027 122.79875 
L 964.241027 122.79875 
L 978.241027 122.79875 
" style="fill: none; stroke-dasharray: 7.4,3.2; stroke-dashoffset: 0; stroke: #0000ff; stroke-width: 2"/>
    </g>
    <g id="text_20">
     <!-- Global RMSE (12h Forecast) -->
     <g transform="translate(989.441027 127.69875) scale(0.14 -0.14)">
      <use xlink:href="#DejaVuSans-47"/>
      <use xlink:href="#DejaVuSans-6c" transform="translate(77.490234 0)"/>
      <use xlink:href="#DejaVuSans-6f" transform="translate(105.273438 0)"/>
      <use xlink:href="#DejaVuSans-62" transform="translate(166.455078 0)"/>
      <use xlink:href="#DejaVuSans-61" transform="translate(229.931641 0)"/>
      <use xlink:href="#DejaVuSans-6c" transform="translate(291.210938 0)"/>
      <use xlink:href="#DejaVuSans-20" transform="translate(318.994141 0)"/>
      <use xlink:href="#DejaVuSans-52" transform="translate(350.78125 0)"/>
      <use xlink:href="#DejaVuSans-4d" transform="translate(420.263672 0)"/>
      <use xlink:href="#DejaVuSans-53" transform="translate(506.542969 0)"/>
      <use xlink:href="#DejaVuSans-45" transform="translate(570.019531 0)"/>
      <use xlink:href="#DejaVuSans-20" transform="translate(633.203125 0)"/>
      <use xlink:href="#DejaVuSans-28" transform="translate(664.990234 0)"/>
      <use xlink:href="#DejaVuSans-31" transform="translate(704.003906 0)"/>
      <use xlink:href="#DejaVuSans-32" transform="translate(767.626953 0)"/>
      <use xlink:href="#DejaVuSans-68" transform="translate(831.25 0)"/>
      <use xlink:href="#DejaVuSans-20" transform="translate(894.628906 0)"/>
      <use xlink:href="#DejaVuSans-46" transform="translate(926.416016 0)"/>
      <use xlink:href="#DejaVuSans-6f" transform="translate(980.310547 0)"/>
      <use xlink:href="#DejaVuSans-72" transform="translate(1041.492188 0)"/>
      <use xlink:href="#DejaVuSans-65" transform="translate(1080.355469 0)"/>
      <use xlink:href="#DejaVuSans-63" transform="translate(1141.878906 0)"/>
      <use xlink:href="#DejaVuSans-61" transform="translate(1196.859375 0)"/>
      <use xlink:href="#DejaVuSans-73" transform="translate(1258.138672 0)"/>
      <use xlink:href="#DejaVuSans-74" transform="translate(1310.238281 0)"/>
      <use xlink:href="#DejaVuSans-29" transform="translate(1349.447266 0)"/>
     </g>
    </g>
    <g id="line2d_21">
     <path d="M 950.241027 143.348125 
L 964.241027 143.348125 
L 978.241027 143.348125 
" style="fill: none; stroke-dasharray: 7.4,3.2; stroke-dashoffset: 0; stroke: #ffa500; stroke-width: 2"/>
    </g>
    <g id="text_21">
     <!-- South Africa RMSE (12h Forecast) -->
     <g transform="translate(989.441027 148.248125) scale(0.14 -0.14)">
      <use xlink:href="#DejaVuSans-53"/>
      <use xlink:href="#DejaVuSans-6f" transform="translate(63.476562 0)"/>
      <use xlink:href="#DejaVuSans-75" transform="translate(124.658203 0)"/>
      <use xlink:href="#DejaVuSans-74" transform="translate(188.037109 0)"/>
      <use xlink:href="#DejaVuSans-68" transform="translate(227.246094 0)"/>
      <use xlink:href="#DejaVuSans-20" transform="translate(290.625 0)"/>
      <use xlink:href="#DejaVuSans-41" transform="translate(322.412109 0)"/>
      <use xlink:href="#DejaVuSans-66" transform="translate(387.195312 0)"/>
      <use xlink:href="#DejaVuSans-72" transform="translate(422.400391 0)"/>
      <use xlink:href="#DejaVuSans-69" transform="translate(463.513672 0)"/>
      <use xlink:href="#DejaVuSans-63" transform="translate(491.296875 0)"/>
      <use xlink:href="#DejaVuSans-61" transform="translate(546.277344 0)"/>
      <use xlink:href="#DejaVuSans-20" transform="translate(607.556641 0)"/>
      <use xlink:href="#DejaVuSans-52" transform="translate(639.34375 0)"/>
      <use xlink:href="#DejaVuSans-4d" transform="translate(708.826172 0)"/>
      <use xlink:href="#DejaVuSans-53" transform="translate(795.105469 0)"/>
      <use xlink:href="#DejaVuSans-45" transform="translate(858.582031 0)"/>
      <use xlink:href="#DejaVuSans-20" transform="translate(921.765625 0)"/>
      <use xlink:href="#DejaVuSans-28" transform="translate(953.552734 0)"/>
      <use xlink:href="#DejaVuSans-31" transform="translate(992.566406 0)"/>
      <use xlink:href="#DejaVuSans-32" transform="translate(1056.189453 0)"/>
      <use xlink:href="#DejaVuSans-68" transform="translate(1119.8125 0)"/>
      <use xlink:href="#DejaVuSans-20" transform="translate(1183.191406 0)"/>
      <use xlink:href="#DejaVuSans-46" transform="translate(1214.978516 0)"/>
      <use xlink:href="#DejaVuSans-6f" transform="translate(1268.873047 0)"/>
      <use xlink:href="#DejaVuSans-72" transform="translate(1330.054688 0)"/>
      <use xlink:href="#DejaVuSans-65" transform="translate(1368.917969 0)"/>
      <use xlink:href="#DejaVuSans-63" transform="translate(1430.441406 0)"/>
      <use xlink:href="#DejaVuSans-61" transform="translate(1485.421875 0)"/>
      <use xlink:href="#DejaVuSans-73" transform="translate(1546.701172 0)"/>
      <use xlink:href="#DejaVuSans-74" transform="translate(1598.800781 0)"/>
      <use xlink:href="#DejaVuSans-29" transform="translate(1638.009766 0)"/>
     </g>
    </g>
   </g>
  </g>
 </g>
 <defs>
  <clipPath id="p8425e14d96">
   <rect x="58.791027" y="40.877187" width="837" height="443.52"/>
  </clipPath>
 </defs>
</svg>
