<?xml version="1.0" encoding="utf-8" standalone="no"?>
<!DOCTYPE svg PUBLIC "-//W3C//DTD SVG 1.1//EN"
  "http://www.w3.org/Graphics/SVG/1.1/DTD/svg11.dtd">
<svg xmlns:xlink="http://www.w3.org/1999/xlink" width="1237.023214pt" height="575.421502pt" viewBox="0 0 1237.023214 575.421502" xmlns="http://www.w3.org/2000/svg" version="1.1">
 <metadata>
  <rdf:RDF xmlns:dc="http://purl.org/dc/elements/1.1/" xmlns:cc="http://creativecommons.org/ns#" xmlns:rdf="http://www.w3.org/1999/02/22-rdf-syntax-ns#">
   <cc:Work>
    <dc:type rdf:resource="http://purl.org/dc/dcmitype/StillImage"/>
    <dc:date>2025-02-18T09:44:27.080063</dc:date>
    <dc:format>image/svg+xml</dc:format>
    <dc:creator>
     <cc:Agent>
      <dc:title>Matplotlib v3.10.0, https://matplotlib.org/</dc:title>
     </cc:Agent>
    </dc:creator>
   </cc:Work>
  </rdf:RDF>
 </metadata>
 <defs>
  <style type="text/css">*{stroke-linejoin: round; stroke-linecap: butt}</style>
 </defs>
 <g id="figure_1">
  <g id="patch_1">
   <path d="M 0 575.421502 
L 1237.023214 575.421502 
L 1237.023214 0 
L 0 0 
z
" style="fill: #ffffff"/>
  </g>
  <g id="axes_1">
   <g id="patch_2">
    <path d="M 58.791027 484.397187 
L 895.791027 484.397187 
L 895.791027 40.877187 
L 58.791027 40.877187 
z
" style="fill: #ffffff"/>
   </g>
   <g id="matplotlib.axis_1">
    <g id="xtick_1">
     <g id="line2d_1">
      <defs>
       <path id="mc3e22bce9c" d="M 0 0 
L 0 3.5 
" style="stroke: #000000; stroke-width: 0.8"/>
      </defs>
      <g>
       <use xlink:href="#mc3e22bce9c" x="96.836481" y="484.397187" style="stroke: #000000; stroke-width: 0.8"/>
      </g>
     </g>
     <g id="text_1">
      <!-- 2022-01-01 (12:00) -->
      <g transform="translate(10.999219 546.93544) rotate(-30) scale(0.1 -0.1)">
       <defs>
        <path id="DejaVuSans-32" d="M 1228 531 
L 3431 531 
L 3431 0 
L 469 0 
L 469 531 
Q 828 903 1448 1529 
Q 2069 2156 2228 2338 
Q 2531 2678 2651 2914 
Q 2772 3150 2772 3378 
Q 2772 3750 2511 3984 
Q 2250 4219 1831 4219 
Q 1534 4219 1204 4116 
Q 875 4013 500 3803 
L 500 4441 
Q 881 4594 1212 4672 
Q 1544 4750 1819 4750 
Q 2544 4750 2975 4387 
Q 3406 4025 3406 3419 
Q 3406 3131 3298 2873 
Q 3191 2616 2906 2266 
Q 2828 2175 2409 1742 
Q 1991 1309 1228 531 
z
" transform="scale(0.015625)"/>
        <path id="DejaVuSans-30" d="M 2034 4250 
Q 1547 4250 1301 3770 
Q 1056 3291 1056 2328 
Q 1056 1369 1301 889 
Q 1547 409 2034 409 
Q 2525 409 2770 889 
Q 3016 1369 3016 2328 
Q 3016 3291 2770 3770 
Q 2525 4250 2034 4250 
z
M 2034 4750 
Q 2819 4750 3233 4129 
Q 3647 3509 3647 2328 
Q 3647 1150 3233 529 
Q 2819 -91 2034 -91 
Q 1250 -91 836 529 
Q 422 1150 422 2328 
Q 422 3509 836 4129 
Q 1250 4750 2034 4750 
z
" transform="scale(0.015625)"/>
        <path id="DejaVuSans-2d" d="M 313 2009 
L 1997 2009 
L 1997 1497 
L 313 1497 
L 313 2009 
z
" transform="scale(0.015625)"/>
        <path id="DejaVuSans-31" d="M 794 531 
L 1825 531 
L 1825 4091 
L 703 3866 
L 703 4441 
L 1819 4666 
L 2450 4666 
L 2450 531 
L 3481 531 
L 3481 0 
L 794 0 
L 794 531 
z
" transform="scale(0.015625)"/>
        <path id="DejaVuSans-20" transform="scale(0.015625)"/>
        <path id="DejaVuSans-28" d="M 1984 4856 
Q 1566 4138 1362 3434 
Q 1159 2731 1159 2009 
Q 1159 1288 1364 580 
Q 1569 -128 1984 -844 
L 1484 -844 
Q 1016 -109 783 600 
Q 550 1309 550 2009 
Q 550 2706 781 3412 
Q 1013 4119 1484 4856 
L 1984 4856 
z
" transform="scale(0.015625)"/>
        <path id="DejaVuSans-3a" d="M 750 794 
L 1409 794 
L 1409 0 
L 750 0 
L 750 794 
z
M 750 3309 
L 1409 3309 
L 1409 2516 
L 750 2516 
L 750 3309 
z
" transform="scale(0.015625)"/>
        <path id="DejaVuSans-29" d="M 513 4856 
L 1013 4856 
Q 1481 4119 1714 3412 
Q 1947 2706 1947 2009 
Q 1947 1309 1714 600 
Q 1481 -109 1013 -844 
L 513 -844 
Q 928 -128 1133 580 
Q 1338 1288 1338 2009 
Q 1338 2731 1133 3434 
Q 928 4138 513 4856 
z
" transform="scale(0.015625)"/>
       </defs>
       <use xlink:href="#DejaVuSans-32"/>
       <use xlink:href="#DejaVuSans-30" transform="translate(63.623047 0)"/>
       <use xlink:href="#DejaVuSans-32" transform="translate(127.246094 0)"/>
       <use xlink:href="#DejaVuSans-32" transform="translate(190.869141 0)"/>
       <use xlink:href="#DejaVuSans-2d" transform="translate(254.492188 0)"/>
       <use xlink:href="#DejaVuSans-30" transform="translate(290.576172 0)"/>
       <use xlink:href="#DejaVuSans-31" transform="translate(354.199219 0)"/>
       <use xlink:href="#DejaVuSans-2d" transform="translate(417.822266 0)"/>
       <use xlink:href="#DejaVuSans-30" transform="translate(453.90625 0)"/>
       <use xlink:href="#DejaVuSans-31" transform="translate(517.529297 0)"/>
       <use xlink:href="#DejaVuSans-20" transform="translate(581.152344 0)"/>
       <use xlink:href="#DejaVuSans-28" transform="translate(612.939453 0)"/>
       <use xlink:href="#DejaVuSans-31" transform="translate(651.953125 0)"/>
       <use xlink:href="#DejaVuSans-32" transform="translate(715.576172 0)"/>
       <use xlink:href="#DejaVuSans-3a" transform="translate(779.199219 0)"/>
       <use xlink:href="#DejaVuSans-30" transform="translate(812.890625 0)"/>
       <use xlink:href="#DejaVuSans-30" transform="translate(876.513672 0)"/>
       <use xlink:href="#DejaVuSans-29" transform="translate(940.136719 0)"/>
      </g>
     </g>
    </g>
    <g id="xtick_2">
     <g id="line2d_2">
      <g>
       <use xlink:href="#mc3e22bce9c" x="246.573612" y="484.397187" style="stroke: #000000; stroke-width: 0.8"/>
      </g>
     </g>
     <g id="text_2">
      <!-- 2022-03-16 (00:00) -->
      <g transform="translate(160.736349 546.93544) rotate(-30) scale(0.1 -0.1)">
       <defs>
        <path id="DejaVuSans-33" d="M 2597 2516 
Q 3050 2419 3304 2112 
Q 3559 1806 3559 1356 
Q 3559 666 3084 287 
Q 2609 -91 1734 -91 
Q 1441 -91 1130 -33 
Q 819 25 488 141 
L 488 750 
Q 750 597 1062 519 
Q 1375 441 1716 441 
Q 2309 441 2620 675 
Q 2931 909 2931 1356 
Q 2931 1769 2642 2001 
Q 2353 2234 1838 2234 
L 1294 2234 
L 1294 2753 
L 1863 2753 
Q 2328 2753 2575 2939 
Q 2822 3125 2822 3475 
Q 2822 3834 2567 4026 
Q 2313 4219 1838 4219 
Q 1578 4219 1281 4162 
Q 984 4106 628 3988 
L 628 4550 
Q 988 4650 1302 4700 
Q 1616 4750 1894 4750 
Q 2613 4750 3031 4423 
Q 3450 4097 3450 3541 
Q 3450 3153 3228 2886 
Q 3006 2619 2597 2516 
z
" transform="scale(0.015625)"/>
        <path id="DejaVuSans-36" d="M 2113 2584 
Q 1688 2584 1439 2293 
Q 1191 2003 1191 1497 
Q 1191 994 1439 701 
Q 1688 409 2113 409 
Q 2538 409 2786 701 
Q 3034 994 3034 1497 
Q 3034 2003 2786 2293 
Q 2538 2584 2113 2584 
z
M 3366 4563 
L 3366 3988 
Q 3128 4100 2886 4159 
Q 2644 4219 2406 4219 
Q 1781 4219 1451 3797 
Q 1122 3375 1075 2522 
Q 1259 2794 1537 2939 
Q 1816 3084 2150 3084 
Q 2853 3084 3261 2657 
Q 3669 2231 3669 1497 
Q 3669 778 3244 343 
Q 2819 -91 2113 -91 
Q 1303 -91 875 529 
Q 447 1150 447 2328 
Q 447 3434 972 4092 
Q 1497 4750 2381 4750 
Q 2619 4750 2861 4703 
Q 3103 4656 3366 4563 
z
" transform="scale(0.015625)"/>
       </defs>
       <use xlink:href="#DejaVuSans-32"/>
       <use xlink:href="#DejaVuSans-30" transform="translate(63.623047 0)"/>
       <use xlink:href="#DejaVuSans-32" transform="translate(127.246094 0)"/>
       <use xlink:href="#DejaVuSans-32" transform="translate(190.869141 0)"/>
       <use xlink:href="#DejaVuSans-2d" transform="translate(254.492188 0)"/>
       <use xlink:href="#DejaVuSans-30" transform="translate(290.576172 0)"/>
       <use xlink:href="#DejaVuSans-33" transform="translate(354.199219 0)"/>
       <use xlink:href="#DejaVuSans-2d" transform="translate(417.822266 0)"/>
       <use xlink:href="#DejaVuSans-31" transform="translate(453.90625 0)"/>
       <use xlink:href="#DejaVuSans-36" transform="translate(517.529297 0)"/>
       <use xlink:href="#DejaVuSans-20" transform="translate(581.152344 0)"/>
       <use xlink:href="#DejaVuSans-28" transform="translate(612.939453 0)"/>
       <use xlink:href="#DejaVuSans-30" transform="translate(651.953125 0)"/>
       <use xlink:href="#DejaVuSans-30" transform="translate(715.576172 0)"/>
       <use xlink:href="#DejaVuSans-3a" transform="translate(779.199219 0)"/>
       <use xlink:href="#DejaVuSans-30" transform="translate(812.890625 0)"/>
       <use xlink:href="#DejaVuSans-30" transform="translate(876.513672 0)"/>
       <use xlink:href="#DejaVuSans-29" transform="translate(940.136719 0)"/>
      </g>
     </g>
    </g>
    <g id="xtick_3">
     <g id="line2d_3">
      <g>
       <use xlink:href="#mc3e22bce9c" x="399.366602" y="484.397187" style="stroke: #000000; stroke-width: 0.8"/>
      </g>
     </g>
     <g id="text_3">
      <!-- 2022-05-30 (00:00) -->
      <g transform="translate(313.529339 546.93544) rotate(-30) scale(0.1 -0.1)">
       <defs>
        <path id="DejaVuSans-35" d="M 691 4666 
L 3169 4666 
L 3169 4134 
L 1269 4134 
L 1269 2991 
Q 1406 3038 1543 3061 
Q 1681 3084 1819 3084 
Q 2600 3084 3056 2656 
Q 3513 2228 3513 1497 
Q 3513 744 3044 326 
Q 2575 -91 1722 -91 
Q 1428 -91 1123 -41 
Q 819 9 494 109 
L 494 744 
Q 775 591 1075 516 
Q 1375 441 1709 441 
Q 2250 441 2565 725 
Q 2881 1009 2881 1497 
Q 2881 1984 2565 2268 
Q 2250 2553 1709 2553 
Q 1456 2553 1204 2497 
Q 953 2441 691 2322 
L 691 4666 
z
" transform="scale(0.015625)"/>
       </defs>
       <use xlink:href="#DejaVuSans-32"/>
       <use xlink:href="#DejaVuSans-30" transform="translate(63.623047 0)"/>
       <use xlink:href="#DejaVuSans-32" transform="translate(127.246094 0)"/>
       <use xlink:href="#DejaVuSans-32" transform="translate(190.869141 0)"/>
       <use xlink:href="#DejaVuSans-2d" transform="translate(254.492188 0)"/>
       <use xlink:href="#DejaVuSans-30" transform="translate(290.576172 0)"/>
       <use xlink:href="#DejaVuSans-35" transform="translate(354.199219 0)"/>
       <use xlink:href="#DejaVuSans-2d" transform="translate(417.822266 0)"/>
       <use xlink:href="#DejaVuSans-33" transform="translate(453.90625 0)"/>
       <use xlink:href="#DejaVuSans-30" transform="translate(517.529297 0)"/>
       <use xlink:href="#DejaVuSans-20" transform="translate(581.152344 0)"/>
       <use xlink:href="#DejaVuSans-28" transform="translate(612.939453 0)"/>
       <use xlink:href="#DejaVuSans-30" transform="translate(651.953125 0)"/>
       <use xlink:href="#DejaVuSans-30" transform="translate(715.576172 0)"/>
       <use xlink:href="#DejaVuSans-3a" transform="translate(779.199219 0)"/>
       <use xlink:href="#DejaVuSans-30" transform="translate(812.890625 0)"/>
       <use xlink:href="#DejaVuSans-30" transform="translate(876.513672 0)"/>
       <use xlink:href="#DejaVuSans-29" transform="translate(940.136719 0)"/>
      </g>
     </g>
    </g>
    <g id="xtick_4">
     <g id="line2d_4">
      <g>
       <use xlink:href="#mc3e22bce9c" x="552.159592" y="484.397187" style="stroke: #000000; stroke-width: 0.8"/>
      </g>
     </g>
     <g id="text_4">
      <!-- 2022-08-13 (00:00) -->
      <g transform="translate(466.322329 546.93544) rotate(-30) scale(0.1 -0.1)">
       <defs>
        <path id="DejaVuSans-38" d="M 2034 2216 
Q 1584 2216 1326 1975 
Q 1069 1734 1069 1313 
Q 1069 891 1326 650 
Q 1584 409 2034 409 
Q 2484 409 2743 651 
Q 3003 894 3003 1313 
Q 3003 1734 2745 1975 
Q 2488 2216 2034 2216 
z
M 1403 2484 
Q 997 2584 770 2862 
Q 544 3141 544 3541 
Q 544 4100 942 4425 
Q 1341 4750 2034 4750 
Q 2731 4750 3128 4425 
Q 3525 4100 3525 3541 
Q 3525 3141 3298 2862 
Q 3072 2584 2669 2484 
Q 3125 2378 3379 2068 
Q 3634 1759 3634 1313 
Q 3634 634 3220 271 
Q 2806 -91 2034 -91 
Q 1263 -91 848 271 
Q 434 634 434 1313 
Q 434 1759 690 2068 
Q 947 2378 1403 2484 
z
M 1172 3481 
Q 1172 3119 1398 2916 
Q 1625 2713 2034 2713 
Q 2441 2713 2670 2916 
Q 2900 3119 2900 3481 
Q 2900 3844 2670 4047 
Q 2441 4250 2034 4250 
Q 1625 4250 1398 4047 
Q 1172 3844 1172 3481 
z
" transform="scale(0.015625)"/>
       </defs>
       <use xlink:href="#DejaVuSans-32"/>
       <use xlink:href="#DejaVuSans-30" transform="translate(63.623047 0)"/>
       <use xlink:href="#DejaVuSans-32" transform="translate(127.246094 0)"/>
       <use xlink:href="#DejaVuSans-32" transform="translate(190.869141 0)"/>
       <use xlink:href="#DejaVuSans-2d" transform="translate(254.492188 0)"/>
       <use xlink:href="#DejaVuSans-30" transform="translate(290.576172 0)"/>
       <use xlink:href="#DejaVuSans-38" transform="translate(354.199219 0)"/>
       <use xlink:href="#DejaVuSans-2d" transform="translate(417.822266 0)"/>
       <use xlink:href="#DejaVuSans-31" transform="translate(453.90625 0)"/>
       <use xlink:href="#DejaVuSans-33" transform="translate(517.529297 0)"/>
       <use xlink:href="#DejaVuSans-20" transform="translate(581.152344 0)"/>
       <use xlink:href="#DejaVuSans-28" transform="translate(612.939453 0)"/>
       <use xlink:href="#DejaVuSans-30" transform="translate(651.953125 0)"/>
       <use xlink:href="#DejaVuSans-30" transform="translate(715.576172 0)"/>
       <use xlink:href="#DejaVuSans-3a" transform="translate(779.199219 0)"/>
       <use xlink:href="#DejaVuSans-30" transform="translate(812.890625 0)"/>
       <use xlink:href="#DejaVuSans-30" transform="translate(876.513672 0)"/>
       <use xlink:href="#DejaVuSans-29" transform="translate(940.136719 0)"/>
      </g>
     </g>
    </g>
    <g id="xtick_5">
     <g id="line2d_5">
      <g>
       <use xlink:href="#mc3e22bce9c" x="704.952582" y="484.397187" style="stroke: #000000; stroke-width: 0.8"/>
      </g>
     </g>
     <g id="text_5">
      <!-- 2022-10-27 (00:00) -->
      <g transform="translate(619.11532 546.93544) rotate(-30) scale(0.1 -0.1)">
       <defs>
        <path id="DejaVuSans-37" d="M 525 4666 
L 3525 4666 
L 3525 4397 
L 1831 0 
L 1172 0 
L 2766 4134 
L 525 4134 
L 525 4666 
z
" transform="scale(0.015625)"/>
       </defs>
       <use xlink:href="#DejaVuSans-32"/>
       <use xlink:href="#DejaVuSans-30" transform="translate(63.623047 0)"/>
       <use xlink:href="#DejaVuSans-32" transform="translate(127.246094 0)"/>
       <use xlink:href="#DejaVuSans-32" transform="translate(190.869141 0)"/>
       <use xlink:href="#DejaVuSans-2d" transform="translate(254.492188 0)"/>
       <use xlink:href="#DejaVuSans-31" transform="translate(290.576172 0)"/>
       <use xlink:href="#DejaVuSans-30" transform="translate(354.199219 0)"/>
       <use xlink:href="#DejaVuSans-2d" transform="translate(417.822266 0)"/>
       <use xlink:href="#DejaVuSans-32" transform="translate(453.90625 0)"/>
       <use xlink:href="#DejaVuSans-37" transform="translate(517.529297 0)"/>
       <use xlink:href="#DejaVuSans-20" transform="translate(581.152344 0)"/>
       <use xlink:href="#DejaVuSans-28" transform="translate(612.939453 0)"/>
       <use xlink:href="#DejaVuSans-30" transform="translate(651.953125 0)"/>
       <use xlink:href="#DejaVuSans-30" transform="translate(715.576172 0)"/>
       <use xlink:href="#DejaVuSans-3a" transform="translate(779.199219 0)"/>
       <use xlink:href="#DejaVuSans-30" transform="translate(812.890625 0)"/>
       <use xlink:href="#DejaVuSans-30" transform="translate(876.513672 0)"/>
       <use xlink:href="#DejaVuSans-29" transform="translate(940.136719 0)"/>
      </g>
     </g>
    </g>
    <g id="xtick_6">
     <g id="line2d_6">
      <g>
       <use xlink:href="#mc3e22bce9c" x="857.745572" y="484.397187" style="stroke: #000000; stroke-width: 0.8"/>
      </g>
     </g>
     <g id="text_6">
      <!-- 2023-01-10 (00:00) -->
      <g transform="translate(771.90831 546.93544) rotate(-30) scale(0.1 -0.1)">
       <use xlink:href="#DejaVuSans-32"/>
       <use xlink:href="#DejaVuSans-30" transform="translate(63.623047 0)"/>
       <use xlink:href="#DejaVuSans-32" transform="translate(127.246094 0)"/>
       <use xlink:href="#DejaVuSans-33" transform="translate(190.869141 0)"/>
       <use xlink:href="#DejaVuSans-2d" transform="translate(254.492188 0)"/>
       <use xlink:href="#DejaVuSans-30" transform="translate(290.576172 0)"/>
       <use xlink:href="#DejaVuSans-31" transform="translate(354.199219 0)"/>
       <use xlink:href="#DejaVuSans-2d" transform="translate(417.822266 0)"/>
       <use xlink:href="#DejaVuSans-31" transform="translate(453.90625 0)"/>
       <use xlink:href="#DejaVuSans-30" transform="translate(517.529297 0)"/>
       <use xlink:href="#DejaVuSans-20" transform="translate(581.152344 0)"/>
       <use xlink:href="#DejaVuSans-28" transform="translate(612.939453 0)"/>
       <use xlink:href="#DejaVuSans-30" transform="translate(651.953125 0)"/>
       <use xlink:href="#DejaVuSans-30" transform="translate(715.576172 0)"/>
       <use xlink:href="#DejaVuSans-3a" transform="translate(779.199219 0)"/>
       <use xlink:href="#DejaVuSans-30" transform="translate(812.890625 0)"/>
       <use xlink:href="#DejaVuSans-30" transform="translate(876.513672 0)"/>
       <use xlink:href="#DejaVuSans-29" transform="translate(940.136719 0)"/>
      </g>
     </g>
    </g>
    <g id="text_7">
     <!-- Forecast Date -->
     <g transform="translate(421.784777 564.894002) scale(0.16 -0.16)">
      <defs>
       <path id="DejaVuSans-46" d="M 628 4666 
L 3309 4666 
L 3309 4134 
L 1259 4134 
L 1259 2759 
L 3109 2759 
L 3109 2228 
L 1259 2228 
L 1259 0 
L 628 0 
L 628 4666 
z
" transform="scale(0.015625)"/>
       <path id="DejaVuSans-6f" d="M 1959 3097 
Q 1497 3097 1228 2736 
Q 959 2375 959 1747 
Q 959 1119 1226 758 
Q 1494 397 1959 397 
Q 2419 397 2687 759 
Q 2956 1122 2956 1747 
Q 2956 2369 2687 2733 
Q 2419 3097 1959 3097 
z
M 1959 3584 
Q 2709 3584 3137 3096 
Q 3566 2609 3566 1747 
Q 3566 888 3137 398 
Q 2709 -91 1959 -91 
Q 1206 -91 779 398 
Q 353 888 353 1747 
Q 353 2609 779 3096 
Q 1206 3584 1959 3584 
z
" transform="scale(0.015625)"/>
       <path id="DejaVuSans-72" d="M 2631 2963 
Q 2534 3019 2420 3045 
Q 2306 3072 2169 3072 
Q 1681 3072 1420 2755 
Q 1159 2438 1159 1844 
L 1159 0 
L 581 0 
L 581 3500 
L 1159 3500 
L 1159 2956 
Q 1341 3275 1631 3429 
Q 1922 3584 2338 3584 
Q 2397 3584 2469 3576 
Q 2541 3569 2628 3553 
L 2631 2963 
z
" transform="scale(0.015625)"/>
       <path id="DejaVuSans-65" d="M 3597 1894 
L 3597 1613 
L 953 1613 
Q 991 1019 1311 708 
Q 1631 397 2203 397 
Q 2534 397 2845 478 
Q 3156 559 3463 722 
L 3463 178 
Q 3153 47 2828 -22 
Q 2503 -91 2169 -91 
Q 1331 -91 842 396 
Q 353 884 353 1716 
Q 353 2575 817 3079 
Q 1281 3584 2069 3584 
Q 2775 3584 3186 3129 
Q 3597 2675 3597 1894 
z
M 3022 2063 
Q 3016 2534 2758 2815 
Q 2500 3097 2075 3097 
Q 1594 3097 1305 2825 
Q 1016 2553 972 2059 
L 3022 2063 
z
" transform="scale(0.015625)"/>
       <path id="DejaVuSans-63" d="M 3122 3366 
L 3122 2828 
Q 2878 2963 2633 3030 
Q 2388 3097 2138 3097 
Q 1578 3097 1268 2742 
Q 959 2388 959 1747 
Q 959 1106 1268 751 
Q 1578 397 2138 397 
Q 2388 397 2633 464 
Q 2878 531 3122 666 
L 3122 134 
Q 2881 22 2623 -34 
Q 2366 -91 2075 -91 
Q 1284 -91 818 406 
Q 353 903 353 1747 
Q 353 2603 823 3093 
Q 1294 3584 2113 3584 
Q 2378 3584 2631 3529 
Q 2884 3475 3122 3366 
z
" transform="scale(0.015625)"/>
       <path id="DejaVuSans-61" d="M 2194 1759 
Q 1497 1759 1228 1600 
Q 959 1441 959 1056 
Q 959 750 1161 570 
Q 1363 391 1709 391 
Q 2188 391 2477 730 
Q 2766 1069 2766 1631 
L 2766 1759 
L 2194 1759 
z
M 3341 1997 
L 3341 0 
L 2766 0 
L 2766 531 
Q 2569 213 2275 61 
Q 1981 -91 1556 -91 
Q 1019 -91 701 211 
Q 384 513 384 1019 
Q 384 1609 779 1909 
Q 1175 2209 1959 2209 
L 2766 2209 
L 2766 2266 
Q 2766 2663 2505 2880 
Q 2244 3097 1772 3097 
Q 1472 3097 1187 3025 
Q 903 2953 641 2809 
L 641 3341 
Q 956 3463 1253 3523 
Q 1550 3584 1831 3584 
Q 2591 3584 2966 3190 
Q 3341 2797 3341 1997 
z
" transform="scale(0.015625)"/>
       <path id="DejaVuSans-73" d="M 2834 3397 
L 2834 2853 
Q 2591 2978 2328 3040 
Q 2066 3103 1784 3103 
Q 1356 3103 1142 2972 
Q 928 2841 928 2578 
Q 928 2378 1081 2264 
Q 1234 2150 1697 2047 
L 1894 2003 
Q 2506 1872 2764 1633 
Q 3022 1394 3022 966 
Q 3022 478 2636 193 
Q 2250 -91 1575 -91 
Q 1294 -91 989 -36 
Q 684 19 347 128 
L 347 722 
Q 666 556 975 473 
Q 1284 391 1588 391 
Q 1994 391 2212 530 
Q 2431 669 2431 922 
Q 2431 1156 2273 1281 
Q 2116 1406 1581 1522 
L 1381 1569 
Q 847 1681 609 1914 
Q 372 2147 372 2553 
Q 372 3047 722 3315 
Q 1072 3584 1716 3584 
Q 2034 3584 2315 3537 
Q 2597 3491 2834 3397 
z
" transform="scale(0.015625)"/>
       <path id="DejaVuSans-74" d="M 1172 4494 
L 1172 3500 
L 2356 3500 
L 2356 3053 
L 1172 3053 
L 1172 1153 
Q 1172 725 1289 603 
Q 1406 481 1766 481 
L 2356 481 
L 2356 0 
L 1766 0 
Q 1100 0 847 248 
Q 594 497 594 1153 
L 594 3053 
L 172 3053 
L 172 3500 
L 594 3500 
L 594 4494 
L 1172 4494 
z
" transform="scale(0.015625)"/>
       <path id="DejaVuSans-44" d="M 1259 4147 
L 1259 519 
L 2022 519 
Q 2988 519 3436 956 
Q 3884 1394 3884 2338 
Q 3884 3275 3436 3711 
Q 2988 4147 2022 4147 
L 1259 4147 
z
M 628 4666 
L 1925 4666 
Q 3281 4666 3915 4102 
Q 4550 3538 4550 2338 
Q 4550 1131 3912 565 
Q 3275 0 1925 0 
L 628 0 
L 628 4666 
z
" transform="scale(0.015625)"/>
      </defs>
      <use xlink:href="#DejaVuSans-46"/>
      <use xlink:href="#DejaVuSans-6f" transform="translate(53.894531 0)"/>
      <use xlink:href="#DejaVuSans-72" transform="translate(115.076172 0)"/>
      <use xlink:href="#DejaVuSans-65" transform="translate(153.939453 0)"/>
      <use xlink:href="#DejaVuSans-63" transform="translate(215.462891 0)"/>
      <use xlink:href="#DejaVuSans-61" transform="translate(270.443359 0)"/>
      <use xlink:href="#DejaVuSans-73" transform="translate(331.722656 0)"/>
      <use xlink:href="#DejaVuSans-74" transform="translate(383.822266 0)"/>
      <use xlink:href="#DejaVuSans-20" transform="translate(423.03125 0)"/>
      <use xlink:href="#DejaVuSans-44" transform="translate(454.818359 0)"/>
      <use xlink:href="#DejaVuSans-61" transform="translate(531.820312 0)"/>
      <use xlink:href="#DejaVuSans-74" transform="translate(593.099609 0)"/>
      <use xlink:href="#DejaVuSans-65" transform="translate(632.308594 0)"/>
     </g>
    </g>
   </g>
   <g id="matplotlib.axis_2">
    <g id="ytick_1">
     <g id="line2d_7">
      <defs>
       <path id="md85d245053" d="M 0 0 
L -3.5 0 
" style="stroke: #000000; stroke-width: 0.8"/>
      </defs>
      <g>
       <use xlink:href="#md85d245053" x="58.791027" y="445.212666" style="stroke: #000000; stroke-width: 0.8"/>
      </g>
     </g>
     <g id="text_8">
      <!-- 2 -->
      <g transform="translate(45.428527 449.011885) scale(0.1 -0.1)">
       <use xlink:href="#DejaVuSans-32"/>
      </g>
     </g>
    </g>
    <g id="ytick_2">
     <g id="line2d_8">
      <g>
       <use xlink:href="#md85d245053" x="58.791027" y="386.05081" style="stroke: #000000; stroke-width: 0.8"/>
      </g>
     </g>
     <g id="text_9">
      <!-- 4 -->
      <g transform="translate(45.428527 389.850029) scale(0.1 -0.1)">
       <defs>
        <path id="DejaVuSans-34" d="M 2419 4116 
L 825 1625 
L 2419 1625 
L 2419 4116 
z
M 2253 4666 
L 3047 4666 
L 3047 1625 
L 3713 1625 
L 3713 1100 
L 3047 1100 
L 3047 0 
L 2419 0 
L 2419 1100 
L 313 1100 
L 313 1709 
L 2253 4666 
z
" transform="scale(0.015625)"/>
       </defs>
       <use xlink:href="#DejaVuSans-34"/>
      </g>
     </g>
    </g>
    <g id="ytick_3">
     <g id="line2d_9">
      <g>
       <use xlink:href="#md85d245053" x="58.791027" y="326.888955" style="stroke: #000000; stroke-width: 0.8"/>
      </g>
     </g>
     <g id="text_10">
      <!-- 6 -->
      <g transform="translate(45.428527 330.688174) scale(0.1 -0.1)">
       <use xlink:href="#DejaVuSans-36"/>
      </g>
     </g>
    </g>
    <g id="ytick_4">
     <g id="line2d_10">
      <g>
       <use xlink:href="#md85d245053" x="58.791027" y="267.727099" style="stroke: #000000; stroke-width: 0.8"/>
      </g>
     </g>
     <g id="text_11">
      <!-- 8 -->
      <g transform="translate(45.428527 271.526318) scale(0.1 -0.1)">
       <use xlink:href="#DejaVuSans-38"/>
      </g>
     </g>
    </g>
    <g id="ytick_5">
     <g id="line2d_11">
      <g>
       <use xlink:href="#md85d245053" x="58.791027" y="208.565244" style="stroke: #000000; stroke-width: 0.8"/>
      </g>
     </g>
     <g id="text_12">
      <!-- 10 -->
      <g transform="translate(39.066027 212.364462) scale(0.1 -0.1)">
       <use xlink:href="#DejaVuSans-31"/>
       <use xlink:href="#DejaVuSans-30" transform="translate(63.623047 0)"/>
      </g>
     </g>
    </g>
    <g id="ytick_6">
     <g id="line2d_12">
      <g>
       <use xlink:href="#md85d245053" x="58.791027" y="149.403388" style="stroke: #000000; stroke-width: 0.8"/>
      </g>
     </g>
     <g id="text_13">
      <!-- 12 -->
      <g transform="translate(39.066027 153.202607) scale(0.1 -0.1)">
       <use xlink:href="#DejaVuSans-31"/>
       <use xlink:href="#DejaVuSans-32" transform="translate(63.623047 0)"/>
      </g>
     </g>
    </g>
    <g id="ytick_7">
     <g id="line2d_13">
      <g>
       <use xlink:href="#md85d245053" x="58.791027" y="90.241532" style="stroke: #000000; stroke-width: 0.8"/>
      </g>
     </g>
     <g id="text_14">
      <!-- 14 -->
      <g transform="translate(39.066027 94.040751) scale(0.1 -0.1)">
       <use xlink:href="#DejaVuSans-31"/>
       <use xlink:href="#DejaVuSans-34" transform="translate(63.623047 0)"/>
      </g>
     </g>
    </g>
    <g id="text_15">
     <!-- Root Mean Squared Error (RMSE) -->
     <g transform="translate(31.738527 394.303437) rotate(-90) scale(0.16 -0.16)">
      <defs>
       <path id="DejaVuSans-52" d="M 2841 2188 
Q 3044 2119 3236 1894 
Q 3428 1669 3622 1275 
L 4263 0 
L 3584 0 
L 2988 1197 
Q 2756 1666 2539 1819 
Q 2322 1972 1947 1972 
L 1259 1972 
L 1259 0 
L 628 0 
L 628 4666 
L 2053 4666 
Q 2853 4666 3247 4331 
Q 3641 3997 3641 3322 
Q 3641 2881 3436 2590 
Q 3231 2300 2841 2188 
z
M 1259 4147 
L 1259 2491 
L 2053 2491 
Q 2509 2491 2742 2702 
Q 2975 2913 2975 3322 
Q 2975 3731 2742 3939 
Q 2509 4147 2053 4147 
L 1259 4147 
z
" transform="scale(0.015625)"/>
       <path id="DejaVuSans-4d" d="M 628 4666 
L 1569 4666 
L 2759 1491 
L 3956 4666 
L 4897 4666 
L 4897 0 
L 4281 0 
L 4281 4097 
L 3078 897 
L 2444 897 
L 1241 4097 
L 1241 0 
L 628 0 
L 628 4666 
z
" transform="scale(0.015625)"/>
       <path id="DejaVuSans-6e" d="M 3513 2113 
L 3513 0 
L 2938 0 
L 2938 2094 
Q 2938 2591 2744 2837 
Q 2550 3084 2163 3084 
Q 1697 3084 1428 2787 
Q 1159 2491 1159 1978 
L 1159 0 
L 581 0 
L 581 3500 
L 1159 3500 
L 1159 2956 
Q 1366 3272 1645 3428 
Q 1925 3584 2291 3584 
Q 2894 3584 3203 3211 
Q 3513 2838 3513 2113 
z
" transform="scale(0.015625)"/>
       <path id="DejaVuSans-53" d="M 3425 4513 
L 3425 3897 
Q 3066 4069 2747 4153 
Q 2428 4238 2131 4238 
Q 1616 4238 1336 4038 
Q 1056 3838 1056 3469 
Q 1056 3159 1242 3001 
Q 1428 2844 1947 2747 
L 2328 2669 
Q 3034 2534 3370 2195 
Q 3706 1856 3706 1288 
Q 3706 609 3251 259 
Q 2797 -91 1919 -91 
Q 1588 -91 1214 -16 
Q 841 59 441 206 
L 441 856 
Q 825 641 1194 531 
Q 1563 422 1919 422 
Q 2459 422 2753 634 
Q 3047 847 3047 1241 
Q 3047 1584 2836 1778 
Q 2625 1972 2144 2069 
L 1759 2144 
Q 1053 2284 737 2584 
Q 422 2884 422 3419 
Q 422 4038 858 4394 
Q 1294 4750 2059 4750 
Q 2388 4750 2728 4690 
Q 3069 4631 3425 4513 
z
" transform="scale(0.015625)"/>
       <path id="DejaVuSans-71" d="M 947 1747 
Q 947 1113 1208 752 
Q 1469 391 1925 391 
Q 2381 391 2643 752 
Q 2906 1113 2906 1747 
Q 2906 2381 2643 2742 
Q 2381 3103 1925 3103 
Q 1469 3103 1208 2742 
Q 947 2381 947 1747 
z
M 2906 525 
Q 2725 213 2448 61 
Q 2172 -91 1784 -91 
Q 1150 -91 751 415 
Q 353 922 353 1747 
Q 353 2572 751 3078 
Q 1150 3584 1784 3584 
Q 2172 3584 2448 3432 
Q 2725 3281 2906 2969 
L 2906 3500 
L 3481 3500 
L 3481 -1331 
L 2906 -1331 
L 2906 525 
z
" transform="scale(0.015625)"/>
       <path id="DejaVuSans-75" d="M 544 1381 
L 544 3500 
L 1119 3500 
L 1119 1403 
Q 1119 906 1312 657 
Q 1506 409 1894 409 
Q 2359 409 2629 706 
Q 2900 1003 2900 1516 
L 2900 3500 
L 3475 3500 
L 3475 0 
L 2900 0 
L 2900 538 
Q 2691 219 2414 64 
Q 2138 -91 1772 -91 
Q 1169 -91 856 284 
Q 544 659 544 1381 
z
M 1991 3584 
L 1991 3584 
z
" transform="scale(0.015625)"/>
       <path id="DejaVuSans-64" d="M 2906 2969 
L 2906 4863 
L 3481 4863 
L 3481 0 
L 2906 0 
L 2906 525 
Q 2725 213 2448 61 
Q 2172 -91 1784 -91 
Q 1150 -91 751 415 
Q 353 922 353 1747 
Q 353 2572 751 3078 
Q 1150 3584 1784 3584 
Q 2172 3584 2448 3432 
Q 2725 3281 2906 2969 
z
M 947 1747 
Q 947 1113 1208 752 
Q 1469 391 1925 391 
Q 2381 391 2643 752 
Q 2906 1113 2906 1747 
Q 2906 2381 2643 2742 
Q 2381 3103 1925 3103 
Q 1469 3103 1208 2742 
Q 947 2381 947 1747 
z
" transform="scale(0.015625)"/>
       <path id="DejaVuSans-45" d="M 628 4666 
L 3578 4666 
L 3578 4134 
L 1259 4134 
L 1259 2753 
L 3481 2753 
L 3481 2222 
L 1259 2222 
L 1259 531 
L 3634 531 
L 3634 0 
L 628 0 
L 628 4666 
z
" transform="scale(0.015625)"/>
      </defs>
      <use xlink:href="#DejaVuSans-52"/>
      <use xlink:href="#DejaVuSans-6f" transform="translate(64.982422 0)"/>
      <use xlink:href="#DejaVuSans-6f" transform="translate(126.164062 0)"/>
      <use xlink:href="#DejaVuSans-74" transform="translate(187.345703 0)"/>
      <use xlink:href="#DejaVuSans-20" transform="translate(226.554688 0)"/>
      <use xlink:href="#DejaVuSans-4d" transform="translate(258.341797 0)"/>
      <use xlink:href="#DejaVuSans-65" transform="translate(344.621094 0)"/>
      <use xlink:href="#DejaVuSans-61" transform="translate(406.144531 0)"/>
      <use xlink:href="#DejaVuSans-6e" transform="translate(467.423828 0)"/>
      <use xlink:href="#DejaVuSans-20" transform="translate(530.802734 0)"/>
      <use xlink:href="#DejaVuSans-53" transform="translate(562.589844 0)"/>
      <use xlink:href="#DejaVuSans-71" transform="translate(626.066406 0)"/>
      <use xlink:href="#DejaVuSans-75" transform="translate(689.542969 0)"/>
      <use xlink:href="#DejaVuSans-61" transform="translate(752.921875 0)"/>
      <use xlink:href="#DejaVuSans-72" transform="translate(814.201172 0)"/>
      <use xlink:href="#DejaVuSans-65" transform="translate(853.064453 0)"/>
      <use xlink:href="#DejaVuSans-64" transform="translate(914.587891 0)"/>
      <use xlink:href="#DejaVuSans-20" transform="translate(978.064453 0)"/>
      <use xlink:href="#DejaVuSans-45" transform="translate(1009.851562 0)"/>
      <use xlink:href="#DejaVuSans-72" transform="translate(1073.035156 0)"/>
      <use xlink:href="#DejaVuSans-72" transform="translate(1112.398438 0)"/>
      <use xlink:href="#DejaVuSans-6f" transform="translate(1151.261719 0)"/>
      <use xlink:href="#DejaVuSans-72" transform="translate(1212.443359 0)"/>
      <use xlink:href="#DejaVuSans-20" transform="translate(1253.556641 0)"/>
      <use xlink:href="#DejaVuSans-28" transform="translate(1285.34375 0)"/>
      <use xlink:href="#DejaVuSans-52" transform="translate(1324.357422 0)"/>
      <use xlink:href="#DejaVuSans-4d" transform="translate(1393.839844 0)"/>
      <use xlink:href="#DejaVuSans-53" transform="translate(1480.119141 0)"/>
      <use xlink:href="#DejaVuSans-45" transform="translate(1543.595703 0)"/>
      <use xlink:href="#DejaVuSans-29" transform="translate(1606.779297 0)"/>
     </g>
    </g>
   </g>
   <g id="line2d_14">
    <path d="M 96.836481 337.091012 
L 99.892341 368.766419 
L 102.948201 365.779018 
L 106.004061 366.382287 
L 109.05992 362.078229 
L 112.11578 373.75158 
L 115.17164 358.094388 
L 118.2275 371.745723 
L 121.28336 369.796542 
L 124.339219 381.012275 
L 127.395079 366.054565 
L 130.450939 380.445398 
L 133.506799 372.348682 
L 139.618518 358.119989 
L 142.674378 371.566586 
L 145.730238 372.959695 
L 148.786098 379.84062 
L 151.841958 365.410645 
L 154.897817 386.439954 
L 157.953677 377.286096 
L 161.009537 374.40756 
L 164.065397 370.553827 
L 167.121257 382.817131 
L 170.177116 363.681026 
L 173.232976 377.382675 
L 176.288836 360.734164 
L 179.344696 380.083767 
L 182.400556 361.816251 
L 185.456415 373.572781 
L 188.512275 368.751327 
L 191.568135 377.890113 
L 194.623995 363.128269 
L 197.679855 372.067648 
L 200.735714 363.336886 
L 203.791574 370.425257 
L 206.847434 361.116305 
L 209.903294 374.294647 
L 212.959154 362.023599 
L 216.015013 384.972743 
L 219.070873 366.856451 
L 222.126733 379.083251 
L 225.182593 359.501927 
L 228.238453 374.30359 
L 231.294313 363.510169 
L 234.350172 367.441298 
L 237.406032 368.071424 
L 240.461892 370.307139 
L 243.517752 339.146081 
L 246.573612 366.859751 
L 249.629471 339.550042 
L 252.685331 348.780259 
L 255.741191 363.546462 
L 258.797051 365.388415 
L 261.852911 360.879547 
L 264.90877 380.031182 
L 267.96463 362.878506 
L 271.02049 368.413223 
L 274.07635 356.324415 
L 277.13221 368.896145 
L 280.188069 359.299939 
L 283.243929 367.751332 
L 286.299789 357.846333 
L 289.355649 364.808236 
L 292.411509 357.085085 
L 295.467368 374.123607 
L 298.523228 355.965774 
L 301.579088 364.859706 
L 304.634948 361.391457 
L 307.690808 372.288255 
L 310.746667 359.214912 
L 313.802527 362.897548 
L 316.858387 355.666276 
L 319.914247 363.963372 
L 322.970107 350.810546 
L 326.025966 377.75181 
L 329.081826 358.371063 
L 332.137686 368.585321 
L 335.193546 361.163727 
L 338.249406 371.017044 
L 341.305265 359.654207 
L 344.361125 377.246362 
L 347.416985 363.90097 
L 350.472845 370.948027 
L 353.528705 361.265651 
L 356.584564 369.168194 
L 359.640424 362.072996 
L 362.696284 372.672243 
L 365.752144 368.075697 
L 368.808004 360.371405 
L 371.863863 359.824472 
L 374.919723 384.66333 
L 377.975583 365.970427 
L 381.031443 365.406554 
L 384.087303 351.408934 
L 387.143162 355.86509 
L 390.199022 353.038504 
L 393.254882 369.466916 
L 396.310742 360.806031 
L 399.366602 377.679634 
L 402.422461 359.165642 
L 405.478321 374.171141 
L 408.534181 360.030508 
L 411.590041 376.632655 
L 414.645901 363.620599 
L 417.70176 372.734151 
L 420.75762 368.160569 
L 423.81348 369.362099 
L 426.86934 365.332784 
L 429.9252 382.910649 
L 432.981059 364.557614 
L 436.036919 367.709214 
L 439.092779 362.204499 
L 442.148639 370.853042 
L 445.204499 364.962365 
L 448.260359 386.772239 
L 451.316218 366.360057 
L 454.372078 375.417499 
L 457.427938 360.456177 
L 460.483798 384.035461 
L 463.539658 359.881161 
L 466.595517 371.414856 
L 469.651377 367.023457 
L 472.707237 374.583171 
L 475.763097 353.031578 
L 478.818957 372.106339 
L 481.874816 364.13114 
L 484.930676 362.740345 
L 487.986536 361.91661 
L 491.042396 372.122292 
L 494.098256 355.69759 
L 497.154115 370.748113 
L 500.209975 352.229749 
L 503.265835 371.829537 
L 506.321695 361.018273 
L 509.377555 375.818385 
L 512.433414 366.621358 
L 515.489274 373.819511 
L 518.545134 360.801376 
L 521.600994 370.915783 
L 524.656854 370.812179 
L 527.712713 381.427549 
L 530.768573 369.934972 
L 533.824433 367.663569 
L 536.880293 370.287702 
L 539.936153 368.859472 
L 542.992012 356.282423 
L 546.047872 360.204229 
L 549.103732 360.322882 
L 552.159592 364.375275 
L 555.215452 367.887956 
L 558.271311 376.327431 
L 561.327171 364.131324 
L 564.383031 372.888943 
L 567.438891 362.948708 
L 570.494751 367.034417 
L 573.55061 355.478718 
L 576.60647 370.237756 
L 579.66233 355.92295 
L 582.71819 381.638 
L 585.77405 363.260238 
L 588.829909 377.031439 
L 591.885769 356.520591 
L 594.941629 367.060949 
L 597.997489 343.123856 
L 601.053349 373.37092 
L 604.109208 343.998285 
L 607.165068 368.237245 
L 610.220928 368.398878 
L 613.276788 377.944672 
L 616.332648 364.598674 
L 619.388507 365.992389 
L 622.444367 372.847586 
L 625.500227 386.409275 
L 628.556087 369.533577 
L 631.611947 382.263894 
L 634.667806 369.665391 
L 637.723666 372.889338 
L 640.779526 365.81888 
L 643.835386 371.700403 
L 646.891246 364.00494 
L 649.947105 381.264182 
L 653.002965 361.491491 
L 656.058825 380.633154 
L 659.114685 355.422184 
L 662.170545 360.21169 
L 665.226405 355.140615 
L 668.282264 374.979572 
L 671.338124 368.820753 
L 674.393984 378.340368 
L 677.449844 367.007208 
L 680.505704 381.383273 
L 683.561563 368.592416 
L 686.617423 367.732784 
L 689.673283 363.261719 
L 692.729143 386.707729 
L 695.785003 367.894388 
L 698.840862 381.911318 
L 701.896722 373.382332 
L 704.952582 387.996042 
L 708.008442 374.1353 
L 711.064302 388.986501 
L 714.120161 367.472499 
L 717.176021 380.388342 
L 720.231881 366.05276 
L 723.287741 384.331588 
L 726.343601 366.181654 
L 729.39946 383.581906 
L 732.45532 374.526355 
L 735.51118 384.633991 
L 738.56704 371.613881 
L 741.6229 385.314698 
L 744.678759 376.17594 
L 747.734619 377.24639 
L 750.790479 361.624222 
L 753.846339 383.853221 
L 756.902199 372.534167 
L 759.958058 387.486355 
L 763.013918 364.218621 
L 766.069778 383.807971 
L 769.125638 361.913042 
L 772.181498 380.408202 
L 775.237357 338.388035 
L 778.293217 363.734344 
L 781.349077 351.768704 
L 784.404937 368.736657 
L 787.460797 345.002553 
L 790.516656 377.664724 
L 793.572516 370.52879 
L 796.628376 380.539565 
L 799.684236 361.67407 
L 802.740096 379.525748 
L 805.795955 375.514515 
L 808.851815 388.908929 
L 811.907675 373.477091 
L 814.963535 376.091209 
L 818.019395 364.863994 
L 821.075254 373.344529 
L 824.131114 353.471282 
L 827.186974 387.051587 
L 830.242834 374.137923 
L 833.298694 375.431124 
L 836.354553 357.729202 
L 839.410413 388.497196 
L 842.466273 369.92545 
L 845.522133 386.897198 
L 848.577993 372.788005 
L 851.633852 388.754258 
L 854.689712 366.690276 
L 857.745572 378.015029 
L 857.745572 378.015029 
" clip-path="url(#p1e44880862)" style="fill: none; stroke: #0000ff; stroke-width: 2; stroke-linecap: square"/>
   </g>
   <g id="line2d_15">
    <path d="M 96.836481 147.32283 
L 99.892341 265.393831 
L 102.948201 199.471143 
L 106.004061 249.827576 
L 109.05992 198.106005 
L 112.11578 272.19492 
L 115.17164 224.019897 
L 118.2275 334.5534 
L 121.28336 287.681833 
L 124.339219 340.000142 
L 127.395079 257.384568 
L 130.450939 280.269237 
L 133.506799 284.715167 
L 136.562659 286.79808 
L 139.618518 232.587927 
L 142.674378 303.826192 
L 145.730238 263.908601 
L 148.786098 333.398206 
L 151.841958 243.762642 
L 154.897817 292.348736 
L 157.953677 259.433445 
L 161.009537 371.764131 
L 164.065397 309.5615 
L 167.121257 297.37789 
L 170.177116 263.935824 
L 173.232976 317.653886 
L 176.288836 253.454243 
L 179.344696 270.145916 
L 182.400556 210.062548 
L 185.456415 324.213365 
L 188.512275 241.700534 
L 191.568135 353.457783 
L 194.623995 264.620213 
L 197.679855 340.900976 
L 200.735714 199.3539 
L 203.791574 212.790961 
L 206.847434 181.375303 
L 209.903294 281.417774 
L 212.959154 209.841038 
L 216.015013 373.139044 
L 219.070873 189.380165 
L 222.126733 357.672993 
L 225.182593 227.560832 
L 228.238453 340.753407 
L 231.294313 277.325704 
L 234.350172 378.507699 
L 237.406032 276.162413 
L 240.461892 380.331498 
L 243.517752 198.69964 
L 246.573612 296.934688 
L 249.629471 275.326406 
L 252.685331 307.493073 
L 255.741191 263.489476 
L 258.797051 364.013573 
L 261.852911 253.546435 
L 264.90877 373.539761 
L 267.96463 237.703689 
L 271.02049 239.555572 
L 274.07635 244.706117 
L 277.13221 402.08328 
L 280.188069 234.256582 
L 283.243929 378.442504 
L 286.299789 224.729675 
L 289.355649 396.683234 
L 292.411509 174.573875 
L 295.467368 278.714609 
L 298.523228 260.194566 
L 301.579088 388.695968 
L 304.634948 266.146348 
L 307.690808 363.356887 
L 310.746667 190.785305 
L 313.802527 358.745079 
L 316.858387 256.523356 
L 319.914247 340.838772 
L 322.970107 237.015605 
L 326.025966 380.102513 
L 329.081826 207.383954 
L 332.137686 378.529844 
L 335.193546 225.205023 
L 338.249406 357.452654 
L 341.305265 158.376381 
L 344.361125 304.550668 
L 347.416985 160.494374 
L 350.472845 294.55342 
L 353.528705 164.407857 
L 356.584564 295.139001 
L 359.640424 203.421328 
L 362.696284 339.85521 
L 365.752144 138.638206 
L 368.808004 270.131472 
L 371.863863 199.366679 
L 374.919723 353.740594 
L 377.975583 220.388576 
L 381.031443 378.195111 
L 384.087303 262.011609 
L 387.143162 339.573612 
L 390.199022 216.213637 
L 393.254882 274.60643 
L 396.310742 162.381238 
L 399.366602 384.18186 
L 402.422461 140.627192 
L 405.478321 273.647821 
L 408.534181 150.45031 
L 411.590041 328.575256 
L 414.645901 170.030196 
L 417.70176 347.968373 
L 420.75762 143.429743 
L 423.81348 360.094137 
L 426.86934 193.206732 
L 429.9252 356.249882 
L 432.981059 113.164032 
L 436.036919 358.526588 
L 439.092779 227.430583 
L 442.148639 279.522066 
L 445.204499 234.702987 
L 448.260359 420.855137 
L 451.316218 274.566879 
L 454.372078 383.485101 
L 457.427938 262.313998 
L 460.483798 315.265537 
L 463.539658 172.141362 
L 466.595517 312.826874 
L 469.651377 216.37991 
L 472.707237 344.076302 
L 475.763097 131.563277 
L 478.818957 345.759105 
L 481.874816 172.289045 
L 484.930676 359.581085 
L 487.986536 182.342671 
L 491.042396 307.062424 
L 494.098256 136.579822 
L 497.154115 216.756014 
L 500.209975 169.813003 
L 503.265835 371.104328 
L 506.321695 206.4791 
L 509.377555 335.044504 
L 512.433414 144.984992 
L 515.489274 351.125108 
L 518.545134 204.969665 
L 521.600994 335.240821 
L 524.656854 159.693335 
L 527.712713 371.319673 
L 530.768573 263.031083 
L 533.824433 369.97661 
L 536.880293 233.384001 
L 539.936153 301.387826 
L 542.992012 96.123267 
L 546.047872 336.071594 
L 549.103732 133.691285 
L 552.159592 310.151002 
L 555.215452 102.931889 
L 558.271311 332.836082 
L 561.327171 225.813469 
L 564.383031 305.094497 
L 567.438891 122.847988 
L 570.494751 241.79219 
L 573.55061 199.573463 
L 576.60647 238.890451 
L 579.66233 96.636869 
L 582.71819 320.885773 
L 585.77405 126.609218 
L 588.829909 243.825777 
L 591.885769 220.140492 
L 594.941629 287.449434 
L 597.997489 134.356744 
L 601.053349 201.200479 
L 604.109208 161.507275 
L 607.165068 230.157981 
L 610.220928 113.980672 
L 613.276788 280.963781 
L 616.332648 61.037187 
L 619.388507 193.360536 
L 622.444367 176.735284 
L 625.500227 351.434155 
L 628.556087 119.018092 
L 631.611947 290.404548 
L 634.667806 255.269367 
L 637.723666 201.918551 
L 640.779526 206.135298 
L 643.835386 291.146824 
L 646.891246 233.506463 
L 649.947105 337.320646 
L 653.002965 119.538013 
L 656.058825 173.670149 
L 659.114685 129.096996 
L 662.170545 204.146368 
L 665.226405 101.336891 
L 668.282264 170.497053 
L 671.338124 141.810174 
L 674.393984 235.29191 
L 677.449844 163.287982 
L 680.505704 259.925635 
L 683.561563 162.672851 
L 686.617423 293.644574 
L 689.673283 282.577595 
L 692.729143 312.825308 
L 695.785003 191.199944 
L 698.840862 354.037511 
L 701.896722 200.594065 
L 704.952582 283.004703 
L 708.008442 168.958787 
L 711.064302 251.928051 
L 714.120161 169.93665 
L 717.176021 287.580035 
L 720.231881 229.848258 
L 723.287741 334.949928 
L 726.343601 236.680886 
L 729.39946 348.413776 
L 732.45532 330.067468 
L 735.51118 244.866691 
L 738.56704 212.192643 
L 741.6229 286.091983 
L 744.678759 266.853813 
L 747.734619 311.919213 
L 750.790479 195.63191 
L 753.846339 245.703981 
L 756.902199 184.316396 
L 759.958058 254.278048 
L 763.013918 265.524474 
L 766.069778 235.84323 
L 769.125638 190.236553 
L 772.181498 237.829564 
L 775.237357 225.18426 
L 778.293217 296.027916 
L 781.349077 182.921298 
L 784.404937 244.482294 
L 787.460797 116.618586 
L 790.516656 211.906306 
L 793.572516 247.308796 
L 796.628376 382.230168 
L 799.684236 269.899539 
L 802.740096 280.594561 
L 805.795955 246.874155 
L 808.851815 386.432683 
L 811.907675 238.941202 
L 814.963535 332.369846 
L 818.019395 194.232101 
L 821.075254 216.588189 
L 824.131114 210.876818 
L 827.186974 278.622868 
L 830.242834 211.644484 
L 833.298694 287.67131 
L 836.354553 160.443736 
L 839.410413 247.915408 
L 842.466273 264.284225 
L 845.522133 344.703324 
L 848.577993 203.832751 
L 851.633852 261.247187 
L 854.689712 254.138857 
L 857.745572 233.245967 
L 857.745572 233.245967 
" clip-path="url(#p1e44880862)" style="fill: none; stroke: #ffa500; stroke-width: 2; stroke-linecap: square"/>
   </g>
   <g id="line2d_16">
    <path d="M 96.836481 352.055112 
L 99.892341 381.969728 
L 102.948201 382.179516 
L 106.004061 376.574908 
L 109.05992 383.50767 
L 112.11578 386.650214 
L 115.17164 386.094974 
L 118.2275 384.576991 
L 121.28336 397.19668 
L 124.339219 394.455099 
L 127.395079 388.437418 
L 130.450939 392.53403 
L 133.506799 393.895098 
L 136.562659 376.167773 
L 139.618518 384.281246 
L 142.674378 382.71594 
L 145.730238 402.802438 
L 148.786098 396.571541 
L 151.841958 397.456231 
L 154.897817 406.842833 
L 157.953677 406.055138 
L 161.009537 390.511903 
L 164.065397 398.219758 
L 170.177116 392.327 
L 173.232976 393.615489 
L 176.288836 391.996788 
L 179.344696 402.660849 
L 182.400556 389.456574 
L 185.456415 391.329403 
L 188.512275 403.672043 
L 191.568135 396.443169 
L 194.623995 390.655037 
L 197.679855 389.415069 
L 200.735714 388.431613 
L 203.791574 386.998481 
L 206.847434 394.191232 
L 209.903294 391.383511 
L 212.959154 392.481311 
L 216.015013 407.584355 
L 219.070873 410.385517 
L 222.126733 402.097378 
L 225.182593 394.523989 
L 228.238453 393.650527 
L 231.294313 398.179593 
L 234.350172 389.426015 
L 237.406032 397.679638 
L 240.461892 382.895416 
L 243.517752 360.070708 
L 246.573612 380.507377 
L 249.629471 363.764995 
L 252.685331 369.090009 
L 255.741191 391.166001 
L 258.797051 386.364766 
L 261.852911 394.114725 
L 264.90877 401.026893 
L 271.02049 396.111024 
L 274.07635 389.574332 
L 277.13221 391.572607 
L 280.188069 391.275373 
L 283.243929 400.45955 
L 286.299789 396.333853 
L 289.355649 394.104964 
L 292.411509 394.837225 
L 295.467368 400.095133 
L 298.523228 391.236823 
L 301.579088 390.901865 
L 304.634948 393.001853 
L 307.690808 402.685787 
L 310.746667 394.797611 
L 313.802527 387.823901 
L 316.858387 392.752232 
L 319.914247 391.555158 
L 322.970107 387.549151 
L 326.025966 407.594123 
L 329.081826 386.831735 
L 332.137686 395.088941 
L 335.193546 397.967999 
L 338.249406 397.352459 
L 341.305265 397.188838 
L 344.361125 406.484785 
L 347.416985 401.426065 
L 350.472845 399.054706 
L 353.528705 392.917926 
L 356.584564 399.303911 
L 359.640424 398.612583 
L 362.696284 404.918252 
L 365.752144 415.806397 
L 368.808004 384.703474 
L 371.863863 396.518343 
L 374.919723 415.547149 
L 377.975583 407.614364 
L 381.031443 396.459242 
L 384.087303 386.954726 
L 387.143162 374.557528 
L 390.199022 386.584449 
L 393.254882 397.708053 
L 396.310742 400.936034 
L 399.366602 408.247805 
L 402.422461 400.02716 
L 405.478321 403.542267 
L 408.534181 405.678696 
L 411.590041 410.341657 
L 414.645901 400.201924 
L 417.70176 404.100138 
L 420.75762 410.637903 
L 423.81348 401.358515 
L 426.86934 411.85258 
L 429.9252 417.195873 
L 436.036919 397.901634 
L 439.092779 400.500011 
L 442.148639 399.499911 
L 445.204499 403.755328 
L 448.260359 419.339376 
L 451.316218 395.408306 
L 454.372078 402.467085 
L 457.427938 400.958144 
L 460.483798 416.112538 
L 463.539658 395.775171 
L 466.595517 404.788187 
L 469.651377 401.378989 
L 472.707237 408.102957 
L 475.763097 388.090957 
L 478.818957 401.429246 
L 481.874816 401.096862 
L 484.930676 386.120921 
L 487.986536 396.062227 
L 491.042396 399.088291 
L 494.098256 390.49442 
L 497.154115 399.761402 
L 500.209975 387.400291 
L 503.265835 398.826595 
L 506.321695 396.281691 
L 509.377555 410.008638 
L 512.433414 410.433017 
L 515.489274 405.782172 
L 518.545134 402.435919 
L 521.600994 403.74173 
L 524.656854 415.2025 
L 527.712713 409.693342 
L 530.768573 409.656027 
L 533.824433 397.823597 
L 536.880293 403.595839 
L 539.936153 396.124544 
L 542.992012 401.234974 
L 546.047872 382.62537 
L 549.103732 403.044344 
L 552.159592 399.640089 
L 555.215452 418.934858 
L 558.271311 410.126135 
L 561.327171 404.715474 
L 564.383031 403.167271 
L 567.438891 405.996862 
L 570.494751 391.558113 
L 573.55061 391.095114 
L 576.60647 409.605671 
L 579.66233 398.520708 
L 582.71819 411.851169 
L 585.77405 402.163102 
L 588.829909 405.558829 
L 591.885769 392.083063 
L 594.941629 397.560575 
L 597.997489 381.560294 
L 601.053349 400.496393 
L 604.109208 372.381054 
L 607.165068 395.245891 
L 610.220928 402.025921 
L 613.276788 404.507852 
L 616.332648 404.355366 
L 619.388507 392.951906 
L 622.444367 410.588048 
L 625.500227 411.697273 
L 628.556087 407.412334 
L 631.611947 410.93946 
L 634.667806 410.566805 
L 637.723666 398.134019 
L 640.779526 406.932663 
L 643.835386 391.043355 
L 646.891246 399.184728 
L 649.947105 402.092561 
L 653.002965 391.37947 
L 656.058825 405.560684 
L 659.114685 388.45725 
L 662.170545 385.291424 
L 665.226405 390.810836 
L 668.282264 404.704402 
L 671.338124 411.141899 
L 674.393984 400.469452 
L 677.449844 411.661531 
L 680.505704 410.842705 
L 683.561563 407.451477 
L 686.617423 393.415808 
L 689.673283 398.255938 
L 692.729143 405.492104 
L 695.785003 404.353667 
L 698.840862 402.614048 
L 701.896722 406.429013 
L 704.952582 409.295453 
L 708.008442 410.748721 
L 711.064302 413.554291 
L 714.120161 404.340492 
L 717.176021 401.107427 
L 720.231881 402.069682 
L 723.287741 404.765252 
L 726.343601 400.804706 
L 729.39946 406.298341 
L 732.45532 406.160511 
L 735.51118 406.554966 
L 738.56704 399.547502 
L 741.6229 398.620051 
L 744.678759 403.369252 
L 747.734619 393.113249 
L 750.790479 393.019985 
L 753.846339 401.714173 
L 756.902199 401.746805 
L 759.958058 407.930852 
L 763.013918 397.092696 
L 766.069778 407.317751 
L 769.125638 390.388299 
L 772.181498 391.040125 
L 775.237357 361.815631 
L 778.293217 379.393807 
L 781.349077 372.156639 
L 784.404937 388.409503 
L 787.460797 370.441323 
L 790.516656 389.165173 
L 793.572516 401.216771 
L 796.628376 391.293851 
L 799.684236 388.4835 
L 802.740096 396.58346 
L 805.795955 404.334836 
L 808.851815 405.856655 
L 811.907675 400.985254 
L 814.963535 391.723667 
L 818.019395 387.530497 
L 821.075254 382.870026 
L 824.131114 371.178381 
L 827.186974 396.08536 
L 830.242834 399.771938 
L 833.298694 381.637295 
L 836.354553 376.426845 
L 839.410413 400.049171 
L 842.466273 391.971744 
L 845.522133 402.977294 
L 848.577993 393.213439 
L 851.633852 403.40077 
L 854.689712 392.742478 
L 857.745572 397.584202 
L 857.745572 397.584202 
" clip-path="url(#p1e44880862)" style="fill: none; stroke-dasharray: 7.4,3.2; stroke-dashoffset: 0; stroke: #0000ff; stroke-width: 2"/>
   </g>
   <g id="line2d_17">
    <path d="M 96.836481 356.492 
L 99.892341 428.895256 
L 102.948201 393.6973 
L 106.004061 422.555332 
L 109.05992 382.529891 
L 112.11578 418.51665 
L 115.17164 350.318483 
L 118.2275 423.458677 
L 121.28336 411.881552 
L 124.339219 445.656023 
L 127.395079 377.82252 
L 130.450939 425.752457 
L 133.506799 433.76349 
L 136.562659 433.907336 
L 139.618518 394.388543 
L 142.674378 459.159859 
L 145.730238 407.852363 
L 148.786098 426.209898 
L 151.841958 406.426671 
L 154.897817 417.260081 
L 157.953677 348.039139 
L 161.009537 446.753076 
L 164.065397 426.331105 
L 167.121257 403.618944 
L 170.177116 374.809815 
L 173.232976 446.155322 
L 176.288836 436.216082 
L 179.344696 424.305445 
L 182.400556 408.950205 
L 185.456415 447.649664 
L 188.512275 354.672488 
L 191.568135 419.282384 
L 194.623995 393.628762 
L 197.679855 427.294771 
L 200.735714 405.491999 
L 203.791574 428.971057 
L 206.847434 407.562408 
L 209.903294 443.537713 
L 212.959154 411.36917 
L 216.015013 450.760451 
L 219.070873 374.784975 
L 222.126733 449.355501 
L 225.182593 383.136687 
L 228.238453 428.404998 
L 231.294313 399.740604 
L 234.350172 459.700829 
L 237.406032 429.374906 
L 240.461892 449.099367 
L 243.517752 296.918143 
L 246.573612 415.722047 
L 249.629471 389.566355 
L 252.685331 417.618418 
L 255.741191 390.397361 
L 258.797051 455.508199 
L 261.852911 388.476369 
L 264.90877 405.833184 
L 267.96463 367.446813 
L 271.02049 412.340298 
L 274.07635 406.690496 
L 277.13221 418.217336 
L 280.188069 394.338942 
L 283.243929 437.416407 
L 286.299789 335.746566 
L 289.355649 433.602337 
L 292.411509 367.151011 
L 295.467368 402.808792 
L 298.523228 331.80909 
L 301.579088 460.74529 
L 304.634948 417.65823 
L 307.690808 430.735671 
L 310.746667 286.558262 
L 313.802527 424.08919 
L 316.858387 410.952042 
L 319.914247 426.185242 
L 322.970107 387.267144 
L 326.025966 406.251138 
L 329.081826 352.710006 
L 332.137686 409.16639 
L 335.193546 397.208091 
L 338.249406 401.866376 
L 341.305265 370.047024 
L 344.361125 407.228832 
L 347.416985 399.318073 
L 350.472845 437.614106 
L 353.528705 331.235865 
L 356.584564 417.486858 
L 359.640424 391.214953 
L 362.696284 427.362871 
L 365.752144 410.010161 
L 368.808004 420.188458 
L 371.863863 350.977976 
L 374.919723 407.897027 
L 377.975583 353.97951 
L 381.031443 364.571747 
L 384.087303 345.744633 
L 387.143162 423.001602 
L 390.199022 424.415614 
L 393.254882 408.895004 
L 396.310742 362.851692 
L 399.366602 407.167509 
L 402.422461 313.819533 
L 405.478321 429.30153 
L 408.534181 428.926703 
L 411.590041 419.068907 
L 414.645901 364.812877 
L 417.70176 429.639733 
L 420.75762 396.632299 
L 423.81348 438.948579 
L 426.86934 393.485389 
L 429.9252 397.780738 
L 432.981059 233.948128 
L 436.036919 377.458279 
L 439.092779 394.483091 
L 442.148639 362.556074 
L 445.204499 318.819786 
L 448.260359 435.647992 
L 451.316218 382.586228 
L 454.372078 416.988088 
L 457.427938 421.51475 
L 460.483798 420.448954 
L 463.539658 351.361809 
L 466.595517 384.029396 
L 469.651377 378.64964 
L 472.707237 416.603494 
L 475.763097 310.225986 
L 478.818957 433.34529 
L 481.874816 385.256147 
L 484.930676 382.181872 
L 487.986536 403.157151 
L 491.042396 411.150425 
L 494.098256 363.432435 
L 497.154115 390.431686 
L 500.209975 372.699396 
L 503.265835 407.108507 
L 506.321695 373.747588 
L 509.377555 423.283341 
L 512.433414 271.696989 
L 515.489274 412.753512 
L 518.545134 367.685729 
L 521.600994 430.401326 
L 524.656854 317.994303 
L 527.712713 406.596936 
L 530.768573 338.998286 
L 533.824433 412.031667 
L 536.880293 439.336136 
L 539.936153 400.481801 
L 542.992012 237.037355 
L 546.047872 423.145751 
L 549.103732 424.99666 
L 552.159592 420.483138 
L 555.215452 230.569884 
L 558.271311 406.400273 
L 561.327171 409.923266 
L 564.383031 405.427086 
L 567.438891 300.508107 
L 570.494751 421.240783 
L 573.55061 441.070233 
L 576.60647 363.861278 
L 579.66233 300.786842 
L 582.71819 437.586284 
L 585.77405 355.664386 
L 588.829909 375.213832 
L 591.885769 335.99197 
L 594.941629 367.153494 
L 597.997489 407.867039 
L 601.053349 387.502442 
L 604.109208 306.71621 
L 607.165068 373.597056 
L 610.220928 416.931138 
L 613.276788 409.606263 
L 616.332648 257.139136 
L 619.388507 346.13257 
L 622.444367 415.640681 
L 625.500227 422.307029 
L 628.556087 267.016588 
L 631.611947 387.94441 
L 634.667806 376.947555 
L 637.723666 360.363534 
L 640.779526 405.554781 
L 643.835386 425.255408 
L 646.891246 364.990998 
L 649.947105 429.156577 
L 653.002965 387.440421 
L 656.058825 401.937939 
L 659.114685 358.14851 
L 662.170545 421.151249 
L 665.226405 344.6203 
L 668.282264 370.676317 
L 671.338124 403.957449 
L 674.393984 416.053536 
L 677.449844 426.02593 
L 680.505704 416.194906 
L 683.561563 305.888004 
L 686.617423 414.71931 
L 689.673283 441.230264 
L 692.729143 417.897985 
L 695.785003 380.837426 
L 698.840862 464.237187 
L 701.896722 413.006265 
L 704.952582 419.664263 
L 708.008442 371.878384 
L 711.064302 397.500423 
L 714.120161 328.863864 
L 717.176021 398.079198 
L 720.231881 358.553459 
L 723.287741 440.105551 
L 726.343601 439.452582 
L 729.39946 433.243189 
L 732.45532 377.188093 
L 735.51118 385.257191 
L 738.56704 321.259338 
L 741.6229 426.785937 
L 744.678759 398.654743 
L 747.734619 409.688751 
L 750.790479 439.984605 
L 753.846339 427.724319 
L 756.902199 338.451509 
L 759.958058 397.597531 
L 763.013918 403.838605 
L 766.069778 410.877545 
L 769.125638 370.009024 
L 772.181498 400.788217 
L 775.237357 399.448391 
L 778.293217 422.389517 
L 781.349077 355.468069 
L 784.404937 419.077716 
L 787.460797 359.74537 
L 790.516656 384.655699 
L 793.572516 430.679391 
L 796.628376 440.647504 
L 799.684236 395.098343 
L 802.740096 424.515176 
L 805.795955 410.75413 
L 808.851815 452.583401 
L 811.907675 384.905884 
L 814.963535 436.752901 
L 818.019395 384.989077 
L 821.075254 368.654409 
L 824.131114 363.235328 
L 827.186974 383.123766 
L 830.242834 342.41831 
L 833.298694 420.770371 
L 836.354553 308.861666 
L 839.410413 399.605249 
L 842.466273 420.989328 
L 845.522133 416.908076 
L 848.577993 323.507791 
L 851.633852 399.986628 
L 854.689712 379.758852 
L 857.745572 400.033514 
L 857.745572 400.033514 
" clip-path="url(#p1e44880862)" style="fill: none; stroke-dasharray: 7.4,3.2; stroke-dashoffset: 0; stroke: #ffa500; stroke-width: 2"/>
   </g>
   <g id="patch_3">
    <path d="M 58.791027 484.397187 
L 58.791027 40.877187 
" style="fill: none; stroke: #000000; stroke-width: 0.8; stroke-linejoin: miter; stroke-linecap: square"/>
   </g>
   <g id="patch_4">
    <path d="M 895.791027 484.397187 
L 895.791027 40.877187 
" style="fill: none; stroke: #000000; stroke-width: 0.8; stroke-linejoin: miter; stroke-linecap: square"/>
   </g>
   <g id="patch_5">
    <path d="M 58.791027 484.397187 
L 895.791027 484.397187 
" style="fill: none; stroke: #000000; stroke-width: 0.8; stroke-linejoin: miter; stroke-linecap: square"/>
   </g>
   <g id="patch_6">
    <path d="M 58.791027 40.877187 
L 895.791027 40.877187 
" style="fill: none; stroke: #000000; stroke-width: 0.8; stroke-linejoin: miter; stroke-linecap: square"/>
   </g>
   <g id="text_16">
    <!-- Temperature two steps forward prediction: RMSES -->
    <g transform="translate(251.610402 20.877187) scale(0.18 -0.18)">
     <defs>
      <path id="DejaVuSans-54" d="M -19 4666 
L 3928 4666 
L 3928 4134 
L 2272 4134 
L 2272 0 
L 1638 0 
L 1638 4134 
L -19 4134 
L -19 4666 
z
" transform="scale(0.015625)"/>
      <path id="DejaVuSans-6d" d="M 3328 2828 
Q 3544 3216 3844 3400 
Q 4144 3584 4550 3584 
Q 5097 3584 5394 3201 
Q 5691 2819 5691 2113 
L 5691 0 
L 5113 0 
L 5113 2094 
Q 5113 2597 4934 2840 
Q 4756 3084 4391 3084 
Q 3944 3084 3684 2787 
Q 3425 2491 3425 1978 
L 3425 0 
L 2847 0 
L 2847 2094 
Q 2847 2600 2669 2842 
Q 2491 3084 2119 3084 
Q 1678 3084 1418 2786 
Q 1159 2488 1159 1978 
L 1159 0 
L 581 0 
L 581 3500 
L 1159 3500 
L 1159 2956 
Q 1356 3278 1631 3431 
Q 1906 3584 2284 3584 
Q 2666 3584 2933 3390 
Q 3200 3197 3328 2828 
z
" transform="scale(0.015625)"/>
      <path id="DejaVuSans-70" d="M 1159 525 
L 1159 -1331 
L 581 -1331 
L 581 3500 
L 1159 3500 
L 1159 2969 
Q 1341 3281 1617 3432 
Q 1894 3584 2278 3584 
Q 2916 3584 3314 3078 
Q 3713 2572 3713 1747 
Q 3713 922 3314 415 
Q 2916 -91 2278 -91 
Q 1894 -91 1617 61 
Q 1341 213 1159 525 
z
M 3116 1747 
Q 3116 2381 2855 2742 
Q 2594 3103 2138 3103 
Q 1681 3103 1420 2742 
Q 1159 2381 1159 1747 
Q 1159 1113 1420 752 
Q 1681 391 2138 391 
Q 2594 391 2855 752 
Q 3116 1113 3116 1747 
z
" transform="scale(0.015625)"/>
      <path id="DejaVuSans-77" d="M 269 3500 
L 844 3500 
L 1563 769 
L 2278 3500 
L 2956 3500 
L 3675 769 
L 4391 3500 
L 4966 3500 
L 4050 0 
L 3372 0 
L 2619 2869 
L 1863 0 
L 1184 0 
L 269 3500 
z
" transform="scale(0.015625)"/>
      <path id="DejaVuSans-66" d="M 2375 4863 
L 2375 4384 
L 1825 4384 
Q 1516 4384 1395 4259 
Q 1275 4134 1275 3809 
L 1275 3500 
L 2222 3500 
L 2222 3053 
L 1275 3053 
L 1275 0 
L 697 0 
L 697 3053 
L 147 3053 
L 147 3500 
L 697 3500 
L 697 3744 
Q 697 4328 969 4595 
Q 1241 4863 1831 4863 
L 2375 4863 
z
" transform="scale(0.015625)"/>
      <path id="DejaVuSans-69" d="M 603 3500 
L 1178 3500 
L 1178 0 
L 603 0 
L 603 3500 
z
M 603 4863 
L 1178 4863 
L 1178 4134 
L 603 4134 
L 603 4863 
z
" transform="scale(0.015625)"/>
     </defs>
     <use xlink:href="#DejaVuSans-54"/>
     <use xlink:href="#DejaVuSans-65" transform="translate(44.083984 0)"/>
     <use xlink:href="#DejaVuSans-6d" transform="translate(105.607422 0)"/>
     <use xlink:href="#DejaVuSans-70" transform="translate(203.019531 0)"/>
     <use xlink:href="#DejaVuSans-65" transform="translate(266.496094 0)"/>
     <use xlink:href="#DejaVuSans-72" transform="translate(328.019531 0)"/>
     <use xlink:href="#DejaVuSans-61" transform="translate(369.132812 0)"/>
     <use xlink:href="#DejaVuSans-74" transform="translate(430.412109 0)"/>
     <use xlink:href="#DejaVuSans-75" transform="translate(469.621094 0)"/>
     <use xlink:href="#DejaVuSans-72" transform="translate(533 0)"/>
     <use xlink:href="#DejaVuSans-65" transform="translate(571.863281 0)"/>
     <use xlink:href="#DejaVuSans-20" transform="translate(633.386719 0)"/>
     <use xlink:href="#DejaVuSans-74" transform="translate(665.173828 0)"/>
     <use xlink:href="#DejaVuSans-77" transform="translate(704.382812 0)"/>
     <use xlink:href="#DejaVuSans-6f" transform="translate(786.169922 0)"/>
     <use xlink:href="#DejaVuSans-20" transform="translate(847.351562 0)"/>
     <use xlink:href="#DejaVuSans-73" transform="translate(879.138672 0)"/>
     <use xlink:href="#DejaVuSans-74" transform="translate(931.238281 0)"/>
     <use xlink:href="#DejaVuSans-65" transform="translate(970.447266 0)"/>
     <use xlink:href="#DejaVuSans-70" transform="translate(1031.970703 0)"/>
     <use xlink:href="#DejaVuSans-73" transform="translate(1095.447266 0)"/>
     <use xlink:href="#DejaVuSans-20" transform="translate(1147.546875 0)"/>
     <use xlink:href="#DejaVuSans-66" transform="translate(1179.333984 0)"/>
     <use xlink:href="#DejaVuSans-6f" transform="translate(1214.539062 0)"/>
     <use xlink:href="#DejaVuSans-72" transform="translate(1275.720703 0)"/>
     <use xlink:href="#DejaVuSans-77" transform="translate(1316.833984 0)"/>
     <use xlink:href="#DejaVuSans-61" transform="translate(1398.621094 0)"/>
     <use xlink:href="#DejaVuSans-72" transform="translate(1459.900391 0)"/>
     <use xlink:href="#DejaVuSans-64" transform="translate(1499.263672 0)"/>
     <use xlink:href="#DejaVuSans-20" transform="translate(1562.740234 0)"/>
     <use xlink:href="#DejaVuSans-70" transform="translate(1594.527344 0)"/>
     <use xlink:href="#DejaVuSans-72" transform="translate(1658.003906 0)"/>
     <use xlink:href="#DejaVuSans-65" transform="translate(1696.867188 0)"/>
     <use xlink:href="#DejaVuSans-64" transform="translate(1758.390625 0)"/>
     <use xlink:href="#DejaVuSans-69" transform="translate(1821.867188 0)"/>
     <use xlink:href="#DejaVuSans-63" transform="translate(1849.650391 0)"/>
     <use xlink:href="#DejaVuSans-74" transform="translate(1904.630859 0)"/>
     <use xlink:href="#DejaVuSans-69" transform="translate(1943.839844 0)"/>
     <use xlink:href="#DejaVuSans-6f" transform="translate(1971.623047 0)"/>
     <use xlink:href="#DejaVuSans-6e" transform="translate(2032.804688 0)"/>
     <use xlink:href="#DejaVuSans-3a" transform="translate(2096.183594 0)"/>
     <use xlink:href="#DejaVuSans-20" transform="translate(2129.875 0)"/>
     <use xlink:href="#DejaVuSans-52" transform="translate(2161.662109 0)"/>
     <use xlink:href="#DejaVuSans-4d" transform="translate(2231.144531 0)"/>
     <use xlink:href="#DejaVuSans-53" transform="translate(2317.423828 0)"/>
     <use xlink:href="#DejaVuSans-45" transform="translate(2380.900391 0)"/>
     <use xlink:href="#DejaVuSans-53" transform="translate(2444.083984 0)"/>
    </g>
   </g>
   <g id="legend_1">
    <g id="text_17">
     <!-- Forecast Horizon -->
     <g transform="translate(1020.26087 65.634687) scale(0.16 -0.16)">
      <defs>
       <path id="DejaVuSans-48" d="M 628 4666 
L 1259 4666 
L 1259 2753 
L 3553 2753 
L 3553 4666 
L 4184 4666 
L 4184 0 
L 3553 0 
L 3553 2222 
L 1259 2222 
L 1259 0 
L 628 0 
L 628 4666 
z
" transform="scale(0.015625)"/>
       <path id="DejaVuSans-7a" d="M 353 3500 
L 3084 3500 
L 3084 2975 
L 922 459 
L 3084 459 
L 3084 0 
L 275 0 
L 275 525 
L 2438 3041 
L 353 3041 
L 353 3500 
z
" transform="scale(0.015625)"/>
      </defs>
      <use xlink:href="#DejaVuSans-46"/>
      <use xlink:href="#DejaVuSans-6f" transform="translate(53.894531 0)"/>
      <use xlink:href="#DejaVuSans-72" transform="translate(115.076172 0)"/>
      <use xlink:href="#DejaVuSans-65" transform="translate(153.939453 0)"/>
      <use xlink:href="#DejaVuSans-63" transform="translate(215.462891 0)"/>
      <use xlink:href="#DejaVuSans-61" transform="translate(270.443359 0)"/>
      <use xlink:href="#DejaVuSans-73" transform="translate(331.722656 0)"/>
      <use xlink:href="#DejaVuSans-74" transform="translate(383.822266 0)"/>
      <use xlink:href="#DejaVuSans-20" transform="translate(423.03125 0)"/>
      <use xlink:href="#DejaVuSans-48" transform="translate(454.818359 0)"/>
      <use xlink:href="#DejaVuSans-6f" transform="translate(530.013672 0)"/>
      <use xlink:href="#DejaVuSans-72" transform="translate(591.195312 0)"/>
      <use xlink:href="#DejaVuSans-69" transform="translate(632.308594 0)"/>
      <use xlink:href="#DejaVuSans-7a" transform="translate(660.091797 0)"/>
      <use xlink:href="#DejaVuSans-6f" transform="translate(712.582031 0)"/>
      <use xlink:href="#DejaVuSans-6e" transform="translate(773.763672 0)"/>
     </g>
    </g>
    <g id="line2d_18">
     <path d="M 950.241027 81.7 
L 964.241027 81.7 
L 978.241027 81.7 
" style="fill: none; stroke: #0000ff; stroke-width: 2; stroke-linecap: square"/>
    </g>
    <g id="text_18">
     <!-- Global RMSE (6h Forecast) -->
     <g transform="translate(989.441027 86.6) scale(0.14 -0.14)">
      <defs>
       <path id="DejaVuSans-47" d="M 3809 666 
L 3809 1919 
L 2778 1919 
L 2778 2438 
L 4434 2438 
L 4434 434 
Q 4069 175 3628 42 
Q 3188 -91 2688 -91 
Q 1594 -91 976 548 
Q 359 1188 359 2328 
Q 359 3472 976 4111 
Q 1594 4750 2688 4750 
Q 3144 4750 3555 4637 
Q 3966 4525 4313 4306 
L 4313 3634 
Q 3963 3931 3569 4081 
Q 3175 4231 2741 4231 
Q 1884 4231 1454 3753 
Q 1025 3275 1025 2328 
Q 1025 1384 1454 906 
Q 1884 428 2741 428 
Q 3075 428 3337 486 
Q 3600 544 3809 666 
z
" transform="scale(0.015625)"/>
       <path id="DejaVuSans-6c" d="M 603 4863 
L 1178 4863 
L 1178 0 
L 603 0 
L 603 4863 
z
" transform="scale(0.015625)"/>
       <path id="DejaVuSans-62" d="M 3116 1747 
Q 3116 2381 2855 2742 
Q 2594 3103 2138 3103 
Q 1681 3103 1420 2742 
Q 1159 2381 1159 1747 
Q 1159 1113 1420 752 
Q 1681 391 2138 391 
Q 2594 391 2855 752 
Q 3116 1113 3116 1747 
z
M 1159 2969 
Q 1341 3281 1617 3432 
Q 1894 3584 2278 3584 
Q 2916 3584 3314 3078 
Q 3713 2572 3713 1747 
Q 3713 922 3314 415 
Q 2916 -91 2278 -91 
Q 1894 -91 1617 61 
Q 1341 213 1159 525 
L 1159 0 
L 581 0 
L 581 4863 
L 1159 4863 
L 1159 2969 
z
" transform="scale(0.015625)"/>
       <path id="DejaVuSans-68" d="M 3513 2113 
L 3513 0 
L 2938 0 
L 2938 2094 
Q 2938 2591 2744 2837 
Q 2550 3084 2163 3084 
Q 1697 3084 1428 2787 
Q 1159 2491 1159 1978 
L 1159 0 
L 581 0 
L 581 4863 
L 1159 4863 
L 1159 2956 
Q 1366 3272 1645 3428 
Q 1925 3584 2291 3584 
Q 2894 3584 3203 3211 
Q 3513 2838 3513 2113 
z
" transform="scale(0.015625)"/>
      </defs>
      <use xlink:href="#DejaVuSans-47"/>
      <use xlink:href="#DejaVuSans-6c" transform="translate(77.490234 0)"/>
      <use xlink:href="#DejaVuSans-6f" transform="translate(105.273438 0)"/>
      <use xlink:href="#DejaVuSans-62" transform="translate(166.455078 0)"/>
      <use xlink:href="#DejaVuSans-61" transform="translate(229.931641 0)"/>
      <use xlink:href="#DejaVuSans-6c" transform="translate(291.210938 0)"/>
      <use xlink:href="#DejaVuSans-20" transform="translate(318.994141 0)"/>
      <use xlink:href="#DejaVuSans-52" transform="translate(350.78125 0)"/>
      <use xlink:href="#DejaVuSans-4d" transform="translate(420.263672 0)"/>
      <use xlink:href="#DejaVuSans-53" transform="translate(506.542969 0)"/>
      <use xlink:href="#DejaVuSans-45" transform="translate(570.019531 0)"/>
      <use xlink:href="#DejaVuSans-20" transform="translate(633.203125 0)"/>
      <use xlink:href="#DejaVuSans-28" transform="translate(664.990234 0)"/>
      <use xlink:href="#DejaVuSans-36" transform="translate(704.003906 0)"/>
      <use xlink:href="#DejaVuSans-68" transform="translate(767.626953 0)"/>
      <use xlink:href="#DejaVuSans-20" transform="translate(831.005859 0)"/>
      <use xlink:href="#DejaVuSans-46" transform="translate(862.792969 0)"/>
      <use xlink:href="#DejaVuSans-6f" transform="translate(916.6875 0)"/>
      <use xlink:href="#DejaVuSans-72" transform="translate(977.869141 0)"/>
      <use xlink:href="#DejaVuSans-65" transform="translate(1016.732422 0)"/>
      <use xlink:href="#DejaVuSans-63" transform="translate(1078.255859 0)"/>
      <use xlink:href="#DejaVuSans-61" transform="translate(1133.236328 0)"/>
      <use xlink:href="#DejaVuSans-73" transform="translate(1194.515625 0)"/>
      <use xlink:href="#DejaVuSans-74" transform="translate(1246.615234 0)"/>
      <use xlink:href="#DejaVuSans-29" transform="translate(1285.824219 0)"/>
     </g>
    </g>
    <g id="line2d_19">
     <path d="M 950.241027 102.249375 
L 964.241027 102.249375 
L 978.241027 102.249375 
" style="fill: none; stroke: #ffa500; stroke-width: 2; stroke-linecap: square"/>
    </g>
    <g id="text_19">
     <!-- South Africa RMSE (6h Forecast) -->
     <g transform="translate(989.441027 107.149375) scale(0.14 -0.14)">
      <defs>
       <path id="DejaVuSans-41" d="M 2188 4044 
L 1331 1722 
L 3047 1722 
L 2188 4044 
z
M 1831 4666 
L 2547 4666 
L 4325 0 
L 3669 0 
L 3244 1197 
L 1141 1197 
L 716 0 
L 50 0 
L 1831 4666 
z
" transform="scale(0.015625)"/>
      </defs>
      <use xlink:href="#DejaVuSans-53"/>
      <use xlink:href="#DejaVuSans-6f" transform="translate(63.476562 0)"/>
      <use xlink:href="#DejaVuSans-75" transform="translate(124.658203 0)"/>
      <use xlink:href="#DejaVuSans-74" transform="translate(188.037109 0)"/>
      <use xlink:href="#DejaVuSans-68" transform="translate(227.246094 0)"/>
      <use xlink:href="#DejaVuSans-20" transform="translate(290.625 0)"/>
      <use xlink:href="#DejaVuSans-41" transform="translate(322.412109 0)"/>
      <use xlink:href="#DejaVuSans-66" transform="translate(387.195312 0)"/>
      <use xlink:href="#DejaVuSans-72" transform="translate(422.400391 0)"/>
      <use xlink:href="#DejaVuSans-69" transform="translate(463.513672 0)"/>
      <use xlink:href="#DejaVuSans-63" transform="translate(491.296875 0)"/>
      <use xlink:href="#DejaVuSans-61" transform="translate(546.277344 0)"/>
      <use xlink:href="#DejaVuSans-20" transform="translate(607.556641 0)"/>
      <use xlink:href="#DejaVuSans-52" transform="translate(639.34375 0)"/>
      <use xlink:href="#DejaVuSans-4d" transform="translate(708.826172 0)"/>
      <use xlink:href="#DejaVuSans-53" transform="translate(795.105469 0)"/>
      <use xlink:href="#DejaVuSans-45" transform="translate(858.582031 0)"/>
      <use xlink:href="#DejaVuSans-20" transform="translate(921.765625 0)"/>
      <use xlink:href="#DejaVuSans-28" transform="translate(953.552734 0)"/>
      <use xlink:href="#DejaVuSans-36" transform="translate(992.566406 0)"/>
      <use xlink:href="#DejaVuSans-68" transform="translate(1056.189453 0)"/>
      <use xlink:href="#DejaVuSans-20" transform="translate(1119.568359 0)"/>
      <use xlink:href="#DejaVuSans-46" transform="translate(1151.355469 0)"/>
      <use xlink:href="#DejaVuSans-6f" transform="translate(1205.25 0)"/>
      <use xlink:href="#DejaVuSans-72" transform="translate(1266.431641 0)"/>
      <use xlink:href="#DejaVuSans-65" transform="translate(1305.294922 0)"/>
      <use xlink:href="#DejaVuSans-63" transform="translate(1366.818359 0)"/>
      <use xlink:href="#DejaVuSans-61" transform="translate(1421.798828 0)"/>
      <use xlink:href="#DejaVuSans-73" transform="translate(1483.078125 0)"/>
      <use xlink:href="#DejaVuSans-74" transform="translate(1535.177734 0)"/>
      <use xlink:href="#DejaVuSans-29" transform="translate(1574.386719 0)"/>
     </g>
    </g>
    <g id="line2d_20">
     <path d="M 950.241027 122.79875 
L 964.241027 122.79875 
L 978.241027 122.79875 
" style="fill: none; stroke-dasharray: 7.4,3.2; stroke-dashoffset: 0; stroke: #0000ff; stroke-width: 2"/>
    </g>
    <g id="text_20">
     <!-- Global RMSE (12h Forecast) -->
     <g transform="translate(989.441027 127.69875) scale(0.14 -0.14)">
      <use xlink:href="#DejaVuSans-47"/>
      <use xlink:href="#DejaVuSans-6c" transform="translate(77.490234 0)"/>
      <use xlink:href="#DejaVuSans-6f" transform="translate(105.273438 0)"/>
      <use xlink:href="#DejaVuSans-62" transform="translate(166.455078 0)"/>
      <use xlink:href="#DejaVuSans-61" transform="translate(229.931641 0)"/>
      <use xlink:href="#DejaVuSans-6c" transform="translate(291.210938 0)"/>
      <use xlink:href="#DejaVuSans-20" transform="translate(318.994141 0)"/>
      <use xlink:href="#DejaVuSans-52" transform="translate(350.78125 0)"/>
      <use xlink:href="#DejaVuSans-4d" transform="translate(420.263672 0)"/>
      <use xlink:href="#DejaVuSans-53" transform="translate(506.542969 0)"/>
      <use xlink:href="#DejaVuSans-45" transform="translate(570.019531 0)"/>
      <use xlink:href="#DejaVuSans-20" transform="translate(633.203125 0)"/>
      <use xlink:href="#DejaVuSans-28" transform="translate(664.990234 0)"/>
      <use xlink:href="#DejaVuSans-31" transform="translate(704.003906 0)"/>
      <use xlink:href="#DejaVuSans-32" transform="translate(767.626953 0)"/>
      <use xlink:href="#DejaVuSans-68" transform="translate(831.25 0)"/>
      <use xlink:href="#DejaVuSans-20" transform="translate(894.628906 0)"/>
      <use xlink:href="#DejaVuSans-46" transform="translate(926.416016 0)"/>
      <use xlink:href="#DejaVuSans-6f" transform="translate(980.310547 0)"/>
      <use xlink:href="#DejaVuSans-72" transform="translate(1041.492188 0)"/>
      <use xlink:href="#DejaVuSans-65" transform="translate(1080.355469 0)"/>
      <use xlink:href="#DejaVuSans-63" transform="translate(1141.878906 0)"/>
      <use xlink:href="#DejaVuSans-61" transform="translate(1196.859375 0)"/>
      <use xlink:href="#DejaVuSans-73" transform="translate(1258.138672 0)"/>
      <use xlink:href="#DejaVuSans-74" transform="translate(1310.238281 0)"/>
      <use xlink:href="#DejaVuSans-29" transform="translate(1349.447266 0)"/>
     </g>
    </g>
    <g id="line2d_21">
     <path d="M 950.241027 143.348125 
L 964.241027 143.348125 
L 978.241027 143.348125 
" style="fill: none; stroke-dasharray: 7.4,3.2; stroke-dashoffset: 0; stroke: #ffa500; stroke-width: 2"/>
    </g>
    <g id="text_21">
     <!-- South Africa RMSE (12h Forecast) -->
     <g transform="translate(989.441027 148.248125) scale(0.14 -0.14)">
      <use xlink:href="#DejaVuSans-53"/>
      <use xlink:href="#DejaVuSans-6f" transform="translate(63.476562 0)"/>
      <use xlink:href="#DejaVuSans-75" transform="translate(124.658203 0)"/>
      <use xlink:href="#DejaVuSans-74" transform="translate(188.037109 0)"/>
      <use xlink:href="#DejaVuSans-68" transform="translate(227.246094 0)"/>
      <use xlink:href="#DejaVuSans-20" transform="translate(290.625 0)"/>
      <use xlink:href="#DejaVuSans-41" transform="translate(322.412109 0)"/>
      <use xlink:href="#DejaVuSans-66" transform="translate(387.195312 0)"/>
      <use xlink:href="#DejaVuSans-72" transform="translate(422.400391 0)"/>
      <use xlink:href="#DejaVuSans-69" transform="translate(463.513672 0)"/>
      <use xlink:href="#DejaVuSans-63" transform="translate(491.296875 0)"/>
      <use xlink:href="#DejaVuSans-61" transform="translate(546.277344 0)"/>
      <use xlink:href="#DejaVuSans-20" transform="translate(607.556641 0)"/>
      <use xlink:href="#DejaVuSans-52" transform="translate(639.34375 0)"/>
      <use xlink:href="#DejaVuSans-4d" transform="translate(708.826172 0)"/>
      <use xlink:href="#DejaVuSans-53" transform="translate(795.105469 0)"/>
      <use xlink:href="#DejaVuSans-45" transform="translate(858.582031 0)"/>
      <use xlink:href="#DejaVuSans-20" transform="translate(921.765625 0)"/>
      <use xlink:href="#DejaVuSans-28" transform="translate(953.552734 0)"/>
      <use xlink:href="#DejaVuSans-31" transform="translate(992.566406 0)"/>
      <use xlink:href="#DejaVuSans-32" transform="translate(1056.189453 0)"/>
      <use xlink:href="#DejaVuSans-68" transform="translate(1119.8125 0)"/>
      <use xlink:href="#DejaVuSans-20" transform="translate(1183.191406 0)"/>
      <use xlink:href="#DejaVuSans-46" transform="translate(1214.978516 0)"/>
      <use xlink:href="#DejaVuSans-6f" transform="translate(1268.873047 0)"/>
      <use xlink:href="#DejaVuSans-72" transform="translate(1330.054688 0)"/>
      <use xlink:href="#DejaVuSans-65" transform="translate(1368.917969 0)"/>
      <use xlink:href="#DejaVuSans-63" transform="translate(1430.441406 0)"/>
      <use xlink:href="#DejaVuSans-61" transform="translate(1485.421875 0)"/>
      <use xlink:href="#DejaVuSans-73" transform="translate(1546.701172 0)"/>
      <use xlink:href="#DejaVuSans-74" transform="translate(1598.800781 0)"/>
      <use xlink:href="#DejaVuSans-29" transform="translate(1638.009766 0)"/>
     </g>
    </g>
   </g>
  </g>
 </g>
 <defs>
  <clipPath id="p1e44880862">
   <rect x="58.791027" y="40.877187" width="837" height="443.52"/>
  </clipPath>
 </defs>
</svg>
