<?xml version="1.0" encoding="utf-8" standalone="no"?>
<!DOCTYPE svg PUBLIC "-//W3C//DTD SVG 1.1//EN"
  "http://www.w3.org/Graphics/SVG/1.1/DTD/svg11.dtd">
<svg xmlns:xlink="http://www.w3.org/1999/xlink" width="1237.023214pt" height="575.421502pt" viewBox="0 0 1237.023214 575.421502" xmlns="http://www.w3.org/2000/svg" version="1.1">
 <metadata>
  <rdf:RDF xmlns:dc="http://purl.org/dc/elements/1.1/" xmlns:cc="http://creativecommons.org/ns#" xmlns:rdf="http://www.w3.org/1999/02/22-rdf-syntax-ns#">
   <cc:Work>
    <dc:type rdf:resource="http://purl.org/dc/dcmitype/StillImage"/>
    <dc:date>2025-02-18T10:05:16.692484</dc:date>
    <dc:format>image/svg+xml</dc:format>
    <dc:creator>
     <cc:Agent>
      <dc:title>Matplotlib v3.10.0, https://matplotlib.org/</dc:title>
     </cc:Agent>
    </dc:creator>
   </cc:Work>
  </rdf:RDF>
 </metadata>
 <defs>
  <style type="text/css">*{stroke-linejoin: round; stroke-linecap: butt}</style>
 </defs>
 <g id="figure_1">
  <g id="patch_1">
   <path d="M 0 575.421502 
L 1237.023214 575.421502 
L 1237.023214 0 
L 0 0 
z
" style="fill: #ffffff"/>
  </g>
  <g id="axes_1">
   <g id="patch_2">
    <path d="M 58.791027 484.397187 
L 895.791027 484.397187 
L 895.791027 40.877187 
L 58.791027 40.877187 
z
" style="fill: #ffffff"/>
   </g>
   <g id="matplotlib.axis_1">
    <g id="xtick_1">
     <g id="line2d_1">
      <defs>
       <path id="m86dfd37b68" d="M 0 0 
L 0 3.5 
" style="stroke: #000000; stroke-width: 0.8"/>
      </defs>
      <g>
       <use xlink:href="#m86dfd37b68" x="96.836481" y="484.397187" style="stroke: #000000; stroke-width: 0.8"/>
      </g>
     </g>
     <g id="text_1">
      <!-- 2022-01-01 (12:00) -->
      <g transform="translate(10.999219 546.93544) rotate(-30) scale(0.1 -0.1)">
       <defs>
        <path id="DejaVuSans-32" d="M 1228 531 
L 3431 531 
L 3431 0 
L 469 0 
L 469 531 
Q 828 903 1448 1529 
Q 2069 2156 2228 2338 
Q 2531 2678 2651 2914 
Q 2772 3150 2772 3378 
Q 2772 3750 2511 3984 
Q 2250 4219 1831 4219 
Q 1534 4219 1204 4116 
Q 875 4013 500 3803 
L 500 4441 
Q 881 4594 1212 4672 
Q 1544 4750 1819 4750 
Q 2544 4750 2975 4387 
Q 3406 4025 3406 3419 
Q 3406 3131 3298 2873 
Q 3191 2616 2906 2266 
Q 2828 2175 2409 1742 
Q 1991 1309 1228 531 
z
" transform="scale(0.015625)"/>
        <path id="DejaVuSans-30" d="M 2034 4250 
Q 1547 4250 1301 3770 
Q 1056 3291 1056 2328 
Q 1056 1369 1301 889 
Q 1547 409 2034 409 
Q 2525 409 2770 889 
Q 3016 1369 3016 2328 
Q 3016 3291 2770 3770 
Q 2525 4250 2034 4250 
z
M 2034 4750 
Q 2819 4750 3233 4129 
Q 3647 3509 3647 2328 
Q 3647 1150 3233 529 
Q 2819 -91 2034 -91 
Q 1250 -91 836 529 
Q 422 1150 422 2328 
Q 422 3509 836 4129 
Q 1250 4750 2034 4750 
z
" transform="scale(0.015625)"/>
        <path id="DejaVuSans-2d" d="M 313 2009 
L 1997 2009 
L 1997 1497 
L 313 1497 
L 313 2009 
z
" transform="scale(0.015625)"/>
        <path id="DejaVuSans-31" d="M 794 531 
L 1825 531 
L 1825 4091 
L 703 3866 
L 703 4441 
L 1819 4666 
L 2450 4666 
L 2450 531 
L 3481 531 
L 3481 0 
L 794 0 
L 794 531 
z
" transform="scale(0.015625)"/>
        <path id="DejaVuSans-20" transform="scale(0.015625)"/>
        <path id="DejaVuSans-28" d="M 1984 4856 
Q 1566 4138 1362 3434 
Q 1159 2731 1159 2009 
Q 1159 1288 1364 580 
Q 1569 -128 1984 -844 
L 1484 -844 
Q 1016 -109 783 600 
Q 550 1309 550 2009 
Q 550 2706 781 3412 
Q 1013 4119 1484 4856 
L 1984 4856 
z
" transform="scale(0.015625)"/>
        <path id="DejaVuSans-3a" d="M 750 794 
L 1409 794 
L 1409 0 
L 750 0 
L 750 794 
z
M 750 3309 
L 1409 3309 
L 1409 2516 
L 750 2516 
L 750 3309 
z
" transform="scale(0.015625)"/>
        <path id="DejaVuSans-29" d="M 513 4856 
L 1013 4856 
Q 1481 4119 1714 3412 
Q 1947 2706 1947 2009 
Q 1947 1309 1714 600 
Q 1481 -109 1013 -844 
L 513 -844 
Q 928 -128 1133 580 
Q 1338 1288 1338 2009 
Q 1338 2731 1133 3434 
Q 928 4138 513 4856 
z
" transform="scale(0.015625)"/>
       </defs>
       <use xlink:href="#DejaVuSans-32"/>
       <use xlink:href="#DejaVuSans-30" transform="translate(63.623047 0)"/>
       <use xlink:href="#DejaVuSans-32" transform="translate(127.246094 0)"/>
       <use xlink:href="#DejaVuSans-32" transform="translate(190.869141 0)"/>
       <use xlink:href="#DejaVuSans-2d" transform="translate(254.492188 0)"/>
       <use xlink:href="#DejaVuSans-30" transform="translate(290.576172 0)"/>
       <use xlink:href="#DejaVuSans-31" transform="translate(354.199219 0)"/>
       <use xlink:href="#DejaVuSans-2d" transform="translate(417.822266 0)"/>
       <use xlink:href="#DejaVuSans-30" transform="translate(453.90625 0)"/>
       <use xlink:href="#DejaVuSans-31" transform="translate(517.529297 0)"/>
       <use xlink:href="#DejaVuSans-20" transform="translate(581.152344 0)"/>
       <use xlink:href="#DejaVuSans-28" transform="translate(612.939453 0)"/>
       <use xlink:href="#DejaVuSans-31" transform="translate(651.953125 0)"/>
       <use xlink:href="#DejaVuSans-32" transform="translate(715.576172 0)"/>
       <use xlink:href="#DejaVuSans-3a" transform="translate(779.199219 0)"/>
       <use xlink:href="#DejaVuSans-30" transform="translate(812.890625 0)"/>
       <use xlink:href="#DejaVuSans-30" transform="translate(876.513672 0)"/>
       <use xlink:href="#DejaVuSans-29" transform="translate(940.136719 0)"/>
      </g>
     </g>
    </g>
    <g id="xtick_2">
     <g id="line2d_2">
      <g>
       <use xlink:href="#m86dfd37b68" x="246.573612" y="484.397187" style="stroke: #000000; stroke-width: 0.8"/>
      </g>
     </g>
     <g id="text_2">
      <!-- 2022-03-16 (00:00) -->
      <g transform="translate(160.736349 546.93544) rotate(-30) scale(0.1 -0.1)">
       <defs>
        <path id="DejaVuSans-33" d="M 2597 2516 
Q 3050 2419 3304 2112 
Q 3559 1806 3559 1356 
Q 3559 666 3084 287 
Q 2609 -91 1734 -91 
Q 1441 -91 1130 -33 
Q 819 25 488 141 
L 488 750 
Q 750 597 1062 519 
Q 1375 441 1716 441 
Q 2309 441 2620 675 
Q 2931 909 2931 1356 
Q 2931 1769 2642 2001 
Q 2353 2234 1838 2234 
L 1294 2234 
L 1294 2753 
L 1863 2753 
Q 2328 2753 2575 2939 
Q 2822 3125 2822 3475 
Q 2822 3834 2567 4026 
Q 2313 4219 1838 4219 
Q 1578 4219 1281 4162 
Q 984 4106 628 3988 
L 628 4550 
Q 988 4650 1302 4700 
Q 1616 4750 1894 4750 
Q 2613 4750 3031 4423 
Q 3450 4097 3450 3541 
Q 3450 3153 3228 2886 
Q 3006 2619 2597 2516 
z
" transform="scale(0.015625)"/>
        <path id="DejaVuSans-36" d="M 2113 2584 
Q 1688 2584 1439 2293 
Q 1191 2003 1191 1497 
Q 1191 994 1439 701 
Q 1688 409 2113 409 
Q 2538 409 2786 701 
Q 3034 994 3034 1497 
Q 3034 2003 2786 2293 
Q 2538 2584 2113 2584 
z
M 3366 4563 
L 3366 3988 
Q 3128 4100 2886 4159 
Q 2644 4219 2406 4219 
Q 1781 4219 1451 3797 
Q 1122 3375 1075 2522 
Q 1259 2794 1537 2939 
Q 1816 3084 2150 3084 
Q 2853 3084 3261 2657 
Q 3669 2231 3669 1497 
Q 3669 778 3244 343 
Q 2819 -91 2113 -91 
Q 1303 -91 875 529 
Q 447 1150 447 2328 
Q 447 3434 972 4092 
Q 1497 4750 2381 4750 
Q 2619 4750 2861 4703 
Q 3103 4656 3366 4563 
z
" transform="scale(0.015625)"/>
       </defs>
       <use xlink:href="#DejaVuSans-32"/>
       <use xlink:href="#DejaVuSans-30" transform="translate(63.623047 0)"/>
       <use xlink:href="#DejaVuSans-32" transform="translate(127.246094 0)"/>
       <use xlink:href="#DejaVuSans-32" transform="translate(190.869141 0)"/>
       <use xlink:href="#DejaVuSans-2d" transform="translate(254.492188 0)"/>
       <use xlink:href="#DejaVuSans-30" transform="translate(290.576172 0)"/>
       <use xlink:href="#DejaVuSans-33" transform="translate(354.199219 0)"/>
       <use xlink:href="#DejaVuSans-2d" transform="translate(417.822266 0)"/>
       <use xlink:href="#DejaVuSans-31" transform="translate(453.90625 0)"/>
       <use xlink:href="#DejaVuSans-36" transform="translate(517.529297 0)"/>
       <use xlink:href="#DejaVuSans-20" transform="translate(581.152344 0)"/>
       <use xlink:href="#DejaVuSans-28" transform="translate(612.939453 0)"/>
       <use xlink:href="#DejaVuSans-30" transform="translate(651.953125 0)"/>
       <use xlink:href="#DejaVuSans-30" transform="translate(715.576172 0)"/>
       <use xlink:href="#DejaVuSans-3a" transform="translate(779.199219 0)"/>
       <use xlink:href="#DejaVuSans-30" transform="translate(812.890625 0)"/>
       <use xlink:href="#DejaVuSans-30" transform="translate(876.513672 0)"/>
       <use xlink:href="#DejaVuSans-29" transform="translate(940.136719 0)"/>
      </g>
     </g>
    </g>
    <g id="xtick_3">
     <g id="line2d_3">
      <g>
       <use xlink:href="#m86dfd37b68" x="399.366602" y="484.397187" style="stroke: #000000; stroke-width: 0.8"/>
      </g>
     </g>
     <g id="text_3">
      <!-- 2022-05-30 (00:00) -->
      <g transform="translate(313.529339 546.93544) rotate(-30) scale(0.1 -0.1)">
       <defs>
        <path id="DejaVuSans-35" d="M 691 4666 
L 3169 4666 
L 3169 4134 
L 1269 4134 
L 1269 2991 
Q 1406 3038 1543 3061 
Q 1681 3084 1819 3084 
Q 2600 3084 3056 2656 
Q 3513 2228 3513 1497 
Q 3513 744 3044 326 
Q 2575 -91 1722 -91 
Q 1428 -91 1123 -41 
Q 819 9 494 109 
L 494 744 
Q 775 591 1075 516 
Q 1375 441 1709 441 
Q 2250 441 2565 725 
Q 2881 1009 2881 1497 
Q 2881 1984 2565 2268 
Q 2250 2553 1709 2553 
Q 1456 2553 1204 2497 
Q 953 2441 691 2322 
L 691 4666 
z
" transform="scale(0.015625)"/>
       </defs>
       <use xlink:href="#DejaVuSans-32"/>
       <use xlink:href="#DejaVuSans-30" transform="translate(63.623047 0)"/>
       <use xlink:href="#DejaVuSans-32" transform="translate(127.246094 0)"/>
       <use xlink:href="#DejaVuSans-32" transform="translate(190.869141 0)"/>
       <use xlink:href="#DejaVuSans-2d" transform="translate(254.492188 0)"/>
       <use xlink:href="#DejaVuSans-30" transform="translate(290.576172 0)"/>
       <use xlink:href="#DejaVuSans-35" transform="translate(354.199219 0)"/>
       <use xlink:href="#DejaVuSans-2d" transform="translate(417.822266 0)"/>
       <use xlink:href="#DejaVuSans-33" transform="translate(453.90625 0)"/>
       <use xlink:href="#DejaVuSans-30" transform="translate(517.529297 0)"/>
       <use xlink:href="#DejaVuSans-20" transform="translate(581.152344 0)"/>
       <use xlink:href="#DejaVuSans-28" transform="translate(612.939453 0)"/>
       <use xlink:href="#DejaVuSans-30" transform="translate(651.953125 0)"/>
       <use xlink:href="#DejaVuSans-30" transform="translate(715.576172 0)"/>
       <use xlink:href="#DejaVuSans-3a" transform="translate(779.199219 0)"/>
       <use xlink:href="#DejaVuSans-30" transform="translate(812.890625 0)"/>
       <use xlink:href="#DejaVuSans-30" transform="translate(876.513672 0)"/>
       <use xlink:href="#DejaVuSans-29" transform="translate(940.136719 0)"/>
      </g>
     </g>
    </g>
    <g id="xtick_4">
     <g id="line2d_4">
      <g>
       <use xlink:href="#m86dfd37b68" x="552.159592" y="484.397187" style="stroke: #000000; stroke-width: 0.8"/>
      </g>
     </g>
     <g id="text_4">
      <!-- 2022-08-13 (00:00) -->
      <g transform="translate(466.322329 546.93544) rotate(-30) scale(0.1 -0.1)">
       <defs>
        <path id="DejaVuSans-38" d="M 2034 2216 
Q 1584 2216 1326 1975 
Q 1069 1734 1069 1313 
Q 1069 891 1326 650 
Q 1584 409 2034 409 
Q 2484 409 2743 651 
Q 3003 894 3003 1313 
Q 3003 1734 2745 1975 
Q 2488 2216 2034 2216 
z
M 1403 2484 
Q 997 2584 770 2862 
Q 544 3141 544 3541 
Q 544 4100 942 4425 
Q 1341 4750 2034 4750 
Q 2731 4750 3128 4425 
Q 3525 4100 3525 3541 
Q 3525 3141 3298 2862 
Q 3072 2584 2669 2484 
Q 3125 2378 3379 2068 
Q 3634 1759 3634 1313 
Q 3634 634 3220 271 
Q 2806 -91 2034 -91 
Q 1263 -91 848 271 
Q 434 634 434 1313 
Q 434 1759 690 2068 
Q 947 2378 1403 2484 
z
M 1172 3481 
Q 1172 3119 1398 2916 
Q 1625 2713 2034 2713 
Q 2441 2713 2670 2916 
Q 2900 3119 2900 3481 
Q 2900 3844 2670 4047 
Q 2441 4250 2034 4250 
Q 1625 4250 1398 4047 
Q 1172 3844 1172 3481 
z
" transform="scale(0.015625)"/>
       </defs>
       <use xlink:href="#DejaVuSans-32"/>
       <use xlink:href="#DejaVuSans-30" transform="translate(63.623047 0)"/>
       <use xlink:href="#DejaVuSans-32" transform="translate(127.246094 0)"/>
       <use xlink:href="#DejaVuSans-32" transform="translate(190.869141 0)"/>
       <use xlink:href="#DejaVuSans-2d" transform="translate(254.492188 0)"/>
       <use xlink:href="#DejaVuSans-30" transform="translate(290.576172 0)"/>
       <use xlink:href="#DejaVuSans-38" transform="translate(354.199219 0)"/>
       <use xlink:href="#DejaVuSans-2d" transform="translate(417.822266 0)"/>
       <use xlink:href="#DejaVuSans-31" transform="translate(453.90625 0)"/>
       <use xlink:href="#DejaVuSans-33" transform="translate(517.529297 0)"/>
       <use xlink:href="#DejaVuSans-20" transform="translate(581.152344 0)"/>
       <use xlink:href="#DejaVuSans-28" transform="translate(612.939453 0)"/>
       <use xlink:href="#DejaVuSans-30" transform="translate(651.953125 0)"/>
       <use xlink:href="#DejaVuSans-30" transform="translate(715.576172 0)"/>
       <use xlink:href="#DejaVuSans-3a" transform="translate(779.199219 0)"/>
       <use xlink:href="#DejaVuSans-30" transform="translate(812.890625 0)"/>
       <use xlink:href="#DejaVuSans-30" transform="translate(876.513672 0)"/>
       <use xlink:href="#DejaVuSans-29" transform="translate(940.136719 0)"/>
      </g>
     </g>
    </g>
    <g id="xtick_5">
     <g id="line2d_5">
      <g>
       <use xlink:href="#m86dfd37b68" x="704.952582" y="484.397187" style="stroke: #000000; stroke-width: 0.8"/>
      </g>
     </g>
     <g id="text_5">
      <!-- 2022-10-27 (00:00) -->
      <g transform="translate(619.11532 546.93544) rotate(-30) scale(0.1 -0.1)">
       <defs>
        <path id="DejaVuSans-37" d="M 525 4666 
L 3525 4666 
L 3525 4397 
L 1831 0 
L 1172 0 
L 2766 4134 
L 525 4134 
L 525 4666 
z
" transform="scale(0.015625)"/>
       </defs>
       <use xlink:href="#DejaVuSans-32"/>
       <use xlink:href="#DejaVuSans-30" transform="translate(63.623047 0)"/>
       <use xlink:href="#DejaVuSans-32" transform="translate(127.246094 0)"/>
       <use xlink:href="#DejaVuSans-32" transform="translate(190.869141 0)"/>
       <use xlink:href="#DejaVuSans-2d" transform="translate(254.492188 0)"/>
       <use xlink:href="#DejaVuSans-31" transform="translate(290.576172 0)"/>
       <use xlink:href="#DejaVuSans-30" transform="translate(354.199219 0)"/>
       <use xlink:href="#DejaVuSans-2d" transform="translate(417.822266 0)"/>
       <use xlink:href="#DejaVuSans-32" transform="translate(453.90625 0)"/>
       <use xlink:href="#DejaVuSans-37" transform="translate(517.529297 0)"/>
       <use xlink:href="#DejaVuSans-20" transform="translate(581.152344 0)"/>
       <use xlink:href="#DejaVuSans-28" transform="translate(612.939453 0)"/>
       <use xlink:href="#DejaVuSans-30" transform="translate(651.953125 0)"/>
       <use xlink:href="#DejaVuSans-30" transform="translate(715.576172 0)"/>
       <use xlink:href="#DejaVuSans-3a" transform="translate(779.199219 0)"/>
       <use xlink:href="#DejaVuSans-30" transform="translate(812.890625 0)"/>
       <use xlink:href="#DejaVuSans-30" transform="translate(876.513672 0)"/>
       <use xlink:href="#DejaVuSans-29" transform="translate(940.136719 0)"/>
      </g>
     </g>
    </g>
    <g id="xtick_6">
     <g id="line2d_6">
      <g>
       <use xlink:href="#m86dfd37b68" x="857.745572" y="484.397187" style="stroke: #000000; stroke-width: 0.8"/>
      </g>
     </g>
     <g id="text_6">
      <!-- 2023-01-10 (00:00) -->
      <g transform="translate(771.90831 546.93544) rotate(-30) scale(0.1 -0.1)">
       <use xlink:href="#DejaVuSans-32"/>
       <use xlink:href="#DejaVuSans-30" transform="translate(63.623047 0)"/>
       <use xlink:href="#DejaVuSans-32" transform="translate(127.246094 0)"/>
       <use xlink:href="#DejaVuSans-33" transform="translate(190.869141 0)"/>
       <use xlink:href="#DejaVuSans-2d" transform="translate(254.492188 0)"/>
       <use xlink:href="#DejaVuSans-30" transform="translate(290.576172 0)"/>
       <use xlink:href="#DejaVuSans-31" transform="translate(354.199219 0)"/>
       <use xlink:href="#DejaVuSans-2d" transform="translate(417.822266 0)"/>
       <use xlink:href="#DejaVuSans-31" transform="translate(453.90625 0)"/>
       <use xlink:href="#DejaVuSans-30" transform="translate(517.529297 0)"/>
       <use xlink:href="#DejaVuSans-20" transform="translate(581.152344 0)"/>
       <use xlink:href="#DejaVuSans-28" transform="translate(612.939453 0)"/>
       <use xlink:href="#DejaVuSans-30" transform="translate(651.953125 0)"/>
       <use xlink:href="#DejaVuSans-30" transform="translate(715.576172 0)"/>
       <use xlink:href="#DejaVuSans-3a" transform="translate(779.199219 0)"/>
       <use xlink:href="#DejaVuSans-30" transform="translate(812.890625 0)"/>
       <use xlink:href="#DejaVuSans-30" transform="translate(876.513672 0)"/>
       <use xlink:href="#DejaVuSans-29" transform="translate(940.136719 0)"/>
      </g>
     </g>
    </g>
    <g id="text_7">
     <!-- Forecast Date -->
     <g transform="translate(421.784777 564.894002) scale(0.16 -0.16)">
      <defs>
       <path id="DejaVuSans-46" d="M 628 4666 
L 3309 4666 
L 3309 4134 
L 1259 4134 
L 1259 2759 
L 3109 2759 
L 3109 2228 
L 1259 2228 
L 1259 0 
L 628 0 
L 628 4666 
z
" transform="scale(0.015625)"/>
       <path id="DejaVuSans-6f" d="M 1959 3097 
Q 1497 3097 1228 2736 
Q 959 2375 959 1747 
Q 959 1119 1226 758 
Q 1494 397 1959 397 
Q 2419 397 2687 759 
Q 2956 1122 2956 1747 
Q 2956 2369 2687 2733 
Q 2419 3097 1959 3097 
z
M 1959 3584 
Q 2709 3584 3137 3096 
Q 3566 2609 3566 1747 
Q 3566 888 3137 398 
Q 2709 -91 1959 -91 
Q 1206 -91 779 398 
Q 353 888 353 1747 
Q 353 2609 779 3096 
Q 1206 3584 1959 3584 
z
" transform="scale(0.015625)"/>
       <path id="DejaVuSans-72" d="M 2631 2963 
Q 2534 3019 2420 3045 
Q 2306 3072 2169 3072 
Q 1681 3072 1420 2755 
Q 1159 2438 1159 1844 
L 1159 0 
L 581 0 
L 581 3500 
L 1159 3500 
L 1159 2956 
Q 1341 3275 1631 3429 
Q 1922 3584 2338 3584 
Q 2397 3584 2469 3576 
Q 2541 3569 2628 3553 
L 2631 2963 
z
" transform="scale(0.015625)"/>
       <path id="DejaVuSans-65" d="M 3597 1894 
L 3597 1613 
L 953 1613 
Q 991 1019 1311 708 
Q 1631 397 2203 397 
Q 2534 397 2845 478 
Q 3156 559 3463 722 
L 3463 178 
Q 3153 47 2828 -22 
Q 2503 -91 2169 -91 
Q 1331 -91 842 396 
Q 353 884 353 1716 
Q 353 2575 817 3079 
Q 1281 3584 2069 3584 
Q 2775 3584 3186 3129 
Q 3597 2675 3597 1894 
z
M 3022 2063 
Q 3016 2534 2758 2815 
Q 2500 3097 2075 3097 
Q 1594 3097 1305 2825 
Q 1016 2553 972 2059 
L 3022 2063 
z
" transform="scale(0.015625)"/>
       <path id="DejaVuSans-63" d="M 3122 3366 
L 3122 2828 
Q 2878 2963 2633 3030 
Q 2388 3097 2138 3097 
Q 1578 3097 1268 2742 
Q 959 2388 959 1747 
Q 959 1106 1268 751 
Q 1578 397 2138 397 
Q 2388 397 2633 464 
Q 2878 531 3122 666 
L 3122 134 
Q 2881 22 2623 -34 
Q 2366 -91 2075 -91 
Q 1284 -91 818 406 
Q 353 903 353 1747 
Q 353 2603 823 3093 
Q 1294 3584 2113 3584 
Q 2378 3584 2631 3529 
Q 2884 3475 3122 3366 
z
" transform="scale(0.015625)"/>
       <path id="DejaVuSans-61" d="M 2194 1759 
Q 1497 1759 1228 1600 
Q 959 1441 959 1056 
Q 959 750 1161 570 
Q 1363 391 1709 391 
Q 2188 391 2477 730 
Q 2766 1069 2766 1631 
L 2766 1759 
L 2194 1759 
z
M 3341 1997 
L 3341 0 
L 2766 0 
L 2766 531 
Q 2569 213 2275 61 
Q 1981 -91 1556 -91 
Q 1019 -91 701 211 
Q 384 513 384 1019 
Q 384 1609 779 1909 
Q 1175 2209 1959 2209 
L 2766 2209 
L 2766 2266 
Q 2766 2663 2505 2880 
Q 2244 3097 1772 3097 
Q 1472 3097 1187 3025 
Q 903 2953 641 2809 
L 641 3341 
Q 956 3463 1253 3523 
Q 1550 3584 1831 3584 
Q 2591 3584 2966 3190 
Q 3341 2797 3341 1997 
z
" transform="scale(0.015625)"/>
       <path id="DejaVuSans-73" d="M 2834 3397 
L 2834 2853 
Q 2591 2978 2328 3040 
Q 2066 3103 1784 3103 
Q 1356 3103 1142 2972 
Q 928 2841 928 2578 
Q 928 2378 1081 2264 
Q 1234 2150 1697 2047 
L 1894 2003 
Q 2506 1872 2764 1633 
Q 3022 1394 3022 966 
Q 3022 478 2636 193 
Q 2250 -91 1575 -91 
Q 1294 -91 989 -36 
Q 684 19 347 128 
L 347 722 
Q 666 556 975 473 
Q 1284 391 1588 391 
Q 1994 391 2212 530 
Q 2431 669 2431 922 
Q 2431 1156 2273 1281 
Q 2116 1406 1581 1522 
L 1381 1569 
Q 847 1681 609 1914 
Q 372 2147 372 2553 
Q 372 3047 722 3315 
Q 1072 3584 1716 3584 
Q 2034 3584 2315 3537 
Q 2597 3491 2834 3397 
z
" transform="scale(0.015625)"/>
       <path id="DejaVuSans-74" d="M 1172 4494 
L 1172 3500 
L 2356 3500 
L 2356 3053 
L 1172 3053 
L 1172 1153 
Q 1172 725 1289 603 
Q 1406 481 1766 481 
L 2356 481 
L 2356 0 
L 1766 0 
Q 1100 0 847 248 
Q 594 497 594 1153 
L 594 3053 
L 172 3053 
L 172 3500 
L 594 3500 
L 594 4494 
L 1172 4494 
z
" transform="scale(0.015625)"/>
       <path id="DejaVuSans-44" d="M 1259 4147 
L 1259 519 
L 2022 519 
Q 2988 519 3436 956 
Q 3884 1394 3884 2338 
Q 3884 3275 3436 3711 
Q 2988 4147 2022 4147 
L 1259 4147 
z
M 628 4666 
L 1925 4666 
Q 3281 4666 3915 4102 
Q 4550 3538 4550 2338 
Q 4550 1131 3912 565 
Q 3275 0 1925 0 
L 628 0 
L 628 4666 
z
" transform="scale(0.015625)"/>
      </defs>
      <use xlink:href="#DejaVuSans-46"/>
      <use xlink:href="#DejaVuSans-6f" transform="translate(53.894531 0)"/>
      <use xlink:href="#DejaVuSans-72" transform="translate(115.076172 0)"/>
      <use xlink:href="#DejaVuSans-65" transform="translate(153.939453 0)"/>
      <use xlink:href="#DejaVuSans-63" transform="translate(215.462891 0)"/>
      <use xlink:href="#DejaVuSans-61" transform="translate(270.443359 0)"/>
      <use xlink:href="#DejaVuSans-73" transform="translate(331.722656 0)"/>
      <use xlink:href="#DejaVuSans-74" transform="translate(383.822266 0)"/>
      <use xlink:href="#DejaVuSans-20" transform="translate(423.03125 0)"/>
      <use xlink:href="#DejaVuSans-44" transform="translate(454.818359 0)"/>
      <use xlink:href="#DejaVuSans-61" transform="translate(531.820312 0)"/>
      <use xlink:href="#DejaVuSans-74" transform="translate(593.099609 0)"/>
      <use xlink:href="#DejaVuSans-65" transform="translate(632.308594 0)"/>
     </g>
    </g>
   </g>
   <g id="matplotlib.axis_2">
    <g id="ytick_1">
     <g id="line2d_7">
      <defs>
       <path id="m5ee02143f4" d="M 0 0 
L -3.5 0 
" style="stroke: #000000; stroke-width: 0.8"/>
      </defs>
      <g>
       <use xlink:href="#m5ee02143f4" x="58.791027" y="387.017111" style="stroke: #000000; stroke-width: 0.8"/>
      </g>
     </g>
     <g id="text_8">
      <!-- 2 -->
      <g transform="translate(45.428527 390.81633) scale(0.1 -0.1)">
       <use xlink:href="#DejaVuSans-32"/>
      </g>
     </g>
    </g>
    <g id="ytick_2">
     <g id="line2d_8">
      <g>
       <use xlink:href="#m5ee02143f4" x="58.791027" y="289.06953" style="stroke: #000000; stroke-width: 0.8"/>
      </g>
     </g>
     <g id="text_9">
      <!-- 4 -->
      <g transform="translate(45.428527 292.868749) scale(0.1 -0.1)">
       <defs>
        <path id="DejaVuSans-34" d="M 2419 4116 
L 825 1625 
L 2419 1625 
L 2419 4116 
z
M 2253 4666 
L 3047 4666 
L 3047 1625 
L 3713 1625 
L 3713 1100 
L 3047 1100 
L 3047 0 
L 2419 0 
L 2419 1100 
L 313 1100 
L 313 1709 
L 2253 4666 
z
" transform="scale(0.015625)"/>
       </defs>
       <use xlink:href="#DejaVuSans-34"/>
      </g>
     </g>
    </g>
    <g id="ytick_3">
     <g id="line2d_9">
      <g>
       <use xlink:href="#m5ee02143f4" x="58.791027" y="191.12195" style="stroke: #000000; stroke-width: 0.8"/>
      </g>
     </g>
     <g id="text_10">
      <!-- 6 -->
      <g transform="translate(45.428527 194.921168) scale(0.1 -0.1)">
       <use xlink:href="#DejaVuSans-36"/>
      </g>
     </g>
    </g>
    <g id="ytick_4">
     <g id="line2d_10">
      <g>
       <use xlink:href="#m5ee02143f4" x="58.791027" y="93.174369" style="stroke: #000000; stroke-width: 0.8"/>
      </g>
     </g>
     <g id="text_11">
      <!-- 8 -->
      <g transform="translate(45.428527 96.973588) scale(0.1 -0.1)">
       <use xlink:href="#DejaVuSans-38"/>
      </g>
     </g>
    </g>
    <g id="text_12">
     <!-- Root Mean Squared Error (RMSE) -->
     <g transform="translate(38.101027 394.303437) rotate(-90) scale(0.16 -0.16)">
      <defs>
       <path id="DejaVuSans-52" d="M 2841 2188 
Q 3044 2119 3236 1894 
Q 3428 1669 3622 1275 
L 4263 0 
L 3584 0 
L 2988 1197 
Q 2756 1666 2539 1819 
Q 2322 1972 1947 1972 
L 1259 1972 
L 1259 0 
L 628 0 
L 628 4666 
L 2053 4666 
Q 2853 4666 3247 4331 
Q 3641 3997 3641 3322 
Q 3641 2881 3436 2590 
Q 3231 2300 2841 2188 
z
M 1259 4147 
L 1259 2491 
L 2053 2491 
Q 2509 2491 2742 2702 
Q 2975 2913 2975 3322 
Q 2975 3731 2742 3939 
Q 2509 4147 2053 4147 
L 1259 4147 
z
" transform="scale(0.015625)"/>
       <path id="DejaVuSans-4d" d="M 628 4666 
L 1569 4666 
L 2759 1491 
L 3956 4666 
L 4897 4666 
L 4897 0 
L 4281 0 
L 4281 4097 
L 3078 897 
L 2444 897 
L 1241 4097 
L 1241 0 
L 628 0 
L 628 4666 
z
" transform="scale(0.015625)"/>
       <path id="DejaVuSans-6e" d="M 3513 2113 
L 3513 0 
L 2938 0 
L 2938 2094 
Q 2938 2591 2744 2837 
Q 2550 3084 2163 3084 
Q 1697 3084 1428 2787 
Q 1159 2491 1159 1978 
L 1159 0 
L 581 0 
L 581 3500 
L 1159 3500 
L 1159 2956 
Q 1366 3272 1645 3428 
Q 1925 3584 2291 3584 
Q 2894 3584 3203 3211 
Q 3513 2838 3513 2113 
z
" transform="scale(0.015625)"/>
       <path id="DejaVuSans-53" d="M 3425 4513 
L 3425 3897 
Q 3066 4069 2747 4153 
Q 2428 4238 2131 4238 
Q 1616 4238 1336 4038 
Q 1056 3838 1056 3469 
Q 1056 3159 1242 3001 
Q 1428 2844 1947 2747 
L 2328 2669 
Q 3034 2534 3370 2195 
Q 3706 1856 3706 1288 
Q 3706 609 3251 259 
Q 2797 -91 1919 -91 
Q 1588 -91 1214 -16 
Q 841 59 441 206 
L 441 856 
Q 825 641 1194 531 
Q 1563 422 1919 422 
Q 2459 422 2753 634 
Q 3047 847 3047 1241 
Q 3047 1584 2836 1778 
Q 2625 1972 2144 2069 
L 1759 2144 
Q 1053 2284 737 2584 
Q 422 2884 422 3419 
Q 422 4038 858 4394 
Q 1294 4750 2059 4750 
Q 2388 4750 2728 4690 
Q 3069 4631 3425 4513 
z
" transform="scale(0.015625)"/>
       <path id="DejaVuSans-71" d="M 947 1747 
Q 947 1113 1208 752 
Q 1469 391 1925 391 
Q 2381 391 2643 752 
Q 2906 1113 2906 1747 
Q 2906 2381 2643 2742 
Q 2381 3103 1925 3103 
Q 1469 3103 1208 2742 
Q 947 2381 947 1747 
z
M 2906 525 
Q 2725 213 2448 61 
Q 2172 -91 1784 -91 
Q 1150 -91 751 415 
Q 353 922 353 1747 
Q 353 2572 751 3078 
Q 1150 3584 1784 3584 
Q 2172 3584 2448 3432 
Q 2725 3281 2906 2969 
L 2906 3500 
L 3481 3500 
L 3481 -1331 
L 2906 -1331 
L 2906 525 
z
" transform="scale(0.015625)"/>
       <path id="DejaVuSans-75" d="M 544 1381 
L 544 3500 
L 1119 3500 
L 1119 1403 
Q 1119 906 1312 657 
Q 1506 409 1894 409 
Q 2359 409 2629 706 
Q 2900 1003 2900 1516 
L 2900 3500 
L 3475 3500 
L 3475 0 
L 2900 0 
L 2900 538 
Q 2691 219 2414 64 
Q 2138 -91 1772 -91 
Q 1169 -91 856 284 
Q 544 659 544 1381 
z
M 1991 3584 
L 1991 3584 
z
" transform="scale(0.015625)"/>
       <path id="DejaVuSans-64" d="M 2906 2969 
L 2906 4863 
L 3481 4863 
L 3481 0 
L 2906 0 
L 2906 525 
Q 2725 213 2448 61 
Q 2172 -91 1784 -91 
Q 1150 -91 751 415 
Q 353 922 353 1747 
Q 353 2572 751 3078 
Q 1150 3584 1784 3584 
Q 2172 3584 2448 3432 
Q 2725 3281 2906 2969 
z
M 947 1747 
Q 947 1113 1208 752 
Q 1469 391 1925 391 
Q 2381 391 2643 752 
Q 2906 1113 2906 1747 
Q 2906 2381 2643 2742 
Q 2381 3103 1925 3103 
Q 1469 3103 1208 2742 
Q 947 2381 947 1747 
z
" transform="scale(0.015625)"/>
       <path id="DejaVuSans-45" d="M 628 4666 
L 3578 4666 
L 3578 4134 
L 1259 4134 
L 1259 2753 
L 3481 2753 
L 3481 2222 
L 1259 2222 
L 1259 531 
L 3634 531 
L 3634 0 
L 628 0 
L 628 4666 
z
" transform="scale(0.015625)"/>
      </defs>
      <use xlink:href="#DejaVuSans-52"/>
      <use xlink:href="#DejaVuSans-6f" transform="translate(64.982422 0)"/>
      <use xlink:href="#DejaVuSans-6f" transform="translate(126.164062 0)"/>
      <use xlink:href="#DejaVuSans-74" transform="translate(187.345703 0)"/>
      <use xlink:href="#DejaVuSans-20" transform="translate(226.554688 0)"/>
      <use xlink:href="#DejaVuSans-4d" transform="translate(258.341797 0)"/>
      <use xlink:href="#DejaVuSans-65" transform="translate(344.621094 0)"/>
      <use xlink:href="#DejaVuSans-61" transform="translate(406.144531 0)"/>
      <use xlink:href="#DejaVuSans-6e" transform="translate(467.423828 0)"/>
      <use xlink:href="#DejaVuSans-20" transform="translate(530.802734 0)"/>
      <use xlink:href="#DejaVuSans-53" transform="translate(562.589844 0)"/>
      <use xlink:href="#DejaVuSans-71" transform="translate(626.066406 0)"/>
      <use xlink:href="#DejaVuSans-75" transform="translate(689.542969 0)"/>
      <use xlink:href="#DejaVuSans-61" transform="translate(752.921875 0)"/>
      <use xlink:href="#DejaVuSans-72" transform="translate(814.201172 0)"/>
      <use xlink:href="#DejaVuSans-65" transform="translate(853.064453 0)"/>
      <use xlink:href="#DejaVuSans-64" transform="translate(914.587891 0)"/>
      <use xlink:href="#DejaVuSans-20" transform="translate(978.064453 0)"/>
      <use xlink:href="#DejaVuSans-45" transform="translate(1009.851562 0)"/>
      <use xlink:href="#DejaVuSans-72" transform="translate(1073.035156 0)"/>
      <use xlink:href="#DejaVuSans-72" transform="translate(1112.398438 0)"/>
      <use xlink:href="#DejaVuSans-6f" transform="translate(1151.261719 0)"/>
      <use xlink:href="#DejaVuSans-72" transform="translate(1212.443359 0)"/>
      <use xlink:href="#DejaVuSans-20" transform="translate(1253.556641 0)"/>
      <use xlink:href="#DejaVuSans-28" transform="translate(1285.34375 0)"/>
      <use xlink:href="#DejaVuSans-52" transform="translate(1324.357422 0)"/>
      <use xlink:href="#DejaVuSans-4d" transform="translate(1393.839844 0)"/>
      <use xlink:href="#DejaVuSans-53" transform="translate(1480.119141 0)"/>
      <use xlink:href="#DejaVuSans-45" transform="translate(1543.595703 0)"/>
      <use xlink:href="#DejaVuSans-29" transform="translate(1606.779297 0)"/>
     </g>
    </g>
   </g>
   <g id="line2d_11">
    <path d="M 96.836481 226.510129 
L 99.892341 303.068982 
L 102.948201 310.476333 
L 106.004061 287.895109 
L 109.05992 271.449164 
L 112.11578 275.193858 
L 115.17164 280.944113 
L 118.2275 288.970959 
L 121.28336 299.379249 
L 124.339219 302.140194 
L 127.395079 273.495569 
L 130.450939 293.683008 
L 133.506799 291.434896 
L 136.562659 272.221759 
L 139.618518 274.52677 
L 142.674378 296.093444 
L 145.730238 305.541828 
L 148.786098 307.428221 
L 151.841958 313.140038 
L 154.897817 299.558059 
L 157.953677 297.002476 
L 161.009537 287.954984 
L 164.065397 288.479132 
L 167.121257 276.042255 
L 170.177116 293.394021 
L 173.232976 294.486393 
L 176.288836 297.321051 
L 179.344696 294.203956 
L 182.400556 295.405817 
L 185.456415 289.380212 
L 188.512275 299.574347 
L 191.568135 279.720324 
L 194.623995 299.639723 
L 197.679855 281.167667 
L 200.735714 286.07137 
L 203.791574 292.793557 
L 206.847434 302.141035 
L 209.903294 297.14098 
L 212.959154 288.207986 
L 216.015013 314.117038 
L 219.070873 314.030762 
L 222.126733 314.71025 
L 225.182593 300.378211 
L 228.238453 286.939547 
L 231.294313 295.298711 
L 234.350172 311.02319 
L 237.406032 316.731516 
L 240.461892 282.715706 
L 243.517752 263.480793 
L 246.573612 251.262776 
L 249.629471 258.395384 
L 252.685331 264.328746 
L 255.741191 283.821961 
L 258.797051 275.645332 
L 261.852911 278.88741 
L 264.90877 293.233635 
L 267.96463 275.964001 
L 271.02049 289.10735 
L 274.07635 277.019068 
L 277.13221 281.208394 
L 280.188069 270.372029 
L 283.243929 280.147325 
L 286.299789 286.313395 
L 289.355649 294.513073 
L 292.411509 285.663658 
L 295.467368 283.627762 
L 298.523228 279.556366 
L 301.579088 289.779482 
L 304.634948 303.258617 
L 307.690808 305.744948 
L 310.746667 295.376661 
L 313.802527 294.551138 
L 316.858387 287.717793 
L 319.914247 293.820473 
L 322.970107 295.431633 
L 326.025966 310.851106 
L 329.081826 314.688124 
L 332.137686 300.918425 
L 335.193546 297.852718 
L 338.249406 282.345662 
L 341.305265 282.068724 
L 344.361125 293.827081 
L 347.416985 308.279596 
L 350.472845 307.87861 
L 353.528705 308.447909 
L 356.584564 300.855911 
L 359.640424 303.790587 
L 362.696284 294.581158 
L 365.752144 299.631795 
L 368.808004 282.709004 
L 371.863863 283.972609 
L 374.919723 300.788889 
L 377.975583 311.840587 
L 381.031443 305.381092 
L 384.087303 285.614595 
L 387.143162 283.979918 
L 390.199022 291.517587 
L 393.254882 307.940844 
L 396.310742 303.344215 
L 399.366602 308.046071 
L 402.422461 307.061482 
L 405.478321 308.887859 
L 408.534181 325.159325 
L 411.590041 322.160487 
L 414.645901 322.36495 
L 417.70176 324.497351 
L 420.75762 319.228508 
L 423.81348 320.466951 
L 426.86934 328.751924 
L 429.9252 331.953333 
L 432.981059 312.740733 
L 436.036919 307.487175 
L 439.092779 296.089135 
L 442.148639 295.316482 
L 445.204499 306.193457 
L 448.260359 307.222439 
L 451.316218 304.939765 
L 454.372078 313.727564 
L 457.427938 295.180582 
L 460.483798 314.072843 
L 463.539658 321.86586 
L 466.595517 317.422821 
L 469.651377 310.832949 
L 472.707237 301.490317 
L 475.763097 286.479292 
L 478.818957 295.330015 
L 481.874816 301.474414 
L 484.930676 300.681245 
L 487.986536 301.194592 
L 491.042396 302.436771 
L 494.098256 294.076755 
L 497.154115 275.331194 
L 500.209975 303.464434 
L 503.265835 306.569245 
L 506.321695 291.9049 
L 509.377555 317.106966 
L 512.433414 319.710259 
L 515.489274 338.741876 
L 518.545134 311.014281 
L 521.600994 320.720968 
L 524.656854 317.473811 
L 527.712713 320.427123 
L 530.768573 331.199759 
L 533.824433 336.001247 
L 536.880293 327.486474 
L 539.936153 315.458395 
L 542.992012 314.558599 
L 546.047872 294.801687 
L 549.103732 288.295791 
L 552.159592 318.567947 
L 555.215452 318.061559 
L 558.271311 329.551818 
L 561.327171 303.237249 
L 564.383031 275.539639 
L 567.438891 274.985974 
L 570.494751 257.203355 
L 573.55061 303.454754 
L 576.60647 308.330434 
L 579.66233 311.16292 
L 582.71819 299.692359 
L 585.77405 291.240416 
L 588.829909 309.471859 
L 591.885769 303.156181 
L 594.941629 289.740822 
L 597.997489 295.738182 
L 601.053349 289.484259 
L 604.109208 277.445882 
L 607.165068 283.759937 
L 610.220928 300.785631 
L 613.276788 313.151271 
L 616.332648 293.883653 
L 619.388507 264.332063 
L 622.444367 302.159834 
L 625.500227 324.650403 
L 628.556087 313.608548 
L 631.611947 301.10834 
L 634.667806 295.343407 
L 637.723666 285.148642 
L 640.779526 308.794437 
L 643.835386 298.511049 
L 646.891246 289.130083 
L 649.947105 293.939512 
L 653.002965 300.301171 
L 656.058825 328.22857 
L 659.114685 284.123606 
L 662.170545 278.228799 
L 665.226405 280.260935 
L 668.282264 282.886786 
L 671.338124 289.130107 
L 674.393984 269.807178 
L 677.449844 272.87946 
L 680.505704 284.618936 
L 683.561563 273.802211 
L 686.617423 276.158201 
L 689.673283 281.180137 
L 692.729143 308.466755 
L 695.785003 297.696419 
L 698.840862 302.334219 
L 701.896722 304.466187 
L 704.952582 296.354385 
L 708.008442 306.54664 
L 711.064302 280.285572 
L 714.120161 276.345371 
L 717.176021 291.564981 
L 720.231881 285.368179 
L 723.287741 284.833593 
L 726.343601 285.308793 
L 729.39946 302.623171 
L 732.45532 299.90809 
L 735.51118 301.389282 
L 738.56704 317.494945 
L 741.6229 297.511537 
L 744.678759 282.719419 
L 747.734619 269.004669 
L 750.790479 302.486816 
L 753.846339 304.590831 
L 756.902199 314.065289 
L 759.958058 317.949502 
L 763.013918 310.300196 
L 766.069778 299.764028 
L 769.125638 286.911454 
L 772.181498 305.774746 
L 775.237357 301.120565 
L 778.293217 285.212604 
L 781.349077 301.520395 
L 784.404937 300.489941 
L 787.460797 259.382262 
L 790.516656 301.761556 
L 793.572516 300.373517 
L 796.628376 275.358026 
L 799.684236 270.840457 
L 802.740096 296.312047 
L 805.795955 289.761968 
L 808.851815 300.94019 
L 811.907675 300.390612 
L 814.963535 298.592841 
L 818.019395 293.602815 
L 821.075254 274.755741 
L 824.131114 279.960435 
L 827.186974 284.482534 
L 830.242834 288.64358 
L 833.298694 282.260425 
L 836.354553 298.101912 
L 839.410413 310.759038 
L 842.466273 312.506706 
L 845.522133 305.751919 
L 848.577993 315.205966 
L 851.633852 327.096148 
L 854.689712 323.818073 
L 857.745572 321.332804 
L 857.745572 321.332804 
" clip-path="url(#p91584dfc9c)" style="fill: none; stroke: #0000ff; stroke-width: 2; stroke-linecap: square"/>
   </g>
   <g id="line2d_12">
    <path d="M 96.836481 386.478987 
L 99.892341 381.286168 
L 102.948201 389.136008 
L 106.004061 362.086494 
L 109.05992 403.472676 
L 112.11578 389.658579 
L 115.17164 343.780533 
L 118.2275 384.311663 
L 121.28336 391.205357 
L 124.339219 418.783758 
L 127.395079 421.019558 
L 130.450939 435.971046 
L 133.506799 367.787663 
L 136.562659 327.809194 
L 139.618518 351.56533 
L 142.674378 318.255969 
L 145.730238 343.855261 
L 148.786098 383.131286 
L 151.841958 407.239643 
L 154.897817 388.937844 
L 161.009537 348.753278 
L 164.065397 413.614257 
L 167.121257 280.645598 
L 170.177116 406.713399 
L 173.232976 425.956007 
L 176.288836 328.374092 
L 179.344696 402.815239 
L 182.400556 430.191092 
L 185.456415 447.376856 
L 188.512275 433.005871 
L 191.568135 385.080404 
L 194.623995 356.338901 
L 197.679855 416.282347 
L 200.735714 400.827326 
L 203.791574 370.621865 
L 206.847434 373.003343 
L 209.903294 399.511808 
L 212.959154 381.647467 
L 216.015013 378.047348 
L 219.070873 426.509631 
L 222.126733 396.581277 
L 225.182593 388.266231 
L 228.238453 355.05484 
L 231.294313 377.272967 
L 234.350172 394.468113 
L 237.406032 407.347444 
L 240.461892 433.379879 
L 243.517752 394.887939 
L 246.573612 327.900351 
L 249.629471 318.799452 
L 252.685331 313.057569 
L 255.741191 367.264251 
L 258.797051 380.3011 
L 261.852911 409.13808 
L 264.90877 415.608673 
L 267.96463 362.171136 
L 271.02049 350.721172 
L 274.07635 328.72647 
L 277.13221 363.681215 
L 280.188069 384.572417 
L 283.243929 362.813365 
L 286.299789 362.156529 
L 289.355649 372.509344 
L 292.411509 332.232629 
L 295.467368 348.825706 
L 298.523228 331.559107 
L 301.579088 330.597987 
L 304.634948 391.297307 
L 307.690808 385.619147 
L 310.746667 262.334488 
L 313.802527 342.126194 
L 316.858387 198.40308 
L 319.914247 377.383506 
L 322.970107 267.333492 
L 326.025966 323.446032 
L 329.081826 317.708387 
L 332.137686 322.285458 
L 335.193546 365.650323 
L 338.249406 401.356115 
L 341.305265 268.35701 
L 344.361125 374.03911 
L 347.416985 317.817735 
L 350.472845 386.471794 
L 353.528705 258.425509 
L 356.584564 281.225231 
L 359.640424 327.915063 
L 362.696284 397.966537 
L 365.752144 408.132888 
L 368.808004 367.371567 
L 371.863863 358.437709 
L 374.919723 424.580601 
L 377.975583 302.315642 
L 381.031443 290.078371 
L 384.087303 200.896265 
L 387.143162 310.93751 
L 390.199022 313.503812 
L 393.254882 394.619291 
L 396.310742 379.382762 
L 399.366602 243.530896 
L 402.422461 254.533974 
L 405.478321 237.87237 
L 408.534181 413.720639 
L 411.590041 412.224554 
L 414.645901 358.179862 
L 417.70176 388.874932 
L 420.75762 330.233805 
L 423.81348 375.408175 
L 426.86934 400.664273 
L 429.9252 367.769424 
L 432.981059 82.186867 
L 436.036919 109.210734 
L 439.092779 347.664875 
L 442.148639 262.45062 
L 445.204499 278.411229 
L 448.260359 339.419053 
L 451.316218 345.490242 
L 454.372078 311.813031 
L 457.427938 387.196762 
L 460.483798 396.321054 
L 463.539658 293.252422 
L 466.595517 159.040557 
L 469.651377 382.713498 
L 472.707237 358.200681 
L 475.763097 203.835717 
L 478.818957 379.236424 
L 481.874816 314.15425 
L 484.930676 265.296872 
L 487.986536 249.726461 
L 491.042396 260.924999 
L 494.098256 368.301079 
L 497.154115 395.867139 
L 500.209975 343.367147 
L 503.265835 338.939719 
L 506.321695 232.226033 
L 509.377555 236.887967 
L 512.433414 356.771332 
L 515.489274 390.944223 
L 518.545134 410.76369 
L 521.600994 425.074233 
L 524.656854 229.644131 
L 527.712713 331.895033 
L 530.768573 307.401378 
L 533.824433 304.5693 
L 536.880293 344.029319 
L 539.936153 399.52171 
L 542.992012 343.807891 
L 546.047872 297.528363 
L 549.103732 392.232109 
L 552.159592 443.157828 
L 555.215452 205.990641 
L 558.271311 346.85341 
L 561.327171 387.770364 
L 564.383031 306.755692 
L 567.438891 242.722642 
L 570.494751 61.037187 
L 573.55061 265.169974 
L 576.60647 265.649238 
L 579.66233 279.642047 
L 582.71819 382.92074 
L 585.77405 387.929027 
L 588.829909 316.912148 
L 591.885769 366.692698 
L 594.941629 246.01404 
L 597.997489 363.033101 
L 601.053349 263.153951 
L 604.109208 305.926911 
L 607.165068 334.740865 
L 610.220928 341.812196 
L 613.276788 335.84064 
L 616.332648 247.354732 
L 619.388507 393.591763 
L 622.444367 410.133441 
L 625.500227 371.704523 
L 628.556087 299.238748 
L 631.611947 259.956921 
L 634.667806 260.692852 
L 637.723666 427.156029 
L 640.779526 450.100177 
L 643.835386 379.399097 
L 646.891246 423.730704 
L 649.947105 429.103565 
L 653.002965 345.004696 
L 656.058825 319.075888 
L 659.114685 310.469047 
L 662.170545 428.650689 
L 665.226405 437.374716 
L 668.282264 334.235166 
L 671.338124 405.901666 
L 674.393984 418.722236 
L 677.449844 423.745959 
L 680.505704 443.426245 
L 683.561563 424.30684 
L 686.617423 363.838144 
L 689.673283 389.544969 
L 692.729143 412.803229 
L 695.785003 342.495397 
L 698.840862 399.188732 
L 701.896722 406.867263 
L 704.952582 377.408587 
L 708.008442 372.333383 
L 711.064302 329.739444 
L 714.120161 316.700667 
L 717.176021 373.906012 
L 720.231881 359.985141 
L 723.287741 388.57835 
L 726.343601 336.120415 
L 729.39946 396.009134 
L 732.45532 321.976388 
L 735.51118 403.14058 
L 738.56704 400.974885 
L 741.6229 339.060054 
L 744.678759 327.435741 
L 747.734619 415.728723 
L 750.790479 443.249758 
L 756.902199 293.410099 
L 759.958058 392.133129 
L 763.013918 372.630987 
L 766.069778 351.261047 
L 769.125638 340.295858 
L 772.181498 413.062075 
L 775.237357 403.075222 
L 778.293217 396.704858 
L 781.349077 379.899192 
L 784.404937 353.250542 
L 787.460797 356.280964 
L 790.516656 330.551107 
L 793.572516 395.319003 
L 796.628376 420.033427 
L 799.684236 393.568077 
L 802.740096 425.436541 
L 805.795955 408.749231 
L 808.851815 409.23661 
L 811.907675 348.204354 
L 814.963535 395.785668 
L 818.019395 279.066103 
L 821.075254 263.845349 
L 824.131114 368.474951 
L 827.186974 300.494075 
L 830.242834 336.291262 
L 833.298694 412.94502 
L 836.354553 361.931562 
L 839.410413 292.589141 
L 842.466273 359.841114 
L 845.522133 383.832212 
L 848.577993 345.037401 
L 851.633852 337.841928 
L 854.689712 314.178642 
L 857.745572 374.018886 
L 857.745572 374.018886 
" clip-path="url(#p91584dfc9c)" style="fill: none; stroke: #ffa500; stroke-width: 2; stroke-linecap: square"/>
   </g>
   <g id="line2d_13">
    <path d="M 96.836481 368.957542 
L 99.892341 385.461588 
L 102.948201 380.700066 
L 106.004061 362.4647 
L 109.05992 358.686729 
L 112.11578 365.850676 
L 115.17164 373.349556 
L 118.2275 372.316125 
L 121.28336 381.48707 
L 124.339219 373.728311 
L 127.395079 362.503582 
L 130.450939 363.065923 
L 133.506799 360.39729 
L 136.562659 358.063462 
L 139.618518 365.734544 
L 142.674378 381.772881 
L 145.730238 383.510613 
L 148.786098 380.729456 
L 151.841958 379.270063 
L 154.897817 358.590155 
L 157.953677 376.848371 
L 161.009537 377.90519 
L 164.065397 376.504914 
L 167.121257 355.749951 
L 170.177116 373.499491 
L 173.232976 367.958463 
L 176.288836 374.323018 
L 179.344696 381.401354 
L 182.400556 377.854059 
L 185.456415 372.440221 
L 188.512275 366.681851 
L 191.568135 377.20737 
L 194.623995 368.166359 
L 197.679855 367.610207 
L 200.735714 365.839525 
L 203.791574 364.55419 
L 206.847434 375.71665 
L 209.903294 357.381089 
L 212.959154 375.40285 
L 216.015013 381.463437 
L 219.070873 382.193799 
L 222.126733 383.941677 
L 225.182593 374.657835 
L 228.238453 368.69694 
L 231.294313 370.083286 
L 234.350172 385.131079 
L 237.406032 376.740541 
L 240.461892 361.299538 
L 243.517752 332.208506 
L 246.573612 356.796821 
L 249.629471 360.10355 
L 252.685331 366.939756 
L 255.741191 372.690256 
L 258.797051 356.11585 
L 261.852911 370.193148 
L 264.90877 369.679135 
L 267.96463 368.520138 
L 271.02049 370.8673 
L 274.07635 375.884893 
L 277.13221 364.656603 
L 280.188069 365.130426 
L 283.243929 377.133179 
L 286.299789 378.674866 
L 289.355649 378.671982 
L 295.467368 361.051966 
L 298.523228 369.276573 
L 301.579088 379.024733 
L 304.634948 377.921607 
L 307.690808 381.475849 
L 310.746667 372.317351 
L 313.802527 357.75529 
L 316.858387 367.22628 
L 319.914247 357.417823 
L 322.970107 374.840778 
L 326.025966 384.248728 
L 329.081826 373.99516 
L 332.137686 372.479371 
L 335.193546 374.073123 
L 338.249406 372.320597 
L 341.305265 372.484229 
L 344.361125 377.084571 
L 347.416985 384.937966 
L 350.472845 394.910731 
L 353.528705 385.991795 
L 356.584564 386.953148 
L 359.640424 375.906576 
L 362.696284 378.156977 
L 365.752144 368.854663 
L 368.808004 367.201082 
L 371.863863 369.719757 
L 374.919723 384.069077 
L 377.975583 383.101757 
L 381.031443 369.373276 
L 384.087303 369.794392 
L 387.143162 382.907405 
L 390.199022 378.686145 
L 393.254882 383.671874 
L 396.310742 373.082999 
L 399.366602 384.204416 
L 402.422461 378.843319 
L 405.478321 381.221318 
L 408.534181 390.322409 
L 411.590041 386.107086 
L 414.645901 395.915835 
L 417.70176 371.883975 
L 420.75762 387.52222 
L 423.81348 389.612207 
L 426.86934 400.445133 
L 429.9252 396.930531 
L 432.981059 379.612913 
L 436.036919 386.758914 
L 439.092779 380.646251 
L 442.148639 374.163473 
L 445.204499 379.026765 
L 448.260359 385.092396 
L 451.316218 380.981032 
L 454.372078 379.55173 
L 460.483798 381.471552 
L 463.539658 394.822265 
L 466.595517 379.906279 
L 469.651377 370.349913 
L 472.707237 372.606899 
L 475.763097 366.286679 
L 478.818957 371.683926 
L 481.874816 383.473961 
L 484.930676 377.937078 
L 491.042396 380.270707 
L 494.098256 369.632944 
L 497.154115 387.282366 
L 500.209975 381.396696 
L 503.265835 374.320111 
L 506.321695 387.244348 
L 509.377555 386.22692 
L 512.433414 387.834513 
L 515.489274 390.495317 
L 518.545134 387.5358 
L 521.600994 394.16206 
L 524.656854 390.342312 
L 527.712713 391.555154 
L 530.768573 389.892273 
L 533.824433 397.780995 
L 536.880293 389.460392 
L 539.936153 388.23418 
L 542.992012 376.232846 
L 546.047872 381.193937 
L 549.103732 374.750591 
L 552.159592 387.909884 
L 555.215452 388.147519 
L 558.271311 395.557718 
L 561.327171 368.173761 
L 564.383031 362.352771 
L 567.438891 366.26753 
L 570.494751 365.707046 
L 573.55061 379.304777 
L 576.60647 386.814247 
L 579.66233 381.716835 
L 582.71819 379.374893 
L 585.77405 374.721342 
L 588.829909 379.308046 
L 591.885769 380.39033 
L 594.941629 366.310417 
L 597.997489 373.882414 
L 601.053349 372.509601 
L 604.109208 366.801602 
L 607.165068 374.260748 
L 610.220928 394.993276 
L 613.276788 384.451206 
L 616.332648 372.062669 
L 619.388507 365.409909 
L 622.444367 386.115096 
L 625.500227 394.678863 
L 628.556087 384.556304 
L 631.611947 370.503724 
L 634.667806 370.827134 
L 637.723666 376.584418 
L 640.779526 380.063173 
L 643.835386 373.649298 
L 646.891246 369.366877 
L 649.947105 372.705669 
L 653.002965 390.744658 
L 656.058825 387.517602 
L 659.114685 361.87443 
L 662.170545 369.114226 
L 665.226405 364.559141 
L 668.282264 365.360039 
L 671.338124 368.564251 
L 674.393984 359.705144 
L 677.449844 373.482514 
L 680.505704 369.684086 
L 683.561563 356.932966 
L 686.617423 363.136167 
L 689.673283 378.860904 
L 692.729143 374.734711 
L 695.785003 379.724865 
L 698.840862 370.557797 
L 701.896722 372.176396 
L 704.952582 374.184631 
L 708.008442 380.635789 
L 711.064302 371.910422 
L 714.120161 358.832017 
L 717.176021 371.789187 
L 720.231881 372.807661 
L 723.287741 373.232432 
L 726.343601 376.574084 
L 729.39946 377.001062 
L 732.45532 375.488799 
L 735.51118 380.373715 
L 738.56704 378.9747 
L 741.6229 371.600079 
L 744.678759 359.34102 
L 747.734619 367.036354 
L 750.790479 382.713229 
L 753.846339 383.981797 
L 756.902199 384.494641 
L 759.958058 374.603505 
L 763.013918 378.537518 
L 766.069778 375.21582 
L 769.125638 375.576091 
L 772.181498 379.333979 
L 775.237357 382.510144 
L 778.293217 361.241238 
L 781.349077 352.272491 
L 784.404937 374.630699 
L 787.460797 374.726421 
L 790.516656 383.470902 
L 793.572516 366.879133 
L 796.628376 357.30642 
L 799.684236 368.658735 
L 802.740096 374.45949 
L 805.795955 372.078689 
L 808.851815 385.556072 
L 811.907675 379.330091 
L 814.963535 384.399106 
L 818.019395 375.296176 
L 821.075254 374.280505 
L 824.131114 369.011311 
L 827.186974 365.120349 
L 830.242834 371.137197 
L 833.298694 356.164259 
L 836.354553 375.199625 
L 839.410413 384.269395 
L 842.466273 383.524519 
L 845.522133 381.65174 
L 848.577993 392.532621 
L 851.633852 390.348634 
L 854.689712 389.634222 
L 857.745572 379.505036 
L 857.745572 379.505036 
" clip-path="url(#p91584dfc9c)" style="fill: none; stroke-dasharray: 7.4,3.2; stroke-dashoffset: 0; stroke: #0000ff; stroke-width: 2"/>
   </g>
   <g id="line2d_14">
    <path d="M 96.836481 374.832208 
L 99.892341 439.911974 
L 102.948201 393.84965 
L 106.004061 418.880525 
L 109.05992 435.516892 
L 112.11578 442.163411 
L 115.17164 410.93487 
L 118.2275 423.839387 
L 121.28336 409.938844 
L 124.339219 444.40025 
L 127.395079 442.295271 
L 130.450939 464.237187 
L 133.506799 410.071912 
L 136.562659 426.362983 
L 139.618518 409.898491 
L 142.674378 429.499577 
L 145.730238 425.342915 
L 148.786098 432.921101 
L 151.841958 424.493578 
L 154.897817 447.134097 
L 157.953677 434.556321 
L 161.009537 443.837898 
L 164.065397 442.916007 
L 167.121257 429.683939 
L 170.177116 425.173148 
L 173.232976 451.732434 
L 176.288836 424.516061 
L 179.344696 451.238405 
L 182.400556 427.434548 
L 185.456415 458.655841 
L 188.512275 448.445035 
L 191.568135 416.905153 
L 194.623995 433.66273 
L 197.679855 383.767514 
L 200.735714 420.191956 
L 203.791574 438.052967 
L 206.847434 428.233946 
L 209.903294 449.56675 
L 212.959154 426.309827 
L 216.015013 420.843853 
L 219.070873 436.738506 
L 222.126733 422.633083 
L 225.182593 427.740653 
L 228.238453 425.272799 
L 231.294313 417.801329 
L 234.350172 443.893199 
L 237.406032 423.867807 
L 240.461892 442.483571 
L 243.517752 361.813527 
L 246.573612 438.970949 
L 249.629471 396.997168 
L 252.685331 431.941311 
L 255.741191 415.047261 
L 258.797051 440.758094 
L 261.852911 410.683363 
L 264.90877 440.551792 
L 267.96463 424.470202 
L 271.02049 424.727979 
L 274.07635 450.142778 
L 277.13221 441.891258 
L 280.188069 390.528682 
L 283.243929 452.608475 
L 286.299789 407.615379 
L 289.355649 389.213235 
L 292.411509 427.169497 
L 295.467368 443.552352 
L 298.523228 431.999278 
L 301.579088 440.041025 
L 304.634948 446.448534 
L 307.690808 421.038351 
L 310.746667 417.179848 
L 313.802527 423.376166 
L 316.858387 426.448091 
L 319.914247 429.206678 
L 322.970107 383.033159 
L 326.025966 423.075578 
L 329.081826 376.345195 
L 332.137686 429.285265 
L 335.193546 418.721074 
L 338.249406 408.648588 
L 341.305265 420.781058 
L 344.361125 449.780207 
L 347.416985 412.861593 
L 350.472845 443.748522 
L 353.528705 388.258829 
L 356.584564 400.249222 
L 359.640424 457.649234 
L 362.696284 450.561988 
L 365.752144 437.841308 
L 368.808004 407.777819 
L 371.863863 415.239826 
L 374.919723 439.003479 
L 377.975583 384.976124 
L 381.031443 367.201129 
L 384.087303 419.383854 
L 387.143162 425.427697 
L 390.199022 444.944428 
L 393.254882 433.747272 
L 396.310742 430.596007 
L 399.366602 374.297342 
L 402.422461 379.112947 
L 405.478321 453.765522 
L 408.534181 432.757557 
L 411.590041 444.464087 
L 414.645901 437.040725 
L 417.70176 435.313123 
L 420.75762 391.068201 
L 423.81348 436.750853 
L 426.86934 438.029641 
L 429.9252 409.302097 
L 432.981059 317.337351 
L 436.036919 377.152877 
L 439.092779 407.507975 
L 442.148639 417.196569 
L 445.204499 429.187599 
L 448.260359 414.322089 
L 451.316218 391.112157 
L 454.372078 400.015084 
L 457.427938 396.234533 
L 460.483798 408.186441 
L 463.539658 433.851238 
L 466.595517 393.101745 
L 469.651377 414.41627 
L 472.707237 363.526995 
L 475.763097 403.956488 
L 478.818957 430.198349 
L 481.874816 421.694673 
L 484.930676 300.247215 
L 487.986536 404.788462 
L 491.042396 416.405245 
L 494.098256 415.451376 
L 497.154115 436.197133 
L 500.209975 453.407983 
L 503.265835 378.659768 
L 506.321695 348.346465 
L 509.377555 435.227735 
L 512.433414 426.230317 
L 515.489274 430.815737 
L 518.545134 427.863236 
L 521.600994 383.641352 
L 524.656854 365.69384 
L 527.712713 403.400896 
L 530.768573 372.578421 
L 533.824433 416.980108 
L 536.880293 420.129745 
L 539.936153 410.994267 
L 542.992012 407.226046 
L 546.047872 424.284445 
L 549.103732 430.724668 
L 552.159592 403.679918 
L 555.215452 410.444782 
L 558.271311 436.751779 
L 561.327171 443.315896 
L 564.383031 373.204479 
L 567.438891 318.664673 
L 570.494751 443.078894 
L 573.55061 411.405779 
L 576.60647 406.821901 
L 579.66233 424.422575 
L 582.71819 433.938489 
L 585.77405 425.353027 
L 588.829909 427.140464 
L 591.885769 434.385783 
L 594.941629 410.920882 
L 597.997489 437.355801 
L 601.053349 370.761431 
L 604.109208 427.137563 
L 607.165068 417.046237 
L 610.220928 437.495323 
L 613.276788 419.084865 
L 616.332648 412.737194 
L 619.388507 423.643196 
L 622.444367 412.805979 
L 625.500227 408.17048 
L 628.556087 380.596335 
L 631.611947 402.587808 
L 634.667806 442.93311 
L 637.723666 436.435968 
L 640.779526 438.768479 
L 643.835386 401.532934 
L 646.891246 424.330064 
L 649.947105 430.552303 
L 653.002965 417.862682 
L 656.058825 457.172763 
L 659.114685 427.871527 
L 662.170545 450.441372 
L 665.226405 424.34195 
L 668.282264 435.126251 
L 671.338124 432.587189 
L 674.393984 438.974679 
L 677.449844 426.477188 
L 680.505704 432.597762 
L 683.561563 425.786695 
L 686.617423 430.779838 
L 689.673283 438.330357 
L 692.729143 454.371071 
L 695.785003 408.690646 
L 698.840862 455.314705 
L 701.896722 441.522667 
L 704.952582 423.186689 
L 708.008442 435.258986 
L 711.064302 438.734361 
L 714.120161 409.84018 
L 717.176021 436.728779 
L 720.231881 422.699538 
L 723.287741 430.578779 
L 726.343601 418.575704 
L 729.39946 419.73817 
L 732.45532 403.822293 
L 735.51118 430.452144 
L 738.56704 429.331339 
L 741.6229 355.361283 
L 744.678759 435.773822 
L 747.734619 447.825954 
L 750.790479 453.320741 
L 753.846339 406.626779 
L 756.902199 429.736675 
L 759.958058 433.663209 
L 763.013918 421.757743 
L 766.069778 416.202026 
L 769.125638 429.786743 
L 772.181498 442.749924 
L 775.237357 417.302029 
L 778.293217 449.424743 
L 781.349077 424.802316 
L 784.404937 392.616129 
L 787.460797 413.778991 
L 790.516656 422.316831 
L 793.572516 432.969015 
L 796.628376 424.367136 
L 799.684236 445.350648 
L 802.740096 452.124205 
L 805.795955 414.60403 
L 808.851815 419.523268 
L 811.907675 438.156494 
L 814.963535 407.972369 
L 818.019395 398.288153 
L 821.075254 440.608226 
L 824.131114 432.227041 
L 827.186974 394.478388 
L 830.242834 409.394263 
L 833.298694 454.183375 
L 836.354553 368.804175 
L 839.410413 431.685005 
L 842.466273 413.920035 
L 845.522133 444.34944 
L 848.577993 380.013 
L 851.633852 389.931979 
L 854.689712 420.250302 
L 857.745572 445.599311 
L 857.745572 445.599311 
" clip-path="url(#p91584dfc9c)" style="fill: none; stroke-dasharray: 7.4,3.2; stroke-dashoffset: 0; stroke: #ffa500; stroke-width: 2"/>
   </g>
   <g id="patch_3">
    <path d="M 58.791027 484.397187 
L 58.791027 40.877187 
" style="fill: none; stroke: #000000; stroke-width: 0.8; stroke-linejoin: miter; stroke-linecap: square"/>
   </g>
   <g id="patch_4">
    <path d="M 895.791027 484.397187 
L 895.791027 40.877187 
" style="fill: none; stroke: #000000; stroke-width: 0.8; stroke-linejoin: miter; stroke-linecap: square"/>
   </g>
   <g id="patch_5">
    <path d="M 58.791027 484.397187 
L 895.791027 484.397187 
" style="fill: none; stroke: #000000; stroke-width: 0.8; stroke-linejoin: miter; stroke-linecap: square"/>
   </g>
   <g id="patch_6">
    <path d="M 58.791027 40.877187 
L 895.791027 40.877187 
" style="fill: none; stroke: #000000; stroke-width: 0.8; stroke-linejoin: miter; stroke-linecap: square"/>
   </g>
   <g id="text_13">
    <!-- Temperature in K  two steps forward prediction: RMSES -->
    <g transform="translate(228.92337 20.877187) scale(0.18 -0.18)">
     <defs>
      <path id="DejaVuSans-54" d="M -19 4666 
L 3928 4666 
L 3928 4134 
L 2272 4134 
L 2272 0 
L 1638 0 
L 1638 4134 
L -19 4134 
L -19 4666 
z
" transform="scale(0.015625)"/>
      <path id="DejaVuSans-6d" d="M 3328 2828 
Q 3544 3216 3844 3400 
Q 4144 3584 4550 3584 
Q 5097 3584 5394 3201 
Q 5691 2819 5691 2113 
L 5691 0 
L 5113 0 
L 5113 2094 
Q 5113 2597 4934 2840 
Q 4756 3084 4391 3084 
Q 3944 3084 3684 2787 
Q 3425 2491 3425 1978 
L 3425 0 
L 2847 0 
L 2847 2094 
Q 2847 2600 2669 2842 
Q 2491 3084 2119 3084 
Q 1678 3084 1418 2786 
Q 1159 2488 1159 1978 
L 1159 0 
L 581 0 
L 581 3500 
L 1159 3500 
L 1159 2956 
Q 1356 3278 1631 3431 
Q 1906 3584 2284 3584 
Q 2666 3584 2933 3390 
Q 3200 3197 3328 2828 
z
" transform="scale(0.015625)"/>
      <path id="DejaVuSans-70" d="M 1159 525 
L 1159 -1331 
L 581 -1331 
L 581 3500 
L 1159 3500 
L 1159 2969 
Q 1341 3281 1617 3432 
Q 1894 3584 2278 3584 
Q 2916 3584 3314 3078 
Q 3713 2572 3713 1747 
Q 3713 922 3314 415 
Q 2916 -91 2278 -91 
Q 1894 -91 1617 61 
Q 1341 213 1159 525 
z
M 3116 1747 
Q 3116 2381 2855 2742 
Q 2594 3103 2138 3103 
Q 1681 3103 1420 2742 
Q 1159 2381 1159 1747 
Q 1159 1113 1420 752 
Q 1681 391 2138 391 
Q 2594 391 2855 752 
Q 3116 1113 3116 1747 
z
" transform="scale(0.015625)"/>
      <path id="DejaVuSans-69" d="M 603 3500 
L 1178 3500 
L 1178 0 
L 603 0 
L 603 3500 
z
M 603 4863 
L 1178 4863 
L 1178 4134 
L 603 4134 
L 603 4863 
z
" transform="scale(0.015625)"/>
      <path id="DejaVuSans-4b" d="M 628 4666 
L 1259 4666 
L 1259 2694 
L 3353 4666 
L 4166 4666 
L 1850 2491 
L 4331 0 
L 3500 0 
L 1259 2247 
L 1259 0 
L 628 0 
L 628 4666 
z
" transform="scale(0.015625)"/>
      <path id="DejaVuSans-77" d="M 269 3500 
L 844 3500 
L 1563 769 
L 2278 3500 
L 2956 3500 
L 3675 769 
L 4391 3500 
L 4966 3500 
L 4050 0 
L 3372 0 
L 2619 2869 
L 1863 0 
L 1184 0 
L 269 3500 
z
" transform="scale(0.015625)"/>
      <path id="DejaVuSans-66" d="M 2375 4863 
L 2375 4384 
L 1825 4384 
Q 1516 4384 1395 4259 
Q 1275 4134 1275 3809 
L 1275 3500 
L 2222 3500 
L 2222 3053 
L 1275 3053 
L 1275 0 
L 697 0 
L 697 3053 
L 147 3053 
L 147 3500 
L 697 3500 
L 697 3744 
Q 697 4328 969 4595 
Q 1241 4863 1831 4863 
L 2375 4863 
z
" transform="scale(0.015625)"/>
     </defs>
     <use xlink:href="#DejaVuSans-54"/>
     <use xlink:href="#DejaVuSans-65" transform="translate(44.083984 0)"/>
     <use xlink:href="#DejaVuSans-6d" transform="translate(105.607422 0)"/>
     <use xlink:href="#DejaVuSans-70" transform="translate(203.019531 0)"/>
     <use xlink:href="#DejaVuSans-65" transform="translate(266.496094 0)"/>
     <use xlink:href="#DejaVuSans-72" transform="translate(328.019531 0)"/>
     <use xlink:href="#DejaVuSans-61" transform="translate(369.132812 0)"/>
     <use xlink:href="#DejaVuSans-74" transform="translate(430.412109 0)"/>
     <use xlink:href="#DejaVuSans-75" transform="translate(469.621094 0)"/>
     <use xlink:href="#DejaVuSans-72" transform="translate(533 0)"/>
     <use xlink:href="#DejaVuSans-65" transform="translate(571.863281 0)"/>
     <use xlink:href="#DejaVuSans-20" transform="translate(633.386719 0)"/>
     <use xlink:href="#DejaVuSans-69" transform="translate(665.173828 0)"/>
     <use xlink:href="#DejaVuSans-6e" transform="translate(692.957031 0)"/>
     <use xlink:href="#DejaVuSans-20" transform="translate(756.335938 0)"/>
     <use xlink:href="#DejaVuSans-4b" transform="translate(788.123047 0)"/>
     <use xlink:href="#DejaVuSans-20" transform="translate(853.699219 0)"/>
     <use xlink:href="#DejaVuSans-20" transform="translate(885.486328 0)"/>
     <use xlink:href="#DejaVuSans-74" transform="translate(917.273438 0)"/>
     <use xlink:href="#DejaVuSans-77" transform="translate(956.482422 0)"/>
     <use xlink:href="#DejaVuSans-6f" transform="translate(1038.269531 0)"/>
     <use xlink:href="#DejaVuSans-20" transform="translate(1099.451172 0)"/>
     <use xlink:href="#DejaVuSans-73" transform="translate(1131.238281 0)"/>
     <use xlink:href="#DejaVuSans-74" transform="translate(1183.337891 0)"/>
     <use xlink:href="#DejaVuSans-65" transform="translate(1222.546875 0)"/>
     <use xlink:href="#DejaVuSans-70" transform="translate(1284.070312 0)"/>
     <use xlink:href="#DejaVuSans-73" transform="translate(1347.546875 0)"/>
     <use xlink:href="#DejaVuSans-20" transform="translate(1399.646484 0)"/>
     <use xlink:href="#DejaVuSans-66" transform="translate(1431.433594 0)"/>
     <use xlink:href="#DejaVuSans-6f" transform="translate(1466.638672 0)"/>
     <use xlink:href="#DejaVuSans-72" transform="translate(1527.820312 0)"/>
     <use xlink:href="#DejaVuSans-77" transform="translate(1568.933594 0)"/>
     <use xlink:href="#DejaVuSans-61" transform="translate(1650.720703 0)"/>
     <use xlink:href="#DejaVuSans-72" transform="translate(1712 0)"/>
     <use xlink:href="#DejaVuSans-64" transform="translate(1751.363281 0)"/>
     <use xlink:href="#DejaVuSans-20" transform="translate(1814.839844 0)"/>
     <use xlink:href="#DejaVuSans-70" transform="translate(1846.626953 0)"/>
     <use xlink:href="#DejaVuSans-72" transform="translate(1910.103516 0)"/>
     <use xlink:href="#DejaVuSans-65" transform="translate(1948.966797 0)"/>
     <use xlink:href="#DejaVuSans-64" transform="translate(2010.490234 0)"/>
     <use xlink:href="#DejaVuSans-69" transform="translate(2073.966797 0)"/>
     <use xlink:href="#DejaVuSans-63" transform="translate(2101.75 0)"/>
     <use xlink:href="#DejaVuSans-74" transform="translate(2156.730469 0)"/>
     <use xlink:href="#DejaVuSans-69" transform="translate(2195.939453 0)"/>
     <use xlink:href="#DejaVuSans-6f" transform="translate(2223.722656 0)"/>
     <use xlink:href="#DejaVuSans-6e" transform="translate(2284.904297 0)"/>
     <use xlink:href="#DejaVuSans-3a" transform="translate(2348.283203 0)"/>
     <use xlink:href="#DejaVuSans-20" transform="translate(2381.974609 0)"/>
     <use xlink:href="#DejaVuSans-52" transform="translate(2413.761719 0)"/>
     <use xlink:href="#DejaVuSans-4d" transform="translate(2483.244141 0)"/>
     <use xlink:href="#DejaVuSans-53" transform="translate(2569.523438 0)"/>
     <use xlink:href="#DejaVuSans-45" transform="translate(2633 0)"/>
     <use xlink:href="#DejaVuSans-53" transform="translate(2696.183594 0)"/>
    </g>
   </g>
   <g id="legend_1">
    <g id="text_14">
     <!-- Forecast Horizon -->
     <g transform="translate(1020.26087 65.634687) scale(0.16 -0.16)">
      <defs>
       <path id="DejaVuSans-48" d="M 628 4666 
L 1259 4666 
L 1259 2753 
L 3553 2753 
L 3553 4666 
L 4184 4666 
L 4184 0 
L 3553 0 
L 3553 2222 
L 1259 2222 
L 1259 0 
L 628 0 
L 628 4666 
z
" transform="scale(0.015625)"/>
       <path id="DejaVuSans-7a" d="M 353 3500 
L 3084 3500 
L 3084 2975 
L 922 459 
L 3084 459 
L 3084 0 
L 275 0 
L 275 525 
L 2438 3041 
L 353 3041 
L 353 3500 
z
" transform="scale(0.015625)"/>
      </defs>
      <use xlink:href="#DejaVuSans-46"/>
      <use xlink:href="#DejaVuSans-6f" transform="translate(53.894531 0)"/>
      <use xlink:href="#DejaVuSans-72" transform="translate(115.076172 0)"/>
      <use xlink:href="#DejaVuSans-65" transform="translate(153.939453 0)"/>
      <use xlink:href="#DejaVuSans-63" transform="translate(215.462891 0)"/>
      <use xlink:href="#DejaVuSans-61" transform="translate(270.443359 0)"/>
      <use xlink:href="#DejaVuSans-73" transform="translate(331.722656 0)"/>
      <use xlink:href="#DejaVuSans-74" transform="translate(383.822266 0)"/>
      <use xlink:href="#DejaVuSans-20" transform="translate(423.03125 0)"/>
      <use xlink:href="#DejaVuSans-48" transform="translate(454.818359 0)"/>
      <use xlink:href="#DejaVuSans-6f" transform="translate(530.013672 0)"/>
      <use xlink:href="#DejaVuSans-72" transform="translate(591.195312 0)"/>
      <use xlink:href="#DejaVuSans-69" transform="translate(632.308594 0)"/>
      <use xlink:href="#DejaVuSans-7a" transform="translate(660.091797 0)"/>
      <use xlink:href="#DejaVuSans-6f" transform="translate(712.582031 0)"/>
      <use xlink:href="#DejaVuSans-6e" transform="translate(773.763672 0)"/>
     </g>
    </g>
    <g id="line2d_15">
     <path d="M 950.241027 81.7 
L 964.241027 81.7 
L 978.241027 81.7 
" style="fill: none; stroke: #0000ff; stroke-width: 2; stroke-linecap: square"/>
    </g>
    <g id="text_15">
     <!-- Global RMSE (6h Forecast) -->
     <g transform="translate(989.441027 86.6) scale(0.14 -0.14)">
      <defs>
       <path id="DejaVuSans-47" d="M 3809 666 
L 3809 1919 
L 2778 1919 
L 2778 2438 
L 4434 2438 
L 4434 434 
Q 4069 175 3628 42 
Q 3188 -91 2688 -91 
Q 1594 -91 976 548 
Q 359 1188 359 2328 
Q 359 3472 976 4111 
Q 1594 4750 2688 4750 
Q 3144 4750 3555 4637 
Q 3966 4525 4313 4306 
L 4313 3634 
Q 3963 3931 3569 4081 
Q 3175 4231 2741 4231 
Q 1884 4231 1454 3753 
Q 1025 3275 1025 2328 
Q 1025 1384 1454 906 
Q 1884 428 2741 428 
Q 3075 428 3337 486 
Q 3600 544 3809 666 
z
" transform="scale(0.015625)"/>
       <path id="DejaVuSans-6c" d="M 603 4863 
L 1178 4863 
L 1178 0 
L 603 0 
L 603 4863 
z
" transform="scale(0.015625)"/>
       <path id="DejaVuSans-62" d="M 3116 1747 
Q 3116 2381 2855 2742 
Q 2594 3103 2138 3103 
Q 1681 3103 1420 2742 
Q 1159 2381 1159 1747 
Q 1159 1113 1420 752 
Q 1681 391 2138 391 
Q 2594 391 2855 752 
Q 3116 1113 3116 1747 
z
M 1159 2969 
Q 1341 3281 1617 3432 
Q 1894 3584 2278 3584 
Q 2916 3584 3314 3078 
Q 3713 2572 3713 1747 
Q 3713 922 3314 415 
Q 2916 -91 2278 -91 
Q 1894 -91 1617 61 
Q 1341 213 1159 525 
L 1159 0 
L 581 0 
L 581 4863 
L 1159 4863 
L 1159 2969 
z
" transform="scale(0.015625)"/>
       <path id="DejaVuSans-68" d="M 3513 2113 
L 3513 0 
L 2938 0 
L 2938 2094 
Q 2938 2591 2744 2837 
Q 2550 3084 2163 3084 
Q 1697 3084 1428 2787 
Q 1159 2491 1159 1978 
L 1159 0 
L 581 0 
L 581 4863 
L 1159 4863 
L 1159 2956 
Q 1366 3272 1645 3428 
Q 1925 3584 2291 3584 
Q 2894 3584 3203 3211 
Q 3513 2838 3513 2113 
z
" transform="scale(0.015625)"/>
      </defs>
      <use xlink:href="#DejaVuSans-47"/>
      <use xlink:href="#DejaVuSans-6c" transform="translate(77.490234 0)"/>
      <use xlink:href="#DejaVuSans-6f" transform="translate(105.273438 0)"/>
      <use xlink:href="#DejaVuSans-62" transform="translate(166.455078 0)"/>
      <use xlink:href="#DejaVuSans-61" transform="translate(229.931641 0)"/>
      <use xlink:href="#DejaVuSans-6c" transform="translate(291.210938 0)"/>
      <use xlink:href="#DejaVuSans-20" transform="translate(318.994141 0)"/>
      <use xlink:href="#DejaVuSans-52" transform="translate(350.78125 0)"/>
      <use xlink:href="#DejaVuSans-4d" transform="translate(420.263672 0)"/>
      <use xlink:href="#DejaVuSans-53" transform="translate(506.542969 0)"/>
      <use xlink:href="#DejaVuSans-45" transform="translate(570.019531 0)"/>
      <use xlink:href="#DejaVuSans-20" transform="translate(633.203125 0)"/>
      <use xlink:href="#DejaVuSans-28" transform="translate(664.990234 0)"/>
      <use xlink:href="#DejaVuSans-36" transform="translate(704.003906 0)"/>
      <use xlink:href="#DejaVuSans-68" transform="translate(767.626953 0)"/>
      <use xlink:href="#DejaVuSans-20" transform="translate(831.005859 0)"/>
      <use xlink:href="#DejaVuSans-46" transform="translate(862.792969 0)"/>
      <use xlink:href="#DejaVuSans-6f" transform="translate(916.6875 0)"/>
      <use xlink:href="#DejaVuSans-72" transform="translate(977.869141 0)"/>
      <use xlink:href="#DejaVuSans-65" transform="translate(1016.732422 0)"/>
      <use xlink:href="#DejaVuSans-63" transform="translate(1078.255859 0)"/>
      <use xlink:href="#DejaVuSans-61" transform="translate(1133.236328 0)"/>
      <use xlink:href="#DejaVuSans-73" transform="translate(1194.515625 0)"/>
      <use xlink:href="#DejaVuSans-74" transform="translate(1246.615234 0)"/>
      <use xlink:href="#DejaVuSans-29" transform="translate(1285.824219 0)"/>
     </g>
    </g>
    <g id="line2d_16">
     <path d="M 950.241027 102.249375 
L 964.241027 102.249375 
L 978.241027 102.249375 
" style="fill: none; stroke: #ffa500; stroke-width: 2; stroke-linecap: square"/>
    </g>
    <g id="text_16">
     <!-- South Africa RMSE (6h Forecast) -->
     <g transform="translate(989.441027 107.149375) scale(0.14 -0.14)">
      <defs>
       <path id="DejaVuSans-41" d="M 2188 4044 
L 1331 1722 
L 3047 1722 
L 2188 4044 
z
M 1831 4666 
L 2547 4666 
L 4325 0 
L 3669 0 
L 3244 1197 
L 1141 1197 
L 716 0 
L 50 0 
L 1831 4666 
z
" transform="scale(0.015625)"/>
      </defs>
      <use xlink:href="#DejaVuSans-53"/>
      <use xlink:href="#DejaVuSans-6f" transform="translate(63.476562 0)"/>
      <use xlink:href="#DejaVuSans-75" transform="translate(124.658203 0)"/>
      <use xlink:href="#DejaVuSans-74" transform="translate(188.037109 0)"/>
      <use xlink:href="#DejaVuSans-68" transform="translate(227.246094 0)"/>
      <use xlink:href="#DejaVuSans-20" transform="translate(290.625 0)"/>
      <use xlink:href="#DejaVuSans-41" transform="translate(322.412109 0)"/>
      <use xlink:href="#DejaVuSans-66" transform="translate(387.195312 0)"/>
      <use xlink:href="#DejaVuSans-72" transform="translate(422.400391 0)"/>
      <use xlink:href="#DejaVuSans-69" transform="translate(463.513672 0)"/>
      <use xlink:href="#DejaVuSans-63" transform="translate(491.296875 0)"/>
      <use xlink:href="#DejaVuSans-61" transform="translate(546.277344 0)"/>
      <use xlink:href="#DejaVuSans-20" transform="translate(607.556641 0)"/>
      <use xlink:href="#DejaVuSans-52" transform="translate(639.34375 0)"/>
      <use xlink:href="#DejaVuSans-4d" transform="translate(708.826172 0)"/>
      <use xlink:href="#DejaVuSans-53" transform="translate(795.105469 0)"/>
      <use xlink:href="#DejaVuSans-45" transform="translate(858.582031 0)"/>
      <use xlink:href="#DejaVuSans-20" transform="translate(921.765625 0)"/>
      <use xlink:href="#DejaVuSans-28" transform="translate(953.552734 0)"/>
      <use xlink:href="#DejaVuSans-36" transform="translate(992.566406 0)"/>
      <use xlink:href="#DejaVuSans-68" transform="translate(1056.189453 0)"/>
      <use xlink:href="#DejaVuSans-20" transform="translate(1119.568359 0)"/>
      <use xlink:href="#DejaVuSans-46" transform="translate(1151.355469 0)"/>
      <use xlink:href="#DejaVuSans-6f" transform="translate(1205.25 0)"/>
      <use xlink:href="#DejaVuSans-72" transform="translate(1266.431641 0)"/>
      <use xlink:href="#DejaVuSans-65" transform="translate(1305.294922 0)"/>
      <use xlink:href="#DejaVuSans-63" transform="translate(1366.818359 0)"/>
      <use xlink:href="#DejaVuSans-61" transform="translate(1421.798828 0)"/>
      <use xlink:href="#DejaVuSans-73" transform="translate(1483.078125 0)"/>
      <use xlink:href="#DejaVuSans-74" transform="translate(1535.177734 0)"/>
      <use xlink:href="#DejaVuSans-29" transform="translate(1574.386719 0)"/>
     </g>
    </g>
    <g id="line2d_17">
     <path d="M 950.241027 122.79875 
L 964.241027 122.79875 
L 978.241027 122.79875 
" style="fill: none; stroke-dasharray: 7.4,3.2; stroke-dashoffset: 0; stroke: #0000ff; stroke-width: 2"/>
    </g>
    <g id="text_17">
     <!-- Global RMSE (12h Forecast) -->
     <g transform="translate(989.441027 127.69875) scale(0.14 -0.14)">
      <use xlink:href="#DejaVuSans-47"/>
      <use xlink:href="#DejaVuSans-6c" transform="translate(77.490234 0)"/>
      <use xlink:href="#DejaVuSans-6f" transform="translate(105.273438 0)"/>
      <use xlink:href="#DejaVuSans-62" transform="translate(166.455078 0)"/>
      <use xlink:href="#DejaVuSans-61" transform="translate(229.931641 0)"/>
      <use xlink:href="#DejaVuSans-6c" transform="translate(291.210938 0)"/>
      <use xlink:href="#DejaVuSans-20" transform="translate(318.994141 0)"/>
      <use xlink:href="#DejaVuSans-52" transform="translate(350.78125 0)"/>
      <use xlink:href="#DejaVuSans-4d" transform="translate(420.263672 0)"/>
      <use xlink:href="#DejaVuSans-53" transform="translate(506.542969 0)"/>
      <use xlink:href="#DejaVuSans-45" transform="translate(570.019531 0)"/>
      <use xlink:href="#DejaVuSans-20" transform="translate(633.203125 0)"/>
      <use xlink:href="#DejaVuSans-28" transform="translate(664.990234 0)"/>
      <use xlink:href="#DejaVuSans-31" transform="translate(704.003906 0)"/>
      <use xlink:href="#DejaVuSans-32" transform="translate(767.626953 0)"/>
      <use xlink:href="#DejaVuSans-68" transform="translate(831.25 0)"/>
      <use xlink:href="#DejaVuSans-20" transform="translate(894.628906 0)"/>
      <use xlink:href="#DejaVuSans-46" transform="translate(926.416016 0)"/>
      <use xlink:href="#DejaVuSans-6f" transform="translate(980.310547 0)"/>
      <use xlink:href="#DejaVuSans-72" transform="translate(1041.492188 0)"/>
      <use xlink:href="#DejaVuSans-65" transform="translate(1080.355469 0)"/>
      <use xlink:href="#DejaVuSans-63" transform="translate(1141.878906 0)"/>
      <use xlink:href="#DejaVuSans-61" transform="translate(1196.859375 0)"/>
      <use xlink:href="#DejaVuSans-73" transform="translate(1258.138672 0)"/>
      <use xlink:href="#DejaVuSans-74" transform="translate(1310.238281 0)"/>
      <use xlink:href="#DejaVuSans-29" transform="translate(1349.447266 0)"/>
     </g>
    </g>
    <g id="line2d_18">
     <path d="M 950.241027 143.348125 
L 964.241027 143.348125 
L 978.241027 143.348125 
" style="fill: none; stroke-dasharray: 7.4,3.2; stroke-dashoffset: 0; stroke: #ffa500; stroke-width: 2"/>
    </g>
    <g id="text_18">
     <!-- South Africa RMSE (12h Forecast) -->
     <g transform="translate(989.441027 148.248125) scale(0.14 -0.14)">
      <use xlink:href="#DejaVuSans-53"/>
      <use xlink:href="#DejaVuSans-6f" transform="translate(63.476562 0)"/>
      <use xlink:href="#DejaVuSans-75" transform="translate(124.658203 0)"/>
      <use xlink:href="#DejaVuSans-74" transform="translate(188.037109 0)"/>
      <use xlink:href="#DejaVuSans-68" transform="translate(227.246094 0)"/>
      <use xlink:href="#DejaVuSans-20" transform="translate(290.625 0)"/>
      <use xlink:href="#DejaVuSans-41" transform="translate(322.412109 0)"/>
      <use xlink:href="#DejaVuSans-66" transform="translate(387.195312 0)"/>
      <use xlink:href="#DejaVuSans-72" transform="translate(422.400391 0)"/>
      <use xlink:href="#DejaVuSans-69" transform="translate(463.513672 0)"/>
      <use xlink:href="#DejaVuSans-63" transform="translate(491.296875 0)"/>
      <use xlink:href="#DejaVuSans-61" transform="translate(546.277344 0)"/>
      <use xlink:href="#DejaVuSans-20" transform="translate(607.556641 0)"/>
      <use xlink:href="#DejaVuSans-52" transform="translate(639.34375 0)"/>
      <use xlink:href="#DejaVuSans-4d" transform="translate(708.826172 0)"/>
      <use xlink:href="#DejaVuSans-53" transform="translate(795.105469 0)"/>
      <use xlink:href="#DejaVuSans-45" transform="translate(858.582031 0)"/>
      <use xlink:href="#DejaVuSans-20" transform="translate(921.765625 0)"/>
      <use xlink:href="#DejaVuSans-28" transform="translate(953.552734 0)"/>
      <use xlink:href="#DejaVuSans-31" transform="translate(992.566406 0)"/>
      <use xlink:href="#DejaVuSans-32" transform="translate(1056.189453 0)"/>
      <use xlink:href="#DejaVuSans-68" transform="translate(1119.8125 0)"/>
      <use xlink:href="#DejaVuSans-20" transform="translate(1183.191406 0)"/>
      <use xlink:href="#DejaVuSans-46" transform="translate(1214.978516 0)"/>
      <use xlink:href="#DejaVuSans-6f" transform="translate(1268.873047 0)"/>
      <use xlink:href="#DejaVuSans-72" transform="translate(1330.054688 0)"/>
      <use xlink:href="#DejaVuSans-65" transform="translate(1368.917969 0)"/>
      <use xlink:href="#DejaVuSans-63" transform="translate(1430.441406 0)"/>
      <use xlink:href="#DejaVuSans-61" transform="translate(1485.421875 0)"/>
      <use xlink:href="#DejaVuSans-73" transform="translate(1546.701172 0)"/>
      <use xlink:href="#DejaVuSans-74" transform="translate(1598.800781 0)"/>
      <use xlink:href="#DejaVuSans-29" transform="translate(1638.009766 0)"/>
     </g>
    </g>
   </g>
  </g>
 </g>
 <defs>
  <clipPath id="p91584dfc9c">
   <rect x="58.791027" y="40.877187" width="837" height="443.52"/>
  </clipPath>
 </defs>
</svg>
