<?xml version="1.0" encoding="utf-8" standalone="no"?>
<!DOCTYPE svg PUBLIC "-//W3C//DTD SVG 1.1//EN"
  "http://www.w3.org/Graphics/SVG/1.1/DTD/svg11.dtd">
<svg xmlns:xlink="http://www.w3.org/1999/xlink" width="1237.023214pt" height="575.421502pt" viewBox="0 0 1237.023214 575.421502" xmlns="http://www.w3.org/2000/svg" version="1.1">
 <metadata>
  <rdf:RDF xmlns:dc="http://purl.org/dc/elements/1.1/" xmlns:cc="http://creativecommons.org/ns#" xmlns:rdf="http://www.w3.org/1999/02/22-rdf-syntax-ns#">
   <cc:Work>
    <dc:type rdf:resource="http://purl.org/dc/dcmitype/StillImage"/>
    <dc:date>2025-02-18T11:55:50.268791</dc:date>
    <dc:format>image/svg+xml</dc:format>
    <dc:creator>
     <cc:Agent>
      <dc:title>Matplotlib v3.10.0, https://matplotlib.org/</dc:title>
     </cc:Agent>
    </dc:creator>
   </cc:Work>
  </rdf:RDF>
 </metadata>
 <defs>
  <style type="text/css">*{stroke-linejoin: round; stroke-linecap: butt}</style>
 </defs>
 <g id="figure_1">
  <g id="patch_1">
   <path d="M 0 575.421502 
L 1237.023214 575.421502 
L 1237.023214 0 
L 0 0 
z
" style="fill: #ffffff"/>
  </g>
  <g id="axes_1">
   <g id="patch_2">
    <path d="M 58.791027 484.397187 
L 895.791027 484.397187 
L 895.791027 40.877187 
L 58.791027 40.877187 
z
" style="fill: #ffffff"/>
   </g>
   <g id="matplotlib.axis_1">
    <g id="xtick_1">
     <g id="line2d_1">
      <defs>
       <path id="m5d5c8fa2a5" d="M 0 0 
L 0 3.5 
" style="stroke: #000000; stroke-width: 0.8"/>
      </defs>
      <g>
       <use xlink:href="#m5d5c8fa2a5" x="96.836481" y="484.397187" style="stroke: #000000; stroke-width: 0.8"/>
      </g>
     </g>
     <g id="text_1">
      <!-- 2022-01-01 (12:00) -->
      <g transform="translate(10.999219 546.93544) rotate(-30) scale(0.1 -0.1)">
       <defs>
        <path id="DejaVuSans-32" d="M 1228 531 
L 3431 531 
L 3431 0 
L 469 0 
L 469 531 
Q 828 903 1448 1529 
Q 2069 2156 2228 2338 
Q 2531 2678 2651 2914 
Q 2772 3150 2772 3378 
Q 2772 3750 2511 3984 
Q 2250 4219 1831 4219 
Q 1534 4219 1204 4116 
Q 875 4013 500 3803 
L 500 4441 
Q 881 4594 1212 4672 
Q 1544 4750 1819 4750 
Q 2544 4750 2975 4387 
Q 3406 4025 3406 3419 
Q 3406 3131 3298 2873 
Q 3191 2616 2906 2266 
Q 2828 2175 2409 1742 
Q 1991 1309 1228 531 
z
" transform="scale(0.015625)"/>
        <path id="DejaVuSans-30" d="M 2034 4250 
Q 1547 4250 1301 3770 
Q 1056 3291 1056 2328 
Q 1056 1369 1301 889 
Q 1547 409 2034 409 
Q 2525 409 2770 889 
Q 3016 1369 3016 2328 
Q 3016 3291 2770 3770 
Q 2525 4250 2034 4250 
z
M 2034 4750 
Q 2819 4750 3233 4129 
Q 3647 3509 3647 2328 
Q 3647 1150 3233 529 
Q 2819 -91 2034 -91 
Q 1250 -91 836 529 
Q 422 1150 422 2328 
Q 422 3509 836 4129 
Q 1250 4750 2034 4750 
z
" transform="scale(0.015625)"/>
        <path id="DejaVuSans-2d" d="M 313 2009 
L 1997 2009 
L 1997 1497 
L 313 1497 
L 313 2009 
z
" transform="scale(0.015625)"/>
        <path id="DejaVuSans-31" d="M 794 531 
L 1825 531 
L 1825 4091 
L 703 3866 
L 703 4441 
L 1819 4666 
L 2450 4666 
L 2450 531 
L 3481 531 
L 3481 0 
L 794 0 
L 794 531 
z
" transform="scale(0.015625)"/>
        <path id="DejaVuSans-20" transform="scale(0.015625)"/>
        <path id="DejaVuSans-28" d="M 1984 4856 
Q 1566 4138 1362 3434 
Q 1159 2731 1159 2009 
Q 1159 1288 1364 580 
Q 1569 -128 1984 -844 
L 1484 -844 
Q 1016 -109 783 600 
Q 550 1309 550 2009 
Q 550 2706 781 3412 
Q 1013 4119 1484 4856 
L 1984 4856 
z
" transform="scale(0.015625)"/>
        <path id="DejaVuSans-3a" d="M 750 794 
L 1409 794 
L 1409 0 
L 750 0 
L 750 794 
z
M 750 3309 
L 1409 3309 
L 1409 2516 
L 750 2516 
L 750 3309 
z
" transform="scale(0.015625)"/>
        <path id="DejaVuSans-29" d="M 513 4856 
L 1013 4856 
Q 1481 4119 1714 3412 
Q 1947 2706 1947 2009 
Q 1947 1309 1714 600 
Q 1481 -109 1013 -844 
L 513 -844 
Q 928 -128 1133 580 
Q 1338 1288 1338 2009 
Q 1338 2731 1133 3434 
Q 928 4138 513 4856 
z
" transform="scale(0.015625)"/>
       </defs>
       <use xlink:href="#DejaVuSans-32"/>
       <use xlink:href="#DejaVuSans-30" transform="translate(63.623047 0)"/>
       <use xlink:href="#DejaVuSans-32" transform="translate(127.246094 0)"/>
       <use xlink:href="#DejaVuSans-32" transform="translate(190.869141 0)"/>
       <use xlink:href="#DejaVuSans-2d" transform="translate(254.492188 0)"/>
       <use xlink:href="#DejaVuSans-30" transform="translate(290.576172 0)"/>
       <use xlink:href="#DejaVuSans-31" transform="translate(354.199219 0)"/>
       <use xlink:href="#DejaVuSans-2d" transform="translate(417.822266 0)"/>
       <use xlink:href="#DejaVuSans-30" transform="translate(453.90625 0)"/>
       <use xlink:href="#DejaVuSans-31" transform="translate(517.529297 0)"/>
       <use xlink:href="#DejaVuSans-20" transform="translate(581.152344 0)"/>
       <use xlink:href="#DejaVuSans-28" transform="translate(612.939453 0)"/>
       <use xlink:href="#DejaVuSans-31" transform="translate(651.953125 0)"/>
       <use xlink:href="#DejaVuSans-32" transform="translate(715.576172 0)"/>
       <use xlink:href="#DejaVuSans-3a" transform="translate(779.199219 0)"/>
       <use xlink:href="#DejaVuSans-30" transform="translate(812.890625 0)"/>
       <use xlink:href="#DejaVuSans-30" transform="translate(876.513672 0)"/>
       <use xlink:href="#DejaVuSans-29" transform="translate(940.136719 0)"/>
      </g>
     </g>
    </g>
    <g id="xtick_2">
     <g id="line2d_2">
      <g>
       <use xlink:href="#m5d5c8fa2a5" x="246.573612" y="484.397187" style="stroke: #000000; stroke-width: 0.8"/>
      </g>
     </g>
     <g id="text_2">
      <!-- 2022-03-16 (00:00) -->
      <g transform="translate(160.736349 546.93544) rotate(-30) scale(0.1 -0.1)">
       <defs>
        <path id="DejaVuSans-33" d="M 2597 2516 
Q 3050 2419 3304 2112 
Q 3559 1806 3559 1356 
Q 3559 666 3084 287 
Q 2609 -91 1734 -91 
Q 1441 -91 1130 -33 
Q 819 25 488 141 
L 488 750 
Q 750 597 1062 519 
Q 1375 441 1716 441 
Q 2309 441 2620 675 
Q 2931 909 2931 1356 
Q 2931 1769 2642 2001 
Q 2353 2234 1838 2234 
L 1294 2234 
L 1294 2753 
L 1863 2753 
Q 2328 2753 2575 2939 
Q 2822 3125 2822 3475 
Q 2822 3834 2567 4026 
Q 2313 4219 1838 4219 
Q 1578 4219 1281 4162 
Q 984 4106 628 3988 
L 628 4550 
Q 988 4650 1302 4700 
Q 1616 4750 1894 4750 
Q 2613 4750 3031 4423 
Q 3450 4097 3450 3541 
Q 3450 3153 3228 2886 
Q 3006 2619 2597 2516 
z
" transform="scale(0.015625)"/>
        <path id="DejaVuSans-36" d="M 2113 2584 
Q 1688 2584 1439 2293 
Q 1191 2003 1191 1497 
Q 1191 994 1439 701 
Q 1688 409 2113 409 
Q 2538 409 2786 701 
Q 3034 994 3034 1497 
Q 3034 2003 2786 2293 
Q 2538 2584 2113 2584 
z
M 3366 4563 
L 3366 3988 
Q 3128 4100 2886 4159 
Q 2644 4219 2406 4219 
Q 1781 4219 1451 3797 
Q 1122 3375 1075 2522 
Q 1259 2794 1537 2939 
Q 1816 3084 2150 3084 
Q 2853 3084 3261 2657 
Q 3669 2231 3669 1497 
Q 3669 778 3244 343 
Q 2819 -91 2113 -91 
Q 1303 -91 875 529 
Q 447 1150 447 2328 
Q 447 3434 972 4092 
Q 1497 4750 2381 4750 
Q 2619 4750 2861 4703 
Q 3103 4656 3366 4563 
z
" transform="scale(0.015625)"/>
       </defs>
       <use xlink:href="#DejaVuSans-32"/>
       <use xlink:href="#DejaVuSans-30" transform="translate(63.623047 0)"/>
       <use xlink:href="#DejaVuSans-32" transform="translate(127.246094 0)"/>
       <use xlink:href="#DejaVuSans-32" transform="translate(190.869141 0)"/>
       <use xlink:href="#DejaVuSans-2d" transform="translate(254.492188 0)"/>
       <use xlink:href="#DejaVuSans-30" transform="translate(290.576172 0)"/>
       <use xlink:href="#DejaVuSans-33" transform="translate(354.199219 0)"/>
       <use xlink:href="#DejaVuSans-2d" transform="translate(417.822266 0)"/>
       <use xlink:href="#DejaVuSans-31" transform="translate(453.90625 0)"/>
       <use xlink:href="#DejaVuSans-36" transform="translate(517.529297 0)"/>
       <use xlink:href="#DejaVuSans-20" transform="translate(581.152344 0)"/>
       <use xlink:href="#DejaVuSans-28" transform="translate(612.939453 0)"/>
       <use xlink:href="#DejaVuSans-30" transform="translate(651.953125 0)"/>
       <use xlink:href="#DejaVuSans-30" transform="translate(715.576172 0)"/>
       <use xlink:href="#DejaVuSans-3a" transform="translate(779.199219 0)"/>
       <use xlink:href="#DejaVuSans-30" transform="translate(812.890625 0)"/>
       <use xlink:href="#DejaVuSans-30" transform="translate(876.513672 0)"/>
       <use xlink:href="#DejaVuSans-29" transform="translate(940.136719 0)"/>
      </g>
     </g>
    </g>
    <g id="xtick_3">
     <g id="line2d_3">
      <g>
       <use xlink:href="#m5d5c8fa2a5" x="399.366602" y="484.397187" style="stroke: #000000; stroke-width: 0.8"/>
      </g>
     </g>
     <g id="text_3">
      <!-- 2022-05-30 (00:00) -->
      <g transform="translate(313.529339 546.93544) rotate(-30) scale(0.1 -0.1)">
       <defs>
        <path id="DejaVuSans-35" d="M 691 4666 
L 3169 4666 
L 3169 4134 
L 1269 4134 
L 1269 2991 
Q 1406 3038 1543 3061 
Q 1681 3084 1819 3084 
Q 2600 3084 3056 2656 
Q 3513 2228 3513 1497 
Q 3513 744 3044 326 
Q 2575 -91 1722 -91 
Q 1428 -91 1123 -41 
Q 819 9 494 109 
L 494 744 
Q 775 591 1075 516 
Q 1375 441 1709 441 
Q 2250 441 2565 725 
Q 2881 1009 2881 1497 
Q 2881 1984 2565 2268 
Q 2250 2553 1709 2553 
Q 1456 2553 1204 2497 
Q 953 2441 691 2322 
L 691 4666 
z
" transform="scale(0.015625)"/>
       </defs>
       <use xlink:href="#DejaVuSans-32"/>
       <use xlink:href="#DejaVuSans-30" transform="translate(63.623047 0)"/>
       <use xlink:href="#DejaVuSans-32" transform="translate(127.246094 0)"/>
       <use xlink:href="#DejaVuSans-32" transform="translate(190.869141 0)"/>
       <use xlink:href="#DejaVuSans-2d" transform="translate(254.492188 0)"/>
       <use xlink:href="#DejaVuSans-30" transform="translate(290.576172 0)"/>
       <use xlink:href="#DejaVuSans-35" transform="translate(354.199219 0)"/>
       <use xlink:href="#DejaVuSans-2d" transform="translate(417.822266 0)"/>
       <use xlink:href="#DejaVuSans-33" transform="translate(453.90625 0)"/>
       <use xlink:href="#DejaVuSans-30" transform="translate(517.529297 0)"/>
       <use xlink:href="#DejaVuSans-20" transform="translate(581.152344 0)"/>
       <use xlink:href="#DejaVuSans-28" transform="translate(612.939453 0)"/>
       <use xlink:href="#DejaVuSans-30" transform="translate(651.953125 0)"/>
       <use xlink:href="#DejaVuSans-30" transform="translate(715.576172 0)"/>
       <use xlink:href="#DejaVuSans-3a" transform="translate(779.199219 0)"/>
       <use xlink:href="#DejaVuSans-30" transform="translate(812.890625 0)"/>
       <use xlink:href="#DejaVuSans-30" transform="translate(876.513672 0)"/>
       <use xlink:href="#DejaVuSans-29" transform="translate(940.136719 0)"/>
      </g>
     </g>
    </g>
    <g id="xtick_4">
     <g id="line2d_4">
      <g>
       <use xlink:href="#m5d5c8fa2a5" x="552.159592" y="484.397187" style="stroke: #000000; stroke-width: 0.8"/>
      </g>
     </g>
     <g id="text_4">
      <!-- 2022-08-13 (00:00) -->
      <g transform="translate(466.322329 546.93544) rotate(-30) scale(0.1 -0.1)">
       <defs>
        <path id="DejaVuSans-38" d="M 2034 2216 
Q 1584 2216 1326 1975 
Q 1069 1734 1069 1313 
Q 1069 891 1326 650 
Q 1584 409 2034 409 
Q 2484 409 2743 651 
Q 3003 894 3003 1313 
Q 3003 1734 2745 1975 
Q 2488 2216 2034 2216 
z
M 1403 2484 
Q 997 2584 770 2862 
Q 544 3141 544 3541 
Q 544 4100 942 4425 
Q 1341 4750 2034 4750 
Q 2731 4750 3128 4425 
Q 3525 4100 3525 3541 
Q 3525 3141 3298 2862 
Q 3072 2584 2669 2484 
Q 3125 2378 3379 2068 
Q 3634 1759 3634 1313 
Q 3634 634 3220 271 
Q 2806 -91 2034 -91 
Q 1263 -91 848 271 
Q 434 634 434 1313 
Q 434 1759 690 2068 
Q 947 2378 1403 2484 
z
M 1172 3481 
Q 1172 3119 1398 2916 
Q 1625 2713 2034 2713 
Q 2441 2713 2670 2916 
Q 2900 3119 2900 3481 
Q 2900 3844 2670 4047 
Q 2441 4250 2034 4250 
Q 1625 4250 1398 4047 
Q 1172 3844 1172 3481 
z
" transform="scale(0.015625)"/>
       </defs>
       <use xlink:href="#DejaVuSans-32"/>
       <use xlink:href="#DejaVuSans-30" transform="translate(63.623047 0)"/>
       <use xlink:href="#DejaVuSans-32" transform="translate(127.246094 0)"/>
       <use xlink:href="#DejaVuSans-32" transform="translate(190.869141 0)"/>
       <use xlink:href="#DejaVuSans-2d" transform="translate(254.492188 0)"/>
       <use xlink:href="#DejaVuSans-30" transform="translate(290.576172 0)"/>
       <use xlink:href="#DejaVuSans-38" transform="translate(354.199219 0)"/>
       <use xlink:href="#DejaVuSans-2d" transform="translate(417.822266 0)"/>
       <use xlink:href="#DejaVuSans-31" transform="translate(453.90625 0)"/>
       <use xlink:href="#DejaVuSans-33" transform="translate(517.529297 0)"/>
       <use xlink:href="#DejaVuSans-20" transform="translate(581.152344 0)"/>
       <use xlink:href="#DejaVuSans-28" transform="translate(612.939453 0)"/>
       <use xlink:href="#DejaVuSans-30" transform="translate(651.953125 0)"/>
       <use xlink:href="#DejaVuSans-30" transform="translate(715.576172 0)"/>
       <use xlink:href="#DejaVuSans-3a" transform="translate(779.199219 0)"/>
       <use xlink:href="#DejaVuSans-30" transform="translate(812.890625 0)"/>
       <use xlink:href="#DejaVuSans-30" transform="translate(876.513672 0)"/>
       <use xlink:href="#DejaVuSans-29" transform="translate(940.136719 0)"/>
      </g>
     </g>
    </g>
    <g id="xtick_5">
     <g id="line2d_5">
      <g>
       <use xlink:href="#m5d5c8fa2a5" x="704.952582" y="484.397187" style="stroke: #000000; stroke-width: 0.8"/>
      </g>
     </g>
     <g id="text_5">
      <!-- 2022-10-27 (00:00) -->
      <g transform="translate(619.11532 546.93544) rotate(-30) scale(0.1 -0.1)">
       <defs>
        <path id="DejaVuSans-37" d="M 525 4666 
L 3525 4666 
L 3525 4397 
L 1831 0 
L 1172 0 
L 2766 4134 
L 525 4134 
L 525 4666 
z
" transform="scale(0.015625)"/>
       </defs>
       <use xlink:href="#DejaVuSans-32"/>
       <use xlink:href="#DejaVuSans-30" transform="translate(63.623047 0)"/>
       <use xlink:href="#DejaVuSans-32" transform="translate(127.246094 0)"/>
       <use xlink:href="#DejaVuSans-32" transform="translate(190.869141 0)"/>
       <use xlink:href="#DejaVuSans-2d" transform="translate(254.492188 0)"/>
       <use xlink:href="#DejaVuSans-31" transform="translate(290.576172 0)"/>
       <use xlink:href="#DejaVuSans-30" transform="translate(354.199219 0)"/>
       <use xlink:href="#DejaVuSans-2d" transform="translate(417.822266 0)"/>
       <use xlink:href="#DejaVuSans-32" transform="translate(453.90625 0)"/>
       <use xlink:href="#DejaVuSans-37" transform="translate(517.529297 0)"/>
       <use xlink:href="#DejaVuSans-20" transform="translate(581.152344 0)"/>
       <use xlink:href="#DejaVuSans-28" transform="translate(612.939453 0)"/>
       <use xlink:href="#DejaVuSans-30" transform="translate(651.953125 0)"/>
       <use xlink:href="#DejaVuSans-30" transform="translate(715.576172 0)"/>
       <use xlink:href="#DejaVuSans-3a" transform="translate(779.199219 0)"/>
       <use xlink:href="#DejaVuSans-30" transform="translate(812.890625 0)"/>
       <use xlink:href="#DejaVuSans-30" transform="translate(876.513672 0)"/>
       <use xlink:href="#DejaVuSans-29" transform="translate(940.136719 0)"/>
      </g>
     </g>
    </g>
    <g id="xtick_6">
     <g id="line2d_6">
      <g>
       <use xlink:href="#m5d5c8fa2a5" x="857.745572" y="484.397187" style="stroke: #000000; stroke-width: 0.8"/>
      </g>
     </g>
     <g id="text_6">
      <!-- 2023-01-10 (00:00) -->
      <g transform="translate(771.90831 546.93544) rotate(-30) scale(0.1 -0.1)">
       <use xlink:href="#DejaVuSans-32"/>
       <use xlink:href="#DejaVuSans-30" transform="translate(63.623047 0)"/>
       <use xlink:href="#DejaVuSans-32" transform="translate(127.246094 0)"/>
       <use xlink:href="#DejaVuSans-33" transform="translate(190.869141 0)"/>
       <use xlink:href="#DejaVuSans-2d" transform="translate(254.492188 0)"/>
       <use xlink:href="#DejaVuSans-30" transform="translate(290.576172 0)"/>
       <use xlink:href="#DejaVuSans-31" transform="translate(354.199219 0)"/>
       <use xlink:href="#DejaVuSans-2d" transform="translate(417.822266 0)"/>
       <use xlink:href="#DejaVuSans-31" transform="translate(453.90625 0)"/>
       <use xlink:href="#DejaVuSans-30" transform="translate(517.529297 0)"/>
       <use xlink:href="#DejaVuSans-20" transform="translate(581.152344 0)"/>
       <use xlink:href="#DejaVuSans-28" transform="translate(612.939453 0)"/>
       <use xlink:href="#DejaVuSans-30" transform="translate(651.953125 0)"/>
       <use xlink:href="#DejaVuSans-30" transform="translate(715.576172 0)"/>
       <use xlink:href="#DejaVuSans-3a" transform="translate(779.199219 0)"/>
       <use xlink:href="#DejaVuSans-30" transform="translate(812.890625 0)"/>
       <use xlink:href="#DejaVuSans-30" transform="translate(876.513672 0)"/>
       <use xlink:href="#DejaVuSans-29" transform="translate(940.136719 0)"/>
      </g>
     </g>
    </g>
    <g id="text_7">
     <!-- Forecast Date -->
     <g transform="translate(421.784777 564.894002) scale(0.16 -0.16)">
      <defs>
       <path id="DejaVuSans-46" d="M 628 4666 
L 3309 4666 
L 3309 4134 
L 1259 4134 
L 1259 2759 
L 3109 2759 
L 3109 2228 
L 1259 2228 
L 1259 0 
L 628 0 
L 628 4666 
z
" transform="scale(0.015625)"/>
       <path id="DejaVuSans-6f" d="M 1959 3097 
Q 1497 3097 1228 2736 
Q 959 2375 959 1747 
Q 959 1119 1226 758 
Q 1494 397 1959 397 
Q 2419 397 2687 759 
Q 2956 1122 2956 1747 
Q 2956 2369 2687 2733 
Q 2419 3097 1959 3097 
z
M 1959 3584 
Q 2709 3584 3137 3096 
Q 3566 2609 3566 1747 
Q 3566 888 3137 398 
Q 2709 -91 1959 -91 
Q 1206 -91 779 398 
Q 353 888 353 1747 
Q 353 2609 779 3096 
Q 1206 3584 1959 3584 
z
" transform="scale(0.015625)"/>
       <path id="DejaVuSans-72" d="M 2631 2963 
Q 2534 3019 2420 3045 
Q 2306 3072 2169 3072 
Q 1681 3072 1420 2755 
Q 1159 2438 1159 1844 
L 1159 0 
L 581 0 
L 581 3500 
L 1159 3500 
L 1159 2956 
Q 1341 3275 1631 3429 
Q 1922 3584 2338 3584 
Q 2397 3584 2469 3576 
Q 2541 3569 2628 3553 
L 2631 2963 
z
" transform="scale(0.015625)"/>
       <path id="DejaVuSans-65" d="M 3597 1894 
L 3597 1613 
L 953 1613 
Q 991 1019 1311 708 
Q 1631 397 2203 397 
Q 2534 397 2845 478 
Q 3156 559 3463 722 
L 3463 178 
Q 3153 47 2828 -22 
Q 2503 -91 2169 -91 
Q 1331 -91 842 396 
Q 353 884 353 1716 
Q 353 2575 817 3079 
Q 1281 3584 2069 3584 
Q 2775 3584 3186 3129 
Q 3597 2675 3597 1894 
z
M 3022 2063 
Q 3016 2534 2758 2815 
Q 2500 3097 2075 3097 
Q 1594 3097 1305 2825 
Q 1016 2553 972 2059 
L 3022 2063 
z
" transform="scale(0.015625)"/>
       <path id="DejaVuSans-63" d="M 3122 3366 
L 3122 2828 
Q 2878 2963 2633 3030 
Q 2388 3097 2138 3097 
Q 1578 3097 1268 2742 
Q 959 2388 959 1747 
Q 959 1106 1268 751 
Q 1578 397 2138 397 
Q 2388 397 2633 464 
Q 2878 531 3122 666 
L 3122 134 
Q 2881 22 2623 -34 
Q 2366 -91 2075 -91 
Q 1284 -91 818 406 
Q 353 903 353 1747 
Q 353 2603 823 3093 
Q 1294 3584 2113 3584 
Q 2378 3584 2631 3529 
Q 2884 3475 3122 3366 
z
" transform="scale(0.015625)"/>
       <path id="DejaVuSans-61" d="M 2194 1759 
Q 1497 1759 1228 1600 
Q 959 1441 959 1056 
Q 959 750 1161 570 
Q 1363 391 1709 391 
Q 2188 391 2477 730 
Q 2766 1069 2766 1631 
L 2766 1759 
L 2194 1759 
z
M 3341 1997 
L 3341 0 
L 2766 0 
L 2766 531 
Q 2569 213 2275 61 
Q 1981 -91 1556 -91 
Q 1019 -91 701 211 
Q 384 513 384 1019 
Q 384 1609 779 1909 
Q 1175 2209 1959 2209 
L 2766 2209 
L 2766 2266 
Q 2766 2663 2505 2880 
Q 2244 3097 1772 3097 
Q 1472 3097 1187 3025 
Q 903 2953 641 2809 
L 641 3341 
Q 956 3463 1253 3523 
Q 1550 3584 1831 3584 
Q 2591 3584 2966 3190 
Q 3341 2797 3341 1997 
z
" transform="scale(0.015625)"/>
       <path id="DejaVuSans-73" d="M 2834 3397 
L 2834 2853 
Q 2591 2978 2328 3040 
Q 2066 3103 1784 3103 
Q 1356 3103 1142 2972 
Q 928 2841 928 2578 
Q 928 2378 1081 2264 
Q 1234 2150 1697 2047 
L 1894 2003 
Q 2506 1872 2764 1633 
Q 3022 1394 3022 966 
Q 3022 478 2636 193 
Q 2250 -91 1575 -91 
Q 1294 -91 989 -36 
Q 684 19 347 128 
L 347 722 
Q 666 556 975 473 
Q 1284 391 1588 391 
Q 1994 391 2212 530 
Q 2431 669 2431 922 
Q 2431 1156 2273 1281 
Q 2116 1406 1581 1522 
L 1381 1569 
Q 847 1681 609 1914 
Q 372 2147 372 2553 
Q 372 3047 722 3315 
Q 1072 3584 1716 3584 
Q 2034 3584 2315 3537 
Q 2597 3491 2834 3397 
z
" transform="scale(0.015625)"/>
       <path id="DejaVuSans-74" d="M 1172 4494 
L 1172 3500 
L 2356 3500 
L 2356 3053 
L 1172 3053 
L 1172 1153 
Q 1172 725 1289 603 
Q 1406 481 1766 481 
L 2356 481 
L 2356 0 
L 1766 0 
Q 1100 0 847 248 
Q 594 497 594 1153 
L 594 3053 
L 172 3053 
L 172 3500 
L 594 3500 
L 594 4494 
L 1172 4494 
z
" transform="scale(0.015625)"/>
       <path id="DejaVuSans-44" d="M 1259 4147 
L 1259 519 
L 2022 519 
Q 2988 519 3436 956 
Q 3884 1394 3884 2338 
Q 3884 3275 3436 3711 
Q 2988 4147 2022 4147 
L 1259 4147 
z
M 628 4666 
L 1925 4666 
Q 3281 4666 3915 4102 
Q 4550 3538 4550 2338 
Q 4550 1131 3912 565 
Q 3275 0 1925 0 
L 628 0 
L 628 4666 
z
" transform="scale(0.015625)"/>
      </defs>
      <use xlink:href="#DejaVuSans-46"/>
      <use xlink:href="#DejaVuSans-6f" transform="translate(53.894531 0)"/>
      <use xlink:href="#DejaVuSans-72" transform="translate(115.076172 0)"/>
      <use xlink:href="#DejaVuSans-65" transform="translate(153.939453 0)"/>
      <use xlink:href="#DejaVuSans-63" transform="translate(215.462891 0)"/>
      <use xlink:href="#DejaVuSans-61" transform="translate(270.443359 0)"/>
      <use xlink:href="#DejaVuSans-73" transform="translate(331.722656 0)"/>
      <use xlink:href="#DejaVuSans-74" transform="translate(383.822266 0)"/>
      <use xlink:href="#DejaVuSans-20" transform="translate(423.03125 0)"/>
      <use xlink:href="#DejaVuSans-44" transform="translate(454.818359 0)"/>
      <use xlink:href="#DejaVuSans-61" transform="translate(531.820312 0)"/>
      <use xlink:href="#DejaVuSans-74" transform="translate(593.099609 0)"/>
      <use xlink:href="#DejaVuSans-65" transform="translate(632.308594 0)"/>
     </g>
    </g>
   </g>
   <g id="matplotlib.axis_2">
    <g id="ytick_1">
     <g id="line2d_7">
      <defs>
       <path id="md1826d0309" d="M 0 0 
L -3.5 0 
" style="stroke: #000000; stroke-width: 0.8"/>
      </defs>
      <g>
       <use xlink:href="#md1826d0309" x="58.791027" y="473.410939" style="stroke: #000000; stroke-width: 0.8"/>
      </g>
     </g>
     <g id="text_8">
      <!-- 0.0 -->
      <g transform="translate(35.887902 477.210158) scale(0.1 -0.1)">
       <defs>
        <path id="DejaVuSans-2e" d="M 684 794 
L 1344 794 
L 1344 0 
L 684 0 
L 684 794 
z
" transform="scale(0.015625)"/>
       </defs>
       <use xlink:href="#DejaVuSans-30"/>
       <use xlink:href="#DejaVuSans-2e" transform="translate(63.623047 0)"/>
       <use xlink:href="#DejaVuSans-30" transform="translate(95.410156 0)"/>
      </g>
     </g>
    </g>
    <g id="ytick_2">
     <g id="line2d_8">
      <g>
       <use xlink:href="#md1826d0309" x="58.791027" y="410.50897" style="stroke: #000000; stroke-width: 0.8"/>
      </g>
     </g>
     <g id="text_9">
      <!-- 0.5 -->
      <g transform="translate(35.887902 414.308189) scale(0.1 -0.1)">
       <use xlink:href="#DejaVuSans-30"/>
       <use xlink:href="#DejaVuSans-2e" transform="translate(63.623047 0)"/>
       <use xlink:href="#DejaVuSans-35" transform="translate(95.410156 0)"/>
      </g>
     </g>
    </g>
    <g id="ytick_3">
     <g id="line2d_9">
      <g>
       <use xlink:href="#md1826d0309" x="58.791027" y="347.607002" style="stroke: #000000; stroke-width: 0.8"/>
      </g>
     </g>
     <g id="text_10">
      <!-- 1.0 -->
      <g transform="translate(35.887902 351.40622) scale(0.1 -0.1)">
       <use xlink:href="#DejaVuSans-31"/>
       <use xlink:href="#DejaVuSans-2e" transform="translate(63.623047 0)"/>
       <use xlink:href="#DejaVuSans-30" transform="translate(95.410156 0)"/>
      </g>
     </g>
    </g>
    <g id="ytick_4">
     <g id="line2d_10">
      <g>
       <use xlink:href="#md1826d0309" x="58.791027" y="284.705033" style="stroke: #000000; stroke-width: 0.8"/>
      </g>
     </g>
     <g id="text_11">
      <!-- 1.5 -->
      <g transform="translate(35.887902 288.504252) scale(0.1 -0.1)">
       <use xlink:href="#DejaVuSans-31"/>
       <use xlink:href="#DejaVuSans-2e" transform="translate(63.623047 0)"/>
       <use xlink:href="#DejaVuSans-35" transform="translate(95.410156 0)"/>
      </g>
     </g>
    </g>
    <g id="ytick_5">
     <g id="line2d_11">
      <g>
       <use xlink:href="#md1826d0309" x="58.791027" y="221.803064" style="stroke: #000000; stroke-width: 0.8"/>
      </g>
     </g>
     <g id="text_12">
      <!-- 2.0 -->
      <g transform="translate(35.887902 225.602283) scale(0.1 -0.1)">
       <use xlink:href="#DejaVuSans-32"/>
       <use xlink:href="#DejaVuSans-2e" transform="translate(63.623047 0)"/>
       <use xlink:href="#DejaVuSans-30" transform="translate(95.410156 0)"/>
      </g>
     </g>
    </g>
    <g id="ytick_6">
     <g id="line2d_12">
      <g>
       <use xlink:href="#md1826d0309" x="58.791027" y="158.901096" style="stroke: #000000; stroke-width: 0.8"/>
      </g>
     </g>
     <g id="text_13">
      <!-- 2.5 -->
      <g transform="translate(35.887902 162.700314) scale(0.1 -0.1)">
       <use xlink:href="#DejaVuSans-32"/>
       <use xlink:href="#DejaVuSans-2e" transform="translate(63.623047 0)"/>
       <use xlink:href="#DejaVuSans-35" transform="translate(95.410156 0)"/>
      </g>
     </g>
    </g>
    <g id="ytick_7">
     <g id="line2d_13">
      <g>
       <use xlink:href="#md1826d0309" x="58.791027" y="95.999127" style="stroke: #000000; stroke-width: 0.8"/>
      </g>
     </g>
     <g id="text_14">
      <!-- 3.0 -->
      <g transform="translate(35.887902 99.798346) scale(0.1 -0.1)">
       <use xlink:href="#DejaVuSans-33"/>
       <use xlink:href="#DejaVuSans-2e" transform="translate(63.623047 0)"/>
       <use xlink:href="#DejaVuSans-30" transform="translate(95.410156 0)"/>
      </g>
     </g>
    </g>
    <g id="text_15">
     <!-- Root Mean Squared Error (RMSE) -->
     <g transform="translate(28.560402 394.303437) rotate(-90) scale(0.16 -0.16)">
      <defs>
       <path id="DejaVuSans-52" d="M 2841 2188 
Q 3044 2119 3236 1894 
Q 3428 1669 3622 1275 
L 4263 0 
L 3584 0 
L 2988 1197 
Q 2756 1666 2539 1819 
Q 2322 1972 1947 1972 
L 1259 1972 
L 1259 0 
L 628 0 
L 628 4666 
L 2053 4666 
Q 2853 4666 3247 4331 
Q 3641 3997 3641 3322 
Q 3641 2881 3436 2590 
Q 3231 2300 2841 2188 
z
M 1259 4147 
L 1259 2491 
L 2053 2491 
Q 2509 2491 2742 2702 
Q 2975 2913 2975 3322 
Q 2975 3731 2742 3939 
Q 2509 4147 2053 4147 
L 1259 4147 
z
" transform="scale(0.015625)"/>
       <path id="DejaVuSans-4d" d="M 628 4666 
L 1569 4666 
L 2759 1491 
L 3956 4666 
L 4897 4666 
L 4897 0 
L 4281 0 
L 4281 4097 
L 3078 897 
L 2444 897 
L 1241 4097 
L 1241 0 
L 628 0 
L 628 4666 
z
" transform="scale(0.015625)"/>
       <path id="DejaVuSans-6e" d="M 3513 2113 
L 3513 0 
L 2938 0 
L 2938 2094 
Q 2938 2591 2744 2837 
Q 2550 3084 2163 3084 
Q 1697 3084 1428 2787 
Q 1159 2491 1159 1978 
L 1159 0 
L 581 0 
L 581 3500 
L 1159 3500 
L 1159 2956 
Q 1366 3272 1645 3428 
Q 1925 3584 2291 3584 
Q 2894 3584 3203 3211 
Q 3513 2838 3513 2113 
z
" transform="scale(0.015625)"/>
       <path id="DejaVuSans-53" d="M 3425 4513 
L 3425 3897 
Q 3066 4069 2747 4153 
Q 2428 4238 2131 4238 
Q 1616 4238 1336 4038 
Q 1056 3838 1056 3469 
Q 1056 3159 1242 3001 
Q 1428 2844 1947 2747 
L 2328 2669 
Q 3034 2534 3370 2195 
Q 3706 1856 3706 1288 
Q 3706 609 3251 259 
Q 2797 -91 1919 -91 
Q 1588 -91 1214 -16 
Q 841 59 441 206 
L 441 856 
Q 825 641 1194 531 
Q 1563 422 1919 422 
Q 2459 422 2753 634 
Q 3047 847 3047 1241 
Q 3047 1584 2836 1778 
Q 2625 1972 2144 2069 
L 1759 2144 
Q 1053 2284 737 2584 
Q 422 2884 422 3419 
Q 422 4038 858 4394 
Q 1294 4750 2059 4750 
Q 2388 4750 2728 4690 
Q 3069 4631 3425 4513 
z
" transform="scale(0.015625)"/>
       <path id="DejaVuSans-71" d="M 947 1747 
Q 947 1113 1208 752 
Q 1469 391 1925 391 
Q 2381 391 2643 752 
Q 2906 1113 2906 1747 
Q 2906 2381 2643 2742 
Q 2381 3103 1925 3103 
Q 1469 3103 1208 2742 
Q 947 2381 947 1747 
z
M 2906 525 
Q 2725 213 2448 61 
Q 2172 -91 1784 -91 
Q 1150 -91 751 415 
Q 353 922 353 1747 
Q 353 2572 751 3078 
Q 1150 3584 1784 3584 
Q 2172 3584 2448 3432 
Q 2725 3281 2906 2969 
L 2906 3500 
L 3481 3500 
L 3481 -1331 
L 2906 -1331 
L 2906 525 
z
" transform="scale(0.015625)"/>
       <path id="DejaVuSans-75" d="M 544 1381 
L 544 3500 
L 1119 3500 
L 1119 1403 
Q 1119 906 1312 657 
Q 1506 409 1894 409 
Q 2359 409 2629 706 
Q 2900 1003 2900 1516 
L 2900 3500 
L 3475 3500 
L 3475 0 
L 2900 0 
L 2900 538 
Q 2691 219 2414 64 
Q 2138 -91 1772 -91 
Q 1169 -91 856 284 
Q 544 659 544 1381 
z
M 1991 3584 
L 1991 3584 
z
" transform="scale(0.015625)"/>
       <path id="DejaVuSans-64" d="M 2906 2969 
L 2906 4863 
L 3481 4863 
L 3481 0 
L 2906 0 
L 2906 525 
Q 2725 213 2448 61 
Q 2172 -91 1784 -91 
Q 1150 -91 751 415 
Q 353 922 353 1747 
Q 353 2572 751 3078 
Q 1150 3584 1784 3584 
Q 2172 3584 2448 3432 
Q 2725 3281 2906 2969 
z
M 947 1747 
Q 947 1113 1208 752 
Q 1469 391 1925 391 
Q 2381 391 2643 752 
Q 2906 1113 2906 1747 
Q 2906 2381 2643 2742 
Q 2381 3103 1925 3103 
Q 1469 3103 1208 2742 
Q 947 2381 947 1747 
z
" transform="scale(0.015625)"/>
       <path id="DejaVuSans-45" d="M 628 4666 
L 3578 4666 
L 3578 4134 
L 1259 4134 
L 1259 2753 
L 3481 2753 
L 3481 2222 
L 1259 2222 
L 1259 531 
L 3634 531 
L 3634 0 
L 628 0 
L 628 4666 
z
" transform="scale(0.015625)"/>
      </defs>
      <use xlink:href="#DejaVuSans-52"/>
      <use xlink:href="#DejaVuSans-6f" transform="translate(64.982422 0)"/>
      <use xlink:href="#DejaVuSans-6f" transform="translate(126.164062 0)"/>
      <use xlink:href="#DejaVuSans-74" transform="translate(187.345703 0)"/>
      <use xlink:href="#DejaVuSans-20" transform="translate(226.554688 0)"/>
      <use xlink:href="#DejaVuSans-4d" transform="translate(258.341797 0)"/>
      <use xlink:href="#DejaVuSans-65" transform="translate(344.621094 0)"/>
      <use xlink:href="#DejaVuSans-61" transform="translate(406.144531 0)"/>
      <use xlink:href="#DejaVuSans-6e" transform="translate(467.423828 0)"/>
      <use xlink:href="#DejaVuSans-20" transform="translate(530.802734 0)"/>
      <use xlink:href="#DejaVuSans-53" transform="translate(562.589844 0)"/>
      <use xlink:href="#DejaVuSans-71" transform="translate(626.066406 0)"/>
      <use xlink:href="#DejaVuSans-75" transform="translate(689.542969 0)"/>
      <use xlink:href="#DejaVuSans-61" transform="translate(752.921875 0)"/>
      <use xlink:href="#DejaVuSans-72" transform="translate(814.201172 0)"/>
      <use xlink:href="#DejaVuSans-65" transform="translate(853.064453 0)"/>
      <use xlink:href="#DejaVuSans-64" transform="translate(914.587891 0)"/>
      <use xlink:href="#DejaVuSans-20" transform="translate(978.064453 0)"/>
      <use xlink:href="#DejaVuSans-45" transform="translate(1009.851562 0)"/>
      <use xlink:href="#DejaVuSans-72" transform="translate(1073.035156 0)"/>
      <use xlink:href="#DejaVuSans-72" transform="translate(1112.398438 0)"/>
      <use xlink:href="#DejaVuSans-6f" transform="translate(1151.261719 0)"/>
      <use xlink:href="#DejaVuSans-72" transform="translate(1212.443359 0)"/>
      <use xlink:href="#DejaVuSans-20" transform="translate(1253.556641 0)"/>
      <use xlink:href="#DejaVuSans-28" transform="translate(1285.34375 0)"/>
      <use xlink:href="#DejaVuSans-52" transform="translate(1324.357422 0)"/>
      <use xlink:href="#DejaVuSans-4d" transform="translate(1393.839844 0)"/>
      <use xlink:href="#DejaVuSans-53" transform="translate(1480.119141 0)"/>
      <use xlink:href="#DejaVuSans-45" transform="translate(1543.595703 0)"/>
      <use xlink:href="#DejaVuSans-29" transform="translate(1606.779297 0)"/>
     </g>
    </g>
    <g id="text_16">
     <!-- 1e−7 -->
     <g transform="translate(58.791027 37.877187) scale(0.1 -0.1)">
      <defs>
       <path id="DejaVuSans-2212" d="M 678 2272 
L 4684 2272 
L 4684 1741 
L 678 1741 
L 678 2272 
z
" transform="scale(0.015625)"/>
      </defs>
      <use xlink:href="#DejaVuSans-31"/>
      <use xlink:href="#DejaVuSans-65" transform="translate(63.623047 0)"/>
      <use xlink:href="#DejaVuSans-2212" transform="translate(125.146484 0)"/>
      <use xlink:href="#DejaVuSans-37" transform="translate(208.935547 0)"/>
     </g>
    </g>
   </g>
   <g id="line2d_14">
    <path d="M 96.836481 289.151722 
L 99.892341 334.067541 
L 102.948201 348.886462 
L 106.004061 333.720631 
L 109.05992 335.57254 
L 112.11578 329.012553 
L 115.17164 349.892616 
L 118.2275 366.965348 
L 121.28336 379.611685 
L 124.339219 374.770874 
L 127.395079 378.672144 
L 130.450939 391.638377 
L 133.506799 397.773757 
L 136.562659 390.305658 
L 139.618518 394.003451 
L 142.674378 401.810814 
L 145.730238 403.883004 
L 148.786098 404.603449 
L 151.841958 406.746472 
L 154.897817 407.342549 
L 161.009537 409.98253 
L 164.065397 408.701518 
L 167.121257 413.723705 
L 170.177116 415.970025 
L 173.232976 417.5815 
L 176.288836 417.617774 
L 179.344696 420.395808 
L 182.400556 424.641087 
L 185.456415 418.236615 
L 188.512275 413.163838 
L 191.568135 420.609193 
L 194.623995 418.32313 
L 197.679855 412.842574 
L 200.735714 408.81055 
L 203.791574 398.160177 
L 206.847434 385.866695 
L 209.903294 396.47455 
L 212.959154 393.842649 
L 216.015013 403.513653 
L 222.126733 386.372065 
L 225.182593 385.591716 
L 228.238453 369.418971 
L 231.294313 360.673627 
L 234.350172 350.483424 
L 237.406032 382.233091 
L 240.461892 381.169442 
L 243.517752 389.55757 
L 246.573612 377.419445 
L 249.629471 371.802289 
L 252.685331 340.184847 
L 255.741191 312.773052 
L 258.797051 310.680883 
L 261.852911 327.156005 
L 264.90877 265.135631 
L 267.96463 341.319694 
L 271.02049 370.272529 
L 274.07635 371.386764 
L 277.13221 372.120765 
L 280.188069 361.659561 
L 283.243929 353.370557 
L 286.299789 388.255528 
L 289.355649 382.215178 
L 292.411509 379.554262 
L 298.523228 354.330399 
L 301.579088 359.427936 
L 304.634948 341.898918 
L 307.690808 353.505535 
L 310.746667 364.03125 
L 313.802527 370.37977 
L 316.858387 361.617987 
L 319.914247 356.461712 
L 322.970107 368.679276 
L 326.025966 365.877537 
L 329.081826 351.925181 
L 332.137686 331.600912 
L 335.193546 353.520811 
L 338.249406 368.182014 
L 341.305265 372.26082 
L 344.361125 373.691063 
L 347.416985 365.909744 
L 350.472845 378.663142 
L 353.528705 389.940664 
L 356.584564 397.676493 
L 359.640424 400.632331 
L 362.696284 397.516907 
L 365.752144 399.017419 
L 368.808004 391.448157 
L 371.863863 387.076004 
L 374.919723 398.490805 
L 377.975583 401.081229 
L 381.031443 403.073935 
L 384.087303 408.503485 
L 387.143162 401.064652 
L 390.199022 393.203821 
L 393.254882 391.678889 
L 396.310742 403.12473 
L 399.366602 397.407575 
L 402.422461 401.21845 
L 405.478321 395.084076 
L 408.534181 388.462965 
L 411.590041 396.039127 
L 414.645901 400.778593 
L 417.70176 382.063744 
L 420.75762 331.623242 
L 423.81348 287.386001 
L 426.86934 291.404344 
L 429.9252 256.752348 
L 432.981059 294.379302 
L 436.036919 249.84706 
L 439.092779 262.537537 
L 442.148639 206.834164 
L 445.204499 167.940084 
L 448.260359 206.737141 
L 451.316218 186.156022 
L 454.372078 108.022731 
L 457.427938 95.65847 
L 460.483798 74.226688 
L 463.539658 108.987489 
L 466.595517 173.312045 
L 469.651377 154.511664 
L 472.707237 208.989138 
L 475.763097 158.239975 
L 478.818957 190.778885 
L 481.874816 191.038095 
L 484.930676 113.491554 
L 487.986536 80.722128 
L 491.042396 61.037187 
L 494.098256 99.209504 
L 497.154115 87.649673 
L 500.209975 153.656782 
L 503.265835 170.499436 
L 506.321695 192.118076 
L 509.377555 194.224405 
L 512.433414 192.733824 
L 515.489274 176.919967 
L 518.545134 216.128875 
L 521.600994 118.895302 
L 524.656854 125.265096 
L 527.712713 196.288988 
L 530.768573 194.524555 
L 536.880293 224.527283 
L 539.936153 278.859338 
L 542.992012 234.612033 
L 546.047872 154.071512 
L 549.103732 79.257255 
L 552.159592 134.622094 
L 555.215452 224.066607 
L 558.271311 166.084367 
L 561.327171 100.974724 
L 564.383031 162.195084 
L 567.438891 94.632784 
L 570.494751 110.917435 
L 573.55061 115.650622 
L 576.60647 84.317213 
L 579.66233 132.933463 
L 582.71819 88.64697 
L 585.77405 159.80457 
L 588.829909 206.729632 
L 591.885769 65.891014 
L 594.941629 89.030127 
L 597.997489 148.797163 
L 601.053349 133.640996 
L 604.109208 177.486175 
L 607.165068 178.231305 
L 610.220928 208.46142 
L 613.276788 198.090679 
L 616.332648 134.237256 
L 619.388507 107.306474 
L 622.444367 147.774266 
L 625.500227 220.579253 
L 628.556087 83.793107 
L 631.611947 171.596061 
L 634.667806 178.66663 
L 637.723666 251.342467 
L 640.779526 145.093166 
L 643.835386 205.648954 
L 646.891246 137.887584 
L 649.947105 127.25479 
L 653.002965 146.019201 
L 656.058825 183.439112 
L 659.114685 161.388222 
L 662.170545 187.102545 
L 665.226405 211.286187 
L 668.282264 143.561002 
L 671.338124 97.842567 
L 674.393984 120.215579 
L 677.449844 168.271932 
L 680.505704 148.723864 
L 683.561563 184.121866 
L 686.617423 188.071844 
L 689.673283 126.262106 
L 692.729143 176.671215 
L 695.785003 209.356902 
L 698.840862 177.410409 
L 701.896722 278.647486 
L 704.952582 196.663779 
L 708.008442 213.38792 
L 711.064302 262.612392 
L 714.120161 271.501026 
L 717.176021 167.998759 
L 720.231881 117.988826 
L 723.287741 146.428174 
L 726.343601 270.923698 
L 729.39946 205.828233 
L 732.45532 218.27913 
L 735.51118 205.790153 
L 738.56704 214.383393 
L 741.6229 224.092745 
L 744.678759 229.610017 
L 747.734619 277.870928 
L 750.790479 255.766744 
L 753.846339 248.669752 
L 756.902199 223.661013 
L 759.958058 195.958499 
L 763.013918 232.193898 
L 766.069778 261.523704 
L 769.125638 231.926803 
L 772.181498 132.74142 
L 775.237357 216.447226 
L 778.293217 263.781869 
L 781.349077 306.665061 
L 784.404937 245.315856 
L 787.460797 236.871735 
L 790.516656 235.989572 
L 793.572516 224.547002 
L 796.628376 231.46661 
L 799.684236 234.48451 
L 802.740096 277.922505 
L 805.795955 312.523174 
L 808.851815 340.896902 
L 811.907675 337.816528 
L 814.963535 350.589574 
L 818.019395 335.286111 
L 821.075254 358.873331 
L 824.131114 370.501267 
L 827.186974 370.295377 
L 830.242834 388.54261 
L 833.298694 392.952522 
L 836.354553 396.655294 
L 839.410413 386.862239 
L 842.466273 379.482831 
L 845.522133 374.431437 
L 848.577993 365.197161 
L 851.633852 370.063279 
L 854.689712 375.837875 
L 857.745572 387.576592 
L 857.745572 387.576592 
" clip-path="url(#p594f18cff8)" style="fill: none; stroke: #0000ff; stroke-width: 2; stroke-linecap: square"/>
   </g>
   <g id="line2d_15">
    <path d="M 96.836481 341.579459 
L 99.892341 402.595614 
L 102.948201 433.347775 
L 106.004061 436.167241 
L 109.05992 435.000584 
L 112.11578 426.050534 
L 115.17164 438.115726 
L 118.2275 393.059556 
L 121.28336 421.103738 
L 124.339219 402.067137 
L 127.395079 398.38163 
L 130.450939 314.229647 
L 133.506799 399.406373 
L 136.562659 327.099064 
L 139.618518 364.652862 
L 142.674378 385.885511 
L 145.730238 433.041175 
L 148.786098 411.300331 
L 151.841958 436.453643 
L 154.897817 430.383464 
L 157.953677 400.447487 
L 161.009537 391.92023 
L 164.065397 387.810576 
L 167.121257 420.854468 
L 170.177116 445.820235 
L 173.232976 425.327904 
L 176.288836 436.749715 
L 179.344696 429.411509 
L 182.400556 400.709523 
L 185.456415 431.837323 
L 188.512275 436.446213 
L 191.568135 442.428098 
L 194.623995 440.324974 
L 197.679855 443.487424 
L 200.735714 434.36227 
L 203.791574 415.545163 
L 206.847434 418.108502 
L 209.903294 438.023177 
L 212.959154 450.160689 
L 216.015013 450.050763 
L 219.070873 446.50367 
L 222.126733 449.98701 
L 225.182593 450.728663 
L 228.238453 448.587426 
L 231.294313 451.774761 
L 234.350172 456.946808 
L 237.406032 453.827167 
L 240.461892 449.611067 
L 243.517752 458.115339 
L 246.573612 462.853509 
L 249.629471 458.248379 
L 252.685331 444.5436 
L 255.741191 439.449259 
L 258.797051 452.299007 
L 261.852911 455.612265 
L 264.90877 446.759517 
L 267.96463 455.319304 
L 271.02049 459.654582 
L 274.07635 447.558448 
L 277.13221 427.621828 
L 280.188069 444.421866 
L 283.243929 448.469908 
L 286.299789 445.247135 
L 289.355649 447.735726 
L 292.411509 453.960004 
L 295.467368 451.501391 
L 298.523228 455.354408 
L 301.579088 455.498524 
L 304.634948 460.15552 
L 307.690808 449.735264 
L 310.746667 448.424463 
L 313.802527 455.230573 
L 316.858387 433.266467 
L 319.914247 438.285987 
L 322.970107 446.567831 
L 326.025966 444.298361 
L 332.137686 455.39778 
L 335.193546 454.951655 
L 338.249406 454.930129 
L 341.305265 455.731929 
L 344.361125 435.22723 
L 347.416985 452.932331 
L 350.472845 450.431419 
L 353.528705 444.385996 
L 356.584564 450.356652 
L 359.640424 457.957951 
L 362.696284 457.353349 
L 365.752144 457.359007 
L 368.808004 456.367982 
L 371.863863 437.879772 
L 374.919723 437.294084 
L 377.975583 453.801817 
L 381.031443 424.27604 
L 384.087303 426.848832 
L 387.143162 403.221583 
L 390.199022 426.99935 
L 393.254882 407.457276 
L 396.310742 428.417615 
L 399.366602 436.919159 
L 402.422461 421.925559 
L 405.478321 402.389943 
L 408.534181 418.228561 
L 411.590041 432.62434 
L 414.645901 435.48935 
L 417.70176 425.302575 
L 420.75762 420.623969 
L 423.81348 435.551993 
L 426.86934 442.476203 
L 429.9252 447.113228 
L 432.981059 442.220184 
L 436.036919 443.477499 
L 439.092779 438.181514 
L 442.148639 422.62055 
L 445.204499 416.988672 
L 448.260359 432.747005 
L 451.316218 447.034719 
L 454.372078 445.558863 
L 457.427938 401.434146 
L 460.483798 445.739899 
L 463.539658 399.52834 
L 466.595517 401.320336 
L 469.651377 425.013603 
L 472.707237 413.405488 
L 475.763097 405.889883 
L 478.818957 428.192301 
L 481.874816 402.545342 
L 484.930676 379.957299 
L 487.986536 424.604724 
L 491.042396 428.408068 
L 494.098256 419.266998 
L 497.154115 419.485854 
L 500.209975 353.582356 
L 503.265835 342.110797 
L 506.321695 388.470876 
L 509.377555 399.062833 
L 512.433414 425.310978 
L 515.489274 428.468692 
L 518.545134 411.530177 
L 521.600994 349.634031 
L 524.656854 405.122549 
L 527.712713 355.010784 
L 530.768573 412.764779 
L 533.824433 433.777062 
L 536.880293 441.715504 
L 539.936153 437.475814 
L 542.992012 425.946588 
L 546.047872 445.88822 
L 549.103732 394.469124 
L 552.159592 376.992961 
L 555.215452 372.562901 
L 558.271311 386.441529 
L 561.327171 432.021116 
L 564.383031 420.984784 
L 567.438891 430.654009 
L 570.494751 427.93296 
L 573.55061 427.092238 
L 576.60647 384.775442 
L 579.66233 364.037266 
L 582.71819 347.977375 
L 585.77405 436.870274 
L 588.829909 383.19414 
L 591.885769 421.45257 
L 594.941629 450.698795 
L 597.997489 454.387418 
L 601.053349 449.778551 
L 604.109208 446.642036 
L 607.165068 456.592781 
L 610.220928 438.083747 
L 613.276788 412.512483 
L 616.332648 400.67176 
L 619.388507 428.189512 
L 622.444367 453.938251 
L 625.500227 426.296184 
L 628.556087 408.547389 
L 631.611947 387.120734 
L 634.667806 431.408788 
L 637.723666 406.725327 
L 640.779526 428.459046 
L 643.835386 417.021777 
L 646.891246 422.452887 
L 649.947105 404.659389 
L 653.002965 383.34418 
L 656.058825 403.80916 
L 659.114685 394.022652 
L 662.170545 417.865221 
L 665.226405 426.79615 
L 668.282264 413.284313 
L 671.338124 439.848041 
L 674.393984 452.296929 
L 677.449844 457.617813 
L 680.505704 461.806413 
L 683.561563 443.890483 
L 686.617423 455.737444 
L 689.673283 456.977516 
L 692.729143 462.244989 
L 695.785003 461.72218 
L 698.840862 461.017869 
L 701.896722 456.250969 
L 704.952582 464.237187 
L 708.008442 460.57511 
L 711.064302 457.42388 
L 714.120161 461.544516 
L 717.176021 461.49891 
L 720.231881 461.016158 
L 723.287741 455.602426 
L 726.343601 455.663829 
L 729.39946 457.886551 
L 732.45532 459.228282 
L 735.51118 457.47784 
L 738.56704 449.169431 
L 741.6229 461.699343 
L 744.678759 460.376681 
L 747.734619 463.925726 
L 750.790479 459.545923 
L 753.846339 456.29831 
L 756.902199 456.604753 
L 759.958058 462.300543 
L 763.013918 462.875393 
L 766.069778 460.255961 
L 769.125638 462.215599 
L 772.181498 452.654219 
L 775.237357 450.821965 
L 778.293217 449.929929 
L 781.349077 453.256496 
L 784.404937 452.78995 
L 787.460797 454.544669 
L 790.516656 457.561429 
L 793.572516 454.592803 
L 796.628376 445.082484 
L 799.684236 440.858781 
L 802.740096 431.355561 
L 805.795955 440.681333 
L 808.851815 445.633459 
L 811.907675 449.36526 
L 814.963535 423.8472 
L 818.019395 395.987603 
L 821.075254 412.048316 
L 824.131114 404.506046 
L 827.186974 435.716921 
L 830.242834 448.588606 
L 833.298694 439.825113 
L 836.354553 432.397265 
L 839.410413 399.882499 
L 842.466273 329.330001 
L 845.522133 352.220978 
L 848.577993 352.123848 
L 851.633852 347.452536 
L 854.689712 383.823967 
L 857.745572 303.865449 
L 857.745572 303.865449 
" clip-path="url(#p594f18cff8)" style="fill: none; stroke: #ffa500; stroke-width: 2; stroke-linecap: square"/>
   </g>
   <g id="line2d_16">
    <path d="M 96.836481 373.355988 
L 99.892341 400.387901 
L 102.948201 404.103871 
L 106.004061 384.088031 
L 109.05992 393.625246 
L 112.11578 402.332265 
L 115.17164 406.98557 
L 118.2275 413.306919 
L 121.28336 417.327063 
L 124.339219 415.233254 
L 127.395079 416.176022 
L 130.450939 425.57544 
L 133.506799 427.193185 
L 136.562659 425.555899 
L 139.618518 428.495397 
L 142.674378 433.963286 
L 145.730238 430.877691 
L 148.786098 433.913076 
L 151.841958 430.843232 
L 154.897817 436.755036 
L 157.953677 427.462886 
L 161.009537 429.500326 
L 164.065397 433.874384 
L 167.121257 435.938293 
L 170.177116 438.641899 
L 173.232976 436.714456 
L 176.288836 438.017121 
L 179.344696 441.611556 
L 182.400556 439.030891 
L 185.456415 435.349702 
L 188.512275 437.093387 
L 191.568135 433.675936 
L 194.623995 437.889533 
L 197.679855 434.112887 
L 200.735714 434.925318 
L 203.791574 418.594622 
L 206.847434 421.652024 
L 209.903294 418.612219 
L 212.959154 423.845475 
L 216.015013 427.157448 
L 219.070873 414.838297 
L 222.126733 416.178346 
L 225.182593 410.572887 
L 228.238453 406.192921 
L 231.294313 413.109101 
L 234.350172 392.817348 
L 237.406032 418.451734 
L 240.461892 421.062203 
L 243.517752 409.150126 
L 246.573612 409.660846 
L 249.629471 416.704924 
L 252.685331 379.173715 
L 255.741191 364.836565 
L 258.797051 375.030898 
L 261.852911 392.136212 
L 264.90877 365.879396 
L 267.96463 402.007264 
L 271.02049 408.571877 
L 274.07635 412.921491 
L 277.13221 406.697411 
L 280.188069 409.315979 
L 283.243929 409.352141 
L 286.299789 420.078298 
L 289.355649 419.924723 
L 292.411509 413.554433 
L 295.467368 405.50757 
L 298.523228 410.882652 
L 301.579088 405.179392 
L 304.634948 402.55837 
L 307.690808 409.048942 
L 310.746667 411.340766 
L 313.802527 413.850221 
L 316.858387 404.924964 
L 319.914247 410.146081 
L 322.970107 416.130143 
L 326.025966 410.917531 
L 329.081826 398.084206 
L 332.137686 402.512558 
L 335.193546 411.624402 
L 338.249406 412.845444 
L 341.305265 419.910246 
L 344.361125 413.846512 
L 347.416985 414.312743 
L 350.472845 424.033992 
L 353.528705 427.975438 
L 356.584564 431.556324 
L 359.640424 427.567006 
L 362.696284 429.592884 
L 365.752144 429.834427 
L 368.808004 424.68714 
L 371.863863 425.630034 
L 374.919723 431.430737 
L 377.975583 429.985673 
L 381.031443 430.94872 
L 384.087303 432.072694 
L 387.143162 425.444829 
L 390.199022 425.36525 
L 393.254882 427.716532 
L 396.310742 421.793536 
L 399.366602 421.858119 
L 402.422461 426.404751 
L 405.478321 406.939284 
L 408.534181 413.468222 
L 411.590041 427.318688 
L 414.645901 425.324766 
L 417.70176 407.108068 
L 420.75762 380.666012 
L 423.81348 355.532861 
L 426.86934 365.190752 
L 429.9252 352.427923 
L 432.981059 349.255004 
L 436.036919 338.432669 
L 439.092779 340.624882 
L 442.148639 288.455148 
L 445.204499 283.410315 
L 448.260359 293.879045 
L 451.316218 275.445874 
L 454.372078 251.895017 
L 457.427938 243.88892 
L 460.483798 236.224451 
L 463.539658 262.086051 
L 466.595517 271.863606 
L 469.651377 252.121422 
L 472.707237 292.697339 
L 475.763097 276.419017 
L 478.818957 287.918081 
L 481.874816 285.019676 
L 484.930676 242.221045 
L 487.986536 222.667543 
L 491.042396 218.445429 
L 494.098256 241.913744 
L 497.154115 263.650771 
L 500.209975 293.808856 
L 503.265835 266.398019 
L 506.321695 324.172001 
L 509.377555 282.632487 
L 512.433414 270.375529 
L 515.489274 301.527013 
L 518.545134 299.296952 
L 521.600994 256.099772 
L 524.656854 281.692471 
L 527.712713 296.608826 
L 530.768573 302.692039 
L 533.824433 313.038896 
L 536.880293 316.099613 
L 539.936153 342.866036 
L 546.047872 265.030884 
L 549.103732 221.860002 
L 552.159592 293.361571 
L 555.215452 278.612696 
L 558.271311 244.080052 
L 561.327171 253.979624 
L 564.383031 238.104375 
L 567.438891 224.981808 
L 570.494751 244.684376 
L 573.55061 210.948421 
L 576.60647 274.008068 
L 579.66233 233.953539 
L 582.71819 234.025051 
L 585.77405 265.399221 
L 588.829909 257.385562 
L 591.885769 180.14525 
L 594.941629 251.250754 
L 597.997489 271.889243 
L 601.053349 279.017092 
L 604.109208 285.127139 
L 607.165068 276.74484 
L 610.220928 317.047781 
L 613.276788 274.818952 
L 616.332648 244.542086 
L 619.388507 210.567945 
L 622.444367 295.580709 
L 625.500227 254.880469 
L 628.556087 225.539096 
L 631.611947 271.992649 
L 634.667806 277.870803 
L 637.723666 295.395387 
L 640.779526 235.409562 
L 643.835386 292.538405 
L 646.891246 243.078734 
L 649.947105 245.686123 
L 653.002965 258.337019 
L 656.058825 278.393282 
L 659.114685 286.654548 
L 662.170545 265.251944 
L 665.226405 295.310933 
L 668.282264 224.404409 
L 671.338124 217.357689 
L 674.393984 221.751555 
L 677.449844 253.870819 
L 680.505704 241.851618 
L 683.561563 273.40766 
L 686.617423 258.991562 
L 689.673283 230.461233 
L 692.729143 283.567854 
L 695.785003 275.31499 
L 701.896722 341.928389 
L 704.952582 294.756935 
L 708.008442 305.249585 
L 711.064302 322.915852 
L 714.120161 310.775975 
L 717.176021 251.999513 
L 720.231881 220.825878 
L 723.287741 274.926362 
L 726.343601 325.958951 
L 729.39946 293.1396 
L 732.45532 277.949554 
L 735.51118 276.789141 
L 738.56704 291.612638 
L 741.6229 301.620979 
L 744.678759 325.443945 
L 747.734619 335.481828 
L 750.790479 321.561822 
L 753.846339 317.75526 
L 756.902199 296.917862 
L 759.958058 297.022966 
L 763.013918 326.886184 
L 766.069778 334.20385 
L 769.125638 283.625689 
L 772.181498 293.772404 
L 775.237357 317.834941 
L 778.293217 359.229117 
L 781.349077 355.147264 
L 784.404937 330.261926 
L 787.460797 329.034373 
L 790.516656 331.450372 
L 793.572516 311.897379 
L 796.628376 340.814852 
L 799.684236 350.627743 
L 802.740096 370.282729 
L 805.795955 369.714277 
L 808.851815 389.03274 
L 811.907675 388.153714 
L 814.963535 395.32733 
L 818.019395 386.096684 
L 821.075254 402.289126 
L 824.131114 404.54013 
L 827.186974 407.769561 
L 830.242834 420.291535 
L 833.298694 423.906787 
L 836.354553 423.597188 
L 839.410413 425.524126 
L 842.466273 416.630628 
L 845.522133 415.656301 
L 848.577993 418.164666 
L 851.633852 416.55126 
L 854.689712 425.187907 
L 857.745572 423.825752 
L 857.745572 423.825752 
" clip-path="url(#p594f18cff8)" style="fill: none; stroke-dasharray: 7.4,3.2; stroke-dashoffset: 0; stroke: #0000ff; stroke-width: 2"/>
   </g>
   <g id="line2d_17">
    <path d="M 96.836481 446.072627 
L 99.892341 452.996772 
L 102.948201 454.686796 
L 106.004061 453.001246 
L 109.05992 457.069179 
L 112.11578 451.443129 
L 115.17164 459.829142 
L 118.2275 449.681029 
L 121.28336 450.274781 
L 124.339219 444.008799 
L 127.395079 428.006791 
L 130.450939 441.881573 
L 133.506799 441.628196 
L 136.562659 436.40262 
L 139.618518 433.432851 
L 142.674378 442.658827 
L 145.730238 433.468464 
L 148.786098 454.527578 
L 151.841958 452.744071 
L 154.897817 448.204722 
L 157.953677 437.859863 
L 161.009537 436.433741 
L 164.065397 447.45214 
L 167.121257 449.109366 
L 170.177116 456.88556 
L 173.232976 450.163623 
L 176.288836 453.151243 
L 179.344696 451.012786 
L 182.400556 437.527454 
L 185.456415 452.010314 
L 188.512275 439.223746 
L 191.568135 454.642362 
L 194.623995 452.182004 
L 197.679855 454.097078 
L 200.735714 454.394482 
L 203.791574 448.640558 
L 206.847434 445.570553 
L 209.903294 453.214642 
L 212.959154 457.522522 
L 216.015013 449.581392 
L 219.070873 451.314463 
L 222.126733 449.954837 
L 225.182593 454.63267 
L 228.238453 453.21314 
L 231.294313 460.178521 
L 234.350172 454.566223 
L 237.406032 456.774159 
L 240.461892 456.298377 
L 243.517752 458.767559 
L 246.573612 463.519789 
L 249.629471 458.982744 
L 252.685331 455.840225 
L 255.741191 461.34471 
L 258.797051 461.638377 
L 261.852911 458.585738 
L 264.90877 460.983631 
L 267.96463 457.375127 
L 271.02049 460.816042 
L 274.07635 454.126373 
L 277.13221 448.117174 
L 280.188069 458.338828 
L 283.243929 452.336736 
L 286.299789 449.824264 
L 289.355649 456.837495 
L 292.411509 457.26729 
L 295.467368 451.905313 
L 298.523228 456.714942 
L 301.579088 461.10225 
L 304.634948 458.600622 
L 307.690808 459.06175 
L 310.746667 449.006178 
L 313.802527 462.9515 
L 316.858387 449.084833 
L 319.914247 452.559027 
L 322.970107 451.539013 
L 326.025966 452.602564 
L 329.081826 453.955463 
L 335.193546 460.985181 
L 338.249406 458.331225 
L 341.305265 455.233404 
L 344.361125 445.842115 
L 347.416985 459.27383 
L 350.472845 450.572491 
L 353.528705 441.417573 
L 356.584564 461.444505 
L 359.640424 459.144769 
L 362.696284 458.160846 
L 365.752144 454.884676 
L 368.808004 454.556627 
L 371.863863 455.849896 
L 374.919723 457.7711 
L 377.975583 451.678209 
L 381.031443 434.701358 
L 384.087303 452.251084 
L 387.143162 454.51766 
L 390.199022 439.179116 
L 393.254882 451.657498 
L 396.310742 448.619078 
L 399.366602 440.895044 
L 402.422461 441.132768 
L 405.478321 420.289712 
L 408.534181 447.659764 
L 411.590041 454.45719 
L 414.645901 456.103585 
L 417.70176 448.03484 
L 420.75762 447.636614 
L 423.81348 437.507341 
L 426.86934 445.911354 
L 429.9252 447.853535 
L 432.981059 450.144751 
L 436.036919 442.560548 
L 439.092779 453.935636 
L 442.148639 447.180375 
L 445.204499 442.00146 
L 448.260359 453.320738 
L 451.316218 450.738064 
L 454.372078 453.832001 
L 457.427938 437.868824 
L 460.483798 455.17688 
L 463.539658 451.528331 
L 466.595517 429.176626 
L 469.651377 440.19526 
L 472.707237 450.741063 
L 475.763097 446.913912 
L 478.818957 456.849291 
L 481.874816 414.684642 
L 484.930676 432.567735 
L 487.986536 445.169755 
L 491.042396 441.598532 
L 494.098256 441.672226 
L 500.209975 444.606076 
L 503.265835 399.49776 
L 506.321695 421.765396 
L 509.377555 441.420556 
L 512.433414 447.448602 
L 515.489274 442.689559 
L 518.545134 441.73647 
L 521.600994 426.752631 
L 524.656854 430.215309 
L 527.712713 425.199081 
L 530.768573 422.629605 
L 533.824433 451.539442 
L 536.880293 448.01014 
L 539.936153 449.688096 
L 542.992012 441.296008 
L 546.047872 451.302949 
L 549.103732 429.495951 
L 552.159592 429.205146 
L 555.215452 422.390333 
L 558.271311 441.174231 
L 561.327171 447.885433 
L 564.383031 447.294627 
L 567.438891 455.359607 
L 570.494751 441.894242 
L 573.55061 456.996473 
L 576.60647 436.159897 
L 579.66233 407.340699 
L 582.71819 435.602498 
L 585.77405 444.807658 
L 588.829909 436.828664 
L 591.885769 439.085751 
L 594.941629 458.920684 
L 597.997489 456.1577 
L 601.053349 456.591313 
L 604.109208 453.356907 
L 607.165068 457.725475 
L 610.220928 448.901995 
L 613.276788 438.222769 
L 616.332648 440.82501 
L 619.388507 453.658752 
L 622.444367 454.636174 
L 625.500227 443.347744 
L 628.556087 447.346131 
L 631.611947 442.402207 
L 634.667806 447.167277 
L 637.723666 448.690268 
L 640.779526 449.135857 
L 643.835386 449.124935 
L 646.891246 447.117382 
L 649.947105 432.565312 
L 653.002965 414.380535 
L 656.058825 456.294087 
L 659.114685 419.971201 
L 662.170545 451.186073 
L 665.226405 431.549325 
L 668.282264 452.714872 
L 671.338124 456.805761 
L 674.393984 452.32592 
L 677.449844 454.583953 
L 680.505704 456.007692 
L 683.561563 446.231442 
L 686.617423 454.533075 
L 689.673283 452.842502 
L 692.729143 462.153411 
L 695.785003 456.30731 
L 698.840862 457.13727 
L 701.896722 453.909416 
L 704.952582 453.055268 
L 708.008442 458.361069 
L 711.064302 453.827158 
L 714.120161 461.675196 
L 717.176021 453.130592 
L 720.231881 455.045679 
L 723.287741 451.999545 
L 726.343601 456.646215 
L 729.39946 452.77226 
L 732.45532 460.661558 
L 735.51118 455.559897 
L 738.56704 451.817674 
L 741.6229 464.024171 
L 744.678759 456.025785 
L 747.734619 459.247442 
L 750.790479 460.979783 
L 753.846339 460.29369 
L 756.902199 454.736508 
L 759.958058 457.555714 
L 763.013918 462.686097 
L 766.069778 457.6964 
L 769.125638 456.946598 
L 772.181498 461.58865 
L 775.237357 457.376287 
L 778.293217 450.309741 
L 781.349077 458.282467 
L 784.404937 449.184933 
L 787.460797 457.87212 
L 790.516656 456.103981 
L 793.572516 448.641598 
L 796.628376 455.193343 
L 799.684236 449.418782 
L 802.740096 455.87489 
L 805.795955 455.096075 
L 808.851815 450.388267 
L 811.907675 458.466792 
L 818.019395 429.431997 
L 821.075254 446.536096 
L 824.131114 458.595893 
L 827.186974 460.899224 
L 830.242834 457.903411 
L 833.298694 450.744525 
L 836.354553 453.15352 
L 839.410413 444.961546 
L 842.466273 410.118424 
L 845.522133 422.999488 
L 848.577993 418.849936 
L 851.633852 426.012803 
L 854.689712 437.852352 
L 857.745572 415.032298 
L 857.745572 415.032298 
" clip-path="url(#p594f18cff8)" style="fill: none; stroke-dasharray: 7.4,3.2; stroke-dashoffset: 0; stroke: #ffa500; stroke-width: 2"/>
   </g>
   <g id="patch_3">
    <path d="M 58.791027 484.397187 
L 58.791027 40.877187 
" style="fill: none; stroke: #000000; stroke-width: 0.8; stroke-linejoin: miter; stroke-linecap: square"/>
   </g>
   <g id="patch_4">
    <path d="M 895.791027 484.397187 
L 895.791027 40.877187 
" style="fill: none; stroke: #000000; stroke-width: 0.8; stroke-linejoin: miter; stroke-linecap: square"/>
   </g>
   <g id="patch_5">
    <path d="M 58.791027 484.397187 
L 895.791027 484.397187 
" style="fill: none; stroke: #000000; stroke-width: 0.8; stroke-linejoin: miter; stroke-linecap: square"/>
   </g>
   <g id="patch_6">
    <path d="M 58.791027 40.877187 
L 895.791027 40.877187 
" style="fill: none; stroke: #000000; stroke-width: 0.8; stroke-linejoin: miter; stroke-linecap: square"/>
   </g>
   <g id="text_17">
    <!-- Specific humidity two steps forward prediction: RMSES -->
    <g transform="translate(230.980714 20.877187) scale(0.18 -0.18)">
     <defs>
      <path id="DejaVuSans-70" d="M 1159 525 
L 1159 -1331 
L 581 -1331 
L 581 3500 
L 1159 3500 
L 1159 2969 
Q 1341 3281 1617 3432 
Q 1894 3584 2278 3584 
Q 2916 3584 3314 3078 
Q 3713 2572 3713 1747 
Q 3713 922 3314 415 
Q 2916 -91 2278 -91 
Q 1894 -91 1617 61 
Q 1341 213 1159 525 
z
M 3116 1747 
Q 3116 2381 2855 2742 
Q 2594 3103 2138 3103 
Q 1681 3103 1420 2742 
Q 1159 2381 1159 1747 
Q 1159 1113 1420 752 
Q 1681 391 2138 391 
Q 2594 391 2855 752 
Q 3116 1113 3116 1747 
z
" transform="scale(0.015625)"/>
      <path id="DejaVuSans-69" d="M 603 3500 
L 1178 3500 
L 1178 0 
L 603 0 
L 603 3500 
z
M 603 4863 
L 1178 4863 
L 1178 4134 
L 603 4134 
L 603 4863 
z
" transform="scale(0.015625)"/>
      <path id="DejaVuSans-66" d="M 2375 4863 
L 2375 4384 
L 1825 4384 
Q 1516 4384 1395 4259 
Q 1275 4134 1275 3809 
L 1275 3500 
L 2222 3500 
L 2222 3053 
L 1275 3053 
L 1275 0 
L 697 0 
L 697 3053 
L 147 3053 
L 147 3500 
L 697 3500 
L 697 3744 
Q 697 4328 969 4595 
Q 1241 4863 1831 4863 
L 2375 4863 
z
" transform="scale(0.015625)"/>
      <path id="DejaVuSans-68" d="M 3513 2113 
L 3513 0 
L 2938 0 
L 2938 2094 
Q 2938 2591 2744 2837 
Q 2550 3084 2163 3084 
Q 1697 3084 1428 2787 
Q 1159 2491 1159 1978 
L 1159 0 
L 581 0 
L 581 4863 
L 1159 4863 
L 1159 2956 
Q 1366 3272 1645 3428 
Q 1925 3584 2291 3584 
Q 2894 3584 3203 3211 
Q 3513 2838 3513 2113 
z
" transform="scale(0.015625)"/>
      <path id="DejaVuSans-6d" d="M 3328 2828 
Q 3544 3216 3844 3400 
Q 4144 3584 4550 3584 
Q 5097 3584 5394 3201 
Q 5691 2819 5691 2113 
L 5691 0 
L 5113 0 
L 5113 2094 
Q 5113 2597 4934 2840 
Q 4756 3084 4391 3084 
Q 3944 3084 3684 2787 
Q 3425 2491 3425 1978 
L 3425 0 
L 2847 0 
L 2847 2094 
Q 2847 2600 2669 2842 
Q 2491 3084 2119 3084 
Q 1678 3084 1418 2786 
Q 1159 2488 1159 1978 
L 1159 0 
L 581 0 
L 581 3500 
L 1159 3500 
L 1159 2956 
Q 1356 3278 1631 3431 
Q 1906 3584 2284 3584 
Q 2666 3584 2933 3390 
Q 3200 3197 3328 2828 
z
" transform="scale(0.015625)"/>
      <path id="DejaVuSans-79" d="M 2059 -325 
Q 1816 -950 1584 -1140 
Q 1353 -1331 966 -1331 
L 506 -1331 
L 506 -850 
L 844 -850 
Q 1081 -850 1212 -737 
Q 1344 -625 1503 -206 
L 1606 56 
L 191 3500 
L 800 3500 
L 1894 763 
L 2988 3500 
L 3597 3500 
L 2059 -325 
z
" transform="scale(0.015625)"/>
      <path id="DejaVuSans-77" d="M 269 3500 
L 844 3500 
L 1563 769 
L 2278 3500 
L 2956 3500 
L 3675 769 
L 4391 3500 
L 4966 3500 
L 4050 0 
L 3372 0 
L 2619 2869 
L 1863 0 
L 1184 0 
L 269 3500 
z
" transform="scale(0.015625)"/>
     </defs>
     <use xlink:href="#DejaVuSans-53"/>
     <use xlink:href="#DejaVuSans-70" transform="translate(63.476562 0)"/>
     <use xlink:href="#DejaVuSans-65" transform="translate(126.953125 0)"/>
     <use xlink:href="#DejaVuSans-63" transform="translate(188.476562 0)"/>
     <use xlink:href="#DejaVuSans-69" transform="translate(243.457031 0)"/>
     <use xlink:href="#DejaVuSans-66" transform="translate(271.240234 0)"/>
     <use xlink:href="#DejaVuSans-69" transform="translate(306.445312 0)"/>
     <use xlink:href="#DejaVuSans-63" transform="translate(334.228516 0)"/>
     <use xlink:href="#DejaVuSans-20" transform="translate(389.208984 0)"/>
     <use xlink:href="#DejaVuSans-68" transform="translate(420.996094 0)"/>
     <use xlink:href="#DejaVuSans-75" transform="translate(484.375 0)"/>
     <use xlink:href="#DejaVuSans-6d" transform="translate(547.753906 0)"/>
     <use xlink:href="#DejaVuSans-69" transform="translate(645.166016 0)"/>
     <use xlink:href="#DejaVuSans-64" transform="translate(672.949219 0)"/>
     <use xlink:href="#DejaVuSans-69" transform="translate(736.425781 0)"/>
     <use xlink:href="#DejaVuSans-74" transform="translate(764.208984 0)"/>
     <use xlink:href="#DejaVuSans-79" transform="translate(803.417969 0)"/>
     <use xlink:href="#DejaVuSans-20" transform="translate(862.597656 0)"/>
     <use xlink:href="#DejaVuSans-74" transform="translate(894.384766 0)"/>
     <use xlink:href="#DejaVuSans-77" transform="translate(933.59375 0)"/>
     <use xlink:href="#DejaVuSans-6f" transform="translate(1015.380859 0)"/>
     <use xlink:href="#DejaVuSans-20" transform="translate(1076.5625 0)"/>
     <use xlink:href="#DejaVuSans-73" transform="translate(1108.349609 0)"/>
     <use xlink:href="#DejaVuSans-74" transform="translate(1160.449219 0)"/>
     <use xlink:href="#DejaVuSans-65" transform="translate(1199.658203 0)"/>
     <use xlink:href="#DejaVuSans-70" transform="translate(1261.181641 0)"/>
     <use xlink:href="#DejaVuSans-73" transform="translate(1324.658203 0)"/>
     <use xlink:href="#DejaVuSans-20" transform="translate(1376.757812 0)"/>
     <use xlink:href="#DejaVuSans-66" transform="translate(1408.544922 0)"/>
     <use xlink:href="#DejaVuSans-6f" transform="translate(1443.75 0)"/>
     <use xlink:href="#DejaVuSans-72" transform="translate(1504.931641 0)"/>
     <use xlink:href="#DejaVuSans-77" transform="translate(1546.044922 0)"/>
     <use xlink:href="#DejaVuSans-61" transform="translate(1627.832031 0)"/>
     <use xlink:href="#DejaVuSans-72" transform="translate(1689.111328 0)"/>
     <use xlink:href="#DejaVuSans-64" transform="translate(1728.474609 0)"/>
     <use xlink:href="#DejaVuSans-20" transform="translate(1791.951172 0)"/>
     <use xlink:href="#DejaVuSans-70" transform="translate(1823.738281 0)"/>
     <use xlink:href="#DejaVuSans-72" transform="translate(1887.214844 0)"/>
     <use xlink:href="#DejaVuSans-65" transform="translate(1926.078125 0)"/>
     <use xlink:href="#DejaVuSans-64" transform="translate(1987.601562 0)"/>
     <use xlink:href="#DejaVuSans-69" transform="translate(2051.078125 0)"/>
     <use xlink:href="#DejaVuSans-63" transform="translate(2078.861328 0)"/>
     <use xlink:href="#DejaVuSans-74" transform="translate(2133.841797 0)"/>
     <use xlink:href="#DejaVuSans-69" transform="translate(2173.050781 0)"/>
     <use xlink:href="#DejaVuSans-6f" transform="translate(2200.833984 0)"/>
     <use xlink:href="#DejaVuSans-6e" transform="translate(2262.015625 0)"/>
     <use xlink:href="#DejaVuSans-3a" transform="translate(2325.394531 0)"/>
     <use xlink:href="#DejaVuSans-20" transform="translate(2359.085938 0)"/>
     <use xlink:href="#DejaVuSans-52" transform="translate(2390.873047 0)"/>
     <use xlink:href="#DejaVuSans-4d" transform="translate(2460.355469 0)"/>
     <use xlink:href="#DejaVuSans-53" transform="translate(2546.634766 0)"/>
     <use xlink:href="#DejaVuSans-45" transform="translate(2610.111328 0)"/>
     <use xlink:href="#DejaVuSans-53" transform="translate(2673.294922 0)"/>
    </g>
   </g>
   <g id="legend_1">
    <g id="text_18">
     <!-- Forecast Horizon -->
     <g transform="translate(1020.26087 65.634687) scale(0.16 -0.16)">
      <defs>
       <path id="DejaVuSans-48" d="M 628 4666 
L 1259 4666 
L 1259 2753 
L 3553 2753 
L 3553 4666 
L 4184 4666 
L 4184 0 
L 3553 0 
L 3553 2222 
L 1259 2222 
L 1259 0 
L 628 0 
L 628 4666 
z
" transform="scale(0.015625)"/>
       <path id="DejaVuSans-7a" d="M 353 3500 
L 3084 3500 
L 3084 2975 
L 922 459 
L 3084 459 
L 3084 0 
L 275 0 
L 275 525 
L 2438 3041 
L 353 3041 
L 353 3500 
z
" transform="scale(0.015625)"/>
      </defs>
      <use xlink:href="#DejaVuSans-46"/>
      <use xlink:href="#DejaVuSans-6f" transform="translate(53.894531 0)"/>
      <use xlink:href="#DejaVuSans-72" transform="translate(115.076172 0)"/>
      <use xlink:href="#DejaVuSans-65" transform="translate(153.939453 0)"/>
      <use xlink:href="#DejaVuSans-63" transform="translate(215.462891 0)"/>
      <use xlink:href="#DejaVuSans-61" transform="translate(270.443359 0)"/>
      <use xlink:href="#DejaVuSans-73" transform="translate(331.722656 0)"/>
      <use xlink:href="#DejaVuSans-74" transform="translate(383.822266 0)"/>
      <use xlink:href="#DejaVuSans-20" transform="translate(423.03125 0)"/>
      <use xlink:href="#DejaVuSans-48" transform="translate(454.818359 0)"/>
      <use xlink:href="#DejaVuSans-6f" transform="translate(530.013672 0)"/>
      <use xlink:href="#DejaVuSans-72" transform="translate(591.195312 0)"/>
      <use xlink:href="#DejaVuSans-69" transform="translate(632.308594 0)"/>
      <use xlink:href="#DejaVuSans-7a" transform="translate(660.091797 0)"/>
      <use xlink:href="#DejaVuSans-6f" transform="translate(712.582031 0)"/>
      <use xlink:href="#DejaVuSans-6e" transform="translate(773.763672 0)"/>
     </g>
    </g>
    <g id="line2d_18">
     <path d="M 950.241027 81.7 
L 964.241027 81.7 
L 978.241027 81.7 
" style="fill: none; stroke: #0000ff; stroke-width: 2; stroke-linecap: square"/>
    </g>
    <g id="text_19">
     <!-- Global RMSE (6h Forecast) -->
     <g transform="translate(989.441027 86.6) scale(0.14 -0.14)">
      <defs>
       <path id="DejaVuSans-47" d="M 3809 666 
L 3809 1919 
L 2778 1919 
L 2778 2438 
L 4434 2438 
L 4434 434 
Q 4069 175 3628 42 
Q 3188 -91 2688 -91 
Q 1594 -91 976 548 
Q 359 1188 359 2328 
Q 359 3472 976 4111 
Q 1594 4750 2688 4750 
Q 3144 4750 3555 4637 
Q 3966 4525 4313 4306 
L 4313 3634 
Q 3963 3931 3569 4081 
Q 3175 4231 2741 4231 
Q 1884 4231 1454 3753 
Q 1025 3275 1025 2328 
Q 1025 1384 1454 906 
Q 1884 428 2741 428 
Q 3075 428 3337 486 
Q 3600 544 3809 666 
z
" transform="scale(0.015625)"/>
       <path id="DejaVuSans-6c" d="M 603 4863 
L 1178 4863 
L 1178 0 
L 603 0 
L 603 4863 
z
" transform="scale(0.015625)"/>
       <path id="DejaVuSans-62" d="M 3116 1747 
Q 3116 2381 2855 2742 
Q 2594 3103 2138 3103 
Q 1681 3103 1420 2742 
Q 1159 2381 1159 1747 
Q 1159 1113 1420 752 
Q 1681 391 2138 391 
Q 2594 391 2855 752 
Q 3116 1113 3116 1747 
z
M 1159 2969 
Q 1341 3281 1617 3432 
Q 1894 3584 2278 3584 
Q 2916 3584 3314 3078 
Q 3713 2572 3713 1747 
Q 3713 922 3314 415 
Q 2916 -91 2278 -91 
Q 1894 -91 1617 61 
Q 1341 213 1159 525 
L 1159 0 
L 581 0 
L 581 4863 
L 1159 4863 
L 1159 2969 
z
" transform="scale(0.015625)"/>
      </defs>
      <use xlink:href="#DejaVuSans-47"/>
      <use xlink:href="#DejaVuSans-6c" transform="translate(77.490234 0)"/>
      <use xlink:href="#DejaVuSans-6f" transform="translate(105.273438 0)"/>
      <use xlink:href="#DejaVuSans-62" transform="translate(166.455078 0)"/>
      <use xlink:href="#DejaVuSans-61" transform="translate(229.931641 0)"/>
      <use xlink:href="#DejaVuSans-6c" transform="translate(291.210938 0)"/>
      <use xlink:href="#DejaVuSans-20" transform="translate(318.994141 0)"/>
      <use xlink:href="#DejaVuSans-52" transform="translate(350.78125 0)"/>
      <use xlink:href="#DejaVuSans-4d" transform="translate(420.263672 0)"/>
      <use xlink:href="#DejaVuSans-53" transform="translate(506.542969 0)"/>
      <use xlink:href="#DejaVuSans-45" transform="translate(570.019531 0)"/>
      <use xlink:href="#DejaVuSans-20" transform="translate(633.203125 0)"/>
      <use xlink:href="#DejaVuSans-28" transform="translate(664.990234 0)"/>
      <use xlink:href="#DejaVuSans-36" transform="translate(704.003906 0)"/>
      <use xlink:href="#DejaVuSans-68" transform="translate(767.626953 0)"/>
      <use xlink:href="#DejaVuSans-20" transform="translate(831.005859 0)"/>
      <use xlink:href="#DejaVuSans-46" transform="translate(862.792969 0)"/>
      <use xlink:href="#DejaVuSans-6f" transform="translate(916.6875 0)"/>
      <use xlink:href="#DejaVuSans-72" transform="translate(977.869141 0)"/>
      <use xlink:href="#DejaVuSans-65" transform="translate(1016.732422 0)"/>
      <use xlink:href="#DejaVuSans-63" transform="translate(1078.255859 0)"/>
      <use xlink:href="#DejaVuSans-61" transform="translate(1133.236328 0)"/>
      <use xlink:href="#DejaVuSans-73" transform="translate(1194.515625 0)"/>
      <use xlink:href="#DejaVuSans-74" transform="translate(1246.615234 0)"/>
      <use xlink:href="#DejaVuSans-29" transform="translate(1285.824219 0)"/>
     </g>
    </g>
    <g id="line2d_19">
     <path d="M 950.241027 102.249375 
L 964.241027 102.249375 
L 978.241027 102.249375 
" style="fill: none; stroke: #ffa500; stroke-width: 2; stroke-linecap: square"/>
    </g>
    <g id="text_20">
     <!-- South Africa RMSE (6h Forecast) -->
     <g transform="translate(989.441027 107.149375) scale(0.14 -0.14)">
      <defs>
       <path id="DejaVuSans-41" d="M 2188 4044 
L 1331 1722 
L 3047 1722 
L 2188 4044 
z
M 1831 4666 
L 2547 4666 
L 4325 0 
L 3669 0 
L 3244 1197 
L 1141 1197 
L 716 0 
L 50 0 
L 1831 4666 
z
" transform="scale(0.015625)"/>
      </defs>
      <use xlink:href="#DejaVuSans-53"/>
      <use xlink:href="#DejaVuSans-6f" transform="translate(63.476562 0)"/>
      <use xlink:href="#DejaVuSans-75" transform="translate(124.658203 0)"/>
      <use xlink:href="#DejaVuSans-74" transform="translate(188.037109 0)"/>
      <use xlink:href="#DejaVuSans-68" transform="translate(227.246094 0)"/>
      <use xlink:href="#DejaVuSans-20" transform="translate(290.625 0)"/>
      <use xlink:href="#DejaVuSans-41" transform="translate(322.412109 0)"/>
      <use xlink:href="#DejaVuSans-66" transform="translate(387.195312 0)"/>
      <use xlink:href="#DejaVuSans-72" transform="translate(422.400391 0)"/>
      <use xlink:href="#DejaVuSans-69" transform="translate(463.513672 0)"/>
      <use xlink:href="#DejaVuSans-63" transform="translate(491.296875 0)"/>
      <use xlink:href="#DejaVuSans-61" transform="translate(546.277344 0)"/>
      <use xlink:href="#DejaVuSans-20" transform="translate(607.556641 0)"/>
      <use xlink:href="#DejaVuSans-52" transform="translate(639.34375 0)"/>
      <use xlink:href="#DejaVuSans-4d" transform="translate(708.826172 0)"/>
      <use xlink:href="#DejaVuSans-53" transform="translate(795.105469 0)"/>
      <use xlink:href="#DejaVuSans-45" transform="translate(858.582031 0)"/>
      <use xlink:href="#DejaVuSans-20" transform="translate(921.765625 0)"/>
      <use xlink:href="#DejaVuSans-28" transform="translate(953.552734 0)"/>
      <use xlink:href="#DejaVuSans-36" transform="translate(992.566406 0)"/>
      <use xlink:href="#DejaVuSans-68" transform="translate(1056.189453 0)"/>
      <use xlink:href="#DejaVuSans-20" transform="translate(1119.568359 0)"/>
      <use xlink:href="#DejaVuSans-46" transform="translate(1151.355469 0)"/>
      <use xlink:href="#DejaVuSans-6f" transform="translate(1205.25 0)"/>
      <use xlink:href="#DejaVuSans-72" transform="translate(1266.431641 0)"/>
      <use xlink:href="#DejaVuSans-65" transform="translate(1305.294922 0)"/>
      <use xlink:href="#DejaVuSans-63" transform="translate(1366.818359 0)"/>
      <use xlink:href="#DejaVuSans-61" transform="translate(1421.798828 0)"/>
      <use xlink:href="#DejaVuSans-73" transform="translate(1483.078125 0)"/>
      <use xlink:href="#DejaVuSans-74" transform="translate(1535.177734 0)"/>
      <use xlink:href="#DejaVuSans-29" transform="translate(1574.386719 0)"/>
     </g>
    </g>
    <g id="line2d_20">
     <path d="M 950.241027 122.79875 
L 964.241027 122.79875 
L 978.241027 122.79875 
" style="fill: none; stroke-dasharray: 7.4,3.2; stroke-dashoffset: 0; stroke: #0000ff; stroke-width: 2"/>
    </g>
    <g id="text_21">
     <!-- Global RMSE (12h Forecast) -->
     <g transform="translate(989.441027 127.69875) scale(0.14 -0.14)">
      <use xlink:href="#DejaVuSans-47"/>
      <use xlink:href="#DejaVuSans-6c" transform="translate(77.490234 0)"/>
      <use xlink:href="#DejaVuSans-6f" transform="translate(105.273438 0)"/>
      <use xlink:href="#DejaVuSans-62" transform="translate(166.455078 0)"/>
      <use xlink:href="#DejaVuSans-61" transform="translate(229.931641 0)"/>
      <use xlink:href="#DejaVuSans-6c" transform="translate(291.210938 0)"/>
      <use xlink:href="#DejaVuSans-20" transform="translate(318.994141 0)"/>
      <use xlink:href="#DejaVuSans-52" transform="translate(350.78125 0)"/>
      <use xlink:href="#DejaVuSans-4d" transform="translate(420.263672 0)"/>
      <use xlink:href="#DejaVuSans-53" transform="translate(506.542969 0)"/>
      <use xlink:href="#DejaVuSans-45" transform="translate(570.019531 0)"/>
      <use xlink:href="#DejaVuSans-20" transform="translate(633.203125 0)"/>
      <use xlink:href="#DejaVuSans-28" transform="translate(664.990234 0)"/>
      <use xlink:href="#DejaVuSans-31" transform="translate(704.003906 0)"/>
      <use xlink:href="#DejaVuSans-32" transform="translate(767.626953 0)"/>
      <use xlink:href="#DejaVuSans-68" transform="translate(831.25 0)"/>
      <use xlink:href="#DejaVuSans-20" transform="translate(894.628906 0)"/>
      <use xlink:href="#DejaVuSans-46" transform="translate(926.416016 0)"/>
      <use xlink:href="#DejaVuSans-6f" transform="translate(980.310547 0)"/>
      <use xlink:href="#DejaVuSans-72" transform="translate(1041.492188 0)"/>
      <use xlink:href="#DejaVuSans-65" transform="translate(1080.355469 0)"/>
      <use xlink:href="#DejaVuSans-63" transform="translate(1141.878906 0)"/>
      <use xlink:href="#DejaVuSans-61" transform="translate(1196.859375 0)"/>
      <use xlink:href="#DejaVuSans-73" transform="translate(1258.138672 0)"/>
      <use xlink:href="#DejaVuSans-74" transform="translate(1310.238281 0)"/>
      <use xlink:href="#DejaVuSans-29" transform="translate(1349.447266 0)"/>
     </g>
    </g>
    <g id="line2d_21">
     <path d="M 950.241027 143.348125 
L 964.241027 143.348125 
L 978.241027 143.348125 
" style="fill: none; stroke-dasharray: 7.4,3.2; stroke-dashoffset: 0; stroke: #ffa500; stroke-width: 2"/>
    </g>
    <g id="text_22">
     <!-- South Africa RMSE (12h Forecast) -->
     <g transform="translate(989.441027 148.248125) scale(0.14 -0.14)">
      <use xlink:href="#DejaVuSans-53"/>
      <use xlink:href="#DejaVuSans-6f" transform="translate(63.476562 0)"/>
      <use xlink:href="#DejaVuSans-75" transform="translate(124.658203 0)"/>
      <use xlink:href="#DejaVuSans-74" transform="translate(188.037109 0)"/>
      <use xlink:href="#DejaVuSans-68" transform="translate(227.246094 0)"/>
      <use xlink:href="#DejaVuSans-20" transform="translate(290.625 0)"/>
      <use xlink:href="#DejaVuSans-41" transform="translate(322.412109 0)"/>
      <use xlink:href="#DejaVuSans-66" transform="translate(387.195312 0)"/>
      <use xlink:href="#DejaVuSans-72" transform="translate(422.400391 0)"/>
      <use xlink:href="#DejaVuSans-69" transform="translate(463.513672 0)"/>
      <use xlink:href="#DejaVuSans-63" transform="translate(491.296875 0)"/>
      <use xlink:href="#DejaVuSans-61" transform="translate(546.277344 0)"/>
      <use xlink:href="#DejaVuSans-20" transform="translate(607.556641 0)"/>
      <use xlink:href="#DejaVuSans-52" transform="translate(639.34375 0)"/>
      <use xlink:href="#DejaVuSans-4d" transform="translate(708.826172 0)"/>
      <use xlink:href="#DejaVuSans-53" transform="translate(795.105469 0)"/>
      <use xlink:href="#DejaVuSans-45" transform="translate(858.582031 0)"/>
      <use xlink:href="#DejaVuSans-20" transform="translate(921.765625 0)"/>
      <use xlink:href="#DejaVuSans-28" transform="translate(953.552734 0)"/>
      <use xlink:href="#DejaVuSans-31" transform="translate(992.566406 0)"/>
      <use xlink:href="#DejaVuSans-32" transform="translate(1056.189453 0)"/>
      <use xlink:href="#DejaVuSans-68" transform="translate(1119.8125 0)"/>
      <use xlink:href="#DejaVuSans-20" transform="translate(1183.191406 0)"/>
      <use xlink:href="#DejaVuSans-46" transform="translate(1214.978516 0)"/>
      <use xlink:href="#DejaVuSans-6f" transform="translate(1268.873047 0)"/>
      <use xlink:href="#DejaVuSans-72" transform="translate(1330.054688 0)"/>
      <use xlink:href="#DejaVuSans-65" transform="translate(1368.917969 0)"/>
      <use xlink:href="#DejaVuSans-63" transform="translate(1430.441406 0)"/>
      <use xlink:href="#DejaVuSans-61" transform="translate(1485.421875 0)"/>
      <use xlink:href="#DejaVuSans-73" transform="translate(1546.701172 0)"/>
      <use xlink:href="#DejaVuSans-74" transform="translate(1598.800781 0)"/>
      <use xlink:href="#DejaVuSans-29" transform="translate(1638.009766 0)"/>
     </g>
    </g>
   </g>
  </g>
 </g>
 <defs>
  <clipPath id="p594f18cff8">
   <rect x="58.791027" y="40.877187" width="837" height="443.52"/>
  </clipPath>
 </defs>
</svg>
