<?xml version="1.0" encoding="utf-8" standalone="no"?>
<!DOCTYPE svg PUBLIC "-//W3C//DTD SVG 1.1//EN"
  "http://www.w3.org/Graphics/SVG/1.1/DTD/svg11.dtd">
<svg xmlns:xlink="http://www.w3.org/1999/xlink" width="1240.545312pt" height="575.421502pt" viewBox="0 0 1240.545312 575.421502" xmlns="http://www.w3.org/2000/svg" version="1.1">
 <metadata>
  <rdf:RDF xmlns:dc="http://purl.org/dc/elements/1.1/" xmlns:cc="http://creativecommons.org/ns#" xmlns:rdf="http://www.w3.org/1999/02/22-rdf-syntax-ns#">
   <cc:Work>
    <dc:type rdf:resource="http://purl.org/dc/dcmitype/StillImage"/>
    <dc:date>2025-02-18T12:23:53.127095</dc:date>
    <dc:format>image/svg+xml</dc:format>
    <dc:creator>
     <cc:Agent>
      <dc:title>Matplotlib v3.10.0, https://matplotlib.org/</dc:title>
     </cc:Agent>
    </dc:creator>
   </cc:Work>
  </rdf:RDF>
 </metadata>
 <defs>
  <style type="text/css">*{stroke-linejoin: round; stroke-linecap: butt}</style>
 </defs>
 <g id="figure_1">
  <g id="patch_1">
   <path d="M 0 575.421502 
L 1240.545312 575.421502 
L 1240.545312 0 
L 0 0 
z
" style="fill: #ffffff"/>
  </g>
  <g id="axes_1">
   <g id="patch_2">
    <path d="M 62.313125 484.397187 
L 899.313125 484.397187 
L 899.313125 40.877187 
L 62.313125 40.877187 
z
" style="fill: #ffffff"/>
   </g>
   <g id="matplotlib.axis_1">
    <g id="xtick_1">
     <g id="line2d_1">
      <defs>
       <path id="m05072a3a61" d="M 0 0 
L 0 3.5 
" style="stroke: #000000; stroke-width: 0.8"/>
      </defs>
      <g>
       <use xlink:href="#m05072a3a61" x="100.35858" y="484.397187" style="stroke: #000000; stroke-width: 0.8"/>
      </g>
     </g>
     <g id="text_1">
      <!-- 2022-01-01 (12:00) -->
      <g transform="translate(14.521317 546.93544) rotate(-30) scale(0.1 -0.1)">
       <defs>
        <path id="DejaVuSans-32" d="M 1228 531 
L 3431 531 
L 3431 0 
L 469 0 
L 469 531 
Q 828 903 1448 1529 
Q 2069 2156 2228 2338 
Q 2531 2678 2651 2914 
Q 2772 3150 2772 3378 
Q 2772 3750 2511 3984 
Q 2250 4219 1831 4219 
Q 1534 4219 1204 4116 
Q 875 4013 500 3803 
L 500 4441 
Q 881 4594 1212 4672 
Q 1544 4750 1819 4750 
Q 2544 4750 2975 4387 
Q 3406 4025 3406 3419 
Q 3406 3131 3298 2873 
Q 3191 2616 2906 2266 
Q 2828 2175 2409 1742 
Q 1991 1309 1228 531 
z
" transform="scale(0.015625)"/>
        <path id="DejaVuSans-30" d="M 2034 4250 
Q 1547 4250 1301 3770 
Q 1056 3291 1056 2328 
Q 1056 1369 1301 889 
Q 1547 409 2034 409 
Q 2525 409 2770 889 
Q 3016 1369 3016 2328 
Q 3016 3291 2770 3770 
Q 2525 4250 2034 4250 
z
M 2034 4750 
Q 2819 4750 3233 4129 
Q 3647 3509 3647 2328 
Q 3647 1150 3233 529 
Q 2819 -91 2034 -91 
Q 1250 -91 836 529 
Q 422 1150 422 2328 
Q 422 3509 836 4129 
Q 1250 4750 2034 4750 
z
" transform="scale(0.015625)"/>
        <path id="DejaVuSans-2d" d="M 313 2009 
L 1997 2009 
L 1997 1497 
L 313 1497 
L 313 2009 
z
" transform="scale(0.015625)"/>
        <path id="DejaVuSans-31" d="M 794 531 
L 1825 531 
L 1825 4091 
L 703 3866 
L 703 4441 
L 1819 4666 
L 2450 4666 
L 2450 531 
L 3481 531 
L 3481 0 
L 794 0 
L 794 531 
z
" transform="scale(0.015625)"/>
        <path id="DejaVuSans-20" transform="scale(0.015625)"/>
        <path id="DejaVuSans-28" d="M 1984 4856 
Q 1566 4138 1362 3434 
Q 1159 2731 1159 2009 
Q 1159 1288 1364 580 
Q 1569 -128 1984 -844 
L 1484 -844 
Q 1016 -109 783 600 
Q 550 1309 550 2009 
Q 550 2706 781 3412 
Q 1013 4119 1484 4856 
L 1984 4856 
z
" transform="scale(0.015625)"/>
        <path id="DejaVuSans-3a" d="M 750 794 
L 1409 794 
L 1409 0 
L 750 0 
L 750 794 
z
M 750 3309 
L 1409 3309 
L 1409 2516 
L 750 2516 
L 750 3309 
z
" transform="scale(0.015625)"/>
        <path id="DejaVuSans-29" d="M 513 4856 
L 1013 4856 
Q 1481 4119 1714 3412 
Q 1947 2706 1947 2009 
Q 1947 1309 1714 600 
Q 1481 -109 1013 -844 
L 513 -844 
Q 928 -128 1133 580 
Q 1338 1288 1338 2009 
Q 1338 2731 1133 3434 
Q 928 4138 513 4856 
z
" transform="scale(0.015625)"/>
       </defs>
       <use xlink:href="#DejaVuSans-32"/>
       <use xlink:href="#DejaVuSans-30" transform="translate(63.623047 0)"/>
       <use xlink:href="#DejaVuSans-32" transform="translate(127.246094 0)"/>
       <use xlink:href="#DejaVuSans-32" transform="translate(190.869141 0)"/>
       <use xlink:href="#DejaVuSans-2d" transform="translate(254.492188 0)"/>
       <use xlink:href="#DejaVuSans-30" transform="translate(290.576172 0)"/>
       <use xlink:href="#DejaVuSans-31" transform="translate(354.199219 0)"/>
       <use xlink:href="#DejaVuSans-2d" transform="translate(417.822266 0)"/>
       <use xlink:href="#DejaVuSans-30" transform="translate(453.90625 0)"/>
       <use xlink:href="#DejaVuSans-31" transform="translate(517.529297 0)"/>
       <use xlink:href="#DejaVuSans-20" transform="translate(581.152344 0)"/>
       <use xlink:href="#DejaVuSans-28" transform="translate(612.939453 0)"/>
       <use xlink:href="#DejaVuSans-31" transform="translate(651.953125 0)"/>
       <use xlink:href="#DejaVuSans-32" transform="translate(715.576172 0)"/>
       <use xlink:href="#DejaVuSans-3a" transform="translate(779.199219 0)"/>
       <use xlink:href="#DejaVuSans-30" transform="translate(812.890625 0)"/>
       <use xlink:href="#DejaVuSans-30" transform="translate(876.513672 0)"/>
       <use xlink:href="#DejaVuSans-29" transform="translate(940.136719 0)"/>
      </g>
     </g>
    </g>
    <g id="xtick_2">
     <g id="line2d_2">
      <g>
       <use xlink:href="#m05072a3a61" x="250.09571" y="484.397187" style="stroke: #000000; stroke-width: 0.8"/>
      </g>
     </g>
     <g id="text_2">
      <!-- 2022-03-16 (00:00) -->
      <g transform="translate(164.258447 546.93544) rotate(-30) scale(0.1 -0.1)">
       <defs>
        <path id="DejaVuSans-33" d="M 2597 2516 
Q 3050 2419 3304 2112 
Q 3559 1806 3559 1356 
Q 3559 666 3084 287 
Q 2609 -91 1734 -91 
Q 1441 -91 1130 -33 
Q 819 25 488 141 
L 488 750 
Q 750 597 1062 519 
Q 1375 441 1716 441 
Q 2309 441 2620 675 
Q 2931 909 2931 1356 
Q 2931 1769 2642 2001 
Q 2353 2234 1838 2234 
L 1294 2234 
L 1294 2753 
L 1863 2753 
Q 2328 2753 2575 2939 
Q 2822 3125 2822 3475 
Q 2822 3834 2567 4026 
Q 2313 4219 1838 4219 
Q 1578 4219 1281 4162 
Q 984 4106 628 3988 
L 628 4550 
Q 988 4650 1302 4700 
Q 1616 4750 1894 4750 
Q 2613 4750 3031 4423 
Q 3450 4097 3450 3541 
Q 3450 3153 3228 2886 
Q 3006 2619 2597 2516 
z
" transform="scale(0.015625)"/>
        <path id="DejaVuSans-36" d="M 2113 2584 
Q 1688 2584 1439 2293 
Q 1191 2003 1191 1497 
Q 1191 994 1439 701 
Q 1688 409 2113 409 
Q 2538 409 2786 701 
Q 3034 994 3034 1497 
Q 3034 2003 2786 2293 
Q 2538 2584 2113 2584 
z
M 3366 4563 
L 3366 3988 
Q 3128 4100 2886 4159 
Q 2644 4219 2406 4219 
Q 1781 4219 1451 3797 
Q 1122 3375 1075 2522 
Q 1259 2794 1537 2939 
Q 1816 3084 2150 3084 
Q 2853 3084 3261 2657 
Q 3669 2231 3669 1497 
Q 3669 778 3244 343 
Q 2819 -91 2113 -91 
Q 1303 -91 875 529 
Q 447 1150 447 2328 
Q 447 3434 972 4092 
Q 1497 4750 2381 4750 
Q 2619 4750 2861 4703 
Q 3103 4656 3366 4563 
z
" transform="scale(0.015625)"/>
       </defs>
       <use xlink:href="#DejaVuSans-32"/>
       <use xlink:href="#DejaVuSans-30" transform="translate(63.623047 0)"/>
       <use xlink:href="#DejaVuSans-32" transform="translate(127.246094 0)"/>
       <use xlink:href="#DejaVuSans-32" transform="translate(190.869141 0)"/>
       <use xlink:href="#DejaVuSans-2d" transform="translate(254.492188 0)"/>
       <use xlink:href="#DejaVuSans-30" transform="translate(290.576172 0)"/>
       <use xlink:href="#DejaVuSans-33" transform="translate(354.199219 0)"/>
       <use xlink:href="#DejaVuSans-2d" transform="translate(417.822266 0)"/>
       <use xlink:href="#DejaVuSans-31" transform="translate(453.90625 0)"/>
       <use xlink:href="#DejaVuSans-36" transform="translate(517.529297 0)"/>
       <use xlink:href="#DejaVuSans-20" transform="translate(581.152344 0)"/>
       <use xlink:href="#DejaVuSans-28" transform="translate(612.939453 0)"/>
       <use xlink:href="#DejaVuSans-30" transform="translate(651.953125 0)"/>
       <use xlink:href="#DejaVuSans-30" transform="translate(715.576172 0)"/>
       <use xlink:href="#DejaVuSans-3a" transform="translate(779.199219 0)"/>
       <use xlink:href="#DejaVuSans-30" transform="translate(812.890625 0)"/>
       <use xlink:href="#DejaVuSans-30" transform="translate(876.513672 0)"/>
       <use xlink:href="#DejaVuSans-29" transform="translate(940.136719 0)"/>
      </g>
     </g>
    </g>
    <g id="xtick_3">
     <g id="line2d_3">
      <g>
       <use xlink:href="#m05072a3a61" x="402.8887" y="484.397187" style="stroke: #000000; stroke-width: 0.8"/>
      </g>
     </g>
     <g id="text_3">
      <!-- 2022-05-30 (00:00) -->
      <g transform="translate(317.051438 546.93544) rotate(-30) scale(0.1 -0.1)">
       <defs>
        <path id="DejaVuSans-35" d="M 691 4666 
L 3169 4666 
L 3169 4134 
L 1269 4134 
L 1269 2991 
Q 1406 3038 1543 3061 
Q 1681 3084 1819 3084 
Q 2600 3084 3056 2656 
Q 3513 2228 3513 1497 
Q 3513 744 3044 326 
Q 2575 -91 1722 -91 
Q 1428 -91 1123 -41 
Q 819 9 494 109 
L 494 744 
Q 775 591 1075 516 
Q 1375 441 1709 441 
Q 2250 441 2565 725 
Q 2881 1009 2881 1497 
Q 2881 1984 2565 2268 
Q 2250 2553 1709 2553 
Q 1456 2553 1204 2497 
Q 953 2441 691 2322 
L 691 4666 
z
" transform="scale(0.015625)"/>
       </defs>
       <use xlink:href="#DejaVuSans-32"/>
       <use xlink:href="#DejaVuSans-30" transform="translate(63.623047 0)"/>
       <use xlink:href="#DejaVuSans-32" transform="translate(127.246094 0)"/>
       <use xlink:href="#DejaVuSans-32" transform="translate(190.869141 0)"/>
       <use xlink:href="#DejaVuSans-2d" transform="translate(254.492188 0)"/>
       <use xlink:href="#DejaVuSans-30" transform="translate(290.576172 0)"/>
       <use xlink:href="#DejaVuSans-35" transform="translate(354.199219 0)"/>
       <use xlink:href="#DejaVuSans-2d" transform="translate(417.822266 0)"/>
       <use xlink:href="#DejaVuSans-33" transform="translate(453.90625 0)"/>
       <use xlink:href="#DejaVuSans-30" transform="translate(517.529297 0)"/>
       <use xlink:href="#DejaVuSans-20" transform="translate(581.152344 0)"/>
       <use xlink:href="#DejaVuSans-28" transform="translate(612.939453 0)"/>
       <use xlink:href="#DejaVuSans-30" transform="translate(651.953125 0)"/>
       <use xlink:href="#DejaVuSans-30" transform="translate(715.576172 0)"/>
       <use xlink:href="#DejaVuSans-3a" transform="translate(779.199219 0)"/>
       <use xlink:href="#DejaVuSans-30" transform="translate(812.890625 0)"/>
       <use xlink:href="#DejaVuSans-30" transform="translate(876.513672 0)"/>
       <use xlink:href="#DejaVuSans-29" transform="translate(940.136719 0)"/>
      </g>
     </g>
    </g>
    <g id="xtick_4">
     <g id="line2d_4">
      <g>
       <use xlink:href="#m05072a3a61" x="555.68169" y="484.397187" style="stroke: #000000; stroke-width: 0.8"/>
      </g>
     </g>
     <g id="text_4">
      <!-- 2022-08-13 (00:00) -->
      <g transform="translate(469.844428 546.93544) rotate(-30) scale(0.1 -0.1)">
       <defs>
        <path id="DejaVuSans-38" d="M 2034 2216 
Q 1584 2216 1326 1975 
Q 1069 1734 1069 1313 
Q 1069 891 1326 650 
Q 1584 409 2034 409 
Q 2484 409 2743 651 
Q 3003 894 3003 1313 
Q 3003 1734 2745 1975 
Q 2488 2216 2034 2216 
z
M 1403 2484 
Q 997 2584 770 2862 
Q 544 3141 544 3541 
Q 544 4100 942 4425 
Q 1341 4750 2034 4750 
Q 2731 4750 3128 4425 
Q 3525 4100 3525 3541 
Q 3525 3141 3298 2862 
Q 3072 2584 2669 2484 
Q 3125 2378 3379 2068 
Q 3634 1759 3634 1313 
Q 3634 634 3220 271 
Q 2806 -91 2034 -91 
Q 1263 -91 848 271 
Q 434 634 434 1313 
Q 434 1759 690 2068 
Q 947 2378 1403 2484 
z
M 1172 3481 
Q 1172 3119 1398 2916 
Q 1625 2713 2034 2713 
Q 2441 2713 2670 2916 
Q 2900 3119 2900 3481 
Q 2900 3844 2670 4047 
Q 2441 4250 2034 4250 
Q 1625 4250 1398 4047 
Q 1172 3844 1172 3481 
z
" transform="scale(0.015625)"/>
       </defs>
       <use xlink:href="#DejaVuSans-32"/>
       <use xlink:href="#DejaVuSans-30" transform="translate(63.623047 0)"/>
       <use xlink:href="#DejaVuSans-32" transform="translate(127.246094 0)"/>
       <use xlink:href="#DejaVuSans-32" transform="translate(190.869141 0)"/>
       <use xlink:href="#DejaVuSans-2d" transform="translate(254.492188 0)"/>
       <use xlink:href="#DejaVuSans-30" transform="translate(290.576172 0)"/>
       <use xlink:href="#DejaVuSans-38" transform="translate(354.199219 0)"/>
       <use xlink:href="#DejaVuSans-2d" transform="translate(417.822266 0)"/>
       <use xlink:href="#DejaVuSans-31" transform="translate(453.90625 0)"/>
       <use xlink:href="#DejaVuSans-33" transform="translate(517.529297 0)"/>
       <use xlink:href="#DejaVuSans-20" transform="translate(581.152344 0)"/>
       <use xlink:href="#DejaVuSans-28" transform="translate(612.939453 0)"/>
       <use xlink:href="#DejaVuSans-30" transform="translate(651.953125 0)"/>
       <use xlink:href="#DejaVuSans-30" transform="translate(715.576172 0)"/>
       <use xlink:href="#DejaVuSans-3a" transform="translate(779.199219 0)"/>
       <use xlink:href="#DejaVuSans-30" transform="translate(812.890625 0)"/>
       <use xlink:href="#DejaVuSans-30" transform="translate(876.513672 0)"/>
       <use xlink:href="#DejaVuSans-29" transform="translate(940.136719 0)"/>
      </g>
     </g>
    </g>
    <g id="xtick_5">
     <g id="line2d_5">
      <g>
       <use xlink:href="#m05072a3a61" x="708.47468" y="484.397187" style="stroke: #000000; stroke-width: 0.8"/>
      </g>
     </g>
     <g id="text_5">
      <!-- 2022-10-27 (00:00) -->
      <g transform="translate(622.637418 546.93544) rotate(-30) scale(0.1 -0.1)">
       <defs>
        <path id="DejaVuSans-37" d="M 525 4666 
L 3525 4666 
L 3525 4397 
L 1831 0 
L 1172 0 
L 2766 4134 
L 525 4134 
L 525 4666 
z
" transform="scale(0.015625)"/>
       </defs>
       <use xlink:href="#DejaVuSans-32"/>
       <use xlink:href="#DejaVuSans-30" transform="translate(63.623047 0)"/>
       <use xlink:href="#DejaVuSans-32" transform="translate(127.246094 0)"/>
       <use xlink:href="#DejaVuSans-32" transform="translate(190.869141 0)"/>
       <use xlink:href="#DejaVuSans-2d" transform="translate(254.492188 0)"/>
       <use xlink:href="#DejaVuSans-31" transform="translate(290.576172 0)"/>
       <use xlink:href="#DejaVuSans-30" transform="translate(354.199219 0)"/>
       <use xlink:href="#DejaVuSans-2d" transform="translate(417.822266 0)"/>
       <use xlink:href="#DejaVuSans-32" transform="translate(453.90625 0)"/>
       <use xlink:href="#DejaVuSans-37" transform="translate(517.529297 0)"/>
       <use xlink:href="#DejaVuSans-20" transform="translate(581.152344 0)"/>
       <use xlink:href="#DejaVuSans-28" transform="translate(612.939453 0)"/>
       <use xlink:href="#DejaVuSans-30" transform="translate(651.953125 0)"/>
       <use xlink:href="#DejaVuSans-30" transform="translate(715.576172 0)"/>
       <use xlink:href="#DejaVuSans-3a" transform="translate(779.199219 0)"/>
       <use xlink:href="#DejaVuSans-30" transform="translate(812.890625 0)"/>
       <use xlink:href="#DejaVuSans-30" transform="translate(876.513672 0)"/>
       <use xlink:href="#DejaVuSans-29" transform="translate(940.136719 0)"/>
      </g>
     </g>
    </g>
    <g id="xtick_6">
     <g id="line2d_6">
      <g>
       <use xlink:href="#m05072a3a61" x="861.26767" y="484.397187" style="stroke: #000000; stroke-width: 0.8"/>
      </g>
     </g>
     <g id="text_6">
      <!-- 2023-01-10 (00:00) -->
      <g transform="translate(775.430408 546.93544) rotate(-30) scale(0.1 -0.1)">
       <use xlink:href="#DejaVuSans-32"/>
       <use xlink:href="#DejaVuSans-30" transform="translate(63.623047 0)"/>
       <use xlink:href="#DejaVuSans-32" transform="translate(127.246094 0)"/>
       <use xlink:href="#DejaVuSans-33" transform="translate(190.869141 0)"/>
       <use xlink:href="#DejaVuSans-2d" transform="translate(254.492188 0)"/>
       <use xlink:href="#DejaVuSans-30" transform="translate(290.576172 0)"/>
       <use xlink:href="#DejaVuSans-31" transform="translate(354.199219 0)"/>
       <use xlink:href="#DejaVuSans-2d" transform="translate(417.822266 0)"/>
       <use xlink:href="#DejaVuSans-31" transform="translate(453.90625 0)"/>
       <use xlink:href="#DejaVuSans-30" transform="translate(517.529297 0)"/>
       <use xlink:href="#DejaVuSans-20" transform="translate(581.152344 0)"/>
       <use xlink:href="#DejaVuSans-28" transform="translate(612.939453 0)"/>
       <use xlink:href="#DejaVuSans-30" transform="translate(651.953125 0)"/>
       <use xlink:href="#DejaVuSans-30" transform="translate(715.576172 0)"/>
       <use xlink:href="#DejaVuSans-3a" transform="translate(779.199219 0)"/>
       <use xlink:href="#DejaVuSans-30" transform="translate(812.890625 0)"/>
       <use xlink:href="#DejaVuSans-30" transform="translate(876.513672 0)"/>
       <use xlink:href="#DejaVuSans-29" transform="translate(940.136719 0)"/>
      </g>
     </g>
    </g>
    <g id="text_7">
     <!-- Forecast Date -->
     <g transform="translate(425.306875 564.894002) scale(0.16 -0.16)">
      <defs>
       <path id="DejaVuSans-46" d="M 628 4666 
L 3309 4666 
L 3309 4134 
L 1259 4134 
L 1259 2759 
L 3109 2759 
L 3109 2228 
L 1259 2228 
L 1259 0 
L 628 0 
L 628 4666 
z
" transform="scale(0.015625)"/>
       <path id="DejaVuSans-6f" d="M 1959 3097 
Q 1497 3097 1228 2736 
Q 959 2375 959 1747 
Q 959 1119 1226 758 
Q 1494 397 1959 397 
Q 2419 397 2687 759 
Q 2956 1122 2956 1747 
Q 2956 2369 2687 2733 
Q 2419 3097 1959 3097 
z
M 1959 3584 
Q 2709 3584 3137 3096 
Q 3566 2609 3566 1747 
Q 3566 888 3137 398 
Q 2709 -91 1959 -91 
Q 1206 -91 779 398 
Q 353 888 353 1747 
Q 353 2609 779 3096 
Q 1206 3584 1959 3584 
z
" transform="scale(0.015625)"/>
       <path id="DejaVuSans-72" d="M 2631 2963 
Q 2534 3019 2420 3045 
Q 2306 3072 2169 3072 
Q 1681 3072 1420 2755 
Q 1159 2438 1159 1844 
L 1159 0 
L 581 0 
L 581 3500 
L 1159 3500 
L 1159 2956 
Q 1341 3275 1631 3429 
Q 1922 3584 2338 3584 
Q 2397 3584 2469 3576 
Q 2541 3569 2628 3553 
L 2631 2963 
z
" transform="scale(0.015625)"/>
       <path id="DejaVuSans-65" d="M 3597 1894 
L 3597 1613 
L 953 1613 
Q 991 1019 1311 708 
Q 1631 397 2203 397 
Q 2534 397 2845 478 
Q 3156 559 3463 722 
L 3463 178 
Q 3153 47 2828 -22 
Q 2503 -91 2169 -91 
Q 1331 -91 842 396 
Q 353 884 353 1716 
Q 353 2575 817 3079 
Q 1281 3584 2069 3584 
Q 2775 3584 3186 3129 
Q 3597 2675 3597 1894 
z
M 3022 2063 
Q 3016 2534 2758 2815 
Q 2500 3097 2075 3097 
Q 1594 3097 1305 2825 
Q 1016 2553 972 2059 
L 3022 2063 
z
" transform="scale(0.015625)"/>
       <path id="DejaVuSans-63" d="M 3122 3366 
L 3122 2828 
Q 2878 2963 2633 3030 
Q 2388 3097 2138 3097 
Q 1578 3097 1268 2742 
Q 959 2388 959 1747 
Q 959 1106 1268 751 
Q 1578 397 2138 397 
Q 2388 397 2633 464 
Q 2878 531 3122 666 
L 3122 134 
Q 2881 22 2623 -34 
Q 2366 -91 2075 -91 
Q 1284 -91 818 406 
Q 353 903 353 1747 
Q 353 2603 823 3093 
Q 1294 3584 2113 3584 
Q 2378 3584 2631 3529 
Q 2884 3475 3122 3366 
z
" transform="scale(0.015625)"/>
       <path id="DejaVuSans-61" d="M 2194 1759 
Q 1497 1759 1228 1600 
Q 959 1441 959 1056 
Q 959 750 1161 570 
Q 1363 391 1709 391 
Q 2188 391 2477 730 
Q 2766 1069 2766 1631 
L 2766 1759 
L 2194 1759 
z
M 3341 1997 
L 3341 0 
L 2766 0 
L 2766 531 
Q 2569 213 2275 61 
Q 1981 -91 1556 -91 
Q 1019 -91 701 211 
Q 384 513 384 1019 
Q 384 1609 779 1909 
Q 1175 2209 1959 2209 
L 2766 2209 
L 2766 2266 
Q 2766 2663 2505 2880 
Q 2244 3097 1772 3097 
Q 1472 3097 1187 3025 
Q 903 2953 641 2809 
L 641 3341 
Q 956 3463 1253 3523 
Q 1550 3584 1831 3584 
Q 2591 3584 2966 3190 
Q 3341 2797 3341 1997 
z
" transform="scale(0.015625)"/>
       <path id="DejaVuSans-73" d="M 2834 3397 
L 2834 2853 
Q 2591 2978 2328 3040 
Q 2066 3103 1784 3103 
Q 1356 3103 1142 2972 
Q 928 2841 928 2578 
Q 928 2378 1081 2264 
Q 1234 2150 1697 2047 
L 1894 2003 
Q 2506 1872 2764 1633 
Q 3022 1394 3022 966 
Q 3022 478 2636 193 
Q 2250 -91 1575 -91 
Q 1294 -91 989 -36 
Q 684 19 347 128 
L 347 722 
Q 666 556 975 473 
Q 1284 391 1588 391 
Q 1994 391 2212 530 
Q 2431 669 2431 922 
Q 2431 1156 2273 1281 
Q 2116 1406 1581 1522 
L 1381 1569 
Q 847 1681 609 1914 
Q 372 2147 372 2553 
Q 372 3047 722 3315 
Q 1072 3584 1716 3584 
Q 2034 3584 2315 3537 
Q 2597 3491 2834 3397 
z
" transform="scale(0.015625)"/>
       <path id="DejaVuSans-74" d="M 1172 4494 
L 1172 3500 
L 2356 3500 
L 2356 3053 
L 1172 3053 
L 1172 1153 
Q 1172 725 1289 603 
Q 1406 481 1766 481 
L 2356 481 
L 2356 0 
L 1766 0 
Q 1100 0 847 248 
Q 594 497 594 1153 
L 594 3053 
L 172 3053 
L 172 3500 
L 594 3500 
L 594 4494 
L 1172 4494 
z
" transform="scale(0.015625)"/>
       <path id="DejaVuSans-44" d="M 1259 4147 
L 1259 519 
L 2022 519 
Q 2988 519 3436 956 
Q 3884 1394 3884 2338 
Q 3884 3275 3436 3711 
Q 2988 4147 2022 4147 
L 1259 4147 
z
M 628 4666 
L 1925 4666 
Q 3281 4666 3915 4102 
Q 4550 3538 4550 2338 
Q 4550 1131 3912 565 
Q 3275 0 1925 0 
L 628 0 
L 628 4666 
z
" transform="scale(0.015625)"/>
      </defs>
      <use xlink:href="#DejaVuSans-46"/>
      <use xlink:href="#DejaVuSans-6f" transform="translate(53.894531 0)"/>
      <use xlink:href="#DejaVuSans-72" transform="translate(115.076172 0)"/>
      <use xlink:href="#DejaVuSans-65" transform="translate(153.939453 0)"/>
      <use xlink:href="#DejaVuSans-63" transform="translate(215.462891 0)"/>
      <use xlink:href="#DejaVuSans-61" transform="translate(270.443359 0)"/>
      <use xlink:href="#DejaVuSans-73" transform="translate(331.722656 0)"/>
      <use xlink:href="#DejaVuSans-74" transform="translate(383.822266 0)"/>
      <use xlink:href="#DejaVuSans-20" transform="translate(423.03125 0)"/>
      <use xlink:href="#DejaVuSans-44" transform="translate(454.818359 0)"/>
      <use xlink:href="#DejaVuSans-61" transform="translate(531.820312 0)"/>
      <use xlink:href="#DejaVuSans-74" transform="translate(593.099609 0)"/>
      <use xlink:href="#DejaVuSans-65" transform="translate(632.308594 0)"/>
     </g>
    </g>
   </g>
   <g id="matplotlib.axis_2">
    <g id="ytick_1">
     <g id="line2d_7">
      <defs>
       <path id="m1ce2cbdf6a" d="M 0 0 
L -3.5 0 
" style="stroke: #000000; stroke-width: 0.8"/>
      </defs>
      <g>
       <use xlink:href="#m1ce2cbdf6a" x="62.313125" y="433.010547" style="stroke: #000000; stroke-width: 0.8"/>
      </g>
     </g>
     <g id="text_8">
      <!-- 0.001 -->
      <g transform="translate(26.685 436.809765) scale(0.1 -0.1)">
       <defs>
        <path id="DejaVuSans-2e" d="M 684 794 
L 1344 794 
L 1344 0 
L 684 0 
L 684 794 
z
" transform="scale(0.015625)"/>
       </defs>
       <use xlink:href="#DejaVuSans-30"/>
       <use xlink:href="#DejaVuSans-2e" transform="translate(63.623047 0)"/>
       <use xlink:href="#DejaVuSans-30" transform="translate(95.410156 0)"/>
       <use xlink:href="#DejaVuSans-30" transform="translate(159.033203 0)"/>
       <use xlink:href="#DejaVuSans-31" transform="translate(222.65625 0)"/>
      </g>
     </g>
    </g>
    <g id="ytick_2">
     <g id="line2d_8">
      <g>
       <use xlink:href="#m1ce2cbdf6a" x="62.313125" y="351.321429" style="stroke: #000000; stroke-width: 0.8"/>
      </g>
     </g>
     <g id="text_9">
      <!-- 0.002 -->
      <g transform="translate(26.685 355.120648) scale(0.1 -0.1)">
       <use xlink:href="#DejaVuSans-30"/>
       <use xlink:href="#DejaVuSans-2e" transform="translate(63.623047 0)"/>
       <use xlink:href="#DejaVuSans-30" transform="translate(95.410156 0)"/>
       <use xlink:href="#DejaVuSans-30" transform="translate(159.033203 0)"/>
       <use xlink:href="#DejaVuSans-32" transform="translate(222.65625 0)"/>
      </g>
     </g>
    </g>
    <g id="ytick_3">
     <g id="line2d_9">
      <g>
       <use xlink:href="#m1ce2cbdf6a" x="62.313125" y="269.632311" style="stroke: #000000; stroke-width: 0.8"/>
      </g>
     </g>
     <g id="text_10">
      <!-- 0.003 -->
      <g transform="translate(26.685 273.43153) scale(0.1 -0.1)">
       <use xlink:href="#DejaVuSans-30"/>
       <use xlink:href="#DejaVuSans-2e" transform="translate(63.623047 0)"/>
       <use xlink:href="#DejaVuSans-30" transform="translate(95.410156 0)"/>
       <use xlink:href="#DejaVuSans-30" transform="translate(159.033203 0)"/>
       <use xlink:href="#DejaVuSans-33" transform="translate(222.65625 0)"/>
      </g>
     </g>
    </g>
    <g id="ytick_4">
     <g id="line2d_10">
      <g>
       <use xlink:href="#m1ce2cbdf6a" x="62.313125" y="187.943193" style="stroke: #000000; stroke-width: 0.8"/>
      </g>
     </g>
     <g id="text_11">
      <!-- 0.004 -->
      <g transform="translate(26.685 191.742412) scale(0.1 -0.1)">
       <defs>
        <path id="DejaVuSans-34" d="M 2419 4116 
L 825 1625 
L 2419 1625 
L 2419 4116 
z
M 2253 4666 
L 3047 4666 
L 3047 1625 
L 3713 1625 
L 3713 1100 
L 3047 1100 
L 3047 0 
L 2419 0 
L 2419 1100 
L 313 1100 
L 313 1709 
L 2253 4666 
z
" transform="scale(0.015625)"/>
       </defs>
       <use xlink:href="#DejaVuSans-30"/>
       <use xlink:href="#DejaVuSans-2e" transform="translate(63.623047 0)"/>
       <use xlink:href="#DejaVuSans-30" transform="translate(95.410156 0)"/>
       <use xlink:href="#DejaVuSans-30" transform="translate(159.033203 0)"/>
       <use xlink:href="#DejaVuSans-34" transform="translate(222.65625 0)"/>
      </g>
     </g>
    </g>
    <g id="ytick_5">
     <g id="line2d_11">
      <g>
       <use xlink:href="#m1ce2cbdf6a" x="62.313125" y="106.254076" style="stroke: #000000; stroke-width: 0.8"/>
      </g>
     </g>
     <g id="text_12">
      <!-- 0.005 -->
      <g transform="translate(26.685 110.053294) scale(0.1 -0.1)">
       <use xlink:href="#DejaVuSans-30"/>
       <use xlink:href="#DejaVuSans-2e" transform="translate(63.623047 0)"/>
       <use xlink:href="#DejaVuSans-30" transform="translate(95.410156 0)"/>
       <use xlink:href="#DejaVuSans-30" transform="translate(159.033203 0)"/>
       <use xlink:href="#DejaVuSans-35" transform="translate(222.65625 0)"/>
      </g>
     </g>
    </g>
    <g id="text_13">
     <!-- Root Mean Squared Error (RMSE) -->
     <g transform="translate(19.3575 394.303437) rotate(-90) scale(0.16 -0.16)">
      <defs>
       <path id="DejaVuSans-52" d="M 2841 2188 
Q 3044 2119 3236 1894 
Q 3428 1669 3622 1275 
L 4263 0 
L 3584 0 
L 2988 1197 
Q 2756 1666 2539 1819 
Q 2322 1972 1947 1972 
L 1259 1972 
L 1259 0 
L 628 0 
L 628 4666 
L 2053 4666 
Q 2853 4666 3247 4331 
Q 3641 3997 3641 3322 
Q 3641 2881 3436 2590 
Q 3231 2300 2841 2188 
z
M 1259 4147 
L 1259 2491 
L 2053 2491 
Q 2509 2491 2742 2702 
Q 2975 2913 2975 3322 
Q 2975 3731 2742 3939 
Q 2509 4147 2053 4147 
L 1259 4147 
z
" transform="scale(0.015625)"/>
       <path id="DejaVuSans-4d" d="M 628 4666 
L 1569 4666 
L 2759 1491 
L 3956 4666 
L 4897 4666 
L 4897 0 
L 4281 0 
L 4281 4097 
L 3078 897 
L 2444 897 
L 1241 4097 
L 1241 0 
L 628 0 
L 628 4666 
z
" transform="scale(0.015625)"/>
       <path id="DejaVuSans-6e" d="M 3513 2113 
L 3513 0 
L 2938 0 
L 2938 2094 
Q 2938 2591 2744 2837 
Q 2550 3084 2163 3084 
Q 1697 3084 1428 2787 
Q 1159 2491 1159 1978 
L 1159 0 
L 581 0 
L 581 3500 
L 1159 3500 
L 1159 2956 
Q 1366 3272 1645 3428 
Q 1925 3584 2291 3584 
Q 2894 3584 3203 3211 
Q 3513 2838 3513 2113 
z
" transform="scale(0.015625)"/>
       <path id="DejaVuSans-53" d="M 3425 4513 
L 3425 3897 
Q 3066 4069 2747 4153 
Q 2428 4238 2131 4238 
Q 1616 4238 1336 4038 
Q 1056 3838 1056 3469 
Q 1056 3159 1242 3001 
Q 1428 2844 1947 2747 
L 2328 2669 
Q 3034 2534 3370 2195 
Q 3706 1856 3706 1288 
Q 3706 609 3251 259 
Q 2797 -91 1919 -91 
Q 1588 -91 1214 -16 
Q 841 59 441 206 
L 441 856 
Q 825 641 1194 531 
Q 1563 422 1919 422 
Q 2459 422 2753 634 
Q 3047 847 3047 1241 
Q 3047 1584 2836 1778 
Q 2625 1972 2144 2069 
L 1759 2144 
Q 1053 2284 737 2584 
Q 422 2884 422 3419 
Q 422 4038 858 4394 
Q 1294 4750 2059 4750 
Q 2388 4750 2728 4690 
Q 3069 4631 3425 4513 
z
" transform="scale(0.015625)"/>
       <path id="DejaVuSans-71" d="M 947 1747 
Q 947 1113 1208 752 
Q 1469 391 1925 391 
Q 2381 391 2643 752 
Q 2906 1113 2906 1747 
Q 2906 2381 2643 2742 
Q 2381 3103 1925 3103 
Q 1469 3103 1208 2742 
Q 947 2381 947 1747 
z
M 2906 525 
Q 2725 213 2448 61 
Q 2172 -91 1784 -91 
Q 1150 -91 751 415 
Q 353 922 353 1747 
Q 353 2572 751 3078 
Q 1150 3584 1784 3584 
Q 2172 3584 2448 3432 
Q 2725 3281 2906 2969 
L 2906 3500 
L 3481 3500 
L 3481 -1331 
L 2906 -1331 
L 2906 525 
z
" transform="scale(0.015625)"/>
       <path id="DejaVuSans-75" d="M 544 1381 
L 544 3500 
L 1119 3500 
L 1119 1403 
Q 1119 906 1312 657 
Q 1506 409 1894 409 
Q 2359 409 2629 706 
Q 2900 1003 2900 1516 
L 2900 3500 
L 3475 3500 
L 3475 0 
L 2900 0 
L 2900 538 
Q 2691 219 2414 64 
Q 2138 -91 1772 -91 
Q 1169 -91 856 284 
Q 544 659 544 1381 
z
M 1991 3584 
L 1991 3584 
z
" transform="scale(0.015625)"/>
       <path id="DejaVuSans-64" d="M 2906 2969 
L 2906 4863 
L 3481 4863 
L 3481 0 
L 2906 0 
L 2906 525 
Q 2725 213 2448 61 
Q 2172 -91 1784 -91 
Q 1150 -91 751 415 
Q 353 922 353 1747 
Q 353 2572 751 3078 
Q 1150 3584 1784 3584 
Q 2172 3584 2448 3432 
Q 2725 3281 2906 2969 
z
M 947 1747 
Q 947 1113 1208 752 
Q 1469 391 1925 391 
Q 2381 391 2643 752 
Q 2906 1113 2906 1747 
Q 2906 2381 2643 2742 
Q 2381 3103 1925 3103 
Q 1469 3103 1208 2742 
Q 947 2381 947 1747 
z
" transform="scale(0.015625)"/>
       <path id="DejaVuSans-45" d="M 628 4666 
L 3578 4666 
L 3578 4134 
L 1259 4134 
L 1259 2753 
L 3481 2753 
L 3481 2222 
L 1259 2222 
L 1259 531 
L 3634 531 
L 3634 0 
L 628 0 
L 628 4666 
z
" transform="scale(0.015625)"/>
      </defs>
      <use xlink:href="#DejaVuSans-52"/>
      <use xlink:href="#DejaVuSans-6f" transform="translate(64.982422 0)"/>
      <use xlink:href="#DejaVuSans-6f" transform="translate(126.164062 0)"/>
      <use xlink:href="#DejaVuSans-74" transform="translate(187.345703 0)"/>
      <use xlink:href="#DejaVuSans-20" transform="translate(226.554688 0)"/>
      <use xlink:href="#DejaVuSans-4d" transform="translate(258.341797 0)"/>
      <use xlink:href="#DejaVuSans-65" transform="translate(344.621094 0)"/>
      <use xlink:href="#DejaVuSans-61" transform="translate(406.144531 0)"/>
      <use xlink:href="#DejaVuSans-6e" transform="translate(467.423828 0)"/>
      <use xlink:href="#DejaVuSans-20" transform="translate(530.802734 0)"/>
      <use xlink:href="#DejaVuSans-53" transform="translate(562.589844 0)"/>
      <use xlink:href="#DejaVuSans-71" transform="translate(626.066406 0)"/>
      <use xlink:href="#DejaVuSans-75" transform="translate(689.542969 0)"/>
      <use xlink:href="#DejaVuSans-61" transform="translate(752.921875 0)"/>
      <use xlink:href="#DejaVuSans-72" transform="translate(814.201172 0)"/>
      <use xlink:href="#DejaVuSans-65" transform="translate(853.064453 0)"/>
      <use xlink:href="#DejaVuSans-64" transform="translate(914.587891 0)"/>
      <use xlink:href="#DejaVuSans-20" transform="translate(978.064453 0)"/>
      <use xlink:href="#DejaVuSans-45" transform="translate(1009.851562 0)"/>
      <use xlink:href="#DejaVuSans-72" transform="translate(1073.035156 0)"/>
      <use xlink:href="#DejaVuSans-72" transform="translate(1112.398438 0)"/>
      <use xlink:href="#DejaVuSans-6f" transform="translate(1151.261719 0)"/>
      <use xlink:href="#DejaVuSans-72" transform="translate(1212.443359 0)"/>
      <use xlink:href="#DejaVuSans-20" transform="translate(1253.556641 0)"/>
      <use xlink:href="#DejaVuSans-28" transform="translate(1285.34375 0)"/>
      <use xlink:href="#DejaVuSans-52" transform="translate(1324.357422 0)"/>
      <use xlink:href="#DejaVuSans-4d" transform="translate(1393.839844 0)"/>
      <use xlink:href="#DejaVuSans-53" transform="translate(1480.119141 0)"/>
      <use xlink:href="#DejaVuSans-45" transform="translate(1543.595703 0)"/>
      <use xlink:href="#DejaVuSans-29" transform="translate(1606.779297 0)"/>
     </g>
    </g>
   </g>
   <g id="line2d_12">
    <path d="M 100.35858 353.169758 
L 103.414439 384.261168 
L 106.470299 383.646688 
L 109.526159 379.086147 
L 112.582019 376.407361 
L 115.637879 382.079776 
L 118.693738 381.040053 
L 121.749598 375.15611 
L 124.805458 385.355116 
L 127.861318 385.677938 
L 130.917178 375.690402 
L 133.973037 378.557218 
L 137.028897 375.400323 
L 140.084757 379.766464 
L 143.140617 378.387714 
L 146.196477 380.6897 
L 149.252336 381.987825 
L 152.308196 392.19036 
L 155.364056 376.072119 
L 158.419916 376.953769 
L 161.475776 381.331398 
L 164.531635 380.939135 
L 167.587495 376.580659 
L 170.643355 373.655272 
L 173.699215 378.448178 
L 176.755075 387.040141 
L 179.810934 392.658702 
L 182.866794 385.19594 
L 185.922654 376.550047 
L 188.978514 375.553717 
L 192.034374 370.690534 
L 195.090233 373.922585 
L 198.146093 373.186493 
L 201.201953 370.958218 
L 204.257813 377.08471 
L 207.313673 381.949643 
L 210.369532 384.607137 
L 213.425392 392.843241 
L 216.481252 389.479754 
L 219.537112 384.911567 
L 222.592972 385.677301 
L 225.648831 379.593479 
L 228.704691 379.487625 
L 231.760551 380.75761 
L 234.816411 374.517808 
L 237.872271 385.492125 
L 240.92813 384.525837 
L 243.98399 372.278833 
L 247.03985 367.198207 
L 250.09571 383.130141 
L 253.15157 385.777431 
L 256.207429 374.647684 
L 259.263289 366.825468 
L 262.319149 369.431561 
L 265.375009 377.219627 
L 268.430869 381.967398 
L 271.486729 367.403896 
L 274.542588 370.507659 
L 277.598448 374.323939 
L 280.654308 376.379506 
L 283.710168 359.829517 
L 286.766028 375.575694 
L 289.821887 376.646153 
L 292.877747 383.660668 
L 295.933607 368.143744 
L 298.989467 363.287047 
L 302.045327 376.442756 
L 305.101186 380.519455 
L 308.157046 377.719903 
L 311.212906 380.614354 
L 314.268766 374.964514 
L 317.324626 379.009583 
L 320.380485 378.095152 
L 323.436345 382.079833 
L 326.492205 373.800697 
L 329.548065 383.01938 
L 332.603925 387.163379 
L 335.659784 383.542574 
L 338.715644 373.492178 
L 341.771504 377.100668 
L 344.827364 376.086308 
L 347.883224 388.979022 
L 350.939083 380.087612 
L 353.994943 376.672172 
L 357.050803 372.994983 
L 360.106663 376.650442 
L 363.162523 379.723574 
L 366.218382 382.278143 
L 369.274242 376.830825 
L 372.330102 378.291826 
L 375.385962 371.34351 
L 378.441822 366.653149 
L 381.497681 370.17915 
L 384.553541 371.345402 
L 387.609401 373.985674 
L 390.665261 378.159753 
L 393.721121 372.660398 
L 396.77698 384.702968 
L 399.83284 382.641115 
L 402.8887 377.521983 
L 405.94456 374.862255 
L 409.00042 379.181141 
L 412.056279 385.879452 
L 415.112139 385.930596 
L 418.167999 374.753728 
L 421.223859 384.124264 
L 424.279719 371.097223 
L 427.335578 375.438496 
L 430.391438 376.579603 
L 433.447298 379.421731 
L 436.503158 372.351736 
L 439.559018 370.985596 
L 442.614877 361.498403 
L 445.670737 363.893244 
L 448.726597 367.070689 
L 451.782457 380.338672 
L 454.838317 372.034011 
L 457.894176 377.574259 
L 460.950036 379.447408 
L 464.005896 380.142227 
L 467.061756 383.742415 
L 470.117616 382.617902 
L 473.173475 379.227197 
L 476.229335 379.537162 
L 479.285195 383.450452 
L 482.341055 385.284658 
L 485.396915 373.488498 
L 488.452775 374.04006 
L 491.508634 372.295247 
L 494.564494 378.39244 
L 497.620354 376.046899 
L 500.676214 371.075988 
L 503.732074 366.457522 
L 506.787933 380.504277 
L 509.843793 379.247586 
L 512.899653 382.002242 
L 515.955513 381.14819 
L 519.011373 381.068621 
L 522.067232 377.248927 
L 525.123092 374.55735 
L 528.178952 367.198702 
L 531.234812 377.288469 
L 534.290672 370.092183 
L 537.346531 380.407581 
L 540.402391 380.770534 
L 543.458251 374.338547 
L 546.514111 370.458265 
L 549.569971 374.894208 
L 552.62583 378.066699 
L 555.68169 376.890081 
L 558.73755 375.951287 
L 561.79341 375.508954 
L 564.84927 366.93679 
L 567.905129 368.461136 
L 570.960989 363.942191 
L 574.016849 374.910156 
L 577.072709 372.898686 
L 580.128569 373.272377 
L 583.184428 381.9827 
L 586.240288 385.603961 
L 589.296148 369.085487 
L 592.352008 369.572763 
L 595.407868 374.856054 
L 598.463727 374.771436 
L 601.519587 369.786479 
L 604.575447 377.436442 
L 607.631307 370.948232 
L 610.687167 376.571539 
L 613.743026 383.610275 
L 616.798886 380.283097 
L 619.854746 375.074334 
L 622.910606 375.009734 
L 625.966466 375.353173 
L 629.022325 383.354374 
L 632.078185 373.93084 
L 635.134045 371.722991 
L 638.189905 371.222259 
L 641.245765 365.447793 
L 644.301624 371.922461 
L 647.357484 367.066172 
L 650.413344 369.089558 
L 653.469204 371.477504 
L 656.525064 375.501061 
L 659.580923 381.806853 
L 662.636783 360.802566 
L 665.692643 369.046183 
L 668.748503 373.821781 
L 671.804363 378.381456 
L 674.860222 384.404311 
L 677.916082 371.948565 
L 680.971942 377.817645 
L 684.027802 377.414341 
L 687.083662 375.732845 
L 690.139521 372.772624 
L 693.195381 370.884126 
L 696.251241 380.173781 
L 699.307101 375.59073 
L 702.362961 377.619098 
L 705.418821 379.108001 
L 708.47468 383.585416 
L 711.53054 371.307182 
L 714.5864 373.956298 
L 717.64226 369.268838 
L 720.69812 359.617238 
L 723.753979 380.621296 
L 726.809839 381.98676 
L 729.865699 380.649331 
L 732.921559 390.769568 
L 735.977419 378.049657 
L 739.033278 377.878308 
L 742.089138 379.342314 
L 745.144998 372.224798 
L 748.200858 374.579289 
L 751.256718 381.973418 
L 754.312577 377.942462 
L 757.368437 385.582402 
L 760.424297 384.237898 
L 763.480157 376.98596 
L 766.536017 381.553101 
L 769.591876 384.55702 
L 772.647736 385.915571 
L 775.703596 381.790791 
L 778.759456 367.675859 
L 781.815316 374.223211 
L 784.871175 381.573557 
L 787.927035 390.704073 
L 790.982895 386.873642 
L 794.038755 386.056897 
L 797.094615 386.523641 
L 800.150474 384.27744 
L 803.206334 390.206022 
L 806.262194 384.046217 
L 809.318054 378.221396 
L 812.373914 390.856164 
L 815.429773 383.912907 
L 818.485633 390.802186 
L 821.541493 393.184465 
L 824.597353 371.404287 
L 827.653213 370.779175 
L 830.709072 382.40954 
L 833.764932 385.714751 
L 836.820792 383.336049 
L 839.876652 382.032522 
L 842.932512 391.012098 
L 845.988371 390.321453 
L 849.044231 385.758962 
L 852.100091 377.720816 
L 855.155951 385.561937 
L 858.211811 392.303243 
L 861.26767 392.96297 
L 861.26767 392.96297 
" clip-path="url(#p08df4bb1a1)" style="fill: none; stroke: #0000ff; stroke-width: 2; stroke-linecap: square"/>
   </g>
   <g id="line2d_13">
    <path d="M 100.35858 277.232308 
L 103.414439 326.701655 
L 106.470299 235.587829 
L 109.526159 291.173256 
L 112.582019 206.67259 
L 115.637879 281.140273 
L 118.693738 257.968269 
L 121.749598 181.854163 
L 124.805458 259.822408 
L 127.861318 311.598924 
L 130.917178 312.077841 
L 133.973037 289.100619 
L 137.028897 273.136979 
L 140.084757 222.152311 
L 143.140617 279.799743 
L 146.196477 208.762421 
L 149.252336 226.259641 
L 152.308196 300.332454 
L 155.364056 263.296285 
L 158.419916 138.228951 
L 161.475776 152.907504 
L 164.531635 275.463872 
L 167.587495 285.550187 
L 170.643355 61.037187 
L 173.699215 238.143606 
L 176.755075 259.818299 
L 179.810934 315.028353 
L 182.866794 241.404101 
L 185.922654 259.516761 
L 188.978514 322.252997 
L 192.034374 154.804608 
L 195.090233 224.195087 
L 198.146093 270.589914 
L 201.201953 237.836969 
L 204.257813 300.534767 
L 207.313673 263.474995 
L 210.369532 256.282322 
L 213.425392 334.582937 
L 216.481252 295.115323 
L 219.537112 376.279396 
L 222.592972 350.675321 
L 225.648831 258.523151 
L 228.704691 319.485722 
L 231.760551 244.381012 
L 234.816411 262.097339 
L 237.872271 306.445966 
L 240.92813 309.518052 
L 243.98399 299.732306 
L 247.03985 169.200033 
L 250.09571 150.721909 
L 253.15157 357.619263 
L 256.207429 261.924107 
L 259.263289 331.11583 
L 262.319149 367.483807 
L 265.375009 342.913274 
L 268.430869 322.318444 
L 271.486729 214.244231 
L 274.542588 255.04566 
L 277.598448 204.439845 
L 280.654308 311.308778 
L 283.710168 299.285133 
L 286.766028 315.86543 
L 289.821887 221.226298 
L 292.877747 243.658015 
L 295.933607 272.242082 
L 298.989467 283.042968 
L 302.045327 242.002005 
L 305.101186 286.947928 
L 308.157046 334.900889 
L 311.212906 285.624573 
L 314.268766 177.996201 
L 317.324626 306.725347 
L 320.380485 311.19641 
L 323.436345 350.516202 
L 326.492205 275.219773 
L 329.548065 296.113688 
L 332.603925 349.911089 
L 335.659784 298.052065 
L 338.715644 367.378153 
L 341.771504 281.519868 
L 344.827364 346.263999 
L 347.883224 371.445807 
L 350.939083 312.004064 
L 353.994943 374.077548 
L 357.050803 329.967742 
L 360.106663 313.613665 
L 363.162523 339.130136 
L 366.218382 381.636265 
L 369.274242 390.931064 
L 372.330102 318.935253 
L 375.385962 294.405773 
L 378.441822 335.723455 
L 381.497681 332.572855 
L 384.553541 279.657475 
L 387.609401 313.528894 
L 390.665261 355.285827 
L 393.721121 358.901829 
L 396.77698 350.884975 
L 399.83284 339.585088 
L 402.8887 335.192253 
L 405.94456 302.008016 
L 409.00042 315.605126 
L 412.056279 391.324753 
L 415.112139 384.727922 
L 418.167999 310.497948 
L 421.223859 327.698422 
L 424.279719 359.292114 
L 427.335578 341.017425 
L 430.391438 299.779018 
L 433.447298 370.713624 
L 439.559018 287.885144 
L 442.614877 315.89396 
L 445.670737 334.190655 
L 448.726597 300.709787 
L 451.782457 366.195506 
L 454.838317 308.65216 
L 457.894176 346.546099 
L 460.950036 372.211133 
L 464.005896 377.655112 
L 467.061756 402.864822 
L 470.117616 333.959546 
L 473.173475 358.545638 
L 476.229335 354.553425 
L 479.285195 406.864348 
L 482.341055 376.817597 
L 485.396915 367.906007 
L 488.452775 322.323656 
L 491.508634 338.794647 
L 494.564494 364.451054 
L 497.620354 370.073648 
L 500.676214 341.103984 
L 503.732074 327.313691 
L 506.787933 366.968848 
L 509.843793 325.613498 
L 512.899653 356.226771 
L 515.955513 375.255925 
L 519.011373 335.002911 
L 522.067232 314.423564 
L 525.123092 337.986289 
L 528.178952 354.976975 
L 531.234812 328.070809 
L 534.290672 267.183975 
L 537.346531 288.273946 
L 540.402391 369.22862 
L 543.458251 328.572493 
L 546.514111 356.155361 
L 549.569971 329.20954 
L 552.62583 380.572073 
L 555.68169 381.342467 
L 558.73755 370.94924 
L 561.79341 283.990341 
L 564.84927 282.37218 
L 567.905129 356.864978 
L 570.960989 403.479359 
L 574.016849 362.760001 
L 577.072709 372.070434 
L 580.128569 354.633992 
L 583.184428 331.132891 
L 586.240288 379.016316 
L 589.296148 357.376295 
L 592.352008 257.113123 
L 595.407868 264.06259 
L 598.463727 271.294671 
L 601.519587 377.850188 
L 607.631307 277.454268 
L 610.687167 271.14122 
L 613.743026 357.417948 
L 616.798886 331.579303 
L 619.854746 271.489567 
L 622.910606 276.878902 
L 625.966466 335.277975 
L 629.022325 332.231565 
L 632.078185 365.890724 
L 635.134045 304.288691 
L 638.189905 333.212926 
L 641.245765 306.478281 
L 644.301624 253.17408 
L 647.357484 318.410498 
L 650.413344 260.371526 
L 653.469204 294.295136 
L 656.525064 363.788236 
L 659.580923 318.417631 
L 662.636783 339.419426 
L 665.692643 335.037717 
L 668.748503 340.043691 
L 671.804363 310.49209 
L 674.860222 318.920836 
L 677.916082 228.856538 
L 680.971942 343.079659 
L 684.027802 285.94032 
L 687.083662 151.33229 
L 690.139521 207.165144 
L 693.195381 322.7318 
L 696.251241 266.462918 
L 699.307101 271.372386 
L 702.362961 354.24405 
L 705.418821 316.069949 
L 708.47468 236.650918 
L 711.53054 251.211548 
L 714.5864 253.454716 
L 717.64226 248.538173 
L 720.69812 261.206816 
L 723.753979 214.197404 
L 726.809839 256.090794 
L 729.865699 341.285623 
L 732.921559 276.768093 
L 735.977419 311.908832 
L 742.089138 132.903313 
L 745.144998 197.360911 
L 748.200858 246.746401 
L 751.256718 281.287714 
L 754.312577 335.840369 
L 757.368437 270.152232 
L 760.424297 296.363512 
L 763.480157 249.637266 
L 766.536017 362.730939 
L 769.591876 221.539534 
L 772.647736 257.855768 
L 775.703596 311.48357 
L 778.759456 265.296001 
L 781.815316 331.149723 
L 784.871175 228.434148 
L 787.927035 299.020568 
L 790.982895 313.705226 
L 794.038755 181.172192 
L 797.094615 211.15807 
L 800.150474 302.417131 
L 803.206334 277.422296 
L 806.262194 334.537917 
L 809.318054 342.303558 
L 812.373914 330.54657 
L 815.429773 169.429981 
L 818.485633 265.057703 
L 821.541493 348.261603 
L 824.597353 186.893022 
L 827.653213 256.10232 
L 830.709072 143.509551 
L 833.764932 235.758988 
L 836.820792 219.140727 
L 839.876652 199.02645 
L 842.932512 313.456201 
L 845.988371 268.207351 
L 849.044231 270.342696 
L 852.100091 189.887489 
L 855.155951 122.004399 
L 858.211811 256.623822 
L 861.26767 278.53223 
L 861.26767 278.53223 
" clip-path="url(#p08df4bb1a1)" style="fill: none; stroke: #ffa500; stroke-width: 2; stroke-linecap: square"/>
   </g>
   <g id="line2d_14">
    <path d="M 100.35858 440.298375 
L 103.414439 433.464372 
L 106.470299 435.025265 
L 109.526159 430.417459 
L 112.582019 435.756892 
L 115.637879 429.119505 
L 118.693738 430.51485 
L 121.749598 428.192779 
L 124.805458 438.869124 
L 127.861318 431.523304 
L 130.917178 432.282154 
L 133.973037 431.438819 
L 137.028897 428.0226 
L 140.084757 433.819613 
L 143.140617 435.046334 
L 146.196477 434.42271 
L 149.252336 434.084948 
L 152.308196 434.290951 
L 155.364056 432.841258 
L 158.419916 434.720331 
L 161.475776 436.134743 
L 164.531635 432.188919 
L 167.587495 434.570046 
L 170.643355 435.363526 
L 173.699215 437.237392 
L 176.755075 439.879951 
L 179.810934 438.618044 
L 182.866794 433.677384 
L 185.922654 429.213919 
L 188.978514 430.925514 
L 192.034374 434.676852 
L 195.090233 432.408188 
L 198.146093 429.33652 
L 201.201953 427.424629 
L 204.257813 431.883253 
L 207.313673 432.911745 
L 210.369532 436.299268 
L 213.425392 434.697288 
L 216.481252 434.271617 
L 219.537112 433.389425 
L 222.592972 432.722593 
L 225.648831 433.065624 
L 228.704691 432.288506 
L 231.760551 430.106297 
L 234.816411 430.40755 
L 237.872271 431.945276 
L 240.92813 435.43387 
L 243.98399 418.879207 
L 247.03985 428.139171 
L 250.09571 433.947436 
L 253.15157 430.581685 
L 256.207429 426.431076 
L 259.263289 425.786212 
L 262.319149 428.834856 
L 265.375009 433.234719 
L 268.430869 428.8598 
L 271.486729 426.83787 
L 274.542588 431.102426 
L 277.598448 428.215041 
L 280.654308 425.549531 
L 283.710168 428.014183 
L 286.766028 429.975279 
L 289.821887 429.901844 
L 292.877747 429.372734 
L 295.933607 424.264177 
L 298.989467 427.040059 
L 302.045327 430.134094 
L 305.101186 429.274811 
L 308.157046 433.505217 
L 311.212906 429.519119 
L 314.268766 426.137915 
L 317.324626 428.333467 
L 320.380485 430.073849 
L 323.436345 426.970495 
L 326.492205 429.023304 
L 329.548065 430.291558 
L 332.603925 430.3185 
L 335.659784 428.450239 
L 338.715644 428.721327 
L 341.771504 425.898638 
L 344.827364 431.968937 
L 347.883224 427.335807 
L 350.939083 429.22284 
L 353.994943 429.26997 
L 357.050803 429.088484 
L 360.106663 429.208765 
L 363.162523 427.714936 
L 366.218382 427.45448 
L 369.274242 428.980053 
L 372.330102 427.523607 
L 375.385962 421.029463 
L 378.441822 424.052126 
L 381.497681 421.529882 
L 384.553541 424.341968 
L 387.609401 428.731027 
L 390.665261 426.111507 
L 393.721121 432.911127 
L 396.77698 429.322674 
L 399.83284 428.244807 
L 402.8887 424.310918 
L 405.94456 426.270416 
L 409.00042 427.297292 
L 412.056279 430.344775 
L 415.112139 426.590499 
L 418.167999 426.949316 
L 421.223859 422.364344 
L 424.279719 428.129186 
L 427.335578 427.624146 
L 430.391438 429.894693 
L 433.447298 426.58234 
L 436.503158 425.686263 
L 439.559018 425.11861 
L 442.614877 419.312581 
L 445.670737 421.057641 
L 448.726597 425.279042 
L 451.782457 424.735905 
L 454.838317 425.57128 
L 457.894176 421.763121 
L 460.950036 425.475382 
L 464.005896 427.934129 
L 467.061756 431.290703 
L 470.117616 426.776313 
L 473.173475 426.081826 
L 476.229335 426.224912 
L 479.285195 427.967937 
L 482.341055 422.992242 
L 485.396915 422.794542 
L 488.452775 422.916696 
L 491.508634 425.745529 
L 494.564494 425.234859 
L 497.620354 428.807629 
L 500.676214 424.181327 
L 503.732074 425.493403 
L 506.787933 427.812023 
L 509.843793 429.077691 
L 512.899653 427.501316 
L 515.955513 428.704362 
L 519.011373 425.667082 
L 522.067232 426.157877 
L 525.123092 423.201421 
L 528.178952 426.551081 
L 531.234812 420.332685 
L 534.290672 426.654292 
L 537.346531 427.105192 
L 540.402391 427.101379 
L 543.458251 421.209742 
L 546.514111 423.826771 
L 549.569971 424.313248 
L 552.62583 427.500261 
L 555.68169 426.58564 
L 558.73755 427.663887 
L 561.79341 424.866066 
L 564.84927 423.082833 
L 567.905129 418.503339 
L 570.960989 422.654937 
L 574.016849 425.808323 
L 577.072709 425.347722 
L 580.128569 428.120637 
L 583.184428 432.255897 
L 586.240288 424.766098 
L 589.296148 424.799621 
L 592.352008 426.1644 
L 595.407868 429.946597 
L 598.463727 422.162754 
L 601.519587 427.419408 
L 604.575447 425.123907 
L 607.631307 426.149575 
L 610.687167 431.153047 
L 613.743026 430.854523 
L 616.798886 428.994822 
L 619.854746 428.749638 
L 622.910606 427.034496 
L 625.966466 430.234727 
L 629.022325 430.823226 
L 632.078185 427.743048 
L 635.134045 425.134482 
L 638.189905 425.717427 
L 641.245765 422.636022 
L 644.301624 428.484874 
L 647.357484 424.319715 
L 650.413344 428.971247 
L 653.469204 423.643754 
L 656.525064 432.084729 
L 659.580923 424.99037 
L 662.636783 422.976228 
L 665.692643 426.390507 
L 668.748503 427.410954 
L 671.804363 426.504882 
L 674.860222 430.274193 
L 677.916082 427.820201 
L 680.971942 430.438324 
L 684.027802 429.775515 
L 687.083662 432.24284 
L 690.139521 424.527876 
L 693.195381 432.065291 
L 696.251241 428.9838 
L 699.307101 432.476307 
L 702.362961 430.524978 
L 705.418821 430.090329 
L 708.47468 430.607913 
L 711.53054 430.07014 
L 714.5864 427.472549 
L 717.64226 427.416983 
L 720.69812 426.057595 
L 723.753979 436.319096 
L 726.809839 427.817091 
L 729.865699 440.138234 
L 732.921559 435.717174 
L 735.977419 428.994222 
L 739.033278 430.286385 
L 742.089138 430.988146 
L 745.144998 427.044672 
L 748.200858 435.504562 
L 751.256718 432.629073 
L 754.312577 434.283562 
L 757.368437 437.216347 
L 760.424297 436.732152 
L 763.480157 431.447416 
L 766.536017 434.699561 
L 769.591876 436.801446 
L 772.647736 433.775783 
L 778.759456 428.551595 
L 781.815316 437.430367 
L 784.871175 433.101818 
L 787.927035 436.692981 
L 790.982895 441.09884 
L 794.038755 432.949223 
L 797.094615 434.867496 
L 800.150474 433.949823 
L 803.206334 436.81786 
L 806.262194 433.460093 
L 809.318054 437.646583 
L 812.373914 435.00101 
L 815.429773 438.704199 
L 818.485633 439.617559 
L 821.541493 439.455302 
L 824.597353 430.639809 
L 827.653213 434.569761 
L 830.709072 439.039379 
L 833.764932 436.959528 
L 836.820792 434.441644 
L 839.876652 439.650578 
L 842.932512 438.51868 
L 845.988371 439.803425 
L 849.044231 436.542877 
L 852.100091 436.954921 
L 855.155951 434.980735 
L 858.211811 440.653859 
L 861.26767 435.051322 
L 861.26767 435.051322 
" clip-path="url(#p08df4bb1a1)" style="fill: none; stroke-dasharray: 7.4,3.2; stroke-dashoffset: 0; stroke: #0000ff; stroke-width: 2"/>
   </g>
   <g id="line2d_15">
    <path d="M 100.35858 365.921365 
L 103.414439 370.487365 
L 106.470299 393.541056 
L 109.526159 275.693288 
L 112.582019 397.043787 
L 115.637879 352.069277 
L 118.693738 399.38482 
L 121.749598 321.222394 
L 124.805458 418.134185 
L 127.861318 348.8744 
L 130.917178 399.499567 
L 133.973037 389.271222 
L 137.028897 342.102425 
L 140.084757 343.102844 
L 143.140617 381.986684 
L 146.196477 370.259005 
L 149.252336 381.112062 
L 152.308196 343.076672 
L 155.364056 348.479113 
L 158.419916 351.350978 
L 161.475776 395.473955 
L 164.531635 379.318929 
L 167.587495 343.189022 
L 170.643355 358.773579 
L 173.699215 387.582745 
L 176.755075 353.362105 
L 179.810934 369.259328 
L 182.866794 325.816211 
L 185.922654 384.568042 
L 188.978514 357.835384 
L 192.034374 399.200624 
L 195.090233 337.3586 
L 198.146093 423.217331 
L 201.201953 324.79428 
L 204.257813 411.559274 
L 207.313673 359.893195 
L 210.369532 421.8879 
L 213.425392 355.711641 
L 216.481252 419.205928 
L 219.537112 346.278853 
L 222.592972 379.630187 
L 225.648831 319.033071 
L 228.704691 385.277478 
L 231.760551 325.751258 
L 234.816411 405.51157 
L 237.872271 350.960293 
L 240.92813 404.458723 
L 243.98399 349.974387 
L 247.03985 332.882364 
L 250.09571 400.032661 
L 253.15157 382.238059 
L 256.207429 366.373806 
L 259.263289 433.793556 
L 262.319149 391.803414 
L 265.375009 429.129776 
L 268.430869 374.289561 
L 271.486729 433.337635 
L 274.542588 384.786912 
L 277.598448 413.483347 
L 280.654308 368.124687 
L 283.710168 431.69239 
L 286.766028 390.148145 
L 289.821887 365.395565 
L 292.877747 393.322595 
L 295.933607 395.881795 
L 298.989467 388.980724 
L 302.045327 395.45291 
L 305.101186 418.706165 
L 308.157046 437.070223 
L 311.212906 377.637595 
L 314.268766 393.815606 
L 317.324626 410.710423 
L 320.380485 431.69413 
L 323.436345 386.217652 
L 326.492205 404.755146 
L 329.548065 430.762449 
L 332.603925 408.523363 
L 335.659784 430.706902 
L 338.715644 396.383888 
L 341.771504 387.607547 
L 344.827364 424.770131 
L 347.883224 404.908844 
L 350.939083 452.25278 
L 353.994943 423.765689 
L 357.050803 445.778259 
L 360.106663 397.253298 
L 363.162523 447.208191 
L 366.218382 416.423103 
L 369.274242 426.360161 
L 372.330102 421.910752 
L 375.385962 376.592451 
L 378.441822 415.143732 
L 381.497681 407.808031 
L 384.553541 382.446943 
L 387.609401 414.996319 
L 390.665261 431.363044 
L 393.721121 464.237187 
L 396.77698 420.276891 
L 399.83284 387.358151 
L 402.8887 376.195538 
L 405.94456 414.176845 
L 409.00042 405.837987 
L 412.056279 436.579971 
L 415.112139 412.296355 
L 418.167999 406.522326 
L 421.223859 439.902232 
L 424.279719 386.369068 
L 427.335578 421.399283 
L 430.391438 418.081329 
L 433.447298 432.630624 
L 436.503158 413.452031 
L 439.559018 448.710336 
L 442.614877 393.833247 
L 445.670737 423.255913 
L 448.726597 407.088867 
L 451.782457 433.179134 
L 454.838317 436.419739 
L 457.894176 415.445546 
L 460.950036 449.719718 
L 464.005896 414.622544 
L 467.061756 421.737501 
L 470.117616 426.466386 
L 473.173475 414.492078 
L 476.229335 421.023386 
L 479.285195 441.233576 
L 482.341055 430.632506 
L 485.396915 427.93858 
L 488.452775 418.764679 
L 491.508634 447.584206 
L 494.564494 416.389524 
L 497.620354 438.663929 
L 500.676214 426.195089 
L 503.732074 437.621058 
L 506.787933 402.154112 
L 509.843793 426.918837 
L 512.899653 411.504915 
L 515.955513 409.872328 
L 519.011373 422.35957 
L 522.067232 411.065997 
L 525.123092 388.233962 
L 528.178952 418.89118 
L 531.234812 406.606612 
L 534.290672 396.790815 
L 537.346531 416.486981 
L 540.402391 456.870742 
L 543.458251 420.453118 
L 546.514111 403.772815 
L 549.569971 409.943234 
L 552.62583 443.045267 
L 555.68169 390.602184 
L 558.73755 381.328383 
L 561.79341 431.738912 
L 564.84927 438.676463 
L 567.905129 394.158779 
L 570.960989 436.978325 
L 574.016849 404.908198 
L 577.072709 442.931795 
L 580.128569 419.453118 
L 583.184428 437.754301 
L 586.240288 400.960814 
L 589.296148 414.473619 
L 592.352008 431.498588 
L 595.407868 391.191729 
L 598.463727 410.956281 
L 601.519587 423.11491 
L 604.575447 379.861229 
L 610.687167 373.789961 
L 613.743026 421.78429 
L 616.798886 375.709013 
L 619.854746 377.230135 
L 622.910606 374.931268 
L 625.966466 439.006213 
L 629.022325 396.089928 
L 632.078185 412.074727 
L 635.134045 411.793311 
L 638.189905 390.287798 
L 641.245765 386.42645 
L 644.301624 378.231619 
L 647.357484 401.455327 
L 650.413344 358.743947 
L 653.469204 407.089656 
L 656.525064 390.748294 
L 659.580923 378.727131 
L 662.636783 376.665021 
L 665.692643 374.255107 
L 668.748503 390.695058 
L 671.804363 356.335649 
L 674.860222 387.986411 
L 677.916082 382.219353 
L 680.971942 404.721861 
L 684.027802 349.90875 
L 687.083662 388.13059 
L 690.139521 359.683997 
L 693.195381 437.468805 
L 696.251241 347.874989 
L 699.307101 384.393964 
L 702.362961 390.581101 
L 705.418821 376.266434 
L 708.47468 322.650757 
L 711.53054 356.659451 
L 714.5864 346.533394 
L 717.64226 360.395249 
L 720.69812 343.373437 
L 723.753979 378.500244 
L 726.809839 362.515474 
L 729.865699 417.978195 
L 732.921559 367.300581 
L 735.977419 371.218949 
L 739.033278 360.26214 
L 742.089138 385.561975 
L 745.144998 342.864032 
L 748.200858 367.500117 
L 751.256718 364.770614 
L 754.312577 382.703671 
L 757.368437 345.466102 
L 760.424297 365.421793 
L 763.480157 369.238558 
L 766.536017 392.91176 
L 769.591876 376.77466 
L 772.647736 434.662634 
L 775.703596 341.26626 
L 778.759456 406.903158 
L 781.815316 362.326427 
L 784.871175 342.95894 
L 787.927035 370.872467 
L 790.982895 393.670114 
L 794.038755 262.858356 
L 797.094615 394.836832 
L 800.150474 355.822022 
L 803.206334 426.941547 
L 806.262194 379.612527 
L 809.318054 439.379661 
L 812.373914 369.808294 
L 815.429773 383.821632 
L 818.485633 383.031029 
L 821.541493 396.251387 
L 824.597353 320.78806 
L 827.653213 394.230369 
L 830.709072 344.420283 
L 833.764932 357.953734 
L 836.820792 336.665977 
L 839.876652 384.560339 
L 842.932512 353.320395 
L 845.988371 421.031128 
L 849.044231 330.457272 
L 852.100091 363.594672 
L 855.155951 370.620218 
L 858.211811 404.580573 
L 861.26767 355.744507 
L 861.26767 355.744507 
" clip-path="url(#p08df4bb1a1)" style="fill: none; stroke-dasharray: 7.4,3.2; stroke-dashoffset: 0; stroke: #ffa500; stroke-width: 2"/>
   </g>
   <g id="patch_3">
    <path d="M 62.313125 484.397187 
L 62.313125 40.877187 
" style="fill: none; stroke: #000000; stroke-width: 0.8; stroke-linejoin: miter; stroke-linecap: square"/>
   </g>
   <g id="patch_4">
    <path d="M 899.313125 484.397187 
L 899.313125 40.877187 
" style="fill: none; stroke: #000000; stroke-width: 0.8; stroke-linejoin: miter; stroke-linecap: square"/>
   </g>
   <g id="patch_5">
    <path d="M 62.313125 484.397187 
L 899.313125 484.397187 
" style="fill: none; stroke: #000000; stroke-width: 0.8; stroke-linejoin: miter; stroke-linecap: square"/>
   </g>
   <g id="patch_6">
    <path d="M 62.313125 40.877187 
L 899.313125 40.877187 
" style="fill: none; stroke: #000000; stroke-width: 0.8; stroke-linejoin: miter; stroke-linecap: square"/>
   </g>
   <g id="text_14">
    <!-- Specific humidity  two steps forward prediction: RMSES -->
    <g transform="translate(231.6425 20.877187) scale(0.18 -0.18)">
     <defs>
      <path id="DejaVuSans-70" d="M 1159 525 
L 1159 -1331 
L 581 -1331 
L 581 3500 
L 1159 3500 
L 1159 2969 
Q 1341 3281 1617 3432 
Q 1894 3584 2278 3584 
Q 2916 3584 3314 3078 
Q 3713 2572 3713 1747 
Q 3713 922 3314 415 
Q 2916 -91 2278 -91 
Q 1894 -91 1617 61 
Q 1341 213 1159 525 
z
M 3116 1747 
Q 3116 2381 2855 2742 
Q 2594 3103 2138 3103 
Q 1681 3103 1420 2742 
Q 1159 2381 1159 1747 
Q 1159 1113 1420 752 
Q 1681 391 2138 391 
Q 2594 391 2855 752 
Q 3116 1113 3116 1747 
z
" transform="scale(0.015625)"/>
      <path id="DejaVuSans-69" d="M 603 3500 
L 1178 3500 
L 1178 0 
L 603 0 
L 603 3500 
z
M 603 4863 
L 1178 4863 
L 1178 4134 
L 603 4134 
L 603 4863 
z
" transform="scale(0.015625)"/>
      <path id="DejaVuSans-66" d="M 2375 4863 
L 2375 4384 
L 1825 4384 
Q 1516 4384 1395 4259 
Q 1275 4134 1275 3809 
L 1275 3500 
L 2222 3500 
L 2222 3053 
L 1275 3053 
L 1275 0 
L 697 0 
L 697 3053 
L 147 3053 
L 147 3500 
L 697 3500 
L 697 3744 
Q 697 4328 969 4595 
Q 1241 4863 1831 4863 
L 2375 4863 
z
" transform="scale(0.015625)"/>
      <path id="DejaVuSans-68" d="M 3513 2113 
L 3513 0 
L 2938 0 
L 2938 2094 
Q 2938 2591 2744 2837 
Q 2550 3084 2163 3084 
Q 1697 3084 1428 2787 
Q 1159 2491 1159 1978 
L 1159 0 
L 581 0 
L 581 4863 
L 1159 4863 
L 1159 2956 
Q 1366 3272 1645 3428 
Q 1925 3584 2291 3584 
Q 2894 3584 3203 3211 
Q 3513 2838 3513 2113 
z
" transform="scale(0.015625)"/>
      <path id="DejaVuSans-6d" d="M 3328 2828 
Q 3544 3216 3844 3400 
Q 4144 3584 4550 3584 
Q 5097 3584 5394 3201 
Q 5691 2819 5691 2113 
L 5691 0 
L 5113 0 
L 5113 2094 
Q 5113 2597 4934 2840 
Q 4756 3084 4391 3084 
Q 3944 3084 3684 2787 
Q 3425 2491 3425 1978 
L 3425 0 
L 2847 0 
L 2847 2094 
Q 2847 2600 2669 2842 
Q 2491 3084 2119 3084 
Q 1678 3084 1418 2786 
Q 1159 2488 1159 1978 
L 1159 0 
L 581 0 
L 581 3500 
L 1159 3500 
L 1159 2956 
Q 1356 3278 1631 3431 
Q 1906 3584 2284 3584 
Q 2666 3584 2933 3390 
Q 3200 3197 3328 2828 
z
" transform="scale(0.015625)"/>
      <path id="DejaVuSans-79" d="M 2059 -325 
Q 1816 -950 1584 -1140 
Q 1353 -1331 966 -1331 
L 506 -1331 
L 506 -850 
L 844 -850 
Q 1081 -850 1212 -737 
Q 1344 -625 1503 -206 
L 1606 56 
L 191 3500 
L 800 3500 
L 1894 763 
L 2988 3500 
L 3597 3500 
L 2059 -325 
z
" transform="scale(0.015625)"/>
      <path id="DejaVuSans-77" d="M 269 3500 
L 844 3500 
L 1563 769 
L 2278 3500 
L 2956 3500 
L 3675 769 
L 4391 3500 
L 4966 3500 
L 4050 0 
L 3372 0 
L 2619 2869 
L 1863 0 
L 1184 0 
L 269 3500 
z
" transform="scale(0.015625)"/>
     </defs>
     <use xlink:href="#DejaVuSans-53"/>
     <use xlink:href="#DejaVuSans-70" transform="translate(63.476562 0)"/>
     <use xlink:href="#DejaVuSans-65" transform="translate(126.953125 0)"/>
     <use xlink:href="#DejaVuSans-63" transform="translate(188.476562 0)"/>
     <use xlink:href="#DejaVuSans-69" transform="translate(243.457031 0)"/>
     <use xlink:href="#DejaVuSans-66" transform="translate(271.240234 0)"/>
     <use xlink:href="#DejaVuSans-69" transform="translate(306.445312 0)"/>
     <use xlink:href="#DejaVuSans-63" transform="translate(334.228516 0)"/>
     <use xlink:href="#DejaVuSans-20" transform="translate(389.208984 0)"/>
     <use xlink:href="#DejaVuSans-68" transform="translate(420.996094 0)"/>
     <use xlink:href="#DejaVuSans-75" transform="translate(484.375 0)"/>
     <use xlink:href="#DejaVuSans-6d" transform="translate(547.753906 0)"/>
     <use xlink:href="#DejaVuSans-69" transform="translate(645.166016 0)"/>
     <use xlink:href="#DejaVuSans-64" transform="translate(672.949219 0)"/>
     <use xlink:href="#DejaVuSans-69" transform="translate(736.425781 0)"/>
     <use xlink:href="#DejaVuSans-74" transform="translate(764.208984 0)"/>
     <use xlink:href="#DejaVuSans-79" transform="translate(803.417969 0)"/>
     <use xlink:href="#DejaVuSans-20" transform="translate(862.597656 0)"/>
     <use xlink:href="#DejaVuSans-20" transform="translate(894.384766 0)"/>
     <use xlink:href="#DejaVuSans-74" transform="translate(926.171875 0)"/>
     <use xlink:href="#DejaVuSans-77" transform="translate(965.380859 0)"/>
     <use xlink:href="#DejaVuSans-6f" transform="translate(1047.167969 0)"/>
     <use xlink:href="#DejaVuSans-20" transform="translate(1108.349609 0)"/>
     <use xlink:href="#DejaVuSans-73" transform="translate(1140.136719 0)"/>
     <use xlink:href="#DejaVuSans-74" transform="translate(1192.236328 0)"/>
     <use xlink:href="#DejaVuSans-65" transform="translate(1231.445312 0)"/>
     <use xlink:href="#DejaVuSans-70" transform="translate(1292.96875 0)"/>
     <use xlink:href="#DejaVuSans-73" transform="translate(1356.445312 0)"/>
     <use xlink:href="#DejaVuSans-20" transform="translate(1408.544922 0)"/>
     <use xlink:href="#DejaVuSans-66" transform="translate(1440.332031 0)"/>
     <use xlink:href="#DejaVuSans-6f" transform="translate(1475.537109 0)"/>
     <use xlink:href="#DejaVuSans-72" transform="translate(1536.71875 0)"/>
     <use xlink:href="#DejaVuSans-77" transform="translate(1577.832031 0)"/>
     <use xlink:href="#DejaVuSans-61" transform="translate(1659.619141 0)"/>
     <use xlink:href="#DejaVuSans-72" transform="translate(1720.898438 0)"/>
     <use xlink:href="#DejaVuSans-64" transform="translate(1760.261719 0)"/>
     <use xlink:href="#DejaVuSans-20" transform="translate(1823.738281 0)"/>
     <use xlink:href="#DejaVuSans-70" transform="translate(1855.525391 0)"/>
     <use xlink:href="#DejaVuSans-72" transform="translate(1919.001953 0)"/>
     <use xlink:href="#DejaVuSans-65" transform="translate(1957.865234 0)"/>
     <use xlink:href="#DejaVuSans-64" transform="translate(2019.388672 0)"/>
     <use xlink:href="#DejaVuSans-69" transform="translate(2082.865234 0)"/>
     <use xlink:href="#DejaVuSans-63" transform="translate(2110.648438 0)"/>
     <use xlink:href="#DejaVuSans-74" transform="translate(2165.628906 0)"/>
     <use xlink:href="#DejaVuSans-69" transform="translate(2204.837891 0)"/>
     <use xlink:href="#DejaVuSans-6f" transform="translate(2232.621094 0)"/>
     <use xlink:href="#DejaVuSans-6e" transform="translate(2293.802734 0)"/>
     <use xlink:href="#DejaVuSans-3a" transform="translate(2357.181641 0)"/>
     <use xlink:href="#DejaVuSans-20" transform="translate(2390.873047 0)"/>
     <use xlink:href="#DejaVuSans-52" transform="translate(2422.660156 0)"/>
     <use xlink:href="#DejaVuSans-4d" transform="translate(2492.142578 0)"/>
     <use xlink:href="#DejaVuSans-53" transform="translate(2578.421875 0)"/>
     <use xlink:href="#DejaVuSans-45" transform="translate(2641.898438 0)"/>
     <use xlink:href="#DejaVuSans-53" transform="translate(2705.082031 0)"/>
    </g>
   </g>
   <g id="legend_1">
    <g id="text_15">
     <!-- Forecast Horizon -->
     <g transform="translate(1023.782969 65.634687) scale(0.16 -0.16)">
      <defs>
       <path id="DejaVuSans-48" d="M 628 4666 
L 1259 4666 
L 1259 2753 
L 3553 2753 
L 3553 4666 
L 4184 4666 
L 4184 0 
L 3553 0 
L 3553 2222 
L 1259 2222 
L 1259 0 
L 628 0 
L 628 4666 
z
" transform="scale(0.015625)"/>
       <path id="DejaVuSans-7a" d="M 353 3500 
L 3084 3500 
L 3084 2975 
L 922 459 
L 3084 459 
L 3084 0 
L 275 0 
L 275 525 
L 2438 3041 
L 353 3041 
L 353 3500 
z
" transform="scale(0.015625)"/>
      </defs>
      <use xlink:href="#DejaVuSans-46"/>
      <use xlink:href="#DejaVuSans-6f" transform="translate(53.894531 0)"/>
      <use xlink:href="#DejaVuSans-72" transform="translate(115.076172 0)"/>
      <use xlink:href="#DejaVuSans-65" transform="translate(153.939453 0)"/>
      <use xlink:href="#DejaVuSans-63" transform="translate(215.462891 0)"/>
      <use xlink:href="#DejaVuSans-61" transform="translate(270.443359 0)"/>
      <use xlink:href="#DejaVuSans-73" transform="translate(331.722656 0)"/>
      <use xlink:href="#DejaVuSans-74" transform="translate(383.822266 0)"/>
      <use xlink:href="#DejaVuSans-20" transform="translate(423.03125 0)"/>
      <use xlink:href="#DejaVuSans-48" transform="translate(454.818359 0)"/>
      <use xlink:href="#DejaVuSans-6f" transform="translate(530.013672 0)"/>
      <use xlink:href="#DejaVuSans-72" transform="translate(591.195312 0)"/>
      <use xlink:href="#DejaVuSans-69" transform="translate(632.308594 0)"/>
      <use xlink:href="#DejaVuSans-7a" transform="translate(660.091797 0)"/>
      <use xlink:href="#DejaVuSans-6f" transform="translate(712.582031 0)"/>
      <use xlink:href="#DejaVuSans-6e" transform="translate(773.763672 0)"/>
     </g>
    </g>
    <g id="line2d_16">
     <path d="M 953.763125 81.7 
L 967.763125 81.7 
L 981.763125 81.7 
" style="fill: none; stroke: #0000ff; stroke-width: 2; stroke-linecap: square"/>
    </g>
    <g id="text_16">
     <!-- Global RMSE (6h Forecast) -->
     <g transform="translate(992.963125 86.6) scale(0.14 -0.14)">
      <defs>
       <path id="DejaVuSans-47" d="M 3809 666 
L 3809 1919 
L 2778 1919 
L 2778 2438 
L 4434 2438 
L 4434 434 
Q 4069 175 3628 42 
Q 3188 -91 2688 -91 
Q 1594 -91 976 548 
Q 359 1188 359 2328 
Q 359 3472 976 4111 
Q 1594 4750 2688 4750 
Q 3144 4750 3555 4637 
Q 3966 4525 4313 4306 
L 4313 3634 
Q 3963 3931 3569 4081 
Q 3175 4231 2741 4231 
Q 1884 4231 1454 3753 
Q 1025 3275 1025 2328 
Q 1025 1384 1454 906 
Q 1884 428 2741 428 
Q 3075 428 3337 486 
Q 3600 544 3809 666 
z
" transform="scale(0.015625)"/>
       <path id="DejaVuSans-6c" d="M 603 4863 
L 1178 4863 
L 1178 0 
L 603 0 
L 603 4863 
z
" transform="scale(0.015625)"/>
       <path id="DejaVuSans-62" d="M 3116 1747 
Q 3116 2381 2855 2742 
Q 2594 3103 2138 3103 
Q 1681 3103 1420 2742 
Q 1159 2381 1159 1747 
Q 1159 1113 1420 752 
Q 1681 391 2138 391 
Q 2594 391 2855 752 
Q 3116 1113 3116 1747 
z
M 1159 2969 
Q 1341 3281 1617 3432 
Q 1894 3584 2278 3584 
Q 2916 3584 3314 3078 
Q 3713 2572 3713 1747 
Q 3713 922 3314 415 
Q 2916 -91 2278 -91 
Q 1894 -91 1617 61 
Q 1341 213 1159 525 
L 1159 0 
L 581 0 
L 581 4863 
L 1159 4863 
L 1159 2969 
z
" transform="scale(0.015625)"/>
      </defs>
      <use xlink:href="#DejaVuSans-47"/>
      <use xlink:href="#DejaVuSans-6c" transform="translate(77.490234 0)"/>
      <use xlink:href="#DejaVuSans-6f" transform="translate(105.273438 0)"/>
      <use xlink:href="#DejaVuSans-62" transform="translate(166.455078 0)"/>
      <use xlink:href="#DejaVuSans-61" transform="translate(229.931641 0)"/>
      <use xlink:href="#DejaVuSans-6c" transform="translate(291.210938 0)"/>
      <use xlink:href="#DejaVuSans-20" transform="translate(318.994141 0)"/>
      <use xlink:href="#DejaVuSans-52" transform="translate(350.78125 0)"/>
      <use xlink:href="#DejaVuSans-4d" transform="translate(420.263672 0)"/>
      <use xlink:href="#DejaVuSans-53" transform="translate(506.542969 0)"/>
      <use xlink:href="#DejaVuSans-45" transform="translate(570.019531 0)"/>
      <use xlink:href="#DejaVuSans-20" transform="translate(633.203125 0)"/>
      <use xlink:href="#DejaVuSans-28" transform="translate(664.990234 0)"/>
      <use xlink:href="#DejaVuSans-36" transform="translate(704.003906 0)"/>
      <use xlink:href="#DejaVuSans-68" transform="translate(767.626953 0)"/>
      <use xlink:href="#DejaVuSans-20" transform="translate(831.005859 0)"/>
      <use xlink:href="#DejaVuSans-46" transform="translate(862.792969 0)"/>
      <use xlink:href="#DejaVuSans-6f" transform="translate(916.6875 0)"/>
      <use xlink:href="#DejaVuSans-72" transform="translate(977.869141 0)"/>
      <use xlink:href="#DejaVuSans-65" transform="translate(1016.732422 0)"/>
      <use xlink:href="#DejaVuSans-63" transform="translate(1078.255859 0)"/>
      <use xlink:href="#DejaVuSans-61" transform="translate(1133.236328 0)"/>
      <use xlink:href="#DejaVuSans-73" transform="translate(1194.515625 0)"/>
      <use xlink:href="#DejaVuSans-74" transform="translate(1246.615234 0)"/>
      <use xlink:href="#DejaVuSans-29" transform="translate(1285.824219 0)"/>
     </g>
    </g>
    <g id="line2d_17">
     <path d="M 953.763125 102.249375 
L 967.763125 102.249375 
L 981.763125 102.249375 
" style="fill: none; stroke: #ffa500; stroke-width: 2; stroke-linecap: square"/>
    </g>
    <g id="text_17">
     <!-- South Africa RMSE (6h Forecast) -->
     <g transform="translate(992.963125 107.149375) scale(0.14 -0.14)">
      <defs>
       <path id="DejaVuSans-41" d="M 2188 4044 
L 1331 1722 
L 3047 1722 
L 2188 4044 
z
M 1831 4666 
L 2547 4666 
L 4325 0 
L 3669 0 
L 3244 1197 
L 1141 1197 
L 716 0 
L 50 0 
L 1831 4666 
z
" transform="scale(0.015625)"/>
      </defs>
      <use xlink:href="#DejaVuSans-53"/>
      <use xlink:href="#DejaVuSans-6f" transform="translate(63.476562 0)"/>
      <use xlink:href="#DejaVuSans-75" transform="translate(124.658203 0)"/>
      <use xlink:href="#DejaVuSans-74" transform="translate(188.037109 0)"/>
      <use xlink:href="#DejaVuSans-68" transform="translate(227.246094 0)"/>
      <use xlink:href="#DejaVuSans-20" transform="translate(290.625 0)"/>
      <use xlink:href="#DejaVuSans-41" transform="translate(322.412109 0)"/>
      <use xlink:href="#DejaVuSans-66" transform="translate(387.195312 0)"/>
      <use xlink:href="#DejaVuSans-72" transform="translate(422.400391 0)"/>
      <use xlink:href="#DejaVuSans-69" transform="translate(463.513672 0)"/>
      <use xlink:href="#DejaVuSans-63" transform="translate(491.296875 0)"/>
      <use xlink:href="#DejaVuSans-61" transform="translate(546.277344 0)"/>
      <use xlink:href="#DejaVuSans-20" transform="translate(607.556641 0)"/>
      <use xlink:href="#DejaVuSans-52" transform="translate(639.34375 0)"/>
      <use xlink:href="#DejaVuSans-4d" transform="translate(708.826172 0)"/>
      <use xlink:href="#DejaVuSans-53" transform="translate(795.105469 0)"/>
      <use xlink:href="#DejaVuSans-45" transform="translate(858.582031 0)"/>
      <use xlink:href="#DejaVuSans-20" transform="translate(921.765625 0)"/>
      <use xlink:href="#DejaVuSans-28" transform="translate(953.552734 0)"/>
      <use xlink:href="#DejaVuSans-36" transform="translate(992.566406 0)"/>
      <use xlink:href="#DejaVuSans-68" transform="translate(1056.189453 0)"/>
      <use xlink:href="#DejaVuSans-20" transform="translate(1119.568359 0)"/>
      <use xlink:href="#DejaVuSans-46" transform="translate(1151.355469 0)"/>
      <use xlink:href="#DejaVuSans-6f" transform="translate(1205.25 0)"/>
      <use xlink:href="#DejaVuSans-72" transform="translate(1266.431641 0)"/>
      <use xlink:href="#DejaVuSans-65" transform="translate(1305.294922 0)"/>
      <use xlink:href="#DejaVuSans-63" transform="translate(1366.818359 0)"/>
      <use xlink:href="#DejaVuSans-61" transform="translate(1421.798828 0)"/>
      <use xlink:href="#DejaVuSans-73" transform="translate(1483.078125 0)"/>
      <use xlink:href="#DejaVuSans-74" transform="translate(1535.177734 0)"/>
      <use xlink:href="#DejaVuSans-29" transform="translate(1574.386719 0)"/>
     </g>
    </g>
    <g id="line2d_18">
     <path d="M 953.763125 122.79875 
L 967.763125 122.79875 
L 981.763125 122.79875 
" style="fill: none; stroke-dasharray: 7.4,3.2; stroke-dashoffset: 0; stroke: #0000ff; stroke-width: 2"/>
    </g>
    <g id="text_18">
     <!-- Global RMSE (12h Forecast) -->
     <g transform="translate(992.963125 127.69875) scale(0.14 -0.14)">
      <use xlink:href="#DejaVuSans-47"/>
      <use xlink:href="#DejaVuSans-6c" transform="translate(77.490234 0)"/>
      <use xlink:href="#DejaVuSans-6f" transform="translate(105.273438 0)"/>
      <use xlink:href="#DejaVuSans-62" transform="translate(166.455078 0)"/>
      <use xlink:href="#DejaVuSans-61" transform="translate(229.931641 0)"/>
      <use xlink:href="#DejaVuSans-6c" transform="translate(291.210938 0)"/>
      <use xlink:href="#DejaVuSans-20" transform="translate(318.994141 0)"/>
      <use xlink:href="#DejaVuSans-52" transform="translate(350.78125 0)"/>
      <use xlink:href="#DejaVuSans-4d" transform="translate(420.263672 0)"/>
      <use xlink:href="#DejaVuSans-53" transform="translate(506.542969 0)"/>
      <use xlink:href="#DejaVuSans-45" transform="translate(570.019531 0)"/>
      <use xlink:href="#DejaVuSans-20" transform="translate(633.203125 0)"/>
      <use xlink:href="#DejaVuSans-28" transform="translate(664.990234 0)"/>
      <use xlink:href="#DejaVuSans-31" transform="translate(704.003906 0)"/>
      <use xlink:href="#DejaVuSans-32" transform="translate(767.626953 0)"/>
      <use xlink:href="#DejaVuSans-68" transform="translate(831.25 0)"/>
      <use xlink:href="#DejaVuSans-20" transform="translate(894.628906 0)"/>
      <use xlink:href="#DejaVuSans-46" transform="translate(926.416016 0)"/>
      <use xlink:href="#DejaVuSans-6f" transform="translate(980.310547 0)"/>
      <use xlink:href="#DejaVuSans-72" transform="translate(1041.492188 0)"/>
      <use xlink:href="#DejaVuSans-65" transform="translate(1080.355469 0)"/>
      <use xlink:href="#DejaVuSans-63" transform="translate(1141.878906 0)"/>
      <use xlink:href="#DejaVuSans-61" transform="translate(1196.859375 0)"/>
      <use xlink:href="#DejaVuSans-73" transform="translate(1258.138672 0)"/>
      <use xlink:href="#DejaVuSans-74" transform="translate(1310.238281 0)"/>
      <use xlink:href="#DejaVuSans-29" transform="translate(1349.447266 0)"/>
     </g>
    </g>
    <g id="line2d_19">
     <path d="M 953.763125 143.348125 
L 967.763125 143.348125 
L 981.763125 143.348125 
" style="fill: none; stroke-dasharray: 7.4,3.2; stroke-dashoffset: 0; stroke: #ffa500; stroke-width: 2"/>
    </g>
    <g id="text_19">
     <!-- South Africa RMSE (12h Forecast) -->
     <g transform="translate(992.963125 148.248125) scale(0.14 -0.14)">
      <use xlink:href="#DejaVuSans-53"/>
      <use xlink:href="#DejaVuSans-6f" transform="translate(63.476562 0)"/>
      <use xlink:href="#DejaVuSans-75" transform="translate(124.658203 0)"/>
      <use xlink:href="#DejaVuSans-74" transform="translate(188.037109 0)"/>
      <use xlink:href="#DejaVuSans-68" transform="translate(227.246094 0)"/>
      <use xlink:href="#DejaVuSans-20" transform="translate(290.625 0)"/>
      <use xlink:href="#DejaVuSans-41" transform="translate(322.412109 0)"/>
      <use xlink:href="#DejaVuSans-66" transform="translate(387.195312 0)"/>
      <use xlink:href="#DejaVuSans-72" transform="translate(422.400391 0)"/>
      <use xlink:href="#DejaVuSans-69" transform="translate(463.513672 0)"/>
      <use xlink:href="#DejaVuSans-63" transform="translate(491.296875 0)"/>
      <use xlink:href="#DejaVuSans-61" transform="translate(546.277344 0)"/>
      <use xlink:href="#DejaVuSans-20" transform="translate(607.556641 0)"/>
      <use xlink:href="#DejaVuSans-52" transform="translate(639.34375 0)"/>
      <use xlink:href="#DejaVuSans-4d" transform="translate(708.826172 0)"/>
      <use xlink:href="#DejaVuSans-53" transform="translate(795.105469 0)"/>
      <use xlink:href="#DejaVuSans-45" transform="translate(858.582031 0)"/>
      <use xlink:href="#DejaVuSans-20" transform="translate(921.765625 0)"/>
      <use xlink:href="#DejaVuSans-28" transform="translate(953.552734 0)"/>
      <use xlink:href="#DejaVuSans-31" transform="translate(992.566406 0)"/>
      <use xlink:href="#DejaVuSans-32" transform="translate(1056.189453 0)"/>
      <use xlink:href="#DejaVuSans-68" transform="translate(1119.8125 0)"/>
      <use xlink:href="#DejaVuSans-20" transform="translate(1183.191406 0)"/>
      <use xlink:href="#DejaVuSans-46" transform="translate(1214.978516 0)"/>
      <use xlink:href="#DejaVuSans-6f" transform="translate(1268.873047 0)"/>
      <use xlink:href="#DejaVuSans-72" transform="translate(1330.054688 0)"/>
      <use xlink:href="#DejaVuSans-65" transform="translate(1368.917969 0)"/>
      <use xlink:href="#DejaVuSans-63" transform="translate(1430.441406 0)"/>
      <use xlink:href="#DejaVuSans-61" transform="translate(1485.421875 0)"/>
      <use xlink:href="#DejaVuSans-73" transform="translate(1546.701172 0)"/>
      <use xlink:href="#DejaVuSans-74" transform="translate(1598.800781 0)"/>
      <use xlink:href="#DejaVuSans-29" transform="translate(1638.009766 0)"/>
     </g>
    </g>
   </g>
  </g>
 </g>
 <defs>
  <clipPath id="p08df4bb1a1">
   <rect x="62.313125" y="40.877187" width="837" height="443.52"/>
  </clipPath>
 </defs>
</svg>
