<?xml version="1.0" encoding="utf-8" standalone="no"?>
<!DOCTYPE svg PUBLIC "-//W3C//DTD SVG 1.1//EN"
  "http://www.w3.org/Graphics/SVG/1.1/DTD/svg11.dtd">
<svg xmlns:xlink="http://www.w3.org/1999/xlink" width="1237.367188pt" height="575.421502pt" viewBox="0 0 1237.367188 575.421502" xmlns="http://www.w3.org/2000/svg" version="1.1">
 <metadata>
  <rdf:RDF xmlns:dc="http://purl.org/dc/elements/1.1/" xmlns:cc="http://creativecommons.org/ns#" xmlns:rdf="http://www.w3.org/1999/02/22-rdf-syntax-ns#">
   <cc:Work>
    <dc:type rdf:resource="http://purl.org/dc/dcmitype/StillImage"/>
    <dc:date>2025-02-18T12:51:56.089518</dc:date>
    <dc:format>image/svg+xml</dc:format>
    <dc:creator>
     <cc:Agent>
      <dc:title>Matplotlib v3.10.0, https://matplotlib.org/</dc:title>
     </cc:Agent>
    </dc:creator>
   </cc:Work>
  </rdf:RDF>
 </metadata>
 <defs>
  <style type="text/css">*{stroke-linejoin: round; stroke-linecap: butt}</style>
 </defs>
 <g id="figure_1">
  <g id="patch_1">
   <path d="M 0 575.421502 
L 1237.367188 575.421502 
L 1237.367188 0 
L 0 0 
z
" style="fill: #ffffff"/>
  </g>
  <g id="axes_1">
   <g id="patch_2">
    <path d="M 59.135 484.397187 
L 896.135 484.397187 
L 896.135 40.877187 
L 59.135 40.877187 
z
" style="fill: #ffffff"/>
   </g>
   <g id="matplotlib.axis_1">
    <g id="xtick_1">
     <g id="line2d_1">
      <defs>
       <path id="m9fe540ba37" d="M 0 0 
L 0 3.5 
" style="stroke: #000000; stroke-width: 0.8"/>
      </defs>
      <g>
       <use xlink:href="#m9fe540ba37" x="97.180455" y="484.397187" style="stroke: #000000; stroke-width: 0.8"/>
      </g>
     </g>
     <g id="text_1">
      <!-- 2022-01-01 (12:00) -->
      <g transform="translate(11.343192 546.93544) rotate(-30) scale(0.1 -0.1)">
       <defs>
        <path id="DejaVuSans-32" d="M 1228 531 
L 3431 531 
L 3431 0 
L 469 0 
L 469 531 
Q 828 903 1448 1529 
Q 2069 2156 2228 2338 
Q 2531 2678 2651 2914 
Q 2772 3150 2772 3378 
Q 2772 3750 2511 3984 
Q 2250 4219 1831 4219 
Q 1534 4219 1204 4116 
Q 875 4013 500 3803 
L 500 4441 
Q 881 4594 1212 4672 
Q 1544 4750 1819 4750 
Q 2544 4750 2975 4387 
Q 3406 4025 3406 3419 
Q 3406 3131 3298 2873 
Q 3191 2616 2906 2266 
Q 2828 2175 2409 1742 
Q 1991 1309 1228 531 
z
" transform="scale(0.015625)"/>
        <path id="DejaVuSans-30" d="M 2034 4250 
Q 1547 4250 1301 3770 
Q 1056 3291 1056 2328 
Q 1056 1369 1301 889 
Q 1547 409 2034 409 
Q 2525 409 2770 889 
Q 3016 1369 3016 2328 
Q 3016 3291 2770 3770 
Q 2525 4250 2034 4250 
z
M 2034 4750 
Q 2819 4750 3233 4129 
Q 3647 3509 3647 2328 
Q 3647 1150 3233 529 
Q 2819 -91 2034 -91 
Q 1250 -91 836 529 
Q 422 1150 422 2328 
Q 422 3509 836 4129 
Q 1250 4750 2034 4750 
z
" transform="scale(0.015625)"/>
        <path id="DejaVuSans-2d" d="M 313 2009 
L 1997 2009 
L 1997 1497 
L 313 1497 
L 313 2009 
z
" transform="scale(0.015625)"/>
        <path id="DejaVuSans-31" d="M 794 531 
L 1825 531 
L 1825 4091 
L 703 3866 
L 703 4441 
L 1819 4666 
L 2450 4666 
L 2450 531 
L 3481 531 
L 3481 0 
L 794 0 
L 794 531 
z
" transform="scale(0.015625)"/>
        <path id="DejaVuSans-20" transform="scale(0.015625)"/>
        <path id="DejaVuSans-28" d="M 1984 4856 
Q 1566 4138 1362 3434 
Q 1159 2731 1159 2009 
Q 1159 1288 1364 580 
Q 1569 -128 1984 -844 
L 1484 -844 
Q 1016 -109 783 600 
Q 550 1309 550 2009 
Q 550 2706 781 3412 
Q 1013 4119 1484 4856 
L 1984 4856 
z
" transform="scale(0.015625)"/>
        <path id="DejaVuSans-3a" d="M 750 794 
L 1409 794 
L 1409 0 
L 750 0 
L 750 794 
z
M 750 3309 
L 1409 3309 
L 1409 2516 
L 750 2516 
L 750 3309 
z
" transform="scale(0.015625)"/>
        <path id="DejaVuSans-29" d="M 513 4856 
L 1013 4856 
Q 1481 4119 1714 3412 
Q 1947 2706 1947 2009 
Q 1947 1309 1714 600 
Q 1481 -109 1013 -844 
L 513 -844 
Q 928 -128 1133 580 
Q 1338 1288 1338 2009 
Q 1338 2731 1133 3434 
Q 928 4138 513 4856 
z
" transform="scale(0.015625)"/>
       </defs>
       <use xlink:href="#DejaVuSans-32"/>
       <use xlink:href="#DejaVuSans-30" transform="translate(63.623047 0)"/>
       <use xlink:href="#DejaVuSans-32" transform="translate(127.246094 0)"/>
       <use xlink:href="#DejaVuSans-32" transform="translate(190.869141 0)"/>
       <use xlink:href="#DejaVuSans-2d" transform="translate(254.492188 0)"/>
       <use xlink:href="#DejaVuSans-30" transform="translate(290.576172 0)"/>
       <use xlink:href="#DejaVuSans-31" transform="translate(354.199219 0)"/>
       <use xlink:href="#DejaVuSans-2d" transform="translate(417.822266 0)"/>
       <use xlink:href="#DejaVuSans-30" transform="translate(453.90625 0)"/>
       <use xlink:href="#DejaVuSans-31" transform="translate(517.529297 0)"/>
       <use xlink:href="#DejaVuSans-20" transform="translate(581.152344 0)"/>
       <use xlink:href="#DejaVuSans-28" transform="translate(612.939453 0)"/>
       <use xlink:href="#DejaVuSans-31" transform="translate(651.953125 0)"/>
       <use xlink:href="#DejaVuSans-32" transform="translate(715.576172 0)"/>
       <use xlink:href="#DejaVuSans-3a" transform="translate(779.199219 0)"/>
       <use xlink:href="#DejaVuSans-30" transform="translate(812.890625 0)"/>
       <use xlink:href="#DejaVuSans-30" transform="translate(876.513672 0)"/>
       <use xlink:href="#DejaVuSans-29" transform="translate(940.136719 0)"/>
      </g>
     </g>
    </g>
    <g id="xtick_2">
     <g id="line2d_2">
      <g>
       <use xlink:href="#m9fe540ba37" x="246.917585" y="484.397187" style="stroke: #000000; stroke-width: 0.8"/>
      </g>
     </g>
     <g id="text_2">
      <!-- 2022-03-16 (00:00) -->
      <g transform="translate(161.080322 546.93544) rotate(-30) scale(0.1 -0.1)">
       <defs>
        <path id="DejaVuSans-33" d="M 2597 2516 
Q 3050 2419 3304 2112 
Q 3559 1806 3559 1356 
Q 3559 666 3084 287 
Q 2609 -91 1734 -91 
Q 1441 -91 1130 -33 
Q 819 25 488 141 
L 488 750 
Q 750 597 1062 519 
Q 1375 441 1716 441 
Q 2309 441 2620 675 
Q 2931 909 2931 1356 
Q 2931 1769 2642 2001 
Q 2353 2234 1838 2234 
L 1294 2234 
L 1294 2753 
L 1863 2753 
Q 2328 2753 2575 2939 
Q 2822 3125 2822 3475 
Q 2822 3834 2567 4026 
Q 2313 4219 1838 4219 
Q 1578 4219 1281 4162 
Q 984 4106 628 3988 
L 628 4550 
Q 988 4650 1302 4700 
Q 1616 4750 1894 4750 
Q 2613 4750 3031 4423 
Q 3450 4097 3450 3541 
Q 3450 3153 3228 2886 
Q 3006 2619 2597 2516 
z
" transform="scale(0.015625)"/>
        <path id="DejaVuSans-36" d="M 2113 2584 
Q 1688 2584 1439 2293 
Q 1191 2003 1191 1497 
Q 1191 994 1439 701 
Q 1688 409 2113 409 
Q 2538 409 2786 701 
Q 3034 994 3034 1497 
Q 3034 2003 2786 2293 
Q 2538 2584 2113 2584 
z
M 3366 4563 
L 3366 3988 
Q 3128 4100 2886 4159 
Q 2644 4219 2406 4219 
Q 1781 4219 1451 3797 
Q 1122 3375 1075 2522 
Q 1259 2794 1537 2939 
Q 1816 3084 2150 3084 
Q 2853 3084 3261 2657 
Q 3669 2231 3669 1497 
Q 3669 778 3244 343 
Q 2819 -91 2113 -91 
Q 1303 -91 875 529 
Q 447 1150 447 2328 
Q 447 3434 972 4092 
Q 1497 4750 2381 4750 
Q 2619 4750 2861 4703 
Q 3103 4656 3366 4563 
z
" transform="scale(0.015625)"/>
       </defs>
       <use xlink:href="#DejaVuSans-32"/>
       <use xlink:href="#DejaVuSans-30" transform="translate(63.623047 0)"/>
       <use xlink:href="#DejaVuSans-32" transform="translate(127.246094 0)"/>
       <use xlink:href="#DejaVuSans-32" transform="translate(190.869141 0)"/>
       <use xlink:href="#DejaVuSans-2d" transform="translate(254.492188 0)"/>
       <use xlink:href="#DejaVuSans-30" transform="translate(290.576172 0)"/>
       <use xlink:href="#DejaVuSans-33" transform="translate(354.199219 0)"/>
       <use xlink:href="#DejaVuSans-2d" transform="translate(417.822266 0)"/>
       <use xlink:href="#DejaVuSans-31" transform="translate(453.90625 0)"/>
       <use xlink:href="#DejaVuSans-36" transform="translate(517.529297 0)"/>
       <use xlink:href="#DejaVuSans-20" transform="translate(581.152344 0)"/>
       <use xlink:href="#DejaVuSans-28" transform="translate(612.939453 0)"/>
       <use xlink:href="#DejaVuSans-30" transform="translate(651.953125 0)"/>
       <use xlink:href="#DejaVuSans-30" transform="translate(715.576172 0)"/>
       <use xlink:href="#DejaVuSans-3a" transform="translate(779.199219 0)"/>
       <use xlink:href="#DejaVuSans-30" transform="translate(812.890625 0)"/>
       <use xlink:href="#DejaVuSans-30" transform="translate(876.513672 0)"/>
       <use xlink:href="#DejaVuSans-29" transform="translate(940.136719 0)"/>
      </g>
     </g>
    </g>
    <g id="xtick_3">
     <g id="line2d_3">
      <g>
       <use xlink:href="#m9fe540ba37" x="399.710575" y="484.397187" style="stroke: #000000; stroke-width: 0.8"/>
      </g>
     </g>
     <g id="text_3">
      <!-- 2022-05-30 (00:00) -->
      <g transform="translate(313.873313 546.93544) rotate(-30) scale(0.1 -0.1)">
       <defs>
        <path id="DejaVuSans-35" d="M 691 4666 
L 3169 4666 
L 3169 4134 
L 1269 4134 
L 1269 2991 
Q 1406 3038 1543 3061 
Q 1681 3084 1819 3084 
Q 2600 3084 3056 2656 
Q 3513 2228 3513 1497 
Q 3513 744 3044 326 
Q 2575 -91 1722 -91 
Q 1428 -91 1123 -41 
Q 819 9 494 109 
L 494 744 
Q 775 591 1075 516 
Q 1375 441 1709 441 
Q 2250 441 2565 725 
Q 2881 1009 2881 1497 
Q 2881 1984 2565 2268 
Q 2250 2553 1709 2553 
Q 1456 2553 1204 2497 
Q 953 2441 691 2322 
L 691 4666 
z
" transform="scale(0.015625)"/>
       </defs>
       <use xlink:href="#DejaVuSans-32"/>
       <use xlink:href="#DejaVuSans-30" transform="translate(63.623047 0)"/>
       <use xlink:href="#DejaVuSans-32" transform="translate(127.246094 0)"/>
       <use xlink:href="#DejaVuSans-32" transform="translate(190.869141 0)"/>
       <use xlink:href="#DejaVuSans-2d" transform="translate(254.492188 0)"/>
       <use xlink:href="#DejaVuSans-30" transform="translate(290.576172 0)"/>
       <use xlink:href="#DejaVuSans-35" transform="translate(354.199219 0)"/>
       <use xlink:href="#DejaVuSans-2d" transform="translate(417.822266 0)"/>
       <use xlink:href="#DejaVuSans-33" transform="translate(453.90625 0)"/>
       <use xlink:href="#DejaVuSans-30" transform="translate(517.529297 0)"/>
       <use xlink:href="#DejaVuSans-20" transform="translate(581.152344 0)"/>
       <use xlink:href="#DejaVuSans-28" transform="translate(612.939453 0)"/>
       <use xlink:href="#DejaVuSans-30" transform="translate(651.953125 0)"/>
       <use xlink:href="#DejaVuSans-30" transform="translate(715.576172 0)"/>
       <use xlink:href="#DejaVuSans-3a" transform="translate(779.199219 0)"/>
       <use xlink:href="#DejaVuSans-30" transform="translate(812.890625 0)"/>
       <use xlink:href="#DejaVuSans-30" transform="translate(876.513672 0)"/>
       <use xlink:href="#DejaVuSans-29" transform="translate(940.136719 0)"/>
      </g>
     </g>
    </g>
    <g id="xtick_4">
     <g id="line2d_4">
      <g>
       <use xlink:href="#m9fe540ba37" x="552.503565" y="484.397187" style="stroke: #000000; stroke-width: 0.8"/>
      </g>
     </g>
     <g id="text_4">
      <!-- 2022-08-13 (00:00) -->
      <g transform="translate(466.666303 546.93544) rotate(-30) scale(0.1 -0.1)">
       <defs>
        <path id="DejaVuSans-38" d="M 2034 2216 
Q 1584 2216 1326 1975 
Q 1069 1734 1069 1313 
Q 1069 891 1326 650 
Q 1584 409 2034 409 
Q 2484 409 2743 651 
Q 3003 894 3003 1313 
Q 3003 1734 2745 1975 
Q 2488 2216 2034 2216 
z
M 1403 2484 
Q 997 2584 770 2862 
Q 544 3141 544 3541 
Q 544 4100 942 4425 
Q 1341 4750 2034 4750 
Q 2731 4750 3128 4425 
Q 3525 4100 3525 3541 
Q 3525 3141 3298 2862 
Q 3072 2584 2669 2484 
Q 3125 2378 3379 2068 
Q 3634 1759 3634 1313 
Q 3634 634 3220 271 
Q 2806 -91 2034 -91 
Q 1263 -91 848 271 
Q 434 634 434 1313 
Q 434 1759 690 2068 
Q 947 2378 1403 2484 
z
M 1172 3481 
Q 1172 3119 1398 2916 
Q 1625 2713 2034 2713 
Q 2441 2713 2670 2916 
Q 2900 3119 2900 3481 
Q 2900 3844 2670 4047 
Q 2441 4250 2034 4250 
Q 1625 4250 1398 4047 
Q 1172 3844 1172 3481 
z
" transform="scale(0.015625)"/>
       </defs>
       <use xlink:href="#DejaVuSans-32"/>
       <use xlink:href="#DejaVuSans-30" transform="translate(63.623047 0)"/>
       <use xlink:href="#DejaVuSans-32" transform="translate(127.246094 0)"/>
       <use xlink:href="#DejaVuSans-32" transform="translate(190.869141 0)"/>
       <use xlink:href="#DejaVuSans-2d" transform="translate(254.492188 0)"/>
       <use xlink:href="#DejaVuSans-30" transform="translate(290.576172 0)"/>
       <use xlink:href="#DejaVuSans-38" transform="translate(354.199219 0)"/>
       <use xlink:href="#DejaVuSans-2d" transform="translate(417.822266 0)"/>
       <use xlink:href="#DejaVuSans-31" transform="translate(453.90625 0)"/>
       <use xlink:href="#DejaVuSans-33" transform="translate(517.529297 0)"/>
       <use xlink:href="#DejaVuSans-20" transform="translate(581.152344 0)"/>
       <use xlink:href="#DejaVuSans-28" transform="translate(612.939453 0)"/>
       <use xlink:href="#DejaVuSans-30" transform="translate(651.953125 0)"/>
       <use xlink:href="#DejaVuSans-30" transform="translate(715.576172 0)"/>
       <use xlink:href="#DejaVuSans-3a" transform="translate(779.199219 0)"/>
       <use xlink:href="#DejaVuSans-30" transform="translate(812.890625 0)"/>
       <use xlink:href="#DejaVuSans-30" transform="translate(876.513672 0)"/>
       <use xlink:href="#DejaVuSans-29" transform="translate(940.136719 0)"/>
      </g>
     </g>
    </g>
    <g id="xtick_5">
     <g id="line2d_5">
      <g>
       <use xlink:href="#m9fe540ba37" x="705.296555" y="484.397187" style="stroke: #000000; stroke-width: 0.8"/>
      </g>
     </g>
     <g id="text_5">
      <!-- 2022-10-27 (00:00) -->
      <g transform="translate(619.459293 546.93544) rotate(-30) scale(0.1 -0.1)">
       <defs>
        <path id="DejaVuSans-37" d="M 525 4666 
L 3525 4666 
L 3525 4397 
L 1831 0 
L 1172 0 
L 2766 4134 
L 525 4134 
L 525 4666 
z
" transform="scale(0.015625)"/>
       </defs>
       <use xlink:href="#DejaVuSans-32"/>
       <use xlink:href="#DejaVuSans-30" transform="translate(63.623047 0)"/>
       <use xlink:href="#DejaVuSans-32" transform="translate(127.246094 0)"/>
       <use xlink:href="#DejaVuSans-32" transform="translate(190.869141 0)"/>
       <use xlink:href="#DejaVuSans-2d" transform="translate(254.492188 0)"/>
       <use xlink:href="#DejaVuSans-31" transform="translate(290.576172 0)"/>
       <use xlink:href="#DejaVuSans-30" transform="translate(354.199219 0)"/>
       <use xlink:href="#DejaVuSans-2d" transform="translate(417.822266 0)"/>
       <use xlink:href="#DejaVuSans-32" transform="translate(453.90625 0)"/>
       <use xlink:href="#DejaVuSans-37" transform="translate(517.529297 0)"/>
       <use xlink:href="#DejaVuSans-20" transform="translate(581.152344 0)"/>
       <use xlink:href="#DejaVuSans-28" transform="translate(612.939453 0)"/>
       <use xlink:href="#DejaVuSans-30" transform="translate(651.953125 0)"/>
       <use xlink:href="#DejaVuSans-30" transform="translate(715.576172 0)"/>
       <use xlink:href="#DejaVuSans-3a" transform="translate(779.199219 0)"/>
       <use xlink:href="#DejaVuSans-30" transform="translate(812.890625 0)"/>
       <use xlink:href="#DejaVuSans-30" transform="translate(876.513672 0)"/>
       <use xlink:href="#DejaVuSans-29" transform="translate(940.136719 0)"/>
      </g>
     </g>
    </g>
    <g id="xtick_6">
     <g id="line2d_6">
      <g>
       <use xlink:href="#m9fe540ba37" x="858.089545" y="484.397187" style="stroke: #000000; stroke-width: 0.8"/>
      </g>
     </g>
     <g id="text_6">
      <!-- 2023-01-10 (00:00) -->
      <g transform="translate(772.252283 546.93544) rotate(-30) scale(0.1 -0.1)">
       <use xlink:href="#DejaVuSans-32"/>
       <use xlink:href="#DejaVuSans-30" transform="translate(63.623047 0)"/>
       <use xlink:href="#DejaVuSans-32" transform="translate(127.246094 0)"/>
       <use xlink:href="#DejaVuSans-33" transform="translate(190.869141 0)"/>
       <use xlink:href="#DejaVuSans-2d" transform="translate(254.492188 0)"/>
       <use xlink:href="#DejaVuSans-30" transform="translate(290.576172 0)"/>
       <use xlink:href="#DejaVuSans-31" transform="translate(354.199219 0)"/>
       <use xlink:href="#DejaVuSans-2d" transform="translate(417.822266 0)"/>
       <use xlink:href="#DejaVuSans-31" transform="translate(453.90625 0)"/>
       <use xlink:href="#DejaVuSans-30" transform="translate(517.529297 0)"/>
       <use xlink:href="#DejaVuSans-20" transform="translate(581.152344 0)"/>
       <use xlink:href="#DejaVuSans-28" transform="translate(612.939453 0)"/>
       <use xlink:href="#DejaVuSans-30" transform="translate(651.953125 0)"/>
       <use xlink:href="#DejaVuSans-30" transform="translate(715.576172 0)"/>
       <use xlink:href="#DejaVuSans-3a" transform="translate(779.199219 0)"/>
       <use xlink:href="#DejaVuSans-30" transform="translate(812.890625 0)"/>
       <use xlink:href="#DejaVuSans-30" transform="translate(876.513672 0)"/>
       <use xlink:href="#DejaVuSans-29" transform="translate(940.136719 0)"/>
      </g>
     </g>
    </g>
    <g id="text_7">
     <!-- Forecast Date -->
     <g transform="translate(422.12875 564.894002) scale(0.16 -0.16)">
      <defs>
       <path id="DejaVuSans-46" d="M 628 4666 
L 3309 4666 
L 3309 4134 
L 1259 4134 
L 1259 2759 
L 3109 2759 
L 3109 2228 
L 1259 2228 
L 1259 0 
L 628 0 
L 628 4666 
z
" transform="scale(0.015625)"/>
       <path id="DejaVuSans-6f" d="M 1959 3097 
Q 1497 3097 1228 2736 
Q 959 2375 959 1747 
Q 959 1119 1226 758 
Q 1494 397 1959 397 
Q 2419 397 2687 759 
Q 2956 1122 2956 1747 
Q 2956 2369 2687 2733 
Q 2419 3097 1959 3097 
z
M 1959 3584 
Q 2709 3584 3137 3096 
Q 3566 2609 3566 1747 
Q 3566 888 3137 398 
Q 2709 -91 1959 -91 
Q 1206 -91 779 398 
Q 353 888 353 1747 
Q 353 2609 779 3096 
Q 1206 3584 1959 3584 
z
" transform="scale(0.015625)"/>
       <path id="DejaVuSans-72" d="M 2631 2963 
Q 2534 3019 2420 3045 
Q 2306 3072 2169 3072 
Q 1681 3072 1420 2755 
Q 1159 2438 1159 1844 
L 1159 0 
L 581 0 
L 581 3500 
L 1159 3500 
L 1159 2956 
Q 1341 3275 1631 3429 
Q 1922 3584 2338 3584 
Q 2397 3584 2469 3576 
Q 2541 3569 2628 3553 
L 2631 2963 
z
" transform="scale(0.015625)"/>
       <path id="DejaVuSans-65" d="M 3597 1894 
L 3597 1613 
L 953 1613 
Q 991 1019 1311 708 
Q 1631 397 2203 397 
Q 2534 397 2845 478 
Q 3156 559 3463 722 
L 3463 178 
Q 3153 47 2828 -22 
Q 2503 -91 2169 -91 
Q 1331 -91 842 396 
Q 353 884 353 1716 
Q 353 2575 817 3079 
Q 1281 3584 2069 3584 
Q 2775 3584 3186 3129 
Q 3597 2675 3597 1894 
z
M 3022 2063 
Q 3016 2534 2758 2815 
Q 2500 3097 2075 3097 
Q 1594 3097 1305 2825 
Q 1016 2553 972 2059 
L 3022 2063 
z
" transform="scale(0.015625)"/>
       <path id="DejaVuSans-63" d="M 3122 3366 
L 3122 2828 
Q 2878 2963 2633 3030 
Q 2388 3097 2138 3097 
Q 1578 3097 1268 2742 
Q 959 2388 959 1747 
Q 959 1106 1268 751 
Q 1578 397 2138 397 
Q 2388 397 2633 464 
Q 2878 531 3122 666 
L 3122 134 
Q 2881 22 2623 -34 
Q 2366 -91 2075 -91 
Q 1284 -91 818 406 
Q 353 903 353 1747 
Q 353 2603 823 3093 
Q 1294 3584 2113 3584 
Q 2378 3584 2631 3529 
Q 2884 3475 3122 3366 
z
" transform="scale(0.015625)"/>
       <path id="DejaVuSans-61" d="M 2194 1759 
Q 1497 1759 1228 1600 
Q 959 1441 959 1056 
Q 959 750 1161 570 
Q 1363 391 1709 391 
Q 2188 391 2477 730 
Q 2766 1069 2766 1631 
L 2766 1759 
L 2194 1759 
z
M 3341 1997 
L 3341 0 
L 2766 0 
L 2766 531 
Q 2569 213 2275 61 
Q 1981 -91 1556 -91 
Q 1019 -91 701 211 
Q 384 513 384 1019 
Q 384 1609 779 1909 
Q 1175 2209 1959 2209 
L 2766 2209 
L 2766 2266 
Q 2766 2663 2505 2880 
Q 2244 3097 1772 3097 
Q 1472 3097 1187 3025 
Q 903 2953 641 2809 
L 641 3341 
Q 956 3463 1253 3523 
Q 1550 3584 1831 3584 
Q 2591 3584 2966 3190 
Q 3341 2797 3341 1997 
z
" transform="scale(0.015625)"/>
       <path id="DejaVuSans-73" d="M 2834 3397 
L 2834 2853 
Q 2591 2978 2328 3040 
Q 2066 3103 1784 3103 
Q 1356 3103 1142 2972 
Q 928 2841 928 2578 
Q 928 2378 1081 2264 
Q 1234 2150 1697 2047 
L 1894 2003 
Q 2506 1872 2764 1633 
Q 3022 1394 3022 966 
Q 3022 478 2636 193 
Q 2250 -91 1575 -91 
Q 1294 -91 989 -36 
Q 684 19 347 128 
L 347 722 
Q 666 556 975 473 
Q 1284 391 1588 391 
Q 1994 391 2212 530 
Q 2431 669 2431 922 
Q 2431 1156 2273 1281 
Q 2116 1406 1581 1522 
L 1381 1569 
Q 847 1681 609 1914 
Q 372 2147 372 2553 
Q 372 3047 722 3315 
Q 1072 3584 1716 3584 
Q 2034 3584 2315 3537 
Q 2597 3491 2834 3397 
z
" transform="scale(0.015625)"/>
       <path id="DejaVuSans-74" d="M 1172 4494 
L 1172 3500 
L 2356 3500 
L 2356 3053 
L 1172 3053 
L 1172 1153 
Q 1172 725 1289 603 
Q 1406 481 1766 481 
L 2356 481 
L 2356 0 
L 1766 0 
Q 1100 0 847 248 
Q 594 497 594 1153 
L 594 3053 
L 172 3053 
L 172 3500 
L 594 3500 
L 594 4494 
L 1172 4494 
z
" transform="scale(0.015625)"/>
       <path id="DejaVuSans-44" d="M 1259 4147 
L 1259 519 
L 2022 519 
Q 2988 519 3436 956 
Q 3884 1394 3884 2338 
Q 3884 3275 3436 3711 
Q 2988 4147 2022 4147 
L 1259 4147 
z
M 628 4666 
L 1925 4666 
Q 3281 4666 3915 4102 
Q 4550 3538 4550 2338 
Q 4550 1131 3912 565 
Q 3275 0 1925 0 
L 628 0 
L 628 4666 
z
" transform="scale(0.015625)"/>
      </defs>
      <use xlink:href="#DejaVuSans-46"/>
      <use xlink:href="#DejaVuSans-6f" transform="translate(53.894531 0)"/>
      <use xlink:href="#DejaVuSans-72" transform="translate(115.076172 0)"/>
      <use xlink:href="#DejaVuSans-65" transform="translate(153.939453 0)"/>
      <use xlink:href="#DejaVuSans-63" transform="translate(215.462891 0)"/>
      <use xlink:href="#DejaVuSans-61" transform="translate(270.443359 0)"/>
      <use xlink:href="#DejaVuSans-73" transform="translate(331.722656 0)"/>
      <use xlink:href="#DejaVuSans-74" transform="translate(383.822266 0)"/>
      <use xlink:href="#DejaVuSans-20" transform="translate(423.03125 0)"/>
      <use xlink:href="#DejaVuSans-44" transform="translate(454.818359 0)"/>
      <use xlink:href="#DejaVuSans-61" transform="translate(531.820312 0)"/>
      <use xlink:href="#DejaVuSans-74" transform="translate(593.099609 0)"/>
      <use xlink:href="#DejaVuSans-65" transform="translate(632.308594 0)"/>
     </g>
    </g>
   </g>
   <g id="matplotlib.axis_2">
    <g id="ytick_1">
     <g id="line2d_7">
      <defs>
       <path id="m410a728ed8" d="M 0 0 
L -3.5 0 
" style="stroke: #000000; stroke-width: 0.8"/>
      </defs>
      <g>
       <use xlink:href="#m410a728ed8" x="59.135" y="471.866035" style="stroke: #000000; stroke-width: 0.8"/>
      </g>
     </g>
     <g id="text_8">
      <!-- 0 -->
      <g transform="translate(45.7725 475.665254) scale(0.1 -0.1)">
       <use xlink:href="#DejaVuSans-30"/>
      </g>
     </g>
    </g>
    <g id="ytick_2">
     <g id="line2d_8">
      <g>
       <use xlink:href="#m410a728ed8" x="59.135" y="376.264942" style="stroke: #000000; stroke-width: 0.8"/>
      </g>
     </g>
     <g id="text_9">
      <!-- 500 -->
      <g transform="translate(33.0475 380.064161) scale(0.1 -0.1)">
       <use xlink:href="#DejaVuSans-35"/>
       <use xlink:href="#DejaVuSans-30" transform="translate(63.623047 0)"/>
       <use xlink:href="#DejaVuSans-30" transform="translate(127.246094 0)"/>
      </g>
     </g>
    </g>
    <g id="ytick_3">
     <g id="line2d_9">
      <g>
       <use xlink:href="#m410a728ed8" x="59.135" y="280.663848" style="stroke: #000000; stroke-width: 0.8"/>
      </g>
     </g>
     <g id="text_10">
      <!-- 1000 -->
      <g transform="translate(26.685 284.463067) scale(0.1 -0.1)">
       <use xlink:href="#DejaVuSans-31"/>
       <use xlink:href="#DejaVuSans-30" transform="translate(63.623047 0)"/>
       <use xlink:href="#DejaVuSans-30" transform="translate(127.246094 0)"/>
       <use xlink:href="#DejaVuSans-30" transform="translate(190.869141 0)"/>
      </g>
     </g>
    </g>
    <g id="ytick_4">
     <g id="line2d_10">
      <g>
       <use xlink:href="#m410a728ed8" x="59.135" y="185.062755" style="stroke: #000000; stroke-width: 0.8"/>
      </g>
     </g>
     <g id="text_11">
      <!-- 1500 -->
      <g transform="translate(26.685 188.861974) scale(0.1 -0.1)">
       <use xlink:href="#DejaVuSans-31"/>
       <use xlink:href="#DejaVuSans-35" transform="translate(63.623047 0)"/>
       <use xlink:href="#DejaVuSans-30" transform="translate(127.246094 0)"/>
       <use xlink:href="#DejaVuSans-30" transform="translate(190.869141 0)"/>
      </g>
     </g>
    </g>
    <g id="ytick_5">
     <g id="line2d_11">
      <g>
       <use xlink:href="#m410a728ed8" x="59.135" y="89.461661" style="stroke: #000000; stroke-width: 0.8"/>
      </g>
     </g>
     <g id="text_12">
      <!-- 2000 -->
      <g transform="translate(26.685 93.26088) scale(0.1 -0.1)">
       <use xlink:href="#DejaVuSans-32"/>
       <use xlink:href="#DejaVuSans-30" transform="translate(63.623047 0)"/>
       <use xlink:href="#DejaVuSans-30" transform="translate(127.246094 0)"/>
       <use xlink:href="#DejaVuSans-30" transform="translate(190.869141 0)"/>
      </g>
     </g>
    </g>
    <g id="text_13">
     <!-- Root Mean Squared Error (RMSE) -->
     <g transform="translate(19.3575 394.303437) rotate(-90) scale(0.16 -0.16)">
      <defs>
       <path id="DejaVuSans-52" d="M 2841 2188 
Q 3044 2119 3236 1894 
Q 3428 1669 3622 1275 
L 4263 0 
L 3584 0 
L 2988 1197 
Q 2756 1666 2539 1819 
Q 2322 1972 1947 1972 
L 1259 1972 
L 1259 0 
L 628 0 
L 628 4666 
L 2053 4666 
Q 2853 4666 3247 4331 
Q 3641 3997 3641 3322 
Q 3641 2881 3436 2590 
Q 3231 2300 2841 2188 
z
M 1259 4147 
L 1259 2491 
L 2053 2491 
Q 2509 2491 2742 2702 
Q 2975 2913 2975 3322 
Q 2975 3731 2742 3939 
Q 2509 4147 2053 4147 
L 1259 4147 
z
" transform="scale(0.015625)"/>
       <path id="DejaVuSans-4d" d="M 628 4666 
L 1569 4666 
L 2759 1491 
L 3956 4666 
L 4897 4666 
L 4897 0 
L 4281 0 
L 4281 4097 
L 3078 897 
L 2444 897 
L 1241 4097 
L 1241 0 
L 628 0 
L 628 4666 
z
" transform="scale(0.015625)"/>
       <path id="DejaVuSans-6e" d="M 3513 2113 
L 3513 0 
L 2938 0 
L 2938 2094 
Q 2938 2591 2744 2837 
Q 2550 3084 2163 3084 
Q 1697 3084 1428 2787 
Q 1159 2491 1159 1978 
L 1159 0 
L 581 0 
L 581 3500 
L 1159 3500 
L 1159 2956 
Q 1366 3272 1645 3428 
Q 1925 3584 2291 3584 
Q 2894 3584 3203 3211 
Q 3513 2838 3513 2113 
z
" transform="scale(0.015625)"/>
       <path id="DejaVuSans-53" d="M 3425 4513 
L 3425 3897 
Q 3066 4069 2747 4153 
Q 2428 4238 2131 4238 
Q 1616 4238 1336 4038 
Q 1056 3838 1056 3469 
Q 1056 3159 1242 3001 
Q 1428 2844 1947 2747 
L 2328 2669 
Q 3034 2534 3370 2195 
Q 3706 1856 3706 1288 
Q 3706 609 3251 259 
Q 2797 -91 1919 -91 
Q 1588 -91 1214 -16 
Q 841 59 441 206 
L 441 856 
Q 825 641 1194 531 
Q 1563 422 1919 422 
Q 2459 422 2753 634 
Q 3047 847 3047 1241 
Q 3047 1584 2836 1778 
Q 2625 1972 2144 2069 
L 1759 2144 
Q 1053 2284 737 2584 
Q 422 2884 422 3419 
Q 422 4038 858 4394 
Q 1294 4750 2059 4750 
Q 2388 4750 2728 4690 
Q 3069 4631 3425 4513 
z
" transform="scale(0.015625)"/>
       <path id="DejaVuSans-71" d="M 947 1747 
Q 947 1113 1208 752 
Q 1469 391 1925 391 
Q 2381 391 2643 752 
Q 2906 1113 2906 1747 
Q 2906 2381 2643 2742 
Q 2381 3103 1925 3103 
Q 1469 3103 1208 2742 
Q 947 2381 947 1747 
z
M 2906 525 
Q 2725 213 2448 61 
Q 2172 -91 1784 -91 
Q 1150 -91 751 415 
Q 353 922 353 1747 
Q 353 2572 751 3078 
Q 1150 3584 1784 3584 
Q 2172 3584 2448 3432 
Q 2725 3281 2906 2969 
L 2906 3500 
L 3481 3500 
L 3481 -1331 
L 2906 -1331 
L 2906 525 
z
" transform="scale(0.015625)"/>
       <path id="DejaVuSans-75" d="M 544 1381 
L 544 3500 
L 1119 3500 
L 1119 1403 
Q 1119 906 1312 657 
Q 1506 409 1894 409 
Q 2359 409 2629 706 
Q 2900 1003 2900 1516 
L 2900 3500 
L 3475 3500 
L 3475 0 
L 2900 0 
L 2900 538 
Q 2691 219 2414 64 
Q 2138 -91 1772 -91 
Q 1169 -91 856 284 
Q 544 659 544 1381 
z
M 1991 3584 
L 1991 3584 
z
" transform="scale(0.015625)"/>
       <path id="DejaVuSans-64" d="M 2906 2969 
L 2906 4863 
L 3481 4863 
L 3481 0 
L 2906 0 
L 2906 525 
Q 2725 213 2448 61 
Q 2172 -91 1784 -91 
Q 1150 -91 751 415 
Q 353 922 353 1747 
Q 353 2572 751 3078 
Q 1150 3584 1784 3584 
Q 2172 3584 2448 3432 
Q 2725 3281 2906 2969 
z
M 947 1747 
Q 947 1113 1208 752 
Q 1469 391 1925 391 
Q 2381 391 2643 752 
Q 2906 1113 2906 1747 
Q 2906 2381 2643 2742 
Q 2381 3103 1925 3103 
Q 1469 3103 1208 2742 
Q 947 2381 947 1747 
z
" transform="scale(0.015625)"/>
       <path id="DejaVuSans-45" d="M 628 4666 
L 3578 4666 
L 3578 4134 
L 1259 4134 
L 1259 2753 
L 3481 2753 
L 3481 2222 
L 1259 2222 
L 1259 531 
L 3634 531 
L 3634 0 
L 628 0 
L 628 4666 
z
" transform="scale(0.015625)"/>
      </defs>
      <use xlink:href="#DejaVuSans-52"/>
      <use xlink:href="#DejaVuSans-6f" transform="translate(64.982422 0)"/>
      <use xlink:href="#DejaVuSans-6f" transform="translate(126.164062 0)"/>
      <use xlink:href="#DejaVuSans-74" transform="translate(187.345703 0)"/>
      <use xlink:href="#DejaVuSans-20" transform="translate(226.554688 0)"/>
      <use xlink:href="#DejaVuSans-4d" transform="translate(258.341797 0)"/>
      <use xlink:href="#DejaVuSans-65" transform="translate(344.621094 0)"/>
      <use xlink:href="#DejaVuSans-61" transform="translate(406.144531 0)"/>
      <use xlink:href="#DejaVuSans-6e" transform="translate(467.423828 0)"/>
      <use xlink:href="#DejaVuSans-20" transform="translate(530.802734 0)"/>
      <use xlink:href="#DejaVuSans-53" transform="translate(562.589844 0)"/>
      <use xlink:href="#DejaVuSans-71" transform="translate(626.066406 0)"/>
      <use xlink:href="#DejaVuSans-75" transform="translate(689.542969 0)"/>
      <use xlink:href="#DejaVuSans-61" transform="translate(752.921875 0)"/>
      <use xlink:href="#DejaVuSans-72" transform="translate(814.201172 0)"/>
      <use xlink:href="#DejaVuSans-65" transform="translate(853.064453 0)"/>
      <use xlink:href="#DejaVuSans-64" transform="translate(914.587891 0)"/>
      <use xlink:href="#DejaVuSans-20" transform="translate(978.064453 0)"/>
      <use xlink:href="#DejaVuSans-45" transform="translate(1009.851562 0)"/>
      <use xlink:href="#DejaVuSans-72" transform="translate(1073.035156 0)"/>
      <use xlink:href="#DejaVuSans-72" transform="translate(1112.398438 0)"/>
      <use xlink:href="#DejaVuSans-6f" transform="translate(1151.261719 0)"/>
      <use xlink:href="#DejaVuSans-72" transform="translate(1212.443359 0)"/>
      <use xlink:href="#DejaVuSans-20" transform="translate(1253.556641 0)"/>
      <use xlink:href="#DejaVuSans-28" transform="translate(1285.34375 0)"/>
      <use xlink:href="#DejaVuSans-52" transform="translate(1324.357422 0)"/>
      <use xlink:href="#DejaVuSans-4d" transform="translate(1393.839844 0)"/>
      <use xlink:href="#DejaVuSans-53" transform="translate(1480.119141 0)"/>
      <use xlink:href="#DejaVuSans-45" transform="translate(1543.595703 0)"/>
      <use xlink:href="#DejaVuSans-29" transform="translate(1606.779297 0)"/>
     </g>
    </g>
   </g>
   <g id="line2d_12">
    <path d="M 97.180455 138.630732 
L 100.236314 256.509121 
L 103.292174 272.871706 
L 106.348034 220.167238 
L 109.403894 232.073239 
L 112.459754 246.233521 
L 115.515613 231.662686 
L 118.571473 249.734981 
L 121.627333 250.14502 
L 127.739053 233.468044 
L 130.794912 250.519442 
L 133.850772 244.80779 
L 136.906632 235.71705 
L 139.962492 212.679474 
L 143.018352 264.117647 
L 146.074211 278.133279 
L 149.130071 291.245134 
L 152.185931 282.717801 
L 155.241791 283.50609 
L 158.297651 282.261257 
L 161.35351 256.322774 
L 164.40937 266.358368 
L 167.46523 244.747409 
L 170.52109 266.226006 
L 173.57695 269.107413 
L 176.632809 256.437444 
L 179.688669 272.317985 
L 182.744529 249.320694 
L 185.800389 264.461914 
L 188.856249 272.693014 
L 191.912108 240.576368 
L 194.967968 253.321305 
L 198.023828 249.5484 
L 201.079688 253.032752 
L 204.135548 251.531539 
L 207.191407 272.543497 
L 210.247267 248.497791 
L 213.303127 260.25878 
L 216.358987 280.10644 
L 219.414847 277.098261 
L 222.470706 280.260881 
L 225.526566 267.029816 
L 228.582426 259.142702 
L 231.638286 255.270788 
L 234.694146 275.34347 
L 237.750005 285.342735 
L 240.805865 258.163491 
L 243.861725 227.209183 
L 246.917585 214.642751 
L 249.973445 228.398338 
L 253.029304 247.565797 
L 256.085164 237.347287 
L 259.141024 255.526853 
L 262.196884 256.633267 
L 265.252744 259.400331 
L 268.308604 256.55062 
L 271.364463 235.528392 
L 274.420323 217.21063 
L 277.476183 218.717211 
L 280.532043 214.282333 
L 283.587903 257.099953 
L 286.643762 238.790009 
L 289.699622 243.21317 
L 292.755482 238.005035 
L 295.811342 247.105671 
L 298.867202 226.480318 
L 301.923061 225.398387 
L 304.978921 263.383787 
L 308.034781 279.693133 
L 311.090641 271.7265 
L 314.146501 264.194226 
L 317.20236 258.204687 
L 320.25822 239.118498 
L 323.31408 230.248952 
L 326.36994 253.413079 
L 329.4258 255.469319 
L 332.481659 267.259553 
L 335.537519 272.44024 
L 338.593379 238.4358 
L 341.649239 254.453277 
L 344.705099 279.403074 
L 347.760958 279.566851 
L 350.816818 275.221495 
L 353.872678 272.799001 
L 356.928538 253.285432 
L 359.984398 270.469798 
L 363.040257 272.264793 
L 366.096117 288.242406 
L 369.151977 245.734252 
L 372.207837 237.647277 
L 375.263697 263.716874 
L 378.319556 270.752074 
L 381.375416 243.528635 
L 384.431276 231.963424 
L 387.487136 238.523652 
L 390.542996 245.471559 
L 393.598855 267.098786 
L 396.654715 267.015228 
L 399.710575 274.315128 
L 402.766435 251.860355 
L 405.822295 252.031858 
L 408.878154 282.363895 
L 411.934014 282.26966 
L 414.989874 280.780059 
L 418.045734 289.158353 
L 424.157453 292.784963 
L 427.213313 311.953671 
L 430.269173 300.060496 
L 433.325033 282.77635 
L 436.380893 284.435108 
L 439.436752 247.000827 
L 442.492612 250.74304 
L 445.548472 280.812525 
L 448.604332 280.246445 
L 451.660192 281.175125 
L 454.716051 275.990225 
L 457.771911 273.920097 
L 460.827771 293.836085 
L 463.883631 272.615618 
L 466.939491 268.277135 
L 469.99535 273.964536 
L 473.05121 300.095027 
L 476.10707 263.879088 
L 479.16293 253.408714 
L 482.21879 267.711137 
L 485.27465 240.166819 
L 488.330509 260.927848 
L 491.386369 277.164326 
L 494.442229 230.179119 
L 497.498089 225.295784 
L 500.553949 240.188595 
L 503.609808 264.33387 
L 506.665668 269.864823 
L 509.721528 288.907692 
L 512.777388 289.07748 
L 515.833248 302.75056 
L 518.889107 274.919707 
L 521.944967 279.759139 
L 525.000827 281.510079 
L 528.056687 281.38528 
L 531.112547 294.219026 
L 534.168406 286.308736 
L 537.224266 282.706808 
L 540.280126 284.292839 
L 543.335986 281.881805 
L 546.391846 241.929301 
L 549.447705 266.398303 
L 552.503565 269.64888 
L 555.559425 268.795729 
L 558.615285 290.698322 
L 561.671145 267.783865 
L 564.727004 254.040531 
L 567.782864 259.813707 
L 570.838724 240.38925 
L 573.894584 256.184437 
L 576.950444 278.402974 
L 580.006303 266.960309 
L 583.062163 257.283313 
L 586.118023 256.533138 
L 589.173883 263.750064 
L 592.229743 266.749875 
L 595.285602 244.54491 
L 598.341462 220.364532 
L 601.397322 241.35385 
L 604.453182 224.474632 
L 607.509042 245.877491 
L 610.564901 276.886858 
L 613.620761 275.062945 
L 616.676621 249.574167 
L 619.732481 234.462379 
L 622.788341 281.263701 
L 625.8442 289.878232 
L 628.90006 267.709783 
L 631.95592 278.609802 
L 635.01178 270.156341 
L 638.06764 254.421208 
L 641.123499 271.14148 
L 644.179359 259.101717 
L 647.235219 251.626347 
L 650.291079 259.521606 
L 653.346939 272.47392 
L 656.402798 286.320429 
L 659.458658 233.22442 
L 662.514518 238.38004 
L 665.570378 226.678966 
L 668.626238 231.174971 
L 671.682097 272.058536 
L 674.737957 228.854357 
L 677.793817 232.27268 
L 680.849677 227.726353 
L 683.905537 227.328101 
L 686.961396 234.716016 
L 690.017256 248.419252 
L 693.073116 242.988498 
L 696.128976 243.564999 
L 699.184836 273.577581 
L 702.240696 270.277056 
L 705.296555 286.560681 
L 708.352415 287.473407 
L 711.408275 260.83269 
L 714.464135 232.980656 
L 717.519995 251.452953 
L 720.575854 267.987344 
L 723.631714 264.031079 
L 726.687574 254.491905 
L 735.855153 282.893693 
L 738.911013 288.30959 
L 741.966873 269.218488 
L 745.022733 260.787293 
L 748.078593 253.662468 
L 751.134452 256.806801 
L 754.190312 261.501384 
L 757.246172 271.573529 
L 760.302032 283.488492 
L 763.357892 282.973154 
L 766.413751 265.161393 
L 769.469611 231.76837 
L 772.525471 232.202333 
L 775.581331 244.751587 
L 778.637191 266.240453 
L 781.69305 251.425202 
L 784.74891 245.54389 
L 787.80477 157.414783 
L 790.86063 240.921965 
L 793.91649 235.319988 
L 796.972349 198.005126 
L 800.028209 232.044787 
L 803.084069 234.800881 
L 806.139929 247.545375 
L 809.195789 261.382093 
L 812.251648 278.059921 
L 815.307508 273.998169 
L 818.363368 263.350644 
L 821.419228 235.443574 
L 824.475088 212.946368 
L 827.530947 238.276877 
L 830.586807 231.939803 
L 833.642667 256.304778 
L 836.698527 272.412349 
L 839.754387 281.264833 
L 842.810246 270.182388 
L 845.866106 273.406124 
L 848.921966 288.925676 
L 851.977826 282.64833 
L 855.033686 269.203901 
L 858.089545 290.272062 
L 858.089545 290.272062 
" clip-path="url(#p2b6572d33d)" style="fill: none; stroke: #0000ff; stroke-width: 2; stroke-linecap: square"/>
   </g>
   <g id="line2d_13">
    <path d="M 97.180455 341.045497 
L 100.236314 417.904627 
L 103.292174 415.610516 
L 106.348034 369.029321 
L 109.403894 442.396377 
L 112.459754 369.975634 
L 115.515613 348.347229 
L 118.571473 412.656376 
L 121.627333 417.52989 
L 124.683193 432.638376 
L 127.739053 410.80795 
L 130.794912 396.897886 
L 133.850772 386.855931 
L 136.906632 381.483925 
L 139.962492 392.084665 
L 143.018352 385.783383 
L 146.074211 323.129383 
L 149.130071 412.780954 
L 152.185931 418.326791 
L 155.241791 337.867682 
L 158.297651 419.526316 
L 161.35351 425.866097 
L 164.40937 399.296315 
L 167.46523 396.23103 
L 170.52109 431.025559 
L 173.57695 439.17709 
L 176.632809 408.652806 
L 179.688669 399.813019 
L 182.744529 410.606262 
L 185.800389 417.912645 
L 188.856249 433.443752 
L 191.912108 404.438579 
L 194.967968 401.607856 
L 201.079688 424.317504 
L 204.135548 364.278546 
L 207.191407 422.027903 
L 210.247267 417.999324 
L 213.303127 403.03878 
L 216.358987 397.027727 
L 219.414847 375.317193 
L 222.470706 411.678022 
L 225.526566 371.39658 
L 228.582426 395.231227 
L 231.638286 400.157134 
L 234.694146 441.748097 
L 237.750005 368.110572 
L 240.805865 363.464268 
L 243.861725 309.823547 
L 246.917585 315.543333 
L 249.973445 379.423944 
L 253.029304 298.021165 
L 256.085164 396.402072 
L 259.141024 413.741726 
L 262.196884 405.39595 
L 265.252744 315.79529 
L 268.308604 436.682178 
L 271.364463 312.750654 
L 274.420323 341.323536 
L 277.476183 379.482423 
L 280.532043 403.186418 
L 283.587903 374.856197 
L 286.643762 381.789639 
L 289.699622 359.502319 
L 292.755482 362.927516 
L 295.811342 328.347099 
L 298.867202 361.501528 
L 301.923061 370.125256 
L 304.978921 374.189889 
L 308.034781 307.960691 
L 311.090641 338.386533 
L 314.146501 383.685574 
L 317.20236 280.092342 
L 320.25822 371.477395 
L 323.31408 274.421629 
L 326.36994 313.72871 
L 329.4258 369.379539 
L 332.481659 353.724662 
L 335.537519 366.677373 
L 338.593379 351.293416 
L 341.649239 193.508911 
L 344.705099 355.364375 
L 347.760958 375.508763 
L 350.816818 416.5133 
L 353.872678 194.111179 
L 356.928538 316.186902 
L 359.984398 334.785364 
L 363.040257 386.192495 
L 366.096117 413.54669 
L 369.151977 389.077472 
L 372.207837 230.220197 
L 375.263697 360.046342 
L 378.319556 222.524823 
L 381.375416 259.113271 
L 384.431276 165.894292 
L 387.487136 299.903837 
L 390.542996 303.520912 
L 393.598855 420.545281 
L 396.654715 355.810894 
L 399.710575 234.241955 
L 402.766435 295.028228 
L 405.822295 199.204014 
L 408.878154 368.15514 
L 411.934014 360.779992 
L 414.989874 310.666394 
L 418.045734 416.798522 
L 421.101594 288.062547 
L 424.157453 371.850673 
L 427.213313 361.886337 
L 430.269173 299.214358 
L 433.325033 118.881194 
L 436.380893 173.81777 
L 439.436752 285.388622 
L 442.492612 362.94145 
L 445.548472 207.03035 
L 448.604332 299.154456 
L 451.660192 346.99698 
L 454.716051 267.775766 
L 457.771911 329.970719 
L 460.827771 419.94268 
L 463.883631 384.288677 
L 466.939491 246.096678 
L 469.99535 328.221086 
L 473.05121 379.60109 
L 476.10707 320.01657 
L 479.16293 356.241764 
L 482.21879 401.320819 
L 485.27465 184.825689 
L 488.330509 335.185775 
L 491.386369 360.256042 
L 494.442229 343.635981 
L 497.498089 402.82342 
L 500.553949 370.528818 
L 503.609808 319.277506 
L 506.665668 316.293788 
L 509.721528 399.543499 
L 512.777388 265.261009 
L 515.833248 325.540825 
L 518.889107 400.714962 
L 521.944967 430.486811 
L 525.000827 267.659369 
L 528.056687 300.13977 
L 531.112547 228.681384 
L 534.168406 314.588221 
L 540.280126 417.764108 
L 543.335986 302.248211 
L 546.391846 285.242081 
L 549.447705 368.439213 
L 552.503565 304.54776 
L 555.559425 210.823982 
L 558.615285 248.398176 
L 561.671145 333.416782 
L 564.727004 268.688761 
L 567.782864 287.025639 
L 570.838724 61.037187 
L 573.894584 361.140293 
L 576.950444 371.057308 
L 580.006303 292.691988 
L 583.062163 420.829563 
L 586.118023 437.598665 
L 589.173883 285.26297 
L 592.229743 274.231267 
L 595.285602 340.031649 
L 598.341462 387.864411 
L 601.397322 314.064317 
L 604.453182 207.025962 
L 607.509042 366.24942 
L 610.564901 431.596861 
L 613.620761 330.9384 
L 616.676621 248.566621 
L 619.732481 358.196592 
L 622.788341 400.991928 
L 625.8442 293.13538 
L 628.90006 306.231913 
L 631.95592 242.946813 
L 635.01178 317.286944 
L 638.06764 380.464522 
L 641.123499 427.332182 
L 644.179359 424.700208 
L 647.235219 291.775468 
L 650.291079 410.00435 
L 653.346939 394.97616 
L 656.402798 332.759361 
L 659.458658 252.057322 
L 662.514518 406.378394 
L 665.570378 411.28931 
L 668.626238 278.42664 
L 671.682097 440.830883 
L 674.737957 398.748541 
L 677.793817 426.336155 
L 680.849677 423.048108 
L 683.905537 395.305197 
L 686.961396 356.780221 
L 690.017256 407.4822 
L 693.073116 440.716831 
L 696.128976 395.087323 
L 699.184836 413.696376 
L 702.240696 354.246255 
L 705.296555 417.881328 
L 708.352415 402.463113 
L 711.408275 383.053915 
L 714.464135 364.454309 
L 717.519995 368.510213 
L 720.575854 403.460909 
L 723.631714 412.953349 
L 726.687574 336.51748 
L 729.743434 391.314517 
L 732.799294 308.415135 
L 735.855153 403.695961 
L 738.911013 414.588849 
L 741.966873 352.083397 
L 745.022733 376.693647 
L 748.078593 400.006643 
L 751.134452 421.883002 
L 754.190312 350.138209 
L 757.246172 311.302972 
L 760.302032 419.242173 
L 763.357892 386.291883 
L 766.413751 382.415038 
L 769.469611 355.358364 
L 772.525471 393.82565 
L 775.581331 391.374122 
L 778.637191 410.465615 
L 781.69305 287.824256 
L 784.74891 392.725998 
L 787.80477 373.562717 
L 790.86063 282.939322 
L 793.91649 352.751718 
L 796.972349 416.349446 
L 800.028209 431.389146 
L 803.084069 385.284418 
L 806.139929 383.08501 
L 809.195789 386.275346 
L 812.251648 373.41774 
L 815.307508 413.251047 
L 818.363368 334.961022 
L 821.419228 238.373038 
L 824.475088 334.163292 
L 827.530947 359.222553 
L 830.586807 306.587184 
L 833.642667 402.425431 
L 836.698527 388.606411 
L 839.754387 353.352667 
L 845.866106 405.226402 
L 848.921966 298.267707 
L 851.977826 296.876344 
L 855.033686 394.755147 
L 858.089545 391.175818 
L 858.089545 391.175818 
" clip-path="url(#p2b6572d33d)" style="fill: none; stroke: #ffa500; stroke-width: 2; stroke-linecap: square"/>
   </g>
   <g id="line2d_14">
    <path d="M 97.180455 351.148859 
L 100.236314 371.345512 
L 103.292174 362.81148 
L 106.348034 341.302833 
L 109.403894 349.950087 
L 112.459754 347.932522 
L 115.515613 354.033755 
L 118.571473 362.436008 
L 121.627333 356.408016 
L 124.683193 354.001674 
L 127.739053 354.868467 
L 130.794912 345.123633 
L 133.850772 349.04183 
L 136.906632 349.541822 
L 139.962492 354.120055 
L 143.018352 363.124343 
L 146.074211 378.460167 
L 149.130071 377.606794 
L 152.185931 374.153753 
L 155.241791 359.63223 
L 158.297651 371.090381 
L 161.35351 371.30099 
L 164.40937 370.138746 
L 167.46523 357.535297 
L 170.52109 368.295835 
L 173.57695 363.998535 
L 176.632809 369.436851 
L 179.688669 366.440821 
L 182.744529 367.809893 
L 185.800389 364.612438 
L 188.856249 357.412131 
L 191.912108 355.022302 
L 194.967968 366.261884 
L 198.023828 352.51219 
L 201.079688 351.80062 
L 204.135548 352.452906 
L 207.191407 358.198879 
L 210.247267 345.45512 
L 213.303127 365.598033 
L 216.358987 364.393987 
L 219.414847 372.155659 
L 222.470706 376.101474 
L 225.526566 370.958789 
L 228.582426 359.570601 
L 231.638286 351.700794 
L 234.694146 369.626828 
L 237.750005 373.513843 
L 240.805865 355.351047 
L 243.861725 332.11396 
L 246.917585 350.865825 
L 249.973445 352.899239 
L 253.029304 352.957297 
L 256.085164 353.694028 
L 259.141024 348.845202 
L 262.196884 362.341784 
L 265.252744 364.71035 
L 268.308604 355.840583 
L 271.364463 351.820961 
L 274.420323 349.157901 
L 277.476183 350.259659 
L 283.587903 360.88032 
L 286.643762 363.055595 
L 289.699622 362.699973 
L 292.755482 358.802069 
L 295.811342 350.197388 
L 298.867202 347.173198 
L 301.923061 364.947206 
L 304.978921 367.972994 
L 308.034781 368.213106 
L 311.090641 365.445622 
L 314.146501 354.284439 
L 320.25822 344.707817 
L 323.31408 361.246281 
L 326.36994 367.764439 
L 329.4258 366.611355 
L 332.481659 363.72758 
L 335.537519 361.222019 
L 338.593379 360.301508 
L 341.649239 370.819916 
L 344.705099 377.185388 
L 347.760958 375.056689 
L 350.816818 380.813649 
L 353.872678 372.902834 
L 356.928538 368.353695 
L 359.984398 365.460781 
L 363.040257 376.635093 
L 366.096117 366.575225 
L 369.151977 363.746228 
L 372.207837 353.273544 
L 375.263697 373.45226 
L 378.319556 367.520441 
L 381.375416 355.521792 
L 384.431276 355.805899 
L 387.487136 367.715844 
L 390.542996 373.669487 
L 393.598855 369.609883 
L 396.654715 370.479022 
L 399.710575 367.166418 
L 402.766435 366.361756 
L 405.822295 358.697856 
L 408.878154 379.553972 
L 411.934014 371.86721 
L 414.989874 379.767091 
L 418.045734 368.858285 
L 421.101594 378.37976 
L 424.157453 384.454952 
L 427.213313 393.273202 
L 430.269173 390.22339 
L 433.325033 371.250506 
L 436.380893 380.213523 
L 439.436752 368.249878 
L 442.492612 364.73984 
L 445.548472 370.23283 
L 448.604332 379.949814 
L 451.660192 383.345386 
L 454.716051 374.087514 
L 457.771911 369.141412 
L 460.827771 373.568996 
L 463.883631 374.012989 
L 466.939491 370.705363 
L 469.99535 362.604897 
L 473.05121 365.510076 
L 476.10707 366.216896 
L 479.16293 364.320454 
L 482.21879 364.186948 
L 485.27465 365.270664 
L 488.330509 370.283828 
L 491.386369 370.75978 
L 494.442229 352.189723 
L 497.498089 363.809445 
L 500.553949 362.791828 
L 503.609808 380.818597 
L 506.665668 382.945669 
L 509.721528 376.386509 
L 512.777388 379.969362 
L 515.833248 380.589672 
L 518.889107 371.229745 
L 521.944967 380.638797 
L 525.000827 380.000637 
L 528.056687 387.295303 
L 531.112547 379.168784 
L 534.168406 387.347177 
L 537.224266 377.867106 
L 540.280126 376.751612 
L 543.335986 368.273813 
L 546.391846 356.944477 
L 549.447705 370.172484 
L 552.503565 372.71532 
L 555.559425 379.911846 
L 558.615285 380.595548 
L 561.671145 362.180142 
L 564.727004 366.296777 
L 567.782864 360.219421 
L 570.838724 360.525305 
L 573.894584 365.935776 
L 576.950444 364.637669 
L 580.006303 362.921599 
L 583.062163 366.262211 
L 586.118023 367.216518 
L 589.173883 370.365939 
L 592.229743 367.64782 
L 595.285602 351.041763 
L 598.341462 362.862513 
L 601.397322 354.863309 
L 604.453182 350.840408 
L 607.509042 371.733588 
L 610.564901 381.340412 
L 613.620761 368.880866 
L 616.676621 361.491165 
L 619.732481 353.515359 
L 622.788341 373.782383 
L 625.8442 382.330231 
L 628.90006 375.22329 
L 631.95592 365.783668 
L 635.01178 362.023203 
L 638.06764 364.695669 
L 641.123499 361.508495 
L 644.179359 361.241893 
L 647.235219 362.361541 
L 650.291079 365.484226 
L 653.346939 385.332908 
L 656.402798 373.144264 
L 659.458658 347.370678 
L 662.514518 358.913017 
L 665.570378 349.12009 
L 671.682097 361.547742 
L 674.737957 349.893394 
L 677.793817 353.195086 
L 680.849677 348.050109 
L 683.905537 345.708687 
L 686.961396 352.911387 
L 690.017256 360.658857 
L 693.073116 349.132787 
L 696.128976 368.348677 
L 699.184836 356.698157 
L 702.240696 363.930767 
L 705.296555 369.979322 
L 708.352415 372.954614 
L 711.408275 359.058379 
L 714.464135 342.874323 
L 717.519995 364.464217 
L 720.575854 369.180226 
L 723.631714 361.877222 
L 726.687574 360.647677 
L 729.743434 364.51553 
L 732.799294 370.028663 
L 735.855153 372.874557 
L 738.911013 366.346982 
L 741.966873 357.150266 
L 745.022733 349.534984 
L 748.078593 353.062013 
L 751.134452 359.417583 
L 754.190312 374.332031 
L 757.246172 368.386639 
L 760.302032 364.91544 
L 763.357892 373.913636 
L 766.413751 354.778363 
L 769.469611 356.299519 
L 772.525471 348.007677 
L 775.581331 366.60321 
L 778.637191 351.706011 
L 781.69305 340.952346 
L 784.74891 342.408291 
L 787.80477 326.4272 
L 790.86063 367.424852 
L 793.91649 346.415753 
L 796.972349 334.671884 
L 800.028209 351.3121 
L 803.084069 356.674117 
L 806.139929 356.173028 
L 809.195789 372.101043 
L 812.251648 375.782187 
L 815.307508 376.360689 
L 818.363368 367.51757 
L 821.419228 345.664026 
L 824.475088 349.450049 
L 827.530947 353.804567 
L 830.586807 350.720218 
L 833.642667 350.418512 
L 836.698527 363.62116 
L 839.754387 372.582678 
L 842.810246 376.221844 
L 845.866106 374.283314 
L 848.921966 382.860793 
L 851.977826 368.440065 
L 855.033686 381.913616 
L 858.089545 371.164416 
L 858.089545 371.164416 
" clip-path="url(#p2b6572d33d)" style="fill: none; stroke-dasharray: 7.4,3.2; stroke-dashoffset: 0; stroke: #0000ff; stroke-width: 2"/>
   </g>
   <g id="line2d_15">
    <path d="M 97.180455 429.506273 
L 100.236314 449.316288 
L 103.292174 439.710274 
L 106.348034 447.976554 
L 109.403894 461.974643 
L 112.459754 450.051722 
L 115.515613 442.440399 
L 118.571473 450.643547 
L 121.627333 461.493863 
L 124.683193 456.390344 
L 127.739053 458.367818 
L 130.794912 450.812151 
L 133.850772 442.547904 
L 136.906632 454.742964 
L 139.962492 450.855618 
L 143.018352 442.757163 
L 146.074211 440.956073 
L 149.130071 444.69847 
L 152.185931 451.574508 
L 155.241791 451.520181 
L 158.297651 446.416831 
L 161.35351 450.274866 
L 164.40937 429.498851 
L 167.46523 440.623022 
L 170.52109 459.808074 
L 173.57695 451.848299 
L 176.632809 444.44743 
L 179.688669 464.237187 
L 182.744529 462.512268 
L 185.800389 457.349578 
L 188.856249 456.695935 
L 191.912108 439.164577 
L 194.967968 453.926586 
L 198.023828 434.00563 
L 201.079688 438.957751 
L 204.135548 449.925545 
L 207.191407 437.634221 
L 210.247267 449.82015 
L 213.303127 441.083213 
L 216.358987 438.668471 
L 219.414847 452.521634 
L 222.470706 435.759864 
L 225.526566 442.058864 
L 228.582426 443.545399 
L 231.638286 451.966417 
L 234.694146 451.733385 
L 237.750005 457.174293 
L 240.805865 444.568974 
L 243.861725 362.986601 
L 246.917585 438.001746 
L 249.973445 418.984317 
L 253.029304 452.776016 
L 256.085164 432.60202 
L 259.141024 439.466887 
L 262.196884 429.703809 
L 265.252744 438.077071 
L 268.308604 436.812792 
L 271.364463 438.728376 
L 274.420323 446.660586 
L 277.476183 429.164626 
L 280.532043 432.330155 
L 283.587903 446.995417 
L 286.643762 398.083686 
L 289.699622 421.435542 
L 292.755482 426.749747 
L 295.811342 438.578384 
L 298.867202 444.199348 
L 301.923061 440.706836 
L 304.978921 434.076832 
L 308.034781 437.291973 
L 311.090641 434.765675 
L 314.146501 429.909531 
L 317.20236 437.455273 
L 320.25822 441.421236 
L 323.31408 430.62745 
L 326.36994 433.498855 
L 329.4258 401.144572 
L 332.481659 435.106385 
L 335.537519 445.820797 
L 338.593379 426.92986 
L 341.649239 409.651307 
L 344.705099 451.063192 
L 347.760958 434.567234 
L 350.816818 440.419397 
L 353.872678 424.723172 
L 356.928538 413.647385 
L 359.984398 434.249447 
L 363.040257 442.483001 
L 366.096117 442.931186 
L 369.151977 414.035794 
L 372.207837 450.933851 
L 375.263697 442.317368 
L 378.319556 420.296376 
L 381.375416 359.289364 
L 384.431276 424.469065 
L 387.487136 411.486727 
L 390.542996 424.886524 
L 393.598855 430.158016 
L 396.654715 438.794858 
L 399.710575 383.153157 
L 402.766435 388.629757 
L 405.822295 441.070933 
L 408.878154 457.922337 
L 411.934014 441.439777 
L 414.989874 437.315445 
L 418.045734 453.632729 
L 421.101594 414.302665 
L 424.157453 455.829748 
L 427.213313 431.634631 
L 430.269173 430.734202 
L 433.325033 354.03966 
L 436.380893 386.606537 
L 439.436752 416.233254 
L 442.492612 423.018755 
L 445.548472 404.610363 
L 448.604332 416.96646 
L 451.660192 421.288389 
L 454.716051 433.662636 
L 457.771911 450.835089 
L 460.827771 444.239572 
L 463.883631 447.719247 
L 466.939491 393.174776 
L 469.99535 404.877502 
L 473.05121 419.186699 
L 476.10707 430.804981 
L 479.16293 431.73331 
L 482.21879 443.281087 
L 485.27465 327.330206 
L 488.330509 444.947997 
L 491.386369 441.767968 
L 494.442229 445.457823 
L 497.498089 453.27688 
L 500.553949 434.480012 
L 503.609808 403.205463 
L 506.665668 437.22581 
L 509.721528 449.335619 
L 512.777388 389.70573 
L 515.833248 444.568559 
L 518.889107 434.931906 
L 521.944967 445.055139 
L 525.000827 400.470037 
L 528.056687 417.381593 
L 531.112547 427.360966 
L 534.168406 416.165591 
L 537.224266 420.782941 
L 540.280126 431.825369 
L 543.335986 372.053721 
L 546.391846 433.943595 
L 549.447705 447.505215 
L 552.503565 408.247919 
L 555.559425 394.156736 
L 558.615285 410.632946 
L 561.671145 433.562279 
L 564.727004 378.742086 
L 567.782864 377.552896 
L 570.838724 415.835643 
L 573.894584 437.728156 
L 576.950444 415.973116 
L 580.006303 437.683174 
L 583.062163 444.045968 
L 586.118023 451.165258 
L 589.173883 362.548402 
L 592.229743 448.796339 
L 595.285602 416.812164 
L 598.341462 424.799436 
L 601.397322 375.527529 
L 604.453182 439.312293 
L 607.509042 433.127278 
L 610.564901 441.790622 
L 616.676621 422.065801 
L 619.732481 444.006862 
L 622.788341 440.676275 
L 625.8442 441.06656 
L 628.90006 387.889081 
L 631.95592 404.104833 
L 635.01178 430.007674 
L 638.06764 436.105033 
L 641.123499 435.153914 
L 644.179359 417.342732 
L 647.235219 414.525604 
L 650.291079 448.318958 
L 653.346939 450.345858 
L 656.402798 439.684466 
L 659.458658 436.804717 
L 662.514518 451.223502 
L 665.570378 418.312356 
L 668.626238 453.88812 
L 671.682097 454.829264 
L 674.737957 447.49877 
L 677.793817 456.911398 
L 680.849677 445.822297 
L 683.905537 445.218112 
L 686.961396 425.055083 
L 690.017256 455.792533 
L 693.073116 449.456235 
L 696.128976 452.905473 
L 699.184836 442.991734 
L 702.240696 423.887742 
L 705.296555 451.164904 
L 708.352415 440.678101 
L 711.408275 438.744201 
L 714.464135 442.761734 
L 717.519995 451.337101 
L 720.575854 438.889925 
L 726.687574 441.608858 
L 729.743434 430.881761 
L 732.799294 430.366849 
L 735.855153 432.63823 
L 738.911013 434.257126 
L 741.966873 415.074522 
L 745.022733 439.360289 
L 748.078593 448.726235 
L 751.134452 453.690944 
L 754.190312 408.344821 
L 757.246172 440.947551 
L 760.302032 439.929053 
L 763.357892 439.978581 
L 766.413751 433.722667 
L 769.469611 448.869535 
L 772.525471 453.67467 
L 775.581331 446.306604 
L 778.637191 448.645613 
L 781.69305 432.318619 
L 784.74891 443.311184 
L 787.80477 433.526166 
L 790.86063 430.283986 
L 793.91649 453.325105 
L 796.972349 445.957276 
L 800.028209 445.041456 
L 803.084069 433.496787 
L 806.139929 432.400166 
L 809.195789 422.394208 
L 812.251648 453.276349 
L 815.307508 445.656319 
L 818.363368 402.280938 
L 821.419228 450.911112 
L 824.475088 440.900387 
L 827.530947 437.220812 
L 830.586807 434.580611 
L 833.642667 448.569139 
L 836.698527 436.782622 
L 839.754387 442.727821 
L 842.810246 441.231758 
L 845.866106 441.960632 
L 848.921966 406.604542 
L 851.977826 426.481327 
L 855.033686 438.554679 
L 858.089545 440.108909 
L 858.089545 440.108909 
" clip-path="url(#p2b6572d33d)" style="fill: none; stroke-dasharray: 7.4,3.2; stroke-dashoffset: 0; stroke: #ffa500; stroke-width: 2"/>
   </g>
   <g id="patch_3">
    <path d="M 59.135 484.397187 
L 59.135 40.877187 
" style="fill: none; stroke: #000000; stroke-width: 0.8; stroke-linejoin: miter; stroke-linecap: square"/>
   </g>
   <g id="patch_4">
    <path d="M 896.135 484.397187 
L 896.135 40.877187 
" style="fill: none; stroke: #000000; stroke-width: 0.8; stroke-linejoin: miter; stroke-linecap: square"/>
   </g>
   <g id="patch_5">
    <path d="M 59.135 484.397187 
L 896.135 484.397187 
" style="fill: none; stroke: #000000; stroke-width: 0.8; stroke-linejoin: miter; stroke-linecap: square"/>
   </g>
   <g id="patch_6">
    <path d="M 59.135 40.877187 
L 896.135 40.877187 
" style="fill: none; stroke: #000000; stroke-width: 0.8; stroke-linejoin: miter; stroke-linecap: square"/>
   </g>
   <g id="text_14">
    <!-- Geopotential two steps forward prediction: RMSES -->
    <g transform="translate(250.906719 20.877187) scale(0.18 -0.18)">
     <defs>
      <path id="DejaVuSans-47" d="M 3809 666 
L 3809 1919 
L 2778 1919 
L 2778 2438 
L 4434 2438 
L 4434 434 
Q 4069 175 3628 42 
Q 3188 -91 2688 -91 
Q 1594 -91 976 548 
Q 359 1188 359 2328 
Q 359 3472 976 4111 
Q 1594 4750 2688 4750 
Q 3144 4750 3555 4637 
Q 3966 4525 4313 4306 
L 4313 3634 
Q 3963 3931 3569 4081 
Q 3175 4231 2741 4231 
Q 1884 4231 1454 3753 
Q 1025 3275 1025 2328 
Q 1025 1384 1454 906 
Q 1884 428 2741 428 
Q 3075 428 3337 486 
Q 3600 544 3809 666 
z
" transform="scale(0.015625)"/>
      <path id="DejaVuSans-70" d="M 1159 525 
L 1159 -1331 
L 581 -1331 
L 581 3500 
L 1159 3500 
L 1159 2969 
Q 1341 3281 1617 3432 
Q 1894 3584 2278 3584 
Q 2916 3584 3314 3078 
Q 3713 2572 3713 1747 
Q 3713 922 3314 415 
Q 2916 -91 2278 -91 
Q 1894 -91 1617 61 
Q 1341 213 1159 525 
z
M 3116 1747 
Q 3116 2381 2855 2742 
Q 2594 3103 2138 3103 
Q 1681 3103 1420 2742 
Q 1159 2381 1159 1747 
Q 1159 1113 1420 752 
Q 1681 391 2138 391 
Q 2594 391 2855 752 
Q 3116 1113 3116 1747 
z
" transform="scale(0.015625)"/>
      <path id="DejaVuSans-69" d="M 603 3500 
L 1178 3500 
L 1178 0 
L 603 0 
L 603 3500 
z
M 603 4863 
L 1178 4863 
L 1178 4134 
L 603 4134 
L 603 4863 
z
" transform="scale(0.015625)"/>
      <path id="DejaVuSans-6c" d="M 603 4863 
L 1178 4863 
L 1178 0 
L 603 0 
L 603 4863 
z
" transform="scale(0.015625)"/>
      <path id="DejaVuSans-77" d="M 269 3500 
L 844 3500 
L 1563 769 
L 2278 3500 
L 2956 3500 
L 3675 769 
L 4391 3500 
L 4966 3500 
L 4050 0 
L 3372 0 
L 2619 2869 
L 1863 0 
L 1184 0 
L 269 3500 
z
" transform="scale(0.015625)"/>
      <path id="DejaVuSans-66" d="M 2375 4863 
L 2375 4384 
L 1825 4384 
Q 1516 4384 1395 4259 
Q 1275 4134 1275 3809 
L 1275 3500 
L 2222 3500 
L 2222 3053 
L 1275 3053 
L 1275 0 
L 697 0 
L 697 3053 
L 147 3053 
L 147 3500 
L 697 3500 
L 697 3744 
Q 697 4328 969 4595 
Q 1241 4863 1831 4863 
L 2375 4863 
z
" transform="scale(0.015625)"/>
     </defs>
     <use xlink:href="#DejaVuSans-47"/>
     <use xlink:href="#DejaVuSans-65" transform="translate(77.490234 0)"/>
     <use xlink:href="#DejaVuSans-6f" transform="translate(139.013672 0)"/>
     <use xlink:href="#DejaVuSans-70" transform="translate(200.195312 0)"/>
     <use xlink:href="#DejaVuSans-6f" transform="translate(263.671875 0)"/>
     <use xlink:href="#DejaVuSans-74" transform="translate(324.853516 0)"/>
     <use xlink:href="#DejaVuSans-65" transform="translate(364.0625 0)"/>
     <use xlink:href="#DejaVuSans-6e" transform="translate(425.585938 0)"/>
     <use xlink:href="#DejaVuSans-74" transform="translate(488.964844 0)"/>
     <use xlink:href="#DejaVuSans-69" transform="translate(528.173828 0)"/>
     <use xlink:href="#DejaVuSans-61" transform="translate(555.957031 0)"/>
     <use xlink:href="#DejaVuSans-6c" transform="translate(617.236328 0)"/>
     <use xlink:href="#DejaVuSans-20" transform="translate(645.019531 0)"/>
     <use xlink:href="#DejaVuSans-74" transform="translate(676.806641 0)"/>
     <use xlink:href="#DejaVuSans-77" transform="translate(716.015625 0)"/>
     <use xlink:href="#DejaVuSans-6f" transform="translate(797.802734 0)"/>
     <use xlink:href="#DejaVuSans-20" transform="translate(858.984375 0)"/>
     <use xlink:href="#DejaVuSans-73" transform="translate(890.771484 0)"/>
     <use xlink:href="#DejaVuSans-74" transform="translate(942.871094 0)"/>
     <use xlink:href="#DejaVuSans-65" transform="translate(982.080078 0)"/>
     <use xlink:href="#DejaVuSans-70" transform="translate(1043.603516 0)"/>
     <use xlink:href="#DejaVuSans-73" transform="translate(1107.080078 0)"/>
     <use xlink:href="#DejaVuSans-20" transform="translate(1159.179688 0)"/>
     <use xlink:href="#DejaVuSans-66" transform="translate(1190.966797 0)"/>
     <use xlink:href="#DejaVuSans-6f" transform="translate(1226.171875 0)"/>
     <use xlink:href="#DejaVuSans-72" transform="translate(1287.353516 0)"/>
     <use xlink:href="#DejaVuSans-77" transform="translate(1328.466797 0)"/>
     <use xlink:href="#DejaVuSans-61" transform="translate(1410.253906 0)"/>
     <use xlink:href="#DejaVuSans-72" transform="translate(1471.533203 0)"/>
     <use xlink:href="#DejaVuSans-64" transform="translate(1510.896484 0)"/>
     <use xlink:href="#DejaVuSans-20" transform="translate(1574.373047 0)"/>
     <use xlink:href="#DejaVuSans-70" transform="translate(1606.160156 0)"/>
     <use xlink:href="#DejaVuSans-72" transform="translate(1669.636719 0)"/>
     <use xlink:href="#DejaVuSans-65" transform="translate(1708.5 0)"/>
     <use xlink:href="#DejaVuSans-64" transform="translate(1770.023438 0)"/>
     <use xlink:href="#DejaVuSans-69" transform="translate(1833.5 0)"/>
     <use xlink:href="#DejaVuSans-63" transform="translate(1861.283203 0)"/>
     <use xlink:href="#DejaVuSans-74" transform="translate(1916.263672 0)"/>
     <use xlink:href="#DejaVuSans-69" transform="translate(1955.472656 0)"/>
     <use xlink:href="#DejaVuSans-6f" transform="translate(1983.255859 0)"/>
     <use xlink:href="#DejaVuSans-6e" transform="translate(2044.4375 0)"/>
     <use xlink:href="#DejaVuSans-3a" transform="translate(2107.816406 0)"/>
     <use xlink:href="#DejaVuSans-20" transform="translate(2141.507812 0)"/>
     <use xlink:href="#DejaVuSans-52" transform="translate(2173.294922 0)"/>
     <use xlink:href="#DejaVuSans-4d" transform="translate(2242.777344 0)"/>
     <use xlink:href="#DejaVuSans-53" transform="translate(2329.056641 0)"/>
     <use xlink:href="#DejaVuSans-45" transform="translate(2392.533203 0)"/>
     <use xlink:href="#DejaVuSans-53" transform="translate(2455.716797 0)"/>
    </g>
   </g>
   <g id="legend_1">
    <g id="text_15">
     <!-- Forecast Horizon -->
     <g transform="translate(1020.604844 65.634687) scale(0.16 -0.16)">
      <defs>
       <path id="DejaVuSans-48" d="M 628 4666 
L 1259 4666 
L 1259 2753 
L 3553 2753 
L 3553 4666 
L 4184 4666 
L 4184 0 
L 3553 0 
L 3553 2222 
L 1259 2222 
L 1259 0 
L 628 0 
L 628 4666 
z
" transform="scale(0.015625)"/>
       <path id="DejaVuSans-7a" d="M 353 3500 
L 3084 3500 
L 3084 2975 
L 922 459 
L 3084 459 
L 3084 0 
L 275 0 
L 275 525 
L 2438 3041 
L 353 3041 
L 353 3500 
z
" transform="scale(0.015625)"/>
      </defs>
      <use xlink:href="#DejaVuSans-46"/>
      <use xlink:href="#DejaVuSans-6f" transform="translate(53.894531 0)"/>
      <use xlink:href="#DejaVuSans-72" transform="translate(115.076172 0)"/>
      <use xlink:href="#DejaVuSans-65" transform="translate(153.939453 0)"/>
      <use xlink:href="#DejaVuSans-63" transform="translate(215.462891 0)"/>
      <use xlink:href="#DejaVuSans-61" transform="translate(270.443359 0)"/>
      <use xlink:href="#DejaVuSans-73" transform="translate(331.722656 0)"/>
      <use xlink:href="#DejaVuSans-74" transform="translate(383.822266 0)"/>
      <use xlink:href="#DejaVuSans-20" transform="translate(423.03125 0)"/>
      <use xlink:href="#DejaVuSans-48" transform="translate(454.818359 0)"/>
      <use xlink:href="#DejaVuSans-6f" transform="translate(530.013672 0)"/>
      <use xlink:href="#DejaVuSans-72" transform="translate(591.195312 0)"/>
      <use xlink:href="#DejaVuSans-69" transform="translate(632.308594 0)"/>
      <use xlink:href="#DejaVuSans-7a" transform="translate(660.091797 0)"/>
      <use xlink:href="#DejaVuSans-6f" transform="translate(712.582031 0)"/>
      <use xlink:href="#DejaVuSans-6e" transform="translate(773.763672 0)"/>
     </g>
    </g>
    <g id="line2d_16">
     <path d="M 950.585 81.7 
L 964.585 81.7 
L 978.585 81.7 
" style="fill: none; stroke: #0000ff; stroke-width: 2; stroke-linecap: square"/>
    </g>
    <g id="text_16">
     <!-- Global RMSE (6h Forecast) -->
     <g transform="translate(989.785 86.6) scale(0.14 -0.14)">
      <defs>
       <path id="DejaVuSans-62" d="M 3116 1747 
Q 3116 2381 2855 2742 
Q 2594 3103 2138 3103 
Q 1681 3103 1420 2742 
Q 1159 2381 1159 1747 
Q 1159 1113 1420 752 
Q 1681 391 2138 391 
Q 2594 391 2855 752 
Q 3116 1113 3116 1747 
z
M 1159 2969 
Q 1341 3281 1617 3432 
Q 1894 3584 2278 3584 
Q 2916 3584 3314 3078 
Q 3713 2572 3713 1747 
Q 3713 922 3314 415 
Q 2916 -91 2278 -91 
Q 1894 -91 1617 61 
Q 1341 213 1159 525 
L 1159 0 
L 581 0 
L 581 4863 
L 1159 4863 
L 1159 2969 
z
" transform="scale(0.015625)"/>
       <path id="DejaVuSans-68" d="M 3513 2113 
L 3513 0 
L 2938 0 
L 2938 2094 
Q 2938 2591 2744 2837 
Q 2550 3084 2163 3084 
Q 1697 3084 1428 2787 
Q 1159 2491 1159 1978 
L 1159 0 
L 581 0 
L 581 4863 
L 1159 4863 
L 1159 2956 
Q 1366 3272 1645 3428 
Q 1925 3584 2291 3584 
Q 2894 3584 3203 3211 
Q 3513 2838 3513 2113 
z
" transform="scale(0.015625)"/>
      </defs>
      <use xlink:href="#DejaVuSans-47"/>
      <use xlink:href="#DejaVuSans-6c" transform="translate(77.490234 0)"/>
      <use xlink:href="#DejaVuSans-6f" transform="translate(105.273438 0)"/>
      <use xlink:href="#DejaVuSans-62" transform="translate(166.455078 0)"/>
      <use xlink:href="#DejaVuSans-61" transform="translate(229.931641 0)"/>
      <use xlink:href="#DejaVuSans-6c" transform="translate(291.210938 0)"/>
      <use xlink:href="#DejaVuSans-20" transform="translate(318.994141 0)"/>
      <use xlink:href="#DejaVuSans-52" transform="translate(350.78125 0)"/>
      <use xlink:href="#DejaVuSans-4d" transform="translate(420.263672 0)"/>
      <use xlink:href="#DejaVuSans-53" transform="translate(506.542969 0)"/>
      <use xlink:href="#DejaVuSans-45" transform="translate(570.019531 0)"/>
      <use xlink:href="#DejaVuSans-20" transform="translate(633.203125 0)"/>
      <use xlink:href="#DejaVuSans-28" transform="translate(664.990234 0)"/>
      <use xlink:href="#DejaVuSans-36" transform="translate(704.003906 0)"/>
      <use xlink:href="#DejaVuSans-68" transform="translate(767.626953 0)"/>
      <use xlink:href="#DejaVuSans-20" transform="translate(831.005859 0)"/>
      <use xlink:href="#DejaVuSans-46" transform="translate(862.792969 0)"/>
      <use xlink:href="#DejaVuSans-6f" transform="translate(916.6875 0)"/>
      <use xlink:href="#DejaVuSans-72" transform="translate(977.869141 0)"/>
      <use xlink:href="#DejaVuSans-65" transform="translate(1016.732422 0)"/>
      <use xlink:href="#DejaVuSans-63" transform="translate(1078.255859 0)"/>
      <use xlink:href="#DejaVuSans-61" transform="translate(1133.236328 0)"/>
      <use xlink:href="#DejaVuSans-73" transform="translate(1194.515625 0)"/>
      <use xlink:href="#DejaVuSans-74" transform="translate(1246.615234 0)"/>
      <use xlink:href="#DejaVuSans-29" transform="translate(1285.824219 0)"/>
     </g>
    </g>
    <g id="line2d_17">
     <path d="M 950.585 102.249375 
L 964.585 102.249375 
L 978.585 102.249375 
" style="fill: none; stroke: #ffa500; stroke-width: 2; stroke-linecap: square"/>
    </g>
    <g id="text_17">
     <!-- South Africa RMSE (6h Forecast) -->
     <g transform="translate(989.785 107.149375) scale(0.14 -0.14)">
      <defs>
       <path id="DejaVuSans-41" d="M 2188 4044 
L 1331 1722 
L 3047 1722 
L 2188 4044 
z
M 1831 4666 
L 2547 4666 
L 4325 0 
L 3669 0 
L 3244 1197 
L 1141 1197 
L 716 0 
L 50 0 
L 1831 4666 
z
" transform="scale(0.015625)"/>
      </defs>
      <use xlink:href="#DejaVuSans-53"/>
      <use xlink:href="#DejaVuSans-6f" transform="translate(63.476562 0)"/>
      <use xlink:href="#DejaVuSans-75" transform="translate(124.658203 0)"/>
      <use xlink:href="#DejaVuSans-74" transform="translate(188.037109 0)"/>
      <use xlink:href="#DejaVuSans-68" transform="translate(227.246094 0)"/>
      <use xlink:href="#DejaVuSans-20" transform="translate(290.625 0)"/>
      <use xlink:href="#DejaVuSans-41" transform="translate(322.412109 0)"/>
      <use xlink:href="#DejaVuSans-66" transform="translate(387.195312 0)"/>
      <use xlink:href="#DejaVuSans-72" transform="translate(422.400391 0)"/>
      <use xlink:href="#DejaVuSans-69" transform="translate(463.513672 0)"/>
      <use xlink:href="#DejaVuSans-63" transform="translate(491.296875 0)"/>
      <use xlink:href="#DejaVuSans-61" transform="translate(546.277344 0)"/>
      <use xlink:href="#DejaVuSans-20" transform="translate(607.556641 0)"/>
      <use xlink:href="#DejaVuSans-52" transform="translate(639.34375 0)"/>
      <use xlink:href="#DejaVuSans-4d" transform="translate(708.826172 0)"/>
      <use xlink:href="#DejaVuSans-53" transform="translate(795.105469 0)"/>
      <use xlink:href="#DejaVuSans-45" transform="translate(858.582031 0)"/>
      <use xlink:href="#DejaVuSans-20" transform="translate(921.765625 0)"/>
      <use xlink:href="#DejaVuSans-28" transform="translate(953.552734 0)"/>
      <use xlink:href="#DejaVuSans-36" transform="translate(992.566406 0)"/>
      <use xlink:href="#DejaVuSans-68" transform="translate(1056.189453 0)"/>
      <use xlink:href="#DejaVuSans-20" transform="translate(1119.568359 0)"/>
      <use xlink:href="#DejaVuSans-46" transform="translate(1151.355469 0)"/>
      <use xlink:href="#DejaVuSans-6f" transform="translate(1205.25 0)"/>
      <use xlink:href="#DejaVuSans-72" transform="translate(1266.431641 0)"/>
      <use xlink:href="#DejaVuSans-65" transform="translate(1305.294922 0)"/>
      <use xlink:href="#DejaVuSans-63" transform="translate(1366.818359 0)"/>
      <use xlink:href="#DejaVuSans-61" transform="translate(1421.798828 0)"/>
      <use xlink:href="#DejaVuSans-73" transform="translate(1483.078125 0)"/>
      <use xlink:href="#DejaVuSans-74" transform="translate(1535.177734 0)"/>
      <use xlink:href="#DejaVuSans-29" transform="translate(1574.386719 0)"/>
     </g>
    </g>
    <g id="line2d_18">
     <path d="M 950.585 122.79875 
L 964.585 122.79875 
L 978.585 122.79875 
" style="fill: none; stroke-dasharray: 7.4,3.2; stroke-dashoffset: 0; stroke: #0000ff; stroke-width: 2"/>
    </g>
    <g id="text_18">
     <!-- Global RMSE (12h Forecast) -->
     <g transform="translate(989.785 127.69875) scale(0.14 -0.14)">
      <use xlink:href="#DejaVuSans-47"/>
      <use xlink:href="#DejaVuSans-6c" transform="translate(77.490234 0)"/>
      <use xlink:href="#DejaVuSans-6f" transform="translate(105.273438 0)"/>
      <use xlink:href="#DejaVuSans-62" transform="translate(166.455078 0)"/>
      <use xlink:href="#DejaVuSans-61" transform="translate(229.931641 0)"/>
      <use xlink:href="#DejaVuSans-6c" transform="translate(291.210938 0)"/>
      <use xlink:href="#DejaVuSans-20" transform="translate(318.994141 0)"/>
      <use xlink:href="#DejaVuSans-52" transform="translate(350.78125 0)"/>
      <use xlink:href="#DejaVuSans-4d" transform="translate(420.263672 0)"/>
      <use xlink:href="#DejaVuSans-53" transform="translate(506.542969 0)"/>
      <use xlink:href="#DejaVuSans-45" transform="translate(570.019531 0)"/>
      <use xlink:href="#DejaVuSans-20" transform="translate(633.203125 0)"/>
      <use xlink:href="#DejaVuSans-28" transform="translate(664.990234 0)"/>
      <use xlink:href="#DejaVuSans-31" transform="translate(704.003906 0)"/>
      <use xlink:href="#DejaVuSans-32" transform="translate(767.626953 0)"/>
      <use xlink:href="#DejaVuSans-68" transform="translate(831.25 0)"/>
      <use xlink:href="#DejaVuSans-20" transform="translate(894.628906 0)"/>
      <use xlink:href="#DejaVuSans-46" transform="translate(926.416016 0)"/>
      <use xlink:href="#DejaVuSans-6f" transform="translate(980.310547 0)"/>
      <use xlink:href="#DejaVuSans-72" transform="translate(1041.492188 0)"/>
      <use xlink:href="#DejaVuSans-65" transform="translate(1080.355469 0)"/>
      <use xlink:href="#DejaVuSans-63" transform="translate(1141.878906 0)"/>
      <use xlink:href="#DejaVuSans-61" transform="translate(1196.859375 0)"/>
      <use xlink:href="#DejaVuSans-73" transform="translate(1258.138672 0)"/>
      <use xlink:href="#DejaVuSans-74" transform="translate(1310.238281 0)"/>
      <use xlink:href="#DejaVuSans-29" transform="translate(1349.447266 0)"/>
     </g>
    </g>
    <g id="line2d_19">
     <path d="M 950.585 143.348125 
L 964.585 143.348125 
L 978.585 143.348125 
" style="fill: none; stroke-dasharray: 7.4,3.2; stroke-dashoffset: 0; stroke: #ffa500; stroke-width: 2"/>
    </g>
    <g id="text_19">
     <!-- South Africa RMSE (12h Forecast) -->
     <g transform="translate(989.785 148.248125) scale(0.14 -0.14)">
      <use xlink:href="#DejaVuSans-53"/>
      <use xlink:href="#DejaVuSans-6f" transform="translate(63.476562 0)"/>
      <use xlink:href="#DejaVuSans-75" transform="translate(124.658203 0)"/>
      <use xlink:href="#DejaVuSans-74" transform="translate(188.037109 0)"/>
      <use xlink:href="#DejaVuSans-68" transform="translate(227.246094 0)"/>
      <use xlink:href="#DejaVuSans-20" transform="translate(290.625 0)"/>
      <use xlink:href="#DejaVuSans-41" transform="translate(322.412109 0)"/>
      <use xlink:href="#DejaVuSans-66" transform="translate(387.195312 0)"/>
      <use xlink:href="#DejaVuSans-72" transform="translate(422.400391 0)"/>
      <use xlink:href="#DejaVuSans-69" transform="translate(463.513672 0)"/>
      <use xlink:href="#DejaVuSans-63" transform="translate(491.296875 0)"/>
      <use xlink:href="#DejaVuSans-61" transform="translate(546.277344 0)"/>
      <use xlink:href="#DejaVuSans-20" transform="translate(607.556641 0)"/>
      <use xlink:href="#DejaVuSans-52" transform="translate(639.34375 0)"/>
      <use xlink:href="#DejaVuSans-4d" transform="translate(708.826172 0)"/>
      <use xlink:href="#DejaVuSans-53" transform="translate(795.105469 0)"/>
      <use xlink:href="#DejaVuSans-45" transform="translate(858.582031 0)"/>
      <use xlink:href="#DejaVuSans-20" transform="translate(921.765625 0)"/>
      <use xlink:href="#DejaVuSans-28" transform="translate(953.552734 0)"/>
      <use xlink:href="#DejaVuSans-31" transform="translate(992.566406 0)"/>
      <use xlink:href="#DejaVuSans-32" transform="translate(1056.189453 0)"/>
      <use xlink:href="#DejaVuSans-68" transform="translate(1119.8125 0)"/>
      <use xlink:href="#DejaVuSans-20" transform="translate(1183.191406 0)"/>
      <use xlink:href="#DejaVuSans-46" transform="translate(1214.978516 0)"/>
      <use xlink:href="#DejaVuSans-6f" transform="translate(1268.873047 0)"/>
      <use xlink:href="#DejaVuSans-72" transform="translate(1330.054688 0)"/>
      <use xlink:href="#DejaVuSans-65" transform="translate(1368.917969 0)"/>
      <use xlink:href="#DejaVuSans-63" transform="translate(1430.441406 0)"/>
      <use xlink:href="#DejaVuSans-61" transform="translate(1485.421875 0)"/>
      <use xlink:href="#DejaVuSans-73" transform="translate(1546.701172 0)"/>
      <use xlink:href="#DejaVuSans-74" transform="translate(1598.800781 0)"/>
      <use xlink:href="#DejaVuSans-29" transform="translate(1638.009766 0)"/>
     </g>
    </g>
   </g>
  </g>
 </g>
 <defs>
  <clipPath id="p2b6572d33d">
   <rect x="59.135" y="40.877187" width="837" height="443.52"/>
  </clipPath>
 </defs>
</svg>
