<?xml version="1.0" encoding="utf-8" standalone="no"?>
<!DOCTYPE svg PUBLIC "-//W3C//DTD SVG 1.1//EN"
  "http://www.w3.org/Graphics/SVG/1.1/DTD/svg11.dtd">
<svg xmlns:xlink="http://www.w3.org/1999/xlink" width="1237.367188pt" height="575.421502pt" viewBox="0 0 1237.367188 575.421502" xmlns="http://www.w3.org/2000/svg" version="1.1">
 <metadata>
  <rdf:RDF xmlns:dc="http://purl.org/dc/elements/1.1/" xmlns:cc="http://creativecommons.org/ns#" xmlns:rdf="http://www.w3.org/1999/02/22-rdf-syntax-ns#">
   <cc:Work>
    <dc:type rdf:resource="http://purl.org/dc/dcmitype/StillImage"/>
    <dc:date>2025-02-18T09:44:36.538113</dc:date>
    <dc:format>image/svg+xml</dc:format>
    <dc:creator>
     <cc:Agent>
      <dc:title>Matplotlib v3.10.0, https://matplotlib.org/</dc:title>
     </cc:Agent>
    </dc:creator>
   </cc:Work>
  </rdf:RDF>
 </metadata>
 <defs>
  <style type="text/css">*{stroke-linejoin: round; stroke-linecap: butt}</style>
 </defs>
 <g id="figure_1">
  <g id="patch_1">
   <path d="M 0 575.421502 
L 1237.367188 575.421502 
L 1237.367188 0 
L 0 0 
z
" style="fill: #ffffff"/>
  </g>
  <g id="axes_1">
   <g id="patch_2">
    <path d="M 59.135 484.397187 
L 896.135 484.397187 
L 896.135 40.877187 
L 59.135 40.877187 
z
" style="fill: #ffffff"/>
   </g>
   <g id="matplotlib.axis_1">
    <g id="xtick_1">
     <g id="line2d_1">
      <defs>
       <path id="m74382d90ef" d="M 0 0 
L 0 3.5 
" style="stroke: #000000; stroke-width: 0.8"/>
      </defs>
      <g>
       <use xlink:href="#m74382d90ef" x="97.180455" y="484.397187" style="stroke: #000000; stroke-width: 0.8"/>
      </g>
     </g>
     <g id="text_1">
      <!-- 2022-01-01 (12:00) -->
      <g transform="translate(11.343192 546.93544) rotate(-30) scale(0.1 -0.1)">
       <defs>
        <path id="DejaVuSans-32" d="M 1228 531 
L 3431 531 
L 3431 0 
L 469 0 
L 469 531 
Q 828 903 1448 1529 
Q 2069 2156 2228 2338 
Q 2531 2678 2651 2914 
Q 2772 3150 2772 3378 
Q 2772 3750 2511 3984 
Q 2250 4219 1831 4219 
Q 1534 4219 1204 4116 
Q 875 4013 500 3803 
L 500 4441 
Q 881 4594 1212 4672 
Q 1544 4750 1819 4750 
Q 2544 4750 2975 4387 
Q 3406 4025 3406 3419 
Q 3406 3131 3298 2873 
Q 3191 2616 2906 2266 
Q 2828 2175 2409 1742 
Q 1991 1309 1228 531 
z
" transform="scale(0.015625)"/>
        <path id="DejaVuSans-30" d="M 2034 4250 
Q 1547 4250 1301 3770 
Q 1056 3291 1056 2328 
Q 1056 1369 1301 889 
Q 1547 409 2034 409 
Q 2525 409 2770 889 
Q 3016 1369 3016 2328 
Q 3016 3291 2770 3770 
Q 2525 4250 2034 4250 
z
M 2034 4750 
Q 2819 4750 3233 4129 
Q 3647 3509 3647 2328 
Q 3647 1150 3233 529 
Q 2819 -91 2034 -91 
Q 1250 -91 836 529 
Q 422 1150 422 2328 
Q 422 3509 836 4129 
Q 1250 4750 2034 4750 
z
" transform="scale(0.015625)"/>
        <path id="DejaVuSans-2d" d="M 313 2009 
L 1997 2009 
L 1997 1497 
L 313 1497 
L 313 2009 
z
" transform="scale(0.015625)"/>
        <path id="DejaVuSans-31" d="M 794 531 
L 1825 531 
L 1825 4091 
L 703 3866 
L 703 4441 
L 1819 4666 
L 2450 4666 
L 2450 531 
L 3481 531 
L 3481 0 
L 794 0 
L 794 531 
z
" transform="scale(0.015625)"/>
        <path id="DejaVuSans-20" transform="scale(0.015625)"/>
        <path id="DejaVuSans-28" d="M 1984 4856 
Q 1566 4138 1362 3434 
Q 1159 2731 1159 2009 
Q 1159 1288 1364 580 
Q 1569 -128 1984 -844 
L 1484 -844 
Q 1016 -109 783 600 
Q 550 1309 550 2009 
Q 550 2706 781 3412 
Q 1013 4119 1484 4856 
L 1984 4856 
z
" transform="scale(0.015625)"/>
        <path id="DejaVuSans-3a" d="M 750 794 
L 1409 794 
L 1409 0 
L 750 0 
L 750 794 
z
M 750 3309 
L 1409 3309 
L 1409 2516 
L 750 2516 
L 750 3309 
z
" transform="scale(0.015625)"/>
        <path id="DejaVuSans-29" d="M 513 4856 
L 1013 4856 
Q 1481 4119 1714 3412 
Q 1947 2706 1947 2009 
Q 1947 1309 1714 600 
Q 1481 -109 1013 -844 
L 513 -844 
Q 928 -128 1133 580 
Q 1338 1288 1338 2009 
Q 1338 2731 1133 3434 
Q 928 4138 513 4856 
z
" transform="scale(0.015625)"/>
       </defs>
       <use xlink:href="#DejaVuSans-32"/>
       <use xlink:href="#DejaVuSans-30" transform="translate(63.623047 0)"/>
       <use xlink:href="#DejaVuSans-32" transform="translate(127.246094 0)"/>
       <use xlink:href="#DejaVuSans-32" transform="translate(190.869141 0)"/>
       <use xlink:href="#DejaVuSans-2d" transform="translate(254.492188 0)"/>
       <use xlink:href="#DejaVuSans-30" transform="translate(290.576172 0)"/>
       <use xlink:href="#DejaVuSans-31" transform="translate(354.199219 0)"/>
       <use xlink:href="#DejaVuSans-2d" transform="translate(417.822266 0)"/>
       <use xlink:href="#DejaVuSans-30" transform="translate(453.90625 0)"/>
       <use xlink:href="#DejaVuSans-31" transform="translate(517.529297 0)"/>
       <use xlink:href="#DejaVuSans-20" transform="translate(581.152344 0)"/>
       <use xlink:href="#DejaVuSans-28" transform="translate(612.939453 0)"/>
       <use xlink:href="#DejaVuSans-31" transform="translate(651.953125 0)"/>
       <use xlink:href="#DejaVuSans-32" transform="translate(715.576172 0)"/>
       <use xlink:href="#DejaVuSans-3a" transform="translate(779.199219 0)"/>
       <use xlink:href="#DejaVuSans-30" transform="translate(812.890625 0)"/>
       <use xlink:href="#DejaVuSans-30" transform="translate(876.513672 0)"/>
       <use xlink:href="#DejaVuSans-29" transform="translate(940.136719 0)"/>
      </g>
     </g>
    </g>
    <g id="xtick_2">
     <g id="line2d_2">
      <g>
       <use xlink:href="#m74382d90ef" x="246.917585" y="484.397187" style="stroke: #000000; stroke-width: 0.8"/>
      </g>
     </g>
     <g id="text_2">
      <!-- 2022-03-16 (00:00) -->
      <g transform="translate(161.080322 546.93544) rotate(-30) scale(0.1 -0.1)">
       <defs>
        <path id="DejaVuSans-33" d="M 2597 2516 
Q 3050 2419 3304 2112 
Q 3559 1806 3559 1356 
Q 3559 666 3084 287 
Q 2609 -91 1734 -91 
Q 1441 -91 1130 -33 
Q 819 25 488 141 
L 488 750 
Q 750 597 1062 519 
Q 1375 441 1716 441 
Q 2309 441 2620 675 
Q 2931 909 2931 1356 
Q 2931 1769 2642 2001 
Q 2353 2234 1838 2234 
L 1294 2234 
L 1294 2753 
L 1863 2753 
Q 2328 2753 2575 2939 
Q 2822 3125 2822 3475 
Q 2822 3834 2567 4026 
Q 2313 4219 1838 4219 
Q 1578 4219 1281 4162 
Q 984 4106 628 3988 
L 628 4550 
Q 988 4650 1302 4700 
Q 1616 4750 1894 4750 
Q 2613 4750 3031 4423 
Q 3450 4097 3450 3541 
Q 3450 3153 3228 2886 
Q 3006 2619 2597 2516 
z
" transform="scale(0.015625)"/>
        <path id="DejaVuSans-36" d="M 2113 2584 
Q 1688 2584 1439 2293 
Q 1191 2003 1191 1497 
Q 1191 994 1439 701 
Q 1688 409 2113 409 
Q 2538 409 2786 701 
Q 3034 994 3034 1497 
Q 3034 2003 2786 2293 
Q 2538 2584 2113 2584 
z
M 3366 4563 
L 3366 3988 
Q 3128 4100 2886 4159 
Q 2644 4219 2406 4219 
Q 1781 4219 1451 3797 
Q 1122 3375 1075 2522 
Q 1259 2794 1537 2939 
Q 1816 3084 2150 3084 
Q 2853 3084 3261 2657 
Q 3669 2231 3669 1497 
Q 3669 778 3244 343 
Q 2819 -91 2113 -91 
Q 1303 -91 875 529 
Q 447 1150 447 2328 
Q 447 3434 972 4092 
Q 1497 4750 2381 4750 
Q 2619 4750 2861 4703 
Q 3103 4656 3366 4563 
z
" transform="scale(0.015625)"/>
       </defs>
       <use xlink:href="#DejaVuSans-32"/>
       <use xlink:href="#DejaVuSans-30" transform="translate(63.623047 0)"/>
       <use xlink:href="#DejaVuSans-32" transform="translate(127.246094 0)"/>
       <use xlink:href="#DejaVuSans-32" transform="translate(190.869141 0)"/>
       <use xlink:href="#DejaVuSans-2d" transform="translate(254.492188 0)"/>
       <use xlink:href="#DejaVuSans-30" transform="translate(290.576172 0)"/>
       <use xlink:href="#DejaVuSans-33" transform="translate(354.199219 0)"/>
       <use xlink:href="#DejaVuSans-2d" transform="translate(417.822266 0)"/>
       <use xlink:href="#DejaVuSans-31" transform="translate(453.90625 0)"/>
       <use xlink:href="#DejaVuSans-36" transform="translate(517.529297 0)"/>
       <use xlink:href="#DejaVuSans-20" transform="translate(581.152344 0)"/>
       <use xlink:href="#DejaVuSans-28" transform="translate(612.939453 0)"/>
       <use xlink:href="#DejaVuSans-30" transform="translate(651.953125 0)"/>
       <use xlink:href="#DejaVuSans-30" transform="translate(715.576172 0)"/>
       <use xlink:href="#DejaVuSans-3a" transform="translate(779.199219 0)"/>
       <use xlink:href="#DejaVuSans-30" transform="translate(812.890625 0)"/>
       <use xlink:href="#DejaVuSans-30" transform="translate(876.513672 0)"/>
       <use xlink:href="#DejaVuSans-29" transform="translate(940.136719 0)"/>
      </g>
     </g>
    </g>
    <g id="xtick_3">
     <g id="line2d_3">
      <g>
       <use xlink:href="#m74382d90ef" x="399.710575" y="484.397187" style="stroke: #000000; stroke-width: 0.8"/>
      </g>
     </g>
     <g id="text_3">
      <!-- 2022-05-30 (00:00) -->
      <g transform="translate(313.873313 546.93544) rotate(-30) scale(0.1 -0.1)">
       <defs>
        <path id="DejaVuSans-35" d="M 691 4666 
L 3169 4666 
L 3169 4134 
L 1269 4134 
L 1269 2991 
Q 1406 3038 1543 3061 
Q 1681 3084 1819 3084 
Q 2600 3084 3056 2656 
Q 3513 2228 3513 1497 
Q 3513 744 3044 326 
Q 2575 -91 1722 -91 
Q 1428 -91 1123 -41 
Q 819 9 494 109 
L 494 744 
Q 775 591 1075 516 
Q 1375 441 1709 441 
Q 2250 441 2565 725 
Q 2881 1009 2881 1497 
Q 2881 1984 2565 2268 
Q 2250 2553 1709 2553 
Q 1456 2553 1204 2497 
Q 953 2441 691 2322 
L 691 4666 
z
" transform="scale(0.015625)"/>
       </defs>
       <use xlink:href="#DejaVuSans-32"/>
       <use xlink:href="#DejaVuSans-30" transform="translate(63.623047 0)"/>
       <use xlink:href="#DejaVuSans-32" transform="translate(127.246094 0)"/>
       <use xlink:href="#DejaVuSans-32" transform="translate(190.869141 0)"/>
       <use xlink:href="#DejaVuSans-2d" transform="translate(254.492188 0)"/>
       <use xlink:href="#DejaVuSans-30" transform="translate(290.576172 0)"/>
       <use xlink:href="#DejaVuSans-35" transform="translate(354.199219 0)"/>
       <use xlink:href="#DejaVuSans-2d" transform="translate(417.822266 0)"/>
       <use xlink:href="#DejaVuSans-33" transform="translate(453.90625 0)"/>
       <use xlink:href="#DejaVuSans-30" transform="translate(517.529297 0)"/>
       <use xlink:href="#DejaVuSans-20" transform="translate(581.152344 0)"/>
       <use xlink:href="#DejaVuSans-28" transform="translate(612.939453 0)"/>
       <use xlink:href="#DejaVuSans-30" transform="translate(651.953125 0)"/>
       <use xlink:href="#DejaVuSans-30" transform="translate(715.576172 0)"/>
       <use xlink:href="#DejaVuSans-3a" transform="translate(779.199219 0)"/>
       <use xlink:href="#DejaVuSans-30" transform="translate(812.890625 0)"/>
       <use xlink:href="#DejaVuSans-30" transform="translate(876.513672 0)"/>
       <use xlink:href="#DejaVuSans-29" transform="translate(940.136719 0)"/>
      </g>
     </g>
    </g>
    <g id="xtick_4">
     <g id="line2d_4">
      <g>
       <use xlink:href="#m74382d90ef" x="552.503565" y="484.397187" style="stroke: #000000; stroke-width: 0.8"/>
      </g>
     </g>
     <g id="text_4">
      <!-- 2022-08-13 (00:00) -->
      <g transform="translate(466.666303 546.93544) rotate(-30) scale(0.1 -0.1)">
       <defs>
        <path id="DejaVuSans-38" d="M 2034 2216 
Q 1584 2216 1326 1975 
Q 1069 1734 1069 1313 
Q 1069 891 1326 650 
Q 1584 409 2034 409 
Q 2484 409 2743 651 
Q 3003 894 3003 1313 
Q 3003 1734 2745 1975 
Q 2488 2216 2034 2216 
z
M 1403 2484 
Q 997 2584 770 2862 
Q 544 3141 544 3541 
Q 544 4100 942 4425 
Q 1341 4750 2034 4750 
Q 2731 4750 3128 4425 
Q 3525 4100 3525 3541 
Q 3525 3141 3298 2862 
Q 3072 2584 2669 2484 
Q 3125 2378 3379 2068 
Q 3634 1759 3634 1313 
Q 3634 634 3220 271 
Q 2806 -91 2034 -91 
Q 1263 -91 848 271 
Q 434 634 434 1313 
Q 434 1759 690 2068 
Q 947 2378 1403 2484 
z
M 1172 3481 
Q 1172 3119 1398 2916 
Q 1625 2713 2034 2713 
Q 2441 2713 2670 2916 
Q 2900 3119 2900 3481 
Q 2900 3844 2670 4047 
Q 2441 4250 2034 4250 
Q 1625 4250 1398 4047 
Q 1172 3844 1172 3481 
z
" transform="scale(0.015625)"/>
       </defs>
       <use xlink:href="#DejaVuSans-32"/>
       <use xlink:href="#DejaVuSans-30" transform="translate(63.623047 0)"/>
       <use xlink:href="#DejaVuSans-32" transform="translate(127.246094 0)"/>
       <use xlink:href="#DejaVuSans-32" transform="translate(190.869141 0)"/>
       <use xlink:href="#DejaVuSans-2d" transform="translate(254.492188 0)"/>
       <use xlink:href="#DejaVuSans-30" transform="translate(290.576172 0)"/>
       <use xlink:href="#DejaVuSans-38" transform="translate(354.199219 0)"/>
       <use xlink:href="#DejaVuSans-2d" transform="translate(417.822266 0)"/>
       <use xlink:href="#DejaVuSans-31" transform="translate(453.90625 0)"/>
       <use xlink:href="#DejaVuSans-33" transform="translate(517.529297 0)"/>
       <use xlink:href="#DejaVuSans-20" transform="translate(581.152344 0)"/>
       <use xlink:href="#DejaVuSans-28" transform="translate(612.939453 0)"/>
       <use xlink:href="#DejaVuSans-30" transform="translate(651.953125 0)"/>
       <use xlink:href="#DejaVuSans-30" transform="translate(715.576172 0)"/>
       <use xlink:href="#DejaVuSans-3a" transform="translate(779.199219 0)"/>
       <use xlink:href="#DejaVuSans-30" transform="translate(812.890625 0)"/>
       <use xlink:href="#DejaVuSans-30" transform="translate(876.513672 0)"/>
       <use xlink:href="#DejaVuSans-29" transform="translate(940.136719 0)"/>
      </g>
     </g>
    </g>
    <g id="xtick_5">
     <g id="line2d_5">
      <g>
       <use xlink:href="#m74382d90ef" x="705.296555" y="484.397187" style="stroke: #000000; stroke-width: 0.8"/>
      </g>
     </g>
     <g id="text_5">
      <!-- 2022-10-27 (00:00) -->
      <g transform="translate(619.459293 546.93544) rotate(-30) scale(0.1 -0.1)">
       <defs>
        <path id="DejaVuSans-37" d="M 525 4666 
L 3525 4666 
L 3525 4397 
L 1831 0 
L 1172 0 
L 2766 4134 
L 525 4134 
L 525 4666 
z
" transform="scale(0.015625)"/>
       </defs>
       <use xlink:href="#DejaVuSans-32"/>
       <use xlink:href="#DejaVuSans-30" transform="translate(63.623047 0)"/>
       <use xlink:href="#DejaVuSans-32" transform="translate(127.246094 0)"/>
       <use xlink:href="#DejaVuSans-32" transform="translate(190.869141 0)"/>
       <use xlink:href="#DejaVuSans-2d" transform="translate(254.492188 0)"/>
       <use xlink:href="#DejaVuSans-31" transform="translate(290.576172 0)"/>
       <use xlink:href="#DejaVuSans-30" transform="translate(354.199219 0)"/>
       <use xlink:href="#DejaVuSans-2d" transform="translate(417.822266 0)"/>
       <use xlink:href="#DejaVuSans-32" transform="translate(453.90625 0)"/>
       <use xlink:href="#DejaVuSans-37" transform="translate(517.529297 0)"/>
       <use xlink:href="#DejaVuSans-20" transform="translate(581.152344 0)"/>
       <use xlink:href="#DejaVuSans-28" transform="translate(612.939453 0)"/>
       <use xlink:href="#DejaVuSans-30" transform="translate(651.953125 0)"/>
       <use xlink:href="#DejaVuSans-30" transform="translate(715.576172 0)"/>
       <use xlink:href="#DejaVuSans-3a" transform="translate(779.199219 0)"/>
       <use xlink:href="#DejaVuSans-30" transform="translate(812.890625 0)"/>
       <use xlink:href="#DejaVuSans-30" transform="translate(876.513672 0)"/>
       <use xlink:href="#DejaVuSans-29" transform="translate(940.136719 0)"/>
      </g>
     </g>
    </g>
    <g id="xtick_6">
     <g id="line2d_6">
      <g>
       <use xlink:href="#m74382d90ef" x="858.089545" y="484.397187" style="stroke: #000000; stroke-width: 0.8"/>
      </g>
     </g>
     <g id="text_6">
      <!-- 2023-01-10 (00:00) -->
      <g transform="translate(772.252283 546.93544) rotate(-30) scale(0.1 -0.1)">
       <use xlink:href="#DejaVuSans-32"/>
       <use xlink:href="#DejaVuSans-30" transform="translate(63.623047 0)"/>
       <use xlink:href="#DejaVuSans-32" transform="translate(127.246094 0)"/>
       <use xlink:href="#DejaVuSans-33" transform="translate(190.869141 0)"/>
       <use xlink:href="#DejaVuSans-2d" transform="translate(254.492188 0)"/>
       <use xlink:href="#DejaVuSans-30" transform="translate(290.576172 0)"/>
       <use xlink:href="#DejaVuSans-31" transform="translate(354.199219 0)"/>
       <use xlink:href="#DejaVuSans-2d" transform="translate(417.822266 0)"/>
       <use xlink:href="#DejaVuSans-31" transform="translate(453.90625 0)"/>
       <use xlink:href="#DejaVuSans-30" transform="translate(517.529297 0)"/>
       <use xlink:href="#DejaVuSans-20" transform="translate(581.152344 0)"/>
       <use xlink:href="#DejaVuSans-28" transform="translate(612.939453 0)"/>
       <use xlink:href="#DejaVuSans-30" transform="translate(651.953125 0)"/>
       <use xlink:href="#DejaVuSans-30" transform="translate(715.576172 0)"/>
       <use xlink:href="#DejaVuSans-3a" transform="translate(779.199219 0)"/>
       <use xlink:href="#DejaVuSans-30" transform="translate(812.890625 0)"/>
       <use xlink:href="#DejaVuSans-30" transform="translate(876.513672 0)"/>
       <use xlink:href="#DejaVuSans-29" transform="translate(940.136719 0)"/>
      </g>
     </g>
    </g>
    <g id="text_7">
     <!-- Forecast Date -->
     <g transform="translate(422.12875 564.894002) scale(0.16 -0.16)">
      <defs>
       <path id="DejaVuSans-46" d="M 628 4666 
L 3309 4666 
L 3309 4134 
L 1259 4134 
L 1259 2759 
L 3109 2759 
L 3109 2228 
L 1259 2228 
L 1259 0 
L 628 0 
L 628 4666 
z
" transform="scale(0.015625)"/>
       <path id="DejaVuSans-6f" d="M 1959 3097 
Q 1497 3097 1228 2736 
Q 959 2375 959 1747 
Q 959 1119 1226 758 
Q 1494 397 1959 397 
Q 2419 397 2687 759 
Q 2956 1122 2956 1747 
Q 2956 2369 2687 2733 
Q 2419 3097 1959 3097 
z
M 1959 3584 
Q 2709 3584 3137 3096 
Q 3566 2609 3566 1747 
Q 3566 888 3137 398 
Q 2709 -91 1959 -91 
Q 1206 -91 779 398 
Q 353 888 353 1747 
Q 353 2609 779 3096 
Q 1206 3584 1959 3584 
z
" transform="scale(0.015625)"/>
       <path id="DejaVuSans-72" d="M 2631 2963 
Q 2534 3019 2420 3045 
Q 2306 3072 2169 3072 
Q 1681 3072 1420 2755 
Q 1159 2438 1159 1844 
L 1159 0 
L 581 0 
L 581 3500 
L 1159 3500 
L 1159 2956 
Q 1341 3275 1631 3429 
Q 1922 3584 2338 3584 
Q 2397 3584 2469 3576 
Q 2541 3569 2628 3553 
L 2631 2963 
z
" transform="scale(0.015625)"/>
       <path id="DejaVuSans-65" d="M 3597 1894 
L 3597 1613 
L 953 1613 
Q 991 1019 1311 708 
Q 1631 397 2203 397 
Q 2534 397 2845 478 
Q 3156 559 3463 722 
L 3463 178 
Q 3153 47 2828 -22 
Q 2503 -91 2169 -91 
Q 1331 -91 842 396 
Q 353 884 353 1716 
Q 353 2575 817 3079 
Q 1281 3584 2069 3584 
Q 2775 3584 3186 3129 
Q 3597 2675 3597 1894 
z
M 3022 2063 
Q 3016 2534 2758 2815 
Q 2500 3097 2075 3097 
Q 1594 3097 1305 2825 
Q 1016 2553 972 2059 
L 3022 2063 
z
" transform="scale(0.015625)"/>
       <path id="DejaVuSans-63" d="M 3122 3366 
L 3122 2828 
Q 2878 2963 2633 3030 
Q 2388 3097 2138 3097 
Q 1578 3097 1268 2742 
Q 959 2388 959 1747 
Q 959 1106 1268 751 
Q 1578 397 2138 397 
Q 2388 397 2633 464 
Q 2878 531 3122 666 
L 3122 134 
Q 2881 22 2623 -34 
Q 2366 -91 2075 -91 
Q 1284 -91 818 406 
Q 353 903 353 1747 
Q 353 2603 823 3093 
Q 1294 3584 2113 3584 
Q 2378 3584 2631 3529 
Q 2884 3475 3122 3366 
z
" transform="scale(0.015625)"/>
       <path id="DejaVuSans-61" d="M 2194 1759 
Q 1497 1759 1228 1600 
Q 959 1441 959 1056 
Q 959 750 1161 570 
Q 1363 391 1709 391 
Q 2188 391 2477 730 
Q 2766 1069 2766 1631 
L 2766 1759 
L 2194 1759 
z
M 3341 1997 
L 3341 0 
L 2766 0 
L 2766 531 
Q 2569 213 2275 61 
Q 1981 -91 1556 -91 
Q 1019 -91 701 211 
Q 384 513 384 1019 
Q 384 1609 779 1909 
Q 1175 2209 1959 2209 
L 2766 2209 
L 2766 2266 
Q 2766 2663 2505 2880 
Q 2244 3097 1772 3097 
Q 1472 3097 1187 3025 
Q 903 2953 641 2809 
L 641 3341 
Q 956 3463 1253 3523 
Q 1550 3584 1831 3584 
Q 2591 3584 2966 3190 
Q 3341 2797 3341 1997 
z
" transform="scale(0.015625)"/>
       <path id="DejaVuSans-73" d="M 2834 3397 
L 2834 2853 
Q 2591 2978 2328 3040 
Q 2066 3103 1784 3103 
Q 1356 3103 1142 2972 
Q 928 2841 928 2578 
Q 928 2378 1081 2264 
Q 1234 2150 1697 2047 
L 1894 2003 
Q 2506 1872 2764 1633 
Q 3022 1394 3022 966 
Q 3022 478 2636 193 
Q 2250 -91 1575 -91 
Q 1294 -91 989 -36 
Q 684 19 347 128 
L 347 722 
Q 666 556 975 473 
Q 1284 391 1588 391 
Q 1994 391 2212 530 
Q 2431 669 2431 922 
Q 2431 1156 2273 1281 
Q 2116 1406 1581 1522 
L 1381 1569 
Q 847 1681 609 1914 
Q 372 2147 372 2553 
Q 372 3047 722 3315 
Q 1072 3584 1716 3584 
Q 2034 3584 2315 3537 
Q 2597 3491 2834 3397 
z
" transform="scale(0.015625)"/>
       <path id="DejaVuSans-74" d="M 1172 4494 
L 1172 3500 
L 2356 3500 
L 2356 3053 
L 1172 3053 
L 1172 1153 
Q 1172 725 1289 603 
Q 1406 481 1766 481 
L 2356 481 
L 2356 0 
L 1766 0 
Q 1100 0 847 248 
Q 594 497 594 1153 
L 594 3053 
L 172 3053 
L 172 3500 
L 594 3500 
L 594 4494 
L 1172 4494 
z
" transform="scale(0.015625)"/>
       <path id="DejaVuSans-44" d="M 1259 4147 
L 1259 519 
L 2022 519 
Q 2988 519 3436 956 
Q 3884 1394 3884 2338 
Q 3884 3275 3436 3711 
Q 2988 4147 2022 4147 
L 1259 4147 
z
M 628 4666 
L 1925 4666 
Q 3281 4666 3915 4102 
Q 4550 3538 4550 2338 
Q 4550 1131 3912 565 
Q 3275 0 1925 0 
L 628 0 
L 628 4666 
z
" transform="scale(0.015625)"/>
      </defs>
      <use xlink:href="#DejaVuSans-46"/>
      <use xlink:href="#DejaVuSans-6f" transform="translate(53.894531 0)"/>
      <use xlink:href="#DejaVuSans-72" transform="translate(115.076172 0)"/>
      <use xlink:href="#DejaVuSans-65" transform="translate(153.939453 0)"/>
      <use xlink:href="#DejaVuSans-63" transform="translate(215.462891 0)"/>
      <use xlink:href="#DejaVuSans-61" transform="translate(270.443359 0)"/>
      <use xlink:href="#DejaVuSans-73" transform="translate(331.722656 0)"/>
      <use xlink:href="#DejaVuSans-74" transform="translate(383.822266 0)"/>
      <use xlink:href="#DejaVuSans-20" transform="translate(423.03125 0)"/>
      <use xlink:href="#DejaVuSans-44" transform="translate(454.818359 0)"/>
      <use xlink:href="#DejaVuSans-61" transform="translate(531.820312 0)"/>
      <use xlink:href="#DejaVuSans-74" transform="translate(593.099609 0)"/>
      <use xlink:href="#DejaVuSans-65" transform="translate(632.308594 0)"/>
     </g>
    </g>
   </g>
   <g id="matplotlib.axis_2">
    <g id="ytick_1">
     <g id="line2d_7">
      <defs>
       <path id="mbbfaf5e7de" d="M 0 0 
L -3.5 0 
" style="stroke: #000000; stroke-width: 0.8"/>
      </defs>
      <g>
       <use xlink:href="#mbbfaf5e7de" x="59.135" y="450.108193" style="stroke: #000000; stroke-width: 0.8"/>
      </g>
     </g>
     <g id="text_8">
      <!-- 200 -->
      <g transform="translate(33.0475 453.907412) scale(0.1 -0.1)">
       <use xlink:href="#DejaVuSans-32"/>
       <use xlink:href="#DejaVuSans-30" transform="translate(63.623047 0)"/>
       <use xlink:href="#DejaVuSans-30" transform="translate(127.246094 0)"/>
      </g>
     </g>
    </g>
    <g id="ytick_2">
     <g id="line2d_8">
      <g>
       <use xlink:href="#mbbfaf5e7de" x="59.135" y="399.276123" style="stroke: #000000; stroke-width: 0.8"/>
      </g>
     </g>
     <g id="text_9">
      <!-- 400 -->
      <g transform="translate(33.0475 403.075342) scale(0.1 -0.1)">
       <defs>
        <path id="DejaVuSans-34" d="M 2419 4116 
L 825 1625 
L 2419 1625 
L 2419 4116 
z
M 2253 4666 
L 3047 4666 
L 3047 1625 
L 3713 1625 
L 3713 1100 
L 3047 1100 
L 3047 0 
L 2419 0 
L 2419 1100 
L 313 1100 
L 313 1709 
L 2253 4666 
z
" transform="scale(0.015625)"/>
       </defs>
       <use xlink:href="#DejaVuSans-34"/>
       <use xlink:href="#DejaVuSans-30" transform="translate(63.623047 0)"/>
       <use xlink:href="#DejaVuSans-30" transform="translate(127.246094 0)"/>
      </g>
     </g>
    </g>
    <g id="ytick_3">
     <g id="line2d_9">
      <g>
       <use xlink:href="#mbbfaf5e7de" x="59.135" y="348.444053" style="stroke: #000000; stroke-width: 0.8"/>
      </g>
     </g>
     <g id="text_10">
      <!-- 600 -->
      <g transform="translate(33.0475 352.243271) scale(0.1 -0.1)">
       <use xlink:href="#DejaVuSans-36"/>
       <use xlink:href="#DejaVuSans-30" transform="translate(63.623047 0)"/>
       <use xlink:href="#DejaVuSans-30" transform="translate(127.246094 0)"/>
      </g>
     </g>
    </g>
    <g id="ytick_4">
     <g id="line2d_10">
      <g>
       <use xlink:href="#mbbfaf5e7de" x="59.135" y="297.611982" style="stroke: #000000; stroke-width: 0.8"/>
      </g>
     </g>
     <g id="text_11">
      <!-- 800 -->
      <g transform="translate(33.0475 301.411201) scale(0.1 -0.1)">
       <use xlink:href="#DejaVuSans-38"/>
       <use xlink:href="#DejaVuSans-30" transform="translate(63.623047 0)"/>
       <use xlink:href="#DejaVuSans-30" transform="translate(127.246094 0)"/>
      </g>
     </g>
    </g>
    <g id="ytick_5">
     <g id="line2d_11">
      <g>
       <use xlink:href="#mbbfaf5e7de" x="59.135" y="246.779912" style="stroke: #000000; stroke-width: 0.8"/>
      </g>
     </g>
     <g id="text_12">
      <!-- 1000 -->
      <g transform="translate(26.685 250.579131) scale(0.1 -0.1)">
       <use xlink:href="#DejaVuSans-31"/>
       <use xlink:href="#DejaVuSans-30" transform="translate(63.623047 0)"/>
       <use xlink:href="#DejaVuSans-30" transform="translate(127.246094 0)"/>
       <use xlink:href="#DejaVuSans-30" transform="translate(190.869141 0)"/>
      </g>
     </g>
    </g>
    <g id="ytick_6">
     <g id="line2d_12">
      <g>
       <use xlink:href="#mbbfaf5e7de" x="59.135" y="195.947842" style="stroke: #000000; stroke-width: 0.8"/>
      </g>
     </g>
     <g id="text_13">
      <!-- 1200 -->
      <g transform="translate(26.685 199.74706) scale(0.1 -0.1)">
       <use xlink:href="#DejaVuSans-31"/>
       <use xlink:href="#DejaVuSans-32" transform="translate(63.623047 0)"/>
       <use xlink:href="#DejaVuSans-30" transform="translate(127.246094 0)"/>
       <use xlink:href="#DejaVuSans-30" transform="translate(190.869141 0)"/>
      </g>
     </g>
    </g>
    <g id="ytick_7">
     <g id="line2d_13">
      <g>
       <use xlink:href="#mbbfaf5e7de" x="59.135" y="145.115771" style="stroke: #000000; stroke-width: 0.8"/>
      </g>
     </g>
     <g id="text_14">
      <!-- 1400 -->
      <g transform="translate(26.685 148.91499) scale(0.1 -0.1)">
       <use xlink:href="#DejaVuSans-31"/>
       <use xlink:href="#DejaVuSans-34" transform="translate(63.623047 0)"/>
       <use xlink:href="#DejaVuSans-30" transform="translate(127.246094 0)"/>
       <use xlink:href="#DejaVuSans-30" transform="translate(190.869141 0)"/>
      </g>
     </g>
    </g>
    <g id="ytick_8">
     <g id="line2d_14">
      <g>
       <use xlink:href="#mbbfaf5e7de" x="59.135" y="94.283701" style="stroke: #000000; stroke-width: 0.8"/>
      </g>
     </g>
     <g id="text_15">
      <!-- 1600 -->
      <g transform="translate(26.685 98.08292) scale(0.1 -0.1)">
       <use xlink:href="#DejaVuSans-31"/>
       <use xlink:href="#DejaVuSans-36" transform="translate(63.623047 0)"/>
       <use xlink:href="#DejaVuSans-30" transform="translate(127.246094 0)"/>
       <use xlink:href="#DejaVuSans-30" transform="translate(190.869141 0)"/>
      </g>
     </g>
    </g>
    <g id="ytick_9">
     <g id="line2d_15">
      <g>
       <use xlink:href="#mbbfaf5e7de" x="59.135" y="43.45163" style="stroke: #000000; stroke-width: 0.8"/>
      </g>
     </g>
     <g id="text_16">
      <!-- 1800 -->
      <g transform="translate(26.685 47.250849) scale(0.1 -0.1)">
       <use xlink:href="#DejaVuSans-31"/>
       <use xlink:href="#DejaVuSans-38" transform="translate(63.623047 0)"/>
       <use xlink:href="#DejaVuSans-30" transform="translate(127.246094 0)"/>
       <use xlink:href="#DejaVuSans-30" transform="translate(190.869141 0)"/>
      </g>
     </g>
    </g>
    <g id="text_17">
     <!-- Root Mean Squared Error (RMSE) -->
     <g transform="translate(19.3575 394.303437) rotate(-90) scale(0.16 -0.16)">
      <defs>
       <path id="DejaVuSans-52" d="M 2841 2188 
Q 3044 2119 3236 1894 
Q 3428 1669 3622 1275 
L 4263 0 
L 3584 0 
L 2988 1197 
Q 2756 1666 2539 1819 
Q 2322 1972 1947 1972 
L 1259 1972 
L 1259 0 
L 628 0 
L 628 4666 
L 2053 4666 
Q 2853 4666 3247 4331 
Q 3641 3997 3641 3322 
Q 3641 2881 3436 2590 
Q 3231 2300 2841 2188 
z
M 1259 4147 
L 1259 2491 
L 2053 2491 
Q 2509 2491 2742 2702 
Q 2975 2913 2975 3322 
Q 2975 3731 2742 3939 
Q 2509 4147 2053 4147 
L 1259 4147 
z
" transform="scale(0.015625)"/>
       <path id="DejaVuSans-4d" d="M 628 4666 
L 1569 4666 
L 2759 1491 
L 3956 4666 
L 4897 4666 
L 4897 0 
L 4281 0 
L 4281 4097 
L 3078 897 
L 2444 897 
L 1241 4097 
L 1241 0 
L 628 0 
L 628 4666 
z
" transform="scale(0.015625)"/>
       <path id="DejaVuSans-6e" d="M 3513 2113 
L 3513 0 
L 2938 0 
L 2938 2094 
Q 2938 2591 2744 2837 
Q 2550 3084 2163 3084 
Q 1697 3084 1428 2787 
Q 1159 2491 1159 1978 
L 1159 0 
L 581 0 
L 581 3500 
L 1159 3500 
L 1159 2956 
Q 1366 3272 1645 3428 
Q 1925 3584 2291 3584 
Q 2894 3584 3203 3211 
Q 3513 2838 3513 2113 
z
" transform="scale(0.015625)"/>
       <path id="DejaVuSans-53" d="M 3425 4513 
L 3425 3897 
Q 3066 4069 2747 4153 
Q 2428 4238 2131 4238 
Q 1616 4238 1336 4038 
Q 1056 3838 1056 3469 
Q 1056 3159 1242 3001 
Q 1428 2844 1947 2747 
L 2328 2669 
Q 3034 2534 3370 2195 
Q 3706 1856 3706 1288 
Q 3706 609 3251 259 
Q 2797 -91 1919 -91 
Q 1588 -91 1214 -16 
Q 841 59 441 206 
L 441 856 
Q 825 641 1194 531 
Q 1563 422 1919 422 
Q 2459 422 2753 634 
Q 3047 847 3047 1241 
Q 3047 1584 2836 1778 
Q 2625 1972 2144 2069 
L 1759 2144 
Q 1053 2284 737 2584 
Q 422 2884 422 3419 
Q 422 4038 858 4394 
Q 1294 4750 2059 4750 
Q 2388 4750 2728 4690 
Q 3069 4631 3425 4513 
z
" transform="scale(0.015625)"/>
       <path id="DejaVuSans-71" d="M 947 1747 
Q 947 1113 1208 752 
Q 1469 391 1925 391 
Q 2381 391 2643 752 
Q 2906 1113 2906 1747 
Q 2906 2381 2643 2742 
Q 2381 3103 1925 3103 
Q 1469 3103 1208 2742 
Q 947 2381 947 1747 
z
M 2906 525 
Q 2725 213 2448 61 
Q 2172 -91 1784 -91 
Q 1150 -91 751 415 
Q 353 922 353 1747 
Q 353 2572 751 3078 
Q 1150 3584 1784 3584 
Q 2172 3584 2448 3432 
Q 2725 3281 2906 2969 
L 2906 3500 
L 3481 3500 
L 3481 -1331 
L 2906 -1331 
L 2906 525 
z
" transform="scale(0.015625)"/>
       <path id="DejaVuSans-75" d="M 544 1381 
L 544 3500 
L 1119 3500 
L 1119 1403 
Q 1119 906 1312 657 
Q 1506 409 1894 409 
Q 2359 409 2629 706 
Q 2900 1003 2900 1516 
L 2900 3500 
L 3475 3500 
L 3475 0 
L 2900 0 
L 2900 538 
Q 2691 219 2414 64 
Q 2138 -91 1772 -91 
Q 1169 -91 856 284 
Q 544 659 544 1381 
z
M 1991 3584 
L 1991 3584 
z
" transform="scale(0.015625)"/>
       <path id="DejaVuSans-64" d="M 2906 2969 
L 2906 4863 
L 3481 4863 
L 3481 0 
L 2906 0 
L 2906 525 
Q 2725 213 2448 61 
Q 2172 -91 1784 -91 
Q 1150 -91 751 415 
Q 353 922 353 1747 
Q 353 2572 751 3078 
Q 1150 3584 1784 3584 
Q 2172 3584 2448 3432 
Q 2725 3281 2906 2969 
z
M 947 1747 
Q 947 1113 1208 752 
Q 1469 391 1925 391 
Q 2381 391 2643 752 
Q 2906 1113 2906 1747 
Q 2906 2381 2643 2742 
Q 2381 3103 1925 3103 
Q 1469 3103 1208 2742 
Q 947 2381 947 1747 
z
" transform="scale(0.015625)"/>
       <path id="DejaVuSans-45" d="M 628 4666 
L 3578 4666 
L 3578 4134 
L 1259 4134 
L 1259 2753 
L 3481 2753 
L 3481 2222 
L 1259 2222 
L 1259 531 
L 3634 531 
L 3634 0 
L 628 0 
L 628 4666 
z
" transform="scale(0.015625)"/>
      </defs>
      <use xlink:href="#DejaVuSans-52"/>
      <use xlink:href="#DejaVuSans-6f" transform="translate(64.982422 0)"/>
      <use xlink:href="#DejaVuSans-6f" transform="translate(126.164062 0)"/>
      <use xlink:href="#DejaVuSans-74" transform="translate(187.345703 0)"/>
      <use xlink:href="#DejaVuSans-20" transform="translate(226.554688 0)"/>
      <use xlink:href="#DejaVuSans-4d" transform="translate(258.341797 0)"/>
      <use xlink:href="#DejaVuSans-65" transform="translate(344.621094 0)"/>
      <use xlink:href="#DejaVuSans-61" transform="translate(406.144531 0)"/>
      <use xlink:href="#DejaVuSans-6e" transform="translate(467.423828 0)"/>
      <use xlink:href="#DejaVuSans-20" transform="translate(530.802734 0)"/>
      <use xlink:href="#DejaVuSans-53" transform="translate(562.589844 0)"/>
      <use xlink:href="#DejaVuSans-71" transform="translate(626.066406 0)"/>
      <use xlink:href="#DejaVuSans-75" transform="translate(689.542969 0)"/>
      <use xlink:href="#DejaVuSans-61" transform="translate(752.921875 0)"/>
      <use xlink:href="#DejaVuSans-72" transform="translate(814.201172 0)"/>
      <use xlink:href="#DejaVuSans-65" transform="translate(853.064453 0)"/>
      <use xlink:href="#DejaVuSans-64" transform="translate(914.587891 0)"/>
      <use xlink:href="#DejaVuSans-20" transform="translate(978.064453 0)"/>
      <use xlink:href="#DejaVuSans-45" transform="translate(1009.851562 0)"/>
      <use xlink:href="#DejaVuSans-72" transform="translate(1073.035156 0)"/>
      <use xlink:href="#DejaVuSans-72" transform="translate(1112.398438 0)"/>
      <use xlink:href="#DejaVuSans-6f" transform="translate(1151.261719 0)"/>
      <use xlink:href="#DejaVuSans-72" transform="translate(1212.443359 0)"/>
      <use xlink:href="#DejaVuSans-20" transform="translate(1253.556641 0)"/>
      <use xlink:href="#DejaVuSans-28" transform="translate(1285.34375 0)"/>
      <use xlink:href="#DejaVuSans-52" transform="translate(1324.357422 0)"/>
      <use xlink:href="#DejaVuSans-4d" transform="translate(1393.839844 0)"/>
      <use xlink:href="#DejaVuSans-53" transform="translate(1480.119141 0)"/>
      <use xlink:href="#DejaVuSans-45" transform="translate(1543.595703 0)"/>
      <use xlink:href="#DejaVuSans-29" transform="translate(1606.779297 0)"/>
     </g>
    </g>
   </g>
   <g id="line2d_16">
    <path d="M 97.180455 163.795471 
L 100.236314 259.832514 
L 103.292174 234.387144 
L 106.348034 175.044332 
L 109.403894 217.504003 
L 112.459754 214.920422 
L 115.515613 239.053896 
L 118.571473 236.43746 
L 121.627333 205.141546 
L 124.683193 210.065065 
L 127.739053 238.71969 
L 130.794912 248.261656 
L 133.850772 242.67638 
L 136.906632 233.966439 
L 139.962492 217.985145 
L 143.018352 271.214318 
L 146.074211 288.119813 
L 149.130071 263.908387 
L 152.185931 286.871629 
L 155.241791 261.958159 
L 158.297651 244.50491 
L 161.35351 262.394113 
L 164.40937 265.125856 
L 167.46523 234.678131 
L 170.52109 278.155747 
L 173.57695 260.290961 
L 176.632809 239.111169 
L 179.688669 278.444361 
L 182.744529 232.328823 
L 185.800389 255.386755 
L 188.856249 263.837339 
L 191.912108 270.695852 
L 194.967968 245.632995 
L 198.023828 285.696618 
L 201.079688 233.603255 
L 204.135548 207.699469 
L 207.191407 252.833284 
L 210.247267 238.570334 
L 213.303127 275.935194 
L 216.358987 290.882519 
L 219.414847 256.573121 
L 222.470706 266.498716 
L 225.526566 274.514462 
L 231.638286 247.318358 
L 234.694146 260.526397 
L 237.750005 266.744065 
L 240.805865 257.54265 
L 243.861725 207.651411 
L 246.917585 199.265515 
L 249.973445 258.7158 
L 253.029304 202.792456 
L 256.085164 222.133959 
L 259.141024 227.940059 
L 262.196884 264.038476 
L 265.252744 281.172536 
L 268.308604 268.32917 
L 271.364463 235.265039 
L 274.420323 233.129621 
L 277.476183 249.614551 
L 280.532043 244.459365 
L 283.587903 246.75368 
L 286.643762 237.833077 
L 289.699622 240.453702 
L 292.755482 244.554923 
L 295.811342 274.953953 
L 298.867202 249.871457 
L 301.923061 266.64106 
L 304.978921 261.655739 
L 308.034781 281.605465 
L 311.090641 273.935202 
L 314.146501 241.061537 
L 317.20236 261.326031 
L 320.25822 241.662515 
L 323.31408 276.099707 
L 326.36994 275.873624 
L 329.4258 279.267466 
L 332.481659 286.712018 
L 335.537519 288.945012 
L 338.593379 260.394679 
L 341.649239 280.659763 
L 344.705099 268.256881 
L 347.760958 267.041552 
L 350.816818 300.719148 
L 356.928538 240.581961 
L 359.984398 267.328786 
L 363.040257 269.514729 
L 366.096117 305.720914 
L 369.151977 247.191619 
L 372.207837 246.031082 
L 375.263697 275.564983 
L 378.319556 277.436003 
L 381.375416 243.36457 
L 384.431276 231.224039 
L 387.487136 213.446279 
L 390.542996 268.065376 
L 393.598855 290.637992 
L 396.654715 290.545955 
L 399.710575 289.117762 
L 402.766435 259.771207 
L 405.822295 251.673848 
L 408.878154 282.532892 
L 411.934014 299.04725 
L 414.989874 313.234452 
L 418.045734 302.161149 
L 421.101594 294.472534 
L 424.157453 303.996489 
L 427.213313 311.679814 
L 430.269173 307.297828 
L 433.325033 288.110738 
L 436.380893 280.540563 
L 439.436752 250.923964 
L 442.492612 253.445881 
L 445.548472 280.294811 
L 448.604332 303.040456 
L 451.660192 265.903446 
L 454.716051 261.010425 
L 457.771911 292.455074 
L 460.827771 305.096217 
L 463.883631 239.859875 
L 466.939491 287.935305 
L 469.99535 267.66279 
L 473.05121 282.409877 
L 476.10707 244.644773 
L 479.16293 253.775403 
L 482.21879 255.490349 
L 485.27465 248.276517 
L 488.330509 253.600233 
L 491.386369 269.91671 
L 494.442229 241.770763 
L 497.498089 262.350538 
L 500.553949 245.574574 
L 503.609808 266.601131 
L 506.665668 315.282394 
L 509.721528 288.811509 
L 512.777388 294.690969 
L 515.833248 301.992044 
L 518.889107 257.64913 
L 521.944967 286.5971 
L 525.000827 302.732141 
L 528.056687 265.816156 
L 531.112547 278.646771 
L 534.168406 285.233145 
L 537.224266 269.102587 
L 540.280126 285.577992 
L 543.335986 273.730744 
L 546.391846 254.983766 
L 549.447705 291.705779 
L 552.503565 282.9679 
L 555.559425 284.289289 
L 558.615285 280.820087 
L 561.671145 276.684412 
L 564.727004 251.935315 
L 567.782864 251.807971 
L 570.838724 266.771941 
L 573.894584 250.012809 
L 576.950444 298.400261 
L 580.006303 257.032453 
L 583.062163 262.506378 
L 586.118023 268.876784 
L 589.173883 266.42095 
L 592.229743 280.318452 
L 595.285602 252.194517 
L 598.341462 196.48393 
L 601.397322 214.041719 
L 604.453182 238.364728 
L 607.509042 268.141668 
L 610.564901 283.358867 
L 613.620761 251.018296 
L 616.676621 249.405176 
L 619.732481 220.699932 
L 622.788341 287.555709 
L 625.8442 264.471281 
L 628.90006 264.422401 
L 631.95592 278.292615 
L 635.01178 264.054237 
L 638.06764 258.117133 
L 641.123499 249.931879 
L 644.179359 261.733442 
L 647.235219 257.778009 
L 650.291079 254.342129 
L 653.346939 268.782731 
L 656.402798 257.093976 
L 659.458658 227.773111 
L 662.514518 233.113333 
L 665.570378 222.338137 
L 668.626238 227.834386 
L 671.682097 275.186861 
L 674.737957 226.069628 
L 677.793817 234.499611 
L 680.849677 219.769076 
L 683.905537 225.119195 
L 686.961396 205.312496 
L 690.017256 262.554297 
L 693.073116 211.690829 
L 696.128976 247.695783 
L 699.184836 258.708509 
L 702.240696 233.157637 
L 705.296555 252.26206 
L 708.352415 269.134792 
L 711.408275 252.543119 
L 717.519995 206.974901 
L 720.575854 267.031484 
L 723.631714 258.814662 
L 726.687574 265.922372 
L 729.743434 246.234547 
L 732.799294 283.674908 
L 735.855153 292.128656 
L 738.911013 287.776517 
L 741.966873 258.847983 
L 745.022733 246.432163 
L 748.078593 247.845884 
L 751.134452 231.974203 
L 754.190312 260.780775 
L 757.246172 297.971986 
L 760.302032 297.679711 
L 763.357892 271.861539 
L 766.413751 226.242254 
L 769.469611 215.425454 
L 772.525471 219.112485 
L 775.581331 220.435627 
L 778.637191 242.613382 
L 781.69305 254.209557 
L 784.74891 243.078671 
L 787.80477 216.69275 
L 790.86063 243.208202 
L 793.91649 283.314609 
L 796.972349 229.01146 
L 800.028209 272.740009 
L 803.084069 241.73513 
L 806.139929 238.68066 
L 809.195789 254.052599 
L 812.251648 284.536546 
L 815.307508 276.376593 
L 818.363368 292.220879 
L 821.419228 255.836298 
L 824.475088 265.227898 
L 827.530947 247.745454 
L 830.586807 226.783958 
L 833.642667 273.979413 
L 836.698527 304.502467 
L 839.754387 285.809659 
L 842.810246 264.010243 
L 845.866106 290.809858 
L 848.921966 314.073969 
L 851.977826 282.732029 
L 855.033686 284.997227 
L 858.089545 276.839663 
L 858.089545 276.839663 
" clip-path="url(#p51a3028661)" style="fill: none; stroke: #0000ff; stroke-width: 2; stroke-linecap: square"/>
   </g>
   <g id="line2d_17">
    <path d="M 97.180455 425.315831 
L 100.236314 390.439149 
L 103.292174 409.100722 
L 106.348034 414.076426 
L 109.403894 370.824373 
L 112.459754 409.536459 
L 115.515613 321.338714 
L 118.571473 375.097126 
L 121.627333 343.246176 
L 124.683193 409.588256 
L 127.739053 383.193787 
L 130.794912 411.553197 
L 133.850772 408.167811 
L 136.906632 414.013995 
L 139.962492 286.000915 
L 143.018352 371.4489 
L 146.074211 346.705093 
L 149.130071 414.602858 
L 152.185931 384.553081 
L 155.241791 349.263714 
L 158.297651 416.681042 
L 161.35351 401.667152 
L 164.40937 404.724856 
L 167.46523 241.501322 
L 170.52109 358.680739 
L 173.57695 360.744861 
L 176.632809 363.228075 
L 179.688669 426.12876 
L 182.744529 363.678394 
L 185.800389 401.621747 
L 188.856249 326.551002 
L 191.912108 358.001081 
L 194.967968 400.556419 
L 198.023828 348.370988 
L 201.079688 409.804402 
L 204.135548 423.946276 
L 207.191407 418.313577 
L 210.247267 412.202614 
L 213.303127 403.607739 
L 216.358987 393.63096 
L 219.414847 429.06783 
L 222.470706 421.821305 
L 225.526566 324.322337 
L 228.582426 401.584237 
L 231.638286 419.106983 
L 234.694146 408.722111 
L 237.750005 364.273306 
L 240.805865 300.623404 
L 243.861725 321.310031 
L 246.917585 343.828197 
L 249.973445 397.342571 
L 253.029304 415.957901 
L 256.085164 447.85757 
L 259.141024 394.839114 
L 262.196884 459.408436 
L 265.252744 299.37342 
L 268.308604 321.137669 
L 271.364463 424.014896 
L 274.420323 359.726964 
L 277.476183 380.990485 
L 280.532043 364.139168 
L 283.587903 391.250588 
L 286.643762 309.335222 
L 289.699622 397.587416 
L 292.755482 268.482342 
L 295.811342 230.572629 
L 298.867202 423.534917 
L 301.923061 379.59268 
L 304.978921 282.707007 
L 308.034781 414.816871 
L 311.090641 61.037187 
L 314.146501 364.641392 
L 317.20236 412.313452 
L 320.25822 349.56753 
L 323.31408 394.499796 
L 326.36994 402.564408 
L 329.4258 347.96274 
L 332.481659 413.421751 
L 335.537519 384.249528 
L 338.593379 301.274302 
L 341.649239 191.41847 
L 344.705099 388.468056 
L 347.760958 438.527679 
L 350.816818 373.168663 
L 353.872678 385.571049 
L 356.928538 421.346407 
L 359.984398 387.308 
L 363.040257 410.509432 
L 366.096117 410.64039 
L 369.151977 374.016549 
L 372.207837 271.07098 
L 375.263697 321.709406 
L 378.319556 353.398147 
L 381.375416 307.498051 
L 384.431276 287.81899 
L 387.487136 313.044126 
L 390.542996 455.409494 
L 393.598855 390.924325 
L 396.654715 372.979477 
L 399.710575 317.109652 
L 402.766435 229.164167 
L 405.822295 430.744778 
L 408.878154 405.967324 
L 411.934014 396.679155 
L 414.989874 287.60642 
L 418.045734 376.523986 
L 421.101594 413.52567 
L 424.157453 400.496679 
L 427.213313 339.714132 
L 430.269173 333.89148 
L 433.325033 268.994557 
L 436.380893 271.550882 
L 439.436752 323.989496 
L 442.492612 228.24479 
L 445.548472 236.484153 
L 448.604332 346.501007 
L 451.660192 292.353249 
L 454.716051 328.960577 
L 457.771911 298.745124 
L 460.827771 402.65487 
L 463.883631 386.004846 
L 466.939491 282.690114 
L 469.99535 375.85991 
L 473.05121 348.638908 
L 476.10707 424.092041 
L 479.16293 438.178802 
L 482.21879 403.691725 
L 485.27465 281.771513 
L 488.330509 264.004271 
L 491.386369 368.612337 
L 494.442229 271.984354 
L 497.498089 393.387372 
L 500.553949 403.606599 
L 503.609808 380.978664 
L 506.665668 328.692408 
L 509.721528 373.857047 
L 512.777388 311.166436 
L 515.833248 323.462498 
L 518.889107 354.466244 
L 521.944967 367.302289 
L 525.000827 323.843319 
L 528.056687 321.979017 
L 531.112547 312.808488 
L 534.168406 282.27732 
L 537.224266 430.749161 
L 540.280126 391.282141 
L 543.335986 384.443895 
L 546.391846 375.599971 
L 549.447705 409.670621 
L 552.503565 364.259903 
L 555.559425 393.057626 
L 558.615285 275.251735 
L 561.671145 269.575617 
L 564.727004 280.185741 
L 567.782864 264.738038 
L 570.838724 263.430285 
L 573.894584 386.025556 
L 576.950444 243.630319 
L 580.006303 338.498928 
L 583.062163 419.130174 
L 586.118023 367.944639 
L 589.173883 228.610704 
L 592.229743 214.662042 
L 595.285602 234.9277 
L 598.341462 433.429719 
L 601.397322 334.931995 
L 604.453182 240.202396 
L 607.509042 285.305325 
L 610.564901 434.611866 
L 613.620761 375.017135 
L 616.676621 224.435674 
L 619.732481 272.596656 
L 622.788341 385.793237 
L 625.8442 361.21544 
L 628.90006 368.978096 
L 631.95592 262.689584 
L 635.01178 244.716953 
L 638.06764 357.231712 
L 641.123499 366.44822 
L 644.179359 392.809158 
L 647.235219 218.306724 
L 650.291079 300.05131 
L 653.346939 389.076527 
L 656.402798 388.547427 
L 659.458658 398.016591 
L 662.514518 406.726245 
L 665.570378 301.39147 
L 668.626238 356.081087 
L 671.682097 316.68282 
L 674.737957 260.505067 
L 677.793817 427.45744 
L 680.849677 362.405513 
L 683.905537 353.000386 
L 686.961396 384.371357 
L 690.017256 422.76876 
L 693.073116 386.333134 
L 696.128976 370.320831 
L 699.184836 365.002559 
L 702.240696 358.204282 
L 705.296555 352.026389 
L 708.352415 383.367258 
L 711.408275 279.779401 
L 714.464135 276.173858 
L 717.519995 301.008926 
L 720.575854 313.979496 
L 723.631714 345.637492 
L 726.687574 341.78328 
L 729.743434 417.330187 
L 732.799294 384.529703 
L 735.855153 297.084193 
L 738.911013 326.606072 
L 741.966873 352.892743 
L 745.022733 313.800821 
L 748.078593 315.069296 
L 751.134452 418.725735 
L 754.190312 406.483083 
L 757.246172 345.460414 
L 760.302032 400.356537 
L 763.357892 400.334377 
L 766.413751 314.538838 
L 769.469611 438.48097 
L 772.525471 334.407169 
L 775.581331 338.63772 
L 778.637191 390.166459 
L 781.69305 375.897427 
L 784.74891 377.238509 
L 787.80477 369.842853 
L 790.86063 394.27442 
L 793.91649 297.35095 
L 796.972349 346.485262 
L 800.028209 392.754561 
L 803.084069 359.247 
L 806.139929 388.971584 
L 809.195789 330.733944 
L 815.307508 425.621013 
L 818.363368 245.251553 
L 821.419228 349.581336 
L 824.475088 394.233901 
L 827.530947 344.318554 
L 830.586807 322.052019 
L 833.642667 375.466988 
L 836.698527 249.137007 
L 839.754387 368.974327 
L 842.810246 344.749947 
L 845.866106 343.965547 
L 848.921966 329.993786 
L 851.977826 345.59719 
L 855.033686 343.802182 
L 858.089545 368.015113 
L 858.089545 368.015113 
" clip-path="url(#p51a3028661)" style="fill: none; stroke: #ffa500; stroke-width: 2; stroke-linecap: square"/>
   </g>
   <g id="line2d_18">
    <path d="M 97.180455 145.584379 
L 100.236314 240.25638 
L 103.292174 198.2996 
L 106.348034 154.415738 
L 109.403894 198.431769 
L 112.459754 192.162801 
L 115.515613 228.364828 
L 118.571473 214.406734 
L 121.627333 170.597891 
L 124.683193 186.210416 
L 127.739053 227.003091 
L 133.850772 237.050615 
L 136.906632 219.605572 
L 139.962492 199.703781 
L 143.018352 244.677923 
L 146.074211 271.578045 
L 149.130071 252.762763 
L 152.185931 279.794588 
L 155.241791 246.083453 
L 158.297651 225.032293 
L 161.35351 249.296524 
L 164.40937 247.096046 
L 167.46523 219.72229 
L 170.52109 263.619478 
L 173.57695 240.007122 
L 176.632809 219.421995 
L 179.688669 259.028784 
L 182.744529 214.600332 
L 185.800389 244.399532 
L 188.856249 247.467467 
L 191.912108 251.658568 
L 194.967968 232.99041 
L 198.023828 265.047222 
L 201.079688 215.562183 
L 204.135548 192.987146 
L 207.191407 243.83611 
L 210.247267 221.038916 
L 213.303127 267.806934 
L 216.358987 282.090485 
L 219.414847 243.305048 
L 222.470706 249.079502 
L 225.526566 266.821396 
L 228.582426 246.291742 
L 231.638286 226.559923 
L 234.694146 251.991207 
L 237.750005 254.029423 
L 240.805865 236.484463 
L 243.861725 179.528189 
L 246.917585 172.731541 
L 249.973445 243.21509 
L 253.029304 177.539924 
L 256.085164 189.212903 
L 259.141024 208.522667 
L 262.196884 252.642416 
L 265.252744 267.554604 
L 268.308604 250.968656 
L 271.364463 223.084454 
L 274.420323 214.730577 
L 277.476183 234.011147 
L 280.532043 226.675586 
L 283.587903 231.2855 
L 286.643762 215.805422 
L 289.699622 217.929982 
L 292.755482 228.370133 
L 295.811342 250.621776 
L 298.867202 227.525435 
L 301.923061 252.945255 
L 304.978921 245.150332 
L 308.034781 266.9197 
L 311.090641 256.027089 
L 314.146501 236.538044 
L 317.20236 245.424938 
L 320.25822 230.575917 
L 323.31408 259.456051 
L 326.36994 255.694729 
L 329.4258 260.091095 
L 332.481659 273.234725 
L 335.537519 275.159807 
L 338.593379 244.067793 
L 341.649239 269.14973 
L 344.705099 256.140999 
L 347.760958 258.236705 
L 350.816818 285.254676 
L 353.872678 249.480986 
L 356.928538 230.631887 
L 359.984398 251.891616 
L 363.040257 265.397561 
L 366.096117 287.314641 
L 369.151977 226.867727 
L 372.207837 217.535028 
L 375.263697 268.523141 
L 378.319556 258.589511 
L 381.375416 221.414138 
L 387.487136 197.784733 
L 390.542996 256.654656 
L 393.598855 271.912545 
L 396.654715 276.759881 
L 399.710575 267.909644 
L 405.822295 233.696642 
L 408.878154 266.905878 
L 414.989874 306.21594 
L 418.045734 290.572529 
L 421.101594 278.670273 
L 424.157453 296.992901 
L 427.213313 301.329946 
L 430.269173 293.07836 
L 433.325033 277.760467 
L 436.380893 265.376278 
L 439.436752 236.223353 
L 442.492612 230.643491 
L 445.548472 267.943229 
L 448.604332 286.025767 
L 451.660192 249.995838 
L 454.716051 240.491305 
L 457.771911 280.508173 
L 460.827771 297.460826 
L 463.883631 224.180552 
L 466.939491 273.191708 
L 469.99535 253.696645 
L 473.05121 282.508103 
L 476.10707 227.227249 
L 479.16293 239.199716 
L 482.21879 240.061758 
L 485.27465 235.275464 
L 488.330509 238.826201 
L 491.386369 254.131156 
L 494.442229 221.206143 
L 497.498089 245.069045 
L 500.553949 229.875798 
L 503.609808 247.69493 
L 506.665668 303.927768 
L 509.721528 271.138724 
L 512.777388 290.297147 
L 515.833248 291.090033 
L 518.889107 242.631191 
L 521.944967 274.91545 
L 525.000827 292.874926 
L 528.056687 253.612224 
L 531.112547 264.051833 
L 534.168406 273.726897 
L 537.224266 254.563169 
L 540.280126 273.908939 
L 543.335986 260.250814 
L 546.391846 237.51792 
L 549.447705 275.726859 
L 552.503565 279.41448 
L 555.559425 277.992801 
L 558.615285 262.782303 
L 561.671145 263.285753 
L 564.727004 242.19758 
L 567.782864 243.623772 
L 570.838724 258.14231 
L 573.894584 236.889655 
L 576.950444 283.965771 
L 580.006303 237.811762 
L 583.062163 242.309318 
L 586.118023 256.860572 
L 589.173883 256.951709 
L 592.229743 264.748524 
L 595.285602 231.752371 
L 598.341462 194.585918 
L 601.397322 194.52002 
L 604.453182 222.263056 
L 607.509042 251.195576 
L 610.564901 266.292676 
L 613.620761 230.139452 
L 616.676621 235.607343 
L 619.732481 200.973062 
L 622.788341 271.979824 
L 625.8442 245.554485 
L 628.90006 251.176355 
L 631.95592 266.415459 
L 635.01178 252.576813 
L 638.06764 240.99249 
L 641.123499 234.444758 
L 644.179359 245.145213 
L 647.235219 246.259895 
L 650.291079 244.253402 
L 653.346939 259.673182 
L 656.402798 232.553044 
L 659.458658 209.61501 
L 662.514518 215.045206 
L 665.570378 202.055819 
L 668.626238 217.896164 
L 671.682097 256.514343 
L 674.737957 211.533003 
L 677.793817 217.23312 
L 680.849677 202.125564 
L 683.905537 214.404065 
L 686.961396 190.817817 
L 690.017256 246.807757 
L 693.073116 186.512976 
L 696.128976 233.746903 
L 699.184836 240.01767 
L 702.240696 211.164203 
L 705.296555 236.833189 
L 708.352415 254.749012 
L 711.408275 243.234201 
L 714.464135 210.503486 
L 717.519995 189.244145 
L 720.575854 257.574513 
L 723.631714 249.044722 
L 726.687574 253.90588 
L 729.743434 228.029164 
L 732.799294 273.107009 
L 735.855153 282.682295 
L 738.911013 274.463348 
L 741.966873 242.43494 
L 745.022733 224.149185 
L 748.078593 233.266226 
L 751.134452 222.674112 
L 754.190312 242.788273 
L 757.246172 284.312946 
L 760.302032 284.053123 
L 763.357892 264.682782 
L 766.413751 206.183318 
L 769.469611 202.279171 
L 772.525471 195.759858 
L 775.581331 203.250019 
L 778.637191 227.845307 
L 781.69305 241.243594 
L 784.74891 223.740425 
L 787.80477 198.681337 
L 790.86063 229.381624 
L 793.91649 265.041249 
L 796.972349 210.542702 
L 800.028209 266.588519 
L 803.084069 216.867888 
L 806.139929 216.538677 
L 809.195789 234.653838 
L 812.251648 269.085849 
L 815.307508 262.735207 
L 818.363368 270.638176 
L 821.419228 238.071507 
L 824.475088 244.777934 
L 827.530947 224.875087 
L 830.586807 208.425061 
L 833.642667 263.187356 
L 836.698527 296.768913 
L 839.754387 262.222201 
L 842.810246 244.83727 
L 845.866106 279.459684 
L 848.921966 300.938033 
L 851.977826 266.728754 
L 855.033686 271.847252 
L 858.089545 261.749001 
L 858.089545 261.749001 
" clip-path="url(#p51a3028661)" style="fill: none; stroke-dasharray: 7.4,3.2; stroke-dashoffset: 0; stroke: #0000ff; stroke-width: 2"/>
   </g>
   <g id="line2d_19">
    <path d="M 97.180455 434.787183 
L 100.236314 417.39161 
L 103.292174 416.267116 
L 106.348034 430.763378 
L 109.403894 376.849931 
L 112.459754 430.782691 
L 115.515613 318.592932 
L 118.571473 383.094025 
L 121.627333 338.096745 
L 124.683193 428.258439 
L 127.739053 387.471341 
L 130.794912 417.094588 
L 133.850772 434.744748 
L 136.906632 443.336229 
L 139.962492 280.917631 
L 143.018352 374.555089 
L 146.074211 351.88558 
L 149.130071 439.986599 
L 152.185931 405.621499 
L 155.241791 355.846504 
L 158.297651 416.018176 
L 161.35351 414.421072 
L 164.40937 406.138305 
L 167.46523 239.210544 
L 170.52109 355.449503 
L 173.57695 371.024526 
L 176.632809 374.662382 
L 179.688669 420.710688 
L 182.744529 347.536916 
L 185.800389 429.221755 
L 188.856249 325.276989 
L 191.912108 385.819407 
L 194.967968 401.85052 
L 198.023828 358.943556 
L 201.079688 412.697826 
L 204.135548 436.392923 
L 207.191407 417.095782 
L 210.247267 445.474138 
L 213.303127 410.719094 
L 216.358987 402.080303 
L 219.414847 427.110886 
L 222.470706 425.068629 
L 225.526566 313.922441 
L 228.582426 405.606382 
L 231.638286 422.753356 
L 234.694146 426.320924 
L 237.750005 360.232616 
L 243.861725 318.694757 
L 246.917585 327.3453 
L 249.973445 376.80648 
L 253.029304 408.545452 
L 256.085164 449.395462 
L 259.141024 412.943478 
L 262.196884 456.637221 
L 265.252744 318.979803 
L 268.308604 319.645733 
L 271.364463 407.107579 
L 274.420323 377.083817 
L 277.476183 371.763141 
L 280.532043 359.435123 
L 283.587903 416.306674 
L 286.643762 317.501116 
L 289.699622 381.520167 
L 292.755482 256.578892 
L 295.811342 227.129302 
L 298.867202 417.898186 
L 301.923061 370.178253 
L 304.978921 287.177989 
L 308.034781 436.516219 
L 311.090641 67.937616 
L 314.146501 364.453719 
L 317.20236 402.699733 
L 320.25822 361.728166 
L 323.31408 393.584329 
L 326.36994 419.744152 
L 329.4258 348.724755 
L 332.481659 404.051597 
L 335.537519 383.002182 
L 338.593379 319.028172 
L 341.649239 188.276152 
L 344.705099 391.582963 
L 347.760958 428.456358 
L 350.816818 387.021682 
L 353.872678 384.553531 
L 356.928538 414.51601 
L 359.984398 376.3189 
L 363.040257 431.324217 
L 366.096117 402.239851 
L 369.151977 362.582436 
L 372.207837 258.045216 
L 375.263697 329.091458 
L 378.319556 361.035725 
L 381.375416 298.661014 
L 384.431276 270.014208 
L 387.487136 308.024831 
L 390.542996 464.237187 
L 393.598855 385.541862 
L 396.654715 377.33233 
L 399.710575 331.735011 
L 402.766435 211.338318 
L 405.822295 426.373062 
L 408.878154 402.653955 
L 411.934014 420.27257 
L 414.989874 280.962013 
L 418.045734 389.758715 
L 421.101594 411.25208 
L 424.157453 420.393041 
L 427.213313 349.808551 
L 430.269173 352.599956 
L 433.325033 263.687579 
L 436.380893 273.989326 
L 439.436752 340.558411 
L 442.492612 206.311484 
L 445.548472 225.597949 
L 448.604332 354.774156 
L 451.660192 300.959534 
L 454.716051 308.60541 
L 457.771911 270.649577 
L 460.827771 413.510693 
L 463.883631 406.178817 
L 466.939491 285.253978 
L 469.99535 369.938892 
L 473.05121 349.826143 
L 476.10707 419.365146 
L 479.16293 442.098233 
L 482.21879 411.961205 
L 485.27465 282.972352 
L 488.330509 250.568614 
L 491.386369 385.345796 
L 494.442229 256.427674 
L 497.498089 404.601352 
L 500.553949 403.65565 
L 503.609808 387.465508 
L 506.665668 305.220536 
L 509.721528 394.245225 
L 512.777388 313.867665 
L 515.833248 320.322289 
L 518.889107 367.377355 
L 521.944967 385.996097 
L 525.000827 323.866201 
L 528.056687 300.362728 
L 531.112547 300.438694 
L 534.168406 285.751967 
L 537.224266 430.948499 
L 543.335986 372.410828 
L 546.391846 377.008471 
L 549.447705 394.018227 
L 552.503565 399.148934 
L 555.559425 385.718753 
L 558.615285 268.004442 
L 561.671145 269.734296 
L 564.727004 281.464516 
L 567.782864 277.408096 
L 570.838724 253.089865 
L 573.894584 393.858431 
L 576.950444 242.559708 
L 583.062163 438.741192 
L 586.118023 360.480525 
L 589.173883 212.543563 
L 592.229743 208.606467 
L 595.285602 256.891101 
L 598.341462 428.953168 
L 601.397322 321.819747 
L 604.453182 244.577246 
L 607.509042 300.087176 
L 610.564901 438.309799 
L 613.620761 379.943656 
L 616.676621 229.001004 
L 619.732481 281.183488 
L 622.788341 379.89469 
L 625.8442 385.793951 
L 628.90006 369.623379 
L 631.95592 230.690339 
L 635.01178 239.821466 
L 638.06764 364.793184 
L 641.123499 370.57617 
L 644.179359 391.368896 
L 647.235219 218.948609 
L 650.291079 309.997041 
L 653.346939 387.570723 
L 656.402798 406.712726 
L 659.458658 419.937208 
L 662.514518 433.799232 
L 665.570378 303.070194 
L 668.626238 375.929345 
L 671.682097 326.73264 
L 674.737957 306.583188 
L 677.793817 432.682363 
L 680.849677 377.15405 
L 683.905537 350.489528 
L 686.961396 371.500883 
L 690.017256 428.156582 
L 693.073116 425.845614 
L 696.128976 367.407325 
L 699.184836 378.120291 
L 702.240696 356.657912 
L 705.296555 365.478009 
L 708.352415 402.054032 
L 711.408275 320.36028 
L 714.464135 297.63446 
L 717.519995 314.320714 
L 720.575854 299.673281 
L 723.631714 368.693686 
L 726.687574 355.121052 
L 729.743434 427.850834 
L 732.799294 377.971361 
L 735.855153 309.176077 
L 738.911013 328.103375 
L 741.966873 363.694124 
L 745.022733 330.066168 
L 748.078593 333.77999 
L 751.134452 433.9155 
L 754.190312 408.715619 
L 757.246172 357.037539 
L 760.302032 426.7708 
L 763.357892 420.144419 
L 766.413751 311.911481 
L 769.469611 441.96793 
L 772.525471 351.597617 
L 775.581331 349.486181 
L 778.637191 413.565872 
L 781.69305 387.721367 
L 784.74891 384.579716 
L 787.80477 389.317626 
L 790.86063 420.655362 
L 793.91649 310.734872 
L 796.972349 369.119758 
L 800.028209 399.940424 
L 803.084069 356.63666 
L 806.139929 390.86367 
L 809.195789 343.438564 
L 812.251648 385.607271 
L 815.307508 436.155145 
L 818.363368 238.207119 
L 821.419228 360.420506 
L 824.475088 385.501916 
L 827.530947 364.122554 
L 830.586807 330.203937 
L 833.642667 398.464963 
L 836.698527 264.778557 
L 839.754387 378.502741 
L 842.810246 343.586587 
L 845.866106 363.071211 
L 848.921966 330.467234 
L 851.977826 340.122333 
L 855.033686 338.485152 
L 858.089545 383.626902 
L 858.089545 383.626902 
" clip-path="url(#p51a3028661)" style="fill: none; stroke-dasharray: 7.4,3.2; stroke-dashoffset: 0; stroke: #ffa500; stroke-width: 2"/>
   </g>
   <g id="patch_3">
    <path d="M 59.135 484.397187 
L 59.135 40.877187 
" style="fill: none; stroke: #000000; stroke-width: 0.8; stroke-linejoin: miter; stroke-linecap: square"/>
   </g>
   <g id="patch_4">
    <path d="M 896.135 484.397187 
L 896.135 40.877187 
" style="fill: none; stroke: #000000; stroke-width: 0.8; stroke-linejoin: miter; stroke-linecap: square"/>
   </g>
   <g id="patch_5">
    <path d="M 59.135 484.397187 
L 896.135 484.397187 
" style="fill: none; stroke: #000000; stroke-width: 0.8; stroke-linejoin: miter; stroke-linecap: square"/>
   </g>
   <g id="patch_6">
    <path d="M 59.135 40.877187 
L 896.135 40.877187 
" style="fill: none; stroke: #000000; stroke-width: 0.8; stroke-linejoin: miter; stroke-linecap: square"/>
   </g>
   <g id="text_18">
    <!-- Mean sea-level pressure two steps forward prediction: RMSES -->
    <g transform="translate(199.460469 20.877187) scale(0.18 -0.18)">
     <defs>
      <path id="DejaVuSans-6c" d="M 603 4863 
L 1178 4863 
L 1178 0 
L 603 0 
L 603 4863 
z
" transform="scale(0.015625)"/>
      <path id="DejaVuSans-76" d="M 191 3500 
L 800 3500 
L 1894 563 
L 2988 3500 
L 3597 3500 
L 2284 0 
L 1503 0 
L 191 3500 
z
" transform="scale(0.015625)"/>
      <path id="DejaVuSans-70" d="M 1159 525 
L 1159 -1331 
L 581 -1331 
L 581 3500 
L 1159 3500 
L 1159 2969 
Q 1341 3281 1617 3432 
Q 1894 3584 2278 3584 
Q 2916 3584 3314 3078 
Q 3713 2572 3713 1747 
Q 3713 922 3314 415 
Q 2916 -91 2278 -91 
Q 1894 -91 1617 61 
Q 1341 213 1159 525 
z
M 3116 1747 
Q 3116 2381 2855 2742 
Q 2594 3103 2138 3103 
Q 1681 3103 1420 2742 
Q 1159 2381 1159 1747 
Q 1159 1113 1420 752 
Q 1681 391 2138 391 
Q 2594 391 2855 752 
Q 3116 1113 3116 1747 
z
" transform="scale(0.015625)"/>
      <path id="DejaVuSans-77" d="M 269 3500 
L 844 3500 
L 1563 769 
L 2278 3500 
L 2956 3500 
L 3675 769 
L 4391 3500 
L 4966 3500 
L 4050 0 
L 3372 0 
L 2619 2869 
L 1863 0 
L 1184 0 
L 269 3500 
z
" transform="scale(0.015625)"/>
      <path id="DejaVuSans-66" d="M 2375 4863 
L 2375 4384 
L 1825 4384 
Q 1516 4384 1395 4259 
Q 1275 4134 1275 3809 
L 1275 3500 
L 2222 3500 
L 2222 3053 
L 1275 3053 
L 1275 0 
L 697 0 
L 697 3053 
L 147 3053 
L 147 3500 
L 697 3500 
L 697 3744 
Q 697 4328 969 4595 
Q 1241 4863 1831 4863 
L 2375 4863 
z
" transform="scale(0.015625)"/>
      <path id="DejaVuSans-69" d="M 603 3500 
L 1178 3500 
L 1178 0 
L 603 0 
L 603 3500 
z
M 603 4863 
L 1178 4863 
L 1178 4134 
L 603 4134 
L 603 4863 
z
" transform="scale(0.015625)"/>
     </defs>
     <use xlink:href="#DejaVuSans-4d"/>
     <use xlink:href="#DejaVuSans-65" transform="translate(86.279297 0)"/>
     <use xlink:href="#DejaVuSans-61" transform="translate(147.802734 0)"/>
     <use xlink:href="#DejaVuSans-6e" transform="translate(209.082031 0)"/>
     <use xlink:href="#DejaVuSans-20" transform="translate(272.460938 0)"/>
     <use xlink:href="#DejaVuSans-73" transform="translate(304.248047 0)"/>
     <use xlink:href="#DejaVuSans-65" transform="translate(356.347656 0)"/>
     <use xlink:href="#DejaVuSans-61" transform="translate(417.871094 0)"/>
     <use xlink:href="#DejaVuSans-2d" transform="translate(479.150391 0)"/>
     <use xlink:href="#DejaVuSans-6c" transform="translate(515.234375 0)"/>
     <use xlink:href="#DejaVuSans-65" transform="translate(543.017578 0)"/>
     <use xlink:href="#DejaVuSans-76" transform="translate(604.541016 0)"/>
     <use xlink:href="#DejaVuSans-65" transform="translate(663.720703 0)"/>
     <use xlink:href="#DejaVuSans-6c" transform="translate(725.244141 0)"/>
     <use xlink:href="#DejaVuSans-20" transform="translate(753.027344 0)"/>
     <use xlink:href="#DejaVuSans-70" transform="translate(784.814453 0)"/>
     <use xlink:href="#DejaVuSans-72" transform="translate(848.291016 0)"/>
     <use xlink:href="#DejaVuSans-65" transform="translate(887.154297 0)"/>
     <use xlink:href="#DejaVuSans-73" transform="translate(948.677734 0)"/>
     <use xlink:href="#DejaVuSans-73" transform="translate(1000.777344 0)"/>
     <use xlink:href="#DejaVuSans-75" transform="translate(1052.876953 0)"/>
     <use xlink:href="#DejaVuSans-72" transform="translate(1116.255859 0)"/>
     <use xlink:href="#DejaVuSans-65" transform="translate(1155.119141 0)"/>
     <use xlink:href="#DejaVuSans-20" transform="translate(1216.642578 0)"/>
     <use xlink:href="#DejaVuSans-74" transform="translate(1248.429688 0)"/>
     <use xlink:href="#DejaVuSans-77" transform="translate(1287.638672 0)"/>
     <use xlink:href="#DejaVuSans-6f" transform="translate(1369.425781 0)"/>
     <use xlink:href="#DejaVuSans-20" transform="translate(1430.607422 0)"/>
     <use xlink:href="#DejaVuSans-73" transform="translate(1462.394531 0)"/>
     <use xlink:href="#DejaVuSans-74" transform="translate(1514.494141 0)"/>
     <use xlink:href="#DejaVuSans-65" transform="translate(1553.703125 0)"/>
     <use xlink:href="#DejaVuSans-70" transform="translate(1615.226562 0)"/>
     <use xlink:href="#DejaVuSans-73" transform="translate(1678.703125 0)"/>
     <use xlink:href="#DejaVuSans-20" transform="translate(1730.802734 0)"/>
     <use xlink:href="#DejaVuSans-66" transform="translate(1762.589844 0)"/>
     <use xlink:href="#DejaVuSans-6f" transform="translate(1797.794922 0)"/>
     <use xlink:href="#DejaVuSans-72" transform="translate(1858.976562 0)"/>
     <use xlink:href="#DejaVuSans-77" transform="translate(1900.089844 0)"/>
     <use xlink:href="#DejaVuSans-61" transform="translate(1981.876953 0)"/>
     <use xlink:href="#DejaVuSans-72" transform="translate(2043.15625 0)"/>
     <use xlink:href="#DejaVuSans-64" transform="translate(2082.519531 0)"/>
     <use xlink:href="#DejaVuSans-20" transform="translate(2145.996094 0)"/>
     <use xlink:href="#DejaVuSans-70" transform="translate(2177.783203 0)"/>
     <use xlink:href="#DejaVuSans-72" transform="translate(2241.259766 0)"/>
     <use xlink:href="#DejaVuSans-65" transform="translate(2280.123047 0)"/>
     <use xlink:href="#DejaVuSans-64" transform="translate(2341.646484 0)"/>
     <use xlink:href="#DejaVuSans-69" transform="translate(2405.123047 0)"/>
     <use xlink:href="#DejaVuSans-63" transform="translate(2432.90625 0)"/>
     <use xlink:href="#DejaVuSans-74" transform="translate(2487.886719 0)"/>
     <use xlink:href="#DejaVuSans-69" transform="translate(2527.095703 0)"/>
     <use xlink:href="#DejaVuSans-6f" transform="translate(2554.878906 0)"/>
     <use xlink:href="#DejaVuSans-6e" transform="translate(2616.060547 0)"/>
     <use xlink:href="#DejaVuSans-3a" transform="translate(2679.439453 0)"/>
     <use xlink:href="#DejaVuSans-20" transform="translate(2713.130859 0)"/>
     <use xlink:href="#DejaVuSans-52" transform="translate(2744.917969 0)"/>
     <use xlink:href="#DejaVuSans-4d" transform="translate(2814.400391 0)"/>
     <use xlink:href="#DejaVuSans-53" transform="translate(2900.679688 0)"/>
     <use xlink:href="#DejaVuSans-45" transform="translate(2964.15625 0)"/>
     <use xlink:href="#DejaVuSans-53" transform="translate(3027.339844 0)"/>
    </g>
   </g>
   <g id="legend_1">
    <g id="text_19">
     <!-- Forecast Horizon -->
     <g transform="translate(1020.604844 65.634687) scale(0.16 -0.16)">
      <defs>
       <path id="DejaVuSans-48" d="M 628 4666 
L 1259 4666 
L 1259 2753 
L 3553 2753 
L 3553 4666 
L 4184 4666 
L 4184 0 
L 3553 0 
L 3553 2222 
L 1259 2222 
L 1259 0 
L 628 0 
L 628 4666 
z
" transform="scale(0.015625)"/>
       <path id="DejaVuSans-7a" d="M 353 3500 
L 3084 3500 
L 3084 2975 
L 922 459 
L 3084 459 
L 3084 0 
L 275 0 
L 275 525 
L 2438 3041 
L 353 3041 
L 353 3500 
z
" transform="scale(0.015625)"/>
      </defs>
      <use xlink:href="#DejaVuSans-46"/>
      <use xlink:href="#DejaVuSans-6f" transform="translate(53.894531 0)"/>
      <use xlink:href="#DejaVuSans-72" transform="translate(115.076172 0)"/>
      <use xlink:href="#DejaVuSans-65" transform="translate(153.939453 0)"/>
      <use xlink:href="#DejaVuSans-63" transform="translate(215.462891 0)"/>
      <use xlink:href="#DejaVuSans-61" transform="translate(270.443359 0)"/>
      <use xlink:href="#DejaVuSans-73" transform="translate(331.722656 0)"/>
      <use xlink:href="#DejaVuSans-74" transform="translate(383.822266 0)"/>
      <use xlink:href="#DejaVuSans-20" transform="translate(423.03125 0)"/>
      <use xlink:href="#DejaVuSans-48" transform="translate(454.818359 0)"/>
      <use xlink:href="#DejaVuSans-6f" transform="translate(530.013672 0)"/>
      <use xlink:href="#DejaVuSans-72" transform="translate(591.195312 0)"/>
      <use xlink:href="#DejaVuSans-69" transform="translate(632.308594 0)"/>
      <use xlink:href="#DejaVuSans-7a" transform="translate(660.091797 0)"/>
      <use xlink:href="#DejaVuSans-6f" transform="translate(712.582031 0)"/>
      <use xlink:href="#DejaVuSans-6e" transform="translate(773.763672 0)"/>
     </g>
    </g>
    <g id="line2d_20">
     <path d="M 950.585 81.7 
L 964.585 81.7 
L 978.585 81.7 
" style="fill: none; stroke: #0000ff; stroke-width: 2; stroke-linecap: square"/>
    </g>
    <g id="text_20">
     <!-- Global RMSE (6h Forecast) -->
     <g transform="translate(989.785 86.6) scale(0.14 -0.14)">
      <defs>
       <path id="DejaVuSans-47" d="M 3809 666 
L 3809 1919 
L 2778 1919 
L 2778 2438 
L 4434 2438 
L 4434 434 
Q 4069 175 3628 42 
Q 3188 -91 2688 -91 
Q 1594 -91 976 548 
Q 359 1188 359 2328 
Q 359 3472 976 4111 
Q 1594 4750 2688 4750 
Q 3144 4750 3555 4637 
Q 3966 4525 4313 4306 
L 4313 3634 
Q 3963 3931 3569 4081 
Q 3175 4231 2741 4231 
Q 1884 4231 1454 3753 
Q 1025 3275 1025 2328 
Q 1025 1384 1454 906 
Q 1884 428 2741 428 
Q 3075 428 3337 486 
Q 3600 544 3809 666 
z
" transform="scale(0.015625)"/>
       <path id="DejaVuSans-62" d="M 3116 1747 
Q 3116 2381 2855 2742 
Q 2594 3103 2138 3103 
Q 1681 3103 1420 2742 
Q 1159 2381 1159 1747 
Q 1159 1113 1420 752 
Q 1681 391 2138 391 
Q 2594 391 2855 752 
Q 3116 1113 3116 1747 
z
M 1159 2969 
Q 1341 3281 1617 3432 
Q 1894 3584 2278 3584 
Q 2916 3584 3314 3078 
Q 3713 2572 3713 1747 
Q 3713 922 3314 415 
Q 2916 -91 2278 -91 
Q 1894 -91 1617 61 
Q 1341 213 1159 525 
L 1159 0 
L 581 0 
L 581 4863 
L 1159 4863 
L 1159 2969 
z
" transform="scale(0.015625)"/>
       <path id="DejaVuSans-68" d="M 3513 2113 
L 3513 0 
L 2938 0 
L 2938 2094 
Q 2938 2591 2744 2837 
Q 2550 3084 2163 3084 
Q 1697 3084 1428 2787 
Q 1159 2491 1159 1978 
L 1159 0 
L 581 0 
L 581 4863 
L 1159 4863 
L 1159 2956 
Q 1366 3272 1645 3428 
Q 1925 3584 2291 3584 
Q 2894 3584 3203 3211 
Q 3513 2838 3513 2113 
z
" transform="scale(0.015625)"/>
      </defs>
      <use xlink:href="#DejaVuSans-47"/>
      <use xlink:href="#DejaVuSans-6c" transform="translate(77.490234 0)"/>
      <use xlink:href="#DejaVuSans-6f" transform="translate(105.273438 0)"/>
      <use xlink:href="#DejaVuSans-62" transform="translate(166.455078 0)"/>
      <use xlink:href="#DejaVuSans-61" transform="translate(229.931641 0)"/>
      <use xlink:href="#DejaVuSans-6c" transform="translate(291.210938 0)"/>
      <use xlink:href="#DejaVuSans-20" transform="translate(318.994141 0)"/>
      <use xlink:href="#DejaVuSans-52" transform="translate(350.78125 0)"/>
      <use xlink:href="#DejaVuSans-4d" transform="translate(420.263672 0)"/>
      <use xlink:href="#DejaVuSans-53" transform="translate(506.542969 0)"/>
      <use xlink:href="#DejaVuSans-45" transform="translate(570.019531 0)"/>
      <use xlink:href="#DejaVuSans-20" transform="translate(633.203125 0)"/>
      <use xlink:href="#DejaVuSans-28" transform="translate(664.990234 0)"/>
      <use xlink:href="#DejaVuSans-36" transform="translate(704.003906 0)"/>
      <use xlink:href="#DejaVuSans-68" transform="translate(767.626953 0)"/>
      <use xlink:href="#DejaVuSans-20" transform="translate(831.005859 0)"/>
      <use xlink:href="#DejaVuSans-46" transform="translate(862.792969 0)"/>
      <use xlink:href="#DejaVuSans-6f" transform="translate(916.6875 0)"/>
      <use xlink:href="#DejaVuSans-72" transform="translate(977.869141 0)"/>
      <use xlink:href="#DejaVuSans-65" transform="translate(1016.732422 0)"/>
      <use xlink:href="#DejaVuSans-63" transform="translate(1078.255859 0)"/>
      <use xlink:href="#DejaVuSans-61" transform="translate(1133.236328 0)"/>
      <use xlink:href="#DejaVuSans-73" transform="translate(1194.515625 0)"/>
      <use xlink:href="#DejaVuSans-74" transform="translate(1246.615234 0)"/>
      <use xlink:href="#DejaVuSans-29" transform="translate(1285.824219 0)"/>
     </g>
    </g>
    <g id="line2d_21">
     <path d="M 950.585 102.249375 
L 964.585 102.249375 
L 978.585 102.249375 
" style="fill: none; stroke: #ffa500; stroke-width: 2; stroke-linecap: square"/>
    </g>
    <g id="text_21">
     <!-- South Africa RMSE (6h Forecast) -->
     <g transform="translate(989.785 107.149375) scale(0.14 -0.14)">
      <defs>
       <path id="DejaVuSans-41" d="M 2188 4044 
L 1331 1722 
L 3047 1722 
L 2188 4044 
z
M 1831 4666 
L 2547 4666 
L 4325 0 
L 3669 0 
L 3244 1197 
L 1141 1197 
L 716 0 
L 50 0 
L 1831 4666 
z
" transform="scale(0.015625)"/>
      </defs>
      <use xlink:href="#DejaVuSans-53"/>
      <use xlink:href="#DejaVuSans-6f" transform="translate(63.476562 0)"/>
      <use xlink:href="#DejaVuSans-75" transform="translate(124.658203 0)"/>
      <use xlink:href="#DejaVuSans-74" transform="translate(188.037109 0)"/>
      <use xlink:href="#DejaVuSans-68" transform="translate(227.246094 0)"/>
      <use xlink:href="#DejaVuSans-20" transform="translate(290.625 0)"/>
      <use xlink:href="#DejaVuSans-41" transform="translate(322.412109 0)"/>
      <use xlink:href="#DejaVuSans-66" transform="translate(387.195312 0)"/>
      <use xlink:href="#DejaVuSans-72" transform="translate(422.400391 0)"/>
      <use xlink:href="#DejaVuSans-69" transform="translate(463.513672 0)"/>
      <use xlink:href="#DejaVuSans-63" transform="translate(491.296875 0)"/>
      <use xlink:href="#DejaVuSans-61" transform="translate(546.277344 0)"/>
      <use xlink:href="#DejaVuSans-20" transform="translate(607.556641 0)"/>
      <use xlink:href="#DejaVuSans-52" transform="translate(639.34375 0)"/>
      <use xlink:href="#DejaVuSans-4d" transform="translate(708.826172 0)"/>
      <use xlink:href="#DejaVuSans-53" transform="translate(795.105469 0)"/>
      <use xlink:href="#DejaVuSans-45" transform="translate(858.582031 0)"/>
      <use xlink:href="#DejaVuSans-20" transform="translate(921.765625 0)"/>
      <use xlink:href="#DejaVuSans-28" transform="translate(953.552734 0)"/>
      <use xlink:href="#DejaVuSans-36" transform="translate(992.566406 0)"/>
      <use xlink:href="#DejaVuSans-68" transform="translate(1056.189453 0)"/>
      <use xlink:href="#DejaVuSans-20" transform="translate(1119.568359 0)"/>
      <use xlink:href="#DejaVuSans-46" transform="translate(1151.355469 0)"/>
      <use xlink:href="#DejaVuSans-6f" transform="translate(1205.25 0)"/>
      <use xlink:href="#DejaVuSans-72" transform="translate(1266.431641 0)"/>
      <use xlink:href="#DejaVuSans-65" transform="translate(1305.294922 0)"/>
      <use xlink:href="#DejaVuSans-63" transform="translate(1366.818359 0)"/>
      <use xlink:href="#DejaVuSans-61" transform="translate(1421.798828 0)"/>
      <use xlink:href="#DejaVuSans-73" transform="translate(1483.078125 0)"/>
      <use xlink:href="#DejaVuSans-74" transform="translate(1535.177734 0)"/>
      <use xlink:href="#DejaVuSans-29" transform="translate(1574.386719 0)"/>
     </g>
    </g>
    <g id="line2d_22">
     <path d="M 950.585 122.79875 
L 964.585 122.79875 
L 978.585 122.79875 
" style="fill: none; stroke-dasharray: 7.4,3.2; stroke-dashoffset: 0; stroke: #0000ff; stroke-width: 2"/>
    </g>
    <g id="text_22">
     <!-- Global RMSE (12h Forecast) -->
     <g transform="translate(989.785 127.69875) scale(0.14 -0.14)">
      <use xlink:href="#DejaVuSans-47"/>
      <use xlink:href="#DejaVuSans-6c" transform="translate(77.490234 0)"/>
      <use xlink:href="#DejaVuSans-6f" transform="translate(105.273438 0)"/>
      <use xlink:href="#DejaVuSans-62" transform="translate(166.455078 0)"/>
      <use xlink:href="#DejaVuSans-61" transform="translate(229.931641 0)"/>
      <use xlink:href="#DejaVuSans-6c" transform="translate(291.210938 0)"/>
      <use xlink:href="#DejaVuSans-20" transform="translate(318.994141 0)"/>
      <use xlink:href="#DejaVuSans-52" transform="translate(350.78125 0)"/>
      <use xlink:href="#DejaVuSans-4d" transform="translate(420.263672 0)"/>
      <use xlink:href="#DejaVuSans-53" transform="translate(506.542969 0)"/>
      <use xlink:href="#DejaVuSans-45" transform="translate(570.019531 0)"/>
      <use xlink:href="#DejaVuSans-20" transform="translate(633.203125 0)"/>
      <use xlink:href="#DejaVuSans-28" transform="translate(664.990234 0)"/>
      <use xlink:href="#DejaVuSans-31" transform="translate(704.003906 0)"/>
      <use xlink:href="#DejaVuSans-32" transform="translate(767.626953 0)"/>
      <use xlink:href="#DejaVuSans-68" transform="translate(831.25 0)"/>
      <use xlink:href="#DejaVuSans-20" transform="translate(894.628906 0)"/>
      <use xlink:href="#DejaVuSans-46" transform="translate(926.416016 0)"/>
      <use xlink:href="#DejaVuSans-6f" transform="translate(980.310547 0)"/>
      <use xlink:href="#DejaVuSans-72" transform="translate(1041.492188 0)"/>
      <use xlink:href="#DejaVuSans-65" transform="translate(1080.355469 0)"/>
      <use xlink:href="#DejaVuSans-63" transform="translate(1141.878906 0)"/>
      <use xlink:href="#DejaVuSans-61" transform="translate(1196.859375 0)"/>
      <use xlink:href="#DejaVuSans-73" transform="translate(1258.138672 0)"/>
      <use xlink:href="#DejaVuSans-74" transform="translate(1310.238281 0)"/>
      <use xlink:href="#DejaVuSans-29" transform="translate(1349.447266 0)"/>
     </g>
    </g>
    <g id="line2d_23">
     <path d="M 950.585 143.348125 
L 964.585 143.348125 
L 978.585 143.348125 
" style="fill: none; stroke-dasharray: 7.4,3.2; stroke-dashoffset: 0; stroke: #ffa500; stroke-width: 2"/>
    </g>
    <g id="text_23">
     <!-- South Africa RMSE (12h Forecast) -->
     <g transform="translate(989.785 148.248125) scale(0.14 -0.14)">
      <use xlink:href="#DejaVuSans-53"/>
      <use xlink:href="#DejaVuSans-6f" transform="translate(63.476562 0)"/>
      <use xlink:href="#DejaVuSans-75" transform="translate(124.658203 0)"/>
      <use xlink:href="#DejaVuSans-74" transform="translate(188.037109 0)"/>
      <use xlink:href="#DejaVuSans-68" transform="translate(227.246094 0)"/>
      <use xlink:href="#DejaVuSans-20" transform="translate(290.625 0)"/>
      <use xlink:href="#DejaVuSans-41" transform="translate(322.412109 0)"/>
      <use xlink:href="#DejaVuSans-66" transform="translate(387.195312 0)"/>
      <use xlink:href="#DejaVuSans-72" transform="translate(422.400391 0)"/>
      <use xlink:href="#DejaVuSans-69" transform="translate(463.513672 0)"/>
      <use xlink:href="#DejaVuSans-63" transform="translate(491.296875 0)"/>
      <use xlink:href="#DejaVuSans-61" transform="translate(546.277344 0)"/>
      <use xlink:href="#DejaVuSans-20" transform="translate(607.556641 0)"/>
      <use xlink:href="#DejaVuSans-52" transform="translate(639.34375 0)"/>
      <use xlink:href="#DejaVuSans-4d" transform="translate(708.826172 0)"/>
      <use xlink:href="#DejaVuSans-53" transform="translate(795.105469 0)"/>
      <use xlink:href="#DejaVuSans-45" transform="translate(858.582031 0)"/>
      <use xlink:href="#DejaVuSans-20" transform="translate(921.765625 0)"/>
      <use xlink:href="#DejaVuSans-28" transform="translate(953.552734 0)"/>
      <use xlink:href="#DejaVuSans-31" transform="translate(992.566406 0)"/>
      <use xlink:href="#DejaVuSans-32" transform="translate(1056.189453 0)"/>
      <use xlink:href="#DejaVuSans-68" transform="translate(1119.8125 0)"/>
      <use xlink:href="#DejaVuSans-20" transform="translate(1183.191406 0)"/>
      <use xlink:href="#DejaVuSans-46" transform="translate(1214.978516 0)"/>
      <use xlink:href="#DejaVuSans-6f" transform="translate(1268.873047 0)"/>
      <use xlink:href="#DejaVuSans-72" transform="translate(1330.054688 0)"/>
      <use xlink:href="#DejaVuSans-65" transform="translate(1368.917969 0)"/>
      <use xlink:href="#DejaVuSans-63" transform="translate(1430.441406 0)"/>
      <use xlink:href="#DejaVuSans-61" transform="translate(1485.421875 0)"/>
      <use xlink:href="#DejaVuSans-73" transform="translate(1546.701172 0)"/>
      <use xlink:href="#DejaVuSans-74" transform="translate(1598.800781 0)"/>
      <use xlink:href="#DejaVuSans-29" transform="translate(1638.009766 0)"/>
     </g>
    </g>
   </g>
  </g>
 </g>
 <defs>
  <clipPath id="p51a3028661">
   <rect x="59.135" y="40.877187" width="837" height="443.52"/>
  </clipPath>
 </defs>
</svg>
