<?xml version="1.0" encoding="utf-8" standalone="no"?>
<!DOCTYPE svg PUBLIC "-//W3C//DTD SVG 1.1//EN"
  "http://www.w3.org/Graphics/SVG/1.1/DTD/svg11.dtd">
<svg xmlns:xlink="http://www.w3.org/1999/xlink" width="1237.023214pt" height="575.421502pt" viewBox="0 0 1237.023214 575.421502" xmlns="http://www.w3.org/2000/svg" version="1.1">
 <metadata>
  <rdf:RDF xmlns:dc="http://purl.org/dc/elements/1.1/" xmlns:cc="http://creativecommons.org/ns#" xmlns:rdf="http://www.w3.org/1999/02/22-rdf-syntax-ns#">
   <cc:Work>
    <dc:type rdf:resource="http://purl.org/dc/dcmitype/StillImage"/>
    <dc:date>2025-02-18T11:27:48.586146</dc:date>
    <dc:format>image/svg+xml</dc:format>
    <dc:creator>
     <cc:Agent>
      <dc:title>Matplotlib v3.10.0, https://matplotlib.org/</dc:title>
     </cc:Agent>
    </dc:creator>
   </cc:Work>
  </rdf:RDF>
 </metadata>
 <defs>
  <style type="text/css">*{stroke-linejoin: round; stroke-linecap: butt}</style>
 </defs>
 <g id="figure_1">
  <g id="patch_1">
   <path d="M 0 575.421502 
L 1237.023214 575.421502 
L 1237.023214 0 
L 0 0 
z
" style="fill: #ffffff"/>
  </g>
  <g id="axes_1">
   <g id="patch_2">
    <path d="M 58.791027 484.397187 
L 895.791027 484.397187 
L 895.791027 40.877187 
L 58.791027 40.877187 
z
" style="fill: #ffffff"/>
   </g>
   <g id="matplotlib.axis_1">
    <g id="xtick_1">
     <g id="line2d_1">
      <defs>
       <path id="m26f5aaf426" d="M 0 0 
L 0 3.5 
" style="stroke: #000000; stroke-width: 0.8"/>
      </defs>
      <g>
       <use xlink:href="#m26f5aaf426" x="96.836481" y="484.397187" style="stroke: #000000; stroke-width: 0.8"/>
      </g>
     </g>
     <g id="text_1">
      <!-- 2022-01-01 (12:00) -->
      <g transform="translate(10.999219 546.93544) rotate(-30) scale(0.1 -0.1)">
       <defs>
        <path id="DejaVuSans-32" d="M 1228 531 
L 3431 531 
L 3431 0 
L 469 0 
L 469 531 
Q 828 903 1448 1529 
Q 2069 2156 2228 2338 
Q 2531 2678 2651 2914 
Q 2772 3150 2772 3378 
Q 2772 3750 2511 3984 
Q 2250 4219 1831 4219 
Q 1534 4219 1204 4116 
Q 875 4013 500 3803 
L 500 4441 
Q 881 4594 1212 4672 
Q 1544 4750 1819 4750 
Q 2544 4750 2975 4387 
Q 3406 4025 3406 3419 
Q 3406 3131 3298 2873 
Q 3191 2616 2906 2266 
Q 2828 2175 2409 1742 
Q 1991 1309 1228 531 
z
" transform="scale(0.015625)"/>
        <path id="DejaVuSans-30" d="M 2034 4250 
Q 1547 4250 1301 3770 
Q 1056 3291 1056 2328 
Q 1056 1369 1301 889 
Q 1547 409 2034 409 
Q 2525 409 2770 889 
Q 3016 1369 3016 2328 
Q 3016 3291 2770 3770 
Q 2525 4250 2034 4250 
z
M 2034 4750 
Q 2819 4750 3233 4129 
Q 3647 3509 3647 2328 
Q 3647 1150 3233 529 
Q 2819 -91 2034 -91 
Q 1250 -91 836 529 
Q 422 1150 422 2328 
Q 422 3509 836 4129 
Q 1250 4750 2034 4750 
z
" transform="scale(0.015625)"/>
        <path id="DejaVuSans-2d" d="M 313 2009 
L 1997 2009 
L 1997 1497 
L 313 1497 
L 313 2009 
z
" transform="scale(0.015625)"/>
        <path id="DejaVuSans-31" d="M 794 531 
L 1825 531 
L 1825 4091 
L 703 3866 
L 703 4441 
L 1819 4666 
L 2450 4666 
L 2450 531 
L 3481 531 
L 3481 0 
L 794 0 
L 794 531 
z
" transform="scale(0.015625)"/>
        <path id="DejaVuSans-20" transform="scale(0.015625)"/>
        <path id="DejaVuSans-28" d="M 1984 4856 
Q 1566 4138 1362 3434 
Q 1159 2731 1159 2009 
Q 1159 1288 1364 580 
Q 1569 -128 1984 -844 
L 1484 -844 
Q 1016 -109 783 600 
Q 550 1309 550 2009 
Q 550 2706 781 3412 
Q 1013 4119 1484 4856 
L 1984 4856 
z
" transform="scale(0.015625)"/>
        <path id="DejaVuSans-3a" d="M 750 794 
L 1409 794 
L 1409 0 
L 750 0 
L 750 794 
z
M 750 3309 
L 1409 3309 
L 1409 2516 
L 750 2516 
L 750 3309 
z
" transform="scale(0.015625)"/>
        <path id="DejaVuSans-29" d="M 513 4856 
L 1013 4856 
Q 1481 4119 1714 3412 
Q 1947 2706 1947 2009 
Q 1947 1309 1714 600 
Q 1481 -109 1013 -844 
L 513 -844 
Q 928 -128 1133 580 
Q 1338 1288 1338 2009 
Q 1338 2731 1133 3434 
Q 928 4138 513 4856 
z
" transform="scale(0.015625)"/>
       </defs>
       <use xlink:href="#DejaVuSans-32"/>
       <use xlink:href="#DejaVuSans-30" transform="translate(63.623047 0)"/>
       <use xlink:href="#DejaVuSans-32" transform="translate(127.246094 0)"/>
       <use xlink:href="#DejaVuSans-32" transform="translate(190.869141 0)"/>
       <use xlink:href="#DejaVuSans-2d" transform="translate(254.492188 0)"/>
       <use xlink:href="#DejaVuSans-30" transform="translate(290.576172 0)"/>
       <use xlink:href="#DejaVuSans-31" transform="translate(354.199219 0)"/>
       <use xlink:href="#DejaVuSans-2d" transform="translate(417.822266 0)"/>
       <use xlink:href="#DejaVuSans-30" transform="translate(453.90625 0)"/>
       <use xlink:href="#DejaVuSans-31" transform="translate(517.529297 0)"/>
       <use xlink:href="#DejaVuSans-20" transform="translate(581.152344 0)"/>
       <use xlink:href="#DejaVuSans-28" transform="translate(612.939453 0)"/>
       <use xlink:href="#DejaVuSans-31" transform="translate(651.953125 0)"/>
       <use xlink:href="#DejaVuSans-32" transform="translate(715.576172 0)"/>
       <use xlink:href="#DejaVuSans-3a" transform="translate(779.199219 0)"/>
       <use xlink:href="#DejaVuSans-30" transform="translate(812.890625 0)"/>
       <use xlink:href="#DejaVuSans-30" transform="translate(876.513672 0)"/>
       <use xlink:href="#DejaVuSans-29" transform="translate(940.136719 0)"/>
      </g>
     </g>
    </g>
    <g id="xtick_2">
     <g id="line2d_2">
      <g>
       <use xlink:href="#m26f5aaf426" x="246.573612" y="484.397187" style="stroke: #000000; stroke-width: 0.8"/>
      </g>
     </g>
     <g id="text_2">
      <!-- 2022-03-16 (00:00) -->
      <g transform="translate(160.736349 546.93544) rotate(-30) scale(0.1 -0.1)">
       <defs>
        <path id="DejaVuSans-33" d="M 2597 2516 
Q 3050 2419 3304 2112 
Q 3559 1806 3559 1356 
Q 3559 666 3084 287 
Q 2609 -91 1734 -91 
Q 1441 -91 1130 -33 
Q 819 25 488 141 
L 488 750 
Q 750 597 1062 519 
Q 1375 441 1716 441 
Q 2309 441 2620 675 
Q 2931 909 2931 1356 
Q 2931 1769 2642 2001 
Q 2353 2234 1838 2234 
L 1294 2234 
L 1294 2753 
L 1863 2753 
Q 2328 2753 2575 2939 
Q 2822 3125 2822 3475 
Q 2822 3834 2567 4026 
Q 2313 4219 1838 4219 
Q 1578 4219 1281 4162 
Q 984 4106 628 3988 
L 628 4550 
Q 988 4650 1302 4700 
Q 1616 4750 1894 4750 
Q 2613 4750 3031 4423 
Q 3450 4097 3450 3541 
Q 3450 3153 3228 2886 
Q 3006 2619 2597 2516 
z
" transform="scale(0.015625)"/>
        <path id="DejaVuSans-36" d="M 2113 2584 
Q 1688 2584 1439 2293 
Q 1191 2003 1191 1497 
Q 1191 994 1439 701 
Q 1688 409 2113 409 
Q 2538 409 2786 701 
Q 3034 994 3034 1497 
Q 3034 2003 2786 2293 
Q 2538 2584 2113 2584 
z
M 3366 4563 
L 3366 3988 
Q 3128 4100 2886 4159 
Q 2644 4219 2406 4219 
Q 1781 4219 1451 3797 
Q 1122 3375 1075 2522 
Q 1259 2794 1537 2939 
Q 1816 3084 2150 3084 
Q 2853 3084 3261 2657 
Q 3669 2231 3669 1497 
Q 3669 778 3244 343 
Q 2819 -91 2113 -91 
Q 1303 -91 875 529 
Q 447 1150 447 2328 
Q 447 3434 972 4092 
Q 1497 4750 2381 4750 
Q 2619 4750 2861 4703 
Q 3103 4656 3366 4563 
z
" transform="scale(0.015625)"/>
       </defs>
       <use xlink:href="#DejaVuSans-32"/>
       <use xlink:href="#DejaVuSans-30" transform="translate(63.623047 0)"/>
       <use xlink:href="#DejaVuSans-32" transform="translate(127.246094 0)"/>
       <use xlink:href="#DejaVuSans-32" transform="translate(190.869141 0)"/>
       <use xlink:href="#DejaVuSans-2d" transform="translate(254.492188 0)"/>
       <use xlink:href="#DejaVuSans-30" transform="translate(290.576172 0)"/>
       <use xlink:href="#DejaVuSans-33" transform="translate(354.199219 0)"/>
       <use xlink:href="#DejaVuSans-2d" transform="translate(417.822266 0)"/>
       <use xlink:href="#DejaVuSans-31" transform="translate(453.90625 0)"/>
       <use xlink:href="#DejaVuSans-36" transform="translate(517.529297 0)"/>
       <use xlink:href="#DejaVuSans-20" transform="translate(581.152344 0)"/>
       <use xlink:href="#DejaVuSans-28" transform="translate(612.939453 0)"/>
       <use xlink:href="#DejaVuSans-30" transform="translate(651.953125 0)"/>
       <use xlink:href="#DejaVuSans-30" transform="translate(715.576172 0)"/>
       <use xlink:href="#DejaVuSans-3a" transform="translate(779.199219 0)"/>
       <use xlink:href="#DejaVuSans-30" transform="translate(812.890625 0)"/>
       <use xlink:href="#DejaVuSans-30" transform="translate(876.513672 0)"/>
       <use xlink:href="#DejaVuSans-29" transform="translate(940.136719 0)"/>
      </g>
     </g>
    </g>
    <g id="xtick_3">
     <g id="line2d_3">
      <g>
       <use xlink:href="#m26f5aaf426" x="399.366602" y="484.397187" style="stroke: #000000; stroke-width: 0.8"/>
      </g>
     </g>
     <g id="text_3">
      <!-- 2022-05-30 (00:00) -->
      <g transform="translate(313.529339 546.93544) rotate(-30) scale(0.1 -0.1)">
       <defs>
        <path id="DejaVuSans-35" d="M 691 4666 
L 3169 4666 
L 3169 4134 
L 1269 4134 
L 1269 2991 
Q 1406 3038 1543 3061 
Q 1681 3084 1819 3084 
Q 2600 3084 3056 2656 
Q 3513 2228 3513 1497 
Q 3513 744 3044 326 
Q 2575 -91 1722 -91 
Q 1428 -91 1123 -41 
Q 819 9 494 109 
L 494 744 
Q 775 591 1075 516 
Q 1375 441 1709 441 
Q 2250 441 2565 725 
Q 2881 1009 2881 1497 
Q 2881 1984 2565 2268 
Q 2250 2553 1709 2553 
Q 1456 2553 1204 2497 
Q 953 2441 691 2322 
L 691 4666 
z
" transform="scale(0.015625)"/>
       </defs>
       <use xlink:href="#DejaVuSans-32"/>
       <use xlink:href="#DejaVuSans-30" transform="translate(63.623047 0)"/>
       <use xlink:href="#DejaVuSans-32" transform="translate(127.246094 0)"/>
       <use xlink:href="#DejaVuSans-32" transform="translate(190.869141 0)"/>
       <use xlink:href="#DejaVuSans-2d" transform="translate(254.492188 0)"/>
       <use xlink:href="#DejaVuSans-30" transform="translate(290.576172 0)"/>
       <use xlink:href="#DejaVuSans-35" transform="translate(354.199219 0)"/>
       <use xlink:href="#DejaVuSans-2d" transform="translate(417.822266 0)"/>
       <use xlink:href="#DejaVuSans-33" transform="translate(453.90625 0)"/>
       <use xlink:href="#DejaVuSans-30" transform="translate(517.529297 0)"/>
       <use xlink:href="#DejaVuSans-20" transform="translate(581.152344 0)"/>
       <use xlink:href="#DejaVuSans-28" transform="translate(612.939453 0)"/>
       <use xlink:href="#DejaVuSans-30" transform="translate(651.953125 0)"/>
       <use xlink:href="#DejaVuSans-30" transform="translate(715.576172 0)"/>
       <use xlink:href="#DejaVuSans-3a" transform="translate(779.199219 0)"/>
       <use xlink:href="#DejaVuSans-30" transform="translate(812.890625 0)"/>
       <use xlink:href="#DejaVuSans-30" transform="translate(876.513672 0)"/>
       <use xlink:href="#DejaVuSans-29" transform="translate(940.136719 0)"/>
      </g>
     </g>
    </g>
    <g id="xtick_4">
     <g id="line2d_4">
      <g>
       <use xlink:href="#m26f5aaf426" x="552.159592" y="484.397187" style="stroke: #000000; stroke-width: 0.8"/>
      </g>
     </g>
     <g id="text_4">
      <!-- 2022-08-13 (00:00) -->
      <g transform="translate(466.322329 546.93544) rotate(-30) scale(0.1 -0.1)">
       <defs>
        <path id="DejaVuSans-38" d="M 2034 2216 
Q 1584 2216 1326 1975 
Q 1069 1734 1069 1313 
Q 1069 891 1326 650 
Q 1584 409 2034 409 
Q 2484 409 2743 651 
Q 3003 894 3003 1313 
Q 3003 1734 2745 1975 
Q 2488 2216 2034 2216 
z
M 1403 2484 
Q 997 2584 770 2862 
Q 544 3141 544 3541 
Q 544 4100 942 4425 
Q 1341 4750 2034 4750 
Q 2731 4750 3128 4425 
Q 3525 4100 3525 3541 
Q 3525 3141 3298 2862 
Q 3072 2584 2669 2484 
Q 3125 2378 3379 2068 
Q 3634 1759 3634 1313 
Q 3634 634 3220 271 
Q 2806 -91 2034 -91 
Q 1263 -91 848 271 
Q 434 634 434 1313 
Q 434 1759 690 2068 
Q 947 2378 1403 2484 
z
M 1172 3481 
Q 1172 3119 1398 2916 
Q 1625 2713 2034 2713 
Q 2441 2713 2670 2916 
Q 2900 3119 2900 3481 
Q 2900 3844 2670 4047 
Q 2441 4250 2034 4250 
Q 1625 4250 1398 4047 
Q 1172 3844 1172 3481 
z
" transform="scale(0.015625)"/>
       </defs>
       <use xlink:href="#DejaVuSans-32"/>
       <use xlink:href="#DejaVuSans-30" transform="translate(63.623047 0)"/>
       <use xlink:href="#DejaVuSans-32" transform="translate(127.246094 0)"/>
       <use xlink:href="#DejaVuSans-32" transform="translate(190.869141 0)"/>
       <use xlink:href="#DejaVuSans-2d" transform="translate(254.492188 0)"/>
       <use xlink:href="#DejaVuSans-30" transform="translate(290.576172 0)"/>
       <use xlink:href="#DejaVuSans-38" transform="translate(354.199219 0)"/>
       <use xlink:href="#DejaVuSans-2d" transform="translate(417.822266 0)"/>
       <use xlink:href="#DejaVuSans-31" transform="translate(453.90625 0)"/>
       <use xlink:href="#DejaVuSans-33" transform="translate(517.529297 0)"/>
       <use xlink:href="#DejaVuSans-20" transform="translate(581.152344 0)"/>
       <use xlink:href="#DejaVuSans-28" transform="translate(612.939453 0)"/>
       <use xlink:href="#DejaVuSans-30" transform="translate(651.953125 0)"/>
       <use xlink:href="#DejaVuSans-30" transform="translate(715.576172 0)"/>
       <use xlink:href="#DejaVuSans-3a" transform="translate(779.199219 0)"/>
       <use xlink:href="#DejaVuSans-30" transform="translate(812.890625 0)"/>
       <use xlink:href="#DejaVuSans-30" transform="translate(876.513672 0)"/>
       <use xlink:href="#DejaVuSans-29" transform="translate(940.136719 0)"/>
      </g>
     </g>
    </g>
    <g id="xtick_5">
     <g id="line2d_5">
      <g>
       <use xlink:href="#m26f5aaf426" x="704.952582" y="484.397187" style="stroke: #000000; stroke-width: 0.8"/>
      </g>
     </g>
     <g id="text_5">
      <!-- 2022-10-27 (00:00) -->
      <g transform="translate(619.11532 546.93544) rotate(-30) scale(0.1 -0.1)">
       <defs>
        <path id="DejaVuSans-37" d="M 525 4666 
L 3525 4666 
L 3525 4397 
L 1831 0 
L 1172 0 
L 2766 4134 
L 525 4134 
L 525 4666 
z
" transform="scale(0.015625)"/>
       </defs>
       <use xlink:href="#DejaVuSans-32"/>
       <use xlink:href="#DejaVuSans-30" transform="translate(63.623047 0)"/>
       <use xlink:href="#DejaVuSans-32" transform="translate(127.246094 0)"/>
       <use xlink:href="#DejaVuSans-32" transform="translate(190.869141 0)"/>
       <use xlink:href="#DejaVuSans-2d" transform="translate(254.492188 0)"/>
       <use xlink:href="#DejaVuSans-31" transform="translate(290.576172 0)"/>
       <use xlink:href="#DejaVuSans-30" transform="translate(354.199219 0)"/>
       <use xlink:href="#DejaVuSans-2d" transform="translate(417.822266 0)"/>
       <use xlink:href="#DejaVuSans-32" transform="translate(453.90625 0)"/>
       <use xlink:href="#DejaVuSans-37" transform="translate(517.529297 0)"/>
       <use xlink:href="#DejaVuSans-20" transform="translate(581.152344 0)"/>
       <use xlink:href="#DejaVuSans-28" transform="translate(612.939453 0)"/>
       <use xlink:href="#DejaVuSans-30" transform="translate(651.953125 0)"/>
       <use xlink:href="#DejaVuSans-30" transform="translate(715.576172 0)"/>
       <use xlink:href="#DejaVuSans-3a" transform="translate(779.199219 0)"/>
       <use xlink:href="#DejaVuSans-30" transform="translate(812.890625 0)"/>
       <use xlink:href="#DejaVuSans-30" transform="translate(876.513672 0)"/>
       <use xlink:href="#DejaVuSans-29" transform="translate(940.136719 0)"/>
      </g>
     </g>
    </g>
    <g id="xtick_6">
     <g id="line2d_6">
      <g>
       <use xlink:href="#m26f5aaf426" x="857.745572" y="484.397187" style="stroke: #000000; stroke-width: 0.8"/>
      </g>
     </g>
     <g id="text_6">
      <!-- 2023-01-10 (00:00) -->
      <g transform="translate(771.90831 546.93544) rotate(-30) scale(0.1 -0.1)">
       <use xlink:href="#DejaVuSans-32"/>
       <use xlink:href="#DejaVuSans-30" transform="translate(63.623047 0)"/>
       <use xlink:href="#DejaVuSans-32" transform="translate(127.246094 0)"/>
       <use xlink:href="#DejaVuSans-33" transform="translate(190.869141 0)"/>
       <use xlink:href="#DejaVuSans-2d" transform="translate(254.492188 0)"/>
       <use xlink:href="#DejaVuSans-30" transform="translate(290.576172 0)"/>
       <use xlink:href="#DejaVuSans-31" transform="translate(354.199219 0)"/>
       <use xlink:href="#DejaVuSans-2d" transform="translate(417.822266 0)"/>
       <use xlink:href="#DejaVuSans-31" transform="translate(453.90625 0)"/>
       <use xlink:href="#DejaVuSans-30" transform="translate(517.529297 0)"/>
       <use xlink:href="#DejaVuSans-20" transform="translate(581.152344 0)"/>
       <use xlink:href="#DejaVuSans-28" transform="translate(612.939453 0)"/>
       <use xlink:href="#DejaVuSans-30" transform="translate(651.953125 0)"/>
       <use xlink:href="#DejaVuSans-30" transform="translate(715.576172 0)"/>
       <use xlink:href="#DejaVuSans-3a" transform="translate(779.199219 0)"/>
       <use xlink:href="#DejaVuSans-30" transform="translate(812.890625 0)"/>
       <use xlink:href="#DejaVuSans-30" transform="translate(876.513672 0)"/>
       <use xlink:href="#DejaVuSans-29" transform="translate(940.136719 0)"/>
      </g>
     </g>
    </g>
    <g id="text_7">
     <!-- Forecast Date -->
     <g transform="translate(421.784777 564.894002) scale(0.16 -0.16)">
      <defs>
       <path id="DejaVuSans-46" d="M 628 4666 
L 3309 4666 
L 3309 4134 
L 1259 4134 
L 1259 2759 
L 3109 2759 
L 3109 2228 
L 1259 2228 
L 1259 0 
L 628 0 
L 628 4666 
z
" transform="scale(0.015625)"/>
       <path id="DejaVuSans-6f" d="M 1959 3097 
Q 1497 3097 1228 2736 
Q 959 2375 959 1747 
Q 959 1119 1226 758 
Q 1494 397 1959 397 
Q 2419 397 2687 759 
Q 2956 1122 2956 1747 
Q 2956 2369 2687 2733 
Q 2419 3097 1959 3097 
z
M 1959 3584 
Q 2709 3584 3137 3096 
Q 3566 2609 3566 1747 
Q 3566 888 3137 398 
Q 2709 -91 1959 -91 
Q 1206 -91 779 398 
Q 353 888 353 1747 
Q 353 2609 779 3096 
Q 1206 3584 1959 3584 
z
" transform="scale(0.015625)"/>
       <path id="DejaVuSans-72" d="M 2631 2963 
Q 2534 3019 2420 3045 
Q 2306 3072 2169 3072 
Q 1681 3072 1420 2755 
Q 1159 2438 1159 1844 
L 1159 0 
L 581 0 
L 581 3500 
L 1159 3500 
L 1159 2956 
Q 1341 3275 1631 3429 
Q 1922 3584 2338 3584 
Q 2397 3584 2469 3576 
Q 2541 3569 2628 3553 
L 2631 2963 
z
" transform="scale(0.015625)"/>
       <path id="DejaVuSans-65" d="M 3597 1894 
L 3597 1613 
L 953 1613 
Q 991 1019 1311 708 
Q 1631 397 2203 397 
Q 2534 397 2845 478 
Q 3156 559 3463 722 
L 3463 178 
Q 3153 47 2828 -22 
Q 2503 -91 2169 -91 
Q 1331 -91 842 396 
Q 353 884 353 1716 
Q 353 2575 817 3079 
Q 1281 3584 2069 3584 
Q 2775 3584 3186 3129 
Q 3597 2675 3597 1894 
z
M 3022 2063 
Q 3016 2534 2758 2815 
Q 2500 3097 2075 3097 
Q 1594 3097 1305 2825 
Q 1016 2553 972 2059 
L 3022 2063 
z
" transform="scale(0.015625)"/>
       <path id="DejaVuSans-63" d="M 3122 3366 
L 3122 2828 
Q 2878 2963 2633 3030 
Q 2388 3097 2138 3097 
Q 1578 3097 1268 2742 
Q 959 2388 959 1747 
Q 959 1106 1268 751 
Q 1578 397 2138 397 
Q 2388 397 2633 464 
Q 2878 531 3122 666 
L 3122 134 
Q 2881 22 2623 -34 
Q 2366 -91 2075 -91 
Q 1284 -91 818 406 
Q 353 903 353 1747 
Q 353 2603 823 3093 
Q 1294 3584 2113 3584 
Q 2378 3584 2631 3529 
Q 2884 3475 3122 3366 
z
" transform="scale(0.015625)"/>
       <path id="DejaVuSans-61" d="M 2194 1759 
Q 1497 1759 1228 1600 
Q 959 1441 959 1056 
Q 959 750 1161 570 
Q 1363 391 1709 391 
Q 2188 391 2477 730 
Q 2766 1069 2766 1631 
L 2766 1759 
L 2194 1759 
z
M 3341 1997 
L 3341 0 
L 2766 0 
L 2766 531 
Q 2569 213 2275 61 
Q 1981 -91 1556 -91 
Q 1019 -91 701 211 
Q 384 513 384 1019 
Q 384 1609 779 1909 
Q 1175 2209 1959 2209 
L 2766 2209 
L 2766 2266 
Q 2766 2663 2505 2880 
Q 2244 3097 1772 3097 
Q 1472 3097 1187 3025 
Q 903 2953 641 2809 
L 641 3341 
Q 956 3463 1253 3523 
Q 1550 3584 1831 3584 
Q 2591 3584 2966 3190 
Q 3341 2797 3341 1997 
z
" transform="scale(0.015625)"/>
       <path id="DejaVuSans-73" d="M 2834 3397 
L 2834 2853 
Q 2591 2978 2328 3040 
Q 2066 3103 1784 3103 
Q 1356 3103 1142 2972 
Q 928 2841 928 2578 
Q 928 2378 1081 2264 
Q 1234 2150 1697 2047 
L 1894 2003 
Q 2506 1872 2764 1633 
Q 3022 1394 3022 966 
Q 3022 478 2636 193 
Q 2250 -91 1575 -91 
Q 1294 -91 989 -36 
Q 684 19 347 128 
L 347 722 
Q 666 556 975 473 
Q 1284 391 1588 391 
Q 1994 391 2212 530 
Q 2431 669 2431 922 
Q 2431 1156 2273 1281 
Q 2116 1406 1581 1522 
L 1381 1569 
Q 847 1681 609 1914 
Q 372 2147 372 2553 
Q 372 3047 722 3315 
Q 1072 3584 1716 3584 
Q 2034 3584 2315 3537 
Q 2597 3491 2834 3397 
z
" transform="scale(0.015625)"/>
       <path id="DejaVuSans-74" d="M 1172 4494 
L 1172 3500 
L 2356 3500 
L 2356 3053 
L 1172 3053 
L 1172 1153 
Q 1172 725 1289 603 
Q 1406 481 1766 481 
L 2356 481 
L 2356 0 
L 1766 0 
Q 1100 0 847 248 
Q 594 497 594 1153 
L 594 3053 
L 172 3053 
L 172 3500 
L 594 3500 
L 594 4494 
L 1172 4494 
z
" transform="scale(0.015625)"/>
       <path id="DejaVuSans-44" d="M 1259 4147 
L 1259 519 
L 2022 519 
Q 2988 519 3436 956 
Q 3884 1394 3884 2338 
Q 3884 3275 3436 3711 
Q 2988 4147 2022 4147 
L 1259 4147 
z
M 628 4666 
L 1925 4666 
Q 3281 4666 3915 4102 
Q 4550 3538 4550 2338 
Q 4550 1131 3912 565 
Q 3275 0 1925 0 
L 628 0 
L 628 4666 
z
" transform="scale(0.015625)"/>
      </defs>
      <use xlink:href="#DejaVuSans-46"/>
      <use xlink:href="#DejaVuSans-6f" transform="translate(53.894531 0)"/>
      <use xlink:href="#DejaVuSans-72" transform="translate(115.076172 0)"/>
      <use xlink:href="#DejaVuSans-65" transform="translate(153.939453 0)"/>
      <use xlink:href="#DejaVuSans-63" transform="translate(215.462891 0)"/>
      <use xlink:href="#DejaVuSans-61" transform="translate(270.443359 0)"/>
      <use xlink:href="#DejaVuSans-73" transform="translate(331.722656 0)"/>
      <use xlink:href="#DejaVuSans-74" transform="translate(383.822266 0)"/>
      <use xlink:href="#DejaVuSans-20" transform="translate(423.03125 0)"/>
      <use xlink:href="#DejaVuSans-44" transform="translate(454.818359 0)"/>
      <use xlink:href="#DejaVuSans-61" transform="translate(531.820312 0)"/>
      <use xlink:href="#DejaVuSans-74" transform="translate(593.099609 0)"/>
      <use xlink:href="#DejaVuSans-65" transform="translate(632.308594 0)"/>
     </g>
    </g>
   </g>
   <g id="matplotlib.axis_2">
    <g id="ytick_1">
     <g id="line2d_7">
      <defs>
       <path id="m9712430c9b" d="M 0 0 
L -3.5 0 
" style="stroke: #000000; stroke-width: 0.8"/>
      </defs>
      <g>
       <use xlink:href="#m9712430c9b" x="58.791027" y="419.397264" style="stroke: #000000; stroke-width: 0.8"/>
      </g>
     </g>
     <g id="text_8">
      <!-- 5 -->
      <g transform="translate(45.428527 423.196483) scale(0.1 -0.1)">
       <use xlink:href="#DejaVuSans-35"/>
      </g>
     </g>
    </g>
    <g id="ytick_2">
     <g id="line2d_8">
      <g>
       <use xlink:href="#m9712430c9b" x="58.791027" y="347.553137" style="stroke: #000000; stroke-width: 0.8"/>
      </g>
     </g>
     <g id="text_9">
      <!-- 10 -->
      <g transform="translate(39.066027 351.352356) scale(0.1 -0.1)">
       <use xlink:href="#DejaVuSans-31"/>
       <use xlink:href="#DejaVuSans-30" transform="translate(63.623047 0)"/>
      </g>
     </g>
    </g>
    <g id="ytick_3">
     <g id="line2d_9">
      <g>
       <use xlink:href="#m9712430c9b" x="58.791027" y="275.70901" style="stroke: #000000; stroke-width: 0.8"/>
      </g>
     </g>
     <g id="text_10">
      <!-- 15 -->
      <g transform="translate(39.066027 279.508228) scale(0.1 -0.1)">
       <use xlink:href="#DejaVuSans-31"/>
       <use xlink:href="#DejaVuSans-35" transform="translate(63.623047 0)"/>
      </g>
     </g>
    </g>
    <g id="ytick_4">
     <g id="line2d_10">
      <g>
       <use xlink:href="#m9712430c9b" x="58.791027" y="203.864882" style="stroke: #000000; stroke-width: 0.8"/>
      </g>
     </g>
     <g id="text_11">
      <!-- 20 -->
      <g transform="translate(39.066027 207.664101) scale(0.1 -0.1)">
       <use xlink:href="#DejaVuSans-32"/>
       <use xlink:href="#DejaVuSans-30" transform="translate(63.623047 0)"/>
      </g>
     </g>
    </g>
    <g id="ytick_5">
     <g id="line2d_11">
      <g>
       <use xlink:href="#m9712430c9b" x="58.791027" y="132.020755" style="stroke: #000000; stroke-width: 0.8"/>
      </g>
     </g>
     <g id="text_12">
      <!-- 25 -->
      <g transform="translate(39.066027 135.819974) scale(0.1 -0.1)">
       <use xlink:href="#DejaVuSans-32"/>
       <use xlink:href="#DejaVuSans-35" transform="translate(63.623047 0)"/>
      </g>
     </g>
    </g>
    <g id="ytick_6">
     <g id="line2d_12">
      <g>
       <use xlink:href="#m9712430c9b" x="58.791027" y="60.176628" style="stroke: #000000; stroke-width: 0.8"/>
      </g>
     </g>
     <g id="text_13">
      <!-- 30 -->
      <g transform="translate(39.066027 63.975847) scale(0.1 -0.1)">
       <use xlink:href="#DejaVuSans-33"/>
       <use xlink:href="#DejaVuSans-30" transform="translate(63.623047 0)"/>
      </g>
     </g>
    </g>
    <g id="text_14">
     <!-- Root Mean Squared Error (RMSE) -->
     <g transform="translate(31.738527 394.303437) rotate(-90) scale(0.16 -0.16)">
      <defs>
       <path id="DejaVuSans-52" d="M 2841 2188 
Q 3044 2119 3236 1894 
Q 3428 1669 3622 1275 
L 4263 0 
L 3584 0 
L 2988 1197 
Q 2756 1666 2539 1819 
Q 2322 1972 1947 1972 
L 1259 1972 
L 1259 0 
L 628 0 
L 628 4666 
L 2053 4666 
Q 2853 4666 3247 4331 
Q 3641 3997 3641 3322 
Q 3641 2881 3436 2590 
Q 3231 2300 2841 2188 
z
M 1259 4147 
L 1259 2491 
L 2053 2491 
Q 2509 2491 2742 2702 
Q 2975 2913 2975 3322 
Q 2975 3731 2742 3939 
Q 2509 4147 2053 4147 
L 1259 4147 
z
" transform="scale(0.015625)"/>
       <path id="DejaVuSans-4d" d="M 628 4666 
L 1569 4666 
L 2759 1491 
L 3956 4666 
L 4897 4666 
L 4897 0 
L 4281 0 
L 4281 4097 
L 3078 897 
L 2444 897 
L 1241 4097 
L 1241 0 
L 628 0 
L 628 4666 
z
" transform="scale(0.015625)"/>
       <path id="DejaVuSans-6e" d="M 3513 2113 
L 3513 0 
L 2938 0 
L 2938 2094 
Q 2938 2591 2744 2837 
Q 2550 3084 2163 3084 
Q 1697 3084 1428 2787 
Q 1159 2491 1159 1978 
L 1159 0 
L 581 0 
L 581 3500 
L 1159 3500 
L 1159 2956 
Q 1366 3272 1645 3428 
Q 1925 3584 2291 3584 
Q 2894 3584 3203 3211 
Q 3513 2838 3513 2113 
z
" transform="scale(0.015625)"/>
       <path id="DejaVuSans-53" d="M 3425 4513 
L 3425 3897 
Q 3066 4069 2747 4153 
Q 2428 4238 2131 4238 
Q 1616 4238 1336 4038 
Q 1056 3838 1056 3469 
Q 1056 3159 1242 3001 
Q 1428 2844 1947 2747 
L 2328 2669 
Q 3034 2534 3370 2195 
Q 3706 1856 3706 1288 
Q 3706 609 3251 259 
Q 2797 -91 1919 -91 
Q 1588 -91 1214 -16 
Q 841 59 441 206 
L 441 856 
Q 825 641 1194 531 
Q 1563 422 1919 422 
Q 2459 422 2753 634 
Q 3047 847 3047 1241 
Q 3047 1584 2836 1778 
Q 2625 1972 2144 2069 
L 1759 2144 
Q 1053 2284 737 2584 
Q 422 2884 422 3419 
Q 422 4038 858 4394 
Q 1294 4750 2059 4750 
Q 2388 4750 2728 4690 
Q 3069 4631 3425 4513 
z
" transform="scale(0.015625)"/>
       <path id="DejaVuSans-71" d="M 947 1747 
Q 947 1113 1208 752 
Q 1469 391 1925 391 
Q 2381 391 2643 752 
Q 2906 1113 2906 1747 
Q 2906 2381 2643 2742 
Q 2381 3103 1925 3103 
Q 1469 3103 1208 2742 
Q 947 2381 947 1747 
z
M 2906 525 
Q 2725 213 2448 61 
Q 2172 -91 1784 -91 
Q 1150 -91 751 415 
Q 353 922 353 1747 
Q 353 2572 751 3078 
Q 1150 3584 1784 3584 
Q 2172 3584 2448 3432 
Q 2725 3281 2906 2969 
L 2906 3500 
L 3481 3500 
L 3481 -1331 
L 2906 -1331 
L 2906 525 
z
" transform="scale(0.015625)"/>
       <path id="DejaVuSans-75" d="M 544 1381 
L 544 3500 
L 1119 3500 
L 1119 1403 
Q 1119 906 1312 657 
Q 1506 409 1894 409 
Q 2359 409 2629 706 
Q 2900 1003 2900 1516 
L 2900 3500 
L 3475 3500 
L 3475 0 
L 2900 0 
L 2900 538 
Q 2691 219 2414 64 
Q 2138 -91 1772 -91 
Q 1169 -91 856 284 
Q 544 659 544 1381 
z
M 1991 3584 
L 1991 3584 
z
" transform="scale(0.015625)"/>
       <path id="DejaVuSans-64" d="M 2906 2969 
L 2906 4863 
L 3481 4863 
L 3481 0 
L 2906 0 
L 2906 525 
Q 2725 213 2448 61 
Q 2172 -91 1784 -91 
Q 1150 -91 751 415 
Q 353 922 353 1747 
Q 353 2572 751 3078 
Q 1150 3584 1784 3584 
Q 2172 3584 2448 3432 
Q 2725 3281 2906 2969 
z
M 947 1747 
Q 947 1113 1208 752 
Q 1469 391 1925 391 
Q 2381 391 2643 752 
Q 2906 1113 2906 1747 
Q 2906 2381 2643 2742 
Q 2381 3103 1925 3103 
Q 1469 3103 1208 2742 
Q 947 2381 947 1747 
z
" transform="scale(0.015625)"/>
       <path id="DejaVuSans-45" d="M 628 4666 
L 3578 4666 
L 3578 4134 
L 1259 4134 
L 1259 2753 
L 3481 2753 
L 3481 2222 
L 1259 2222 
L 1259 531 
L 3634 531 
L 3634 0 
L 628 0 
L 628 4666 
z
" transform="scale(0.015625)"/>
      </defs>
      <use xlink:href="#DejaVuSans-52"/>
      <use xlink:href="#DejaVuSans-6f" transform="translate(64.982422 0)"/>
      <use xlink:href="#DejaVuSans-6f" transform="translate(126.164062 0)"/>
      <use xlink:href="#DejaVuSans-74" transform="translate(187.345703 0)"/>
      <use xlink:href="#DejaVuSans-20" transform="translate(226.554688 0)"/>
      <use xlink:href="#DejaVuSans-4d" transform="translate(258.341797 0)"/>
      <use xlink:href="#DejaVuSans-65" transform="translate(344.621094 0)"/>
      <use xlink:href="#DejaVuSans-61" transform="translate(406.144531 0)"/>
      <use xlink:href="#DejaVuSans-6e" transform="translate(467.423828 0)"/>
      <use xlink:href="#DejaVuSans-20" transform="translate(530.802734 0)"/>
      <use xlink:href="#DejaVuSans-53" transform="translate(562.589844 0)"/>
      <use xlink:href="#DejaVuSans-71" transform="translate(626.066406 0)"/>
      <use xlink:href="#DejaVuSans-75" transform="translate(689.542969 0)"/>
      <use xlink:href="#DejaVuSans-61" transform="translate(752.921875 0)"/>
      <use xlink:href="#DejaVuSans-72" transform="translate(814.201172 0)"/>
      <use xlink:href="#DejaVuSans-65" transform="translate(853.064453 0)"/>
      <use xlink:href="#DejaVuSans-64" transform="translate(914.587891 0)"/>
      <use xlink:href="#DejaVuSans-20" transform="translate(978.064453 0)"/>
      <use xlink:href="#DejaVuSans-45" transform="translate(1009.851562 0)"/>
      <use xlink:href="#DejaVuSans-72" transform="translate(1073.035156 0)"/>
      <use xlink:href="#DejaVuSans-72" transform="translate(1112.398438 0)"/>
      <use xlink:href="#DejaVuSans-6f" transform="translate(1151.261719 0)"/>
      <use xlink:href="#DejaVuSans-72" transform="translate(1212.443359 0)"/>
      <use xlink:href="#DejaVuSans-20" transform="translate(1253.556641 0)"/>
      <use xlink:href="#DejaVuSans-28" transform="translate(1285.34375 0)"/>
      <use xlink:href="#DejaVuSans-52" transform="translate(1324.357422 0)"/>
      <use xlink:href="#DejaVuSans-4d" transform="translate(1393.839844 0)"/>
      <use xlink:href="#DejaVuSans-53" transform="translate(1480.119141 0)"/>
      <use xlink:href="#DejaVuSans-45" transform="translate(1543.595703 0)"/>
      <use xlink:href="#DejaVuSans-29" transform="translate(1606.779297 0)"/>
     </g>
    </g>
   </g>
   <g id="line2d_13">
    <path d="M 96.836481 242.537695 
L 99.892341 278.641312 
L 102.948201 301.138452 
L 106.004061 277.563159 
L 109.05992 269.558913 
L 112.11578 270.186409 
L 115.17164 260.804362 
L 118.2275 274.162181 
L 121.28336 288.897059 
L 124.339219 285.120888 
L 127.395079 266.191795 
L 130.450939 261.93815 
L 133.506799 250.044653 
L 136.562659 252.542469 
L 139.618518 256.461633 
L 142.674378 285.085328 
L 145.730238 301.325515 
L 148.786098 314.663559 
L 151.841958 298.263347 
L 154.897817 289.87163 
L 157.953677 287.508598 
L 161.009537 268.652722 
L 164.065397 269.220622 
L 167.121257 263.877136 
L 170.177116 281.120532 
L 173.232976 292.687208 
L 176.288836 302.89742 
L 179.344696 295.431955 
L 182.400556 300.152851 
L 188.512275 286.812107 
L 191.568135 271.686304 
L 194.623995 262.703705 
L 197.679855 259.76673 
L 200.735714 275.140739 
L 203.791574 287.118537 
L 206.847434 296.980387 
L 209.903294 283.670406 
L 212.959154 278.493948 
L 216.015013 302.769912 
L 219.070873 297.490611 
L 225.182593 284.494803 
L 228.238453 286.102967 
L 231.294313 285.066294 
L 234.350172 298.820902 
L 237.406032 302.330657 
L 240.461892 281.894844 
L 243.517752 253.604712 
L 246.573612 265.597351 
L 249.629471 268.820051 
L 252.685331 283.258105 
L 255.741191 272.541218 
L 258.797051 274.38198 
L 261.852911 270.845792 
L 264.90877 284.44258 
L 267.96463 272.502904 
L 271.02049 255.176795 
L 274.07635 248.085756 
L 277.13221 243.112571 
L 280.188069 253.571632 
L 283.243929 277.316968 
L 286.299789 280.923371 
L 289.355649 286.357655 
L 292.411509 268.958988 
L 295.467368 263.499408 
L 298.523228 243.682815 
L 301.579088 254.886151 
L 304.634948 282.192861 
L 307.690808 286.590376 
L 310.746667 285.537067 
L 313.802527 285.643829 
L 316.858387 271.973715 
L 319.914247 247.282558 
L 322.970107 271.672286 
L 326.025966 286.893065 
L 329.081826 301.519319 
L 332.137686 295.654056 
L 335.193546 281.129755 
L 338.249406 267.830723 
L 341.305265 272.703628 
L 344.361125 295.461883 
L 347.416985 293.608953 
L 350.472845 305.348069 
L 353.528705 298.988259 
L 356.584564 295.280741 
L 359.640424 295.527781 
L 362.696284 298.340935 
L 365.752144 302.371355 
L 368.808004 280.501368 
L 371.863863 276.687663 
L 374.919723 291.922036 
L 377.975583 294.073312 
L 381.031443 281.423496 
L 384.087303 259.824393 
L 387.143162 284.056206 
L 390.199022 277.585496 
L 393.254882 295.128142 
L 396.310742 295.323083 
L 399.366602 292.351837 
L 402.422461 273.152585 
L 405.478321 291.920145 
L 408.534181 298.383757 
L 411.590041 299.354696 
L 414.645901 299.546225 
L 417.70176 317.160018 
L 420.75762 302.293726 
L 423.81348 288.895922 
L 426.86934 303.920458 
L 429.9252 304.56866 
L 432.981059 284.649389 
L 436.036919 280.55988 
L 439.092779 263.660324 
L 442.148639 264.400241 
L 445.204499 286.676528 
L 448.260359 307.928419 
L 451.316218 307.012266 
L 454.372078 299.410934 
L 457.427938 300.954624 
L 460.483798 298.972638 
L 463.539658 311.589333 
L 466.595517 300.952665 
L 469.651377 287.524933 
L 472.707237 297.177069 
L 475.763097 304.523604 
L 478.818957 271.872859 
L 481.874816 281.97472 
L 484.930676 269.373523 
L 487.986536 278.929572 
L 491.042396 306.770295 
L 494.098256 285.124081 
L 497.154115 268.500137 
L 500.209975 272.445954 
L 503.265835 294.137196 
L 506.321695 298.426072 
L 509.377555 306.099908 
L 512.433414 311.216744 
L 515.489274 320.884419 
L 518.545134 309.578131 
L 521.600994 301.28409 
L 524.656854 298.473157 
L 527.712713 294.798553 
L 530.768573 313.464312 
L 533.824433 316.189134 
L 536.880293 306.921277 
L 539.936153 292.528512 
L 542.992012 302.306923 
L 546.047872 300.392835 
L 549.103732 288.6202 
L 552.159592 313.190714 
L 555.215452 311.49385 
L 558.271311 304.344914 
L 561.327171 279.389643 
L 564.383031 277.906177 
L 567.438891 268.093413 
L 570.494751 270.142134 
L 573.55061 296.771934 
L 576.60647 317.72881 
L 579.66233 304.52259 
L 582.71819 293.323707 
L 585.77405 277.472102 
L 588.829909 301.073527 
L 591.885769 280.951901 
L 594.941629 281.513964 
L 597.997489 271.621927 
L 601.053349 273.41744 
L 604.109208 258.331404 
L 607.165068 275.446977 
L 610.220928 294.071599 
L 613.276788 291.990278 
L 616.332648 269.421443 
L 619.388507 268.253658 
L 622.444367 299.909716 
L 625.500227 308.092172 
L 628.556087 305.316401 
L 631.611947 296.221258 
L 634.667806 285.595347 
L 637.723666 283.503008 
L 640.779526 285.251753 
L 643.835386 283.46109 
L 646.891246 271.372679 
L 649.947105 283.919886 
L 653.002965 300.573744 
L 656.058825 309.732265 
L 659.114685 281.433842 
L 662.170545 259.945694 
L 665.226405 258.198895 
L 668.282264 273.748139 
L 671.338124 283.980824 
L 674.393984 259.020811 
L 677.449844 258.985347 
L 680.505704 276.411462 
L 683.561563 262.52629 
L 686.617423 264.704794 
L 689.673283 271.35873 
L 692.729143 295.96753 
L 695.785003 273.979175 
L 698.840862 295.927599 
L 701.896722 309.451706 
L 704.952582 315.141869 
L 708.008442 304.703485 
L 711.064302 276.770307 
L 714.120161 254.322155 
L 717.176021 277.109105 
L 720.231881 293.580107 
L 723.287741 279.731071 
L 726.343601 279.846287 
L 729.39946 283.969903 
L 732.45532 298.198216 
L 735.51118 286.28067 
L 738.56704 307.84805 
L 741.6229 293.958562 
L 744.678759 285.056497 
L 747.734619 296.574006 
L 750.790479 295.318671 
L 753.846339 290.567176 
L 756.902199 293.194418 
L 759.958058 300.427545 
L 763.013918 289.226539 
L 766.069778 286.394393 
L 769.125638 275.508176 
L 772.181498 282.567753 
L 775.237357 273.620481 
L 778.293217 263.573446 
L 781.349077 267.738843 
L 784.404937 286.141418 
L 787.460797 294.465127 
L 790.516656 290.690285 
L 793.572516 275.993844 
L 796.628376 271.124761 
L 799.684236 256.75236 
L 802.740096 285.270403 
L 805.795955 276.146401 
L 808.851815 301.647676 
L 811.907675 318.326186 
L 814.963535 295.416402 
L 818.019395 282.295977 
L 821.075254 267.494159 
L 824.131114 291.215404 
L 827.186974 279.610154 
L 830.242834 271.233565 
L 833.298694 259.926893 
L 836.354553 284.732649 
L 839.410413 305.409651 
L 842.466273 306.55273 
L 845.522133 288.551931 
L 848.577993 296.697293 
L 851.633852 302.177606 
L 854.689712 299.270682 
L 857.745572 299.030643 
L 857.745572 299.030643 
" clip-path="url(#pfc13bb8647)" style="fill: none; stroke: #0000ff; stroke-width: 2; stroke-linecap: square"/>
   </g>
   <g id="line2d_14">
    <path d="M 96.836481 413.52613 
L 99.892341 391.477069 
L 102.948201 417.956861 
L 106.004061 386.042176 
L 109.05992 403.342817 
L 112.11578 400.725654 
L 115.17164 360.265714 
L 118.2275 401.90164 
L 121.28336 412.533965 
L 124.339219 428.049746 
L 127.395079 377.805852 
L 130.450939 377.17996 
L 133.506799 384.072584 
L 136.562659 403.906621 
L 139.618518 385.822343 
L 142.674378 301.483649 
L 145.730238 364.813922 
L 148.786098 362.7323 
L 151.841958 419.068381 
L 154.897817 417.721166 
L 157.953677 401.863655 
L 161.009537 428.73916 
L 164.065397 380.228753 
L 167.121257 301.684141 
L 170.177116 351.314769 
L 173.232976 439.801103 
L 176.288836 405.576511 
L 179.344696 420.64241 
L 182.400556 409.848375 
L 185.456415 403.21572 
L 188.512275 386.750192 
L 191.568135 360.055343 
L 194.623995 375.770067 
L 197.679855 415.568089 
L 200.735714 398.440053 
L 203.791574 408.291412 
L 206.847434 407.774124 
L 209.903294 404.712512 
L 212.959154 379.171778 
L 216.015013 359.951239 
L 219.070873 373.107635 
L 222.126733 335.207915 
L 225.182593 325.243702 
L 228.238453 389.796649 
L 231.294313 327.077654 
L 234.350172 378.922799 
L 237.406032 379.949674 
L 240.461892 380.387189 
L 243.517752 272.121764 
L 246.573612 199.52081 
L 249.629471 333.112123 
L 252.685331 333.031219 
L 255.741191 367.335828 
L 258.797051 408.806385 
L 261.852911 386.704437 
L 264.90877 397.014278 
L 267.96463 403.045657 
L 271.02049 333.170252 
L 274.07635 259.775528 
L 277.13221 298.805705 
L 280.188069 346.341639 
L 283.243929 404.883514 
L 289.355649 321.442385 
L 292.411509 355.299805 
L 295.467368 371.930134 
L 298.523228 363.508955 
L 301.579088 347.76048 
L 304.634948 356.135 
L 307.690808 341.381225 
L 310.746667 323.472128 
L 313.802527 343.50123 
L 316.858387 269.328028 
L 319.914247 326.911982 
L 322.970107 365.444844 
L 326.025966 392.981411 
L 329.081826 317.564989 
L 332.137686 271.659514 
L 335.193546 398.942123 
L 338.249406 415.62941 
L 341.305265 322.294257 
L 344.361125 299.552529 
L 347.416985 333.530741 
L 350.472845 332.709167 
L 353.528705 284.065935 
L 356.584564 197.575315 
L 359.640424 244.277642 
L 362.696284 375.840597 
L 365.752144 391.527004 
L 368.808004 349.546511 
L 371.863863 300.810988 
L 374.919723 412.006817 
L 377.975583 372.272042 
L 381.031443 84.618496 
L 384.087303 85.934002 
L 387.143162 203.96223 
L 390.199022 358.168976 
L 393.254882 403.844518 
L 396.310742 351.107632 
L 399.366602 169.859839 
L 402.422461 177.409633 
L 405.478321 175.34503 
L 411.590041 382.439302 
L 414.645901 354.334909 
L 417.70176 337.846805 
L 420.75762 310.461438 
L 423.81348 305.816321 
L 426.86934 383.773039 
L 429.9252 341.561654 
L 432.981059 61.037187 
L 436.036919 95.933431 
L 439.092779 231.310981 
L 442.148639 293.463069 
L 445.204499 338.700513 
L 448.260359 228.053242 
L 451.316218 315.240696 
L 454.372078 256.800403 
L 457.427938 281.971705 
L 460.483798 298.659027 
L 463.539658 294.876675 
L 466.595517 154.639306 
L 469.651377 356.674014 
L 472.707237 383.538489 
L 475.763097 226.870822 
L 478.818957 305.235018 
L 481.874816 400.651485 
L 484.930676 116.614955 
L 487.986536 198.883311 
L 491.042396 365.364352 
L 494.098256 358.999567 
L 497.154115 375.671226 
L 500.209975 346.844093 
L 503.265835 267.397455 
L 506.321695 135.589995 
L 509.377555 365.612366 
L 512.433414 236.702388 
L 515.489274 209.316473 
L 518.545134 390.219515 
L 521.600994 373.01533 
L 524.656854 389.779663 
L 527.712713 272.601375 
L 530.768573 320.833046 
L 533.824433 269.35464 
L 536.880293 328.840472 
L 539.936153 416.497945 
L 542.992012 290.49337 
L 546.047872 262.498761 
L 549.103732 389.743412 
L 552.159592 376.397926 
L 555.215452 307.169619 
L 558.271311 189.272284 
L 561.327171 275.163431 
L 564.383031 255.223962 
L 567.438891 242.6414 
L 570.494751 203.395466 
L 573.55061 403.71934 
L 576.60647 362.878814 
L 579.66233 290.421319 
L 582.71819 360.579845 
L 585.77405 409.463014 
L 588.829909 226.976473 
L 591.885769 231.406054 
L 594.941629 365.194843 
L 597.997489 351.132462 
L 601.053349 259.41042 
L 604.109208 205.098991 
L 607.165068 355.287993 
L 610.220928 374.025762 
L 613.276788 293.618778 
L 616.332648 311.256456 
L 619.388507 300.833625 
L 622.444367 416.191439 
L 625.500227 372.191824 
L 628.556087 298.835359 
L 631.611947 160.003169 
L 634.667806 213.324598 
L 637.723666 376.361517 
L 640.779526 384.610358 
L 643.835386 375.640339 
L 646.891246 316.006403 
L 649.947105 345.487396 
L 653.002965 304.195276 
L 656.058825 312.24932 
L 659.114685 291.205867 
L 662.170545 403.709747 
L 665.226405 342.703732 
L 668.282264 326.508328 
L 671.338124 404.294688 
L 674.393984 381.949365 
L 677.449844 411.78077 
L 680.505704 408.643694 
L 683.561563 385.097424 
L 686.617423 312.224393 
L 689.673283 360.185673 
L 692.729143 419.510706 
L 695.785003 397.536849 
L 698.840862 410.254914 
L 701.896722 402.219246 
L 704.952582 395.046529 
L 708.008442 369.554537 
L 711.064302 320.653247 
L 714.120161 347.057397 
L 717.176021 395.979729 
L 720.231881 412.874886 
L 723.287741 361.263552 
L 726.343601 329.003307 
L 729.39946 287.575717 
L 732.45532 359.680136 
L 735.51118 391.47585 
L 738.56704 441.456544 
L 741.6229 232.895617 
L 744.678759 241.417679 
L 747.734619 402.392002 
L 750.790479 422.262969 
L 753.846339 334.794805 
L 756.902199 327.830986 
L 759.958058 348.193253 
L 763.013918 373.421931 
L 766.069778 341.579126 
L 769.125638 348.664163 
L 772.181498 351.010052 
L 775.237357 382.686247 
L 778.293217 387.354221 
L 781.349077 384.028466 
L 784.404937 366.611464 
L 787.460797 359.801779 
L 790.516656 365.923839 
L 793.572516 357.582398 
L 796.628376 408.662172 
L 799.684236 393.784336 
L 802.740096 378.288396 
L 805.795955 363.718984 
L 808.851815 371.686177 
L 811.907675 333.28244 
L 814.963535 411.804709 
L 818.019395 257.527192 
L 821.075254 219.845339 
L 824.131114 359.597711 
L 827.186974 348.238419 
L 830.242834 273.209454 
L 833.298694 319.94793 
L 836.354553 364.626161 
L 839.410413 357.209302 
L 842.466273 373.27602 
L 845.522133 396.191224 
L 848.577993 293.156295 
L 851.633852 269.861178 
L 854.689712 267.534871 
L 857.745572 398.104859 
L 857.745572 398.104859 
" clip-path="url(#pfc13bb8647)" style="fill: none; stroke: #ffa500; stroke-width: 2; stroke-linecap: square"/>
   </g>
   <g id="line2d_15">
    <path d="M 96.836481 352.800304 
L 99.892341 365.139907 
L 102.948201 362.429555 
L 106.004061 339.719961 
L 109.05992 351.776882 
L 112.11578 347.888043 
L 115.17164 354.074891 
L 118.2275 357.872906 
L 121.28336 352.810266 
L 124.339219 355.141547 
L 127.395079 343.594877 
L 130.450939 333.816371 
L 133.506799 335.041887 
L 136.562659 341.02264 
L 139.618518 344.816584 
L 142.674378 361.374945 
L 145.730238 367.914116 
L 148.786098 368.32676 
L 151.841958 359.609633 
L 154.897817 346.68489 
L 157.953677 357.740738 
L 161.009537 361.243847 
L 164.065397 354.834116 
L 167.121257 346.248443 
L 170.177116 357.101773 
L 173.232976 360.502587 
L 176.288836 368.060507 
L 179.344696 368.520523 
L 182.400556 363.180325 
L 185.456415 349.79199 
L 188.512275 347.542736 
L 191.568135 355.51293 
L 194.623995 349.375057 
L 197.679855 349.951933 
L 200.735714 337.794883 
L 203.791574 346.662129 
L 206.847434 351.827309 
L 209.903294 335.486925 
L 212.959154 347.275579 
L 216.015013 357.839799 
L 219.070873 364.706243 
L 222.126733 361.580685 
L 225.182593 357.698519 
L 228.238453 350.071822 
L 231.294313 348.377643 
L 234.350172 352.301069 
L 237.406032 354.288702 
L 240.461892 336.106035 
L 243.517752 327.241996 
L 246.573612 344.123464 
L 249.629471 345.204809 
L 252.685331 343.226358 
L 255.741191 342.93089 
L 258.797051 342.015805 
L 261.852911 343.328666 
L 264.90877 357.818778 
L 267.96463 348.067061 
L 271.02049 343.158582 
L 274.07635 345.990591 
L 277.13221 340.625316 
L 280.188069 340.447874 
L 283.243929 358.812724 
L 286.299789 362.414852 
L 289.355649 365.019977 
L 292.411509 348.246655 
L 295.467368 336.343689 
L 298.523228 345.544717 
L 301.579088 349.284205 
L 304.634948 350.485932 
L 307.690808 359.070194 
L 310.746667 350.169074 
L 313.802527 340.347539 
L 316.858387 334.099793 
L 319.914247 329.706348 
L 322.970107 348.83511 
L 326.025966 365.458849 
L 329.081826 358.608643 
L 332.137686 349.453055 
L 335.193546 339.418861 
L 338.249406 353.501728 
L 341.305265 357.362997 
L 344.361125 363.997117 
L 347.416985 365.706835 
L 350.472845 369.502178 
L 353.528705 370.868919 
L 356.584564 364.238841 
L 359.640424 356.799097 
L 362.696284 360.352743 
L 365.752144 362.975778 
L 368.808004 362.776821 
L 371.863863 353.975214 
L 374.919723 358.335881 
L 377.975583 357.340756 
L 381.031443 349.324067 
L 384.087303 356.86675 
L 387.143162 362.110682 
L 390.199022 365.33737 
L 393.254882 361.908095 
L 396.310742 359.701239 
L 399.366602 356.833012 
L 402.422461 346.855453 
L 405.478321 350.918693 
L 408.534181 369.076584 
L 411.590041 363.212254 
L 414.645901 369.532338 
L 417.70176 360.106771 
L 420.75762 362.149476 
L 423.81348 360.959615 
L 426.86934 381.80753 
L 429.9252 377.680523 
L 432.981059 363.013832 
L 436.036919 365.520856 
L 439.092779 360.385712 
L 442.148639 357.501769 
L 445.204499 355.80378 
L 448.260359 371.46276 
L 451.316218 371.079153 
L 454.372078 355.351438 
L 457.427938 348.372546 
L 460.483798 358.547664 
L 463.539658 370.298319 
L 466.595517 364.702529 
L 469.651377 346.941975 
L 472.707237 346.507776 
L 475.763097 356.051479 
L 478.818957 358.53233 
L 481.874816 355.850193 
L 484.930676 356.384535 
L 487.986536 363.525358 
L 491.042396 371.901385 
L 494.098256 357.360174 
L 497.154115 357.742958 
L 500.209975 357.450642 
L 503.265835 364.495584 
L 506.321695 370.457399 
L 509.377555 365.79496 
L 512.433414 368.028551 
L 515.489274 369.479896 
L 518.545134 366.579248 
L 521.600994 372.566058 
L 524.656854 373.224701 
L 527.712713 376.445606 
L 530.768573 375.941343 
L 533.824433 379.627149 
L 536.880293 375.083414 
L 539.936153 362.80272 
L 542.992012 361.48405 
L 546.047872 363.621321 
L 549.103732 358.14279 
L 552.159592 367.859043 
L 555.215452 370.480132 
L 558.271311 362.462895 
L 561.327171 353.891282 
L 564.383031 352.694488 
L 567.438891 355.192427 
L 570.494751 359.034743 
L 573.55061 361.092111 
L 576.60647 358.72797 
L 579.66233 365.67862 
L 582.71819 359.419227 
L 585.77405 358.077001 
L 588.829909 363.034565 
L 591.885769 348.33023 
L 594.941629 346.005623 
L 597.997489 356.448405 
L 601.053349 349.090565 
L 604.109208 351.768125 
L 607.165068 356.126545 
L 610.220928 371.114699 
L 613.276788 363.303805 
L 616.332648 348.444241 
L 619.388507 342.207705 
L 622.444367 357.015018 
L 625.500227 372.71471 
L 628.556087 370.423072 
L 631.611947 361.768158 
L 637.723666 348.1068 
L 640.779526 356.019222 
L 643.835386 359.756202 
L 646.891246 351.768331 
L 649.947105 358.010266 
L 653.002965 371.015954 
L 656.058825 369.691569 
L 659.114685 344.614065 
L 662.170545 340.192816 
L 665.226405 337.708608 
L 668.282264 347.063344 
L 671.338124 340.167137 
L 674.393984 347.911406 
L 677.449844 351.262766 
L 680.505704 349.846199 
L 683.561563 336.618465 
L 686.617423 342.989485 
L 689.673283 354.506994 
L 692.729143 356.937143 
L 695.785003 361.99067 
L 698.840862 353.128426 
L 701.896722 355.604769 
L 704.952582 359.285114 
L 708.008442 361.825766 
L 711.064302 344.508414 
L 714.120161 333.772589 
L 717.176021 358.9877 
L 720.231881 358.851436 
L 723.287741 355.499364 
L 726.343601 362.060954 
L 729.39946 363.065177 
L 732.45532 353.352925 
L 735.51118 352.549508 
L 738.56704 351.307164 
L 741.6229 339.398429 
L 744.678759 339.866105 
L 747.734619 357.020856 
L 750.790479 363.559821 
L 753.846339 371.068287 
L 756.902199 364.309591 
L 759.958058 353.07001 
L 763.013918 355.902635 
L 766.069778 347.149044 
L 769.125638 351.499228 
L 772.181498 357.336467 
L 775.237357 359.724219 
L 778.293217 342.791063 
L 781.349077 330.594986 
L 784.404937 348.673536 
L 787.460797 356.06499 
L 790.516656 368.075608 
L 793.572516 341.64101 
L 796.628376 338.067755 
L 799.684236 339.048368 
L 802.740096 355.446908 
L 805.795955 356.83267 
L 808.851815 371.933478 
L 811.907675 370.797361 
L 814.963535 370.965801 
L 818.019395 365.844319 
L 821.075254 353.177812 
L 824.131114 354.803722 
L 827.186974 350.988442 
L 833.298694 338.232385 
L 836.354553 353.032929 
L 839.410413 366.174703 
L 842.466273 370.22143 
L 845.522133 364.748654 
L 848.577993 368.285239 
L 851.633852 363.793474 
L 854.689712 377.619797 
L 857.745572 357.049194 
L 857.745572 357.049194 
" clip-path="url(#pfc13bb8647)" style="fill: none; stroke-dasharray: 7.4,3.2; stroke-dashoffset: 0; stroke: #0000ff; stroke-width: 2"/>
   </g>
   <g id="line2d_16">
    <path d="M 96.836481 389.931296 
L 99.892341 446.158536 
L 102.948201 401.677812 
L 106.004061 424.876275 
L 109.05992 444.191671 
L 112.11578 433.973391 
L 115.17164 397.738573 
L 118.2275 431.694566 
L 121.28336 446.506778 
L 124.339219 433.132468 
L 127.395079 419.221144 
L 130.450939 439.34042 
L 133.506799 430.218542 
L 136.562659 407.765546 
L 139.618518 423.979429 
L 142.674378 369.096618 
L 145.730238 410.266143 
L 148.786098 390.360301 
L 151.841958 446.859074 
L 154.897817 443.237549 
L 157.953677 440.448277 
L 161.009537 425.118883 
L 164.065397 340.603706 
L 167.121257 400.344013 
L 170.177116 442.73813 
L 173.232976 426.317596 
L 176.288836 448.346516 
L 179.344696 458.871952 
L 182.400556 412.921025 
L 185.456415 432.368214 
L 188.512275 418.064308 
L 191.568135 376.376035 
L 194.623995 464.237187 
L 197.679855 424.462062 
L 200.735714 445.628137 
L 203.791574 425.445299 
L 206.847434 438.720402 
L 209.903294 433.695176 
L 212.959154 417.53381 
L 216.015013 434.749255 
L 219.070873 413.895307 
L 222.126733 350.592351 
L 225.182593 403.540904 
L 228.238453 359.462844 
L 231.294313 392.480067 
L 234.350172 409.912766 
L 237.406032 442.820558 
L 240.461892 388.653701 
L 243.517752 251.931471 
L 246.573612 352.280994 
L 249.629471 387.589464 
L 252.685331 408.170167 
L 255.741191 447.506422 
L 258.797051 420.695661 
L 261.852911 431.349794 
L 264.90877 400.400457 
L 267.96463 428.146436 
L 271.02049 388.463384 
L 274.07635 367.245141 
L 277.13221 359.201045 
L 280.188069 399.775852 
L 283.243929 435.08437 
L 286.299789 321.879448 
L 289.355649 399.94693 
L 292.411509 384.896439 
L 295.467368 423.376284 
L 298.523228 410.525586 
L 301.579088 416.483516 
L 304.634948 407.264051 
L 307.690808 392.826326 
L 310.746667 406.392967 
L 313.802527 389.284917 
L 316.858387 414.442078 
L 319.914247 412.937852 
L 322.970107 401.538561 
L 326.025966 375.507062 
L 329.081826 338.036306 
L 332.137686 409.528953 
L 335.193546 445.750654 
L 338.249406 416.836695 
L 341.305265 358.05439 
L 344.361125 421.530191 
L 347.416985 364.60858 
L 350.472845 425.157108 
L 353.528705 372.621323 
L 356.584564 303.740659 
L 359.640424 412.157525 
L 362.696284 423.794217 
L 365.752144 413.605115 
L 368.808004 344.382098 
L 371.863863 450.112763 
L 374.919723 427.495603 
L 377.975583 355.043172 
L 381.031443 240.96742 
L 384.087303 355.582145 
L 387.143162 402.967569 
L 390.199022 425.739548 
L 393.254882 411.602697 
L 396.310742 360.298971 
L 399.366602 287.24299 
L 402.422461 205.37807 
L 405.478321 366.173113 
L 408.534181 427.595883 
L 411.590041 437.865978 
L 414.645901 403.471874 
L 417.70176 417.29854 
L 420.75762 355.174626 
L 423.81348 446.310165 
L 426.86934 408.874167 
L 429.9252 306.596347 
L 432.981059 264.084383 
L 436.036919 324.438051 
L 439.092779 353.623344 
L 442.148639 396.081941 
L 445.204499 366.013814 
L 448.260359 356.353798 
L 451.316218 352.573036 
L 454.372078 297.782736 
L 457.427938 397.346292 
L 460.483798 431.802383 
L 463.539658 321.675326 
L 466.595517 336.018088 
L 469.651377 351.64222 
L 472.707237 326.661036 
L 475.763097 328.999264 
L 478.818957 421.265706 
L 481.874816 366.637158 
L 484.930676 172.14879 
L 487.986536 419.592815 
L 491.042396 405.334533 
L 494.098256 431.057156 
L 497.154115 424.873294 
L 500.209975 386.9244 
L 503.265835 265.590486 
L 506.321695 415.482238 
L 509.377555 412.226075 
L 512.433414 240.849628 
L 515.489274 412.137648 
L 518.545134 399.973411 
L 521.600994 400.658515 
L 524.656854 379.549034 
L 527.712713 374.565612 
L 530.768573 364.810387 
L 533.824433 399.183039 
L 536.880293 426.180338 
L 539.936153 443.023434 
L 542.992012 296.185054 
L 546.047872 429.767344 
L 549.103732 422.053221 
L 552.159592 353.966869 
L 555.215452 355.278551 
L 558.271311 341.071779 
L 561.327171 409.511269 
L 564.383031 370.055279 
L 567.438891 261.390091 
L 570.494751 404.507108 
L 573.55061 425.209886 
L 576.60647 388.642622 
L 579.66233 382.21855 
L 582.71819 409.468975 
L 585.77405 373.298589 
L 588.829909 348.392347 
L 591.885769 399.371533 
L 594.941629 335.297246 
L 597.997489 371.068698 
L 601.053349 261.683517 
L 604.109208 413.064456 
L 607.165068 429.358366 
L 610.220928 386.491366 
L 613.276788 374.263471 
L 616.332648 394.719591 
L 619.388507 435.567975 
L 622.444367 407.048465 
L 625.500227 405.219632 
L 628.556087 287.440453 
L 634.667806 417.998752 
L 637.723666 386.870704 
L 640.779526 319.21259 
L 643.835386 314.45523 
L 646.891246 324.06009 
L 649.947105 397.627187 
L 653.002965 409.916945 
L 656.058825 377.685703 
L 659.114685 359.421365 
L 662.170545 405.421165 
L 665.226405 338.800957 
L 668.282264 428.210156 
L 671.338124 416.020917 
L 674.393984 416.628564 
L 677.449844 397.76167 
L 680.505704 396.559483 
L 683.561563 369.375204 
L 686.617423 396.581202 
L 689.673283 440.791436 
L 692.729143 443.744378 
L 695.785003 445.498502 
L 698.840862 431.250371 
L 701.896722 422.614654 
L 704.952582 428.618949 
L 708.008442 381.634295 
L 711.064302 406.769181 
L 714.120161 415.861056 
L 717.176021 456.237122 
L 720.231881 406.581632 
L 723.287741 425.592431 
L 726.343601 395.910356 
L 729.39946 370.64701 
L 732.45532 405.514216 
L 735.51118 400.529075 
L 738.56704 355.243635 
L 741.6229 312.501746 
L 744.678759 418.324168 
L 747.734619 446.406159 
L 750.790479 403.999268 
L 753.846339 372.962806 
L 756.902199 414.93122 
L 759.958058 374.084165 
L 763.013918 373.94679 
L 766.069778 417.414133 
L 769.125638 428.535874 
L 772.181498 407.808355 
L 775.237357 416.904943 
L 778.293217 413.343446 
L 781.349077 386.797557 
L 784.404937 419.730505 
L 787.460797 387.492767 
L 790.516656 368.020795 
L 793.572516 408.797115 
L 796.628376 384.168739 
L 799.684236 443.592592 
L 802.740096 418.466647 
L 805.795955 398.395291 
L 808.851815 403.726088 
L 811.907675 416.321181 
L 814.963535 403.98662 
L 818.019395 339.6683 
L 821.075254 401.242154 
L 824.131114 383.740138 
L 827.186974 381.259835 
L 830.242834 422.416266 
L 833.298694 414.600363 
L 836.354553 370.055197 
L 839.410413 406.937518 
L 842.466273 446.180862 
L 845.522133 391.616856 
L 848.577993 347.442867 
L 851.633852 311.957277 
L 854.689712 436.571884 
L 857.745572 427.045783 
L 857.745572 427.045783 
" clip-path="url(#pfc13bb8647)" style="fill: none; stroke-dasharray: 7.4,3.2; stroke-dashoffset: 0; stroke: #ffa500; stroke-width: 2"/>
   </g>
   <g id="patch_3">
    <path d="M 58.791027 484.397187 
L 58.791027 40.877187 
" style="fill: none; stroke: #000000; stroke-width: 0.8; stroke-linejoin: miter; stroke-linecap: square"/>
   </g>
   <g id="patch_4">
    <path d="M 895.791027 484.397187 
L 895.791027 40.877187 
" style="fill: none; stroke: #000000; stroke-width: 0.8; stroke-linejoin: miter; stroke-linecap: square"/>
   </g>
   <g id="patch_5">
    <path d="M 58.791027 484.397187 
L 895.791027 484.397187 
" style="fill: none; stroke: #000000; stroke-width: 0.8; stroke-linejoin: miter; stroke-linecap: square"/>
   </g>
   <g id="patch_6">
    <path d="M 58.791027 40.877187 
L 895.791027 40.877187 
" style="fill: none; stroke: #000000; stroke-width: 0.8; stroke-linejoin: miter; stroke-linecap: square"/>
   </g>
   <g id="text_15">
    <!-- Southward wind speed  two steps forward prediction: RMSES -->
    <g transform="translate(203.277589 20.877187) scale(0.18 -0.18)">
     <defs>
      <path id="DejaVuSans-68" d="M 3513 2113 
L 3513 0 
L 2938 0 
L 2938 2094 
Q 2938 2591 2744 2837 
Q 2550 3084 2163 3084 
Q 1697 3084 1428 2787 
Q 1159 2491 1159 1978 
L 1159 0 
L 581 0 
L 581 4863 
L 1159 4863 
L 1159 2956 
Q 1366 3272 1645 3428 
Q 1925 3584 2291 3584 
Q 2894 3584 3203 3211 
Q 3513 2838 3513 2113 
z
" transform="scale(0.015625)"/>
      <path id="DejaVuSans-77" d="M 269 3500 
L 844 3500 
L 1563 769 
L 2278 3500 
L 2956 3500 
L 3675 769 
L 4391 3500 
L 4966 3500 
L 4050 0 
L 3372 0 
L 2619 2869 
L 1863 0 
L 1184 0 
L 269 3500 
z
" transform="scale(0.015625)"/>
      <path id="DejaVuSans-69" d="M 603 3500 
L 1178 3500 
L 1178 0 
L 603 0 
L 603 3500 
z
M 603 4863 
L 1178 4863 
L 1178 4134 
L 603 4134 
L 603 4863 
z
" transform="scale(0.015625)"/>
      <path id="DejaVuSans-70" d="M 1159 525 
L 1159 -1331 
L 581 -1331 
L 581 3500 
L 1159 3500 
L 1159 2969 
Q 1341 3281 1617 3432 
Q 1894 3584 2278 3584 
Q 2916 3584 3314 3078 
Q 3713 2572 3713 1747 
Q 3713 922 3314 415 
Q 2916 -91 2278 -91 
Q 1894 -91 1617 61 
Q 1341 213 1159 525 
z
M 3116 1747 
Q 3116 2381 2855 2742 
Q 2594 3103 2138 3103 
Q 1681 3103 1420 2742 
Q 1159 2381 1159 1747 
Q 1159 1113 1420 752 
Q 1681 391 2138 391 
Q 2594 391 2855 752 
Q 3116 1113 3116 1747 
z
" transform="scale(0.015625)"/>
      <path id="DejaVuSans-66" d="M 2375 4863 
L 2375 4384 
L 1825 4384 
Q 1516 4384 1395 4259 
Q 1275 4134 1275 3809 
L 1275 3500 
L 2222 3500 
L 2222 3053 
L 1275 3053 
L 1275 0 
L 697 0 
L 697 3053 
L 147 3053 
L 147 3500 
L 697 3500 
L 697 3744 
Q 697 4328 969 4595 
Q 1241 4863 1831 4863 
L 2375 4863 
z
" transform="scale(0.015625)"/>
     </defs>
     <use xlink:href="#DejaVuSans-53"/>
     <use xlink:href="#DejaVuSans-6f" transform="translate(63.476562 0)"/>
     <use xlink:href="#DejaVuSans-75" transform="translate(124.658203 0)"/>
     <use xlink:href="#DejaVuSans-74" transform="translate(188.037109 0)"/>
     <use xlink:href="#DejaVuSans-68" transform="translate(227.246094 0)"/>
     <use xlink:href="#DejaVuSans-77" transform="translate(290.625 0)"/>
     <use xlink:href="#DejaVuSans-61" transform="translate(372.412109 0)"/>
     <use xlink:href="#DejaVuSans-72" transform="translate(433.691406 0)"/>
     <use xlink:href="#DejaVuSans-64" transform="translate(473.054688 0)"/>
     <use xlink:href="#DejaVuSans-20" transform="translate(536.53125 0)"/>
     <use xlink:href="#DejaVuSans-77" transform="translate(568.318359 0)"/>
     <use xlink:href="#DejaVuSans-69" transform="translate(650.105469 0)"/>
     <use xlink:href="#DejaVuSans-6e" transform="translate(677.888672 0)"/>
     <use xlink:href="#DejaVuSans-64" transform="translate(741.267578 0)"/>
     <use xlink:href="#DejaVuSans-20" transform="translate(804.744141 0)"/>
     <use xlink:href="#DejaVuSans-73" transform="translate(836.53125 0)"/>
     <use xlink:href="#DejaVuSans-70" transform="translate(888.630859 0)"/>
     <use xlink:href="#DejaVuSans-65" transform="translate(952.107422 0)"/>
     <use xlink:href="#DejaVuSans-65" transform="translate(1013.630859 0)"/>
     <use xlink:href="#DejaVuSans-64" transform="translate(1075.154297 0)"/>
     <use xlink:href="#DejaVuSans-20" transform="translate(1138.630859 0)"/>
     <use xlink:href="#DejaVuSans-20" transform="translate(1170.417969 0)"/>
     <use xlink:href="#DejaVuSans-74" transform="translate(1202.205078 0)"/>
     <use xlink:href="#DejaVuSans-77" transform="translate(1241.414062 0)"/>
     <use xlink:href="#DejaVuSans-6f" transform="translate(1323.201172 0)"/>
     <use xlink:href="#DejaVuSans-20" transform="translate(1384.382812 0)"/>
     <use xlink:href="#DejaVuSans-73" transform="translate(1416.169922 0)"/>
     <use xlink:href="#DejaVuSans-74" transform="translate(1468.269531 0)"/>
     <use xlink:href="#DejaVuSans-65" transform="translate(1507.478516 0)"/>
     <use xlink:href="#DejaVuSans-70" transform="translate(1569.001953 0)"/>
     <use xlink:href="#DejaVuSans-73" transform="translate(1632.478516 0)"/>
     <use xlink:href="#DejaVuSans-20" transform="translate(1684.578125 0)"/>
     <use xlink:href="#DejaVuSans-66" transform="translate(1716.365234 0)"/>
     <use xlink:href="#DejaVuSans-6f" transform="translate(1751.570312 0)"/>
     <use xlink:href="#DejaVuSans-72" transform="translate(1812.751953 0)"/>
     <use xlink:href="#DejaVuSans-77" transform="translate(1853.865234 0)"/>
     <use xlink:href="#DejaVuSans-61" transform="translate(1935.652344 0)"/>
     <use xlink:href="#DejaVuSans-72" transform="translate(1996.931641 0)"/>
     <use xlink:href="#DejaVuSans-64" transform="translate(2036.294922 0)"/>
     <use xlink:href="#DejaVuSans-20" transform="translate(2099.771484 0)"/>
     <use xlink:href="#DejaVuSans-70" transform="translate(2131.558594 0)"/>
     <use xlink:href="#DejaVuSans-72" transform="translate(2195.035156 0)"/>
     <use xlink:href="#DejaVuSans-65" transform="translate(2233.898438 0)"/>
     <use xlink:href="#DejaVuSans-64" transform="translate(2295.421875 0)"/>
     <use xlink:href="#DejaVuSans-69" transform="translate(2358.898438 0)"/>
     <use xlink:href="#DejaVuSans-63" transform="translate(2386.681641 0)"/>
     <use xlink:href="#DejaVuSans-74" transform="translate(2441.662109 0)"/>
     <use xlink:href="#DejaVuSans-69" transform="translate(2480.871094 0)"/>
     <use xlink:href="#DejaVuSans-6f" transform="translate(2508.654297 0)"/>
     <use xlink:href="#DejaVuSans-6e" transform="translate(2569.835938 0)"/>
     <use xlink:href="#DejaVuSans-3a" transform="translate(2633.214844 0)"/>
     <use xlink:href="#DejaVuSans-20" transform="translate(2666.90625 0)"/>
     <use xlink:href="#DejaVuSans-52" transform="translate(2698.693359 0)"/>
     <use xlink:href="#DejaVuSans-4d" transform="translate(2768.175781 0)"/>
     <use xlink:href="#DejaVuSans-53" transform="translate(2854.455078 0)"/>
     <use xlink:href="#DejaVuSans-45" transform="translate(2917.931641 0)"/>
     <use xlink:href="#DejaVuSans-53" transform="translate(2981.115234 0)"/>
    </g>
   </g>
   <g id="legend_1">
    <g id="text_16">
     <!-- Forecast Horizon -->
     <g transform="translate(1020.26087 65.634687) scale(0.16 -0.16)">
      <defs>
       <path id="DejaVuSans-48" d="M 628 4666 
L 1259 4666 
L 1259 2753 
L 3553 2753 
L 3553 4666 
L 4184 4666 
L 4184 0 
L 3553 0 
L 3553 2222 
L 1259 2222 
L 1259 0 
L 628 0 
L 628 4666 
z
" transform="scale(0.015625)"/>
       <path id="DejaVuSans-7a" d="M 353 3500 
L 3084 3500 
L 3084 2975 
L 922 459 
L 3084 459 
L 3084 0 
L 275 0 
L 275 525 
L 2438 3041 
L 353 3041 
L 353 3500 
z
" transform="scale(0.015625)"/>
      </defs>
      <use xlink:href="#DejaVuSans-46"/>
      <use xlink:href="#DejaVuSans-6f" transform="translate(53.894531 0)"/>
      <use xlink:href="#DejaVuSans-72" transform="translate(115.076172 0)"/>
      <use xlink:href="#DejaVuSans-65" transform="translate(153.939453 0)"/>
      <use xlink:href="#DejaVuSans-63" transform="translate(215.462891 0)"/>
      <use xlink:href="#DejaVuSans-61" transform="translate(270.443359 0)"/>
      <use xlink:href="#DejaVuSans-73" transform="translate(331.722656 0)"/>
      <use xlink:href="#DejaVuSans-74" transform="translate(383.822266 0)"/>
      <use xlink:href="#DejaVuSans-20" transform="translate(423.03125 0)"/>
      <use xlink:href="#DejaVuSans-48" transform="translate(454.818359 0)"/>
      <use xlink:href="#DejaVuSans-6f" transform="translate(530.013672 0)"/>
      <use xlink:href="#DejaVuSans-72" transform="translate(591.195312 0)"/>
      <use xlink:href="#DejaVuSans-69" transform="translate(632.308594 0)"/>
      <use xlink:href="#DejaVuSans-7a" transform="translate(660.091797 0)"/>
      <use xlink:href="#DejaVuSans-6f" transform="translate(712.582031 0)"/>
      <use xlink:href="#DejaVuSans-6e" transform="translate(773.763672 0)"/>
     </g>
    </g>
    <g id="line2d_17">
     <path d="M 950.241027 81.7 
L 964.241027 81.7 
L 978.241027 81.7 
" style="fill: none; stroke: #0000ff; stroke-width: 2; stroke-linecap: square"/>
    </g>
    <g id="text_17">
     <!-- Global RMSE (6h Forecast) -->
     <g transform="translate(989.441027 86.6) scale(0.14 -0.14)">
      <defs>
       <path id="DejaVuSans-47" d="M 3809 666 
L 3809 1919 
L 2778 1919 
L 2778 2438 
L 4434 2438 
L 4434 434 
Q 4069 175 3628 42 
Q 3188 -91 2688 -91 
Q 1594 -91 976 548 
Q 359 1188 359 2328 
Q 359 3472 976 4111 
Q 1594 4750 2688 4750 
Q 3144 4750 3555 4637 
Q 3966 4525 4313 4306 
L 4313 3634 
Q 3963 3931 3569 4081 
Q 3175 4231 2741 4231 
Q 1884 4231 1454 3753 
Q 1025 3275 1025 2328 
Q 1025 1384 1454 906 
Q 1884 428 2741 428 
Q 3075 428 3337 486 
Q 3600 544 3809 666 
z
" transform="scale(0.015625)"/>
       <path id="DejaVuSans-6c" d="M 603 4863 
L 1178 4863 
L 1178 0 
L 603 0 
L 603 4863 
z
" transform="scale(0.015625)"/>
       <path id="DejaVuSans-62" d="M 3116 1747 
Q 3116 2381 2855 2742 
Q 2594 3103 2138 3103 
Q 1681 3103 1420 2742 
Q 1159 2381 1159 1747 
Q 1159 1113 1420 752 
Q 1681 391 2138 391 
Q 2594 391 2855 752 
Q 3116 1113 3116 1747 
z
M 1159 2969 
Q 1341 3281 1617 3432 
Q 1894 3584 2278 3584 
Q 2916 3584 3314 3078 
Q 3713 2572 3713 1747 
Q 3713 922 3314 415 
Q 2916 -91 2278 -91 
Q 1894 -91 1617 61 
Q 1341 213 1159 525 
L 1159 0 
L 581 0 
L 581 4863 
L 1159 4863 
L 1159 2969 
z
" transform="scale(0.015625)"/>
      </defs>
      <use xlink:href="#DejaVuSans-47"/>
      <use xlink:href="#DejaVuSans-6c" transform="translate(77.490234 0)"/>
      <use xlink:href="#DejaVuSans-6f" transform="translate(105.273438 0)"/>
      <use xlink:href="#DejaVuSans-62" transform="translate(166.455078 0)"/>
      <use xlink:href="#DejaVuSans-61" transform="translate(229.931641 0)"/>
      <use xlink:href="#DejaVuSans-6c" transform="translate(291.210938 0)"/>
      <use xlink:href="#DejaVuSans-20" transform="translate(318.994141 0)"/>
      <use xlink:href="#DejaVuSans-52" transform="translate(350.78125 0)"/>
      <use xlink:href="#DejaVuSans-4d" transform="translate(420.263672 0)"/>
      <use xlink:href="#DejaVuSans-53" transform="translate(506.542969 0)"/>
      <use xlink:href="#DejaVuSans-45" transform="translate(570.019531 0)"/>
      <use xlink:href="#DejaVuSans-20" transform="translate(633.203125 0)"/>
      <use xlink:href="#DejaVuSans-28" transform="translate(664.990234 0)"/>
      <use xlink:href="#DejaVuSans-36" transform="translate(704.003906 0)"/>
      <use xlink:href="#DejaVuSans-68" transform="translate(767.626953 0)"/>
      <use xlink:href="#DejaVuSans-20" transform="translate(831.005859 0)"/>
      <use xlink:href="#DejaVuSans-46" transform="translate(862.792969 0)"/>
      <use xlink:href="#DejaVuSans-6f" transform="translate(916.6875 0)"/>
      <use xlink:href="#DejaVuSans-72" transform="translate(977.869141 0)"/>
      <use xlink:href="#DejaVuSans-65" transform="translate(1016.732422 0)"/>
      <use xlink:href="#DejaVuSans-63" transform="translate(1078.255859 0)"/>
      <use xlink:href="#DejaVuSans-61" transform="translate(1133.236328 0)"/>
      <use xlink:href="#DejaVuSans-73" transform="translate(1194.515625 0)"/>
      <use xlink:href="#DejaVuSans-74" transform="translate(1246.615234 0)"/>
      <use xlink:href="#DejaVuSans-29" transform="translate(1285.824219 0)"/>
     </g>
    </g>
    <g id="line2d_18">
     <path d="M 950.241027 102.249375 
L 964.241027 102.249375 
L 978.241027 102.249375 
" style="fill: none; stroke: #ffa500; stroke-width: 2; stroke-linecap: square"/>
    </g>
    <g id="text_18">
     <!-- South Africa RMSE (6h Forecast) -->
     <g transform="translate(989.441027 107.149375) scale(0.14 -0.14)">
      <defs>
       <path id="DejaVuSans-41" d="M 2188 4044 
L 1331 1722 
L 3047 1722 
L 2188 4044 
z
M 1831 4666 
L 2547 4666 
L 4325 0 
L 3669 0 
L 3244 1197 
L 1141 1197 
L 716 0 
L 50 0 
L 1831 4666 
z
" transform="scale(0.015625)"/>
      </defs>
      <use xlink:href="#DejaVuSans-53"/>
      <use xlink:href="#DejaVuSans-6f" transform="translate(63.476562 0)"/>
      <use xlink:href="#DejaVuSans-75" transform="translate(124.658203 0)"/>
      <use xlink:href="#DejaVuSans-74" transform="translate(188.037109 0)"/>
      <use xlink:href="#DejaVuSans-68" transform="translate(227.246094 0)"/>
      <use xlink:href="#DejaVuSans-20" transform="translate(290.625 0)"/>
      <use xlink:href="#DejaVuSans-41" transform="translate(322.412109 0)"/>
      <use xlink:href="#DejaVuSans-66" transform="translate(387.195312 0)"/>
      <use xlink:href="#DejaVuSans-72" transform="translate(422.400391 0)"/>
      <use xlink:href="#DejaVuSans-69" transform="translate(463.513672 0)"/>
      <use xlink:href="#DejaVuSans-63" transform="translate(491.296875 0)"/>
      <use xlink:href="#DejaVuSans-61" transform="translate(546.277344 0)"/>
      <use xlink:href="#DejaVuSans-20" transform="translate(607.556641 0)"/>
      <use xlink:href="#DejaVuSans-52" transform="translate(639.34375 0)"/>
      <use xlink:href="#DejaVuSans-4d" transform="translate(708.826172 0)"/>
      <use xlink:href="#DejaVuSans-53" transform="translate(795.105469 0)"/>
      <use xlink:href="#DejaVuSans-45" transform="translate(858.582031 0)"/>
      <use xlink:href="#DejaVuSans-20" transform="translate(921.765625 0)"/>
      <use xlink:href="#DejaVuSans-28" transform="translate(953.552734 0)"/>
      <use xlink:href="#DejaVuSans-36" transform="translate(992.566406 0)"/>
      <use xlink:href="#DejaVuSans-68" transform="translate(1056.189453 0)"/>
      <use xlink:href="#DejaVuSans-20" transform="translate(1119.568359 0)"/>
      <use xlink:href="#DejaVuSans-46" transform="translate(1151.355469 0)"/>
      <use xlink:href="#DejaVuSans-6f" transform="translate(1205.25 0)"/>
      <use xlink:href="#DejaVuSans-72" transform="translate(1266.431641 0)"/>
      <use xlink:href="#DejaVuSans-65" transform="translate(1305.294922 0)"/>
      <use xlink:href="#DejaVuSans-63" transform="translate(1366.818359 0)"/>
      <use xlink:href="#DejaVuSans-61" transform="translate(1421.798828 0)"/>
      <use xlink:href="#DejaVuSans-73" transform="translate(1483.078125 0)"/>
      <use xlink:href="#DejaVuSans-74" transform="translate(1535.177734 0)"/>
      <use xlink:href="#DejaVuSans-29" transform="translate(1574.386719 0)"/>
     </g>
    </g>
    <g id="line2d_19">
     <path d="M 950.241027 122.79875 
L 964.241027 122.79875 
L 978.241027 122.79875 
" style="fill: none; stroke-dasharray: 7.4,3.2; stroke-dashoffset: 0; stroke: #0000ff; stroke-width: 2"/>
    </g>
    <g id="text_19">
     <!-- Global RMSE (12h Forecast) -->
     <g transform="translate(989.441027 127.69875) scale(0.14 -0.14)">
      <use xlink:href="#DejaVuSans-47"/>
      <use xlink:href="#DejaVuSans-6c" transform="translate(77.490234 0)"/>
      <use xlink:href="#DejaVuSans-6f" transform="translate(105.273438 0)"/>
      <use xlink:href="#DejaVuSans-62" transform="translate(166.455078 0)"/>
      <use xlink:href="#DejaVuSans-61" transform="translate(229.931641 0)"/>
      <use xlink:href="#DejaVuSans-6c" transform="translate(291.210938 0)"/>
      <use xlink:href="#DejaVuSans-20" transform="translate(318.994141 0)"/>
      <use xlink:href="#DejaVuSans-52" transform="translate(350.78125 0)"/>
      <use xlink:href="#DejaVuSans-4d" transform="translate(420.263672 0)"/>
      <use xlink:href="#DejaVuSans-53" transform="translate(506.542969 0)"/>
      <use xlink:href="#DejaVuSans-45" transform="translate(570.019531 0)"/>
      <use xlink:href="#DejaVuSans-20" transform="translate(633.203125 0)"/>
      <use xlink:href="#DejaVuSans-28" transform="translate(664.990234 0)"/>
      <use xlink:href="#DejaVuSans-31" transform="translate(704.003906 0)"/>
      <use xlink:href="#DejaVuSans-32" transform="translate(767.626953 0)"/>
      <use xlink:href="#DejaVuSans-68" transform="translate(831.25 0)"/>
      <use xlink:href="#DejaVuSans-20" transform="translate(894.628906 0)"/>
      <use xlink:href="#DejaVuSans-46" transform="translate(926.416016 0)"/>
      <use xlink:href="#DejaVuSans-6f" transform="translate(980.310547 0)"/>
      <use xlink:href="#DejaVuSans-72" transform="translate(1041.492188 0)"/>
      <use xlink:href="#DejaVuSans-65" transform="translate(1080.355469 0)"/>
      <use xlink:href="#DejaVuSans-63" transform="translate(1141.878906 0)"/>
      <use xlink:href="#DejaVuSans-61" transform="translate(1196.859375 0)"/>
      <use xlink:href="#DejaVuSans-73" transform="translate(1258.138672 0)"/>
      <use xlink:href="#DejaVuSans-74" transform="translate(1310.238281 0)"/>
      <use xlink:href="#DejaVuSans-29" transform="translate(1349.447266 0)"/>
     </g>
    </g>
    <g id="line2d_20">
     <path d="M 950.241027 143.348125 
L 964.241027 143.348125 
L 978.241027 143.348125 
" style="fill: none; stroke-dasharray: 7.4,3.2; stroke-dashoffset: 0; stroke: #ffa500; stroke-width: 2"/>
    </g>
    <g id="text_20">
     <!-- South Africa RMSE (12h Forecast) -->
     <g transform="translate(989.441027 148.248125) scale(0.14 -0.14)">
      <use xlink:href="#DejaVuSans-53"/>
      <use xlink:href="#DejaVuSans-6f" transform="translate(63.476562 0)"/>
      <use xlink:href="#DejaVuSans-75" transform="translate(124.658203 0)"/>
      <use xlink:href="#DejaVuSans-74" transform="translate(188.037109 0)"/>
      <use xlink:href="#DejaVuSans-68" transform="translate(227.246094 0)"/>
      <use xlink:href="#DejaVuSans-20" transform="translate(290.625 0)"/>
      <use xlink:href="#DejaVuSans-41" transform="translate(322.412109 0)"/>
      <use xlink:href="#DejaVuSans-66" transform="translate(387.195312 0)"/>
      <use xlink:href="#DejaVuSans-72" transform="translate(422.400391 0)"/>
      <use xlink:href="#DejaVuSans-69" transform="translate(463.513672 0)"/>
      <use xlink:href="#DejaVuSans-63" transform="translate(491.296875 0)"/>
      <use xlink:href="#DejaVuSans-61" transform="translate(546.277344 0)"/>
      <use xlink:href="#DejaVuSans-20" transform="translate(607.556641 0)"/>
      <use xlink:href="#DejaVuSans-52" transform="translate(639.34375 0)"/>
      <use xlink:href="#DejaVuSans-4d" transform="translate(708.826172 0)"/>
      <use xlink:href="#DejaVuSans-53" transform="translate(795.105469 0)"/>
      <use xlink:href="#DejaVuSans-45" transform="translate(858.582031 0)"/>
      <use xlink:href="#DejaVuSans-20" transform="translate(921.765625 0)"/>
      <use xlink:href="#DejaVuSans-28" transform="translate(953.552734 0)"/>
      <use xlink:href="#DejaVuSans-31" transform="translate(992.566406 0)"/>
      <use xlink:href="#DejaVuSans-32" transform="translate(1056.189453 0)"/>
      <use xlink:href="#DejaVuSans-68" transform="translate(1119.8125 0)"/>
      <use xlink:href="#DejaVuSans-20" transform="translate(1183.191406 0)"/>
      <use xlink:href="#DejaVuSans-46" transform="translate(1214.978516 0)"/>
      <use xlink:href="#DejaVuSans-6f" transform="translate(1268.873047 0)"/>
      <use xlink:href="#DejaVuSans-72" transform="translate(1330.054688 0)"/>
      <use xlink:href="#DejaVuSans-65" transform="translate(1368.917969 0)"/>
      <use xlink:href="#DejaVuSans-63" transform="translate(1430.441406 0)"/>
      <use xlink:href="#DejaVuSans-61" transform="translate(1485.421875 0)"/>
      <use xlink:href="#DejaVuSans-73" transform="translate(1546.701172 0)"/>
      <use xlink:href="#DejaVuSans-74" transform="translate(1598.800781 0)"/>
      <use xlink:href="#DejaVuSans-29" transform="translate(1638.009766 0)"/>
     </g>
    </g>
   </g>
  </g>
 </g>
 <defs>
  <clipPath id="pfc13bb8647">
   <rect x="58.791027" y="40.877187" width="837" height="443.52"/>
  </clipPath>
 </defs>
</svg>
