<?xml version="1.0" encoding="utf-8" standalone="no"?>
<!DOCTYPE svg PUBLIC "-//W3C//DTD SVG 1.1//EN"
  "http://www.w3.org/Graphics/SVG/1.1/DTD/svg11.dtd">
<svg xmlns:xlink="http://www.w3.org/1999/xlink" width="1237.023214pt" height="575.421502pt" viewBox="0 0 1237.023214 575.421502" xmlns="http://www.w3.org/2000/svg" version="1.1">
 <metadata>
  <rdf:RDF xmlns:dc="http://purl.org/dc/elements/1.1/" xmlns:cc="http://creativecommons.org/ns#" xmlns:rdf="http://www.w3.org/1999/02/22-rdf-syntax-ns#">
   <cc:Work>
    <dc:type rdf:resource="http://purl.org/dc/dcmitype/StillImage"/>
    <dc:date>2025-02-18T10:32:22.578170</dc:date>
    <dc:format>image/svg+xml</dc:format>
    <dc:creator>
     <cc:Agent>
      <dc:title>Matplotlib v3.10.0, https://matplotlib.org/</dc:title>
     </cc:Agent>
    </dc:creator>
   </cc:Work>
  </rdf:RDF>
 </metadata>
 <defs>
  <style type="text/css">*{stroke-linejoin: round; stroke-linecap: butt}</style>
 </defs>
 <g id="figure_1">
  <g id="patch_1">
   <path d="M 0 575.421502 
L 1237.023214 575.421502 
L 1237.023214 0 
L 0 0 
z
" style="fill: #ffffff"/>
  </g>
  <g id="axes_1">
   <g id="patch_2">
    <path d="M 58.791027 484.397187 
L 895.791027 484.397187 
L 895.791027 40.877187 
L 58.791027 40.877187 
z
" style="fill: #ffffff"/>
   </g>
   <g id="matplotlib.axis_1">
    <g id="xtick_1">
     <g id="line2d_1">
      <defs>
       <path id="m62ba4ca9fd" d="M 0 0 
L 0 3.5 
" style="stroke: #000000; stroke-width: 0.8"/>
      </defs>
      <g>
       <use xlink:href="#m62ba4ca9fd" x="96.836481" y="484.397187" style="stroke: #000000; stroke-width: 0.8"/>
      </g>
     </g>
     <g id="text_1">
      <!-- 2022-01-01 (12:00) -->
      <g transform="translate(10.999219 546.93544) rotate(-30) scale(0.1 -0.1)">
       <defs>
        <path id="DejaVuSans-32" d="M 1228 531 
L 3431 531 
L 3431 0 
L 469 0 
L 469 531 
Q 828 903 1448 1529 
Q 2069 2156 2228 2338 
Q 2531 2678 2651 2914 
Q 2772 3150 2772 3378 
Q 2772 3750 2511 3984 
Q 2250 4219 1831 4219 
Q 1534 4219 1204 4116 
Q 875 4013 500 3803 
L 500 4441 
Q 881 4594 1212 4672 
Q 1544 4750 1819 4750 
Q 2544 4750 2975 4387 
Q 3406 4025 3406 3419 
Q 3406 3131 3298 2873 
Q 3191 2616 2906 2266 
Q 2828 2175 2409 1742 
Q 1991 1309 1228 531 
z
" transform="scale(0.015625)"/>
        <path id="DejaVuSans-30" d="M 2034 4250 
Q 1547 4250 1301 3770 
Q 1056 3291 1056 2328 
Q 1056 1369 1301 889 
Q 1547 409 2034 409 
Q 2525 409 2770 889 
Q 3016 1369 3016 2328 
Q 3016 3291 2770 3770 
Q 2525 4250 2034 4250 
z
M 2034 4750 
Q 2819 4750 3233 4129 
Q 3647 3509 3647 2328 
Q 3647 1150 3233 529 
Q 2819 -91 2034 -91 
Q 1250 -91 836 529 
Q 422 1150 422 2328 
Q 422 3509 836 4129 
Q 1250 4750 2034 4750 
z
" transform="scale(0.015625)"/>
        <path id="DejaVuSans-2d" d="M 313 2009 
L 1997 2009 
L 1997 1497 
L 313 1497 
L 313 2009 
z
" transform="scale(0.015625)"/>
        <path id="DejaVuSans-31" d="M 794 531 
L 1825 531 
L 1825 4091 
L 703 3866 
L 703 4441 
L 1819 4666 
L 2450 4666 
L 2450 531 
L 3481 531 
L 3481 0 
L 794 0 
L 794 531 
z
" transform="scale(0.015625)"/>
        <path id="DejaVuSans-20" transform="scale(0.015625)"/>
        <path id="DejaVuSans-28" d="M 1984 4856 
Q 1566 4138 1362 3434 
Q 1159 2731 1159 2009 
Q 1159 1288 1364 580 
Q 1569 -128 1984 -844 
L 1484 -844 
Q 1016 -109 783 600 
Q 550 1309 550 2009 
Q 550 2706 781 3412 
Q 1013 4119 1484 4856 
L 1984 4856 
z
" transform="scale(0.015625)"/>
        <path id="DejaVuSans-3a" d="M 750 794 
L 1409 794 
L 1409 0 
L 750 0 
L 750 794 
z
M 750 3309 
L 1409 3309 
L 1409 2516 
L 750 2516 
L 750 3309 
z
" transform="scale(0.015625)"/>
        <path id="DejaVuSans-29" d="M 513 4856 
L 1013 4856 
Q 1481 4119 1714 3412 
Q 1947 2706 1947 2009 
Q 1947 1309 1714 600 
Q 1481 -109 1013 -844 
L 513 -844 
Q 928 -128 1133 580 
Q 1338 1288 1338 2009 
Q 1338 2731 1133 3434 
Q 928 4138 513 4856 
z
" transform="scale(0.015625)"/>
       </defs>
       <use xlink:href="#DejaVuSans-32"/>
       <use xlink:href="#DejaVuSans-30" transform="translate(63.623047 0)"/>
       <use xlink:href="#DejaVuSans-32" transform="translate(127.246094 0)"/>
       <use xlink:href="#DejaVuSans-32" transform="translate(190.869141 0)"/>
       <use xlink:href="#DejaVuSans-2d" transform="translate(254.492188 0)"/>
       <use xlink:href="#DejaVuSans-30" transform="translate(290.576172 0)"/>
       <use xlink:href="#DejaVuSans-31" transform="translate(354.199219 0)"/>
       <use xlink:href="#DejaVuSans-2d" transform="translate(417.822266 0)"/>
       <use xlink:href="#DejaVuSans-30" transform="translate(453.90625 0)"/>
       <use xlink:href="#DejaVuSans-31" transform="translate(517.529297 0)"/>
       <use xlink:href="#DejaVuSans-20" transform="translate(581.152344 0)"/>
       <use xlink:href="#DejaVuSans-28" transform="translate(612.939453 0)"/>
       <use xlink:href="#DejaVuSans-31" transform="translate(651.953125 0)"/>
       <use xlink:href="#DejaVuSans-32" transform="translate(715.576172 0)"/>
       <use xlink:href="#DejaVuSans-3a" transform="translate(779.199219 0)"/>
       <use xlink:href="#DejaVuSans-30" transform="translate(812.890625 0)"/>
       <use xlink:href="#DejaVuSans-30" transform="translate(876.513672 0)"/>
       <use xlink:href="#DejaVuSans-29" transform="translate(940.136719 0)"/>
      </g>
     </g>
    </g>
    <g id="xtick_2">
     <g id="line2d_2">
      <g>
       <use xlink:href="#m62ba4ca9fd" x="246.573612" y="484.397187" style="stroke: #000000; stroke-width: 0.8"/>
      </g>
     </g>
     <g id="text_2">
      <!-- 2022-03-16 (00:00) -->
      <g transform="translate(160.736349 546.93544) rotate(-30) scale(0.1 -0.1)">
       <defs>
        <path id="DejaVuSans-33" d="M 2597 2516 
Q 3050 2419 3304 2112 
Q 3559 1806 3559 1356 
Q 3559 666 3084 287 
Q 2609 -91 1734 -91 
Q 1441 -91 1130 -33 
Q 819 25 488 141 
L 488 750 
Q 750 597 1062 519 
Q 1375 441 1716 441 
Q 2309 441 2620 675 
Q 2931 909 2931 1356 
Q 2931 1769 2642 2001 
Q 2353 2234 1838 2234 
L 1294 2234 
L 1294 2753 
L 1863 2753 
Q 2328 2753 2575 2939 
Q 2822 3125 2822 3475 
Q 2822 3834 2567 4026 
Q 2313 4219 1838 4219 
Q 1578 4219 1281 4162 
Q 984 4106 628 3988 
L 628 4550 
Q 988 4650 1302 4700 
Q 1616 4750 1894 4750 
Q 2613 4750 3031 4423 
Q 3450 4097 3450 3541 
Q 3450 3153 3228 2886 
Q 3006 2619 2597 2516 
z
" transform="scale(0.015625)"/>
        <path id="DejaVuSans-36" d="M 2113 2584 
Q 1688 2584 1439 2293 
Q 1191 2003 1191 1497 
Q 1191 994 1439 701 
Q 1688 409 2113 409 
Q 2538 409 2786 701 
Q 3034 994 3034 1497 
Q 3034 2003 2786 2293 
Q 2538 2584 2113 2584 
z
M 3366 4563 
L 3366 3988 
Q 3128 4100 2886 4159 
Q 2644 4219 2406 4219 
Q 1781 4219 1451 3797 
Q 1122 3375 1075 2522 
Q 1259 2794 1537 2939 
Q 1816 3084 2150 3084 
Q 2853 3084 3261 2657 
Q 3669 2231 3669 1497 
Q 3669 778 3244 343 
Q 2819 -91 2113 -91 
Q 1303 -91 875 529 
Q 447 1150 447 2328 
Q 447 3434 972 4092 
Q 1497 4750 2381 4750 
Q 2619 4750 2861 4703 
Q 3103 4656 3366 4563 
z
" transform="scale(0.015625)"/>
       </defs>
       <use xlink:href="#DejaVuSans-32"/>
       <use xlink:href="#DejaVuSans-30" transform="translate(63.623047 0)"/>
       <use xlink:href="#DejaVuSans-32" transform="translate(127.246094 0)"/>
       <use xlink:href="#DejaVuSans-32" transform="translate(190.869141 0)"/>
       <use xlink:href="#DejaVuSans-2d" transform="translate(254.492188 0)"/>
       <use xlink:href="#DejaVuSans-30" transform="translate(290.576172 0)"/>
       <use xlink:href="#DejaVuSans-33" transform="translate(354.199219 0)"/>
       <use xlink:href="#DejaVuSans-2d" transform="translate(417.822266 0)"/>
       <use xlink:href="#DejaVuSans-31" transform="translate(453.90625 0)"/>
       <use xlink:href="#DejaVuSans-36" transform="translate(517.529297 0)"/>
       <use xlink:href="#DejaVuSans-20" transform="translate(581.152344 0)"/>
       <use xlink:href="#DejaVuSans-28" transform="translate(612.939453 0)"/>
       <use xlink:href="#DejaVuSans-30" transform="translate(651.953125 0)"/>
       <use xlink:href="#DejaVuSans-30" transform="translate(715.576172 0)"/>
       <use xlink:href="#DejaVuSans-3a" transform="translate(779.199219 0)"/>
       <use xlink:href="#DejaVuSans-30" transform="translate(812.890625 0)"/>
       <use xlink:href="#DejaVuSans-30" transform="translate(876.513672 0)"/>
       <use xlink:href="#DejaVuSans-29" transform="translate(940.136719 0)"/>
      </g>
     </g>
    </g>
    <g id="xtick_3">
     <g id="line2d_3">
      <g>
       <use xlink:href="#m62ba4ca9fd" x="399.366602" y="484.397187" style="stroke: #000000; stroke-width: 0.8"/>
      </g>
     </g>
     <g id="text_3">
      <!-- 2022-05-30 (00:00) -->
      <g transform="translate(313.529339 546.93544) rotate(-30) scale(0.1 -0.1)">
       <defs>
        <path id="DejaVuSans-35" d="M 691 4666 
L 3169 4666 
L 3169 4134 
L 1269 4134 
L 1269 2991 
Q 1406 3038 1543 3061 
Q 1681 3084 1819 3084 
Q 2600 3084 3056 2656 
Q 3513 2228 3513 1497 
Q 3513 744 3044 326 
Q 2575 -91 1722 -91 
Q 1428 -91 1123 -41 
Q 819 9 494 109 
L 494 744 
Q 775 591 1075 516 
Q 1375 441 1709 441 
Q 2250 441 2565 725 
Q 2881 1009 2881 1497 
Q 2881 1984 2565 2268 
Q 2250 2553 1709 2553 
Q 1456 2553 1204 2497 
Q 953 2441 691 2322 
L 691 4666 
z
" transform="scale(0.015625)"/>
       </defs>
       <use xlink:href="#DejaVuSans-32"/>
       <use xlink:href="#DejaVuSans-30" transform="translate(63.623047 0)"/>
       <use xlink:href="#DejaVuSans-32" transform="translate(127.246094 0)"/>
       <use xlink:href="#DejaVuSans-32" transform="translate(190.869141 0)"/>
       <use xlink:href="#DejaVuSans-2d" transform="translate(254.492188 0)"/>
       <use xlink:href="#DejaVuSans-30" transform="translate(290.576172 0)"/>
       <use xlink:href="#DejaVuSans-35" transform="translate(354.199219 0)"/>
       <use xlink:href="#DejaVuSans-2d" transform="translate(417.822266 0)"/>
       <use xlink:href="#DejaVuSans-33" transform="translate(453.90625 0)"/>
       <use xlink:href="#DejaVuSans-30" transform="translate(517.529297 0)"/>
       <use xlink:href="#DejaVuSans-20" transform="translate(581.152344 0)"/>
       <use xlink:href="#DejaVuSans-28" transform="translate(612.939453 0)"/>
       <use xlink:href="#DejaVuSans-30" transform="translate(651.953125 0)"/>
       <use xlink:href="#DejaVuSans-30" transform="translate(715.576172 0)"/>
       <use xlink:href="#DejaVuSans-3a" transform="translate(779.199219 0)"/>
       <use xlink:href="#DejaVuSans-30" transform="translate(812.890625 0)"/>
       <use xlink:href="#DejaVuSans-30" transform="translate(876.513672 0)"/>
       <use xlink:href="#DejaVuSans-29" transform="translate(940.136719 0)"/>
      </g>
     </g>
    </g>
    <g id="xtick_4">
     <g id="line2d_4">
      <g>
       <use xlink:href="#m62ba4ca9fd" x="552.159592" y="484.397187" style="stroke: #000000; stroke-width: 0.8"/>
      </g>
     </g>
     <g id="text_4">
      <!-- 2022-08-13 (00:00) -->
      <g transform="translate(466.322329 546.93544) rotate(-30) scale(0.1 -0.1)">
       <defs>
        <path id="DejaVuSans-38" d="M 2034 2216 
Q 1584 2216 1326 1975 
Q 1069 1734 1069 1313 
Q 1069 891 1326 650 
Q 1584 409 2034 409 
Q 2484 409 2743 651 
Q 3003 894 3003 1313 
Q 3003 1734 2745 1975 
Q 2488 2216 2034 2216 
z
M 1403 2484 
Q 997 2584 770 2862 
Q 544 3141 544 3541 
Q 544 4100 942 4425 
Q 1341 4750 2034 4750 
Q 2731 4750 3128 4425 
Q 3525 4100 3525 3541 
Q 3525 3141 3298 2862 
Q 3072 2584 2669 2484 
Q 3125 2378 3379 2068 
Q 3634 1759 3634 1313 
Q 3634 634 3220 271 
Q 2806 -91 2034 -91 
Q 1263 -91 848 271 
Q 434 634 434 1313 
Q 434 1759 690 2068 
Q 947 2378 1403 2484 
z
M 1172 3481 
Q 1172 3119 1398 2916 
Q 1625 2713 2034 2713 
Q 2441 2713 2670 2916 
Q 2900 3119 2900 3481 
Q 2900 3844 2670 4047 
Q 2441 4250 2034 4250 
Q 1625 4250 1398 4047 
Q 1172 3844 1172 3481 
z
" transform="scale(0.015625)"/>
       </defs>
       <use xlink:href="#DejaVuSans-32"/>
       <use xlink:href="#DejaVuSans-30" transform="translate(63.623047 0)"/>
       <use xlink:href="#DejaVuSans-32" transform="translate(127.246094 0)"/>
       <use xlink:href="#DejaVuSans-32" transform="translate(190.869141 0)"/>
       <use xlink:href="#DejaVuSans-2d" transform="translate(254.492188 0)"/>
       <use xlink:href="#DejaVuSans-30" transform="translate(290.576172 0)"/>
       <use xlink:href="#DejaVuSans-38" transform="translate(354.199219 0)"/>
       <use xlink:href="#DejaVuSans-2d" transform="translate(417.822266 0)"/>
       <use xlink:href="#DejaVuSans-31" transform="translate(453.90625 0)"/>
       <use xlink:href="#DejaVuSans-33" transform="translate(517.529297 0)"/>
       <use xlink:href="#DejaVuSans-20" transform="translate(581.152344 0)"/>
       <use xlink:href="#DejaVuSans-28" transform="translate(612.939453 0)"/>
       <use xlink:href="#DejaVuSans-30" transform="translate(651.953125 0)"/>
       <use xlink:href="#DejaVuSans-30" transform="translate(715.576172 0)"/>
       <use xlink:href="#DejaVuSans-3a" transform="translate(779.199219 0)"/>
       <use xlink:href="#DejaVuSans-30" transform="translate(812.890625 0)"/>
       <use xlink:href="#DejaVuSans-30" transform="translate(876.513672 0)"/>
       <use xlink:href="#DejaVuSans-29" transform="translate(940.136719 0)"/>
      </g>
     </g>
    </g>
    <g id="xtick_5">
     <g id="line2d_5">
      <g>
       <use xlink:href="#m62ba4ca9fd" x="704.952582" y="484.397187" style="stroke: #000000; stroke-width: 0.8"/>
      </g>
     </g>
     <g id="text_5">
      <!-- 2022-10-27 (00:00) -->
      <g transform="translate(619.11532 546.93544) rotate(-30) scale(0.1 -0.1)">
       <defs>
        <path id="DejaVuSans-37" d="M 525 4666 
L 3525 4666 
L 3525 4397 
L 1831 0 
L 1172 0 
L 2766 4134 
L 525 4134 
L 525 4666 
z
" transform="scale(0.015625)"/>
       </defs>
       <use xlink:href="#DejaVuSans-32"/>
       <use xlink:href="#DejaVuSans-30" transform="translate(63.623047 0)"/>
       <use xlink:href="#DejaVuSans-32" transform="translate(127.246094 0)"/>
       <use xlink:href="#DejaVuSans-32" transform="translate(190.869141 0)"/>
       <use xlink:href="#DejaVuSans-2d" transform="translate(254.492188 0)"/>
       <use xlink:href="#DejaVuSans-31" transform="translate(290.576172 0)"/>
       <use xlink:href="#DejaVuSans-30" transform="translate(354.199219 0)"/>
       <use xlink:href="#DejaVuSans-2d" transform="translate(417.822266 0)"/>
       <use xlink:href="#DejaVuSans-32" transform="translate(453.90625 0)"/>
       <use xlink:href="#DejaVuSans-37" transform="translate(517.529297 0)"/>
       <use xlink:href="#DejaVuSans-20" transform="translate(581.152344 0)"/>
       <use xlink:href="#DejaVuSans-28" transform="translate(612.939453 0)"/>
       <use xlink:href="#DejaVuSans-30" transform="translate(651.953125 0)"/>
       <use xlink:href="#DejaVuSans-30" transform="translate(715.576172 0)"/>
       <use xlink:href="#DejaVuSans-3a" transform="translate(779.199219 0)"/>
       <use xlink:href="#DejaVuSans-30" transform="translate(812.890625 0)"/>
       <use xlink:href="#DejaVuSans-30" transform="translate(876.513672 0)"/>
       <use xlink:href="#DejaVuSans-29" transform="translate(940.136719 0)"/>
      </g>
     </g>
    </g>
    <g id="xtick_6">
     <g id="line2d_6">
      <g>
       <use xlink:href="#m62ba4ca9fd" x="857.745572" y="484.397187" style="stroke: #000000; stroke-width: 0.8"/>
      </g>
     </g>
     <g id="text_6">
      <!-- 2023-01-10 (00:00) -->
      <g transform="translate(771.90831 546.93544) rotate(-30) scale(0.1 -0.1)">
       <use xlink:href="#DejaVuSans-32"/>
       <use xlink:href="#DejaVuSans-30" transform="translate(63.623047 0)"/>
       <use xlink:href="#DejaVuSans-32" transform="translate(127.246094 0)"/>
       <use xlink:href="#DejaVuSans-33" transform="translate(190.869141 0)"/>
       <use xlink:href="#DejaVuSans-2d" transform="translate(254.492188 0)"/>
       <use xlink:href="#DejaVuSans-30" transform="translate(290.576172 0)"/>
       <use xlink:href="#DejaVuSans-31" transform="translate(354.199219 0)"/>
       <use xlink:href="#DejaVuSans-2d" transform="translate(417.822266 0)"/>
       <use xlink:href="#DejaVuSans-31" transform="translate(453.90625 0)"/>
       <use xlink:href="#DejaVuSans-30" transform="translate(517.529297 0)"/>
       <use xlink:href="#DejaVuSans-20" transform="translate(581.152344 0)"/>
       <use xlink:href="#DejaVuSans-28" transform="translate(612.939453 0)"/>
       <use xlink:href="#DejaVuSans-30" transform="translate(651.953125 0)"/>
       <use xlink:href="#DejaVuSans-30" transform="translate(715.576172 0)"/>
       <use xlink:href="#DejaVuSans-3a" transform="translate(779.199219 0)"/>
       <use xlink:href="#DejaVuSans-30" transform="translate(812.890625 0)"/>
       <use xlink:href="#DejaVuSans-30" transform="translate(876.513672 0)"/>
       <use xlink:href="#DejaVuSans-29" transform="translate(940.136719 0)"/>
      </g>
     </g>
    </g>
    <g id="text_7">
     <!-- Forecast Date -->
     <g transform="translate(421.784777 564.894002) scale(0.16 -0.16)">
      <defs>
       <path id="DejaVuSans-46" d="M 628 4666 
L 3309 4666 
L 3309 4134 
L 1259 4134 
L 1259 2759 
L 3109 2759 
L 3109 2228 
L 1259 2228 
L 1259 0 
L 628 0 
L 628 4666 
z
" transform="scale(0.015625)"/>
       <path id="DejaVuSans-6f" d="M 1959 3097 
Q 1497 3097 1228 2736 
Q 959 2375 959 1747 
Q 959 1119 1226 758 
Q 1494 397 1959 397 
Q 2419 397 2687 759 
Q 2956 1122 2956 1747 
Q 2956 2369 2687 2733 
Q 2419 3097 1959 3097 
z
M 1959 3584 
Q 2709 3584 3137 3096 
Q 3566 2609 3566 1747 
Q 3566 888 3137 398 
Q 2709 -91 1959 -91 
Q 1206 -91 779 398 
Q 353 888 353 1747 
Q 353 2609 779 3096 
Q 1206 3584 1959 3584 
z
" transform="scale(0.015625)"/>
       <path id="DejaVuSans-72" d="M 2631 2963 
Q 2534 3019 2420 3045 
Q 2306 3072 2169 3072 
Q 1681 3072 1420 2755 
Q 1159 2438 1159 1844 
L 1159 0 
L 581 0 
L 581 3500 
L 1159 3500 
L 1159 2956 
Q 1341 3275 1631 3429 
Q 1922 3584 2338 3584 
Q 2397 3584 2469 3576 
Q 2541 3569 2628 3553 
L 2631 2963 
z
" transform="scale(0.015625)"/>
       <path id="DejaVuSans-65" d="M 3597 1894 
L 3597 1613 
L 953 1613 
Q 991 1019 1311 708 
Q 1631 397 2203 397 
Q 2534 397 2845 478 
Q 3156 559 3463 722 
L 3463 178 
Q 3153 47 2828 -22 
Q 2503 -91 2169 -91 
Q 1331 -91 842 396 
Q 353 884 353 1716 
Q 353 2575 817 3079 
Q 1281 3584 2069 3584 
Q 2775 3584 3186 3129 
Q 3597 2675 3597 1894 
z
M 3022 2063 
Q 3016 2534 2758 2815 
Q 2500 3097 2075 3097 
Q 1594 3097 1305 2825 
Q 1016 2553 972 2059 
L 3022 2063 
z
" transform="scale(0.015625)"/>
       <path id="DejaVuSans-63" d="M 3122 3366 
L 3122 2828 
Q 2878 2963 2633 3030 
Q 2388 3097 2138 3097 
Q 1578 3097 1268 2742 
Q 959 2388 959 1747 
Q 959 1106 1268 751 
Q 1578 397 2138 397 
Q 2388 397 2633 464 
Q 2878 531 3122 666 
L 3122 134 
Q 2881 22 2623 -34 
Q 2366 -91 2075 -91 
Q 1284 -91 818 406 
Q 353 903 353 1747 
Q 353 2603 823 3093 
Q 1294 3584 2113 3584 
Q 2378 3584 2631 3529 
Q 2884 3475 3122 3366 
z
" transform="scale(0.015625)"/>
       <path id="DejaVuSans-61" d="M 2194 1759 
Q 1497 1759 1228 1600 
Q 959 1441 959 1056 
Q 959 750 1161 570 
Q 1363 391 1709 391 
Q 2188 391 2477 730 
Q 2766 1069 2766 1631 
L 2766 1759 
L 2194 1759 
z
M 3341 1997 
L 3341 0 
L 2766 0 
L 2766 531 
Q 2569 213 2275 61 
Q 1981 -91 1556 -91 
Q 1019 -91 701 211 
Q 384 513 384 1019 
Q 384 1609 779 1909 
Q 1175 2209 1959 2209 
L 2766 2209 
L 2766 2266 
Q 2766 2663 2505 2880 
Q 2244 3097 1772 3097 
Q 1472 3097 1187 3025 
Q 903 2953 641 2809 
L 641 3341 
Q 956 3463 1253 3523 
Q 1550 3584 1831 3584 
Q 2591 3584 2966 3190 
Q 3341 2797 3341 1997 
z
" transform="scale(0.015625)"/>
       <path id="DejaVuSans-73" d="M 2834 3397 
L 2834 2853 
Q 2591 2978 2328 3040 
Q 2066 3103 1784 3103 
Q 1356 3103 1142 2972 
Q 928 2841 928 2578 
Q 928 2378 1081 2264 
Q 1234 2150 1697 2047 
L 1894 2003 
Q 2506 1872 2764 1633 
Q 3022 1394 3022 966 
Q 3022 478 2636 193 
Q 2250 -91 1575 -91 
Q 1294 -91 989 -36 
Q 684 19 347 128 
L 347 722 
Q 666 556 975 473 
Q 1284 391 1588 391 
Q 1994 391 2212 530 
Q 2431 669 2431 922 
Q 2431 1156 2273 1281 
Q 2116 1406 1581 1522 
L 1381 1569 
Q 847 1681 609 1914 
Q 372 2147 372 2553 
Q 372 3047 722 3315 
Q 1072 3584 1716 3584 
Q 2034 3584 2315 3537 
Q 2597 3491 2834 3397 
z
" transform="scale(0.015625)"/>
       <path id="DejaVuSans-74" d="M 1172 4494 
L 1172 3500 
L 2356 3500 
L 2356 3053 
L 1172 3053 
L 1172 1153 
Q 1172 725 1289 603 
Q 1406 481 1766 481 
L 2356 481 
L 2356 0 
L 1766 0 
Q 1100 0 847 248 
Q 594 497 594 1153 
L 594 3053 
L 172 3053 
L 172 3500 
L 594 3500 
L 594 4494 
L 1172 4494 
z
" transform="scale(0.015625)"/>
       <path id="DejaVuSans-44" d="M 1259 4147 
L 1259 519 
L 2022 519 
Q 2988 519 3436 956 
Q 3884 1394 3884 2338 
Q 3884 3275 3436 3711 
Q 2988 4147 2022 4147 
L 1259 4147 
z
M 628 4666 
L 1925 4666 
Q 3281 4666 3915 4102 
Q 4550 3538 4550 2338 
Q 4550 1131 3912 565 
Q 3275 0 1925 0 
L 628 0 
L 628 4666 
z
" transform="scale(0.015625)"/>
      </defs>
      <use xlink:href="#DejaVuSans-46"/>
      <use xlink:href="#DejaVuSans-6f" transform="translate(53.894531 0)"/>
      <use xlink:href="#DejaVuSans-72" transform="translate(115.076172 0)"/>
      <use xlink:href="#DejaVuSans-65" transform="translate(153.939453 0)"/>
      <use xlink:href="#DejaVuSans-63" transform="translate(215.462891 0)"/>
      <use xlink:href="#DejaVuSans-61" transform="translate(270.443359 0)"/>
      <use xlink:href="#DejaVuSans-73" transform="translate(331.722656 0)"/>
      <use xlink:href="#DejaVuSans-74" transform="translate(383.822266 0)"/>
      <use xlink:href="#DejaVuSans-20" transform="translate(423.03125 0)"/>
      <use xlink:href="#DejaVuSans-44" transform="translate(454.818359 0)"/>
      <use xlink:href="#DejaVuSans-61" transform="translate(531.820312 0)"/>
      <use xlink:href="#DejaVuSans-74" transform="translate(593.099609 0)"/>
      <use xlink:href="#DejaVuSans-65" transform="translate(632.308594 0)"/>
     </g>
    </g>
   </g>
   <g id="matplotlib.axis_2">
    <g id="ytick_1">
     <g id="line2d_7">
      <defs>
       <path id="mbb35b8a8a0" d="M 0 0 
L -3.5 0 
" style="stroke: #000000; stroke-width: 0.8"/>
      </defs>
      <g>
       <use xlink:href="#mbb35b8a8a0" x="58.791027" y="442.782262" style="stroke: #000000; stroke-width: 0.8"/>
      </g>
     </g>
     <g id="text_8">
      <!-- 2 -->
      <g transform="translate(45.428527 446.581481) scale(0.1 -0.1)">
       <use xlink:href="#DejaVuSans-32"/>
      </g>
     </g>
    </g>
    <g id="ytick_2">
     <g id="line2d_8">
      <g>
       <use xlink:href="#mbb35b8a8a0" x="58.791027" y="390.943243" style="stroke: #000000; stroke-width: 0.8"/>
      </g>
     </g>
     <g id="text_9">
      <!-- 4 -->
      <g transform="translate(45.428527 394.742461) scale(0.1 -0.1)">
       <defs>
        <path id="DejaVuSans-34" d="M 2419 4116 
L 825 1625 
L 2419 1625 
L 2419 4116 
z
M 2253 4666 
L 3047 4666 
L 3047 1625 
L 3713 1625 
L 3713 1100 
L 3047 1100 
L 3047 0 
L 2419 0 
L 2419 1100 
L 313 1100 
L 313 1709 
L 2253 4666 
z
" transform="scale(0.015625)"/>
       </defs>
       <use xlink:href="#DejaVuSans-34"/>
      </g>
     </g>
    </g>
    <g id="ytick_3">
     <g id="line2d_9">
      <g>
       <use xlink:href="#mbb35b8a8a0" x="58.791027" y="339.104224" style="stroke: #000000; stroke-width: 0.8"/>
      </g>
     </g>
     <g id="text_10">
      <!-- 6 -->
      <g transform="translate(45.428527 342.903442) scale(0.1 -0.1)">
       <use xlink:href="#DejaVuSans-36"/>
      </g>
     </g>
    </g>
    <g id="ytick_4">
     <g id="line2d_10">
      <g>
       <use xlink:href="#mbb35b8a8a0" x="58.791027" y="287.265205" style="stroke: #000000; stroke-width: 0.8"/>
      </g>
     </g>
     <g id="text_11">
      <!-- 8 -->
      <g transform="translate(45.428527 291.064423) scale(0.1 -0.1)">
       <use xlink:href="#DejaVuSans-38"/>
      </g>
     </g>
    </g>
    <g id="ytick_5">
     <g id="line2d_11">
      <g>
       <use xlink:href="#mbb35b8a8a0" x="58.791027" y="235.426186" style="stroke: #000000; stroke-width: 0.8"/>
      </g>
     </g>
     <g id="text_12">
      <!-- 10 -->
      <g transform="translate(39.066027 239.225404) scale(0.1 -0.1)">
       <use xlink:href="#DejaVuSans-31"/>
       <use xlink:href="#DejaVuSans-30" transform="translate(63.623047 0)"/>
      </g>
     </g>
    </g>
    <g id="ytick_6">
     <g id="line2d_12">
      <g>
       <use xlink:href="#mbb35b8a8a0" x="58.791027" y="183.587166" style="stroke: #000000; stroke-width: 0.8"/>
      </g>
     </g>
     <g id="text_13">
      <!-- 12 -->
      <g transform="translate(39.066027 187.386385) scale(0.1 -0.1)">
       <use xlink:href="#DejaVuSans-31"/>
       <use xlink:href="#DejaVuSans-32" transform="translate(63.623047 0)"/>
      </g>
     </g>
    </g>
    <g id="ytick_7">
     <g id="line2d_13">
      <g>
       <use xlink:href="#mbb35b8a8a0" x="58.791027" y="131.748147" style="stroke: #000000; stroke-width: 0.8"/>
      </g>
     </g>
     <g id="text_14">
      <!-- 14 -->
      <g transform="translate(39.066027 135.547366) scale(0.1 -0.1)">
       <use xlink:href="#DejaVuSans-31"/>
       <use xlink:href="#DejaVuSans-34" transform="translate(63.623047 0)"/>
      </g>
     </g>
    </g>
    <g id="ytick_8">
     <g id="line2d_14">
      <g>
       <use xlink:href="#mbb35b8a8a0" x="58.791027" y="79.909128" style="stroke: #000000; stroke-width: 0.8"/>
      </g>
     </g>
     <g id="text_15">
      <!-- 16 -->
      <g transform="translate(39.066027 83.708347) scale(0.1 -0.1)">
       <use xlink:href="#DejaVuSans-31"/>
       <use xlink:href="#DejaVuSans-36" transform="translate(63.623047 0)"/>
      </g>
     </g>
    </g>
    <g id="text_16">
     <!-- Root Mean Squared Error (RMSE) -->
     <g transform="translate(31.738527 394.303437) rotate(-90) scale(0.16 -0.16)">
      <defs>
       <path id="DejaVuSans-52" d="M 2841 2188 
Q 3044 2119 3236 1894 
Q 3428 1669 3622 1275 
L 4263 0 
L 3584 0 
L 2988 1197 
Q 2756 1666 2539 1819 
Q 2322 1972 1947 1972 
L 1259 1972 
L 1259 0 
L 628 0 
L 628 4666 
L 2053 4666 
Q 2853 4666 3247 4331 
Q 3641 3997 3641 3322 
Q 3641 2881 3436 2590 
Q 3231 2300 2841 2188 
z
M 1259 4147 
L 1259 2491 
L 2053 2491 
Q 2509 2491 2742 2702 
Q 2975 2913 2975 3322 
Q 2975 3731 2742 3939 
Q 2509 4147 2053 4147 
L 1259 4147 
z
" transform="scale(0.015625)"/>
       <path id="DejaVuSans-4d" d="M 628 4666 
L 1569 4666 
L 2759 1491 
L 3956 4666 
L 4897 4666 
L 4897 0 
L 4281 0 
L 4281 4097 
L 3078 897 
L 2444 897 
L 1241 4097 
L 1241 0 
L 628 0 
L 628 4666 
z
" transform="scale(0.015625)"/>
       <path id="DejaVuSans-6e" d="M 3513 2113 
L 3513 0 
L 2938 0 
L 2938 2094 
Q 2938 2591 2744 2837 
Q 2550 3084 2163 3084 
Q 1697 3084 1428 2787 
Q 1159 2491 1159 1978 
L 1159 0 
L 581 0 
L 581 3500 
L 1159 3500 
L 1159 2956 
Q 1366 3272 1645 3428 
Q 1925 3584 2291 3584 
Q 2894 3584 3203 3211 
Q 3513 2838 3513 2113 
z
" transform="scale(0.015625)"/>
       <path id="DejaVuSans-53" d="M 3425 4513 
L 3425 3897 
Q 3066 4069 2747 4153 
Q 2428 4238 2131 4238 
Q 1616 4238 1336 4038 
Q 1056 3838 1056 3469 
Q 1056 3159 1242 3001 
Q 1428 2844 1947 2747 
L 2328 2669 
Q 3034 2534 3370 2195 
Q 3706 1856 3706 1288 
Q 3706 609 3251 259 
Q 2797 -91 1919 -91 
Q 1588 -91 1214 -16 
Q 841 59 441 206 
L 441 856 
Q 825 641 1194 531 
Q 1563 422 1919 422 
Q 2459 422 2753 634 
Q 3047 847 3047 1241 
Q 3047 1584 2836 1778 
Q 2625 1972 2144 2069 
L 1759 2144 
Q 1053 2284 737 2584 
Q 422 2884 422 3419 
Q 422 4038 858 4394 
Q 1294 4750 2059 4750 
Q 2388 4750 2728 4690 
Q 3069 4631 3425 4513 
z
" transform="scale(0.015625)"/>
       <path id="DejaVuSans-71" d="M 947 1747 
Q 947 1113 1208 752 
Q 1469 391 1925 391 
Q 2381 391 2643 752 
Q 2906 1113 2906 1747 
Q 2906 2381 2643 2742 
Q 2381 3103 1925 3103 
Q 1469 3103 1208 2742 
Q 947 2381 947 1747 
z
M 2906 525 
Q 2725 213 2448 61 
Q 2172 -91 1784 -91 
Q 1150 -91 751 415 
Q 353 922 353 1747 
Q 353 2572 751 3078 
Q 1150 3584 1784 3584 
Q 2172 3584 2448 3432 
Q 2725 3281 2906 2969 
L 2906 3500 
L 3481 3500 
L 3481 -1331 
L 2906 -1331 
L 2906 525 
z
" transform="scale(0.015625)"/>
       <path id="DejaVuSans-75" d="M 544 1381 
L 544 3500 
L 1119 3500 
L 1119 1403 
Q 1119 906 1312 657 
Q 1506 409 1894 409 
Q 2359 409 2629 706 
Q 2900 1003 2900 1516 
L 2900 3500 
L 3475 3500 
L 3475 0 
L 2900 0 
L 2900 538 
Q 2691 219 2414 64 
Q 2138 -91 1772 -91 
Q 1169 -91 856 284 
Q 544 659 544 1381 
z
M 1991 3584 
L 1991 3584 
z
" transform="scale(0.015625)"/>
       <path id="DejaVuSans-64" d="M 2906 2969 
L 2906 4863 
L 3481 4863 
L 3481 0 
L 2906 0 
L 2906 525 
Q 2725 213 2448 61 
Q 2172 -91 1784 -91 
Q 1150 -91 751 415 
Q 353 922 353 1747 
Q 353 2572 751 3078 
Q 1150 3584 1784 3584 
Q 2172 3584 2448 3432 
Q 2725 3281 2906 2969 
z
M 947 1747 
Q 947 1113 1208 752 
Q 1469 391 1925 391 
Q 2381 391 2643 752 
Q 2906 1113 2906 1747 
Q 2906 2381 2643 2742 
Q 2381 3103 1925 3103 
Q 1469 3103 1208 2742 
Q 947 2381 947 1747 
z
" transform="scale(0.015625)"/>
       <path id="DejaVuSans-45" d="M 628 4666 
L 3578 4666 
L 3578 4134 
L 1259 4134 
L 1259 2753 
L 3481 2753 
L 3481 2222 
L 1259 2222 
L 1259 531 
L 3634 531 
L 3634 0 
L 628 0 
L 628 4666 
z
" transform="scale(0.015625)"/>
      </defs>
      <use xlink:href="#DejaVuSans-52"/>
      <use xlink:href="#DejaVuSans-6f" transform="translate(64.982422 0)"/>
      <use xlink:href="#DejaVuSans-6f" transform="translate(126.164062 0)"/>
      <use xlink:href="#DejaVuSans-74" transform="translate(187.345703 0)"/>
      <use xlink:href="#DejaVuSans-20" transform="translate(226.554688 0)"/>
      <use xlink:href="#DejaVuSans-4d" transform="translate(258.341797 0)"/>
      <use xlink:href="#DejaVuSans-65" transform="translate(344.621094 0)"/>
      <use xlink:href="#DejaVuSans-61" transform="translate(406.144531 0)"/>
      <use xlink:href="#DejaVuSans-6e" transform="translate(467.423828 0)"/>
      <use xlink:href="#DejaVuSans-20" transform="translate(530.802734 0)"/>
      <use xlink:href="#DejaVuSans-53" transform="translate(562.589844 0)"/>
      <use xlink:href="#DejaVuSans-71" transform="translate(626.066406 0)"/>
      <use xlink:href="#DejaVuSans-75" transform="translate(689.542969 0)"/>
      <use xlink:href="#DejaVuSans-61" transform="translate(752.921875 0)"/>
      <use xlink:href="#DejaVuSans-72" transform="translate(814.201172 0)"/>
      <use xlink:href="#DejaVuSans-65" transform="translate(853.064453 0)"/>
      <use xlink:href="#DejaVuSans-64" transform="translate(914.587891 0)"/>
      <use xlink:href="#DejaVuSans-20" transform="translate(978.064453 0)"/>
      <use xlink:href="#DejaVuSans-45" transform="translate(1009.851562 0)"/>
      <use xlink:href="#DejaVuSans-72" transform="translate(1073.035156 0)"/>
      <use xlink:href="#DejaVuSans-72" transform="translate(1112.398438 0)"/>
      <use xlink:href="#DejaVuSans-6f" transform="translate(1151.261719 0)"/>
      <use xlink:href="#DejaVuSans-72" transform="translate(1212.443359 0)"/>
      <use xlink:href="#DejaVuSans-20" transform="translate(1253.556641 0)"/>
      <use xlink:href="#DejaVuSans-28" transform="translate(1285.34375 0)"/>
      <use xlink:href="#DejaVuSans-52" transform="translate(1324.357422 0)"/>
      <use xlink:href="#DejaVuSans-4d" transform="translate(1393.839844 0)"/>
      <use xlink:href="#DejaVuSans-53" transform="translate(1480.119141 0)"/>
      <use xlink:href="#DejaVuSans-45" transform="translate(1543.595703 0)"/>
      <use xlink:href="#DejaVuSans-29" transform="translate(1606.779297 0)"/>
     </g>
    </g>
   </g>
   <g id="line2d_15">
    <path d="M 96.836481 174.018011 
L 99.892341 353.564358 
L 102.948201 368.190999 
L 106.004061 351.724145 
L 109.05992 319.219073 
L 112.11578 355.328327 
L 115.17164 373.044171 
L 118.2275 346.030077 
L 121.28336 344.061783 
L 124.339219 338.510096 
L 127.395079 358.011982 
L 130.450939 357.950197 
L 133.506799 363.682987 
L 136.562659 348.05667 
L 139.618518 350.666874 
L 142.674378 363.434193 
L 145.730238 358.148195 
L 148.786098 386.755809 
L 151.841958 367.903322 
L 154.897817 377.797158 
L 157.953677 356.139127 
L 161.009537 339.723268 
L 164.065397 348.402177 
L 167.121257 337.667828 
L 170.177116 336.137168 
L 173.232976 345.592048 
L 176.288836 354.281635 
L 179.344696 360.523459 
L 182.400556 356.846628 
L 185.456415 347.834251 
L 188.512275 338.403348 
L 191.568135 342.273566 
L 194.623995 337.41367 
L 197.679855 329.319212 
L 200.735714 348.287939 
L 203.791574 324.071998 
L 206.847434 304.345072 
L 209.903294 330.918454 
L 212.959154 320.49932 
L 216.015013 339.682025 
L 219.070873 324.657449 
L 222.126733 304.870939 
L 225.182593 310.130315 
L 228.238453 341.18259 
L 231.294313 314.60791 
L 234.350172 289.780438 
L 237.406032 312.497075 
L 240.461892 351.259543 
L 243.517752 372.416697 
L 246.573612 317.850815 
L 249.629471 293.016682 
L 252.685331 303.605461 
L 255.741191 291.138722 
L 258.797051 323.160641 
L 261.852911 349.100198 
L 264.90877 310.123566 
L 267.96463 323.751395 
L 271.02049 349.695896 
L 274.07635 359.194306 
L 277.13221 371.449328 
L 280.188069 373.173586 
L 283.243929 356.817472 
L 286.299789 361.84066 
L 289.355649 375.926268 
L 292.411509 379.671829 
L 295.467368 380.138532 
L 298.523228 362.144108 
L 301.579088 364.504886 
L 304.634948 365.683984 
L 307.690808 387.980785 
L 310.746667 388.835634 
L 313.802527 390.355628 
L 316.858387 385.745046 
L 319.914247 385.764252 
L 322.970107 370.283554 
L 326.025966 383.214944 
L 329.081826 390.458483 
L 332.137686 378.953823 
L 335.193546 387.017111 
L 338.249406 380.612527 
L 341.305265 389.00581 
L 344.361125 378.890123 
L 347.416985 378.938411 
L 350.472845 376.981129 
L 353.528705 379.841845 
L 356.584564 392.227568 
L 359.640424 396.688373 
L 362.696284 396.586192 
L 365.752144 392.441293 
L 368.808004 367.201296 
L 371.863863 363.397559 
L 374.919723 358.497743 
L 377.975583 348.024289 
L 381.031443 363.639284 
L 384.087303 363.841323 
L 387.143162 356.891542 
L 390.199022 376.011758 
L 393.254882 376.834226 
L 396.310742 372.879433 
L 399.366602 365.479757 
L 402.422461 356.361374 
L 405.478321 340.03449 
L 408.534181 353.448242 
L 411.590041 384.328809 
L 414.645901 361.204003 
L 417.70176 364.321399 
L 420.75762 379.947011 
L 423.81348 372.360314 
L 426.86934 373.008069 
L 429.9252 380.649135 
L 432.981059 383.334546 
L 436.036919 390.923727 
L 439.092779 379.427843 
L 442.148639 363.824749 
L 445.204499 356.958555 
L 448.260359 354.834693 
L 451.316218 352.287238 
L 454.372078 340.203467 
L 457.427938 309.003534 
L 460.483798 319.87459 
L 463.539658 317.173842 
L 466.595517 333.257925 
L 469.651377 335.1697 
L 472.707237 347.448193 
L 475.763097 314.790297 
L 478.818957 321.556566 
L 481.874816 331.204698 
L 484.930676 323.872629 
L 487.986536 283.423611 
L 491.042396 285.89356 
L 494.098256 274.219923 
L 497.154115 316.809944 
L 500.209975 328.310365 
L 503.265835 345.64334 
L 506.321695 355.845431 
L 509.377555 351.211688 
L 512.433414 343.063639 
L 515.489274 363.738407 
L 518.545134 357.950642 
L 521.600994 338.696673 
L 524.656854 307.820074 
L 527.712713 312.012871 
L 530.768573 336.948191 
L 533.824433 354.026636 
L 536.880293 339.695249 
L 539.936153 359.43498 
L 542.992012 362.15664 
L 546.047872 348.523361 
L 549.103732 322.790638 
L 552.159592 311.442412 
L 558.271311 339.178775 
L 561.327171 291.07522 
L 564.383031 291.21383 
L 567.438891 252.143762 
L 570.494751 230.136023 
L 573.55061 263.22489 
L 576.60647 263.060041 
L 579.66233 248.273841 
L 582.71819 248.532943 
L 585.77405 283.255103 
L 588.829909 276.286387 
L 591.885769 288.143005 
L 594.941629 282.292826 
L 597.997489 280.129093 
L 601.053349 308.57983 
L 604.109208 289.182145 
L 607.165068 272.958277 
L 610.220928 311.036393 
L 613.276788 298.213099 
L 616.332648 266.749564 
L 619.388507 249.492921 
L 622.444367 272.763172 
L 625.500227 303.714459 
L 628.556087 271.813946 
L 631.611947 321.454737 
L 634.667806 333.529684 
L 637.723666 334.362966 
L 640.779526 312.97783 
L 643.835386 348.350898 
L 646.891246 313.086581 
L 649.947105 274.377233 
L 653.002965 254.741606 
L 656.058825 272.742803 
L 659.114685 285.712297 
L 662.170545 286.820736 
L 665.226405 295.034994 
L 668.282264 247.270333 
L 671.338124 238.475617 
L 674.393984 254.518148 
L 677.449844 246.913147 
L 680.505704 262.806649 
L 683.561563 261.443285 
L 686.617423 273.734397 
L 689.673283 223.723504 
L 692.729143 275.318969 
L 695.785003 297.063354 
L 698.840862 287.402962 
L 701.896722 354.476716 
L 704.952582 303.234766 
L 708.008442 320.382054 
L 711.064302 318.366201 
L 714.120161 304.739311 
L 717.176021 290.23273 
L 720.231881 249.958005 
L 723.287741 262.687751 
L 726.343601 310.857677 
L 729.39946 330.825141 
L 732.45532 281.182212 
L 735.51118 267.009804 
L 738.56704 321.388738 
L 741.6229 335.799398 
L 744.678759 289.607889 
L 747.734619 287.443501 
L 750.790479 315.005548 
L 753.846339 314.751415 
L 756.902199 287.989081 
L 759.958058 312.048751 
L 763.013918 315.355912 
L 766.069778 329.526553 
L 769.125638 332.210393 
L 772.181498 293.655823 
L 775.237357 317.75676 
L 778.293217 324.329518 
L 781.349077 316.803579 
L 784.404937 314.874057 
L 787.460797 231.124452 
L 790.516656 319.092414 
L 793.572516 309.242429 
L 796.628376 283.370911 
L 799.684236 295.67987 
L 802.740096 336.626315 
L 805.795955 337.6582 
L 808.851815 330.155102 
L 811.907675 312.970254 
L 814.963535 364.091996 
L 818.019395 361.210368 
L 821.075254 351.442388 
L 824.131114 318.234487 
L 827.186974 322.837518 
L 830.242834 348.640132 
L 833.298694 357.76755 
L 836.354553 353.632792 
L 839.410413 367.535889 
L 842.466273 364.933448 
L 845.522133 360.830713 
L 848.577993 372.05851 
L 851.633852 376.295999 
L 854.689712 370.553026 
L 857.745572 383.80026 
L 857.745572 383.80026 
" clip-path="url(#p14c55be214)" style="fill: none; stroke: #0000ff; stroke-width: 2; stroke-linecap: square"/>
   </g>
   <g id="line2d_16">
    <path d="M 96.836481 377.994463 
L 99.892341 404.232709 
L 102.948201 379.267616 
L 106.004061 446.732865 
L 109.05992 391.347908 
L 112.11578 436.30231 
L 115.17164 419.858216 
L 118.2275 404.603231 
L 121.28336 399.554471 
L 124.339219 388.60811 
L 127.395079 430.741434 
L 130.450939 347.881241 
L 133.506799 405.238559 
L 139.618518 431.779789 
L 142.674378 388.551257 
L 145.730238 339.278862 
L 148.786098 327.580012 
L 151.841958 356.723108 
L 154.897817 379.456838 
L 157.953677 420.726302 
L 161.009537 428.492841 
L 164.065397 391.744415 
L 167.121257 320.145446 
L 170.177116 376.535475 
L 173.232976 404.327499 
L 176.288836 415.315166 
L 179.344696 366.306576 
L 182.400556 399.960001 
L 185.456415 388.105355 
L 188.512275 420.947263 
L 191.568135 422.368432 
L 194.623995 422.017061 
L 197.679855 443.543671 
L 200.735714 424.881966 
L 203.791574 445.550523 
L 206.847434 331.049897 
L 209.903294 378.619329 
L 212.959154 390.150277 
L 216.015013 329.974235 
L 219.070873 358.833832 
L 222.126733 381.173878 
L 225.182593 400.769418 
L 228.238453 417.449007 
L 231.294313 419.179167 
L 234.350172 401.333475 
L 237.406032 411.939453 
L 240.461892 455.025012 
L 243.517752 414.446703 
L 246.573612 442.796701 
L 249.629471 420.109309 
L 252.685331 423.737667 
L 255.741191 393.21313 
L 258.797051 423.090467 
L 261.852911 442.157995 
L 264.90877 345.872408 
L 267.96463 420.756941 
L 271.02049 425.35428 
L 274.07635 439.779957 
L 277.13221 361.524631 
L 280.188069 409.134775 
L 283.243929 340.293988 
L 286.299789 390.551018 
L 289.355649 397.570401 
L 292.411509 348.397147 
L 295.467368 415.603603 
L 298.523228 432.235133 
L 301.579088 365.064754 
L 304.634948 321.012481 
L 307.690808 410.974964 
L 310.746667 397.298581 
L 313.802527 415.580318 
L 316.858387 371.962725 
L 322.970107 250.176766 
L 326.025966 422.093392 
L 329.081826 429.985428 
L 332.137686 365.280277 
L 335.193546 408.406263 
L 338.249406 382.350541 
L 341.305265 401.189878 
L 344.361125 253.141189 
L 347.416985 358.372196 
L 350.472845 391.914554 
L 353.528705 252.715581 
L 356.584564 371.115081 
L 359.640424 407.628499 
L 362.696284 447.78354 
L 365.752144 306.107582 
L 368.808004 363.125913 
L 371.863863 316.34004 
L 374.919723 295.848204 
L 377.975583 340.394469 
L 381.031443 293.564956 
L 384.087303 395.767574 
L 387.143162 361.070015 
L 390.199022 288.204975 
L 393.254882 358.0005 
L 396.310742 409.212318 
L 399.366602 409.216687 
L 402.422461 309.423902 
L 405.478321 255.121954 
L 408.534181 342.221347 
L 411.590041 351.110304 
L 414.645901 407.45849 
L 417.70176 359.213636 
L 420.75762 276.232797 
L 423.81348 440.901034 
L 426.86934 429.958028 
L 429.9252 424.089439 
L 432.981059 284.056412 
L 436.036919 395.728988 
L 439.092779 421.792262 
L 442.148639 342.7759 
L 445.204499 320.709689 
L 448.260359 398.073656 
L 451.316218 423.527674 
L 454.372078 332.909564 
L 457.427938 352.249555 
L 460.483798 415.193902 
L 463.539658 370.8728 
L 466.595517 323.533561 
L 469.651377 301.819098 
L 472.707237 349.566283 
L 475.763097 255.364074 
L 478.818957 407.741019 
L 481.874816 180.319592 
L 484.930676 234.298243 
L 487.986536 412.826795 
L 491.042396 306.909928 
L 494.098256 336.022844 
L 497.154115 300.167637 
L 500.209975 289.555794 
L 503.265835 276.892195 
L 506.321695 346.874396 
L 509.377555 292.34972 
L 512.433414 431.88113 
L 515.489274 341.95876 
L 518.545134 300.117742 
L 521.600994 320.832974 
L 524.656854 315.709279 
L 527.712713 132.231202 
L 530.768573 372.07826 
L 533.824433 419.814594 
L 536.880293 333.736716 
L 539.936153 428.541364 
L 542.992012 406.501948 
L 546.047872 368.311602 
L 549.103732 405.903642 
L 552.159592 349.826893 
L 555.215452 322.193742 
L 558.271311 384.463909 
L 561.327171 326.042516 
L 564.383031 150.173865 
L 567.438891 302.178224 
L 570.494751 379.857121 
L 573.55061 397.349767 
L 576.60647 236.128001 
L 579.66233 260.057921 
L 582.71819 161.426888 
L 585.77405 373.657221 
L 588.829909 377.907824 
L 591.885769 387.679055 
L 594.941629 227.546855 
L 597.997489 351.8764 
L 601.053349 342.227799 
L 604.109208 412.864658 
L 607.165068 334.203394 
L 610.220928 251.547694 
L 613.276788 212.056269 
L 616.332648 216.923741 
L 619.388507 61.037187 
L 622.444367 380.236814 
L 625.500227 382.660971 
L 628.556087 337.359585 
L 631.611947 320.232023 
L 634.667806 376.719407 
L 637.723666 297.781237 
L 640.779526 345.177527 
L 643.835386 376.853309 
L 646.891246 347.513265 
L 649.947105 399.748186 
L 653.002965 187.690087 
L 656.058825 143.256292 
L 659.114685 182.985981 
L 662.170545 326.808366 
L 665.226405 218.920671 
L 668.282264 288.689525 
L 671.338124 158.725892 
L 674.393984 279.111619 
L 677.449844 439.440451 
L 680.505704 383.540268 
L 683.561563 281.538409 
L 686.617423 252.274697 
L 689.673283 334.223218 
L 692.729143 445.736813 
L 695.785003 249.267807 
L 698.840862 408.833082 
L 701.896722 374.308128 
L 704.952582 386.424108 
L 708.008442 374.507881 
L 711.064302 316.102493 
L 714.120161 202.509361 
L 717.176021 381.429161 
L 720.231881 427.845747 
L 723.287741 412.279151 
L 726.343601 311.31464 
L 729.39946 410.063391 
L 732.45532 344.081669 
L 735.51118 336.725549 
L 738.56704 431.523813 
L 741.6229 438.022248 
L 744.678759 427.179576 
L 747.734619 342.401683 
L 750.790479 375.691316 
L 753.846339 378.505585 
L 756.902199 425.275576 
L 759.958058 405.714006 
L 763.013918 432.861321 
L 766.069778 425.694491 
L 769.125638 435.2589 
L 772.181498 423.270618 
L 775.237357 393.494603 
L 778.293217 315.764847 
L 781.349077 374.691059 
L 784.404937 274.675515 
L 787.460797 245.65815 
L 790.516656 407.519941 
L 793.572516 421.535063 
L 796.628376 429.11031 
L 799.684236 350.31494 
L 802.740096 346.982355 
L 805.795955 408.255336 
L 808.851815 340.08855 
L 811.907675 346.363434 
L 814.963535 366.538376 
L 818.019395 376.407654 
L 821.075254 369.875533 
L 824.131114 367.227164 
L 827.186974 328.069765 
L 830.242834 341.925772 
L 833.298694 434.912881 
L 836.354553 455.03903 
L 839.410413 382.189127 
L 842.466273 414.050213 
L 845.522133 364.117395 
L 848.577993 439.595852 
L 851.633852 407.160925 
L 854.689712 418.16147 
L 857.745572 291.314053 
L 857.745572 291.314053 
" clip-path="url(#p14c55be214)" style="fill: none; stroke: #ffa500; stroke-width: 2; stroke-linecap: square"/>
   </g>
   <g id="line2d_17">
    <path d="M 96.836481 364.279463 
L 99.892341 404.279137 
L 102.948201 410.917789 
L 106.004061 400.367744 
L 109.05992 396.549237 
L 112.11578 416.421868 
L 115.17164 413.440197 
L 118.2275 405.207945 
L 121.28336 400.258178 
L 124.339219 398.755005 
L 127.395079 405.036298 
L 130.450939 410.75281 
L 133.506799 404.257879 
L 136.562659 405.054423 
L 139.618518 402.304849 
L 142.674378 410.069163 
L 145.730238 412.447634 
L 148.786098 411.253359 
L 151.841958 414.556547 
L 154.897817 410.814285 
L 157.953677 403.607571 
L 161.009537 399.785172 
L 164.065397 401.927208 
L 167.121257 395.960634 
L 170.177116 399.18665 
L 173.232976 400.08561 
L 176.288836 406.74832 
L 179.344696 405.826464 
L 182.400556 410.754274 
L 185.456415 398.698294 
L 188.512275 395.58473 
L 191.568135 397.104884 
L 194.623995 392.504085 
L 197.679855 392.902576 
L 200.735714 401.790111 
L 203.791574 384.921256 
L 206.847434 390.39042 
L 209.903294 399.542779 
L 212.959154 398.91237 
L 216.015013 392.897132 
L 219.070873 374.399464 
L 222.126733 369.771146 
L 225.182593 369.335428 
L 228.238453 392.412928 
L 231.294313 389.446991 
L 234.350172 363.659677 
L 237.406032 389.715857 
L 240.461892 403.685534 
L 243.517752 401.061179 
L 246.573612 377.500125 
L 249.629471 372.301804 
L 252.685331 375.880984 
L 255.741191 384.529327 
L 258.797051 388.089065 
L 261.852911 399.079216 
L 264.90877 388.748574 
L 267.96463 396.399423 
L 271.02049 410.665003 
L 274.07635 415.913953 
L 277.13221 407.862407 
L 280.188069 413.042948 
L 283.243929 410.441372 
L 286.299789 416.330001 
L 289.355649 420.662911 
L 292.411509 420.467676 
L 295.467368 415.5764 
L 298.523228 413.458316 
L 304.634948 421.473019 
L 310.746667 421.296299 
L 313.802527 419.154757 
L 316.858387 416.734221 
L 319.914247 420.282625 
L 326.025966 423.622458 
L 329.081826 419.156166 
L 332.137686 420.210378 
L 335.193546 422.905466 
L 338.249406 424.268008 
L 341.305265 425.245462 
L 347.416985 421.995364 
L 350.472845 420.934064 
L 353.528705 425.732583 
L 356.584564 425.214292 
L 359.640424 425.665551 
L 362.696284 425.939293 
L 365.752144 419.28348 
L 368.808004 420.828471 
L 371.863863 415.159598 
L 374.919723 416.31098 
L 377.975583 417.63585 
L 381.031443 417.228337 
L 384.087303 412.926529 
L 387.143162 421.390452 
L 390.199022 417.881252 
L 393.254882 419.228023 
L 396.310742 418.302392 
L 399.366602 417.10562 
L 402.422461 416.352736 
L 405.478321 409.9335 
L 408.534181 415.052399 
L 411.590041 422.417443 
L 414.645901 415.779298 
L 417.70176 423.321143 
L 420.75762 425.118488 
L 426.86934 422.236335 
L 429.9252 433.84215 
L 432.981059 428.691123 
L 436.036919 429.283693 
L 439.092779 426.745224 
L 442.148639 417.523022 
L 445.204499 418.420579 
L 448.260359 422.46507 
L 451.316218 416.511678 
L 454.372078 410.21124 
L 457.427938 406.149353 
L 460.483798 397.069907 
L 463.539658 407.543615 
L 466.595517 405.888514 
L 469.651377 408.644799 
L 472.707237 404.324817 
L 475.763097 398.995679 
L 478.818957 407.439333 
L 481.874816 407.614873 
L 484.930676 393.181546 
L 487.986536 385.679245 
L 491.042396 382.078622 
L 494.098256 397.12191 
L 497.154115 405.980944 
L 500.209975 407.639425 
L 503.265835 415.579181 
L 506.321695 413.637676 
L 509.377555 405.681692 
L 512.433414 410.798719 
L 515.489274 417.342105 
L 518.545134 414.613344 
L 521.600994 408.184851 
L 524.656854 398.33955 
L 527.712713 402.72825 
L 530.768573 413.456598 
L 533.824433 418.308386 
L 536.880293 413.282801 
L 539.936153 423.390609 
L 542.992012 420.389317 
L 546.047872 410.068804 
L 549.103732 401.217365 
L 552.159592 401.950091 
L 555.215452 404.630465 
L 558.271311 391.991553 
L 561.327171 385.766984 
L 564.383031 375.95619 
L 567.438891 364.667709 
L 570.494751 371.395948 
L 573.55061 382.445041 
L 576.60647 370.087695 
L 579.66233 361.990518 
L 582.71819 371.228763 
L 585.77405 373.67686 
L 588.829909 375.461481 
L 591.885769 384.710701 
L 594.941629 378.167433 
L 597.997489 375.783777 
L 601.053349 389.723211 
L 604.109208 377.289669 
L 607.165068 378.016104 
L 610.220928 394.535103 
L 613.276788 389.063949 
L 616.332648 369.48756 
L 619.388507 359.259452 
L 622.444367 380.015581 
L 625.500227 370.283937 
L 628.556087 370.473258 
L 631.611947 382.009224 
L 634.667806 394.055342 
L 637.723666 394.545379 
L 640.779526 397.79295 
L 643.835386 409.081988 
L 646.891246 383.237463 
L 649.947105 370.03974 
L 653.002965 372.206514 
L 656.058825 383.400384 
L 659.114685 388.063766 
L 662.170545 380.169913 
L 665.226405 383.611223 
L 668.282264 353.01329 
L 671.338124 358.744498 
L 674.393984 358.542348 
L 677.449844 363.653831 
L 680.505704 357.463374 
L 683.561563 371.861402 
L 686.617423 358.164176 
L 689.673283 349.115363 
L 692.729143 375.829272 
L 695.785003 379.838335 
L 698.840862 394.579776 
L 701.896722 401.300414 
L 704.952582 385.897771 
L 708.008442 384.597588 
L 711.064302 390.470051 
L 714.120161 381.501698 
L 717.176021 360.306181 
L 720.231881 360.837733 
L 723.287741 367.951029 
L 726.343601 400.485047 
L 732.45532 368.782717 
L 735.51118 371.131593 
L 738.56704 397.517144 
L 741.6229 393.249609 
L 744.678759 378.898082 
L 747.734619 369.617519 
L 750.790479 397.260464 
L 753.846339 384.060697 
L 756.902199 379.653278 
L 759.958058 388.641641 
L 763.013918 394.42333 
L 766.069778 396.525409 
L 772.181498 382.323016 
L 775.237357 398.214183 
L 781.349077 389.766975 
L 784.404937 380.220438 
L 787.460797 348.850958 
L 790.516656 403.382457 
L 793.572516 384.821046 
L 796.628376 373.609217 
L 799.684236 382.362183 
L 802.740096 393.41093 
L 805.795955 393.41994 
L 808.851815 395.926924 
L 811.907675 378.62777 
L 814.963535 409.79298 
L 818.019395 410.97691 
L 821.075254 406.639019 
L 824.131114 385.981877 
L 827.186974 403.935453 
L 830.242834 408.700861 
L 833.298694 403.543253 
L 836.354553 410.032394 
L 839.410413 413.968926 
L 842.466273 408.222355 
L 845.522133 405.009867 
L 848.577993 410.53568 
L 851.633852 419.051531 
L 854.689712 414.142143 
L 857.745572 419.906572 
L 857.745572 419.906572 
" clip-path="url(#p14c55be214)" style="fill: none; stroke-dasharray: 7.4,3.2; stroke-dashoffset: 0; stroke: #0000ff; stroke-width: 2"/>
   </g>
   <g id="line2d_18">
    <path d="M 96.836481 425.301283 
L 99.892341 397.838995 
L 102.948201 430.429211 
L 106.004061 415.096979 
L 109.05992 451.028614 
L 112.11578 393.072116 
L 115.17164 438.375585 
L 118.2275 409.91514 
L 121.28336 426.452029 
L 124.339219 411.793995 
L 127.395079 446.551287 
L 130.450939 360.791002 
L 133.506799 400.337395 
L 136.562659 367.239672 
L 139.618518 339.12191 
L 142.674378 353.921681 
L 145.730238 406.414159 
L 148.786098 374.289317 
L 151.841958 387.268365 
L 154.897817 420.156578 
L 157.953677 376.045487 
L 161.009537 289.741333 
L 164.065397 343.16705 
L 167.121257 415.303307 
L 170.177116 429.013239 
L 173.232976 378.735408 
L 176.288836 390.727942 
L 179.344696 384.643936 
L 182.400556 410.739542 
L 185.456415 405.764222 
L 188.512275 370.208619 
L 191.568135 336.712806 
L 194.623995 399.222813 
L 197.679855 393.832966 
L 200.735714 333.82752 
L 203.791574 398.654597 
L 206.847434 406.716908 
L 209.903294 377.015328 
L 212.959154 464.237187 
L 216.015013 333.897882 
L 219.070873 392.084657 
L 222.126733 422.28783 
L 225.182593 422.715564 
L 228.238453 398.628451 
L 231.294313 406.54989 
L 234.350172 441.928259 
L 237.406032 366.72389 
L 240.461892 396.483065 
L 243.517752 431.462851 
L 246.573612 434.287409 
L 249.629471 417.978286 
L 252.685331 435.45209 
L 255.741191 398.735693 
L 258.797051 356.303767 
L 261.852911 423.402332 
L 264.90877 419.662672 
L 267.96463 374.734366 
L 271.02049 353.251233 
L 274.07635 333.146975 
L 277.13221 339.967477 
L 280.188069 325.299248 
L 283.243929 399.368401 
L 286.299789 435.881714 
L 289.355649 406.711804 
L 292.411509 406.223126 
L 295.467368 373.19697 
L 298.523228 406.725961 
L 301.579088 433.619471 
L 304.634948 443.924201 
L 307.690808 400.705272 
L 310.746667 416.105394 
L 313.802527 388.821791 
L 316.858387 417.373615 
L 319.914247 281.375735 
L 322.970107 382.46573 
L 326.025966 437.490504 
L 329.081826 391.405595 
L 332.137686 371.366409 
L 335.193546 435.218578 
L 338.249406 395.88526 
L 341.305265 391.136834 
L 344.361125 414.186605 
L 347.416985 426.648116 
L 350.472845 355.686317 
L 353.528705 395.151984 
L 356.584564 404.859571 
L 359.640424 433.544011 
L 362.696284 436.348176 
L 365.752144 297.731058 
L 368.808004 418.113263 
L 371.863863 397.908306 
L 374.919723 384.430094 
L 377.975583 423.34318 
L 381.031443 425.966713 
L 384.087303 382.739169 
L 387.143162 402.072486 
L 390.199022 406.008629 
L 393.254882 446.251198 
L 396.310742 420.818435 
L 399.366602 367.087491 
L 402.422461 401.653336 
L 405.478321 369.390625 
L 408.534181 385.546369 
L 411.590041 390.435012 
L 414.645901 400.353722 
L 417.70176 379.012691 
L 420.75762 419.135773 
L 423.81348 329.404183 
L 426.86934 373.623455 
L 429.9252 379.414519 
L 432.981059 387.828245 
L 436.036919 405.587909 
L 439.092779 426.331314 
L 442.148639 378.339858 
L 445.204499 413.590722 
L 448.260359 437.677094 
L 451.316218 420.057629 
L 454.372078 400.807936 
L 457.427938 406.677197 
L 460.483798 391.788452 
L 463.539658 283.029223 
L 466.595517 298.756726 
L 469.651377 409.998133 
L 472.707237 410.570663 
L 475.763097 429.487018 
L 478.818957 384.861943 
L 481.874816 323.377388 
L 484.930676 352.403132 
L 487.986536 416.31606 
L 491.042396 378.21142 
L 494.098256 440.261423 
L 497.154115 443.835631 
L 500.209975 343.76585 
L 503.265835 366.441305 
L 506.321695 379.473523 
L 509.377555 452.516393 
L 512.433414 360.027884 
L 515.489274 426.71241 
L 518.545134 418.06896 
L 521.600994 292.653575 
L 524.656854 394.837574 
L 527.712713 422.735524 
L 530.768573 306.821695 
L 533.824433 429.978402 
L 536.880293 354.501422 
L 539.936153 404.06666 
L 542.992012 387.331398 
L 546.047872 358.215331 
L 549.103732 423.971061 
L 552.159592 374.537283 
L 555.215452 424.533561 
L 558.271311 397.928384 
L 561.327171 404.680452 
L 564.383031 407.009004 
L 567.438891 400.361644 
L 570.494751 314.182215 
L 573.55061 443.84617 
L 576.60647 390.067308 
L 579.66233 414.385295 
L 582.71819 405.387941 
L 585.77405 393.169699 
L 588.829909 391.768467 
L 591.885769 347.709792 
L 594.941629 383.936769 
L 597.997489 368.549928 
L 601.053349 375.912117 
L 604.109208 351.256861 
L 607.165068 395.033655 
L 610.220928 416.6015 
L 613.276788 424.236677 
L 616.332648 225.496878 
L 619.388507 340.55325 
L 622.444367 397.319598 
L 625.500227 427.693689 
L 628.556087 402.873034 
L 631.611947 303.358867 
L 634.667806 408.75693 
L 637.723666 414.944211 
L 640.779526 425.256771 
L 643.835386 398.867951 
L 646.891246 329.955077 
L 649.947105 375.96483 
L 653.002965 312.927392 
L 656.058825 335.754064 
L 659.114685 420.256775 
L 662.170545 389.609628 
L 665.226405 405.296864 
L 668.282264 383.155384 
L 671.338124 357.3215 
L 674.393984 254.756141 
L 677.449844 389.82368 
L 683.561563 277.161481 
L 686.617423 385.73946 
L 689.673283 394.830164 
L 692.729143 331.289211 
L 695.785003 339.181828 
L 698.840862 417.345331 
L 701.896722 404.983307 
L 704.952582 334.715505 
L 708.008442 320.618291 
L 711.064302 402.892228 
L 714.120161 394.593408 
L 717.176021 388.870463 
L 720.231881 387.432028 
L 723.287741 385.61332 
L 726.343601 364.467029 
L 729.39946 386.968996 
L 732.45532 362.415594 
L 735.51118 440.62097 
L 738.56704 437.644577 
L 741.6229 421.591898 
L 744.678759 447.540736 
L 747.734619 312.867795 
L 750.790479 401.274644 
L 753.846339 395.378538 
L 756.902199 367.665391 
L 759.958058 353.693576 
L 763.013918 414.883032 
L 766.069778 406.623848 
L 769.125638 417.172132 
L 772.181498 307.896628 
L 775.237357 458.907805 
L 778.293217 414.348068 
L 781.349077 424.319454 
L 784.404937 381.788844 
L 787.460797 385.960421 
L 790.516656 380.712638 
L 793.572516 327.95701 
L 796.628376 416.626929 
L 799.684236 355.399628 
L 805.795955 428.020255 
L 808.851815 427.847434 
L 811.907675 401.606129 
L 814.963535 372.36815 
L 818.019395 401.126777 
L 821.075254 408.697988 
L 824.131114 413.02025 
L 827.186974 407.186639 
L 830.242834 379.193991 
L 833.298694 402.919988 
L 836.354553 435.285232 
L 839.410413 393.79226 
L 842.466273 431.842247 
L 845.522133 385.312146 
L 848.577993 415.889315 
L 851.633852 442.124118 
L 854.689712 396.776687 
L 857.745572 436.600048 
L 857.745572 436.600048 
" clip-path="url(#p14c55be214)" style="fill: none; stroke-dasharray: 7.4,3.2; stroke-dashoffset: 0; stroke: #ffa500; stroke-width: 2"/>
   </g>
   <g id="patch_3">
    <path d="M 58.791027 484.397187 
L 58.791027 40.877187 
" style="fill: none; stroke: #000000; stroke-width: 0.8; stroke-linejoin: miter; stroke-linecap: square"/>
   </g>
   <g id="patch_4">
    <path d="M 895.791027 484.397187 
L 895.791027 40.877187 
" style="fill: none; stroke: #000000; stroke-width: 0.8; stroke-linejoin: miter; stroke-linecap: square"/>
   </g>
   <g id="patch_5">
    <path d="M 58.791027 484.397187 
L 895.791027 484.397187 
" style="fill: none; stroke: #000000; stroke-width: 0.8; stroke-linejoin: miter; stroke-linecap: square"/>
   </g>
   <g id="patch_6">
    <path d="M 58.791027 40.877187 
L 895.791027 40.877187 
" style="fill: none; stroke: #000000; stroke-width: 0.8; stroke-linejoin: miter; stroke-linecap: square"/>
   </g>
   <g id="text_17">
    <!-- Eastward wind speed two steps forward prediction: RMSES -->
    <g transform="translate(212.875245 20.877187) scale(0.18 -0.18)">
     <defs>
      <path id="DejaVuSans-77" d="M 269 3500 
L 844 3500 
L 1563 769 
L 2278 3500 
L 2956 3500 
L 3675 769 
L 4391 3500 
L 4966 3500 
L 4050 0 
L 3372 0 
L 2619 2869 
L 1863 0 
L 1184 0 
L 269 3500 
z
" transform="scale(0.015625)"/>
      <path id="DejaVuSans-69" d="M 603 3500 
L 1178 3500 
L 1178 0 
L 603 0 
L 603 3500 
z
M 603 4863 
L 1178 4863 
L 1178 4134 
L 603 4134 
L 603 4863 
z
" transform="scale(0.015625)"/>
      <path id="DejaVuSans-70" d="M 1159 525 
L 1159 -1331 
L 581 -1331 
L 581 3500 
L 1159 3500 
L 1159 2969 
Q 1341 3281 1617 3432 
Q 1894 3584 2278 3584 
Q 2916 3584 3314 3078 
Q 3713 2572 3713 1747 
Q 3713 922 3314 415 
Q 2916 -91 2278 -91 
Q 1894 -91 1617 61 
Q 1341 213 1159 525 
z
M 3116 1747 
Q 3116 2381 2855 2742 
Q 2594 3103 2138 3103 
Q 1681 3103 1420 2742 
Q 1159 2381 1159 1747 
Q 1159 1113 1420 752 
Q 1681 391 2138 391 
Q 2594 391 2855 752 
Q 3116 1113 3116 1747 
z
" transform="scale(0.015625)"/>
      <path id="DejaVuSans-66" d="M 2375 4863 
L 2375 4384 
L 1825 4384 
Q 1516 4384 1395 4259 
Q 1275 4134 1275 3809 
L 1275 3500 
L 2222 3500 
L 2222 3053 
L 1275 3053 
L 1275 0 
L 697 0 
L 697 3053 
L 147 3053 
L 147 3500 
L 697 3500 
L 697 3744 
Q 697 4328 969 4595 
Q 1241 4863 1831 4863 
L 2375 4863 
z
" transform="scale(0.015625)"/>
     </defs>
     <use xlink:href="#DejaVuSans-45"/>
     <use xlink:href="#DejaVuSans-61" transform="translate(63.183594 0)"/>
     <use xlink:href="#DejaVuSans-73" transform="translate(124.462891 0)"/>
     <use xlink:href="#DejaVuSans-74" transform="translate(176.5625 0)"/>
     <use xlink:href="#DejaVuSans-77" transform="translate(215.771484 0)"/>
     <use xlink:href="#DejaVuSans-61" transform="translate(297.558594 0)"/>
     <use xlink:href="#DejaVuSans-72" transform="translate(358.837891 0)"/>
     <use xlink:href="#DejaVuSans-64" transform="translate(398.201172 0)"/>
     <use xlink:href="#DejaVuSans-20" transform="translate(461.677734 0)"/>
     <use xlink:href="#DejaVuSans-77" transform="translate(493.464844 0)"/>
     <use xlink:href="#DejaVuSans-69" transform="translate(575.251953 0)"/>
     <use xlink:href="#DejaVuSans-6e" transform="translate(603.035156 0)"/>
     <use xlink:href="#DejaVuSans-64" transform="translate(666.414062 0)"/>
     <use xlink:href="#DejaVuSans-20" transform="translate(729.890625 0)"/>
     <use xlink:href="#DejaVuSans-73" transform="translate(761.677734 0)"/>
     <use xlink:href="#DejaVuSans-70" transform="translate(813.777344 0)"/>
     <use xlink:href="#DejaVuSans-65" transform="translate(877.253906 0)"/>
     <use xlink:href="#DejaVuSans-65" transform="translate(938.777344 0)"/>
     <use xlink:href="#DejaVuSans-64" transform="translate(1000.300781 0)"/>
     <use xlink:href="#DejaVuSans-20" transform="translate(1063.777344 0)"/>
     <use xlink:href="#DejaVuSans-74" transform="translate(1095.564453 0)"/>
     <use xlink:href="#DejaVuSans-77" transform="translate(1134.773438 0)"/>
     <use xlink:href="#DejaVuSans-6f" transform="translate(1216.560547 0)"/>
     <use xlink:href="#DejaVuSans-20" transform="translate(1277.742188 0)"/>
     <use xlink:href="#DejaVuSans-73" transform="translate(1309.529297 0)"/>
     <use xlink:href="#DejaVuSans-74" transform="translate(1361.628906 0)"/>
     <use xlink:href="#DejaVuSans-65" transform="translate(1400.837891 0)"/>
     <use xlink:href="#DejaVuSans-70" transform="translate(1462.361328 0)"/>
     <use xlink:href="#DejaVuSans-73" transform="translate(1525.837891 0)"/>
     <use xlink:href="#DejaVuSans-20" transform="translate(1577.9375 0)"/>
     <use xlink:href="#DejaVuSans-66" transform="translate(1609.724609 0)"/>
     <use xlink:href="#DejaVuSans-6f" transform="translate(1644.929688 0)"/>
     <use xlink:href="#DejaVuSans-72" transform="translate(1706.111328 0)"/>
     <use xlink:href="#DejaVuSans-77" transform="translate(1747.224609 0)"/>
     <use xlink:href="#DejaVuSans-61" transform="translate(1829.011719 0)"/>
     <use xlink:href="#DejaVuSans-72" transform="translate(1890.291016 0)"/>
     <use xlink:href="#DejaVuSans-64" transform="translate(1929.654297 0)"/>
     <use xlink:href="#DejaVuSans-20" transform="translate(1993.130859 0)"/>
     <use xlink:href="#DejaVuSans-70" transform="translate(2024.917969 0)"/>
     <use xlink:href="#DejaVuSans-72" transform="translate(2088.394531 0)"/>
     <use xlink:href="#DejaVuSans-65" transform="translate(2127.257812 0)"/>
     <use xlink:href="#DejaVuSans-64" transform="translate(2188.78125 0)"/>
     <use xlink:href="#DejaVuSans-69" transform="translate(2252.257812 0)"/>
     <use xlink:href="#DejaVuSans-63" transform="translate(2280.041016 0)"/>
     <use xlink:href="#DejaVuSans-74" transform="translate(2335.021484 0)"/>
     <use xlink:href="#DejaVuSans-69" transform="translate(2374.230469 0)"/>
     <use xlink:href="#DejaVuSans-6f" transform="translate(2402.013672 0)"/>
     <use xlink:href="#DejaVuSans-6e" transform="translate(2463.195312 0)"/>
     <use xlink:href="#DejaVuSans-3a" transform="translate(2526.574219 0)"/>
     <use xlink:href="#DejaVuSans-20" transform="translate(2560.265625 0)"/>
     <use xlink:href="#DejaVuSans-52" transform="translate(2592.052734 0)"/>
     <use xlink:href="#DejaVuSans-4d" transform="translate(2661.535156 0)"/>
     <use xlink:href="#DejaVuSans-53" transform="translate(2747.814453 0)"/>
     <use xlink:href="#DejaVuSans-45" transform="translate(2811.291016 0)"/>
     <use xlink:href="#DejaVuSans-53" transform="translate(2874.474609 0)"/>
    </g>
   </g>
   <g id="legend_1">
    <g id="text_18">
     <!-- Forecast Horizon -->
     <g transform="translate(1020.26087 65.634687) scale(0.16 -0.16)">
      <defs>
       <path id="DejaVuSans-48" d="M 628 4666 
L 1259 4666 
L 1259 2753 
L 3553 2753 
L 3553 4666 
L 4184 4666 
L 4184 0 
L 3553 0 
L 3553 2222 
L 1259 2222 
L 1259 0 
L 628 0 
L 628 4666 
z
" transform="scale(0.015625)"/>
       <path id="DejaVuSans-7a" d="M 353 3500 
L 3084 3500 
L 3084 2975 
L 922 459 
L 3084 459 
L 3084 0 
L 275 0 
L 275 525 
L 2438 3041 
L 353 3041 
L 353 3500 
z
" transform="scale(0.015625)"/>
      </defs>
      <use xlink:href="#DejaVuSans-46"/>
      <use xlink:href="#DejaVuSans-6f" transform="translate(53.894531 0)"/>
      <use xlink:href="#DejaVuSans-72" transform="translate(115.076172 0)"/>
      <use xlink:href="#DejaVuSans-65" transform="translate(153.939453 0)"/>
      <use xlink:href="#DejaVuSans-63" transform="translate(215.462891 0)"/>
      <use xlink:href="#DejaVuSans-61" transform="translate(270.443359 0)"/>
      <use xlink:href="#DejaVuSans-73" transform="translate(331.722656 0)"/>
      <use xlink:href="#DejaVuSans-74" transform="translate(383.822266 0)"/>
      <use xlink:href="#DejaVuSans-20" transform="translate(423.03125 0)"/>
      <use xlink:href="#DejaVuSans-48" transform="translate(454.818359 0)"/>
      <use xlink:href="#DejaVuSans-6f" transform="translate(530.013672 0)"/>
      <use xlink:href="#DejaVuSans-72" transform="translate(591.195312 0)"/>
      <use xlink:href="#DejaVuSans-69" transform="translate(632.308594 0)"/>
      <use xlink:href="#DejaVuSans-7a" transform="translate(660.091797 0)"/>
      <use xlink:href="#DejaVuSans-6f" transform="translate(712.582031 0)"/>
      <use xlink:href="#DejaVuSans-6e" transform="translate(773.763672 0)"/>
     </g>
    </g>
    <g id="line2d_19">
     <path d="M 950.241027 81.7 
L 964.241027 81.7 
L 978.241027 81.7 
" style="fill: none; stroke: #0000ff; stroke-width: 2; stroke-linecap: square"/>
    </g>
    <g id="text_19">
     <!-- Global RMSE (6h Forecast) -->
     <g transform="translate(989.441027 86.6) scale(0.14 -0.14)">
      <defs>
       <path id="DejaVuSans-47" d="M 3809 666 
L 3809 1919 
L 2778 1919 
L 2778 2438 
L 4434 2438 
L 4434 434 
Q 4069 175 3628 42 
Q 3188 -91 2688 -91 
Q 1594 -91 976 548 
Q 359 1188 359 2328 
Q 359 3472 976 4111 
Q 1594 4750 2688 4750 
Q 3144 4750 3555 4637 
Q 3966 4525 4313 4306 
L 4313 3634 
Q 3963 3931 3569 4081 
Q 3175 4231 2741 4231 
Q 1884 4231 1454 3753 
Q 1025 3275 1025 2328 
Q 1025 1384 1454 906 
Q 1884 428 2741 428 
Q 3075 428 3337 486 
Q 3600 544 3809 666 
z
" transform="scale(0.015625)"/>
       <path id="DejaVuSans-6c" d="M 603 4863 
L 1178 4863 
L 1178 0 
L 603 0 
L 603 4863 
z
" transform="scale(0.015625)"/>
       <path id="DejaVuSans-62" d="M 3116 1747 
Q 3116 2381 2855 2742 
Q 2594 3103 2138 3103 
Q 1681 3103 1420 2742 
Q 1159 2381 1159 1747 
Q 1159 1113 1420 752 
Q 1681 391 2138 391 
Q 2594 391 2855 752 
Q 3116 1113 3116 1747 
z
M 1159 2969 
Q 1341 3281 1617 3432 
Q 1894 3584 2278 3584 
Q 2916 3584 3314 3078 
Q 3713 2572 3713 1747 
Q 3713 922 3314 415 
Q 2916 -91 2278 -91 
Q 1894 -91 1617 61 
Q 1341 213 1159 525 
L 1159 0 
L 581 0 
L 581 4863 
L 1159 4863 
L 1159 2969 
z
" transform="scale(0.015625)"/>
       <path id="DejaVuSans-68" d="M 3513 2113 
L 3513 0 
L 2938 0 
L 2938 2094 
Q 2938 2591 2744 2837 
Q 2550 3084 2163 3084 
Q 1697 3084 1428 2787 
Q 1159 2491 1159 1978 
L 1159 0 
L 581 0 
L 581 4863 
L 1159 4863 
L 1159 2956 
Q 1366 3272 1645 3428 
Q 1925 3584 2291 3584 
Q 2894 3584 3203 3211 
Q 3513 2838 3513 2113 
z
" transform="scale(0.015625)"/>
      </defs>
      <use xlink:href="#DejaVuSans-47"/>
      <use xlink:href="#DejaVuSans-6c" transform="translate(77.490234 0)"/>
      <use xlink:href="#DejaVuSans-6f" transform="translate(105.273438 0)"/>
      <use xlink:href="#DejaVuSans-62" transform="translate(166.455078 0)"/>
      <use xlink:href="#DejaVuSans-61" transform="translate(229.931641 0)"/>
      <use xlink:href="#DejaVuSans-6c" transform="translate(291.210938 0)"/>
      <use xlink:href="#DejaVuSans-20" transform="translate(318.994141 0)"/>
      <use xlink:href="#DejaVuSans-52" transform="translate(350.78125 0)"/>
      <use xlink:href="#DejaVuSans-4d" transform="translate(420.263672 0)"/>
      <use xlink:href="#DejaVuSans-53" transform="translate(506.542969 0)"/>
      <use xlink:href="#DejaVuSans-45" transform="translate(570.019531 0)"/>
      <use xlink:href="#DejaVuSans-20" transform="translate(633.203125 0)"/>
      <use xlink:href="#DejaVuSans-28" transform="translate(664.990234 0)"/>
      <use xlink:href="#DejaVuSans-36" transform="translate(704.003906 0)"/>
      <use xlink:href="#DejaVuSans-68" transform="translate(767.626953 0)"/>
      <use xlink:href="#DejaVuSans-20" transform="translate(831.005859 0)"/>
      <use xlink:href="#DejaVuSans-46" transform="translate(862.792969 0)"/>
      <use xlink:href="#DejaVuSans-6f" transform="translate(916.6875 0)"/>
      <use xlink:href="#DejaVuSans-72" transform="translate(977.869141 0)"/>
      <use xlink:href="#DejaVuSans-65" transform="translate(1016.732422 0)"/>
      <use xlink:href="#DejaVuSans-63" transform="translate(1078.255859 0)"/>
      <use xlink:href="#DejaVuSans-61" transform="translate(1133.236328 0)"/>
      <use xlink:href="#DejaVuSans-73" transform="translate(1194.515625 0)"/>
      <use xlink:href="#DejaVuSans-74" transform="translate(1246.615234 0)"/>
      <use xlink:href="#DejaVuSans-29" transform="translate(1285.824219 0)"/>
     </g>
    </g>
    <g id="line2d_20">
     <path d="M 950.241027 102.249375 
L 964.241027 102.249375 
L 978.241027 102.249375 
" style="fill: none; stroke: #ffa500; stroke-width: 2; stroke-linecap: square"/>
    </g>
    <g id="text_20">
     <!-- South Africa RMSE (6h Forecast) -->
     <g transform="translate(989.441027 107.149375) scale(0.14 -0.14)">
      <defs>
       <path id="DejaVuSans-41" d="M 2188 4044 
L 1331 1722 
L 3047 1722 
L 2188 4044 
z
M 1831 4666 
L 2547 4666 
L 4325 0 
L 3669 0 
L 3244 1197 
L 1141 1197 
L 716 0 
L 50 0 
L 1831 4666 
z
" transform="scale(0.015625)"/>
      </defs>
      <use xlink:href="#DejaVuSans-53"/>
      <use xlink:href="#DejaVuSans-6f" transform="translate(63.476562 0)"/>
      <use xlink:href="#DejaVuSans-75" transform="translate(124.658203 0)"/>
      <use xlink:href="#DejaVuSans-74" transform="translate(188.037109 0)"/>
      <use xlink:href="#DejaVuSans-68" transform="translate(227.246094 0)"/>
      <use xlink:href="#DejaVuSans-20" transform="translate(290.625 0)"/>
      <use xlink:href="#DejaVuSans-41" transform="translate(322.412109 0)"/>
      <use xlink:href="#DejaVuSans-66" transform="translate(387.195312 0)"/>
      <use xlink:href="#DejaVuSans-72" transform="translate(422.400391 0)"/>
      <use xlink:href="#DejaVuSans-69" transform="translate(463.513672 0)"/>
      <use xlink:href="#DejaVuSans-63" transform="translate(491.296875 0)"/>
      <use xlink:href="#DejaVuSans-61" transform="translate(546.277344 0)"/>
      <use xlink:href="#DejaVuSans-20" transform="translate(607.556641 0)"/>
      <use xlink:href="#DejaVuSans-52" transform="translate(639.34375 0)"/>
      <use xlink:href="#DejaVuSans-4d" transform="translate(708.826172 0)"/>
      <use xlink:href="#DejaVuSans-53" transform="translate(795.105469 0)"/>
      <use xlink:href="#DejaVuSans-45" transform="translate(858.582031 0)"/>
      <use xlink:href="#DejaVuSans-20" transform="translate(921.765625 0)"/>
      <use xlink:href="#DejaVuSans-28" transform="translate(953.552734 0)"/>
      <use xlink:href="#DejaVuSans-36" transform="translate(992.566406 0)"/>
      <use xlink:href="#DejaVuSans-68" transform="translate(1056.189453 0)"/>
      <use xlink:href="#DejaVuSans-20" transform="translate(1119.568359 0)"/>
      <use xlink:href="#DejaVuSans-46" transform="translate(1151.355469 0)"/>
      <use xlink:href="#DejaVuSans-6f" transform="translate(1205.25 0)"/>
      <use xlink:href="#DejaVuSans-72" transform="translate(1266.431641 0)"/>
      <use xlink:href="#DejaVuSans-65" transform="translate(1305.294922 0)"/>
      <use xlink:href="#DejaVuSans-63" transform="translate(1366.818359 0)"/>
      <use xlink:href="#DejaVuSans-61" transform="translate(1421.798828 0)"/>
      <use xlink:href="#DejaVuSans-73" transform="translate(1483.078125 0)"/>
      <use xlink:href="#DejaVuSans-74" transform="translate(1535.177734 0)"/>
      <use xlink:href="#DejaVuSans-29" transform="translate(1574.386719 0)"/>
     </g>
    </g>
    <g id="line2d_21">
     <path d="M 950.241027 122.79875 
L 964.241027 122.79875 
L 978.241027 122.79875 
" style="fill: none; stroke-dasharray: 7.4,3.2; stroke-dashoffset: 0; stroke: #0000ff; stroke-width: 2"/>
    </g>
    <g id="text_21">
     <!-- Global RMSE (12h Forecast) -->
     <g transform="translate(989.441027 127.69875) scale(0.14 -0.14)">
      <use xlink:href="#DejaVuSans-47"/>
      <use xlink:href="#DejaVuSans-6c" transform="translate(77.490234 0)"/>
      <use xlink:href="#DejaVuSans-6f" transform="translate(105.273438 0)"/>
      <use xlink:href="#DejaVuSans-62" transform="translate(166.455078 0)"/>
      <use xlink:href="#DejaVuSans-61" transform="translate(229.931641 0)"/>
      <use xlink:href="#DejaVuSans-6c" transform="translate(291.210938 0)"/>
      <use xlink:href="#DejaVuSans-20" transform="translate(318.994141 0)"/>
      <use xlink:href="#DejaVuSans-52" transform="translate(350.78125 0)"/>
      <use xlink:href="#DejaVuSans-4d" transform="translate(420.263672 0)"/>
      <use xlink:href="#DejaVuSans-53" transform="translate(506.542969 0)"/>
      <use xlink:href="#DejaVuSans-45" transform="translate(570.019531 0)"/>
      <use xlink:href="#DejaVuSans-20" transform="translate(633.203125 0)"/>
      <use xlink:href="#DejaVuSans-28" transform="translate(664.990234 0)"/>
      <use xlink:href="#DejaVuSans-31" transform="translate(704.003906 0)"/>
      <use xlink:href="#DejaVuSans-32" transform="translate(767.626953 0)"/>
      <use xlink:href="#DejaVuSans-68" transform="translate(831.25 0)"/>
      <use xlink:href="#DejaVuSans-20" transform="translate(894.628906 0)"/>
      <use xlink:href="#DejaVuSans-46" transform="translate(926.416016 0)"/>
      <use xlink:href="#DejaVuSans-6f" transform="translate(980.310547 0)"/>
      <use xlink:href="#DejaVuSans-72" transform="translate(1041.492188 0)"/>
      <use xlink:href="#DejaVuSans-65" transform="translate(1080.355469 0)"/>
      <use xlink:href="#DejaVuSans-63" transform="translate(1141.878906 0)"/>
      <use xlink:href="#DejaVuSans-61" transform="translate(1196.859375 0)"/>
      <use xlink:href="#DejaVuSans-73" transform="translate(1258.138672 0)"/>
      <use xlink:href="#DejaVuSans-74" transform="translate(1310.238281 0)"/>
      <use xlink:href="#DejaVuSans-29" transform="translate(1349.447266 0)"/>
     </g>
    </g>
    <g id="line2d_22">
     <path d="M 950.241027 143.348125 
L 964.241027 143.348125 
L 978.241027 143.348125 
" style="fill: none; stroke-dasharray: 7.4,3.2; stroke-dashoffset: 0; stroke: #ffa500; stroke-width: 2"/>
    </g>
    <g id="text_22">
     <!-- South Africa RMSE (12h Forecast) -->
     <g transform="translate(989.441027 148.248125) scale(0.14 -0.14)">
      <use xlink:href="#DejaVuSans-53"/>
      <use xlink:href="#DejaVuSans-6f" transform="translate(63.476562 0)"/>
      <use xlink:href="#DejaVuSans-75" transform="translate(124.658203 0)"/>
      <use xlink:href="#DejaVuSans-74" transform="translate(188.037109 0)"/>
      <use xlink:href="#DejaVuSans-68" transform="translate(227.246094 0)"/>
      <use xlink:href="#DejaVuSans-20" transform="translate(290.625 0)"/>
      <use xlink:href="#DejaVuSans-41" transform="translate(322.412109 0)"/>
      <use xlink:href="#DejaVuSans-66" transform="translate(387.195312 0)"/>
      <use xlink:href="#DejaVuSans-72" transform="translate(422.400391 0)"/>
      <use xlink:href="#DejaVuSans-69" transform="translate(463.513672 0)"/>
      <use xlink:href="#DejaVuSans-63" transform="translate(491.296875 0)"/>
      <use xlink:href="#DejaVuSans-61" transform="translate(546.277344 0)"/>
      <use xlink:href="#DejaVuSans-20" transform="translate(607.556641 0)"/>
      <use xlink:href="#DejaVuSans-52" transform="translate(639.34375 0)"/>
      <use xlink:href="#DejaVuSans-4d" transform="translate(708.826172 0)"/>
      <use xlink:href="#DejaVuSans-53" transform="translate(795.105469 0)"/>
      <use xlink:href="#DejaVuSans-45" transform="translate(858.582031 0)"/>
      <use xlink:href="#DejaVuSans-20" transform="translate(921.765625 0)"/>
      <use xlink:href="#DejaVuSans-28" transform="translate(953.552734 0)"/>
      <use xlink:href="#DejaVuSans-31" transform="translate(992.566406 0)"/>
      <use xlink:href="#DejaVuSans-32" transform="translate(1056.189453 0)"/>
      <use xlink:href="#DejaVuSans-68" transform="translate(1119.8125 0)"/>
      <use xlink:href="#DejaVuSans-20" transform="translate(1183.191406 0)"/>
      <use xlink:href="#DejaVuSans-46" transform="translate(1214.978516 0)"/>
      <use xlink:href="#DejaVuSans-6f" transform="translate(1268.873047 0)"/>
      <use xlink:href="#DejaVuSans-72" transform="translate(1330.054688 0)"/>
      <use xlink:href="#DejaVuSans-65" transform="translate(1368.917969 0)"/>
      <use xlink:href="#DejaVuSans-63" transform="translate(1430.441406 0)"/>
      <use xlink:href="#DejaVuSans-61" transform="translate(1485.421875 0)"/>
      <use xlink:href="#DejaVuSans-73" transform="translate(1546.701172 0)"/>
      <use xlink:href="#DejaVuSans-74" transform="translate(1598.800781 0)"/>
      <use xlink:href="#DejaVuSans-29" transform="translate(1638.009766 0)"/>
     </g>
    </g>
   </g>
  </g>
 </g>
 <defs>
  <clipPath id="p14c55be214">
   <rect x="58.791027" y="40.877187" width="837" height="443.52"/>
  </clipPath>
 </defs>
</svg>
