<?xml version="1.0" encoding="utf-8" standalone="no"?>
<!DOCTYPE svg PUBLIC "-//W3C//DTD SVG 1.1//EN"
  "http://www.w3.org/Graphics/SVG/1.1/DTD/svg11.dtd">
<svg xmlns:xlink="http://www.w3.org/1999/xlink" width="1237.023214pt" height="575.421502pt" viewBox="0 0 1237.023214 575.421502" xmlns="http://www.w3.org/2000/svg" version="1.1">
 <metadata>
  <rdf:RDF xmlns:dc="http://purl.org/dc/elements/1.1/" xmlns:cc="http://creativecommons.org/ns#" xmlns:rdf="http://www.w3.org/1999/02/22-rdf-syntax-ns#">
   <cc:Work>
    <dc:type rdf:resource="http://purl.org/dc/dcmitype/StillImage"/>
    <dc:date>2025-02-18T09:44:33.040939</dc:date>
    <dc:format>image/svg+xml</dc:format>
    <dc:creator>
     <cc:Agent>
      <dc:title>Matplotlib v3.10.0, https://matplotlib.org/</dc:title>
     </cc:Agent>
    </dc:creator>
   </cc:Work>
  </rdf:RDF>
 </metadata>
 <defs>
  <style type="text/css">*{stroke-linejoin: round; stroke-linecap: butt}</style>
 </defs>
 <g id="figure_1">
  <g id="patch_1">
   <path d="M 0 575.421502 
L 1237.023214 575.421502 
L 1237.023214 0 
L 0 0 
z
" style="fill: #ffffff"/>
  </g>
  <g id="axes_1">
   <g id="patch_2">
    <path d="M 58.791027 484.397187 
L 895.791027 484.397187 
L 895.791027 40.877187 
L 58.791027 40.877187 
z
" style="fill: #ffffff"/>
   </g>
   <g id="matplotlib.axis_1">
    <g id="xtick_1">
     <g id="line2d_1">
      <defs>
       <path id="m25aa27346a" d="M 0 0 
L 0 3.5 
" style="stroke: #000000; stroke-width: 0.8"/>
      </defs>
      <g>
       <use xlink:href="#m25aa27346a" x="96.836481" y="484.397187" style="stroke: #000000; stroke-width: 0.8"/>
      </g>
     </g>
     <g id="text_1">
      <!-- 2022-01-01 (12:00) -->
      <g transform="translate(10.999219 546.93544) rotate(-30) scale(0.1 -0.1)">
       <defs>
        <path id="DejaVuSans-32" d="M 1228 531 
L 3431 531 
L 3431 0 
L 469 0 
L 469 531 
Q 828 903 1448 1529 
Q 2069 2156 2228 2338 
Q 2531 2678 2651 2914 
Q 2772 3150 2772 3378 
Q 2772 3750 2511 3984 
Q 2250 4219 1831 4219 
Q 1534 4219 1204 4116 
Q 875 4013 500 3803 
L 500 4441 
Q 881 4594 1212 4672 
Q 1544 4750 1819 4750 
Q 2544 4750 2975 4387 
Q 3406 4025 3406 3419 
Q 3406 3131 3298 2873 
Q 3191 2616 2906 2266 
Q 2828 2175 2409 1742 
Q 1991 1309 1228 531 
z
" transform="scale(0.015625)"/>
        <path id="DejaVuSans-30" d="M 2034 4250 
Q 1547 4250 1301 3770 
Q 1056 3291 1056 2328 
Q 1056 1369 1301 889 
Q 1547 409 2034 409 
Q 2525 409 2770 889 
Q 3016 1369 3016 2328 
Q 3016 3291 2770 3770 
Q 2525 4250 2034 4250 
z
M 2034 4750 
Q 2819 4750 3233 4129 
Q 3647 3509 3647 2328 
Q 3647 1150 3233 529 
Q 2819 -91 2034 -91 
Q 1250 -91 836 529 
Q 422 1150 422 2328 
Q 422 3509 836 4129 
Q 1250 4750 2034 4750 
z
" transform="scale(0.015625)"/>
        <path id="DejaVuSans-2d" d="M 313 2009 
L 1997 2009 
L 1997 1497 
L 313 1497 
L 313 2009 
z
" transform="scale(0.015625)"/>
        <path id="DejaVuSans-31" d="M 794 531 
L 1825 531 
L 1825 4091 
L 703 3866 
L 703 4441 
L 1819 4666 
L 2450 4666 
L 2450 531 
L 3481 531 
L 3481 0 
L 794 0 
L 794 531 
z
" transform="scale(0.015625)"/>
        <path id="DejaVuSans-20" transform="scale(0.015625)"/>
        <path id="DejaVuSans-28" d="M 1984 4856 
Q 1566 4138 1362 3434 
Q 1159 2731 1159 2009 
Q 1159 1288 1364 580 
Q 1569 -128 1984 -844 
L 1484 -844 
Q 1016 -109 783 600 
Q 550 1309 550 2009 
Q 550 2706 781 3412 
Q 1013 4119 1484 4856 
L 1984 4856 
z
" transform="scale(0.015625)"/>
        <path id="DejaVuSans-3a" d="M 750 794 
L 1409 794 
L 1409 0 
L 750 0 
L 750 794 
z
M 750 3309 
L 1409 3309 
L 1409 2516 
L 750 2516 
L 750 3309 
z
" transform="scale(0.015625)"/>
        <path id="DejaVuSans-29" d="M 513 4856 
L 1013 4856 
Q 1481 4119 1714 3412 
Q 1947 2706 1947 2009 
Q 1947 1309 1714 600 
Q 1481 -109 1013 -844 
L 513 -844 
Q 928 -128 1133 580 
Q 1338 1288 1338 2009 
Q 1338 2731 1133 3434 
Q 928 4138 513 4856 
z
" transform="scale(0.015625)"/>
       </defs>
       <use xlink:href="#DejaVuSans-32"/>
       <use xlink:href="#DejaVuSans-30" transform="translate(63.623047 0)"/>
       <use xlink:href="#DejaVuSans-32" transform="translate(127.246094 0)"/>
       <use xlink:href="#DejaVuSans-32" transform="translate(190.869141 0)"/>
       <use xlink:href="#DejaVuSans-2d" transform="translate(254.492188 0)"/>
       <use xlink:href="#DejaVuSans-30" transform="translate(290.576172 0)"/>
       <use xlink:href="#DejaVuSans-31" transform="translate(354.199219 0)"/>
       <use xlink:href="#DejaVuSans-2d" transform="translate(417.822266 0)"/>
       <use xlink:href="#DejaVuSans-30" transform="translate(453.90625 0)"/>
       <use xlink:href="#DejaVuSans-31" transform="translate(517.529297 0)"/>
       <use xlink:href="#DejaVuSans-20" transform="translate(581.152344 0)"/>
       <use xlink:href="#DejaVuSans-28" transform="translate(612.939453 0)"/>
       <use xlink:href="#DejaVuSans-31" transform="translate(651.953125 0)"/>
       <use xlink:href="#DejaVuSans-32" transform="translate(715.576172 0)"/>
       <use xlink:href="#DejaVuSans-3a" transform="translate(779.199219 0)"/>
       <use xlink:href="#DejaVuSans-30" transform="translate(812.890625 0)"/>
       <use xlink:href="#DejaVuSans-30" transform="translate(876.513672 0)"/>
       <use xlink:href="#DejaVuSans-29" transform="translate(940.136719 0)"/>
      </g>
     </g>
    </g>
    <g id="xtick_2">
     <g id="line2d_2">
      <g>
       <use xlink:href="#m25aa27346a" x="246.573612" y="484.397187" style="stroke: #000000; stroke-width: 0.8"/>
      </g>
     </g>
     <g id="text_2">
      <!-- 2022-03-16 (00:00) -->
      <g transform="translate(160.736349 546.93544) rotate(-30) scale(0.1 -0.1)">
       <defs>
        <path id="DejaVuSans-33" d="M 2597 2516 
Q 3050 2419 3304 2112 
Q 3559 1806 3559 1356 
Q 3559 666 3084 287 
Q 2609 -91 1734 -91 
Q 1441 -91 1130 -33 
Q 819 25 488 141 
L 488 750 
Q 750 597 1062 519 
Q 1375 441 1716 441 
Q 2309 441 2620 675 
Q 2931 909 2931 1356 
Q 2931 1769 2642 2001 
Q 2353 2234 1838 2234 
L 1294 2234 
L 1294 2753 
L 1863 2753 
Q 2328 2753 2575 2939 
Q 2822 3125 2822 3475 
Q 2822 3834 2567 4026 
Q 2313 4219 1838 4219 
Q 1578 4219 1281 4162 
Q 984 4106 628 3988 
L 628 4550 
Q 988 4650 1302 4700 
Q 1616 4750 1894 4750 
Q 2613 4750 3031 4423 
Q 3450 4097 3450 3541 
Q 3450 3153 3228 2886 
Q 3006 2619 2597 2516 
z
" transform="scale(0.015625)"/>
        <path id="DejaVuSans-36" d="M 2113 2584 
Q 1688 2584 1439 2293 
Q 1191 2003 1191 1497 
Q 1191 994 1439 701 
Q 1688 409 2113 409 
Q 2538 409 2786 701 
Q 3034 994 3034 1497 
Q 3034 2003 2786 2293 
Q 2538 2584 2113 2584 
z
M 3366 4563 
L 3366 3988 
Q 3128 4100 2886 4159 
Q 2644 4219 2406 4219 
Q 1781 4219 1451 3797 
Q 1122 3375 1075 2522 
Q 1259 2794 1537 2939 
Q 1816 3084 2150 3084 
Q 2853 3084 3261 2657 
Q 3669 2231 3669 1497 
Q 3669 778 3244 343 
Q 2819 -91 2113 -91 
Q 1303 -91 875 529 
Q 447 1150 447 2328 
Q 447 3434 972 4092 
Q 1497 4750 2381 4750 
Q 2619 4750 2861 4703 
Q 3103 4656 3366 4563 
z
" transform="scale(0.015625)"/>
       </defs>
       <use xlink:href="#DejaVuSans-32"/>
       <use xlink:href="#DejaVuSans-30" transform="translate(63.623047 0)"/>
       <use xlink:href="#DejaVuSans-32" transform="translate(127.246094 0)"/>
       <use xlink:href="#DejaVuSans-32" transform="translate(190.869141 0)"/>
       <use xlink:href="#DejaVuSans-2d" transform="translate(254.492188 0)"/>
       <use xlink:href="#DejaVuSans-30" transform="translate(290.576172 0)"/>
       <use xlink:href="#DejaVuSans-33" transform="translate(354.199219 0)"/>
       <use xlink:href="#DejaVuSans-2d" transform="translate(417.822266 0)"/>
       <use xlink:href="#DejaVuSans-31" transform="translate(453.90625 0)"/>
       <use xlink:href="#DejaVuSans-36" transform="translate(517.529297 0)"/>
       <use xlink:href="#DejaVuSans-20" transform="translate(581.152344 0)"/>
       <use xlink:href="#DejaVuSans-28" transform="translate(612.939453 0)"/>
       <use xlink:href="#DejaVuSans-30" transform="translate(651.953125 0)"/>
       <use xlink:href="#DejaVuSans-30" transform="translate(715.576172 0)"/>
       <use xlink:href="#DejaVuSans-3a" transform="translate(779.199219 0)"/>
       <use xlink:href="#DejaVuSans-30" transform="translate(812.890625 0)"/>
       <use xlink:href="#DejaVuSans-30" transform="translate(876.513672 0)"/>
       <use xlink:href="#DejaVuSans-29" transform="translate(940.136719 0)"/>
      </g>
     </g>
    </g>
    <g id="xtick_3">
     <g id="line2d_3">
      <g>
       <use xlink:href="#m25aa27346a" x="399.366602" y="484.397187" style="stroke: #000000; stroke-width: 0.8"/>
      </g>
     </g>
     <g id="text_3">
      <!-- 2022-05-30 (00:00) -->
      <g transform="translate(313.529339 546.93544) rotate(-30) scale(0.1 -0.1)">
       <defs>
        <path id="DejaVuSans-35" d="M 691 4666 
L 3169 4666 
L 3169 4134 
L 1269 4134 
L 1269 2991 
Q 1406 3038 1543 3061 
Q 1681 3084 1819 3084 
Q 2600 3084 3056 2656 
Q 3513 2228 3513 1497 
Q 3513 744 3044 326 
Q 2575 -91 1722 -91 
Q 1428 -91 1123 -41 
Q 819 9 494 109 
L 494 744 
Q 775 591 1075 516 
Q 1375 441 1709 441 
Q 2250 441 2565 725 
Q 2881 1009 2881 1497 
Q 2881 1984 2565 2268 
Q 2250 2553 1709 2553 
Q 1456 2553 1204 2497 
Q 953 2441 691 2322 
L 691 4666 
z
" transform="scale(0.015625)"/>
       </defs>
       <use xlink:href="#DejaVuSans-32"/>
       <use xlink:href="#DejaVuSans-30" transform="translate(63.623047 0)"/>
       <use xlink:href="#DejaVuSans-32" transform="translate(127.246094 0)"/>
       <use xlink:href="#DejaVuSans-32" transform="translate(190.869141 0)"/>
       <use xlink:href="#DejaVuSans-2d" transform="translate(254.492188 0)"/>
       <use xlink:href="#DejaVuSans-30" transform="translate(290.576172 0)"/>
       <use xlink:href="#DejaVuSans-35" transform="translate(354.199219 0)"/>
       <use xlink:href="#DejaVuSans-2d" transform="translate(417.822266 0)"/>
       <use xlink:href="#DejaVuSans-33" transform="translate(453.90625 0)"/>
       <use xlink:href="#DejaVuSans-30" transform="translate(517.529297 0)"/>
       <use xlink:href="#DejaVuSans-20" transform="translate(581.152344 0)"/>
       <use xlink:href="#DejaVuSans-28" transform="translate(612.939453 0)"/>
       <use xlink:href="#DejaVuSans-30" transform="translate(651.953125 0)"/>
       <use xlink:href="#DejaVuSans-30" transform="translate(715.576172 0)"/>
       <use xlink:href="#DejaVuSans-3a" transform="translate(779.199219 0)"/>
       <use xlink:href="#DejaVuSans-30" transform="translate(812.890625 0)"/>
       <use xlink:href="#DejaVuSans-30" transform="translate(876.513672 0)"/>
       <use xlink:href="#DejaVuSans-29" transform="translate(940.136719 0)"/>
      </g>
     </g>
    </g>
    <g id="xtick_4">
     <g id="line2d_4">
      <g>
       <use xlink:href="#m25aa27346a" x="552.159592" y="484.397187" style="stroke: #000000; stroke-width: 0.8"/>
      </g>
     </g>
     <g id="text_4">
      <!-- 2022-08-13 (00:00) -->
      <g transform="translate(466.322329 546.93544) rotate(-30) scale(0.1 -0.1)">
       <defs>
        <path id="DejaVuSans-38" d="M 2034 2216 
Q 1584 2216 1326 1975 
Q 1069 1734 1069 1313 
Q 1069 891 1326 650 
Q 1584 409 2034 409 
Q 2484 409 2743 651 
Q 3003 894 3003 1313 
Q 3003 1734 2745 1975 
Q 2488 2216 2034 2216 
z
M 1403 2484 
Q 997 2584 770 2862 
Q 544 3141 544 3541 
Q 544 4100 942 4425 
Q 1341 4750 2034 4750 
Q 2731 4750 3128 4425 
Q 3525 4100 3525 3541 
Q 3525 3141 3298 2862 
Q 3072 2584 2669 2484 
Q 3125 2378 3379 2068 
Q 3634 1759 3634 1313 
Q 3634 634 3220 271 
Q 2806 -91 2034 -91 
Q 1263 -91 848 271 
Q 434 634 434 1313 
Q 434 1759 690 2068 
Q 947 2378 1403 2484 
z
M 1172 3481 
Q 1172 3119 1398 2916 
Q 1625 2713 2034 2713 
Q 2441 2713 2670 2916 
Q 2900 3119 2900 3481 
Q 2900 3844 2670 4047 
Q 2441 4250 2034 4250 
Q 1625 4250 1398 4047 
Q 1172 3844 1172 3481 
z
" transform="scale(0.015625)"/>
       </defs>
       <use xlink:href="#DejaVuSans-32"/>
       <use xlink:href="#DejaVuSans-30" transform="translate(63.623047 0)"/>
       <use xlink:href="#DejaVuSans-32" transform="translate(127.246094 0)"/>
       <use xlink:href="#DejaVuSans-32" transform="translate(190.869141 0)"/>
       <use xlink:href="#DejaVuSans-2d" transform="translate(254.492188 0)"/>
       <use xlink:href="#DejaVuSans-30" transform="translate(290.576172 0)"/>
       <use xlink:href="#DejaVuSans-38" transform="translate(354.199219 0)"/>
       <use xlink:href="#DejaVuSans-2d" transform="translate(417.822266 0)"/>
       <use xlink:href="#DejaVuSans-31" transform="translate(453.90625 0)"/>
       <use xlink:href="#DejaVuSans-33" transform="translate(517.529297 0)"/>
       <use xlink:href="#DejaVuSans-20" transform="translate(581.152344 0)"/>
       <use xlink:href="#DejaVuSans-28" transform="translate(612.939453 0)"/>
       <use xlink:href="#DejaVuSans-30" transform="translate(651.953125 0)"/>
       <use xlink:href="#DejaVuSans-30" transform="translate(715.576172 0)"/>
       <use xlink:href="#DejaVuSans-3a" transform="translate(779.199219 0)"/>
       <use xlink:href="#DejaVuSans-30" transform="translate(812.890625 0)"/>
       <use xlink:href="#DejaVuSans-30" transform="translate(876.513672 0)"/>
       <use xlink:href="#DejaVuSans-29" transform="translate(940.136719 0)"/>
      </g>
     </g>
    </g>
    <g id="xtick_5">
     <g id="line2d_5">
      <g>
       <use xlink:href="#m25aa27346a" x="704.952582" y="484.397187" style="stroke: #000000; stroke-width: 0.8"/>
      </g>
     </g>
     <g id="text_5">
      <!-- 2022-10-27 (00:00) -->
      <g transform="translate(619.11532 546.93544) rotate(-30) scale(0.1 -0.1)">
       <defs>
        <path id="DejaVuSans-37" d="M 525 4666 
L 3525 4666 
L 3525 4397 
L 1831 0 
L 1172 0 
L 2766 4134 
L 525 4134 
L 525 4666 
z
" transform="scale(0.015625)"/>
       </defs>
       <use xlink:href="#DejaVuSans-32"/>
       <use xlink:href="#DejaVuSans-30" transform="translate(63.623047 0)"/>
       <use xlink:href="#DejaVuSans-32" transform="translate(127.246094 0)"/>
       <use xlink:href="#DejaVuSans-32" transform="translate(190.869141 0)"/>
       <use xlink:href="#DejaVuSans-2d" transform="translate(254.492188 0)"/>
       <use xlink:href="#DejaVuSans-31" transform="translate(290.576172 0)"/>
       <use xlink:href="#DejaVuSans-30" transform="translate(354.199219 0)"/>
       <use xlink:href="#DejaVuSans-2d" transform="translate(417.822266 0)"/>
       <use xlink:href="#DejaVuSans-32" transform="translate(453.90625 0)"/>
       <use xlink:href="#DejaVuSans-37" transform="translate(517.529297 0)"/>
       <use xlink:href="#DejaVuSans-20" transform="translate(581.152344 0)"/>
       <use xlink:href="#DejaVuSans-28" transform="translate(612.939453 0)"/>
       <use xlink:href="#DejaVuSans-30" transform="translate(651.953125 0)"/>
       <use xlink:href="#DejaVuSans-30" transform="translate(715.576172 0)"/>
       <use xlink:href="#DejaVuSans-3a" transform="translate(779.199219 0)"/>
       <use xlink:href="#DejaVuSans-30" transform="translate(812.890625 0)"/>
       <use xlink:href="#DejaVuSans-30" transform="translate(876.513672 0)"/>
       <use xlink:href="#DejaVuSans-29" transform="translate(940.136719 0)"/>
      </g>
     </g>
    </g>
    <g id="xtick_6">
     <g id="line2d_6">
      <g>
       <use xlink:href="#m25aa27346a" x="857.745572" y="484.397187" style="stroke: #000000; stroke-width: 0.8"/>
      </g>
     </g>
     <g id="text_6">
      <!-- 2023-01-10 (00:00) -->
      <g transform="translate(771.90831 546.93544) rotate(-30) scale(0.1 -0.1)">
       <use xlink:href="#DejaVuSans-32"/>
       <use xlink:href="#DejaVuSans-30" transform="translate(63.623047 0)"/>
       <use xlink:href="#DejaVuSans-32" transform="translate(127.246094 0)"/>
       <use xlink:href="#DejaVuSans-33" transform="translate(190.869141 0)"/>
       <use xlink:href="#DejaVuSans-2d" transform="translate(254.492188 0)"/>
       <use xlink:href="#DejaVuSans-30" transform="translate(290.576172 0)"/>
       <use xlink:href="#DejaVuSans-31" transform="translate(354.199219 0)"/>
       <use xlink:href="#DejaVuSans-2d" transform="translate(417.822266 0)"/>
       <use xlink:href="#DejaVuSans-31" transform="translate(453.90625 0)"/>
       <use xlink:href="#DejaVuSans-30" transform="translate(517.529297 0)"/>
       <use xlink:href="#DejaVuSans-20" transform="translate(581.152344 0)"/>
       <use xlink:href="#DejaVuSans-28" transform="translate(612.939453 0)"/>
       <use xlink:href="#DejaVuSans-30" transform="translate(651.953125 0)"/>
       <use xlink:href="#DejaVuSans-30" transform="translate(715.576172 0)"/>
       <use xlink:href="#DejaVuSans-3a" transform="translate(779.199219 0)"/>
       <use xlink:href="#DejaVuSans-30" transform="translate(812.890625 0)"/>
       <use xlink:href="#DejaVuSans-30" transform="translate(876.513672 0)"/>
       <use xlink:href="#DejaVuSans-29" transform="translate(940.136719 0)"/>
      </g>
     </g>
    </g>
    <g id="text_7">
     <!-- Forecast Date -->
     <g transform="translate(421.784777 564.894002) scale(0.16 -0.16)">
      <defs>
       <path id="DejaVuSans-46" d="M 628 4666 
L 3309 4666 
L 3309 4134 
L 1259 4134 
L 1259 2759 
L 3109 2759 
L 3109 2228 
L 1259 2228 
L 1259 0 
L 628 0 
L 628 4666 
z
" transform="scale(0.015625)"/>
       <path id="DejaVuSans-6f" d="M 1959 3097 
Q 1497 3097 1228 2736 
Q 959 2375 959 1747 
Q 959 1119 1226 758 
Q 1494 397 1959 397 
Q 2419 397 2687 759 
Q 2956 1122 2956 1747 
Q 2956 2369 2687 2733 
Q 2419 3097 1959 3097 
z
M 1959 3584 
Q 2709 3584 3137 3096 
Q 3566 2609 3566 1747 
Q 3566 888 3137 398 
Q 2709 -91 1959 -91 
Q 1206 -91 779 398 
Q 353 888 353 1747 
Q 353 2609 779 3096 
Q 1206 3584 1959 3584 
z
" transform="scale(0.015625)"/>
       <path id="DejaVuSans-72" d="M 2631 2963 
Q 2534 3019 2420 3045 
Q 2306 3072 2169 3072 
Q 1681 3072 1420 2755 
Q 1159 2438 1159 1844 
L 1159 0 
L 581 0 
L 581 3500 
L 1159 3500 
L 1159 2956 
Q 1341 3275 1631 3429 
Q 1922 3584 2338 3584 
Q 2397 3584 2469 3576 
Q 2541 3569 2628 3553 
L 2631 2963 
z
" transform="scale(0.015625)"/>
       <path id="DejaVuSans-65" d="M 3597 1894 
L 3597 1613 
L 953 1613 
Q 991 1019 1311 708 
Q 1631 397 2203 397 
Q 2534 397 2845 478 
Q 3156 559 3463 722 
L 3463 178 
Q 3153 47 2828 -22 
Q 2503 -91 2169 -91 
Q 1331 -91 842 396 
Q 353 884 353 1716 
Q 353 2575 817 3079 
Q 1281 3584 2069 3584 
Q 2775 3584 3186 3129 
Q 3597 2675 3597 1894 
z
M 3022 2063 
Q 3016 2534 2758 2815 
Q 2500 3097 2075 3097 
Q 1594 3097 1305 2825 
Q 1016 2553 972 2059 
L 3022 2063 
z
" transform="scale(0.015625)"/>
       <path id="DejaVuSans-63" d="M 3122 3366 
L 3122 2828 
Q 2878 2963 2633 3030 
Q 2388 3097 2138 3097 
Q 1578 3097 1268 2742 
Q 959 2388 959 1747 
Q 959 1106 1268 751 
Q 1578 397 2138 397 
Q 2388 397 2633 464 
Q 2878 531 3122 666 
L 3122 134 
Q 2881 22 2623 -34 
Q 2366 -91 2075 -91 
Q 1284 -91 818 406 
Q 353 903 353 1747 
Q 353 2603 823 3093 
Q 1294 3584 2113 3584 
Q 2378 3584 2631 3529 
Q 2884 3475 3122 3366 
z
" transform="scale(0.015625)"/>
       <path id="DejaVuSans-61" d="M 2194 1759 
Q 1497 1759 1228 1600 
Q 959 1441 959 1056 
Q 959 750 1161 570 
Q 1363 391 1709 391 
Q 2188 391 2477 730 
Q 2766 1069 2766 1631 
L 2766 1759 
L 2194 1759 
z
M 3341 1997 
L 3341 0 
L 2766 0 
L 2766 531 
Q 2569 213 2275 61 
Q 1981 -91 1556 -91 
Q 1019 -91 701 211 
Q 384 513 384 1019 
Q 384 1609 779 1909 
Q 1175 2209 1959 2209 
L 2766 2209 
L 2766 2266 
Q 2766 2663 2505 2880 
Q 2244 3097 1772 3097 
Q 1472 3097 1187 3025 
Q 903 2953 641 2809 
L 641 3341 
Q 956 3463 1253 3523 
Q 1550 3584 1831 3584 
Q 2591 3584 2966 3190 
Q 3341 2797 3341 1997 
z
" transform="scale(0.015625)"/>
       <path id="DejaVuSans-73" d="M 2834 3397 
L 2834 2853 
Q 2591 2978 2328 3040 
Q 2066 3103 1784 3103 
Q 1356 3103 1142 2972 
Q 928 2841 928 2578 
Q 928 2378 1081 2264 
Q 1234 2150 1697 2047 
L 1894 2003 
Q 2506 1872 2764 1633 
Q 3022 1394 3022 966 
Q 3022 478 2636 193 
Q 2250 -91 1575 -91 
Q 1294 -91 989 -36 
Q 684 19 347 128 
L 347 722 
Q 666 556 975 473 
Q 1284 391 1588 391 
Q 1994 391 2212 530 
Q 2431 669 2431 922 
Q 2431 1156 2273 1281 
Q 2116 1406 1581 1522 
L 1381 1569 
Q 847 1681 609 1914 
Q 372 2147 372 2553 
Q 372 3047 722 3315 
Q 1072 3584 1716 3584 
Q 2034 3584 2315 3537 
Q 2597 3491 2834 3397 
z
" transform="scale(0.015625)"/>
       <path id="DejaVuSans-74" d="M 1172 4494 
L 1172 3500 
L 2356 3500 
L 2356 3053 
L 1172 3053 
L 1172 1153 
Q 1172 725 1289 603 
Q 1406 481 1766 481 
L 2356 481 
L 2356 0 
L 1766 0 
Q 1100 0 847 248 
Q 594 497 594 1153 
L 594 3053 
L 172 3053 
L 172 3500 
L 594 3500 
L 594 4494 
L 1172 4494 
z
" transform="scale(0.015625)"/>
       <path id="DejaVuSans-44" d="M 1259 4147 
L 1259 519 
L 2022 519 
Q 2988 519 3436 956 
Q 3884 1394 3884 2338 
Q 3884 3275 3436 3711 
Q 2988 4147 2022 4147 
L 1259 4147 
z
M 628 4666 
L 1925 4666 
Q 3281 4666 3915 4102 
Q 4550 3538 4550 2338 
Q 4550 1131 3912 565 
Q 3275 0 1925 0 
L 628 0 
L 628 4666 
z
" transform="scale(0.015625)"/>
      </defs>
      <use xlink:href="#DejaVuSans-46"/>
      <use xlink:href="#DejaVuSans-6f" transform="translate(53.894531 0)"/>
      <use xlink:href="#DejaVuSans-72" transform="translate(115.076172 0)"/>
      <use xlink:href="#DejaVuSans-65" transform="translate(153.939453 0)"/>
      <use xlink:href="#DejaVuSans-63" transform="translate(215.462891 0)"/>
      <use xlink:href="#DejaVuSans-61" transform="translate(270.443359 0)"/>
      <use xlink:href="#DejaVuSans-73" transform="translate(331.722656 0)"/>
      <use xlink:href="#DejaVuSans-74" transform="translate(383.822266 0)"/>
      <use xlink:href="#DejaVuSans-20" transform="translate(423.03125 0)"/>
      <use xlink:href="#DejaVuSans-44" transform="translate(454.818359 0)"/>
      <use xlink:href="#DejaVuSans-61" transform="translate(531.820312 0)"/>
      <use xlink:href="#DejaVuSans-74" transform="translate(593.099609 0)"/>
      <use xlink:href="#DejaVuSans-65" transform="translate(632.308594 0)"/>
     </g>
    </g>
   </g>
   <g id="matplotlib.axis_2">
    <g id="ytick_1">
     <g id="line2d_7">
      <defs>
       <path id="m5feffccc01" d="M 0 0 
L -3.5 0 
" style="stroke: #000000; stroke-width: 0.8"/>
      </defs>
      <g>
       <use xlink:href="#m5feffccc01" x="58.791027" y="459.132114" style="stroke: #000000; stroke-width: 0.8"/>
      </g>
     </g>
     <g id="text_8">
      <!-- 2 -->
      <g transform="translate(45.428527 462.931332) scale(0.1 -0.1)">
       <use xlink:href="#DejaVuSans-32"/>
      </g>
     </g>
    </g>
    <g id="ytick_2">
     <g id="line2d_8">
      <g>
       <use xlink:href="#m5feffccc01" x="58.791027" y="376.042029" style="stroke: #000000; stroke-width: 0.8"/>
      </g>
     </g>
     <g id="text_9">
      <!-- 4 -->
      <g transform="translate(45.428527 379.841248) scale(0.1 -0.1)">
       <defs>
        <path id="DejaVuSans-34" d="M 2419 4116 
L 825 1625 
L 2419 1625 
L 2419 4116 
z
M 2253 4666 
L 3047 4666 
L 3047 1625 
L 3713 1625 
L 3713 1100 
L 3047 1100 
L 3047 0 
L 2419 0 
L 2419 1100 
L 313 1100 
L 313 1709 
L 2253 4666 
z
" transform="scale(0.015625)"/>
       </defs>
       <use xlink:href="#DejaVuSans-34"/>
      </g>
     </g>
    </g>
    <g id="ytick_3">
     <g id="line2d_9">
      <g>
       <use xlink:href="#m5feffccc01" x="58.791027" y="292.951945" style="stroke: #000000; stroke-width: 0.8"/>
      </g>
     </g>
     <g id="text_10">
      <!-- 6 -->
      <g transform="translate(45.428527 296.751164) scale(0.1 -0.1)">
       <use xlink:href="#DejaVuSans-36"/>
      </g>
     </g>
    </g>
    <g id="ytick_4">
     <g id="line2d_10">
      <g>
       <use xlink:href="#m5feffccc01" x="58.791027" y="209.86186" style="stroke: #000000; stroke-width: 0.8"/>
      </g>
     </g>
     <g id="text_11">
      <!-- 8 -->
      <g transform="translate(45.428527 213.661079) scale(0.1 -0.1)">
       <use xlink:href="#DejaVuSans-38"/>
      </g>
     </g>
    </g>
    <g id="ytick_5">
     <g id="line2d_11">
      <g>
       <use xlink:href="#m5feffccc01" x="58.791027" y="126.771776" style="stroke: #000000; stroke-width: 0.8"/>
      </g>
     </g>
     <g id="text_12">
      <!-- 10 -->
      <g transform="translate(39.066027 130.570995) scale(0.1 -0.1)">
       <use xlink:href="#DejaVuSans-31"/>
       <use xlink:href="#DejaVuSans-30" transform="translate(63.623047 0)"/>
      </g>
     </g>
    </g>
    <g id="ytick_6">
     <g id="line2d_12">
      <g>
       <use xlink:href="#m5feffccc01" x="58.791027" y="43.681692" style="stroke: #000000; stroke-width: 0.8"/>
      </g>
     </g>
     <g id="text_13">
      <!-- 12 -->
      <g transform="translate(39.066027 47.48091) scale(0.1 -0.1)">
       <use xlink:href="#DejaVuSans-31"/>
       <use xlink:href="#DejaVuSans-32" transform="translate(63.623047 0)"/>
      </g>
     </g>
    </g>
    <g id="text_14">
     <!-- Root Mean Squared Error (RMSE) -->
     <g transform="translate(31.738527 394.303437) rotate(-90) scale(0.16 -0.16)">
      <defs>
       <path id="DejaVuSans-52" d="M 2841 2188 
Q 3044 2119 3236 1894 
Q 3428 1669 3622 1275 
L 4263 0 
L 3584 0 
L 2988 1197 
Q 2756 1666 2539 1819 
Q 2322 1972 1947 1972 
L 1259 1972 
L 1259 0 
L 628 0 
L 628 4666 
L 2053 4666 
Q 2853 4666 3247 4331 
Q 3641 3997 3641 3322 
Q 3641 2881 3436 2590 
Q 3231 2300 2841 2188 
z
M 1259 4147 
L 1259 2491 
L 2053 2491 
Q 2509 2491 2742 2702 
Q 2975 2913 2975 3322 
Q 2975 3731 2742 3939 
Q 2509 4147 2053 4147 
L 1259 4147 
z
" transform="scale(0.015625)"/>
       <path id="DejaVuSans-4d" d="M 628 4666 
L 1569 4666 
L 2759 1491 
L 3956 4666 
L 4897 4666 
L 4897 0 
L 4281 0 
L 4281 4097 
L 3078 897 
L 2444 897 
L 1241 4097 
L 1241 0 
L 628 0 
L 628 4666 
z
" transform="scale(0.015625)"/>
       <path id="DejaVuSans-6e" d="M 3513 2113 
L 3513 0 
L 2938 0 
L 2938 2094 
Q 2938 2591 2744 2837 
Q 2550 3084 2163 3084 
Q 1697 3084 1428 2787 
Q 1159 2491 1159 1978 
L 1159 0 
L 581 0 
L 581 3500 
L 1159 3500 
L 1159 2956 
Q 1366 3272 1645 3428 
Q 1925 3584 2291 3584 
Q 2894 3584 3203 3211 
Q 3513 2838 3513 2113 
z
" transform="scale(0.015625)"/>
       <path id="DejaVuSans-53" d="M 3425 4513 
L 3425 3897 
Q 3066 4069 2747 4153 
Q 2428 4238 2131 4238 
Q 1616 4238 1336 4038 
Q 1056 3838 1056 3469 
Q 1056 3159 1242 3001 
Q 1428 2844 1947 2747 
L 2328 2669 
Q 3034 2534 3370 2195 
Q 3706 1856 3706 1288 
Q 3706 609 3251 259 
Q 2797 -91 1919 -91 
Q 1588 -91 1214 -16 
Q 841 59 441 206 
L 441 856 
Q 825 641 1194 531 
Q 1563 422 1919 422 
Q 2459 422 2753 634 
Q 3047 847 3047 1241 
Q 3047 1584 2836 1778 
Q 2625 1972 2144 2069 
L 1759 2144 
Q 1053 2284 737 2584 
Q 422 2884 422 3419 
Q 422 4038 858 4394 
Q 1294 4750 2059 4750 
Q 2388 4750 2728 4690 
Q 3069 4631 3425 4513 
z
" transform="scale(0.015625)"/>
       <path id="DejaVuSans-71" d="M 947 1747 
Q 947 1113 1208 752 
Q 1469 391 1925 391 
Q 2381 391 2643 752 
Q 2906 1113 2906 1747 
Q 2906 2381 2643 2742 
Q 2381 3103 1925 3103 
Q 1469 3103 1208 2742 
Q 947 2381 947 1747 
z
M 2906 525 
Q 2725 213 2448 61 
Q 2172 -91 1784 -91 
Q 1150 -91 751 415 
Q 353 922 353 1747 
Q 353 2572 751 3078 
Q 1150 3584 1784 3584 
Q 2172 3584 2448 3432 
Q 2725 3281 2906 2969 
L 2906 3500 
L 3481 3500 
L 3481 -1331 
L 2906 -1331 
L 2906 525 
z
" transform="scale(0.015625)"/>
       <path id="DejaVuSans-75" d="M 544 1381 
L 544 3500 
L 1119 3500 
L 1119 1403 
Q 1119 906 1312 657 
Q 1506 409 1894 409 
Q 2359 409 2629 706 
Q 2900 1003 2900 1516 
L 2900 3500 
L 3475 3500 
L 3475 0 
L 2900 0 
L 2900 538 
Q 2691 219 2414 64 
Q 2138 -91 1772 -91 
Q 1169 -91 856 284 
Q 544 659 544 1381 
z
M 1991 3584 
L 1991 3584 
z
" transform="scale(0.015625)"/>
       <path id="DejaVuSans-64" d="M 2906 2969 
L 2906 4863 
L 3481 4863 
L 3481 0 
L 2906 0 
L 2906 525 
Q 2725 213 2448 61 
Q 2172 -91 1784 -91 
Q 1150 -91 751 415 
Q 353 922 353 1747 
Q 353 2572 751 3078 
Q 1150 3584 1784 3584 
Q 2172 3584 2448 3432 
Q 2725 3281 2906 2969 
z
M 947 1747 
Q 947 1113 1208 752 
Q 1469 391 1925 391 
Q 2381 391 2643 752 
Q 2906 1113 2906 1747 
Q 2906 2381 2643 2742 
Q 2381 3103 1925 3103 
Q 1469 3103 1208 2742 
Q 947 2381 947 1747 
z
" transform="scale(0.015625)"/>
       <path id="DejaVuSans-45" d="M 628 4666 
L 3578 4666 
L 3578 4134 
L 1259 4134 
L 1259 2753 
L 3481 2753 
L 3481 2222 
L 1259 2222 
L 1259 531 
L 3634 531 
L 3634 0 
L 628 0 
L 628 4666 
z
" transform="scale(0.015625)"/>
      </defs>
      <use xlink:href="#DejaVuSans-52"/>
      <use xlink:href="#DejaVuSans-6f" transform="translate(64.982422 0)"/>
      <use xlink:href="#DejaVuSans-6f" transform="translate(126.164062 0)"/>
      <use xlink:href="#DejaVuSans-74" transform="translate(187.345703 0)"/>
      <use xlink:href="#DejaVuSans-20" transform="translate(226.554688 0)"/>
      <use xlink:href="#DejaVuSans-4d" transform="translate(258.341797 0)"/>
      <use xlink:href="#DejaVuSans-65" transform="translate(344.621094 0)"/>
      <use xlink:href="#DejaVuSans-61" transform="translate(406.144531 0)"/>
      <use xlink:href="#DejaVuSans-6e" transform="translate(467.423828 0)"/>
      <use xlink:href="#DejaVuSans-20" transform="translate(530.802734 0)"/>
      <use xlink:href="#DejaVuSans-53" transform="translate(562.589844 0)"/>
      <use xlink:href="#DejaVuSans-71" transform="translate(626.066406 0)"/>
      <use xlink:href="#DejaVuSans-75" transform="translate(689.542969 0)"/>
      <use xlink:href="#DejaVuSans-61" transform="translate(752.921875 0)"/>
      <use xlink:href="#DejaVuSans-72" transform="translate(814.201172 0)"/>
      <use xlink:href="#DejaVuSans-65" transform="translate(853.064453 0)"/>
      <use xlink:href="#DejaVuSans-64" transform="translate(914.587891 0)"/>
      <use xlink:href="#DejaVuSans-20" transform="translate(978.064453 0)"/>
      <use xlink:href="#DejaVuSans-45" transform="translate(1009.851562 0)"/>
      <use xlink:href="#DejaVuSans-72" transform="translate(1073.035156 0)"/>
      <use xlink:href="#DejaVuSans-72" transform="translate(1112.398438 0)"/>
      <use xlink:href="#DejaVuSans-6f" transform="translate(1151.261719 0)"/>
      <use xlink:href="#DejaVuSans-72" transform="translate(1212.443359 0)"/>
      <use xlink:href="#DejaVuSans-20" transform="translate(1253.556641 0)"/>
      <use xlink:href="#DejaVuSans-28" transform="translate(1285.34375 0)"/>
      <use xlink:href="#DejaVuSans-52" transform="translate(1324.357422 0)"/>
      <use xlink:href="#DejaVuSans-4d" transform="translate(1393.839844 0)"/>
      <use xlink:href="#DejaVuSans-53" transform="translate(1480.119141 0)"/>
      <use xlink:href="#DejaVuSans-45" transform="translate(1543.595703 0)"/>
      <use xlink:href="#DejaVuSans-29" transform="translate(1606.779297 0)"/>
     </g>
    </g>
   </g>
   <g id="line2d_13">
    <path d="M 96.836481 297.654931 
L 99.892341 318.277389 
L 102.948201 305.526482 
L 106.004061 279.200027 
L 109.05992 292.615231 
L 112.11578 302.263858 
L 115.17164 305.265839 
L 118.2275 311.983088 
L 121.28336 308.783995 
L 124.339219 309.229487 
L 127.395079 289.593102 
L 130.450939 290.741738 
L 133.506799 282.372277 
L 136.562659 292.977579 
L 139.618518 292.499598 
L 142.674378 298.80634 
L 145.730238 325.417151 
L 148.786098 318.286561 
L 151.841958 311.935841 
L 154.897817 302.148443 
L 157.953677 302.554691 
L 161.009537 308.423826 
L 164.065397 311.854322 
L 167.121257 305.351419 
L 170.177116 320.010427 
L 173.232976 316.384463 
L 176.288836 316.44538 
L 179.344696 324.357879 
L 182.400556 315.606476 
L 185.456415 299.59443 
L 188.512275 303.107317 
L 191.568135 308.281152 
L 194.623995 295.839443 
L 197.679855 297.684309 
L 200.735714 301.6436 
L 203.791574 304.78245 
L 206.847434 314.329747 
L 209.903294 307.601583 
L 212.959154 312.687975 
L 216.015013 320.321408 
L 219.070873 314.286026 
L 222.126733 309.749486 
L 225.182593 304.199039 
L 228.238453 310.063458 
L 231.294313 306.217542 
L 234.350172 322.77532 
L 237.406032 322.676486 
L 240.461892 279.476994 
L 243.517752 271.94394 
L 246.573612 312.558852 
L 249.629471 306.141985 
L 252.685331 297.022886 
L 255.741191 292.189766 
L 258.797051 291.167024 
L 261.852911 299.258211 
L 264.90877 319.346765 
L 267.96463 308.224673 
L 271.02049 276.57963 
L 274.07635 269.868284 
L 277.13221 280.706713 
L 280.188069 289.946279 
L 283.243929 311.431255 
L 286.299789 303.255577 
L 289.355649 308.00369 
L 292.411509 297.490347 
L 295.467368 316.88691 
L 298.523228 312.960346 
L 301.579088 301.943705 
L 304.634948 310.448252 
L 307.690808 330.248329 
L 310.746667 305.166094 
L 313.802527 293.828408 
L 316.858387 303.054444 
L 319.914247 286.039387 
L 322.970107 296.290244 
L 326.025966 305.045787 
L 329.081826 322.290068 
L 335.193546 313.651465 
L 338.249406 297.821495 
L 341.305265 308.586269 
L 344.361125 306.229844 
L 347.416985 299.319782 
L 350.472845 310.260431 
L 353.528705 303.517805 
L 356.584564 305.591539 
L 359.640424 312.18016 
L 362.696284 310.502849 
L 365.752144 330.027484 
L 368.808004 299.668976 
L 371.863863 280.926408 
L 374.919723 299.321267 
L 377.975583 308.063894 
L 381.031443 294.999014 
L 384.087303 280.876467 
L 387.143162 305.480126 
L 390.199022 314.626128 
L 393.254882 329.710917 
L 396.310742 328.793367 
L 399.366602 318.906998 
L 402.422461 288.206426 
L 405.478321 302.719611 
L 408.534181 308.904124 
L 411.590041 311.720603 
L 414.645901 306.029721 
L 417.70176 332.208946 
L 420.75762 320.694474 
L 423.81348 303.203456 
L 426.86934 317.431216 
L 429.9252 315.215086 
L 432.981059 303.514972 
L 436.036919 297.36584 
L 439.092779 278.820107 
L 442.148639 284.193609 
L 445.204499 304.91183 
L 448.260359 334.703905 
L 451.316218 314.889228 
L 454.372078 314.014349 
L 457.427938 318.850895 
L 460.483798 327.801608 
L 463.539658 315.113162 
L 466.595517 303.72286 
L 469.651377 299.552968 
L 472.707237 314.996025 
L 475.763097 307.482325 
L 478.818957 281.887382 
L 481.874816 268.179721 
L 484.930676 262.217637 
L 487.986536 271.080373 
L 491.042396 304.311283 
L 494.098256 284.253951 
L 497.154115 285.380023 
L 500.209975 284.138002 
L 503.265835 318.107081 
L 506.321695 335.184758 
L 509.377555 307.268573 
L 512.433414 311.183429 
L 515.489274 316.909553 
L 518.545134 310.937564 
L 521.600994 310.591975 
L 524.656854 309.768365 
L 527.712713 294.029442 
L 530.768573 309.976471 
L 533.824433 309.728764 
L 536.880293 298.985603 
L 539.936153 282.998736 
L 542.992012 301.690946 
L 546.047872 314.821219 
L 549.103732 302.266572 
L 552.159592 307.393258 
L 555.215452 318.031921 
L 558.271311 309.822269 
L 561.327171 288.601502 
L 564.383031 289.796692 
L 567.438891 298.288045 
L 570.494751 294.216609 
L 573.55061 304.66343 
L 576.60647 316.605664 
L 579.66233 313.399658 
L 582.71819 313.763809 
L 585.77405 296.690213 
L 588.829909 318.029544 
L 591.885769 309.684528 
L 594.941629 289.939484 
L 597.997489 276.1611 
L 601.053349 267.346839 
L 604.109208 279.45437 
L 607.165068 306.367426 
L 610.220928 316.382185 
L 613.276788 295.55368 
L 616.332648 267.051291 
L 619.388507 278.797147 
L 622.444367 323.614599 
L 625.500227 326.642809 
L 628.556087 316.292722 
L 631.611947 312.334819 
L 634.667806 309.627475 
L 637.723666 294.117004 
L 640.779526 287.666895 
L 643.835386 278.511226 
L 646.891246 271.734942 
L 649.947105 274.319066 
L 653.002965 294.712737 
L 656.058825 303.09133 
L 659.114685 278.56299 
L 662.170545 278.677037 
L 665.226405 276.11195 
L 668.282264 289.310688 
L 671.338124 299.896358 
L 674.393984 278.262825 
L 677.449844 292.358985 
L 680.505704 273.968861 
L 683.561563 275.783061 
L 686.617423 283.119063 
L 689.673283 291.161557 
L 692.729143 312.64788 
L 695.785003 299.133922 
L 698.840862 313.678427 
L 701.896722 336.016352 
L 704.952582 330.145474 
L 708.008442 302.218987 
L 711.064302 276.085385 
L 714.120161 261.905012 
L 717.176021 281.019338 
L 720.231881 309.696494 
L 723.287741 288.02025 
L 726.343601 305.517845 
L 729.39946 310.240462 
L 732.45532 306.51832 
L 735.51118 300.725752 
L 738.56704 322.765791 
L 741.6229 313.661668 
L 744.678759 292.922685 
L 747.734619 308.013516 
L 750.790479 301.8168 
L 753.846339 310.132695 
L 756.902199 314.963635 
L 759.958058 312.474837 
L 763.013918 298.746177 
L 766.069778 310.27519 
L 769.125638 286.020805 
L 772.181498 306.850478 
L 775.237357 287.710359 
L 778.293217 303.98386 
L 781.349077 300.664678 
L 784.404937 321.328916 
L 787.460797 298.947429 
L 790.516656 293.045053 
L 793.572516 315.562894 
L 796.628376 294.634229 
L 799.684236 290.461562 
L 802.740096 294.473132 
L 805.795955 304.954878 
L 808.851815 324.688551 
L 811.907675 340.497938 
L 814.963535 332.561093 
L 818.019395 320.789325 
L 821.075254 293.468655 
L 824.131114 328.975938 
L 827.186974 322.146959 
L 830.242834 301.770326 
L 833.298694 302.516893 
L 836.354553 332.055021 
L 839.410413 337.401027 
L 842.466273 327.252033 
L 845.522133 325.078911 
L 848.577993 330.770388 
L 851.633852 318.173108 
L 854.689712 318.125148 
L 857.745572 316.212669 
L 857.745572 316.212669 
" clip-path="url(#pf826b4b5be)" style="fill: none; stroke: #0000ff; stroke-width: 2; stroke-linecap: square"/>
   </g>
   <g id="line2d_14">
    <path d="M 96.836481 387.910589 
L 99.892341 315.938634 
L 102.948201 314.033525 
L 106.004061 317.943726 
L 109.05992 369.576271 
L 112.11578 412.965377 
L 115.17164 379.192954 
L 118.2275 286.329606 
L 121.28336 353.623398 
L 124.339219 416.107496 
L 127.395079 395.44187 
L 130.450939 391.612951 
L 133.506799 395.558127 
L 136.562659 370.698222 
L 139.618518 400.724692 
L 142.674378 397.027164 
L 145.730238 342.064709 
L 148.786098 362.549883 
L 151.841958 380.329407 
L 154.897817 312.343872 
L 157.953677 368.535798 
L 161.009537 420.756558 
L 164.065397 363.467591 
L 167.121257 210.464309 
L 170.177116 284.116111 
L 173.232976 391.857964 
L 176.288836 392.526133 
L 179.344696 386.6454 
L 182.400556 444.690602 
L 185.456415 418.793831 
L 188.512275 302.138459 
L 191.568135 279.629889 
L 194.623995 264.312548 
L 197.679855 278.894573 
L 200.735714 363.410558 
L 203.791574 430.467736 
L 206.847434 430.604426 
L 209.903294 390.689795 
L 212.959154 406.587714 
L 216.015013 416.299348 
L 219.070873 406.785608 
L 222.126733 371.733881 
L 225.182593 326.0864 
L 228.238453 371.511373 
L 231.294313 358.760762 
L 234.350172 354.586214 
L 237.406032 410.710984 
L 240.461892 353.446076 
L 243.517752 202.779707 
L 246.573612 253.415124 
L 249.629471 416.76784 
L 252.685331 392.063267 
L 255.741191 424.616104 
L 258.797051 453.320518 
L 261.852911 455.199874 
L 264.90877 316.959594 
L 267.96463 341.720645 
L 271.02049 368.716705 
L 274.07635 287.714182 
L 277.13221 266.12653 
L 280.188069 336.80983 
L 283.243929 416.846268 
L 286.299789 289.615745 
L 289.355649 311.598413 
L 292.411509 332.572206 
L 295.467368 364.300571 
L 298.523228 362.271906 
L 301.579088 432.670989 
L 304.634948 381.328119 
L 307.690808 357.398592 
L 310.746667 365.352296 
L 313.802527 306.362414 
L 316.858387 410.713836 
L 319.914247 362.979487 
L 322.970107 329.779421 
L 326.025966 336.496849 
L 329.081826 360.509252 
L 332.137686 398.133475 
L 335.193546 305.384938 
L 338.249406 303.052284 
L 341.305265 224.197011 
L 344.361125 370.62954 
L 347.416985 336.41943 
L 350.472845 432.712967 
L 353.528705 298.345396 
L 356.584564 304.906343 
L 359.640424 373.866392 
L 362.696284 377.193518 
L 365.752144 438.8922 
L 368.808004 302.073145 
L 371.863863 317.562755 
L 374.919723 412.754953 
L 377.975583 383.719222 
L 381.031443 177.613239 
L 384.087303 268.754455 
L 387.143162 405.315621 
L 390.199022 420.497837 
L 393.254882 418.940179 
L 396.310742 271.563465 
L 399.366602 275.930608 
L 402.422461 350.51767 
L 405.478321 303.269127 
L 408.534181 353.923483 
L 411.590041 379.184435 
L 414.645901 289.856222 
L 417.70176 415.952164 
L 420.75762 279.093745 
L 423.81348 315.429433 
L 426.86934 311.857075 
L 429.9252 406.692164 
L 432.981059 172.759775 
L 436.036919 195.397032 
L 439.092779 155.946762 
L 442.148639 177.731784 
L 445.204499 301.524897 
L 448.260359 397.352229 
L 451.316218 211.687966 
L 454.372078 256.223777 
L 457.427938 388.641606 
L 460.483798 353.948721 
L 463.539658 416.434652 
L 466.595517 347.518621 
L 469.651377 297.481136 
L 472.707237 286.021339 
L 475.763097 372.628431 
L 478.818957 377.660762 
L 481.874816 389.160783 
L 484.930676 251.568217 
L 487.986536 301.087923 
L 491.042396 393.080324 
L 494.098256 264.666873 
L 497.154115 252.237387 
L 500.209975 389.639952 
L 503.265835 319.827499 
L 506.321695 291.855647 
L 509.377555 369.259386 
L 512.433414 169.777188 
L 515.489274 277.022428 
L 518.545134 224.151507 
L 521.600994 370.610919 
L 524.656854 258.552191 
L 527.712713 266.599439 
L 530.768573 288.068726 
L 533.824433 358.246291 
L 536.880293 329.525949 
L 539.936153 373.738517 
L 542.992012 323.663729 
L 546.047872 347.787782 
L 549.103732 379.883231 
L 555.215452 357.075646 
L 558.271311 222.770299 
L 561.327171 188.98696 
L 564.383031 140.144863 
L 567.438891 368.917422 
L 570.494751 360.594158 
L 573.55061 429.107715 
L 576.60647 271.45746 
L 579.66233 211.897638 
L 582.71819 405.970567 
L 585.77405 414.272227 
L 588.829909 194.121809 
L 591.885769 81.867951 
L 594.941629 249.349037 
L 597.997489 323.736809 
L 601.053349 246.205115 
L 604.109208 320.545759 
L 607.165068 311.895725 
L 610.220928 405.100621 
L 613.276788 302.388662 
L 616.332648 378.55868 
L 619.388507 251.791261 
L 622.444367 393.538356 
L 625.500227 375.389461 
L 628.556087 354.097357 
L 631.611947 283.060088 
L 634.667806 239.359733 
L 637.723666 287.784707 
L 640.779526 277.791897 
L 643.835386 342.729976 
L 646.891246 264.095487 
L 649.947105 359.255166 
L 653.002965 347.115463 
L 656.058825 363.055222 
L 659.114685 348.665712 
L 662.170545 306.97558 
L 665.226405 245.868639 
L 668.282264 254.593535 
L 671.338124 286.156485 
L 674.393984 226.169832 
L 677.449844 352.742001 
L 680.505704 293.692411 
L 683.561563 262.900654 
L 686.617423 280.086614 
L 689.673283 400.961473 
L 692.729143 372.993751 
L 695.785003 287.905588 
L 698.840862 364.177768 
L 701.896722 376.720965 
L 704.952582 339.336128 
L 708.008442 393.872465 
L 711.064302 164.038801 
L 714.120161 155.171786 
L 717.176021 284.146659 
L 720.231881 340.267902 
L 723.287741 423.25326 
L 726.343601 280.673808 
L 729.39946 302.086318 
L 732.45532 350.069028 
L 735.51118 320.753786 
L 738.56704 222.46954 
L 741.6229 184.044191 
L 744.678759 169.929212 
L 747.734619 290.612239 
L 750.790479 393.044874 
L 753.846339 335.949056 
L 756.902199 256.471029 
L 759.958058 397.691717 
L 763.013918 391.266867 
L 766.069778 221.711244 
L 769.125638 426.658914 
L 772.181498 379.810973 
L 775.237357 302.988595 
L 778.293217 377.501448 
L 781.349077 234.660016 
L 784.404937 346.248528 
L 787.460797 369.884577 
L 790.516656 275.067338 
L 793.572516 375.73087 
L 796.628376 363.846184 
L 799.684236 350.994562 
L 802.740096 416.087992 
L 805.795955 337.44029 
L 808.851815 440.76597 
L 811.907675 271.475884 
L 814.963535 393.503896 
L 818.019395 367.902466 
L 821.075254 151.82069 
L 824.131114 341.56561 
L 827.186974 232.490876 
L 830.242834 233.840151 
L 833.298694 328.277668 
L 836.354553 214.252815 
L 842.466273 399.854656 
L 845.522133 386.144281 
L 848.577993 231.346797 
L 851.633852 335.785781 
L 854.689712 309.148048 
L 857.745572 298.193987 
L 857.745572 298.193987 
" clip-path="url(#pf826b4b5be)" style="fill: none; stroke: #ffa500; stroke-width: 2; stroke-linecap: square"/>
   </g>
   <g id="line2d_15">
    <path d="M 96.836481 300.887998 
L 99.892341 311.467032 
L 102.948201 299.811273 
L 106.004061 272.76854 
L 109.05992 295.471726 
L 112.11578 302.57157 
L 115.17164 312.062309 
L 118.2275 318.681419 
L 121.28336 301.988317 
L 124.339219 296.915395 
L 127.395079 293.254863 
L 130.450939 289.17689 
L 133.506799 294.05062 
L 136.562659 291.853032 
L 139.618518 290.89396 
L 142.674378 289.806973 
L 145.730238 321.080417 
L 148.786098 315.369685 
L 151.841958 315.234837 
L 154.897817 308.790295 
L 157.953677 299.981185 
L 161.009537 302.931284 
L 164.065397 306.540448 
L 167.121257 305.761451 
L 170.177116 318.747209 
L 173.232976 316.765414 
L 176.288836 309.341276 
L 179.344696 327.009001 
L 182.400556 315.397082 
L 185.456415 296.918387 
L 188.512275 309.182339 
L 191.568135 313.161043 
L 194.623995 295.753982 
L 197.679855 296.795444 
L 200.735714 295.920467 
L 203.791574 306.614558 
L 206.847434 306.456512 
L 209.903294 308.530325 
L 212.959154 314.47559 
L 216.015013 327.466023 
L 219.070873 317.180517 
L 222.126733 309.119026 
L 225.182593 306.040537 
L 228.238453 312.741443 
L 231.294313 316.707647 
L 234.350172 323.791267 
L 237.406032 320.797646 
L 240.461892 277.766777 
L 243.517752 279.616319 
L 246.573612 316.93915 
L 249.629471 305.036932 
L 252.685331 306.889267 
L 255.741191 291.853389 
L 258.797051 287.166885 
L 261.852911 303.081901 
L 264.90877 312.102207 
L 267.96463 303.297951 
L 271.02049 276.765648 
L 274.07635 270.982173 
L 277.13221 282.766283 
L 280.188069 282.90848 
L 283.243929 310.965794 
L 286.299789 296.112606 
L 289.355649 304.808916 
L 292.411509 299.664044 
L 295.467368 308.486802 
L 298.523228 303.362057 
L 301.579088 295.818622 
L 304.634948 308.738174 
L 307.690808 322.953532 
L 310.746667 308.185588 
L 313.802527 304.671473 
L 316.858387 306.432344 
L 319.914247 285.391176 
L 322.970107 291.869574 
L 326.025966 304.903015 
L 329.081826 314.004939 
L 332.137686 320.215819 
L 335.193546 309.317465 
L 338.249406 293.14036 
L 341.305265 308.710202 
L 344.361125 311.247238 
L 347.416985 301.065696 
L 350.472845 310.97558 
L 353.528705 301.201198 
L 356.584564 302.213777 
L 359.640424 310.466438 
L 362.696284 315.099374 
L 365.752144 326.723833 
L 368.808004 296.31051 
L 371.863863 284.966505 
L 374.919723 299.597006 
L 377.975583 305.385473 
L 381.031443 289.804477 
L 384.087303 275.505698 
L 387.143162 301.699544 
L 390.199022 309.133348 
L 393.254882 326.903155 
L 396.310742 320.041093 
L 399.366602 315.679735 
L 402.422461 291.746889 
L 405.478321 301.719453 
L 408.534181 302.136616 
L 411.590041 309.290206 
L 414.645901 314.317524 
L 417.70176 327.996164 
L 420.75762 322.284918 
L 423.81348 309.992835 
L 426.86934 311.278577 
L 429.9252 306.978829 
L 432.981059 303.583753 
L 436.036919 289.103453 
L 439.092779 271.657167 
L 445.204499 312.453621 
L 448.260359 339.718228 
L 451.316218 304.744652 
L 454.372078 304.064666 
L 457.427938 318.437634 
L 460.483798 328.478721 
L 463.539658 312.71466 
L 466.595517 305.526264 
L 469.651377 312.477135 
L 472.707237 325.37761 
L 475.763097 309.465903 
L 478.818957 284.896773 
L 481.874816 273.961234 
L 484.930676 265.42921 
L 487.986536 275.651383 
L 491.042396 306.908938 
L 494.098256 276.420673 
L 497.154115 278.082414 
L 500.209975 290.109753 
L 503.265835 315.784471 
L 506.321695 332.879502 
L 509.377555 305.643144 
L 512.433414 317.68653 
L 515.489274 325.080714 
L 518.545134 312.219583 
L 521.600994 315.008505 
L 524.656854 313.48504 
L 527.712713 298.996439 
L 530.768573 312.719493 
L 533.824433 314.606476 
L 536.880293 301.815711 
L 539.936153 284.020507 
L 542.992012 311.434999 
L 546.047872 307.491537 
L 549.103732 295.992596 
L 552.159592 308.874033 
L 555.215452 326.122296 
L 558.271311 313.344645 
L 561.327171 289.854874 
L 564.383031 294.105375 
L 567.438891 310.006662 
L 570.494751 297.227921 
L 573.55061 305.322239 
L 576.60647 314.974035 
L 579.66233 311.280677 
L 582.71819 310.683736 
L 585.77405 300.927975 
L 588.829909 315.802122 
L 594.941629 294.336976 
L 597.997489 276.655167 
L 601.053349 267.153076 
L 604.109208 280.885639 
L 607.165068 298.435929 
L 610.220928 311.441913 
L 613.276788 290.602274 
L 616.332648 267.175481 
L 619.388507 276.613644 
L 622.444367 322.891685 
L 625.500227 319.016112 
L 628.556087 311.517667 
L 631.611947 314.667333 
L 634.667806 316.084953 
L 637.723666 292.724068 
L 640.779526 284.818681 
L 643.835386 276.166369 
L 646.891246 275.663229 
L 649.947105 276.172154 
L 653.002965 299.818583 
L 656.058825 294.203455 
L 659.114685 279.502113 
L 662.170545 282.407975 
L 665.226405 274.506193 
L 668.282264 299.680565 
L 671.338124 302.044974 
L 674.393984 280.727137 
L 677.449844 287.034058 
L 680.505704 272.802931 
L 683.561563 275.289074 
L 686.617423 283.278416 
L 689.673283 296.527967 
L 692.729143 313.740532 
L 695.785003 300.033247 
L 701.896722 336.024157 
L 704.952582 335.255897 
L 708.008442 302.137627 
L 711.064302 284.29686 
L 714.120161 274.25704 
L 717.176021 285.571548 
L 720.231881 315.128456 
L 723.287741 291.174691 
L 726.343601 307.513982 
L 729.39946 308.650098 
L 732.45532 301.303577 
L 735.51118 307.696137 
L 738.56704 325.064945 
L 741.6229 305.339553 
L 744.678759 297.947726 
L 747.734619 308.408453 
L 750.790479 301.253873 
L 753.846339 305.137568 
L 756.902199 313.963872 
L 759.958058 315.586666 
L 763.013918 300.49637 
L 766.069778 323.636074 
L 769.125638 292.963217 
L 772.181498 307.944121 
L 775.237357 287.777297 
L 778.293217 307.287175 
L 781.349077 312.076573 
L 784.404937 325.719574 
L 787.460797 306.817811 
L 790.516656 289.808162 
L 793.572516 322.751052 
L 796.628376 294.205139 
L 799.684236 298.645838 
L 802.740096 294.586011 
L 805.795955 306.304409 
L 808.851815 313.379174 
L 811.907675 337.492312 
L 814.963535 324.243574 
L 818.019395 316.075048 
L 821.075254 294.355558 
L 824.131114 320.447956 
L 827.186974 318.819258 
L 830.242834 300.105831 
L 833.298694 302.371189 
L 836.354553 332.620979 
L 839.410413 327.112173 
L 842.466273 323.807392 
L 845.522133 322.776449 
L 848.577993 333.139492 
L 851.633852 313.018747 
L 854.689712 320.695762 
L 857.745572 318.18862 
L 857.745572 318.18862 
" clip-path="url(#pf826b4b5be)" style="fill: none; stroke-dasharray: 7.4,3.2; stroke-dashoffset: 0; stroke: #0000ff; stroke-width: 2"/>
   </g>
   <g id="line2d_16">
    <path d="M 96.836481 422.656259 
L 99.892341 368.068772 
L 102.948201 329.55713 
L 106.004061 355.680491 
L 109.05992 370.555153 
L 112.11578 406.492437 
L 115.17164 378.924674 
L 118.2275 311.356055 
L 121.28336 363.165862 
L 124.339219 395.372337 
L 127.395079 393.384807 
L 130.450939 415.443071 
L 133.506799 392.260854 
L 136.562659 389.635099 
L 139.618518 400.136328 
L 142.674378 376.247422 
L 145.730238 364.051894 
L 148.786098 363.390331 
L 151.841958 391.643439 
L 154.897817 316.948441 
L 157.953677 375.828039 
L 161.009537 412.199435 
L 164.065397 361.444057 
L 167.121257 258.062839 
L 170.177116 269.621726 
L 173.232976 424.460415 
L 176.288836 383.349247 
L 179.344696 416.68745 
L 182.400556 436.327104 
L 185.456415 440.126436 
L 188.512275 292.57981 
L 191.568135 358.67124 
L 194.623995 280.467247 
L 197.679855 280.469466 
L 200.735714 376.478577 
L 203.791574 426.97984 
L 206.847434 434.798468 
L 209.903294 415.288294 
L 212.959154 390.638397 
L 216.015013 408.746325 
L 219.070873 395.078838 
L 222.126733 406.4869 
L 225.182593 326.870369 
L 228.238453 363.591009 
L 231.294313 386.921406 
L 234.350172 351.68158 
L 237.406032 427.650475 
L 240.461892 355.291814 
L 243.517752 204.414961 
L 246.573612 260.690447 
L 249.629471 414.277477 
L 252.685331 387.015217 
L 255.741191 432.561191 
L 258.797051 442.840734 
L 261.852911 436.36198 
L 264.90877 337.947967 
L 267.96463 327.543045 
L 271.02049 348.80476 
L 274.07635 315.105159 
L 277.13221 276.214983 
L 280.188069 336.391617 
L 283.243929 412.095163 
L 286.299789 310.322457 
L 289.355649 317.776864 
L 292.411509 353.810703 
L 295.467368 337.814525 
L 298.523228 374.610325 
L 301.579088 443.162986 
L 304.634948 386.642141 
L 307.690808 386.416315 
L 310.746667 373.045238 
L 313.802527 315.822804 
L 316.858387 421.501541 
L 319.914247 353.673022 
L 322.970107 328.375689 
L 326.025966 332.323251 
L 329.081826 365.755216 
L 332.137686 388.557849 
L 335.193546 307.912662 
L 338.249406 308.593005 
L 341.305265 241.295568 
L 344.361125 328.185451 
L 347.416985 346.326184 
L 350.472845 428.629179 
L 353.528705 307.831817 
L 356.584564 285.44609 
L 359.640424 366.906665 
L 362.696284 423.829579 
L 365.752144 464.237187 
L 368.808004 322.448292 
L 371.863863 306.812046 
L 374.919723 419.005453 
L 377.975583 344.775559 
L 381.031443 211.773547 
L 384.087303 264.379764 
L 387.143162 411.787194 
L 390.199022 410.641044 
L 393.254882 443.70962 
L 396.310742 267.815708 
L 399.366602 274.71014 
L 402.422461 332.456633 
L 405.478321 318.949411 
L 408.534181 339.274202 
L 411.590041 399.10893 
L 414.645901 307.159458 
L 417.70176 444.15222 
L 420.75762 332.551406 
L 423.81348 335.730332 
L 426.86934 333.101852 
L 429.9252 390.76023 
L 432.981059 196.523481 
L 436.036919 209.315019 
L 439.092779 179.079909 
L 442.148639 226.744051 
L 445.204499 296.052858 
L 448.260359 384.282962 
L 451.316218 237.285762 
L 454.372078 243.708215 
L 457.427938 378.467048 
L 460.483798 370.900207 
L 463.539658 391.503084 
L 466.595517 361.480289 
L 469.651377 287.029878 
L 472.707237 322.394329 
L 475.763097 418.928164 
L 478.818957 384.054827 
L 481.874816 406.465545 
L 484.930676 265.582442 
L 487.986536 302.591974 
L 491.042396 419.938663 
L 494.098256 289.498013 
L 497.154115 278.059493 
L 500.209975 377.990949 
L 503.265835 299.054463 
L 506.321695 303.844911 
L 509.377555 379.983213 
L 512.433414 207.019094 
L 515.489274 257.471187 
L 518.545134 251.818638 
L 521.600994 359.606758 
L 524.656854 272.99091 
L 527.712713 291.21027 
L 530.768573 280.398981 
L 533.824433 358.501843 
L 536.880293 336.797825 
L 539.936153 405.699899 
L 542.992012 326.638709 
L 546.047872 381.721094 
L 549.103732 388.25813 
L 552.159592 378.710961 
L 555.215452 302.262986 
L 558.271311 263.984094 
L 561.327171 240.976029 
L 564.383031 198.693809 
L 567.438891 380.649837 
L 570.494751 358.797966 
L 573.55061 424.792801 
L 576.60647 282.2237 
L 579.66233 264.398286 
L 582.71819 398.126601 
L 585.77405 411.029582 
L 591.885769 61.037187 
L 594.941629 293.974548 
L 597.997489 354.542196 
L 601.053349 277.911134 
L 604.109208 297.738708 
L 607.165068 347.770409 
L 610.220928 383.035879 
L 613.276788 332.991232 
L 616.332648 374.679443 
L 619.388507 238.831197 
L 622.444367 383.227691 
L 625.500227 373.209049 
L 628.556087 354.884001 
L 631.611947 266.153353 
L 634.667806 235.670536 
L 637.723666 348.023405 
L 640.779526 284.411244 
L 643.835386 348.929921 
L 646.891246 277.651601 
L 649.947105 404.308459 
L 653.002965 366.896839 
L 656.058825 368.005399 
L 659.114685 399.250564 
L 662.170545 337.676131 
L 665.226405 279.281506 
L 668.282264 279.228494 
L 671.338124 319.621453 
L 674.393984 311.436504 
L 677.449844 378.434698 
L 680.505704 335.334563 
L 683.561563 244.164643 
L 686.617423 318.623395 
L 689.673283 412.893614 
L 692.729143 399.456382 
L 695.785003 282.415028 
L 698.840862 363.465135 
L 701.896722 358.4541 
L 704.952582 356.202173 
L 708.008442 425.53509 
L 711.064302 190.388137 
L 714.120161 232.169792 
L 717.176021 258.161772 
L 720.231881 338.775955 
L 723.287741 409.896566 
L 726.343601 317.103713 
L 729.39946 310.374498 
L 732.45532 347.042859 
L 735.51118 347.211463 
L 738.56704 228.995779 
L 741.6229 242.699439 
L 744.678759 174.089596 
L 747.734619 329.67512 
L 750.790479 403.356341 
L 753.846339 367.445265 
L 756.902199 251.170309 
L 759.958058 409.435701 
L 763.013918 421.146324 
L 766.069778 256.616218 
L 769.125638 426.707033 
L 772.181498 355.044424 
L 775.237357 311.983326 
L 778.293217 380.413085 
L 781.349077 246.654312 
L 784.404937 348.149557 
L 787.460797 391.371346 
L 790.516656 298.161419 
L 793.572516 393.45022 
L 796.628376 398.422813 
L 799.684236 341.081884 
L 802.740096 424.954215 
L 805.795955 346.054844 
L 808.851815 427.266335 
L 811.907675 299.094084 
L 814.963535 404.823594 
L 818.019395 379.031817 
L 821.075254 174.890998 
L 824.131114 334.176537 
L 827.186974 274.322176 
L 830.242834 235.093642 
L 833.298694 370.620428 
L 836.354553 272.490999 
L 839.410413 300.849031 
L 842.466273 395.572499 
L 845.522133 377.352039 
L 848.577993 279.597182 
L 851.633852 319.561032 
L 854.689712 278.723136 
L 857.745572 307.773694 
L 857.745572 307.773694 
" clip-path="url(#pf826b4b5be)" style="fill: none; stroke-dasharray: 7.4,3.2; stroke-dashoffset: 0; stroke: #ffa500; stroke-width: 2"/>
   </g>
   <g id="patch_3">
    <path d="M 58.791027 484.397187 
L 58.791027 40.877187 
" style="fill: none; stroke: #000000; stroke-width: 0.8; stroke-linejoin: miter; stroke-linecap: square"/>
   </g>
   <g id="patch_4">
    <path d="M 895.791027 484.397187 
L 895.791027 40.877187 
" style="fill: none; stroke: #000000; stroke-width: 0.8; stroke-linejoin: miter; stroke-linecap: square"/>
   </g>
   <g id="patch_5">
    <path d="M 58.791027 484.397187 
L 895.791027 484.397187 
" style="fill: none; stroke: #000000; stroke-width: 0.8; stroke-linejoin: miter; stroke-linecap: square"/>
   </g>
   <g id="patch_6">
    <path d="M 58.791027 40.877187 
L 895.791027 40.877187 
" style="fill: none; stroke: #000000; stroke-width: 0.8; stroke-linejoin: miter; stroke-linecap: square"/>
   </g>
   <g id="text_15">
    <!-- Ten-meter southward wind speed two steps forward prediction: RMSES -->
    <g transform="translate(158.776808 20.877187) scale(0.18 -0.18)">
     <defs>
      <path id="DejaVuSans-54" d="M -19 4666 
L 3928 4666 
L 3928 4134 
L 2272 4134 
L 2272 0 
L 1638 0 
L 1638 4134 
L -19 4134 
L -19 4666 
z
" transform="scale(0.015625)"/>
      <path id="DejaVuSans-6d" d="M 3328 2828 
Q 3544 3216 3844 3400 
Q 4144 3584 4550 3584 
Q 5097 3584 5394 3201 
Q 5691 2819 5691 2113 
L 5691 0 
L 5113 0 
L 5113 2094 
Q 5113 2597 4934 2840 
Q 4756 3084 4391 3084 
Q 3944 3084 3684 2787 
Q 3425 2491 3425 1978 
L 3425 0 
L 2847 0 
L 2847 2094 
Q 2847 2600 2669 2842 
Q 2491 3084 2119 3084 
Q 1678 3084 1418 2786 
Q 1159 2488 1159 1978 
L 1159 0 
L 581 0 
L 581 3500 
L 1159 3500 
L 1159 2956 
Q 1356 3278 1631 3431 
Q 1906 3584 2284 3584 
Q 2666 3584 2933 3390 
Q 3200 3197 3328 2828 
z
" transform="scale(0.015625)"/>
      <path id="DejaVuSans-68" d="M 3513 2113 
L 3513 0 
L 2938 0 
L 2938 2094 
Q 2938 2591 2744 2837 
Q 2550 3084 2163 3084 
Q 1697 3084 1428 2787 
Q 1159 2491 1159 1978 
L 1159 0 
L 581 0 
L 581 4863 
L 1159 4863 
L 1159 2956 
Q 1366 3272 1645 3428 
Q 1925 3584 2291 3584 
Q 2894 3584 3203 3211 
Q 3513 2838 3513 2113 
z
" transform="scale(0.015625)"/>
      <path id="DejaVuSans-77" d="M 269 3500 
L 844 3500 
L 1563 769 
L 2278 3500 
L 2956 3500 
L 3675 769 
L 4391 3500 
L 4966 3500 
L 4050 0 
L 3372 0 
L 2619 2869 
L 1863 0 
L 1184 0 
L 269 3500 
z
" transform="scale(0.015625)"/>
      <path id="DejaVuSans-69" d="M 603 3500 
L 1178 3500 
L 1178 0 
L 603 0 
L 603 3500 
z
M 603 4863 
L 1178 4863 
L 1178 4134 
L 603 4134 
L 603 4863 
z
" transform="scale(0.015625)"/>
      <path id="DejaVuSans-70" d="M 1159 525 
L 1159 -1331 
L 581 -1331 
L 581 3500 
L 1159 3500 
L 1159 2969 
Q 1341 3281 1617 3432 
Q 1894 3584 2278 3584 
Q 2916 3584 3314 3078 
Q 3713 2572 3713 1747 
Q 3713 922 3314 415 
Q 2916 -91 2278 -91 
Q 1894 -91 1617 61 
Q 1341 213 1159 525 
z
M 3116 1747 
Q 3116 2381 2855 2742 
Q 2594 3103 2138 3103 
Q 1681 3103 1420 2742 
Q 1159 2381 1159 1747 
Q 1159 1113 1420 752 
Q 1681 391 2138 391 
Q 2594 391 2855 752 
Q 3116 1113 3116 1747 
z
" transform="scale(0.015625)"/>
      <path id="DejaVuSans-66" d="M 2375 4863 
L 2375 4384 
L 1825 4384 
Q 1516 4384 1395 4259 
Q 1275 4134 1275 3809 
L 1275 3500 
L 2222 3500 
L 2222 3053 
L 1275 3053 
L 1275 0 
L 697 0 
L 697 3053 
L 147 3053 
L 147 3500 
L 697 3500 
L 697 3744 
Q 697 4328 969 4595 
Q 1241 4863 1831 4863 
L 2375 4863 
z
" transform="scale(0.015625)"/>
     </defs>
     <use xlink:href="#DejaVuSans-54"/>
     <use xlink:href="#DejaVuSans-65" transform="translate(44.083984 0)"/>
     <use xlink:href="#DejaVuSans-6e" transform="translate(105.607422 0)"/>
     <use xlink:href="#DejaVuSans-2d" transform="translate(168.986328 0)"/>
     <use xlink:href="#DejaVuSans-6d" transform="translate(205.070312 0)"/>
     <use xlink:href="#DejaVuSans-65" transform="translate(302.482422 0)"/>
     <use xlink:href="#DejaVuSans-74" transform="translate(364.005859 0)"/>
     <use xlink:href="#DejaVuSans-65" transform="translate(403.214844 0)"/>
     <use xlink:href="#DejaVuSans-72" transform="translate(464.738281 0)"/>
     <use xlink:href="#DejaVuSans-20" transform="translate(505.851562 0)"/>
     <use xlink:href="#DejaVuSans-73" transform="translate(537.638672 0)"/>
     <use xlink:href="#DejaVuSans-6f" transform="translate(589.738281 0)"/>
     <use xlink:href="#DejaVuSans-75" transform="translate(650.919922 0)"/>
     <use xlink:href="#DejaVuSans-74" transform="translate(714.298828 0)"/>
     <use xlink:href="#DejaVuSans-68" transform="translate(753.507812 0)"/>
     <use xlink:href="#DejaVuSans-77" transform="translate(816.886719 0)"/>
     <use xlink:href="#DejaVuSans-61" transform="translate(898.673828 0)"/>
     <use xlink:href="#DejaVuSans-72" transform="translate(959.953125 0)"/>
     <use xlink:href="#DejaVuSans-64" transform="translate(999.316406 0)"/>
     <use xlink:href="#DejaVuSans-20" transform="translate(1062.792969 0)"/>
     <use xlink:href="#DejaVuSans-77" transform="translate(1094.580078 0)"/>
     <use xlink:href="#DejaVuSans-69" transform="translate(1176.367188 0)"/>
     <use xlink:href="#DejaVuSans-6e" transform="translate(1204.150391 0)"/>
     <use xlink:href="#DejaVuSans-64" transform="translate(1267.529297 0)"/>
     <use xlink:href="#DejaVuSans-20" transform="translate(1331.005859 0)"/>
     <use xlink:href="#DejaVuSans-73" transform="translate(1362.792969 0)"/>
     <use xlink:href="#DejaVuSans-70" transform="translate(1414.892578 0)"/>
     <use xlink:href="#DejaVuSans-65" transform="translate(1478.369141 0)"/>
     <use xlink:href="#DejaVuSans-65" transform="translate(1539.892578 0)"/>
     <use xlink:href="#DejaVuSans-64" transform="translate(1601.416016 0)"/>
     <use xlink:href="#DejaVuSans-20" transform="translate(1664.892578 0)"/>
     <use xlink:href="#DejaVuSans-74" transform="translate(1696.679688 0)"/>
     <use xlink:href="#DejaVuSans-77" transform="translate(1735.888672 0)"/>
     <use xlink:href="#DejaVuSans-6f" transform="translate(1817.675781 0)"/>
     <use xlink:href="#DejaVuSans-20" transform="translate(1878.857422 0)"/>
     <use xlink:href="#DejaVuSans-73" transform="translate(1910.644531 0)"/>
     <use xlink:href="#DejaVuSans-74" transform="translate(1962.744141 0)"/>
     <use xlink:href="#DejaVuSans-65" transform="translate(2001.953125 0)"/>
     <use xlink:href="#DejaVuSans-70" transform="translate(2063.476562 0)"/>
     <use xlink:href="#DejaVuSans-73" transform="translate(2126.953125 0)"/>
     <use xlink:href="#DejaVuSans-20" transform="translate(2179.052734 0)"/>
     <use xlink:href="#DejaVuSans-66" transform="translate(2210.839844 0)"/>
     <use xlink:href="#DejaVuSans-6f" transform="translate(2246.044922 0)"/>
     <use xlink:href="#DejaVuSans-72" transform="translate(2307.226562 0)"/>
     <use xlink:href="#DejaVuSans-77" transform="translate(2348.339844 0)"/>
     <use xlink:href="#DejaVuSans-61" transform="translate(2430.126953 0)"/>
     <use xlink:href="#DejaVuSans-72" transform="translate(2491.40625 0)"/>
     <use xlink:href="#DejaVuSans-64" transform="translate(2530.769531 0)"/>
     <use xlink:href="#DejaVuSans-20" transform="translate(2594.246094 0)"/>
     <use xlink:href="#DejaVuSans-70" transform="translate(2626.033203 0)"/>
     <use xlink:href="#DejaVuSans-72" transform="translate(2689.509766 0)"/>
     <use xlink:href="#DejaVuSans-65" transform="translate(2728.373047 0)"/>
     <use xlink:href="#DejaVuSans-64" transform="translate(2789.896484 0)"/>
     <use xlink:href="#DejaVuSans-69" transform="translate(2853.373047 0)"/>
     <use xlink:href="#DejaVuSans-63" transform="translate(2881.15625 0)"/>
     <use xlink:href="#DejaVuSans-74" transform="translate(2936.136719 0)"/>
     <use xlink:href="#DejaVuSans-69" transform="translate(2975.345703 0)"/>
     <use xlink:href="#DejaVuSans-6f" transform="translate(3003.128906 0)"/>
     <use xlink:href="#DejaVuSans-6e" transform="translate(3064.310547 0)"/>
     <use xlink:href="#DejaVuSans-3a" transform="translate(3127.689453 0)"/>
     <use xlink:href="#DejaVuSans-20" transform="translate(3161.380859 0)"/>
     <use xlink:href="#DejaVuSans-52" transform="translate(3193.167969 0)"/>
     <use xlink:href="#DejaVuSans-4d" transform="translate(3262.650391 0)"/>
     <use xlink:href="#DejaVuSans-53" transform="translate(3348.929688 0)"/>
     <use xlink:href="#DejaVuSans-45" transform="translate(3412.40625 0)"/>
     <use xlink:href="#DejaVuSans-53" transform="translate(3475.589844 0)"/>
    </g>
   </g>
   <g id="legend_1">
    <g id="text_16">
     <!-- Forecast Horizon -->
     <g transform="translate(1020.26087 65.634687) scale(0.16 -0.16)">
      <defs>
       <path id="DejaVuSans-48" d="M 628 4666 
L 1259 4666 
L 1259 2753 
L 3553 2753 
L 3553 4666 
L 4184 4666 
L 4184 0 
L 3553 0 
L 3553 2222 
L 1259 2222 
L 1259 0 
L 628 0 
L 628 4666 
z
" transform="scale(0.015625)"/>
       <path id="DejaVuSans-7a" d="M 353 3500 
L 3084 3500 
L 3084 2975 
L 922 459 
L 3084 459 
L 3084 0 
L 275 0 
L 275 525 
L 2438 3041 
L 353 3041 
L 353 3500 
z
" transform="scale(0.015625)"/>
      </defs>
      <use xlink:href="#DejaVuSans-46"/>
      <use xlink:href="#DejaVuSans-6f" transform="translate(53.894531 0)"/>
      <use xlink:href="#DejaVuSans-72" transform="translate(115.076172 0)"/>
      <use xlink:href="#DejaVuSans-65" transform="translate(153.939453 0)"/>
      <use xlink:href="#DejaVuSans-63" transform="translate(215.462891 0)"/>
      <use xlink:href="#DejaVuSans-61" transform="translate(270.443359 0)"/>
      <use xlink:href="#DejaVuSans-73" transform="translate(331.722656 0)"/>
      <use xlink:href="#DejaVuSans-74" transform="translate(383.822266 0)"/>
      <use xlink:href="#DejaVuSans-20" transform="translate(423.03125 0)"/>
      <use xlink:href="#DejaVuSans-48" transform="translate(454.818359 0)"/>
      <use xlink:href="#DejaVuSans-6f" transform="translate(530.013672 0)"/>
      <use xlink:href="#DejaVuSans-72" transform="translate(591.195312 0)"/>
      <use xlink:href="#DejaVuSans-69" transform="translate(632.308594 0)"/>
      <use xlink:href="#DejaVuSans-7a" transform="translate(660.091797 0)"/>
      <use xlink:href="#DejaVuSans-6f" transform="translate(712.582031 0)"/>
      <use xlink:href="#DejaVuSans-6e" transform="translate(773.763672 0)"/>
     </g>
    </g>
    <g id="line2d_17">
     <path d="M 950.241027 81.7 
L 964.241027 81.7 
L 978.241027 81.7 
" style="fill: none; stroke: #0000ff; stroke-width: 2; stroke-linecap: square"/>
    </g>
    <g id="text_17">
     <!-- Global RMSE (6h Forecast) -->
     <g transform="translate(989.441027 86.6) scale(0.14 -0.14)">
      <defs>
       <path id="DejaVuSans-47" d="M 3809 666 
L 3809 1919 
L 2778 1919 
L 2778 2438 
L 4434 2438 
L 4434 434 
Q 4069 175 3628 42 
Q 3188 -91 2688 -91 
Q 1594 -91 976 548 
Q 359 1188 359 2328 
Q 359 3472 976 4111 
Q 1594 4750 2688 4750 
Q 3144 4750 3555 4637 
Q 3966 4525 4313 4306 
L 4313 3634 
Q 3963 3931 3569 4081 
Q 3175 4231 2741 4231 
Q 1884 4231 1454 3753 
Q 1025 3275 1025 2328 
Q 1025 1384 1454 906 
Q 1884 428 2741 428 
Q 3075 428 3337 486 
Q 3600 544 3809 666 
z
" transform="scale(0.015625)"/>
       <path id="DejaVuSans-6c" d="M 603 4863 
L 1178 4863 
L 1178 0 
L 603 0 
L 603 4863 
z
" transform="scale(0.015625)"/>
       <path id="DejaVuSans-62" d="M 3116 1747 
Q 3116 2381 2855 2742 
Q 2594 3103 2138 3103 
Q 1681 3103 1420 2742 
Q 1159 2381 1159 1747 
Q 1159 1113 1420 752 
Q 1681 391 2138 391 
Q 2594 391 2855 752 
Q 3116 1113 3116 1747 
z
M 1159 2969 
Q 1341 3281 1617 3432 
Q 1894 3584 2278 3584 
Q 2916 3584 3314 3078 
Q 3713 2572 3713 1747 
Q 3713 922 3314 415 
Q 2916 -91 2278 -91 
Q 1894 -91 1617 61 
Q 1341 213 1159 525 
L 1159 0 
L 581 0 
L 581 4863 
L 1159 4863 
L 1159 2969 
z
" transform="scale(0.015625)"/>
      </defs>
      <use xlink:href="#DejaVuSans-47"/>
      <use xlink:href="#DejaVuSans-6c" transform="translate(77.490234 0)"/>
      <use xlink:href="#DejaVuSans-6f" transform="translate(105.273438 0)"/>
      <use xlink:href="#DejaVuSans-62" transform="translate(166.455078 0)"/>
      <use xlink:href="#DejaVuSans-61" transform="translate(229.931641 0)"/>
      <use xlink:href="#DejaVuSans-6c" transform="translate(291.210938 0)"/>
      <use xlink:href="#DejaVuSans-20" transform="translate(318.994141 0)"/>
      <use xlink:href="#DejaVuSans-52" transform="translate(350.78125 0)"/>
      <use xlink:href="#DejaVuSans-4d" transform="translate(420.263672 0)"/>
      <use xlink:href="#DejaVuSans-53" transform="translate(506.542969 0)"/>
      <use xlink:href="#DejaVuSans-45" transform="translate(570.019531 0)"/>
      <use xlink:href="#DejaVuSans-20" transform="translate(633.203125 0)"/>
      <use xlink:href="#DejaVuSans-28" transform="translate(664.990234 0)"/>
      <use xlink:href="#DejaVuSans-36" transform="translate(704.003906 0)"/>
      <use xlink:href="#DejaVuSans-68" transform="translate(767.626953 0)"/>
      <use xlink:href="#DejaVuSans-20" transform="translate(831.005859 0)"/>
      <use xlink:href="#DejaVuSans-46" transform="translate(862.792969 0)"/>
      <use xlink:href="#DejaVuSans-6f" transform="translate(916.6875 0)"/>
      <use xlink:href="#DejaVuSans-72" transform="translate(977.869141 0)"/>
      <use xlink:href="#DejaVuSans-65" transform="translate(1016.732422 0)"/>
      <use xlink:href="#DejaVuSans-63" transform="translate(1078.255859 0)"/>
      <use xlink:href="#DejaVuSans-61" transform="translate(1133.236328 0)"/>
      <use xlink:href="#DejaVuSans-73" transform="translate(1194.515625 0)"/>
      <use xlink:href="#DejaVuSans-74" transform="translate(1246.615234 0)"/>
      <use xlink:href="#DejaVuSans-29" transform="translate(1285.824219 0)"/>
     </g>
    </g>
    <g id="line2d_18">
     <path d="M 950.241027 102.249375 
L 964.241027 102.249375 
L 978.241027 102.249375 
" style="fill: none; stroke: #ffa500; stroke-width: 2; stroke-linecap: square"/>
    </g>
    <g id="text_18">
     <!-- South Africa RMSE (6h Forecast) -->
     <g transform="translate(989.441027 107.149375) scale(0.14 -0.14)">
      <defs>
       <path id="DejaVuSans-41" d="M 2188 4044 
L 1331 1722 
L 3047 1722 
L 2188 4044 
z
M 1831 4666 
L 2547 4666 
L 4325 0 
L 3669 0 
L 3244 1197 
L 1141 1197 
L 716 0 
L 50 0 
L 1831 4666 
z
" transform="scale(0.015625)"/>
      </defs>
      <use xlink:href="#DejaVuSans-53"/>
      <use xlink:href="#DejaVuSans-6f" transform="translate(63.476562 0)"/>
      <use xlink:href="#DejaVuSans-75" transform="translate(124.658203 0)"/>
      <use xlink:href="#DejaVuSans-74" transform="translate(188.037109 0)"/>
      <use xlink:href="#DejaVuSans-68" transform="translate(227.246094 0)"/>
      <use xlink:href="#DejaVuSans-20" transform="translate(290.625 0)"/>
      <use xlink:href="#DejaVuSans-41" transform="translate(322.412109 0)"/>
      <use xlink:href="#DejaVuSans-66" transform="translate(387.195312 0)"/>
      <use xlink:href="#DejaVuSans-72" transform="translate(422.400391 0)"/>
      <use xlink:href="#DejaVuSans-69" transform="translate(463.513672 0)"/>
      <use xlink:href="#DejaVuSans-63" transform="translate(491.296875 0)"/>
      <use xlink:href="#DejaVuSans-61" transform="translate(546.277344 0)"/>
      <use xlink:href="#DejaVuSans-20" transform="translate(607.556641 0)"/>
      <use xlink:href="#DejaVuSans-52" transform="translate(639.34375 0)"/>
      <use xlink:href="#DejaVuSans-4d" transform="translate(708.826172 0)"/>
      <use xlink:href="#DejaVuSans-53" transform="translate(795.105469 0)"/>
      <use xlink:href="#DejaVuSans-45" transform="translate(858.582031 0)"/>
      <use xlink:href="#DejaVuSans-20" transform="translate(921.765625 0)"/>
      <use xlink:href="#DejaVuSans-28" transform="translate(953.552734 0)"/>
      <use xlink:href="#DejaVuSans-36" transform="translate(992.566406 0)"/>
      <use xlink:href="#DejaVuSans-68" transform="translate(1056.189453 0)"/>
      <use xlink:href="#DejaVuSans-20" transform="translate(1119.568359 0)"/>
      <use xlink:href="#DejaVuSans-46" transform="translate(1151.355469 0)"/>
      <use xlink:href="#DejaVuSans-6f" transform="translate(1205.25 0)"/>
      <use xlink:href="#DejaVuSans-72" transform="translate(1266.431641 0)"/>
      <use xlink:href="#DejaVuSans-65" transform="translate(1305.294922 0)"/>
      <use xlink:href="#DejaVuSans-63" transform="translate(1366.818359 0)"/>
      <use xlink:href="#DejaVuSans-61" transform="translate(1421.798828 0)"/>
      <use xlink:href="#DejaVuSans-73" transform="translate(1483.078125 0)"/>
      <use xlink:href="#DejaVuSans-74" transform="translate(1535.177734 0)"/>
      <use xlink:href="#DejaVuSans-29" transform="translate(1574.386719 0)"/>
     </g>
    </g>
    <g id="line2d_19">
     <path d="M 950.241027 122.79875 
L 964.241027 122.79875 
L 978.241027 122.79875 
" style="fill: none; stroke-dasharray: 7.4,3.2; stroke-dashoffset: 0; stroke: #0000ff; stroke-width: 2"/>
    </g>
    <g id="text_19">
     <!-- Global RMSE (12h Forecast) -->
     <g transform="translate(989.441027 127.69875) scale(0.14 -0.14)">
      <use xlink:href="#DejaVuSans-47"/>
      <use xlink:href="#DejaVuSans-6c" transform="translate(77.490234 0)"/>
      <use xlink:href="#DejaVuSans-6f" transform="translate(105.273438 0)"/>
      <use xlink:href="#DejaVuSans-62" transform="translate(166.455078 0)"/>
      <use xlink:href="#DejaVuSans-61" transform="translate(229.931641 0)"/>
      <use xlink:href="#DejaVuSans-6c" transform="translate(291.210938 0)"/>
      <use xlink:href="#DejaVuSans-20" transform="translate(318.994141 0)"/>
      <use xlink:href="#DejaVuSans-52" transform="translate(350.78125 0)"/>
      <use xlink:href="#DejaVuSans-4d" transform="translate(420.263672 0)"/>
      <use xlink:href="#DejaVuSans-53" transform="translate(506.542969 0)"/>
      <use xlink:href="#DejaVuSans-45" transform="translate(570.019531 0)"/>
      <use xlink:href="#DejaVuSans-20" transform="translate(633.203125 0)"/>
      <use xlink:href="#DejaVuSans-28" transform="translate(664.990234 0)"/>
      <use xlink:href="#DejaVuSans-31" transform="translate(704.003906 0)"/>
      <use xlink:href="#DejaVuSans-32" transform="translate(767.626953 0)"/>
      <use xlink:href="#DejaVuSans-68" transform="translate(831.25 0)"/>
      <use xlink:href="#DejaVuSans-20" transform="translate(894.628906 0)"/>
      <use xlink:href="#DejaVuSans-46" transform="translate(926.416016 0)"/>
      <use xlink:href="#DejaVuSans-6f" transform="translate(980.310547 0)"/>
      <use xlink:href="#DejaVuSans-72" transform="translate(1041.492188 0)"/>
      <use xlink:href="#DejaVuSans-65" transform="translate(1080.355469 0)"/>
      <use xlink:href="#DejaVuSans-63" transform="translate(1141.878906 0)"/>
      <use xlink:href="#DejaVuSans-61" transform="translate(1196.859375 0)"/>
      <use xlink:href="#DejaVuSans-73" transform="translate(1258.138672 0)"/>
      <use xlink:href="#DejaVuSans-74" transform="translate(1310.238281 0)"/>
      <use xlink:href="#DejaVuSans-29" transform="translate(1349.447266 0)"/>
     </g>
    </g>
    <g id="line2d_20">
     <path d="M 950.241027 143.348125 
L 964.241027 143.348125 
L 978.241027 143.348125 
" style="fill: none; stroke-dasharray: 7.4,3.2; stroke-dashoffset: 0; stroke: #ffa500; stroke-width: 2"/>
    </g>
    <g id="text_20">
     <!-- South Africa RMSE (12h Forecast) -->
     <g transform="translate(989.441027 148.248125) scale(0.14 -0.14)">
      <use xlink:href="#DejaVuSans-53"/>
      <use xlink:href="#DejaVuSans-6f" transform="translate(63.476562 0)"/>
      <use xlink:href="#DejaVuSans-75" transform="translate(124.658203 0)"/>
      <use xlink:href="#DejaVuSans-74" transform="translate(188.037109 0)"/>
      <use xlink:href="#DejaVuSans-68" transform="translate(227.246094 0)"/>
      <use xlink:href="#DejaVuSans-20" transform="translate(290.625 0)"/>
      <use xlink:href="#DejaVuSans-41" transform="translate(322.412109 0)"/>
      <use xlink:href="#DejaVuSans-66" transform="translate(387.195312 0)"/>
      <use xlink:href="#DejaVuSans-72" transform="translate(422.400391 0)"/>
      <use xlink:href="#DejaVuSans-69" transform="translate(463.513672 0)"/>
      <use xlink:href="#DejaVuSans-63" transform="translate(491.296875 0)"/>
      <use xlink:href="#DejaVuSans-61" transform="translate(546.277344 0)"/>
      <use xlink:href="#DejaVuSans-20" transform="translate(607.556641 0)"/>
      <use xlink:href="#DejaVuSans-52" transform="translate(639.34375 0)"/>
      <use xlink:href="#DejaVuSans-4d" transform="translate(708.826172 0)"/>
      <use xlink:href="#DejaVuSans-53" transform="translate(795.105469 0)"/>
      <use xlink:href="#DejaVuSans-45" transform="translate(858.582031 0)"/>
      <use xlink:href="#DejaVuSans-20" transform="translate(921.765625 0)"/>
      <use xlink:href="#DejaVuSans-28" transform="translate(953.552734 0)"/>
      <use xlink:href="#DejaVuSans-31" transform="translate(992.566406 0)"/>
      <use xlink:href="#DejaVuSans-32" transform="translate(1056.189453 0)"/>
      <use xlink:href="#DejaVuSans-68" transform="translate(1119.8125 0)"/>
      <use xlink:href="#DejaVuSans-20" transform="translate(1183.191406 0)"/>
      <use xlink:href="#DejaVuSans-46" transform="translate(1214.978516 0)"/>
      <use xlink:href="#DejaVuSans-6f" transform="translate(1268.873047 0)"/>
      <use xlink:href="#DejaVuSans-72" transform="translate(1330.054688 0)"/>
      <use xlink:href="#DejaVuSans-65" transform="translate(1368.917969 0)"/>
      <use xlink:href="#DejaVuSans-63" transform="translate(1430.441406 0)"/>
      <use xlink:href="#DejaVuSans-61" transform="translate(1485.421875 0)"/>
      <use xlink:href="#DejaVuSans-73" transform="translate(1546.701172 0)"/>
      <use xlink:href="#DejaVuSans-74" transform="translate(1598.800781 0)"/>
      <use xlink:href="#DejaVuSans-29" transform="translate(1638.009766 0)"/>
     </g>
    </g>
   </g>
  </g>
 </g>
 <defs>
  <clipPath id="pf826b4b5be">
   <rect x="58.791027" y="40.877187" width="837" height="443.52"/>
  </clipPath>
 </defs>
</svg>
