<?xml version="1.0" encoding="utf-8" standalone="no"?>
<!DOCTYPE svg PUBLIC "-//W3C//DTD SVG 1.1//EN"
  "http://www.w3.org/Graphics/SVG/1.1/DTD/svg11.dtd">
<svg xmlns:xlink="http://www.w3.org/1999/xlink" width="1237.367188pt" height="575.421502pt" viewBox="0 0 1237.367188 575.421502" xmlns="http://www.w3.org/2000/svg" version="1.1">
 <metadata>
  <rdf:RDF xmlns:dc="http://purl.org/dc/elements/1.1/" xmlns:cc="http://creativecommons.org/ns#" xmlns:rdf="http://www.w3.org/1999/02/22-rdf-syntax-ns#">
   <cc:Work>
    <dc:type rdf:resource="http://purl.org/dc/dcmitype/StillImage"/>
    <dc:date>2025-02-18T13:05:57.845000</dc:date>
    <dc:format>image/svg+xml</dc:format>
    <dc:creator>
     <cc:Agent>
      <dc:title>Matplotlib v3.10.0, https://matplotlib.org/</dc:title>
     </cc:Agent>
    </dc:creator>
   </cc:Work>
  </rdf:RDF>
 </metadata>
 <defs>
  <style type="text/css">*{stroke-linejoin: round; stroke-linecap: butt}</style>
 </defs>
 <g id="figure_1">
  <g id="patch_1">
   <path d="M 0 575.421502 
L 1237.367188 575.421502 
L 1237.367188 0 
L 0 0 
z
" style="fill: #ffffff"/>
  </g>
  <g id="axes_1">
   <g id="patch_2">
    <path d="M 59.135 484.397187 
L 896.135 484.397187 
L 896.135 40.877187 
L 59.135 40.877187 
z
" style="fill: #ffffff"/>
   </g>
   <g id="matplotlib.axis_1">
    <g id="xtick_1">
     <g id="line2d_1">
      <defs>
       <path id="m60d982ef6b" d="M 0 0 
L 0 3.5 
" style="stroke: #000000; stroke-width: 0.8"/>
      </defs>
      <g>
       <use xlink:href="#m60d982ef6b" x="97.180455" y="484.397187" style="stroke: #000000; stroke-width: 0.8"/>
      </g>
     </g>
     <g id="text_1">
      <!-- 2022-01-01 (12:00) -->
      <g transform="translate(11.343192 546.93544) rotate(-30) scale(0.1 -0.1)">
       <defs>
        <path id="DejaVuSans-32" d="M 1228 531 
L 3431 531 
L 3431 0 
L 469 0 
L 469 531 
Q 828 903 1448 1529 
Q 2069 2156 2228 2338 
Q 2531 2678 2651 2914 
Q 2772 3150 2772 3378 
Q 2772 3750 2511 3984 
Q 2250 4219 1831 4219 
Q 1534 4219 1204 4116 
Q 875 4013 500 3803 
L 500 4441 
Q 881 4594 1212 4672 
Q 1544 4750 1819 4750 
Q 2544 4750 2975 4387 
Q 3406 4025 3406 3419 
Q 3406 3131 3298 2873 
Q 3191 2616 2906 2266 
Q 2828 2175 2409 1742 
Q 1991 1309 1228 531 
z
" transform="scale(0.015625)"/>
        <path id="DejaVuSans-30" d="M 2034 4250 
Q 1547 4250 1301 3770 
Q 1056 3291 1056 2328 
Q 1056 1369 1301 889 
Q 1547 409 2034 409 
Q 2525 409 2770 889 
Q 3016 1369 3016 2328 
Q 3016 3291 2770 3770 
Q 2525 4250 2034 4250 
z
M 2034 4750 
Q 2819 4750 3233 4129 
Q 3647 3509 3647 2328 
Q 3647 1150 3233 529 
Q 2819 -91 2034 -91 
Q 1250 -91 836 529 
Q 422 1150 422 2328 
Q 422 3509 836 4129 
Q 1250 4750 2034 4750 
z
" transform="scale(0.015625)"/>
        <path id="DejaVuSans-2d" d="M 313 2009 
L 1997 2009 
L 1997 1497 
L 313 1497 
L 313 2009 
z
" transform="scale(0.015625)"/>
        <path id="DejaVuSans-31" d="M 794 531 
L 1825 531 
L 1825 4091 
L 703 3866 
L 703 4441 
L 1819 4666 
L 2450 4666 
L 2450 531 
L 3481 531 
L 3481 0 
L 794 0 
L 794 531 
z
" transform="scale(0.015625)"/>
        <path id="DejaVuSans-20" transform="scale(0.015625)"/>
        <path id="DejaVuSans-28" d="M 1984 4856 
Q 1566 4138 1362 3434 
Q 1159 2731 1159 2009 
Q 1159 1288 1364 580 
Q 1569 -128 1984 -844 
L 1484 -844 
Q 1016 -109 783 600 
Q 550 1309 550 2009 
Q 550 2706 781 3412 
Q 1013 4119 1484 4856 
L 1984 4856 
z
" transform="scale(0.015625)"/>
        <path id="DejaVuSans-3a" d="M 750 794 
L 1409 794 
L 1409 0 
L 750 0 
L 750 794 
z
M 750 3309 
L 1409 3309 
L 1409 2516 
L 750 2516 
L 750 3309 
z
" transform="scale(0.015625)"/>
        <path id="DejaVuSans-29" d="M 513 4856 
L 1013 4856 
Q 1481 4119 1714 3412 
Q 1947 2706 1947 2009 
Q 1947 1309 1714 600 
Q 1481 -109 1013 -844 
L 513 -844 
Q 928 -128 1133 580 
Q 1338 1288 1338 2009 
Q 1338 2731 1133 3434 
Q 928 4138 513 4856 
z
" transform="scale(0.015625)"/>
       </defs>
       <use xlink:href="#DejaVuSans-32"/>
       <use xlink:href="#DejaVuSans-30" transform="translate(63.623047 0)"/>
       <use xlink:href="#DejaVuSans-32" transform="translate(127.246094 0)"/>
       <use xlink:href="#DejaVuSans-32" transform="translate(190.869141 0)"/>
       <use xlink:href="#DejaVuSans-2d" transform="translate(254.492188 0)"/>
       <use xlink:href="#DejaVuSans-30" transform="translate(290.576172 0)"/>
       <use xlink:href="#DejaVuSans-31" transform="translate(354.199219 0)"/>
       <use xlink:href="#DejaVuSans-2d" transform="translate(417.822266 0)"/>
       <use xlink:href="#DejaVuSans-30" transform="translate(453.90625 0)"/>
       <use xlink:href="#DejaVuSans-31" transform="translate(517.529297 0)"/>
       <use xlink:href="#DejaVuSans-20" transform="translate(581.152344 0)"/>
       <use xlink:href="#DejaVuSans-28" transform="translate(612.939453 0)"/>
       <use xlink:href="#DejaVuSans-31" transform="translate(651.953125 0)"/>
       <use xlink:href="#DejaVuSans-32" transform="translate(715.576172 0)"/>
       <use xlink:href="#DejaVuSans-3a" transform="translate(779.199219 0)"/>
       <use xlink:href="#DejaVuSans-30" transform="translate(812.890625 0)"/>
       <use xlink:href="#DejaVuSans-30" transform="translate(876.513672 0)"/>
       <use xlink:href="#DejaVuSans-29" transform="translate(940.136719 0)"/>
      </g>
     </g>
    </g>
    <g id="xtick_2">
     <g id="line2d_2">
      <g>
       <use xlink:href="#m60d982ef6b" x="246.917585" y="484.397187" style="stroke: #000000; stroke-width: 0.8"/>
      </g>
     </g>
     <g id="text_2">
      <!-- 2022-03-16 (00:00) -->
      <g transform="translate(161.080322 546.93544) rotate(-30) scale(0.1 -0.1)">
       <defs>
        <path id="DejaVuSans-33" d="M 2597 2516 
Q 3050 2419 3304 2112 
Q 3559 1806 3559 1356 
Q 3559 666 3084 287 
Q 2609 -91 1734 -91 
Q 1441 -91 1130 -33 
Q 819 25 488 141 
L 488 750 
Q 750 597 1062 519 
Q 1375 441 1716 441 
Q 2309 441 2620 675 
Q 2931 909 2931 1356 
Q 2931 1769 2642 2001 
Q 2353 2234 1838 2234 
L 1294 2234 
L 1294 2753 
L 1863 2753 
Q 2328 2753 2575 2939 
Q 2822 3125 2822 3475 
Q 2822 3834 2567 4026 
Q 2313 4219 1838 4219 
Q 1578 4219 1281 4162 
Q 984 4106 628 3988 
L 628 4550 
Q 988 4650 1302 4700 
Q 1616 4750 1894 4750 
Q 2613 4750 3031 4423 
Q 3450 4097 3450 3541 
Q 3450 3153 3228 2886 
Q 3006 2619 2597 2516 
z
" transform="scale(0.015625)"/>
        <path id="DejaVuSans-36" d="M 2113 2584 
Q 1688 2584 1439 2293 
Q 1191 2003 1191 1497 
Q 1191 994 1439 701 
Q 1688 409 2113 409 
Q 2538 409 2786 701 
Q 3034 994 3034 1497 
Q 3034 2003 2786 2293 
Q 2538 2584 2113 2584 
z
M 3366 4563 
L 3366 3988 
Q 3128 4100 2886 4159 
Q 2644 4219 2406 4219 
Q 1781 4219 1451 3797 
Q 1122 3375 1075 2522 
Q 1259 2794 1537 2939 
Q 1816 3084 2150 3084 
Q 2853 3084 3261 2657 
Q 3669 2231 3669 1497 
Q 3669 778 3244 343 
Q 2819 -91 2113 -91 
Q 1303 -91 875 529 
Q 447 1150 447 2328 
Q 447 3434 972 4092 
Q 1497 4750 2381 4750 
Q 2619 4750 2861 4703 
Q 3103 4656 3366 4563 
z
" transform="scale(0.015625)"/>
       </defs>
       <use xlink:href="#DejaVuSans-32"/>
       <use xlink:href="#DejaVuSans-30" transform="translate(63.623047 0)"/>
       <use xlink:href="#DejaVuSans-32" transform="translate(127.246094 0)"/>
       <use xlink:href="#DejaVuSans-32" transform="translate(190.869141 0)"/>
       <use xlink:href="#DejaVuSans-2d" transform="translate(254.492188 0)"/>
       <use xlink:href="#DejaVuSans-30" transform="translate(290.576172 0)"/>
       <use xlink:href="#DejaVuSans-33" transform="translate(354.199219 0)"/>
       <use xlink:href="#DejaVuSans-2d" transform="translate(417.822266 0)"/>
       <use xlink:href="#DejaVuSans-31" transform="translate(453.90625 0)"/>
       <use xlink:href="#DejaVuSans-36" transform="translate(517.529297 0)"/>
       <use xlink:href="#DejaVuSans-20" transform="translate(581.152344 0)"/>
       <use xlink:href="#DejaVuSans-28" transform="translate(612.939453 0)"/>
       <use xlink:href="#DejaVuSans-30" transform="translate(651.953125 0)"/>
       <use xlink:href="#DejaVuSans-30" transform="translate(715.576172 0)"/>
       <use xlink:href="#DejaVuSans-3a" transform="translate(779.199219 0)"/>
       <use xlink:href="#DejaVuSans-30" transform="translate(812.890625 0)"/>
       <use xlink:href="#DejaVuSans-30" transform="translate(876.513672 0)"/>
       <use xlink:href="#DejaVuSans-29" transform="translate(940.136719 0)"/>
      </g>
     </g>
    </g>
    <g id="xtick_3">
     <g id="line2d_3">
      <g>
       <use xlink:href="#m60d982ef6b" x="399.710575" y="484.397187" style="stroke: #000000; stroke-width: 0.8"/>
      </g>
     </g>
     <g id="text_3">
      <!-- 2022-05-30 (00:00) -->
      <g transform="translate(313.873313 546.93544) rotate(-30) scale(0.1 -0.1)">
       <defs>
        <path id="DejaVuSans-35" d="M 691 4666 
L 3169 4666 
L 3169 4134 
L 1269 4134 
L 1269 2991 
Q 1406 3038 1543 3061 
Q 1681 3084 1819 3084 
Q 2600 3084 3056 2656 
Q 3513 2228 3513 1497 
Q 3513 744 3044 326 
Q 2575 -91 1722 -91 
Q 1428 -91 1123 -41 
Q 819 9 494 109 
L 494 744 
Q 775 591 1075 516 
Q 1375 441 1709 441 
Q 2250 441 2565 725 
Q 2881 1009 2881 1497 
Q 2881 1984 2565 2268 
Q 2250 2553 1709 2553 
Q 1456 2553 1204 2497 
Q 953 2441 691 2322 
L 691 4666 
z
" transform="scale(0.015625)"/>
       </defs>
       <use xlink:href="#DejaVuSans-32"/>
       <use xlink:href="#DejaVuSans-30" transform="translate(63.623047 0)"/>
       <use xlink:href="#DejaVuSans-32" transform="translate(127.246094 0)"/>
       <use xlink:href="#DejaVuSans-32" transform="translate(190.869141 0)"/>
       <use xlink:href="#DejaVuSans-2d" transform="translate(254.492188 0)"/>
       <use xlink:href="#DejaVuSans-30" transform="translate(290.576172 0)"/>
       <use xlink:href="#DejaVuSans-35" transform="translate(354.199219 0)"/>
       <use xlink:href="#DejaVuSans-2d" transform="translate(417.822266 0)"/>
       <use xlink:href="#DejaVuSans-33" transform="translate(453.90625 0)"/>
       <use xlink:href="#DejaVuSans-30" transform="translate(517.529297 0)"/>
       <use xlink:href="#DejaVuSans-20" transform="translate(581.152344 0)"/>
       <use xlink:href="#DejaVuSans-28" transform="translate(612.939453 0)"/>
       <use xlink:href="#DejaVuSans-30" transform="translate(651.953125 0)"/>
       <use xlink:href="#DejaVuSans-30" transform="translate(715.576172 0)"/>
       <use xlink:href="#DejaVuSans-3a" transform="translate(779.199219 0)"/>
       <use xlink:href="#DejaVuSans-30" transform="translate(812.890625 0)"/>
       <use xlink:href="#DejaVuSans-30" transform="translate(876.513672 0)"/>
       <use xlink:href="#DejaVuSans-29" transform="translate(940.136719 0)"/>
      </g>
     </g>
    </g>
    <g id="xtick_4">
     <g id="line2d_4">
      <g>
       <use xlink:href="#m60d982ef6b" x="552.503565" y="484.397187" style="stroke: #000000; stroke-width: 0.8"/>
      </g>
     </g>
     <g id="text_4">
      <!-- 2022-08-13 (00:00) -->
      <g transform="translate(466.666303 546.93544) rotate(-30) scale(0.1 -0.1)">
       <defs>
        <path id="DejaVuSans-38" d="M 2034 2216 
Q 1584 2216 1326 1975 
Q 1069 1734 1069 1313 
Q 1069 891 1326 650 
Q 1584 409 2034 409 
Q 2484 409 2743 651 
Q 3003 894 3003 1313 
Q 3003 1734 2745 1975 
Q 2488 2216 2034 2216 
z
M 1403 2484 
Q 997 2584 770 2862 
Q 544 3141 544 3541 
Q 544 4100 942 4425 
Q 1341 4750 2034 4750 
Q 2731 4750 3128 4425 
Q 3525 4100 3525 3541 
Q 3525 3141 3298 2862 
Q 3072 2584 2669 2484 
Q 3125 2378 3379 2068 
Q 3634 1759 3634 1313 
Q 3634 634 3220 271 
Q 2806 -91 2034 -91 
Q 1263 -91 848 271 
Q 434 634 434 1313 
Q 434 1759 690 2068 
Q 947 2378 1403 2484 
z
M 1172 3481 
Q 1172 3119 1398 2916 
Q 1625 2713 2034 2713 
Q 2441 2713 2670 2916 
Q 2900 3119 2900 3481 
Q 2900 3844 2670 4047 
Q 2441 4250 2034 4250 
Q 1625 4250 1398 4047 
Q 1172 3844 1172 3481 
z
" transform="scale(0.015625)"/>
       </defs>
       <use xlink:href="#DejaVuSans-32"/>
       <use xlink:href="#DejaVuSans-30" transform="translate(63.623047 0)"/>
       <use xlink:href="#DejaVuSans-32" transform="translate(127.246094 0)"/>
       <use xlink:href="#DejaVuSans-32" transform="translate(190.869141 0)"/>
       <use xlink:href="#DejaVuSans-2d" transform="translate(254.492188 0)"/>
       <use xlink:href="#DejaVuSans-30" transform="translate(290.576172 0)"/>
       <use xlink:href="#DejaVuSans-38" transform="translate(354.199219 0)"/>
       <use xlink:href="#DejaVuSans-2d" transform="translate(417.822266 0)"/>
       <use xlink:href="#DejaVuSans-31" transform="translate(453.90625 0)"/>
       <use xlink:href="#DejaVuSans-33" transform="translate(517.529297 0)"/>
       <use xlink:href="#DejaVuSans-20" transform="translate(581.152344 0)"/>
       <use xlink:href="#DejaVuSans-28" transform="translate(612.939453 0)"/>
       <use xlink:href="#DejaVuSans-30" transform="translate(651.953125 0)"/>
       <use xlink:href="#DejaVuSans-30" transform="translate(715.576172 0)"/>
       <use xlink:href="#DejaVuSans-3a" transform="translate(779.199219 0)"/>
       <use xlink:href="#DejaVuSans-30" transform="translate(812.890625 0)"/>
       <use xlink:href="#DejaVuSans-30" transform="translate(876.513672 0)"/>
       <use xlink:href="#DejaVuSans-29" transform="translate(940.136719 0)"/>
      </g>
     </g>
    </g>
    <g id="xtick_5">
     <g id="line2d_5">
      <g>
       <use xlink:href="#m60d982ef6b" x="705.296555" y="484.397187" style="stroke: #000000; stroke-width: 0.8"/>
      </g>
     </g>
     <g id="text_5">
      <!-- 2022-10-27 (00:00) -->
      <g transform="translate(619.459293 546.93544) rotate(-30) scale(0.1 -0.1)">
       <defs>
        <path id="DejaVuSans-37" d="M 525 4666 
L 3525 4666 
L 3525 4397 
L 1831 0 
L 1172 0 
L 2766 4134 
L 525 4134 
L 525 4666 
z
" transform="scale(0.015625)"/>
       </defs>
       <use xlink:href="#DejaVuSans-32"/>
       <use xlink:href="#DejaVuSans-30" transform="translate(63.623047 0)"/>
       <use xlink:href="#DejaVuSans-32" transform="translate(127.246094 0)"/>
       <use xlink:href="#DejaVuSans-32" transform="translate(190.869141 0)"/>
       <use xlink:href="#DejaVuSans-2d" transform="translate(254.492188 0)"/>
       <use xlink:href="#DejaVuSans-31" transform="translate(290.576172 0)"/>
       <use xlink:href="#DejaVuSans-30" transform="translate(354.199219 0)"/>
       <use xlink:href="#DejaVuSans-2d" transform="translate(417.822266 0)"/>
       <use xlink:href="#DejaVuSans-32" transform="translate(453.90625 0)"/>
       <use xlink:href="#DejaVuSans-37" transform="translate(517.529297 0)"/>
       <use xlink:href="#DejaVuSans-20" transform="translate(581.152344 0)"/>
       <use xlink:href="#DejaVuSans-28" transform="translate(612.939453 0)"/>
       <use xlink:href="#DejaVuSans-30" transform="translate(651.953125 0)"/>
       <use xlink:href="#DejaVuSans-30" transform="translate(715.576172 0)"/>
       <use xlink:href="#DejaVuSans-3a" transform="translate(779.199219 0)"/>
       <use xlink:href="#DejaVuSans-30" transform="translate(812.890625 0)"/>
       <use xlink:href="#DejaVuSans-30" transform="translate(876.513672 0)"/>
       <use xlink:href="#DejaVuSans-29" transform="translate(940.136719 0)"/>
      </g>
     </g>
    </g>
    <g id="xtick_6">
     <g id="line2d_6">
      <g>
       <use xlink:href="#m60d982ef6b" x="858.089545" y="484.397187" style="stroke: #000000; stroke-width: 0.8"/>
      </g>
     </g>
     <g id="text_6">
      <!-- 2023-01-10 (00:00) -->
      <g transform="translate(772.252283 546.93544) rotate(-30) scale(0.1 -0.1)">
       <use xlink:href="#DejaVuSans-32"/>
       <use xlink:href="#DejaVuSans-30" transform="translate(63.623047 0)"/>
       <use xlink:href="#DejaVuSans-32" transform="translate(127.246094 0)"/>
       <use xlink:href="#DejaVuSans-33" transform="translate(190.869141 0)"/>
       <use xlink:href="#DejaVuSans-2d" transform="translate(254.492188 0)"/>
       <use xlink:href="#DejaVuSans-30" transform="translate(290.576172 0)"/>
       <use xlink:href="#DejaVuSans-31" transform="translate(354.199219 0)"/>
       <use xlink:href="#DejaVuSans-2d" transform="translate(417.822266 0)"/>
       <use xlink:href="#DejaVuSans-31" transform="translate(453.90625 0)"/>
       <use xlink:href="#DejaVuSans-30" transform="translate(517.529297 0)"/>
       <use xlink:href="#DejaVuSans-20" transform="translate(581.152344 0)"/>
       <use xlink:href="#DejaVuSans-28" transform="translate(612.939453 0)"/>
       <use xlink:href="#DejaVuSans-30" transform="translate(651.953125 0)"/>
       <use xlink:href="#DejaVuSans-30" transform="translate(715.576172 0)"/>
       <use xlink:href="#DejaVuSans-3a" transform="translate(779.199219 0)"/>
       <use xlink:href="#DejaVuSans-30" transform="translate(812.890625 0)"/>
       <use xlink:href="#DejaVuSans-30" transform="translate(876.513672 0)"/>
       <use xlink:href="#DejaVuSans-29" transform="translate(940.136719 0)"/>
      </g>
     </g>
    </g>
    <g id="text_7">
     <!-- Forecast Date -->
     <g transform="translate(422.12875 564.894002) scale(0.16 -0.16)">
      <defs>
       <path id="DejaVuSans-46" d="M 628 4666 
L 3309 4666 
L 3309 4134 
L 1259 4134 
L 1259 2759 
L 3109 2759 
L 3109 2228 
L 1259 2228 
L 1259 0 
L 628 0 
L 628 4666 
z
" transform="scale(0.015625)"/>
       <path id="DejaVuSans-6f" d="M 1959 3097 
Q 1497 3097 1228 2736 
Q 959 2375 959 1747 
Q 959 1119 1226 758 
Q 1494 397 1959 397 
Q 2419 397 2687 759 
Q 2956 1122 2956 1747 
Q 2956 2369 2687 2733 
Q 2419 3097 1959 3097 
z
M 1959 3584 
Q 2709 3584 3137 3096 
Q 3566 2609 3566 1747 
Q 3566 888 3137 398 
Q 2709 -91 1959 -91 
Q 1206 -91 779 398 
Q 353 888 353 1747 
Q 353 2609 779 3096 
Q 1206 3584 1959 3584 
z
" transform="scale(0.015625)"/>
       <path id="DejaVuSans-72" d="M 2631 2963 
Q 2534 3019 2420 3045 
Q 2306 3072 2169 3072 
Q 1681 3072 1420 2755 
Q 1159 2438 1159 1844 
L 1159 0 
L 581 0 
L 581 3500 
L 1159 3500 
L 1159 2956 
Q 1341 3275 1631 3429 
Q 1922 3584 2338 3584 
Q 2397 3584 2469 3576 
Q 2541 3569 2628 3553 
L 2631 2963 
z
" transform="scale(0.015625)"/>
       <path id="DejaVuSans-65" d="M 3597 1894 
L 3597 1613 
L 953 1613 
Q 991 1019 1311 708 
Q 1631 397 2203 397 
Q 2534 397 2845 478 
Q 3156 559 3463 722 
L 3463 178 
Q 3153 47 2828 -22 
Q 2503 -91 2169 -91 
Q 1331 -91 842 396 
Q 353 884 353 1716 
Q 353 2575 817 3079 
Q 1281 3584 2069 3584 
Q 2775 3584 3186 3129 
Q 3597 2675 3597 1894 
z
M 3022 2063 
Q 3016 2534 2758 2815 
Q 2500 3097 2075 3097 
Q 1594 3097 1305 2825 
Q 1016 2553 972 2059 
L 3022 2063 
z
" transform="scale(0.015625)"/>
       <path id="DejaVuSans-63" d="M 3122 3366 
L 3122 2828 
Q 2878 2963 2633 3030 
Q 2388 3097 2138 3097 
Q 1578 3097 1268 2742 
Q 959 2388 959 1747 
Q 959 1106 1268 751 
Q 1578 397 2138 397 
Q 2388 397 2633 464 
Q 2878 531 3122 666 
L 3122 134 
Q 2881 22 2623 -34 
Q 2366 -91 2075 -91 
Q 1284 -91 818 406 
Q 353 903 353 1747 
Q 353 2603 823 3093 
Q 1294 3584 2113 3584 
Q 2378 3584 2631 3529 
Q 2884 3475 3122 3366 
z
" transform="scale(0.015625)"/>
       <path id="DejaVuSans-61" d="M 2194 1759 
Q 1497 1759 1228 1600 
Q 959 1441 959 1056 
Q 959 750 1161 570 
Q 1363 391 1709 391 
Q 2188 391 2477 730 
Q 2766 1069 2766 1631 
L 2766 1759 
L 2194 1759 
z
M 3341 1997 
L 3341 0 
L 2766 0 
L 2766 531 
Q 2569 213 2275 61 
Q 1981 -91 1556 -91 
Q 1019 -91 701 211 
Q 384 513 384 1019 
Q 384 1609 779 1909 
Q 1175 2209 1959 2209 
L 2766 2209 
L 2766 2266 
Q 2766 2663 2505 2880 
Q 2244 3097 1772 3097 
Q 1472 3097 1187 3025 
Q 903 2953 641 2809 
L 641 3341 
Q 956 3463 1253 3523 
Q 1550 3584 1831 3584 
Q 2591 3584 2966 3190 
Q 3341 2797 3341 1997 
z
" transform="scale(0.015625)"/>
       <path id="DejaVuSans-73" d="M 2834 3397 
L 2834 2853 
Q 2591 2978 2328 3040 
Q 2066 3103 1784 3103 
Q 1356 3103 1142 2972 
Q 928 2841 928 2578 
Q 928 2378 1081 2264 
Q 1234 2150 1697 2047 
L 1894 2003 
Q 2506 1872 2764 1633 
Q 3022 1394 3022 966 
Q 3022 478 2636 193 
Q 2250 -91 1575 -91 
Q 1294 -91 989 -36 
Q 684 19 347 128 
L 347 722 
Q 666 556 975 473 
Q 1284 391 1588 391 
Q 1994 391 2212 530 
Q 2431 669 2431 922 
Q 2431 1156 2273 1281 
Q 2116 1406 1581 1522 
L 1381 1569 
Q 847 1681 609 1914 
Q 372 2147 372 2553 
Q 372 3047 722 3315 
Q 1072 3584 1716 3584 
Q 2034 3584 2315 3537 
Q 2597 3491 2834 3397 
z
" transform="scale(0.015625)"/>
       <path id="DejaVuSans-74" d="M 1172 4494 
L 1172 3500 
L 2356 3500 
L 2356 3053 
L 1172 3053 
L 1172 1153 
Q 1172 725 1289 603 
Q 1406 481 1766 481 
L 2356 481 
L 2356 0 
L 1766 0 
Q 1100 0 847 248 
Q 594 497 594 1153 
L 594 3053 
L 172 3053 
L 172 3500 
L 594 3500 
L 594 4494 
L 1172 4494 
z
" transform="scale(0.015625)"/>
       <path id="DejaVuSans-44" d="M 1259 4147 
L 1259 519 
L 2022 519 
Q 2988 519 3436 956 
Q 3884 1394 3884 2338 
Q 3884 3275 3436 3711 
Q 2988 4147 2022 4147 
L 1259 4147 
z
M 628 4666 
L 1925 4666 
Q 3281 4666 3915 4102 
Q 4550 3538 4550 2338 
Q 4550 1131 3912 565 
Q 3275 0 1925 0 
L 628 0 
L 628 4666 
z
" transform="scale(0.015625)"/>
      </defs>
      <use xlink:href="#DejaVuSans-46"/>
      <use xlink:href="#DejaVuSans-6f" transform="translate(53.894531 0)"/>
      <use xlink:href="#DejaVuSans-72" transform="translate(115.076172 0)"/>
      <use xlink:href="#DejaVuSans-65" transform="translate(153.939453 0)"/>
      <use xlink:href="#DejaVuSans-63" transform="translate(215.462891 0)"/>
      <use xlink:href="#DejaVuSans-61" transform="translate(270.443359 0)"/>
      <use xlink:href="#DejaVuSans-73" transform="translate(331.722656 0)"/>
      <use xlink:href="#DejaVuSans-74" transform="translate(383.822266 0)"/>
      <use xlink:href="#DejaVuSans-20" transform="translate(423.03125 0)"/>
      <use xlink:href="#DejaVuSans-44" transform="translate(454.818359 0)"/>
      <use xlink:href="#DejaVuSans-61" transform="translate(531.820312 0)"/>
      <use xlink:href="#DejaVuSans-74" transform="translate(593.099609 0)"/>
      <use xlink:href="#DejaVuSans-65" transform="translate(632.308594 0)"/>
     </g>
    </g>
   </g>
   <g id="matplotlib.axis_2">
    <g id="ytick_1">
     <g id="line2d_7">
      <defs>
       <path id="mfe381119dc" d="M 0 0 
L -3.5 0 
" style="stroke: #000000; stroke-width: 0.8"/>
      </defs>
      <g>
       <use xlink:href="#mfe381119dc" x="59.135" y="479.583721" style="stroke: #000000; stroke-width: 0.8"/>
      </g>
     </g>
     <g id="text_8">
      <!-- 0 -->
      <g transform="translate(45.7725 483.38294) scale(0.1 -0.1)">
       <use xlink:href="#DejaVuSans-30"/>
      </g>
     </g>
    </g>
    <g id="ytick_2">
     <g id="line2d_8">
      <g>
       <use xlink:href="#mfe381119dc" x="59.135" y="421.092125" style="stroke: #000000; stroke-width: 0.8"/>
      </g>
     </g>
     <g id="text_9">
      <!-- 200 -->
      <g transform="translate(33.0475 424.891344) scale(0.1 -0.1)">
       <use xlink:href="#DejaVuSans-32"/>
       <use xlink:href="#DejaVuSans-30" transform="translate(63.623047 0)"/>
       <use xlink:href="#DejaVuSans-30" transform="translate(127.246094 0)"/>
      </g>
     </g>
    </g>
    <g id="ytick_3">
     <g id="line2d_9">
      <g>
       <use xlink:href="#mfe381119dc" x="59.135" y="362.600529" style="stroke: #000000; stroke-width: 0.8"/>
      </g>
     </g>
     <g id="text_10">
      <!-- 400 -->
      <g transform="translate(33.0475 366.399748) scale(0.1 -0.1)">
       <defs>
        <path id="DejaVuSans-34" d="M 2419 4116 
L 825 1625 
L 2419 1625 
L 2419 4116 
z
M 2253 4666 
L 3047 4666 
L 3047 1625 
L 3713 1625 
L 3713 1100 
L 3047 1100 
L 3047 0 
L 2419 0 
L 2419 1100 
L 313 1100 
L 313 1709 
L 2253 4666 
z
" transform="scale(0.015625)"/>
       </defs>
       <use xlink:href="#DejaVuSans-34"/>
       <use xlink:href="#DejaVuSans-30" transform="translate(63.623047 0)"/>
       <use xlink:href="#DejaVuSans-30" transform="translate(127.246094 0)"/>
      </g>
     </g>
    </g>
    <g id="ytick_4">
     <g id="line2d_10">
      <g>
       <use xlink:href="#mfe381119dc" x="59.135" y="304.108933" style="stroke: #000000; stroke-width: 0.8"/>
      </g>
     </g>
     <g id="text_11">
      <!-- 600 -->
      <g transform="translate(33.0475 307.908151) scale(0.1 -0.1)">
       <use xlink:href="#DejaVuSans-36"/>
       <use xlink:href="#DejaVuSans-30" transform="translate(63.623047 0)"/>
       <use xlink:href="#DejaVuSans-30" transform="translate(127.246094 0)"/>
      </g>
     </g>
    </g>
    <g id="ytick_5">
     <g id="line2d_11">
      <g>
       <use xlink:href="#mfe381119dc" x="59.135" y="245.617337" style="stroke: #000000; stroke-width: 0.8"/>
      </g>
     </g>
     <g id="text_12">
      <!-- 800 -->
      <g transform="translate(33.0475 249.416555) scale(0.1 -0.1)">
       <use xlink:href="#DejaVuSans-38"/>
       <use xlink:href="#DejaVuSans-30" transform="translate(63.623047 0)"/>
       <use xlink:href="#DejaVuSans-30" transform="translate(127.246094 0)"/>
      </g>
     </g>
    </g>
    <g id="ytick_6">
     <g id="line2d_12">
      <g>
       <use xlink:href="#mfe381119dc" x="59.135" y="187.12574" style="stroke: #000000; stroke-width: 0.8"/>
      </g>
     </g>
     <g id="text_13">
      <!-- 1000 -->
      <g transform="translate(26.685 190.924959) scale(0.1 -0.1)">
       <use xlink:href="#DejaVuSans-31"/>
       <use xlink:href="#DejaVuSans-30" transform="translate(63.623047 0)"/>
       <use xlink:href="#DejaVuSans-30" transform="translate(127.246094 0)"/>
       <use xlink:href="#DejaVuSans-30" transform="translate(190.869141 0)"/>
      </g>
     </g>
    </g>
    <g id="ytick_7">
     <g id="line2d_13">
      <g>
       <use xlink:href="#mfe381119dc" x="59.135" y="128.634144" style="stroke: #000000; stroke-width: 0.8"/>
      </g>
     </g>
     <g id="text_14">
      <!-- 1200 -->
      <g transform="translate(26.685 132.433363) scale(0.1 -0.1)">
       <use xlink:href="#DejaVuSans-31"/>
       <use xlink:href="#DejaVuSans-32" transform="translate(63.623047 0)"/>
       <use xlink:href="#DejaVuSans-30" transform="translate(127.246094 0)"/>
       <use xlink:href="#DejaVuSans-30" transform="translate(190.869141 0)"/>
      </g>
     </g>
    </g>
    <g id="ytick_8">
     <g id="line2d_14">
      <g>
       <use xlink:href="#mfe381119dc" x="59.135" y="70.142548" style="stroke: #000000; stroke-width: 0.8"/>
      </g>
     </g>
     <g id="text_15">
      <!-- 1400 -->
      <g transform="translate(26.685 73.941767) scale(0.1 -0.1)">
       <use xlink:href="#DejaVuSans-31"/>
       <use xlink:href="#DejaVuSans-34" transform="translate(63.623047 0)"/>
       <use xlink:href="#DejaVuSans-30" transform="translate(127.246094 0)"/>
       <use xlink:href="#DejaVuSans-30" transform="translate(190.869141 0)"/>
      </g>
     </g>
    </g>
    <g id="text_16">
     <!-- Root Mean Squared Error (RMSE) -->
     <g transform="translate(19.3575 394.303437) rotate(-90) scale(0.16 -0.16)">
      <defs>
       <path id="DejaVuSans-52" d="M 2841 2188 
Q 3044 2119 3236 1894 
Q 3428 1669 3622 1275 
L 4263 0 
L 3584 0 
L 2988 1197 
Q 2756 1666 2539 1819 
Q 2322 1972 1947 1972 
L 1259 1972 
L 1259 0 
L 628 0 
L 628 4666 
L 2053 4666 
Q 2853 4666 3247 4331 
Q 3641 3997 3641 3322 
Q 3641 2881 3436 2590 
Q 3231 2300 2841 2188 
z
M 1259 4147 
L 1259 2491 
L 2053 2491 
Q 2509 2491 2742 2702 
Q 2975 2913 2975 3322 
Q 2975 3731 2742 3939 
Q 2509 4147 2053 4147 
L 1259 4147 
z
" transform="scale(0.015625)"/>
       <path id="DejaVuSans-4d" d="M 628 4666 
L 1569 4666 
L 2759 1491 
L 3956 4666 
L 4897 4666 
L 4897 0 
L 4281 0 
L 4281 4097 
L 3078 897 
L 2444 897 
L 1241 4097 
L 1241 0 
L 628 0 
L 628 4666 
z
" transform="scale(0.015625)"/>
       <path id="DejaVuSans-6e" d="M 3513 2113 
L 3513 0 
L 2938 0 
L 2938 2094 
Q 2938 2591 2744 2837 
Q 2550 3084 2163 3084 
Q 1697 3084 1428 2787 
Q 1159 2491 1159 1978 
L 1159 0 
L 581 0 
L 581 3500 
L 1159 3500 
L 1159 2956 
Q 1366 3272 1645 3428 
Q 1925 3584 2291 3584 
Q 2894 3584 3203 3211 
Q 3513 2838 3513 2113 
z
" transform="scale(0.015625)"/>
       <path id="DejaVuSans-53" d="M 3425 4513 
L 3425 3897 
Q 3066 4069 2747 4153 
Q 2428 4238 2131 4238 
Q 1616 4238 1336 4038 
Q 1056 3838 1056 3469 
Q 1056 3159 1242 3001 
Q 1428 2844 1947 2747 
L 2328 2669 
Q 3034 2534 3370 2195 
Q 3706 1856 3706 1288 
Q 3706 609 3251 259 
Q 2797 -91 1919 -91 
Q 1588 -91 1214 -16 
Q 841 59 441 206 
L 441 856 
Q 825 641 1194 531 
Q 1563 422 1919 422 
Q 2459 422 2753 634 
Q 3047 847 3047 1241 
Q 3047 1584 2836 1778 
Q 2625 1972 2144 2069 
L 1759 2144 
Q 1053 2284 737 2584 
Q 422 2884 422 3419 
Q 422 4038 858 4394 
Q 1294 4750 2059 4750 
Q 2388 4750 2728 4690 
Q 3069 4631 3425 4513 
z
" transform="scale(0.015625)"/>
       <path id="DejaVuSans-71" d="M 947 1747 
Q 947 1113 1208 752 
Q 1469 391 1925 391 
Q 2381 391 2643 752 
Q 2906 1113 2906 1747 
Q 2906 2381 2643 2742 
Q 2381 3103 1925 3103 
Q 1469 3103 1208 2742 
Q 947 2381 947 1747 
z
M 2906 525 
Q 2725 213 2448 61 
Q 2172 -91 1784 -91 
Q 1150 -91 751 415 
Q 353 922 353 1747 
Q 353 2572 751 3078 
Q 1150 3584 1784 3584 
Q 2172 3584 2448 3432 
Q 2725 3281 2906 2969 
L 2906 3500 
L 3481 3500 
L 3481 -1331 
L 2906 -1331 
L 2906 525 
z
" transform="scale(0.015625)"/>
       <path id="DejaVuSans-75" d="M 544 1381 
L 544 3500 
L 1119 3500 
L 1119 1403 
Q 1119 906 1312 657 
Q 1506 409 1894 409 
Q 2359 409 2629 706 
Q 2900 1003 2900 1516 
L 2900 3500 
L 3475 3500 
L 3475 0 
L 2900 0 
L 2900 538 
Q 2691 219 2414 64 
Q 2138 -91 1772 -91 
Q 1169 -91 856 284 
Q 544 659 544 1381 
z
M 1991 3584 
L 1991 3584 
z
" transform="scale(0.015625)"/>
       <path id="DejaVuSans-64" d="M 2906 2969 
L 2906 4863 
L 3481 4863 
L 3481 0 
L 2906 0 
L 2906 525 
Q 2725 213 2448 61 
Q 2172 -91 1784 -91 
Q 1150 -91 751 415 
Q 353 922 353 1747 
Q 353 2572 751 3078 
Q 1150 3584 1784 3584 
Q 2172 3584 2448 3432 
Q 2725 3281 2906 2969 
z
M 947 1747 
Q 947 1113 1208 752 
Q 1469 391 1925 391 
Q 2381 391 2643 752 
Q 2906 1113 2906 1747 
Q 2906 2381 2643 2742 
Q 2381 3103 1925 3103 
Q 1469 3103 1208 2742 
Q 947 2381 947 1747 
z
" transform="scale(0.015625)"/>
       <path id="DejaVuSans-45" d="M 628 4666 
L 3578 4666 
L 3578 4134 
L 1259 4134 
L 1259 2753 
L 3481 2753 
L 3481 2222 
L 1259 2222 
L 1259 531 
L 3634 531 
L 3634 0 
L 628 0 
L 628 4666 
z
" transform="scale(0.015625)"/>
      </defs>
      <use xlink:href="#DejaVuSans-52"/>
      <use xlink:href="#DejaVuSans-6f" transform="translate(64.982422 0)"/>
      <use xlink:href="#DejaVuSans-6f" transform="translate(126.164062 0)"/>
      <use xlink:href="#DejaVuSans-74" transform="translate(187.345703 0)"/>
      <use xlink:href="#DejaVuSans-20" transform="translate(226.554688 0)"/>
      <use xlink:href="#DejaVuSans-4d" transform="translate(258.341797 0)"/>
      <use xlink:href="#DejaVuSans-65" transform="translate(344.621094 0)"/>
      <use xlink:href="#DejaVuSans-61" transform="translate(406.144531 0)"/>
      <use xlink:href="#DejaVuSans-6e" transform="translate(467.423828 0)"/>
      <use xlink:href="#DejaVuSans-20" transform="translate(530.802734 0)"/>
      <use xlink:href="#DejaVuSans-53" transform="translate(562.589844 0)"/>
      <use xlink:href="#DejaVuSans-71" transform="translate(626.066406 0)"/>
      <use xlink:href="#DejaVuSans-75" transform="translate(689.542969 0)"/>
      <use xlink:href="#DejaVuSans-61" transform="translate(752.921875 0)"/>
      <use xlink:href="#DejaVuSans-72" transform="translate(814.201172 0)"/>
      <use xlink:href="#DejaVuSans-65" transform="translate(853.064453 0)"/>
      <use xlink:href="#DejaVuSans-64" transform="translate(914.587891 0)"/>
      <use xlink:href="#DejaVuSans-20" transform="translate(978.064453 0)"/>
      <use xlink:href="#DejaVuSans-45" transform="translate(1009.851562 0)"/>
      <use xlink:href="#DejaVuSans-72" transform="translate(1073.035156 0)"/>
      <use xlink:href="#DejaVuSans-72" transform="translate(1112.398438 0)"/>
      <use xlink:href="#DejaVuSans-6f" transform="translate(1151.261719 0)"/>
      <use xlink:href="#DejaVuSans-72" transform="translate(1212.443359 0)"/>
      <use xlink:href="#DejaVuSans-20" transform="translate(1253.556641 0)"/>
      <use xlink:href="#DejaVuSans-28" transform="translate(1285.34375 0)"/>
      <use xlink:href="#DejaVuSans-52" transform="translate(1324.357422 0)"/>
      <use xlink:href="#DejaVuSans-4d" transform="translate(1393.839844 0)"/>
      <use xlink:href="#DejaVuSans-53" transform="translate(1480.119141 0)"/>
      <use xlink:href="#DejaVuSans-45" transform="translate(1543.595703 0)"/>
      <use xlink:href="#DejaVuSans-29" transform="translate(1606.779297 0)"/>
     </g>
    </g>
   </g>
   <g id="line2d_15">
    <path d="M 97.180455 176.483012 
L 100.236314 265.336312 
L 103.292174 248.448578 
L 106.348034 198.576424 
L 109.403894 231.585994 
L 112.459754 224.547331 
L 115.515613 248.021118 
L 118.571473 244.332817 
L 121.627333 216.069584 
L 124.683193 220.300211 
L 127.739053 245.513145 
L 130.794912 254.481291 
L 133.850772 247.786584 
L 136.906632 243.303841 
L 139.962492 222.669988 
L 143.018352 274.226774 
L 146.074211 289.098273 
L 149.130071 268.435699 
L 152.185931 287.507551 
L 155.241791 266.49265 
L 158.297651 254.644942 
L 161.35351 265.52324 
L 164.40937 268.805824 
L 167.46523 244.737499 
L 170.52109 280.862754 
L 173.57695 266.623206 
L 176.632809 245.917934 
L 179.688669 281.129829 
L 182.744529 236.161415 
L 185.800389 257.031213 
L 188.856249 264.415134 
L 191.912108 273.490524 
L 194.967968 253.431341 
L 198.023828 286.56306 
L 201.079688 241.934961 
L 204.135548 222.612171 
L 207.191407 260.362706 
L 210.247267 247.109401 
L 213.303127 277.772667 
L 216.358987 291.235194 
L 219.414847 260.961135 
L 222.470706 270.45106 
L 225.526566 275.140313 
L 228.582426 266.364699 
L 231.638286 253.467434 
L 234.694146 266.918127 
L 237.750005 274.673476 
L 240.805865 262.946846 
L 243.861725 218.94006 
L 246.917585 209.374253 
L 249.973445 263.582386 
L 253.029304 218.413818 
L 256.085164 232.01713 
L 259.141024 239.852109 
L 262.196884 269.48265 
L 265.252744 283.800935 
L 268.308604 272.997537 
L 271.364463 243.906018 
L 274.420323 237.333782 
L 277.476183 253.122907 
L 280.532043 245.97111 
L 283.587903 256.864027 
L 286.643762 245.039079 
L 289.699622 247.787281 
L 292.755482 249.65834 
L 295.811342 277.489437 
L 298.867202 254.359517 
L 301.923061 265.609278 
L 304.978921 269.755794 
L 308.034781 283.271908 
L 311.090641 276.187317 
L 314.146501 245.73247 
L 317.20236 262.72379 
L 320.25822 249.638652 
L 323.31408 279.715467 
L 326.36994 277.734503 
L 329.4258 282.250644 
L 332.481659 287.764434 
L 335.537519 288.835054 
L 338.593379 263.786003 
L 341.649239 283.041694 
L 344.705099 270.869434 
L 347.760958 270.056928 
L 350.816818 301.096815 
L 353.872678 272.973082 
L 356.928538 247.935616 
L 359.984398 268.516222 
L 363.040257 269.604996 
L 366.096117 304.059416 
L 369.151977 248.960361 
L 372.207837 248.038808 
L 375.263697 275.522665 
L 378.319556 276.82698 
L 381.375416 247.322104 
L 384.431276 236.362891 
L 387.487136 223.667619 
L 390.542996 268.673518 
L 393.598855 289.117516 
L 396.654715 290.754649 
L 399.710575 287.68716 
L 402.766435 262.43592 
L 405.822295 257.244023 
L 408.878154 286.208162 
L 411.934014 297.043548 
L 414.989874 309.562371 
L 418.045734 299.791822 
L 421.101594 294.585323 
L 427.213313 310.097217 
L 430.269173 303.674101 
L 433.325033 288.229093 
L 436.380893 283.143494 
L 439.436752 252.532904 
L 442.492612 257.284257 
L 445.548472 279.039764 
L 448.604332 299.528888 
L 451.660192 268.65233 
L 454.716051 259.406613 
L 457.771911 290.644459 
L 460.827771 301.997448 
L 463.883631 246.224315 
L 466.939491 286.837972 
L 469.99535 267.253819 
L 473.05121 283.320568 
L 476.10707 251.944043 
L 479.16293 257.231314 
L 482.21879 254.232637 
L 485.27465 248.914415 
L 488.330509 254.473116 
L 491.386369 273.843477 
L 494.442229 243.882295 
L 497.498089 263.77656 
L 500.553949 247.405821 
L 503.609808 268.765232 
L 506.665668 309.505928 
L 509.721528 286.945858 
L 512.777388 290.872621 
L 515.833248 298.034093 
L 518.889107 255.630078 
L 521.944967 285.076762 
L 525.000827 300.535176 
L 528.056687 266.114136 
L 531.112547 278.74263 
L 534.168406 282.680138 
L 537.224266 269.402842 
L 540.280126 285.463701 
L 543.335986 272.36389 
L 546.391846 254.556905 
L 549.447705 290.794116 
L 552.503565 277.279679 
L 555.559425 281.908544 
L 558.615285 282.008863 
L 561.671145 276.595891 
L 564.727004 254.258592 
L 567.782864 255.86072 
L 570.838724 268.103685 
L 573.894584 253.413598 
L 576.950444 298.201314 
L 580.006303 256.749572 
L 583.062163 263.716798 
L 586.118023 269.17834 
L 589.173883 266.895404 
L 592.229743 279.301484 
L 595.285602 253.590547 
L 598.341462 205.911132 
L 601.397322 217.238167 
L 604.453182 238.714461 
L 607.509042 266.138573 
L 610.564901 282.299232 
L 613.620761 255.230161 
L 616.676621 250.174979 
L 619.732481 227.108606 
L 622.788341 285.880557 
L 625.8442 266.306954 
L 628.90006 265.067809 
L 631.95592 277.77015 
L 635.01178 264.500851 
L 638.06764 260.079048 
L 641.123499 253.200859 
L 644.179359 263.24939 
L 647.235219 260.04922 
L 650.291079 255.414929 
L 653.346939 268.313693 
L 656.402798 258.785621 
L 659.458658 232.563704 
L 662.514518 240.353521 
L 665.570378 225.08348 
L 668.626238 234.326288 
L 671.682097 274.981285 
L 674.737957 229.148029 
L 677.793817 238.02571 
L 680.849677 224.060556 
L 683.905537 228.567807 
L 686.961396 220.276077 
L 690.017256 263.078688 
L 693.073116 219.282873 
L 696.128976 251.44363 
L 699.184836 261.550477 
L 702.240696 238.93309 
L 705.296555 254.096583 
L 708.352415 270.379588 
L 711.408275 253.199467 
L 714.464135 231.301265 
L 717.519995 216.852459 
L 720.575854 266.344725 
L 723.631714 258.911233 
L 726.687574 268.818944 
L 729.743434 250.615826 
L 732.799294 284.723827 
L 735.855153 290.542231 
L 738.911013 286.609882 
L 741.966873 259.986655 
L 745.022733 249.857549 
L 748.078593 253.220798 
L 751.134452 241.929428 
L 754.190312 266.101123 
L 757.246172 297.281938 
L 760.302032 295.674901 
L 763.357892 275.422328 
L 766.413751 236.440468 
L 769.469611 222.444129 
L 772.525471 225.105293 
L 775.581331 230.052856 
L 778.637191 255.187374 
L 781.69305 260.010182 
L 784.74891 251.07488 
L 787.80477 229.29324 
L 790.86063 252.290195 
L 793.91649 287.195154 
L 796.972349 237.017458 
L 800.028209 278.694738 
L 803.084069 250.78244 
L 806.139929 246.930809 
L 809.195789 263.122332 
L 812.251648 288.929785 
L 815.307508 282.493282 
L 818.363368 296.722834 
L 821.419228 261.277887 
L 824.475088 268.2678 
L 827.530947 254.617756 
L 830.586807 235.968365 
L 833.642667 276.217734 
L 836.698527 303.829095 
L 839.754387 287.964677 
L 842.810246 268.657506 
L 845.866106 290.913069 
L 848.921966 311.708271 
L 851.977826 281.900369 
L 855.033686 283.721948 
L 858.089545 279.491946 
L 858.089545 279.491946 
" clip-path="url(#p82e16ebb4f)" style="fill: none; stroke: #0000ff; stroke-width: 2; stroke-linecap: square"/>
   </g>
   <g id="line2d_16">
    <path d="M 97.180455 407.006187 
L 100.236314 375.382606 
L 103.292174 392.936431 
L 106.348034 398.721276 
L 109.403894 356.738579 
L 112.459754 394.102514 
L 115.515613 311.624107 
L 118.571473 360.857491 
L 121.627333 329.887879 
L 124.683193 394.801314 
L 127.739053 369.576591 
L 130.794912 393.933901 
L 133.850772 393.214501 
L 136.906632 401.460356 
L 139.962492 273.236766 
L 143.018352 356.873634 
L 146.074211 333.923537 
L 149.130071 396.538176 
L 152.185931 369.408263 
L 155.241791 338.018225 
L 158.297651 400.416458 
L 161.35351 387.126765 
L 164.40937 386.590491 
L 167.46523 231.396639 
L 170.52109 347.317689 
L 173.57695 349.785491 
L 176.632809 349.223682 
L 179.688669 407.179914 
L 182.744529 348.960124 
L 185.800389 386.870712 
L 188.856249 316.440685 
L 191.912108 346.692941 
L 194.967968 386.329904 
L 198.023828 340.982343 
L 201.079688 392.61917 
L 204.135548 405.70749 
L 207.191407 400.644521 
L 210.247267 395.891677 
L 213.303127 387.639405 
L 216.358987 379.949933 
L 219.414847 411.411969 
L 222.470706 404.491654 
L 225.526566 309.02017 
L 228.582426 389.186564 
L 231.638286 402.72234 
L 234.694146 394.618644 
L 237.750005 350.326781 
L 240.805865 294.686802 
L 243.861725 304.745311 
L 246.917585 332.055146 
L 249.973445 380.164823 
L 253.029304 398.275681 
L 256.085164 430.107704 
L 259.141024 382.014177 
L 262.196884 439.509744 
L 265.252744 291.293315 
L 268.308604 306.764635 
L 271.364463 408.227977 
L 274.420323 350.424841 
L 277.476183 366.188164 
L 280.532043 347.900883 
L 283.587903 379.681921 
L 286.643762 298.160954 
L 289.699622 379.742415 
L 292.755482 258.827587 
L 295.811342 223.5869 
L 298.867202 408.799849 
L 301.923061 366.513698 
L 304.978921 276.7285 
L 308.034781 402.174437 
L 311.090641 61.037187 
L 314.146501 357.465101 
L 317.20236 393.699081 
L 320.25822 345.359752 
L 323.31408 382.531047 
L 326.36994 389.312765 
L 329.4258 331.772586 
L 332.481659 396.407531 
L 335.537519 371.300609 
L 338.593379 296.726386 
L 341.649239 182.291223 
L 344.705099 378.060746 
L 347.760958 421.139035 
L 350.816818 362.611641 
L 353.872678 372.905772 
L 356.928538 405.589201 
L 359.984398 374.351158 
L 363.040257 398.560687 
L 366.096117 391.235796 
L 369.151977 360.206654 
L 372.207837 265.114434 
L 375.263697 317.183022 
L 378.319556 341.973503 
L 381.375416 299.407078 
L 384.431276 277.268023 
L 387.487136 303.581976 
L 390.542996 435.113766 
L 393.598855 379.221483 
L 396.654715 362.201675 
L 399.710575 308.787707 
L 402.766435 218.886188 
L 405.822295 411.414201 
L 408.878154 392.932968 
L 411.934014 383.255927 
L 414.989874 276.978546 
L 418.045734 369.494426 
L 421.101594 398.348367 
L 424.157453 386.854906 
L 427.213313 335.272674 
L 430.269173 327.920535 
L 433.325033 258.665704 
L 436.380893 263.123528 
L 439.436752 323.769788 
L 442.492612 222.486684 
L 445.548472 232.053991 
L 448.604332 339.138318 
L 451.660192 286.488589 
L 454.716051 317.162083 
L 457.771911 288.074385 
L 460.827771 396.717875 
L 463.883631 376.243611 
L 466.939491 281.296443 
L 469.99535 362.674866 
L 473.05121 339.026397 
L 476.10707 409.277346 
L 479.16293 422.601401 
L 482.21879 390.758445 
L 485.27465 275.974204 
L 488.330509 257.234205 
L 491.386369 359.870293 
L 494.442229 268.729193 
L 497.498089 387.169944 
L 500.553949 391.415708 
L 503.609808 371.054125 
L 506.665668 316.770967 
L 509.721528 368.106384 
L 512.777388 301.520258 
L 515.833248 317.298263 
L 518.889107 346.614632 
L 521.944967 361.523411 
L 525.000827 311.864067 
L 528.056687 315.153863 
L 531.112547 303.211352 
L 534.168406 278.761087 
L 537.224266 413.721047 
L 540.280126 379.737113 
L 543.335986 368.729767 
L 546.391846 368.216422 
L 549.447705 392.027105 
L 552.503565 354.924828 
L 555.559425 376.562863 
L 558.615285 268.585124 
L 561.671145 269.874302 
L 564.727004 272.730623 
L 567.782864 259.00741 
L 570.838724 254.827496 
L 573.894584 374.899838 
L 576.950444 249.196966 
L 583.062163 406.111949 
L 586.118023 356.109431 
L 589.173883 225.7876 
L 592.229743 223.800603 
L 595.285602 241.33282 
L 598.341462 416.763179 
L 604.453182 232.419313 
L 607.509042 285.104644 
L 610.564901 418.449672 
L 613.620761 364.220588 
L 616.676621 213.628531 
L 619.732481 275.528448 
L 622.788341 371.332445 
L 625.8442 349.4121 
L 628.90006 350.564153 
L 631.95592 256.264421 
L 635.01178 247.784549 
L 638.06764 346.368861 
L 641.123499 358.339646 
L 644.179359 378.552261 
L 647.235219 213.806516 
L 653.346939 374.15917 
L 656.402798 375.829013 
L 659.458658 383.500627 
L 662.514518 393.369093 
L 665.570378 293.744864 
L 668.626238 348.649414 
L 671.682097 308.2346 
L 674.737957 260.780847 
L 677.793817 411.737539 
L 680.849677 352.486872 
L 683.905537 343.820492 
L 686.961396 371.680837 
L 690.017256 405.542496 
L 693.073116 374.118025 
L 696.128976 356.647088 
L 699.184836 355.951635 
L 702.240696 344.376152 
L 705.296555 339.950976 
L 708.352415 368.896462 
L 711.408275 278.270848 
L 714.464135 270.118868 
L 717.519995 290.201399 
L 720.575854 307.404029 
L 723.631714 334.358591 
L 726.687574 328.922771 
L 729.743434 402.487886 
L 732.799294 370.840752 
L 735.855153 291.441436 
L 738.911013 315.939308 
L 741.966873 342.423606 
L 745.022733 307.03669 
L 748.078593 307.092704 
L 751.134452 399.851846 
L 754.190312 389.887738 
L 757.246172 333.302465 
L 760.302032 388.015491 
L 763.357892 384.982034 
L 766.413751 302.483456 
L 769.469611 419.939469 
L 772.525471 322.949071 
L 775.581331 326.22978 
L 778.637191 375.987978 
L 781.69305 360.544041 
L 784.74891 361.26735 
L 787.80477 351.616424 
L 790.86063 378.597725 
L 793.91649 287.755883 
L 796.972349 336.730653 
L 800.028209 378.464848 
L 803.084069 346.531967 
L 806.139929 373.6912 
L 809.195789 318.851035 
L 812.251648 361.642641 
L 815.307508 408.249049 
L 818.363368 236.292186 
L 821.419228 343.659894 
L 824.475088 379.600675 
L 827.530947 333.151479 
L 830.586807 312.665774 
L 833.642667 365.599794 
L 836.698527 243.754845 
L 839.754387 361.011351 
L 842.810246 335.669306 
L 845.866106 335.407229 
L 848.921966 314.944551 
L 851.977826 333.302215 
L 855.033686 333.249995 
L 858.089545 359.543027 
L 858.089545 359.543027 
" clip-path="url(#p82e16ebb4f)" style="fill: none; stroke: #ffa500; stroke-width: 2; stroke-linecap: square"/>
   </g>
   <g id="line2d_17">
    <path d="M 97.180455 348.445466 
L 100.236314 365.672435 
L 103.292174 339.20987 
L 106.348034 341.734275 
L 109.403894 358.101435 
L 112.459754 345.571456 
L 115.515613 361.35129 
L 118.571473 358.077828 
L 121.627333 343.520394 
L 124.683193 356.124202 
L 127.739053 361.399539 
L 130.794912 343.362857 
L 133.850772 352.350005 
L 136.906632 348.939935 
L 139.962492 360.520523 
L 143.018352 364.503532 
L 146.074211 366.289848 
L 149.130071 373.741404 
L 152.185931 372.586709 
L 155.241791 352.305808 
L 158.297651 361.909716 
L 161.35351 375.202417 
L 167.46523 366.419181 
L 170.52109 373.043674 
L 173.57695 352.455536 
L 176.632809 367.779868 
L 179.688669 355.669119 
L 182.744529 354.288958 
L 185.800389 362.932864 
L 188.856249 363.438007 
L 191.912108 360.128996 
L 194.967968 369.627731 
L 198.023828 359.958125 
L 201.079688 340.373383 
L 204.135548 350.194466 
L 207.191407 362.075741 
L 210.247267 353.385041 
L 213.303127 370.342918 
L 216.358987 359.62654 
L 219.414847 370.164291 
L 222.470706 367.822699 
L 225.526566 374.124782 
L 228.582426 364.245792 
L 231.638286 350.078993 
L 234.694146 366.467814 
L 237.750005 371.724597 
L 240.805865 349.884274 
L 243.861725 325.966954 
L 246.917585 350.138809 
L 249.973445 356.592297 
L 253.029304 350.558896 
L 256.085164 339.371986 
L 259.141024 352.313725 
L 262.196884 369.639486 
L 265.252744 373.014801 
L 268.308604 356.673828 
L 271.364463 360.641619 
L 274.420323 361.599506 
L 277.476183 361.580692 
L 280.532043 365.710608 
L 283.587903 371.833162 
L 286.643762 363.900489 
L 289.699622 360.695 
L 292.755482 363.190184 
L 295.811342 363.914939 
L 298.867202 363.445139 
L 301.923061 372.92838 
L 304.978921 367.993624 
L 308.034781 373.453801 
L 311.090641 358.145355 
L 314.146501 359.401413 
L 317.20236 358.752138 
L 320.25822 356.935887 
L 323.31408 376.668072 
L 326.36994 371.265087 
L 329.4258 377.561261 
L 332.481659 365.211337 
L 335.537519 369.868218 
L 338.593379 362.481289 
L 341.649239 375.96023 
L 344.705099 372.395542 
L 347.760958 379.537628 
L 350.816818 378.989493 
L 353.872678 368.766458 
L 356.928538 372.776733 
L 359.984398 366.341167 
L 363.040257 374.171317 
L 366.096117 371.609061 
L 369.151977 357.116201 
L 372.207837 346.897736 
L 375.263697 372.409474 
L 378.319556 370.259379 
L 381.375416 352.669613 
L 384.431276 347.276161 
L 387.487136 368.425546 
L 390.542996 378.779663 
L 393.598855 372.37438 
L 396.654715 382.041434 
L 399.710575 359.021524 
L 402.766435 369.744017 
L 405.822295 367.98311 
L 408.878154 386.025737 
L 411.934014 378.901232 
L 414.989874 384.995127 
L 418.045734 374.485418 
L 421.101594 379.071541 
L 424.157453 382.403026 
L 427.213313 394.912584 
L 430.269173 391.626992 
L 433.325033 373.790161 
L 436.380893 380.449364 
L 439.436752 377.48264 
L 442.492612 357.919345 
L 445.548472 379.38052 
L 448.604332 376.501351 
L 451.660192 376.158564 
L 454.716051 368.976082 
L 457.771911 368.783541 
L 460.827771 379.894945 
L 463.883631 376.211651 
L 466.939491 369.986075 
L 469.99535 360.3309 
L 473.05121 368.844464 
L 476.10707 364.321031 
L 479.16293 362.057543 
L 482.21879 355.527603 
L 485.27465 357.447055 
L 488.330509 370.508095 
L 491.386369 369.543032 
L 494.442229 366.763378 
L 497.498089 372.507186 
L 500.553949 364.734826 
L 503.609808 365.685894 
L 506.665668 376.017476 
L 509.721528 373.488796 
L 512.777388 374.551857 
L 515.833248 371.930044 
L 518.889107 363.368659 
L 521.944967 378.732601 
L 525.000827 377.787227 
L 528.056687 371.932935 
L 531.112547 374.350569 
L 534.168406 381.769397 
L 537.224266 366.604199 
L 540.280126 368.378868 
L 543.335986 362.625474 
L 546.391846 369.553715 
L 549.447705 367.360834 
L 552.503565 363.896687 
L 555.559425 380.441697 
L 558.615285 374.743586 
L 561.671145 361.564806 
L 564.727004 363.985224 
L 567.782864 358.74606 
L 570.838724 353.251254 
L 573.894584 361.82408 
L 576.950444 361.081422 
L 580.006303 369.572003 
L 583.062163 358.484233 
L 586.118023 367.272895 
L 589.173883 377.348513 
L 592.229743 365.154136 
L 595.285602 340.772103 
L 598.341462 348.95725 
L 601.397322 344.14251 
L 604.453182 360.810072 
L 607.509042 371.460886 
L 610.564901 376.942849 
L 613.620761 363.256899 
L 616.676621 353.788483 
L 619.732481 355.148339 
L 622.788341 366.066729 
L 625.8442 375.320291 
L 628.90006 373.058383 
L 631.95592 352.681528 
L 635.01178 365.569484 
L 638.06764 367.890593 
L 641.123499 350.98233 
L 644.179359 361.82408 
L 647.235219 357.067657 
L 650.291079 359.613081 
L 653.346939 384.297246 
L 656.402798 353.040032 
L 659.458658 348.762772 
L 662.514518 354.273509 
L 665.570378 356.268405 
L 668.626238 353.776532 
L 671.682097 354.728386 
L 674.737957 351.072501 
L 677.793817 353.32062 
L 680.849677 340.168213 
L 683.905537 351.95548 
L 686.961396 351.869433 
L 690.017256 362.726944 
L 693.073116 339.751714 
L 696.128976 372.565217 
L 699.184836 357.068327 
L 702.240696 357.001718 
L 705.296555 364.84107 
L 708.352415 367.034121 
L 711.408275 357.598987 
L 714.464135 339.839876 
L 717.519995 354.846358 
L 720.575854 360.292344 
L 723.631714 361.469958 
L 726.687574 356.808499 
L 729.743434 361.368141 
L 732.799294 374.978254 
L 735.855153 376.171827 
L 738.911013 363.197253 
L 741.966873 355.167662 
L 745.022733 346.557154 
L 748.078593 350.707009 
L 751.134452 362.246291 
L 754.190312 377.773179 
L 757.246172 373.122617 
L 760.302032 368.02305 
L 763.357892 365.890306 
L 766.413751 352.55788 
L 769.469611 354.36882 
L 772.525471 349.283918 
L 775.581331 359.088614 
L 778.637191 363.154796 
L 781.69305 339.966612 
L 784.74891 339.907573 
L 787.80477 353.830797 
L 790.86063 374.478894 
L 793.91649 360.037532 
L 796.972349 351.151863 
L 800.028209 360.627089 
L 803.084069 356.102719 
L 806.139929 356.909861 
L 809.195789 371.289997 
L 812.251648 379.360572 
L 815.307508 388.306691 
L 821.419228 364.416994 
L 824.475088 365.049498 
L 827.530947 356.802858 
L 830.586807 351.297735 
L 833.642667 369.027482 
L 836.698527 383.679236 
L 839.754387 371.765518 
L 842.810246 371.482762 
L 845.866106 381.120845 
L 848.921966 382.795017 
L 851.977826 369.804529 
L 855.033686 386.908305 
L 858.089545 368.672531 
L 858.089545 368.672531 
" clip-path="url(#p82e16ebb4f)" style="fill: none; stroke-dasharray: 7.4,3.2; stroke-dashoffset: 0; stroke: #0000ff; stroke-width: 2"/>
   </g>
   <g id="line2d_18">
    <path d="M 97.180455 443.433956 
L 100.236314 425.767347 
L 103.292174 442.188272 
L 106.348034 423.640087 
L 109.403894 455.078707 
L 112.459754 432.592909 
L 115.515613 422.869342 
L 118.571473 425.324233 
L 121.627333 433.030405 
L 124.683193 429.30721 
L 127.739053 437.395644 
L 130.794912 442.956255 
L 133.850772 443.454136 
L 136.906632 435.164728 
L 139.962492 422.705512 
L 143.018352 424.771979 
L 146.074211 448.979401 
L 149.130071 428.265784 
L 152.185931 436.21176 
L 155.241791 441.52444 
L 158.297651 453.017941 
L 161.35351 438.50599 
L 164.40937 401.095971 
L 167.46523 408.928638 
L 170.52109 424.797424 
L 173.57695 447.574992 
L 176.632809 457.700969 
L 179.688669 425.322622 
L 182.744529 418.472628 
L 185.800389 444.100041 
L 188.856249 430.044889 
L 191.912108 415.13918 
L 194.967968 442.972481 
L 198.023828 420.988299 
L 201.079688 450.288737 
L 204.135548 444.901572 
L 207.191407 449.490212 
L 210.247267 440.978612 
L 213.303127 452.341365 
L 216.358987 440.988103 
L 219.414847 431.909317 
L 222.470706 412.953965 
L 225.526566 424.585645 
L 228.582426 425.498371 
L 231.638286 452.318246 
L 234.694146 430.611035 
L 237.750005 433.117233 
L 240.805865 418.936912 
L 243.861725 420.689866 
L 246.917585 423.290607 
L 249.973445 419.900078 
L 253.029304 444.395545 
L 256.085164 458.467885 
L 262.196884 452.018189 
L 265.252744 432.919582 
L 268.308604 448.51671 
L 271.364463 434.282227 
L 274.420323 402.970521 
L 277.476183 399.730599 
L 280.532043 451.533584 
L 283.587903 441.376471 
L 286.643762 406.51652 
L 289.699622 407.248258 
L 292.755482 395.091532 
L 295.811342 414.434493 
L 298.867202 446.385179 
L 301.923061 428.09066 
L 304.978921 445.538046 
L 308.034781 391.345816 
L 311.090641 400.133139 
L 314.146501 444.56402 
L 317.20236 438.189082 
L 320.25822 432.582163 
L 323.31408 423.797923 
L 326.36994 425.096174 
L 329.4258 438.272706 
L 332.481659 435.315103 
L 335.537519 445.438544 
L 338.593379 422.069081 
L 341.649239 404.145261 
L 344.705099 440.830865 
L 347.760958 451.016651 
L 350.816818 447.736001 
L 353.872678 434.6776 
L 356.928538 445.855385 
L 359.984398 448.393742 
L 363.040257 432.640534 
L 366.096117 442.379988 
L 369.151977 427.296981 
L 372.207837 416.125645 
L 375.263697 442.623386 
L 378.319556 419.312489 
L 381.375416 393.503854 
L 384.431276 416.780735 
L 387.487136 437.333387 
L 390.542996 462.507447 
L 393.598855 437.13782 
L 396.654715 433.362437 
L 399.710575 353.594094 
L 402.766435 411.431065 
L 405.822295 444.833797 
L 408.878154 431.59589 
L 411.934014 443.406119 
L 414.989874 422.776074 
L 418.045734 452.492692 
L 421.101594 404.574372 
L 424.157453 447.051015 
L 427.213313 431.798173 
L 430.269173 406.339731 
L 433.325033 395.161889 
L 436.380893 416.579523 
L 439.436752 395.443806 
L 442.492612 373.495731 
L 445.548472 380.848807 
L 448.604332 430.942942 
L 451.660192 434.803333 
L 454.716051 412.609728 
L 457.771911 405.518831 
L 460.827771 449.260292 
L 463.883631 443.044939 
L 466.939491 423.184434 
L 469.99535 417.168276 
L 473.05121 418.542516 
L 476.10707 439.951965 
L 479.16293 458.147838 
L 482.21879 422.907693 
L 485.27465 416.073 
L 488.330509 414.562832 
L 491.386369 449.436462 
L 494.442229 396.637209 
L 497.498089 445.245735 
L 500.553949 414.751888 
L 503.609808 397.003799 
L 506.665668 409.245801 
L 509.721528 434.538034 
L 512.777388 420.687518 
L 515.833248 437.08265 
L 518.889107 432.529541 
L 521.944967 401.904925 
L 525.000827 428.223167 
L 528.056687 387.834999 
L 531.112547 391.310597 
L 534.168406 436.265551 
L 537.224266 464.237187 
L 540.280126 445.527465 
L 543.335986 397.00562 
L 546.391846 432.567928 
L 549.447705 422.533619 
L 552.503565 398.824379 
L 555.559425 387.941788 
L 558.615285 407.165862 
L 561.671145 425.419009 
L 564.727004 364.93017 
L 567.782864 412.452334 
L 570.838724 423.18293 
L 573.894584 431.964738 
L 576.950444 401.252767 
L 580.006303 425.376838 
L 583.062163 422.787182 
L 586.118023 421.810623 
L 589.173883 372.887413 
L 592.229743 404.713809 
L 595.285602 403.56587 
L 598.341462 417.756191 
L 601.397322 375.687265 
L 604.453182 424.196925 
L 607.509042 433.814971 
L 610.564901 449.197593 
L 613.620761 382.940148 
L 616.676621 418.593126 
L 619.732481 415.307275 
L 622.788341 442.521613 
L 625.8442 410.086586 
L 628.90006 400.298557 
L 631.95592 407.55717 
L 635.01178 431.687876 
L 638.06764 412.753587 
L 641.123499 385.721453 
L 644.179359 419.838018 
L 647.235219 381.181758 
L 650.291079 433.326388 
L 653.346939 441.650806 
L 656.402798 431.161763 
L 659.458658 429.998407 
L 662.514518 427.251651 
L 665.570378 404.869012 
L 668.626238 417.498456 
L 671.682097 422.008153 
L 674.737957 398.718117 
L 677.793817 432.942305 
L 680.849677 406.16218 
L 683.905537 407.061947 
L 686.961396 414.265706 
L 690.017256 450.991484 
L 693.073116 407.918784 
L 696.128976 436.516646 
L 699.184836 437.936466 
L 702.240696 431.495027 
L 705.296555 426.659505 
L 708.352415 416.248388 
L 711.408275 395.312009 
L 714.464135 415.141906 
L 717.519995 428.988339 
L 720.575854 425.202365 
L 723.631714 421.045768 
L 726.687574 432.664301 
L 729.743434 424.655631 
L 732.799294 443.882208 
L 735.855153 396.543996 
L 738.911013 411.412429 
L 741.966873 409.50765 
L 745.022733 407.112749 
L 748.078593 434.63654 
L 751.134452 450.330002 
L 754.190312 400.372546 
L 757.246172 431.556182 
L 760.302032 444.723603 
L 763.357892 413.855713 
L 766.413751 412.673716 
L 769.469611 457.736307 
L 772.525471 422.530562 
L 775.581331 431.857253 
L 778.637191 421.495723 
L 781.69305 409.776934 
L 784.74891 423.423466 
L 787.80477 422.754391 
L 790.86063 406.708972 
L 793.91649 435.157553 
L 796.972349 427.39377 
L 800.028209 442.750107 
L 803.084069 414.489655 
L 806.139929 451.890156 
L 809.195789 426.114868 
L 812.251648 444.080388 
L 815.307508 410.045566 
L 818.363368 409.510644 
L 821.419228 391.646869 
L 824.475088 446.640969 
L 827.530947 408.729224 
L 830.586807 429.730399 
L 833.642667 417.912523 
L 836.698527 411.221316 
L 839.754387 434.380568 
L 842.810246 444.520057 
L 845.866106 415.400913 
L 848.921966 435.940088 
L 851.977826 415.293049 
L 855.033686 436.935832 
L 858.089545 427.639732 
L 858.089545 427.639732 
" clip-path="url(#p82e16ebb4f)" style="fill: none; stroke-dasharray: 7.4,3.2; stroke-dashoffset: 0; stroke: #ffa500; stroke-width: 2"/>
   </g>
   <g id="patch_3">
    <path d="M 59.135 484.397187 
L 59.135 40.877187 
" style="fill: none; stroke: #000000; stroke-width: 0.8; stroke-linejoin: miter; stroke-linecap: square"/>
   </g>
   <g id="patch_4">
    <path d="M 896.135 484.397187 
L 896.135 40.877187 
" style="fill: none; stroke: #000000; stroke-width: 0.8; stroke-linejoin: miter; stroke-linecap: square"/>
   </g>
   <g id="patch_5">
    <path d="M 59.135 484.397187 
L 896.135 484.397187 
" style="fill: none; stroke: #000000; stroke-width: 0.8; stroke-linejoin: miter; stroke-linecap: square"/>
   </g>
   <g id="patch_6">
    <path d="M 59.135 40.877187 
L 896.135 40.877187 
" style="fill: none; stroke: #000000; stroke-width: 0.8; stroke-linejoin: miter; stroke-linecap: square"/>
   </g>
   <g id="text_17">
    <!-- Geopotential  two steps forward prediction: RMSES -->
    <g transform="translate(248.046406 20.877187) scale(0.18 -0.18)">
     <defs>
      <path id="DejaVuSans-47" d="M 3809 666 
L 3809 1919 
L 2778 1919 
L 2778 2438 
L 4434 2438 
L 4434 434 
Q 4069 175 3628 42 
Q 3188 -91 2688 -91 
Q 1594 -91 976 548 
Q 359 1188 359 2328 
Q 359 3472 976 4111 
Q 1594 4750 2688 4750 
Q 3144 4750 3555 4637 
Q 3966 4525 4313 4306 
L 4313 3634 
Q 3963 3931 3569 4081 
Q 3175 4231 2741 4231 
Q 1884 4231 1454 3753 
Q 1025 3275 1025 2328 
Q 1025 1384 1454 906 
Q 1884 428 2741 428 
Q 3075 428 3337 486 
Q 3600 544 3809 666 
z
" transform="scale(0.015625)"/>
      <path id="DejaVuSans-70" d="M 1159 525 
L 1159 -1331 
L 581 -1331 
L 581 3500 
L 1159 3500 
L 1159 2969 
Q 1341 3281 1617 3432 
Q 1894 3584 2278 3584 
Q 2916 3584 3314 3078 
Q 3713 2572 3713 1747 
Q 3713 922 3314 415 
Q 2916 -91 2278 -91 
Q 1894 -91 1617 61 
Q 1341 213 1159 525 
z
M 3116 1747 
Q 3116 2381 2855 2742 
Q 2594 3103 2138 3103 
Q 1681 3103 1420 2742 
Q 1159 2381 1159 1747 
Q 1159 1113 1420 752 
Q 1681 391 2138 391 
Q 2594 391 2855 752 
Q 3116 1113 3116 1747 
z
" transform="scale(0.015625)"/>
      <path id="DejaVuSans-69" d="M 603 3500 
L 1178 3500 
L 1178 0 
L 603 0 
L 603 3500 
z
M 603 4863 
L 1178 4863 
L 1178 4134 
L 603 4134 
L 603 4863 
z
" transform="scale(0.015625)"/>
      <path id="DejaVuSans-6c" d="M 603 4863 
L 1178 4863 
L 1178 0 
L 603 0 
L 603 4863 
z
" transform="scale(0.015625)"/>
      <path id="DejaVuSans-77" d="M 269 3500 
L 844 3500 
L 1563 769 
L 2278 3500 
L 2956 3500 
L 3675 769 
L 4391 3500 
L 4966 3500 
L 4050 0 
L 3372 0 
L 2619 2869 
L 1863 0 
L 1184 0 
L 269 3500 
z
" transform="scale(0.015625)"/>
      <path id="DejaVuSans-66" d="M 2375 4863 
L 2375 4384 
L 1825 4384 
Q 1516 4384 1395 4259 
Q 1275 4134 1275 3809 
L 1275 3500 
L 2222 3500 
L 2222 3053 
L 1275 3053 
L 1275 0 
L 697 0 
L 697 3053 
L 147 3053 
L 147 3500 
L 697 3500 
L 697 3744 
Q 697 4328 969 4595 
Q 1241 4863 1831 4863 
L 2375 4863 
z
" transform="scale(0.015625)"/>
     </defs>
     <use xlink:href="#DejaVuSans-47"/>
     <use xlink:href="#DejaVuSans-65" transform="translate(77.490234 0)"/>
     <use xlink:href="#DejaVuSans-6f" transform="translate(139.013672 0)"/>
     <use xlink:href="#DejaVuSans-70" transform="translate(200.195312 0)"/>
     <use xlink:href="#DejaVuSans-6f" transform="translate(263.671875 0)"/>
     <use xlink:href="#DejaVuSans-74" transform="translate(324.853516 0)"/>
     <use xlink:href="#DejaVuSans-65" transform="translate(364.0625 0)"/>
     <use xlink:href="#DejaVuSans-6e" transform="translate(425.585938 0)"/>
     <use xlink:href="#DejaVuSans-74" transform="translate(488.964844 0)"/>
     <use xlink:href="#DejaVuSans-69" transform="translate(528.173828 0)"/>
     <use xlink:href="#DejaVuSans-61" transform="translate(555.957031 0)"/>
     <use xlink:href="#DejaVuSans-6c" transform="translate(617.236328 0)"/>
     <use xlink:href="#DejaVuSans-20" transform="translate(645.019531 0)"/>
     <use xlink:href="#DejaVuSans-20" transform="translate(676.806641 0)"/>
     <use xlink:href="#DejaVuSans-74" transform="translate(708.59375 0)"/>
     <use xlink:href="#DejaVuSans-77" transform="translate(747.802734 0)"/>
     <use xlink:href="#DejaVuSans-6f" transform="translate(829.589844 0)"/>
     <use xlink:href="#DejaVuSans-20" transform="translate(890.771484 0)"/>
     <use xlink:href="#DejaVuSans-73" transform="translate(922.558594 0)"/>
     <use xlink:href="#DejaVuSans-74" transform="translate(974.658203 0)"/>
     <use xlink:href="#DejaVuSans-65" transform="translate(1013.867188 0)"/>
     <use xlink:href="#DejaVuSans-70" transform="translate(1075.390625 0)"/>
     <use xlink:href="#DejaVuSans-73" transform="translate(1138.867188 0)"/>
     <use xlink:href="#DejaVuSans-20" transform="translate(1190.966797 0)"/>
     <use xlink:href="#DejaVuSans-66" transform="translate(1222.753906 0)"/>
     <use xlink:href="#DejaVuSans-6f" transform="translate(1257.958984 0)"/>
     <use xlink:href="#DejaVuSans-72" transform="translate(1319.140625 0)"/>
     <use xlink:href="#DejaVuSans-77" transform="translate(1360.253906 0)"/>
     <use xlink:href="#DejaVuSans-61" transform="translate(1442.041016 0)"/>
     <use xlink:href="#DejaVuSans-72" transform="translate(1503.320312 0)"/>
     <use xlink:href="#DejaVuSans-64" transform="translate(1542.683594 0)"/>
     <use xlink:href="#DejaVuSans-20" transform="translate(1606.160156 0)"/>
     <use xlink:href="#DejaVuSans-70" transform="translate(1637.947266 0)"/>
     <use xlink:href="#DejaVuSans-72" transform="translate(1701.423828 0)"/>
     <use xlink:href="#DejaVuSans-65" transform="translate(1740.287109 0)"/>
     <use xlink:href="#DejaVuSans-64" transform="translate(1801.810547 0)"/>
     <use xlink:href="#DejaVuSans-69" transform="translate(1865.287109 0)"/>
     <use xlink:href="#DejaVuSans-63" transform="translate(1893.070312 0)"/>
     <use xlink:href="#DejaVuSans-74" transform="translate(1948.050781 0)"/>
     <use xlink:href="#DejaVuSans-69" transform="translate(1987.259766 0)"/>
     <use xlink:href="#DejaVuSans-6f" transform="translate(2015.042969 0)"/>
     <use xlink:href="#DejaVuSans-6e" transform="translate(2076.224609 0)"/>
     <use xlink:href="#DejaVuSans-3a" transform="translate(2139.603516 0)"/>
     <use xlink:href="#DejaVuSans-20" transform="translate(2173.294922 0)"/>
     <use xlink:href="#DejaVuSans-52" transform="translate(2205.082031 0)"/>
     <use xlink:href="#DejaVuSans-4d" transform="translate(2274.564453 0)"/>
     <use xlink:href="#DejaVuSans-53" transform="translate(2360.84375 0)"/>
     <use xlink:href="#DejaVuSans-45" transform="translate(2424.320312 0)"/>
     <use xlink:href="#DejaVuSans-53" transform="translate(2487.503906 0)"/>
    </g>
   </g>
   <g id="legend_1">
    <g id="text_18">
     <!-- Forecast Horizon -->
     <g transform="translate(1020.604844 65.634687) scale(0.16 -0.16)">
      <defs>
       <path id="DejaVuSans-48" d="M 628 4666 
L 1259 4666 
L 1259 2753 
L 3553 2753 
L 3553 4666 
L 4184 4666 
L 4184 0 
L 3553 0 
L 3553 2222 
L 1259 2222 
L 1259 0 
L 628 0 
L 628 4666 
z
" transform="scale(0.015625)"/>
       <path id="DejaVuSans-7a" d="M 353 3500 
L 3084 3500 
L 3084 2975 
L 922 459 
L 3084 459 
L 3084 0 
L 275 0 
L 275 525 
L 2438 3041 
L 353 3041 
L 353 3500 
z
" transform="scale(0.015625)"/>
      </defs>
      <use xlink:href="#DejaVuSans-46"/>
      <use xlink:href="#DejaVuSans-6f" transform="translate(53.894531 0)"/>
      <use xlink:href="#DejaVuSans-72" transform="translate(115.076172 0)"/>
      <use xlink:href="#DejaVuSans-65" transform="translate(153.939453 0)"/>
      <use xlink:href="#DejaVuSans-63" transform="translate(215.462891 0)"/>
      <use xlink:href="#DejaVuSans-61" transform="translate(270.443359 0)"/>
      <use xlink:href="#DejaVuSans-73" transform="translate(331.722656 0)"/>
      <use xlink:href="#DejaVuSans-74" transform="translate(383.822266 0)"/>
      <use xlink:href="#DejaVuSans-20" transform="translate(423.03125 0)"/>
      <use xlink:href="#DejaVuSans-48" transform="translate(454.818359 0)"/>
      <use xlink:href="#DejaVuSans-6f" transform="translate(530.013672 0)"/>
      <use xlink:href="#DejaVuSans-72" transform="translate(591.195312 0)"/>
      <use xlink:href="#DejaVuSans-69" transform="translate(632.308594 0)"/>
      <use xlink:href="#DejaVuSans-7a" transform="translate(660.091797 0)"/>
      <use xlink:href="#DejaVuSans-6f" transform="translate(712.582031 0)"/>
      <use xlink:href="#DejaVuSans-6e" transform="translate(773.763672 0)"/>
     </g>
    </g>
    <g id="line2d_19">
     <path d="M 950.585 81.7 
L 964.585 81.7 
L 978.585 81.7 
" style="fill: none; stroke: #0000ff; stroke-width: 2; stroke-linecap: square"/>
    </g>
    <g id="text_19">
     <!-- Global RMSE (6h Forecast) -->
     <g transform="translate(989.785 86.6) scale(0.14 -0.14)">
      <defs>
       <path id="DejaVuSans-62" d="M 3116 1747 
Q 3116 2381 2855 2742 
Q 2594 3103 2138 3103 
Q 1681 3103 1420 2742 
Q 1159 2381 1159 1747 
Q 1159 1113 1420 752 
Q 1681 391 2138 391 
Q 2594 391 2855 752 
Q 3116 1113 3116 1747 
z
M 1159 2969 
Q 1341 3281 1617 3432 
Q 1894 3584 2278 3584 
Q 2916 3584 3314 3078 
Q 3713 2572 3713 1747 
Q 3713 922 3314 415 
Q 2916 -91 2278 -91 
Q 1894 -91 1617 61 
Q 1341 213 1159 525 
L 1159 0 
L 581 0 
L 581 4863 
L 1159 4863 
L 1159 2969 
z
" transform="scale(0.015625)"/>
       <path id="DejaVuSans-68" d="M 3513 2113 
L 3513 0 
L 2938 0 
L 2938 2094 
Q 2938 2591 2744 2837 
Q 2550 3084 2163 3084 
Q 1697 3084 1428 2787 
Q 1159 2491 1159 1978 
L 1159 0 
L 581 0 
L 581 4863 
L 1159 4863 
L 1159 2956 
Q 1366 3272 1645 3428 
Q 1925 3584 2291 3584 
Q 2894 3584 3203 3211 
Q 3513 2838 3513 2113 
z
" transform="scale(0.015625)"/>
      </defs>
      <use xlink:href="#DejaVuSans-47"/>
      <use xlink:href="#DejaVuSans-6c" transform="translate(77.490234 0)"/>
      <use xlink:href="#DejaVuSans-6f" transform="translate(105.273438 0)"/>
      <use xlink:href="#DejaVuSans-62" transform="translate(166.455078 0)"/>
      <use xlink:href="#DejaVuSans-61" transform="translate(229.931641 0)"/>
      <use xlink:href="#DejaVuSans-6c" transform="translate(291.210938 0)"/>
      <use xlink:href="#DejaVuSans-20" transform="translate(318.994141 0)"/>
      <use xlink:href="#DejaVuSans-52" transform="translate(350.78125 0)"/>
      <use xlink:href="#DejaVuSans-4d" transform="translate(420.263672 0)"/>
      <use xlink:href="#DejaVuSans-53" transform="translate(506.542969 0)"/>
      <use xlink:href="#DejaVuSans-45" transform="translate(570.019531 0)"/>
      <use xlink:href="#DejaVuSans-20" transform="translate(633.203125 0)"/>
      <use xlink:href="#DejaVuSans-28" transform="translate(664.990234 0)"/>
      <use xlink:href="#DejaVuSans-36" transform="translate(704.003906 0)"/>
      <use xlink:href="#DejaVuSans-68" transform="translate(767.626953 0)"/>
      <use xlink:href="#DejaVuSans-20" transform="translate(831.005859 0)"/>
      <use xlink:href="#DejaVuSans-46" transform="translate(862.792969 0)"/>
      <use xlink:href="#DejaVuSans-6f" transform="translate(916.6875 0)"/>
      <use xlink:href="#DejaVuSans-72" transform="translate(977.869141 0)"/>
      <use xlink:href="#DejaVuSans-65" transform="translate(1016.732422 0)"/>
      <use xlink:href="#DejaVuSans-63" transform="translate(1078.255859 0)"/>
      <use xlink:href="#DejaVuSans-61" transform="translate(1133.236328 0)"/>
      <use xlink:href="#DejaVuSans-73" transform="translate(1194.515625 0)"/>
      <use xlink:href="#DejaVuSans-74" transform="translate(1246.615234 0)"/>
      <use xlink:href="#DejaVuSans-29" transform="translate(1285.824219 0)"/>
     </g>
    </g>
    <g id="line2d_20">
     <path d="M 950.585 102.249375 
L 964.585 102.249375 
L 978.585 102.249375 
" style="fill: none; stroke: #ffa500; stroke-width: 2; stroke-linecap: square"/>
    </g>
    <g id="text_20">
     <!-- South Africa RMSE (6h Forecast) -->
     <g transform="translate(989.785 107.149375) scale(0.14 -0.14)">
      <defs>
       <path id="DejaVuSans-41" d="M 2188 4044 
L 1331 1722 
L 3047 1722 
L 2188 4044 
z
M 1831 4666 
L 2547 4666 
L 4325 0 
L 3669 0 
L 3244 1197 
L 1141 1197 
L 716 0 
L 50 0 
L 1831 4666 
z
" transform="scale(0.015625)"/>
      </defs>
      <use xlink:href="#DejaVuSans-53"/>
      <use xlink:href="#DejaVuSans-6f" transform="translate(63.476562 0)"/>
      <use xlink:href="#DejaVuSans-75" transform="translate(124.658203 0)"/>
      <use xlink:href="#DejaVuSans-74" transform="translate(188.037109 0)"/>
      <use xlink:href="#DejaVuSans-68" transform="translate(227.246094 0)"/>
      <use xlink:href="#DejaVuSans-20" transform="translate(290.625 0)"/>
      <use xlink:href="#DejaVuSans-41" transform="translate(322.412109 0)"/>
      <use xlink:href="#DejaVuSans-66" transform="translate(387.195312 0)"/>
      <use xlink:href="#DejaVuSans-72" transform="translate(422.400391 0)"/>
      <use xlink:href="#DejaVuSans-69" transform="translate(463.513672 0)"/>
      <use xlink:href="#DejaVuSans-63" transform="translate(491.296875 0)"/>
      <use xlink:href="#DejaVuSans-61" transform="translate(546.277344 0)"/>
      <use xlink:href="#DejaVuSans-20" transform="translate(607.556641 0)"/>
      <use xlink:href="#DejaVuSans-52" transform="translate(639.34375 0)"/>
      <use xlink:href="#DejaVuSans-4d" transform="translate(708.826172 0)"/>
      <use xlink:href="#DejaVuSans-53" transform="translate(795.105469 0)"/>
      <use xlink:href="#DejaVuSans-45" transform="translate(858.582031 0)"/>
      <use xlink:href="#DejaVuSans-20" transform="translate(921.765625 0)"/>
      <use xlink:href="#DejaVuSans-28" transform="translate(953.552734 0)"/>
      <use xlink:href="#DejaVuSans-36" transform="translate(992.566406 0)"/>
      <use xlink:href="#DejaVuSans-68" transform="translate(1056.189453 0)"/>
      <use xlink:href="#DejaVuSans-20" transform="translate(1119.568359 0)"/>
      <use xlink:href="#DejaVuSans-46" transform="translate(1151.355469 0)"/>
      <use xlink:href="#DejaVuSans-6f" transform="translate(1205.25 0)"/>
      <use xlink:href="#DejaVuSans-72" transform="translate(1266.431641 0)"/>
      <use xlink:href="#DejaVuSans-65" transform="translate(1305.294922 0)"/>
      <use xlink:href="#DejaVuSans-63" transform="translate(1366.818359 0)"/>
      <use xlink:href="#DejaVuSans-61" transform="translate(1421.798828 0)"/>
      <use xlink:href="#DejaVuSans-73" transform="translate(1483.078125 0)"/>
      <use xlink:href="#DejaVuSans-74" transform="translate(1535.177734 0)"/>
      <use xlink:href="#DejaVuSans-29" transform="translate(1574.386719 0)"/>
     </g>
    </g>
    <g id="line2d_21">
     <path d="M 950.585 122.79875 
L 964.585 122.79875 
L 978.585 122.79875 
" style="fill: none; stroke-dasharray: 7.4,3.2; stroke-dashoffset: 0; stroke: #0000ff; stroke-width: 2"/>
    </g>
    <g id="text_21">
     <!-- Global RMSE (12h Forecast) -->
     <g transform="translate(989.785 127.69875) scale(0.14 -0.14)">
      <use xlink:href="#DejaVuSans-47"/>
      <use xlink:href="#DejaVuSans-6c" transform="translate(77.490234 0)"/>
      <use xlink:href="#DejaVuSans-6f" transform="translate(105.273438 0)"/>
      <use xlink:href="#DejaVuSans-62" transform="translate(166.455078 0)"/>
      <use xlink:href="#DejaVuSans-61" transform="translate(229.931641 0)"/>
      <use xlink:href="#DejaVuSans-6c" transform="translate(291.210938 0)"/>
      <use xlink:href="#DejaVuSans-20" transform="translate(318.994141 0)"/>
      <use xlink:href="#DejaVuSans-52" transform="translate(350.78125 0)"/>
      <use xlink:href="#DejaVuSans-4d" transform="translate(420.263672 0)"/>
      <use xlink:href="#DejaVuSans-53" transform="translate(506.542969 0)"/>
      <use xlink:href="#DejaVuSans-45" transform="translate(570.019531 0)"/>
      <use xlink:href="#DejaVuSans-20" transform="translate(633.203125 0)"/>
      <use xlink:href="#DejaVuSans-28" transform="translate(664.990234 0)"/>
      <use xlink:href="#DejaVuSans-31" transform="translate(704.003906 0)"/>
      <use xlink:href="#DejaVuSans-32" transform="translate(767.626953 0)"/>
      <use xlink:href="#DejaVuSans-68" transform="translate(831.25 0)"/>
      <use xlink:href="#DejaVuSans-20" transform="translate(894.628906 0)"/>
      <use xlink:href="#DejaVuSans-46" transform="translate(926.416016 0)"/>
      <use xlink:href="#DejaVuSans-6f" transform="translate(980.310547 0)"/>
      <use xlink:href="#DejaVuSans-72" transform="translate(1041.492188 0)"/>
      <use xlink:href="#DejaVuSans-65" transform="translate(1080.355469 0)"/>
      <use xlink:href="#DejaVuSans-63" transform="translate(1141.878906 0)"/>
      <use xlink:href="#DejaVuSans-61" transform="translate(1196.859375 0)"/>
      <use xlink:href="#DejaVuSans-73" transform="translate(1258.138672 0)"/>
      <use xlink:href="#DejaVuSans-74" transform="translate(1310.238281 0)"/>
      <use xlink:href="#DejaVuSans-29" transform="translate(1349.447266 0)"/>
     </g>
    </g>
    <g id="line2d_22">
     <path d="M 950.585 143.348125 
L 964.585 143.348125 
L 978.585 143.348125 
" style="fill: none; stroke-dasharray: 7.4,3.2; stroke-dashoffset: 0; stroke: #ffa500; stroke-width: 2"/>
    </g>
    <g id="text_22">
     <!-- South Africa RMSE (12h Forecast) -->
     <g transform="translate(989.785 148.248125) scale(0.14 -0.14)">
      <use xlink:href="#DejaVuSans-53"/>
      <use xlink:href="#DejaVuSans-6f" transform="translate(63.476562 0)"/>
      <use xlink:href="#DejaVuSans-75" transform="translate(124.658203 0)"/>
      <use xlink:href="#DejaVuSans-74" transform="translate(188.037109 0)"/>
      <use xlink:href="#DejaVuSans-68" transform="translate(227.246094 0)"/>
      <use xlink:href="#DejaVuSans-20" transform="translate(290.625 0)"/>
      <use xlink:href="#DejaVuSans-41" transform="translate(322.412109 0)"/>
      <use xlink:href="#DejaVuSans-66" transform="translate(387.195312 0)"/>
      <use xlink:href="#DejaVuSans-72" transform="translate(422.400391 0)"/>
      <use xlink:href="#DejaVuSans-69" transform="translate(463.513672 0)"/>
      <use xlink:href="#DejaVuSans-63" transform="translate(491.296875 0)"/>
      <use xlink:href="#DejaVuSans-61" transform="translate(546.277344 0)"/>
      <use xlink:href="#DejaVuSans-20" transform="translate(607.556641 0)"/>
      <use xlink:href="#DejaVuSans-52" transform="translate(639.34375 0)"/>
      <use xlink:href="#DejaVuSans-4d" transform="translate(708.826172 0)"/>
      <use xlink:href="#DejaVuSans-53" transform="translate(795.105469 0)"/>
      <use xlink:href="#DejaVuSans-45" transform="translate(858.582031 0)"/>
      <use xlink:href="#DejaVuSans-20" transform="translate(921.765625 0)"/>
      <use xlink:href="#DejaVuSans-28" transform="translate(953.552734 0)"/>
      <use xlink:href="#DejaVuSans-31" transform="translate(992.566406 0)"/>
      <use xlink:href="#DejaVuSans-32" transform="translate(1056.189453 0)"/>
      <use xlink:href="#DejaVuSans-68" transform="translate(1119.8125 0)"/>
      <use xlink:href="#DejaVuSans-20" transform="translate(1183.191406 0)"/>
      <use xlink:href="#DejaVuSans-46" transform="translate(1214.978516 0)"/>
      <use xlink:href="#DejaVuSans-6f" transform="translate(1268.873047 0)"/>
      <use xlink:href="#DejaVuSans-72" transform="translate(1330.054688 0)"/>
      <use xlink:href="#DejaVuSans-65" transform="translate(1368.917969 0)"/>
      <use xlink:href="#DejaVuSans-63" transform="translate(1430.441406 0)"/>
      <use xlink:href="#DejaVuSans-61" transform="translate(1485.421875 0)"/>
      <use xlink:href="#DejaVuSans-73" transform="translate(1546.701172 0)"/>
      <use xlink:href="#DejaVuSans-74" transform="translate(1598.800781 0)"/>
      <use xlink:href="#DejaVuSans-29" transform="translate(1638.009766 0)"/>
     </g>
    </g>
   </g>
  </g>
 </g>
 <defs>
  <clipPath id="p82e16ebb4f">
   <rect x="59.135" y="40.877187" width="837" height="443.52"/>
  </clipPath>
 </defs>
</svg>
