<?xml version="1.0" encoding="utf-8" standalone="no"?>
<!DOCTYPE svg PUBLIC "-//W3C//DTD SVG 1.1//EN"
  "http://www.w3.org/Graphics/SVG/1.1/DTD/svg11.dtd">
<svg xmlns:xlink="http://www.w3.org/1999/xlink" width="1237.023214pt" height="575.421502pt" viewBox="0 0 1237.023214 575.421502" xmlns="http://www.w3.org/2000/svg" version="1.1">
 <metadata>
  <rdf:RDF xmlns:dc="http://purl.org/dc/elements/1.1/" xmlns:cc="http://creativecommons.org/ns#" xmlns:rdf="http://www.w3.org/1999/02/22-rdf-syntax-ns#">
   <cc:Work>
    <dc:type rdf:resource="http://purl.org/dc/dcmitype/StillImage"/>
    <dc:date>2025-02-18T09:46:32.588898</dc:date>
    <dc:format>image/svg+xml</dc:format>
    <dc:creator>
     <cc:Agent>
      <dc:title>Matplotlib v3.10.0, https://matplotlib.org/</dc:title>
     </cc:Agent>
    </dc:creator>
   </cc:Work>
  </rdf:RDF>
 </metadata>
 <defs>
  <style type="text/css">*{stroke-linejoin: round; stroke-linecap: butt}</style>
 </defs>
 <g id="figure_1">
  <g id="patch_1">
   <path d="M 0 575.421502 
L 1237.023214 575.421502 
L 1237.023214 0 
L 0 0 
z
" style="fill: #ffffff"/>
  </g>
  <g id="axes_1">
   <g id="patch_2">
    <path d="M 58.791027 484.397187 
L 895.791027 484.397187 
L 895.791027 40.877187 
L 58.791027 40.877187 
z
" style="fill: #ffffff"/>
   </g>
   <g id="matplotlib.axis_1">
    <g id="xtick_1">
     <g id="line2d_1">
      <defs>
       <path id="m3baf5384bb" d="M 0 0 
L 0 3.5 
" style="stroke: #000000; stroke-width: 0.8"/>
      </defs>
      <g>
       <use xlink:href="#m3baf5384bb" x="96.836481" y="484.397187" style="stroke: #000000; stroke-width: 0.8"/>
      </g>
     </g>
     <g id="text_1">
      <!-- 2022-01-01 (12:00) -->
      <g transform="translate(10.999219 546.93544) rotate(-30) scale(0.1 -0.1)">
       <defs>
        <path id="DejaVuSans-32" d="M 1228 531 
L 3431 531 
L 3431 0 
L 469 0 
L 469 531 
Q 828 903 1448 1529 
Q 2069 2156 2228 2338 
Q 2531 2678 2651 2914 
Q 2772 3150 2772 3378 
Q 2772 3750 2511 3984 
Q 2250 4219 1831 4219 
Q 1534 4219 1204 4116 
Q 875 4013 500 3803 
L 500 4441 
Q 881 4594 1212 4672 
Q 1544 4750 1819 4750 
Q 2544 4750 2975 4387 
Q 3406 4025 3406 3419 
Q 3406 3131 3298 2873 
Q 3191 2616 2906 2266 
Q 2828 2175 2409 1742 
Q 1991 1309 1228 531 
z
" transform="scale(0.015625)"/>
        <path id="DejaVuSans-30" d="M 2034 4250 
Q 1547 4250 1301 3770 
Q 1056 3291 1056 2328 
Q 1056 1369 1301 889 
Q 1547 409 2034 409 
Q 2525 409 2770 889 
Q 3016 1369 3016 2328 
Q 3016 3291 2770 3770 
Q 2525 4250 2034 4250 
z
M 2034 4750 
Q 2819 4750 3233 4129 
Q 3647 3509 3647 2328 
Q 3647 1150 3233 529 
Q 2819 -91 2034 -91 
Q 1250 -91 836 529 
Q 422 1150 422 2328 
Q 422 3509 836 4129 
Q 1250 4750 2034 4750 
z
" transform="scale(0.015625)"/>
        <path id="DejaVuSans-2d" d="M 313 2009 
L 1997 2009 
L 1997 1497 
L 313 1497 
L 313 2009 
z
" transform="scale(0.015625)"/>
        <path id="DejaVuSans-31" d="M 794 531 
L 1825 531 
L 1825 4091 
L 703 3866 
L 703 4441 
L 1819 4666 
L 2450 4666 
L 2450 531 
L 3481 531 
L 3481 0 
L 794 0 
L 794 531 
z
" transform="scale(0.015625)"/>
        <path id="DejaVuSans-20" transform="scale(0.015625)"/>
        <path id="DejaVuSans-28" d="M 1984 4856 
Q 1566 4138 1362 3434 
Q 1159 2731 1159 2009 
Q 1159 1288 1364 580 
Q 1569 -128 1984 -844 
L 1484 -844 
Q 1016 -109 783 600 
Q 550 1309 550 2009 
Q 550 2706 781 3412 
Q 1013 4119 1484 4856 
L 1984 4856 
z
" transform="scale(0.015625)"/>
        <path id="DejaVuSans-3a" d="M 750 794 
L 1409 794 
L 1409 0 
L 750 0 
L 750 794 
z
M 750 3309 
L 1409 3309 
L 1409 2516 
L 750 2516 
L 750 3309 
z
" transform="scale(0.015625)"/>
        <path id="DejaVuSans-29" d="M 513 4856 
L 1013 4856 
Q 1481 4119 1714 3412 
Q 1947 2706 1947 2009 
Q 1947 1309 1714 600 
Q 1481 -109 1013 -844 
L 513 -844 
Q 928 -128 1133 580 
Q 1338 1288 1338 2009 
Q 1338 2731 1133 3434 
Q 928 4138 513 4856 
z
" transform="scale(0.015625)"/>
       </defs>
       <use xlink:href="#DejaVuSans-32"/>
       <use xlink:href="#DejaVuSans-30" transform="translate(63.623047 0)"/>
       <use xlink:href="#DejaVuSans-32" transform="translate(127.246094 0)"/>
       <use xlink:href="#DejaVuSans-32" transform="translate(190.869141 0)"/>
       <use xlink:href="#DejaVuSans-2d" transform="translate(254.492188 0)"/>
       <use xlink:href="#DejaVuSans-30" transform="translate(290.576172 0)"/>
       <use xlink:href="#DejaVuSans-31" transform="translate(354.199219 0)"/>
       <use xlink:href="#DejaVuSans-2d" transform="translate(417.822266 0)"/>
       <use xlink:href="#DejaVuSans-30" transform="translate(453.90625 0)"/>
       <use xlink:href="#DejaVuSans-31" transform="translate(517.529297 0)"/>
       <use xlink:href="#DejaVuSans-20" transform="translate(581.152344 0)"/>
       <use xlink:href="#DejaVuSans-28" transform="translate(612.939453 0)"/>
       <use xlink:href="#DejaVuSans-31" transform="translate(651.953125 0)"/>
       <use xlink:href="#DejaVuSans-32" transform="translate(715.576172 0)"/>
       <use xlink:href="#DejaVuSans-3a" transform="translate(779.199219 0)"/>
       <use xlink:href="#DejaVuSans-30" transform="translate(812.890625 0)"/>
       <use xlink:href="#DejaVuSans-30" transform="translate(876.513672 0)"/>
       <use xlink:href="#DejaVuSans-29" transform="translate(940.136719 0)"/>
      </g>
     </g>
    </g>
    <g id="xtick_2">
     <g id="line2d_2">
      <g>
       <use xlink:href="#m3baf5384bb" x="246.573612" y="484.397187" style="stroke: #000000; stroke-width: 0.8"/>
      </g>
     </g>
     <g id="text_2">
      <!-- 2022-03-16 (00:00) -->
      <g transform="translate(160.736349 546.93544) rotate(-30) scale(0.1 -0.1)">
       <defs>
        <path id="DejaVuSans-33" d="M 2597 2516 
Q 3050 2419 3304 2112 
Q 3559 1806 3559 1356 
Q 3559 666 3084 287 
Q 2609 -91 1734 -91 
Q 1441 -91 1130 -33 
Q 819 25 488 141 
L 488 750 
Q 750 597 1062 519 
Q 1375 441 1716 441 
Q 2309 441 2620 675 
Q 2931 909 2931 1356 
Q 2931 1769 2642 2001 
Q 2353 2234 1838 2234 
L 1294 2234 
L 1294 2753 
L 1863 2753 
Q 2328 2753 2575 2939 
Q 2822 3125 2822 3475 
Q 2822 3834 2567 4026 
Q 2313 4219 1838 4219 
Q 1578 4219 1281 4162 
Q 984 4106 628 3988 
L 628 4550 
Q 988 4650 1302 4700 
Q 1616 4750 1894 4750 
Q 2613 4750 3031 4423 
Q 3450 4097 3450 3541 
Q 3450 3153 3228 2886 
Q 3006 2619 2597 2516 
z
" transform="scale(0.015625)"/>
        <path id="DejaVuSans-36" d="M 2113 2584 
Q 1688 2584 1439 2293 
Q 1191 2003 1191 1497 
Q 1191 994 1439 701 
Q 1688 409 2113 409 
Q 2538 409 2786 701 
Q 3034 994 3034 1497 
Q 3034 2003 2786 2293 
Q 2538 2584 2113 2584 
z
M 3366 4563 
L 3366 3988 
Q 3128 4100 2886 4159 
Q 2644 4219 2406 4219 
Q 1781 4219 1451 3797 
Q 1122 3375 1075 2522 
Q 1259 2794 1537 2939 
Q 1816 3084 2150 3084 
Q 2853 3084 3261 2657 
Q 3669 2231 3669 1497 
Q 3669 778 3244 343 
Q 2819 -91 2113 -91 
Q 1303 -91 875 529 
Q 447 1150 447 2328 
Q 447 3434 972 4092 
Q 1497 4750 2381 4750 
Q 2619 4750 2861 4703 
Q 3103 4656 3366 4563 
z
" transform="scale(0.015625)"/>
       </defs>
       <use xlink:href="#DejaVuSans-32"/>
       <use xlink:href="#DejaVuSans-30" transform="translate(63.623047 0)"/>
       <use xlink:href="#DejaVuSans-32" transform="translate(127.246094 0)"/>
       <use xlink:href="#DejaVuSans-32" transform="translate(190.869141 0)"/>
       <use xlink:href="#DejaVuSans-2d" transform="translate(254.492188 0)"/>
       <use xlink:href="#DejaVuSans-30" transform="translate(290.576172 0)"/>
       <use xlink:href="#DejaVuSans-33" transform="translate(354.199219 0)"/>
       <use xlink:href="#DejaVuSans-2d" transform="translate(417.822266 0)"/>
       <use xlink:href="#DejaVuSans-31" transform="translate(453.90625 0)"/>
       <use xlink:href="#DejaVuSans-36" transform="translate(517.529297 0)"/>
       <use xlink:href="#DejaVuSans-20" transform="translate(581.152344 0)"/>
       <use xlink:href="#DejaVuSans-28" transform="translate(612.939453 0)"/>
       <use xlink:href="#DejaVuSans-30" transform="translate(651.953125 0)"/>
       <use xlink:href="#DejaVuSans-30" transform="translate(715.576172 0)"/>
       <use xlink:href="#DejaVuSans-3a" transform="translate(779.199219 0)"/>
       <use xlink:href="#DejaVuSans-30" transform="translate(812.890625 0)"/>
       <use xlink:href="#DejaVuSans-30" transform="translate(876.513672 0)"/>
       <use xlink:href="#DejaVuSans-29" transform="translate(940.136719 0)"/>
      </g>
     </g>
    </g>
    <g id="xtick_3">
     <g id="line2d_3">
      <g>
       <use xlink:href="#m3baf5384bb" x="399.366602" y="484.397187" style="stroke: #000000; stroke-width: 0.8"/>
      </g>
     </g>
     <g id="text_3">
      <!-- 2022-05-30 (00:00) -->
      <g transform="translate(313.529339 546.93544) rotate(-30) scale(0.1 -0.1)">
       <defs>
        <path id="DejaVuSans-35" d="M 691 4666 
L 3169 4666 
L 3169 4134 
L 1269 4134 
L 1269 2991 
Q 1406 3038 1543 3061 
Q 1681 3084 1819 3084 
Q 2600 3084 3056 2656 
Q 3513 2228 3513 1497 
Q 3513 744 3044 326 
Q 2575 -91 1722 -91 
Q 1428 -91 1123 -41 
Q 819 9 494 109 
L 494 744 
Q 775 591 1075 516 
Q 1375 441 1709 441 
Q 2250 441 2565 725 
Q 2881 1009 2881 1497 
Q 2881 1984 2565 2268 
Q 2250 2553 1709 2553 
Q 1456 2553 1204 2497 
Q 953 2441 691 2322 
L 691 4666 
z
" transform="scale(0.015625)"/>
       </defs>
       <use xlink:href="#DejaVuSans-32"/>
       <use xlink:href="#DejaVuSans-30" transform="translate(63.623047 0)"/>
       <use xlink:href="#DejaVuSans-32" transform="translate(127.246094 0)"/>
       <use xlink:href="#DejaVuSans-32" transform="translate(190.869141 0)"/>
       <use xlink:href="#DejaVuSans-2d" transform="translate(254.492188 0)"/>
       <use xlink:href="#DejaVuSans-30" transform="translate(290.576172 0)"/>
       <use xlink:href="#DejaVuSans-35" transform="translate(354.199219 0)"/>
       <use xlink:href="#DejaVuSans-2d" transform="translate(417.822266 0)"/>
       <use xlink:href="#DejaVuSans-33" transform="translate(453.90625 0)"/>
       <use xlink:href="#DejaVuSans-30" transform="translate(517.529297 0)"/>
       <use xlink:href="#DejaVuSans-20" transform="translate(581.152344 0)"/>
       <use xlink:href="#DejaVuSans-28" transform="translate(612.939453 0)"/>
       <use xlink:href="#DejaVuSans-30" transform="translate(651.953125 0)"/>
       <use xlink:href="#DejaVuSans-30" transform="translate(715.576172 0)"/>
       <use xlink:href="#DejaVuSans-3a" transform="translate(779.199219 0)"/>
       <use xlink:href="#DejaVuSans-30" transform="translate(812.890625 0)"/>
       <use xlink:href="#DejaVuSans-30" transform="translate(876.513672 0)"/>
       <use xlink:href="#DejaVuSans-29" transform="translate(940.136719 0)"/>
      </g>
     </g>
    </g>
    <g id="xtick_4">
     <g id="line2d_4">
      <g>
       <use xlink:href="#m3baf5384bb" x="552.159592" y="484.397187" style="stroke: #000000; stroke-width: 0.8"/>
      </g>
     </g>
     <g id="text_4">
      <!-- 2022-08-13 (00:00) -->
      <g transform="translate(466.322329 546.93544) rotate(-30) scale(0.1 -0.1)">
       <defs>
        <path id="DejaVuSans-38" d="M 2034 2216 
Q 1584 2216 1326 1975 
Q 1069 1734 1069 1313 
Q 1069 891 1326 650 
Q 1584 409 2034 409 
Q 2484 409 2743 651 
Q 3003 894 3003 1313 
Q 3003 1734 2745 1975 
Q 2488 2216 2034 2216 
z
M 1403 2484 
Q 997 2584 770 2862 
Q 544 3141 544 3541 
Q 544 4100 942 4425 
Q 1341 4750 2034 4750 
Q 2731 4750 3128 4425 
Q 3525 4100 3525 3541 
Q 3525 3141 3298 2862 
Q 3072 2584 2669 2484 
Q 3125 2378 3379 2068 
Q 3634 1759 3634 1313 
Q 3634 634 3220 271 
Q 2806 -91 2034 -91 
Q 1263 -91 848 271 
Q 434 634 434 1313 
Q 434 1759 690 2068 
Q 947 2378 1403 2484 
z
M 1172 3481 
Q 1172 3119 1398 2916 
Q 1625 2713 2034 2713 
Q 2441 2713 2670 2916 
Q 2900 3119 2900 3481 
Q 2900 3844 2670 4047 
Q 2441 4250 2034 4250 
Q 1625 4250 1398 4047 
Q 1172 3844 1172 3481 
z
" transform="scale(0.015625)"/>
       </defs>
       <use xlink:href="#DejaVuSans-32"/>
       <use xlink:href="#DejaVuSans-30" transform="translate(63.623047 0)"/>
       <use xlink:href="#DejaVuSans-32" transform="translate(127.246094 0)"/>
       <use xlink:href="#DejaVuSans-32" transform="translate(190.869141 0)"/>
       <use xlink:href="#DejaVuSans-2d" transform="translate(254.492188 0)"/>
       <use xlink:href="#DejaVuSans-30" transform="translate(290.576172 0)"/>
       <use xlink:href="#DejaVuSans-38" transform="translate(354.199219 0)"/>
       <use xlink:href="#DejaVuSans-2d" transform="translate(417.822266 0)"/>
       <use xlink:href="#DejaVuSans-31" transform="translate(453.90625 0)"/>
       <use xlink:href="#DejaVuSans-33" transform="translate(517.529297 0)"/>
       <use xlink:href="#DejaVuSans-20" transform="translate(581.152344 0)"/>
       <use xlink:href="#DejaVuSans-28" transform="translate(612.939453 0)"/>
       <use xlink:href="#DejaVuSans-30" transform="translate(651.953125 0)"/>
       <use xlink:href="#DejaVuSans-30" transform="translate(715.576172 0)"/>
       <use xlink:href="#DejaVuSans-3a" transform="translate(779.199219 0)"/>
       <use xlink:href="#DejaVuSans-30" transform="translate(812.890625 0)"/>
       <use xlink:href="#DejaVuSans-30" transform="translate(876.513672 0)"/>
       <use xlink:href="#DejaVuSans-29" transform="translate(940.136719 0)"/>
      </g>
     </g>
    </g>
    <g id="xtick_5">
     <g id="line2d_5">
      <g>
       <use xlink:href="#m3baf5384bb" x="704.952582" y="484.397187" style="stroke: #000000; stroke-width: 0.8"/>
      </g>
     </g>
     <g id="text_5">
      <!-- 2022-10-27 (00:00) -->
      <g transform="translate(619.11532 546.93544) rotate(-30) scale(0.1 -0.1)">
       <defs>
        <path id="DejaVuSans-37" d="M 525 4666 
L 3525 4666 
L 3525 4397 
L 1831 0 
L 1172 0 
L 2766 4134 
L 525 4134 
L 525 4666 
z
" transform="scale(0.015625)"/>
       </defs>
       <use xlink:href="#DejaVuSans-32"/>
       <use xlink:href="#DejaVuSans-30" transform="translate(63.623047 0)"/>
       <use xlink:href="#DejaVuSans-32" transform="translate(127.246094 0)"/>
       <use xlink:href="#DejaVuSans-32" transform="translate(190.869141 0)"/>
       <use xlink:href="#DejaVuSans-2d" transform="translate(254.492188 0)"/>
       <use xlink:href="#DejaVuSans-31" transform="translate(290.576172 0)"/>
       <use xlink:href="#DejaVuSans-30" transform="translate(354.199219 0)"/>
       <use xlink:href="#DejaVuSans-2d" transform="translate(417.822266 0)"/>
       <use xlink:href="#DejaVuSans-32" transform="translate(453.90625 0)"/>
       <use xlink:href="#DejaVuSans-37" transform="translate(517.529297 0)"/>
       <use xlink:href="#DejaVuSans-20" transform="translate(581.152344 0)"/>
       <use xlink:href="#DejaVuSans-28" transform="translate(612.939453 0)"/>
       <use xlink:href="#DejaVuSans-30" transform="translate(651.953125 0)"/>
       <use xlink:href="#DejaVuSans-30" transform="translate(715.576172 0)"/>
       <use xlink:href="#DejaVuSans-3a" transform="translate(779.199219 0)"/>
       <use xlink:href="#DejaVuSans-30" transform="translate(812.890625 0)"/>
       <use xlink:href="#DejaVuSans-30" transform="translate(876.513672 0)"/>
       <use xlink:href="#DejaVuSans-29" transform="translate(940.136719 0)"/>
      </g>
     </g>
    </g>
    <g id="xtick_6">
     <g id="line2d_6">
      <g>
       <use xlink:href="#m3baf5384bb" x="857.745572" y="484.397187" style="stroke: #000000; stroke-width: 0.8"/>
      </g>
     </g>
     <g id="text_6">
      <!-- 2023-01-10 (00:00) -->
      <g transform="translate(771.90831 546.93544) rotate(-30) scale(0.1 -0.1)">
       <use xlink:href="#DejaVuSans-32"/>
       <use xlink:href="#DejaVuSans-30" transform="translate(63.623047 0)"/>
       <use xlink:href="#DejaVuSans-32" transform="translate(127.246094 0)"/>
       <use xlink:href="#DejaVuSans-33" transform="translate(190.869141 0)"/>
       <use xlink:href="#DejaVuSans-2d" transform="translate(254.492188 0)"/>
       <use xlink:href="#DejaVuSans-30" transform="translate(290.576172 0)"/>
       <use xlink:href="#DejaVuSans-31" transform="translate(354.199219 0)"/>
       <use xlink:href="#DejaVuSans-2d" transform="translate(417.822266 0)"/>
       <use xlink:href="#DejaVuSans-31" transform="translate(453.90625 0)"/>
       <use xlink:href="#DejaVuSans-30" transform="translate(517.529297 0)"/>
       <use xlink:href="#DejaVuSans-20" transform="translate(581.152344 0)"/>
       <use xlink:href="#DejaVuSans-28" transform="translate(612.939453 0)"/>
       <use xlink:href="#DejaVuSans-30" transform="translate(651.953125 0)"/>
       <use xlink:href="#DejaVuSans-30" transform="translate(715.576172 0)"/>
       <use xlink:href="#DejaVuSans-3a" transform="translate(779.199219 0)"/>
       <use xlink:href="#DejaVuSans-30" transform="translate(812.890625 0)"/>
       <use xlink:href="#DejaVuSans-30" transform="translate(876.513672 0)"/>
       <use xlink:href="#DejaVuSans-29" transform="translate(940.136719 0)"/>
      </g>
     </g>
    </g>
    <g id="text_7">
     <!-- Forecast Date -->
     <g transform="translate(421.784777 564.894002) scale(0.16 -0.16)">
      <defs>
       <path id="DejaVuSans-46" d="M 628 4666 
L 3309 4666 
L 3309 4134 
L 1259 4134 
L 1259 2759 
L 3109 2759 
L 3109 2228 
L 1259 2228 
L 1259 0 
L 628 0 
L 628 4666 
z
" transform="scale(0.015625)"/>
       <path id="DejaVuSans-6f" d="M 1959 3097 
Q 1497 3097 1228 2736 
Q 959 2375 959 1747 
Q 959 1119 1226 758 
Q 1494 397 1959 397 
Q 2419 397 2687 759 
Q 2956 1122 2956 1747 
Q 2956 2369 2687 2733 
Q 2419 3097 1959 3097 
z
M 1959 3584 
Q 2709 3584 3137 3096 
Q 3566 2609 3566 1747 
Q 3566 888 3137 398 
Q 2709 -91 1959 -91 
Q 1206 -91 779 398 
Q 353 888 353 1747 
Q 353 2609 779 3096 
Q 1206 3584 1959 3584 
z
" transform="scale(0.015625)"/>
       <path id="DejaVuSans-72" d="M 2631 2963 
Q 2534 3019 2420 3045 
Q 2306 3072 2169 3072 
Q 1681 3072 1420 2755 
Q 1159 2438 1159 1844 
L 1159 0 
L 581 0 
L 581 3500 
L 1159 3500 
L 1159 2956 
Q 1341 3275 1631 3429 
Q 1922 3584 2338 3584 
Q 2397 3584 2469 3576 
Q 2541 3569 2628 3553 
L 2631 2963 
z
" transform="scale(0.015625)"/>
       <path id="DejaVuSans-65" d="M 3597 1894 
L 3597 1613 
L 953 1613 
Q 991 1019 1311 708 
Q 1631 397 2203 397 
Q 2534 397 2845 478 
Q 3156 559 3463 722 
L 3463 178 
Q 3153 47 2828 -22 
Q 2503 -91 2169 -91 
Q 1331 -91 842 396 
Q 353 884 353 1716 
Q 353 2575 817 3079 
Q 1281 3584 2069 3584 
Q 2775 3584 3186 3129 
Q 3597 2675 3597 1894 
z
M 3022 2063 
Q 3016 2534 2758 2815 
Q 2500 3097 2075 3097 
Q 1594 3097 1305 2825 
Q 1016 2553 972 2059 
L 3022 2063 
z
" transform="scale(0.015625)"/>
       <path id="DejaVuSans-63" d="M 3122 3366 
L 3122 2828 
Q 2878 2963 2633 3030 
Q 2388 3097 2138 3097 
Q 1578 3097 1268 2742 
Q 959 2388 959 1747 
Q 959 1106 1268 751 
Q 1578 397 2138 397 
Q 2388 397 2633 464 
Q 2878 531 3122 666 
L 3122 134 
Q 2881 22 2623 -34 
Q 2366 -91 2075 -91 
Q 1284 -91 818 406 
Q 353 903 353 1747 
Q 353 2603 823 3093 
Q 1294 3584 2113 3584 
Q 2378 3584 2631 3529 
Q 2884 3475 3122 3366 
z
" transform="scale(0.015625)"/>
       <path id="DejaVuSans-61" d="M 2194 1759 
Q 1497 1759 1228 1600 
Q 959 1441 959 1056 
Q 959 750 1161 570 
Q 1363 391 1709 391 
Q 2188 391 2477 730 
Q 2766 1069 2766 1631 
L 2766 1759 
L 2194 1759 
z
M 3341 1997 
L 3341 0 
L 2766 0 
L 2766 531 
Q 2569 213 2275 61 
Q 1981 -91 1556 -91 
Q 1019 -91 701 211 
Q 384 513 384 1019 
Q 384 1609 779 1909 
Q 1175 2209 1959 2209 
L 2766 2209 
L 2766 2266 
Q 2766 2663 2505 2880 
Q 2244 3097 1772 3097 
Q 1472 3097 1187 3025 
Q 903 2953 641 2809 
L 641 3341 
Q 956 3463 1253 3523 
Q 1550 3584 1831 3584 
Q 2591 3584 2966 3190 
Q 3341 2797 3341 1997 
z
" transform="scale(0.015625)"/>
       <path id="DejaVuSans-73" d="M 2834 3397 
L 2834 2853 
Q 2591 2978 2328 3040 
Q 2066 3103 1784 3103 
Q 1356 3103 1142 2972 
Q 928 2841 928 2578 
Q 928 2378 1081 2264 
Q 1234 2150 1697 2047 
L 1894 2003 
Q 2506 1872 2764 1633 
Q 3022 1394 3022 966 
Q 3022 478 2636 193 
Q 2250 -91 1575 -91 
Q 1294 -91 989 -36 
Q 684 19 347 128 
L 347 722 
Q 666 556 975 473 
Q 1284 391 1588 391 
Q 1994 391 2212 530 
Q 2431 669 2431 922 
Q 2431 1156 2273 1281 
Q 2116 1406 1581 1522 
L 1381 1569 
Q 847 1681 609 1914 
Q 372 2147 372 2553 
Q 372 3047 722 3315 
Q 1072 3584 1716 3584 
Q 2034 3584 2315 3537 
Q 2597 3491 2834 3397 
z
" transform="scale(0.015625)"/>
       <path id="DejaVuSans-74" d="M 1172 4494 
L 1172 3500 
L 2356 3500 
L 2356 3053 
L 1172 3053 
L 1172 1153 
Q 1172 725 1289 603 
Q 1406 481 1766 481 
L 2356 481 
L 2356 0 
L 1766 0 
Q 1100 0 847 248 
Q 594 497 594 1153 
L 594 3053 
L 172 3053 
L 172 3500 
L 594 3500 
L 594 4494 
L 1172 4494 
z
" transform="scale(0.015625)"/>
       <path id="DejaVuSans-44" d="M 1259 4147 
L 1259 519 
L 2022 519 
Q 2988 519 3436 956 
Q 3884 1394 3884 2338 
Q 3884 3275 3436 3711 
Q 2988 4147 2022 4147 
L 1259 4147 
z
M 628 4666 
L 1925 4666 
Q 3281 4666 3915 4102 
Q 4550 3538 4550 2338 
Q 4550 1131 3912 565 
Q 3275 0 1925 0 
L 628 0 
L 628 4666 
z
" transform="scale(0.015625)"/>
      </defs>
      <use xlink:href="#DejaVuSans-46"/>
      <use xlink:href="#DejaVuSans-6f" transform="translate(53.894531 0)"/>
      <use xlink:href="#DejaVuSans-72" transform="translate(115.076172 0)"/>
      <use xlink:href="#DejaVuSans-65" transform="translate(153.939453 0)"/>
      <use xlink:href="#DejaVuSans-63" transform="translate(215.462891 0)"/>
      <use xlink:href="#DejaVuSans-61" transform="translate(270.443359 0)"/>
      <use xlink:href="#DejaVuSans-73" transform="translate(331.722656 0)"/>
      <use xlink:href="#DejaVuSans-74" transform="translate(383.822266 0)"/>
      <use xlink:href="#DejaVuSans-20" transform="translate(423.03125 0)"/>
      <use xlink:href="#DejaVuSans-44" transform="translate(454.818359 0)"/>
      <use xlink:href="#DejaVuSans-61" transform="translate(531.820312 0)"/>
      <use xlink:href="#DejaVuSans-74" transform="translate(593.099609 0)"/>
      <use xlink:href="#DejaVuSans-65" transform="translate(632.308594 0)"/>
     </g>
    </g>
   </g>
   <g id="matplotlib.axis_2">
    <g id="ytick_1">
     <g id="line2d_7">
      <defs>
       <path id="m7e86954eb4" d="M 0 0 
L -3.5 0 
" style="stroke: #000000; stroke-width: 0.8"/>
      </defs>
      <g>
       <use xlink:href="#m7e86954eb4" x="58.791027" y="446.661841" style="stroke: #000000; stroke-width: 0.8"/>
      </g>
     </g>
     <g id="text_8">
      <!-- 1 -->
      <g transform="translate(45.428527 450.461059) scale(0.1 -0.1)">
       <use xlink:href="#DejaVuSans-31"/>
      </g>
     </g>
    </g>
    <g id="ytick_2">
     <g id="line2d_8">
      <g>
       <use xlink:href="#m7e86954eb4" x="58.791027" y="388.236766" style="stroke: #000000; stroke-width: 0.8"/>
      </g>
     </g>
     <g id="text_9">
      <!-- 2 -->
      <g transform="translate(45.428527 392.035985) scale(0.1 -0.1)">
       <use xlink:href="#DejaVuSans-32"/>
      </g>
     </g>
    </g>
    <g id="ytick_3">
     <g id="line2d_9">
      <g>
       <use xlink:href="#m7e86954eb4" x="58.791027" y="329.811692" style="stroke: #000000; stroke-width: 0.8"/>
      </g>
     </g>
     <g id="text_10">
      <!-- 3 -->
      <g transform="translate(45.428527 333.61091) scale(0.1 -0.1)">
       <use xlink:href="#DejaVuSans-33"/>
      </g>
     </g>
    </g>
    <g id="ytick_4">
     <g id="line2d_10">
      <g>
       <use xlink:href="#m7e86954eb4" x="58.791027" y="271.386617" style="stroke: #000000; stroke-width: 0.8"/>
      </g>
     </g>
     <g id="text_11">
      <!-- 4 -->
      <g transform="translate(45.428527 275.185836) scale(0.1 -0.1)">
       <defs>
        <path id="DejaVuSans-34" d="M 2419 4116 
L 825 1625 
L 2419 1625 
L 2419 4116 
z
M 2253 4666 
L 3047 4666 
L 3047 1625 
L 3713 1625 
L 3713 1100 
L 3047 1100 
L 3047 0 
L 2419 0 
L 2419 1100 
L 313 1100 
L 313 1709 
L 2253 4666 
z
" transform="scale(0.015625)"/>
       </defs>
       <use xlink:href="#DejaVuSans-34"/>
      </g>
     </g>
    </g>
    <g id="ytick_5">
     <g id="line2d_11">
      <g>
       <use xlink:href="#m7e86954eb4" x="58.791027" y="212.961543" style="stroke: #000000; stroke-width: 0.8"/>
      </g>
     </g>
     <g id="text_12">
      <!-- 5 -->
      <g transform="translate(45.428527 216.760761) scale(0.1 -0.1)">
       <use xlink:href="#DejaVuSans-35"/>
      </g>
     </g>
    </g>
    <g id="ytick_6">
     <g id="line2d_12">
      <g>
       <use xlink:href="#m7e86954eb4" x="58.791027" y="154.536468" style="stroke: #000000; stroke-width: 0.8"/>
      </g>
     </g>
     <g id="text_13">
      <!-- 6 -->
      <g transform="translate(45.428527 158.335687) scale(0.1 -0.1)">
       <use xlink:href="#DejaVuSans-36"/>
      </g>
     </g>
    </g>
    <g id="ytick_7">
     <g id="line2d_13">
      <g>
       <use xlink:href="#m7e86954eb4" x="58.791027" y="96.111394" style="stroke: #000000; stroke-width: 0.8"/>
      </g>
     </g>
     <g id="text_14">
      <!-- 7 -->
      <g transform="translate(45.428527 99.910613) scale(0.1 -0.1)">
       <use xlink:href="#DejaVuSans-37"/>
      </g>
     </g>
    </g>
    <g id="text_15">
     <!-- Root Mean Squared Error (RMSE) -->
     <g transform="translate(38.101027 394.303437) rotate(-90) scale(0.16 -0.16)">
      <defs>
       <path id="DejaVuSans-52" d="M 2841 2188 
Q 3044 2119 3236 1894 
Q 3428 1669 3622 1275 
L 4263 0 
L 3584 0 
L 2988 1197 
Q 2756 1666 2539 1819 
Q 2322 1972 1947 1972 
L 1259 1972 
L 1259 0 
L 628 0 
L 628 4666 
L 2053 4666 
Q 2853 4666 3247 4331 
Q 3641 3997 3641 3322 
Q 3641 2881 3436 2590 
Q 3231 2300 2841 2188 
z
M 1259 4147 
L 1259 2491 
L 2053 2491 
Q 2509 2491 2742 2702 
Q 2975 2913 2975 3322 
Q 2975 3731 2742 3939 
Q 2509 4147 2053 4147 
L 1259 4147 
z
" transform="scale(0.015625)"/>
       <path id="DejaVuSans-4d" d="M 628 4666 
L 1569 4666 
L 2759 1491 
L 3956 4666 
L 4897 4666 
L 4897 0 
L 4281 0 
L 4281 4097 
L 3078 897 
L 2444 897 
L 1241 4097 
L 1241 0 
L 628 0 
L 628 4666 
z
" transform="scale(0.015625)"/>
       <path id="DejaVuSans-6e" d="M 3513 2113 
L 3513 0 
L 2938 0 
L 2938 2094 
Q 2938 2591 2744 2837 
Q 2550 3084 2163 3084 
Q 1697 3084 1428 2787 
Q 1159 2491 1159 1978 
L 1159 0 
L 581 0 
L 581 3500 
L 1159 3500 
L 1159 2956 
Q 1366 3272 1645 3428 
Q 1925 3584 2291 3584 
Q 2894 3584 3203 3211 
Q 3513 2838 3513 2113 
z
" transform="scale(0.015625)"/>
       <path id="DejaVuSans-53" d="M 3425 4513 
L 3425 3897 
Q 3066 4069 2747 4153 
Q 2428 4238 2131 4238 
Q 1616 4238 1336 4038 
Q 1056 3838 1056 3469 
Q 1056 3159 1242 3001 
Q 1428 2844 1947 2747 
L 2328 2669 
Q 3034 2534 3370 2195 
Q 3706 1856 3706 1288 
Q 3706 609 3251 259 
Q 2797 -91 1919 -91 
Q 1588 -91 1214 -16 
Q 841 59 441 206 
L 441 856 
Q 825 641 1194 531 
Q 1563 422 1919 422 
Q 2459 422 2753 634 
Q 3047 847 3047 1241 
Q 3047 1584 2836 1778 
Q 2625 1972 2144 2069 
L 1759 2144 
Q 1053 2284 737 2584 
Q 422 2884 422 3419 
Q 422 4038 858 4394 
Q 1294 4750 2059 4750 
Q 2388 4750 2728 4690 
Q 3069 4631 3425 4513 
z
" transform="scale(0.015625)"/>
       <path id="DejaVuSans-71" d="M 947 1747 
Q 947 1113 1208 752 
Q 1469 391 1925 391 
Q 2381 391 2643 752 
Q 2906 1113 2906 1747 
Q 2906 2381 2643 2742 
Q 2381 3103 1925 3103 
Q 1469 3103 1208 2742 
Q 947 2381 947 1747 
z
M 2906 525 
Q 2725 213 2448 61 
Q 2172 -91 1784 -91 
Q 1150 -91 751 415 
Q 353 922 353 1747 
Q 353 2572 751 3078 
Q 1150 3584 1784 3584 
Q 2172 3584 2448 3432 
Q 2725 3281 2906 2969 
L 2906 3500 
L 3481 3500 
L 3481 -1331 
L 2906 -1331 
L 2906 525 
z
" transform="scale(0.015625)"/>
       <path id="DejaVuSans-75" d="M 544 1381 
L 544 3500 
L 1119 3500 
L 1119 1403 
Q 1119 906 1312 657 
Q 1506 409 1894 409 
Q 2359 409 2629 706 
Q 2900 1003 2900 1516 
L 2900 3500 
L 3475 3500 
L 3475 0 
L 2900 0 
L 2900 538 
Q 2691 219 2414 64 
Q 2138 -91 1772 -91 
Q 1169 -91 856 284 
Q 544 659 544 1381 
z
M 1991 3584 
L 1991 3584 
z
" transform="scale(0.015625)"/>
       <path id="DejaVuSans-64" d="M 2906 2969 
L 2906 4863 
L 3481 4863 
L 3481 0 
L 2906 0 
L 2906 525 
Q 2725 213 2448 61 
Q 2172 -91 1784 -91 
Q 1150 -91 751 415 
Q 353 922 353 1747 
Q 353 2572 751 3078 
Q 1150 3584 1784 3584 
Q 2172 3584 2448 3432 
Q 2725 3281 2906 2969 
z
M 947 1747 
Q 947 1113 1208 752 
Q 1469 391 1925 391 
Q 2381 391 2643 752 
Q 2906 1113 2906 1747 
Q 2906 2381 2643 2742 
Q 2381 3103 1925 3103 
Q 1469 3103 1208 2742 
Q 947 2381 947 1747 
z
" transform="scale(0.015625)"/>
       <path id="DejaVuSans-45" d="M 628 4666 
L 3578 4666 
L 3578 4134 
L 1259 4134 
L 1259 2753 
L 3481 2753 
L 3481 2222 
L 1259 2222 
L 1259 531 
L 3634 531 
L 3634 0 
L 628 0 
L 628 4666 
z
" transform="scale(0.015625)"/>
      </defs>
      <use xlink:href="#DejaVuSans-52"/>
      <use xlink:href="#DejaVuSans-6f" transform="translate(64.982422 0)"/>
      <use xlink:href="#DejaVuSans-6f" transform="translate(126.164062 0)"/>
      <use xlink:href="#DejaVuSans-74" transform="translate(187.345703 0)"/>
      <use xlink:href="#DejaVuSans-20" transform="translate(226.554688 0)"/>
      <use xlink:href="#DejaVuSans-4d" transform="translate(258.341797 0)"/>
      <use xlink:href="#DejaVuSans-65" transform="translate(344.621094 0)"/>
      <use xlink:href="#DejaVuSans-61" transform="translate(406.144531 0)"/>
      <use xlink:href="#DejaVuSans-6e" transform="translate(467.423828 0)"/>
      <use xlink:href="#DejaVuSans-20" transform="translate(530.802734 0)"/>
      <use xlink:href="#DejaVuSans-53" transform="translate(562.589844 0)"/>
      <use xlink:href="#DejaVuSans-71" transform="translate(626.066406 0)"/>
      <use xlink:href="#DejaVuSans-75" transform="translate(689.542969 0)"/>
      <use xlink:href="#DejaVuSans-61" transform="translate(752.921875 0)"/>
      <use xlink:href="#DejaVuSans-72" transform="translate(814.201172 0)"/>
      <use xlink:href="#DejaVuSans-65" transform="translate(853.064453 0)"/>
      <use xlink:href="#DejaVuSans-64" transform="translate(914.587891 0)"/>
      <use xlink:href="#DejaVuSans-20" transform="translate(978.064453 0)"/>
      <use xlink:href="#DejaVuSans-45" transform="translate(1009.851562 0)"/>
      <use xlink:href="#DejaVuSans-72" transform="translate(1073.035156 0)"/>
      <use xlink:href="#DejaVuSans-72" transform="translate(1112.398438 0)"/>
      <use xlink:href="#DejaVuSans-6f" transform="translate(1151.261719 0)"/>
      <use xlink:href="#DejaVuSans-72" transform="translate(1212.443359 0)"/>
      <use xlink:href="#DejaVuSans-20" transform="translate(1253.556641 0)"/>
      <use xlink:href="#DejaVuSans-28" transform="translate(1285.34375 0)"/>
      <use xlink:href="#DejaVuSans-52" transform="translate(1324.357422 0)"/>
      <use xlink:href="#DejaVuSans-4d" transform="translate(1393.839844 0)"/>
      <use xlink:href="#DejaVuSans-53" transform="translate(1480.119141 0)"/>
      <use xlink:href="#DejaVuSans-45" transform="translate(1543.595703 0)"/>
      <use xlink:href="#DejaVuSans-29" transform="translate(1606.779297 0)"/>
     </g>
    </g>
   </g>
   <g id="line2d_14">
    <path d="M 96.836481 98.55231 
L 99.892341 344.58662 
L 102.948201 357.110243 
L 106.004061 350.249667 
L 109.05992 280.877176 
L 112.11578 337.463777 
L 115.17164 372.570982 
L 118.2275 346.112234 
L 121.28336 339.695456 
L 124.339219 335.134047 
L 127.395079 311.367199 
L 130.450939 349.825538 
L 133.506799 335.216692 
L 136.562659 355.56861 
L 139.618518 367.926763 
L 142.674378 365.299984 
L 145.730238 380.514726 
L 148.786098 383.250616 
L 151.841958 351.986537 
L 154.897817 359.779103 
L 157.953677 347.636455 
L 161.009537 304.35869 
L 164.065397 310.383266 
L 167.121257 293.01928 
L 170.177116 306.566591 
L 173.232976 310.9525 
L 176.288836 328.313505 
L 179.344696 355.360835 
L 182.400556 340.855041 
L 185.456415 328.825446 
L 188.512275 335.189905 
L 191.568135 298.064478 
L 194.623995 289.984642 
L 197.679855 303.050643 
L 200.735714 347.194845 
L 203.791574 322.312317 
L 206.847434 321.438428 
L 209.903294 309.866616 
L 212.959154 286.679212 
L 216.015013 274.07587 
L 219.070873 228.904749 
L 222.126733 152.136728 
L 225.182593 166.728315 
L 228.238453 257.246852 
L 231.294313 282.457561 
L 234.350172 84.913398 
L 237.406032 202.571325 
L 240.461892 311.646934 
L 243.517752 347.091194 
L 246.573612 313.757313 
L 249.629471 176.136912 
L 252.685331 61.037187 
L 255.741191 199.996908 
L 258.797051 260.58542 
L 261.852911 267.211881 
L 264.90877 314.673896 
L 267.96463 337.946062 
L 271.02049 353.729997 
L 274.07635 347.565275 
L 277.13221 355.329912 
L 280.188069 343.591683 
L 283.243929 358.705394 
L 286.299789 377.328339 
L 289.355649 370.937985 
L 292.411509 346.012345 
L 295.467368 351.879934 
L 298.523228 373.975799 
L 301.579088 375.255304 
L 304.634948 374.363669 
L 307.690808 376.066719 
L 310.746667 378.333709 
L 313.802527 375.836908 
L 316.858387 367.553212 
L 319.914247 353.620371 
L 322.970107 358.077711 
L 326.025966 364.653928 
L 329.081826 377.93372 
L 332.137686 377.959003 
L 335.193546 387.311588 
L 338.249406 381.098614 
L 341.305265 362.126648 
L 344.361125 357.854726 
L 347.416985 368.702002 
L 350.472845 363.368795 
L 353.528705 368.703743 
L 356.584564 364.536849 
L 359.640424 379.142798 
L 362.696284 385.865889 
L 365.752144 392.083097 
L 368.808004 370.826952 
L 371.863863 367.720702 
L 374.919723 359.952666 
L 377.975583 350.161158 
L 381.031443 361.694245 
L 384.087303 357.390799 
L 387.143162 342.531555 
L 390.199022 339.871735 
L 393.254882 352.497922 
L 396.310742 332.63102 
L 399.366602 346.555879 
L 402.422461 361.369114 
L 405.478321 339.829598 
L 408.534181 344.264149 
L 411.590041 368.000186 
L 414.645901 360.461446 
L 417.70176 361.167441 
L 420.75762 358.439031 
L 423.81348 352.308326 
L 426.86934 353.955922 
L 429.9252 352.643862 
L 432.981059 369.091683 
L 436.036919 376.413901 
L 439.092779 378.885392 
L 442.148639 365.115848 
L 445.204499 365.857963 
L 448.260359 365.916481 
L 451.316218 375.781719 
L 454.372078 371.697205 
L 457.427938 348.284197 
L 460.483798 310.07974 
L 463.539658 344.772121 
L 466.595517 346.156238 
L 469.651377 330.798369 
L 472.707237 335.281994 
L 475.763097 328.217014 
L 478.818957 292.284395 
L 481.874816 335.578597 
L 484.930676 318.341329 
L 487.986536 265.243653 
L 491.042396 285.267152 
L 494.098256 311.766394 
L 497.154115 323.288463 
L 500.209975 304.00595 
L 503.265835 322.178063 
L 506.321695 366.240623 
L 509.377555 352.358486 
L 512.433414 340.800214 
L 515.489274 346.080433 
L 518.545134 355.062923 
L 521.600994 356.576794 
L 524.656854 339.154652 
L 527.712713 315.482887 
L 530.768573 345.430936 
L 533.824433 369.257947 
L 536.880293 360.708237 
L 539.936153 348.860117 
L 542.992012 370.621211 
L 546.047872 385.932584 
L 549.103732 360.397258 
L 552.159592 336.865082 
L 555.215452 329.379051 
L 558.271311 333.543786 
L 561.327171 347.921163 
L 564.383031 291.203596 
L 567.438891 250.071368 
L 570.494751 225.306253 
L 573.55061 257.396512 
L 576.60647 231.125939 
L 579.66233 203.374117 
L 582.71819 217.47892 
L 585.77405 218.10617 
L 588.829909 211.776995 
L 591.885769 251.950865 
L 594.941629 263.818151 
L 597.997489 262.735541 
L 601.053349 269.342835 
L 604.109208 313.217749 
L 607.165068 308.661732 
L 610.220928 314.420127 
L 613.276788 306.155277 
L 616.332648 296.867185 
L 619.388507 251.71537 
L 622.444367 256.292477 
L 625.500227 262.282494 
L 628.556087 263.436145 
L 631.611947 314.035181 
L 634.667806 268.983116 
L 637.723666 306.632868 
L 640.779526 274.520281 
L 643.835386 322.712975 
L 646.891246 328.958419 
L 649.947105 319.578141 
L 653.002965 322.427515 
L 656.058825 344.207957 
L 659.114685 338.087615 
L 662.170545 298.40379 
L 665.226405 315.110716 
L 668.282264 263.89 
L 671.338124 186.862443 
L 674.393984 219.872057 
L 677.449844 243.291459 
L 680.505704 194.808318 
L 683.561563 186.106956 
L 686.617423 191.746532 
L 689.673283 230.412101 
L 692.729143 286.218211 
L 695.785003 316.907386 
L 698.840862 270.624834 
L 701.896722 298.506758 
L 704.952582 237.111498 
L 708.008442 269.066611 
L 711.064302 337.559111 
L 714.120161 328.034049 
L 717.176021 215.119966 
L 720.231881 194.221658 
L 723.287741 251.27004 
L 726.343601 273.688125 
L 729.39946 274.610587 
L 732.45532 237.447619 
L 735.51118 253.661032 
L 738.56704 276.27962 
L 741.6229 249.673817 
L 744.678759 251.019586 
L 747.734619 259.872251 
L 750.790479 271.79775 
L 753.846339 278.250759 
L 756.902199 238.131035 
L 759.958058 254.300931 
L 763.013918 301.051407 
L 766.069778 259.094143 
L 769.125638 232.137424 
L 772.181498 218.436553 
L 778.293217 302.906513 
L 781.349077 273.556031 
L 784.404937 266.09701 
L 787.460797 292.385482 
L 790.516656 314.588633 
L 793.572516 307.201155 
L 796.628376 256.339058 
L 799.684236 241.409037 
L 805.795955 328.858905 
L 808.851815 317.268191 
L 811.907675 287.584666 
L 814.963535 319.9899 
L 818.019395 346.016036 
L 821.075254 338.803208 
L 824.131114 306.418784 
L 827.186974 330.759017 
L 830.242834 356.440395 
L 833.298694 332.930994 
L 836.354553 329.632111 
L 839.410413 345.992119 
L 842.466273 326.125816 
L 845.522133 334.911536 
L 848.577993 355.917004 
L 851.633852 367.729993 
L 854.689712 351.687761 
L 857.745572 370.753362 
L 857.745572 370.753362 
" clip-path="url(#p1f62da92af)" style="fill: none; stroke: #0000ff; stroke-width: 2; stroke-linecap: square"/>
   </g>
   <g id="line2d_15">
    <path d="M 96.836481 359.552148 
L 99.892341 431.191824 
L 102.948201 414.552179 
L 106.004061 426.553378 
L 109.05992 420.477805 
L 112.11578 405.213989 
L 115.17164 427.995317 
L 118.2275 389.288035 
L 121.28336 448.339399 
L 124.339219 412.077957 
L 127.395079 446.458628 
L 130.450939 416.048763 
L 133.506799 411.940263 
L 136.562659 440.787767 
L 139.618518 420.759079 
L 145.730238 411.442522 
L 148.786098 365.410683 
L 151.841958 437.942384 
L 154.897817 434.899402 
L 157.953677 379.864728 
L 161.009537 443.908142 
L 164.065397 412.875651 
L 167.121257 408.207381 
L 170.177116 417.194029 
L 173.232976 445.721229 
L 176.288836 422.221592 
L 179.344696 425.827547 
L 182.400556 409.970085 
L 185.456415 405.612787 
L 188.512275 438.266693 
L 191.568135 425.186011 
L 194.623995 445.464812 
L 197.679855 386.107944 
L 200.735714 448.570331 
L 203.791574 433.72028 
L 206.847434 420.386093 
L 209.903294 418.219876 
L 212.959154 434.924378 
L 216.015013 445.071175 
L 219.070873 432.365151 
L 222.126733 421.090173 
L 225.182593 433.398806 
L 228.238453 410.896788 
L 231.294313 432.550192 
L 234.350172 449.98812 
L 237.406032 429.406617 
L 240.461892 440.739989 
L 243.517752 333.728131 
L 246.573612 394.452547 
L 249.629471 402.623887 
L 252.685331 415.050358 
L 255.741191 382.080137 
L 261.852911 441.534179 
L 264.90877 350.164724 
L 267.96463 453.021382 
L 271.02049 413.955287 
L 274.07635 408.367697 
L 277.13221 354.396613 
L 280.188069 419.895805 
L 283.243929 451.114069 
L 286.299789 374.006639 
L 289.355649 421.537091 
L 292.411509 331.454384 
L 295.467368 401.614163 
L 298.523228 405.758686 
L 301.579088 388.709872 
L 304.634948 450.244146 
L 307.690808 422.277736 
L 310.746667 424.698356 
L 313.802527 394.968417 
L 316.858387 369.628893 
L 319.914247 364.993978 
L 322.970107 355.163773 
L 326.025966 420.072913 
L 329.081826 403.965233 
L 332.137686 407.535033 
L 335.193546 433.466935 
L 338.249406 361.061325 
L 341.305265 389.378062 
L 344.361125 408.156657 
L 347.416985 432.489152 
L 350.472845 431.343253 
L 353.528705 424.422884 
L 356.584564 404.690778 
L 359.640424 415.610217 
L 362.696284 437.589038 
L 365.752144 365.762991 
L 368.808004 423.744288 
L 371.863863 314.668798 
L 377.975583 422.577076 
L 381.031443 400.449912 
L 384.087303 339.654085 
L 387.143162 416.183296 
L 390.199022 362.540372 
L 393.254882 430.091725 
L 396.310742 410.292576 
L 399.366602 331.717835 
L 402.422461 405.926858 
L 405.478321 426.713157 
L 408.534181 375.470294 
L 411.590041 418.324655 
L 414.645901 422.275855 
L 417.70176 395.071419 
L 420.75762 356.257332 
L 423.81348 373.363522 
L 426.86934 410.222879 
L 429.9252 383.604024 
L 432.981059 392.023423 
L 436.036919 422.049025 
L 439.092779 347.452264 
L 442.148639 418.57706 
L 445.204499 219.696571 
L 448.260359 423.798481 
L 451.316218 433.76606 
L 454.372078 375.817532 
L 457.427938 232.780276 
L 460.483798 400.463082 
L 463.539658 372.749477 
L 466.595517 278.320798 
L 469.651377 353.586243 
L 472.707237 385.747208 
L 475.763097 426.510481 
L 478.818957 426.075418 
L 481.874816 272.138998 
L 484.930676 431.591346 
L 487.986536 398.174654 
L 491.042396 407.349602 
L 494.098256 402.176607 
L 497.154115 372.54818 
L 500.209975 396.550585 
L 503.265835 411.527242 
L 506.321695 419.48603 
L 509.377555 396.65941 
L 512.433414 423.685429 
L 515.489274 443.920247 
L 518.545134 419.361597 
L 521.600994 280.377172 
L 524.656854 338.363463 
L 527.712713 376.166943 
L 530.768573 263.893037 
L 533.824433 441.28775 
L 539.936153 406.561339 
L 542.992012 418.843491 
L 546.047872 393.439021 
L 549.103732 408.03689 
L 552.159592 332.517215 
L 555.215452 374.512187 
L 558.271311 391.87884 
L 561.327171 366.424369 
L 564.383031 361.700681 
L 567.438891 359.53514 
L 570.494751 340.682509 
L 573.55061 413.796023 
L 576.60647 336.177529 
L 579.66233 313.678806 
L 582.71819 404.301292 
L 585.77405 328.285423 
L 588.829909 386.079931 
L 591.885769 210.199911 
L 594.941629 295.37354 
L 597.997489 444.442817 
L 601.053349 415.607501 
L 604.109208 347.855151 
L 607.165068 436.199565 
L 610.220928 421.635768 
L 613.276788 446.740118 
L 616.332648 362.93947 
L 619.388507 314.727776 
L 622.444367 459.585856 
L 625.500227 438.931937 
L 628.556087 395.647514 
L 631.611947 373.590547 
L 634.667806 315.841617 
L 637.723666 411.473411 
L 640.779526 403.979776 
L 643.835386 413.632949 
L 646.891246 354.734936 
L 649.947105 402.700542 
L 653.002965 410.930964 
L 656.058825 325.412536 
L 659.114685 415.979707 
L 662.170545 380.509948 
L 665.226405 373.361349 
L 668.282264 337.920446 
L 671.338124 374.012058 
L 674.393984 371.306103 
L 677.449844 449.223829 
L 680.505704 448.283489 
L 683.561563 384.99505 
L 686.617423 442.437501 
L 689.673283 416.776496 
L 692.729143 427.203898 
L 695.785003 416.103423 
L 698.840862 426.152274 
L 701.896722 450.026966 
L 704.952582 386.714913 
L 708.008442 418.914672 
L 711.064302 435.050309 
L 714.120161 416.753017 
L 717.176021 436.394852 
L 720.231881 405.474675 
L 723.287741 440.545858 
L 726.343601 406.694471 
L 729.39946 412.782218 
L 732.45532 455.527363 
L 735.51118 430.904804 
L 738.56704 453.664795 
L 741.6229 405.161537 
L 744.678759 418.68539 
L 747.734619 382.124225 
L 750.790479 426.069149 
L 753.846339 431.050369 
L 756.902199 426.170675 
L 759.958058 439.46088 
L 763.013918 418.360593 
L 766.069778 422.677098 
L 769.125638 367.149838 
L 772.181498 443.289423 
L 775.237357 438.995756 
L 778.293217 441.895618 
L 781.349077 446.252275 
L 784.404937 403.207845 
L 787.460797 428.201782 
L 790.516656 445.290999 
L 793.572516 388.860305 
L 796.628376 430.915788 
L 799.684236 324.237363 
L 802.740096 388.20633 
L 805.795955 404.173808 
L 808.851815 441.219439 
L 811.907675 407.085838 
L 814.963535 351.935054 
L 818.019395 351.9785 
L 821.075254 402.56502 
L 824.131114 361.308604 
L 827.186974 388.421967 
L 830.242834 300.906971 
L 833.298694 444.279116 
L 836.354553 449.916772 
L 839.410413 428.442701 
L 842.466273 433.687114 
L 845.522133 415.13234 
L 848.577993 421.45859 
L 851.633852 430.706453 
L 854.689712 363.167024 
L 857.745572 464.237187 
L 857.745572 464.237187 
" clip-path="url(#p1f62da92af)" style="fill: none; stroke: #ffa500; stroke-width: 2; stroke-linecap: square"/>
   </g>
   <g id="line2d_16">
    <path d="M 96.836481 230.180201 
L 99.892341 396.38843 
L 102.948201 409.447821 
L 106.004061 400.202048 
L 109.05992 368.385771 
L 112.11578 406.043672 
L 115.17164 422.472514 
L 118.2275 398.520812 
L 121.28336 401.756503 
L 124.339219 386.347296 
L 127.395079 384.003665 
L 130.450939 405.101556 
L 133.506799 398.370449 
L 136.562659 411.874271 
L 139.618518 398.074423 
L 142.674378 410.290348 
L 145.730238 412.720412 
L 148.786098 414.23186 
L 151.841958 396.445925 
L 154.897817 401.866324 
L 157.953677 386.068342 
L 161.009537 365.149669 
L 164.065397 368.054288 
L 167.121257 344.214072 
L 170.177116 351.040827 
L 173.232976 370.90128 
L 176.288836 393.636647 
L 179.344696 397.76972 
L 182.400556 395.565252 
L 185.456415 384.634496 
L 188.512275 372.368056 
L 191.568135 346.169569 
L 194.623995 350.415443 
L 197.679855 362.950544 
L 200.735714 395.286945 
L 206.847434 362.79938 
L 209.903294 354.661819 
L 212.959154 354.209984 
L 216.015013 339.832217 
L 219.070873 295.9222 
L 222.126733 244.553287 
L 225.182593 263.591266 
L 228.238453 350.639808 
L 231.294313 315.208348 
L 234.350172 247.873552 
L 237.406032 314.586976 
L 240.461892 362.769459 
L 243.517752 395.315369 
L 246.573612 347.571112 
L 249.629471 204.690717 
L 252.685331 249.591214 
L 255.741191 327.859009 
L 258.797051 325.938142 
L 261.852911 359.755604 
L 264.90877 378.098912 
L 267.96463 404.557611 
L 271.02049 410.348225 
L 274.07635 406.242037 
L 277.13221 409.298412 
L 280.188069 409.765591 
L 286.299789 421.008531 
L 289.355649 415.979651 
L 292.411509 402.711623 
L 295.467368 418.840343 
L 298.523228 424.530803 
L 301.579088 426.669676 
L 304.634948 422.967691 
L 307.690808 424.816904 
L 310.746667 420.926263 
L 313.802527 421.112934 
L 316.858387 416.229222 
L 319.914247 415.144682 
L 322.970107 417.125816 
L 326.025966 421.71562 
L 329.081826 423.16187 
L 332.137686 424.972519 
L 335.193546 424.608858 
L 338.249406 421.238711 
L 341.305265 425.547137 
L 344.361125 419.776254 
L 347.416985 421.228104 
L 350.472845 418.764232 
L 353.528705 418.291474 
L 356.584564 424.764236 
L 359.640424 421.602824 
L 362.696284 427.445069 
L 365.752144 429.368617 
L 368.808004 412.431602 
L 371.863863 416.232906 
L 374.919723 408.391524 
L 377.975583 415.254677 
L 381.031443 409.490732 
L 384.087303 414.683925 
L 387.143162 407.364368 
L 390.199022 405.197963 
L 393.254882 411.653048 
L 396.310742 400.256756 
L 399.366602 410.157389 
L 402.422461 409.455155 
L 405.478321 393.56039 
L 408.534181 401.231746 
L 411.590041 413.440581 
L 414.645901 412.059389 
L 417.70176 412.781361 
L 420.75762 409.315803 
L 423.81348 416.38641 
L 426.86934 413.406662 
L 429.9252 421.500302 
L 432.981059 423.147557 
L 436.036919 425.136394 
L 439.092779 426.144167 
L 442.148639 415.302226 
L 445.204499 418.745901 
L 448.260359 421.252731 
L 451.316218 416.325761 
L 454.372078 419.676204 
L 457.427938 397.06805 
L 460.483798 385.72506 
L 463.539658 396.252881 
L 466.595517 394.913757 
L 469.651377 391.638039 
L 472.707237 392.619945 
L 475.763097 389.622791 
L 478.818957 389.358985 
L 481.874816 401.534702 
L 484.930676 370.356172 
L 487.986536 343.702939 
L 491.042396 359.503436 
L 497.154115 397.863501 
L 500.209975 388.291363 
L 503.265835 408.339699 
L 506.321695 414.275439 
L 509.377555 398.565526 
L 512.433414 398.474433 
L 515.489274 405.687478 
L 518.545134 406.144335 
L 521.600994 404.213786 
L 527.712713 379.044455 
L 530.768573 403.016159 
L 533.824433 423.364469 
L 536.880293 414.201075 
L 539.936153 412.248379 
L 542.992012 423.458954 
L 546.047872 419.540606 
L 549.103732 399.806056 
L 552.159592 388.98361 
L 555.215452 392.092235 
L 558.271311 381.691125 
L 561.327171 390.742935 
L 564.383031 349.018511 
L 567.438891 315.010965 
L 570.494751 328.106761 
L 573.55061 344.759194 
L 576.60647 317.712658 
L 579.66233 302.667355 
L 582.71819 308.433815 
L 585.77405 313.724829 
L 588.829909 324.514353 
L 591.885769 332.428803 
L 594.941629 340.915078 
L 597.997489 342.512457 
L 601.053349 347.076554 
L 604.109208 371.184358 
L 607.165068 368.626838 
L 610.220928 384.653816 
L 613.276788 372.249389 
L 616.332648 350.12554 
L 619.388507 328.869938 
L 622.444367 325.29724 
L 625.500227 326.879617 
L 628.556087 328.927049 
L 631.611947 366.176143 
L 634.667806 334.343806 
L 637.723666 368.29385 
L 640.779526 341.134344 
L 643.835386 382.329505 
L 646.891246 374.432509 
L 649.947105 361.785735 
L 653.002965 379.591178 
L 656.058825 382.044826 
L 659.114685 385.616952 
L 662.170545 359.939113 
L 665.226405 371.693542 
L 668.282264 319.042491 
L 671.338124 273.255764 
L 674.393984 308.375534 
L 677.449844 322.441653 
L 680.505704 288.334678 
L 683.561563 296.417579 
L 686.617423 294.953311 
L 689.673283 304.415272 
L 692.729143 358.12574 
L 695.785003 375.593376 
L 698.840862 344.111871 
L 701.896722 368.406596 
L 704.952582 321.088363 
L 708.008442 350.927914 
L 711.064302 391.849706 
L 714.120161 369.016282 
L 717.176021 293.222235 
L 720.231881 286.777221 
L 723.287741 332.212671 
L 726.343601 357.486398 
L 729.39946 340.632892 
L 732.45532 317.18127 
L 735.51118 327.403246 
L 738.56704 346.811125 
L 741.6229 330.937372 
L 744.678759 335.29864 
L 747.734619 338.396114 
L 750.790479 352.72666 
L 753.846339 340.663314 
L 756.902199 316.650886 
L 759.958058 348.110146 
L 763.013918 371.626415 
L 766.069778 342.051331 
L 769.125638 326.82596 
L 772.181498 332.969482 
L 775.237357 360.796035 
L 778.293217 382.490393 
L 781.349077 359.58296 
L 784.404937 351.470152 
L 787.460797 357.489352 
L 790.516656 384.617181 
L 793.572516 375.693712 
L 796.628376 318.901509 
L 799.684236 357.853416 
L 802.740096 372.574061 
L 805.795955 399.34943 
L 808.851815 377.734401 
L 811.907675 360.48273 
L 814.963535 391.208505 
L 818.019395 402.872322 
L 821.075254 402.939685 
L 824.131114 380.361946 
L 827.186974 400.012292 
L 830.242834 408.113621 
L 833.298694 398.058669 
L 836.354553 401.836264 
L 839.410413 404.991644 
L 842.466273 398.372448 
L 845.522133 384.571604 
L 848.577993 406.896778 
L 851.633852 419.597384 
L 854.689712 413.66693 
L 857.745572 424.167268 
L 857.745572 424.167268 
" clip-path="url(#p1f62da92af)" style="fill: none; stroke-dasharray: 7.4,3.2; stroke-dashoffset: 0; stroke: #0000ff; stroke-width: 2"/>
   </g>
   <g id="line2d_17">
    <path d="M 96.836481 430.79935 
L 99.892341 435.635778 
L 102.948201 448.025404 
L 106.004061 449.3384 
L 109.05992 446.578743 
L 112.11578 456.333408 
L 115.17164 443.516685 
L 118.2275 417.021121 
L 121.28336 448.973065 
L 124.339219 453.444951 
L 127.395079 435.302901 
L 130.450939 430.7007 
L 133.506799 445.981546 
L 136.562659 414.830534 
L 139.618518 432.500714 
L 142.674378 430.08031 
L 145.730238 411.898474 
L 148.786098 448.280125 
L 151.841958 443.517897 
L 154.897817 428.966636 
L 157.953677 430.70357 
L 161.009537 430.757498 
L 164.065397 389.715709 
L 167.121257 430.34064 
L 170.177116 454.801212 
L 173.232976 429.565464 
L 176.288836 449.601956 
L 179.344696 441.479415 
L 182.400556 434.179812 
L 185.456415 434.386416 
L 188.512275 436.328017 
L 191.568135 451.10849 
L 194.623995 461.972913 
L 197.679855 439.936375 
L 200.735714 441.355998 
L 203.791574 425.532288 
L 206.847434 394.308069 
L 209.903294 444.866772 
L 212.959154 458.731114 
L 216.015013 426.308579 
L 219.070873 428.607036 
L 222.126733 452.167524 
L 225.182593 443.630406 
L 228.238453 428.401087 
L 231.294313 461.581379 
L 234.350172 460.220034 
L 237.406032 454.627224 
L 240.461892 450.481427 
L 243.517752 427.827715 
L 246.573612 445.044778 
L 249.629471 440.842699 
L 252.685331 446.390909 
L 255.741191 434.667174 
L 258.797051 443.565369 
L 261.852911 455.249478 
L 264.90877 443.563683 
L 267.96463 447.916771 
L 271.02049 420.961595 
L 274.07635 422.8268 
L 277.13221 421.176285 
L 280.188069 447.130402 
L 283.243929 442.191706 
L 286.299789 409.463562 
L 289.355649 455.430319 
L 292.411509 401.927998 
L 295.467368 458.353551 
L 298.523228 445.330127 
L 301.579088 440.803194 
L 304.634948 443.140404 
L 307.690808 439.977509 
L 310.746667 411.262461 
L 313.802527 431.91833 
L 316.858387 417.930572 
L 319.914247 433.854423 
L 322.970107 445.076301 
L 326.025966 435.387865 
L 329.081826 458.601833 
L 332.137686 417.017729 
L 335.193546 432.495323 
L 338.249406 436.410293 
L 341.305265 445.973376 
L 344.361125 437.313253 
L 347.416985 449.862513 
L 350.472845 464.018949 
L 353.528705 391.938508 
L 356.584564 393.940271 
L 359.640424 441.479317 
L 362.696284 441.417484 
L 365.752144 393.215478 
L 368.808004 400.958858 
L 371.863863 419.642091 
L 374.919723 433.143253 
L 377.975583 426.287043 
L 381.031443 425.186338 
L 384.087303 444.960191 
L 387.143162 440.299485 
L 390.199022 400.972203 
L 393.254882 439.827891 
L 396.310742 427.647835 
L 399.366602 424.631138 
L 402.422461 412.875101 
L 405.478321 403.795076 
L 408.534181 457.554392 
L 411.590041 426.607578 
L 414.645901 401.49409 
L 417.70176 423.345448 
L 420.75762 439.459842 
L 423.81348 401.335202 
L 426.86934 457.98388 
L 429.9252 432.500219 
L 432.981059 434.918458 
L 436.036919 404.998261 
L 439.092779 437.648929 
L 442.148639 408.06119 
L 445.204499 373.37312 
L 448.260359 437.019602 
L 451.316218 438.431634 
L 454.372078 417.889333 
L 457.427938 340.76975 
L 460.483798 402.070735 
L 463.539658 440.600268 
L 466.595517 318.777633 
L 469.651377 439.684604 
L 472.707237 417.249378 
L 475.763097 421.163519 
L 478.818957 444.151339 
L 481.874816 358.994447 
L 484.930676 399.811677 
L 487.986536 437.986074 
L 491.042396 451.69563 
L 494.098256 433.456551 
L 497.154115 409.479386 
L 500.209975 390.81968 
L 503.265835 393.515 
L 506.321695 420.883025 
L 509.377555 458.44205 
L 512.433414 434.341145 
L 515.489274 454.043134 
L 518.545134 443.403945 
L 521.600994 403.523121 
L 524.656854 406.341564 
L 527.712713 427.382525 
L 530.768573 389.860918 
L 533.824433 430.763154 
L 536.880293 391.670481 
L 539.936153 442.879697 
L 542.992012 444.293853 
L 546.047872 443.672502 
L 549.103732 437.395674 
L 552.159592 415.186624 
L 558.271311 389.925608 
L 561.327171 428.646763 
L 564.383031 409.836458 
L 567.438891 452.187607 
L 570.494751 407.816669 
L 573.55061 414.67127 
L 576.60647 413.253645 
L 582.71819 431.189992 
L 585.77405 421.130074 
L 588.829909 424.44896 
L 591.885769 360.212732 
L 594.941629 432.556015 
L 597.997489 440.875183 
L 601.053349 434.524807 
L 604.109208 426.378094 
L 607.165068 434.134652 
L 610.220928 444.028996 
L 613.276788 437.179988 
L 616.332648 407.600001 
L 619.388507 456.274524 
L 622.444367 447.302004 
L 625.500227 444.04062 
L 628.556087 452.488592 
L 631.611947 417.617364 
L 634.667806 417.603574 
L 637.723666 399.667171 
L 640.779526 410.233738 
L 643.835386 408.867499 
L 646.891246 417.113725 
L 649.947105 446.641615 
L 653.002965 396.730437 
L 656.058825 370.822717 
L 659.114685 436.512835 
L 662.170545 407.41597 
L 665.226405 390.985485 
L 668.282264 399.099671 
L 671.338124 454.302117 
L 674.393984 445.991561 
L 677.449844 450.258807 
L 680.505704 461.469047 
L 683.561563 441.427945 
L 686.617423 442.356626 
L 689.673283 449.084937 
L 692.729143 456.450835 
L 695.785003 439.876422 
L 698.840862 436.589302 
L 701.896722 454.674404 
L 704.952582 427.025279 
L 708.008442 436.497729 
L 711.064302 427.721683 
L 714.120161 412.454426 
L 717.176021 452.219819 
L 720.231881 447.121978 
L 723.287741 458.845041 
L 726.343601 413.967002 
L 729.39946 438.937071 
L 732.45532 444.984895 
L 735.51118 462.416715 
L 738.56704 431.989817 
L 741.6229 446.333345 
L 744.678759 461.44816 
L 747.734619 436.198688 
L 750.790479 434.245225 
L 753.846339 453.767014 
L 756.902199 453.665007 
L 759.958058 449.248196 
L 763.013918 449.736258 
L 766.069778 431.623531 
L 769.125638 460.206989 
L 772.181498 464.139927 
L 775.237357 450.890714 
L 781.349077 434.06437 
L 784.404937 419.239936 
L 787.460797 417.613366 
L 790.516656 427.085956 
L 793.572516 434.801964 
L 796.628376 408.649257 
L 799.684236 403.29175 
L 802.740096 392.668093 
L 805.795955 439.915209 
L 808.851815 438.432595 
L 811.907675 419.473069 
L 814.963535 432.481867 
L 818.019395 407.517976 
L 821.075254 436.915994 
L 824.131114 403.919446 
L 827.186974 440.06218 
L 830.242834 436.860972 
L 833.298694 458.971076 
L 836.354553 436.799897 
L 839.410413 458.624841 
L 842.466273 439.829186 
L 845.522133 443.707556 
L 848.577993 425.776975 
L 851.633852 432.973235 
L 854.689712 456.641552 
L 857.745572 444.534522 
L 857.745572 444.534522 
" clip-path="url(#p1f62da92af)" style="fill: none; stroke-dasharray: 7.4,3.2; stroke-dashoffset: 0; stroke: #ffa500; stroke-width: 2"/>
   </g>
   <g id="patch_3">
    <path d="M 58.791027 484.397187 
L 58.791027 40.877187 
" style="fill: none; stroke: #000000; stroke-width: 0.8; stroke-linejoin: miter; stroke-linecap: square"/>
   </g>
   <g id="patch_4">
    <path d="M 895.791027 484.397187 
L 895.791027 40.877187 
" style="fill: none; stroke: #000000; stroke-width: 0.8; stroke-linejoin: miter; stroke-linecap: square"/>
   </g>
   <g id="patch_5">
    <path d="M 58.791027 484.397187 
L 895.791027 484.397187 
" style="fill: none; stroke: #000000; stroke-width: 0.8; stroke-linejoin: miter; stroke-linecap: square"/>
   </g>
   <g id="patch_6">
    <path d="M 58.791027 40.877187 
L 895.791027 40.877187 
" style="fill: none; stroke: #000000; stroke-width: 0.8; stroke-linejoin: miter; stroke-linecap: square"/>
   </g>
   <g id="text_16">
    <!-- Temperature in K  two steps forward prediction: RMSES -->
    <g transform="translate(228.92337 20.877187) scale(0.18 -0.18)">
     <defs>
      <path id="DejaVuSans-54" d="M -19 4666 
L 3928 4666 
L 3928 4134 
L 2272 4134 
L 2272 0 
L 1638 0 
L 1638 4134 
L -19 4134 
L -19 4666 
z
" transform="scale(0.015625)"/>
      <path id="DejaVuSans-6d" d="M 3328 2828 
Q 3544 3216 3844 3400 
Q 4144 3584 4550 3584 
Q 5097 3584 5394 3201 
Q 5691 2819 5691 2113 
L 5691 0 
L 5113 0 
L 5113 2094 
Q 5113 2597 4934 2840 
Q 4756 3084 4391 3084 
Q 3944 3084 3684 2787 
Q 3425 2491 3425 1978 
L 3425 0 
L 2847 0 
L 2847 2094 
Q 2847 2600 2669 2842 
Q 2491 3084 2119 3084 
Q 1678 3084 1418 2786 
Q 1159 2488 1159 1978 
L 1159 0 
L 581 0 
L 581 3500 
L 1159 3500 
L 1159 2956 
Q 1356 3278 1631 3431 
Q 1906 3584 2284 3584 
Q 2666 3584 2933 3390 
Q 3200 3197 3328 2828 
z
" transform="scale(0.015625)"/>
      <path id="DejaVuSans-70" d="M 1159 525 
L 1159 -1331 
L 581 -1331 
L 581 3500 
L 1159 3500 
L 1159 2969 
Q 1341 3281 1617 3432 
Q 1894 3584 2278 3584 
Q 2916 3584 3314 3078 
Q 3713 2572 3713 1747 
Q 3713 922 3314 415 
Q 2916 -91 2278 -91 
Q 1894 -91 1617 61 
Q 1341 213 1159 525 
z
M 3116 1747 
Q 3116 2381 2855 2742 
Q 2594 3103 2138 3103 
Q 1681 3103 1420 2742 
Q 1159 2381 1159 1747 
Q 1159 1113 1420 752 
Q 1681 391 2138 391 
Q 2594 391 2855 752 
Q 3116 1113 3116 1747 
z
" transform="scale(0.015625)"/>
      <path id="DejaVuSans-69" d="M 603 3500 
L 1178 3500 
L 1178 0 
L 603 0 
L 603 3500 
z
M 603 4863 
L 1178 4863 
L 1178 4134 
L 603 4134 
L 603 4863 
z
" transform="scale(0.015625)"/>
      <path id="DejaVuSans-4b" d="M 628 4666 
L 1259 4666 
L 1259 2694 
L 3353 4666 
L 4166 4666 
L 1850 2491 
L 4331 0 
L 3500 0 
L 1259 2247 
L 1259 0 
L 628 0 
L 628 4666 
z
" transform="scale(0.015625)"/>
      <path id="DejaVuSans-77" d="M 269 3500 
L 844 3500 
L 1563 769 
L 2278 3500 
L 2956 3500 
L 3675 769 
L 4391 3500 
L 4966 3500 
L 4050 0 
L 3372 0 
L 2619 2869 
L 1863 0 
L 1184 0 
L 269 3500 
z
" transform="scale(0.015625)"/>
      <path id="DejaVuSans-66" d="M 2375 4863 
L 2375 4384 
L 1825 4384 
Q 1516 4384 1395 4259 
Q 1275 4134 1275 3809 
L 1275 3500 
L 2222 3500 
L 2222 3053 
L 1275 3053 
L 1275 0 
L 697 0 
L 697 3053 
L 147 3053 
L 147 3500 
L 697 3500 
L 697 3744 
Q 697 4328 969 4595 
Q 1241 4863 1831 4863 
L 2375 4863 
z
" transform="scale(0.015625)"/>
     </defs>
     <use xlink:href="#DejaVuSans-54"/>
     <use xlink:href="#DejaVuSans-65" transform="translate(44.083984 0)"/>
     <use xlink:href="#DejaVuSans-6d" transform="translate(105.607422 0)"/>
     <use xlink:href="#DejaVuSans-70" transform="translate(203.019531 0)"/>
     <use xlink:href="#DejaVuSans-65" transform="translate(266.496094 0)"/>
     <use xlink:href="#DejaVuSans-72" transform="translate(328.019531 0)"/>
     <use xlink:href="#DejaVuSans-61" transform="translate(369.132812 0)"/>
     <use xlink:href="#DejaVuSans-74" transform="translate(430.412109 0)"/>
     <use xlink:href="#DejaVuSans-75" transform="translate(469.621094 0)"/>
     <use xlink:href="#DejaVuSans-72" transform="translate(533 0)"/>
     <use xlink:href="#DejaVuSans-65" transform="translate(571.863281 0)"/>
     <use xlink:href="#DejaVuSans-20" transform="translate(633.386719 0)"/>
     <use xlink:href="#DejaVuSans-69" transform="translate(665.173828 0)"/>
     <use xlink:href="#DejaVuSans-6e" transform="translate(692.957031 0)"/>
     <use xlink:href="#DejaVuSans-20" transform="translate(756.335938 0)"/>
     <use xlink:href="#DejaVuSans-4b" transform="translate(788.123047 0)"/>
     <use xlink:href="#DejaVuSans-20" transform="translate(853.699219 0)"/>
     <use xlink:href="#DejaVuSans-20" transform="translate(885.486328 0)"/>
     <use xlink:href="#DejaVuSans-74" transform="translate(917.273438 0)"/>
     <use xlink:href="#DejaVuSans-77" transform="translate(956.482422 0)"/>
     <use xlink:href="#DejaVuSans-6f" transform="translate(1038.269531 0)"/>
     <use xlink:href="#DejaVuSans-20" transform="translate(1099.451172 0)"/>
     <use xlink:href="#DejaVuSans-73" transform="translate(1131.238281 0)"/>
     <use xlink:href="#DejaVuSans-74" transform="translate(1183.337891 0)"/>
     <use xlink:href="#DejaVuSans-65" transform="translate(1222.546875 0)"/>
     <use xlink:href="#DejaVuSans-70" transform="translate(1284.070312 0)"/>
     <use xlink:href="#DejaVuSans-73" transform="translate(1347.546875 0)"/>
     <use xlink:href="#DejaVuSans-20" transform="translate(1399.646484 0)"/>
     <use xlink:href="#DejaVuSans-66" transform="translate(1431.433594 0)"/>
     <use xlink:href="#DejaVuSans-6f" transform="translate(1466.638672 0)"/>
     <use xlink:href="#DejaVuSans-72" transform="translate(1527.820312 0)"/>
     <use xlink:href="#DejaVuSans-77" transform="translate(1568.933594 0)"/>
     <use xlink:href="#DejaVuSans-61" transform="translate(1650.720703 0)"/>
     <use xlink:href="#DejaVuSans-72" transform="translate(1712 0)"/>
     <use xlink:href="#DejaVuSans-64" transform="translate(1751.363281 0)"/>
     <use xlink:href="#DejaVuSans-20" transform="translate(1814.839844 0)"/>
     <use xlink:href="#DejaVuSans-70" transform="translate(1846.626953 0)"/>
     <use xlink:href="#DejaVuSans-72" transform="translate(1910.103516 0)"/>
     <use xlink:href="#DejaVuSans-65" transform="translate(1948.966797 0)"/>
     <use xlink:href="#DejaVuSans-64" transform="translate(2010.490234 0)"/>
     <use xlink:href="#DejaVuSans-69" transform="translate(2073.966797 0)"/>
     <use xlink:href="#DejaVuSans-63" transform="translate(2101.75 0)"/>
     <use xlink:href="#DejaVuSans-74" transform="translate(2156.730469 0)"/>
     <use xlink:href="#DejaVuSans-69" transform="translate(2195.939453 0)"/>
     <use xlink:href="#DejaVuSans-6f" transform="translate(2223.722656 0)"/>
     <use xlink:href="#DejaVuSans-6e" transform="translate(2284.904297 0)"/>
     <use xlink:href="#DejaVuSans-3a" transform="translate(2348.283203 0)"/>
     <use xlink:href="#DejaVuSans-20" transform="translate(2381.974609 0)"/>
     <use xlink:href="#DejaVuSans-52" transform="translate(2413.761719 0)"/>
     <use xlink:href="#DejaVuSans-4d" transform="translate(2483.244141 0)"/>
     <use xlink:href="#DejaVuSans-53" transform="translate(2569.523438 0)"/>
     <use xlink:href="#DejaVuSans-45" transform="translate(2633 0)"/>
     <use xlink:href="#DejaVuSans-53" transform="translate(2696.183594 0)"/>
    </g>
   </g>
   <g id="legend_1">
    <g id="text_17">
     <!-- Forecast Horizon -->
     <g transform="translate(1020.26087 65.634687) scale(0.16 -0.16)">
      <defs>
       <path id="DejaVuSans-48" d="M 628 4666 
L 1259 4666 
L 1259 2753 
L 3553 2753 
L 3553 4666 
L 4184 4666 
L 4184 0 
L 3553 0 
L 3553 2222 
L 1259 2222 
L 1259 0 
L 628 0 
L 628 4666 
z
" transform="scale(0.015625)"/>
       <path id="DejaVuSans-7a" d="M 353 3500 
L 3084 3500 
L 3084 2975 
L 922 459 
L 3084 459 
L 3084 0 
L 275 0 
L 275 525 
L 2438 3041 
L 353 3041 
L 353 3500 
z
" transform="scale(0.015625)"/>
      </defs>
      <use xlink:href="#DejaVuSans-46"/>
      <use xlink:href="#DejaVuSans-6f" transform="translate(53.894531 0)"/>
      <use xlink:href="#DejaVuSans-72" transform="translate(115.076172 0)"/>
      <use xlink:href="#DejaVuSans-65" transform="translate(153.939453 0)"/>
      <use xlink:href="#DejaVuSans-63" transform="translate(215.462891 0)"/>
      <use xlink:href="#DejaVuSans-61" transform="translate(270.443359 0)"/>
      <use xlink:href="#DejaVuSans-73" transform="translate(331.722656 0)"/>
      <use xlink:href="#DejaVuSans-74" transform="translate(383.822266 0)"/>
      <use xlink:href="#DejaVuSans-20" transform="translate(423.03125 0)"/>
      <use xlink:href="#DejaVuSans-48" transform="translate(454.818359 0)"/>
      <use xlink:href="#DejaVuSans-6f" transform="translate(530.013672 0)"/>
      <use xlink:href="#DejaVuSans-72" transform="translate(591.195312 0)"/>
      <use xlink:href="#DejaVuSans-69" transform="translate(632.308594 0)"/>
      <use xlink:href="#DejaVuSans-7a" transform="translate(660.091797 0)"/>
      <use xlink:href="#DejaVuSans-6f" transform="translate(712.582031 0)"/>
      <use xlink:href="#DejaVuSans-6e" transform="translate(773.763672 0)"/>
     </g>
    </g>
    <g id="line2d_18">
     <path d="M 950.241027 81.7 
L 964.241027 81.7 
L 978.241027 81.7 
" style="fill: none; stroke: #0000ff; stroke-width: 2; stroke-linecap: square"/>
    </g>
    <g id="text_18">
     <!-- Global RMSE (6h Forecast) -->
     <g transform="translate(989.441027 86.6) scale(0.14 -0.14)">
      <defs>
       <path id="DejaVuSans-47" d="M 3809 666 
L 3809 1919 
L 2778 1919 
L 2778 2438 
L 4434 2438 
L 4434 434 
Q 4069 175 3628 42 
Q 3188 -91 2688 -91 
Q 1594 -91 976 548 
Q 359 1188 359 2328 
Q 359 3472 976 4111 
Q 1594 4750 2688 4750 
Q 3144 4750 3555 4637 
Q 3966 4525 4313 4306 
L 4313 3634 
Q 3963 3931 3569 4081 
Q 3175 4231 2741 4231 
Q 1884 4231 1454 3753 
Q 1025 3275 1025 2328 
Q 1025 1384 1454 906 
Q 1884 428 2741 428 
Q 3075 428 3337 486 
Q 3600 544 3809 666 
z
" transform="scale(0.015625)"/>
       <path id="DejaVuSans-6c" d="M 603 4863 
L 1178 4863 
L 1178 0 
L 603 0 
L 603 4863 
z
" transform="scale(0.015625)"/>
       <path id="DejaVuSans-62" d="M 3116 1747 
Q 3116 2381 2855 2742 
Q 2594 3103 2138 3103 
Q 1681 3103 1420 2742 
Q 1159 2381 1159 1747 
Q 1159 1113 1420 752 
Q 1681 391 2138 391 
Q 2594 391 2855 752 
Q 3116 1113 3116 1747 
z
M 1159 2969 
Q 1341 3281 1617 3432 
Q 1894 3584 2278 3584 
Q 2916 3584 3314 3078 
Q 3713 2572 3713 1747 
Q 3713 922 3314 415 
Q 2916 -91 2278 -91 
Q 1894 -91 1617 61 
Q 1341 213 1159 525 
L 1159 0 
L 581 0 
L 581 4863 
L 1159 4863 
L 1159 2969 
z
" transform="scale(0.015625)"/>
       <path id="DejaVuSans-68" d="M 3513 2113 
L 3513 0 
L 2938 0 
L 2938 2094 
Q 2938 2591 2744 2837 
Q 2550 3084 2163 3084 
Q 1697 3084 1428 2787 
Q 1159 2491 1159 1978 
L 1159 0 
L 581 0 
L 581 4863 
L 1159 4863 
L 1159 2956 
Q 1366 3272 1645 3428 
Q 1925 3584 2291 3584 
Q 2894 3584 3203 3211 
Q 3513 2838 3513 2113 
z
" transform="scale(0.015625)"/>
      </defs>
      <use xlink:href="#DejaVuSans-47"/>
      <use xlink:href="#DejaVuSans-6c" transform="translate(77.490234 0)"/>
      <use xlink:href="#DejaVuSans-6f" transform="translate(105.273438 0)"/>
      <use xlink:href="#DejaVuSans-62" transform="translate(166.455078 0)"/>
      <use xlink:href="#DejaVuSans-61" transform="translate(229.931641 0)"/>
      <use xlink:href="#DejaVuSans-6c" transform="translate(291.210938 0)"/>
      <use xlink:href="#DejaVuSans-20" transform="translate(318.994141 0)"/>
      <use xlink:href="#DejaVuSans-52" transform="translate(350.78125 0)"/>
      <use xlink:href="#DejaVuSans-4d" transform="translate(420.263672 0)"/>
      <use xlink:href="#DejaVuSans-53" transform="translate(506.542969 0)"/>
      <use xlink:href="#DejaVuSans-45" transform="translate(570.019531 0)"/>
      <use xlink:href="#DejaVuSans-20" transform="translate(633.203125 0)"/>
      <use xlink:href="#DejaVuSans-28" transform="translate(664.990234 0)"/>
      <use xlink:href="#DejaVuSans-36" transform="translate(704.003906 0)"/>
      <use xlink:href="#DejaVuSans-68" transform="translate(767.626953 0)"/>
      <use xlink:href="#DejaVuSans-20" transform="translate(831.005859 0)"/>
      <use xlink:href="#DejaVuSans-46" transform="translate(862.792969 0)"/>
      <use xlink:href="#DejaVuSans-6f" transform="translate(916.6875 0)"/>
      <use xlink:href="#DejaVuSans-72" transform="translate(977.869141 0)"/>
      <use xlink:href="#DejaVuSans-65" transform="translate(1016.732422 0)"/>
      <use xlink:href="#DejaVuSans-63" transform="translate(1078.255859 0)"/>
      <use xlink:href="#DejaVuSans-61" transform="translate(1133.236328 0)"/>
      <use xlink:href="#DejaVuSans-73" transform="translate(1194.515625 0)"/>
      <use xlink:href="#DejaVuSans-74" transform="translate(1246.615234 0)"/>
      <use xlink:href="#DejaVuSans-29" transform="translate(1285.824219 0)"/>
     </g>
    </g>
    <g id="line2d_19">
     <path d="M 950.241027 102.249375 
L 964.241027 102.249375 
L 978.241027 102.249375 
" style="fill: none; stroke: #ffa500; stroke-width: 2; stroke-linecap: square"/>
    </g>
    <g id="text_19">
     <!-- South Africa RMSE (6h Forecast) -->
     <g transform="translate(989.441027 107.149375) scale(0.14 -0.14)">
      <defs>
       <path id="DejaVuSans-41" d="M 2188 4044 
L 1331 1722 
L 3047 1722 
L 2188 4044 
z
M 1831 4666 
L 2547 4666 
L 4325 0 
L 3669 0 
L 3244 1197 
L 1141 1197 
L 716 0 
L 50 0 
L 1831 4666 
z
" transform="scale(0.015625)"/>
      </defs>
      <use xlink:href="#DejaVuSans-53"/>
      <use xlink:href="#DejaVuSans-6f" transform="translate(63.476562 0)"/>
      <use xlink:href="#DejaVuSans-75" transform="translate(124.658203 0)"/>
      <use xlink:href="#DejaVuSans-74" transform="translate(188.037109 0)"/>
      <use xlink:href="#DejaVuSans-68" transform="translate(227.246094 0)"/>
      <use xlink:href="#DejaVuSans-20" transform="translate(290.625 0)"/>
      <use xlink:href="#DejaVuSans-41" transform="translate(322.412109 0)"/>
      <use xlink:href="#DejaVuSans-66" transform="translate(387.195312 0)"/>
      <use xlink:href="#DejaVuSans-72" transform="translate(422.400391 0)"/>
      <use xlink:href="#DejaVuSans-69" transform="translate(463.513672 0)"/>
      <use xlink:href="#DejaVuSans-63" transform="translate(491.296875 0)"/>
      <use xlink:href="#DejaVuSans-61" transform="translate(546.277344 0)"/>
      <use xlink:href="#DejaVuSans-20" transform="translate(607.556641 0)"/>
      <use xlink:href="#DejaVuSans-52" transform="translate(639.34375 0)"/>
      <use xlink:href="#DejaVuSans-4d" transform="translate(708.826172 0)"/>
      <use xlink:href="#DejaVuSans-53" transform="translate(795.105469 0)"/>
      <use xlink:href="#DejaVuSans-45" transform="translate(858.582031 0)"/>
      <use xlink:href="#DejaVuSans-20" transform="translate(921.765625 0)"/>
      <use xlink:href="#DejaVuSans-28" transform="translate(953.552734 0)"/>
      <use xlink:href="#DejaVuSans-36" transform="translate(992.566406 0)"/>
      <use xlink:href="#DejaVuSans-68" transform="translate(1056.189453 0)"/>
      <use xlink:href="#DejaVuSans-20" transform="translate(1119.568359 0)"/>
      <use xlink:href="#DejaVuSans-46" transform="translate(1151.355469 0)"/>
      <use xlink:href="#DejaVuSans-6f" transform="translate(1205.25 0)"/>
      <use xlink:href="#DejaVuSans-72" transform="translate(1266.431641 0)"/>
      <use xlink:href="#DejaVuSans-65" transform="translate(1305.294922 0)"/>
      <use xlink:href="#DejaVuSans-63" transform="translate(1366.818359 0)"/>
      <use xlink:href="#DejaVuSans-61" transform="translate(1421.798828 0)"/>
      <use xlink:href="#DejaVuSans-73" transform="translate(1483.078125 0)"/>
      <use xlink:href="#DejaVuSans-74" transform="translate(1535.177734 0)"/>
      <use xlink:href="#DejaVuSans-29" transform="translate(1574.386719 0)"/>
     </g>
    </g>
    <g id="line2d_20">
     <path d="M 950.241027 122.79875 
L 964.241027 122.79875 
L 978.241027 122.79875 
" style="fill: none; stroke-dasharray: 7.4,3.2; stroke-dashoffset: 0; stroke: #0000ff; stroke-width: 2"/>
    </g>
    <g id="text_20">
     <!-- Global RMSE (12h Forecast) -->
     <g transform="translate(989.441027 127.69875) scale(0.14 -0.14)">
      <use xlink:href="#DejaVuSans-47"/>
      <use xlink:href="#DejaVuSans-6c" transform="translate(77.490234 0)"/>
      <use xlink:href="#DejaVuSans-6f" transform="translate(105.273438 0)"/>
      <use xlink:href="#DejaVuSans-62" transform="translate(166.455078 0)"/>
      <use xlink:href="#DejaVuSans-61" transform="translate(229.931641 0)"/>
      <use xlink:href="#DejaVuSans-6c" transform="translate(291.210938 0)"/>
      <use xlink:href="#DejaVuSans-20" transform="translate(318.994141 0)"/>
      <use xlink:href="#DejaVuSans-52" transform="translate(350.78125 0)"/>
      <use xlink:href="#DejaVuSans-4d" transform="translate(420.263672 0)"/>
      <use xlink:href="#DejaVuSans-53" transform="translate(506.542969 0)"/>
      <use xlink:href="#DejaVuSans-45" transform="translate(570.019531 0)"/>
      <use xlink:href="#DejaVuSans-20" transform="translate(633.203125 0)"/>
      <use xlink:href="#DejaVuSans-28" transform="translate(664.990234 0)"/>
      <use xlink:href="#DejaVuSans-31" transform="translate(704.003906 0)"/>
      <use xlink:href="#DejaVuSans-32" transform="translate(767.626953 0)"/>
      <use xlink:href="#DejaVuSans-68" transform="translate(831.25 0)"/>
      <use xlink:href="#DejaVuSans-20" transform="translate(894.628906 0)"/>
      <use xlink:href="#DejaVuSans-46" transform="translate(926.416016 0)"/>
      <use xlink:href="#DejaVuSans-6f" transform="translate(980.310547 0)"/>
      <use xlink:href="#DejaVuSans-72" transform="translate(1041.492188 0)"/>
      <use xlink:href="#DejaVuSans-65" transform="translate(1080.355469 0)"/>
      <use xlink:href="#DejaVuSans-63" transform="translate(1141.878906 0)"/>
      <use xlink:href="#DejaVuSans-61" transform="translate(1196.859375 0)"/>
      <use xlink:href="#DejaVuSans-73" transform="translate(1258.138672 0)"/>
      <use xlink:href="#DejaVuSans-74" transform="translate(1310.238281 0)"/>
      <use xlink:href="#DejaVuSans-29" transform="translate(1349.447266 0)"/>
     </g>
    </g>
    <g id="line2d_21">
     <path d="M 950.241027 143.348125 
L 964.241027 143.348125 
L 978.241027 143.348125 
" style="fill: none; stroke-dasharray: 7.4,3.2; stroke-dashoffset: 0; stroke: #ffa500; stroke-width: 2"/>
    </g>
    <g id="text_21">
     <!-- South Africa RMSE (12h Forecast) -->
     <g transform="translate(989.441027 148.248125) scale(0.14 -0.14)">
      <use xlink:href="#DejaVuSans-53"/>
      <use xlink:href="#DejaVuSans-6f" transform="translate(63.476562 0)"/>
      <use xlink:href="#DejaVuSans-75" transform="translate(124.658203 0)"/>
      <use xlink:href="#DejaVuSans-74" transform="translate(188.037109 0)"/>
      <use xlink:href="#DejaVuSans-68" transform="translate(227.246094 0)"/>
      <use xlink:href="#DejaVuSans-20" transform="translate(290.625 0)"/>
      <use xlink:href="#DejaVuSans-41" transform="translate(322.412109 0)"/>
      <use xlink:href="#DejaVuSans-66" transform="translate(387.195312 0)"/>
      <use xlink:href="#DejaVuSans-72" transform="translate(422.400391 0)"/>
      <use xlink:href="#DejaVuSans-69" transform="translate(463.513672 0)"/>
      <use xlink:href="#DejaVuSans-63" transform="translate(491.296875 0)"/>
      <use xlink:href="#DejaVuSans-61" transform="translate(546.277344 0)"/>
      <use xlink:href="#DejaVuSans-20" transform="translate(607.556641 0)"/>
      <use xlink:href="#DejaVuSans-52" transform="translate(639.34375 0)"/>
      <use xlink:href="#DejaVuSans-4d" transform="translate(708.826172 0)"/>
      <use xlink:href="#DejaVuSans-53" transform="translate(795.105469 0)"/>
      <use xlink:href="#DejaVuSans-45" transform="translate(858.582031 0)"/>
      <use xlink:href="#DejaVuSans-20" transform="translate(921.765625 0)"/>
      <use xlink:href="#DejaVuSans-28" transform="translate(953.552734 0)"/>
      <use xlink:href="#DejaVuSans-31" transform="translate(992.566406 0)"/>
      <use xlink:href="#DejaVuSans-32" transform="translate(1056.189453 0)"/>
      <use xlink:href="#DejaVuSans-68" transform="translate(1119.8125 0)"/>
      <use xlink:href="#DejaVuSans-20" transform="translate(1183.191406 0)"/>
      <use xlink:href="#DejaVuSans-46" transform="translate(1214.978516 0)"/>
      <use xlink:href="#DejaVuSans-6f" transform="translate(1268.873047 0)"/>
      <use xlink:href="#DejaVuSans-72" transform="translate(1330.054688 0)"/>
      <use xlink:href="#DejaVuSans-65" transform="translate(1368.917969 0)"/>
      <use xlink:href="#DejaVuSans-63" transform="translate(1430.441406 0)"/>
      <use xlink:href="#DejaVuSans-61" transform="translate(1485.421875 0)"/>
      <use xlink:href="#DejaVuSans-73" transform="translate(1546.701172 0)"/>
      <use xlink:href="#DejaVuSans-74" transform="translate(1598.800781 0)"/>
      <use xlink:href="#DejaVuSans-29" transform="translate(1638.009766 0)"/>
     </g>
    </g>
   </g>
  </g>
 </g>
 <defs>
  <clipPath id="p1f62da92af">
   <rect x="58.791027" y="40.877187" width="837" height="443.52"/>
  </clipPath>
 </defs>
</svg>
