<?xml version="1.0" encoding="utf-8" standalone="no"?>
<!DOCTYPE svg PUBLIC "-//W3C//DTD SVG 1.1//EN"
  "http://www.w3.org/Graphics/SVG/1.1/DTD/svg11.dtd">
<svg xmlns:xlink="http://www.w3.org/1999/xlink" width="1237.023214pt" height="575.421502pt" viewBox="0 0 1237.023214 575.421502" xmlns="http://www.w3.org/2000/svg" version="1.1">
 <metadata>
  <rdf:RDF xmlns:dc="http://purl.org/dc/elements/1.1/" xmlns:cc="http://creativecommons.org/ns#" xmlns:rdf="http://www.w3.org/1999/02/22-rdf-syntax-ns#">
   <cc:Work>
    <dc:type rdf:resource="http://purl.org/dc/dcmitype/StillImage"/>
    <dc:date>2025-02-18T09:44:30.373685</dc:date>
    <dc:format>image/svg+xml</dc:format>
    <dc:creator>
     <cc:Agent>
      <dc:title>Matplotlib v3.10.0, https://matplotlib.org/</dc:title>
     </cc:Agent>
    </dc:creator>
   </cc:Work>
  </rdf:RDF>
 </metadata>
 <defs>
  <style type="text/css">*{stroke-linejoin: round; stroke-linecap: butt}</style>
 </defs>
 <g id="figure_1">
  <g id="patch_1">
   <path d="M 0 575.421502 
L 1237.023214 575.421502 
L 1237.023214 0 
L 0 0 
z
" style="fill: #ffffff"/>
  </g>
  <g id="axes_1">
   <g id="patch_2">
    <path d="M 58.791027 484.397187 
L 895.791027 484.397187 
L 895.791027 40.877187 
L 58.791027 40.877187 
z
" style="fill: #ffffff"/>
   </g>
   <g id="matplotlib.axis_1">
    <g id="xtick_1">
     <g id="line2d_1">
      <defs>
       <path id="mbadfbaafc5" d="M 0 0 
L 0 3.5 
" style="stroke: #000000; stroke-width: 0.8"/>
      </defs>
      <g>
       <use xlink:href="#mbadfbaafc5" x="96.836481" y="484.397187" style="stroke: #000000; stroke-width: 0.8"/>
      </g>
     </g>
     <g id="text_1">
      <!-- 2022-01-01 (12:00) -->
      <g transform="translate(10.999219 546.93544) rotate(-30) scale(0.1 -0.1)">
       <defs>
        <path id="DejaVuSans-32" d="M 1228 531 
L 3431 531 
L 3431 0 
L 469 0 
L 469 531 
Q 828 903 1448 1529 
Q 2069 2156 2228 2338 
Q 2531 2678 2651 2914 
Q 2772 3150 2772 3378 
Q 2772 3750 2511 3984 
Q 2250 4219 1831 4219 
Q 1534 4219 1204 4116 
Q 875 4013 500 3803 
L 500 4441 
Q 881 4594 1212 4672 
Q 1544 4750 1819 4750 
Q 2544 4750 2975 4387 
Q 3406 4025 3406 3419 
Q 3406 3131 3298 2873 
Q 3191 2616 2906 2266 
Q 2828 2175 2409 1742 
Q 1991 1309 1228 531 
z
" transform="scale(0.015625)"/>
        <path id="DejaVuSans-30" d="M 2034 4250 
Q 1547 4250 1301 3770 
Q 1056 3291 1056 2328 
Q 1056 1369 1301 889 
Q 1547 409 2034 409 
Q 2525 409 2770 889 
Q 3016 1369 3016 2328 
Q 3016 3291 2770 3770 
Q 2525 4250 2034 4250 
z
M 2034 4750 
Q 2819 4750 3233 4129 
Q 3647 3509 3647 2328 
Q 3647 1150 3233 529 
Q 2819 -91 2034 -91 
Q 1250 -91 836 529 
Q 422 1150 422 2328 
Q 422 3509 836 4129 
Q 1250 4750 2034 4750 
z
" transform="scale(0.015625)"/>
        <path id="DejaVuSans-2d" d="M 313 2009 
L 1997 2009 
L 1997 1497 
L 313 1497 
L 313 2009 
z
" transform="scale(0.015625)"/>
        <path id="DejaVuSans-31" d="M 794 531 
L 1825 531 
L 1825 4091 
L 703 3866 
L 703 4441 
L 1819 4666 
L 2450 4666 
L 2450 531 
L 3481 531 
L 3481 0 
L 794 0 
L 794 531 
z
" transform="scale(0.015625)"/>
        <path id="DejaVuSans-20" transform="scale(0.015625)"/>
        <path id="DejaVuSans-28" d="M 1984 4856 
Q 1566 4138 1362 3434 
Q 1159 2731 1159 2009 
Q 1159 1288 1364 580 
Q 1569 -128 1984 -844 
L 1484 -844 
Q 1016 -109 783 600 
Q 550 1309 550 2009 
Q 550 2706 781 3412 
Q 1013 4119 1484 4856 
L 1984 4856 
z
" transform="scale(0.015625)"/>
        <path id="DejaVuSans-3a" d="M 750 794 
L 1409 794 
L 1409 0 
L 750 0 
L 750 794 
z
M 750 3309 
L 1409 3309 
L 1409 2516 
L 750 2516 
L 750 3309 
z
" transform="scale(0.015625)"/>
        <path id="DejaVuSans-29" d="M 513 4856 
L 1013 4856 
Q 1481 4119 1714 3412 
Q 1947 2706 1947 2009 
Q 1947 1309 1714 600 
Q 1481 -109 1013 -844 
L 513 -844 
Q 928 -128 1133 580 
Q 1338 1288 1338 2009 
Q 1338 2731 1133 3434 
Q 928 4138 513 4856 
z
" transform="scale(0.015625)"/>
       </defs>
       <use xlink:href="#DejaVuSans-32"/>
       <use xlink:href="#DejaVuSans-30" transform="translate(63.623047 0)"/>
       <use xlink:href="#DejaVuSans-32" transform="translate(127.246094 0)"/>
       <use xlink:href="#DejaVuSans-32" transform="translate(190.869141 0)"/>
       <use xlink:href="#DejaVuSans-2d" transform="translate(254.492188 0)"/>
       <use xlink:href="#DejaVuSans-30" transform="translate(290.576172 0)"/>
       <use xlink:href="#DejaVuSans-31" transform="translate(354.199219 0)"/>
       <use xlink:href="#DejaVuSans-2d" transform="translate(417.822266 0)"/>
       <use xlink:href="#DejaVuSans-30" transform="translate(453.90625 0)"/>
       <use xlink:href="#DejaVuSans-31" transform="translate(517.529297 0)"/>
       <use xlink:href="#DejaVuSans-20" transform="translate(581.152344 0)"/>
       <use xlink:href="#DejaVuSans-28" transform="translate(612.939453 0)"/>
       <use xlink:href="#DejaVuSans-31" transform="translate(651.953125 0)"/>
       <use xlink:href="#DejaVuSans-32" transform="translate(715.576172 0)"/>
       <use xlink:href="#DejaVuSans-3a" transform="translate(779.199219 0)"/>
       <use xlink:href="#DejaVuSans-30" transform="translate(812.890625 0)"/>
       <use xlink:href="#DejaVuSans-30" transform="translate(876.513672 0)"/>
       <use xlink:href="#DejaVuSans-29" transform="translate(940.136719 0)"/>
      </g>
     </g>
    </g>
    <g id="xtick_2">
     <g id="line2d_2">
      <g>
       <use xlink:href="#mbadfbaafc5" x="246.573612" y="484.397187" style="stroke: #000000; stroke-width: 0.8"/>
      </g>
     </g>
     <g id="text_2">
      <!-- 2022-03-16 (00:00) -->
      <g transform="translate(160.736349 546.93544) rotate(-30) scale(0.1 -0.1)">
       <defs>
        <path id="DejaVuSans-33" d="M 2597 2516 
Q 3050 2419 3304 2112 
Q 3559 1806 3559 1356 
Q 3559 666 3084 287 
Q 2609 -91 1734 -91 
Q 1441 -91 1130 -33 
Q 819 25 488 141 
L 488 750 
Q 750 597 1062 519 
Q 1375 441 1716 441 
Q 2309 441 2620 675 
Q 2931 909 2931 1356 
Q 2931 1769 2642 2001 
Q 2353 2234 1838 2234 
L 1294 2234 
L 1294 2753 
L 1863 2753 
Q 2328 2753 2575 2939 
Q 2822 3125 2822 3475 
Q 2822 3834 2567 4026 
Q 2313 4219 1838 4219 
Q 1578 4219 1281 4162 
Q 984 4106 628 3988 
L 628 4550 
Q 988 4650 1302 4700 
Q 1616 4750 1894 4750 
Q 2613 4750 3031 4423 
Q 3450 4097 3450 3541 
Q 3450 3153 3228 2886 
Q 3006 2619 2597 2516 
z
" transform="scale(0.015625)"/>
        <path id="DejaVuSans-36" d="M 2113 2584 
Q 1688 2584 1439 2293 
Q 1191 2003 1191 1497 
Q 1191 994 1439 701 
Q 1688 409 2113 409 
Q 2538 409 2786 701 
Q 3034 994 3034 1497 
Q 3034 2003 2786 2293 
Q 2538 2584 2113 2584 
z
M 3366 4563 
L 3366 3988 
Q 3128 4100 2886 4159 
Q 2644 4219 2406 4219 
Q 1781 4219 1451 3797 
Q 1122 3375 1075 2522 
Q 1259 2794 1537 2939 
Q 1816 3084 2150 3084 
Q 2853 3084 3261 2657 
Q 3669 2231 3669 1497 
Q 3669 778 3244 343 
Q 2819 -91 2113 -91 
Q 1303 -91 875 529 
Q 447 1150 447 2328 
Q 447 3434 972 4092 
Q 1497 4750 2381 4750 
Q 2619 4750 2861 4703 
Q 3103 4656 3366 4563 
z
" transform="scale(0.015625)"/>
       </defs>
       <use xlink:href="#DejaVuSans-32"/>
       <use xlink:href="#DejaVuSans-30" transform="translate(63.623047 0)"/>
       <use xlink:href="#DejaVuSans-32" transform="translate(127.246094 0)"/>
       <use xlink:href="#DejaVuSans-32" transform="translate(190.869141 0)"/>
       <use xlink:href="#DejaVuSans-2d" transform="translate(254.492188 0)"/>
       <use xlink:href="#DejaVuSans-30" transform="translate(290.576172 0)"/>
       <use xlink:href="#DejaVuSans-33" transform="translate(354.199219 0)"/>
       <use xlink:href="#DejaVuSans-2d" transform="translate(417.822266 0)"/>
       <use xlink:href="#DejaVuSans-31" transform="translate(453.90625 0)"/>
       <use xlink:href="#DejaVuSans-36" transform="translate(517.529297 0)"/>
       <use xlink:href="#DejaVuSans-20" transform="translate(581.152344 0)"/>
       <use xlink:href="#DejaVuSans-28" transform="translate(612.939453 0)"/>
       <use xlink:href="#DejaVuSans-30" transform="translate(651.953125 0)"/>
       <use xlink:href="#DejaVuSans-30" transform="translate(715.576172 0)"/>
       <use xlink:href="#DejaVuSans-3a" transform="translate(779.199219 0)"/>
       <use xlink:href="#DejaVuSans-30" transform="translate(812.890625 0)"/>
       <use xlink:href="#DejaVuSans-30" transform="translate(876.513672 0)"/>
       <use xlink:href="#DejaVuSans-29" transform="translate(940.136719 0)"/>
      </g>
     </g>
    </g>
    <g id="xtick_3">
     <g id="line2d_3">
      <g>
       <use xlink:href="#mbadfbaafc5" x="399.366602" y="484.397187" style="stroke: #000000; stroke-width: 0.8"/>
      </g>
     </g>
     <g id="text_3">
      <!-- 2022-05-30 (00:00) -->
      <g transform="translate(313.529339 546.93544) rotate(-30) scale(0.1 -0.1)">
       <defs>
        <path id="DejaVuSans-35" d="M 691 4666 
L 3169 4666 
L 3169 4134 
L 1269 4134 
L 1269 2991 
Q 1406 3038 1543 3061 
Q 1681 3084 1819 3084 
Q 2600 3084 3056 2656 
Q 3513 2228 3513 1497 
Q 3513 744 3044 326 
Q 2575 -91 1722 -91 
Q 1428 -91 1123 -41 
Q 819 9 494 109 
L 494 744 
Q 775 591 1075 516 
Q 1375 441 1709 441 
Q 2250 441 2565 725 
Q 2881 1009 2881 1497 
Q 2881 1984 2565 2268 
Q 2250 2553 1709 2553 
Q 1456 2553 1204 2497 
Q 953 2441 691 2322 
L 691 4666 
z
" transform="scale(0.015625)"/>
       </defs>
       <use xlink:href="#DejaVuSans-32"/>
       <use xlink:href="#DejaVuSans-30" transform="translate(63.623047 0)"/>
       <use xlink:href="#DejaVuSans-32" transform="translate(127.246094 0)"/>
       <use xlink:href="#DejaVuSans-32" transform="translate(190.869141 0)"/>
       <use xlink:href="#DejaVuSans-2d" transform="translate(254.492188 0)"/>
       <use xlink:href="#DejaVuSans-30" transform="translate(290.576172 0)"/>
       <use xlink:href="#DejaVuSans-35" transform="translate(354.199219 0)"/>
       <use xlink:href="#DejaVuSans-2d" transform="translate(417.822266 0)"/>
       <use xlink:href="#DejaVuSans-33" transform="translate(453.90625 0)"/>
       <use xlink:href="#DejaVuSans-30" transform="translate(517.529297 0)"/>
       <use xlink:href="#DejaVuSans-20" transform="translate(581.152344 0)"/>
       <use xlink:href="#DejaVuSans-28" transform="translate(612.939453 0)"/>
       <use xlink:href="#DejaVuSans-30" transform="translate(651.953125 0)"/>
       <use xlink:href="#DejaVuSans-30" transform="translate(715.576172 0)"/>
       <use xlink:href="#DejaVuSans-3a" transform="translate(779.199219 0)"/>
       <use xlink:href="#DejaVuSans-30" transform="translate(812.890625 0)"/>
       <use xlink:href="#DejaVuSans-30" transform="translate(876.513672 0)"/>
       <use xlink:href="#DejaVuSans-29" transform="translate(940.136719 0)"/>
      </g>
     </g>
    </g>
    <g id="xtick_4">
     <g id="line2d_4">
      <g>
       <use xlink:href="#mbadfbaafc5" x="552.159592" y="484.397187" style="stroke: #000000; stroke-width: 0.8"/>
      </g>
     </g>
     <g id="text_4">
      <!-- 2022-08-13 (00:00) -->
      <g transform="translate(466.322329 546.93544) rotate(-30) scale(0.1 -0.1)">
       <defs>
        <path id="DejaVuSans-38" d="M 2034 2216 
Q 1584 2216 1326 1975 
Q 1069 1734 1069 1313 
Q 1069 891 1326 650 
Q 1584 409 2034 409 
Q 2484 409 2743 651 
Q 3003 894 3003 1313 
Q 3003 1734 2745 1975 
Q 2488 2216 2034 2216 
z
M 1403 2484 
Q 997 2584 770 2862 
Q 544 3141 544 3541 
Q 544 4100 942 4425 
Q 1341 4750 2034 4750 
Q 2731 4750 3128 4425 
Q 3525 4100 3525 3541 
Q 3525 3141 3298 2862 
Q 3072 2584 2669 2484 
Q 3125 2378 3379 2068 
Q 3634 1759 3634 1313 
Q 3634 634 3220 271 
Q 2806 -91 2034 -91 
Q 1263 -91 848 271 
Q 434 634 434 1313 
Q 434 1759 690 2068 
Q 947 2378 1403 2484 
z
M 1172 3481 
Q 1172 3119 1398 2916 
Q 1625 2713 2034 2713 
Q 2441 2713 2670 2916 
Q 2900 3119 2900 3481 
Q 2900 3844 2670 4047 
Q 2441 4250 2034 4250 
Q 1625 4250 1398 4047 
Q 1172 3844 1172 3481 
z
" transform="scale(0.015625)"/>
       </defs>
       <use xlink:href="#DejaVuSans-32"/>
       <use xlink:href="#DejaVuSans-30" transform="translate(63.623047 0)"/>
       <use xlink:href="#DejaVuSans-32" transform="translate(127.246094 0)"/>
       <use xlink:href="#DejaVuSans-32" transform="translate(190.869141 0)"/>
       <use xlink:href="#DejaVuSans-2d" transform="translate(254.492188 0)"/>
       <use xlink:href="#DejaVuSans-30" transform="translate(290.576172 0)"/>
       <use xlink:href="#DejaVuSans-38" transform="translate(354.199219 0)"/>
       <use xlink:href="#DejaVuSans-2d" transform="translate(417.822266 0)"/>
       <use xlink:href="#DejaVuSans-31" transform="translate(453.90625 0)"/>
       <use xlink:href="#DejaVuSans-33" transform="translate(517.529297 0)"/>
       <use xlink:href="#DejaVuSans-20" transform="translate(581.152344 0)"/>
       <use xlink:href="#DejaVuSans-28" transform="translate(612.939453 0)"/>
       <use xlink:href="#DejaVuSans-30" transform="translate(651.953125 0)"/>
       <use xlink:href="#DejaVuSans-30" transform="translate(715.576172 0)"/>
       <use xlink:href="#DejaVuSans-3a" transform="translate(779.199219 0)"/>
       <use xlink:href="#DejaVuSans-30" transform="translate(812.890625 0)"/>
       <use xlink:href="#DejaVuSans-30" transform="translate(876.513672 0)"/>
       <use xlink:href="#DejaVuSans-29" transform="translate(940.136719 0)"/>
      </g>
     </g>
    </g>
    <g id="xtick_5">
     <g id="line2d_5">
      <g>
       <use xlink:href="#mbadfbaafc5" x="704.952582" y="484.397187" style="stroke: #000000; stroke-width: 0.8"/>
      </g>
     </g>
     <g id="text_5">
      <!-- 2022-10-27 (00:00) -->
      <g transform="translate(619.11532 546.93544) rotate(-30) scale(0.1 -0.1)">
       <defs>
        <path id="DejaVuSans-37" d="M 525 4666 
L 3525 4666 
L 3525 4397 
L 1831 0 
L 1172 0 
L 2766 4134 
L 525 4134 
L 525 4666 
z
" transform="scale(0.015625)"/>
       </defs>
       <use xlink:href="#DejaVuSans-32"/>
       <use xlink:href="#DejaVuSans-30" transform="translate(63.623047 0)"/>
       <use xlink:href="#DejaVuSans-32" transform="translate(127.246094 0)"/>
       <use xlink:href="#DejaVuSans-32" transform="translate(190.869141 0)"/>
       <use xlink:href="#DejaVuSans-2d" transform="translate(254.492188 0)"/>
       <use xlink:href="#DejaVuSans-31" transform="translate(290.576172 0)"/>
       <use xlink:href="#DejaVuSans-30" transform="translate(354.199219 0)"/>
       <use xlink:href="#DejaVuSans-2d" transform="translate(417.822266 0)"/>
       <use xlink:href="#DejaVuSans-32" transform="translate(453.90625 0)"/>
       <use xlink:href="#DejaVuSans-37" transform="translate(517.529297 0)"/>
       <use xlink:href="#DejaVuSans-20" transform="translate(581.152344 0)"/>
       <use xlink:href="#DejaVuSans-28" transform="translate(612.939453 0)"/>
       <use xlink:href="#DejaVuSans-30" transform="translate(651.953125 0)"/>
       <use xlink:href="#DejaVuSans-30" transform="translate(715.576172 0)"/>
       <use xlink:href="#DejaVuSans-3a" transform="translate(779.199219 0)"/>
       <use xlink:href="#DejaVuSans-30" transform="translate(812.890625 0)"/>
       <use xlink:href="#DejaVuSans-30" transform="translate(876.513672 0)"/>
       <use xlink:href="#DejaVuSans-29" transform="translate(940.136719 0)"/>
      </g>
     </g>
    </g>
    <g id="xtick_6">
     <g id="line2d_6">
      <g>
       <use xlink:href="#mbadfbaafc5" x="857.745572" y="484.397187" style="stroke: #000000; stroke-width: 0.8"/>
      </g>
     </g>
     <g id="text_6">
      <!-- 2023-01-10 (00:00) -->
      <g transform="translate(771.90831 546.93544) rotate(-30) scale(0.1 -0.1)">
       <use xlink:href="#DejaVuSans-32"/>
       <use xlink:href="#DejaVuSans-30" transform="translate(63.623047 0)"/>
       <use xlink:href="#DejaVuSans-32" transform="translate(127.246094 0)"/>
       <use xlink:href="#DejaVuSans-33" transform="translate(190.869141 0)"/>
       <use xlink:href="#DejaVuSans-2d" transform="translate(254.492188 0)"/>
       <use xlink:href="#DejaVuSans-30" transform="translate(290.576172 0)"/>
       <use xlink:href="#DejaVuSans-31" transform="translate(354.199219 0)"/>
       <use xlink:href="#DejaVuSans-2d" transform="translate(417.822266 0)"/>
       <use xlink:href="#DejaVuSans-31" transform="translate(453.90625 0)"/>
       <use xlink:href="#DejaVuSans-30" transform="translate(517.529297 0)"/>
       <use xlink:href="#DejaVuSans-20" transform="translate(581.152344 0)"/>
       <use xlink:href="#DejaVuSans-28" transform="translate(612.939453 0)"/>
       <use xlink:href="#DejaVuSans-30" transform="translate(651.953125 0)"/>
       <use xlink:href="#DejaVuSans-30" transform="translate(715.576172 0)"/>
       <use xlink:href="#DejaVuSans-3a" transform="translate(779.199219 0)"/>
       <use xlink:href="#DejaVuSans-30" transform="translate(812.890625 0)"/>
       <use xlink:href="#DejaVuSans-30" transform="translate(876.513672 0)"/>
       <use xlink:href="#DejaVuSans-29" transform="translate(940.136719 0)"/>
      </g>
     </g>
    </g>
    <g id="text_7">
     <!-- Forecast Date -->
     <g transform="translate(421.784777 564.894002) scale(0.16 -0.16)">
      <defs>
       <path id="DejaVuSans-46" d="M 628 4666 
L 3309 4666 
L 3309 4134 
L 1259 4134 
L 1259 2759 
L 3109 2759 
L 3109 2228 
L 1259 2228 
L 1259 0 
L 628 0 
L 628 4666 
z
" transform="scale(0.015625)"/>
       <path id="DejaVuSans-6f" d="M 1959 3097 
Q 1497 3097 1228 2736 
Q 959 2375 959 1747 
Q 959 1119 1226 758 
Q 1494 397 1959 397 
Q 2419 397 2687 759 
Q 2956 1122 2956 1747 
Q 2956 2369 2687 2733 
Q 2419 3097 1959 3097 
z
M 1959 3584 
Q 2709 3584 3137 3096 
Q 3566 2609 3566 1747 
Q 3566 888 3137 398 
Q 2709 -91 1959 -91 
Q 1206 -91 779 398 
Q 353 888 353 1747 
Q 353 2609 779 3096 
Q 1206 3584 1959 3584 
z
" transform="scale(0.015625)"/>
       <path id="DejaVuSans-72" d="M 2631 2963 
Q 2534 3019 2420 3045 
Q 2306 3072 2169 3072 
Q 1681 3072 1420 2755 
Q 1159 2438 1159 1844 
L 1159 0 
L 581 0 
L 581 3500 
L 1159 3500 
L 1159 2956 
Q 1341 3275 1631 3429 
Q 1922 3584 2338 3584 
Q 2397 3584 2469 3576 
Q 2541 3569 2628 3553 
L 2631 2963 
z
" transform="scale(0.015625)"/>
       <path id="DejaVuSans-65" d="M 3597 1894 
L 3597 1613 
L 953 1613 
Q 991 1019 1311 708 
Q 1631 397 2203 397 
Q 2534 397 2845 478 
Q 3156 559 3463 722 
L 3463 178 
Q 3153 47 2828 -22 
Q 2503 -91 2169 -91 
Q 1331 -91 842 396 
Q 353 884 353 1716 
Q 353 2575 817 3079 
Q 1281 3584 2069 3584 
Q 2775 3584 3186 3129 
Q 3597 2675 3597 1894 
z
M 3022 2063 
Q 3016 2534 2758 2815 
Q 2500 3097 2075 3097 
Q 1594 3097 1305 2825 
Q 1016 2553 972 2059 
L 3022 2063 
z
" transform="scale(0.015625)"/>
       <path id="DejaVuSans-63" d="M 3122 3366 
L 3122 2828 
Q 2878 2963 2633 3030 
Q 2388 3097 2138 3097 
Q 1578 3097 1268 2742 
Q 959 2388 959 1747 
Q 959 1106 1268 751 
Q 1578 397 2138 397 
Q 2388 397 2633 464 
Q 2878 531 3122 666 
L 3122 134 
Q 2881 22 2623 -34 
Q 2366 -91 2075 -91 
Q 1284 -91 818 406 
Q 353 903 353 1747 
Q 353 2603 823 3093 
Q 1294 3584 2113 3584 
Q 2378 3584 2631 3529 
Q 2884 3475 3122 3366 
z
" transform="scale(0.015625)"/>
       <path id="DejaVuSans-61" d="M 2194 1759 
Q 1497 1759 1228 1600 
Q 959 1441 959 1056 
Q 959 750 1161 570 
Q 1363 391 1709 391 
Q 2188 391 2477 730 
Q 2766 1069 2766 1631 
L 2766 1759 
L 2194 1759 
z
M 3341 1997 
L 3341 0 
L 2766 0 
L 2766 531 
Q 2569 213 2275 61 
Q 1981 -91 1556 -91 
Q 1019 -91 701 211 
Q 384 513 384 1019 
Q 384 1609 779 1909 
Q 1175 2209 1959 2209 
L 2766 2209 
L 2766 2266 
Q 2766 2663 2505 2880 
Q 2244 3097 1772 3097 
Q 1472 3097 1187 3025 
Q 903 2953 641 2809 
L 641 3341 
Q 956 3463 1253 3523 
Q 1550 3584 1831 3584 
Q 2591 3584 2966 3190 
Q 3341 2797 3341 1997 
z
" transform="scale(0.015625)"/>
       <path id="DejaVuSans-73" d="M 2834 3397 
L 2834 2853 
Q 2591 2978 2328 3040 
Q 2066 3103 1784 3103 
Q 1356 3103 1142 2972 
Q 928 2841 928 2578 
Q 928 2378 1081 2264 
Q 1234 2150 1697 2047 
L 1894 2003 
Q 2506 1872 2764 1633 
Q 3022 1394 3022 966 
Q 3022 478 2636 193 
Q 2250 -91 1575 -91 
Q 1294 -91 989 -36 
Q 684 19 347 128 
L 347 722 
Q 666 556 975 473 
Q 1284 391 1588 391 
Q 1994 391 2212 530 
Q 2431 669 2431 922 
Q 2431 1156 2273 1281 
Q 2116 1406 1581 1522 
L 1381 1569 
Q 847 1681 609 1914 
Q 372 2147 372 2553 
Q 372 3047 722 3315 
Q 1072 3584 1716 3584 
Q 2034 3584 2315 3537 
Q 2597 3491 2834 3397 
z
" transform="scale(0.015625)"/>
       <path id="DejaVuSans-74" d="M 1172 4494 
L 1172 3500 
L 2356 3500 
L 2356 3053 
L 1172 3053 
L 1172 1153 
Q 1172 725 1289 603 
Q 1406 481 1766 481 
L 2356 481 
L 2356 0 
L 1766 0 
Q 1100 0 847 248 
Q 594 497 594 1153 
L 594 3053 
L 172 3053 
L 172 3500 
L 594 3500 
L 594 4494 
L 1172 4494 
z
" transform="scale(0.015625)"/>
       <path id="DejaVuSans-44" d="M 1259 4147 
L 1259 519 
L 2022 519 
Q 2988 519 3436 956 
Q 3884 1394 3884 2338 
Q 3884 3275 3436 3711 
Q 2988 4147 2022 4147 
L 1259 4147 
z
M 628 4666 
L 1925 4666 
Q 3281 4666 3915 4102 
Q 4550 3538 4550 2338 
Q 4550 1131 3912 565 
Q 3275 0 1925 0 
L 628 0 
L 628 4666 
z
" transform="scale(0.015625)"/>
      </defs>
      <use xlink:href="#DejaVuSans-46"/>
      <use xlink:href="#DejaVuSans-6f" transform="translate(53.894531 0)"/>
      <use xlink:href="#DejaVuSans-72" transform="translate(115.076172 0)"/>
      <use xlink:href="#DejaVuSans-65" transform="translate(153.939453 0)"/>
      <use xlink:href="#DejaVuSans-63" transform="translate(215.462891 0)"/>
      <use xlink:href="#DejaVuSans-61" transform="translate(270.443359 0)"/>
      <use xlink:href="#DejaVuSans-73" transform="translate(331.722656 0)"/>
      <use xlink:href="#DejaVuSans-74" transform="translate(383.822266 0)"/>
      <use xlink:href="#DejaVuSans-20" transform="translate(423.03125 0)"/>
      <use xlink:href="#DejaVuSans-44" transform="translate(454.818359 0)"/>
      <use xlink:href="#DejaVuSans-61" transform="translate(531.820312 0)"/>
      <use xlink:href="#DejaVuSans-74" transform="translate(593.099609 0)"/>
      <use xlink:href="#DejaVuSans-65" transform="translate(632.308594 0)"/>
     </g>
    </g>
   </g>
   <g id="matplotlib.axis_2">
    <g id="ytick_1">
     <g id="line2d_7">
      <defs>
       <path id="m4ed5798423" d="M 0 0 
L -3.5 0 
" style="stroke: #000000; stroke-width: 0.8"/>
      </defs>
      <g>
       <use xlink:href="#m4ed5798423" x="58.791027" y="456.927819" style="stroke: #000000; stroke-width: 0.8"/>
      </g>
     </g>
     <g id="text_8">
      <!-- 2 -->
      <g transform="translate(45.428527 460.727038) scale(0.1 -0.1)">
       <use xlink:href="#DejaVuSans-32"/>
      </g>
     </g>
    </g>
    <g id="ytick_2">
     <g id="line2d_8">
      <g>
       <use xlink:href="#m4ed5798423" x="58.791027" y="406.899937" style="stroke: #000000; stroke-width: 0.8"/>
      </g>
     </g>
     <g id="text_9">
      <!-- 3 -->
      <g transform="translate(45.428527 410.699155) scale(0.1 -0.1)">
       <use xlink:href="#DejaVuSans-33"/>
      </g>
     </g>
    </g>
    <g id="ytick_3">
     <g id="line2d_9">
      <g>
       <use xlink:href="#m4ed5798423" x="58.791027" y="356.872054" style="stroke: #000000; stroke-width: 0.8"/>
      </g>
     </g>
     <g id="text_10">
      <!-- 4 -->
      <g transform="translate(45.428527 360.671273) scale(0.1 -0.1)">
       <defs>
        <path id="DejaVuSans-34" d="M 2419 4116 
L 825 1625 
L 2419 1625 
L 2419 4116 
z
M 2253 4666 
L 3047 4666 
L 3047 1625 
L 3713 1625 
L 3713 1100 
L 3047 1100 
L 3047 0 
L 2419 0 
L 2419 1100 
L 313 1100 
L 313 1709 
L 2253 4666 
z
" transform="scale(0.015625)"/>
       </defs>
       <use xlink:href="#DejaVuSans-34"/>
      </g>
     </g>
    </g>
    <g id="ytick_4">
     <g id="line2d_10">
      <g>
       <use xlink:href="#m4ed5798423" x="58.791027" y="306.844171" style="stroke: #000000; stroke-width: 0.8"/>
      </g>
     </g>
     <g id="text_11">
      <!-- 5 -->
      <g transform="translate(45.428527 310.64339) scale(0.1 -0.1)">
       <use xlink:href="#DejaVuSans-35"/>
      </g>
     </g>
    </g>
    <g id="ytick_5">
     <g id="line2d_11">
      <g>
       <use xlink:href="#m4ed5798423" x="58.791027" y="256.816289" style="stroke: #000000; stroke-width: 0.8"/>
      </g>
     </g>
     <g id="text_12">
      <!-- 6 -->
      <g transform="translate(45.428527 260.615507) scale(0.1 -0.1)">
       <use xlink:href="#DejaVuSans-36"/>
      </g>
     </g>
    </g>
    <g id="ytick_6">
     <g id="line2d_12">
      <g>
       <use xlink:href="#m4ed5798423" x="58.791027" y="206.788406" style="stroke: #000000; stroke-width: 0.8"/>
      </g>
     </g>
     <g id="text_13">
      <!-- 7 -->
      <g transform="translate(45.428527 210.587625) scale(0.1 -0.1)">
       <use xlink:href="#DejaVuSans-37"/>
      </g>
     </g>
    </g>
    <g id="ytick_7">
     <g id="line2d_13">
      <g>
       <use xlink:href="#m4ed5798423" x="58.791027" y="156.760523" style="stroke: #000000; stroke-width: 0.8"/>
      </g>
     </g>
     <g id="text_14">
      <!-- 8 -->
      <g transform="translate(45.428527 160.559742) scale(0.1 -0.1)">
       <use xlink:href="#DejaVuSans-38"/>
      </g>
     </g>
    </g>
    <g id="ytick_8">
     <g id="line2d_14">
      <g>
       <use xlink:href="#m4ed5798423" x="58.791027" y="106.73264" style="stroke: #000000; stroke-width: 0.8"/>
      </g>
     </g>
     <g id="text_15">
      <!-- 9 -->
      <g transform="translate(45.428527 110.531859) scale(0.1 -0.1)">
       <defs>
        <path id="DejaVuSans-39" d="M 703 97 
L 703 672 
Q 941 559 1184 500 
Q 1428 441 1663 441 
Q 2288 441 2617 861 
Q 2947 1281 2994 2138 
Q 2813 1869 2534 1725 
Q 2256 1581 1919 1581 
Q 1219 1581 811 2004 
Q 403 2428 403 3163 
Q 403 3881 828 4315 
Q 1253 4750 1959 4750 
Q 2769 4750 3195 4129 
Q 3622 3509 3622 2328 
Q 3622 1225 3098 567 
Q 2575 -91 1691 -91 
Q 1453 -91 1209 -44 
Q 966 3 703 97 
z
M 1959 2075 
Q 2384 2075 2632 2365 
Q 2881 2656 2881 3163 
Q 2881 3666 2632 3958 
Q 2384 4250 1959 4250 
Q 1534 4250 1286 3958 
Q 1038 3666 1038 3163 
Q 1038 2656 1286 2365 
Q 1534 2075 1959 2075 
z
" transform="scale(0.015625)"/>
       </defs>
       <use xlink:href="#DejaVuSans-39"/>
      </g>
     </g>
    </g>
    <g id="ytick_9">
     <g id="line2d_15">
      <g>
       <use xlink:href="#m4ed5798423" x="58.791027" y="56.704758" style="stroke: #000000; stroke-width: 0.8"/>
      </g>
     </g>
     <g id="text_16">
      <!-- 10 -->
      <g transform="translate(39.066027 60.503976) scale(0.1 -0.1)">
       <use xlink:href="#DejaVuSans-31"/>
       <use xlink:href="#DejaVuSans-30" transform="translate(63.623047 0)"/>
      </g>
     </g>
    </g>
    <g id="text_17">
     <!-- Root Mean Squared Error (RMSE) -->
     <g transform="translate(31.738527 394.303437) rotate(-90) scale(0.16 -0.16)">
      <defs>
       <path id="DejaVuSans-52" d="M 2841 2188 
Q 3044 2119 3236 1894 
Q 3428 1669 3622 1275 
L 4263 0 
L 3584 0 
L 2988 1197 
Q 2756 1666 2539 1819 
Q 2322 1972 1947 1972 
L 1259 1972 
L 1259 0 
L 628 0 
L 628 4666 
L 2053 4666 
Q 2853 4666 3247 4331 
Q 3641 3997 3641 3322 
Q 3641 2881 3436 2590 
Q 3231 2300 2841 2188 
z
M 1259 4147 
L 1259 2491 
L 2053 2491 
Q 2509 2491 2742 2702 
Q 2975 2913 2975 3322 
Q 2975 3731 2742 3939 
Q 2509 4147 2053 4147 
L 1259 4147 
z
" transform="scale(0.015625)"/>
       <path id="DejaVuSans-4d" d="M 628 4666 
L 1569 4666 
L 2759 1491 
L 3956 4666 
L 4897 4666 
L 4897 0 
L 4281 0 
L 4281 4097 
L 3078 897 
L 2444 897 
L 1241 4097 
L 1241 0 
L 628 0 
L 628 4666 
z
" transform="scale(0.015625)"/>
       <path id="DejaVuSans-6e" d="M 3513 2113 
L 3513 0 
L 2938 0 
L 2938 2094 
Q 2938 2591 2744 2837 
Q 2550 3084 2163 3084 
Q 1697 3084 1428 2787 
Q 1159 2491 1159 1978 
L 1159 0 
L 581 0 
L 581 3500 
L 1159 3500 
L 1159 2956 
Q 1366 3272 1645 3428 
Q 1925 3584 2291 3584 
Q 2894 3584 3203 3211 
Q 3513 2838 3513 2113 
z
" transform="scale(0.015625)"/>
       <path id="DejaVuSans-53" d="M 3425 4513 
L 3425 3897 
Q 3066 4069 2747 4153 
Q 2428 4238 2131 4238 
Q 1616 4238 1336 4038 
Q 1056 3838 1056 3469 
Q 1056 3159 1242 3001 
Q 1428 2844 1947 2747 
L 2328 2669 
Q 3034 2534 3370 2195 
Q 3706 1856 3706 1288 
Q 3706 609 3251 259 
Q 2797 -91 1919 -91 
Q 1588 -91 1214 -16 
Q 841 59 441 206 
L 441 856 
Q 825 641 1194 531 
Q 1563 422 1919 422 
Q 2459 422 2753 634 
Q 3047 847 3047 1241 
Q 3047 1584 2836 1778 
Q 2625 1972 2144 2069 
L 1759 2144 
Q 1053 2284 737 2584 
Q 422 2884 422 3419 
Q 422 4038 858 4394 
Q 1294 4750 2059 4750 
Q 2388 4750 2728 4690 
Q 3069 4631 3425 4513 
z
" transform="scale(0.015625)"/>
       <path id="DejaVuSans-71" d="M 947 1747 
Q 947 1113 1208 752 
Q 1469 391 1925 391 
Q 2381 391 2643 752 
Q 2906 1113 2906 1747 
Q 2906 2381 2643 2742 
Q 2381 3103 1925 3103 
Q 1469 3103 1208 2742 
Q 947 2381 947 1747 
z
M 2906 525 
Q 2725 213 2448 61 
Q 2172 -91 1784 -91 
Q 1150 -91 751 415 
Q 353 922 353 1747 
Q 353 2572 751 3078 
Q 1150 3584 1784 3584 
Q 2172 3584 2448 3432 
Q 2725 3281 2906 2969 
L 2906 3500 
L 3481 3500 
L 3481 -1331 
L 2906 -1331 
L 2906 525 
z
" transform="scale(0.015625)"/>
       <path id="DejaVuSans-75" d="M 544 1381 
L 544 3500 
L 1119 3500 
L 1119 1403 
Q 1119 906 1312 657 
Q 1506 409 1894 409 
Q 2359 409 2629 706 
Q 2900 1003 2900 1516 
L 2900 3500 
L 3475 3500 
L 3475 0 
L 2900 0 
L 2900 538 
Q 2691 219 2414 64 
Q 2138 -91 1772 -91 
Q 1169 -91 856 284 
Q 544 659 544 1381 
z
M 1991 3584 
L 1991 3584 
z
" transform="scale(0.015625)"/>
       <path id="DejaVuSans-64" d="M 2906 2969 
L 2906 4863 
L 3481 4863 
L 3481 0 
L 2906 0 
L 2906 525 
Q 2725 213 2448 61 
Q 2172 -91 1784 -91 
Q 1150 -91 751 415 
Q 353 922 353 1747 
Q 353 2572 751 3078 
Q 1150 3584 1784 3584 
Q 2172 3584 2448 3432 
Q 2725 3281 2906 2969 
z
M 947 1747 
Q 947 1113 1208 752 
Q 1469 391 1925 391 
Q 2381 391 2643 752 
Q 2906 1113 2906 1747 
Q 2906 2381 2643 2742 
Q 2381 3103 1925 3103 
Q 1469 3103 1208 2742 
Q 947 2381 947 1747 
z
" transform="scale(0.015625)"/>
       <path id="DejaVuSans-45" d="M 628 4666 
L 3578 4666 
L 3578 4134 
L 1259 4134 
L 1259 2753 
L 3481 2753 
L 3481 2222 
L 1259 2222 
L 1259 531 
L 3634 531 
L 3634 0 
L 628 0 
L 628 4666 
z
" transform="scale(0.015625)"/>
      </defs>
      <use xlink:href="#DejaVuSans-52"/>
      <use xlink:href="#DejaVuSans-6f" transform="translate(64.982422 0)"/>
      <use xlink:href="#DejaVuSans-6f" transform="translate(126.164062 0)"/>
      <use xlink:href="#DejaVuSans-74" transform="translate(187.345703 0)"/>
      <use xlink:href="#DejaVuSans-20" transform="translate(226.554688 0)"/>
      <use xlink:href="#DejaVuSans-4d" transform="translate(258.341797 0)"/>
      <use xlink:href="#DejaVuSans-65" transform="translate(344.621094 0)"/>
      <use xlink:href="#DejaVuSans-61" transform="translate(406.144531 0)"/>
      <use xlink:href="#DejaVuSans-6e" transform="translate(467.423828 0)"/>
      <use xlink:href="#DejaVuSans-20" transform="translate(530.802734 0)"/>
      <use xlink:href="#DejaVuSans-53" transform="translate(562.589844 0)"/>
      <use xlink:href="#DejaVuSans-71" transform="translate(626.066406 0)"/>
      <use xlink:href="#DejaVuSans-75" transform="translate(689.542969 0)"/>
      <use xlink:href="#DejaVuSans-61" transform="translate(752.921875 0)"/>
      <use xlink:href="#DejaVuSans-72" transform="translate(814.201172 0)"/>
      <use xlink:href="#DejaVuSans-65" transform="translate(853.064453 0)"/>
      <use xlink:href="#DejaVuSans-64" transform="translate(914.587891 0)"/>
      <use xlink:href="#DejaVuSans-20" transform="translate(978.064453 0)"/>
      <use xlink:href="#DejaVuSans-45" transform="translate(1009.851562 0)"/>
      <use xlink:href="#DejaVuSans-72" transform="translate(1073.035156 0)"/>
      <use xlink:href="#DejaVuSans-72" transform="translate(1112.398438 0)"/>
      <use xlink:href="#DejaVuSans-6f" transform="translate(1151.261719 0)"/>
      <use xlink:href="#DejaVuSans-72" transform="translate(1212.443359 0)"/>
      <use xlink:href="#DejaVuSans-20" transform="translate(1253.556641 0)"/>
      <use xlink:href="#DejaVuSans-28" transform="translate(1285.34375 0)"/>
      <use xlink:href="#DejaVuSans-52" transform="translate(1324.357422 0)"/>
      <use xlink:href="#DejaVuSans-4d" transform="translate(1393.839844 0)"/>
      <use xlink:href="#DejaVuSans-53" transform="translate(1480.119141 0)"/>
      <use xlink:href="#DejaVuSans-45" transform="translate(1543.595703 0)"/>
      <use xlink:href="#DejaVuSans-29" transform="translate(1606.779297 0)"/>
     </g>
    </g>
   </g>
   <g id="line2d_16">
    <path d="M 96.836481 243.200006 
L 99.892341 304.081554 
L 102.948201 298.491075 
L 106.004061 275.731207 
L 109.05992 286.789239 
L 112.11578 301.28437 
L 115.17164 297.119546 
L 118.2275 298.560541 
L 121.28336 297.471863 
L 124.339219 292.567506 
L 127.395079 294.495503 
L 130.450939 295.782155 
L 133.506799 275.061449 
L 136.562659 300.60643 
L 139.618518 298.761163 
L 142.674378 315.536345 
L 145.730238 331.330293 
L 148.786098 286.141429 
L 151.841958 308.115484 
L 154.897817 306.2117 
L 157.953677 294.872963 
L 161.009537 291.78365 
L 164.065397 305.494375 
L 167.121257 308.093704 
L 170.177116 324.243285 
L 173.232976 300.730191 
L 176.288836 298.547826 
L 179.344696 297.485246 
L 182.400556 288.638419 
L 185.456415 292.354026 
L 188.512275 297.208264 
L 191.568135 315.459746 
L 194.623995 311.452343 
L 197.679855 310.567293 
L 200.735714 290.877822 
L 203.791574 281.878894 
L 206.847434 305.825437 
L 209.903294 301.291574 
L 216.015013 317.187957 
L 219.070873 288.509959 
L 222.126733 279.84145 
L 225.182593 272.207467 
L 228.238453 294.913064 
L 231.294313 279.442615 
L 234.350172 281.44015 
L 237.406032 304.196154 
L 240.461892 294.92616 
L 243.517752 275.197304 
L 246.573612 287.938366 
L 249.629471 275.413003 
L 252.685331 272.526267 
L 255.741191 292.268172 
L 258.797051 289.853147 
L 261.852911 295.934637 
L 264.90877 314.253272 
L 267.96463 302.070516 
L 271.02049 273.748032 
L 274.07635 276.831931 
L 277.13221 285.502039 
L 280.188069 288.782409 
L 283.243929 309.721699 
L 286.299789 275.188049 
L 289.355649 268.507174 
L 292.411509 298.238067 
L 295.467368 311.658165 
L 298.523228 291.918383 
L 301.579088 291.839661 
L 304.634948 315.789138 
L 307.690808 310.032293 
L 310.746667 310.725285 
L 313.802527 287.871023 
L 316.858387 303.796604 
L 319.914247 285.326155 
L 322.970107 306.581216 
L 326.025966 316.402311 
L 329.081826 302.886434 
L 332.137686 311.237503 
L 335.193546 298.602168 
L 338.249406 299.644161 
L 341.305265 295.095222 
L 344.361125 300.29221 
L 347.416985 294.056879 
L 350.472845 315.639948 
L 353.528705 285.822938 
L 356.584564 277.723207 
L 359.640424 286.856678 
L 362.696284 273.938659 
L 365.752144 290.913676 
L 368.808004 260.038857 
L 374.919723 291.251894 
L 377.975583 296.30463 
L 381.031443 286.142741 
L 384.087303 285.843764 
L 387.143162 292.696825 
L 390.199022 296.814821 
L 393.254882 314.964632 
L 396.310742 307.706034 
L 399.366602 295.241693 
L 402.422461 284.453319 
L 405.478321 292.591838 
L 408.534181 298.32719 
L 411.590041 292.488641 
L 414.645901 299.150646 
L 417.70176 304.99034 
L 420.75762 314.378177 
L 423.81348 296.920046 
L 426.86934 296.56625 
L 429.9252 302.483735 
L 432.981059 303.511153 
L 436.036919 307.38251 
L 439.092779 288.496052 
L 442.148639 305.302556 
L 445.204499 316.157414 
L 448.260359 320.731926 
L 451.316218 310.658944 
L 454.372078 313.524759 
L 457.427938 331.023969 
L 460.483798 312.704762 
L 463.539658 307.239499 
L 466.595517 304.217289 
L 469.651377 319.998022 
L 472.707237 314.546499 
L 475.763097 279.120809 
L 478.818957 293.10043 
L 481.874816 287.20513 
L 484.930676 288.009263 
L 487.986536 295.737283 
L 491.042396 298.175614 
L 494.098256 273.444953 
L 497.154115 300.772009 
L 500.209975 272.763769 
L 503.265835 300.737061 
L 506.321695 331.189477 
L 509.377555 311.5095 
L 512.433414 313.432034 
L 515.489274 314.979566 
L 518.545134 305.792898 
L 521.600994 301.683634 
L 524.656854 296.816801 
L 527.712713 301.623185 
L 530.768573 302.584237 
L 533.824433 302.550482 
L 536.880293 306.957555 
L 539.936153 310.373255 
L 542.992012 294.472483 
L 546.047872 292.86684 
L 549.103732 317.122212 
L 552.159592 301.359251 
L 555.215452 296.575267 
L 558.271311 294.799251 
L 561.327171 286.065569 
L 564.383031 279.7284 
L 567.438891 281.106679 
L 570.494751 310.436495 
L 573.55061 302.933 
L 576.60647 305.977203 
L 579.66233 303.710558 
L 582.71819 308.388769 
L 585.77405 316.913956 
L 588.829909 318.670316 
L 591.885769 290.38934 
L 594.941629 273.074005 
L 597.997489 273.561342 
L 601.053349 286.452237 
L 604.109208 268.785683 
L 607.165068 289.273801 
L 610.220928 317.989537 
L 613.276788 297.955455 
L 616.332648 297.558386 
L 619.388507 293.838771 
L 622.444367 309.674967 
L 625.500227 311.236835 
L 628.556087 318.662611 
L 631.611947 315.829883 
L 634.667806 300.345932 
L 637.723666 304.525164 
L 640.779526 268.681794 
L 643.835386 288.457979 
L 646.891246 286.282079 
L 649.947105 292.357175 
L 653.002965 292.028213 
L 656.058825 294.067375 
L 659.114685 282.47358 
L 662.170545 276.710318 
L 665.226405 276.621839 
L 671.338124 307.371084 
L 674.393984 269.756779 
L 677.449844 281.22283 
L 680.505704 276.654735 
L 683.561563 275.476124 
L 686.617423 273.179325 
L 689.673283 297.701612 
L 692.729143 285.878688 
L 695.785003 304.35627 
L 698.840862 308.245089 
L 701.896722 292.880581 
L 704.952582 294.251179 
L 708.008442 308.804421 
L 711.064302 302.672716 
L 714.120161 288.532598 
L 717.176021 304.394438 
L 720.231881 310.022847 
L 723.287741 300.607623 
L 726.343601 324.72244 
L 729.39946 303.491019 
L 732.45532 310.93471 
L 735.51118 296.562123 
L 738.56704 303.557814 
L 741.6229 304.770061 
L 744.678759 289.490573 
L 747.734619 295.28728 
L 750.790479 292.491456 
L 753.846339 317.914561 
L 756.902199 303.52685 
L 759.958058 315.083694 
L 763.013918 298.090928 
L 766.069778 297.815043 
L 769.125638 267.093184 
L 772.181498 284.297998 
L 775.237357 273.797985 
L 781.349077 297.340708 
L 784.404937 278.652485 
L 787.460797 281.713578 
L 790.516656 279.725132 
L 793.572516 295.906917 
L 796.628376 288.192447 
L 799.684236 289.110465 
L 802.740096 272.028672 
L 805.795955 269.229508 
L 808.851815 315.245909 
L 811.907675 320.416799 
L 814.963535 309.463992 
L 818.019395 318.813661 
L 821.075254 287.554823 
L 824.131114 292.858276 
L 827.186974 286.855652 
L 830.242834 288.371027 
L 836.354553 320.330205 
L 839.410413 319.720921 
L 842.466273 321.990595 
L 845.522133 332.164532 
L 848.577993 327.48334 
L 851.633852 307.538809 
L 854.689712 302.293681 
L 857.745572 303.389969 
L 857.745572 303.389969 
" clip-path="url(#p11e2ca5c83)" style="fill: none; stroke: #0000ff; stroke-width: 2; stroke-linecap: square"/>
   </g>
   <g id="line2d_17">
    <path d="M 96.836481 340.03065 
L 99.892341 328.594322 
L 102.948201 328.996711 
L 106.004061 339.784154 
L 109.05992 245.920853 
L 112.11578 416.422031 
L 115.17164 244.809823 
L 118.2275 228.717256 
L 121.28336 241.169192 
L 124.339219 389.858316 
L 127.395079 223.297603 
L 130.450939 329.489367 
L 133.506799 279.27279 
L 136.562659 317.660456 
L 139.618518 271.900522 
L 142.674378 367.1005 
L 145.730238 235.144907 
L 148.786098 304.44377 
L 151.841958 250.116879 
L 154.897817 290.442823 
L 157.953677 425.12024 
L 161.009537 406.644174 
L 164.065397 234.527202 
L 167.121257 246.181566 
L 170.177116 286.402643 
L 173.232976 312.924564 
L 176.288836 277.529146 
L 179.344696 408.496228 
L 182.400556 368.810831 
L 185.456415 405.141371 
L 188.512275 262.761136 
L 191.568135 200.137732 
L 194.623995 267.690613 
L 197.679855 310.652026 
L 200.735714 244.884776 
L 203.791574 395.779642 
L 206.847434 322.530938 
L 209.903294 367.753224 
L 212.959154 402.090094 
L 216.015013 380.289263 
L 219.070873 355.842322 
L 222.126733 278.44652 
L 225.182593 285.037364 
L 228.238453 375.397155 
L 234.350172 343.722545 
L 237.406032 392.940378 
L 240.461892 297.857673 
L 243.517752 258.542471 
L 246.573612 263.393107 
L 249.629471 329.8325 
L 252.685331 368.902959 
L 258.797051 451.854115 
L 261.852911 411.587796 
L 264.90877 342.156645 
L 267.96463 249.575224 
L 271.02049 400.185916 
L 274.07635 224.43318 
L 277.13221 364.407968 
L 280.188069 209.51827 
L 283.243929 317.982047 
L 286.299789 282.223387 
L 289.355649 192.558735 
L 292.411509 291.229971 
L 295.467368 72.558702 
L 298.523228 367.990607 
L 301.579088 385.697906 
L 304.634948 300.198078 
L 307.690808 303.01425 
L 310.746667 223.668432 
L 313.802527 397.267405 
L 316.858387 406.588102 
L 319.914247 332.711054 
L 322.970107 323.3324 
L 326.025966 319.747209 
L 329.081826 358.219667 
L 332.137686 381.175672 
L 335.193546 384.38914 
L 338.249406 264.358763 
L 341.305265 288.743024 
L 344.361125 182.98497 
L 347.416985 396.592435 
L 350.472845 397.576102 
L 353.528705 342.240997 
L 356.584564 370.882531 
L 359.640424 323.274313 
L 362.696284 410.213787 
L 365.752144 439.848102 
L 371.863863 264.610769 
L 374.919723 366.274777 
L 377.975583 367.447008 
L 381.031443 325.261781 
L 384.087303 353.710697 
L 387.143162 393.597409 
L 390.199022 427.843044 
L 393.254882 382.662862 
L 396.310742 316.509516 
L 399.366602 195.213766 
L 402.422461 352.396183 
L 405.478321 386.318247 
L 408.534181 300.614994 
L 411.590041 417.828925 
L 414.645901 292.720966 
L 417.70176 417.323005 
L 420.75762 254.621614 
L 423.81348 345.293096 
L 426.86934 348.038729 
L 429.9252 446.269862 
L 432.981059 296.431683 
L 436.036919 206.578385 
L 439.092779 209.826264 
L 442.148639 257.796354 
L 445.204499 245.590793 
L 448.260359 388.883105 
L 451.316218 192.152721 
L 454.372078 399.736043 
L 457.427938 279.612321 
L 460.483798 353.97184 
L 463.539658 385.146625 
L 466.595517 357.172474 
L 469.651377 333.282361 
L 472.707237 293.237049 
L 475.763097 409.58419 
L 478.818957 385.388492 
L 481.874816 362.742282 
L 484.930676 314.753848 
L 487.986536 260.445063 
L 491.042396 402.223814 
L 494.098256 203.24644 
L 497.154115 324.329164 
L 500.209975 314.367228 
L 503.265835 428.246947 
L 506.321695 363.732534 
L 509.377555 396.148562 
L 512.433414 253.812805 
L 515.489274 274.225183 
L 518.545134 265.227496 
L 521.600994 303.991143 
L 524.656854 122.041113 
L 527.712713 384.691015 
L 530.768573 288.26239 
L 533.824433 302.759525 
L 536.880293 414.760854 
L 539.936153 263.13893 
L 542.992012 222.52639 
L 546.047872 290.586049 
L 549.103732 317.705757 
L 552.159592 421.402272 
L 555.215452 319.99139 
L 558.271311 245.19494 
L 561.327171 266.74905 
L 564.383031 293.350671 
L 567.438891 212.005576 
L 570.494751 310.408012 
L 573.55061 104.918599 
L 576.60647 237.02455 
L 579.66233 356.137029 
L 582.71819 412.209414 
L 585.77405 377.83805 
L 588.829909 167.406649 
L 591.885769 146.913068 
L 594.941629 96.87612 
L 597.997489 326.192275 
L 601.053349 160.025626 
L 604.109208 92.579235 
L 607.165068 368.85346 
L 610.220928 392.416471 
L 613.276788 425.855981 
L 616.332648 332.753277 
L 619.388507 190.90209 
L 622.444367 356.875334 
L 625.500227 409.907666 
L 628.556087 374.011409 
L 631.611947 282.920029 
L 634.667806 329.675533 
L 637.723666 380.787048 
L 640.779526 264.631022 
L 643.835386 361.934523 
L 646.891246 231.431304 
L 649.947105 227.657824 
L 653.002965 303.581359 
L 656.058825 319.416147 
L 659.114685 272.094846 
L 662.170545 300.030615 
L 665.226405 302.381325 
L 668.282264 337.026761 
L 671.338124 272.247352 
L 674.393984 196.906742 
L 677.449844 326.799246 
L 680.505704 377.808911 
L 683.561563 285.16747 
L 686.617423 164.779457 
L 689.673283 289.002997 
L 692.729143 323.649697 
L 695.785003 251.164526 
L 698.840862 404.652507 
L 701.896722 327.008885 
L 704.952582 284.789438 
L 708.008442 333.202207 
L 711.064302 200.453336 
L 714.120161 217.206858 
L 717.176021 159.661835 
L 720.231881 387.377821 
L 723.287741 391.546879 
L 726.343601 297.312344 
L 729.39946 246.704638 
L 732.45532 277.451664 
L 735.51118 179.318171 
L 738.56704 302.048641 
L 741.6229 173.087443 
L 744.678759 223.926616 
L 747.734619 333.278735 
L 750.790479 409.195673 
L 753.846339 408.448446 
L 756.902199 319.871614 
L 759.958058 364.974755 
L 763.013918 299.111929 
L 766.069778 347.767949 
L 769.125638 290.944282 
L 772.181498 302.048236 
L 775.237357 256.107409 
L 778.293217 390.257126 
L 781.349077 230.335852 
L 784.404937 172.826707 
L 787.460797 277.473873 
L 793.572516 258.441087 
L 796.628376 350.445714 
L 799.684236 347.03729 
L 802.740096 244.81791 
L 805.795955 275.009851 
L 808.851815 383.960785 
L 811.907675 342.699994 
L 814.963535 274.277951 
L 818.019395 214.241829 
L 821.075254 258.789324 
L 824.131114 313.854915 
L 827.186974 355.068676 
L 830.242834 344.561912 
L 833.298694 338.450675 
L 836.354553 205.381548 
L 842.466273 448.531581 
L 845.522133 312.247674 
L 848.577993 307.320726 
L 851.633852 363.933609 
L 854.689712 371.343664 
L 857.745572 355.041123 
L 857.745572 355.041123 
" clip-path="url(#p11e2ca5c83)" style="fill: none; stroke: #ffa500; stroke-width: 2; stroke-linecap: square"/>
   </g>
   <g id="line2d_18">
    <path d="M 96.836481 248.933615 
L 99.892341 293.831948 
L 102.948201 283.221033 
L 106.004061 265.46111 
L 109.05992 287.989249 
L 112.11578 294.126154 
L 115.17164 299.293204 
L 118.2275 286.446965 
L 121.28336 291.865854 
L 124.339219 283.92216 
L 127.395079 289.187517 
L 130.450939 287.205512 
L 133.506799 282.498771 
L 136.562659 295.815337 
L 139.618518 292.694225 
L 142.674378 300.850063 
L 145.730238 321.480405 
L 148.786098 281.705372 
L 151.841958 305.157183 
L 154.897817 306.322387 
L 157.953677 291.206808 
L 161.009537 291.109527 
L 164.065397 300.882005 
L 167.121257 301.3895 
L 170.177116 316.172443 
L 173.232976 297.490422 
L 176.288836 285.781645 
L 179.344696 296.71637 
L 182.400556 280.269435 
L 185.456415 288.69164 
L 188.512275 299.377294 
L 191.568135 305.774101 
L 194.623995 305.88121 
L 197.679855 301.166263 
L 200.735714 290.754061 
L 203.791574 276.152966 
L 206.847434 298.352142 
L 209.903294 296.778799 
L 212.959154 303.300655 
L 216.015013 317.639702 
L 219.070873 285.41189 
L 222.126733 275.219609 
L 225.182593 272.301885 
L 228.238453 292.606724 
L 231.294313 275.634092 
L 234.350172 289.706033 
L 237.406032 296.87255 
L 240.461892 284.877654 
L 243.517752 273.931455 
L 246.573612 282.481118 
L 249.629471 274.864716 
L 252.685331 271.629671 
L 255.741191 290.491917 
L 258.797051 284.989654 
L 261.852911 292.38177 
L 264.90877 310.611306 
L 267.96463 296.523883 
L 271.02049 268.99902 
L 274.07635 273.099411 
L 277.13221 282.912157 
L 280.188069 285.420478 
L 283.243929 299.984765 
L 286.299789 264.777564 
L 289.355649 257.801053 
L 292.411509 293.362336 
L 295.467368 300.660104 
L 298.523228 285.250606 
L 301.579088 283.101662 
L 304.634948 306.765998 
L 307.690808 305.383544 
L 310.746667 303.115897 
L 313.802527 288.269929 
L 316.858387 297.853069 
L 319.914247 291.022384 
L 322.970107 297.417664 
L 326.025966 307.603385 
L 329.081826 289.7364 
L 332.137686 309.080234 
L 335.193546 299.476841 
L 338.249406 297.765973 
L 341.305265 295.204669 
L 344.361125 302.494494 
L 347.416985 294.823225 
L 350.472845 313.648639 
L 353.528705 279.000508 
L 356.584564 272.891322 
L 359.640424 273.778495 
L 362.696284 271.529598 
L 365.752144 284.440914 
L 368.808004 253.289352 
L 371.863863 264.128561 
L 374.919723 288.378541 
L 377.975583 285.55297 
L 381.031443 279.593022 
L 384.087303 280.872493 
L 387.143162 291.255043 
L 390.199022 291.585604 
L 393.254882 309.107739 
L 396.310742 305.676843 
L 399.366602 282.987801 
L 402.422461 275.900197 
L 405.478321 285.250963 
L 408.534181 293.780135 
L 411.590041 289.913453 
L 414.645901 294.818359 
L 417.70176 308.934574 
L 420.75762 313.583705 
L 423.81348 291.115324 
L 426.86934 291.04309 
L 429.9252 298.526833 
L 432.981059 295.295319 
L 436.036919 301.352596 
L 439.092779 285.57098 
L 442.148639 301.590766 
L 445.204499 315.506192 
L 448.260359 319.073301 
L 451.316218 300.090157 
L 454.372078 310.510661 
L 457.427938 322.833493 
L 460.483798 314.213052 
L 463.539658 305.145565 
L 466.595517 299.086833 
L 469.651377 316.932826 
L 472.707237 315.795484 
L 475.763097 278.362263 
L 478.818957 287.316056 
L 481.874816 284.679489 
L 484.930676 286.592386 
L 487.986536 288.791593 
L 491.042396 293.766991 
L 494.098256 264.595693 
L 497.154115 299.423143 
L 500.209975 269.283087 
L 503.265835 296.395399 
L 506.321695 328.300021 
L 509.377555 303.253279 
L 512.433414 315.993863 
L 515.489274 310.876217 
L 518.545134 301.321465 
L 521.600994 300.616378 
L 524.656854 293.631446 
L 527.712713 298.530102 
L 530.768573 298.103452 
L 533.824433 297.885011 
L 536.880293 303.76323 
L 539.936153 308.282518 
L 542.992012 290.148331 
L 546.047872 285.288702 
L 549.103732 307.522779 
L 552.159592 302.965371 
L 555.215452 295.87853 
L 558.271311 295.783968 
L 561.327171 282.276536 
L 564.383031 282.438393 
L 567.438891 282.147766 
L 570.494751 306.158216 
L 573.55061 297.565948 
L 576.60647 304.457869 
L 579.66233 304.059321 
L 582.71819 305.522429 
L 585.77405 311.754492 
L 588.829909 314.572406 
L 591.885769 290.938151 
L 594.941629 263.403388 
L 597.997489 268.599995 
L 601.053349 286.695846 
L 604.109208 265.71574 
L 607.165068 289.142121 
L 610.220928 310.807037 
L 613.276788 291.867119 
L 616.332648 293.207707 
L 619.388507 291.319166 
L 622.444367 308.651008 
L 625.500227 304.506462 
L 628.556087 313.069674 
L 631.611947 313.962907 
L 634.667806 300.065419 
L 637.723666 298.39136 
L 640.779526 259.172223 
L 643.835386 278.703845 
L 646.891246 287.239958 
L 649.947105 288.832171 
L 653.002965 290.110878 
L 656.058825 282.746029 
L 659.114685 276.754378 
L 662.170545 277.153117 
L 665.226405 272.929347 
L 668.282264 289.938692 
L 671.338124 304.581128 
L 674.393984 270.833744 
L 677.449844 274.014757 
L 680.505704 274.979674 
L 683.561563 263.828439 
L 686.617423 274.391501 
L 689.673283 294.338632 
L 692.729143 284.023616 
L 695.785003 297.452588 
L 698.840862 302.872646 
L 704.952582 287.264816 
L 708.008442 304.434419 
L 711.064302 303.452398 
L 714.120161 292.538331 
L 717.176021 299.932522 
L 720.231881 301.303573 
L 723.287741 298.563785 
L 726.343601 321.318071 
L 729.39946 297.418809 
L 732.45532 308.111715 
L 735.51118 293.693779 
L 738.56704 297.13615 
L 741.6229 297.594216 
L 744.678759 287.633735 
L 747.734619 292.00722 
L 750.790479 291.807791 
L 753.846339 310.64611 
L 756.902199 292.810256 
L 759.958058 314.520426 
L 763.013918 293.211881 
L 766.069778 292.787784 
L 769.125638 268.548515 
L 772.181498 285.545813 
L 775.237357 268.034652 
L 778.293217 286.382986 
L 781.349077 297.265349 
L 784.404937 280.017453 
L 787.460797 277.74556 
L 790.516656 273.281903 
L 793.572516 293.597906 
L 796.628376 287.132229 
L 799.684236 285.131902 
L 802.740096 261.398601 
L 805.795955 266.563671 
L 808.851815 311.432782 
L 811.907675 317.650532 
L 814.963535 304.348445 
L 818.019395 307.395679 
L 821.075254 280.303381 
L 824.131114 282.585723 
L 827.186974 283.89289 
L 830.242834 283.002639 
L 833.298694 297.29617 
L 836.354553 318.580406 
L 839.410413 310.835472 
L 842.466273 314.831306 
L 845.522133 325.438906 
L 848.577993 319.831131 
L 851.633852 306.064299 
L 854.689712 298.043337 
L 857.745572 304.667699 
L 857.745572 304.667699 
" clip-path="url(#p11e2ca5c83)" style="fill: none; stroke-dasharray: 7.4,3.2; stroke-dashoffset: 0; stroke: #0000ff; stroke-width: 2"/>
   </g>
   <g id="line2d_19">
    <path d="M 96.836481 314.55659 
L 99.892341 328.9162 
L 102.948201 357.714117 
L 106.004061 368.636557 
L 109.05992 274.627405 
L 112.11578 452.86506 
L 115.17164 182.635254 
L 118.2275 230.062281 
L 121.28336 255.815135 
L 124.339219 425.059422 
L 127.395079 188.073966 
L 130.450939 344.763631 
L 133.506799 300.146932 
L 136.562659 360.736994 
L 139.618518 297.461653 
L 142.674378 357.419196 
L 145.730238 230.948404 
L 148.786098 346.726338 
L 151.841958 265.493815 
L 154.897817 274.144505 
L 157.953677 419.054483 
L 161.009537 403.654336 
L 164.065397 213.4845 
L 167.121257 261.48603 
L 170.177116 289.476355 
L 173.232976 308.056347 
L 176.288836 272.183564 
L 179.344696 411.572493 
L 182.400556 385.957724 
L 185.456415 423.397135 
L 188.512275 295.451904 
L 191.568135 219.504467 
L 194.623995 268.566049 
L 197.679855 307.520131 
L 200.735714 268.183078 
L 203.791574 394.882605 
L 206.847434 347.54872 
L 209.903294 399.459598 
L 212.959154 442.621538 
L 216.015013 360.474826 
L 219.070873 310.411876 
L 222.126733 244.995869 
L 225.182593 294.622651 
L 228.238453 410.139502 
L 231.294313 369.728419 
L 234.350172 381.677072 
L 237.406032 420.103621 
L 240.461892 301.104574 
L 243.517752 246.2819 
L 246.573612 267.404661 
L 249.629471 356.649271 
L 252.685331 385.297139 
L 258.797051 464.237187 
L 261.852911 404.559186 
L 264.90877 347.565515 
L 267.96463 264.677206 
L 271.02049 424.563127 
L 274.07635 202.202062 
L 277.13221 361.854799 
L 280.188069 225.613891 
L 283.243929 324.862804 
L 286.299789 212.000709 
L 289.355649 164.636779 
L 292.411509 300.032428 
L 295.467368 61.037187 
L 298.523228 371.483264 
L 301.579088 381.381841 
L 304.634948 242.798595 
L 307.690808 246.204324 
L 310.746667 209.469105 
L 313.802527 405.340513 
L 316.858387 420.363117 
L 319.914247 361.545756 
L 322.970107 305.810337 
L 326.025966 346.015025 
L 329.081826 343.244654 
L 332.137686 395.878772 
L 335.193546 361.913984 
L 338.249406 293.668016 
L 341.305265 263.220181 
L 344.361125 240.494783 
L 347.416985 395.429878 
L 350.472845 387.398158 
L 353.528705 361.069142 
L 356.584564 384.301043 
L 359.640424 317.245042 
L 362.696284 447.744289 
L 365.752144 463.139636 
L 368.808004 334.604079 
L 371.863863 285.754665 
L 374.919723 353.222836 
L 377.975583 337.882803 
L 381.031443 326.634168 
L 384.087303 341.491539 
L 387.143162 380.266457 
L 390.199022 441.808328 
L 393.254882 370.559652 
L 396.310742 310.614311 
L 399.366602 216.596762 
L 402.422461 341.278131 
L 405.478321 370.550837 
L 408.534181 320.76184 
L 411.590041 450.767202 
L 414.645901 302.858691 
L 417.70176 436.118218 
L 420.75762 251.625789 
L 423.81348 365.663787 
L 426.86934 314.678061 
L 429.9252 426.357512 
L 432.981059 292.621347 
L 436.036919 203.239427 
L 439.092779 204.344755 
L 442.148639 270.141419 
L 445.204499 264.629138 
L 448.260359 368.401333 
L 451.316218 200.538379 
L 454.372078 404.701565 
L 457.427938 263.174593 
L 460.483798 366.451508 
L 463.539658 404.795256 
L 466.595517 379.094549 
L 469.651377 321.105116 
L 472.707237 304.840529 
L 475.763097 422.802021 
L 478.818957 391.747907 
L 481.874816 424.835052 
L 484.930676 285.052894 
L 487.986536 293.9559 
L 491.042396 434.425778 
L 494.098256 204.033088 
L 497.154115 381.849867 
L 500.209975 288.62308 
L 503.265835 425.518502 
L 506.321695 382.940214 
L 509.377555 393.215118 
L 512.433414 224.374783 
L 515.489274 267.304851 
L 518.545134 267.756095 
L 521.600994 373.388515 
L 524.656854 130.72081 
L 527.712713 364.366973 
L 530.768573 300.110816 
L 533.824433 303.519932 
L 536.880293 438.151154 
L 539.936153 286.745036 
L 542.992012 208.905121 
L 546.047872 238.355048 
L 549.103732 310.446037 
L 552.159592 425.664436 
L 555.215452 362.484456 
L 558.271311 244.340974 
L 561.327171 243.982335 
L 564.383031 299.1615 
L 567.438891 247.626782 
L 570.494751 298.272466 
L 573.55061 111.5364 
L 576.60647 204.023331 
L 579.66233 347.685959 
L 582.71819 424.798935 
L 585.77405 395.971712 
L 588.829909 158.295769 
L 591.885769 149.168477 
L 594.941629 87.408869 
L 597.997489 396.430459 
L 601.053349 204.238409 
L 604.109208 77.957266 
L 607.165068 392.643059 
L 610.220928 418.573396 
L 613.276788 422.341437 
L 619.388507 254.711715 
L 625.500227 425.290864 
L 628.556087 383.81385 
L 631.611947 291.811894 
L 634.667806 260.446947 
L 637.723666 398.178767 
L 640.779526 354.364901 
L 643.835386 402.151139 
L 646.891246 220.020239 
L 649.947105 210.269231 
L 653.002965 343.391769 
L 656.058825 393.619964 
L 659.114685 300.621841 
L 662.170545 365.740255 
L 665.226405 325.478267 
L 668.282264 392.342914 
L 671.338124 317.580088 
L 674.393984 196.056402 
L 677.449844 388.829038 
L 680.505704 402.187506 
L 683.561563 307.905916 
L 686.617423 173.628931 
L 689.673283 329.823101 
L 692.729143 304.196106 
L 695.785003 255.928209 
L 698.840862 430.034581 
L 701.896722 298.047631 
L 704.952582 306.562394 
L 708.008442 379.610882 
L 711.064302 246.776203 
L 714.120161 268.74866 
L 717.176021 176.672324 
L 720.231881 330.603212 
L 723.287741 376.862577 
L 726.343601 308.525602 
L 729.39946 299.77453 
L 732.45532 263.141172 
L 735.51118 219.161024 
L 738.56704 246.555615 
L 741.6229 191.584896 
L 744.678759 303.408719 
L 747.734619 307.326451 
L 750.790479 415.218634 
L 753.846339 415.329859 
L 756.902199 352.924861 
L 759.958058 421.26978 
L 763.013918 284.298857 
L 766.069778 330.710847 
L 769.125638 286.999642 
L 772.181498 340.131915 
L 775.237357 214.879668 
L 778.293217 361.354819 
L 781.349077 303.950971 
L 784.404937 225.181993 
L 787.460797 358.921808 
L 790.516656 306.17074 
L 793.572516 348.141593 
L 796.628376 348.651974 
L 799.684236 355.411212 
L 802.740096 228.318946 
L 805.795955 266.677222 
L 808.851815 378.815861 
L 811.907675 394.641775 
L 814.963535 274.228833 
L 818.019395 230.180531 
L 821.075254 289.956917 
L 824.131114 285.723963 
L 827.186974 347.043421 
L 830.242834 381.01013 
L 833.298694 316.264524 
L 836.354553 232.682745 
L 839.410413 353.724438 
L 842.466273 414.545764 
L 845.522133 290.936529 
L 848.577993 337.54969 
L 851.633852 363.673015 
L 854.689712 349.075116 
L 857.745572 353.721289 
L 857.745572 353.721289 
" clip-path="url(#p11e2ca5c83)" style="fill: none; stroke-dasharray: 7.4,3.2; stroke-dashoffset: 0; stroke: #ffa500; stroke-width: 2"/>
   </g>
   <g id="patch_3">
    <path d="M 58.791027 484.397187 
L 58.791027 40.877187 
" style="fill: none; stroke: #000000; stroke-width: 0.8; stroke-linejoin: miter; stroke-linecap: square"/>
   </g>
   <g id="patch_4">
    <path d="M 895.791027 484.397187 
L 895.791027 40.877187 
" style="fill: none; stroke: #000000; stroke-width: 0.8; stroke-linejoin: miter; stroke-linecap: square"/>
   </g>
   <g id="patch_5">
    <path d="M 58.791027 484.397187 
L 895.791027 484.397187 
" style="fill: none; stroke: #000000; stroke-width: 0.8; stroke-linejoin: miter; stroke-linecap: square"/>
   </g>
   <g id="patch_6">
    <path d="M 58.791027 40.877187 
L 895.791027 40.877187 
" style="fill: none; stroke: #000000; stroke-width: 0.8; stroke-linejoin: miter; stroke-linecap: square"/>
   </g>
   <g id="text_18">
    <!-- Ten-meter eastward wind speed two steps forward prediction: RMSES -->
    <g transform="translate(164.638058 20.877187) scale(0.18 -0.18)">
     <defs>
      <path id="DejaVuSans-54" d="M -19 4666 
L 3928 4666 
L 3928 4134 
L 2272 4134 
L 2272 0 
L 1638 0 
L 1638 4134 
L -19 4134 
L -19 4666 
z
" transform="scale(0.015625)"/>
      <path id="DejaVuSans-6d" d="M 3328 2828 
Q 3544 3216 3844 3400 
Q 4144 3584 4550 3584 
Q 5097 3584 5394 3201 
Q 5691 2819 5691 2113 
L 5691 0 
L 5113 0 
L 5113 2094 
Q 5113 2597 4934 2840 
Q 4756 3084 4391 3084 
Q 3944 3084 3684 2787 
Q 3425 2491 3425 1978 
L 3425 0 
L 2847 0 
L 2847 2094 
Q 2847 2600 2669 2842 
Q 2491 3084 2119 3084 
Q 1678 3084 1418 2786 
Q 1159 2488 1159 1978 
L 1159 0 
L 581 0 
L 581 3500 
L 1159 3500 
L 1159 2956 
Q 1356 3278 1631 3431 
Q 1906 3584 2284 3584 
Q 2666 3584 2933 3390 
Q 3200 3197 3328 2828 
z
" transform="scale(0.015625)"/>
      <path id="DejaVuSans-77" d="M 269 3500 
L 844 3500 
L 1563 769 
L 2278 3500 
L 2956 3500 
L 3675 769 
L 4391 3500 
L 4966 3500 
L 4050 0 
L 3372 0 
L 2619 2869 
L 1863 0 
L 1184 0 
L 269 3500 
z
" transform="scale(0.015625)"/>
      <path id="DejaVuSans-69" d="M 603 3500 
L 1178 3500 
L 1178 0 
L 603 0 
L 603 3500 
z
M 603 4863 
L 1178 4863 
L 1178 4134 
L 603 4134 
L 603 4863 
z
" transform="scale(0.015625)"/>
      <path id="DejaVuSans-70" d="M 1159 525 
L 1159 -1331 
L 581 -1331 
L 581 3500 
L 1159 3500 
L 1159 2969 
Q 1341 3281 1617 3432 
Q 1894 3584 2278 3584 
Q 2916 3584 3314 3078 
Q 3713 2572 3713 1747 
Q 3713 922 3314 415 
Q 2916 -91 2278 -91 
Q 1894 -91 1617 61 
Q 1341 213 1159 525 
z
M 3116 1747 
Q 3116 2381 2855 2742 
Q 2594 3103 2138 3103 
Q 1681 3103 1420 2742 
Q 1159 2381 1159 1747 
Q 1159 1113 1420 752 
Q 1681 391 2138 391 
Q 2594 391 2855 752 
Q 3116 1113 3116 1747 
z
" transform="scale(0.015625)"/>
      <path id="DejaVuSans-66" d="M 2375 4863 
L 2375 4384 
L 1825 4384 
Q 1516 4384 1395 4259 
Q 1275 4134 1275 3809 
L 1275 3500 
L 2222 3500 
L 2222 3053 
L 1275 3053 
L 1275 0 
L 697 0 
L 697 3053 
L 147 3053 
L 147 3500 
L 697 3500 
L 697 3744 
Q 697 4328 969 4595 
Q 1241 4863 1831 4863 
L 2375 4863 
z
" transform="scale(0.015625)"/>
     </defs>
     <use xlink:href="#DejaVuSans-54"/>
     <use xlink:href="#DejaVuSans-65" transform="translate(44.083984 0)"/>
     <use xlink:href="#DejaVuSans-6e" transform="translate(105.607422 0)"/>
     <use xlink:href="#DejaVuSans-2d" transform="translate(168.986328 0)"/>
     <use xlink:href="#DejaVuSans-6d" transform="translate(205.070312 0)"/>
     <use xlink:href="#DejaVuSans-65" transform="translate(302.482422 0)"/>
     <use xlink:href="#DejaVuSans-74" transform="translate(364.005859 0)"/>
     <use xlink:href="#DejaVuSans-65" transform="translate(403.214844 0)"/>
     <use xlink:href="#DejaVuSans-72" transform="translate(464.738281 0)"/>
     <use xlink:href="#DejaVuSans-20" transform="translate(505.851562 0)"/>
     <use xlink:href="#DejaVuSans-65" transform="translate(537.638672 0)"/>
     <use xlink:href="#DejaVuSans-61" transform="translate(599.162109 0)"/>
     <use xlink:href="#DejaVuSans-73" transform="translate(660.441406 0)"/>
     <use xlink:href="#DejaVuSans-74" transform="translate(712.541016 0)"/>
     <use xlink:href="#DejaVuSans-77" transform="translate(751.75 0)"/>
     <use xlink:href="#DejaVuSans-61" transform="translate(833.537109 0)"/>
     <use xlink:href="#DejaVuSans-72" transform="translate(894.816406 0)"/>
     <use xlink:href="#DejaVuSans-64" transform="translate(934.179688 0)"/>
     <use xlink:href="#DejaVuSans-20" transform="translate(997.65625 0)"/>
     <use xlink:href="#DejaVuSans-77" transform="translate(1029.443359 0)"/>
     <use xlink:href="#DejaVuSans-69" transform="translate(1111.230469 0)"/>
     <use xlink:href="#DejaVuSans-6e" transform="translate(1139.013672 0)"/>
     <use xlink:href="#DejaVuSans-64" transform="translate(1202.392578 0)"/>
     <use xlink:href="#DejaVuSans-20" transform="translate(1265.869141 0)"/>
     <use xlink:href="#DejaVuSans-73" transform="translate(1297.65625 0)"/>
     <use xlink:href="#DejaVuSans-70" transform="translate(1349.755859 0)"/>
     <use xlink:href="#DejaVuSans-65" transform="translate(1413.232422 0)"/>
     <use xlink:href="#DejaVuSans-65" transform="translate(1474.755859 0)"/>
     <use xlink:href="#DejaVuSans-64" transform="translate(1536.279297 0)"/>
     <use xlink:href="#DejaVuSans-20" transform="translate(1599.755859 0)"/>
     <use xlink:href="#DejaVuSans-74" transform="translate(1631.542969 0)"/>
     <use xlink:href="#DejaVuSans-77" transform="translate(1670.751953 0)"/>
     <use xlink:href="#DejaVuSans-6f" transform="translate(1752.539062 0)"/>
     <use xlink:href="#DejaVuSans-20" transform="translate(1813.720703 0)"/>
     <use xlink:href="#DejaVuSans-73" transform="translate(1845.507812 0)"/>
     <use xlink:href="#DejaVuSans-74" transform="translate(1897.607422 0)"/>
     <use xlink:href="#DejaVuSans-65" transform="translate(1936.816406 0)"/>
     <use xlink:href="#DejaVuSans-70" transform="translate(1998.339844 0)"/>
     <use xlink:href="#DejaVuSans-73" transform="translate(2061.816406 0)"/>
     <use xlink:href="#DejaVuSans-20" transform="translate(2113.916016 0)"/>
     <use xlink:href="#DejaVuSans-66" transform="translate(2145.703125 0)"/>
     <use xlink:href="#DejaVuSans-6f" transform="translate(2180.908203 0)"/>
     <use xlink:href="#DejaVuSans-72" transform="translate(2242.089844 0)"/>
     <use xlink:href="#DejaVuSans-77" transform="translate(2283.203125 0)"/>
     <use xlink:href="#DejaVuSans-61" transform="translate(2364.990234 0)"/>
     <use xlink:href="#DejaVuSans-72" transform="translate(2426.269531 0)"/>
     <use xlink:href="#DejaVuSans-64" transform="translate(2465.632812 0)"/>
     <use xlink:href="#DejaVuSans-20" transform="translate(2529.109375 0)"/>
     <use xlink:href="#DejaVuSans-70" transform="translate(2560.896484 0)"/>
     <use xlink:href="#DejaVuSans-72" transform="translate(2624.373047 0)"/>
     <use xlink:href="#DejaVuSans-65" transform="translate(2663.236328 0)"/>
     <use xlink:href="#DejaVuSans-64" transform="translate(2724.759766 0)"/>
     <use xlink:href="#DejaVuSans-69" transform="translate(2788.236328 0)"/>
     <use xlink:href="#DejaVuSans-63" transform="translate(2816.019531 0)"/>
     <use xlink:href="#DejaVuSans-74" transform="translate(2871 0)"/>
     <use xlink:href="#DejaVuSans-69" transform="translate(2910.208984 0)"/>
     <use xlink:href="#DejaVuSans-6f" transform="translate(2937.992188 0)"/>
     <use xlink:href="#DejaVuSans-6e" transform="translate(2999.173828 0)"/>
     <use xlink:href="#DejaVuSans-3a" transform="translate(3062.552734 0)"/>
     <use xlink:href="#DejaVuSans-20" transform="translate(3096.244141 0)"/>
     <use xlink:href="#DejaVuSans-52" transform="translate(3128.03125 0)"/>
     <use xlink:href="#DejaVuSans-4d" transform="translate(3197.513672 0)"/>
     <use xlink:href="#DejaVuSans-53" transform="translate(3283.792969 0)"/>
     <use xlink:href="#DejaVuSans-45" transform="translate(3347.269531 0)"/>
     <use xlink:href="#DejaVuSans-53" transform="translate(3410.453125 0)"/>
    </g>
   </g>
   <g id="legend_1">
    <g id="text_19">
     <!-- Forecast Horizon -->
     <g transform="translate(1020.26087 65.634687) scale(0.16 -0.16)">
      <defs>
       <path id="DejaVuSans-48" d="M 628 4666 
L 1259 4666 
L 1259 2753 
L 3553 2753 
L 3553 4666 
L 4184 4666 
L 4184 0 
L 3553 0 
L 3553 2222 
L 1259 2222 
L 1259 0 
L 628 0 
L 628 4666 
z
" transform="scale(0.015625)"/>
       <path id="DejaVuSans-7a" d="M 353 3500 
L 3084 3500 
L 3084 2975 
L 922 459 
L 3084 459 
L 3084 0 
L 275 0 
L 275 525 
L 2438 3041 
L 353 3041 
L 353 3500 
z
" transform="scale(0.015625)"/>
      </defs>
      <use xlink:href="#DejaVuSans-46"/>
      <use xlink:href="#DejaVuSans-6f" transform="translate(53.894531 0)"/>
      <use xlink:href="#DejaVuSans-72" transform="translate(115.076172 0)"/>
      <use xlink:href="#DejaVuSans-65" transform="translate(153.939453 0)"/>
      <use xlink:href="#DejaVuSans-63" transform="translate(215.462891 0)"/>
      <use xlink:href="#DejaVuSans-61" transform="translate(270.443359 0)"/>
      <use xlink:href="#DejaVuSans-73" transform="translate(331.722656 0)"/>
      <use xlink:href="#DejaVuSans-74" transform="translate(383.822266 0)"/>
      <use xlink:href="#DejaVuSans-20" transform="translate(423.03125 0)"/>
      <use xlink:href="#DejaVuSans-48" transform="translate(454.818359 0)"/>
      <use xlink:href="#DejaVuSans-6f" transform="translate(530.013672 0)"/>
      <use xlink:href="#DejaVuSans-72" transform="translate(591.195312 0)"/>
      <use xlink:href="#DejaVuSans-69" transform="translate(632.308594 0)"/>
      <use xlink:href="#DejaVuSans-7a" transform="translate(660.091797 0)"/>
      <use xlink:href="#DejaVuSans-6f" transform="translate(712.582031 0)"/>
      <use xlink:href="#DejaVuSans-6e" transform="translate(773.763672 0)"/>
     </g>
    </g>
    <g id="line2d_20">
     <path d="M 950.241027 81.7 
L 964.241027 81.7 
L 978.241027 81.7 
" style="fill: none; stroke: #0000ff; stroke-width: 2; stroke-linecap: square"/>
    </g>
    <g id="text_20">
     <!-- Global RMSE (6h Forecast) -->
     <g transform="translate(989.441027 86.6) scale(0.14 -0.14)">
      <defs>
       <path id="DejaVuSans-47" d="M 3809 666 
L 3809 1919 
L 2778 1919 
L 2778 2438 
L 4434 2438 
L 4434 434 
Q 4069 175 3628 42 
Q 3188 -91 2688 -91 
Q 1594 -91 976 548 
Q 359 1188 359 2328 
Q 359 3472 976 4111 
Q 1594 4750 2688 4750 
Q 3144 4750 3555 4637 
Q 3966 4525 4313 4306 
L 4313 3634 
Q 3963 3931 3569 4081 
Q 3175 4231 2741 4231 
Q 1884 4231 1454 3753 
Q 1025 3275 1025 2328 
Q 1025 1384 1454 906 
Q 1884 428 2741 428 
Q 3075 428 3337 486 
Q 3600 544 3809 666 
z
" transform="scale(0.015625)"/>
       <path id="DejaVuSans-6c" d="M 603 4863 
L 1178 4863 
L 1178 0 
L 603 0 
L 603 4863 
z
" transform="scale(0.015625)"/>
       <path id="DejaVuSans-62" d="M 3116 1747 
Q 3116 2381 2855 2742 
Q 2594 3103 2138 3103 
Q 1681 3103 1420 2742 
Q 1159 2381 1159 1747 
Q 1159 1113 1420 752 
Q 1681 391 2138 391 
Q 2594 391 2855 752 
Q 3116 1113 3116 1747 
z
M 1159 2969 
Q 1341 3281 1617 3432 
Q 1894 3584 2278 3584 
Q 2916 3584 3314 3078 
Q 3713 2572 3713 1747 
Q 3713 922 3314 415 
Q 2916 -91 2278 -91 
Q 1894 -91 1617 61 
Q 1341 213 1159 525 
L 1159 0 
L 581 0 
L 581 4863 
L 1159 4863 
L 1159 2969 
z
" transform="scale(0.015625)"/>
       <path id="DejaVuSans-68" d="M 3513 2113 
L 3513 0 
L 2938 0 
L 2938 2094 
Q 2938 2591 2744 2837 
Q 2550 3084 2163 3084 
Q 1697 3084 1428 2787 
Q 1159 2491 1159 1978 
L 1159 0 
L 581 0 
L 581 4863 
L 1159 4863 
L 1159 2956 
Q 1366 3272 1645 3428 
Q 1925 3584 2291 3584 
Q 2894 3584 3203 3211 
Q 3513 2838 3513 2113 
z
" transform="scale(0.015625)"/>
      </defs>
      <use xlink:href="#DejaVuSans-47"/>
      <use xlink:href="#DejaVuSans-6c" transform="translate(77.490234 0)"/>
      <use xlink:href="#DejaVuSans-6f" transform="translate(105.273438 0)"/>
      <use xlink:href="#DejaVuSans-62" transform="translate(166.455078 0)"/>
      <use xlink:href="#DejaVuSans-61" transform="translate(229.931641 0)"/>
      <use xlink:href="#DejaVuSans-6c" transform="translate(291.210938 0)"/>
      <use xlink:href="#DejaVuSans-20" transform="translate(318.994141 0)"/>
      <use xlink:href="#DejaVuSans-52" transform="translate(350.78125 0)"/>
      <use xlink:href="#DejaVuSans-4d" transform="translate(420.263672 0)"/>
      <use xlink:href="#DejaVuSans-53" transform="translate(506.542969 0)"/>
      <use xlink:href="#DejaVuSans-45" transform="translate(570.019531 0)"/>
      <use xlink:href="#DejaVuSans-20" transform="translate(633.203125 0)"/>
      <use xlink:href="#DejaVuSans-28" transform="translate(664.990234 0)"/>
      <use xlink:href="#DejaVuSans-36" transform="translate(704.003906 0)"/>
      <use xlink:href="#DejaVuSans-68" transform="translate(767.626953 0)"/>
      <use xlink:href="#DejaVuSans-20" transform="translate(831.005859 0)"/>
      <use xlink:href="#DejaVuSans-46" transform="translate(862.792969 0)"/>
      <use xlink:href="#DejaVuSans-6f" transform="translate(916.6875 0)"/>
      <use xlink:href="#DejaVuSans-72" transform="translate(977.869141 0)"/>
      <use xlink:href="#DejaVuSans-65" transform="translate(1016.732422 0)"/>
      <use xlink:href="#DejaVuSans-63" transform="translate(1078.255859 0)"/>
      <use xlink:href="#DejaVuSans-61" transform="translate(1133.236328 0)"/>
      <use xlink:href="#DejaVuSans-73" transform="translate(1194.515625 0)"/>
      <use xlink:href="#DejaVuSans-74" transform="translate(1246.615234 0)"/>
      <use xlink:href="#DejaVuSans-29" transform="translate(1285.824219 0)"/>
     </g>
    </g>
    <g id="line2d_21">
     <path d="M 950.241027 102.249375 
L 964.241027 102.249375 
L 978.241027 102.249375 
" style="fill: none; stroke: #ffa500; stroke-width: 2; stroke-linecap: square"/>
    </g>
    <g id="text_21">
     <!-- South Africa RMSE (6h Forecast) -->
     <g transform="translate(989.441027 107.149375) scale(0.14 -0.14)">
      <defs>
       <path id="DejaVuSans-41" d="M 2188 4044 
L 1331 1722 
L 3047 1722 
L 2188 4044 
z
M 1831 4666 
L 2547 4666 
L 4325 0 
L 3669 0 
L 3244 1197 
L 1141 1197 
L 716 0 
L 50 0 
L 1831 4666 
z
" transform="scale(0.015625)"/>
      </defs>
      <use xlink:href="#DejaVuSans-53"/>
      <use xlink:href="#DejaVuSans-6f" transform="translate(63.476562 0)"/>
      <use xlink:href="#DejaVuSans-75" transform="translate(124.658203 0)"/>
      <use xlink:href="#DejaVuSans-74" transform="translate(188.037109 0)"/>
      <use xlink:href="#DejaVuSans-68" transform="translate(227.246094 0)"/>
      <use xlink:href="#DejaVuSans-20" transform="translate(290.625 0)"/>
      <use xlink:href="#DejaVuSans-41" transform="translate(322.412109 0)"/>
      <use xlink:href="#DejaVuSans-66" transform="translate(387.195312 0)"/>
      <use xlink:href="#DejaVuSans-72" transform="translate(422.400391 0)"/>
      <use xlink:href="#DejaVuSans-69" transform="translate(463.513672 0)"/>
      <use xlink:href="#DejaVuSans-63" transform="translate(491.296875 0)"/>
      <use xlink:href="#DejaVuSans-61" transform="translate(546.277344 0)"/>
      <use xlink:href="#DejaVuSans-20" transform="translate(607.556641 0)"/>
      <use xlink:href="#DejaVuSans-52" transform="translate(639.34375 0)"/>
      <use xlink:href="#DejaVuSans-4d" transform="translate(708.826172 0)"/>
      <use xlink:href="#DejaVuSans-53" transform="translate(795.105469 0)"/>
      <use xlink:href="#DejaVuSans-45" transform="translate(858.582031 0)"/>
      <use xlink:href="#DejaVuSans-20" transform="translate(921.765625 0)"/>
      <use xlink:href="#DejaVuSans-28" transform="translate(953.552734 0)"/>
      <use xlink:href="#DejaVuSans-36" transform="translate(992.566406 0)"/>
      <use xlink:href="#DejaVuSans-68" transform="translate(1056.189453 0)"/>
      <use xlink:href="#DejaVuSans-20" transform="translate(1119.568359 0)"/>
      <use xlink:href="#DejaVuSans-46" transform="translate(1151.355469 0)"/>
      <use xlink:href="#DejaVuSans-6f" transform="translate(1205.25 0)"/>
      <use xlink:href="#DejaVuSans-72" transform="translate(1266.431641 0)"/>
      <use xlink:href="#DejaVuSans-65" transform="translate(1305.294922 0)"/>
      <use xlink:href="#DejaVuSans-63" transform="translate(1366.818359 0)"/>
      <use xlink:href="#DejaVuSans-61" transform="translate(1421.798828 0)"/>
      <use xlink:href="#DejaVuSans-73" transform="translate(1483.078125 0)"/>
      <use xlink:href="#DejaVuSans-74" transform="translate(1535.177734 0)"/>
      <use xlink:href="#DejaVuSans-29" transform="translate(1574.386719 0)"/>
     </g>
    </g>
    <g id="line2d_22">
     <path d="M 950.241027 122.79875 
L 964.241027 122.79875 
L 978.241027 122.79875 
" style="fill: none; stroke-dasharray: 7.4,3.2; stroke-dashoffset: 0; stroke: #0000ff; stroke-width: 2"/>
    </g>
    <g id="text_22">
     <!-- Global RMSE (12h Forecast) -->
     <g transform="translate(989.441027 127.69875) scale(0.14 -0.14)">
      <use xlink:href="#DejaVuSans-47"/>
      <use xlink:href="#DejaVuSans-6c" transform="translate(77.490234 0)"/>
      <use xlink:href="#DejaVuSans-6f" transform="translate(105.273438 0)"/>
      <use xlink:href="#DejaVuSans-62" transform="translate(166.455078 0)"/>
      <use xlink:href="#DejaVuSans-61" transform="translate(229.931641 0)"/>
      <use xlink:href="#DejaVuSans-6c" transform="translate(291.210938 0)"/>
      <use xlink:href="#DejaVuSans-20" transform="translate(318.994141 0)"/>
      <use xlink:href="#DejaVuSans-52" transform="translate(350.78125 0)"/>
      <use xlink:href="#DejaVuSans-4d" transform="translate(420.263672 0)"/>
      <use xlink:href="#DejaVuSans-53" transform="translate(506.542969 0)"/>
      <use xlink:href="#DejaVuSans-45" transform="translate(570.019531 0)"/>
      <use xlink:href="#DejaVuSans-20" transform="translate(633.203125 0)"/>
      <use xlink:href="#DejaVuSans-28" transform="translate(664.990234 0)"/>
      <use xlink:href="#DejaVuSans-31" transform="translate(704.003906 0)"/>
      <use xlink:href="#DejaVuSans-32" transform="translate(767.626953 0)"/>
      <use xlink:href="#DejaVuSans-68" transform="translate(831.25 0)"/>
      <use xlink:href="#DejaVuSans-20" transform="translate(894.628906 0)"/>
      <use xlink:href="#DejaVuSans-46" transform="translate(926.416016 0)"/>
      <use xlink:href="#DejaVuSans-6f" transform="translate(980.310547 0)"/>
      <use xlink:href="#DejaVuSans-72" transform="translate(1041.492188 0)"/>
      <use xlink:href="#DejaVuSans-65" transform="translate(1080.355469 0)"/>
      <use xlink:href="#DejaVuSans-63" transform="translate(1141.878906 0)"/>
      <use xlink:href="#DejaVuSans-61" transform="translate(1196.859375 0)"/>
      <use xlink:href="#DejaVuSans-73" transform="translate(1258.138672 0)"/>
      <use xlink:href="#DejaVuSans-74" transform="translate(1310.238281 0)"/>
      <use xlink:href="#DejaVuSans-29" transform="translate(1349.447266 0)"/>
     </g>
    </g>
    <g id="line2d_23">
     <path d="M 950.241027 143.348125 
L 964.241027 143.348125 
L 978.241027 143.348125 
" style="fill: none; stroke-dasharray: 7.4,3.2; stroke-dashoffset: 0; stroke: #ffa500; stroke-width: 2"/>
    </g>
    <g id="text_23">
     <!-- South Africa RMSE (12h Forecast) -->
     <g transform="translate(989.441027 148.248125) scale(0.14 -0.14)">
      <use xlink:href="#DejaVuSans-53"/>
      <use xlink:href="#DejaVuSans-6f" transform="translate(63.476562 0)"/>
      <use xlink:href="#DejaVuSans-75" transform="translate(124.658203 0)"/>
      <use xlink:href="#DejaVuSans-74" transform="translate(188.037109 0)"/>
      <use xlink:href="#DejaVuSans-68" transform="translate(227.246094 0)"/>
      <use xlink:href="#DejaVuSans-20" transform="translate(290.625 0)"/>
      <use xlink:href="#DejaVuSans-41" transform="translate(322.412109 0)"/>
      <use xlink:href="#DejaVuSans-66" transform="translate(387.195312 0)"/>
      <use xlink:href="#DejaVuSans-72" transform="translate(422.400391 0)"/>
      <use xlink:href="#DejaVuSans-69" transform="translate(463.513672 0)"/>
      <use xlink:href="#DejaVuSans-63" transform="translate(491.296875 0)"/>
      <use xlink:href="#DejaVuSans-61" transform="translate(546.277344 0)"/>
      <use xlink:href="#DejaVuSans-20" transform="translate(607.556641 0)"/>
      <use xlink:href="#DejaVuSans-52" transform="translate(639.34375 0)"/>
      <use xlink:href="#DejaVuSans-4d" transform="translate(708.826172 0)"/>
      <use xlink:href="#DejaVuSans-53" transform="translate(795.105469 0)"/>
      <use xlink:href="#DejaVuSans-45" transform="translate(858.582031 0)"/>
      <use xlink:href="#DejaVuSans-20" transform="translate(921.765625 0)"/>
      <use xlink:href="#DejaVuSans-28" transform="translate(953.552734 0)"/>
      <use xlink:href="#DejaVuSans-31" transform="translate(992.566406 0)"/>
      <use xlink:href="#DejaVuSans-32" transform="translate(1056.189453 0)"/>
      <use xlink:href="#DejaVuSans-68" transform="translate(1119.8125 0)"/>
      <use xlink:href="#DejaVuSans-20" transform="translate(1183.191406 0)"/>
      <use xlink:href="#DejaVuSans-46" transform="translate(1214.978516 0)"/>
      <use xlink:href="#DejaVuSans-6f" transform="translate(1268.873047 0)"/>
      <use xlink:href="#DejaVuSans-72" transform="translate(1330.054688 0)"/>
      <use xlink:href="#DejaVuSans-65" transform="translate(1368.917969 0)"/>
      <use xlink:href="#DejaVuSans-63" transform="translate(1430.441406 0)"/>
      <use xlink:href="#DejaVuSans-61" transform="translate(1485.421875 0)"/>
      <use xlink:href="#DejaVuSans-73" transform="translate(1546.701172 0)"/>
      <use xlink:href="#DejaVuSans-74" transform="translate(1598.800781 0)"/>
      <use xlink:href="#DejaVuSans-29" transform="translate(1638.009766 0)"/>
     </g>
    </g>
   </g>
  </g>
 </g>
 <defs>
  <clipPath id="p11e2ca5c83">
   <rect x="58.791027" y="40.877187" width="837" height="443.52"/>
  </clipPath>
 </defs>
</svg>
