<?xml version="1.0" encoding="utf-8" standalone="no"?>
<!DOCTYPE svg PUBLIC "-//W3C//DTD SVG 1.1//EN"
  "http://www.w3.org/Graphics/SVG/1.1/DTD/svg11.dtd">
<svg xmlns:xlink="http://www.w3.org/1999/xlink" width="1104.716898pt" height="564.68004pt" viewBox="0 0 1104.716898 564.68004" xmlns="http://www.w3.org/2000/svg" version="1.1">
 <metadata>
  <rdf:RDF xmlns:dc="http://purl.org/dc/elements/1.1/" xmlns:cc="http://creativecommons.org/ns#" xmlns:rdf="http://www.w3.org/1999/02/22-rdf-syntax-ns#">
   <cc:Work>
    <dc:type rdf:resource="http://purl.org/dc/dcmitype/StillImage"/>
    <dc:date>2025-05-10T17:30:12.070230</dc:date>
    <dc:format>image/svg+xml</dc:format>
    <dc:creator>
     <cc:Agent>
      <dc:title>Matplotlib v3.10.0, https://matplotlib.org/</dc:title>
     </cc:Agent>
    </dc:creator>
   </cc:Work>
  </rdf:RDF>
 </metadata>
 <defs>
  <style type="text/css">*{stroke-linejoin: round; stroke-linecap: butt}</style>
 </defs>
 <g id="figure_1">
  <g id="patch_1">
   <path d="M 0 564.68004 
L 1104.716898 564.68004 
L 1104.716898 0 
L 0 0 
z
" style="fill: #ffffff"/>
  </g>
  <g id="axes_1">
   <g id="patch_2">
    <path d="M 102.25471 450.72 
L 771.85471 450.72 
L 771.85471 7.2 
L 102.25471 7.2 
z
" style="fill: #ffffff"/>
   </g>
   <g id="matplotlib.axis_1">
    <g id="xtick_1">
     <g id="line2d_1">
      <defs>
       <path id="m34e7c8194f" d="M 0 0 
L 0 3.5 
" style="stroke: #000000; stroke-width: 0.8"/>
      </defs>
      <g>
       <use xlink:href="#m34e7c8194f" x="132.691074" y="450.72" style="stroke: #000000; stroke-width: 0.8"/>
      </g>
     </g>
     <g id="text_1">
      <!-- 2022-09-01 (18:00) -->
      <g transform="translate(12.518906 535.473553) rotate(-30) scale(0.14 -0.14)">
       <defs>
        <path id="DejaVuSans-32" d="M 1228 531 
L 3431 531 
L 3431 0 
L 469 0 
L 469 531 
Q 828 903 1448 1529 
Q 2069 2156 2228 2338 
Q 2531 2678 2651 2914 
Q 2772 3150 2772 3378 
Q 2772 3750 2511 3984 
Q 2250 4219 1831 4219 
Q 1534 4219 1204 4116 
Q 875 4013 500 3803 
L 500 4441 
Q 881 4594 1212 4672 
Q 1544 4750 1819 4750 
Q 2544 4750 2975 4387 
Q 3406 4025 3406 3419 
Q 3406 3131 3298 2873 
Q 3191 2616 2906 2266 
Q 2828 2175 2409 1742 
Q 1991 1309 1228 531 
z
" transform="scale(0.015625)"/>
        <path id="DejaVuSans-30" d="M 2034 4250 
Q 1547 4250 1301 3770 
Q 1056 3291 1056 2328 
Q 1056 1369 1301 889 
Q 1547 409 2034 409 
Q 2525 409 2770 889 
Q 3016 1369 3016 2328 
Q 3016 3291 2770 3770 
Q 2525 4250 2034 4250 
z
M 2034 4750 
Q 2819 4750 3233 4129 
Q 3647 3509 3647 2328 
Q 3647 1150 3233 529 
Q 2819 -91 2034 -91 
Q 1250 -91 836 529 
Q 422 1150 422 2328 
Q 422 3509 836 4129 
Q 1250 4750 2034 4750 
z
" transform="scale(0.015625)"/>
        <path id="DejaVuSans-2d" d="M 313 2009 
L 1997 2009 
L 1997 1497 
L 313 1497 
L 313 2009 
z
" transform="scale(0.015625)"/>
        <path id="DejaVuSans-39" d="M 703 97 
L 703 672 
Q 941 559 1184 500 
Q 1428 441 1663 441 
Q 2288 441 2617 861 
Q 2947 1281 2994 2138 
Q 2813 1869 2534 1725 
Q 2256 1581 1919 1581 
Q 1219 1581 811 2004 
Q 403 2428 403 3163 
Q 403 3881 828 4315 
Q 1253 4750 1959 4750 
Q 2769 4750 3195 4129 
Q 3622 3509 3622 2328 
Q 3622 1225 3098 567 
Q 2575 -91 1691 -91 
Q 1453 -91 1209 -44 
Q 966 3 703 97 
z
M 1959 2075 
Q 2384 2075 2632 2365 
Q 2881 2656 2881 3163 
Q 2881 3666 2632 3958 
Q 2384 4250 1959 4250 
Q 1534 4250 1286 3958 
Q 1038 3666 1038 3163 
Q 1038 2656 1286 2365 
Q 1534 2075 1959 2075 
z
" transform="scale(0.015625)"/>
        <path id="DejaVuSans-31" d="M 794 531 
L 1825 531 
L 1825 4091 
L 703 3866 
L 703 4441 
L 1819 4666 
L 2450 4666 
L 2450 531 
L 3481 531 
L 3481 0 
L 794 0 
L 794 531 
z
" transform="scale(0.015625)"/>
        <path id="DejaVuSans-20" transform="scale(0.015625)"/>
        <path id="DejaVuSans-28" d="M 1984 4856 
Q 1566 4138 1362 3434 
Q 1159 2731 1159 2009 
Q 1159 1288 1364 580 
Q 1569 -128 1984 -844 
L 1484 -844 
Q 1016 -109 783 600 
Q 550 1309 550 2009 
Q 550 2706 781 3412 
Q 1013 4119 1484 4856 
L 1984 4856 
z
" transform="scale(0.015625)"/>
        <path id="DejaVuSans-38" d="M 2034 2216 
Q 1584 2216 1326 1975 
Q 1069 1734 1069 1313 
Q 1069 891 1326 650 
Q 1584 409 2034 409 
Q 2484 409 2743 651 
Q 3003 894 3003 1313 
Q 3003 1734 2745 1975 
Q 2488 2216 2034 2216 
z
M 1403 2484 
Q 997 2584 770 2862 
Q 544 3141 544 3541 
Q 544 4100 942 4425 
Q 1341 4750 2034 4750 
Q 2731 4750 3128 4425 
Q 3525 4100 3525 3541 
Q 3525 3141 3298 2862 
Q 3072 2584 2669 2484 
Q 3125 2378 3379 2068 
Q 3634 1759 3634 1313 
Q 3634 634 3220 271 
Q 2806 -91 2034 -91 
Q 1263 -91 848 271 
Q 434 634 434 1313 
Q 434 1759 690 2068 
Q 947 2378 1403 2484 
z
M 1172 3481 
Q 1172 3119 1398 2916 
Q 1625 2713 2034 2713 
Q 2441 2713 2670 2916 
Q 2900 3119 2900 3481 
Q 2900 3844 2670 4047 
Q 2441 4250 2034 4250 
Q 1625 4250 1398 4047 
Q 1172 3844 1172 3481 
z
" transform="scale(0.015625)"/>
        <path id="DejaVuSans-3a" d="M 750 794 
L 1409 794 
L 1409 0 
L 750 0 
L 750 794 
z
M 750 3309 
L 1409 3309 
L 1409 2516 
L 750 2516 
L 750 3309 
z
" transform="scale(0.015625)"/>
        <path id="DejaVuSans-29" d="M 513 4856 
L 1013 4856 
Q 1481 4119 1714 3412 
Q 1947 2706 1947 2009 
Q 1947 1309 1714 600 
Q 1481 -109 1013 -844 
L 513 -844 
Q 928 -128 1133 580 
Q 1338 1288 1338 2009 
Q 1338 2731 1133 3434 
Q 928 4138 513 4856 
z
" transform="scale(0.015625)"/>
       </defs>
       <use xlink:href="#DejaVuSans-32"/>
       <use xlink:href="#DejaVuSans-30" transform="translate(63.623047 0)"/>
       <use xlink:href="#DejaVuSans-32" transform="translate(127.246094 0)"/>
       <use xlink:href="#DejaVuSans-32" transform="translate(190.869141 0)"/>
       <use xlink:href="#DejaVuSans-2d" transform="translate(254.492188 0)"/>
       <use xlink:href="#DejaVuSans-30" transform="translate(290.576172 0)"/>
       <use xlink:href="#DejaVuSans-39" transform="translate(354.199219 0)"/>
       <use xlink:href="#DejaVuSans-2d" transform="translate(417.822266 0)"/>
       <use xlink:href="#DejaVuSans-30" transform="translate(453.90625 0)"/>
       <use xlink:href="#DejaVuSans-31" transform="translate(517.529297 0)"/>
       <use xlink:href="#DejaVuSans-20" transform="translate(581.152344 0)"/>
       <use xlink:href="#DejaVuSans-28" transform="translate(612.939453 0)"/>
       <use xlink:href="#DejaVuSans-31" transform="translate(651.953125 0)"/>
       <use xlink:href="#DejaVuSans-38" transform="translate(715.576172 0)"/>
       <use xlink:href="#DejaVuSans-3a" transform="translate(779.199219 0)"/>
       <use xlink:href="#DejaVuSans-30" transform="translate(812.890625 0)"/>
       <use xlink:href="#DejaVuSans-30" transform="translate(876.513672 0)"/>
       <use xlink:href="#DejaVuSans-29" transform="translate(940.136719 0)"/>
      </g>
     </g>
    </g>
    <g id="xtick_2">
     <g id="line2d_2">
      <g>
       <use xlink:href="#m34e7c8194f" x="253.430367" y="450.72" style="stroke: #000000; stroke-width: 0.8"/>
      </g>
     </g>
     <g id="text_2">
      <!-- 2022-09-25 (18:00) -->
      <g transform="translate(133.2582 535.473553) rotate(-30) scale(0.14 -0.14)">
       <defs>
        <path id="DejaVuSans-35" d="M 691 4666 
L 3169 4666 
L 3169 4134 
L 1269 4134 
L 1269 2991 
Q 1406 3038 1543 3061 
Q 1681 3084 1819 3084 
Q 2600 3084 3056 2656 
Q 3513 2228 3513 1497 
Q 3513 744 3044 326 
Q 2575 -91 1722 -91 
Q 1428 -91 1123 -41 
Q 819 9 494 109 
L 494 744 
Q 775 591 1075 516 
Q 1375 441 1709 441 
Q 2250 441 2565 725 
Q 2881 1009 2881 1497 
Q 2881 1984 2565 2268 
Q 2250 2553 1709 2553 
Q 1456 2553 1204 2497 
Q 953 2441 691 2322 
L 691 4666 
z
" transform="scale(0.015625)"/>
       </defs>
       <use xlink:href="#DejaVuSans-32"/>
       <use xlink:href="#DejaVuSans-30" transform="translate(63.623047 0)"/>
       <use xlink:href="#DejaVuSans-32" transform="translate(127.246094 0)"/>
       <use xlink:href="#DejaVuSans-32" transform="translate(190.869141 0)"/>
       <use xlink:href="#DejaVuSans-2d" transform="translate(254.492188 0)"/>
       <use xlink:href="#DejaVuSans-30" transform="translate(290.576172 0)"/>
       <use xlink:href="#DejaVuSans-39" transform="translate(354.199219 0)"/>
       <use xlink:href="#DejaVuSans-2d" transform="translate(417.822266 0)"/>
       <use xlink:href="#DejaVuSans-32" transform="translate(453.90625 0)"/>
       <use xlink:href="#DejaVuSans-35" transform="translate(517.529297 0)"/>
       <use xlink:href="#DejaVuSans-20" transform="translate(581.152344 0)"/>
       <use xlink:href="#DejaVuSans-28" transform="translate(612.939453 0)"/>
       <use xlink:href="#DejaVuSans-31" transform="translate(651.953125 0)"/>
       <use xlink:href="#DejaVuSans-38" transform="translate(715.576172 0)"/>
       <use xlink:href="#DejaVuSans-3a" transform="translate(779.199219 0)"/>
       <use xlink:href="#DejaVuSans-30" transform="translate(812.890625 0)"/>
       <use xlink:href="#DejaVuSans-30" transform="translate(876.513672 0)"/>
       <use xlink:href="#DejaVuSans-29" transform="translate(940.136719 0)"/>
      </g>
     </g>
    </g>
    <g id="xtick_3">
     <g id="line2d_3">
      <g>
       <use xlink:href="#m34e7c8194f" x="375.427362" y="450.72" style="stroke: #000000; stroke-width: 0.8"/>
      </g>
     </g>
     <g id="text_3">
      <!-- 2022-10-20 (00:00) -->
      <g transform="translate(255.255195 535.473553) rotate(-30) scale(0.14 -0.14)">
       <use xlink:href="#DejaVuSans-32"/>
       <use xlink:href="#DejaVuSans-30" transform="translate(63.623047 0)"/>
       <use xlink:href="#DejaVuSans-32" transform="translate(127.246094 0)"/>
       <use xlink:href="#DejaVuSans-32" transform="translate(190.869141 0)"/>
       <use xlink:href="#DejaVuSans-2d" transform="translate(254.492188 0)"/>
       <use xlink:href="#DejaVuSans-31" transform="translate(290.576172 0)"/>
       <use xlink:href="#DejaVuSans-30" transform="translate(354.199219 0)"/>
       <use xlink:href="#DejaVuSans-2d" transform="translate(417.822266 0)"/>
       <use xlink:href="#DejaVuSans-32" transform="translate(453.90625 0)"/>
       <use xlink:href="#DejaVuSans-30" transform="translate(517.529297 0)"/>
       <use xlink:href="#DejaVuSans-20" transform="translate(581.152344 0)"/>
       <use xlink:href="#DejaVuSans-28" transform="translate(612.939453 0)"/>
       <use xlink:href="#DejaVuSans-30" transform="translate(651.953125 0)"/>
       <use xlink:href="#DejaVuSans-30" transform="translate(715.576172 0)"/>
       <use xlink:href="#DejaVuSans-3a" transform="translate(779.199219 0)"/>
       <use xlink:href="#DejaVuSans-30" transform="translate(812.890625 0)"/>
       <use xlink:href="#DejaVuSans-30" transform="translate(876.513672 0)"/>
       <use xlink:href="#DejaVuSans-29" transform="translate(940.136719 0)"/>
      </g>
     </g>
    </g>
    <g id="xtick_4">
     <g id="line2d_4">
      <g>
       <use xlink:href="#m34e7c8194f" x="497.424357" y="450.72" style="stroke: #000000; stroke-width: 0.8"/>
      </g>
     </g>
     <g id="text_4">
      <!-- 2022-11-13 (06:00) -->
      <g transform="translate(377.252189 535.473553) rotate(-30) scale(0.14 -0.14)">
       <defs>
        <path id="DejaVuSans-33" d="M 2597 2516 
Q 3050 2419 3304 2112 
Q 3559 1806 3559 1356 
Q 3559 666 3084 287 
Q 2609 -91 1734 -91 
Q 1441 -91 1130 -33 
Q 819 25 488 141 
L 488 750 
Q 750 597 1062 519 
Q 1375 441 1716 441 
Q 2309 441 2620 675 
Q 2931 909 2931 1356 
Q 2931 1769 2642 2001 
Q 2353 2234 1838 2234 
L 1294 2234 
L 1294 2753 
L 1863 2753 
Q 2328 2753 2575 2939 
Q 2822 3125 2822 3475 
Q 2822 3834 2567 4026 
Q 2313 4219 1838 4219 
Q 1578 4219 1281 4162 
Q 984 4106 628 3988 
L 628 4550 
Q 988 4650 1302 4700 
Q 1616 4750 1894 4750 
Q 2613 4750 3031 4423 
Q 3450 4097 3450 3541 
Q 3450 3153 3228 2886 
Q 3006 2619 2597 2516 
z
" transform="scale(0.015625)"/>
        <path id="DejaVuSans-36" d="M 2113 2584 
Q 1688 2584 1439 2293 
Q 1191 2003 1191 1497 
Q 1191 994 1439 701 
Q 1688 409 2113 409 
Q 2538 409 2786 701 
Q 3034 994 3034 1497 
Q 3034 2003 2786 2293 
Q 2538 2584 2113 2584 
z
M 3366 4563 
L 3366 3988 
Q 3128 4100 2886 4159 
Q 2644 4219 2406 4219 
Q 1781 4219 1451 3797 
Q 1122 3375 1075 2522 
Q 1259 2794 1537 2939 
Q 1816 3084 2150 3084 
Q 2853 3084 3261 2657 
Q 3669 2231 3669 1497 
Q 3669 778 3244 343 
Q 2819 -91 2113 -91 
Q 1303 -91 875 529 
Q 447 1150 447 2328 
Q 447 3434 972 4092 
Q 1497 4750 2381 4750 
Q 2619 4750 2861 4703 
Q 3103 4656 3366 4563 
z
" transform="scale(0.015625)"/>
       </defs>
       <use xlink:href="#DejaVuSans-32"/>
       <use xlink:href="#DejaVuSans-30" transform="translate(63.623047 0)"/>
       <use xlink:href="#DejaVuSans-32" transform="translate(127.246094 0)"/>
       <use xlink:href="#DejaVuSans-32" transform="translate(190.869141 0)"/>
       <use xlink:href="#DejaVuSans-2d" transform="translate(254.492188 0)"/>
       <use xlink:href="#DejaVuSans-31" transform="translate(290.576172 0)"/>
       <use xlink:href="#DejaVuSans-31" transform="translate(354.199219 0)"/>
       <use xlink:href="#DejaVuSans-2d" transform="translate(417.822266 0)"/>
       <use xlink:href="#DejaVuSans-31" transform="translate(453.90625 0)"/>
       <use xlink:href="#DejaVuSans-33" transform="translate(517.529297 0)"/>
       <use xlink:href="#DejaVuSans-20" transform="translate(581.152344 0)"/>
       <use xlink:href="#DejaVuSans-28" transform="translate(612.939453 0)"/>
       <use xlink:href="#DejaVuSans-30" transform="translate(651.953125 0)"/>
       <use xlink:href="#DejaVuSans-36" transform="translate(715.576172 0)"/>
       <use xlink:href="#DejaVuSans-3a" transform="translate(779.199219 0)"/>
       <use xlink:href="#DejaVuSans-30" transform="translate(812.890625 0)"/>
       <use xlink:href="#DejaVuSans-30" transform="translate(876.513672 0)"/>
       <use xlink:href="#DejaVuSans-29" transform="translate(940.136719 0)"/>
      </g>
     </g>
    </g>
    <g id="xtick_5">
     <g id="line2d_5">
      <g>
       <use xlink:href="#m34e7c8194f" x="619.421352" y="450.72" style="stroke: #000000; stroke-width: 0.8"/>
      </g>
     </g>
     <g id="text_5">
      <!-- 2022-12-07 (12:00) -->
      <g transform="translate(499.249184 535.473553) rotate(-30) scale(0.14 -0.14)">
       <defs>
        <path id="DejaVuSans-37" d="M 525 4666 
L 3525 4666 
L 3525 4397 
L 1831 0 
L 1172 0 
L 2766 4134 
L 525 4134 
L 525 4666 
z
" transform="scale(0.015625)"/>
       </defs>
       <use xlink:href="#DejaVuSans-32"/>
       <use xlink:href="#DejaVuSans-30" transform="translate(63.623047 0)"/>
       <use xlink:href="#DejaVuSans-32" transform="translate(127.246094 0)"/>
       <use xlink:href="#DejaVuSans-32" transform="translate(190.869141 0)"/>
       <use xlink:href="#DejaVuSans-2d" transform="translate(254.492188 0)"/>
       <use xlink:href="#DejaVuSans-31" transform="translate(290.576172 0)"/>
       <use xlink:href="#DejaVuSans-32" transform="translate(354.199219 0)"/>
       <use xlink:href="#DejaVuSans-2d" transform="translate(417.822266 0)"/>
       <use xlink:href="#DejaVuSans-30" transform="translate(453.90625 0)"/>
       <use xlink:href="#DejaVuSans-37" transform="translate(517.529297 0)"/>
       <use xlink:href="#DejaVuSans-20" transform="translate(581.152344 0)"/>
       <use xlink:href="#DejaVuSans-28" transform="translate(612.939453 0)"/>
       <use xlink:href="#DejaVuSans-31" transform="translate(651.953125 0)"/>
       <use xlink:href="#DejaVuSans-32" transform="translate(715.576172 0)"/>
       <use xlink:href="#DejaVuSans-3a" transform="translate(779.199219 0)"/>
       <use xlink:href="#DejaVuSans-30" transform="translate(812.890625 0)"/>
       <use xlink:href="#DejaVuSans-30" transform="translate(876.513672 0)"/>
       <use xlink:href="#DejaVuSans-29" transform="translate(940.136719 0)"/>
      </g>
     </g>
    </g>
    <g id="xtick_6">
     <g id="line2d_6">
      <g>
       <use xlink:href="#m34e7c8194f" x="741.418346" y="450.72" style="stroke: #000000; stroke-width: 0.8"/>
      </g>
     </g>
     <g id="text_6">
      <!-- 2022-12-31 (18:00) -->
      <g transform="translate(621.246179 535.473553) rotate(-30) scale(0.14 -0.14)">
       <use xlink:href="#DejaVuSans-32"/>
       <use xlink:href="#DejaVuSans-30" transform="translate(63.623047 0)"/>
       <use xlink:href="#DejaVuSans-32" transform="translate(127.246094 0)"/>
       <use xlink:href="#DejaVuSans-32" transform="translate(190.869141 0)"/>
       <use xlink:href="#DejaVuSans-2d" transform="translate(254.492188 0)"/>
       <use xlink:href="#DejaVuSans-31" transform="translate(290.576172 0)"/>
       <use xlink:href="#DejaVuSans-32" transform="translate(354.199219 0)"/>
       <use xlink:href="#DejaVuSans-2d" transform="translate(417.822266 0)"/>
       <use xlink:href="#DejaVuSans-33" transform="translate(453.90625 0)"/>
       <use xlink:href="#DejaVuSans-31" transform="translate(517.529297 0)"/>
       <use xlink:href="#DejaVuSans-20" transform="translate(581.152344 0)"/>
       <use xlink:href="#DejaVuSans-28" transform="translate(612.939453 0)"/>
       <use xlink:href="#DejaVuSans-31" transform="translate(651.953125 0)"/>
       <use xlink:href="#DejaVuSans-38" transform="translate(715.576172 0)"/>
       <use xlink:href="#DejaVuSans-3a" transform="translate(779.199219 0)"/>
       <use xlink:href="#DejaVuSans-30" transform="translate(812.890625 0)"/>
       <use xlink:href="#DejaVuSans-30" transform="translate(876.513672 0)"/>
       <use xlink:href="#DejaVuSans-29" transform="translate(940.136719 0)"/>
      </g>
     </g>
    </g>
    <g id="text_7">
     <!-- Forecast Date -->
     <g transform="translate(381.54846 554.15254) scale(0.16 -0.16)">
      <defs>
       <path id="DejaVuSans-46" d="M 628 4666 
L 3309 4666 
L 3309 4134 
L 1259 4134 
L 1259 2759 
L 3109 2759 
L 3109 2228 
L 1259 2228 
L 1259 0 
L 628 0 
L 628 4666 
z
" transform="scale(0.015625)"/>
       <path id="DejaVuSans-6f" d="M 1959 3097 
Q 1497 3097 1228 2736 
Q 959 2375 959 1747 
Q 959 1119 1226 758 
Q 1494 397 1959 397 
Q 2419 397 2687 759 
Q 2956 1122 2956 1747 
Q 2956 2369 2687 2733 
Q 2419 3097 1959 3097 
z
M 1959 3584 
Q 2709 3584 3137 3096 
Q 3566 2609 3566 1747 
Q 3566 888 3137 398 
Q 2709 -91 1959 -91 
Q 1206 -91 779 398 
Q 353 888 353 1747 
Q 353 2609 779 3096 
Q 1206 3584 1959 3584 
z
" transform="scale(0.015625)"/>
       <path id="DejaVuSans-72" d="M 2631 2963 
Q 2534 3019 2420 3045 
Q 2306 3072 2169 3072 
Q 1681 3072 1420 2755 
Q 1159 2438 1159 1844 
L 1159 0 
L 581 0 
L 581 3500 
L 1159 3500 
L 1159 2956 
Q 1341 3275 1631 3429 
Q 1922 3584 2338 3584 
Q 2397 3584 2469 3576 
Q 2541 3569 2628 3553 
L 2631 2963 
z
" transform="scale(0.015625)"/>
       <path id="DejaVuSans-65" d="M 3597 1894 
L 3597 1613 
L 953 1613 
Q 991 1019 1311 708 
Q 1631 397 2203 397 
Q 2534 397 2845 478 
Q 3156 559 3463 722 
L 3463 178 
Q 3153 47 2828 -22 
Q 2503 -91 2169 -91 
Q 1331 -91 842 396 
Q 353 884 353 1716 
Q 353 2575 817 3079 
Q 1281 3584 2069 3584 
Q 2775 3584 3186 3129 
Q 3597 2675 3597 1894 
z
M 3022 2063 
Q 3016 2534 2758 2815 
Q 2500 3097 2075 3097 
Q 1594 3097 1305 2825 
Q 1016 2553 972 2059 
L 3022 2063 
z
" transform="scale(0.015625)"/>
       <path id="DejaVuSans-63" d="M 3122 3366 
L 3122 2828 
Q 2878 2963 2633 3030 
Q 2388 3097 2138 3097 
Q 1578 3097 1268 2742 
Q 959 2388 959 1747 
Q 959 1106 1268 751 
Q 1578 397 2138 397 
Q 2388 397 2633 464 
Q 2878 531 3122 666 
L 3122 134 
Q 2881 22 2623 -34 
Q 2366 -91 2075 -91 
Q 1284 -91 818 406 
Q 353 903 353 1747 
Q 353 2603 823 3093 
Q 1294 3584 2113 3584 
Q 2378 3584 2631 3529 
Q 2884 3475 3122 3366 
z
" transform="scale(0.015625)"/>
       <path id="DejaVuSans-61" d="M 2194 1759 
Q 1497 1759 1228 1600 
Q 959 1441 959 1056 
Q 959 750 1161 570 
Q 1363 391 1709 391 
Q 2188 391 2477 730 
Q 2766 1069 2766 1631 
L 2766 1759 
L 2194 1759 
z
M 3341 1997 
L 3341 0 
L 2766 0 
L 2766 531 
Q 2569 213 2275 61 
Q 1981 -91 1556 -91 
Q 1019 -91 701 211 
Q 384 513 384 1019 
Q 384 1609 779 1909 
Q 1175 2209 1959 2209 
L 2766 2209 
L 2766 2266 
Q 2766 2663 2505 2880 
Q 2244 3097 1772 3097 
Q 1472 3097 1187 3025 
Q 903 2953 641 2809 
L 641 3341 
Q 956 3463 1253 3523 
Q 1550 3584 1831 3584 
Q 2591 3584 2966 3190 
Q 3341 2797 3341 1997 
z
" transform="scale(0.015625)"/>
       <path id="DejaVuSans-73" d="M 2834 3397 
L 2834 2853 
Q 2591 2978 2328 3040 
Q 2066 3103 1784 3103 
Q 1356 3103 1142 2972 
Q 928 2841 928 2578 
Q 928 2378 1081 2264 
Q 1234 2150 1697 2047 
L 1894 2003 
Q 2506 1872 2764 1633 
Q 3022 1394 3022 966 
Q 3022 478 2636 193 
Q 2250 -91 1575 -91 
Q 1294 -91 989 -36 
Q 684 19 347 128 
L 347 722 
Q 666 556 975 473 
Q 1284 391 1588 391 
Q 1994 391 2212 530 
Q 2431 669 2431 922 
Q 2431 1156 2273 1281 
Q 2116 1406 1581 1522 
L 1381 1569 
Q 847 1681 609 1914 
Q 372 2147 372 2553 
Q 372 3047 722 3315 
Q 1072 3584 1716 3584 
Q 2034 3584 2315 3537 
Q 2597 3491 2834 3397 
z
" transform="scale(0.015625)"/>
       <path id="DejaVuSans-74" d="M 1172 4494 
L 1172 3500 
L 2356 3500 
L 2356 3053 
L 1172 3053 
L 1172 1153 
Q 1172 725 1289 603 
Q 1406 481 1766 481 
L 2356 481 
L 2356 0 
L 1766 0 
Q 1100 0 847 248 
Q 594 497 594 1153 
L 594 3053 
L 172 3053 
L 172 3500 
L 594 3500 
L 594 4494 
L 1172 4494 
z
" transform="scale(0.015625)"/>
       <path id="DejaVuSans-44" d="M 1259 4147 
L 1259 519 
L 2022 519 
Q 2988 519 3436 956 
Q 3884 1394 3884 2338 
Q 3884 3275 3436 3711 
Q 2988 4147 2022 4147 
L 1259 4147 
z
M 628 4666 
L 1925 4666 
Q 3281 4666 3915 4102 
Q 4550 3538 4550 2338 
Q 4550 1131 3912 565 
Q 3275 0 1925 0 
L 628 0 
L 628 4666 
z
" transform="scale(0.015625)"/>
      </defs>
      <use xlink:href="#DejaVuSans-46"/>
      <use xlink:href="#DejaVuSans-6f" transform="translate(53.894531 0)"/>
      <use xlink:href="#DejaVuSans-72" transform="translate(115.076172 0)"/>
      <use xlink:href="#DejaVuSans-65" transform="translate(153.939453 0)"/>
      <use xlink:href="#DejaVuSans-63" transform="translate(215.462891 0)"/>
      <use xlink:href="#DejaVuSans-61" transform="translate(270.443359 0)"/>
      <use xlink:href="#DejaVuSans-73" transform="translate(331.722656 0)"/>
      <use xlink:href="#DejaVuSans-74" transform="translate(383.822266 0)"/>
      <use xlink:href="#DejaVuSans-20" transform="translate(423.03125 0)"/>
      <use xlink:href="#DejaVuSans-44" transform="translate(454.818359 0)"/>
      <use xlink:href="#DejaVuSans-61" transform="translate(531.820312 0)"/>
      <use xlink:href="#DejaVuSans-74" transform="translate(593.099609 0)"/>
      <use xlink:href="#DejaVuSans-65" transform="translate(632.308594 0)"/>
     </g>
    </g>
   </g>
   <g id="matplotlib.axis_2">
    <g id="ytick_1">
     <g id="line2d_7">
      <defs>
       <path id="mcec50361cc" d="M 0 0 
L -3.5 0 
" style="stroke: #000000; stroke-width: 0.8"/>
      </defs>
      <g>
       <use xlink:href="#mcec50361cc" x="102.25471" y="403.74554" style="stroke: #000000; stroke-width: 0.8"/>
      </g>
     </g>
     <g id="text_8">
      <!-- 5 -->
      <g transform="translate(88.89221 407.544758) scale(0.1 -0.1)">
       <use xlink:href="#DejaVuSans-35"/>
      </g>
     </g>
    </g>
    <g id="ytick_2">
     <g id="line2d_8">
      <g>
       <use xlink:href="#mcec50361cc" x="102.25471" y="343.010123" style="stroke: #000000; stroke-width: 0.8"/>
      </g>
     </g>
     <g id="text_9">
      <!-- 10 -->
      <g transform="translate(82.52971 346.809342) scale(0.1 -0.1)">
       <use xlink:href="#DejaVuSans-31"/>
       <use xlink:href="#DejaVuSans-30" transform="translate(63.623047 0)"/>
      </g>
     </g>
    </g>
    <g id="ytick_3">
     <g id="line2d_9">
      <g>
       <use xlink:href="#mcec50361cc" x="102.25471" y="282.274706" style="stroke: #000000; stroke-width: 0.8"/>
      </g>
     </g>
     <g id="text_10">
      <!-- 15 -->
      <g transform="translate(82.52971 286.073925) scale(0.1 -0.1)">
       <use xlink:href="#DejaVuSans-31"/>
       <use xlink:href="#DejaVuSans-35" transform="translate(63.623047 0)"/>
      </g>
     </g>
    </g>
    <g id="ytick_4">
     <g id="line2d_10">
      <g>
       <use xlink:href="#mcec50361cc" x="102.25471" y="221.53929" style="stroke: #000000; stroke-width: 0.8"/>
      </g>
     </g>
     <g id="text_11">
      <!-- 20 -->
      <g transform="translate(82.52971 225.338509) scale(0.1 -0.1)">
       <use xlink:href="#DejaVuSans-32"/>
       <use xlink:href="#DejaVuSans-30" transform="translate(63.623047 0)"/>
      </g>
     </g>
    </g>
    <g id="ytick_5">
     <g id="line2d_11">
      <g>
       <use xlink:href="#mcec50361cc" x="102.25471" y="160.803873" style="stroke: #000000; stroke-width: 0.8"/>
      </g>
     </g>
     <g id="text_12">
      <!-- 25 -->
      <g transform="translate(82.52971 164.603092) scale(0.1 -0.1)">
       <use xlink:href="#DejaVuSans-32"/>
       <use xlink:href="#DejaVuSans-35" transform="translate(63.623047 0)"/>
      </g>
     </g>
    </g>
    <g id="ytick_6">
     <g id="line2d_12">
      <g>
       <use xlink:href="#mcec50361cc" x="102.25471" y="100.068457" style="stroke: #000000; stroke-width: 0.8"/>
      </g>
     </g>
     <g id="text_13">
      <!-- 30 -->
      <g transform="translate(82.52971 103.867675) scale(0.1 -0.1)">
       <use xlink:href="#DejaVuSans-33"/>
       <use xlink:href="#DejaVuSans-30" transform="translate(63.623047 0)"/>
      </g>
     </g>
    </g>
    <g id="ytick_7">
     <g id="line2d_13">
      <g>
       <use xlink:href="#mcec50361cc" x="102.25471" y="39.33304" style="stroke: #000000; stroke-width: 0.8"/>
      </g>
     </g>
     <g id="text_14">
      <!-- 35 -->
      <g transform="translate(82.52971 43.132259) scale(0.1 -0.1)">
       <use xlink:href="#DejaVuSans-33"/>
       <use xlink:href="#DejaVuSans-35" transform="translate(63.623047 0)"/>
      </g>
     </g>
    </g>
    <g id="text_15">
     <!-- Root Mean Squared Error (RMSE) -->
     <g transform="translate(75.20221 360.62625) rotate(-90) scale(0.16 -0.16)">
      <defs>
       <path id="DejaVuSans-52" d="M 2841 2188 
Q 3044 2119 3236 1894 
Q 3428 1669 3622 1275 
L 4263 0 
L 3584 0 
L 2988 1197 
Q 2756 1666 2539 1819 
Q 2322 1972 1947 1972 
L 1259 1972 
L 1259 0 
L 628 0 
L 628 4666 
L 2053 4666 
Q 2853 4666 3247 4331 
Q 3641 3997 3641 3322 
Q 3641 2881 3436 2590 
Q 3231 2300 2841 2188 
z
M 1259 4147 
L 1259 2491 
L 2053 2491 
Q 2509 2491 2742 2702 
Q 2975 2913 2975 3322 
Q 2975 3731 2742 3939 
Q 2509 4147 2053 4147 
L 1259 4147 
z
" transform="scale(0.015625)"/>
       <path id="DejaVuSans-4d" d="M 628 4666 
L 1569 4666 
L 2759 1491 
L 3956 4666 
L 4897 4666 
L 4897 0 
L 4281 0 
L 4281 4097 
L 3078 897 
L 2444 897 
L 1241 4097 
L 1241 0 
L 628 0 
L 628 4666 
z
" transform="scale(0.015625)"/>
       <path id="DejaVuSans-6e" d="M 3513 2113 
L 3513 0 
L 2938 0 
L 2938 2094 
Q 2938 2591 2744 2837 
Q 2550 3084 2163 3084 
Q 1697 3084 1428 2787 
Q 1159 2491 1159 1978 
L 1159 0 
L 581 0 
L 581 3500 
L 1159 3500 
L 1159 2956 
Q 1366 3272 1645 3428 
Q 1925 3584 2291 3584 
Q 2894 3584 3203 3211 
Q 3513 2838 3513 2113 
z
" transform="scale(0.015625)"/>
       <path id="DejaVuSans-53" d="M 3425 4513 
L 3425 3897 
Q 3066 4069 2747 4153 
Q 2428 4238 2131 4238 
Q 1616 4238 1336 4038 
Q 1056 3838 1056 3469 
Q 1056 3159 1242 3001 
Q 1428 2844 1947 2747 
L 2328 2669 
Q 3034 2534 3370 2195 
Q 3706 1856 3706 1288 
Q 3706 609 3251 259 
Q 2797 -91 1919 -91 
Q 1588 -91 1214 -16 
Q 841 59 441 206 
L 441 856 
Q 825 641 1194 531 
Q 1563 422 1919 422 
Q 2459 422 2753 634 
Q 3047 847 3047 1241 
Q 3047 1584 2836 1778 
Q 2625 1972 2144 2069 
L 1759 2144 
Q 1053 2284 737 2584 
Q 422 2884 422 3419 
Q 422 4038 858 4394 
Q 1294 4750 2059 4750 
Q 2388 4750 2728 4690 
Q 3069 4631 3425 4513 
z
" transform="scale(0.015625)"/>
       <path id="DejaVuSans-71" d="M 947 1747 
Q 947 1113 1208 752 
Q 1469 391 1925 391 
Q 2381 391 2643 752 
Q 2906 1113 2906 1747 
Q 2906 2381 2643 2742 
Q 2381 3103 1925 3103 
Q 1469 3103 1208 2742 
Q 947 2381 947 1747 
z
M 2906 525 
Q 2725 213 2448 61 
Q 2172 -91 1784 -91 
Q 1150 -91 751 415 
Q 353 922 353 1747 
Q 353 2572 751 3078 
Q 1150 3584 1784 3584 
Q 2172 3584 2448 3432 
Q 2725 3281 2906 2969 
L 2906 3500 
L 3481 3500 
L 3481 -1331 
L 2906 -1331 
L 2906 525 
z
" transform="scale(0.015625)"/>
       <path id="DejaVuSans-75" d="M 544 1381 
L 544 3500 
L 1119 3500 
L 1119 1403 
Q 1119 906 1312 657 
Q 1506 409 1894 409 
Q 2359 409 2629 706 
Q 2900 1003 2900 1516 
L 2900 3500 
L 3475 3500 
L 3475 0 
L 2900 0 
L 2900 538 
Q 2691 219 2414 64 
Q 2138 -91 1772 -91 
Q 1169 -91 856 284 
Q 544 659 544 1381 
z
M 1991 3584 
L 1991 3584 
z
" transform="scale(0.015625)"/>
       <path id="DejaVuSans-64" d="M 2906 2969 
L 2906 4863 
L 3481 4863 
L 3481 0 
L 2906 0 
L 2906 525 
Q 2725 213 2448 61 
Q 2172 -91 1784 -91 
Q 1150 -91 751 415 
Q 353 922 353 1747 
Q 353 2572 751 3078 
Q 1150 3584 1784 3584 
Q 2172 3584 2448 3432 
Q 2725 3281 2906 2969 
z
M 947 1747 
Q 947 1113 1208 752 
Q 1469 391 1925 391 
Q 2381 391 2643 752 
Q 2906 1113 2906 1747 
Q 2906 2381 2643 2742 
Q 2381 3103 1925 3103 
Q 1469 3103 1208 2742 
Q 947 2381 947 1747 
z
" transform="scale(0.015625)"/>
       <path id="DejaVuSans-45" d="M 628 4666 
L 3578 4666 
L 3578 4134 
L 1259 4134 
L 1259 2753 
L 3481 2753 
L 3481 2222 
L 1259 2222 
L 1259 531 
L 3634 531 
L 3634 0 
L 628 0 
L 628 4666 
z
" transform="scale(0.015625)"/>
      </defs>
      <use xlink:href="#DejaVuSans-52"/>
      <use xlink:href="#DejaVuSans-6f" transform="translate(64.982422 0)"/>
      <use xlink:href="#DejaVuSans-6f" transform="translate(126.164062 0)"/>
      <use xlink:href="#DejaVuSans-74" transform="translate(187.345703 0)"/>
      <use xlink:href="#DejaVuSans-20" transform="translate(226.554688 0)"/>
      <use xlink:href="#DejaVuSans-4d" transform="translate(258.341797 0)"/>
      <use xlink:href="#DejaVuSans-65" transform="translate(344.621094 0)"/>
      <use xlink:href="#DejaVuSans-61" transform="translate(406.144531 0)"/>
      <use xlink:href="#DejaVuSans-6e" transform="translate(467.423828 0)"/>
      <use xlink:href="#DejaVuSans-20" transform="translate(530.802734 0)"/>
      <use xlink:href="#DejaVuSans-53" transform="translate(562.589844 0)"/>
      <use xlink:href="#DejaVuSans-71" transform="translate(626.066406 0)"/>
      <use xlink:href="#DejaVuSans-75" transform="translate(689.542969 0)"/>
      <use xlink:href="#DejaVuSans-61" transform="translate(752.921875 0)"/>
      <use xlink:href="#DejaVuSans-72" transform="translate(814.201172 0)"/>
      <use xlink:href="#DejaVuSans-65" transform="translate(853.064453 0)"/>
      <use xlink:href="#DejaVuSans-64" transform="translate(914.587891 0)"/>
      <use xlink:href="#DejaVuSans-20" transform="translate(978.064453 0)"/>
      <use xlink:href="#DejaVuSans-45" transform="translate(1009.851562 0)"/>
      <use xlink:href="#DejaVuSans-72" transform="translate(1073.035156 0)"/>
      <use xlink:href="#DejaVuSans-72" transform="translate(1112.398438 0)"/>
      <use xlink:href="#DejaVuSans-6f" transform="translate(1151.261719 0)"/>
      <use xlink:href="#DejaVuSans-72" transform="translate(1212.443359 0)"/>
      <use xlink:href="#DejaVuSans-20" transform="translate(1253.556641 0)"/>
      <use xlink:href="#DejaVuSans-28" transform="translate(1285.34375 0)"/>
      <use xlink:href="#DejaVuSans-52" transform="translate(1324.357422 0)"/>
      <use xlink:href="#DejaVuSans-4d" transform="translate(1393.839844 0)"/>
      <use xlink:href="#DejaVuSans-53" transform="translate(1480.119141 0)"/>
      <use xlink:href="#DejaVuSans-45" transform="translate(1543.595703 0)"/>
      <use xlink:href="#DejaVuSans-29" transform="translate(1606.779297 0)"/>
     </g>
    </g>
   </g>
   <g id="line2d_14">
    <path d="M 132.691074 358.928101 
L 133.948775 359.022085 
L 135.206476 363.825135 
L 136.464177 358.887359 
L 137.721878 355.235401 
L 138.979579 358.192413 
L 140.23728 374.094394 
L 141.49498 367.428034 
L 142.752681 366.080182 
L 144.010382 371.948929 
L 145.268083 379.134402 
L 146.525784 373.761419 
L 147.783485 362.866506 
L 149.041186 372.530354 
L 150.298887 377.617302 
L 151.556588 363.566839 
L 152.814289 371.107702 
L 154.07199 362.469325 
L 155.329691 372.155363 
L 156.587392 356.555022 
L 157.845093 356.022674 
L 159.102794 350.40193 
L 160.360495 358.179949 
L 161.618196 354.835729 
L 162.875897 359.131129 
L 164.133598 350.899502 
L 165.391299 362.116778 
L 166.649 355.42206 
L 167.906701 352.40182 
L 169.164402 352.454563 
L 170.422103 360.758836 
L 171.679804 360.294257 
L 172.937505 350.09089 
L 174.195206 349.704285 
L 175.452907 360.463273 
L 176.710608 372.784069 
L 177.968309 371.31388 
L 179.22601 375.04273 
L 180.483711 391.26379 
L 181.741412 384.101226 
L 182.999113 391.449858 
L 184.256814 381.861511 
L 185.514515 387.663845 
L 186.772216 371.960757 
L 188.029917 371.397479 
L 189.287618 370.446484 
L 190.545319 376.791187 
L 191.80302 370.258893 
L 193.060721 370.295992 
L 194.318422 383.554751 
L 195.576122 387.753387 
L 196.833823 378.355058 
L 198.091524 375.174045 
L 199.349225 375.315322 
L 200.606926 378.949342 
L 201.864627 366.830814 
L 203.122328 369.279829 
L 204.380029 368.934904 
L 205.63773 374.027673 
L 206.895431 372.097534 
L 208.153132 379.508409 
L 209.410833 371.012629 
L 210.668534 378.473526 
L 211.926235 374.247226 
L 213.183936 383.131255 
L 214.441637 373.248 
L 215.699338 362.476866 
L 216.957039 367.430385 
L 218.21474 363.849335 
L 219.472441 357.30036 
L 220.730142 377.16645 
L 221.987843 360.850746 
L 223.245544 357.992977 
L 224.503245 366.830107 
L 225.760946 365.397886 
L 227.018647 357.877701 
L 228.276348 351.57392 
L 229.534049 352.5463 
L 230.79175 349.660103 
L 232.049451 347.660607 
L 233.307152 346.12247 
L 234.564853 341.297225 
L 235.822554 351.734549 
L 237.080255 356.971341 
L 238.337956 353.994658 
L 239.595657 365.24203 
L 240.853358 365.46796 
L 242.111059 364.174809 
L 243.36876 365.259627 
L 244.626461 354.796006 
L 245.884162 352.99158 
L 247.141863 344.854203 
L 248.399564 345.813133 
L 249.657264 349.780395 
L 250.914965 357.949003 
L 252.172666 352.791819 
L 253.430367 352.614265 
L 254.688068 362.540152 
L 255.945769 351.01969 
L 257.20347 355.167783 
L 258.461171 356.251535 
L 259.718872 346.914945 
L 260.976573 355.058496 
L 262.234274 353.844548 
L 263.491975 353.474022 
L 264.749676 358.07891 
L 266.007377 359.858893 
L 267.265078 356.664911 
L 268.522779 360.000431 
L 269.78048 357.315547 
L 271.038181 371.816983 
L 272.295882 374.146877 
L 273.553583 377.058212 
L 274.811284 381.851994 
L 276.068985 390.77325 
L 277.326686 392.18638 
L 278.584387 393.200041 
L 279.842088 387.264579 
L 281.099789 386.278848 
L 282.35749 374.270881 
L 283.615191 376.891426 
L 284.872892 375.843696 
L 286.130593 382.022765 
L 287.388294 381.847714 
L 288.645995 388.743131 
L 289.903696 392.409767 
L 292.419098 397.02365 
L 293.676799 394.689384 
L 294.9345 388.829423 
L 296.192201 390.33385 
L 297.449902 379.189352 
L 298.707603 381.43077 
L 299.965304 379.215087 
L 301.223005 381.583318 
L 302.480706 378.682264 
L 303.738406 373.927463 
L 304.996107 375.482333 
L 306.253808 376.701599 
L 307.511509 383.408973 
L 308.76921 387.895915 
L 310.026911 386.890682 
L 311.284612 390.19164 
L 312.542313 396.307441 
L 313.800014 390.499935 
L 315.057715 390.705291 
L 316.315416 393.286703 
L 317.573117 386.065765 
L 318.830818 384.741823 
L 320.088519 381.376312 
L 321.34622 376.31902 
L 322.603921 378.86437 
L 323.861622 378.652626 
L 325.119323 376.492472 
L 326.377024 382.64243 
L 327.634725 385.713497 
L 328.892426 374.890274 
L 330.150127 370.577561 
L 331.407828 370.426217 
L 332.665529 366.954847 
L 333.92323 371.683312 
L 335.180931 363.208673 
L 336.438632 359.788738 
L 337.696333 357.272905 
L 338.954034 356.54265 
L 340.211735 355.098427 
L 341.469436 356.363625 
L 342.727137 349.765219 
L 343.984838 356.585512 
L 345.242539 347.984958 
L 346.50024 348.50564 
L 347.757941 345.883439 
L 349.015642 345.247874 
L 350.273343 342.083675 
L 351.531044 354.618313 
L 352.788745 359.585236 
L 354.046446 360.70271 
L 355.304147 355.02657 
L 356.561848 366.488565 
L 357.819548 358.982942 
L 359.077249 361.248611 
L 360.33495 366.689902 
L 361.592651 359.244505 
L 362.850352 362.648268 
L 364.108053 363.448157 
L 365.365754 352.014473 
L 366.623455 342.545138 
L 367.881156 349.854511 
L 369.138857 346.708315 
L 370.396558 335.694761 
L 371.654259 339.922045 
L 372.91196 341.377817 
L 374.169661 345.158454 
L 375.427362 340.999472 
L 376.685063 347.873979 
L 377.942764 339.268745 
L 379.200465 336.348038 
L 380.458166 330.946123 
L 381.715867 341.670809 
L 382.973568 333.523041 
L 385.48897 326.125268 
L 386.746671 329.676558 
L 388.004372 324.190934 
L 389.262073 329.02978 
L 390.519774 324.548231 
L 391.777475 318.80204 
L 394.292877 341.156 
L 395.550578 325.117706 
L 396.808279 348.545351 
L 398.06598 344.547333 
L 399.323681 338.931015 
L 400.581382 342.221633 
L 401.839083 344.483364 
L 403.096784 338.873429 
L 404.354485 350.108603 
L 405.612186 333.648893 
L 406.869887 347.124564 
L 408.127588 346.685783 
L 409.385289 345.980909 
L 410.64299 346.342423 
L 411.90069 356.979137 
L 413.158391 339.099127 
L 414.416092 335.953648 
L 415.673793 314.188 
L 418.189195 308.149941 
L 419.446896 309.449232 
L 420.704597 318.51981 
L 421.962298 322.287542 
L 424.4777 319.321228 
L 425.735401 320.980745 
L 426.993102 321.277282 
L 428.250803 319.980378 
L 429.508504 319.011844 
L 430.766205 317.680083 
L 432.023906 323.149083 
L 433.281607 317.583794 
L 434.539308 326.265948 
L 435.797009 319.91342 
L 437.05471 331.625974 
L 438.312411 325.30528 
L 439.570112 331.939725 
L 440.827813 327.066972 
L 442.085514 344.160195 
L 443.343215 338.457689 
L 444.600916 343.735385 
L 445.858617 342.268168 
L 448.374019 351.860679 
L 449.63172 344.410927 
L 450.889421 339.851172 
L 452.147122 337.710892 
L 453.404823 330.726669 
L 454.662524 330.173643 
L 455.920225 315.898582 
L 457.177926 307.384401 
L 458.435627 291.56504 
L 459.693328 286.244586 
L 460.951029 284.06354 
L 462.20873 292.848993 
L 463.466431 290.32929 
L 464.724131 298.134763 
L 465.981832 293.331725 
L 467.239533 290.717041 
L 468.497234 293.482043 
L 469.754935 293.234775 
L 471.012636 306.525223 
L 472.270337 309.996952 
L 473.528038 321.075679 
L 474.785739 340.642222 
L 476.04344 333.430621 
L 477.301141 345.98991 
L 478.558842 348.370752 
L 479.816543 348.425059 
L 481.074244 335.316752 
L 482.331945 347.820019 
L 483.589646 342.148698 
L 484.847347 335.675879 
L 486.105048 340.37767 
L 487.362749 346.203364 
L 488.62045 353.15105 
L 489.878151 361.678264 
L 491.135852 358.382652 
L 492.393553 357.549261 
L 493.651254 350.595667 
L 494.908955 354.297079 
L 496.166656 339.183426 
L 497.424357 337.287321 
L 498.682058 338.574089 
L 499.939759 346.395792 
L 501.19746 336.72431 
L 502.455161 347.087795 
L 503.712862 346.346894 
L 504.970563 345.253516 
L 506.228264 336.048096 
L 507.485965 348.908868 
L 508.743666 351.153547 
L 510.001367 347.135106 
L 511.259068 347.857286 
L 512.516769 350.380464 
L 513.77447 345.833753 
L 515.032171 343.814437 
L 516.289872 341.389448 
L 517.547573 333.505502 
L 520.062974 313.575257 
L 521.320675 311.571637 
L 522.578376 305.568992 
L 523.836077 310.228442 
L 525.093778 326.194797 
L 526.351479 336.46175 
L 527.60918 331.438261 
L 528.866881 341.263572 
L 530.124582 348.326383 
L 531.382283 350.431586 
L 532.639984 338.007567 
L 535.155386 350.850882 
L 536.413087 344.354233 
L 537.670788 346.424451 
L 538.928489 357.077581 
L 540.18619 368.996568 
L 542.701592 378.057566 
L 543.959293 373.083444 
L 545.216994 371.270422 
L 546.474695 373.191381 
L 547.732396 372.106036 
L 548.990097 370.451801 
L 550.247798 374.891369 
L 551.505499 372.142811 
L 552.7632 374.349875 
L 554.020901 360.910023 
L 555.278602 367.283241 
L 556.536303 358.343879 
L 557.794004 356.695841 
L 559.051705 348.576108 
L 561.567107 327.316163 
L 562.824808 325.615625 
L 564.082509 321.205343 
L 565.34021 324.364931 
L 566.597911 325.694283 
L 567.855612 333.209915 
L 569.113313 318.736634 
L 570.371014 331.309026 
L 571.628715 325.920178 
L 572.886415 322.34821 
L 574.144116 308.460935 
L 575.401817 316.186708 
L 576.659518 299.132234 
L 577.917219 297.461225 
L 579.17492 312.317311 
L 580.432621 317.294358 
L 581.690322 315.635513 
L 582.948023 316.74168 
L 584.205724 312.233 
L 585.463425 317.754373 
L 586.721126 303.941783 
L 587.978827 307.018462 
L 589.236528 305.968931 
L 591.75193 314.022946 
L 593.009631 320.470918 
L 594.267332 325.601979 
L 595.525033 315.206103 
L 596.782734 314.466233 
L 598.040435 313.483567 
L 599.298136 314.522811 
L 600.555837 311.029675 
L 603.071239 307.551609 
L 604.32894 304.365806 
L 605.586641 317.797235 
L 608.102043 315.391789 
L 609.359744 311.083832 
L 610.617445 325.007562 
L 611.875146 325.375284 
L 613.132847 328.285566 
L 614.390548 324.234596 
L 615.648249 342.391263 
L 616.90595 337.721526 
L 618.163651 348.333705 
L 619.421352 350.493922 
L 620.679053 356.014936 
L 621.936754 353.507153 
L 623.194455 356.922744 
L 624.452156 347.932897 
L 625.709857 351.22698 
L 626.967557 341.240253 
L 628.225258 347.733867 
L 629.482959 345.064667 
L 630.74066 347.430009 
L 631.998361 329.644678 
L 633.256062 339.805298 
L 634.513763 336.944111 
L 635.771464 338.92623 
L 637.029165 331.065662 
L 638.286866 342.168148 
L 639.544567 335.201024 
L 640.802268 343.126615 
L 642.059969 328.182094 
L 643.31767 338.942425 
L 644.575371 328.499042 
L 645.833072 336.835971 
L 647.090773 331.050776 
L 648.348474 327.2254 
L 649.606175 325.288413 
L 650.863876 329.030996 
L 652.121577 316.291338 
L 654.636979 297.324877 
L 655.89468 297.27913 
L 657.152381 297.593935 
L 658.410082 297.369291 
L 659.667783 305.274726 
L 660.925484 302.401955 
L 663.440886 284.501742 
L 664.698587 277.974012 
L 665.956288 276.349943 
L 667.213989 271.751994 
L 668.47169 270.668763 
L 669.729391 266.677986 
L 670.987092 261.542059 
L 672.244793 264.508351 
L 673.502494 258.89392 
L 674.760195 276.638393 
L 676.017896 275.567014 
L 677.275597 273.273449 
L 678.533298 293.408158 
L 679.790999 296.408438 
L 681.048699 291.930816 
L 682.3064 306.789184 
L 683.564101 301.482817 
L 684.821802 302.009048 
L 686.079503 307.065912 
L 687.337204 309.777764 
L 688.594905 312.788609 
L 689.852606 328.659208 
L 692.368008 338.812171 
L 693.625709 340.814632 
L 694.88341 347.129916 
L 696.141111 347.004735 
L 697.398812 355.230848 
L 699.914214 332.349244 
L 701.171915 305.913233 
L 702.429616 289.456142 
L 703.687317 270.998281 
L 704.945018 274.028819 
L 706.202719 282.832134 
L 707.46042 304.830385 
L 709.975822 326.05648 
L 711.233523 343.249989 
L 712.491224 348.887171 
L 713.748925 349.528516 
L 715.006626 353.91322 
L 716.264327 352.567233 
L 717.522028 356.026207 
L 718.779729 361.836054 
L 720.03743 351.137931 
L 722.552832 336.998419 
L 723.810533 337.467805 
L 726.325935 348.279177 
L 727.583636 345.804723 
L 728.841337 358.936013 
L 730.099038 356.166656 
L 731.356739 354.460662 
L 732.61444 346.815285 
L 733.872141 357.796147 
L 735.129841 352.094405 
L 736.387542 351.178673 
L 737.645243 332.891658 
L 738.902944 333.054847 
L 740.160645 322.452608 
L 741.418346 326.727527 
L 741.418346 326.727527 
" clip-path="url(#p0a55d705de)" style="fill: none; stroke: #0000ff; stroke-width: 2; stroke-linecap: square"/>
   </g>
   <g id="line2d_15">
    <path d="M 132.691074 382.04097 
L 133.948775 347.105554 
L 136.464177 302.812181 
L 137.721878 261.710171 
L 138.979579 203.594627 
L 140.23728 234.060617 
L 141.49498 229.608446 
L 142.752681 215.113723 
L 144.010382 215.312487 
L 145.268083 257.376693 
L 147.783485 184.079821 
L 149.041186 161.274221 
L 150.298887 209.927172 
L 151.556588 193.289064 
L 152.814289 194.451068 
L 154.07199 208.334091 
L 155.329691 272.163806 
L 157.845093 313.164533 
L 159.102794 320.989075 
L 160.360495 384.621085 
L 161.618196 392.628306 
L 162.875897 371.48117 
L 164.133598 367.025778 
L 165.391299 402.779091 
L 166.649 402.576637 
L 167.906701 373.193148 
L 169.164402 357.769051 
L 170.422103 397.767459 
L 171.679804 384.615513 
L 172.937505 375.696714 
L 174.195206 359.115131 
L 175.452907 381.485025 
L 176.710608 379.515469 
L 177.968309 364.282683 
L 179.22601 323.441495 
L 180.483711 330.936102 
L 181.741412 347.251111 
L 182.999113 360.466748 
L 184.256814 358.088884 
L 185.514515 386.540782 
L 186.772216 386.497764 
L 188.029917 379.804105 
L 189.287618 394.317068 
L 190.545319 380.254389 
L 191.80302 377.100072 
L 193.060721 380.43342 
L 194.318422 387.024649 
L 195.576122 405.580572 
L 196.833823 430.391051 
L 198.091524 422.343189 
L 199.349225 417.929684 
L 200.606926 413.040379 
L 201.864627 384.476808 
L 203.122328 369.30795 
L 204.380029 349.64312 
L 205.63773 360.538629 
L 206.895431 341.031479 
L 208.153132 331.686931 
L 209.410833 301.142677 
L 210.668534 307.630047 
L 213.183936 334.0554 
L 214.441637 316.827022 
L 215.699338 360.682924 
L 216.957039 363.043538 
L 218.21474 318.458216 
L 219.472441 294.295682 
L 220.730142 314.659982 
L 221.987843 297.359688 
L 223.245544 293.348267 
L 224.503245 291.00643 
L 225.760946 296.595665 
L 227.018647 273.945921 
L 228.276348 276.896632 
L 229.534049 277.257299 
L 230.79175 287.357125 
L 232.049451 300.325899 
L 233.307152 327.439988 
L 234.564853 341.071445 
L 235.822554 351.853706 
L 237.080255 352.664738 
L 238.337956 350.889898 
L 239.595657 316.989481 
L 240.853358 318.982837 
L 242.111059 303.443366 
L 243.36876 313.82892 
L 244.626461 301.628838 
L 245.884162 326.709791 
L 247.141863 319.451888 
L 248.399564 327.176745 
L 249.657264 294.271714 
L 250.914965 305.664528 
L 252.172666 306.638588 
L 253.430367 283.733595 
L 254.688068 252.822487 
L 255.945769 266.422597 
L 257.20347 268.051682 
L 258.461171 266.362335 
L 259.718872 250.208105 
L 260.976573 285.326317 
L 262.234274 310.449507 
L 263.491975 326.370485 
L 264.749676 334.382913 
L 266.007377 346.694946 
L 267.265078 330.593367 
L 268.522779 321.925091 
L 269.78048 308.48751 
L 271.038181 315.607119 
L 272.295882 308.773586 
L 273.553583 301.316848 
L 274.811284 304.513008 
L 276.068985 346.308307 
L 277.326686 350.435027 
L 278.584387 373.486441 
L 279.842088 361.685249 
L 281.099789 379.003313 
L 282.35749 388.168026 
L 283.615191 384.651228 
L 284.872892 350.91762 
L 286.130593 364.467882 
L 287.388294 361.485488 
L 288.645995 324.321351 
L 289.903696 298.425287 
L 291.161397 308.538006 
L 292.419098 285.344713 
L 293.676799 266.487122 
L 294.9345 239.603711 
L 296.192201 294.883427 
L 297.449902 319.686089 
L 298.707603 320.142872 
L 299.965304 292.642478 
L 301.223005 352.105318 
L 302.480706 359.920927 
L 303.738406 327.570092 
L 304.996107 285.80109 
L 306.253808 330.114817 
L 307.511509 326.504621 
L 308.76921 318.826575 
L 310.026911 300.431803 
L 311.284612 350.276217 
L 312.542313 378.242933 
L 313.800014 392.703714 
L 315.057715 393.649079 
L 316.315416 355.46301 
L 317.573117 357.935762 
L 318.830818 390.666338 
L 320.088519 420.156992 
L 321.34622 392.187567 
L 322.603921 392.804562 
L 323.861622 384.891256 
L 325.119323 373.291238 
L 326.377024 405.011033 
L 327.634725 400.632243 
L 328.892426 380.026664 
L 330.150127 367.253712 
L 331.407828 371.140283 
L 332.665529 322.024508 
L 333.92323 295.460756 
L 335.180931 308.685023 
L 336.438632 335.135202 
L 337.696333 302.484969 
L 338.954034 300.107174 
L 340.211735 330.066823 
L 341.469436 349.323519 
L 342.727137 315.940089 
L 343.984838 303.910088 
L 345.242539 300.314928 
L 346.50024 306.96975 
L 347.757941 295.348539 
L 349.015642 305.02535 
L 350.273343 312.944014 
L 351.531044 340.039047 
L 352.788745 335.814543 
L 354.046446 334.135263 
L 355.304147 352.39926 
L 356.561848 391.712325 
L 357.819548 387.068728 
L 359.077249 370.974157 
L 360.33495 353.025973 
L 361.592651 387.241312 
L 362.850352 371.520881 
L 364.108053 351.876712 
L 365.365754 355.872703 
L 366.623455 401.961502 
L 367.881156 384.326987 
L 369.138857 379.167857 
L 370.396558 401.234757 
L 371.654259 429.714095 
L 372.91196 411.123654 
L 374.169661 413.024677 
L 375.427362 385.662363 
L 376.685063 363.878643 
L 377.942764 346.100518 
L 379.200465 332.117082 
L 380.458166 354.986453 
L 381.715867 380.095747 
L 382.973568 384.23908 
L 384.231269 381.095408 
L 385.48897 396.018991 
L 386.746671 420.79633 
L 388.004372 413.883935 
L 389.262073 416.082265 
L 390.519774 403.087617 
L 391.777475 400.7642 
L 393.035176 406.797712 
L 394.292877 403.762239 
L 395.550578 398.502452 
L 396.808279 411.535154 
L 398.06598 400.11324 
L 399.323681 394.258544 
L 400.581382 384.246911 
L 401.839083 395.999714 
L 403.096784 352.913721 
L 404.354485 337.752688 
L 405.612186 333.956771 
L 406.869887 366.862613 
L 408.127588 327.440533 
L 409.385289 337.488623 
L 410.64299 363.87028 
L 411.90069 393.262139 
L 413.158391 364.700913 
L 415.673793 393.527386 
L 416.931494 391.975446 
L 418.189195 375.469011 
L 419.446896 403.849312 
L 420.704597 425.945422 
L 421.962298 430.56 
L 423.219999 379.357412 
L 424.4777 383.265397 
L 425.735401 359.217328 
L 426.993102 328.670352 
L 428.250803 272.525736 
L 429.508504 242.808617 
L 430.766205 253.821986 
L 432.023906 258.914332 
L 433.281607 239.045507 
L 434.539308 251.233877 
L 435.797009 284.002386 
L 437.05471 293.958485 
L 438.312411 259.646579 
L 439.570112 290.811489 
L 440.827813 308.222297 
L 442.085514 310.23464 
L 443.343215 273.422783 
L 445.858617 311.696575 
L 447.116318 300.493061 
L 448.374019 242.702319 
L 449.63172 250.885165 
L 450.889421 277.965845 
L 452.147122 278.632409 
L 453.404823 252.868292 
L 454.662524 261.724629 
L 455.920225 292.654781 
L 457.177926 319.822008 
L 458.435627 292.381228 
L 459.693328 298.413193 
L 460.951029 330.714018 
L 462.20873 359.589151 
L 463.466431 337.505733 
L 464.724131 356.048681 
L 465.981832 378.823159 
L 467.239533 405.358407 
L 468.497234 370.901975 
L 469.754935 364.570913 
L 471.012636 356.762695 
L 472.270337 389.017455 
L 473.528038 360.102559 
L 474.785739 345.7019 
L 476.04344 348.460044 
L 477.301141 346.876253 
L 478.558842 300.078387 
L 479.816543 292.325773 
L 481.074244 295.019612 
L 482.331945 316.362929 
L 483.589646 286.379046 
L 484.847347 311.885261 
L 486.105048 313.299028 
L 487.362749 315.509185 
L 488.62045 310.846503 
L 489.878151 321.207185 
L 491.135852 311.50929 
L 493.651254 326.976961 
L 494.908955 323.871333 
L 496.166656 301.904604 
L 497.424357 290.25676 
L 498.682058 289.338143 
L 499.939759 300.461181 
L 501.19746 286.974215 
L 502.455161 314.152737 
L 503.712862 321.420082 
L 504.970563 341.276384 
L 506.228264 333.496605 
L 507.485965 333.974078 
L 508.743666 285.259614 
L 510.001367 274.036615 
L 511.259068 285.611107 
L 512.516769 279.057115 
L 513.77447 251.599341 
L 516.289872 296.508527 
L 517.547573 288.48082 
L 518.805273 232.339923 
L 520.062974 244.379063 
L 521.320675 248.334103 
L 522.578376 239.082276 
L 523.836077 180.20418 
L 525.093778 193.573159 
L 526.351479 180.765396 
L 527.60918 176.763045 
L 528.866881 146.832276 
L 530.124582 168.527097 
L 531.382283 213.986819 
L 532.639984 249.390296 
L 533.897685 238.361659 
L 535.155386 292.446471 
L 536.413087 305.514627 
L 537.670788 306.390289 
L 538.928489 264.360997 
L 540.18619 299.47227 
L 541.443891 297.935998 
L 542.701592 291.40148 
L 543.959293 254.933111 
L 545.216994 283.56386 
L 546.474695 291.026182 
L 547.732396 305.202359 
L 548.990097 267.027903 
L 550.247798 250.282732 
L 551.505499 265.687685 
L 552.7632 253.900644 
L 554.020901 200.325521 
L 556.536303 247.550375 
L 557.794004 243.668872 
L 559.051705 220.540092 
L 560.309406 255.769433 
L 561.567107 262.693336 
L 562.824808 260.284113 
L 564.082509 254.207235 
L 565.34021 285.350563 
L 566.597911 289.924046 
L 567.855612 316.747727 
L 569.113313 319.14284 
L 570.371014 319.766195 
L 571.628715 313.413505 
L 572.886415 338.476143 
L 574.144116 321.45348 
L 575.401817 333.91567 
L 576.659518 363.770295 
L 577.917219 354.5364 
L 579.17492 302.658966 
L 580.432621 324.677234 
L 581.690322 351.019944 
L 582.948023 350.811472 
L 584.205724 301.764665 
L 585.463425 332.960319 
L 586.721126 369.379541 
L 587.978827 358.98154 
L 589.236528 315.335895 
L 590.494229 348.64573 
L 591.75193 341.683691 
L 593.009631 316.087488 
L 594.267332 260.059492 
L 595.525033 285.393135 
L 596.782734 280.925904 
L 598.040435 292.221456 
L 599.298136 275.891596 
L 600.555837 309.854754 
L 601.813538 309.291789 
L 603.071239 308.123112 
L 604.32894 255.726872 
L 605.586641 296.201657 
L 606.844342 290.357208 
L 608.102043 282.979175 
L 609.359744 252.913054 
L 610.617445 296.766418 
L 611.875146 320.709405 
L 613.132847 321.094539 
L 614.390548 277.343568 
L 615.648249 307.779196 
L 616.90595 322.824779 
L 618.163651 340.046438 
L 619.421352 319.424039 
L 620.679053 334.543623 
L 621.936754 340.593185 
L 623.194455 373.682135 
L 624.452156 356.712094 
L 625.709857 392.081177 
L 626.967557 396.208227 
L 628.225258 403.407948 
L 630.74066 383.606817 
L 631.998361 384.038491 
L 633.256062 392.508055 
L 634.513763 375.376 
L 635.771464 363.016999 
L 637.029165 370.553854 
L 638.286866 373.521773 
L 639.544567 360.690442 
L 640.802268 334.95744 
L 642.059969 345.803321 
L 643.31767 360.806285 
L 644.575371 338.203378 
L 645.833072 334.05898 
L 647.090773 345.124431 
L 648.348474 351.42871 
L 649.606175 336.331426 
L 650.863876 332.722863 
L 652.121577 313.913289 
L 653.379278 322.794347 
L 654.636979 300.014013 
L 655.89468 314.918093 
L 657.152381 307.348918 
L 658.410082 312.496023 
L 659.667783 312.371503 
L 660.925484 319.481706 
L 662.183185 323.671074 
L 663.440886 326.1606 
L 664.698587 316.713449 
L 665.956288 328.510291 
L 667.213989 337.932014 
L 668.47169 333.426196 
L 669.729391 309.634014 
L 670.987092 333.613063 
L 672.244793 373.296596 
L 673.502494 372.008728 
L 674.760195 345.881238 
L 676.017896 387.458264 
L 677.275597 390.905028 
L 678.533298 375.492528 
L 679.790999 313.964978 
L 681.048699 321.288032 
L 682.3064 327.449464 
L 683.564101 327.842777 
L 684.821802 290.998066 
L 686.079503 316.475935 
L 687.337204 334.804213 
L 688.594905 358.160603 
L 689.852606 343.447456 
L 691.110307 392.063592 
L 692.368008 407.811871 
L 693.625709 405.212172 
L 694.88341 353.968952 
L 696.141111 366.554793 
L 697.398812 338.390732 
L 698.656513 329.201761 
L 699.914214 297.188633 
L 701.171915 309.95643 
L 702.429616 312.488945 
L 703.687317 294.342773 
L 704.945018 257.286266 
L 706.202719 297.689506 
L 707.46042 258.634616 
L 708.718121 246.630762 
L 709.975822 225.169481 
L 711.233523 279.47699 
L 712.491224 300.008475 
L 713.748925 305.039181 
L 715.006626 257.790186 
L 716.264327 303.981448 
L 717.522028 317.85993 
L 718.779729 314.768029 
L 720.03743 276.08612 
L 721.295131 288.537247 
L 722.552832 289.85944 
L 723.810533 297.248675 
L 725.068234 252.64425 
L 726.325935 269.626345 
L 727.583636 273.683535 
L 728.841337 247.327584 
L 730.099038 225.296979 
L 731.356739 254.507641 
L 732.61444 267.094397 
L 733.872141 281.14237 
L 735.129841 297.367461 
L 736.387542 340.006148 
L 737.645243 338.554059 
L 738.902944 355.498876 
L 740.160645 343.650808 
L 741.418346 353.653776 
L 741.418346 353.653776 
" clip-path="url(#p0a55d705de)" style="fill: none; stroke: #ffa500; stroke-width: 2; stroke-linecap: square"/>
   </g>
   <g id="line2d_16">
    <path d="M 132.691074 360.076633 
L 133.948775 350.29189 
L 135.206476 348.236941 
L 136.464177 345.27 
L 137.721878 343.781618 
L 138.979579 358.756803 
L 140.23728 358.349764 
L 141.49498 364.798975 
L 142.752681 367.971352 
L 144.010382 367.947894 
L 145.268083 372.395315 
L 146.525784 357.486821 
L 147.783485 365.372736 
L 149.041186 362.565776 
L 150.298887 354.412077 
L 151.556588 365.025043 
L 152.814289 356.67521 
L 154.07199 360.039586 
L 155.329691 350.772224 
L 156.587392 354.334844 
L 157.845093 342.798291 
L 159.102794 341.65802 
L 160.360495 343.355395 
L 161.618196 345.291825 
L 162.875897 339.840549 
L 164.133598 340.971843 
L 165.391299 336.333592 
L 166.649 332.180575 
L 167.906701 325.832009 
L 169.164402 326.46155 
L 170.422103 325.708729 
L 171.679804 323.7038 
L 172.937505 323.211314 
L 174.195206 331.013903 
L 175.452907 350.894046 
L 176.710608 359.054661 
L 177.968309 364.513409 
L 179.22601 379.895054 
L 180.483711 383.55471 
L 181.741412 402.552403 
L 182.999113 393.834012 
L 184.256814 397.607728 
L 185.514515 384.624758 
L 186.772216 381.017347 
L 188.029917 373.361636 
L 189.287618 374.658975 
L 190.545319 369.409771 
L 191.80302 367.585795 
L 193.060721 376.801421 
L 194.318422 375.31915 
L 195.576122 373.494608 
L 196.833823 370.783369 
L 198.091524 366.76089 
L 199.349225 366.445054 
L 200.606926 359.017197 
L 201.864627 363.978049 
L 203.122328 360.011853 
L 204.380029 362.921289 
L 205.63773 369.216248 
L 206.895431 380.547833 
L 208.153132 370.762094 
L 209.410833 374.329492 
L 210.668534 373.910932 
L 211.926235 379.839756 
L 213.183936 370.4738 
L 214.441637 355.727875 
L 215.699338 352.658367 
L 216.957039 346.232336 
L 218.21474 333.352588 
L 219.472441 355.91253 
L 220.730142 350.943754 
L 221.987843 342.86211 
L 223.245544 348.239072 
L 224.503245 341.268252 
L 225.760946 338.211765 
L 227.018647 338.252658 
L 228.276348 331.115417 
L 229.534049 325.391827 
L 230.79175 322.777213 
L 232.049451 323.963429 
L 233.307152 316.926543 
L 234.564853 327.131856 
L 235.822554 335.512585 
L 237.080255 332.618719 
L 238.337956 346.361247 
L 239.595657 345.663197 
L 240.853358 341.847401 
L 242.111059 345.72654 
L 243.36876 336.884046 
L 244.626461 337.579896 
L 245.884162 327.933274 
L 247.141863 325.979675 
L 248.399564 331.168635 
L 249.657264 340.985825 
L 250.914965 337.290391 
L 252.172666 337.777177 
L 253.430367 341.409396 
L 254.688068 327.438552 
L 255.945769 329.705878 
L 257.20347 331.373157 
L 258.461171 312.915215 
L 259.718872 321.326203 
L 260.976573 322.777399 
L 262.234274 319.4318 
L 263.491975 323.636368 
L 264.749676 326.577428 
L 266.007377 324.904751 
L 267.265078 331.045656 
L 268.522779 332.649395 
L 269.78048 346.365035 
L 271.038181 353.751641 
L 273.553583 371.415487 
L 274.811284 377.782321 
L 276.068985 389.340583 
L 277.326686 391.522498 
L 278.584387 383.420847 
L 281.099789 363.018875 
L 282.35749 360.541618 
L 283.615191 351.150396 
L 284.872892 360.643143 
L 286.130593 358.723313 
L 287.388294 377.391766 
L 288.645995 378.510561 
L 289.903696 380.796312 
L 291.161397 392.549625 
L 292.419098 390.502402 
L 293.676799 381.575331 
L 294.9345 384.370458 
L 296.192201 373.541038 
L 297.449902 369.581943 
L 298.707603 366.611881 
L 299.965304 364.956974 
L 301.223005 365.580247 
L 302.480706 356.263733 
L 303.738406 356.243819 
L 304.996107 355.007386 
L 306.253808 357.579682 
L 307.511509 369.734642 
L 308.76921 373.100936 
L 310.026911 376.980377 
L 311.284612 381.875922 
L 312.542313 379.407416 
L 313.800014 373.546812 
L 315.057715 374.458855 
L 316.315416 364.821379 
L 317.573117 364.251254 
L 318.830818 351.91969 
L 320.088519 341.075257 
L 321.34622 341.763599 
L 322.603921 343.926805 
L 323.861622 340.801738 
L 325.119323 352.970681 
L 326.377024 354.448047 
L 327.634725 351.425351 
L 328.892426 340.501113 
L 330.150127 345.602483 
L 331.407828 339.527157 
L 332.665529 349.468613 
L 333.92323 342.758082 
L 335.180931 338.841224 
L 336.438632 333.744557 
L 337.696333 335.993487 
L 338.954034 327.360821 
L 340.211735 326.00625 
L 341.469436 317.767406 
L 342.727137 330.007975 
L 343.984838 322.391176 
L 345.242539 319.142099 
L 346.50024 317.009464 
L 347.757941 320.644892 
L 349.015642 310.081807 
L 351.531044 327.314344 
L 352.788745 343.803443 
L 354.046446 336.347968 
L 355.304147 346.439106 
L 356.561848 334.524683 
L 357.819548 342.50508 
L 359.077249 346.075403 
L 360.33495 336.860657 
L 361.592651 339.392478 
L 362.850352 341.393722 
L 364.108053 324.106322 
L 365.365754 313.093788 
L 366.623455 312.594455 
L 367.881156 310.180796 
L 369.138857 297.60289 
L 370.396558 300.184871 
L 371.654259 301.909307 
L 372.91196 314.564202 
L 374.169661 313.291232 
L 375.427362 316.195072 
L 376.685063 315.588214 
L 377.942764 313.143404 
L 379.200465 287.651205 
L 380.458166 295.450469 
L 381.715867 291.839439 
L 382.973568 294.759358 
L 384.231269 279.893321 
L 385.48897 282.200555 
L 386.746671 280.87849 
L 388.004372 288.00198 
L 389.262073 277.92413 
L 390.519774 269.500863 
L 391.777475 272.92827 
L 393.035176 296.892051 
L 394.292877 274.146968 
L 395.550578 302.862318 
L 396.808279 309.034037 
L 398.06598 303.602049 
L 399.323681 305.976796 
L 400.581382 311.614164 
L 401.839083 301.316628 
L 403.096784 314.650656 
L 404.354485 298.651113 
L 405.612186 312.305947 
L 406.869887 315.659793 
L 408.127588 317.598761 
L 409.385289 315.121688 
L 410.64299 329.281983 
L 411.90069 306.236054 
L 413.158391 306.79259 
L 414.416092 272.699595 
L 415.673793 253.779726 
L 416.931494 244.967803 
L 418.189195 256.441928 
L 419.446896 260.770077 
L 420.704597 275.764898 
L 421.962298 273.776616 
L 423.219999 276.48168 
L 424.4777 271.356249 
L 425.735401 277.750816 
L 426.993102 271.159558 
L 428.250803 263.52412 
L 429.508504 262.807303 
L 430.766205 273.496008 
L 432.023906 259.461925 
L 433.281607 270.968833 
L 434.539308 262.058096 
L 435.797009 276.670621 
L 437.05471 270.125121 
L 438.312411 279.020532 
L 439.570112 273.599804 
L 440.827813 295.089675 
L 442.085514 291.253687 
L 443.343215 298.00993 
L 444.600916 296.075735 
L 445.858617 305.41324 
L 447.116318 305.763841 
L 448.374019 306.655165 
L 449.63172 295.446855 
L 450.889421 294.350592 
L 452.147122 279.720436 
L 453.404823 283.259076 
L 455.920225 249.238656 
L 458.435627 201.340403 
L 459.693328 201.464472 
L 462.20873 217.361668 
L 463.466431 234.864526 
L 464.724131 226.719515 
L 465.981832 220.964057 
L 467.239533 218.348841 
L 468.497234 226.500663 
L 469.754935 229.042666 
L 471.012636 235.019501 
L 472.270337 251.317794 
L 473.528038 276.679159 
L 474.785739 277.081889 
L 476.04344 289.31933 
L 477.301141 293.976545 
L 478.558842 291.504848 
L 479.816543 276.897802 
L 481.074244 285.792981 
L 482.331945 277.14507 
L 483.589646 263.663526 
L 484.847347 271.625921 
L 486.105048 285.623166 
L 487.362749 289.350886 
L 488.62045 310.724763 
L 491.135852 323.713357 
L 492.393553 320.737752 
L 493.651254 323.954741 
L 494.908955 302.496298 
L 496.166656 300.572228 
L 497.424357 301.988243 
L 498.682058 306.045839 
L 499.939759 292.885032 
L 501.19746 303.494824 
L 502.455161 305.489141 
L 503.712862 314.68622 
L 504.970563 300.24592 
L 506.228264 310.666412 
L 507.485965 309.325441 
L 508.743666 309.204489 
L 510.001367 313.116887 
L 511.259068 317.885613 
L 512.516769 305.47129 
L 513.77447 309.026681 
L 515.032171 298.949804 
L 516.289872 286.670311 
L 517.547573 269.28822 
L 518.805273 266.137691 
L 520.062974 245.856926 
L 521.320675 233.444932 
L 522.578376 233.049395 
L 523.836077 252.017582 
L 525.093778 259.142428 
L 526.351479 259.617364 
L 527.60918 260.73917 
L 528.866881 273.329911 
L 530.124582 276.856979 
L 531.382283 262.6163 
L 532.639984 272.220975 
L 533.897685 288.034196 
L 535.155386 269.945007 
L 536.413087 278.346646 
L 537.670788 284.351099 
L 538.928489 298.997995 
L 540.18619 305.751249 
L 541.443891 320.951008 
L 542.701592 322.538274 
L 543.959293 318.846373 
L 545.216994 305.107355 
L 546.474695 309.209783 
L 547.732396 311.255002 
L 548.990097 318.163093 
L 550.247798 318.3542 
L 551.505499 324.577249 
L 552.7632 317.061617 
L 554.020901 314.142821 
L 555.278602 294.11653 
L 556.536303 298.43123 
L 557.794004 284.528629 
L 559.051705 280.276682 
L 560.309406 265.599736 
L 561.567107 257.975095 
L 562.824808 243.797991 
L 564.082509 254.619731 
L 565.34021 252.421251 
L 566.597911 267.631819 
L 567.855612 252.902118 
L 569.113313 264.297585 
L 570.371014 263.16709 
L 571.628715 261.876314 
L 572.886415 243.158836 
L 574.144116 258.413355 
L 575.401817 232.910406 
L 576.659518 227.931123 
L 577.917219 234.471746 
L 579.17492 246.598766 
L 580.432621 241.009844 
L 581.690322 250.375499 
L 582.948023 243.554836 
L 584.205724 254.369208 
L 585.463425 238.881751 
L 586.721126 240.423722 
L 587.978827 240.928591 
L 589.236528 239.741797 
L 590.494229 238.85608 
L 593.009631 244.876217 
L 594.267332 246.186617 
L 595.525033 236.539833 
L 596.782734 238.855014 
L 598.040435 232.53125 
L 599.298136 235.402087 
L 600.555837 232.437255 
L 601.813538 232.880797 
L 603.071239 216.71489 
L 604.32894 234.722826 
L 605.586641 237.873054 
L 606.844342 234.194927 
L 608.102043 219.488881 
L 609.359744 238.04719 
L 610.617445 238.589477 
L 611.875146 244.106877 
L 613.132847 236.430569 
L 614.390548 262.964178 
L 615.648249 258.669693 
L 616.90595 272.092261 
L 618.163651 273.640326 
L 619.421352 292.788499 
L 620.679053 288.748337 
L 621.936754 298.215807 
L 623.194455 294.118801 
L 624.452156 306.148164 
L 625.709857 289.330208 
L 626.967557 293.737826 
L 628.225258 296.628761 
L 629.482959 303.652707 
L 630.74066 284.846377 
L 631.998361 295.612813 
L 633.256062 293.911777 
L 634.513763 293.842549 
L 635.771464 283.123296 
L 637.029165 290.980366 
L 638.286866 284.216315 
L 639.544567 289.053446 
L 640.802268 278.069884 
L 642.059969 285.210948 
L 643.31767 276.51312 
L 644.575371 281.211447 
L 645.833072 274.821027 
L 647.090773 270.168724 
L 648.348474 268.780455 
L 649.606175 282.036833 
L 650.863876 269.027827 
L 652.121577 261.499683 
L 653.379278 252.231407 
L 654.636979 245.784292 
L 655.89468 244.371371 
L 657.152381 237.617665 
L 658.410082 249.704718 
L 659.667783 253.191704 
L 663.440886 218.181539 
L 664.698587 214.114131 
L 665.956288 206.087466 
L 667.213989 212.003576 
L 668.47169 202.201747 
L 669.729391 197.16577 
L 670.987092 194.871024 
L 672.244793 189.8154 
L 673.502494 206.965167 
L 674.760195 215.052534 
L 676.017896 208.018046 
L 677.275597 231.733064 
L 678.533298 237.965219 
L 681.048699 261.971097 
L 682.3064 263.232171 
L 683.564101 260.285596 
L 684.821802 275.619155 
L 686.079503 274.444929 
L 687.337204 283.425729 
L 688.594905 296.876261 
L 691.110307 313.57031 
L 692.368008 321.658153 
L 693.625709 324.20107 
L 694.88341 321.339745 
L 696.141111 327.155337 
L 697.398812 318.134445 
L 698.656513 304.598385 
L 699.914214 296.055915 
L 701.171915 266.067721 
L 702.429616 228.385786 
L 703.687317 216.992034 
L 704.945018 221.14709 
L 706.202719 238.534637 
L 707.46042 246.910292 
L 708.718121 247.155904 
L 709.975822 272.620392 
L 711.233523 280.288683 
L 712.491224 286.513563 
L 713.748925 285.229784 
L 715.006626 290.685856 
L 716.264327 294.384824 
L 717.522028 297.037295 
L 718.779729 290.258336 
L 720.03743 293.842734 
L 721.295131 269.687464 
L 722.552832 261.882871 
L 723.810533 267.592548 
L 725.068234 285.305129 
L 726.325935 291.358827 
L 727.583636 307.690529 
L 728.841337 307.945338 
L 730.099038 311.196281 
L 731.356739 299.707375 
L 732.61444 308.924947 
L 733.872141 303.653738 
L 735.129841 307.668322 
L 736.387542 288.887929 
L 737.645243 276.602656 
L 738.902944 258.171288 
L 740.160645 257.715698 
L 741.418346 249.770355 
L 741.418346 249.770355 
" clip-path="url(#p0a55d705de)" style="fill: none; stroke-dasharray: 7.4,3.2; stroke-dashoffset: 0; stroke: #0000ff; stroke-width: 2"/>
   </g>
   <g id="line2d_17">
    <path d="M 132.691074 310.195508 
L 135.206476 229.973817 
L 136.464177 176.204239 
L 137.721878 133.067576 
L 138.979579 105.037128 
L 140.23728 102.441629 
L 141.49498 79.879092 
L 142.752681 104.285882 
L 144.010382 139.249107 
L 145.268083 130.596863 
L 146.525784 39.396337 
L 147.783485 43.446091 
L 149.041186 43.416342 
L 150.298887 50.034673 
L 151.556588 27.36 
L 152.814289 84.062785 
L 154.07199 146.489703 
L 155.329691 215.265408 
L 156.587392 237.320573 
L 159.102794 338.839498 
L 160.360495 363.40716 
L 161.618196 323.121918 
L 162.875897 347.201357 
L 164.133598 347.799492 
L 165.391299 348.996377 
L 166.649 307.759352 
L 167.906701 300.016422 
L 169.164402 320.012223 
L 170.422103 333.442008 
L 171.679804 318.074565 
L 172.937505 326.354997 
L 174.195206 314.725561 
L 175.452907 314.857449 
L 176.710608 282.204969 
L 177.968309 267.269066 
L 179.22601 215.070652 
L 180.483711 250.744739 
L 181.741412 256.574314 
L 182.999113 273.400159 
L 184.256814 294.869085 
L 185.514515 348.936045 
L 186.772216 376.200998 
L 188.029917 382.895328 
L 189.287618 378.854726 
L 190.545319 380.786471 
L 191.80302 385.555497 
L 193.060721 379.7833 
L 194.318422 404.517255 
L 195.576122 417.301661 
L 196.833823 412.658443 
L 198.091524 408.6715 
L 199.349225 384.760017 
L 200.606926 367.101436 
L 201.864627 318.599476 
L 203.122328 304.550796 
L 204.380029 283.377016 
L 205.63773 279.055447 
L 206.895431 256.265058 
L 208.153132 245.338318 
L 209.410833 201.002163 
L 210.668534 223.073847 
L 211.926235 222.119133 
L 213.183936 225.892299 
L 214.441637 251.120165 
L 215.699338 298.715128 
L 216.957039 226.392326 
L 218.21474 234.953146 
L 219.472441 247.708501 
L 220.730142 255.713457 
L 221.987843 252.291877 
L 223.245544 281.722017 
L 224.503245 289.363617 
L 225.760946 280.147632 
L 227.018647 279.918158 
L 228.276348 281.582761 
L 229.534049 277.709136 
L 230.79175 288.057318 
L 232.049451 327.956952 
L 234.564853 369.080167 
L 235.822554 356.078626 
L 239.595657 218.756124 
L 240.853358 210.284851 
L 242.111059 210.500065 
L 243.36876 234.654015 
L 244.626461 245.802897 
L 245.884162 267.118307 
L 247.141863 228.438403 
L 248.399564 210.796718 
L 249.657264 219.158379 
L 250.914965 247.486892 
L 252.172666 194.079696 
L 253.430367 156.376956 
L 254.688068 150.945072 
L 255.945769 176.519473 
L 257.20347 161.041862 
L 258.461171 165.704151 
L 259.718872 175.182661 
L 260.976573 230.993727 
L 262.234274 241.99243 
L 263.491975 275.423229 
L 264.749676 267.722362 
L 266.007377 283.201282 
L 267.265078 257.335059 
L 268.522779 257.835457 
L 269.78048 244.051851 
L 271.038181 258.104423 
L 272.295882 227.472035 
L 273.553583 228.882964 
L 274.811284 246.228831 
L 276.068985 279.002472 
L 277.326686 285.65997 
L 278.584387 314.610714 
L 279.842088 310.321082 
L 281.099789 322.59542 
L 282.35749 304.766578 
L 283.615191 299.815202 
L 284.872892 296.527166 
L 286.130593 315.151634 
L 287.388294 272.642843 
L 288.645995 252.180783 
L 289.903696 235.411725 
L 291.161397 209.570258 
L 292.419098 179.9724 
L 293.676799 168.607725 
L 294.9345 182.394273 
L 296.192201 233.194941 
L 297.449902 210.655921 
L 298.707603 218.327641 
L 301.223005 286.082544 
L 302.480706 217.343897 
L 303.738406 194.1448 
L 304.996107 216.238657 
L 306.253808 233.430451 
L 307.511509 193.452148 
L 308.76921 194.17726 
L 310.026911 225.271563 
L 311.284612 291.397206 
L 312.542313 338.506123 
L 313.800014 390.639862 
L 315.057715 363.582037 
L 316.315416 343.932875 
L 317.573117 371.64338 
L 318.830818 367.083793 
L 320.088519 357.460629 
L 321.34622 345.113449 
L 322.603921 317.663598 
L 323.861622 309.253607 
L 325.119323 350.061327 
L 326.377024 385.882564 
L 327.634725 360.347487 
L 328.892426 361.200316 
L 330.150127 344.170575 
L 331.407828 311.985176 
L 332.665529 244.468378 
L 333.92323 261.737649 
L 335.180931 271.406571 
L 336.438632 260.987469 
L 337.696333 243.588176 
L 338.954034 298.076922 
L 340.211735 295.991957 
L 341.469436 282.893334 
L 342.727137 259.783576 
L 343.984838 274.821606 
L 345.242539 255.870402 
L 347.757941 244.222581 
L 349.015642 275.073682 
L 350.273343 286.760391 
L 351.531044 296.520795 
L 352.788745 286.491808 
L 355.304147 354.094967 
L 356.561848 365.992952 
L 357.819548 336.887209 
L 359.077249 335.240318 
L 360.33495 347.036418 
L 361.592651 353.287178 
L 362.850352 310.41451 
L 364.108053 333.415271 
L 365.365754 351.922134 
L 366.623455 360.38107 
L 367.881156 348.911788 
L 369.138857 389.776016 
L 370.396558 390.23511 
L 371.654259 387.774702 
L 372.91196 379.319966 
L 374.169661 379.546596 
L 375.427362 326.244772 
L 376.685063 311.53334 
L 377.942764 264.345034 
L 379.200465 268.670982 
L 381.715867 347.008801 
L 382.973568 328.581453 
L 384.231269 348.790604 
L 385.48897 377.518424 
L 386.746671 394.517623 
L 388.004372 404.485149 
L 389.262073 395.269077 
L 390.519774 383.19812 
L 391.777475 383.733283 
L 393.035176 400.672087 
L 394.292877 412.696666 
L 395.550578 416.501338 
L 396.808279 413.801721 
L 398.06598 388.662325 
L 399.323681 395.167841 
L 400.581382 402.603235 
L 401.839083 360.826199 
L 403.096784 300.457914 
L 404.354485 292.982375 
L 405.612186 310.675425 
L 406.869887 296.717602 
L 408.127588 286.076694 
L 409.385289 341.169692 
L 410.64299 376.345953 
L 411.90069 361.907889 
L 413.158391 340.53941 
L 414.416092 370.442464 
L 415.673793 365.213799 
L 416.931494 354.516997 
L 418.189195 370.727544 
L 419.446896 419.976597 
L 420.704597 418.788293 
L 421.962298 380.12242 
L 423.219999 357.694355 
L 424.4777 345.140557 
L 425.735401 273.888138 
L 426.993102 225.361457 
L 428.250803 164.800478 
L 429.508504 185.691785 
L 430.766205 201.729059 
L 432.023906 196.778783 
L 433.281607 197.414347 
L 434.539308 256.046461 
L 435.797009 263.079466 
L 437.05471 246.240994 
L 438.312411 266.901587 
L 439.570112 309.73408 
L 440.827813 299.903996 
L 442.085514 273.317076 
L 443.343215 278.525358 
L 444.600916 318.308836 
L 445.858617 295.774832 
L 447.116318 237.327987 
L 448.374019 233.462656 
L 449.63172 269.934234 
L 450.889421 246.915436 
L 452.147122 226.034833 
L 453.404823 227.58116 
L 454.662524 272.16895 
L 455.920225 304.095751 
L 457.177926 286.112489 
L 458.435627 283.463158 
L 459.693328 324.968048 
L 460.951029 342.038021 
L 462.20873 329.822266 
L 463.466431 323.113693 
L 464.724131 373.907549 
L 465.981832 382.022493 
L 467.239533 368.852679 
L 468.497234 329.601236 
L 469.754935 323.60575 
L 471.012636 342.24786 
L 472.270337 339.619137 
L 473.528038 326.821604 
L 474.785739 362.447882 
L 476.04344 336.803083 
L 478.558842 230.981865 
L 479.816543 243.936726 
L 481.074244 261.153798 
L 482.331945 256.424575 
L 483.589646 258.488815 
L 484.847347 281.76401 
L 486.105048 278.913122 
L 487.362749 287.632624 
L 488.62045 281.603798 
L 489.878151 284.533761 
L 491.135852 277.203316 
L 492.393553 298.812205 
L 493.651254 277.380997 
L 494.908955 263.15539 
L 496.166656 234.559 
L 497.424357 255.531745 
L 498.682058 260.531393 
L 499.939759 254.084441 
L 501.19746 273.819061 
L 502.455161 307.336742 
L 503.712862 318.203175 
L 504.970563 345.910928 
L 506.228264 334.806078 
L 507.485965 282.426265 
L 508.743666 234.856718 
L 510.001367 227.688037 
L 511.259068 204.806746 
L 512.516769 192.920612 
L 513.77447 210.848592 
L 515.032171 243.855496 
L 516.289872 220.499315 
L 517.547573 173.293784 
L 518.805273 160.152183 
L 520.062974 174.591557 
L 521.320675 150.291459 
L 522.578376 114.777074 
L 523.836077 95.451996 
L 525.093778 106.863333 
L 526.351479 81.451299 
L 527.60918 60.481496 
L 528.866881 71.666661 
L 530.124582 138.740785 
L 531.382283 177.62754 
L 532.639984 208.462654 
L 533.897685 264.77354 
L 535.155386 303.94498 
L 536.413087 293.569262 
L 537.670788 265.699223 
L 538.928489 271.808804 
L 540.18619 284.306708 
L 541.443891 261.376472 
L 542.701592 232.014773 
L 543.959293 246.660418 
L 545.216994 276.149 
L 546.474695 283.114028 
L 547.732396 263.653448 
L 548.990097 212.743562 
L 550.247798 203.00876 
L 551.505499 186.111718 
L 552.7632 152.242544 
L 554.020901 146.761079 
L 555.278602 165.921334 
L 556.536303 170.739178 
L 557.794004 172.219613 
L 559.051705 192.889009 
L 560.309406 225.642262 
L 561.567107 216.759281 
L 562.824808 225.706741 
L 564.082509 247.224229 
L 565.34021 281.572775 
L 566.597911 291.550652 
L 567.855612 312.904407 
L 569.113313 313.333862 
L 570.371014 320.395353 
L 571.628715 333.580835 
L 572.886415 327.450762 
L 574.144116 334.810573 
L 575.401817 379.582734 
L 576.659518 368.983298 
L 577.917219 319.467642 
L 579.17492 331.198175 
L 580.432621 368.313542 
L 581.690322 352.464758 
L 582.948023 311.108912 
L 584.205724 320.834794 
L 585.463425 349.297188 
L 586.721126 331.896712 
L 587.978827 309.799763 
L 589.236528 321.932053 
L 590.494229 308.187162 
L 593.009631 239.087489 
L 594.267332 200.636028 
L 595.525033 219.78697 
L 596.782734 235.65912 
L 598.040435 243.678765 
L 599.298136 261.903792 
L 600.555837 267.722223 
L 601.813538 259.507613 
L 603.071239 220.455874 
L 604.32894 234.515049 
L 605.586641 232.394694 
L 606.844342 210.865992 
L 608.102043 192.308332 
L 609.359744 229.694449 
L 610.617445 279.707519 
L 611.875146 280.768867 
L 613.132847 245.519219 
L 614.390548 256.107117 
L 615.648249 289.857227 
L 616.90595 296.659159 
L 618.163651 305.851975 
L 619.421352 305.69247 
L 620.679053 321.565107 
L 621.936754 339.829428 
L 623.194455 341.133607 
L 624.452156 374.869005 
L 625.709857 417.510188 
L 626.967557 421.220016 
L 628.225258 414.559159 
L 629.482959 393.739252 
L 630.74066 400.860848 
L 631.998361 405.16774 
L 633.256062 399.21628 
L 634.513763 376.204925 
L 635.771464 396.113253 
L 637.029165 392.54743 
L 638.286866 381.099179 
L 639.544567 356.470108 
L 640.802268 362.066815 
L 642.059969 375.847988 
L 643.31767 360.376691 
L 644.575371 354.414753 
L 645.833072 367.963226 
L 647.090773 376.645757 
L 648.348474 364.694171 
L 649.606175 360.223314 
L 650.863876 352.140349 
L 652.121577 338.582059 
L 653.379278 328.180542 
L 654.636979 331.535269 
L 655.89468 330.381153 
L 657.152381 321.089059 
L 658.410082 322.120287 
L 659.667783 329.919714 
L 660.925484 336.304539 
L 662.183185 324.353497 
L 663.440886 320.984927 
L 664.698587 335.500422 
L 665.956288 355.755736 
L 667.213989 333.568255 
L 668.47169 308.374968 
L 669.729391 325.496607 
L 670.987092 370.80754 
L 672.244793 365.830991 
L 673.502494 352.546543 
L 674.760195 372.22992 
L 676.017896 379.915472 
L 677.275597 363.053605 
L 678.533298 322.516936 
L 679.790999 286.916178 
L 681.048699 292.722758 
L 682.3064 270.153584 
L 683.564101 258.236879 
L 684.821802 259.505065 
L 686.079503 288.201706 
L 687.337204 299.253847 
L 688.594905 317.795243 
L 691.110307 405.916588 
L 692.368008 418.94549 
L 693.625709 384.580448 
L 694.88341 370.924362 
L 696.141111 320.008261 
L 697.398812 296.090123 
L 698.656513 295.632981 
L 699.914214 270.596292 
L 701.171915 270.671717 
L 702.429616 236.638532 
L 703.687317 242.104983 
L 704.945018 257.945207 
L 706.202719 209.61882 
L 707.46042 172.418331 
L 708.718121 175.457303 
L 711.233523 260.301814 
L 712.491224 264.380737 
L 713.748925 248.569729 
L 715.006626 274.028518 
L 716.264327 307.428838 
L 717.522028 303.228534 
L 718.779729 280.85429 
L 720.03743 265.146649 
L 721.295131 266.623956 
L 722.552832 248.789577 
L 723.810533 245.953679 
L 725.068234 247.890654 
L 726.325935 251.268514 
L 727.583636 211.945006 
L 728.841337 179.288622 
L 731.356739 230.892156 
L 732.61444 256.683439 
L 733.872141 304.410683 
L 735.129841 332.727438 
L 737.645243 368.833466 
L 738.902944 369.715262 
L 740.160645 367.229049 
L 741.418346 398.444484 
L 741.418346 398.444484 
" clip-path="url(#p0a55d705de)" style="fill: none; stroke-dasharray: 7.4,3.2; stroke-dashoffset: 0; stroke: #ffa500; stroke-width: 2"/>
   </g>
   <g id="patch_3">
    <path d="M 102.25471 450.72 
L 102.25471 7.2 
" style="fill: none; stroke: #000000; stroke-width: 0.8; stroke-linejoin: miter; stroke-linecap: square"/>
   </g>
   <g id="patch_4">
    <path d="M 771.85471 450.72 
L 771.85471 7.2 
" style="fill: none; stroke: #000000; stroke-width: 0.8; stroke-linejoin: miter; stroke-linecap: square"/>
   </g>
   <g id="patch_5">
    <path d="M 102.25471 450.72 
L 771.85471 450.72 
" style="fill: none; stroke: #000000; stroke-width: 0.8; stroke-linejoin: miter; stroke-linecap: square"/>
   </g>
   <g id="patch_6">
    <path d="M 102.25471 7.2 
L 771.85471 7.2 
" style="fill: none; stroke: #000000; stroke-width: 0.8; stroke-linejoin: miter; stroke-linecap: square"/>
   </g>
   <g id="legend_1">
    <g id="text_16">
     <!-- Forecast Horizon -->
     <g transform="translate(887.954554 31.9575) scale(0.16 -0.16)">
      <defs>
       <path id="DejaVuSans-48" d="M 628 4666 
L 1259 4666 
L 1259 2753 
L 3553 2753 
L 3553 4666 
L 4184 4666 
L 4184 0 
L 3553 0 
L 3553 2222 
L 1259 2222 
L 1259 0 
L 628 0 
L 628 4666 
z
" transform="scale(0.015625)"/>
       <path id="DejaVuSans-69" d="M 603 3500 
L 1178 3500 
L 1178 0 
L 603 0 
L 603 3500 
z
M 603 4863 
L 1178 4863 
L 1178 4134 
L 603 4134 
L 603 4863 
z
" transform="scale(0.015625)"/>
       <path id="DejaVuSans-7a" d="M 353 3500 
L 3084 3500 
L 3084 2975 
L 922 459 
L 3084 459 
L 3084 0 
L 275 0 
L 275 525 
L 2438 3041 
L 353 3041 
L 353 3500 
z
" transform="scale(0.015625)"/>
      </defs>
      <use xlink:href="#DejaVuSans-46"/>
      <use xlink:href="#DejaVuSans-6f" transform="translate(53.894531 0)"/>
      <use xlink:href="#DejaVuSans-72" transform="translate(115.076172 0)"/>
      <use xlink:href="#DejaVuSans-65" transform="translate(153.939453 0)"/>
      <use xlink:href="#DejaVuSans-63" transform="translate(215.462891 0)"/>
      <use xlink:href="#DejaVuSans-61" transform="translate(270.443359 0)"/>
      <use xlink:href="#DejaVuSans-73" transform="translate(331.722656 0)"/>
      <use xlink:href="#DejaVuSans-74" transform="translate(383.822266 0)"/>
      <use xlink:href="#DejaVuSans-20" transform="translate(423.03125 0)"/>
      <use xlink:href="#DejaVuSans-48" transform="translate(454.818359 0)"/>
      <use xlink:href="#DejaVuSans-6f" transform="translate(530.013672 0)"/>
      <use xlink:href="#DejaVuSans-72" transform="translate(591.195312 0)"/>
      <use xlink:href="#DejaVuSans-69" transform="translate(632.308594 0)"/>
      <use xlink:href="#DejaVuSans-7a" transform="translate(660.091797 0)"/>
      <use xlink:href="#DejaVuSans-6f" transform="translate(712.582031 0)"/>
      <use xlink:href="#DejaVuSans-6e" transform="translate(773.763672 0)"/>
     </g>
    </g>
    <g id="line2d_18">
     <path d="M 817.93471 48.022812 
L 831.93471 48.022812 
L 845.93471 48.022812 
" style="fill: none; stroke: #0000ff; stroke-width: 2; stroke-linecap: square"/>
    </g>
    <g id="text_17">
     <!-- USA RMSE (6h Forecast) -->
     <g transform="translate(857.13471 52.922812) scale(0.14 -0.14)">
      <defs>
       <path id="DejaVuSans-55" d="M 556 4666 
L 1191 4666 
L 1191 1831 
Q 1191 1081 1462 751 
Q 1734 422 2344 422 
Q 2950 422 3222 751 
Q 3494 1081 3494 1831 
L 3494 4666 
L 4128 4666 
L 4128 1753 
Q 4128 841 3676 375 
Q 3225 -91 2344 -91 
Q 1459 -91 1007 375 
Q 556 841 556 1753 
L 556 4666 
z
" transform="scale(0.015625)"/>
       <path id="DejaVuSans-41" d="M 2188 4044 
L 1331 1722 
L 3047 1722 
L 2188 4044 
z
M 1831 4666 
L 2547 4666 
L 4325 0 
L 3669 0 
L 3244 1197 
L 1141 1197 
L 716 0 
L 50 0 
L 1831 4666 
z
" transform="scale(0.015625)"/>
       <path id="DejaVuSans-68" d="M 3513 2113 
L 3513 0 
L 2938 0 
L 2938 2094 
Q 2938 2591 2744 2837 
Q 2550 3084 2163 3084 
Q 1697 3084 1428 2787 
Q 1159 2491 1159 1978 
L 1159 0 
L 581 0 
L 581 4863 
L 1159 4863 
L 1159 2956 
Q 1366 3272 1645 3428 
Q 1925 3584 2291 3584 
Q 2894 3584 3203 3211 
Q 3513 2838 3513 2113 
z
" transform="scale(0.015625)"/>
      </defs>
      <use xlink:href="#DejaVuSans-55"/>
      <use xlink:href="#DejaVuSans-53" transform="translate(73.193359 0)"/>
      <use xlink:href="#DejaVuSans-41" transform="translate(138.544922 0)"/>
      <use xlink:href="#DejaVuSans-20" transform="translate(206.953125 0)"/>
      <use xlink:href="#DejaVuSans-52" transform="translate(238.740234 0)"/>
      <use xlink:href="#DejaVuSans-4d" transform="translate(308.222656 0)"/>
      <use xlink:href="#DejaVuSans-53" transform="translate(394.501953 0)"/>
      <use xlink:href="#DejaVuSans-45" transform="translate(457.978516 0)"/>
      <use xlink:href="#DejaVuSans-20" transform="translate(521.162109 0)"/>
      <use xlink:href="#DejaVuSans-28" transform="translate(552.949219 0)"/>
      <use xlink:href="#DejaVuSans-36" transform="translate(591.962891 0)"/>
      <use xlink:href="#DejaVuSans-68" transform="translate(655.585938 0)"/>
      <use xlink:href="#DejaVuSans-20" transform="translate(718.964844 0)"/>
      <use xlink:href="#DejaVuSans-46" transform="translate(750.751953 0)"/>
      <use xlink:href="#DejaVuSans-6f" transform="translate(804.646484 0)"/>
      <use xlink:href="#DejaVuSans-72" transform="translate(865.828125 0)"/>
      <use xlink:href="#DejaVuSans-65" transform="translate(904.691406 0)"/>
      <use xlink:href="#DejaVuSans-63" transform="translate(966.214844 0)"/>
      <use xlink:href="#DejaVuSans-61" transform="translate(1021.195312 0)"/>
      <use xlink:href="#DejaVuSans-73" transform="translate(1082.474609 0)"/>
      <use xlink:href="#DejaVuSans-74" transform="translate(1134.574219 0)"/>
      <use xlink:href="#DejaVuSans-29" transform="translate(1173.783203 0)"/>
     </g>
    </g>
    <g id="line2d_19">
     <path d="M 817.93471 68.572187 
L 831.93471 68.572187 
L 845.93471 68.572187 
" style="fill: none; stroke: #ffa500; stroke-width: 2; stroke-linecap: square"/>
    </g>
    <g id="text_18">
     <!-- South Africa RMSE (6h Forecast) -->
     <g transform="translate(857.13471 73.472187) scale(0.14 -0.14)">
      <defs>
       <path id="DejaVuSans-66" d="M 2375 4863 
L 2375 4384 
L 1825 4384 
Q 1516 4384 1395 4259 
Q 1275 4134 1275 3809 
L 1275 3500 
L 2222 3500 
L 2222 3053 
L 1275 3053 
L 1275 0 
L 697 0 
L 697 3053 
L 147 3053 
L 147 3500 
L 697 3500 
L 697 3744 
Q 697 4328 969 4595 
Q 1241 4863 1831 4863 
L 2375 4863 
z
" transform="scale(0.015625)"/>
      </defs>
      <use xlink:href="#DejaVuSans-53"/>
      <use xlink:href="#DejaVuSans-6f" transform="translate(63.476562 0)"/>
      <use xlink:href="#DejaVuSans-75" transform="translate(124.658203 0)"/>
      <use xlink:href="#DejaVuSans-74" transform="translate(188.037109 0)"/>
      <use xlink:href="#DejaVuSans-68" transform="translate(227.246094 0)"/>
      <use xlink:href="#DejaVuSans-20" transform="translate(290.625 0)"/>
      <use xlink:href="#DejaVuSans-41" transform="translate(322.412109 0)"/>
      <use xlink:href="#DejaVuSans-66" transform="translate(387.195312 0)"/>
      <use xlink:href="#DejaVuSans-72" transform="translate(422.400391 0)"/>
      <use xlink:href="#DejaVuSans-69" transform="translate(463.513672 0)"/>
      <use xlink:href="#DejaVuSans-63" transform="translate(491.296875 0)"/>
      <use xlink:href="#DejaVuSans-61" transform="translate(546.277344 0)"/>
      <use xlink:href="#DejaVuSans-20" transform="translate(607.556641 0)"/>
      <use xlink:href="#DejaVuSans-52" transform="translate(639.34375 0)"/>
      <use xlink:href="#DejaVuSans-4d" transform="translate(708.826172 0)"/>
      <use xlink:href="#DejaVuSans-53" transform="translate(795.105469 0)"/>
      <use xlink:href="#DejaVuSans-45" transform="translate(858.582031 0)"/>
      <use xlink:href="#DejaVuSans-20" transform="translate(921.765625 0)"/>
      <use xlink:href="#DejaVuSans-28" transform="translate(953.552734 0)"/>
      <use xlink:href="#DejaVuSans-36" transform="translate(992.566406 0)"/>
      <use xlink:href="#DejaVuSans-68" transform="translate(1056.189453 0)"/>
      <use xlink:href="#DejaVuSans-20" transform="translate(1119.568359 0)"/>
      <use xlink:href="#DejaVuSans-46" transform="translate(1151.355469 0)"/>
      <use xlink:href="#DejaVuSans-6f" transform="translate(1205.25 0)"/>
      <use xlink:href="#DejaVuSans-72" transform="translate(1266.431641 0)"/>
      <use xlink:href="#DejaVuSans-65" transform="translate(1305.294922 0)"/>
      <use xlink:href="#DejaVuSans-63" transform="translate(1366.818359 0)"/>
      <use xlink:href="#DejaVuSans-61" transform="translate(1421.798828 0)"/>
      <use xlink:href="#DejaVuSans-73" transform="translate(1483.078125 0)"/>
      <use xlink:href="#DejaVuSans-74" transform="translate(1535.177734 0)"/>
      <use xlink:href="#DejaVuSans-29" transform="translate(1574.386719 0)"/>
     </g>
    </g>
    <g id="line2d_20">
     <path d="M 817.93471 89.121562 
L 831.93471 89.121562 
L 845.93471 89.121562 
" style="fill: none; stroke-dasharray: 7.4,3.2; stroke-dashoffset: 0; stroke: #0000ff; stroke-width: 2"/>
    </g>
    <g id="text_19">
     <!-- USA RMSE (12h Forecast) -->
     <g transform="translate(857.13471 94.021562) scale(0.14 -0.14)">
      <use xlink:href="#DejaVuSans-55"/>
      <use xlink:href="#DejaVuSans-53" transform="translate(73.193359 0)"/>
      <use xlink:href="#DejaVuSans-41" transform="translate(138.544922 0)"/>
      <use xlink:href="#DejaVuSans-20" transform="translate(206.953125 0)"/>
      <use xlink:href="#DejaVuSans-52" transform="translate(238.740234 0)"/>
      <use xlink:href="#DejaVuSans-4d" transform="translate(308.222656 0)"/>
      <use xlink:href="#DejaVuSans-53" transform="translate(394.501953 0)"/>
      <use xlink:href="#DejaVuSans-45" transform="translate(457.978516 0)"/>
      <use xlink:href="#DejaVuSans-20" transform="translate(521.162109 0)"/>
      <use xlink:href="#DejaVuSans-28" transform="translate(552.949219 0)"/>
      <use xlink:href="#DejaVuSans-31" transform="translate(591.962891 0)"/>
      <use xlink:href="#DejaVuSans-32" transform="translate(655.585938 0)"/>
      <use xlink:href="#DejaVuSans-68" transform="translate(719.208984 0)"/>
      <use xlink:href="#DejaVuSans-20" transform="translate(782.587891 0)"/>
      <use xlink:href="#DejaVuSans-46" transform="translate(814.375 0)"/>
      <use xlink:href="#DejaVuSans-6f" transform="translate(868.269531 0)"/>
      <use xlink:href="#DejaVuSans-72" transform="translate(929.451172 0)"/>
      <use xlink:href="#DejaVuSans-65" transform="translate(968.314453 0)"/>
      <use xlink:href="#DejaVuSans-63" transform="translate(1029.837891 0)"/>
      <use xlink:href="#DejaVuSans-61" transform="translate(1084.818359 0)"/>
      <use xlink:href="#DejaVuSans-73" transform="translate(1146.097656 0)"/>
      <use xlink:href="#DejaVuSans-74" transform="translate(1198.197266 0)"/>
      <use xlink:href="#DejaVuSans-29" transform="translate(1237.40625 0)"/>
     </g>
    </g>
    <g id="line2d_21">
     <path d="M 817.93471 109.670937 
L 831.93471 109.670937 
L 845.93471 109.670937 
" style="fill: none; stroke-dasharray: 7.4,3.2; stroke-dashoffset: 0; stroke: #ffa500; stroke-width: 2"/>
    </g>
    <g id="text_20">
     <!-- South Africa RMSE (12h Forecast) -->
     <g transform="translate(857.13471 114.570937) scale(0.14 -0.14)">
      <use xlink:href="#DejaVuSans-53"/>
      <use xlink:href="#DejaVuSans-6f" transform="translate(63.476562 0)"/>
      <use xlink:href="#DejaVuSans-75" transform="translate(124.658203 0)"/>
      <use xlink:href="#DejaVuSans-74" transform="translate(188.037109 0)"/>
      <use xlink:href="#DejaVuSans-68" transform="translate(227.246094 0)"/>
      <use xlink:href="#DejaVuSans-20" transform="translate(290.625 0)"/>
      <use xlink:href="#DejaVuSans-41" transform="translate(322.412109 0)"/>
      <use xlink:href="#DejaVuSans-66" transform="translate(387.195312 0)"/>
      <use xlink:href="#DejaVuSans-72" transform="translate(422.400391 0)"/>
      <use xlink:href="#DejaVuSans-69" transform="translate(463.513672 0)"/>
      <use xlink:href="#DejaVuSans-63" transform="translate(491.296875 0)"/>
      <use xlink:href="#DejaVuSans-61" transform="translate(546.277344 0)"/>
      <use xlink:href="#DejaVuSans-20" transform="translate(607.556641 0)"/>
      <use xlink:href="#DejaVuSans-52" transform="translate(639.34375 0)"/>
      <use xlink:href="#DejaVuSans-4d" transform="translate(708.826172 0)"/>
      <use xlink:href="#DejaVuSans-53" transform="translate(795.105469 0)"/>
      <use xlink:href="#DejaVuSans-45" transform="translate(858.582031 0)"/>
      <use xlink:href="#DejaVuSans-20" transform="translate(921.765625 0)"/>
      <use xlink:href="#DejaVuSans-28" transform="translate(953.552734 0)"/>
      <use xlink:href="#DejaVuSans-31" transform="translate(992.566406 0)"/>
      <use xlink:href="#DejaVuSans-32" transform="translate(1056.189453 0)"/>
      <use xlink:href="#DejaVuSans-68" transform="translate(1119.8125 0)"/>
      <use xlink:href="#DejaVuSans-20" transform="translate(1183.191406 0)"/>
      <use xlink:href="#DejaVuSans-46" transform="translate(1214.978516 0)"/>
      <use xlink:href="#DejaVuSans-6f" transform="translate(1268.873047 0)"/>
      <use xlink:href="#DejaVuSans-72" transform="translate(1330.054688 0)"/>
      <use xlink:href="#DejaVuSans-65" transform="translate(1368.917969 0)"/>
      <use xlink:href="#DejaVuSans-63" transform="translate(1430.441406 0)"/>
      <use xlink:href="#DejaVuSans-61" transform="translate(1485.421875 0)"/>
      <use xlink:href="#DejaVuSans-73" transform="translate(1546.701172 0)"/>
      <use xlink:href="#DejaVuSans-74" transform="translate(1598.800781 0)"/>
      <use xlink:href="#DejaVuSans-29" transform="translate(1638.009766 0)"/>
     </g>
    </g>
   </g>
  </g>
 </g>
 <defs>
  <clipPath id="p0a55d705de">
   <rect x="102.25471" y="7.2" width="669.6" height="443.52"/>
  </clipPath>
 </defs>
</svg>
