<?xml version="1.0" encoding="utf-8" standalone="no"?>
<!DOCTYPE svg PUBLIC "-//W3C//DTD SVG 1.1//EN"
  "http://www.w3.org/Graphics/SVG/1.1/DTD/svg11.dtd">
<svg xmlns:xlink="http://www.w3.org/1999/xlink" width="1104.716898pt" height="564.68004pt" viewBox="0 0 1104.716898 564.68004" xmlns="http://www.w3.org/2000/svg" version="1.1">
 <metadata>
  <rdf:RDF xmlns:dc="http://purl.org/dc/elements/1.1/" xmlns:cc="http://creativecommons.org/ns#" xmlns:rdf="http://www.w3.org/1999/02/22-rdf-syntax-ns#">
   <cc:Work>
    <dc:type rdf:resource="http://purl.org/dc/dcmitype/StillImage"/>
    <dc:date>2025-05-11T00:09:47.895995</dc:date>
    <dc:format>image/svg+xml</dc:format>
    <dc:creator>
     <cc:Agent>
      <dc:title>Matplotlib v3.10.0, https://matplotlib.org/</dc:title>
     </cc:Agent>
    </dc:creator>
   </cc:Work>
  </rdf:RDF>
 </metadata>
 <defs>
  <style type="text/css">*{stroke-linejoin: round; stroke-linecap: butt}</style>
 </defs>
 <g id="figure_1">
  <g id="patch_1">
   <path d="M 0 564.68004 
L 1104.716898 564.68004 
L 1104.716898 0 
L 0 0 
z
" style="fill: #ffffff"/>
  </g>
  <g id="axes_1">
   <g id="patch_2">
    <path d="M 102.25471 450.72 
L 771.85471 450.72 
L 771.85471 7.2 
L 102.25471 7.2 
z
" style="fill: #ffffff"/>
   </g>
   <g id="matplotlib.axis_1">
    <g id="xtick_1">
     <g id="line2d_1">
      <defs>
       <path id="m6de66f5e21" d="M 0 0 
L 0 3.5 
" style="stroke: #000000; stroke-width: 0.8"/>
      </defs>
      <g>
       <use xlink:href="#m6de66f5e21" x="132.691074" y="450.72" style="stroke: #000000; stroke-width: 0.8"/>
      </g>
     </g>
     <g id="text_1">
      <!-- 2022-09-01 (18:00) -->
      <g transform="translate(12.518906 535.473553) rotate(-30) scale(0.14 -0.14)">
       <defs>
        <path id="DejaVuSans-32" d="M 1228 531 
L 3431 531 
L 3431 0 
L 469 0 
L 469 531 
Q 828 903 1448 1529 
Q 2069 2156 2228 2338 
Q 2531 2678 2651 2914 
Q 2772 3150 2772 3378 
Q 2772 3750 2511 3984 
Q 2250 4219 1831 4219 
Q 1534 4219 1204 4116 
Q 875 4013 500 3803 
L 500 4441 
Q 881 4594 1212 4672 
Q 1544 4750 1819 4750 
Q 2544 4750 2975 4387 
Q 3406 4025 3406 3419 
Q 3406 3131 3298 2873 
Q 3191 2616 2906 2266 
Q 2828 2175 2409 1742 
Q 1991 1309 1228 531 
z
" transform="scale(0.015625)"/>
        <path id="DejaVuSans-30" d="M 2034 4250 
Q 1547 4250 1301 3770 
Q 1056 3291 1056 2328 
Q 1056 1369 1301 889 
Q 1547 409 2034 409 
Q 2525 409 2770 889 
Q 3016 1369 3016 2328 
Q 3016 3291 2770 3770 
Q 2525 4250 2034 4250 
z
M 2034 4750 
Q 2819 4750 3233 4129 
Q 3647 3509 3647 2328 
Q 3647 1150 3233 529 
Q 2819 -91 2034 -91 
Q 1250 -91 836 529 
Q 422 1150 422 2328 
Q 422 3509 836 4129 
Q 1250 4750 2034 4750 
z
" transform="scale(0.015625)"/>
        <path id="DejaVuSans-2d" d="M 313 2009 
L 1997 2009 
L 1997 1497 
L 313 1497 
L 313 2009 
z
" transform="scale(0.015625)"/>
        <path id="DejaVuSans-39" d="M 703 97 
L 703 672 
Q 941 559 1184 500 
Q 1428 441 1663 441 
Q 2288 441 2617 861 
Q 2947 1281 2994 2138 
Q 2813 1869 2534 1725 
Q 2256 1581 1919 1581 
Q 1219 1581 811 2004 
Q 403 2428 403 3163 
Q 403 3881 828 4315 
Q 1253 4750 1959 4750 
Q 2769 4750 3195 4129 
Q 3622 3509 3622 2328 
Q 3622 1225 3098 567 
Q 2575 -91 1691 -91 
Q 1453 -91 1209 -44 
Q 966 3 703 97 
z
M 1959 2075 
Q 2384 2075 2632 2365 
Q 2881 2656 2881 3163 
Q 2881 3666 2632 3958 
Q 2384 4250 1959 4250 
Q 1534 4250 1286 3958 
Q 1038 3666 1038 3163 
Q 1038 2656 1286 2365 
Q 1534 2075 1959 2075 
z
" transform="scale(0.015625)"/>
        <path id="DejaVuSans-31" d="M 794 531 
L 1825 531 
L 1825 4091 
L 703 3866 
L 703 4441 
L 1819 4666 
L 2450 4666 
L 2450 531 
L 3481 531 
L 3481 0 
L 794 0 
L 794 531 
z
" transform="scale(0.015625)"/>
        <path id="DejaVuSans-20" transform="scale(0.015625)"/>
        <path id="DejaVuSans-28" d="M 1984 4856 
Q 1566 4138 1362 3434 
Q 1159 2731 1159 2009 
Q 1159 1288 1364 580 
Q 1569 -128 1984 -844 
L 1484 -844 
Q 1016 -109 783 600 
Q 550 1309 550 2009 
Q 550 2706 781 3412 
Q 1013 4119 1484 4856 
L 1984 4856 
z
" transform="scale(0.015625)"/>
        <path id="DejaVuSans-38" d="M 2034 2216 
Q 1584 2216 1326 1975 
Q 1069 1734 1069 1313 
Q 1069 891 1326 650 
Q 1584 409 2034 409 
Q 2484 409 2743 651 
Q 3003 894 3003 1313 
Q 3003 1734 2745 1975 
Q 2488 2216 2034 2216 
z
M 1403 2484 
Q 997 2584 770 2862 
Q 544 3141 544 3541 
Q 544 4100 942 4425 
Q 1341 4750 2034 4750 
Q 2731 4750 3128 4425 
Q 3525 4100 3525 3541 
Q 3525 3141 3298 2862 
Q 3072 2584 2669 2484 
Q 3125 2378 3379 2068 
Q 3634 1759 3634 1313 
Q 3634 634 3220 271 
Q 2806 -91 2034 -91 
Q 1263 -91 848 271 
Q 434 634 434 1313 
Q 434 1759 690 2068 
Q 947 2378 1403 2484 
z
M 1172 3481 
Q 1172 3119 1398 2916 
Q 1625 2713 2034 2713 
Q 2441 2713 2670 2916 
Q 2900 3119 2900 3481 
Q 2900 3844 2670 4047 
Q 2441 4250 2034 4250 
Q 1625 4250 1398 4047 
Q 1172 3844 1172 3481 
z
" transform="scale(0.015625)"/>
        <path id="DejaVuSans-3a" d="M 750 794 
L 1409 794 
L 1409 0 
L 750 0 
L 750 794 
z
M 750 3309 
L 1409 3309 
L 1409 2516 
L 750 2516 
L 750 3309 
z
" transform="scale(0.015625)"/>
        <path id="DejaVuSans-29" d="M 513 4856 
L 1013 4856 
Q 1481 4119 1714 3412 
Q 1947 2706 1947 2009 
Q 1947 1309 1714 600 
Q 1481 -109 1013 -844 
L 513 -844 
Q 928 -128 1133 580 
Q 1338 1288 1338 2009 
Q 1338 2731 1133 3434 
Q 928 4138 513 4856 
z
" transform="scale(0.015625)"/>
       </defs>
       <use xlink:href="#DejaVuSans-32"/>
       <use xlink:href="#DejaVuSans-30" transform="translate(63.623047 0)"/>
       <use xlink:href="#DejaVuSans-32" transform="translate(127.246094 0)"/>
       <use xlink:href="#DejaVuSans-32" transform="translate(190.869141 0)"/>
       <use xlink:href="#DejaVuSans-2d" transform="translate(254.492188 0)"/>
       <use xlink:href="#DejaVuSans-30" transform="translate(290.576172 0)"/>
       <use xlink:href="#DejaVuSans-39" transform="translate(354.199219 0)"/>
       <use xlink:href="#DejaVuSans-2d" transform="translate(417.822266 0)"/>
       <use xlink:href="#DejaVuSans-30" transform="translate(453.90625 0)"/>
       <use xlink:href="#DejaVuSans-31" transform="translate(517.529297 0)"/>
       <use xlink:href="#DejaVuSans-20" transform="translate(581.152344 0)"/>
       <use xlink:href="#DejaVuSans-28" transform="translate(612.939453 0)"/>
       <use xlink:href="#DejaVuSans-31" transform="translate(651.953125 0)"/>
       <use xlink:href="#DejaVuSans-38" transform="translate(715.576172 0)"/>
       <use xlink:href="#DejaVuSans-3a" transform="translate(779.199219 0)"/>
       <use xlink:href="#DejaVuSans-30" transform="translate(812.890625 0)"/>
       <use xlink:href="#DejaVuSans-30" transform="translate(876.513672 0)"/>
       <use xlink:href="#DejaVuSans-29" transform="translate(940.136719 0)"/>
      </g>
     </g>
    </g>
    <g id="xtick_2">
     <g id="line2d_2">
      <g>
       <use xlink:href="#m6de66f5e21" x="253.430367" y="450.72" style="stroke: #000000; stroke-width: 0.8"/>
      </g>
     </g>
     <g id="text_2">
      <!-- 2022-09-25 (18:00) -->
      <g transform="translate(133.2582 535.473553) rotate(-30) scale(0.14 -0.14)">
       <defs>
        <path id="DejaVuSans-35" d="M 691 4666 
L 3169 4666 
L 3169 4134 
L 1269 4134 
L 1269 2991 
Q 1406 3038 1543 3061 
Q 1681 3084 1819 3084 
Q 2600 3084 3056 2656 
Q 3513 2228 3513 1497 
Q 3513 744 3044 326 
Q 2575 -91 1722 -91 
Q 1428 -91 1123 -41 
Q 819 9 494 109 
L 494 744 
Q 775 591 1075 516 
Q 1375 441 1709 441 
Q 2250 441 2565 725 
Q 2881 1009 2881 1497 
Q 2881 1984 2565 2268 
Q 2250 2553 1709 2553 
Q 1456 2553 1204 2497 
Q 953 2441 691 2322 
L 691 4666 
z
" transform="scale(0.015625)"/>
       </defs>
       <use xlink:href="#DejaVuSans-32"/>
       <use xlink:href="#DejaVuSans-30" transform="translate(63.623047 0)"/>
       <use xlink:href="#DejaVuSans-32" transform="translate(127.246094 0)"/>
       <use xlink:href="#DejaVuSans-32" transform="translate(190.869141 0)"/>
       <use xlink:href="#DejaVuSans-2d" transform="translate(254.492188 0)"/>
       <use xlink:href="#DejaVuSans-30" transform="translate(290.576172 0)"/>
       <use xlink:href="#DejaVuSans-39" transform="translate(354.199219 0)"/>
       <use xlink:href="#DejaVuSans-2d" transform="translate(417.822266 0)"/>
       <use xlink:href="#DejaVuSans-32" transform="translate(453.90625 0)"/>
       <use xlink:href="#DejaVuSans-35" transform="translate(517.529297 0)"/>
       <use xlink:href="#DejaVuSans-20" transform="translate(581.152344 0)"/>
       <use xlink:href="#DejaVuSans-28" transform="translate(612.939453 0)"/>
       <use xlink:href="#DejaVuSans-31" transform="translate(651.953125 0)"/>
       <use xlink:href="#DejaVuSans-38" transform="translate(715.576172 0)"/>
       <use xlink:href="#DejaVuSans-3a" transform="translate(779.199219 0)"/>
       <use xlink:href="#DejaVuSans-30" transform="translate(812.890625 0)"/>
       <use xlink:href="#DejaVuSans-30" transform="translate(876.513672 0)"/>
       <use xlink:href="#DejaVuSans-29" transform="translate(940.136719 0)"/>
      </g>
     </g>
    </g>
    <g id="xtick_3">
     <g id="line2d_3">
      <g>
       <use xlink:href="#m6de66f5e21" x="375.427362" y="450.72" style="stroke: #000000; stroke-width: 0.8"/>
      </g>
     </g>
     <g id="text_3">
      <!-- 2022-10-20 (00:00) -->
      <g transform="translate(255.255195 535.473553) rotate(-30) scale(0.14 -0.14)">
       <use xlink:href="#DejaVuSans-32"/>
       <use xlink:href="#DejaVuSans-30" transform="translate(63.623047 0)"/>
       <use xlink:href="#DejaVuSans-32" transform="translate(127.246094 0)"/>
       <use xlink:href="#DejaVuSans-32" transform="translate(190.869141 0)"/>
       <use xlink:href="#DejaVuSans-2d" transform="translate(254.492188 0)"/>
       <use xlink:href="#DejaVuSans-31" transform="translate(290.576172 0)"/>
       <use xlink:href="#DejaVuSans-30" transform="translate(354.199219 0)"/>
       <use xlink:href="#DejaVuSans-2d" transform="translate(417.822266 0)"/>
       <use xlink:href="#DejaVuSans-32" transform="translate(453.90625 0)"/>
       <use xlink:href="#DejaVuSans-30" transform="translate(517.529297 0)"/>
       <use xlink:href="#DejaVuSans-20" transform="translate(581.152344 0)"/>
       <use xlink:href="#DejaVuSans-28" transform="translate(612.939453 0)"/>
       <use xlink:href="#DejaVuSans-30" transform="translate(651.953125 0)"/>
       <use xlink:href="#DejaVuSans-30" transform="translate(715.576172 0)"/>
       <use xlink:href="#DejaVuSans-3a" transform="translate(779.199219 0)"/>
       <use xlink:href="#DejaVuSans-30" transform="translate(812.890625 0)"/>
       <use xlink:href="#DejaVuSans-30" transform="translate(876.513672 0)"/>
       <use xlink:href="#DejaVuSans-29" transform="translate(940.136719 0)"/>
      </g>
     </g>
    </g>
    <g id="xtick_4">
     <g id="line2d_4">
      <g>
       <use xlink:href="#m6de66f5e21" x="497.424357" y="450.72" style="stroke: #000000; stroke-width: 0.8"/>
      </g>
     </g>
     <g id="text_4">
      <!-- 2022-11-13 (06:00) -->
      <g transform="translate(377.252189 535.473553) rotate(-30) scale(0.14 -0.14)">
       <defs>
        <path id="DejaVuSans-33" d="M 2597 2516 
Q 3050 2419 3304 2112 
Q 3559 1806 3559 1356 
Q 3559 666 3084 287 
Q 2609 -91 1734 -91 
Q 1441 -91 1130 -33 
Q 819 25 488 141 
L 488 750 
Q 750 597 1062 519 
Q 1375 441 1716 441 
Q 2309 441 2620 675 
Q 2931 909 2931 1356 
Q 2931 1769 2642 2001 
Q 2353 2234 1838 2234 
L 1294 2234 
L 1294 2753 
L 1863 2753 
Q 2328 2753 2575 2939 
Q 2822 3125 2822 3475 
Q 2822 3834 2567 4026 
Q 2313 4219 1838 4219 
Q 1578 4219 1281 4162 
Q 984 4106 628 3988 
L 628 4550 
Q 988 4650 1302 4700 
Q 1616 4750 1894 4750 
Q 2613 4750 3031 4423 
Q 3450 4097 3450 3541 
Q 3450 3153 3228 2886 
Q 3006 2619 2597 2516 
z
" transform="scale(0.015625)"/>
        <path id="DejaVuSans-36" d="M 2113 2584 
Q 1688 2584 1439 2293 
Q 1191 2003 1191 1497 
Q 1191 994 1439 701 
Q 1688 409 2113 409 
Q 2538 409 2786 701 
Q 3034 994 3034 1497 
Q 3034 2003 2786 2293 
Q 2538 2584 2113 2584 
z
M 3366 4563 
L 3366 3988 
Q 3128 4100 2886 4159 
Q 2644 4219 2406 4219 
Q 1781 4219 1451 3797 
Q 1122 3375 1075 2522 
Q 1259 2794 1537 2939 
Q 1816 3084 2150 3084 
Q 2853 3084 3261 2657 
Q 3669 2231 3669 1497 
Q 3669 778 3244 343 
Q 2819 -91 2113 -91 
Q 1303 -91 875 529 
Q 447 1150 447 2328 
Q 447 3434 972 4092 
Q 1497 4750 2381 4750 
Q 2619 4750 2861 4703 
Q 3103 4656 3366 4563 
z
" transform="scale(0.015625)"/>
       </defs>
       <use xlink:href="#DejaVuSans-32"/>
       <use xlink:href="#DejaVuSans-30" transform="translate(63.623047 0)"/>
       <use xlink:href="#DejaVuSans-32" transform="translate(127.246094 0)"/>
       <use xlink:href="#DejaVuSans-32" transform="translate(190.869141 0)"/>
       <use xlink:href="#DejaVuSans-2d" transform="translate(254.492188 0)"/>
       <use xlink:href="#DejaVuSans-31" transform="translate(290.576172 0)"/>
       <use xlink:href="#DejaVuSans-31" transform="translate(354.199219 0)"/>
       <use xlink:href="#DejaVuSans-2d" transform="translate(417.822266 0)"/>
       <use xlink:href="#DejaVuSans-31" transform="translate(453.90625 0)"/>
       <use xlink:href="#DejaVuSans-33" transform="translate(517.529297 0)"/>
       <use xlink:href="#DejaVuSans-20" transform="translate(581.152344 0)"/>
       <use xlink:href="#DejaVuSans-28" transform="translate(612.939453 0)"/>
       <use xlink:href="#DejaVuSans-30" transform="translate(651.953125 0)"/>
       <use xlink:href="#DejaVuSans-36" transform="translate(715.576172 0)"/>
       <use xlink:href="#DejaVuSans-3a" transform="translate(779.199219 0)"/>
       <use xlink:href="#DejaVuSans-30" transform="translate(812.890625 0)"/>
       <use xlink:href="#DejaVuSans-30" transform="translate(876.513672 0)"/>
       <use xlink:href="#DejaVuSans-29" transform="translate(940.136719 0)"/>
      </g>
     </g>
    </g>
    <g id="xtick_5">
     <g id="line2d_5">
      <g>
       <use xlink:href="#m6de66f5e21" x="619.421352" y="450.72" style="stroke: #000000; stroke-width: 0.8"/>
      </g>
     </g>
     <g id="text_5">
      <!-- 2022-12-07 (12:00) -->
      <g transform="translate(499.249184 535.473553) rotate(-30) scale(0.14 -0.14)">
       <defs>
        <path id="DejaVuSans-37" d="M 525 4666 
L 3525 4666 
L 3525 4397 
L 1831 0 
L 1172 0 
L 2766 4134 
L 525 4134 
L 525 4666 
z
" transform="scale(0.015625)"/>
       </defs>
       <use xlink:href="#DejaVuSans-32"/>
       <use xlink:href="#DejaVuSans-30" transform="translate(63.623047 0)"/>
       <use xlink:href="#DejaVuSans-32" transform="translate(127.246094 0)"/>
       <use xlink:href="#DejaVuSans-32" transform="translate(190.869141 0)"/>
       <use xlink:href="#DejaVuSans-2d" transform="translate(254.492188 0)"/>
       <use xlink:href="#DejaVuSans-31" transform="translate(290.576172 0)"/>
       <use xlink:href="#DejaVuSans-32" transform="translate(354.199219 0)"/>
       <use xlink:href="#DejaVuSans-2d" transform="translate(417.822266 0)"/>
       <use xlink:href="#DejaVuSans-30" transform="translate(453.90625 0)"/>
       <use xlink:href="#DejaVuSans-37" transform="translate(517.529297 0)"/>
       <use xlink:href="#DejaVuSans-20" transform="translate(581.152344 0)"/>
       <use xlink:href="#DejaVuSans-28" transform="translate(612.939453 0)"/>
       <use xlink:href="#DejaVuSans-31" transform="translate(651.953125 0)"/>
       <use xlink:href="#DejaVuSans-32" transform="translate(715.576172 0)"/>
       <use xlink:href="#DejaVuSans-3a" transform="translate(779.199219 0)"/>
       <use xlink:href="#DejaVuSans-30" transform="translate(812.890625 0)"/>
       <use xlink:href="#DejaVuSans-30" transform="translate(876.513672 0)"/>
       <use xlink:href="#DejaVuSans-29" transform="translate(940.136719 0)"/>
      </g>
     </g>
    </g>
    <g id="xtick_6">
     <g id="line2d_6">
      <g>
       <use xlink:href="#m6de66f5e21" x="741.418346" y="450.72" style="stroke: #000000; stroke-width: 0.8"/>
      </g>
     </g>
     <g id="text_6">
      <!-- 2022-12-31 (18:00) -->
      <g transform="translate(621.246179 535.473553) rotate(-30) scale(0.14 -0.14)">
       <use xlink:href="#DejaVuSans-32"/>
       <use xlink:href="#DejaVuSans-30" transform="translate(63.623047 0)"/>
       <use xlink:href="#DejaVuSans-32" transform="translate(127.246094 0)"/>
       <use xlink:href="#DejaVuSans-32" transform="translate(190.869141 0)"/>
       <use xlink:href="#DejaVuSans-2d" transform="translate(254.492188 0)"/>
       <use xlink:href="#DejaVuSans-31" transform="translate(290.576172 0)"/>
       <use xlink:href="#DejaVuSans-32" transform="translate(354.199219 0)"/>
       <use xlink:href="#DejaVuSans-2d" transform="translate(417.822266 0)"/>
       <use xlink:href="#DejaVuSans-33" transform="translate(453.90625 0)"/>
       <use xlink:href="#DejaVuSans-31" transform="translate(517.529297 0)"/>
       <use xlink:href="#DejaVuSans-20" transform="translate(581.152344 0)"/>
       <use xlink:href="#DejaVuSans-28" transform="translate(612.939453 0)"/>
       <use xlink:href="#DejaVuSans-31" transform="translate(651.953125 0)"/>
       <use xlink:href="#DejaVuSans-38" transform="translate(715.576172 0)"/>
       <use xlink:href="#DejaVuSans-3a" transform="translate(779.199219 0)"/>
       <use xlink:href="#DejaVuSans-30" transform="translate(812.890625 0)"/>
       <use xlink:href="#DejaVuSans-30" transform="translate(876.513672 0)"/>
       <use xlink:href="#DejaVuSans-29" transform="translate(940.136719 0)"/>
      </g>
     </g>
    </g>
    <g id="text_7">
     <!-- Forecast Date -->
     <g transform="translate(381.54846 554.15254) scale(0.16 -0.16)">
      <defs>
       <path id="DejaVuSans-46" d="M 628 4666 
L 3309 4666 
L 3309 4134 
L 1259 4134 
L 1259 2759 
L 3109 2759 
L 3109 2228 
L 1259 2228 
L 1259 0 
L 628 0 
L 628 4666 
z
" transform="scale(0.015625)"/>
       <path id="DejaVuSans-6f" d="M 1959 3097 
Q 1497 3097 1228 2736 
Q 959 2375 959 1747 
Q 959 1119 1226 758 
Q 1494 397 1959 397 
Q 2419 397 2687 759 
Q 2956 1122 2956 1747 
Q 2956 2369 2687 2733 
Q 2419 3097 1959 3097 
z
M 1959 3584 
Q 2709 3584 3137 3096 
Q 3566 2609 3566 1747 
Q 3566 888 3137 398 
Q 2709 -91 1959 -91 
Q 1206 -91 779 398 
Q 353 888 353 1747 
Q 353 2609 779 3096 
Q 1206 3584 1959 3584 
z
" transform="scale(0.015625)"/>
       <path id="DejaVuSans-72" d="M 2631 2963 
Q 2534 3019 2420 3045 
Q 2306 3072 2169 3072 
Q 1681 3072 1420 2755 
Q 1159 2438 1159 1844 
L 1159 0 
L 581 0 
L 581 3500 
L 1159 3500 
L 1159 2956 
Q 1341 3275 1631 3429 
Q 1922 3584 2338 3584 
Q 2397 3584 2469 3576 
Q 2541 3569 2628 3553 
L 2631 2963 
z
" transform="scale(0.015625)"/>
       <path id="DejaVuSans-65" d="M 3597 1894 
L 3597 1613 
L 953 1613 
Q 991 1019 1311 708 
Q 1631 397 2203 397 
Q 2534 397 2845 478 
Q 3156 559 3463 722 
L 3463 178 
Q 3153 47 2828 -22 
Q 2503 -91 2169 -91 
Q 1331 -91 842 396 
Q 353 884 353 1716 
Q 353 2575 817 3079 
Q 1281 3584 2069 3584 
Q 2775 3584 3186 3129 
Q 3597 2675 3597 1894 
z
M 3022 2063 
Q 3016 2534 2758 2815 
Q 2500 3097 2075 3097 
Q 1594 3097 1305 2825 
Q 1016 2553 972 2059 
L 3022 2063 
z
" transform="scale(0.015625)"/>
       <path id="DejaVuSans-63" d="M 3122 3366 
L 3122 2828 
Q 2878 2963 2633 3030 
Q 2388 3097 2138 3097 
Q 1578 3097 1268 2742 
Q 959 2388 959 1747 
Q 959 1106 1268 751 
Q 1578 397 2138 397 
Q 2388 397 2633 464 
Q 2878 531 3122 666 
L 3122 134 
Q 2881 22 2623 -34 
Q 2366 -91 2075 -91 
Q 1284 -91 818 406 
Q 353 903 353 1747 
Q 353 2603 823 3093 
Q 1294 3584 2113 3584 
Q 2378 3584 2631 3529 
Q 2884 3475 3122 3366 
z
" transform="scale(0.015625)"/>
       <path id="DejaVuSans-61" d="M 2194 1759 
Q 1497 1759 1228 1600 
Q 959 1441 959 1056 
Q 959 750 1161 570 
Q 1363 391 1709 391 
Q 2188 391 2477 730 
Q 2766 1069 2766 1631 
L 2766 1759 
L 2194 1759 
z
M 3341 1997 
L 3341 0 
L 2766 0 
L 2766 531 
Q 2569 213 2275 61 
Q 1981 -91 1556 -91 
Q 1019 -91 701 211 
Q 384 513 384 1019 
Q 384 1609 779 1909 
Q 1175 2209 1959 2209 
L 2766 2209 
L 2766 2266 
Q 2766 2663 2505 2880 
Q 2244 3097 1772 3097 
Q 1472 3097 1187 3025 
Q 903 2953 641 2809 
L 641 3341 
Q 956 3463 1253 3523 
Q 1550 3584 1831 3584 
Q 2591 3584 2966 3190 
Q 3341 2797 3341 1997 
z
" transform="scale(0.015625)"/>
       <path id="DejaVuSans-73" d="M 2834 3397 
L 2834 2853 
Q 2591 2978 2328 3040 
Q 2066 3103 1784 3103 
Q 1356 3103 1142 2972 
Q 928 2841 928 2578 
Q 928 2378 1081 2264 
Q 1234 2150 1697 2047 
L 1894 2003 
Q 2506 1872 2764 1633 
Q 3022 1394 3022 966 
Q 3022 478 2636 193 
Q 2250 -91 1575 -91 
Q 1294 -91 989 -36 
Q 684 19 347 128 
L 347 722 
Q 666 556 975 473 
Q 1284 391 1588 391 
Q 1994 391 2212 530 
Q 2431 669 2431 922 
Q 2431 1156 2273 1281 
Q 2116 1406 1581 1522 
L 1381 1569 
Q 847 1681 609 1914 
Q 372 2147 372 2553 
Q 372 3047 722 3315 
Q 1072 3584 1716 3584 
Q 2034 3584 2315 3537 
Q 2597 3491 2834 3397 
z
" transform="scale(0.015625)"/>
       <path id="DejaVuSans-74" d="M 1172 4494 
L 1172 3500 
L 2356 3500 
L 2356 3053 
L 1172 3053 
L 1172 1153 
Q 1172 725 1289 603 
Q 1406 481 1766 481 
L 2356 481 
L 2356 0 
L 1766 0 
Q 1100 0 847 248 
Q 594 497 594 1153 
L 594 3053 
L 172 3053 
L 172 3500 
L 594 3500 
L 594 4494 
L 1172 4494 
z
" transform="scale(0.015625)"/>
       <path id="DejaVuSans-44" d="M 1259 4147 
L 1259 519 
L 2022 519 
Q 2988 519 3436 956 
Q 3884 1394 3884 2338 
Q 3884 3275 3436 3711 
Q 2988 4147 2022 4147 
L 1259 4147 
z
M 628 4666 
L 1925 4666 
Q 3281 4666 3915 4102 
Q 4550 3538 4550 2338 
Q 4550 1131 3912 565 
Q 3275 0 1925 0 
L 628 0 
L 628 4666 
z
" transform="scale(0.015625)"/>
      </defs>
      <use xlink:href="#DejaVuSans-46"/>
      <use xlink:href="#DejaVuSans-6f" transform="translate(53.894531 0)"/>
      <use xlink:href="#DejaVuSans-72" transform="translate(115.076172 0)"/>
      <use xlink:href="#DejaVuSans-65" transform="translate(153.939453 0)"/>
      <use xlink:href="#DejaVuSans-63" transform="translate(215.462891 0)"/>
      <use xlink:href="#DejaVuSans-61" transform="translate(270.443359 0)"/>
      <use xlink:href="#DejaVuSans-73" transform="translate(331.722656 0)"/>
      <use xlink:href="#DejaVuSans-74" transform="translate(383.822266 0)"/>
      <use xlink:href="#DejaVuSans-20" transform="translate(423.03125 0)"/>
      <use xlink:href="#DejaVuSans-44" transform="translate(454.818359 0)"/>
      <use xlink:href="#DejaVuSans-61" transform="translate(531.820312 0)"/>
      <use xlink:href="#DejaVuSans-74" transform="translate(593.099609 0)"/>
      <use xlink:href="#DejaVuSans-65" transform="translate(632.308594 0)"/>
     </g>
    </g>
   </g>
   <g id="matplotlib.axis_2">
    <g id="ytick_1">
     <g id="line2d_7">
      <defs>
       <path id="mf7ebf1cb23" d="M 0 0 
L -3.5 0 
" style="stroke: #000000; stroke-width: 0.8"/>
      </defs>
      <g>
       <use xlink:href="#mf7ebf1cb23" x="102.25471" y="401.532992" style="stroke: #000000; stroke-width: 0.8"/>
      </g>
     </g>
     <g id="text_8">
      <!-- 2 -->
      <g transform="translate(88.89221 405.332211) scale(0.1 -0.1)">
       <use xlink:href="#DejaVuSans-32"/>
      </g>
     </g>
    </g>
    <g id="ytick_2">
     <g id="line2d_8">
      <g>
       <use xlink:href="#mf7ebf1cb23" x="102.25471" y="340.05028" style="stroke: #000000; stroke-width: 0.8"/>
      </g>
     </g>
     <g id="text_9">
      <!-- 4 -->
      <g transform="translate(88.89221 343.849499) scale(0.1 -0.1)">
       <defs>
        <path id="DejaVuSans-34" d="M 2419 4116 
L 825 1625 
L 2419 1625 
L 2419 4116 
z
M 2253 4666 
L 3047 4666 
L 3047 1625 
L 3713 1625 
L 3713 1100 
L 3047 1100 
L 3047 0 
L 2419 0 
L 2419 1100 
L 313 1100 
L 313 1709 
L 2253 4666 
z
" transform="scale(0.015625)"/>
       </defs>
       <use xlink:href="#DejaVuSans-34"/>
      </g>
     </g>
    </g>
    <g id="ytick_3">
     <g id="line2d_9">
      <g>
       <use xlink:href="#mf7ebf1cb23" x="102.25471" y="278.567569" style="stroke: #000000; stroke-width: 0.8"/>
      </g>
     </g>
     <g id="text_10">
      <!-- 6 -->
      <g transform="translate(88.89221 282.366787) scale(0.1 -0.1)">
       <use xlink:href="#DejaVuSans-36"/>
      </g>
     </g>
    </g>
    <g id="ytick_4">
     <g id="line2d_10">
      <g>
       <use xlink:href="#mf7ebf1cb23" x="102.25471" y="217.084857" style="stroke: #000000; stroke-width: 0.8"/>
      </g>
     </g>
     <g id="text_11">
      <!-- 8 -->
      <g transform="translate(88.89221 220.884076) scale(0.1 -0.1)">
       <use xlink:href="#DejaVuSans-38"/>
      </g>
     </g>
    </g>
    <g id="ytick_5">
     <g id="line2d_11">
      <g>
       <use xlink:href="#mf7ebf1cb23" x="102.25471" y="155.602146" style="stroke: #000000; stroke-width: 0.8"/>
      </g>
     </g>
     <g id="text_12">
      <!-- 10 -->
      <g transform="translate(82.52971 159.401364) scale(0.1 -0.1)">
       <use xlink:href="#DejaVuSans-31"/>
       <use xlink:href="#DejaVuSans-30" transform="translate(63.623047 0)"/>
      </g>
     </g>
    </g>
    <g id="ytick_6">
     <g id="line2d_12">
      <g>
       <use xlink:href="#mf7ebf1cb23" x="102.25471" y="94.119434" style="stroke: #000000; stroke-width: 0.8"/>
      </g>
     </g>
     <g id="text_13">
      <!-- 12 -->
      <g transform="translate(82.52971 97.918653) scale(0.1 -0.1)">
       <use xlink:href="#DejaVuSans-31"/>
       <use xlink:href="#DejaVuSans-32" transform="translate(63.623047 0)"/>
      </g>
     </g>
    </g>
    <g id="ytick_7">
     <g id="line2d_13">
      <g>
       <use xlink:href="#mf7ebf1cb23" x="102.25471" y="32.636722" style="stroke: #000000; stroke-width: 0.8"/>
      </g>
     </g>
     <g id="text_14">
      <!-- 14 -->
      <g transform="translate(82.52971 36.435941) scale(0.1 -0.1)">
       <use xlink:href="#DejaVuSans-31"/>
       <use xlink:href="#DejaVuSans-34" transform="translate(63.623047 0)"/>
      </g>
     </g>
    </g>
    <g id="text_15">
     <!-- Root Mean Squared Error (RMSE) -->
     <g transform="translate(75.20221 360.62625) rotate(-90) scale(0.16 -0.16)">
      <defs>
       <path id="DejaVuSans-52" d="M 2841 2188 
Q 3044 2119 3236 1894 
Q 3428 1669 3622 1275 
L 4263 0 
L 3584 0 
L 2988 1197 
Q 2756 1666 2539 1819 
Q 2322 1972 1947 1972 
L 1259 1972 
L 1259 0 
L 628 0 
L 628 4666 
L 2053 4666 
Q 2853 4666 3247 4331 
Q 3641 3997 3641 3322 
Q 3641 2881 3436 2590 
Q 3231 2300 2841 2188 
z
M 1259 4147 
L 1259 2491 
L 2053 2491 
Q 2509 2491 2742 2702 
Q 2975 2913 2975 3322 
Q 2975 3731 2742 3939 
Q 2509 4147 2053 4147 
L 1259 4147 
z
" transform="scale(0.015625)"/>
       <path id="DejaVuSans-4d" d="M 628 4666 
L 1569 4666 
L 2759 1491 
L 3956 4666 
L 4897 4666 
L 4897 0 
L 4281 0 
L 4281 4097 
L 3078 897 
L 2444 897 
L 1241 4097 
L 1241 0 
L 628 0 
L 628 4666 
z
" transform="scale(0.015625)"/>
       <path id="DejaVuSans-6e" d="M 3513 2113 
L 3513 0 
L 2938 0 
L 2938 2094 
Q 2938 2591 2744 2837 
Q 2550 3084 2163 3084 
Q 1697 3084 1428 2787 
Q 1159 2491 1159 1978 
L 1159 0 
L 581 0 
L 581 3500 
L 1159 3500 
L 1159 2956 
Q 1366 3272 1645 3428 
Q 1925 3584 2291 3584 
Q 2894 3584 3203 3211 
Q 3513 2838 3513 2113 
z
" transform="scale(0.015625)"/>
       <path id="DejaVuSans-53" d="M 3425 4513 
L 3425 3897 
Q 3066 4069 2747 4153 
Q 2428 4238 2131 4238 
Q 1616 4238 1336 4038 
Q 1056 3838 1056 3469 
Q 1056 3159 1242 3001 
Q 1428 2844 1947 2747 
L 2328 2669 
Q 3034 2534 3370 2195 
Q 3706 1856 3706 1288 
Q 3706 609 3251 259 
Q 2797 -91 1919 -91 
Q 1588 -91 1214 -16 
Q 841 59 441 206 
L 441 856 
Q 825 641 1194 531 
Q 1563 422 1919 422 
Q 2459 422 2753 634 
Q 3047 847 3047 1241 
Q 3047 1584 2836 1778 
Q 2625 1972 2144 2069 
L 1759 2144 
Q 1053 2284 737 2584 
Q 422 2884 422 3419 
Q 422 4038 858 4394 
Q 1294 4750 2059 4750 
Q 2388 4750 2728 4690 
Q 3069 4631 3425 4513 
z
" transform="scale(0.015625)"/>
       <path id="DejaVuSans-71" d="M 947 1747 
Q 947 1113 1208 752 
Q 1469 391 1925 391 
Q 2381 391 2643 752 
Q 2906 1113 2906 1747 
Q 2906 2381 2643 2742 
Q 2381 3103 1925 3103 
Q 1469 3103 1208 2742 
Q 947 2381 947 1747 
z
M 2906 525 
Q 2725 213 2448 61 
Q 2172 -91 1784 -91 
Q 1150 -91 751 415 
Q 353 922 353 1747 
Q 353 2572 751 3078 
Q 1150 3584 1784 3584 
Q 2172 3584 2448 3432 
Q 2725 3281 2906 2969 
L 2906 3500 
L 3481 3500 
L 3481 -1331 
L 2906 -1331 
L 2906 525 
z
" transform="scale(0.015625)"/>
       <path id="DejaVuSans-75" d="M 544 1381 
L 544 3500 
L 1119 3500 
L 1119 1403 
Q 1119 906 1312 657 
Q 1506 409 1894 409 
Q 2359 409 2629 706 
Q 2900 1003 2900 1516 
L 2900 3500 
L 3475 3500 
L 3475 0 
L 2900 0 
L 2900 538 
Q 2691 219 2414 64 
Q 2138 -91 1772 -91 
Q 1169 -91 856 284 
Q 544 659 544 1381 
z
M 1991 3584 
L 1991 3584 
z
" transform="scale(0.015625)"/>
       <path id="DejaVuSans-64" d="M 2906 2969 
L 2906 4863 
L 3481 4863 
L 3481 0 
L 2906 0 
L 2906 525 
Q 2725 213 2448 61 
Q 2172 -91 1784 -91 
Q 1150 -91 751 415 
Q 353 922 353 1747 
Q 353 2572 751 3078 
Q 1150 3584 1784 3584 
Q 2172 3584 2448 3432 
Q 2725 3281 2906 2969 
z
M 947 1747 
Q 947 1113 1208 752 
Q 1469 391 1925 391 
Q 2381 391 2643 752 
Q 2906 1113 2906 1747 
Q 2906 2381 2643 2742 
Q 2381 3103 1925 3103 
Q 1469 3103 1208 2742 
Q 947 2381 947 1747 
z
" transform="scale(0.015625)"/>
       <path id="DejaVuSans-45" d="M 628 4666 
L 3578 4666 
L 3578 4134 
L 1259 4134 
L 1259 2753 
L 3481 2753 
L 3481 2222 
L 1259 2222 
L 1259 531 
L 3634 531 
L 3634 0 
L 628 0 
L 628 4666 
z
" transform="scale(0.015625)"/>
      </defs>
      <use xlink:href="#DejaVuSans-52"/>
      <use xlink:href="#DejaVuSans-6f" transform="translate(64.982422 0)"/>
      <use xlink:href="#DejaVuSans-6f" transform="translate(126.164062 0)"/>
      <use xlink:href="#DejaVuSans-74" transform="translate(187.345703 0)"/>
      <use xlink:href="#DejaVuSans-20" transform="translate(226.554688 0)"/>
      <use xlink:href="#DejaVuSans-4d" transform="translate(258.341797 0)"/>
      <use xlink:href="#DejaVuSans-65" transform="translate(344.621094 0)"/>
      <use xlink:href="#DejaVuSans-61" transform="translate(406.144531 0)"/>
      <use xlink:href="#DejaVuSans-6e" transform="translate(467.423828 0)"/>
      <use xlink:href="#DejaVuSans-20" transform="translate(530.802734 0)"/>
      <use xlink:href="#DejaVuSans-53" transform="translate(562.589844 0)"/>
      <use xlink:href="#DejaVuSans-71" transform="translate(626.066406 0)"/>
      <use xlink:href="#DejaVuSans-75" transform="translate(689.542969 0)"/>
      <use xlink:href="#DejaVuSans-61" transform="translate(752.921875 0)"/>
      <use xlink:href="#DejaVuSans-72" transform="translate(814.201172 0)"/>
      <use xlink:href="#DejaVuSans-65" transform="translate(853.064453 0)"/>
      <use xlink:href="#DejaVuSans-64" transform="translate(914.587891 0)"/>
      <use xlink:href="#DejaVuSans-20" transform="translate(978.064453 0)"/>
      <use xlink:href="#DejaVuSans-45" transform="translate(1009.851562 0)"/>
      <use xlink:href="#DejaVuSans-72" transform="translate(1073.035156 0)"/>
      <use xlink:href="#DejaVuSans-72" transform="translate(1112.398438 0)"/>
      <use xlink:href="#DejaVuSans-6f" transform="translate(1151.261719 0)"/>
      <use xlink:href="#DejaVuSans-72" transform="translate(1212.443359 0)"/>
      <use xlink:href="#DejaVuSans-20" transform="translate(1253.556641 0)"/>
      <use xlink:href="#DejaVuSans-28" transform="translate(1285.34375 0)"/>
      <use xlink:href="#DejaVuSans-52" transform="translate(1324.357422 0)"/>
      <use xlink:href="#DejaVuSans-4d" transform="translate(1393.839844 0)"/>
      <use xlink:href="#DejaVuSans-53" transform="translate(1480.119141 0)"/>
      <use xlink:href="#DejaVuSans-45" transform="translate(1543.595703 0)"/>
      <use xlink:href="#DejaVuSans-29" transform="translate(1606.779297 0)"/>
     </g>
    </g>
   </g>
   <g id="line2d_14">
    <path d="M 132.691074 423.191243 
L 133.948775 370.121268 
L 135.206476 369.278735 
L 136.464177 415.095522 
L 137.721878 420.034407 
L 138.979579 370.970427 
L 140.23728 363.752684 
L 141.49498 412.45634 
L 142.752681 417.730793 
L 144.010382 374.413547 
L 145.268083 357.760591 
L 146.525784 415.989848 
L 147.783485 423.661554 
L 149.041186 375.963681 
L 150.298887 367.124738 
L 151.556588 417.501522 
L 152.814289 423.350582 
L 154.07199 373.993812 
L 155.329691 369.337933 
L 156.587392 417.989885 
L 157.845093 423.147011 
L 159.102794 365.389736 
L 160.360495 362.099374 
L 161.618196 418.797384 
L 162.875897 420.420727 
L 164.133598 368.799258 
L 165.391299 366.881302 
L 166.649 416.38183 
L 167.906701 419.305829 
L 169.164402 386.00027 
L 170.422103 373.334357 
L 171.679804 416.594574 
L 172.937505 422.495578 
L 174.195206 382.480156 
L 175.452907 372.74294 
L 176.710608 415.555557 
L 177.968309 423.631405 
L 179.22601 385.415677 
L 180.483711 369.415705 
L 181.741412 414.251152 
L 182.999113 421.805194 
L 184.256814 392.626956 
L 185.514515 383.818188 
L 186.772216 418.158199 
L 188.029917 425.531455 
L 189.287618 394.175288 
L 190.545319 389.754504 
L 191.80302 420.547414 
L 193.060721 426.037914 
L 194.318422 384.640295 
L 195.576122 391.338823 
L 196.833823 420.317842 
L 198.091524 428.597511 
L 199.349225 376.778327 
L 200.606926 373.472075 
L 201.864627 418.572004 
L 203.122328 425.884241 
L 204.380029 383.557983 
L 205.63773 373.077619 
L 206.895431 422.695155 
L 208.153132 430.02378 
L 209.410833 386.481747 
L 210.668534 370.417431 
L 211.926235 421.26207 
L 213.183936 428.253136 
L 214.441637 380.957969 
L 215.699338 398.148324 
L 216.957039 421.941097 
L 218.21474 426.754871 
L 219.472441 369.335405 
L 220.730142 388.497659 
L 221.987843 421.67917 
L 223.245544 427.993792 
L 224.503245 372.790603 
L 225.760946 388.160108 
L 227.018647 420.450107 
L 228.276348 424.425495 
L 229.534049 374.204031 
L 230.79175 390.798008 
L 232.049451 420.645832 
L 233.307152 424.805011 
L 234.564853 377.039243 
L 235.822554 385.33471 
L 237.080255 418.005181 
L 238.337956 423.525643 
L 239.595657 377.237288 
L 240.853358 396.034441 
L 242.111059 417.017761 
L 243.36876 424.822088 
L 244.626461 375.224476 
L 247.141863 420.548529 
L 248.399564 424.939903 
L 249.657264 361.414033 
L 250.914965 401.727948 
L 252.172666 417.271784 
L 253.430367 424.708051 
L 254.688068 362.422604 
L 255.945769 403.47402 
L 257.20347 418.732146 
L 258.461171 424.025458 
L 259.718872 364.476827 
L 260.976573 393.489623 
L 262.234274 419.158906 
L 263.491975 425.577872 
L 264.749676 355.034616 
L 266.007377 393.697307 
L 267.265078 419.526724 
L 268.522779 424.130795 
L 269.78048 349.590932 
L 271.038181 380.550415 
L 272.295882 421.484445 
L 273.553583 426.691711 
L 274.811284 360.542592 
L 276.068985 375.40282 
L 277.326686 418.974948 
L 278.584387 424.719661 
L 279.842088 377.088672 
L 281.099789 389.694045 
L 282.35749 421.787387 
L 283.615191 426.626788 
L 284.872892 364.9663 
L 286.130593 387.005954 
L 287.388294 419.38426 
L 288.645995 423.308461 
L 289.903696 351.759748 
L 291.161397 386.712349 
L 292.419098 418.25946 
L 293.676799 425.533306 
L 294.9345 373.712234 
L 296.192201 382.385748 
L 297.449902 418.639936 
L 298.707603 424.570213 
L 299.965304 360.048956 
L 301.223005 395.05825 
L 302.480706 419.105647 
L 303.738406 426.590618 
L 304.996107 357.20621 
L 306.253808 386.031185 
L 307.511509 417.417407 
L 308.76921 423.729446 
L 310.026911 354.563238 
L 312.542313 417.465952 
L 313.800014 423.033326 
L 315.057715 359.60233 
L 316.315416 398.784794 
L 317.573117 417.345594 
L 318.830818 423.867599 
L 320.088519 362.532808 
L 321.34622 402.623798 
L 322.603921 418.589202 
L 323.861622 423.952026 
L 325.119323 360.775965 
L 326.377024 402.15189 
L 327.634725 414.544779 
L 328.892426 420.725517 
L 330.150127 323.42566 
L 331.407828 400.640758 
L 333.92323 423.505656 
L 335.180931 309.724013 
L 336.438632 401.521412 
L 337.696333 418.032552 
L 338.954034 424.351961 
L 340.211735 336.827421 
L 341.469436 395.305541 
L 342.727137 418.764512 
L 343.984838 422.685895 
L 345.242539 342.994266 
L 346.50024 402.777487 
L 347.757941 415.40561 
L 349.015642 419.432784 
L 350.273343 320.184478 
L 351.531044 398.339252 
L 352.788745 412.216517 
L 354.046446 420.921675 
L 355.304147 303.570133 
L 356.561848 401.728725 
L 357.819548 421.824569 
L 359.077249 425.536274 
L 360.33495 342.22356 
L 361.592651 405.1958 
L 362.850352 417.44804 
L 364.108053 422.691329 
L 365.365754 352.147131 
L 366.623455 405.851968 
L 367.881156 416.461837 
L 369.138857 420.891379 
L 370.396558 348.118349 
L 371.654259 407.667386 
L 372.91196 416.185518 
L 374.169661 419.63301 
L 375.427362 335.464609 
L 376.685063 409.121837 
L 377.942764 413.67203 
L 379.200465 419.405838 
L 380.458166 326.440528 
L 381.715867 401.042646 
L 382.973568 415.674684 
L 384.231269 424.678657 
L 385.48897 319.669227 
L 386.746671 405.370425 
L 388.004372 418.17377 
L 389.262073 425.455538 
L 390.519774 297.576575 
L 391.777475 403.499167 
L 393.035176 419.494533 
L 394.292877 424.111248 
L 395.550578 282.504434 
L 396.808279 395.784145 
L 398.06598 415.511156 
L 399.323681 419.133975 
L 400.581382 333.327236 
L 401.839083 395.703361 
L 403.096784 416.492441 
L 404.354485 419.775473 
L 405.612186 351.231466 
L 406.869887 409.540476 
L 408.127588 420.450327 
L 409.385289 423.068382 
L 410.64299 352.185302 
L 411.90069 398.363659 
L 413.158391 413.488497 
L 414.416092 421.203578 
L 415.673793 314.755877 
L 416.931494 397.313838 
L 418.189195 418.717601 
L 419.446896 422.684073 
L 420.704597 323.014398 
L 421.962298 399.923292 
L 423.219999 416.463296 
L 424.4777 421.994187 
L 425.735401 343.277376 
L 426.993102 407.852642 
L 428.250803 417.93726 
L 429.508504 424.102834 
L 430.766205 332.386035 
L 432.023906 408.701501 
L 433.281607 418.454867 
L 434.539308 424.788993 
L 435.797009 314.968427 
L 437.05471 411.662088 
L 438.312411 419.664159 
L 439.570112 425.044437 
L 440.827813 281.285189 
L 442.085514 403.967814 
L 443.343215 417.598356 
L 444.600916 424.976949 
L 445.858617 316.928886 
L 447.116318 405.643225 
L 448.374019 410.140963 
L 449.63172 418.25028 
L 450.889421 326.62788 
L 452.147122 400.845532 
L 453.404823 417.595007 
L 454.662524 418.52023 
L 455.920225 342.582916 
L 457.177926 401.671102 
L 458.435627 415.075289 
L 459.693328 412.798307 
L 460.951029 355.593644 
L 462.20873 408.549806 
L 463.466431 417.812336 
L 464.724131 421.111009 
L 465.981832 355.752859 
L 467.239533 403.355121 
L 468.497234 419.328147 
L 469.754935 417.707871 
L 471.012636 345.423706 
L 472.270337 404.359628 
L 473.528038 416.858364 
L 474.785739 418.081072 
L 476.04344 361.425935 
L 477.301141 404.447686 
L 478.558842 413.292775 
L 479.816543 416.993725 
L 481.074244 343.741805 
L 482.331945 395.513722 
L 484.847347 406.956029 
L 486.105048 342.223758 
L 487.362749 401.285943 
L 488.62045 410.015818 
L 489.878151 412.614524 
L 491.135852 361.483478 
L 492.393553 398.678204 
L 493.651254 404.663516 
L 494.908955 411.901034 
L 496.166656 370.117237 
L 497.424357 397.790331 
L 498.682058 405.538947 
L 499.939759 416.502463 
L 501.19746 361.984502 
L 502.455161 404.859256 
L 503.712862 411.875418 
L 504.970563 417.233467 
L 506.228264 370.381437 
L 507.485965 412.188171 
L 508.743666 408.116453 
L 510.001367 414.231517 
L 511.259068 373.826198 
L 512.516769 408.269819 
L 513.77447 409.842836 
L 515.032171 416.717483 
L 516.289872 367.384027 
L 518.805273 413.572887 
L 520.062974 419.588964 
L 521.320675 370.054359 
L 522.578376 403.677325 
L 523.836077 412.993318 
L 525.093778 409.451861 
L 526.351479 341.089195 
L 527.60918 387.870065 
L 528.866881 407.823479 
L 530.124582 412.360879 
L 531.382283 323.781894 
L 532.639984 370.230526 
L 533.897685 399.429018 
L 535.155386 404.496316 
L 536.413087 308.758889 
L 537.670788 390.298229 
L 538.928489 398.306857 
L 540.18619 411.081779 
L 541.443891 321.372075 
L 542.701592 388.676495 
L 543.959293 403.332418 
L 545.216994 413.328978 
L 546.474695 321.658446 
L 547.732396 404.620343 
L 548.990097 408.950511 
L 550.247798 409.308009 
L 551.505499 296.85518 
L 552.7632 407.337864 
L 554.020901 413.427162 
L 555.278602 415.45594 
L 556.536303 343.48632 
L 557.794004 410.773742 
L 559.051705 414.582492 
L 560.309406 420.424953 
L 561.567107 340.544107 
L 562.824808 405.187199 
L 564.082509 417.994275 
L 565.34021 421.723802 
L 566.597911 334.584007 
L 567.855612 413.93981 
L 569.113313 415.717971 
L 570.371014 415.960421 
L 571.628715 338.086685 
L 572.886415 405.475465 
L 574.144116 416.08168 
L 575.401817 416.427763 
L 576.659518 325.242024 
L 577.917219 412.128291 
L 579.17492 412.009724 
L 580.432621 413.055617 
L 581.690322 332.175288 
L 582.948023 395.60402 
L 584.205724 403.638032 
L 585.463425 410.093538 
L 586.721126 336.95413 
L 587.978827 386.030474 
L 589.236528 396.92792 
L 590.494229 405.779939 
L 591.75193 325.596983 
L 593.009631 394.839748 
L 594.267332 404.389114 
L 595.525033 409.391266 
L 596.782734 317.72611 
L 598.040435 386.707615 
L 599.298136 396.292264 
L 600.555837 397.136014 
L 601.813538 331.675209 
L 603.071239 384.88022 
L 604.32894 399.979523 
L 605.586641 399.243931 
L 606.844342 331.393001 
L 608.102043 387.379786 
L 609.359744 410.670953 
L 610.617445 413.439937 
L 611.875146 322.336642 
L 613.132847 393.121062 
L 614.390548 405.65014 
L 615.648249 409.688268 
L 616.90595 324.164381 
L 618.163651 398.096821 
L 619.421352 404.464452 
L 620.679053 405.962325 
L 621.936754 323.934871 
L 623.194455 395.283069 
L 624.452156 408.151667 
L 625.709857 411.555278 
L 626.967557 340.415199 
L 628.225258 407.982521 
L 629.482959 414.417916 
L 630.74066 416.474018 
L 631.998361 336.680982 
L 633.256062 406.708137 
L 634.513763 413.674995 
L 635.771464 419.981804 
L 637.029165 340.833615 
L 638.286866 412.300181 
L 639.544567 418.608526 
L 640.802268 420.163051 
L 642.059969 346.941386 
L 643.31767 412.58977 
L 644.575371 406.886412 
L 645.833072 411.4076 
L 647.090773 347.438137 
L 648.348474 403.529518 
L 649.606175 409.261944 
L 650.863876 414.202134 
L 652.121577 345.912644 
L 653.379278 401.846445 
L 654.636979 406.908033 
L 655.89468 412.487987 
L 657.152381 346.037763 
L 658.410082 408.69205 
L 659.667783 412.25117 
L 660.925484 413.945142 
L 662.183185 366.415899 
L 663.440886 418.74421 
L 664.698587 417.727404 
L 665.956288 419.956877 
L 667.213989 365.622684 
L 668.47169 407.062246 
L 669.729391 410.759677 
L 670.987092 418.400843 
L 672.244793 358.230422 
L 673.502494 405.384152 
L 674.760195 407.75363 
L 676.017896 412.854896 
L 677.275597 337.188786 
L 678.533298 404.316114 
L 679.790999 411.748684 
L 681.048699 411.688477 
L 682.3064 324.506367 
L 683.564101 408.137477 
L 684.821802 413.096969 
L 686.079503 414.584372 
L 687.337204 352.557441 
L 688.594905 402.541516 
L 689.852606 407.017379 
L 691.110307 402.092823 
L 692.368008 328.425422 
L 693.625709 385.074476 
L 694.88341 397.547679 
L 696.141111 392.718543 
L 697.398812 337.439961 
L 698.656513 383.482425 
L 699.914214 396.120289 
L 701.171915 392.000725 
L 702.429616 348.207004 
L 703.687317 381.301552 
L 704.945018 395.675429 
L 706.202719 400.940776 
L 707.46042 340.109626 
L 708.718121 390.503926 
L 709.975822 405.331685 
L 711.233523 407.09404 
L 712.491224 326.493944 
L 713.748925 394.243875 
L 715.006626 406.712355 
L 716.264327 401.475464 
L 717.522028 318.219402 
L 718.779729 391.949017 
L 720.03743 402.717438 
L 721.295131 405.766449 
L 722.552832 313.534814 
L 723.810533 405.448793 
L 725.068234 409.92573 
L 726.325935 412.898539 
L 727.583636 319.204549 
L 728.841337 409.079561 
L 730.099038 405.642811 
L 731.356739 409.801887 
L 732.61444 344.629553 
L 733.872141 400.590076 
L 735.129841 405.603346 
L 736.387542 411.555128 
L 737.645243 336.649554 
L 738.902944 399.216871 
L 740.160645 411.273953 
L 741.418346 413.836511 
L 741.418346 413.836511 
" clip-path="url(#p7477be3323)" style="fill: none; stroke: #0000ff; stroke-width: 2; stroke-linecap: square"/>
   </g>
   <g id="line2d_15">
    <path d="M 132.691074 373.337597 
L 133.948775 411.885471 
L 135.206476 425.314552 
L 136.464177 388.129919 
L 137.721878 395.534435 
L 138.979579 405.772206 
L 140.23728 406.30025 
L 141.49498 408.601661 
L 142.752681 407.874267 
L 144.010382 404.583916 
L 145.268083 411.052179 
L 146.525784 395.718533 
L 147.783485 387.703397 
L 149.041186 401.779847 
L 150.298887 403.652269 
L 151.556588 410.287102 
L 152.814289 410.882605 
L 154.07199 393.592644 
L 155.329691 411.677494 
L 156.587392 412.83919 
L 157.845093 409.535426 
L 159.102794 409.524934 
L 160.360495 421.788296 
L 161.618196 398.44714 
L 164.133598 420.668608 
L 165.391299 418.389926 
L 166.649 412.575734 
L 167.906701 409.980542 
L 169.164402 412.436125 
L 170.422103 417.06014 
L 171.679804 394.644649 
L 172.937505 418.391252 
L 174.195206 412.45697 
L 175.452907 411.794712 
L 176.710608 378.176503 
L 177.968309 408.323052 
L 179.22601 399.646068 
L 180.483711 413.151261 
L 181.741412 402.788554 
L 182.999113 402.923941 
L 184.256814 398.951983 
L 185.514515 402.523317 
L 186.772216 405.329164 
L 188.029917 403.334965 
L 189.287618 411.788255 
L 190.545319 425.216826 
L 191.80302 392.330544 
L 193.060721 409.406394 
L 194.318422 421.251065 
L 195.576122 424.511633 
L 196.833823 390.771857 
L 198.091524 400.444802 
L 199.349225 414.967204 
L 200.606926 424.591046 
L 201.864627 395.159834 
L 203.122328 418.225306 
L 204.380029 415.847073 
L 205.63773 419.443477 
L 206.895431 361.532584 
L 208.153132 404.690605 
L 209.410833 399.405029 
L 210.668534 415.643252 
L 211.926235 419.447699 
L 213.183936 418.378774 
L 214.441637 399.013769 
L 215.699338 415.234031 
L 216.957039 392.571986 
L 218.21474 405.978002 
L 219.472441 407.317709 
L 220.730142 411.128862 
L 221.987843 401.930211 
L 223.245544 403.223468 
L 224.503245 401.208421 
L 225.760946 424.659553 
L 227.018647 409.552514 
L 228.276348 391.687639 
L 229.534049 412.522102 
L 230.79175 426.989442 
L 232.049451 415.849543 
L 233.307152 406.907927 
L 234.564853 415.45734 
L 235.822554 416.882814 
L 237.080255 411.986538 
L 238.337956 416.940767 
L 239.595657 401.561759 
L 240.853358 409.227038 
L 242.111059 396.081312 
L 243.36876 415.495874 
L 244.626461 406.058995 
L 245.884162 413.466645 
L 247.141863 407.174622 
L 248.399564 412.351285 
L 249.657264 408.069308 
L 250.914965 418.979418 
L 252.172666 393.79752 
L 253.430367 390.558859 
L 254.688068 391.866328 
L 255.945769 409.719872 
L 257.20347 403.112971 
L 258.461171 401.121766 
L 259.718872 402.771011 
L 260.976573 411.391699 
L 262.234274 373.694585 
L 263.491975 408.246237 
L 264.749676 400.687864 
L 266.007377 414.987957 
L 267.265078 414.402275 
L 268.522779 405.959774 
L 269.78048 396.708253 
L 271.038181 421.064259 
L 272.295882 426.166855 
L 274.811284 398.983718 
L 276.068985 414.792729 
L 277.326686 419.246026 
L 278.584387 415.159444 
L 279.842088 405.553914 
L 281.099789 414.2661 
L 282.35749 386.632416 
L 283.615191 417.525386 
L 284.872892 406.500758 
L 286.130593 411.791743 
L 287.388294 365.99708 
L 288.645995 406.77051 
L 289.903696 395.610227 
L 291.161397 403.12715 
L 292.419098 405.315656 
L 293.676799 409.677234 
L 294.9345 393.405586 
L 296.192201 402.564416 
L 297.449902 406.734812 
L 298.707603 403.650488 
L 299.965304 404.035713 
L 301.223005 409.026922 
L 302.480706 408.274055 
L 303.738406 409.628505 
L 304.996107 399.431122 
L 306.253808 409.312381 
L 307.511509 393.058917 
L 308.76921 406.869232 
L 310.026911 395.665139 
L 311.284612 404.704165 
L 312.542313 394.833115 
L 313.800014 403.497958 
L 315.057715 406.537159 
L 316.315416 419.729599 
L 317.573117 353.439567 
L 318.830818 402.243261 
L 320.088519 398.203938 
L 321.34622 424.171084 
L 322.603921 395.607816 
L 323.861622 406.316466 
L 325.119323 404.216073 
L 326.377024 416.380888 
L 327.634725 339.502971 
L 328.892426 404.704557 
L 330.150127 399.301422 
L 331.407828 416.753639 
L 332.665529 365.931578 
L 333.92323 412.204992 
L 335.180931 403.437946 
L 336.438632 427.401994 
L 337.696333 365.528495 
L 338.954034 409.297333 
L 340.211735 407.6811 
L 341.469436 424.717547 
L 342.727137 356.932966 
L 343.984838 402.76152 
L 345.242539 385.727972 
L 346.50024 414.019938 
L 347.757941 375.713371 
L 349.015642 417.854681 
L 350.273343 405.755715 
L 351.531044 419.671719 
L 352.788745 388.98695 
L 354.046446 416.078595 
L 355.304147 405.864754 
L 356.561848 415.9245 
L 357.819548 417.569853 
L 359.077249 405.14769 
L 360.33495 394.281651 
L 361.592651 413.378041 
L 362.850352 413.812438 
L 364.108053 408.684999 
L 365.365754 391.995104 
L 366.623455 418.853325 
L 367.881156 423.399975 
L 369.138857 411.722657 
L 370.396558 398.050668 
L 371.654259 407.644735 
L 372.91196 408.510994 
L 375.427362 393.755985 
L 376.685063 412.308258 
L 377.942764 400.338212 
L 379.200465 403.843348 
L 380.458166 397.949003 
L 381.715867 415.601251 
L 382.973568 406.250396 
L 384.231269 407.420667 
L 385.48897 399.386596 
L 386.746671 412.786719 
L 388.004372 415.796812 
L 389.262073 389.159056 
L 390.519774 408.276485 
L 391.777475 419.50888 
L 393.035176 417.303986 
L 394.292877 396.402174 
L 395.550578 389.541031 
L 396.808279 413.990701 
L 398.06598 417.032757 
L 399.323681 397.904822 
L 400.581382 393.914291 
L 401.839083 409.63118 
L 403.096784 404.49691 
L 404.354485 402.931153 
L 405.612186 402.589915 
L 406.869887 408.91518 
L 408.127588 388.698468 
L 409.385289 400.43048 
L 410.64299 401.003977 
L 411.90069 403.664909 
L 413.158391 377.526825 
L 414.416092 390.979254 
L 415.673793 385.68651 
L 416.931494 414.719869 
L 418.189195 412.168899 
L 419.446896 399.571646 
L 420.704597 407.943317 
L 421.962298 410.609504 
L 423.219999 381.861519 
L 424.4777 393.177644 
L 425.735401 398.603166 
L 426.993102 415.333321 
L 428.250803 416.855142 
L 429.508504 398.445366 
L 430.766205 392.974813 
L 432.023906 415.235515 
L 433.281607 415.222047 
L 434.539308 395.988009 
L 435.797009 393.188697 
L 437.05471 417.054646 
L 438.312411 405.116006 
L 439.570112 399.803641 
L 440.827813 384.570703 
L 442.085514 411.285295 
L 443.343215 422.758048 
L 444.600916 402.727424 
L 445.858617 388.554733 
L 447.116318 412.725574 
L 448.374019 424.909978 
L 449.63172 405.813141 
L 450.889421 380.588124 
L 452.147122 422.794753 
L 453.404823 417.173473 
L 454.662524 401.976071 
L 455.920225 389.894619 
L 457.177926 415.915019 
L 458.435627 420.968714 
L 459.693328 411.882949 
L 460.951029 395.167134 
L 462.20873 418.985751 
L 463.466431 414.234613 
L 464.724131 405.280937 
L 465.981832 383.739009 
L 467.239533 409.347766 
L 468.497234 406.571021 
L 469.754935 382.486723 
L 471.012636 390.094372 
L 472.270337 424.373117 
L 473.528038 430.45843 
L 474.785739 415.619882 
L 476.04344 393.87398 
L 477.301141 412.563677 
L 478.558842 413.324643 
L 479.816543 423.570165 
L 481.074244 388.89073 
L 482.331945 413.930858 
L 483.589646 411.084688 
L 484.847347 391.25746 
L 486.105048 386.84298 
L 487.362749 407.69087 
L 488.62045 414.753598 
L 489.878151 384.675695 
L 491.135852 387.193255 
L 492.393553 411.58233 
L 493.651254 410.600657 
L 494.908955 410.020315 
L 496.166656 387.374685 
L 497.424357 418.805446 
L 498.682058 420.761841 
L 499.939759 411.74403 
L 501.19746 385.869611 
L 502.455161 430.56 
L 503.712862 414.227174 
L 504.970563 408.097075 
L 506.228264 401.020343 
L 507.485965 419.574749 
L 508.743666 415.251072 
L 510.001367 413.037008 
L 511.259068 375.491644 
L 512.516769 413.013895 
L 513.77447 415.665324 
L 515.032171 417.265364 
L 516.289872 392.914434 
L 517.547573 418.158166 
L 518.805273 406.124446 
L 520.062974 414.628699 
L 521.320675 393.503637 
L 522.578376 402.967866 
L 523.836077 400.710204 
L 525.093778 398.210762 
L 526.351479 385.826375 
L 527.60918 404.591839 
L 528.866881 411.18871 
L 530.124582 402.305171 
L 531.382283 378.371653 
L 532.639984 416.274551 
L 533.897685 418.102888 
L 535.155386 412.507069 
L 536.413087 403.761003 
L 537.670788 418.420313 
L 538.928489 411.21548 
L 540.18619 402.957524 
L 541.443891 376.845727 
L 542.701592 407.051017 
L 543.959293 418.777752 
L 545.216994 399.705663 
L 546.474695 404.104939 
L 547.732396 418.286868 
L 548.990097 381.162874 
L 550.247798 403.341983 
L 551.505499 387.490561 
L 552.7632 414.597942 
L 554.020901 403.474805 
L 555.278602 411.532308 
L 556.536303 387.70509 
L 557.794004 405.001639 
L 559.051705 399.220499 
L 560.309406 405.715426 
L 561.567107 396.599648 
L 564.082509 410.659497 
L 565.34021 394.144886 
L 566.597911 394.572507 
L 569.113313 422.264496 
L 570.371014 409.635882 
L 571.628715 411.678623 
L 572.886415 426.013955 
L 574.144116 367.318855 
L 575.401817 408.268837 
L 576.659518 406.996784 
L 577.917219 420.451338 
L 579.17492 354.417055 
L 580.432621 397.827681 
L 581.690322 395.163198 
L 582.948023 417.812944 
L 584.205724 390.302422 
L 585.463425 396.62445 
L 586.721126 398.992953 
L 587.978827 417.246817 
L 589.236528 423.884523 
L 590.494229 396.34741 
L 591.75193 393.779058 
L 593.009631 403.197057 
L 594.267332 409.39327 
L 595.525033 398.635774 
L 596.782734 401.258744 
L 598.040435 406.743509 
L 599.298136 396.569414 
L 600.555837 391.759364 
L 601.813538 402.944767 
L 603.071239 417.431508 
L 604.32894 405.443597 
L 605.586641 403.588929 
L 606.844342 398.877524 
L 608.102043 417.267834 
L 609.359744 410.694256 
L 610.617445 403.000052 
L 611.875146 389.808946 
L 613.132847 414.321506 
L 614.390548 397.737215 
L 615.648249 397.175196 
L 616.90595 398.414861 
L 618.163651 419.953524 
L 619.421352 355.90986 
L 620.679053 393.021794 
L 621.936754 393.16215 
L 623.194455 412.091486 
L 624.452156 387.307907 
L 625.709857 394.297643 
L 626.967557 389.734598 
L 628.225258 405.934016 
L 629.482959 386.226028 
L 630.74066 408.109095 
L 631.998361 376.392607 
L 633.256062 408.739364 
L 634.513763 417.303154 
L 635.771464 398.663992 
L 637.029165 391.355211 
L 638.286866 419.363793 
L 639.544567 418.696375 
L 640.802268 402.596361 
L 642.059969 399.056125 
L 643.31767 416.036653 
L 644.575371 414.435799 
L 645.833072 399.493487 
L 647.090773 395.860443 
L 648.348474 416.188391 
L 649.606175 428.54902 
L 650.863876 407.29973 
L 652.121577 393.138014 
L 653.379278 420.143954 
L 654.636979 426.155275 
L 655.89468 408.994813 
L 657.152381 384.856062 
L 658.410082 410.33803 
L 659.667783 399.897346 
L 660.925484 379.171735 
L 662.183185 395.739758 
L 663.440886 410.328102 
L 664.698587 415.832641 
L 665.956288 369.76337 
L 667.213989 406.983745 
L 668.47169 412.89461 
L 669.729391 422.894956 
L 670.987092 395.580199 
L 672.244793 405.724379 
L 674.760195 429.065572 
L 676.017896 408.197761 
L 677.275597 412.78112 
L 679.790999 423.90801 
L 681.048699 405.948931 
L 682.3064 403.504228 
L 683.564101 410.824245 
L 684.821802 409.99084 
L 686.079503 407.324397 
L 687.337204 404.230479 
L 688.594905 419.750187 
L 689.852606 376.517638 
L 691.110307 400.778755 
L 692.368008 409.95777 
L 693.625709 426.379204 
L 694.88341 378.569618 
L 696.141111 400.970372 
L 697.398812 403.057932 
L 698.656513 417.448707 
L 699.914214 416.141392 
L 701.171915 390.795831 
L 702.429616 393.277821 
L 703.687317 412.199253 
L 704.945018 424.071215 
L 706.202719 390.316384 
L 707.46042 398.700155 
L 708.718121 408.223458 
L 709.975822 411.415937 
L 711.233523 398.025741 
L 712.491224 396.498364 
L 713.748925 415.855124 
L 715.006626 384.683545 
L 716.264327 400.583055 
L 717.522028 408.444271 
L 718.779729 421.643938 
L 720.03743 370.23131 
L 721.295131 401.970805 
L 722.552832 391.194648 
L 723.810533 420.405757 
L 725.068234 411.89741 
L 726.325935 394.777112 
L 727.583636 391.29986 
L 728.841337 401.72554 
L 730.099038 419.006874 
L 731.356739 388.518856 
L 732.61444 394.422227 
L 733.872141 419.151764 
L 735.129841 400.974689 
L 736.387542 397.321365 
L 737.645243 395.700891 
L 738.902944 419.020737 
L 740.160645 393.960649 
L 741.418346 398.039212 
L 741.418346 398.039212 
" clip-path="url(#p7477be3323)" style="fill: none; stroke: #ffa500; stroke-width: 2; stroke-linecap: square"/>
   </g>
   <g id="line2d_16">
    <path d="M 132.691074 228.671852 
L 133.948775 319.02715 
L 135.206476 363.001444 
L 136.464177 393.606717 
L 137.721878 230.810574 
L 138.979579 310.212804 
L 141.49498 384.866243 
L 142.752681 238.990055 
L 144.010382 316.23823 
L 145.268083 343.947487 
L 146.525784 391.467203 
L 147.783485 245.8945 
L 149.041186 320.52897 
L 150.298887 354.624533 
L 151.556588 403.071854 
L 152.814289 227.806905 
L 154.07199 321.023566 
L 155.329691 354.507902 
L 156.587392 400.81782 
L 157.845093 217.668373 
L 160.360495 352.481494 
L 161.618196 399.951026 
L 162.875897 199.56505 
L 164.133598 301.269169 
L 165.391299 359.096908 
L 166.649 397.007634 
L 167.906701 240.654512 
L 169.164402 336.814316 
L 171.679804 397.467299 
L 172.937505 257.877996 
L 174.195206 342.744256 
L 175.452907 361.90956 
L 176.710608 396.669137 
L 177.968309 244.409889 
L 179.22601 337.433629 
L 180.483711 354.273386 
L 181.741412 399.08852 
L 182.999113 231.893685 
L 184.256814 346.235068 
L 185.514515 364.357322 
L 186.772216 406.197068 
L 188.029917 233.399726 
L 189.287618 360.767881 
L 190.545319 376.729961 
L 191.80302 405.971366 
L 193.060721 241.179818 
L 194.318422 360.628023 
L 196.833823 409.015217 
L 198.091524 258.533544 
L 199.349225 346.693487 
L 200.606926 372.53923 
L 201.864627 402.825622 
L 203.122328 270.215541 
L 204.380029 353.699662 
L 205.63773 365.359884 
L 206.895431 410.425915 
L 208.153132 264.093676 
L 209.410833 360.225717 
L 210.668534 374.002446 
L 211.926235 407.157941 
L 213.183936 251.908873 
L 214.441637 344.204724 
L 215.699338 394.934128 
L 216.957039 408.430837 
L 218.21474 245.681833 
L 220.730142 391.867596 
L 221.987843 412.189062 
L 223.245544 236.683873 
L 224.503245 324.323325 
L 225.760946 394.470754 
L 227.018647 408.728018 
L 228.276348 237.448657 
L 229.534049 333.145425 
L 230.79175 384.143631 
L 232.049451 405.543165 
L 233.307152 260.898082 
L 234.564853 335.927499 
L 235.822554 372.963699 
L 237.080255 396.868721 
L 238.337956 280.625214 
L 239.595657 334.621563 
L 240.853358 379.454859 
L 242.111059 398.392009 
L 243.36876 247.930187 
L 244.626461 326.967388 
L 245.884162 387.222 
L 247.141863 405.175293 
L 248.399564 223.244761 
L 249.657264 326.370005 
L 250.914965 382.192071 
L 252.172666 398.838737 
L 253.430367 246.831494 
L 254.688068 310.438547 
L 255.945769 384.235783 
L 257.20347 406.551565 
L 258.461171 234.303547 
L 259.718872 299.721996 
L 260.976573 380.089592 
L 262.234274 406.340715 
L 263.491975 225.692311 
L 264.749676 293.901615 
L 266.007377 384.502298 
L 267.265078 403.678567 
L 268.522779 227.52952 
L 269.78048 309.965631 
L 271.038181 379.722716 
L 272.295882 407.124556 
L 273.553583 238.728545 
L 274.811284 336.763304 
L 276.068985 363.183577 
L 277.326686 396.029728 
L 278.584387 259.928092 
L 279.842088 353.98283 
L 281.099789 364.984719 
L 282.35749 402.207329 
L 283.615191 255.237245 
L 284.872892 343.924444 
L 287.388294 397.071567 
L 288.645995 239.717782 
L 289.903696 330.724524 
L 291.161397 373.634793 
L 292.419098 401.931399 
L 293.676799 234.852014 
L 294.9345 347.762408 
L 296.192201 363.795326 
L 297.449902 401.113763 
L 298.707603 235.195642 
L 299.965304 340.870767 
L 301.223005 380.425956 
L 302.480706 407.130148 
L 303.738406 234.245924 
L 304.996107 336.323517 
L 307.511509 401.25826 
L 308.76921 250.090193 
L 310.026911 318.811683 
L 311.284612 370.597124 
L 312.542313 396.288504 
L 313.800014 251.299192 
L 315.057715 307.184524 
L 316.315416 383.959402 
L 317.573117 399.357257 
L 318.830818 242.244313 
L 320.088519 304.747015 
L 321.34622 384.939917 
L 322.603921 404.597314 
L 323.861622 213.921967 
L 325.119323 309.284489 
L 326.377024 386.343275 
L 327.634725 392.743925 
L 328.892426 200.18165 
L 331.407828 389.766744 
L 332.665529 401.051332 
L 333.92323 224.98194 
L 335.180931 282.378356 
L 336.438632 396.121901 
L 337.696333 403.794157 
L 338.954034 256.192694 
L 340.211735 290.927806 
L 341.469436 385.760726 
L 342.727137 400.581457 
L 343.984838 253.930561 
L 345.242539 280.123889 
L 346.50024 386.396955 
L 347.757941 401.813243 
L 349.015642 222.620817 
L 350.273343 276.363103 
L 351.531044 386.302106 
L 352.788745 398.169322 
L 354.046446 237.538001 
L 355.304147 272.960163 
L 356.561848 394.620529 
L 357.819548 408.681477 
L 359.077249 276.3894 
L 360.33495 305.939391 
L 361.592651 387.668238 
L 362.850352 397.171231 
L 364.108053 278.615033 
L 365.365754 304.748584 
L 366.623455 383.055712 
L 367.881156 391.499833 
L 369.138857 259.994261 
L 370.396558 285.75944 
L 371.654259 390.477028 
L 372.91196 400.244147 
L 374.169661 212.695978 
L 375.427362 293.172949 
L 376.685063 390.68186 
L 377.942764 396.670251 
L 379.200465 213.08191 
L 380.458166 297.938584 
L 381.715867 403.317716 
L 382.973568 404.758643 
L 384.231269 213.760516 
L 385.48897 303.609609 
L 386.746671 401.627676 
L 388.004372 406.886188 
L 389.262073 245.757193 
L 390.519774 314.605744 
L 391.777475 391.709349 
L 393.035176 400.387523 
L 394.292877 264.955339 
L 395.550578 311.113928 
L 396.808279 372.088433 
L 398.06598 388.034601 
L 399.323681 299.91782 
L 400.581382 345.463709 
L 401.839083 382.151862 
L 403.096784 387.970484 
L 404.354485 282.83374 
L 406.869887 395.760471 
L 408.127588 398.629962 
L 409.385289 266.496356 
L 411.90069 379.08448 
L 413.158391 383.235684 
L 414.416092 259.649094 
L 415.673793 294.700539 
L 416.931494 388.267512 
L 418.189195 393.180444 
L 419.446896 256.648914 
L 420.704597 310.952258 
L 421.962298 385.067725 
L 423.219999 398.353764 
L 424.4777 251.699871 
L 425.735401 330.756055 
L 426.993102 393.699564 
L 428.250803 406.274264 
L 429.508504 241.3453 
L 432.023906 400.790621 
L 433.281607 407.379927 
L 434.539308 249.40395 
L 437.05471 402.830027 
L 438.312411 406.727725 
L 439.570112 243.315374 
L 440.827813 291.913261 
L 442.085514 388.99252 
L 443.343215 402.477359 
L 444.600916 276.956645 
L 447.116318 377.120635 
L 448.374019 378.228761 
L 449.63172 278.939502 
L 450.889421 323.126551 
L 452.147122 380.496215 
L 453.404823 388.428038 
L 454.662524 300.376753 
L 457.177926 382.553662 
L 458.435627 378.820397 
L 459.693328 299.687446 
L 460.951029 355.960667 
L 462.20873 394.255661 
L 463.466431 396.61051 
L 464.724131 303.378486 
L 465.981832 356.616464 
L 467.239533 381.370015 
L 468.497234 387.087126 
L 469.754935 309.431734 
L 471.012636 333.894173 
L 472.270337 385.383795 
L 473.528038 388.243618 
L 474.785739 305.423789 
L 476.04344 336.180917 
L 477.301141 378.459128 
L 478.558842 385.515356 
L 479.816543 296.122689 
L 481.074244 323.496476 
L 482.331945 372.251693 
L 483.589646 365.909289 
L 484.847347 279.486151 
L 486.105048 312.557964 
L 487.362749 372.670446 
L 488.62045 374.46247 
L 489.878151 301.533494 
L 491.135852 335.435864 
L 492.393553 362.416624 
L 493.651254 357.119672 
L 494.908955 278.310867 
L 496.166656 310.333753 
L 497.424357 360.50739 
L 498.682058 363.162784 
L 499.939759 275.506834 
L 501.19746 315.416615 
L 502.455161 370.252844 
L 503.712862 369.970915 
L 504.970563 294.184526 
L 507.485965 385.625567 
L 508.743666 371.910756 
L 510.001367 299.098022 
L 511.259068 334.568924 
L 512.516769 375.639667 
L 513.77447 375.801227 
L 515.032171 307.388938 
L 517.547573 367.588156 
L 518.805273 384.786573 
L 520.062974 315.342486 
L 521.320675 357.838729 
L 522.578376 375.647773 
L 523.836077 367.467992 
L 525.093778 302.390583 
L 526.351479 346.739903 
L 527.60918 368.132379 
L 528.866881 373.200055 
L 530.124582 303.866501 
L 531.382283 324.449975 
L 532.639984 338.404806 
L 533.897685 349.51327 
L 535.155386 267.918711 
L 536.413087 317.607008 
L 537.670788 354.563055 
L 538.928489 358.18984 
L 540.18619 275.188244 
L 541.443891 319.78506 
L 542.701592 343.530596 
L 543.959293 364.548925 
L 545.216994 260.018741 
L 546.474695 327.252806 
L 547.732396 384.146849 
L 548.990097 382.910599 
L 550.247798 258.942812 
L 552.7632 371.70481 
L 554.020901 375.240498 
L 555.278602 291.817906 
L 556.536303 344.381272 
L 557.794004 386.549961 
L 559.051705 386.525745 
L 560.309406 303.927672 
L 561.567107 332.295152 
L 562.824808 386.370437 
L 564.082509 393.093562 
L 565.34021 293.074048 
L 566.597911 334.700338 
L 567.855612 394.967806 
L 569.113313 387.269692 
L 570.371014 302.913559 
L 571.628715 331.602239 
L 572.886415 384.084352 
L 574.144116 384.894717 
L 575.401817 291.590053 
L 576.659518 331.16528 
L 577.917219 387.476247 
L 579.17492 371.694768 
L 580.432621 297.156987 
L 582.948023 356.196106 
L 584.205724 354.873349 
L 585.463425 300.851164 
L 586.721126 310.832292 
L 587.978827 336.911884 
L 589.236528 340.592019 
L 590.494229 268.541908 
L 591.75193 319.829285 
L 593.009631 360.277953 
L 594.267332 363.870202 
L 595.525033 290.161746 
L 596.782734 301.514115 
L 598.040435 335.692712 
L 599.298136 336.182207 
L 600.555837 279.115742 
L 601.813538 292.983941 
L 603.071239 330.962727 
L 604.32894 329.912114 
L 605.586641 285.827676 
L 606.844342 324.967454 
L 608.102043 351.693308 
L 609.359744 373.15432 
L 610.617445 299.123734 
L 611.875146 316.04717 
L 613.132847 356.428995 
L 614.390548 363.558025 
L 615.648249 300.623296 
L 616.90595 310.4204 
L 618.163651 354.885391 
L 619.421352 353.849979 
L 620.679053 288.767961 
L 621.936754 291.72135 
L 623.194455 347.710927 
L 624.452156 364.419453 
L 625.709857 291.916823 
L 626.967557 323.149081 
L 628.225258 374.728553 
L 629.482959 382.373632 
L 630.74066 297.508119 
L 631.998361 317.800106 
L 633.256062 375.415874 
L 634.513763 385.153889 
L 635.771464 308.847207 
L 637.029165 340.153873 
L 638.286866 392.093991 
L 639.544567 396.839543 
L 640.802268 322.717693 
L 643.31767 376.519008 
L 644.575371 366.956846 
L 645.833072 305.236701 
L 647.090773 326.739578 
L 648.348474 364.682143 
L 649.606175 370.218147 
L 650.863876 304.67488 
L 652.121577 321.25334 
L 653.379278 358.443793 
L 654.636979 366.06794 
L 655.89468 305.106474 
L 657.152381 314.159931 
L 658.410082 367.09888 
L 659.667783 367.874358 
L 660.925484 307.330187 
L 663.440886 394.86793 
L 664.698587 389.254184 
L 665.956288 334.420534 
L 667.213989 358.878443 
L 668.47169 379.832875 
L 669.729391 380.507546 
L 670.987092 330.747744 
L 672.244793 337.240662 
L 673.502494 365.861004 
L 674.760195 359.803131 
L 676.017896 303.604625 
L 677.275597 329.043254 
L 678.533298 368.183955 
L 679.790999 366.521162 
L 681.048699 297.470007 
L 682.3064 313.261959 
L 683.564101 376.890319 
L 684.821802 376.957338 
L 686.079503 308.966118 
L 687.337204 326.65041 
L 688.594905 366.481672 
L 689.852606 355.647705 
L 691.110307 277.277068 
L 692.368008 295.641842 
L 693.625709 340.214068 
L 694.88341 334.447902 
L 696.141111 287.513446 
L 697.398812 301.09674 
L 698.656513 321.511186 
L 699.914214 332.376023 
L 701.171915 284.907671 
L 702.429616 292.345221 
L 703.687317 326.142166 
L 704.945018 336.026577 
L 706.202719 285.774333 
L 707.46042 295.318971 
L 708.718121 345.545218 
L 709.975822 353.281467 
L 711.233523 279.005554 
L 712.491224 298.485043 
L 713.748925 345.665294 
L 715.006626 356.1619 
L 716.264327 272.128271 
L 717.522028 297.136538 
L 718.779729 348.845922 
L 720.03743 362.55506 
L 721.295131 266.888576 
L 722.552832 302.407016 
L 723.810533 360.32382 
L 725.068234 361.34694 
L 726.325935 272.594635 
L 727.583636 311.414137 
L 728.841337 368.346058 
L 730.099038 364.294261 
L 731.356739 296.570862 
L 733.872141 368.39339 
L 735.129841 365.583377 
L 736.387542 296.904888 
L 737.645243 320.620103 
L 738.902944 363.301645 
L 740.160645 373.185389 
L 741.418346 295.308432 
L 741.418346 295.308432 
" clip-path="url(#p7477be3323)" style="fill: none; stroke-dasharray: 7.4,3.2; stroke-dashoffset: 0; stroke: #0000ff; stroke-width: 2"/>
   </g>
   <g id="line2d_17">
    <path d="M 132.691074 392.178908 
L 133.948775 393.508592 
L 135.206476 384.817371 
L 136.464177 113.617979 
L 137.721878 389.333135 
L 138.979579 353.120574 
L 140.23728 388.017487 
L 141.49498 117.081137 
L 142.752681 399.104909 
L 144.010382 373.338051 
L 145.268083 382.02837 
L 146.525784 90.25935 
L 147.783485 390.416444 
L 149.041186 355.084404 
L 150.298887 388.850397 
L 151.556588 147.34172 
L 152.814289 405.389455 
L 154.07199 374.432346 
L 155.329691 393.442789 
L 156.587392 72.630277 
L 157.845093 397.849368 
L 159.102794 402.481375 
L 160.360495 380.970348 
L 161.618196 62.013918 
L 162.875897 402.490346 
L 164.133598 402.121858 
L 165.391299 371.980839 
L 166.649 82.630359 
L 167.906701 409.904439 
L 169.164402 392.347871 
L 170.422103 385.90087 
L 171.679804 52.516685 
L 172.937505 406.946102 
L 174.195206 394.83936 
L 175.452907 348.786122 
L 176.710608 45.059757 
L 177.968309 407.300023 
L 179.22601 372.713271 
L 180.483711 367.570126 
L 181.741412 88.910083 
L 182.999113 400.323003 
L 184.256814 355.707292 
L 185.514515 388.483499 
L 186.772216 127.94168 
L 188.029917 395.182159 
L 189.287618 404.13227 
L 190.545319 373.126234 
L 191.80302 80.601635 
L 193.060721 393.444526 
L 194.318422 414.540249 
L 195.576122 366.346329 
L 196.833823 75.469007 
L 198.091524 396.160937 
L 199.349225 401.727039 
L 200.606926 359.321837 
L 201.864627 83.782761 
L 203.122328 407.667379 
L 204.380029 401.909693 
L 205.63773 347.723042 
L 206.895431 66.319096 
L 208.153132 396.06968 
L 209.410833 372.03822 
L 210.668534 386.413438 
L 211.926235 176.274729 
L 213.183936 396.198449 
L 214.441637 367.518784 
L 215.699338 387.632867 
L 216.957039 150.696257 
L 218.21474 383.88789 
L 219.472441 358.336162 
L 220.730142 383.899001 
L 221.987843 197.425096 
L 223.245544 399.252132 
L 224.503245 379.849645 
L 225.760946 394.958161 
L 227.018647 162.659128 
L 228.276348 385.672599 
L 229.534049 404.323726 
L 230.79175 392.113663 
L 232.049451 183.166685 
L 233.307152 400.336123 
L 234.564853 379.982569 
L 235.822554 362.131623 
L 237.080255 119.201888 
L 238.337956 393.935216 
L 239.595657 361.725543 
L 240.853358 362.062728 
L 242.111059 101.630775 
L 243.36876 395.881009 
L 244.626461 391.360114 
L 245.884162 360.803772 
L 247.141863 85.696854 
L 248.399564 397.867501 
L 249.657264 390.82333 
L 250.914965 374.672301 
L 252.172666 144.101109 
L 253.430367 373.556809 
L 254.688068 349.389595 
L 255.945769 385.687778 
L 257.20347 176.108354 
L 258.461171 387.37519 
L 259.718872 363.702493 
L 260.976573 382.676201 
L 262.234274 110.561745 
L 263.491975 401.634935 
L 264.749676 380.980631 
L 266.007377 403.064631 
L 267.265078 164.948541 
L 268.522779 388.277033 
L 269.78048 382.157982 
L 271.038181 394.315981 
L 272.295882 161.283123 
L 273.553583 394.197114 
L 274.811284 370.563108 
L 276.068985 388.148762 
L 277.326686 150.411176 
L 278.584387 401.04818 
L 279.842088 366.651081 
L 281.099789 382.140567 
L 282.35749 86.815805 
L 283.615191 400.104934 
L 284.872892 377.034193 
L 286.130593 373.718816 
L 287.388294 49.154437 
L 288.645995 396.265981 
L 289.903696 370.334426 
L 291.161397 350.198341 
L 292.419098 116.541436 
L 293.676799 386.398743 
L 294.9345 344.512438 
L 296.192201 379.804013 
L 297.449902 137.644456 
L 298.707603 385.711671 
L 299.965304 371.195635 
L 301.223005 366.053963 
L 302.480706 98.312415 
L 303.738406 396.77569 
L 304.996107 361.363636 
L 306.253808 350.447816 
L 307.511509 97.26318 
L 308.76921 394.685166 
L 310.026911 357.431022 
L 311.284612 369.674356 
L 312.542313 102.958201 
L 313.800014 389.912194 
L 315.057715 391.851149 
L 316.315416 322.278579 
L 317.573117 27.36 
L 318.830818 400.162506 
L 320.088519 392.723373 
L 321.34622 335.638417 
L 322.603921 103.985946 
L 323.861622 400.423041 
L 325.119323 382.919116 
L 326.377024 359.589943 
L 327.634725 80.151264 
L 328.892426 395.429743 
L 330.150127 381.147798 
L 331.407828 362.772476 
L 332.665529 102.16945 
L 333.92323 410.367673 
L 335.180931 391.859446 
L 336.438632 345.944167 
L 337.696333 96.270938 
L 338.954034 408.101905 
L 340.211735 390.023431 
L 341.469436 341.187929 
L 342.727137 98.220007 
L 343.984838 394.953514 
L 345.242539 355.713009 
L 346.50024 348.569541 
L 347.757941 114.00098 
L 349.015642 398.372381 
L 350.273343 385.856843 
L 351.531044 376.177638 
L 352.788745 178.641217 
L 354.046446 390.367682 
L 355.304147 367.220569 
L 356.561848 408.970783 
L 357.819548 262.068866 
L 359.077249 378.229706 
L 360.33495 356.679005 
L 361.592651 401.78667 
L 362.850352 243.684361 
L 364.108053 380.1483 
L 365.365754 364.006886 
L 366.623455 391.878942 
L 367.881156 240.723217 
L 369.138857 395.236946 
L 370.396558 361.586623 
L 371.654259 396.959312 
L 372.91196 193.215609 
L 374.169661 385.007149 
L 375.427362 364.796832 
L 376.685063 381.433582 
L 377.942764 174.71599 
L 379.200465 387.38735 
L 380.458166 377.089866 
L 381.715867 385.335964 
L 382.973568 207.226143 
L 384.231269 395.417708 
L 385.48897 370.292341 
L 386.746671 393.370119 
L 388.004372 192.265056 
L 389.262073 379.720444 
L 390.519774 380.455698 
L 391.777475 390.411958 
L 393.035176 205.118849 
L 394.292877 390.305734 
L 395.550578 357.842856 
L 396.808279 393.069632 
L 398.06598 196.46522 
L 399.323681 384.302516 
L 400.581382 353.427071 
L 401.839083 377.866268 
L 403.096784 153.847509 
L 404.354485 395.797697 
L 405.612186 353.86499 
L 406.869887 377.412437 
L 408.127588 163.656911 
L 409.385289 390.542427 
L 410.64299 356.143921 
L 411.90069 355.050747 
L 413.158391 172.604562 
L 414.416092 377.144338 
L 415.673793 345.585192 
L 416.931494 393.779725 
L 418.189195 168.36268 
L 419.446896 382.591796 
L 420.704597 368.809461 
L 421.962298 379.192015 
L 423.219999 143.779264 
L 424.4777 378.175242 
L 425.735401 349.898821 
L 426.993102 377.237691 
L 428.250803 218.559939 
L 429.508504 390.248031 
L 430.766205 350.469305 
L 432.023906 399.9862 
L 433.281607 225.69256 
L 434.539308 369.303566 
L 435.797009 357.240078 
L 437.05471 383.613883 
L 438.312411 227.727837 
L 439.570112 369.267257 
L 440.827813 342.160015 
L 442.085514 402.565289 
L 443.343215 286.756109 
L 444.600916 367.928698 
L 445.858617 343.626192 
L 447.116318 416.976501 
L 448.374019 305.374316 
L 449.63172 368.860707 
L 450.889421 347.741725 
L 452.147122 393.5516 
L 453.404823 302.985239 
L 454.662524 382.241126 
L 455.920225 352.551738 
L 457.177926 389.499481 
L 458.435627 269.463598 
L 459.693328 390.720478 
L 460.951029 370.19731 
L 462.20873 366.239006 
L 463.466431 232.068415 
L 464.724131 379.635541 
L 465.981832 351.963466 
L 467.239533 383.553131 
L 468.497234 336.253624 
L 469.754935 355.822964 
L 471.012636 360.123876 
L 472.270337 402.064151 
L 473.528038 302.639223 
L 474.785739 383.742498 
L 476.04344 346.158586 
L 477.301141 384.85478 
L 478.558842 337.389755 
L 479.816543 383.051828 
L 481.074244 352.183184 
L 482.331945 372.182065 
L 483.589646 241.275085 
L 484.847347 375.432614 
L 486.105048 353.520644 
L 487.362749 395.58673 
L 488.62045 264.951572 
L 489.878151 371.455459 
L 491.135852 339.194056 
L 492.393553 391.612001 
L 493.651254 294.899779 
L 494.908955 384.282023 
L 496.166656 346.111598 
L 497.424357 407.399042 
L 498.682058 289.108891 
L 499.939759 374.680986 
L 501.19746 374.686417 
L 502.455161 341.254794 
L 503.712862 235.410801 
L 504.970563 389.259754 
L 506.228264 377.287113 
L 507.485965 342.590048 
L 508.743666 201.558358 
L 510.001367 381.101572 
L 511.259068 348.684875 
L 512.516769 359.921184 
L 513.77447 234.878444 
L 515.032171 389.780655 
L 516.289872 370.13364 
L 517.547573 348.561039 
L 518.805273 195.77518 
L 520.062974 397.398792 
L 521.320675 348.415515 
L 522.578376 367.010987 
L 523.836077 196.756165 
L 525.093778 389.566661 
L 526.351479 333.520949 
L 527.60918 394.964611 
L 528.866881 242.143901 
L 530.124582 377.462489 
L 531.382283 329.931625 
L 532.639984 366.033946 
L 533.897685 183.125172 
L 535.155386 393.279514 
L 536.413087 376.15332 
L 537.670788 345.665683 
L 538.928489 212.360442 
L 540.18619 375.439093 
L 541.443891 334.218876 
L 542.701592 391.548382 
L 543.959293 263.04966 
L 545.216994 386.581932 
L 546.474695 366.581827 
L 547.732396 358.106051 
L 548.990097 185.702978 
L 550.247798 384.681903 
L 551.505499 354.627223 
L 552.7632 367.98701 
L 554.020901 198.714937 
L 555.278602 389.886586 
L 556.536303 344.526583 
L 557.794004 384.655261 
L 559.051705 181.820555 
L 560.309406 387.683571 
L 561.567107 355.262051 
L 562.824808 393.775313 
L 564.082509 219.915935 
L 565.34021 375.357371 
L 566.597911 349.69854 
L 567.855612 400.726702 
L 569.113313 251.119639 
L 570.371014 382.841469 
L 571.628715 383.032222 
L 572.886415 377.786232 
L 574.144116 173.596834 
L 575.401817 377.568434 
L 576.659518 377.95065 
L 577.917219 364.999729 
L 579.17492 137.450581 
L 580.432621 389.984051 
L 581.690322 372.854214 
L 582.948023 344.401553 
L 584.205724 175.235257 
L 585.463425 393.927938 
L 586.721126 377.679297 
L 587.978827 355.226885 
L 589.236528 202.135263 
L 590.494229 391.366769 
L 591.75193 350.972089 
L 593.009631 367.964274 
L 594.267332 219.758047 
L 595.525033 385.30241 
L 596.782734 345.213222 
L 598.040435 385.097622 
L 599.298136 173.226117 
L 600.555837 384.703635 
L 601.813538 365.608318 
L 603.071239 368.846217 
L 604.32894 192.581272 
L 605.586641 392.57173 
L 606.844342 359.58386 
L 608.102043 394.198507 
L 609.359744 226.466931 
L 610.617445 379.551584 
L 611.875146 356.356618 
L 613.132847 373.129173 
L 614.390548 179.350372 
L 615.648249 381.416204 
L 616.90595 365.336951 
L 618.163651 356.201229 
L 619.421352 145.56099 
L 620.679053 385.847623 
L 621.936754 350.426861 
L 623.194455 388.044496 
L 624.452156 214.071455 
L 625.709857 377.445243 
L 626.967557 347.512207 
L 628.225258 398.590926 
L 629.482959 183.425351 
L 630.74066 380.644487 
L 631.998361 350.939415 
L 633.256062 393.316791 
L 634.513763 259.414791 
L 635.771464 394.041872 
L 637.029165 362.763271 
L 638.286866 407.527331 
L 639.544567 271.2371 
L 640.802268 392.430069 
L 642.059969 360.655405 
L 643.31767 418.314665 
L 644.575371 269.715521 
L 645.833072 375.152077 
L 647.090773 361.754076 
L 648.348474 421.05096 
L 649.606175 284.546278 
L 650.863876 380.927721 
L 652.121577 365.34804 
L 653.379278 398.443666 
L 654.636979 271.025195 
L 655.89468 388.754061 
L 657.152381 348.067102 
L 658.410082 388.173917 
L 659.667783 258.383308 
L 660.925484 399.374327 
L 662.183185 353.904583 
L 663.440886 409.852001 
L 664.698587 269.759717 
L 665.956288 400.409819 
L 667.213989 354.100385 
L 668.47169 412.114812 
L 669.729391 277.20206 
L 670.987092 393.689765 
L 672.244793 368.361083 
L 673.502494 407.128367 
L 674.760195 304.722183 
L 676.017896 387.438127 
L 677.275597 373.814911 
L 678.533298 390.532555 
L 679.790999 267.319921 
L 681.048699 387.088636 
L 682.3064 356.850518 
L 683.564101 399.325975 
L 684.821802 224.416894 
L 686.079503 379.388873 
L 687.337204 375.626196 
L 688.594905 384.269637 
L 689.852606 191.962766 
L 691.110307 377.148772 
L 692.368008 389.510211 
L 693.625709 355.78996 
L 694.88341 172.108163 
L 696.141111 394.257479 
L 697.398812 376.08353 
L 698.656513 372.194385 
L 699.914214 217.092406 
L 701.171915 394.464253 
L 702.429616 358.660579 
L 703.687317 379.268313 
L 704.945018 233.434921 
L 706.202719 387.696742 
L 707.46042 346.326164 
L 708.718121 383.317098 
L 709.975822 212.992112 
L 711.233523 374.323902 
L 712.491224 359.317256 
L 713.748925 379.248759 
L 715.006626 157.944095 
L 716.264327 375.960236 
L 717.522028 384.502372 
L 718.779729 351.602571 
L 720.03743 139.968873 
L 721.295131 391.266402 
L 722.552832 381.409762 
L 723.810533 358.350857 
L 725.068234 202.438726 
L 726.325935 385.944186 
L 727.583636 344.422199 
L 728.841337 400.400503 
L 730.099038 217.080958 
L 731.356739 372.464485 
L 732.61444 368.595767 
L 733.872141 388.278345 
L 735.129841 207.280028 
L 736.387542 373.635372 
L 737.645243 376.892818 
L 738.902944 378.153393 
L 740.160645 207.129044 
L 741.418346 382.354166 
L 741.418346 382.354166 
" clip-path="url(#p7477be3323)" style="fill: none; stroke-dasharray: 7.4,3.2; stroke-dashoffset: 0; stroke: #ffa500; stroke-width: 2"/>
   </g>
   <g id="patch_3">
    <path d="M 102.25471 450.72 
L 102.25471 7.2 
" style="fill: none; stroke: #000000; stroke-width: 0.8; stroke-linejoin: miter; stroke-linecap: square"/>
   </g>
   <g id="patch_4">
    <path d="M 771.85471 450.72 
L 771.85471 7.2 
" style="fill: none; stroke: #000000; stroke-width: 0.8; stroke-linejoin: miter; stroke-linecap: square"/>
   </g>
   <g id="patch_5">
    <path d="M 102.25471 450.72 
L 771.85471 450.72 
" style="fill: none; stroke: #000000; stroke-width: 0.8; stroke-linejoin: miter; stroke-linecap: square"/>
   </g>
   <g id="patch_6">
    <path d="M 102.25471 7.2 
L 771.85471 7.2 
" style="fill: none; stroke: #000000; stroke-width: 0.8; stroke-linejoin: miter; stroke-linecap: square"/>
   </g>
   <g id="legend_1">
    <g id="text_16">
     <!-- Forecast Horizon -->
     <g transform="translate(887.954554 31.9575) scale(0.16 -0.16)">
      <defs>
       <path id="DejaVuSans-48" d="M 628 4666 
L 1259 4666 
L 1259 2753 
L 3553 2753 
L 3553 4666 
L 4184 4666 
L 4184 0 
L 3553 0 
L 3553 2222 
L 1259 2222 
L 1259 0 
L 628 0 
L 628 4666 
z
" transform="scale(0.015625)"/>
       <path id="DejaVuSans-69" d="M 603 3500 
L 1178 3500 
L 1178 0 
L 603 0 
L 603 3500 
z
M 603 4863 
L 1178 4863 
L 1178 4134 
L 603 4134 
L 603 4863 
z
" transform="scale(0.015625)"/>
       <path id="DejaVuSans-7a" d="M 353 3500 
L 3084 3500 
L 3084 2975 
L 922 459 
L 3084 459 
L 3084 0 
L 275 0 
L 275 525 
L 2438 3041 
L 353 3041 
L 353 3500 
z
" transform="scale(0.015625)"/>
      </defs>
      <use xlink:href="#DejaVuSans-46"/>
      <use xlink:href="#DejaVuSans-6f" transform="translate(53.894531 0)"/>
      <use xlink:href="#DejaVuSans-72" transform="translate(115.076172 0)"/>
      <use xlink:href="#DejaVuSans-65" transform="translate(153.939453 0)"/>
      <use xlink:href="#DejaVuSans-63" transform="translate(215.462891 0)"/>
      <use xlink:href="#DejaVuSans-61" transform="translate(270.443359 0)"/>
      <use xlink:href="#DejaVuSans-73" transform="translate(331.722656 0)"/>
      <use xlink:href="#DejaVuSans-74" transform="translate(383.822266 0)"/>
      <use xlink:href="#DejaVuSans-20" transform="translate(423.03125 0)"/>
      <use xlink:href="#DejaVuSans-48" transform="translate(454.818359 0)"/>
      <use xlink:href="#DejaVuSans-6f" transform="translate(530.013672 0)"/>
      <use xlink:href="#DejaVuSans-72" transform="translate(591.195312 0)"/>
      <use xlink:href="#DejaVuSans-69" transform="translate(632.308594 0)"/>
      <use xlink:href="#DejaVuSans-7a" transform="translate(660.091797 0)"/>
      <use xlink:href="#DejaVuSans-6f" transform="translate(712.582031 0)"/>
      <use xlink:href="#DejaVuSans-6e" transform="translate(773.763672 0)"/>
     </g>
    </g>
    <g id="line2d_18">
     <path d="M 817.93471 48.022812 
L 831.93471 48.022812 
L 845.93471 48.022812 
" style="fill: none; stroke: #0000ff; stroke-width: 2; stroke-linecap: square"/>
    </g>
    <g id="text_17">
     <!-- USA RMSE (6h Forecast) -->
     <g transform="translate(857.13471 52.922812) scale(0.14 -0.14)">
      <defs>
       <path id="DejaVuSans-55" d="M 556 4666 
L 1191 4666 
L 1191 1831 
Q 1191 1081 1462 751 
Q 1734 422 2344 422 
Q 2950 422 3222 751 
Q 3494 1081 3494 1831 
L 3494 4666 
L 4128 4666 
L 4128 1753 
Q 4128 841 3676 375 
Q 3225 -91 2344 -91 
Q 1459 -91 1007 375 
Q 556 841 556 1753 
L 556 4666 
z
" transform="scale(0.015625)"/>
       <path id="DejaVuSans-41" d="M 2188 4044 
L 1331 1722 
L 3047 1722 
L 2188 4044 
z
M 1831 4666 
L 2547 4666 
L 4325 0 
L 3669 0 
L 3244 1197 
L 1141 1197 
L 716 0 
L 50 0 
L 1831 4666 
z
" transform="scale(0.015625)"/>
       <path id="DejaVuSans-68" d="M 3513 2113 
L 3513 0 
L 2938 0 
L 2938 2094 
Q 2938 2591 2744 2837 
Q 2550 3084 2163 3084 
Q 1697 3084 1428 2787 
Q 1159 2491 1159 1978 
L 1159 0 
L 581 0 
L 581 4863 
L 1159 4863 
L 1159 2956 
Q 1366 3272 1645 3428 
Q 1925 3584 2291 3584 
Q 2894 3584 3203 3211 
Q 3513 2838 3513 2113 
z
" transform="scale(0.015625)"/>
      </defs>
      <use xlink:href="#DejaVuSans-55"/>
      <use xlink:href="#DejaVuSans-53" transform="translate(73.193359 0)"/>
      <use xlink:href="#DejaVuSans-41" transform="translate(138.544922 0)"/>
      <use xlink:href="#DejaVuSans-20" transform="translate(206.953125 0)"/>
      <use xlink:href="#DejaVuSans-52" transform="translate(238.740234 0)"/>
      <use xlink:href="#DejaVuSans-4d" transform="translate(308.222656 0)"/>
      <use xlink:href="#DejaVuSans-53" transform="translate(394.501953 0)"/>
      <use xlink:href="#DejaVuSans-45" transform="translate(457.978516 0)"/>
      <use xlink:href="#DejaVuSans-20" transform="translate(521.162109 0)"/>
      <use xlink:href="#DejaVuSans-28" transform="translate(552.949219 0)"/>
      <use xlink:href="#DejaVuSans-36" transform="translate(591.962891 0)"/>
      <use xlink:href="#DejaVuSans-68" transform="translate(655.585938 0)"/>
      <use xlink:href="#DejaVuSans-20" transform="translate(718.964844 0)"/>
      <use xlink:href="#DejaVuSans-46" transform="translate(750.751953 0)"/>
      <use xlink:href="#DejaVuSans-6f" transform="translate(804.646484 0)"/>
      <use xlink:href="#DejaVuSans-72" transform="translate(865.828125 0)"/>
      <use xlink:href="#DejaVuSans-65" transform="translate(904.691406 0)"/>
      <use xlink:href="#DejaVuSans-63" transform="translate(966.214844 0)"/>
      <use xlink:href="#DejaVuSans-61" transform="translate(1021.195312 0)"/>
      <use xlink:href="#DejaVuSans-73" transform="translate(1082.474609 0)"/>
      <use xlink:href="#DejaVuSans-74" transform="translate(1134.574219 0)"/>
      <use xlink:href="#DejaVuSans-29" transform="translate(1173.783203 0)"/>
     </g>
    </g>
    <g id="line2d_19">
     <path d="M 817.93471 68.572187 
L 831.93471 68.572187 
L 845.93471 68.572187 
" style="fill: none; stroke: #ffa500; stroke-width: 2; stroke-linecap: square"/>
    </g>
    <g id="text_18">
     <!-- South Africa RMSE (6h Forecast) -->
     <g transform="translate(857.13471 73.472187) scale(0.14 -0.14)">
      <defs>
       <path id="DejaVuSans-66" d="M 2375 4863 
L 2375 4384 
L 1825 4384 
Q 1516 4384 1395 4259 
Q 1275 4134 1275 3809 
L 1275 3500 
L 2222 3500 
L 2222 3053 
L 1275 3053 
L 1275 0 
L 697 0 
L 697 3053 
L 147 3053 
L 147 3500 
L 697 3500 
L 697 3744 
Q 697 4328 969 4595 
Q 1241 4863 1831 4863 
L 2375 4863 
z
" transform="scale(0.015625)"/>
      </defs>
      <use xlink:href="#DejaVuSans-53"/>
      <use xlink:href="#DejaVuSans-6f" transform="translate(63.476562 0)"/>
      <use xlink:href="#DejaVuSans-75" transform="translate(124.658203 0)"/>
      <use xlink:href="#DejaVuSans-74" transform="translate(188.037109 0)"/>
      <use xlink:href="#DejaVuSans-68" transform="translate(227.246094 0)"/>
      <use xlink:href="#DejaVuSans-20" transform="translate(290.625 0)"/>
      <use xlink:href="#DejaVuSans-41" transform="translate(322.412109 0)"/>
      <use xlink:href="#DejaVuSans-66" transform="translate(387.195312 0)"/>
      <use xlink:href="#DejaVuSans-72" transform="translate(422.400391 0)"/>
      <use xlink:href="#DejaVuSans-69" transform="translate(463.513672 0)"/>
      <use xlink:href="#DejaVuSans-63" transform="translate(491.296875 0)"/>
      <use xlink:href="#DejaVuSans-61" transform="translate(546.277344 0)"/>
      <use xlink:href="#DejaVuSans-20" transform="translate(607.556641 0)"/>
      <use xlink:href="#DejaVuSans-52" transform="translate(639.34375 0)"/>
      <use xlink:href="#DejaVuSans-4d" transform="translate(708.826172 0)"/>
      <use xlink:href="#DejaVuSans-53" transform="translate(795.105469 0)"/>
      <use xlink:href="#DejaVuSans-45" transform="translate(858.582031 0)"/>
      <use xlink:href="#DejaVuSans-20" transform="translate(921.765625 0)"/>
      <use xlink:href="#DejaVuSans-28" transform="translate(953.552734 0)"/>
      <use xlink:href="#DejaVuSans-36" transform="translate(992.566406 0)"/>
      <use xlink:href="#DejaVuSans-68" transform="translate(1056.189453 0)"/>
      <use xlink:href="#DejaVuSans-20" transform="translate(1119.568359 0)"/>
      <use xlink:href="#DejaVuSans-46" transform="translate(1151.355469 0)"/>
      <use xlink:href="#DejaVuSans-6f" transform="translate(1205.25 0)"/>
      <use xlink:href="#DejaVuSans-72" transform="translate(1266.431641 0)"/>
      <use xlink:href="#DejaVuSans-65" transform="translate(1305.294922 0)"/>
      <use xlink:href="#DejaVuSans-63" transform="translate(1366.818359 0)"/>
      <use xlink:href="#DejaVuSans-61" transform="translate(1421.798828 0)"/>
      <use xlink:href="#DejaVuSans-73" transform="translate(1483.078125 0)"/>
      <use xlink:href="#DejaVuSans-74" transform="translate(1535.177734 0)"/>
      <use xlink:href="#DejaVuSans-29" transform="translate(1574.386719 0)"/>
     </g>
    </g>
    <g id="line2d_20">
     <path d="M 817.93471 89.121562 
L 831.93471 89.121562 
L 845.93471 89.121562 
" style="fill: none; stroke-dasharray: 7.4,3.2; stroke-dashoffset: 0; stroke: #0000ff; stroke-width: 2"/>
    </g>
    <g id="text_19">
     <!-- USA RMSE (12h Forecast) -->
     <g transform="translate(857.13471 94.021562) scale(0.14 -0.14)">
      <use xlink:href="#DejaVuSans-55"/>
      <use xlink:href="#DejaVuSans-53" transform="translate(73.193359 0)"/>
      <use xlink:href="#DejaVuSans-41" transform="translate(138.544922 0)"/>
      <use xlink:href="#DejaVuSans-20" transform="translate(206.953125 0)"/>
      <use xlink:href="#DejaVuSans-52" transform="translate(238.740234 0)"/>
      <use xlink:href="#DejaVuSans-4d" transform="translate(308.222656 0)"/>
      <use xlink:href="#DejaVuSans-53" transform="translate(394.501953 0)"/>
      <use xlink:href="#DejaVuSans-45" transform="translate(457.978516 0)"/>
      <use xlink:href="#DejaVuSans-20" transform="translate(521.162109 0)"/>
      <use xlink:href="#DejaVuSans-28" transform="translate(552.949219 0)"/>
      <use xlink:href="#DejaVuSans-31" transform="translate(591.962891 0)"/>
      <use xlink:href="#DejaVuSans-32" transform="translate(655.585938 0)"/>
      <use xlink:href="#DejaVuSans-68" transform="translate(719.208984 0)"/>
      <use xlink:href="#DejaVuSans-20" transform="translate(782.587891 0)"/>
      <use xlink:href="#DejaVuSans-46" transform="translate(814.375 0)"/>
      <use xlink:href="#DejaVuSans-6f" transform="translate(868.269531 0)"/>
      <use xlink:href="#DejaVuSans-72" transform="translate(929.451172 0)"/>
      <use xlink:href="#DejaVuSans-65" transform="translate(968.314453 0)"/>
      <use xlink:href="#DejaVuSans-63" transform="translate(1029.837891 0)"/>
      <use xlink:href="#DejaVuSans-61" transform="translate(1084.818359 0)"/>
      <use xlink:href="#DejaVuSans-73" transform="translate(1146.097656 0)"/>
      <use xlink:href="#DejaVuSans-74" transform="translate(1198.197266 0)"/>
      <use xlink:href="#DejaVuSans-29" transform="translate(1237.40625 0)"/>
     </g>
    </g>
    <g id="line2d_21">
     <path d="M 817.93471 109.670937 
L 831.93471 109.670937 
L 845.93471 109.670937 
" style="fill: none; stroke-dasharray: 7.4,3.2; stroke-dashoffset: 0; stroke: #ffa500; stroke-width: 2"/>
    </g>
    <g id="text_20">
     <!-- South Africa RMSE (12h Forecast) -->
     <g transform="translate(857.13471 114.570937) scale(0.14 -0.14)">
      <use xlink:href="#DejaVuSans-53"/>
      <use xlink:href="#DejaVuSans-6f" transform="translate(63.476562 0)"/>
      <use xlink:href="#DejaVuSans-75" transform="translate(124.658203 0)"/>
      <use xlink:href="#DejaVuSans-74" transform="translate(188.037109 0)"/>
      <use xlink:href="#DejaVuSans-68" transform="translate(227.246094 0)"/>
      <use xlink:href="#DejaVuSans-20" transform="translate(290.625 0)"/>
      <use xlink:href="#DejaVuSans-41" transform="translate(322.412109 0)"/>
      <use xlink:href="#DejaVuSans-66" transform="translate(387.195312 0)"/>
      <use xlink:href="#DejaVuSans-72" transform="translate(422.400391 0)"/>
      <use xlink:href="#DejaVuSans-69" transform="translate(463.513672 0)"/>
      <use xlink:href="#DejaVuSans-63" transform="translate(491.296875 0)"/>
      <use xlink:href="#DejaVuSans-61" transform="translate(546.277344 0)"/>
      <use xlink:href="#DejaVuSans-20" transform="translate(607.556641 0)"/>
      <use xlink:href="#DejaVuSans-52" transform="translate(639.34375 0)"/>
      <use xlink:href="#DejaVuSans-4d" transform="translate(708.826172 0)"/>
      <use xlink:href="#DejaVuSans-53" transform="translate(795.105469 0)"/>
      <use xlink:href="#DejaVuSans-45" transform="translate(858.582031 0)"/>
      <use xlink:href="#DejaVuSans-20" transform="translate(921.765625 0)"/>
      <use xlink:href="#DejaVuSans-28" transform="translate(953.552734 0)"/>
      <use xlink:href="#DejaVuSans-31" transform="translate(992.566406 0)"/>
      <use xlink:href="#DejaVuSans-32" transform="translate(1056.189453 0)"/>
      <use xlink:href="#DejaVuSans-68" transform="translate(1119.8125 0)"/>
      <use xlink:href="#DejaVuSans-20" transform="translate(1183.191406 0)"/>
      <use xlink:href="#DejaVuSans-46" transform="translate(1214.978516 0)"/>
      <use xlink:href="#DejaVuSans-6f" transform="translate(1268.873047 0)"/>
      <use xlink:href="#DejaVuSans-72" transform="translate(1330.054688 0)"/>
      <use xlink:href="#DejaVuSans-65" transform="translate(1368.917969 0)"/>
      <use xlink:href="#DejaVuSans-63" transform="translate(1430.441406 0)"/>
      <use xlink:href="#DejaVuSans-61" transform="translate(1485.421875 0)"/>
      <use xlink:href="#DejaVuSans-73" transform="translate(1546.701172 0)"/>
      <use xlink:href="#DejaVuSans-74" transform="translate(1598.800781 0)"/>
      <use xlink:href="#DejaVuSans-29" transform="translate(1638.009766 0)"/>
     </g>
    </g>
   </g>
  </g>
 </g>
 <defs>
  <clipPath id="p7477be3323">
   <rect x="102.25471" y="7.2" width="669.6" height="443.52"/>
  </clipPath>
 </defs>
</svg>
