<?xml version="1.0" encoding="utf-8" standalone="no"?>
<!DOCTYPE svg PUBLIC "-//W3C//DTD SVG 1.1//EN"
  "http://www.w3.org/Graphics/SVG/1.1/DTD/svg11.dtd">
<svg xmlns:xlink="http://www.w3.org/1999/xlink" width="1104.716898pt" height="566.913419pt" viewBox="0 0 1104.716898 566.913419" xmlns="http://www.w3.org/2000/svg" version="1.1">
 <metadata>
  <rdf:RDF xmlns:dc="http://purl.org/dc/elements/1.1/" xmlns:cc="http://creativecommons.org/ns#" xmlns:rdf="http://www.w3.org/1999/02/22-rdf-syntax-ns#">
   <cc:Work>
    <dc:type rdf:resource="http://purl.org/dc/dcmitype/StillImage"/>
    <dc:date>2025-05-10T21:06:42.592717</dc:date>
    <dc:format>image/svg+xml</dc:format>
    <dc:creator>
     <cc:Agent>
      <dc:title>Matplotlib v3.10.0, https://matplotlib.org/</dc:title>
     </cc:Agent>
    </dc:creator>
   </cc:Work>
  </rdf:RDF>
 </metadata>
 <defs>
  <style type="text/css">*{stroke-linejoin: round; stroke-linecap: butt}</style>
 </defs>
 <g id="figure_1">
  <g id="patch_1">
   <path d="M 0 566.913419 
L 1104.716898 566.913419 
L 1104.716898 0 
L 0 0 
z
" style="fill: #ffffff"/>
  </g>
  <g id="axes_1">
   <g id="patch_2">
    <path d="M 102.25471 452.953378 
L 771.85471 452.953378 
L 771.85471 9.433378 
L 102.25471 9.433378 
z
" style="fill: #ffffff"/>
   </g>
   <g id="matplotlib.axis_1">
    <g id="xtick_1">
     <g id="line2d_1">
      <defs>
       <path id="m6eae5788a8" d="M 0 0 
L 0 3.5 
" style="stroke: #000000; stroke-width: 0.8"/>
      </defs>
      <g>
       <use xlink:href="#m6eae5788a8" x="132.691074" y="452.953378" style="stroke: #000000; stroke-width: 0.8"/>
      </g>
     </g>
     <g id="text_1">
      <!-- 2022-09-01 (18:00) -->
      <g transform="translate(12.518906 537.706932) rotate(-30) scale(0.14 -0.14)">
       <defs>
        <path id="DejaVuSans-32" d="M 1228 531 
L 3431 531 
L 3431 0 
L 469 0 
L 469 531 
Q 828 903 1448 1529 
Q 2069 2156 2228 2338 
Q 2531 2678 2651 2914 
Q 2772 3150 2772 3378 
Q 2772 3750 2511 3984 
Q 2250 4219 1831 4219 
Q 1534 4219 1204 4116 
Q 875 4013 500 3803 
L 500 4441 
Q 881 4594 1212 4672 
Q 1544 4750 1819 4750 
Q 2544 4750 2975 4387 
Q 3406 4025 3406 3419 
Q 3406 3131 3298 2873 
Q 3191 2616 2906 2266 
Q 2828 2175 2409 1742 
Q 1991 1309 1228 531 
z
" transform="scale(0.015625)"/>
        <path id="DejaVuSans-30" d="M 2034 4250 
Q 1547 4250 1301 3770 
Q 1056 3291 1056 2328 
Q 1056 1369 1301 889 
Q 1547 409 2034 409 
Q 2525 409 2770 889 
Q 3016 1369 3016 2328 
Q 3016 3291 2770 3770 
Q 2525 4250 2034 4250 
z
M 2034 4750 
Q 2819 4750 3233 4129 
Q 3647 3509 3647 2328 
Q 3647 1150 3233 529 
Q 2819 -91 2034 -91 
Q 1250 -91 836 529 
Q 422 1150 422 2328 
Q 422 3509 836 4129 
Q 1250 4750 2034 4750 
z
" transform="scale(0.015625)"/>
        <path id="DejaVuSans-2d" d="M 313 2009 
L 1997 2009 
L 1997 1497 
L 313 1497 
L 313 2009 
z
" transform="scale(0.015625)"/>
        <path id="DejaVuSans-39" d="M 703 97 
L 703 672 
Q 941 559 1184 500 
Q 1428 441 1663 441 
Q 2288 441 2617 861 
Q 2947 1281 2994 2138 
Q 2813 1869 2534 1725 
Q 2256 1581 1919 1581 
Q 1219 1581 811 2004 
Q 403 2428 403 3163 
Q 403 3881 828 4315 
Q 1253 4750 1959 4750 
Q 2769 4750 3195 4129 
Q 3622 3509 3622 2328 
Q 3622 1225 3098 567 
Q 2575 -91 1691 -91 
Q 1453 -91 1209 -44 
Q 966 3 703 97 
z
M 1959 2075 
Q 2384 2075 2632 2365 
Q 2881 2656 2881 3163 
Q 2881 3666 2632 3958 
Q 2384 4250 1959 4250 
Q 1534 4250 1286 3958 
Q 1038 3666 1038 3163 
Q 1038 2656 1286 2365 
Q 1534 2075 1959 2075 
z
" transform="scale(0.015625)"/>
        <path id="DejaVuSans-31" d="M 794 531 
L 1825 531 
L 1825 4091 
L 703 3866 
L 703 4441 
L 1819 4666 
L 2450 4666 
L 2450 531 
L 3481 531 
L 3481 0 
L 794 0 
L 794 531 
z
" transform="scale(0.015625)"/>
        <path id="DejaVuSans-20" transform="scale(0.015625)"/>
        <path id="DejaVuSans-28" d="M 1984 4856 
Q 1566 4138 1362 3434 
Q 1159 2731 1159 2009 
Q 1159 1288 1364 580 
Q 1569 -128 1984 -844 
L 1484 -844 
Q 1016 -109 783 600 
Q 550 1309 550 2009 
Q 550 2706 781 3412 
Q 1013 4119 1484 4856 
L 1984 4856 
z
" transform="scale(0.015625)"/>
        <path id="DejaVuSans-38" d="M 2034 2216 
Q 1584 2216 1326 1975 
Q 1069 1734 1069 1313 
Q 1069 891 1326 650 
Q 1584 409 2034 409 
Q 2484 409 2743 651 
Q 3003 894 3003 1313 
Q 3003 1734 2745 1975 
Q 2488 2216 2034 2216 
z
M 1403 2484 
Q 997 2584 770 2862 
Q 544 3141 544 3541 
Q 544 4100 942 4425 
Q 1341 4750 2034 4750 
Q 2731 4750 3128 4425 
Q 3525 4100 3525 3541 
Q 3525 3141 3298 2862 
Q 3072 2584 2669 2484 
Q 3125 2378 3379 2068 
Q 3634 1759 3634 1313 
Q 3634 634 3220 271 
Q 2806 -91 2034 -91 
Q 1263 -91 848 271 
Q 434 634 434 1313 
Q 434 1759 690 2068 
Q 947 2378 1403 2484 
z
M 1172 3481 
Q 1172 3119 1398 2916 
Q 1625 2713 2034 2713 
Q 2441 2713 2670 2916 
Q 2900 3119 2900 3481 
Q 2900 3844 2670 4047 
Q 2441 4250 2034 4250 
Q 1625 4250 1398 4047 
Q 1172 3844 1172 3481 
z
" transform="scale(0.015625)"/>
        <path id="DejaVuSans-3a" d="M 750 794 
L 1409 794 
L 1409 0 
L 750 0 
L 750 794 
z
M 750 3309 
L 1409 3309 
L 1409 2516 
L 750 2516 
L 750 3309 
z
" transform="scale(0.015625)"/>
        <path id="DejaVuSans-29" d="M 513 4856 
L 1013 4856 
Q 1481 4119 1714 3412 
Q 1947 2706 1947 2009 
Q 1947 1309 1714 600 
Q 1481 -109 1013 -844 
L 513 -844 
Q 928 -128 1133 580 
Q 1338 1288 1338 2009 
Q 1338 2731 1133 3434 
Q 928 4138 513 4856 
z
" transform="scale(0.015625)"/>
       </defs>
       <use xlink:href="#DejaVuSans-32"/>
       <use xlink:href="#DejaVuSans-30" transform="translate(63.623047 0)"/>
       <use xlink:href="#DejaVuSans-32" transform="translate(127.246094 0)"/>
       <use xlink:href="#DejaVuSans-32" transform="translate(190.869141 0)"/>
       <use xlink:href="#DejaVuSans-2d" transform="translate(254.492188 0)"/>
       <use xlink:href="#DejaVuSans-30" transform="translate(290.576172 0)"/>
       <use xlink:href="#DejaVuSans-39" transform="translate(354.199219 0)"/>
       <use xlink:href="#DejaVuSans-2d" transform="translate(417.822266 0)"/>
       <use xlink:href="#DejaVuSans-30" transform="translate(453.90625 0)"/>
       <use xlink:href="#DejaVuSans-31" transform="translate(517.529297 0)"/>
       <use xlink:href="#DejaVuSans-20" transform="translate(581.152344 0)"/>
       <use xlink:href="#DejaVuSans-28" transform="translate(612.939453 0)"/>
       <use xlink:href="#DejaVuSans-31" transform="translate(651.953125 0)"/>
       <use xlink:href="#DejaVuSans-38" transform="translate(715.576172 0)"/>
       <use xlink:href="#DejaVuSans-3a" transform="translate(779.199219 0)"/>
       <use xlink:href="#DejaVuSans-30" transform="translate(812.890625 0)"/>
       <use xlink:href="#DejaVuSans-30" transform="translate(876.513672 0)"/>
       <use xlink:href="#DejaVuSans-29" transform="translate(940.136719 0)"/>
      </g>
     </g>
    </g>
    <g id="xtick_2">
     <g id="line2d_2">
      <g>
       <use xlink:href="#m6eae5788a8" x="253.430367" y="452.953378" style="stroke: #000000; stroke-width: 0.8"/>
      </g>
     </g>
     <g id="text_2">
      <!-- 2022-09-25 (18:00) -->
      <g transform="translate(133.2582 537.706932) rotate(-30) scale(0.14 -0.14)">
       <defs>
        <path id="DejaVuSans-35" d="M 691 4666 
L 3169 4666 
L 3169 4134 
L 1269 4134 
L 1269 2991 
Q 1406 3038 1543 3061 
Q 1681 3084 1819 3084 
Q 2600 3084 3056 2656 
Q 3513 2228 3513 1497 
Q 3513 744 3044 326 
Q 2575 -91 1722 -91 
Q 1428 -91 1123 -41 
Q 819 9 494 109 
L 494 744 
Q 775 591 1075 516 
Q 1375 441 1709 441 
Q 2250 441 2565 725 
Q 2881 1009 2881 1497 
Q 2881 1984 2565 2268 
Q 2250 2553 1709 2553 
Q 1456 2553 1204 2497 
Q 953 2441 691 2322 
L 691 4666 
z
" transform="scale(0.015625)"/>
       </defs>
       <use xlink:href="#DejaVuSans-32"/>
       <use xlink:href="#DejaVuSans-30" transform="translate(63.623047 0)"/>
       <use xlink:href="#DejaVuSans-32" transform="translate(127.246094 0)"/>
       <use xlink:href="#DejaVuSans-32" transform="translate(190.869141 0)"/>
       <use xlink:href="#DejaVuSans-2d" transform="translate(254.492188 0)"/>
       <use xlink:href="#DejaVuSans-30" transform="translate(290.576172 0)"/>
       <use xlink:href="#DejaVuSans-39" transform="translate(354.199219 0)"/>
       <use xlink:href="#DejaVuSans-2d" transform="translate(417.822266 0)"/>
       <use xlink:href="#DejaVuSans-32" transform="translate(453.90625 0)"/>
       <use xlink:href="#DejaVuSans-35" transform="translate(517.529297 0)"/>
       <use xlink:href="#DejaVuSans-20" transform="translate(581.152344 0)"/>
       <use xlink:href="#DejaVuSans-28" transform="translate(612.939453 0)"/>
       <use xlink:href="#DejaVuSans-31" transform="translate(651.953125 0)"/>
       <use xlink:href="#DejaVuSans-38" transform="translate(715.576172 0)"/>
       <use xlink:href="#DejaVuSans-3a" transform="translate(779.199219 0)"/>
       <use xlink:href="#DejaVuSans-30" transform="translate(812.890625 0)"/>
       <use xlink:href="#DejaVuSans-30" transform="translate(876.513672 0)"/>
       <use xlink:href="#DejaVuSans-29" transform="translate(940.136719 0)"/>
      </g>
     </g>
    </g>
    <g id="xtick_3">
     <g id="line2d_3">
      <g>
       <use xlink:href="#m6eae5788a8" x="375.427362" y="452.953378" style="stroke: #000000; stroke-width: 0.8"/>
      </g>
     </g>
     <g id="text_3">
      <!-- 2022-10-20 (00:00) -->
      <g transform="translate(255.255195 537.706932) rotate(-30) scale(0.14 -0.14)">
       <use xlink:href="#DejaVuSans-32"/>
       <use xlink:href="#DejaVuSans-30" transform="translate(63.623047 0)"/>
       <use xlink:href="#DejaVuSans-32" transform="translate(127.246094 0)"/>
       <use xlink:href="#DejaVuSans-32" transform="translate(190.869141 0)"/>
       <use xlink:href="#DejaVuSans-2d" transform="translate(254.492188 0)"/>
       <use xlink:href="#DejaVuSans-31" transform="translate(290.576172 0)"/>
       <use xlink:href="#DejaVuSans-30" transform="translate(354.199219 0)"/>
       <use xlink:href="#DejaVuSans-2d" transform="translate(417.822266 0)"/>
       <use xlink:href="#DejaVuSans-32" transform="translate(453.90625 0)"/>
       <use xlink:href="#DejaVuSans-30" transform="translate(517.529297 0)"/>
       <use xlink:href="#DejaVuSans-20" transform="translate(581.152344 0)"/>
       <use xlink:href="#DejaVuSans-28" transform="translate(612.939453 0)"/>
       <use xlink:href="#DejaVuSans-30" transform="translate(651.953125 0)"/>
       <use xlink:href="#DejaVuSans-30" transform="translate(715.576172 0)"/>
       <use xlink:href="#DejaVuSans-3a" transform="translate(779.199219 0)"/>
       <use xlink:href="#DejaVuSans-30" transform="translate(812.890625 0)"/>
       <use xlink:href="#DejaVuSans-30" transform="translate(876.513672 0)"/>
       <use xlink:href="#DejaVuSans-29" transform="translate(940.136719 0)"/>
      </g>
     </g>
    </g>
    <g id="xtick_4">
     <g id="line2d_4">
      <g>
       <use xlink:href="#m6eae5788a8" x="497.424357" y="452.953378" style="stroke: #000000; stroke-width: 0.8"/>
      </g>
     </g>
     <g id="text_4">
      <!-- 2022-11-13 (06:00) -->
      <g transform="translate(377.252189 537.706932) rotate(-30) scale(0.14 -0.14)">
       <defs>
        <path id="DejaVuSans-33" d="M 2597 2516 
Q 3050 2419 3304 2112 
Q 3559 1806 3559 1356 
Q 3559 666 3084 287 
Q 2609 -91 1734 -91 
Q 1441 -91 1130 -33 
Q 819 25 488 141 
L 488 750 
Q 750 597 1062 519 
Q 1375 441 1716 441 
Q 2309 441 2620 675 
Q 2931 909 2931 1356 
Q 2931 1769 2642 2001 
Q 2353 2234 1838 2234 
L 1294 2234 
L 1294 2753 
L 1863 2753 
Q 2328 2753 2575 2939 
Q 2822 3125 2822 3475 
Q 2822 3834 2567 4026 
Q 2313 4219 1838 4219 
Q 1578 4219 1281 4162 
Q 984 4106 628 3988 
L 628 4550 
Q 988 4650 1302 4700 
Q 1616 4750 1894 4750 
Q 2613 4750 3031 4423 
Q 3450 4097 3450 3541 
Q 3450 3153 3228 2886 
Q 3006 2619 2597 2516 
z
" transform="scale(0.015625)"/>
        <path id="DejaVuSans-36" d="M 2113 2584 
Q 1688 2584 1439 2293 
Q 1191 2003 1191 1497 
Q 1191 994 1439 701 
Q 1688 409 2113 409 
Q 2538 409 2786 701 
Q 3034 994 3034 1497 
Q 3034 2003 2786 2293 
Q 2538 2584 2113 2584 
z
M 3366 4563 
L 3366 3988 
Q 3128 4100 2886 4159 
Q 2644 4219 2406 4219 
Q 1781 4219 1451 3797 
Q 1122 3375 1075 2522 
Q 1259 2794 1537 2939 
Q 1816 3084 2150 3084 
Q 2853 3084 3261 2657 
Q 3669 2231 3669 1497 
Q 3669 778 3244 343 
Q 2819 -91 2113 -91 
Q 1303 -91 875 529 
Q 447 1150 447 2328 
Q 447 3434 972 4092 
Q 1497 4750 2381 4750 
Q 2619 4750 2861 4703 
Q 3103 4656 3366 4563 
z
" transform="scale(0.015625)"/>
       </defs>
       <use xlink:href="#DejaVuSans-32"/>
       <use xlink:href="#DejaVuSans-30" transform="translate(63.623047 0)"/>
       <use xlink:href="#DejaVuSans-32" transform="translate(127.246094 0)"/>
       <use xlink:href="#DejaVuSans-32" transform="translate(190.869141 0)"/>
       <use xlink:href="#DejaVuSans-2d" transform="translate(254.492188 0)"/>
       <use xlink:href="#DejaVuSans-31" transform="translate(290.576172 0)"/>
       <use xlink:href="#DejaVuSans-31" transform="translate(354.199219 0)"/>
       <use xlink:href="#DejaVuSans-2d" transform="translate(417.822266 0)"/>
       <use xlink:href="#DejaVuSans-31" transform="translate(453.90625 0)"/>
       <use xlink:href="#DejaVuSans-33" transform="translate(517.529297 0)"/>
       <use xlink:href="#DejaVuSans-20" transform="translate(581.152344 0)"/>
       <use xlink:href="#DejaVuSans-28" transform="translate(612.939453 0)"/>
       <use xlink:href="#DejaVuSans-30" transform="translate(651.953125 0)"/>
       <use xlink:href="#DejaVuSans-36" transform="translate(715.576172 0)"/>
       <use xlink:href="#DejaVuSans-3a" transform="translate(779.199219 0)"/>
       <use xlink:href="#DejaVuSans-30" transform="translate(812.890625 0)"/>
       <use xlink:href="#DejaVuSans-30" transform="translate(876.513672 0)"/>
       <use xlink:href="#DejaVuSans-29" transform="translate(940.136719 0)"/>
      </g>
     </g>
    </g>
    <g id="xtick_5">
     <g id="line2d_5">
      <g>
       <use xlink:href="#m6eae5788a8" x="619.421352" y="452.953378" style="stroke: #000000; stroke-width: 0.8"/>
      </g>
     </g>
     <g id="text_5">
      <!-- 2022-12-07 (12:00) -->
      <g transform="translate(499.249184 537.706932) rotate(-30) scale(0.14 -0.14)">
       <defs>
        <path id="DejaVuSans-37" d="M 525 4666 
L 3525 4666 
L 3525 4397 
L 1831 0 
L 1172 0 
L 2766 4134 
L 525 4134 
L 525 4666 
z
" transform="scale(0.015625)"/>
       </defs>
       <use xlink:href="#DejaVuSans-32"/>
       <use xlink:href="#DejaVuSans-30" transform="translate(63.623047 0)"/>
       <use xlink:href="#DejaVuSans-32" transform="translate(127.246094 0)"/>
       <use xlink:href="#DejaVuSans-32" transform="translate(190.869141 0)"/>
       <use xlink:href="#DejaVuSans-2d" transform="translate(254.492188 0)"/>
       <use xlink:href="#DejaVuSans-31" transform="translate(290.576172 0)"/>
       <use xlink:href="#DejaVuSans-32" transform="translate(354.199219 0)"/>
       <use xlink:href="#DejaVuSans-2d" transform="translate(417.822266 0)"/>
       <use xlink:href="#DejaVuSans-30" transform="translate(453.90625 0)"/>
       <use xlink:href="#DejaVuSans-37" transform="translate(517.529297 0)"/>
       <use xlink:href="#DejaVuSans-20" transform="translate(581.152344 0)"/>
       <use xlink:href="#DejaVuSans-28" transform="translate(612.939453 0)"/>
       <use xlink:href="#DejaVuSans-31" transform="translate(651.953125 0)"/>
       <use xlink:href="#DejaVuSans-32" transform="translate(715.576172 0)"/>
       <use xlink:href="#DejaVuSans-3a" transform="translate(779.199219 0)"/>
       <use xlink:href="#DejaVuSans-30" transform="translate(812.890625 0)"/>
       <use xlink:href="#DejaVuSans-30" transform="translate(876.513672 0)"/>
       <use xlink:href="#DejaVuSans-29" transform="translate(940.136719 0)"/>
      </g>
     </g>
    </g>
    <g id="xtick_6">
     <g id="line2d_6">
      <g>
       <use xlink:href="#m6eae5788a8" x="741.418346" y="452.953378" style="stroke: #000000; stroke-width: 0.8"/>
      </g>
     </g>
     <g id="text_6">
      <!-- 2022-12-31 (18:00) -->
      <g transform="translate(621.246179 537.706932) rotate(-30) scale(0.14 -0.14)">
       <use xlink:href="#DejaVuSans-32"/>
       <use xlink:href="#DejaVuSans-30" transform="translate(63.623047 0)"/>
       <use xlink:href="#DejaVuSans-32" transform="translate(127.246094 0)"/>
       <use xlink:href="#DejaVuSans-32" transform="translate(190.869141 0)"/>
       <use xlink:href="#DejaVuSans-2d" transform="translate(254.492188 0)"/>
       <use xlink:href="#DejaVuSans-31" transform="translate(290.576172 0)"/>
       <use xlink:href="#DejaVuSans-32" transform="translate(354.199219 0)"/>
       <use xlink:href="#DejaVuSans-2d" transform="translate(417.822266 0)"/>
       <use xlink:href="#DejaVuSans-33" transform="translate(453.90625 0)"/>
       <use xlink:href="#DejaVuSans-31" transform="translate(517.529297 0)"/>
       <use xlink:href="#DejaVuSans-20" transform="translate(581.152344 0)"/>
       <use xlink:href="#DejaVuSans-28" transform="translate(612.939453 0)"/>
       <use xlink:href="#DejaVuSans-31" transform="translate(651.953125 0)"/>
       <use xlink:href="#DejaVuSans-38" transform="translate(715.576172 0)"/>
       <use xlink:href="#DejaVuSans-3a" transform="translate(779.199219 0)"/>
       <use xlink:href="#DejaVuSans-30" transform="translate(812.890625 0)"/>
       <use xlink:href="#DejaVuSans-30" transform="translate(876.513672 0)"/>
       <use xlink:href="#DejaVuSans-29" transform="translate(940.136719 0)"/>
      </g>
     </g>
    </g>
    <g id="text_7">
     <!-- Forecast Date -->
     <g transform="translate(381.54846 556.385919) scale(0.16 -0.16)">
      <defs>
       <path id="DejaVuSans-46" d="M 628 4666 
L 3309 4666 
L 3309 4134 
L 1259 4134 
L 1259 2759 
L 3109 2759 
L 3109 2228 
L 1259 2228 
L 1259 0 
L 628 0 
L 628 4666 
z
" transform="scale(0.015625)"/>
       <path id="DejaVuSans-6f" d="M 1959 3097 
Q 1497 3097 1228 2736 
Q 959 2375 959 1747 
Q 959 1119 1226 758 
Q 1494 397 1959 397 
Q 2419 397 2687 759 
Q 2956 1122 2956 1747 
Q 2956 2369 2687 2733 
Q 2419 3097 1959 3097 
z
M 1959 3584 
Q 2709 3584 3137 3096 
Q 3566 2609 3566 1747 
Q 3566 888 3137 398 
Q 2709 -91 1959 -91 
Q 1206 -91 779 398 
Q 353 888 353 1747 
Q 353 2609 779 3096 
Q 1206 3584 1959 3584 
z
" transform="scale(0.015625)"/>
       <path id="DejaVuSans-72" d="M 2631 2963 
Q 2534 3019 2420 3045 
Q 2306 3072 2169 3072 
Q 1681 3072 1420 2755 
Q 1159 2438 1159 1844 
L 1159 0 
L 581 0 
L 581 3500 
L 1159 3500 
L 1159 2956 
Q 1341 3275 1631 3429 
Q 1922 3584 2338 3584 
Q 2397 3584 2469 3576 
Q 2541 3569 2628 3553 
L 2631 2963 
z
" transform="scale(0.015625)"/>
       <path id="DejaVuSans-65" d="M 3597 1894 
L 3597 1613 
L 953 1613 
Q 991 1019 1311 708 
Q 1631 397 2203 397 
Q 2534 397 2845 478 
Q 3156 559 3463 722 
L 3463 178 
Q 3153 47 2828 -22 
Q 2503 -91 2169 -91 
Q 1331 -91 842 396 
Q 353 884 353 1716 
Q 353 2575 817 3079 
Q 1281 3584 2069 3584 
Q 2775 3584 3186 3129 
Q 3597 2675 3597 1894 
z
M 3022 2063 
Q 3016 2534 2758 2815 
Q 2500 3097 2075 3097 
Q 1594 3097 1305 2825 
Q 1016 2553 972 2059 
L 3022 2063 
z
" transform="scale(0.015625)"/>
       <path id="DejaVuSans-63" d="M 3122 3366 
L 3122 2828 
Q 2878 2963 2633 3030 
Q 2388 3097 2138 3097 
Q 1578 3097 1268 2742 
Q 959 2388 959 1747 
Q 959 1106 1268 751 
Q 1578 397 2138 397 
Q 2388 397 2633 464 
Q 2878 531 3122 666 
L 3122 134 
Q 2881 22 2623 -34 
Q 2366 -91 2075 -91 
Q 1284 -91 818 406 
Q 353 903 353 1747 
Q 353 2603 823 3093 
Q 1294 3584 2113 3584 
Q 2378 3584 2631 3529 
Q 2884 3475 3122 3366 
z
" transform="scale(0.015625)"/>
       <path id="DejaVuSans-61" d="M 2194 1759 
Q 1497 1759 1228 1600 
Q 959 1441 959 1056 
Q 959 750 1161 570 
Q 1363 391 1709 391 
Q 2188 391 2477 730 
Q 2766 1069 2766 1631 
L 2766 1759 
L 2194 1759 
z
M 3341 1997 
L 3341 0 
L 2766 0 
L 2766 531 
Q 2569 213 2275 61 
Q 1981 -91 1556 -91 
Q 1019 -91 701 211 
Q 384 513 384 1019 
Q 384 1609 779 1909 
Q 1175 2209 1959 2209 
L 2766 2209 
L 2766 2266 
Q 2766 2663 2505 2880 
Q 2244 3097 1772 3097 
Q 1472 3097 1187 3025 
Q 903 2953 641 2809 
L 641 3341 
Q 956 3463 1253 3523 
Q 1550 3584 1831 3584 
Q 2591 3584 2966 3190 
Q 3341 2797 3341 1997 
z
" transform="scale(0.015625)"/>
       <path id="DejaVuSans-73" d="M 2834 3397 
L 2834 2853 
Q 2591 2978 2328 3040 
Q 2066 3103 1784 3103 
Q 1356 3103 1142 2972 
Q 928 2841 928 2578 
Q 928 2378 1081 2264 
Q 1234 2150 1697 2047 
L 1894 2003 
Q 2506 1872 2764 1633 
Q 3022 1394 3022 966 
Q 3022 478 2636 193 
Q 2250 -91 1575 -91 
Q 1294 -91 989 -36 
Q 684 19 347 128 
L 347 722 
Q 666 556 975 473 
Q 1284 391 1588 391 
Q 1994 391 2212 530 
Q 2431 669 2431 922 
Q 2431 1156 2273 1281 
Q 2116 1406 1581 1522 
L 1381 1569 
Q 847 1681 609 1914 
Q 372 2147 372 2553 
Q 372 3047 722 3315 
Q 1072 3584 1716 3584 
Q 2034 3584 2315 3537 
Q 2597 3491 2834 3397 
z
" transform="scale(0.015625)"/>
       <path id="DejaVuSans-74" d="M 1172 4494 
L 1172 3500 
L 2356 3500 
L 2356 3053 
L 1172 3053 
L 1172 1153 
Q 1172 725 1289 603 
Q 1406 481 1766 481 
L 2356 481 
L 2356 0 
L 1766 0 
Q 1100 0 847 248 
Q 594 497 594 1153 
L 594 3053 
L 172 3053 
L 172 3500 
L 594 3500 
L 594 4494 
L 1172 4494 
z
" transform="scale(0.015625)"/>
       <path id="DejaVuSans-44" d="M 1259 4147 
L 1259 519 
L 2022 519 
Q 2988 519 3436 956 
Q 3884 1394 3884 2338 
Q 3884 3275 3436 3711 
Q 2988 4147 2022 4147 
L 1259 4147 
z
M 628 4666 
L 1925 4666 
Q 3281 4666 3915 4102 
Q 4550 3538 4550 2338 
Q 4550 1131 3912 565 
Q 3275 0 1925 0 
L 628 0 
L 628 4666 
z
" transform="scale(0.015625)"/>
      </defs>
      <use xlink:href="#DejaVuSans-46"/>
      <use xlink:href="#DejaVuSans-6f" transform="translate(53.894531 0)"/>
      <use xlink:href="#DejaVuSans-72" transform="translate(115.076172 0)"/>
      <use xlink:href="#DejaVuSans-65" transform="translate(153.939453 0)"/>
      <use xlink:href="#DejaVuSans-63" transform="translate(215.462891 0)"/>
      <use xlink:href="#DejaVuSans-61" transform="translate(270.443359 0)"/>
      <use xlink:href="#DejaVuSans-73" transform="translate(331.722656 0)"/>
      <use xlink:href="#DejaVuSans-74" transform="translate(383.822266 0)"/>
      <use xlink:href="#DejaVuSans-20" transform="translate(423.03125 0)"/>
      <use xlink:href="#DejaVuSans-44" transform="translate(454.818359 0)"/>
      <use xlink:href="#DejaVuSans-61" transform="translate(531.820312 0)"/>
      <use xlink:href="#DejaVuSans-74" transform="translate(593.099609 0)"/>
      <use xlink:href="#DejaVuSans-65" transform="translate(632.308594 0)"/>
     </g>
    </g>
   </g>
   <g id="matplotlib.axis_2">
    <g id="ytick_1">
     <g id="line2d_7">
      <defs>
       <path id="m5bf59fc5f9" d="M 0 0 
L -3.5 0 
" style="stroke: #000000; stroke-width: 0.8"/>
      </defs>
      <g>
       <use xlink:href="#m5bf59fc5f9" x="102.25471" y="404.09628" style="stroke: #000000; stroke-width: 0.8"/>
      </g>
     </g>
     <g id="text_8">
      <!-- 8 -->
      <g transform="translate(88.89221 407.895499) scale(0.1 -0.1)">
       <use xlink:href="#DejaVuSans-38"/>
      </g>
     </g>
    </g>
    <g id="ytick_2">
     <g id="line2d_8">
      <g>
       <use xlink:href="#m5bf59fc5f9" x="102.25471" y="347.939557" style="stroke: #000000; stroke-width: 0.8"/>
      </g>
     </g>
     <g id="text_9">
      <!-- 10 -->
      <g transform="translate(82.52971 351.738776) scale(0.1 -0.1)">
       <use xlink:href="#DejaVuSans-31"/>
       <use xlink:href="#DejaVuSans-30" transform="translate(63.623047 0)"/>
      </g>
     </g>
    </g>
    <g id="ytick_3">
     <g id="line2d_9">
      <g>
       <use xlink:href="#m5bf59fc5f9" x="102.25471" y="291.782834" style="stroke: #000000; stroke-width: 0.8"/>
      </g>
     </g>
     <g id="text_10">
      <!-- 12 -->
      <g transform="translate(82.52971 295.582053) scale(0.1 -0.1)">
       <use xlink:href="#DejaVuSans-31"/>
       <use xlink:href="#DejaVuSans-32" transform="translate(63.623047 0)"/>
      </g>
     </g>
    </g>
    <g id="ytick_4">
     <g id="line2d_10">
      <g>
       <use xlink:href="#m5bf59fc5f9" x="102.25471" y="235.626111" style="stroke: #000000; stroke-width: 0.8"/>
      </g>
     </g>
     <g id="text_11">
      <!-- 14 -->
      <g transform="translate(82.52971 239.42533) scale(0.1 -0.1)">
       <defs>
        <path id="DejaVuSans-34" d="M 2419 4116 
L 825 1625 
L 2419 1625 
L 2419 4116 
z
M 2253 4666 
L 3047 4666 
L 3047 1625 
L 3713 1625 
L 3713 1100 
L 3047 1100 
L 3047 0 
L 2419 0 
L 2419 1100 
L 313 1100 
L 313 1709 
L 2253 4666 
z
" transform="scale(0.015625)"/>
       </defs>
       <use xlink:href="#DejaVuSans-31"/>
       <use xlink:href="#DejaVuSans-34" transform="translate(63.623047 0)"/>
      </g>
     </g>
    </g>
    <g id="ytick_5">
     <g id="line2d_11">
      <g>
       <use xlink:href="#m5bf59fc5f9" x="102.25471" y="179.469388" style="stroke: #000000; stroke-width: 0.8"/>
      </g>
     </g>
     <g id="text_12">
      <!-- 16 -->
      <g transform="translate(82.52971 183.268607) scale(0.1 -0.1)">
       <use xlink:href="#DejaVuSans-31"/>
       <use xlink:href="#DejaVuSans-36" transform="translate(63.623047 0)"/>
      </g>
     </g>
    </g>
    <g id="ytick_6">
     <g id="line2d_12">
      <g>
       <use xlink:href="#m5bf59fc5f9" x="102.25471" y="123.312665" style="stroke: #000000; stroke-width: 0.8"/>
      </g>
     </g>
     <g id="text_13">
      <!-- 18 -->
      <g transform="translate(82.52971 127.111884) scale(0.1 -0.1)">
       <use xlink:href="#DejaVuSans-31"/>
       <use xlink:href="#DejaVuSans-38" transform="translate(63.623047 0)"/>
      </g>
     </g>
    </g>
    <g id="ytick_7">
     <g id="line2d_13">
      <g>
       <use xlink:href="#m5bf59fc5f9" x="102.25471" y="67.155942" style="stroke: #000000; stroke-width: 0.8"/>
      </g>
     </g>
     <g id="text_14">
      <!-- 20 -->
      <g transform="translate(82.52971 70.955161) scale(0.1 -0.1)">
       <use xlink:href="#DejaVuSans-32"/>
       <use xlink:href="#DejaVuSans-30" transform="translate(63.623047 0)"/>
      </g>
     </g>
    </g>
    <g id="ytick_8">
     <g id="line2d_14">
      <g>
       <use xlink:href="#m5bf59fc5f9" x="102.25471" y="10.999219" style="stroke: #000000; stroke-width: 0.8"/>
      </g>
     </g>
     <g id="text_15">
      <!-- 22 -->
      <g transform="translate(82.52971 14.798437) scale(0.1 -0.1)">
       <use xlink:href="#DejaVuSans-32"/>
       <use xlink:href="#DejaVuSans-32" transform="translate(63.623047 0)"/>
      </g>
     </g>
    </g>
    <g id="text_16">
     <!-- Root Mean Squared Error (RMSE) -->
     <g transform="translate(75.20221 362.859628) rotate(-90) scale(0.16 -0.16)">
      <defs>
       <path id="DejaVuSans-52" d="M 2841 2188 
Q 3044 2119 3236 1894 
Q 3428 1669 3622 1275 
L 4263 0 
L 3584 0 
L 2988 1197 
Q 2756 1666 2539 1819 
Q 2322 1972 1947 1972 
L 1259 1972 
L 1259 0 
L 628 0 
L 628 4666 
L 2053 4666 
Q 2853 4666 3247 4331 
Q 3641 3997 3641 3322 
Q 3641 2881 3436 2590 
Q 3231 2300 2841 2188 
z
M 1259 4147 
L 1259 2491 
L 2053 2491 
Q 2509 2491 2742 2702 
Q 2975 2913 2975 3322 
Q 2975 3731 2742 3939 
Q 2509 4147 2053 4147 
L 1259 4147 
z
" transform="scale(0.015625)"/>
       <path id="DejaVuSans-4d" d="M 628 4666 
L 1569 4666 
L 2759 1491 
L 3956 4666 
L 4897 4666 
L 4897 0 
L 4281 0 
L 4281 4097 
L 3078 897 
L 2444 897 
L 1241 4097 
L 1241 0 
L 628 0 
L 628 4666 
z
" transform="scale(0.015625)"/>
       <path id="DejaVuSans-6e" d="M 3513 2113 
L 3513 0 
L 2938 0 
L 2938 2094 
Q 2938 2591 2744 2837 
Q 2550 3084 2163 3084 
Q 1697 3084 1428 2787 
Q 1159 2491 1159 1978 
L 1159 0 
L 581 0 
L 581 3500 
L 1159 3500 
L 1159 2956 
Q 1366 3272 1645 3428 
Q 1925 3584 2291 3584 
Q 2894 3584 3203 3211 
Q 3513 2838 3513 2113 
z
" transform="scale(0.015625)"/>
       <path id="DejaVuSans-53" d="M 3425 4513 
L 3425 3897 
Q 3066 4069 2747 4153 
Q 2428 4238 2131 4238 
Q 1616 4238 1336 4038 
Q 1056 3838 1056 3469 
Q 1056 3159 1242 3001 
Q 1428 2844 1947 2747 
L 2328 2669 
Q 3034 2534 3370 2195 
Q 3706 1856 3706 1288 
Q 3706 609 3251 259 
Q 2797 -91 1919 -91 
Q 1588 -91 1214 -16 
Q 841 59 441 206 
L 441 856 
Q 825 641 1194 531 
Q 1563 422 1919 422 
Q 2459 422 2753 634 
Q 3047 847 3047 1241 
Q 3047 1584 2836 1778 
Q 2625 1972 2144 2069 
L 1759 2144 
Q 1053 2284 737 2584 
Q 422 2884 422 3419 
Q 422 4038 858 4394 
Q 1294 4750 2059 4750 
Q 2388 4750 2728 4690 
Q 3069 4631 3425 4513 
z
" transform="scale(0.015625)"/>
       <path id="DejaVuSans-71" d="M 947 1747 
Q 947 1113 1208 752 
Q 1469 391 1925 391 
Q 2381 391 2643 752 
Q 2906 1113 2906 1747 
Q 2906 2381 2643 2742 
Q 2381 3103 1925 3103 
Q 1469 3103 1208 2742 
Q 947 2381 947 1747 
z
M 2906 525 
Q 2725 213 2448 61 
Q 2172 -91 1784 -91 
Q 1150 -91 751 415 
Q 353 922 353 1747 
Q 353 2572 751 3078 
Q 1150 3584 1784 3584 
Q 2172 3584 2448 3432 
Q 2725 3281 2906 2969 
L 2906 3500 
L 3481 3500 
L 3481 -1331 
L 2906 -1331 
L 2906 525 
z
" transform="scale(0.015625)"/>
       <path id="DejaVuSans-75" d="M 544 1381 
L 544 3500 
L 1119 3500 
L 1119 1403 
Q 1119 906 1312 657 
Q 1506 409 1894 409 
Q 2359 409 2629 706 
Q 2900 1003 2900 1516 
L 2900 3500 
L 3475 3500 
L 3475 0 
L 2900 0 
L 2900 538 
Q 2691 219 2414 64 
Q 2138 -91 1772 -91 
Q 1169 -91 856 284 
Q 544 659 544 1381 
z
M 1991 3584 
L 1991 3584 
z
" transform="scale(0.015625)"/>
       <path id="DejaVuSans-64" d="M 2906 2969 
L 2906 4863 
L 3481 4863 
L 3481 0 
L 2906 0 
L 2906 525 
Q 2725 213 2448 61 
Q 2172 -91 1784 -91 
Q 1150 -91 751 415 
Q 353 922 353 1747 
Q 353 2572 751 3078 
Q 1150 3584 1784 3584 
Q 2172 3584 2448 3432 
Q 2725 3281 2906 2969 
z
M 947 1747 
Q 947 1113 1208 752 
Q 1469 391 1925 391 
Q 2381 391 2643 752 
Q 2906 1113 2906 1747 
Q 2906 2381 2643 2742 
Q 2381 3103 1925 3103 
Q 1469 3103 1208 2742 
Q 947 2381 947 1747 
z
" transform="scale(0.015625)"/>
       <path id="DejaVuSans-45" d="M 628 4666 
L 3578 4666 
L 3578 4134 
L 1259 4134 
L 1259 2753 
L 3481 2753 
L 3481 2222 
L 1259 2222 
L 1259 531 
L 3634 531 
L 3634 0 
L 628 0 
L 628 4666 
z
" transform="scale(0.015625)"/>
      </defs>
      <use xlink:href="#DejaVuSans-52"/>
      <use xlink:href="#DejaVuSans-6f" transform="translate(64.982422 0)"/>
      <use xlink:href="#DejaVuSans-6f" transform="translate(126.164062 0)"/>
      <use xlink:href="#DejaVuSans-74" transform="translate(187.345703 0)"/>
      <use xlink:href="#DejaVuSans-20" transform="translate(226.554688 0)"/>
      <use xlink:href="#DejaVuSans-4d" transform="translate(258.341797 0)"/>
      <use xlink:href="#DejaVuSans-65" transform="translate(344.621094 0)"/>
      <use xlink:href="#DejaVuSans-61" transform="translate(406.144531 0)"/>
      <use xlink:href="#DejaVuSans-6e" transform="translate(467.423828 0)"/>
      <use xlink:href="#DejaVuSans-20" transform="translate(530.802734 0)"/>
      <use xlink:href="#DejaVuSans-53" transform="translate(562.589844 0)"/>
      <use xlink:href="#DejaVuSans-71" transform="translate(626.066406 0)"/>
      <use xlink:href="#DejaVuSans-75" transform="translate(689.542969 0)"/>
      <use xlink:href="#DejaVuSans-61" transform="translate(752.921875 0)"/>
      <use xlink:href="#DejaVuSans-72" transform="translate(814.201172 0)"/>
      <use xlink:href="#DejaVuSans-65" transform="translate(853.064453 0)"/>
      <use xlink:href="#DejaVuSans-64" transform="translate(914.587891 0)"/>
      <use xlink:href="#DejaVuSans-20" transform="translate(978.064453 0)"/>
      <use xlink:href="#DejaVuSans-45" transform="translate(1009.851562 0)"/>
      <use xlink:href="#DejaVuSans-72" transform="translate(1073.035156 0)"/>
      <use xlink:href="#DejaVuSans-72" transform="translate(1112.398438 0)"/>
      <use xlink:href="#DejaVuSans-6f" transform="translate(1151.261719 0)"/>
      <use xlink:href="#DejaVuSans-72" transform="translate(1212.443359 0)"/>
      <use xlink:href="#DejaVuSans-20" transform="translate(1253.556641 0)"/>
      <use xlink:href="#DejaVuSans-28" transform="translate(1285.34375 0)"/>
      <use xlink:href="#DejaVuSans-52" transform="translate(1324.357422 0)"/>
      <use xlink:href="#DejaVuSans-4d" transform="translate(1393.839844 0)"/>
      <use xlink:href="#DejaVuSans-53" transform="translate(1480.119141 0)"/>
      <use xlink:href="#DejaVuSans-45" transform="translate(1543.595703 0)"/>
      <use xlink:href="#DejaVuSans-29" transform="translate(1606.779297 0)"/>
     </g>
    </g>
   </g>
   <g id="line2d_15">
    <path d="M 132.691074 338.968146 
L 133.948775 346.209509 
L 135.206476 337.64477 
L 136.464177 319.077656 
L 137.721878 338.319914 
L 138.979579 348.586049 
L 140.23728 337.611137 
L 141.49498 328.07978 
L 142.752681 338.253131 
L 144.010382 347.095875 
L 145.268083 342.830496 
L 146.525784 325.372858 
L 147.783485 334.579296 
L 149.041186 339.255684 
L 150.298887 334.242621 
L 151.556588 318.196753 
L 152.814289 332.676746 
L 154.07199 340.316265 
L 155.329691 332.669088 
L 156.587392 316.496776 
L 157.845093 328.27132 
L 159.102794 342.149461 
L 160.360495 337.867453 
L 161.618196 322.076829 
L 162.875897 335.080198 
L 164.133598 343.973364 
L 165.391299 339.90622 
L 166.649 319.908083 
L 169.164402 346.183106 
L 170.422103 341.665107 
L 171.679804 335.617464 
L 172.937505 345.759779 
L 174.195206 353.441098 
L 175.452907 355.158346 
L 176.710608 358.366973 
L 177.968309 366.162311 
L 179.22601 375.102097 
L 180.483711 369.323033 
L 181.741412 362.186398 
L 182.999113 373.413207 
L 184.256814 380.181971 
L 185.514515 378.365994 
L 186.772216 363.050056 
L 188.029917 374.998655 
L 189.287618 378.142294 
L 191.80302 357.601321 
L 193.060721 370.050581 
L 194.318422 376.963168 
L 195.576122 365.140504 
L 196.833823 357.412298 
L 199.349225 375.737771 
L 200.606926 373.952776 
L 201.864627 361.634994 
L 203.122328 372.627873 
L 204.380029 380.186363 
L 205.63773 378.248842 
L 206.895431 364.949339 
L 208.153132 372.283647 
L 209.410833 378.576091 
L 210.668534 373.581343 
L 211.926235 360.265961 
L 213.183936 364.790092 
L 214.441637 372.666379 
L 215.699338 366.873069 
L 216.957039 352.904983 
L 218.21474 356.742858 
L 219.472441 358.761729 
L 220.730142 352.29689 
L 221.987843 340.31648 
L 223.245544 344.521743 
L 224.503245 350.43357 
L 225.760946 339.878237 
L 227.018647 320.938432 
L 228.276348 329.666193 
L 229.534049 341.723 
L 230.79175 339.686911 
L 232.049451 323.480832 
L 233.307152 330.467031 
L 234.564853 342.388826 
L 235.822554 339.542553 
L 237.080255 330.110353 
L 238.337956 343.568219 
L 239.595657 351.662341 
L 240.853358 350.581222 
L 242.111059 344.628452 
L 243.36876 363.826902 
L 244.626461 367.712574 
L 245.884162 364.093607 
L 247.141863 357.318978 
L 248.399564 361.916614 
L 249.657264 368.346561 
L 250.914965 367.614541 
L 252.172666 354.650696 
L 253.430367 370.565649 
L 254.688068 379.720566 
L 255.945769 373.409431 
L 257.20347 354.84545 
L 258.461171 363.144448 
L 259.718872 370.209774 
L 260.976573 364.569124 
L 262.234274 344.793643 
L 263.491975 351.304351 
L 264.749676 362.911884 
L 266.007377 357.88262 
L 267.265078 348.429614 
L 268.522779 360.019259 
L 269.78048 365.784211 
L 271.038181 362.288555 
L 272.295882 353.056839 
L 273.553583 365.042418 
L 274.811284 371.508033 
L 276.068985 362.229242 
L 277.326686 343.230393 
L 278.584387 356.93804 
L 279.842088 360.550581 
L 281.099789 348.705182 
L 282.35749 330.219124 
L 283.615191 341.781001 
L 284.872892 347.911789 
L 286.130593 342.803959 
L 287.388294 333.857987 
L 288.645995 346.631605 
L 289.903696 361.6253 
L 291.161397 357.157696 
L 292.419098 344.845136 
L 293.676799 358.901321 
L 294.9345 368.68262 
L 296.192201 361.457404 
L 297.449902 349.853674 
L 299.965304 374.185768 
L 301.223005 369.283295 
L 302.480706 354.301061 
L 303.738406 360.742817 
L 304.996107 371.788502 
L 306.253808 369.210219 
L 307.511509 362.801453 
L 308.76921 374.572999 
L 310.026911 380.177874 
L 311.284612 377.051963 
L 312.542313 374.32228 
L 313.800014 388.851732 
L 315.057715 395.250135 
L 316.315416 392.983999 
L 317.573117 387.669875 
L 318.830818 396.147989 
L 320.088519 402.219009 
L 321.34622 395.446629 
L 322.603921 380.914848 
L 323.861622 389.845342 
L 325.119323 399.77831 
L 327.634725 386.76996 
L 328.892426 395.934276 
L 330.150127 400.420544 
L 331.407828 393.651913 
L 332.665529 382.593777 
L 333.92323 389.374484 
L 335.180931 396.797239 
L 336.438632 388.562935 
L 337.696333 374.355216 
L 340.211735 389.295249 
L 341.469436 380.964359 
L 342.727137 366.529566 
L 343.984838 380.245836 
L 345.242539 385.246341 
L 346.50024 377.568289 
L 347.757941 374.336445 
L 349.015642 380.274434 
L 350.273343 379.867361 
L 351.531044 377.743709 
L 352.788745 368.266389 
L 354.046446 376.651129 
L 355.304147 387.575029 
L 356.561848 388.796222 
L 357.819548 376.487491 
L 359.077249 380.911581 
L 360.33495 395.17414 
L 361.592651 395.747556 
L 362.850352 386.642231 
L 365.365754 396.053223 
L 366.623455 389.203268 
L 367.881156 380.655051 
L 369.138857 384.586647 
L 370.396558 393.662009 
L 371.654259 382.509749 
L 372.91196 375.958312 
L 374.169661 379.280101 
L 375.427362 383.388992 
L 376.685063 377.598521 
L 377.942764 364.973733 
L 379.200465 368.997739 
L 380.458166 379.395861 
L 381.715867 366.449581 
L 382.973568 355.833865 
L 384.231269 366.670363 
L 385.48897 373.63929 
L 388.004372 350.853925 
L 389.262073 359.842072 
L 390.519774 365.041507 
L 391.777475 355.169271 
L 393.035176 347.122411 
L 394.292877 353.709195 
L 395.550578 366.68892 
L 398.06598 351.200187 
L 400.581382 354.700502 
L 401.839083 347.549916 
L 403.096784 338.580674 
L 404.354485 340.829217 
L 405.612186 340.543206 
L 406.869887 328.291805 
L 408.127588 323.811108 
L 409.385289 331.388743 
L 411.90069 340.88205 
L 413.158391 333.782421 
L 414.416092 339.567403 
L 415.673793 355.562554 
L 416.931494 357.673246 
L 418.189195 357.133623 
L 419.446896 362.021796 
L 421.962298 373.729236 
L 423.219999 364.635612 
L 424.4777 375.02862 
L 425.735401 388.42005 
L 426.993102 385.553721 
L 428.250803 374.894919 
L 429.508504 384.537751 
L 430.766205 390.406092 
L 432.023906 389.261081 
L 433.281607 386.278055 
L 434.539308 392.404103 
L 435.797009 397.378018 
L 437.05471 392.459747 
L 438.312411 392.59227 
L 439.570112 401.985856 
L 440.827813 405.37716 
L 442.085514 400.958587 
L 443.343215 400.923428 
L 444.600916 411.253815 
L 445.858617 416.414183 
L 447.116318 405.696738 
L 448.374019 398.985773 
L 449.63172 402.441263 
L 450.889421 401.777044 
L 452.147122 403.425206 
L 453.404823 395.417254 
L 454.662524 388.864103 
L 455.920225 389.484433 
L 457.177926 380.099684 
L 458.435627 367.714101 
L 459.693328 363.374735 
L 460.951029 358.465783 
L 462.20873 345.980721 
L 463.466431 337.8403 
L 464.724131 337.164728 
L 465.981832 327.306978 
L 467.239533 324.309519 
L 468.497234 323.859066 
L 469.754935 329.05486 
L 471.012636 328.087251 
L 472.270337 330.361527 
L 473.528038 324.76415 
L 474.785739 331.413861 
L 476.04344 336.896791 
L 477.301141 328.969841 
L 478.558842 327.922274 
L 479.816543 335.305505 
L 481.074244 341.029969 
L 482.331945 339.055147 
L 483.589646 340.465443 
L 484.847347 337.276337 
L 486.105048 335.95039 
L 487.362749 330.154349 
L 488.62045 327.430852 
L 489.878151 330.697533 
L 491.135852 339.451402 
L 492.393553 333.89395 
L 493.651254 335.368057 
L 494.908955 336.442482 
L 496.166656 349.52348 
L 498.682058 358.701372 
L 499.939759 369.687209 
L 501.19746 376.090754 
L 502.455161 375.611381 
L 503.712862 372.305979 
L 504.970563 381.902968 
L 506.228264 395.623549 
L 507.485965 399.770732 
L 510.001367 391.069106 
L 511.259068 397.2674 
L 512.516769 396.245031 
L 513.77447 391.726844 
L 515.032171 385.514518 
L 516.289872 376.660635 
L 517.547573 363.580923 
L 518.805273 352.46567 
L 520.062974 344.876841 
L 521.320675 331.405988 
L 522.578376 330.436076 
L 523.836077 326.354659 
L 525.093778 332.043402 
L 526.351479 339.352271 
L 527.60918 345.462548 
L 528.866881 346.328295 
L 530.124582 349.423626 
L 531.382283 360.036049 
L 532.639984 367.54824 
L 533.897685 367.791997 
L 535.155386 375.926312 
L 536.413087 378.336351 
L 537.670788 374.806098 
L 538.928489 372.798473 
L 540.18619 381.411546 
L 541.443891 386.927493 
L 542.701592 387.227241 
L 543.959293 382.409842 
L 545.216994 379.795677 
L 546.474695 384.191115 
L 547.732396 382.995414 
L 548.990097 371.01329 
L 550.247798 367.636017 
L 551.505499 374.82827 
L 552.7632 361.634324 
L 554.020901 354.529822 
L 555.278602 353.459922 
L 556.536303 359.141784 
L 557.794004 355.450222 
L 559.051705 345.809719 
L 560.309406 343.415292 
L 561.567107 346.372585 
L 562.824808 337.138566 
L 564.082509 339.010964 
L 565.34021 344.45014 
L 566.597911 346.292814 
L 567.855612 336.34212 
L 569.113313 327.766348 
L 570.371014 325.502944 
L 571.628715 333.665804 
L 572.886415 329.535733 
L 574.144116 326.089748 
L 575.401817 330.573874 
L 576.659518 329.080861 
L 577.917219 318.369415 
L 579.17492 319.049994 
L 580.432621 325.692663 
L 581.690322 321.170032 
L 582.948023 321.768351 
L 584.205724 320.563385 
L 585.463425 334.259303 
L 586.721126 339.313738 
L 587.978827 342.299817 
L 589.236528 349.982689 
L 590.494229 355.604568 
L 591.75193 363.122651 
L 593.009631 365.946269 
L 594.267332 360.780279 
L 595.525033 358.530156 
L 596.782734 352.990377 
L 598.040435 350.556854 
L 599.298136 351.085471 
L 600.555837 358.476869 
L 601.813538 358.489347 
L 603.071239 359.036655 
L 604.32894 353.939991 
L 605.586641 356.383261 
L 608.102043 349.30634 
L 609.359744 343.459154 
L 611.875146 335.090239 
L 613.132847 323.974183 
L 614.390548 311.443412 
L 615.648249 315.781412 
L 616.90595 316.743612 
L 618.163651 309.893256 
L 619.421352 306.565308 
L 620.679053 319.890651 
L 621.936754 337.633256 
L 623.194455 340.860038 
L 624.452156 337.004571 
L 625.709857 335.834255 
L 626.967557 343.394995 
L 628.225258 338.720052 
L 629.482959 338.085931 
L 630.74066 338.384341 
L 631.998361 342.946871 
L 633.256062 338.015265 
L 634.513763 335.471633 
L 635.771464 341.726401 
L 637.029165 350.58963 
L 638.286866 347.893982 
L 639.544567 348.952099 
L 640.802268 348.322504 
L 642.059969 360.328916 
L 643.31767 360.361397 
L 644.575371 357.373149 
L 645.833072 359.904008 
L 647.090773 366.996407 
L 648.348474 366.924482 
L 649.606175 367.470237 
L 652.121577 384.401855 
L 653.379278 384.340722 
L 654.636979 388.57445 
L 655.89468 388.249878 
L 657.152381 390.804114 
L 658.410082 382.9259 
L 659.667783 377.187699 
L 660.925484 374.632659 
L 662.183185 377.484287 
L 663.440886 371.654507 
L 664.698587 374.06741 
L 665.956288 371.939554 
L 667.213989 374.45349 
L 668.47169 368.380649 
L 669.729391 370.116802 
L 670.987092 364.599141 
L 672.244793 368.817847 
L 673.502494 365.801644 
L 674.760195 359.118567 
L 676.017896 364.368051 
L 677.275597 363.113948 
L 678.533298 356.715063 
L 679.790999 360.164956 
L 681.048699 359.512975 
L 682.3064 359.839099 
L 684.821802 346.779953 
L 686.079503 351.312465 
L 687.337204 355.025342 
L 688.594905 352.731732 
L 689.852606 345.587412 
L 691.110307 345.447204 
L 692.368008 342.773807 
L 694.88341 323.392199 
L 696.141111 325.303638 
L 697.398812 329.67602 
L 698.656513 336.020279 
L 699.914214 346.211651 
L 701.171915 357.897964 
L 702.429616 373.014863 
L 703.687317 378.310296 
L 704.945018 388.434912 
L 706.202719 393.602402 
L 707.46042 408.110552 
L 708.718121 410.050523 
L 709.975822 411.091744 
L 711.233523 409.920063 
L 712.491224 411.90332 
L 713.748925 406.216679 
L 715.006626 404.720319 
L 716.264327 399.470822 
L 717.522028 401.078738 
L 718.779729 394.611489 
L 720.03743 383.426882 
L 721.295131 378.397993 
L 722.552832 386.94605 
L 723.810533 389.564552 
L 725.068234 392.442744 
L 726.325935 393.420073 
L 727.583636 402.910808 
L 728.841337 400.933683 
L 730.099038 400.655437 
L 731.356739 395.820418 
L 733.872141 383.13281 
L 735.129841 379.491966 
L 736.387542 380.920444 
L 737.645243 388.415391 
L 738.902944 378.185325 
L 740.160645 374.278498 
L 741.418346 378.943078 
L 741.418346 378.943078 
" clip-path="url(#p9bc5b30510)" style="fill: none; stroke: #0000ff; stroke-width: 2; stroke-linecap: square"/>
   </g>
   <g id="line2d_16">
    <path d="M 132.691074 327.582252 
L 133.948775 285.200522 
L 135.206476 275.136344 
L 136.464177 274.250192 
L 137.721878 307.917604 
L 138.979579 263.824811 
L 140.23728 275.559966 
L 141.49498 309.185765 
L 142.752681 347.825966 
L 144.010382 263.027668 
L 145.268083 255.893363 
L 146.525784 311.297688 
L 147.783485 327.281593 
L 149.041186 251.608275 
L 150.298887 300.583162 
L 151.556588 329.673584 
L 152.814289 368.042474 
L 154.07199 325.825427 
L 155.329691 328.53034 
L 156.587392 362.469089 
L 157.845093 382.460826 
L 159.102794 320.538267 
L 160.360495 312.911629 
L 161.618196 336.02194 
L 162.875897 352.532507 
L 164.133598 286.870535 
L 165.391299 290.52758 
L 166.649 310.42921 
L 167.906701 345.213891 
L 169.164402 279.212619 
L 170.422103 295.439986 
L 171.679804 340.923956 
L 172.937505 330.114986 
L 174.195206 263.432492 
L 175.452907 275.623348 
L 176.710608 303.123688 
L 177.968309 319.215319 
L 179.22601 249.115467 
L 180.483711 280.094085 
L 181.741412 287.274046 
L 182.999113 339.12584 
L 184.256814 299.262919 
L 185.514515 313.051381 
L 186.772216 331.805376 
L 188.029917 373.493673 
L 189.287618 332.515385 
L 190.545319 337.34711 
L 191.80302 351.402063 
L 193.060721 363.725923 
L 194.318422 330.705004 
L 195.576122 338.080388 
L 196.833823 369.459626 
L 198.091524 386.466007 
L 199.349225 324.494124 
L 200.606926 320.249899 
L 203.122328 363.235732 
L 204.380029 317.381749 
L 205.63773 334.979889 
L 206.895431 334.131039 
L 208.153132 369.380016 
L 209.410833 340.103116 
L 210.668534 337.981632 
L 211.926235 354.719407 
L 213.183936 387.002818 
L 214.441637 367.653985 
L 215.699338 381.798428 
L 218.21474 418.573529 
L 219.472441 380.503597 
L 220.730142 400.112387 
L 221.987843 417.490509 
L 223.245544 428.663213 
L 224.503245 412.364028 
L 225.760946 423.168835 
L 227.018647 432.557735 
L 228.276348 432.793378 
L 229.534049 399.430977 
L 230.79175 385.265781 
L 232.049451 372.680839 
L 233.307152 381.0836 
L 234.564853 349.197435 
L 235.822554 331.878854 
L 237.080255 335.845288 
L 238.337956 365.31239 
L 239.595657 314.002281 
L 240.853358 303.453347 
L 242.111059 303.711859 
L 243.36876 343.822713 
L 244.626461 299.679471 
L 245.884162 306.015135 
L 247.141863 315.917844 
L 248.399564 331.420394 
L 249.657264 297.926047 
L 250.914965 283.194932 
L 252.172666 291.201572 
L 253.430367 320.839355 
L 254.688068 274.903941 
L 255.945769 272.81111 
L 257.20347 283.536641 
L 258.461171 312.009169 
L 259.718872 288.326299 
L 260.976573 286.573009 
L 262.234274 289.734775 
L 263.491975 322.222124 
L 264.749676 277.021648 
L 266.007377 281.492412 
L 267.265078 298.070673 
L 268.522779 324.718333 
L 269.78048 295.1231 
L 271.038181 300.763001 
L 272.295882 285.587726 
L 273.553583 324.441854 
L 274.811284 293.06749 
L 276.068985 302.378307 
L 277.326686 294.962354 
L 278.584387 347.647681 
L 279.842088 305.563852 
L 281.099789 318.52277 
L 282.35749 322.749402 
L 283.615191 336.485299 
L 284.872892 276.604426 
L 286.130593 251.196918 
L 288.645995 285.732432 
L 289.903696 227.760857 
L 291.161397 219.85549 
L 292.419098 224.426616 
L 293.676799 270.533165 
L 294.9345 235.069779 
L 296.192201 248.451596 
L 297.449902 252.054015 
L 298.707603 308.132441 
L 299.965304 268.785524 
L 301.223005 291.297383 
L 303.738406 355.333311 
L 304.996107 323.941327 
L 306.253808 334.886783 
L 307.511509 360.082669 
L 308.76921 388.475399 
L 310.026911 355.038971 
L 311.284612 352.097745 
L 312.542313 384.336303 
L 313.800014 404.41812 
L 315.057715 354.460789 
L 316.315416 339.298341 
L 317.573117 318.970519 
L 318.830818 346.122375 
L 320.088519 298.508219 
L 321.34622 287.365492 
L 322.603921 287.528916 
L 323.861622 322.456428 
L 325.119323 279.534219 
L 326.377024 272.520091 
L 327.634725 301.954926 
L 328.892426 327.377109 
L 330.150127 289.596228 
L 331.407828 282.527393 
L 332.665529 293.679251 
L 333.92323 337.737635 
L 335.180931 282.430699 
L 337.696333 295.51408 
L 338.954034 316.558552 
L 340.211735 291.562079 
L 341.469436 315.674784 
L 342.727137 304.504529 
L 343.984838 315.265059 
L 345.242539 285.64345 
L 346.50024 306.965767 
L 347.757941 325.443685 
L 349.015642 352.612706 
L 350.273343 308.461671 
L 351.531044 325.520938 
L 352.788745 331.795174 
L 354.046446 356.349066 
L 355.304147 310.039596 
L 356.561848 320.175699 
L 357.819548 340.557505 
L 359.077249 349.792086 
L 360.33495 305.034726 
L 361.592651 313.075106 
L 362.850352 332.830771 
L 364.108053 355.234287 
L 365.365754 308.443757 
L 366.623455 302.964228 
L 367.881156 319.685454 
L 369.138857 323.657913 
L 370.396558 283.303355 
L 371.654259 288.732328 
L 372.91196 319.255914 
L 374.169661 318.314547 
L 375.427362 254.985387 
L 376.685063 248.992959 
L 377.942764 290.039531 
L 379.200465 325.016957 
L 380.458166 265.296348 
L 381.715867 269.855156 
L 382.973568 301.597364 
L 384.231269 325.440686 
L 385.48897 276.834366 
L 386.746671 283.701859 
L 388.004372 315.481503 
L 389.262073 328.802856 
L 390.519774 280.053436 
L 391.777475 301.205099 
L 394.292877 331.645567 
L 395.550578 274.570319 
L 396.808279 276.827618 
L 398.06598 303.707842 
L 399.323681 325.318393 
L 400.581382 290.558562 
L 401.839083 285.535081 
L 403.096784 308.451335 
L 404.354485 358.690286 
L 405.612186 320.637184 
L 406.869887 302.016943 
L 408.127588 318.860034 
L 409.385289 353.383151 
L 410.64299 314.8597 
L 411.90069 317.025473 
L 414.416092 342.109723 
L 415.673793 306.801915 
L 416.931494 320.437369 
L 418.189195 332.4226 
L 419.446896 359.822497 
L 420.704597 345.883893 
L 421.962298 337.440751 
L 423.219999 324.159939 
L 424.4777 336.36879 
L 425.735401 311.83158 
L 426.993102 311.034116 
L 428.250803 307.859255 
L 429.508504 330.406487 
L 430.766205 289.95644 
L 432.023906 327.385223 
L 433.281607 348.286193 
L 434.539308 361.267444 
L 435.797009 341.758159 
L 437.05471 364.907512 
L 438.312411 368.123316 
L 439.570112 388.811967 
L 440.827813 362.713542 
L 442.085514 371.247487 
L 443.343215 371.452175 
L 444.600916 378.201981 
L 445.858617 326.302309 
L 447.116318 321.944065 
L 448.374019 327.376493 
L 449.63172 342.479147 
L 450.889421 305.945888 
L 452.147122 308.62472 
L 453.404823 319.241776 
L 454.662524 320.961273 
L 455.920225 296.523409 
L 457.177926 299.444739 
L 458.435627 307.575681 
L 459.693328 296.295049 
L 460.951029 261.151789 
L 462.20873 265.030339 
L 463.466431 264.101397 
L 464.724131 278.411648 
L 465.981832 250.546463 
L 467.239533 252.485858 
L 468.497234 266.747373 
L 469.754935 283.415553 
L 471.012636 245.988377 
L 473.528038 284.841889 
L 474.785739 277.160115 
L 476.04344 266.407324 
L 477.301141 279.63102 
L 478.558842 287.391627 
L 479.816543 287.929991 
L 481.074244 272.260268 
L 482.331945 292.235804 
L 483.589646 298.62272 
L 484.847347 314.156814 
L 486.105048 300.413821 
L 487.362749 312.93198 
L 488.62045 311.376281 
L 489.878151 318.01504 
L 491.135852 295.454473 
L 492.393553 297.808841 
L 493.651254 289.843332 
L 494.908955 320.394124 
L 496.166656 295.713145 
L 497.424357 294.050094 
L 498.682058 320.935835 
L 499.939759 360.589837 
L 501.19746 327.816771 
L 502.455161 325.599959 
L 503.712862 340.591004 
L 504.970563 381.942171 
L 506.228264 335.654096 
L 507.485965 331.650146 
L 508.743666 338.231735 
L 510.001367 372.312299 
L 511.259068 333.038833 
L 512.516769 318.282361 
L 515.032171 359.897287 
L 516.289872 320.99828 
L 517.547573 314.631287 
L 518.805273 305.706844 
L 520.062974 327.020645 
L 521.320675 299.507372 
L 522.578376 290.627942 
L 523.836077 302.266885 
L 525.093778 309.657801 
L 526.351479 279.719145 
L 527.60918 288.799915 
L 528.866881 304.805858 
L 530.124582 313.618718 
L 531.382283 302.412877 
L 532.639984 307.0638 
L 533.897685 316.69394 
L 535.155386 328.046121 
L 537.670788 278.957 
L 538.928489 298.26556 
L 540.18619 312.469744 
L 541.443891 290.009942 
L 542.701592 276.431738 
L 543.959293 287.116246 
L 545.216994 299.631834 
L 546.474695 292.658087 
L 547.732396 276.392589 
L 548.990097 279.620764 
L 550.247798 319.180401 
L 551.505499 287.290247 
L 552.7632 276.023406 
L 554.020901 288.170132 
L 555.278602 341.148406 
L 556.536303 305.489169 
L 557.794004 293.208635 
L 559.051705 310.585511 
L 560.309406 343.405866 
L 561.567107 320.285326 
L 562.824808 304.876497 
L 565.34021 342.744593 
L 566.597911 303.368061 
L 567.855612 289.569504 
L 569.113313 311.052084 
L 570.371014 321.641559 
L 571.628715 284.98689 
L 572.886415 278.034512 
L 574.144116 298.893549 
L 575.401817 300.057063 
L 576.659518 254.155442 
L 577.917219 263.333147 
L 579.17492 275.900952 
L 580.432621 272.78527 
L 581.690322 253.87567 
L 582.948023 238.288288 
L 584.205724 249.293913 
L 585.463425 252.269388 
L 586.721126 249.170816 
L 587.978827 232.710779 
L 589.236528 221.62466 
L 590.494229 243.530112 
L 591.75193 237.234107 
L 593.009631 203.597623 
L 594.267332 216.769156 
L 595.525033 238.325669 
L 596.782734 241.589244 
L 598.040435 229.168288 
L 599.298136 231.513177 
L 600.555837 251.326521 
L 601.813538 234.589148 
L 603.071239 223.3286 
L 604.32894 245.76607 
L 605.586641 262.767631 
L 606.844342 257.16238 
L 608.102043 259.585915 
L 609.359744 287.611685 
L 610.617445 311.401077 
L 611.875146 290.692316 
L 613.132847 285.480535 
L 614.390548 275.39049 
L 615.648249 302.401523 
L 616.90595 264.54711 
L 618.163651 238.907895 
L 619.421352 249.079344 
L 620.679053 267.159534 
L 621.936754 229.399486 
L 623.194455 225.246787 
L 624.452156 247.547504 
L 625.709857 272.305013 
L 626.967557 229.897951 
L 628.225258 212.78944 
L 629.482959 217.701633 
L 630.74066 248.847209 
L 631.998361 195.415965 
L 633.256062 162.891743 
L 634.513763 194.558947 
L 635.771464 219.164547 
L 637.029165 182.084784 
L 638.286866 172.658234 
L 639.544567 176.295919 
L 640.802268 167.896157 
L 642.059969 158.015593 
L 643.31767 144.281356 
L 644.575371 131.794634 
L 645.833072 136.481091 
L 647.090773 128.603332 
L 648.348474 110.146381 
L 649.606175 114.959174 
L 650.863876 122.177455 
L 652.121577 92.570092 
L 653.379278 75.17032 
L 654.636979 83.109615 
L 655.89468 100.884112 
L 657.152381 80.259673 
L 658.410082 83.244895 
L 660.925484 97.05486 
L 662.183185 82.608391 
L 663.440886 82.330333 
L 664.698587 92.681058 
L 665.956288 112.203812 
L 667.213989 124.432612 
L 669.729391 162.222356 
L 670.987092 176.495895 
L 672.244793 181.318114 
L 673.502494 180.901481 
L 674.760195 185.489504 
L 676.017896 199.961384 
L 677.275597 173.550464 
L 678.533298 162.485902 
L 679.790999 182.743513 
L 681.048699 205.724462 
L 682.3064 207.218572 
L 683.564101 209.835173 
L 684.821802 216.872946 
L 686.079503 235.08191 
L 687.337204 244.76448 
L 688.594905 230.906048 
L 689.852606 227.998508 
L 691.110307 241.758559 
L 692.368008 238.534508 
L 693.625709 231.511758 
L 694.88341 230.112601 
L 696.141111 248.507588 
L 697.398812 241.400783 
L 698.656513 228.214282 
L 701.171915 280.610866 
L 702.429616 264.891337 
L 703.687317 247.441197 
L 704.945018 268.232299 
L 706.202719 296.472344 
L 707.46042 266.022958 
L 708.718121 272.003524 
L 709.975822 289.201445 
L 711.233523 315.380846 
L 712.491224 274.37203 
L 713.748925 260.295709 
L 716.264327 279.172239 
L 718.779729 227.551697 
L 720.03743 242.480591 
L 721.295131 273.308397 
L 722.552832 236.50372 
L 723.810533 220.50964 
L 725.068234 232.309302 
L 726.325935 252.798674 
L 727.583636 246.321277 
L 728.841337 245.636948 
L 730.099038 254.820732 
L 731.356739 279.441568 
L 733.872141 250.488864 
L 735.129841 280.946256 
L 736.387542 316.342296 
L 737.645243 277.992685 
L 738.902944 248.53134 
L 740.160645 284.455703 
L 741.418346 300.488878 
L 741.418346 300.488878 
" clip-path="url(#p9bc5b30510)" style="fill: none; stroke: #ffa500; stroke-width: 2; stroke-linecap: square"/>
   </g>
   <g id="line2d_17">
    <path d="M 132.691074 310.153615 
L 133.948775 312.131864 
L 135.206476 295.065394 
L 136.464177 283.706733 
L 137.721878 307.61333 
L 138.979579 309.680508 
L 141.49498 292.003615 
L 142.752681 320.831081 
L 144.010382 324.167384 
L 145.268083 312.393937 
L 146.525784 297.047152 
L 147.783485 313.656582 
L 149.041186 315.847713 
L 150.298887 297.028836 
L 151.556588 281.902511 
L 152.814289 299.123488 
L 154.07199 303.16913 
L 155.329691 286.446002 
L 156.587392 278.415878 
L 157.845093 307.454298 
L 159.102794 309.263447 
L 161.618196 292.997734 
L 162.875897 314.064271 
L 164.133598 316.057891 
L 165.391299 297.141034 
L 166.649 285.723516 
L 167.906701 309.322143 
L 169.164402 302.215793 
L 170.422103 287.314775 
L 171.679804 279.211388 
L 172.937505 300.384847 
L 174.195206 311.16945 
L 175.452907 311.097124 
L 176.710608 305.983939 
L 177.968309 329.092295 
L 179.22601 336.799321 
L 180.483711 332.813473 
L 181.741412 325.00089 
L 182.999113 347.323002 
L 184.256814 351.411408 
L 186.772216 324.047313 
L 188.029917 339.474458 
L 189.287618 330.522166 
L 190.545319 319.909609 
L 191.80302 312.423901 
L 193.060721 332.468497 
L 194.318422 328.754308 
L 195.576122 317.287867 
L 196.833823 318.444553 
L 198.091524 335.178365 
L 199.349225 340.723044 
L 200.606926 326.206686 
L 201.864627 324.252322 
L 203.122328 340.723901 
L 204.380029 347.742875 
L 205.63773 332.485822 
L 206.895431 326.958039 
L 208.153132 342.54751 
L 209.410833 346.088769 
L 210.668534 331.761702 
L 211.926235 320.113682 
L 213.183936 336.775917 
L 214.441637 337.335489 
L 215.699338 319.76825 
L 216.957039 310.525984 
L 218.21474 316.357907 
L 219.472441 318.944303 
L 220.730142 306.640124 
L 221.987843 296.693687 
L 223.245544 309.763626 
L 224.503245 309.507578 
L 225.760946 286.166578 
L 227.018647 277.912031 
L 228.276348 299.974802 
L 229.534049 309.125729 
L 230.79175 292.023699 
L 232.049451 284.62475 
L 233.307152 305.02356 
L 234.564853 313.999764 
L 235.822554 303.480366 
L 237.080255 301.066712 
L 238.337956 319.524039 
L 239.595657 320.180813 
L 240.853358 314.063923 
L 242.111059 312.435041 
L 243.36876 332.820007 
L 244.626461 332.423082 
L 245.884162 329.082254 
L 247.141863 317.90327 
L 248.399564 335.512817 
L 249.657264 337.091009 
L 250.914965 332.614248 
L 252.172666 323.018356 
L 253.430367 346.361552 
L 254.688068 345.741597 
L 255.945769 329.701566 
L 257.20347 316.104618 
L 258.461171 329.273473 
L 259.718872 331.901401 
L 260.976573 317.371949 
L 262.234274 304.357574 
L 263.491975 326.447899 
L 264.749676 330.652386 
L 266.007377 320.174949 
L 267.265078 315.733989 
L 268.522779 332.933276 
L 269.78048 335.56838 
L 271.038181 328.593884 
L 272.295882 318.482523 
L 273.553583 330.848371 
L 274.811284 327.044879 
L 276.068985 305.279741 
L 277.326686 298.134296 
L 278.584387 309.16204 
L 279.842088 307.28434 
L 281.099789 285.791959 
L 282.35749 284.991175 
L 283.615191 301.320564 
L 284.872892 305.954537 
L 286.130593 292.067373 
L 287.388294 293.249738 
L 288.645995 312.561538 
L 289.903696 315.168392 
L 291.161397 298.670116 
L 292.419098 300.910063 
L 293.676799 317.670626 
L 294.9345 318.442892 
L 296.192201 303.061618 
L 297.449902 299.610198 
L 298.707603 320.11004 
L 299.965304 323.740709 
L 301.223005 306.752858 
L 302.480706 300.506712 
L 303.738406 319.087563 
L 304.996107 328.337649 
L 306.253808 319.637308 
L 307.511509 319.260627 
L 308.76921 336.346565 
L 310.026911 341.615354 
L 311.284612 339.741296 
L 312.542313 341.747234 
L 313.800014 356.783667 
L 315.057715 363.368041 
L 316.315416 359.293506 
L 317.573117 350.206764 
L 318.830818 364.173324 
L 320.088519 365.559467 
L 321.34622 350.392226 
L 322.603921 345.337603 
L 323.861622 360.554169 
L 325.119323 359.456099 
L 326.377024 355.742955 
L 327.634725 349.229408 
L 328.892426 363.060714 
L 330.150127 365.558423 
L 331.407828 352.21704 
L 332.665529 343.447827 
L 333.92323 356.559672 
L 335.180931 358.204273 
L 336.438632 341.238674 
L 337.696333 331.796754 
L 338.954034 347.882655 
L 340.211735 349.649602 
L 341.469436 335.176088 
L 342.727137 332.493052 
L 343.984838 348.607123 
L 345.242539 347.575542 
L 346.50024 341.727285 
L 347.757941 334.376884 
L 349.015642 339.360947 
L 350.273343 347.416885 
L 351.531044 336.600791 
L 352.788745 333.141954 
L 354.046446 347.724854 
L 355.304147 358.149057 
L 356.561848 345.838157 
L 357.819548 336.822135 
L 359.077249 354.998751 
L 360.33495 359.1232 
L 361.592651 351.587525 
L 362.850352 343.376197 
L 364.108053 356.957159 
L 365.365754 357.506528 
L 367.881156 339.565019 
L 369.138857 352.409785 
L 370.396558 350.720626 
L 371.654259 337.971029 
L 372.91196 332.812509 
L 374.169661 341.314106 
L 375.427362 341.846418 
L 376.685063 330.829546 
L 377.942764 323.768585 
L 379.200465 337.230574 
L 380.458166 333.25359 
L 381.715867 318.890935 
L 382.973568 317.159602 
L 384.231269 330.912905 
L 385.48897 332.523793 
L 386.746671 316.945114 
L 388.004372 316.628549 
L 389.262073 331.089664 
L 390.519774 329.064821 
L 391.777475 308.343341 
L 393.035176 311.344147 
L 394.292877 325.02724 
L 395.550578 325.876947 
L 396.808279 315.543332 
L 398.06598 312.821736 
L 399.323681 320.148573 
L 400.581382 322.052541 
L 401.839083 305.044875 
L 403.096784 301.034151 
L 404.354485 303.833402 
L 405.612186 300.045173 
L 406.869887 291.773489 
L 408.127588 289.866467 
L 409.385289 296.375462 
L 410.64299 303.636051 
L 411.90069 293.159551 
L 413.158391 295.120396 
L 414.416092 314.15344 
L 415.673793 324.295166 
L 416.931494 320.594126 
L 418.189195 322.038269 
L 419.446896 334.05491 
L 420.704597 348.289139 
L 421.962298 336.749595 
L 423.219999 338.927284 
L 424.4777 355.714865 
L 425.735401 358.480939 
L 426.993102 346.277256 
L 428.250803 347.134381 
L 429.508504 354.442098 
L 430.766205 360.005388 
L 432.023906 352.696332 
L 433.281607 351.488876 
L 434.539308 358.483831 
L 435.797009 366.33409 
L 437.05471 356.022754 
L 438.312411 362.375127 
L 439.570112 369.526195 
L 440.827813 378.565996 
L 442.085514 370.918952 
L 443.343215 374.537732 
L 444.600916 385.803074 
L 445.858617 379.844439 
L 447.116318 374.984678 
L 448.374019 370.60212 
L 449.63172 375.290531 
L 450.889421 384.334643 
L 452.147122 370.481995 
L 453.404823 350.292506 
L 454.662524 355.243204 
L 455.920225 354.047584 
L 457.177926 343.776281 
L 458.435627 331.858048 
L 459.693328 331.656011 
L 460.951029 324.503844 
L 463.466431 299.030114 
L 464.724131 295.273483 
L 467.239533 288.422297 
L 468.497234 287.935641 
L 469.754935 294.972717 
L 471.012636 305.07026 
L 472.270337 300.446382 
L 473.528038 300.44341 
L 474.785739 311.289923 
L 476.04344 306.816616 
L 477.301141 301.389999 
L 478.558842 299.709864 
L 479.816543 307.589605 
L 481.074244 309.230376 
L 482.331945 308.855035 
L 483.589646 298.68961 
L 484.847347 299.800774 
L 486.105048 303.422767 
L 487.362749 294.413868 
L 488.62045 293.626098 
L 489.878151 303.935478 
L 491.135852 309.191683 
L 492.393553 304.356797 
L 493.651254 298.516627 
L 494.908955 310.155864 
L 497.424357 323.194419 
L 498.682058 332.075214 
L 499.939759 343.638376 
L 501.19746 346.57422 
L 502.455161 342.881239 
L 503.712862 350.271057 
L 504.970563 368.661626 
L 506.228264 376.039555 
L 507.485965 375.37946 
L 508.743666 366.095448 
L 510.001367 375.461533 
L 511.259068 376.989571 
L 512.516769 369.016082 
L 513.77447 365.559038 
L 515.032171 359.582784 
L 516.289872 348.869811 
L 517.547573 336.193932 
L 518.805273 328.461201 
L 520.062974 313.803939 
L 521.320675 307.121907 
L 522.578376 298.783787 
L 523.836077 296.992445 
L 525.093778 298.106903 
L 526.351479 302.334097 
L 527.60918 299.751289 
L 528.866881 302.817245 
L 530.124582 310.712464 
L 531.382283 321.747464 
L 532.639984 322.854451 
L 533.897685 332.625307 
L 535.155386 336.399638 
L 536.413087 336.36547 
L 537.670788 334.572709 
L 538.928489 339.676013 
L 540.18619 347.603444 
L 541.443891 353.480193 
L 542.701592 345.240909 
L 543.959293 345.386526 
L 545.216994 349.877667 
L 546.474695 360.384479 
L 547.732396 348.302608 
L 548.990097 342.253197 
L 550.247798 349.459802 
L 551.505499 343.713273 
L 552.7632 326.362639 
L 554.020901 321.627688 
L 555.278602 326.248647 
L 556.536303 329.659418 
L 557.794004 318.890373 
L 559.051705 310.304801 
L 560.309406 318.531874 
L 561.567107 320.008954 
L 562.824808 313.934721 
L 564.082509 310.225941 
L 565.34021 318.022591 
L 566.597911 312.025959 
L 567.855612 301.173073 
L 569.113313 293.285674 
L 570.371014 301.939234 
L 571.628715 302.883118 
L 572.886415 294.657036 
L 574.144116 293.929461 
L 575.401817 296.417342 
L 576.659518 286.255453 
L 577.917219 278.602224 
L 579.17492 279.939953 
L 580.432621 274.577602 
L 581.690322 276.312309 
L 582.948023 277.718 
L 585.463425 296.460776 
L 586.721126 296.836733 
L 587.978827 307.639465 
L 589.236528 310.718515 
L 590.494229 321.62501 
L 591.75193 325.123398 
L 593.009631 320.070195 
L 594.267332 313.399945 
L 595.525033 312.368097 
L 596.782734 305.298084 
L 598.040435 305.91188 
L 599.298136 305.86427 
L 600.555837 312.919153 
L 601.813538 317.39396 
L 603.071239 315.762025 
L 604.32894 310.795474 
L 605.586641 310.124802 
L 606.844342 303.401747 
L 608.102043 301.935405 
L 609.359744 293.344692 
L 610.617445 289.072083 
L 611.875146 274.008658 
L 613.132847 260.297048 
L 614.390548 257.579174 
L 615.648249 260.364849 
L 616.90595 251.365965 
L 618.163651 250.722954 
L 619.421352 260.939443 
L 620.679053 281.851901 
L 621.936754 289.511155 
L 623.194455 293.730959 
L 624.452156 294.166952 
L 625.709857 306.469149 
L 626.967557 307.95536 
L 628.225258 307.10244 
L 629.482959 301.963173 
L 630.74066 308.556464 
L 631.998361 306.713388 
L 633.256062 299.477595 
L 634.513763 300.506016 
L 635.771464 313.12127 
L 637.029165 314.665589 
L 638.286866 314.5332 
L 639.544567 312.461068 
L 640.802268 325.353203 
L 642.059969 330.752882 
L 643.31767 326.246933 
L 644.575371 319.024556 
L 645.833072 330.605605 
L 647.090773 336.011041 
L 648.348474 333.576394 
L 649.606175 339.439272 
L 650.863876 351.84068 
L 652.121577 355.884796 
L 653.379278 359.140659 
L 654.636979 356.775232 
L 655.89468 363.900112 
L 657.152381 360.608393 
L 658.410082 348.867133 
L 659.667783 342.292132 
L 660.925484 347.675101 
L 662.183185 347.375138 
L 663.440886 341.971631 
L 664.698587 338.857287 
L 665.956288 342.454886 
L 667.213989 343.302076 
L 668.47169 336.88201 
L 669.729391 331.304501 
L 670.987092 330.96563 
L 672.244793 329.868819 
L 673.502494 316.298033 
L 674.760195 320.116038 
L 676.017896 317.183782 
L 677.275597 311.066651 
L 678.533298 308.360854 
L 679.790999 306.603278 
L 681.048699 304.404515 
L 682.3064 302.882609 
L 683.564101 293.927132 
L 684.821802 293.383894 
L 686.079503 300.760162 
L 687.337204 296.30094 
L 688.594905 289.399278 
L 689.852606 289.080678 
L 691.110307 285.08171 
L 692.368008 275.161568 
L 693.625709 262.568513 
L 694.88341 264.823375 
L 696.141111 269.825861 
L 697.398812 278.192633 
L 698.656513 293.126749 
L 699.914214 302.578202 
L 701.171915 326.100031 
L 702.429616 333.541824 
L 703.687317 347.880753 
L 704.945018 350.161885 
L 706.202719 364.17402 
L 707.46042 364.483944 
L 708.718121 368.949834 
L 709.975822 365.937085 
L 711.233523 364.000796 
L 712.491224 354.836238 
L 713.748925 355.688141 
L 715.006626 350.089237 
L 716.264327 351.939329 
L 717.522028 354.110297 
L 718.779729 344.476034 
L 720.03743 341.314508 
L 721.295131 346.365408 
L 722.552832 353.511335 
L 723.810533 356.676744 
L 725.068234 357.604374 
L 726.325935 372.519798 
L 727.583636 382.803499 
L 728.841337 378.857872 
L 730.099038 370.052215 
L 731.356739 369.285063 
L 732.61444 365.82727 
L 733.872141 356.696211 
L 735.129841 349.652173 
L 736.387542 359.136937 
L 737.645243 353.66378 
L 738.902944 343.629727 
L 740.160645 344.068478 
L 741.418346 357.88187 
L 741.418346 357.88187 
" clip-path="url(#p9bc5b30510)" style="fill: none; stroke-dasharray: 7.4,3.2; stroke-dashoffset: 0; stroke: #0000ff; stroke-width: 2"/>
   </g>
   <g id="line2d_18">
    <path d="M 132.691074 273.486334 
L 133.948775 222.162301 
L 135.206476 224.797352 
L 137.721878 274.135825 
L 138.979579 242.792657 
L 141.49498 311.970128 
L 142.752681 311.831821 
L 144.010382 247.905574 
L 145.268083 294.129972 
L 146.525784 306.125566 
L 147.783485 291.63794 
L 149.041186 271.40084 
L 150.298887 296.143648 
L 151.556588 332.172711 
L 152.814289 329.339265 
L 154.07199 283.854679 
L 155.329691 307.24578 
L 156.587392 334.021331 
L 157.845093 319.324706 
L 159.102794 271.097048 
L 160.360495 293.689587 
L 161.618196 304.605588 
L 162.875897 281.824883 
L 164.133598 238.420382 
L 165.391299 255.326561 
L 166.649 290.366405 
L 167.906701 288.736854 
L 169.164402 257.944394 
L 170.422103 300.681972 
L 171.679804 293.458256 
L 172.937505 292.125962 
L 174.195206 252.894752 
L 175.452907 273.100683 
L 176.710608 286.064395 
L 177.968309 281.423031 
L 179.22601 244.34142 
L 180.483711 255.979533 
L 181.741412 300.444776 
L 182.999113 318.893345 
L 184.256814 273.486066 
L 185.514515 273.777675 
L 186.772216 313.607525 
L 188.029917 328.148679 
L 189.287618 290.350044 
L 190.545319 304.122011 
L 191.80302 325.815894 
L 193.060721 326.49243 
L 194.318422 292.861329 
L 195.576122 312.73187 
L 196.833823 337.895328 
L 198.091524 316.050366 
L 199.349225 269.455795 
L 201.864627 303.15309 
L 203.122328 309.442857 
L 204.380029 288.253277 
L 205.63773 289.156138 
L 206.895431 322.76504 
L 208.153132 330.763352 
L 209.410833 282.546325 
L 210.668534 294.434514 
L 211.926235 327.008408 
L 213.183936 343.790071 
L 214.441637 314.042768 
L 215.699338 341.145006 
L 216.957039 365.014516 
L 218.21474 359.405356 
L 219.472441 335.916677 
L 220.730142 360.212915 
L 221.987843 373.838837 
L 223.245544 390.839541 
L 224.503245 359.622308 
L 225.760946 364.594857 
L 227.018647 374.274187 
L 228.276348 362.986245 
L 229.534049 320.607488 
L 230.79175 311.629731 
L 232.049451 320.120671 
L 233.307152 320.574685 
L 234.564853 271.573984 
L 235.822554 279.108588 
L 237.080255 305.34208 
L 238.337956 310.777614 
L 239.595657 250.155965 
L 240.853358 246.635485 
L 242.111059 294.943342 
L 243.36876 314.255865 
L 244.626461 260.582069 
L 245.884162 276.757112 
L 247.141863 312.25223 
L 248.399564 320.747052 
L 249.657264 238.321599 
L 250.914965 257.044827 
L 252.172666 292.894051 
L 253.430367 299.630201 
L 254.688068 238.90752 
L 255.945769 254.265712 
L 257.20347 295.40938 
L 258.461171 307.293873 
L 259.718872 256.066025 
L 260.976573 263.625211 
L 262.234274 296.23255 
L 263.491975 302.453953 
L 264.749676 254.345938 
L 266.007377 277.143915 
L 267.265078 294.659205 
L 268.522779 314.957304 
L 269.78048 279.718663 
L 271.038181 269.149138 
L 272.295882 293.647868 
L 273.553583 321.270956 
L 274.811284 272.418389 
L 276.068985 270.272619 
L 277.326686 307.698804 
L 278.584387 315.826024 
L 279.842088 262.371831 
L 281.099789 280.274673 
L 282.35749 303.373175 
L 283.615191 295.402444 
L 284.872892 225.122673 
L 286.130593 247.881019 
L 287.388294 268.464541 
L 288.645995 264.578065 
L 289.903696 189.723955 
L 291.161397 192.540986 
L 292.419098 234.084711 
L 293.676799 246.799873 
L 294.9345 191.815849 
L 296.192201 203.302802 
L 297.449902 250.441548 
L 298.707603 265.496618 
L 299.965304 217.623415 
L 301.223005 271.384934 
L 302.480706 307.946336 
L 303.738406 325.844974 
L 304.996107 273.832703 
L 306.253808 318.333051 
L 307.511509 347.217231 
L 308.76921 353.311789 
L 310.026911 283.127212 
L 311.284612 330.562467 
L 312.542313 360.473113 
L 313.800014 354.043032 
L 315.057715 291.373565 
L 316.315416 276.753123 
L 317.573117 311.357001 
L 318.830818 302.485364 
L 320.088519 229.357311 
L 321.34622 241.687116 
L 322.603921 280.354738 
L 323.861622 279.492579 
L 325.119323 226.002451 
L 326.377024 265.233662 
L 327.634725 298.873412 
L 328.892426 288.194179 
L 330.150127 237.480728 
L 331.407828 258.965933 
L 332.665529 297.497444 
L 333.92323 285.375005 
L 335.180931 230.990826 
L 336.438632 252.442077 
L 337.696333 278.192821 
L 338.954034 295.18094 
L 340.211735 259.907835 
L 341.469436 263.894245 
L 342.727137 268.765307 
L 343.984838 282.264143 
L 345.242539 242.804011 
L 346.50024 271.553981 
L 347.757941 296.429125 
L 349.015642 297.579544 
L 350.273343 262.557828 
L 351.531044 275.442198 
L 352.788745 297.180237 
L 354.046446 285.237261 
L 355.304147 239.952677 
L 356.561848 278.55871 
L 357.819548 292.815566 
L 359.077249 278.771458 
L 360.33495 253.189306 
L 361.592651 278.636472 
L 362.850352 295.742868 
L 364.108053 292.347734 
L 365.365754 251.661857 
L 366.623455 275.525021 
L 369.138857 280.518162 
L 370.396558 250.331037 
L 371.654259 278.61971 
L 372.91196 281.981639 
L 374.169661 274.389891 
L 375.427362 219.411437 
L 376.685063 261.237719 
L 377.942764 283.994485 
L 379.200465 274.113359 
L 380.458166 228.321848 
L 381.715867 270.620273 
L 382.973568 282.966814 
L 384.231269 285.413672 
L 385.48897 242.134035 
L 386.746671 269.785481 
L 388.004372 283.511738 
L 389.262073 269.553613 
L 390.519774 243.47479 
L 391.777475 259.570652 
L 393.035176 281.449943 
L 394.292877 265.525993 
L 395.550578 216.47653 
L 396.808279 246.742328 
L 398.06598 272.067603 
L 399.323681 262.112088 
L 400.581382 215.451429 
L 401.839083 237.076279 
L 403.096784 291.308549 
L 404.354485 285.341292 
L 405.612186 230.73759 
L 406.869887 247.716926 
L 408.127588 282.948819 
L 409.385289 281.667698 
L 410.64299 251.430954 
L 411.90069 260.656484 
L 413.158391 283.83398 
L 414.416092 288.421467 
L 415.673793 263.544262 
L 416.931494 257.498279 
L 418.189195 295.901257 
L 419.446896 326.16818 
L 420.704597 278.476637 
L 421.962298 262.915283 
L 423.219999 284.059421 
L 424.4777 292.918071 
L 425.735401 251.709066 
L 426.993102 250.731657 
L 428.250803 274.179098 
L 429.508504 278.853023 
L 430.766205 270.317472 
L 432.023906 287.88163 
L 433.281607 307.829318 
L 434.539308 317.689558 
L 435.797009 298.425021 
L 437.05471 302.386876 
L 438.312411 333.608581 
L 439.570112 342.954851 
L 440.827813 312.441628 
L 442.085514 313.50644 
L 443.343215 328.736474 
L 444.600916 309.85791 
L 445.858617 269.604678 
L 447.116318 275.334953 
L 448.374019 291.120784 
L 449.63172 278.867911 
L 450.889421 244.402982 
L 452.147122 248.776837 
L 453.404823 262.928538 
L 454.662524 265.725566 
L 455.920225 239.877646 
L 457.177926 250.050407 
L 458.435627 249.899997 
L 459.693328 245.874064 
L 460.951029 216.975665 
L 462.20873 215.292719 
L 463.466431 226.160198 
L 464.724131 245.685764 
L 465.981832 210.135029 
L 467.239533 233.329636 
L 468.497234 248.136103 
L 471.012636 211.000294 
L 472.270337 234.388369 
L 473.528038 219.97939 
L 474.785739 225.286739 
L 476.04344 213.743714 
L 477.301141 222.933416 
L 478.558842 226.105143 
L 479.816543 236.71762 
L 481.074244 225.644408 
L 482.331945 229.035766 
L 483.589646 251.487615 
L 484.847347 269.444093 
L 486.105048 248.186766 
L 487.362749 250.065028 
L 488.62045 272.067737 
L 489.878151 283.696129 
L 491.135852 260.273002 
L 492.393553 248.132032 
L 493.651254 290.996724 
L 494.908955 293.452257 
L 496.166656 253.765908 
L 497.424357 268.684278 
L 498.682058 304.498638 
L 499.939759 296.165419 
L 501.19746 264.696021 
L 502.455161 276.529744 
L 503.712862 322.643122 
L 504.970563 319.349556 
L 506.228264 278.70422 
L 507.485965 291.325044 
L 508.743666 325.236962 
L 510.001367 333.228928 
L 511.259068 280.249288 
L 512.516769 286.177289 
L 513.77447 313.886896 
L 515.032171 315.460375 
L 516.289872 266.167397 
L 517.547573 259.404175 
L 518.805273 286.18958 
L 520.062974 301.453087 
L 521.320675 255.619615 
L 523.836077 295.710949 
L 525.093778 296.191393 
L 526.351479 260.538662 
L 527.60918 282.994502 
L 528.866881 280.510637 
L 530.124582 295.464327 
L 531.382283 266.779747 
L 532.639984 268.929534 
L 533.897685 282.8638 
L 535.155386 289.852597 
L 536.413087 238.060464 
L 537.670788 252.782956 
L 538.928489 262.339537 
L 540.18619 277.27775 
L 541.443891 228.60486 
L 542.701592 239.437047 
L 543.959293 265.217541 
L 545.216994 288.249341 
L 546.474695 248.685526 
L 547.732396 246.687675 
L 548.990097 275.167486 
L 550.247798 288.420744 
L 551.505499 242.467282 
L 552.7632 241.057789 
L 554.020901 303.132605 
L 555.278602 313.305608 
L 556.536303 259.535198 
L 557.794004 260.148861 
L 559.051705 297.974246 
L 560.309406 323.110659 
L 561.567107 264.095318 
L 562.824808 264.771748 
L 564.082509 296.028183 
L 565.34021 287.727498 
L 566.597911 226.058738 
L 567.855612 240.262895 
L 569.113313 267.456444 
L 570.371014 256.026608 
L 571.628715 213.568883 
L 572.886415 227.350677 
L 574.144116 236.423736 
L 576.659518 187.936442 
L 577.917219 205.60565 
L 579.17492 218.79448 
L 580.432621 220.371869 
L 581.690322 177.143431 
L 582.948023 196.783738 
L 584.205724 207.952948 
L 585.463425 244.856568 
L 586.721126 191.632984 
L 587.978827 193.378483 
L 589.236528 205.146628 
L 590.494229 244.182656 
L 591.75193 160.962416 
L 593.009631 169.994398 
L 594.267332 193.841762 
L 595.525033 225.206808 
L 596.782734 166.135797 
L 598.040435 171.156867 
L 599.298136 202.398763 
L 600.555837 213.08702 
L 601.813538 169.04647 
L 603.071239 196.719713 
L 604.32894 215.628028 
L 605.586641 229.261849 
L 606.844342 197.22814 
L 608.102043 233.851987 
L 609.359744 263.981728 
L 610.617445 271.251635 
L 611.875146 226.666991 
L 613.132847 217.087488 
L 614.390548 250.36874 
L 615.648249 242.117807 
L 616.90595 187.789728 
L 618.163651 193.934386 
L 619.421352 224.487294 
L 620.679053 219.243032 
L 621.936754 177.892936 
L 623.194455 193.772623 
L 624.452156 231.223282 
L 625.709857 234.689028 
L 626.967557 174.439695 
L 628.225258 187.405281 
L 629.482959 224.004467 
L 630.74066 216.350541 
L 631.998361 150.261225 
L 633.256062 175.421041 
L 634.513763 192.616285 
L 635.771464 177.106638 
L 637.029165 130.316028 
L 638.286866 132.202404 
L 639.544567 133.374513 
L 640.802268 143.457302 
L 642.059969 105.198521 
L 643.31767 88.445429 
L 645.833072 120.88822 
L 647.090773 79.630667 
L 648.348474 81.437942 
L 649.606175 100.136267 
L 650.863876 86.93892 
L 652.121577 43.149598 
L 653.379278 35.502555 
L 654.636979 58.924664 
L 655.89468 55.662241 
L 657.152381 29.593378 
L 658.410082 35.923499 
L 659.667783 50.508675 
L 660.925484 50.727609 
L 662.183185 30.325103 
L 663.440886 33.324517 
L 664.698587 56.184779 
L 665.956288 67.56821 
L 667.213989 43.167968 
L 668.47169 55.951332 
L 669.729391 87.668289 
L 670.987092 104.875101 
L 672.244793 88.591045 
L 673.502494 96.88991 
L 674.760195 123.392034 
L 676.017896 122.278299 
L 677.275597 82.851371 
L 678.533298 99.441709 
L 679.790999 141.970555 
L 681.048699 153.485785 
L 682.3064 125.251953 
L 683.564101 137.512672 
L 686.079503 205.229317 
L 687.337204 167.035579 
L 688.594905 162.341142 
L 691.110307 208.146309 
L 692.368008 187.328349 
L 693.625709 188.329752 
L 696.141111 241.340855 
L 697.398812 204.191899 
L 698.656513 229.993601 
L 699.914214 249.958855 
L 701.171915 278.456286 
L 702.429616 228.876626 
L 703.687317 229.127318 
L 704.945018 266.228557 
L 706.202719 274.550691 
L 707.46042 233.789649 
L 708.718121 238.027259 
L 709.975822 274.207937 
L 711.233523 261.256731 
L 712.491224 212.682731 
L 713.748925 215.243903 
L 715.006626 248.709331 
L 716.264327 249.591412 
L 717.522028 191.95287 
L 718.779729 202.230546 
L 720.03743 244.011199 
L 721.295131 242.467523 
L 722.552832 192.72369 
L 723.810533 210.274032 
L 725.068234 234.898536 
L 726.325935 264.732626 
L 727.583636 229.061553 
L 728.841337 224.777938 
L 730.099038 253.88705 
L 731.356739 258.444841 
L 732.61444 204.558913 
L 733.872141 221.647421 
L 735.129841 271.930501 
L 736.387542 275.779837 
L 737.645243 217.918558 
L 738.902944 237.908902 
L 740.160645 266.761351 
L 741.418346 259.658322 
L 741.418346 259.658322 
" clip-path="url(#p9bc5b30510)" style="fill: none; stroke-dasharray: 7.4,3.2; stroke-dashoffset: 0; stroke: #ffa500; stroke-width: 2"/>
   </g>
   <g id="patch_3">
    <path d="M 102.25471 452.953378 
L 102.25471 9.433378 
" style="fill: none; stroke: #000000; stroke-width: 0.8; stroke-linejoin: miter; stroke-linecap: square"/>
   </g>
   <g id="patch_4">
    <path d="M 771.85471 452.953378 
L 771.85471 9.433378 
" style="fill: none; stroke: #000000; stroke-width: 0.8; stroke-linejoin: miter; stroke-linecap: square"/>
   </g>
   <g id="patch_5">
    <path d="M 102.25471 452.953378 
L 771.85471 452.953378 
" style="fill: none; stroke: #000000; stroke-width: 0.8; stroke-linejoin: miter; stroke-linecap: square"/>
   </g>
   <g id="patch_6">
    <path d="M 102.25471 9.433378 
L 771.85471 9.433378 
" style="fill: none; stroke: #000000; stroke-width: 0.8; stroke-linejoin: miter; stroke-linecap: square"/>
   </g>
   <g id="legend_1">
    <g id="text_17">
     <!-- Forecast Horizon -->
     <g transform="translate(887.954554 34.190878) scale(0.16 -0.16)">
      <defs>
       <path id="DejaVuSans-48" d="M 628 4666 
L 1259 4666 
L 1259 2753 
L 3553 2753 
L 3553 4666 
L 4184 4666 
L 4184 0 
L 3553 0 
L 3553 2222 
L 1259 2222 
L 1259 0 
L 628 0 
L 628 4666 
z
" transform="scale(0.015625)"/>
       <path id="DejaVuSans-69" d="M 603 3500 
L 1178 3500 
L 1178 0 
L 603 0 
L 603 3500 
z
M 603 4863 
L 1178 4863 
L 1178 4134 
L 603 4134 
L 603 4863 
z
" transform="scale(0.015625)"/>
       <path id="DejaVuSans-7a" d="M 353 3500 
L 3084 3500 
L 3084 2975 
L 922 459 
L 3084 459 
L 3084 0 
L 275 0 
L 275 525 
L 2438 3041 
L 353 3041 
L 353 3500 
z
" transform="scale(0.015625)"/>
      </defs>
      <use xlink:href="#DejaVuSans-46"/>
      <use xlink:href="#DejaVuSans-6f" transform="translate(53.894531 0)"/>
      <use xlink:href="#DejaVuSans-72" transform="translate(115.076172 0)"/>
      <use xlink:href="#DejaVuSans-65" transform="translate(153.939453 0)"/>
      <use xlink:href="#DejaVuSans-63" transform="translate(215.462891 0)"/>
      <use xlink:href="#DejaVuSans-61" transform="translate(270.443359 0)"/>
      <use xlink:href="#DejaVuSans-73" transform="translate(331.722656 0)"/>
      <use xlink:href="#DejaVuSans-74" transform="translate(383.822266 0)"/>
      <use xlink:href="#DejaVuSans-20" transform="translate(423.03125 0)"/>
      <use xlink:href="#DejaVuSans-48" transform="translate(454.818359 0)"/>
      <use xlink:href="#DejaVuSans-6f" transform="translate(530.013672 0)"/>
      <use xlink:href="#DejaVuSans-72" transform="translate(591.195312 0)"/>
      <use xlink:href="#DejaVuSans-69" transform="translate(632.308594 0)"/>
      <use xlink:href="#DejaVuSans-7a" transform="translate(660.091797 0)"/>
      <use xlink:href="#DejaVuSans-6f" transform="translate(712.582031 0)"/>
      <use xlink:href="#DejaVuSans-6e" transform="translate(773.763672 0)"/>
     </g>
    </g>
    <g id="line2d_19">
     <path d="M 817.93471 50.256191 
L 831.93471 50.256191 
L 845.93471 50.256191 
" style="fill: none; stroke: #0000ff; stroke-width: 2; stroke-linecap: square"/>
    </g>
    <g id="text_18">
     <!-- USA RMSE (6h Forecast) -->
     <g transform="translate(857.13471 55.156191) scale(0.14 -0.14)">
      <defs>
       <path id="DejaVuSans-55" d="M 556 4666 
L 1191 4666 
L 1191 1831 
Q 1191 1081 1462 751 
Q 1734 422 2344 422 
Q 2950 422 3222 751 
Q 3494 1081 3494 1831 
L 3494 4666 
L 4128 4666 
L 4128 1753 
Q 4128 841 3676 375 
Q 3225 -91 2344 -91 
Q 1459 -91 1007 375 
Q 556 841 556 1753 
L 556 4666 
z
" transform="scale(0.015625)"/>
       <path id="DejaVuSans-41" d="M 2188 4044 
L 1331 1722 
L 3047 1722 
L 2188 4044 
z
M 1831 4666 
L 2547 4666 
L 4325 0 
L 3669 0 
L 3244 1197 
L 1141 1197 
L 716 0 
L 50 0 
L 1831 4666 
z
" transform="scale(0.015625)"/>
       <path id="DejaVuSans-68" d="M 3513 2113 
L 3513 0 
L 2938 0 
L 2938 2094 
Q 2938 2591 2744 2837 
Q 2550 3084 2163 3084 
Q 1697 3084 1428 2787 
Q 1159 2491 1159 1978 
L 1159 0 
L 581 0 
L 581 4863 
L 1159 4863 
L 1159 2956 
Q 1366 3272 1645 3428 
Q 1925 3584 2291 3584 
Q 2894 3584 3203 3211 
Q 3513 2838 3513 2113 
z
" transform="scale(0.015625)"/>
      </defs>
      <use xlink:href="#DejaVuSans-55"/>
      <use xlink:href="#DejaVuSans-53" transform="translate(73.193359 0)"/>
      <use xlink:href="#DejaVuSans-41" transform="translate(138.544922 0)"/>
      <use xlink:href="#DejaVuSans-20" transform="translate(206.953125 0)"/>
      <use xlink:href="#DejaVuSans-52" transform="translate(238.740234 0)"/>
      <use xlink:href="#DejaVuSans-4d" transform="translate(308.222656 0)"/>
      <use xlink:href="#DejaVuSans-53" transform="translate(394.501953 0)"/>
      <use xlink:href="#DejaVuSans-45" transform="translate(457.978516 0)"/>
      <use xlink:href="#DejaVuSans-20" transform="translate(521.162109 0)"/>
      <use xlink:href="#DejaVuSans-28" transform="translate(552.949219 0)"/>
      <use xlink:href="#DejaVuSans-36" transform="translate(591.962891 0)"/>
      <use xlink:href="#DejaVuSans-68" transform="translate(655.585938 0)"/>
      <use xlink:href="#DejaVuSans-20" transform="translate(718.964844 0)"/>
      <use xlink:href="#DejaVuSans-46" transform="translate(750.751953 0)"/>
      <use xlink:href="#DejaVuSans-6f" transform="translate(804.646484 0)"/>
      <use xlink:href="#DejaVuSans-72" transform="translate(865.828125 0)"/>
      <use xlink:href="#DejaVuSans-65" transform="translate(904.691406 0)"/>
      <use xlink:href="#DejaVuSans-63" transform="translate(966.214844 0)"/>
      <use xlink:href="#DejaVuSans-61" transform="translate(1021.195312 0)"/>
      <use xlink:href="#DejaVuSans-73" transform="translate(1082.474609 0)"/>
      <use xlink:href="#DejaVuSans-74" transform="translate(1134.574219 0)"/>
      <use xlink:href="#DejaVuSans-29" transform="translate(1173.783203 0)"/>
     </g>
    </g>
    <g id="line2d_20">
     <path d="M 817.93471 70.805566 
L 831.93471 70.805566 
L 845.93471 70.805566 
" style="fill: none; stroke: #ffa500; stroke-width: 2; stroke-linecap: square"/>
    </g>
    <g id="text_19">
     <!-- South Africa RMSE (6h Forecast) -->
     <g transform="translate(857.13471 75.705566) scale(0.14 -0.14)">
      <defs>
       <path id="DejaVuSans-66" d="M 2375 4863 
L 2375 4384 
L 1825 4384 
Q 1516 4384 1395 4259 
Q 1275 4134 1275 3809 
L 1275 3500 
L 2222 3500 
L 2222 3053 
L 1275 3053 
L 1275 0 
L 697 0 
L 697 3053 
L 147 3053 
L 147 3500 
L 697 3500 
L 697 3744 
Q 697 4328 969 4595 
Q 1241 4863 1831 4863 
L 2375 4863 
z
" transform="scale(0.015625)"/>
      </defs>
      <use xlink:href="#DejaVuSans-53"/>
      <use xlink:href="#DejaVuSans-6f" transform="translate(63.476562 0)"/>
      <use xlink:href="#DejaVuSans-75" transform="translate(124.658203 0)"/>
      <use xlink:href="#DejaVuSans-74" transform="translate(188.037109 0)"/>
      <use xlink:href="#DejaVuSans-68" transform="translate(227.246094 0)"/>
      <use xlink:href="#DejaVuSans-20" transform="translate(290.625 0)"/>
      <use xlink:href="#DejaVuSans-41" transform="translate(322.412109 0)"/>
      <use xlink:href="#DejaVuSans-66" transform="translate(387.195312 0)"/>
      <use xlink:href="#DejaVuSans-72" transform="translate(422.400391 0)"/>
      <use xlink:href="#DejaVuSans-69" transform="translate(463.513672 0)"/>
      <use xlink:href="#DejaVuSans-63" transform="translate(491.296875 0)"/>
      <use xlink:href="#DejaVuSans-61" transform="translate(546.277344 0)"/>
      <use xlink:href="#DejaVuSans-20" transform="translate(607.556641 0)"/>
      <use xlink:href="#DejaVuSans-52" transform="translate(639.34375 0)"/>
      <use xlink:href="#DejaVuSans-4d" transform="translate(708.826172 0)"/>
      <use xlink:href="#DejaVuSans-53" transform="translate(795.105469 0)"/>
      <use xlink:href="#DejaVuSans-45" transform="translate(858.582031 0)"/>
      <use xlink:href="#DejaVuSans-20" transform="translate(921.765625 0)"/>
      <use xlink:href="#DejaVuSans-28" transform="translate(953.552734 0)"/>
      <use xlink:href="#DejaVuSans-36" transform="translate(992.566406 0)"/>
      <use xlink:href="#DejaVuSans-68" transform="translate(1056.189453 0)"/>
      <use xlink:href="#DejaVuSans-20" transform="translate(1119.568359 0)"/>
      <use xlink:href="#DejaVuSans-46" transform="translate(1151.355469 0)"/>
      <use xlink:href="#DejaVuSans-6f" transform="translate(1205.25 0)"/>
      <use xlink:href="#DejaVuSans-72" transform="translate(1266.431641 0)"/>
      <use xlink:href="#DejaVuSans-65" transform="translate(1305.294922 0)"/>
      <use xlink:href="#DejaVuSans-63" transform="translate(1366.818359 0)"/>
      <use xlink:href="#DejaVuSans-61" transform="translate(1421.798828 0)"/>
      <use xlink:href="#DejaVuSans-73" transform="translate(1483.078125 0)"/>
      <use xlink:href="#DejaVuSans-74" transform="translate(1535.177734 0)"/>
      <use xlink:href="#DejaVuSans-29" transform="translate(1574.386719 0)"/>
     </g>
    </g>
    <g id="line2d_21">
     <path d="M 817.93471 91.354941 
L 831.93471 91.354941 
L 845.93471 91.354941 
" style="fill: none; stroke-dasharray: 7.4,3.2; stroke-dashoffset: 0; stroke: #0000ff; stroke-width: 2"/>
    </g>
    <g id="text_20">
     <!-- USA RMSE (12h Forecast) -->
     <g transform="translate(857.13471 96.254941) scale(0.14 -0.14)">
      <use xlink:href="#DejaVuSans-55"/>
      <use xlink:href="#DejaVuSans-53" transform="translate(73.193359 0)"/>
      <use xlink:href="#DejaVuSans-41" transform="translate(138.544922 0)"/>
      <use xlink:href="#DejaVuSans-20" transform="translate(206.953125 0)"/>
      <use xlink:href="#DejaVuSans-52" transform="translate(238.740234 0)"/>
      <use xlink:href="#DejaVuSans-4d" transform="translate(308.222656 0)"/>
      <use xlink:href="#DejaVuSans-53" transform="translate(394.501953 0)"/>
      <use xlink:href="#DejaVuSans-45" transform="translate(457.978516 0)"/>
      <use xlink:href="#DejaVuSans-20" transform="translate(521.162109 0)"/>
      <use xlink:href="#DejaVuSans-28" transform="translate(552.949219 0)"/>
      <use xlink:href="#DejaVuSans-31" transform="translate(591.962891 0)"/>
      <use xlink:href="#DejaVuSans-32" transform="translate(655.585938 0)"/>
      <use xlink:href="#DejaVuSans-68" transform="translate(719.208984 0)"/>
      <use xlink:href="#DejaVuSans-20" transform="translate(782.587891 0)"/>
      <use xlink:href="#DejaVuSans-46" transform="translate(814.375 0)"/>
      <use xlink:href="#DejaVuSans-6f" transform="translate(868.269531 0)"/>
      <use xlink:href="#DejaVuSans-72" transform="translate(929.451172 0)"/>
      <use xlink:href="#DejaVuSans-65" transform="translate(968.314453 0)"/>
      <use xlink:href="#DejaVuSans-63" transform="translate(1029.837891 0)"/>
      <use xlink:href="#DejaVuSans-61" transform="translate(1084.818359 0)"/>
      <use xlink:href="#DejaVuSans-73" transform="translate(1146.097656 0)"/>
      <use xlink:href="#DejaVuSans-74" transform="translate(1198.197266 0)"/>
      <use xlink:href="#DejaVuSans-29" transform="translate(1237.40625 0)"/>
     </g>
    </g>
    <g id="line2d_22">
     <path d="M 817.93471 111.904316 
L 831.93471 111.904316 
L 845.93471 111.904316 
" style="fill: none; stroke-dasharray: 7.4,3.2; stroke-dashoffset: 0; stroke: #ffa500; stroke-width: 2"/>
    </g>
    <g id="text_21">
     <!-- South Africa RMSE (12h Forecast) -->
     <g transform="translate(857.13471 116.804316) scale(0.14 -0.14)">
      <use xlink:href="#DejaVuSans-53"/>
      <use xlink:href="#DejaVuSans-6f" transform="translate(63.476562 0)"/>
      <use xlink:href="#DejaVuSans-75" transform="translate(124.658203 0)"/>
      <use xlink:href="#DejaVuSans-74" transform="translate(188.037109 0)"/>
      <use xlink:href="#DejaVuSans-68" transform="translate(227.246094 0)"/>
      <use xlink:href="#DejaVuSans-20" transform="translate(290.625 0)"/>
      <use xlink:href="#DejaVuSans-41" transform="translate(322.412109 0)"/>
      <use xlink:href="#DejaVuSans-66" transform="translate(387.195312 0)"/>
      <use xlink:href="#DejaVuSans-72" transform="translate(422.400391 0)"/>
      <use xlink:href="#DejaVuSans-69" transform="translate(463.513672 0)"/>
      <use xlink:href="#DejaVuSans-63" transform="translate(491.296875 0)"/>
      <use xlink:href="#DejaVuSans-61" transform="translate(546.277344 0)"/>
      <use xlink:href="#DejaVuSans-20" transform="translate(607.556641 0)"/>
      <use xlink:href="#DejaVuSans-52" transform="translate(639.34375 0)"/>
      <use xlink:href="#DejaVuSans-4d" transform="translate(708.826172 0)"/>
      <use xlink:href="#DejaVuSans-53" transform="translate(795.105469 0)"/>
      <use xlink:href="#DejaVuSans-45" transform="translate(858.582031 0)"/>
      <use xlink:href="#DejaVuSans-20" transform="translate(921.765625 0)"/>
      <use xlink:href="#DejaVuSans-28" transform="translate(953.552734 0)"/>
      <use xlink:href="#DejaVuSans-31" transform="translate(992.566406 0)"/>
      <use xlink:href="#DejaVuSans-32" transform="translate(1056.189453 0)"/>
      <use xlink:href="#DejaVuSans-68" transform="translate(1119.8125 0)"/>
      <use xlink:href="#DejaVuSans-20" transform="translate(1183.191406 0)"/>
      <use xlink:href="#DejaVuSans-46" transform="translate(1214.978516 0)"/>
      <use xlink:href="#DejaVuSans-6f" transform="translate(1268.873047 0)"/>
      <use xlink:href="#DejaVuSans-72" transform="translate(1330.054688 0)"/>
      <use xlink:href="#DejaVuSans-65" transform="translate(1368.917969 0)"/>
      <use xlink:href="#DejaVuSans-63" transform="translate(1430.441406 0)"/>
      <use xlink:href="#DejaVuSans-61" transform="translate(1485.421875 0)"/>
      <use xlink:href="#DejaVuSans-73" transform="translate(1546.701172 0)"/>
      <use xlink:href="#DejaVuSans-74" transform="translate(1598.800781 0)"/>
      <use xlink:href="#DejaVuSans-29" transform="translate(1638.009766 0)"/>
     </g>
    </g>
   </g>
  </g>
 </g>
 <defs>
  <clipPath id="p9bc5b30510">
   <rect x="102.25471" y="9.433378" width="669.6" height="443.52"/>
  </clipPath>
 </defs>
</svg>
