<?xml version="1.0" encoding="utf-8" standalone="no"?>
<!DOCTYPE svg PUBLIC "-//W3C//DTD SVG 1.1//EN"
  "http://www.w3.org/Graphics/SVG/1.1/DTD/svg11.dtd">
<svg xmlns:xlink="http://www.w3.org/1999/xlink" width="1104.716898pt" height="564.68004pt" viewBox="0 0 1104.716898 564.68004" xmlns="http://www.w3.org/2000/svg" version="1.1">
 <metadata>
  <rdf:RDF xmlns:dc="http://purl.org/dc/elements/1.1/" xmlns:cc="http://creativecommons.org/ns#" xmlns:rdf="http://www.w3.org/1999/02/22-rdf-syntax-ns#">
   <cc:Work>
    <dc:type rdf:resource="http://purl.org/dc/dcmitype/StillImage"/>
    <dc:date>2025-05-10T17:30:14.143684</dc:date>
    <dc:format>image/svg+xml</dc:format>
    <dc:creator>
     <cc:Agent>
      <dc:title>Matplotlib v3.10.0, https://matplotlib.org/</dc:title>
     </cc:Agent>
    </dc:creator>
   </cc:Work>
  </rdf:RDF>
 </metadata>
 <defs>
  <style type="text/css">*{stroke-linejoin: round; stroke-linecap: butt}</style>
 </defs>
 <g id="figure_1">
  <g id="patch_1">
   <path d="M 0 564.68004 
L 1104.716898 564.68004 
L 1104.716898 0 
L 0 0 
z
" style="fill: #ffffff"/>
  </g>
  <g id="axes_1">
   <g id="patch_2">
    <path d="M 102.25471 450.72 
L 771.85471 450.72 
L 771.85471 7.2 
L 102.25471 7.2 
z
" style="fill: #ffffff"/>
   </g>
   <g id="matplotlib.axis_1">
    <g id="xtick_1">
     <g id="line2d_1">
      <defs>
       <path id="md884fdb35c" d="M 0 0 
L 0 3.5 
" style="stroke: #000000; stroke-width: 0.8"/>
      </defs>
      <g>
       <use xlink:href="#md884fdb35c" x="132.691074" y="450.72" style="stroke: #000000; stroke-width: 0.8"/>
      </g>
     </g>
     <g id="text_1">
      <!-- 2022-09-01 (18:00) -->
      <g transform="translate(12.518906 535.473553) rotate(-30) scale(0.14 -0.14)">
       <defs>
        <path id="DejaVuSans-32" d="M 1228 531 
L 3431 531 
L 3431 0 
L 469 0 
L 469 531 
Q 828 903 1448 1529 
Q 2069 2156 2228 2338 
Q 2531 2678 2651 2914 
Q 2772 3150 2772 3378 
Q 2772 3750 2511 3984 
Q 2250 4219 1831 4219 
Q 1534 4219 1204 4116 
Q 875 4013 500 3803 
L 500 4441 
Q 881 4594 1212 4672 
Q 1544 4750 1819 4750 
Q 2544 4750 2975 4387 
Q 3406 4025 3406 3419 
Q 3406 3131 3298 2873 
Q 3191 2616 2906 2266 
Q 2828 2175 2409 1742 
Q 1991 1309 1228 531 
z
" transform="scale(0.015625)"/>
        <path id="DejaVuSans-30" d="M 2034 4250 
Q 1547 4250 1301 3770 
Q 1056 3291 1056 2328 
Q 1056 1369 1301 889 
Q 1547 409 2034 409 
Q 2525 409 2770 889 
Q 3016 1369 3016 2328 
Q 3016 3291 2770 3770 
Q 2525 4250 2034 4250 
z
M 2034 4750 
Q 2819 4750 3233 4129 
Q 3647 3509 3647 2328 
Q 3647 1150 3233 529 
Q 2819 -91 2034 -91 
Q 1250 -91 836 529 
Q 422 1150 422 2328 
Q 422 3509 836 4129 
Q 1250 4750 2034 4750 
z
" transform="scale(0.015625)"/>
        <path id="DejaVuSans-2d" d="M 313 2009 
L 1997 2009 
L 1997 1497 
L 313 1497 
L 313 2009 
z
" transform="scale(0.015625)"/>
        <path id="DejaVuSans-39" d="M 703 97 
L 703 672 
Q 941 559 1184 500 
Q 1428 441 1663 441 
Q 2288 441 2617 861 
Q 2947 1281 2994 2138 
Q 2813 1869 2534 1725 
Q 2256 1581 1919 1581 
Q 1219 1581 811 2004 
Q 403 2428 403 3163 
Q 403 3881 828 4315 
Q 1253 4750 1959 4750 
Q 2769 4750 3195 4129 
Q 3622 3509 3622 2328 
Q 3622 1225 3098 567 
Q 2575 -91 1691 -91 
Q 1453 -91 1209 -44 
Q 966 3 703 97 
z
M 1959 2075 
Q 2384 2075 2632 2365 
Q 2881 2656 2881 3163 
Q 2881 3666 2632 3958 
Q 2384 4250 1959 4250 
Q 1534 4250 1286 3958 
Q 1038 3666 1038 3163 
Q 1038 2656 1286 2365 
Q 1534 2075 1959 2075 
z
" transform="scale(0.015625)"/>
        <path id="DejaVuSans-31" d="M 794 531 
L 1825 531 
L 1825 4091 
L 703 3866 
L 703 4441 
L 1819 4666 
L 2450 4666 
L 2450 531 
L 3481 531 
L 3481 0 
L 794 0 
L 794 531 
z
" transform="scale(0.015625)"/>
        <path id="DejaVuSans-20" transform="scale(0.015625)"/>
        <path id="DejaVuSans-28" d="M 1984 4856 
Q 1566 4138 1362 3434 
Q 1159 2731 1159 2009 
Q 1159 1288 1364 580 
Q 1569 -128 1984 -844 
L 1484 -844 
Q 1016 -109 783 600 
Q 550 1309 550 2009 
Q 550 2706 781 3412 
Q 1013 4119 1484 4856 
L 1984 4856 
z
" transform="scale(0.015625)"/>
        <path id="DejaVuSans-38" d="M 2034 2216 
Q 1584 2216 1326 1975 
Q 1069 1734 1069 1313 
Q 1069 891 1326 650 
Q 1584 409 2034 409 
Q 2484 409 2743 651 
Q 3003 894 3003 1313 
Q 3003 1734 2745 1975 
Q 2488 2216 2034 2216 
z
M 1403 2484 
Q 997 2584 770 2862 
Q 544 3141 544 3541 
Q 544 4100 942 4425 
Q 1341 4750 2034 4750 
Q 2731 4750 3128 4425 
Q 3525 4100 3525 3541 
Q 3525 3141 3298 2862 
Q 3072 2584 2669 2484 
Q 3125 2378 3379 2068 
Q 3634 1759 3634 1313 
Q 3634 634 3220 271 
Q 2806 -91 2034 -91 
Q 1263 -91 848 271 
Q 434 634 434 1313 
Q 434 1759 690 2068 
Q 947 2378 1403 2484 
z
M 1172 3481 
Q 1172 3119 1398 2916 
Q 1625 2713 2034 2713 
Q 2441 2713 2670 2916 
Q 2900 3119 2900 3481 
Q 2900 3844 2670 4047 
Q 2441 4250 2034 4250 
Q 1625 4250 1398 4047 
Q 1172 3844 1172 3481 
z
" transform="scale(0.015625)"/>
        <path id="DejaVuSans-3a" d="M 750 794 
L 1409 794 
L 1409 0 
L 750 0 
L 750 794 
z
M 750 3309 
L 1409 3309 
L 1409 2516 
L 750 2516 
L 750 3309 
z
" transform="scale(0.015625)"/>
        <path id="DejaVuSans-29" d="M 513 4856 
L 1013 4856 
Q 1481 4119 1714 3412 
Q 1947 2706 1947 2009 
Q 1947 1309 1714 600 
Q 1481 -109 1013 -844 
L 513 -844 
Q 928 -128 1133 580 
Q 1338 1288 1338 2009 
Q 1338 2731 1133 3434 
Q 928 4138 513 4856 
z
" transform="scale(0.015625)"/>
       </defs>
       <use xlink:href="#DejaVuSans-32"/>
       <use xlink:href="#DejaVuSans-30" transform="translate(63.623047 0)"/>
       <use xlink:href="#DejaVuSans-32" transform="translate(127.246094 0)"/>
       <use xlink:href="#DejaVuSans-32" transform="translate(190.869141 0)"/>
       <use xlink:href="#DejaVuSans-2d" transform="translate(254.492188 0)"/>
       <use xlink:href="#DejaVuSans-30" transform="translate(290.576172 0)"/>
       <use xlink:href="#DejaVuSans-39" transform="translate(354.199219 0)"/>
       <use xlink:href="#DejaVuSans-2d" transform="translate(417.822266 0)"/>
       <use xlink:href="#DejaVuSans-30" transform="translate(453.90625 0)"/>
       <use xlink:href="#DejaVuSans-31" transform="translate(517.529297 0)"/>
       <use xlink:href="#DejaVuSans-20" transform="translate(581.152344 0)"/>
       <use xlink:href="#DejaVuSans-28" transform="translate(612.939453 0)"/>
       <use xlink:href="#DejaVuSans-31" transform="translate(651.953125 0)"/>
       <use xlink:href="#DejaVuSans-38" transform="translate(715.576172 0)"/>
       <use xlink:href="#DejaVuSans-3a" transform="translate(779.199219 0)"/>
       <use xlink:href="#DejaVuSans-30" transform="translate(812.890625 0)"/>
       <use xlink:href="#DejaVuSans-30" transform="translate(876.513672 0)"/>
       <use xlink:href="#DejaVuSans-29" transform="translate(940.136719 0)"/>
      </g>
     </g>
    </g>
    <g id="xtick_2">
     <g id="line2d_2">
      <g>
       <use xlink:href="#md884fdb35c" x="253.430367" y="450.72" style="stroke: #000000; stroke-width: 0.8"/>
      </g>
     </g>
     <g id="text_2">
      <!-- 2022-09-25 (18:00) -->
      <g transform="translate(133.2582 535.473553) rotate(-30) scale(0.14 -0.14)">
       <defs>
        <path id="DejaVuSans-35" d="M 691 4666 
L 3169 4666 
L 3169 4134 
L 1269 4134 
L 1269 2991 
Q 1406 3038 1543 3061 
Q 1681 3084 1819 3084 
Q 2600 3084 3056 2656 
Q 3513 2228 3513 1497 
Q 3513 744 3044 326 
Q 2575 -91 1722 -91 
Q 1428 -91 1123 -41 
Q 819 9 494 109 
L 494 744 
Q 775 591 1075 516 
Q 1375 441 1709 441 
Q 2250 441 2565 725 
Q 2881 1009 2881 1497 
Q 2881 1984 2565 2268 
Q 2250 2553 1709 2553 
Q 1456 2553 1204 2497 
Q 953 2441 691 2322 
L 691 4666 
z
" transform="scale(0.015625)"/>
       </defs>
       <use xlink:href="#DejaVuSans-32"/>
       <use xlink:href="#DejaVuSans-30" transform="translate(63.623047 0)"/>
       <use xlink:href="#DejaVuSans-32" transform="translate(127.246094 0)"/>
       <use xlink:href="#DejaVuSans-32" transform="translate(190.869141 0)"/>
       <use xlink:href="#DejaVuSans-2d" transform="translate(254.492188 0)"/>
       <use xlink:href="#DejaVuSans-30" transform="translate(290.576172 0)"/>
       <use xlink:href="#DejaVuSans-39" transform="translate(354.199219 0)"/>
       <use xlink:href="#DejaVuSans-2d" transform="translate(417.822266 0)"/>
       <use xlink:href="#DejaVuSans-32" transform="translate(453.90625 0)"/>
       <use xlink:href="#DejaVuSans-35" transform="translate(517.529297 0)"/>
       <use xlink:href="#DejaVuSans-20" transform="translate(581.152344 0)"/>
       <use xlink:href="#DejaVuSans-28" transform="translate(612.939453 0)"/>
       <use xlink:href="#DejaVuSans-31" transform="translate(651.953125 0)"/>
       <use xlink:href="#DejaVuSans-38" transform="translate(715.576172 0)"/>
       <use xlink:href="#DejaVuSans-3a" transform="translate(779.199219 0)"/>
       <use xlink:href="#DejaVuSans-30" transform="translate(812.890625 0)"/>
       <use xlink:href="#DejaVuSans-30" transform="translate(876.513672 0)"/>
       <use xlink:href="#DejaVuSans-29" transform="translate(940.136719 0)"/>
      </g>
     </g>
    </g>
    <g id="xtick_3">
     <g id="line2d_3">
      <g>
       <use xlink:href="#md884fdb35c" x="375.427362" y="450.72" style="stroke: #000000; stroke-width: 0.8"/>
      </g>
     </g>
     <g id="text_3">
      <!-- 2022-10-20 (00:00) -->
      <g transform="translate(255.255195 535.473553) rotate(-30) scale(0.14 -0.14)">
       <use xlink:href="#DejaVuSans-32"/>
       <use xlink:href="#DejaVuSans-30" transform="translate(63.623047 0)"/>
       <use xlink:href="#DejaVuSans-32" transform="translate(127.246094 0)"/>
       <use xlink:href="#DejaVuSans-32" transform="translate(190.869141 0)"/>
       <use xlink:href="#DejaVuSans-2d" transform="translate(254.492188 0)"/>
       <use xlink:href="#DejaVuSans-31" transform="translate(290.576172 0)"/>
       <use xlink:href="#DejaVuSans-30" transform="translate(354.199219 0)"/>
       <use xlink:href="#DejaVuSans-2d" transform="translate(417.822266 0)"/>
       <use xlink:href="#DejaVuSans-32" transform="translate(453.90625 0)"/>
       <use xlink:href="#DejaVuSans-30" transform="translate(517.529297 0)"/>
       <use xlink:href="#DejaVuSans-20" transform="translate(581.152344 0)"/>
       <use xlink:href="#DejaVuSans-28" transform="translate(612.939453 0)"/>
       <use xlink:href="#DejaVuSans-30" transform="translate(651.953125 0)"/>
       <use xlink:href="#DejaVuSans-30" transform="translate(715.576172 0)"/>
       <use xlink:href="#DejaVuSans-3a" transform="translate(779.199219 0)"/>
       <use xlink:href="#DejaVuSans-30" transform="translate(812.890625 0)"/>
       <use xlink:href="#DejaVuSans-30" transform="translate(876.513672 0)"/>
       <use xlink:href="#DejaVuSans-29" transform="translate(940.136719 0)"/>
      </g>
     </g>
    </g>
    <g id="xtick_4">
     <g id="line2d_4">
      <g>
       <use xlink:href="#md884fdb35c" x="497.424357" y="450.72" style="stroke: #000000; stroke-width: 0.8"/>
      </g>
     </g>
     <g id="text_4">
      <!-- 2022-11-13 (06:00) -->
      <g transform="translate(377.252189 535.473553) rotate(-30) scale(0.14 -0.14)">
       <defs>
        <path id="DejaVuSans-33" d="M 2597 2516 
Q 3050 2419 3304 2112 
Q 3559 1806 3559 1356 
Q 3559 666 3084 287 
Q 2609 -91 1734 -91 
Q 1441 -91 1130 -33 
Q 819 25 488 141 
L 488 750 
Q 750 597 1062 519 
Q 1375 441 1716 441 
Q 2309 441 2620 675 
Q 2931 909 2931 1356 
Q 2931 1769 2642 2001 
Q 2353 2234 1838 2234 
L 1294 2234 
L 1294 2753 
L 1863 2753 
Q 2328 2753 2575 2939 
Q 2822 3125 2822 3475 
Q 2822 3834 2567 4026 
Q 2313 4219 1838 4219 
Q 1578 4219 1281 4162 
Q 984 4106 628 3988 
L 628 4550 
Q 988 4650 1302 4700 
Q 1616 4750 1894 4750 
Q 2613 4750 3031 4423 
Q 3450 4097 3450 3541 
Q 3450 3153 3228 2886 
Q 3006 2619 2597 2516 
z
" transform="scale(0.015625)"/>
        <path id="DejaVuSans-36" d="M 2113 2584 
Q 1688 2584 1439 2293 
Q 1191 2003 1191 1497 
Q 1191 994 1439 701 
Q 1688 409 2113 409 
Q 2538 409 2786 701 
Q 3034 994 3034 1497 
Q 3034 2003 2786 2293 
Q 2538 2584 2113 2584 
z
M 3366 4563 
L 3366 3988 
Q 3128 4100 2886 4159 
Q 2644 4219 2406 4219 
Q 1781 4219 1451 3797 
Q 1122 3375 1075 2522 
Q 1259 2794 1537 2939 
Q 1816 3084 2150 3084 
Q 2853 3084 3261 2657 
Q 3669 2231 3669 1497 
Q 3669 778 3244 343 
Q 2819 -91 2113 -91 
Q 1303 -91 875 529 
Q 447 1150 447 2328 
Q 447 3434 972 4092 
Q 1497 4750 2381 4750 
Q 2619 4750 2861 4703 
Q 3103 4656 3366 4563 
z
" transform="scale(0.015625)"/>
       </defs>
       <use xlink:href="#DejaVuSans-32"/>
       <use xlink:href="#DejaVuSans-30" transform="translate(63.623047 0)"/>
       <use xlink:href="#DejaVuSans-32" transform="translate(127.246094 0)"/>
       <use xlink:href="#DejaVuSans-32" transform="translate(190.869141 0)"/>
       <use xlink:href="#DejaVuSans-2d" transform="translate(254.492188 0)"/>
       <use xlink:href="#DejaVuSans-31" transform="translate(290.576172 0)"/>
       <use xlink:href="#DejaVuSans-31" transform="translate(354.199219 0)"/>
       <use xlink:href="#DejaVuSans-2d" transform="translate(417.822266 0)"/>
       <use xlink:href="#DejaVuSans-31" transform="translate(453.90625 0)"/>
       <use xlink:href="#DejaVuSans-33" transform="translate(517.529297 0)"/>
       <use xlink:href="#DejaVuSans-20" transform="translate(581.152344 0)"/>
       <use xlink:href="#DejaVuSans-28" transform="translate(612.939453 0)"/>
       <use xlink:href="#DejaVuSans-30" transform="translate(651.953125 0)"/>
       <use xlink:href="#DejaVuSans-36" transform="translate(715.576172 0)"/>
       <use xlink:href="#DejaVuSans-3a" transform="translate(779.199219 0)"/>
       <use xlink:href="#DejaVuSans-30" transform="translate(812.890625 0)"/>
       <use xlink:href="#DejaVuSans-30" transform="translate(876.513672 0)"/>
       <use xlink:href="#DejaVuSans-29" transform="translate(940.136719 0)"/>
      </g>
     </g>
    </g>
    <g id="xtick_5">
     <g id="line2d_5">
      <g>
       <use xlink:href="#md884fdb35c" x="619.421352" y="450.72" style="stroke: #000000; stroke-width: 0.8"/>
      </g>
     </g>
     <g id="text_5">
      <!-- 2022-12-07 (12:00) -->
      <g transform="translate(499.249184 535.473553) rotate(-30) scale(0.14 -0.14)">
       <defs>
        <path id="DejaVuSans-37" d="M 525 4666 
L 3525 4666 
L 3525 4397 
L 1831 0 
L 1172 0 
L 2766 4134 
L 525 4134 
L 525 4666 
z
" transform="scale(0.015625)"/>
       </defs>
       <use xlink:href="#DejaVuSans-32"/>
       <use xlink:href="#DejaVuSans-30" transform="translate(63.623047 0)"/>
       <use xlink:href="#DejaVuSans-32" transform="translate(127.246094 0)"/>
       <use xlink:href="#DejaVuSans-32" transform="translate(190.869141 0)"/>
       <use xlink:href="#DejaVuSans-2d" transform="translate(254.492188 0)"/>
       <use xlink:href="#DejaVuSans-31" transform="translate(290.576172 0)"/>
       <use xlink:href="#DejaVuSans-32" transform="translate(354.199219 0)"/>
       <use xlink:href="#DejaVuSans-2d" transform="translate(417.822266 0)"/>
       <use xlink:href="#DejaVuSans-30" transform="translate(453.90625 0)"/>
       <use xlink:href="#DejaVuSans-37" transform="translate(517.529297 0)"/>
       <use xlink:href="#DejaVuSans-20" transform="translate(581.152344 0)"/>
       <use xlink:href="#DejaVuSans-28" transform="translate(612.939453 0)"/>
       <use xlink:href="#DejaVuSans-31" transform="translate(651.953125 0)"/>
       <use xlink:href="#DejaVuSans-32" transform="translate(715.576172 0)"/>
       <use xlink:href="#DejaVuSans-3a" transform="translate(779.199219 0)"/>
       <use xlink:href="#DejaVuSans-30" transform="translate(812.890625 0)"/>
       <use xlink:href="#DejaVuSans-30" transform="translate(876.513672 0)"/>
       <use xlink:href="#DejaVuSans-29" transform="translate(940.136719 0)"/>
      </g>
     </g>
    </g>
    <g id="xtick_6">
     <g id="line2d_6">
      <g>
       <use xlink:href="#md884fdb35c" x="741.418346" y="450.72" style="stroke: #000000; stroke-width: 0.8"/>
      </g>
     </g>
     <g id="text_6">
      <!-- 2022-12-31 (18:00) -->
      <g transform="translate(621.246179 535.473553) rotate(-30) scale(0.14 -0.14)">
       <use xlink:href="#DejaVuSans-32"/>
       <use xlink:href="#DejaVuSans-30" transform="translate(63.623047 0)"/>
       <use xlink:href="#DejaVuSans-32" transform="translate(127.246094 0)"/>
       <use xlink:href="#DejaVuSans-32" transform="translate(190.869141 0)"/>
       <use xlink:href="#DejaVuSans-2d" transform="translate(254.492188 0)"/>
       <use xlink:href="#DejaVuSans-31" transform="translate(290.576172 0)"/>
       <use xlink:href="#DejaVuSans-32" transform="translate(354.199219 0)"/>
       <use xlink:href="#DejaVuSans-2d" transform="translate(417.822266 0)"/>
       <use xlink:href="#DejaVuSans-33" transform="translate(453.90625 0)"/>
       <use xlink:href="#DejaVuSans-31" transform="translate(517.529297 0)"/>
       <use xlink:href="#DejaVuSans-20" transform="translate(581.152344 0)"/>
       <use xlink:href="#DejaVuSans-28" transform="translate(612.939453 0)"/>
       <use xlink:href="#DejaVuSans-31" transform="translate(651.953125 0)"/>
       <use xlink:href="#DejaVuSans-38" transform="translate(715.576172 0)"/>
       <use xlink:href="#DejaVuSans-3a" transform="translate(779.199219 0)"/>
       <use xlink:href="#DejaVuSans-30" transform="translate(812.890625 0)"/>
       <use xlink:href="#DejaVuSans-30" transform="translate(876.513672 0)"/>
       <use xlink:href="#DejaVuSans-29" transform="translate(940.136719 0)"/>
      </g>
     </g>
    </g>
    <g id="text_7">
     <!-- Forecast Date -->
     <g transform="translate(381.54846 554.15254) scale(0.16 -0.16)">
      <defs>
       <path id="DejaVuSans-46" d="M 628 4666 
L 3309 4666 
L 3309 4134 
L 1259 4134 
L 1259 2759 
L 3109 2759 
L 3109 2228 
L 1259 2228 
L 1259 0 
L 628 0 
L 628 4666 
z
" transform="scale(0.015625)"/>
       <path id="DejaVuSans-6f" d="M 1959 3097 
Q 1497 3097 1228 2736 
Q 959 2375 959 1747 
Q 959 1119 1226 758 
Q 1494 397 1959 397 
Q 2419 397 2687 759 
Q 2956 1122 2956 1747 
Q 2956 2369 2687 2733 
Q 2419 3097 1959 3097 
z
M 1959 3584 
Q 2709 3584 3137 3096 
Q 3566 2609 3566 1747 
Q 3566 888 3137 398 
Q 2709 -91 1959 -91 
Q 1206 -91 779 398 
Q 353 888 353 1747 
Q 353 2609 779 3096 
Q 1206 3584 1959 3584 
z
" transform="scale(0.015625)"/>
       <path id="DejaVuSans-72" d="M 2631 2963 
Q 2534 3019 2420 3045 
Q 2306 3072 2169 3072 
Q 1681 3072 1420 2755 
Q 1159 2438 1159 1844 
L 1159 0 
L 581 0 
L 581 3500 
L 1159 3500 
L 1159 2956 
Q 1341 3275 1631 3429 
Q 1922 3584 2338 3584 
Q 2397 3584 2469 3576 
Q 2541 3569 2628 3553 
L 2631 2963 
z
" transform="scale(0.015625)"/>
       <path id="DejaVuSans-65" d="M 3597 1894 
L 3597 1613 
L 953 1613 
Q 991 1019 1311 708 
Q 1631 397 2203 397 
Q 2534 397 2845 478 
Q 3156 559 3463 722 
L 3463 178 
Q 3153 47 2828 -22 
Q 2503 -91 2169 -91 
Q 1331 -91 842 396 
Q 353 884 353 1716 
Q 353 2575 817 3079 
Q 1281 3584 2069 3584 
Q 2775 3584 3186 3129 
Q 3597 2675 3597 1894 
z
M 3022 2063 
Q 3016 2534 2758 2815 
Q 2500 3097 2075 3097 
Q 1594 3097 1305 2825 
Q 1016 2553 972 2059 
L 3022 2063 
z
" transform="scale(0.015625)"/>
       <path id="DejaVuSans-63" d="M 3122 3366 
L 3122 2828 
Q 2878 2963 2633 3030 
Q 2388 3097 2138 3097 
Q 1578 3097 1268 2742 
Q 959 2388 959 1747 
Q 959 1106 1268 751 
Q 1578 397 2138 397 
Q 2388 397 2633 464 
Q 2878 531 3122 666 
L 3122 134 
Q 2881 22 2623 -34 
Q 2366 -91 2075 -91 
Q 1284 -91 818 406 
Q 353 903 353 1747 
Q 353 2603 823 3093 
Q 1294 3584 2113 3584 
Q 2378 3584 2631 3529 
Q 2884 3475 3122 3366 
z
" transform="scale(0.015625)"/>
       <path id="DejaVuSans-61" d="M 2194 1759 
Q 1497 1759 1228 1600 
Q 959 1441 959 1056 
Q 959 750 1161 570 
Q 1363 391 1709 391 
Q 2188 391 2477 730 
Q 2766 1069 2766 1631 
L 2766 1759 
L 2194 1759 
z
M 3341 1997 
L 3341 0 
L 2766 0 
L 2766 531 
Q 2569 213 2275 61 
Q 1981 -91 1556 -91 
Q 1019 -91 701 211 
Q 384 513 384 1019 
Q 384 1609 779 1909 
Q 1175 2209 1959 2209 
L 2766 2209 
L 2766 2266 
Q 2766 2663 2505 2880 
Q 2244 3097 1772 3097 
Q 1472 3097 1187 3025 
Q 903 2953 641 2809 
L 641 3341 
Q 956 3463 1253 3523 
Q 1550 3584 1831 3584 
Q 2591 3584 2966 3190 
Q 3341 2797 3341 1997 
z
" transform="scale(0.015625)"/>
       <path id="DejaVuSans-73" d="M 2834 3397 
L 2834 2853 
Q 2591 2978 2328 3040 
Q 2066 3103 1784 3103 
Q 1356 3103 1142 2972 
Q 928 2841 928 2578 
Q 928 2378 1081 2264 
Q 1234 2150 1697 2047 
L 1894 2003 
Q 2506 1872 2764 1633 
Q 3022 1394 3022 966 
Q 3022 478 2636 193 
Q 2250 -91 1575 -91 
Q 1294 -91 989 -36 
Q 684 19 347 128 
L 347 722 
Q 666 556 975 473 
Q 1284 391 1588 391 
Q 1994 391 2212 530 
Q 2431 669 2431 922 
Q 2431 1156 2273 1281 
Q 2116 1406 1581 1522 
L 1381 1569 
Q 847 1681 609 1914 
Q 372 2147 372 2553 
Q 372 3047 722 3315 
Q 1072 3584 1716 3584 
Q 2034 3584 2315 3537 
Q 2597 3491 2834 3397 
z
" transform="scale(0.015625)"/>
       <path id="DejaVuSans-74" d="M 1172 4494 
L 1172 3500 
L 2356 3500 
L 2356 3053 
L 1172 3053 
L 1172 1153 
Q 1172 725 1289 603 
Q 1406 481 1766 481 
L 2356 481 
L 2356 0 
L 1766 0 
Q 1100 0 847 248 
Q 594 497 594 1153 
L 594 3053 
L 172 3053 
L 172 3500 
L 594 3500 
L 594 4494 
L 1172 4494 
z
" transform="scale(0.015625)"/>
       <path id="DejaVuSans-44" d="M 1259 4147 
L 1259 519 
L 2022 519 
Q 2988 519 3436 956 
Q 3884 1394 3884 2338 
Q 3884 3275 3436 3711 
Q 2988 4147 2022 4147 
L 1259 4147 
z
M 628 4666 
L 1925 4666 
Q 3281 4666 3915 4102 
Q 4550 3538 4550 2338 
Q 4550 1131 3912 565 
Q 3275 0 1925 0 
L 628 0 
L 628 4666 
z
" transform="scale(0.015625)"/>
      </defs>
      <use xlink:href="#DejaVuSans-46"/>
      <use xlink:href="#DejaVuSans-6f" transform="translate(53.894531 0)"/>
      <use xlink:href="#DejaVuSans-72" transform="translate(115.076172 0)"/>
      <use xlink:href="#DejaVuSans-65" transform="translate(153.939453 0)"/>
      <use xlink:href="#DejaVuSans-63" transform="translate(215.462891 0)"/>
      <use xlink:href="#DejaVuSans-61" transform="translate(270.443359 0)"/>
      <use xlink:href="#DejaVuSans-73" transform="translate(331.722656 0)"/>
      <use xlink:href="#DejaVuSans-74" transform="translate(383.822266 0)"/>
      <use xlink:href="#DejaVuSans-20" transform="translate(423.03125 0)"/>
      <use xlink:href="#DejaVuSans-44" transform="translate(454.818359 0)"/>
      <use xlink:href="#DejaVuSans-61" transform="translate(531.820312 0)"/>
      <use xlink:href="#DejaVuSans-74" transform="translate(593.099609 0)"/>
      <use xlink:href="#DejaVuSans-65" transform="translate(632.308594 0)"/>
     </g>
    </g>
   </g>
   <g id="matplotlib.axis_2">
    <g id="ytick_1">
     <g id="line2d_7">
      <defs>
       <path id="m9689ae2165" d="M 0 0 
L -3.5 0 
" style="stroke: #000000; stroke-width: 0.8"/>
      </defs>
      <g>
       <use xlink:href="#m9689ae2165" x="102.25471" y="422.267451" style="stroke: #000000; stroke-width: 0.8"/>
      </g>
     </g>
     <g id="text_8">
      <!-- 2 -->
      <g transform="translate(88.89221 426.06667) scale(0.1 -0.1)">
       <use xlink:href="#DejaVuSans-32"/>
      </g>
     </g>
    </g>
    <g id="ytick_2">
     <g id="line2d_8">
      <g>
       <use xlink:href="#m9689ae2165" x="102.25471" y="351.23122" style="stroke: #000000; stroke-width: 0.8"/>
      </g>
     </g>
     <g id="text_9">
      <!-- 4 -->
      <g transform="translate(88.89221 355.030438) scale(0.1 -0.1)">
       <defs>
        <path id="DejaVuSans-34" d="M 2419 4116 
L 825 1625 
L 2419 1625 
L 2419 4116 
z
M 2253 4666 
L 3047 4666 
L 3047 1625 
L 3713 1625 
L 3713 1100 
L 3047 1100 
L 3047 0 
L 2419 0 
L 2419 1100 
L 313 1100 
L 313 1709 
L 2253 4666 
z
" transform="scale(0.015625)"/>
       </defs>
       <use xlink:href="#DejaVuSans-34"/>
      </g>
     </g>
    </g>
    <g id="ytick_3">
     <g id="line2d_9">
      <g>
       <use xlink:href="#m9689ae2165" x="102.25471" y="280.194988" style="stroke: #000000; stroke-width: 0.8"/>
      </g>
     </g>
     <g id="text_10">
      <!-- 6 -->
      <g transform="translate(88.89221 283.994207) scale(0.1 -0.1)">
       <use xlink:href="#DejaVuSans-36"/>
      </g>
     </g>
    </g>
    <g id="ytick_4">
     <g id="line2d_10">
      <g>
       <use xlink:href="#m9689ae2165" x="102.25471" y="209.158756" style="stroke: #000000; stroke-width: 0.8"/>
      </g>
     </g>
     <g id="text_11">
      <!-- 8 -->
      <g transform="translate(88.89221 212.957975) scale(0.1 -0.1)">
       <use xlink:href="#DejaVuSans-38"/>
      </g>
     </g>
    </g>
    <g id="ytick_5">
     <g id="line2d_11">
      <g>
       <use xlink:href="#m9689ae2165" x="102.25471" y="138.122524" style="stroke: #000000; stroke-width: 0.8"/>
      </g>
     </g>
     <g id="text_12">
      <!-- 10 -->
      <g transform="translate(82.52971 141.921743) scale(0.1 -0.1)">
       <use xlink:href="#DejaVuSans-31"/>
       <use xlink:href="#DejaVuSans-30" transform="translate(63.623047 0)"/>
      </g>
     </g>
    </g>
    <g id="ytick_6">
     <g id="line2d_12">
      <g>
       <use xlink:href="#m9689ae2165" x="102.25471" y="67.086293" style="stroke: #000000; stroke-width: 0.8"/>
      </g>
     </g>
     <g id="text_13">
      <!-- 12 -->
      <g transform="translate(82.52971 70.885511) scale(0.1 -0.1)">
       <use xlink:href="#DejaVuSans-31"/>
       <use xlink:href="#DejaVuSans-32" transform="translate(63.623047 0)"/>
      </g>
     </g>
    </g>
    <g id="text_14">
     <!-- Root Mean Squared Error (RMSE) -->
     <g transform="translate(75.20221 360.62625) rotate(-90) scale(0.16 -0.16)">
      <defs>
       <path id="DejaVuSans-52" d="M 2841 2188 
Q 3044 2119 3236 1894 
Q 3428 1669 3622 1275 
L 4263 0 
L 3584 0 
L 2988 1197 
Q 2756 1666 2539 1819 
Q 2322 1972 1947 1972 
L 1259 1972 
L 1259 0 
L 628 0 
L 628 4666 
L 2053 4666 
Q 2853 4666 3247 4331 
Q 3641 3997 3641 3322 
Q 3641 2881 3436 2590 
Q 3231 2300 2841 2188 
z
M 1259 4147 
L 1259 2491 
L 2053 2491 
Q 2509 2491 2742 2702 
Q 2975 2913 2975 3322 
Q 2975 3731 2742 3939 
Q 2509 4147 2053 4147 
L 1259 4147 
z
" transform="scale(0.015625)"/>
       <path id="DejaVuSans-4d" d="M 628 4666 
L 1569 4666 
L 2759 1491 
L 3956 4666 
L 4897 4666 
L 4897 0 
L 4281 0 
L 4281 4097 
L 3078 897 
L 2444 897 
L 1241 4097 
L 1241 0 
L 628 0 
L 628 4666 
z
" transform="scale(0.015625)"/>
       <path id="DejaVuSans-6e" d="M 3513 2113 
L 3513 0 
L 2938 0 
L 2938 2094 
Q 2938 2591 2744 2837 
Q 2550 3084 2163 3084 
Q 1697 3084 1428 2787 
Q 1159 2491 1159 1978 
L 1159 0 
L 581 0 
L 581 3500 
L 1159 3500 
L 1159 2956 
Q 1366 3272 1645 3428 
Q 1925 3584 2291 3584 
Q 2894 3584 3203 3211 
Q 3513 2838 3513 2113 
z
" transform="scale(0.015625)"/>
       <path id="DejaVuSans-53" d="M 3425 4513 
L 3425 3897 
Q 3066 4069 2747 4153 
Q 2428 4238 2131 4238 
Q 1616 4238 1336 4038 
Q 1056 3838 1056 3469 
Q 1056 3159 1242 3001 
Q 1428 2844 1947 2747 
L 2328 2669 
Q 3034 2534 3370 2195 
Q 3706 1856 3706 1288 
Q 3706 609 3251 259 
Q 2797 -91 1919 -91 
Q 1588 -91 1214 -16 
Q 841 59 441 206 
L 441 856 
Q 825 641 1194 531 
Q 1563 422 1919 422 
Q 2459 422 2753 634 
Q 3047 847 3047 1241 
Q 3047 1584 2836 1778 
Q 2625 1972 2144 2069 
L 1759 2144 
Q 1053 2284 737 2584 
Q 422 2884 422 3419 
Q 422 4038 858 4394 
Q 1294 4750 2059 4750 
Q 2388 4750 2728 4690 
Q 3069 4631 3425 4513 
z
" transform="scale(0.015625)"/>
       <path id="DejaVuSans-71" d="M 947 1747 
Q 947 1113 1208 752 
Q 1469 391 1925 391 
Q 2381 391 2643 752 
Q 2906 1113 2906 1747 
Q 2906 2381 2643 2742 
Q 2381 3103 1925 3103 
Q 1469 3103 1208 2742 
Q 947 2381 947 1747 
z
M 2906 525 
Q 2725 213 2448 61 
Q 2172 -91 1784 -91 
Q 1150 -91 751 415 
Q 353 922 353 1747 
Q 353 2572 751 3078 
Q 1150 3584 1784 3584 
Q 2172 3584 2448 3432 
Q 2725 3281 2906 2969 
L 2906 3500 
L 3481 3500 
L 3481 -1331 
L 2906 -1331 
L 2906 525 
z
" transform="scale(0.015625)"/>
       <path id="DejaVuSans-75" d="M 544 1381 
L 544 3500 
L 1119 3500 
L 1119 1403 
Q 1119 906 1312 657 
Q 1506 409 1894 409 
Q 2359 409 2629 706 
Q 2900 1003 2900 1516 
L 2900 3500 
L 3475 3500 
L 3475 0 
L 2900 0 
L 2900 538 
Q 2691 219 2414 64 
Q 2138 -91 1772 -91 
Q 1169 -91 856 284 
Q 544 659 544 1381 
z
M 1991 3584 
L 1991 3584 
z
" transform="scale(0.015625)"/>
       <path id="DejaVuSans-64" d="M 2906 2969 
L 2906 4863 
L 3481 4863 
L 3481 0 
L 2906 0 
L 2906 525 
Q 2725 213 2448 61 
Q 2172 -91 1784 -91 
Q 1150 -91 751 415 
Q 353 922 353 1747 
Q 353 2572 751 3078 
Q 1150 3584 1784 3584 
Q 2172 3584 2448 3432 
Q 2725 3281 2906 2969 
z
M 947 1747 
Q 947 1113 1208 752 
Q 1469 391 1925 391 
Q 2381 391 2643 752 
Q 2906 1113 2906 1747 
Q 2906 2381 2643 2742 
Q 2381 3103 1925 3103 
Q 1469 3103 1208 2742 
Q 947 2381 947 1747 
z
" transform="scale(0.015625)"/>
       <path id="DejaVuSans-45" d="M 628 4666 
L 3578 4666 
L 3578 4134 
L 1259 4134 
L 1259 2753 
L 3481 2753 
L 3481 2222 
L 1259 2222 
L 1259 531 
L 3634 531 
L 3634 0 
L 628 0 
L 628 4666 
z
" transform="scale(0.015625)"/>
      </defs>
      <use xlink:href="#DejaVuSans-52"/>
      <use xlink:href="#DejaVuSans-6f" transform="translate(64.982422 0)"/>
      <use xlink:href="#DejaVuSans-6f" transform="translate(126.164062 0)"/>
      <use xlink:href="#DejaVuSans-74" transform="translate(187.345703 0)"/>
      <use xlink:href="#DejaVuSans-20" transform="translate(226.554688 0)"/>
      <use xlink:href="#DejaVuSans-4d" transform="translate(258.341797 0)"/>
      <use xlink:href="#DejaVuSans-65" transform="translate(344.621094 0)"/>
      <use xlink:href="#DejaVuSans-61" transform="translate(406.144531 0)"/>
      <use xlink:href="#DejaVuSans-6e" transform="translate(467.423828 0)"/>
      <use xlink:href="#DejaVuSans-20" transform="translate(530.802734 0)"/>
      <use xlink:href="#DejaVuSans-53" transform="translate(562.589844 0)"/>
      <use xlink:href="#DejaVuSans-71" transform="translate(626.066406 0)"/>
      <use xlink:href="#DejaVuSans-75" transform="translate(689.542969 0)"/>
      <use xlink:href="#DejaVuSans-61" transform="translate(752.921875 0)"/>
      <use xlink:href="#DejaVuSans-72" transform="translate(814.201172 0)"/>
      <use xlink:href="#DejaVuSans-65" transform="translate(853.064453 0)"/>
      <use xlink:href="#DejaVuSans-64" transform="translate(914.587891 0)"/>
      <use xlink:href="#DejaVuSans-20" transform="translate(978.064453 0)"/>
      <use xlink:href="#DejaVuSans-45" transform="translate(1009.851562 0)"/>
      <use xlink:href="#DejaVuSans-72" transform="translate(1073.035156 0)"/>
      <use xlink:href="#DejaVuSans-72" transform="translate(1112.398438 0)"/>
      <use xlink:href="#DejaVuSans-6f" transform="translate(1151.261719 0)"/>
      <use xlink:href="#DejaVuSans-72" transform="translate(1212.443359 0)"/>
      <use xlink:href="#DejaVuSans-20" transform="translate(1253.556641 0)"/>
      <use xlink:href="#DejaVuSans-28" transform="translate(1285.34375 0)"/>
      <use xlink:href="#DejaVuSans-52" transform="translate(1324.357422 0)"/>
      <use xlink:href="#DejaVuSans-4d" transform="translate(1393.839844 0)"/>
      <use xlink:href="#DejaVuSans-53" transform="translate(1480.119141 0)"/>
      <use xlink:href="#DejaVuSans-45" transform="translate(1543.595703 0)"/>
      <use xlink:href="#DejaVuSans-29" transform="translate(1606.779297 0)"/>
     </g>
    </g>
   </g>
   <g id="line2d_13">
    <path d="M 132.691074 295.147861 
L 133.948775 283.918954 
L 135.206476 316.287907 
L 136.464177 334.928485 
L 138.979579 295.052136 
L 140.23728 305.578455 
L 141.49498 309.318206 
L 142.752681 333.366021 
L 144.010382 305.114568 
L 145.268083 343.768874 
L 146.525784 333.325171 
L 147.783485 353.050896 
L 149.041186 338.646473 
L 150.298887 332.770116 
L 151.556588 351.144421 
L 152.814289 348.491544 
L 154.07199 346.395094 
L 155.329691 367.361 
L 156.587392 364.233346 
L 157.845093 360.419397 
L 159.102794 321.797947 
L 160.360495 332.55919 
L 161.618196 346.158865 
L 162.875897 325.77667 
L 164.133598 323.428512 
L 165.391299 326.081237 
L 166.649 341.760307 
L 167.906701 329.310932 
L 169.164402 312.244097 
L 170.422103 313.796027 
L 171.679804 325.873987 
L 172.937505 327.842787 
L 174.195206 305.744127 
L 176.710608 284.349341 
L 177.968309 281.128791 
L 179.22601 272.319294 
L 180.483711 290.268716 
L 181.741412 296.838634 
L 182.999113 294.283632 
L 185.514515 314.881545 
L 186.772216 327.776024 
L 188.029917 328.289839 
L 189.287618 312.262202 
L 190.545319 340.580046 
L 191.80302 337.64445 
L 193.060721 316.370827 
L 194.318422 314.639254 
L 195.576122 332.916243 
L 196.833823 332.664568 
L 198.091524 329.822478 
L 199.349225 299.367707 
L 200.606926 335.002226 
L 201.864627 328.532775 
L 203.122328 335.859832 
L 204.380029 318.716174 
L 205.63773 330.177397 
L 206.895431 328.365088 
L 208.153132 324.225825 
L 209.410833 334.976534 
L 210.668534 314.092413 
L 211.926235 327.818806 
L 213.183936 324.700568 
L 214.441637 299.561221 
L 215.699338 313.911973 
L 216.957039 336.19463 
L 218.21474 301.099754 
L 219.472441 298.770006 
L 220.730142 302.708081 
L 221.987843 292.270543 
L 223.245544 287.130562 
L 224.503245 271.762511 
L 225.760946 283.990426 
L 227.018647 297.561071 
L 228.276348 295.91335 
L 229.534049 287.674151 
L 230.79175 286.640576 
L 232.049451 299.42148 
L 233.307152 293.098494 
L 234.564853 269.427445 
L 235.822554 285.009977 
L 237.080255 280.080041 
L 238.337956 277.98647 
L 239.595657 245.126092 
L 240.853358 262.866164 
L 242.111059 240.200169 
L 243.36876 233.956293 
L 244.626461 234.889842 
L 245.884162 277.278445 
L 247.141863 288.924444 
L 248.399564 294.430301 
L 249.657264 277.76208 
L 250.914965 322.123718 
L 252.172666 321.809921 
L 253.430367 307.949206 
L 254.688068 289.308662 
L 255.945769 304.43752 
L 257.20347 288.442164 
L 258.461171 277.460816 
L 259.718872 249.773022 
L 260.976573 251.872131 
L 262.234274 252.589132 
L 263.491975 250.396805 
L 264.749676 221.007076 
L 266.007377 250.996081 
L 267.265078 233.712901 
L 268.522779 243.918089 
L 269.78048 259.425509 
L 271.038181 276.519036 
L 272.295882 285.471256 
L 273.553583 295.69167 
L 274.811284 303.332271 
L 276.068985 325.392723 
L 277.326686 325.238264 
L 278.584387 342.03034 
L 281.099789 327.375649 
L 282.35749 338.582369 
L 283.615191 316.816728 
L 284.872892 300.588733 
L 286.130593 324.921875 
L 287.388294 322.26971 
L 288.645995 293.940366 
L 289.903696 306.192449 
L 291.161397 325.22927 
L 292.419098 329.199203 
L 293.676799 304.564848 
L 294.9345 318.378429 
L 296.192201 348.401493 
L 297.449902 328.278018 
L 298.707603 333.078611 
L 299.965304 327.102973 
L 301.223005 325.696731 
L 302.480706 327.825241 
L 303.738406 337.01203 
L 304.996107 331.98144 
L 306.253808 344.798317 
L 307.511509 343.646136 
L 308.76921 345.532169 
L 310.026911 336.184977 
L 311.284612 348.770299 
L 312.542313 342.139512 
L 313.800014 359.39689 
L 315.057715 336.133134 
L 316.315416 362.928281 
L 317.573117 349.302118 
L 318.830818 347.76035 
L 320.088519 333.120055 
L 321.34622 351.310744 
L 322.603921 353.290901 
L 323.861622 353.90459 
L 325.119323 347.916571 
L 326.377024 355.500918 
L 327.634725 328.96682 
L 328.892426 341.516322 
L 330.150127 339.970236 
L 331.407828 339.161423 
L 332.665529 322.450624 
L 333.92323 297.9993 
L 335.180931 288.682254 
L 336.438632 256.034613 
L 337.696333 278.052047 
L 338.954034 259.89424 
L 341.469436 236.435623 
L 342.727137 239.962772 
L 343.984838 209.648962 
L 345.242539 211.405093 
L 346.50024 214.340096 
L 347.757941 200.911732 
L 349.015642 209.426554 
L 350.273343 209.464423 
L 351.531044 222.995709 
L 352.788745 210.638367 
L 354.046446 218.726596 
L 355.304147 234.525287 
L 356.561848 220.063247 
L 357.819548 248.923257 
L 359.077249 255.892585 
L 360.33495 237.151998 
L 361.592651 274.882442 
L 362.850352 253.067008 
L 364.108053 266.272404 
L 365.365754 259.651508 
L 366.623455 261.162367 
L 367.881156 257.728774 
L 369.138857 245.765677 
L 370.396558 248.991426 
L 371.654259 251.03683 
L 372.91196 219.986542 
L 374.169661 202.661563 
L 375.427362 194.309364 
L 376.685063 208.058706 
L 377.942764 193.333593 
L 379.200465 186.364926 
L 380.458166 194.773759 
L 381.715867 205.039258 
L 382.973568 226.570907 
L 384.231269 236.539697 
L 385.48897 261.231873 
L 386.746671 292.009706 
L 388.004372 290.27986 
L 389.262073 279.178095 
L 390.519774 258.254242 
L 391.777475 246.875025 
L 393.035176 238.337322 
L 394.292877 213.894619 
L 395.550578 234.34544 
L 396.808279 234.61107 
L 398.06598 227.540479 
L 399.323681 228.262104 
L 400.581382 234.026308 
L 401.839083 217.798077 
L 403.096784 263.854672 
L 404.354485 233.423577 
L 405.612186 263.155623 
L 406.869887 275.442798 
L 408.127588 274.034862 
L 409.385289 256.055631 
L 410.64299 255.312972 
L 411.90069 259.60517 
L 413.158391 270.35576 
L 414.416092 248.16334 
L 415.673793 262.313819 
L 416.931494 285.102602 
L 418.189195 278.388014 
L 419.446896 288.58531 
L 420.704597 297.514649 
L 421.962298 328.440099 
L 423.219999 329.807659 
L 424.4777 342.197773 
L 425.735401 346.220801 
L 426.993102 349.591899 
L 428.250803 356.153602 
L 429.508504 347.285929 
L 430.766205 354.080702 
L 432.023906 344.13724 
L 433.281607 331.241694 
L 434.539308 322.664039 
L 435.797009 328.688809 
L 437.05471 312.32634 
L 438.312411 297.885199 
L 439.570112 305.662392 
L 440.827813 306.127769 
L 442.085514 316.514329 
L 443.343215 295.825366 
L 444.600916 298.055681 
L 445.858617 266.850358 
L 447.116318 249.753867 
L 448.374019 221.685513 
L 449.63172 211.570629 
L 450.889421 243.939582 
L 452.147122 211.365547 
L 453.404823 219.287579 
L 454.662524 243.771336 
L 455.920225 245.079043 
L 457.177926 244.471044 
L 458.435627 258.428144 
L 459.693328 239.793273 
L 460.951029 241.238182 
L 462.20873 272.506474 
L 463.466431 253.00287 
L 464.724131 272.057779 
L 465.981832 280.017156 
L 467.239533 288.712096 
L 468.497234 311.291885 
L 469.754935 288.657425 
L 471.012636 271.782936 
L 472.270337 272.468977 
L 473.528038 270.881583 
L 474.785739 259.587082 
L 476.04344 255.494344 
L 477.301141 241.404751 
L 478.558842 218.602571 
L 479.816543 191.62065 
L 481.074244 235.073906 
L 482.331945 255.704287 
L 483.589646 243.629782 
L 484.847347 253.632733 
L 486.105048 264.750673 
L 487.362749 237.747768 
L 488.62045 249.619274 
L 489.878151 214.694726 
L 491.135852 211.643625 
L 492.393553 253.850924 
L 493.651254 260.625416 
L 494.908955 220.579585 
L 496.166656 266.319454 
L 497.424357 288.766326 
L 498.682058 279.906257 
L 499.939759 263.617732 
L 501.19746 283.73345 
L 502.455161 278.633202 
L 503.712862 272.484965 
L 504.970563 281.553436 
L 506.228264 289.14968 
L 507.485965 299.575871 
L 508.743666 313.043561 
L 510.001367 302.304894 
L 511.259068 316.303827 
L 512.516769 301.395158 
L 513.77447 310.878468 
L 515.032171 311.003662 
L 516.289872 323.527454 
L 517.547573 312.417763 
L 518.805273 321.264334 
L 520.062974 328.139123 
L 521.320675 319.051548 
L 522.578376 302.174654 
L 523.836077 305.039015 
L 525.093778 291.843713 
L 526.351479 289.482378 
L 527.60918 299.714292 
L 528.866881 301.321959 
L 530.124582 292.349788 
L 531.382283 297.76402 
L 532.639984 286.855363 
L 533.897685 309.075508 
L 535.155386 306.533022 
L 536.413087 308.832878 
L 537.670788 308.420359 
L 538.928489 311.243294 
L 540.18619 301.095672 
L 541.443891 314.262268 
L 542.701592 318.42116 
L 543.959293 323.683523 
L 545.216994 308.309324 
L 546.474695 303.276279 
L 547.732396 285.573721 
L 548.990097 306.605645 
L 550.247798 284.439087 
L 551.505499 283.644483 
L 552.7632 255.744951 
L 554.020901 242.658329 
L 555.278602 226.651236 
L 556.536303 223.979627 
L 557.794004 190.704291 
L 559.051705 224.277317 
L 560.309406 187.209711 
L 561.567107 213.153704 
L 562.824808 227.259979 
L 564.082509 257.874478 
L 565.34021 267.937299 
L 566.597911 238.893834 
L 567.855612 239.248668 
L 569.113313 240.102819 
L 570.371014 269.36937 
L 571.628715 272.123899 
L 572.886415 245.764118 
L 574.144116 296.382589 
L 575.401817 284.009784 
L 576.659518 277.461443 
L 577.917219 280.08375 
L 579.17492 257.479979 
L 580.432621 246.172945 
L 581.690322 281.433882 
L 582.948023 250.47102 
L 584.205724 243.774791 
L 585.463425 282.590856 
L 586.721126 231.129446 
L 587.978827 232.557841 
L 589.236528 200.753377 
L 590.494229 212.643293 
L 591.75193 229.566237 
L 593.009631 226.950044 
L 594.267332 262.154922 
L 595.525033 264.37897 
L 596.782734 245.630287 
L 598.040435 286.968328 
L 599.298136 284.448114 
L 600.555837 276.718716 
L 601.813538 238.703351 
L 603.071239 252.353632 
L 604.32894 256.46832 
L 605.586641 259.509124 
L 606.844342 282.095247 
L 608.102043 258.256206 
L 609.359744 270.656008 
L 610.617445 304.627462 
L 611.875146 306.664652 
L 613.132847 290.768017 
L 614.390548 299.201239 
L 615.648249 331.945315 
L 616.90595 329.980461 
L 618.163651 289.044506 
L 619.421352 300.533978 
L 620.679053 301.501603 
L 621.936754 277.550308 
L 623.194455 266.713224 
L 624.452156 270.33 
L 626.967557 262.919819 
L 628.225258 274.98113 
L 629.482959 275.306732 
L 630.74066 271.603987 
L 631.998361 294.798464 
L 633.256062 264.712938 
L 634.513763 256.707834 
L 637.029165 234.175382 
L 638.286866 246.929678 
L 639.544567 219.617685 
L 640.802268 232.411138 
L 642.059969 242.631417 
L 643.31767 215.488347 
L 644.575371 234.020279 
L 645.833072 213.802113 
L 647.090773 214.527124 
L 648.348474 213.040891 
L 649.606175 225.441692 
L 650.863876 223.713591 
L 652.121577 219.213584 
L 653.379278 222.840809 
L 654.636979 214.73722 
L 655.89468 217.502673 
L 657.152381 211.660409 
L 658.410082 209.960879 
L 659.667783 236.948168 
L 660.925484 210.527925 
L 662.183185 226.377087 
L 663.440886 246.807466 
L 664.698587 271.780684 
L 665.956288 272.360568 
L 667.213989 315.823918 
L 668.47169 312.557725 
L 669.729391 303.997565 
L 670.987092 345.038542 
L 672.244793 308.123532 
L 673.502494 287.481229 
L 674.760195 311.784902 
L 676.017896 285.249169 
L 677.275597 231.866482 
L 678.533298 291.627944 
L 679.790999 264.063497 
L 681.048699 283.36876 
L 682.3064 279.279425 
L 683.564101 289.399017 
L 684.821802 287.376037 
L 686.079503 312.649689 
L 687.337204 297.898732 
L 688.594905 314.264503 
L 689.852606 316.787377 
L 691.110307 328.177975 
L 692.368008 318.622753 
L 693.625709 301.07943 
L 694.88341 299.438331 
L 696.141111 313.746505 
L 697.398812 277.523887 
L 698.656513 281.398739 
L 699.914214 279.762433 
L 701.171915 284.544041 
L 702.429616 283.990815 
L 703.687317 270.513099 
L 704.945018 248.361817 
L 706.202719 259.054518 
L 707.46042 244.36714 
L 708.718121 224.683417 
L 709.975822 260.872433 
L 711.233523 293.17657 
L 712.491224 296.555899 
L 713.748925 259.864381 
L 715.006626 238.0659 
L 716.264327 233.079972 
L 717.522028 226.831557 
L 718.779729 258.950512 
L 720.03743 266.932973 
L 721.295131 259.431657 
L 722.552832 256.829657 
L 723.810533 287.947978 
L 725.068234 313.438432 
L 726.325935 294.506244 
L 727.583636 343.35771 
L 728.841337 294.072029 
L 730.099038 285.923118 
L 731.356739 269.706708 
L 732.61444 294.539862 
L 733.872141 251.349814 
L 735.129841 266.18674 
L 736.387542 251.795867 
L 737.645243 221.468524 
L 738.902944 253.120425 
L 740.160645 241.483606 
L 741.418346 224.931569 
L 741.418346 224.931569 
" clip-path="url(#p76ca70e79e)" style="fill: none; stroke: #0000ff; stroke-width: 2; stroke-linecap: square"/>
   </g>
   <g id="line2d_14">
    <path d="M 132.691074 231.3265 
L 133.948775 315.420901 
L 135.206476 361.376546 
L 136.464177 315.884296 
L 137.721878 260.813037 
L 138.979579 314.943685 
L 140.23728 330.636711 
L 141.49498 326.965518 
L 142.752681 369.008594 
L 144.010382 364.5115 
L 145.268083 390.514737 
L 146.525784 245.995537 
L 147.783485 270.331372 
L 149.041186 334.554209 
L 150.298887 279.740297 
L 151.556588 267.06152 
L 152.814289 264.894124 
L 154.07199 331.187955 
L 155.329691 333.942383 
L 156.587392 361.795315 
L 157.845093 335.585328 
L 159.102794 346.09637 
L 160.360495 354.433072 
L 161.618196 395.102957 
L 162.875897 381.956609 
L 164.133598 371.656018 
L 165.391299 338.808164 
L 166.649 415.240802 
L 167.906701 404.633824 
L 169.164402 395.334443 
L 170.422103 359.839166 
L 171.679804 376.478341 
L 172.937505 384.570532 
L 174.195206 353.497778 
L 175.452907 327.442903 
L 176.710608 389.785423 
L 177.968309 372.106881 
L 179.22601 401.671113 
L 180.483711 379.101689 
L 181.741412 335.418285 
L 182.999113 351.43935 
L 184.256814 393.401767 
L 185.514515 374.382407 
L 186.772216 357.112471 
L 188.029917 370.134074 
L 189.287618 344.489702 
L 190.545319 360.381773 
L 191.80302 321.459322 
L 193.060721 323.418418 
L 194.318422 299.695713 
L 196.833823 325.446394 
L 198.091524 371.670888 
L 199.349225 393.008522 
L 200.606926 366.69049 
L 201.864627 410.823207 
L 203.122328 399.807665 
L 204.380029 413.511414 
L 205.63773 388.493696 
L 206.895431 381.117412 
L 208.153132 355.871231 
L 209.410833 353.888255 
L 210.668534 381.219039 
L 211.926235 414.032546 
L 214.441637 381.089366 
L 215.699338 393.415266 
L 216.957039 378.518113 
L 218.21474 321.170963 
L 219.472441 357.94248 
L 220.730142 252.707822 
L 221.987843 242.918421 
L 223.245544 206.536635 
L 224.503245 179.201625 
L 225.760946 112.943106 
L 227.018647 160.855723 
L 229.534049 209.308507 
L 230.79175 154.614641 
L 232.049451 205.627661 
L 233.307152 212.232366 
L 234.564853 262.950965 
L 235.822554 285.029911 
L 237.080255 379.894658 
L 238.337956 406.178505 
L 239.595657 405.834891 
L 240.853358 410.105207 
L 242.111059 389.038454 
L 243.36876 385.925475 
L 244.626461 389.69649 
L 245.884162 366.129888 
L 247.141863 331.293689 
L 248.399564 290.026018 
L 249.657264 286.612987 
L 250.914965 356.370269 
L 253.430367 211.533487 
L 254.688068 252.446223 
L 255.945769 308.534171 
L 257.20347 292.14391 
L 258.461171 283.807377 
L 260.976573 349.820912 
L 262.234274 326.207159 
L 263.491975 307.327795 
L 264.749676 279.772968 
L 266.007377 274.637695 
L 267.265078 202.705326 
L 268.522779 281.935791 
L 269.78048 330.529656 
L 271.038181 400.86617 
L 272.295882 350.441511 
L 273.553583 378.705836 
L 274.811284 392.833095 
L 276.068985 395.734818 
L 277.326686 395.718017 
L 278.584387 365.352746 
L 279.842088 374.148753 
L 281.099789 416.971046 
L 282.35749 394.295279 
L 283.615191 310.600424 
L 284.872892 321.378654 
L 286.130593 379.49059 
L 287.388294 295.427006 
L 288.645995 276.160985 
L 289.903696 340.398031 
L 291.161397 355.989337 
L 292.419098 253.123897 
L 293.676799 293.00028 
L 294.9345 358.778746 
L 296.192201 384.61759 
L 297.449902 328.53816 
L 298.707603 305.005718 
L 299.965304 376.52202 
L 301.223005 313.623598 
L 302.480706 388.851298 
L 303.738406 357.424752 
L 304.996107 419.480269 
L 306.253808 326.982336 
L 307.511509 377.263256 
L 308.76921 382.317971 
L 310.026911 369.225007 
L 311.284612 281.72866 
L 312.542313 344.828328 
L 313.800014 335.314787 
L 315.057715 323.925594 
L 316.315416 342.165204 
L 317.573117 346.84577 
L 318.830818 278.629882 
L 320.088519 323.832783 
L 321.34622 397.54462 
L 322.603921 301.754124 
L 323.861622 229.776773 
L 325.119323 272.152064 
L 326.377024 305.278936 
L 327.634725 210.836692 
L 328.892426 251.975561 
L 330.150127 308.211178 
L 331.407828 320.075774 
L 332.665529 249.00782 
L 333.92323 378.659955 
L 335.180931 406.499144 
L 336.438632 376.08457 
L 337.696333 295.25915 
L 338.954034 419.769339 
L 340.211735 383.865125 
L 341.469436 355.675379 
L 342.727137 316.480558 
L 343.984838 429.975933 
L 345.242539 362.548407 
L 346.50024 389.09243 
L 347.757941 386.663578 
L 349.015642 397.401313 
L 350.273343 399.633229 
L 351.531044 408.271813 
L 352.788745 367.033815 
L 354.046446 356.57807 
L 355.304147 351.853512 
L 356.561848 387.63415 
L 357.819548 284.134689 
L 359.077249 241.805516 
L 360.33495 338.168563 
L 361.592651 313.224357 
L 362.850352 256.149459 
L 364.108053 345.875249 
L 365.365754 381.784696 
L 366.623455 382.41312 
L 367.881156 377.632985 
L 369.138857 403.429276 
L 370.396558 371.760295 
L 372.91196 394.882826 
L 374.169661 400.808265 
L 375.427362 388.527899 
L 376.685063 392.258351 
L 377.942764 357.389042 
L 379.200465 354.46664 
L 380.458166 367.152657 
L 381.715867 429.87473 
L 382.973568 383.785685 
L 384.231269 389.441725 
L 385.48897 376.917348 
L 386.746671 389.628347 
L 388.004372 398.200354 
L 389.262073 396.178602 
L 390.519774 416.215058 
L 391.777475 406.339976 
L 393.035176 354.001559 
L 394.292877 358.280953 
L 395.550578 369.093445 
L 396.808279 398.452485 
L 398.06598 362.008594 
L 399.323681 377.650735 
L 400.581382 389.275579 
L 401.839083 394.589853 
L 403.096784 396.817975 
L 404.354485 366.980889 
L 405.612186 309.221313 
L 406.869887 396.670628 
L 408.127588 383.261318 
L 409.385289 324.502599 
L 410.64299 290.064836 
L 411.90069 383.760771 
L 413.158391 371.714465 
L 414.416092 367.33894 
L 415.673793 379.707757 
L 416.931494 403.92082 
L 418.189195 337.641588 
L 419.446896 378.86447 
L 420.704597 395.390705 
L 421.962298 359.023206 
L 423.219999 315.966556 
L 424.4777 362.579104 
L 426.993102 262.827583 
L 428.250803 241.050493 
L 429.508504 302.964379 
L 430.766205 352.329094 
L 432.023906 282.435905 
L 433.281607 298.035916 
L 434.539308 410.927434 
L 435.797009 430.56 
L 437.05471 321.387021 
L 439.570112 402.565624 
L 440.827813 424.774138 
L 442.085514 320.827494 
L 443.343215 342.522799 
L 445.858617 389.704459 
L 447.116318 325.985563 
L 448.374019 346.432506 
L 449.63172 350.042761 
L 450.889421 371.67613 
L 452.147122 331.140161 
L 453.404823 347.934422 
L 454.662524 341.569045 
L 455.920225 313.852137 
L 457.177926 310.063863 
L 458.435627 320.007808 
L 459.693328 267.979555 
L 460.951029 264.591776 
L 462.20873 398.72887 
L 463.466431 359.068866 
L 464.724131 307.867692 
L 465.981832 332.449934 
L 467.239533 379.972354 
L 468.497234 337.940007 
L 469.754935 365.259723 
L 471.012636 380.092517 
L 472.270337 363.05892 
L 473.528038 378.481514 
L 474.785739 366.733982 
L 476.04344 298.180908 
L 477.301141 374.981455 
L 478.558842 386.781625 
L 479.816543 347.069601 
L 481.074244 356.580712 
L 482.331945 383.855378 
L 483.589646 385.344668 
L 484.847347 395.038497 
L 486.105048 399.340205 
L 487.362749 393.493469 
L 488.62045 383.451632 
L 489.878151 382.046253 
L 491.135852 390.90606 
L 492.393553 389.705848 
L 493.651254 364.700349 
L 494.908955 348.910956 
L 496.166656 304.154785 
L 497.424357 306.169246 
L 498.682058 316.868875 
L 499.939759 296.628979 
L 501.19746 346.519508 
L 502.455161 369.422976 
L 503.712862 384.103699 
L 504.970563 348.53358 
L 506.228264 337.05747 
L 507.485965 361.522148 
L 508.743666 375.841288 
L 510.001367 290.179868 
L 511.259068 328.733979 
L 512.516769 390.049918 
L 513.77447 402.204922 
L 515.032171 310.618343 
L 516.289872 283.103011 
L 517.547573 353.005498 
L 518.805273 352.077843 
L 520.062974 320.361609 
L 521.320675 361.008342 
L 522.578376 334.425425 
L 523.836077 329.488866 
L 525.093778 386.583385 
L 526.351479 346.818994 
L 527.60918 283.58292 
L 528.866881 290.275406 
L 530.124582 379.397085 
L 531.382283 407.158518 
L 532.639984 358.115434 
L 533.897685 376.563598 
L 535.155386 350.952667 
L 536.413087 407.32673 
L 537.670788 350.896405 
L 538.928489 323.23493 
L 540.18619 346.048948 
L 541.443891 381.671367 
L 542.701592 359.159196 
L 543.959293 374.569842 
L 545.216994 351.452375 
L 546.474695 330.386764 
L 547.732396 404.00618 
L 548.990097 385.129864 
L 550.247798 264.00361 
L 551.505499 381.054282 
L 552.7632 341.773907 
L 554.020901 377.44716 
L 555.278602 287.099636 
L 556.536303 371.736923 
L 557.794004 319.015101 
L 559.051705 400.098776 
L 560.309406 353.485593 
L 561.567107 382.51987 
L 562.824808 331.748362 
L 564.082509 342.677377 
L 565.34021 390.530428 
L 566.597911 355.06976 
L 567.855612 371.147148 
L 569.113313 370.311271 
L 570.371014 403.823258 
L 571.628715 405.044226 
L 572.886415 383.671872 
L 574.144116 415.115719 
L 575.401817 322.703162 
L 576.659518 343.080327 
L 577.917219 419.238375 
L 579.17492 399.766738 
L 580.432621 242.445083 
L 581.690322 248.141339 
L 582.948023 355.939984 
L 584.205724 356.523907 
L 585.463425 218.430396 
L 586.721126 262.536972 
L 587.978827 379.660843 
L 589.236528 384.42394 
L 590.494229 338.09367 
L 591.75193 300.326101 
L 593.009631 353.441855 
L 594.267332 370.241756 
L 595.525033 307.209105 
L 596.782734 253.613832 
L 598.040435 330.644061 
L 599.298136 359.730383 
L 600.555837 263.948347 
L 603.071239 392.588433 
L 604.32894 353.807333 
L 605.586641 284.254023 
L 606.844342 364.243821 
L 608.102043 329.521248 
L 609.359744 339.573603 
L 610.617445 292.346418 
L 611.875146 376.852329 
L 613.132847 321.525153 
L 614.390548 337.925916 
L 616.90595 347.821609 
L 618.163651 367.765618 
L 619.421352 372.549394 
L 620.679053 307.356705 
L 621.936754 343.975515 
L 623.194455 418.673929 
L 624.452156 419.668449 
L 625.709857 416.02764 
L 626.967557 396.35214 
L 628.225258 387.960488 
L 629.482959 328.052493 
L 630.74066 356.694872 
L 631.998361 399.635659 
L 633.256062 351.648777 
L 634.513763 284.218118 
L 635.771464 299.17514 
L 637.029165 355.307962 
L 638.286866 305.729494 
L 639.544567 169.34602 
L 640.802268 293.526035 
L 642.059969 328.983214 
L 643.31767 248.100489 
L 644.575371 196.631576 
L 645.833072 299.686042 
L 647.090773 281.215268 
L 648.348474 231.95052 
L 649.606175 268.941761 
L 650.863876 280.738831 
L 652.121577 253.511774 
L 653.379278 304.31856 
L 654.636979 314.076069 
L 655.89468 330.461538 
L 657.152381 340.721769 
L 658.410082 308.731903 
L 659.667783 317.866883 
L 660.925484 367.102009 
L 663.440886 301.332798 
L 664.698587 325.921815 
L 665.956288 355.660416 
L 667.213989 329.56132 
L 668.47169 341.250523 
L 669.729391 365.443432 
L 670.987092 342.557738 
L 672.244793 348.977532 
L 673.502494 374.412402 
L 674.760195 424.174312 
L 676.017896 307.954474 
L 677.275597 422.198613 
L 678.533298 370.300813 
L 679.790999 398.719936 
L 681.048699 327.355647 
L 682.3064 401.436951 
L 683.564101 384.590831 
L 684.821802 406.145157 
L 686.079503 301.674794 
L 687.337204 319.500886 
L 688.594905 364.653207 
L 689.852606 333.991413 
L 691.110307 280.738272 
L 692.368008 300.472922 
L 693.625709 326.20157 
L 694.88341 364.939914 
L 696.141111 341.956193 
L 697.398812 351.631426 
L 698.656513 376.148912 
L 699.914214 398.025571 
L 701.171915 297.214029 
L 702.429616 354.490478 
L 703.687317 343.569178 
L 704.945018 381.093752 
L 706.202719 303.469675 
L 707.46042 367.80801 
L 708.718121 355.427795 
L 709.975822 361.190568 
L 711.233523 313.86113 
L 712.491224 406.176159 
L 713.748925 304.139102 
L 715.006626 382.508514 
L 716.264327 328.848976 
L 717.522028 390.982739 
L 718.779729 411.166008 
L 720.03743 417.854387 
L 721.295131 370.042381 
L 722.552832 361.878227 
L 723.810533 377.164272 
L 725.068234 373.009495 
L 726.325935 353.013687 
L 727.583636 386.650249 
L 728.841337 337.283333 
L 730.099038 360.927047 
L 731.356739 315.423323 
L 732.61444 354.868167 
L 733.872141 373.403833 
L 735.129841 419.587789 
L 736.387542 378.040957 
L 737.645243 408.203373 
L 738.902944 381.063605 
L 740.160645 378.720435 
L 741.418346 407.482833 
L 741.418346 407.482833 
" clip-path="url(#p76ca70e79e)" style="fill: none; stroke: #ffa500; stroke-width: 2; stroke-linecap: square"/>
   </g>
   <g id="line2d_15">
    <path d="M 132.691074 238.308158 
L 133.948775 278.812693 
L 135.206476 311.78602 
L 136.464177 307.468299 
L 137.721878 272.920975 
L 138.979579 287.280398 
L 140.23728 296.686681 
L 141.49498 310.094247 
L 142.752681 284.989569 
L 144.010382 341.373531 
L 145.268083 339.303587 
L 146.525784 361.03378 
L 147.783485 340.329676 
L 149.041186 337.854122 
L 150.298887 349.663201 
L 151.556588 351.658592 
L 152.814289 336.399171 
L 154.07199 367.137296 
L 155.329691 367.570799 
L 156.587392 359.521922 
L 157.845093 325.27864 
L 159.102794 336.085594 
L 160.360495 336.249233 
L 161.618196 321.945853 
L 162.875897 293.516263 
L 165.391299 334.004183 
L 166.649 324.598103 
L 167.906701 294.434112 
L 169.164402 299.558562 
L 170.422103 318.994167 
L 171.679804 321.547188 
L 172.937505 282.572785 
L 174.195206 274.058522 
L 175.452907 262.743664 
L 177.968309 218.186902 
L 179.22601 230.837327 
L 180.483711 236.374229 
L 181.741412 234.995017 
L 182.999113 244.404789 
L 184.256814 265.982318 
L 185.514515 289.609469 
L 186.772216 287.947792 
L 188.029917 273.084207 
L 189.287618 326.988111 
L 190.545319 324.893761 
L 191.80302 287.092235 
L 193.060721 280.011516 
L 194.318422 305.777136 
L 195.576122 315.890156 
L 196.833823 314.801487 
L 198.091524 278.000273 
L 199.349225 309.678832 
L 200.606926 317.62217 
L 201.864627 323.741682 
L 203.122328 299.756176 
L 204.380029 308.976193 
L 205.63773 311.448139 
L 206.895431 291.51364 
L 208.153132 299.284752 
L 209.410833 288.401872 
L 210.668534 299.165842 
L 211.926235 288.715788 
L 213.183936 259.100314 
L 214.441637 270.018761 
L 215.699338 278.728045 
L 216.957039 273.605305 
L 218.21474 270.518231 
L 219.472441 281.93652 
L 220.730142 264.501403 
L 221.987843 274.902698 
L 223.245544 248.219992 
L 224.503245 271.331447 
L 225.760946 286.027293 
L 227.018647 287.201356 
L 228.276348 275.820953 
L 229.534049 273.689208 
L 230.79175 290.070629 
L 232.049451 293.281085 
L 233.307152 253.061114 
L 234.564853 259.991912 
L 235.822554 257.733635 
L 237.080255 272.426823 
L 238.337956 221.554358 
L 239.595657 222.084533 
L 240.853358 208.660285 
L 242.111059 192.033863 
L 243.36876 198.233247 
L 244.626461 226.290322 
L 245.884162 259.844549 
L 247.141863 265.377995 
L 248.399564 245.797551 
L 249.657264 297.98675 
L 250.914965 298.637394 
L 252.172666 282.601695 
L 253.430367 277.986013 
L 254.688068 279.949868 
L 255.945769 264.830951 
L 257.20347 259.975484 
L 258.461171 212.890869 
L 259.718872 193.970773 
L 260.976573 198.460737 
L 262.234274 199.364325 
L 263.491975 168.706199 
L 264.749676 187.863996 
L 266.007377 176.84151 
L 268.522779 200.109389 
L 269.78048 228.050568 
L 271.038181 238.708788 
L 272.295882 262.504048 
L 273.553583 275.903941 
L 274.811284 294.050893 
L 276.068985 288.226124 
L 277.326686 307.352403 
L 278.584387 310.525294 
L 279.842088 307.778657 
L 281.099789 322.04786 
L 282.35749 302.203903 
L 283.615191 278.341642 
L 284.872892 299.968219 
L 286.130593 300.027615 
L 287.388294 267.64513 
L 288.645995 278.020376 
L 289.903696 294.622986 
L 291.161397 299.67732 
L 292.419098 280.42224 
L 293.676799 282.855707 
L 294.9345 316.695768 
L 296.192201 309.663217 
L 297.449902 323.495834 
L 298.707603 304.353008 
L 299.965304 311.172805 
L 301.223005 308.959765 
L 302.480706 308.735053 
L 303.738406 300.541684 
L 304.996107 316.998031 
L 306.253808 321.631361 
L 307.511509 323.101861 
L 308.76921 301.379915 
L 310.026911 316.371657 
L 311.284612 305.969736 
L 312.542313 325.159645 
L 313.800014 307.792342 
L 315.057715 336.094723 
L 316.315416 333.92797 
L 317.573117 317.705073 
L 318.830818 288.868926 
L 320.088519 317.074651 
L 321.34622 329.948214 
L 322.603921 323.265584 
L 323.861622 321.089686 
L 325.119323 337.491684 
L 326.377024 319.952951 
L 327.634725 315.655402 
L 328.892426 310.228857 
L 330.150127 343.987912 
L 332.665529 270.693505 
L 333.92323 253.647908 
L 335.180931 209.011444 
L 336.438632 227.715466 
L 337.696333 224.53121 
L 338.954034 198.780766 
L 340.211735 191.819279 
L 341.469436 188.182061 
L 343.984838 141.273974 
L 345.242539 125.158081 
L 346.50024 123.459907 
L 347.757941 112.478779 
L 349.015642 113.415563 
L 350.273343 126.695767 
L 351.531044 127.642882 
L 352.788745 149.752687 
L 354.046446 158.880368 
L 355.304147 140.709485 
L 356.561848 192.280118 
L 357.819548 210.567285 
L 359.077249 180.492752 
L 360.33495 203.39887 
L 361.592651 191.046406 
L 362.850352 206.56956 
L 364.108053 191.54447 
L 365.365754 178.455172 
L 366.623455 176.825353 
L 367.881156 159.634577 
L 369.138857 173.775487 
L 370.396558 169.949226 
L 371.654259 141.114129 
L 372.91196 120.996446 
L 374.169661 105.927762 
L 375.427362 111.28734 
L 376.685063 96.607177 
L 377.942764 74.791726 
L 379.200465 91.550116 
L 380.458166 82.416033 
L 381.715867 122.099985 
L 384.231269 187.116798 
L 385.48897 261.175154 
L 386.746671 269.988004 
L 388.004372 262.541155 
L 389.262073 227.084112 
L 390.519774 186.215208 
L 391.777475 162.230921 
L 393.035176 112.862455 
L 394.292877 146.778392 
L 395.550578 139.96039 
L 396.808279 176.980253 
L 398.06598 168.23862 
L 399.323681 174.264372 
L 400.581382 154.177717 
L 401.839083 206.064314 
L 403.096784 196.076267 
L 404.354485 205.197715 
L 405.612186 227.560701 
L 406.869887 242.383079 
L 408.127588 223.124476 
L 409.385289 195.714472 
L 410.64299 184.72596 
L 411.90069 208.657304 
L 413.158391 180.631765 
L 414.416092 198.126243 
L 415.673793 225.156077 
L 416.931494 240.641531 
L 418.189195 265.490927 
L 419.446896 266.833658 
L 420.704597 292.702132 
L 421.962298 302.941481 
L 423.219999 329.144634 
L 424.4777 321.337702 
L 425.735401 326.138397 
L 426.993102 336.881349 
L 428.250803 338.568616 
L 429.508504 342.115411 
L 430.766205 328.727644 
L 432.023906 322.471676 
L 433.281607 320.608219 
L 434.539308 322.191294 
L 435.797009 297.259791 
L 437.05471 291.209666 
L 438.312411 301.947961 
L 439.570112 295.53572 
L 440.827813 300.222874 
L 442.085514 274.665724 
L 443.343215 255.651632 
L 444.600916 224.565642 
L 447.116318 142.376124 
L 448.374019 120.01827 
L 449.63172 159.296731 
L 450.889421 138.536991 
L 452.147122 151.49913 
L 453.404823 195.845729 
L 454.662524 190.42142 
L 455.920225 180.547659 
L 457.177926 218.0717 
L 458.435627 203.736988 
L 459.693328 166.506267 
L 460.951029 205.928281 
L 462.20873 200.843072 
L 463.466431 195.174575 
L 464.724131 234.880832 
L 465.981832 240.345974 
L 467.239533 302.001022 
L 468.497234 295.585378 
L 469.754935 251.797221 
L 471.012636 231.094337 
L 472.270337 241.920869 
L 473.528038 217.948743 
L 474.785739 205.323247 
L 476.04344 163.046745 
L 477.301141 138.621673 
L 478.558842 95.263344 
L 479.816543 109.552278 
L 481.074244 150.341598 
L 482.331945 170.25933 
L 483.589646 204.607212 
L 484.847347 210.648952 
L 486.105048 203.094253 
L 487.362749 225.756268 
L 488.62045 162.299378 
L 489.878151 145.291718 
L 491.135852 199.472176 
L 492.393553 240.87466 
L 493.651254 188.717284 
L 494.908955 208.867315 
L 496.166656 233.555427 
L 497.424357 240.936596 
L 498.682058 222.90388 
L 499.939759 242.46771 
L 501.19746 237.878618 
L 502.455161 239.185275 
L 503.712862 232.096207 
L 504.970563 240.221949 
L 506.228264 257.831713 
L 507.485965 285.797687 
L 508.743666 284.941995 
L 510.001367 303.785454 
L 511.259068 285.668141 
L 512.516769 288.156075 
L 513.77447 292.127719 
L 515.032171 293.098595 
L 516.289872 282.444238 
L 518.805273 287.692561 
L 520.062974 279.943127 
L 521.320675 277.032885 
L 522.578376 287.655453 
L 523.836077 287.375597 
L 525.093778 285.70452 
L 526.351479 305.83311 
L 527.60918 317.920453 
L 528.866881 282.272689 
L 530.124582 266.082514 
L 531.382283 268.039171 
L 532.639984 280.550634 
L 533.897685 265.391782 
L 535.155386 263.467625 
L 536.413087 275.0504 
L 537.670788 296.964912 
L 538.928489 296.394377 
L 540.18619 303.023826 
L 541.443891 314.51511 
L 542.701592 321.612681 
L 543.959293 302.210339 
L 545.216994 293.164529 
L 546.474695 269.976301 
L 547.732396 280.943101 
L 548.990097 259.688649 
L 550.247798 258.69728 
L 551.505499 255.509722 
L 552.7632 208.792931 
L 554.020901 174.657973 
L 555.278602 169.871081 
L 556.536303 133.882304 
L 557.794004 170.49793 
L 559.051705 154.705183 
L 560.309406 173.148978 
L 561.567107 187.624821 
L 562.824808 214.273163 
L 564.082509 248.815152 
L 565.34021 226.280499 
L 566.597911 195.602726 
L 567.855612 179.47132 
L 570.371014 236.025052 
L 571.628715 201.877545 
L 572.886415 261.886498 
L 574.144116 283.347555 
L 575.401817 281.728761 
L 576.659518 272.767819 
L 577.917219 245.828985 
L 579.17492 224.597194 
L 580.432621 256.053125 
L 581.690322 220.651006 
L 582.948023 213.451716 
L 584.205724 266.121451 
L 585.463425 247.430656 
L 586.721126 206.014928 
L 587.978827 169.650468 
L 589.236528 158.427489 
L 590.494229 203.114814 
L 591.75193 175.723067 
L 593.009631 224.917037 
L 594.267332 232.357738 
L 595.525033 198.021645 
L 596.782734 247.228368 
L 598.040435 263.861277 
L 599.298136 286.839256 
L 600.555837 241.091852 
L 601.813538 234.920853 
L 603.071239 235.299702 
L 604.32894 252.449661 
L 605.586641 255.593455 
L 606.844342 239.890132 
L 608.102043 239.040706 
L 609.359744 297.353144 
L 610.617445 284.062642 
L 611.875146 289.305969 
L 613.132847 286.05468 
L 614.390548 329.154779 
L 615.648249 321.410918 
L 616.90595 274.930643 
L 618.163651 293.631582 
L 619.421352 286.847589 
L 620.679053 264.39213 
L 621.936754 253.727949 
L 623.194455 262.917668 
L 624.452156 244.607789 
L 625.709857 236.956704 
L 626.967557 259.341539 
L 628.225258 256.051973 
L 629.482959 242.383808 
L 630.74066 259.028132 
L 631.998361 253.557146 
L 633.256062 226.544029 
L 634.513763 222.877155 
L 635.771464 193.779426 
L 637.029165 199.841185 
L 638.286866 173.384258 
L 639.544567 189.796807 
L 640.802268 186.93016 
L 642.059969 166.965209 
L 643.31767 185.588563 
L 644.575371 158.668358 
L 645.833072 148.093364 
L 647.090773 157.04616 
L 648.348474 165.080599 
L 649.606175 187.467245 
L 650.863876 166.95437 
L 652.121577 170.046779 
L 653.379278 164.380043 
L 654.636979 174.86646 
L 655.89468 163.360542 
L 657.152381 149.789439 
L 658.410082 150.464421 
L 659.667783 161.634694 
L 660.925484 163.934752 
L 662.183185 168.951064 
L 664.698587 233.500417 
L 665.956288 290.463061 
L 667.213989 285.501115 
L 668.47169 271.39008 
L 669.729391 327.265681 
L 672.244793 272.206159 
L 673.502494 307.545359 
L 674.760195 295.616744 
L 676.017896 227.422721 
L 677.275597 274.785803 
L 678.533298 277.744449 
L 679.790999 294.168719 
L 681.048699 292.867008 
L 682.3064 287.727009 
L 683.564101 284.853638 
L 684.821802 307.206547 
L 686.079503 283.743527 
L 687.337204 283.454187 
L 688.594905 294.028283 
L 689.852606 314.300527 
L 691.110307 315.464495 
L 692.368008 303.187533 
L 693.625709 301.421426 
L 694.88341 313.383288 
L 696.141111 285.055604 
L 697.398812 259.285683 
L 698.656513 279.897585 
L 699.914214 278.130327 
L 701.171915 256.94982 
L 702.429616 240.598529 
L 703.687317 228.999513 
L 704.945018 200.122871 
L 706.202719 198.441836 
L 707.46042 114.853934 
L 708.718121 140.526437 
L 709.975822 210.93665 
L 711.233523 215.894583 
L 712.491224 188.820189 
L 713.748925 114.371282 
L 715.006626 103.086891 
L 716.264327 100.835677 
L 717.522028 144.632725 
L 718.779729 199.500934 
L 720.03743 194.353941 
L 721.295131 167.67701 
L 722.552832 213.290448 
L 723.810533 272.973986 
L 725.068234 278.074268 
L 726.325935 308.541979 
L 727.583636 275.403184 
L 728.841337 251.78247 
L 730.099038 238.942289 
L 731.356739 238.90276 
L 732.61444 185.513366 
L 733.872141 206.309654 
L 735.129841 194.643925 
L 736.387542 173.826906 
L 737.645243 194.060027 
L 738.902944 189.179105 
L 740.160645 185.116377 
L 741.418346 209.218474 
L 741.418346 209.218474 
" clip-path="url(#p76ca70e79e)" style="fill: none; stroke-dasharray: 7.4,3.2; stroke-dashoffset: 0; stroke: #0000ff; stroke-width: 2"/>
   </g>
   <g id="line2d_16">
    <path d="M 132.691074 294.575564 
L 133.948775 361.317252 
L 135.206476 336.576223 
L 136.464177 315.084528 
L 137.721878 317.597019 
L 138.979579 323.189811 
L 140.23728 340.783994 
L 141.49498 396.789691 
L 142.752681 339.194703 
L 144.010382 340.292975 
L 145.268083 322.038562 
L 146.525784 371.738108 
L 147.783485 390.753438 
L 149.041186 357.886192 
L 150.298887 339.692733 
L 151.556588 354.684026 
L 152.814289 353.795409 
L 154.07199 295.376857 
L 155.329691 369.826087 
L 156.587392 337.278625 
L 157.845093 318.892278 
L 159.102794 278.623311 
L 160.360495 401.218506 
L 161.618196 369.965964 
L 162.875897 303.959102 
L 164.133598 289.170292 
L 165.391299 403.089245 
L 166.649 403.741032 
L 169.164402 329.118654 
L 171.679804 368.687201 
L 172.937505 324.6178 
L 174.195206 261.568433 
L 175.452907 331.377981 
L 176.710608 351.726422 
L 177.968309 374.961969 
L 179.22601 297.343795 
L 180.483711 263.037306 
L 181.741412 285.965306 
L 182.999113 332.652171 
L 184.256814 313.000678 
L 185.514515 376.207054 
L 186.772216 376.712376 
L 188.029917 356.268448 
L 189.287618 378.86928 
L 190.545319 352.662985 
L 191.80302 365.398576 
L 193.060721 342.88881 
L 194.318422 350.699486 
L 195.576122 351.191859 
L 196.833823 374.640475 
L 198.091524 411.86691 
L 199.349225 368.451778 
L 200.606926 392.702177 
L 201.864627 370.520757 
L 203.122328 385.597883 
L 204.380029 375.930348 
L 205.63773 407.586873 
L 206.895431 352.372154 
L 208.153132 338.373256 
L 209.410833 333.379943 
L 210.668534 397.483294 
L 211.926235 386.536479 
L 213.183936 344.040466 
L 214.441637 313.259838 
L 215.699338 393.204696 
L 216.957039 321.826875 
L 218.21474 300.414949 
L 219.472441 209.219761 
L 220.730142 192.016385 
L 221.987843 156.550738 
L 223.245544 96.9959 
L 224.503245 27.36 
L 227.018647 156.130005 
L 228.276348 158.896322 
L 229.534049 87.167596 
L 230.79175 118.620207 
L 232.049451 125.168684 
L 233.307152 174.562114 
L 234.564853 228.748211 
L 235.822554 356.108264 
L 237.080255 359.885673 
L 238.337956 377.635839 
L 239.595657 348.334798 
L 240.853358 374.459544 
L 242.111059 356.840854 
L 243.36876 348.509445 
L 244.626461 333.27802 
L 245.884162 358.325453 
L 247.141863 358.612931 
L 248.399564 366.478336 
L 249.657264 394.734642 
L 250.914965 378.053032 
L 252.172666 303.674402 
L 253.430367 324.011529 
L 254.688068 394.586313 
L 255.945769 376.658281 
L 257.20347 346.159051 
L 258.461171 328.734368 
L 259.718872 373.681081 
L 260.976573 377.362766 
L 262.234274 333.45968 
L 263.491975 317.885124 
L 264.749676 337.492226 
L 266.007377 293.482729 
L 267.265078 352.037009 
L 268.522779 336.875489 
L 269.78048 401.162464 
L 271.038181 402.195514 
L 272.295882 391.526548 
L 273.553583 361.764398 
L 274.811284 389.677649 
L 276.068985 410.215548 
L 277.326686 400.100368 
L 278.584387 399.757406 
L 279.842088 391.911071 
L 281.099789 399.304283 
L 282.35749 325.87673 
L 283.615191 345.122445 
L 284.872892 377.37745 
L 286.130593 366.200521 
L 287.388294 324.937592 
L 288.645995 332.129972 
L 289.903696 393.73278 
L 291.161397 309.5041 
L 293.676799 338.401438 
L 294.9345 350.382471 
L 296.192201 360.534589 
L 297.449902 341.791656 
L 298.707603 310.43714 
L 299.965304 217.412622 
L 301.223005 370.942997 
L 302.480706 370.959569 
L 303.738406 358.466059 
L 304.996107 249.287541 
L 306.253808 346.127177 
L 307.511509 348.747164 
L 308.76921 297.004763 
L 310.026911 202.507103 
L 311.284612 315.444493 
L 312.542313 309.275272 
L 313.800014 300.357738 
L 315.057715 308.174375 
L 316.315416 361.575227 
L 317.573117 317.415309 
L 318.830818 355.531445 
L 320.088519 411.268007 
L 321.34622 351.733603 
L 322.603921 262.004493 
L 323.861622 313.403916 
L 325.119323 343.316352 
L 326.377024 268.499231 
L 327.634725 323.571506 
L 328.892426 348.078618 
L 330.150127 351.524913 
L 331.407828 292.823109 
L 332.665529 384.252197 
L 333.92323 384.974134 
L 335.180931 416.622098 
L 336.438632 351.236639 
L 337.696333 404.134379 
L 338.954034 332.431135 
L 340.211735 377.217266 
L 341.469436 367.913278 
L 342.727137 415.389817 
L 343.984838 356.557772 
L 345.242539 392.924594 
L 346.50024 425.978237 
L 347.757941 383.639236 
L 349.015642 361.384312 
L 351.531044 402.472448 
L 352.788745 364.89582 
L 354.046446 320.518016 
L 355.304147 362.355222 
L 356.561848 343.864209 
L 357.819548 271.856271 
L 359.077249 348.821294 
L 360.33495 335.296969 
L 361.592651 252.408522 
L 362.850352 353.35166 
L 364.108053 355.825765 
L 365.365754 350.211007 
L 366.623455 410.362411 
L 367.881156 349.518361 
L 369.138857 298.941418 
L 370.396558 349.358431 
L 371.654259 410.25191 
L 372.91196 363.019424 
L 374.169661 329.666765 
L 375.427362 406.089724 
L 376.685063 410.00226 
L 377.942764 325.676678 
L 379.200465 326.106455 
L 381.715867 427.485361 
L 382.973568 350.351782 
L 384.231269 336.617971 
L 385.48897 365.624744 
L 386.746671 424.807359 
L 388.004372 383.423619 
L 389.262073 386.95485 
L 390.519774 379.243421 
L 391.777475 383.189847 
L 393.035176 370.498265 
L 394.292877 368.336449 
L 395.550578 406.273441 
L 396.808279 383.430953 
L 398.06598 399.237215 
L 399.323681 385.527072 
L 400.581382 405.138714 
L 401.839083 388.686186 
L 403.096784 315.517912 
L 404.354485 251.338077 
L 405.612186 327.57692 
L 406.869887 370.992934 
L 408.127588 265.557724 
L 409.385289 220.487757 
L 410.64299 327.25535 
L 411.90069 381.852586 
L 413.158391 314.388545 
L 414.416092 349.185883 
L 415.673793 412.080707 
L 416.931494 366.457344 
L 418.189195 332.492038 
L 419.446896 361.297572 
L 420.704597 378.237994 
L 421.962298 352.221709 
L 423.219999 354.935548 
L 424.4777 330.486146 
L 425.735401 319.155232 
L 426.993102 281.28303 
L 428.250803 353.643321 
L 429.508504 385.163449 
L 430.766205 333.378521 
L 432.023906 360.3809 
L 433.281607 375.073859 
L 434.539308 394.660283 
L 435.797009 386.97453 
L 437.05471 393.878433 
L 438.312411 354.139124 
L 439.570112 393.858261 
L 440.827813 365.123614 
L 442.085514 376.72236 
L 443.343215 298.360806 
L 444.600916 344.445651 
L 445.858617 350.523737 
L 447.116318 352.860785 
L 448.374019 283.89272 
L 449.63172 319.501919 
L 450.889421 362.758756 
L 452.147122 371.13492 
L 453.404823 296.053634 
L 454.662524 271.911432 
L 455.920225 282.850456 
L 457.177926 286.555809 
L 458.435627 226.14909 
L 459.693328 209.306627 
L 460.951029 328.365918 
L 462.20873 346.305331 
L 463.466431 233.453995 
L 464.724131 263.462358 
L 465.981832 321.941534 
L 467.239533 364.893779 
L 468.497234 286.181262 
L 469.754935 281.967124 
L 471.012636 312.579488 
L 472.270337 372.7031 
L 474.785739 241.298306 
L 476.04344 325.608594 
L 477.301141 375.55083 
L 478.558842 312.37322 
L 479.816543 301.327091 
L 481.074244 378.861337 
L 482.331945 407.171398 
L 483.589646 352.433896 
L 484.847347 371.880712 
L 486.105048 383.062951 
L 487.362749 383.379957 
L 488.62045 348.13798 
L 489.878151 383.251275 
L 491.135852 386.260501 
L 492.393553 399.042286 
L 493.651254 371.450283 
L 494.908955 361.172446 
L 496.166656 357.338233 
L 497.424357 330.845231 
L 498.682058 288.135531 
L 499.939759 300.884527 
L 501.19746 297.958009 
L 502.455161 331.343177 
L 503.712862 282.875674 
L 504.970563 295.979114 
L 506.228264 333.180331 
L 507.485965 346.493849 
L 508.743666 221.433703 
L 510.001367 269.746695 
L 511.259068 355.762296 
L 512.516769 381.47482 
L 513.77447 249.574426 
L 515.032171 233.209518 
L 516.289872 337.304741 
L 517.547573 358.409957 
L 518.805273 275.268608 
L 520.062974 342.226887 
L 521.320675 391.201091 
L 522.578376 396.105852 
L 523.836077 357.81168 
L 525.093778 364.208178 
L 526.351479 371.873946 
L 527.60918 345.214494 
L 528.866881 372.728149 
L 530.124582 405.086397 
L 531.382283 385.983406 
L 532.639984 372.784174 
L 533.897685 258.446639 
L 535.155386 360.124814 
L 536.413087 343.699232 
L 537.670788 329.092098 
L 538.928489 274.715416 
L 540.18619 342.138682 
L 541.443891 379.106542 
L 542.701592 374.566539 
L 543.959293 290.295882 
L 545.216994 266.413958 
L 546.474695 333.248585 
L 547.732396 362.136439 
L 548.990097 208.411626 
L 550.247798 321.545951 
L 551.505499 394.466954 
L 552.7632 393.497009 
L 554.020901 242.120786 
L 555.278602 325.459131 
L 556.536303 368.583585 
L 557.794004 378.084966 
L 559.051705 313.102872 
L 560.309406 373.92593 
L 561.567107 386.24077 
L 562.824808 371.09335 
L 564.082509 366.858786 
L 565.34021 356.827136 
L 566.597911 379.005127 
L 567.855612 387.770691 
L 569.113313 386.721433 
L 570.371014 377.062941 
L 571.628715 375.042722 
L 572.886415 378.457354 
L 574.144116 274.671551 
L 575.401817 306.959209 
L 576.659518 399.349748 
L 577.917219 395.707779 
L 579.17492 203.853002 
L 580.432621 219.254959 
L 581.690322 337.348318 
L 582.948023 348.33307 
L 584.205724 178.11526 
L 585.463425 234.575114 
L 586.721126 375.745157 
L 587.978827 369.60201 
L 589.236528 294.162131 
L 590.494229 314.649399 
L 591.75193 390.472023 
L 593.009631 394.713912 
L 594.267332 304.655864 
L 595.525033 246.2287 
L 596.782734 289.923655 
L 598.040435 294.719015 
L 599.298136 192.724833 
L 601.813538 335.861594 
L 603.071239 281.786785 
L 604.32894 203.341998 
L 605.586641 323.528945 
L 606.844342 393.944637 
L 608.102043 369.04107 
L 609.359744 266.015548 
L 610.617445 324.506173 
L 611.875146 366.815641 
L 613.132847 378.985574 
L 614.390548 317.815498 
L 615.648249 300.745666 
L 616.90595 338.885868 
L 618.163651 334.205066 
L 619.421352 255.967512 
L 620.679053 294.648357 
L 621.936754 395.177942 
L 623.194455 420.022063 
L 624.452156 353.261034 
L 625.709857 393.023113 
L 626.967557 414.360035 
L 628.225258 368.99181 
L 629.482959 376.604805 
L 630.74066 412.406935 
L 631.998361 378.348648 
L 633.256062 338.076361 
L 634.513763 350.856333 
L 635.771464 364.775496 
L 637.029165 347.583298 
L 638.286866 212.21565 
L 639.544567 331.250518 
L 640.802268 345.390158 
L 642.059969 283.909978 
L 643.31767 231.289308 
L 644.575371 316.452647 
L 645.833072 291.76064 
L 647.090773 245.783951 
L 648.348474 274.968682 
L 649.606175 293.809363 
L 650.863876 259.872782 
L 652.121577 296.629402 
L 653.379278 300.334654 
L 654.636979 317.019913 
L 655.89468 349.269956 
L 657.152381 313.0544 
L 658.410082 325.905133 
L 659.667783 362.988015 
L 660.925484 332.23762 
L 662.183185 314.190322 
L 663.440886 320.781681 
L 664.698587 321.098205 
L 665.956288 298.037085 
L 667.213989 321.642963 
L 668.47169 355.640736 
L 669.729391 309.448633 
L 670.987092 310.516724 
L 672.244793 376.085129 
L 673.502494 409.068169 
L 674.760195 256.381165 
L 676.017896 377.085416 
L 677.275597 366.6404 
L 678.533298 398.104299 
L 679.790999 290.403953 
L 681.048699 372.424573 
L 682.3064 383.003386 
L 683.564101 389.022271 
L 684.821802 255.438928 
L 686.079503 255.303251 
L 687.337204 306.272118 
L 688.594905 300.555657 
L 689.852606 199.15008 
L 691.110307 230.979576 
L 692.368008 268.880586 
L 693.625709 340.385634 
L 694.88341 282.017391 
L 696.141111 317.608384 
L 697.398812 368.714528 
L 698.656513 388.411724 
L 699.914214 248.112564 
L 701.171915 347.059591 
L 702.429616 379.261188 
L 703.687317 352.912729 
L 704.945018 251.60645 
L 706.202719 364.130356 
L 707.46042 392.327647 
L 708.718121 349.879495 
L 709.975822 247.519115 
L 711.233523 370.612518 
L 712.491224 338.33503 
L 713.748925 330.650361 
L 715.006626 276.047833 
L 716.264327 351.985523 
L 717.522028 417.884906 
L 718.779729 397.650075 
L 720.03743 305.299039 
L 721.295131 315.265713 
L 722.552832 411.315996 
L 723.810533 393.448478 
L 725.068234 280.494033 
L 726.325935 367.557673 
L 727.583636 410.778639 
L 728.841337 415.531303 
L 730.099038 288.252849 
L 731.356739 348.641684 
L 732.61444 354.658308 
L 733.872141 402.235932 
L 735.129841 346.651205 
L 736.387542 406.654408 
L 737.645243 393.488668 
L 738.902944 397.851567 
L 740.160645 393.273508 
L 741.418346 400.593724 
L 741.418346 400.593724 
" clip-path="url(#p76ca70e79e)" style="fill: none; stroke-dasharray: 7.4,3.2; stroke-dashoffset: 0; stroke: #ffa500; stroke-width: 2"/>
   </g>
   <g id="patch_3">
    <path d="M 102.25471 450.72 
L 102.25471 7.2 
" style="fill: none; stroke: #000000; stroke-width: 0.8; stroke-linejoin: miter; stroke-linecap: square"/>
   </g>
   <g id="patch_4">
    <path d="M 771.85471 450.72 
L 771.85471 7.2 
" style="fill: none; stroke: #000000; stroke-width: 0.8; stroke-linejoin: miter; stroke-linecap: square"/>
   </g>
   <g id="patch_5">
    <path d="M 102.25471 450.72 
L 771.85471 450.72 
" style="fill: none; stroke: #000000; stroke-width: 0.8; stroke-linejoin: miter; stroke-linecap: square"/>
   </g>
   <g id="patch_6">
    <path d="M 102.25471 7.2 
L 771.85471 7.2 
" style="fill: none; stroke: #000000; stroke-width: 0.8; stroke-linejoin: miter; stroke-linecap: square"/>
   </g>
   <g id="legend_1">
    <g id="text_15">
     <!-- Forecast Horizon -->
     <g transform="translate(887.954554 31.9575) scale(0.16 -0.16)">
      <defs>
       <path id="DejaVuSans-48" d="M 628 4666 
L 1259 4666 
L 1259 2753 
L 3553 2753 
L 3553 4666 
L 4184 4666 
L 4184 0 
L 3553 0 
L 3553 2222 
L 1259 2222 
L 1259 0 
L 628 0 
L 628 4666 
z
" transform="scale(0.015625)"/>
       <path id="DejaVuSans-69" d="M 603 3500 
L 1178 3500 
L 1178 0 
L 603 0 
L 603 3500 
z
M 603 4863 
L 1178 4863 
L 1178 4134 
L 603 4134 
L 603 4863 
z
" transform="scale(0.015625)"/>
       <path id="DejaVuSans-7a" d="M 353 3500 
L 3084 3500 
L 3084 2975 
L 922 459 
L 3084 459 
L 3084 0 
L 275 0 
L 275 525 
L 2438 3041 
L 353 3041 
L 353 3500 
z
" transform="scale(0.015625)"/>
      </defs>
      <use xlink:href="#DejaVuSans-46"/>
      <use xlink:href="#DejaVuSans-6f" transform="translate(53.894531 0)"/>
      <use xlink:href="#DejaVuSans-72" transform="translate(115.076172 0)"/>
      <use xlink:href="#DejaVuSans-65" transform="translate(153.939453 0)"/>
      <use xlink:href="#DejaVuSans-63" transform="translate(215.462891 0)"/>
      <use xlink:href="#DejaVuSans-61" transform="translate(270.443359 0)"/>
      <use xlink:href="#DejaVuSans-73" transform="translate(331.722656 0)"/>
      <use xlink:href="#DejaVuSans-74" transform="translate(383.822266 0)"/>
      <use xlink:href="#DejaVuSans-20" transform="translate(423.03125 0)"/>
      <use xlink:href="#DejaVuSans-48" transform="translate(454.818359 0)"/>
      <use xlink:href="#DejaVuSans-6f" transform="translate(530.013672 0)"/>
      <use xlink:href="#DejaVuSans-72" transform="translate(591.195312 0)"/>
      <use xlink:href="#DejaVuSans-69" transform="translate(632.308594 0)"/>
      <use xlink:href="#DejaVuSans-7a" transform="translate(660.091797 0)"/>
      <use xlink:href="#DejaVuSans-6f" transform="translate(712.582031 0)"/>
      <use xlink:href="#DejaVuSans-6e" transform="translate(773.763672 0)"/>
     </g>
    </g>
    <g id="line2d_17">
     <path d="M 817.93471 48.022812 
L 831.93471 48.022812 
L 845.93471 48.022812 
" style="fill: none; stroke: #0000ff; stroke-width: 2; stroke-linecap: square"/>
    </g>
    <g id="text_16">
     <!-- USA RMSE (6h Forecast) -->
     <g transform="translate(857.13471 52.922812) scale(0.14 -0.14)">
      <defs>
       <path id="DejaVuSans-55" d="M 556 4666 
L 1191 4666 
L 1191 1831 
Q 1191 1081 1462 751 
Q 1734 422 2344 422 
Q 2950 422 3222 751 
Q 3494 1081 3494 1831 
L 3494 4666 
L 4128 4666 
L 4128 1753 
Q 4128 841 3676 375 
Q 3225 -91 2344 -91 
Q 1459 -91 1007 375 
Q 556 841 556 1753 
L 556 4666 
z
" transform="scale(0.015625)"/>
       <path id="DejaVuSans-41" d="M 2188 4044 
L 1331 1722 
L 3047 1722 
L 2188 4044 
z
M 1831 4666 
L 2547 4666 
L 4325 0 
L 3669 0 
L 3244 1197 
L 1141 1197 
L 716 0 
L 50 0 
L 1831 4666 
z
" transform="scale(0.015625)"/>
       <path id="DejaVuSans-68" d="M 3513 2113 
L 3513 0 
L 2938 0 
L 2938 2094 
Q 2938 2591 2744 2837 
Q 2550 3084 2163 3084 
Q 1697 3084 1428 2787 
Q 1159 2491 1159 1978 
L 1159 0 
L 581 0 
L 581 4863 
L 1159 4863 
L 1159 2956 
Q 1366 3272 1645 3428 
Q 1925 3584 2291 3584 
Q 2894 3584 3203 3211 
Q 3513 2838 3513 2113 
z
" transform="scale(0.015625)"/>
      </defs>
      <use xlink:href="#DejaVuSans-55"/>
      <use xlink:href="#DejaVuSans-53" transform="translate(73.193359 0)"/>
      <use xlink:href="#DejaVuSans-41" transform="translate(138.544922 0)"/>
      <use xlink:href="#DejaVuSans-20" transform="translate(206.953125 0)"/>
      <use xlink:href="#DejaVuSans-52" transform="translate(238.740234 0)"/>
      <use xlink:href="#DejaVuSans-4d" transform="translate(308.222656 0)"/>
      <use xlink:href="#DejaVuSans-53" transform="translate(394.501953 0)"/>
      <use xlink:href="#DejaVuSans-45" transform="translate(457.978516 0)"/>
      <use xlink:href="#DejaVuSans-20" transform="translate(521.162109 0)"/>
      <use xlink:href="#DejaVuSans-28" transform="translate(552.949219 0)"/>
      <use xlink:href="#DejaVuSans-36" transform="translate(591.962891 0)"/>
      <use xlink:href="#DejaVuSans-68" transform="translate(655.585938 0)"/>
      <use xlink:href="#DejaVuSans-20" transform="translate(718.964844 0)"/>
      <use xlink:href="#DejaVuSans-46" transform="translate(750.751953 0)"/>
      <use xlink:href="#DejaVuSans-6f" transform="translate(804.646484 0)"/>
      <use xlink:href="#DejaVuSans-72" transform="translate(865.828125 0)"/>
      <use xlink:href="#DejaVuSans-65" transform="translate(904.691406 0)"/>
      <use xlink:href="#DejaVuSans-63" transform="translate(966.214844 0)"/>
      <use xlink:href="#DejaVuSans-61" transform="translate(1021.195312 0)"/>
      <use xlink:href="#DejaVuSans-73" transform="translate(1082.474609 0)"/>
      <use xlink:href="#DejaVuSans-74" transform="translate(1134.574219 0)"/>
      <use xlink:href="#DejaVuSans-29" transform="translate(1173.783203 0)"/>
     </g>
    </g>
    <g id="line2d_18">
     <path d="M 817.93471 68.572187 
L 831.93471 68.572187 
L 845.93471 68.572187 
" style="fill: none; stroke: #ffa500; stroke-width: 2; stroke-linecap: square"/>
    </g>
    <g id="text_17">
     <!-- South Africa RMSE (6h Forecast) -->
     <g transform="translate(857.13471 73.472187) scale(0.14 -0.14)">
      <defs>
       <path id="DejaVuSans-66" d="M 2375 4863 
L 2375 4384 
L 1825 4384 
Q 1516 4384 1395 4259 
Q 1275 4134 1275 3809 
L 1275 3500 
L 2222 3500 
L 2222 3053 
L 1275 3053 
L 1275 0 
L 697 0 
L 697 3053 
L 147 3053 
L 147 3500 
L 697 3500 
L 697 3744 
Q 697 4328 969 4595 
Q 1241 4863 1831 4863 
L 2375 4863 
z
" transform="scale(0.015625)"/>
      </defs>
      <use xlink:href="#DejaVuSans-53"/>
      <use xlink:href="#DejaVuSans-6f" transform="translate(63.476562 0)"/>
      <use xlink:href="#DejaVuSans-75" transform="translate(124.658203 0)"/>
      <use xlink:href="#DejaVuSans-74" transform="translate(188.037109 0)"/>
      <use xlink:href="#DejaVuSans-68" transform="translate(227.246094 0)"/>
      <use xlink:href="#DejaVuSans-20" transform="translate(290.625 0)"/>
      <use xlink:href="#DejaVuSans-41" transform="translate(322.412109 0)"/>
      <use xlink:href="#DejaVuSans-66" transform="translate(387.195312 0)"/>
      <use xlink:href="#DejaVuSans-72" transform="translate(422.400391 0)"/>
      <use xlink:href="#DejaVuSans-69" transform="translate(463.513672 0)"/>
      <use xlink:href="#DejaVuSans-63" transform="translate(491.296875 0)"/>
      <use xlink:href="#DejaVuSans-61" transform="translate(546.277344 0)"/>
      <use xlink:href="#DejaVuSans-20" transform="translate(607.556641 0)"/>
      <use xlink:href="#DejaVuSans-52" transform="translate(639.34375 0)"/>
      <use xlink:href="#DejaVuSans-4d" transform="translate(708.826172 0)"/>
      <use xlink:href="#DejaVuSans-53" transform="translate(795.105469 0)"/>
      <use xlink:href="#DejaVuSans-45" transform="translate(858.582031 0)"/>
      <use xlink:href="#DejaVuSans-20" transform="translate(921.765625 0)"/>
      <use xlink:href="#DejaVuSans-28" transform="translate(953.552734 0)"/>
      <use xlink:href="#DejaVuSans-36" transform="translate(992.566406 0)"/>
      <use xlink:href="#DejaVuSans-68" transform="translate(1056.189453 0)"/>
      <use xlink:href="#DejaVuSans-20" transform="translate(1119.568359 0)"/>
      <use xlink:href="#DejaVuSans-46" transform="translate(1151.355469 0)"/>
      <use xlink:href="#DejaVuSans-6f" transform="translate(1205.25 0)"/>
      <use xlink:href="#DejaVuSans-72" transform="translate(1266.431641 0)"/>
      <use xlink:href="#DejaVuSans-65" transform="translate(1305.294922 0)"/>
      <use xlink:href="#DejaVuSans-63" transform="translate(1366.818359 0)"/>
      <use xlink:href="#DejaVuSans-61" transform="translate(1421.798828 0)"/>
      <use xlink:href="#DejaVuSans-73" transform="translate(1483.078125 0)"/>
      <use xlink:href="#DejaVuSans-74" transform="translate(1535.177734 0)"/>
      <use xlink:href="#DejaVuSans-29" transform="translate(1574.386719 0)"/>
     </g>
    </g>
    <g id="line2d_19">
     <path d="M 817.93471 89.121562 
L 831.93471 89.121562 
L 845.93471 89.121562 
" style="fill: none; stroke-dasharray: 7.4,3.2; stroke-dashoffset: 0; stroke: #0000ff; stroke-width: 2"/>
    </g>
    <g id="text_18">
     <!-- USA RMSE (12h Forecast) -->
     <g transform="translate(857.13471 94.021562) scale(0.14 -0.14)">
      <use xlink:href="#DejaVuSans-55"/>
      <use xlink:href="#DejaVuSans-53" transform="translate(73.193359 0)"/>
      <use xlink:href="#DejaVuSans-41" transform="translate(138.544922 0)"/>
      <use xlink:href="#DejaVuSans-20" transform="translate(206.953125 0)"/>
      <use xlink:href="#DejaVuSans-52" transform="translate(238.740234 0)"/>
      <use xlink:href="#DejaVuSans-4d" transform="translate(308.222656 0)"/>
      <use xlink:href="#DejaVuSans-53" transform="translate(394.501953 0)"/>
      <use xlink:href="#DejaVuSans-45" transform="translate(457.978516 0)"/>
      <use xlink:href="#DejaVuSans-20" transform="translate(521.162109 0)"/>
      <use xlink:href="#DejaVuSans-28" transform="translate(552.949219 0)"/>
      <use xlink:href="#DejaVuSans-31" transform="translate(591.962891 0)"/>
      <use xlink:href="#DejaVuSans-32" transform="translate(655.585938 0)"/>
      <use xlink:href="#DejaVuSans-68" transform="translate(719.208984 0)"/>
      <use xlink:href="#DejaVuSans-20" transform="translate(782.587891 0)"/>
      <use xlink:href="#DejaVuSans-46" transform="translate(814.375 0)"/>
      <use xlink:href="#DejaVuSans-6f" transform="translate(868.269531 0)"/>
      <use xlink:href="#DejaVuSans-72" transform="translate(929.451172 0)"/>
      <use xlink:href="#DejaVuSans-65" transform="translate(968.314453 0)"/>
      <use xlink:href="#DejaVuSans-63" transform="translate(1029.837891 0)"/>
      <use xlink:href="#DejaVuSans-61" transform="translate(1084.818359 0)"/>
      <use xlink:href="#DejaVuSans-73" transform="translate(1146.097656 0)"/>
      <use xlink:href="#DejaVuSans-74" transform="translate(1198.197266 0)"/>
      <use xlink:href="#DejaVuSans-29" transform="translate(1237.40625 0)"/>
     </g>
    </g>
    <g id="line2d_20">
     <path d="M 817.93471 109.670937 
L 831.93471 109.670937 
L 845.93471 109.670937 
" style="fill: none; stroke-dasharray: 7.4,3.2; stroke-dashoffset: 0; stroke: #ffa500; stroke-width: 2"/>
    </g>
    <g id="text_19">
     <!-- South Africa RMSE (12h Forecast) -->
     <g transform="translate(857.13471 114.570937) scale(0.14 -0.14)">
      <use xlink:href="#DejaVuSans-53"/>
      <use xlink:href="#DejaVuSans-6f" transform="translate(63.476562 0)"/>
      <use xlink:href="#DejaVuSans-75" transform="translate(124.658203 0)"/>
      <use xlink:href="#DejaVuSans-74" transform="translate(188.037109 0)"/>
      <use xlink:href="#DejaVuSans-68" transform="translate(227.246094 0)"/>
      <use xlink:href="#DejaVuSans-20" transform="translate(290.625 0)"/>
      <use xlink:href="#DejaVuSans-41" transform="translate(322.412109 0)"/>
      <use xlink:href="#DejaVuSans-66" transform="translate(387.195312 0)"/>
      <use xlink:href="#DejaVuSans-72" transform="translate(422.400391 0)"/>
      <use xlink:href="#DejaVuSans-69" transform="translate(463.513672 0)"/>
      <use xlink:href="#DejaVuSans-63" transform="translate(491.296875 0)"/>
      <use xlink:href="#DejaVuSans-61" transform="translate(546.277344 0)"/>
      <use xlink:href="#DejaVuSans-20" transform="translate(607.556641 0)"/>
      <use xlink:href="#DejaVuSans-52" transform="translate(639.34375 0)"/>
      <use xlink:href="#DejaVuSans-4d" transform="translate(708.826172 0)"/>
      <use xlink:href="#DejaVuSans-53" transform="translate(795.105469 0)"/>
      <use xlink:href="#DejaVuSans-45" transform="translate(858.582031 0)"/>
      <use xlink:href="#DejaVuSans-20" transform="translate(921.765625 0)"/>
      <use xlink:href="#DejaVuSans-28" transform="translate(953.552734 0)"/>
      <use xlink:href="#DejaVuSans-31" transform="translate(992.566406 0)"/>
      <use xlink:href="#DejaVuSans-32" transform="translate(1056.189453 0)"/>
      <use xlink:href="#DejaVuSans-68" transform="translate(1119.8125 0)"/>
      <use xlink:href="#DejaVuSans-20" transform="translate(1183.191406 0)"/>
      <use xlink:href="#DejaVuSans-46" transform="translate(1214.978516 0)"/>
      <use xlink:href="#DejaVuSans-6f" transform="translate(1268.873047 0)"/>
      <use xlink:href="#DejaVuSans-72" transform="translate(1330.054688 0)"/>
      <use xlink:href="#DejaVuSans-65" transform="translate(1368.917969 0)"/>
      <use xlink:href="#DejaVuSans-63" transform="translate(1430.441406 0)"/>
      <use xlink:href="#DejaVuSans-61" transform="translate(1485.421875 0)"/>
      <use xlink:href="#DejaVuSans-73" transform="translate(1546.701172 0)"/>
      <use xlink:href="#DejaVuSans-74" transform="translate(1598.800781 0)"/>
      <use xlink:href="#DejaVuSans-29" transform="translate(1638.009766 0)"/>
     </g>
    </g>
   </g>
  </g>
 </g>
 <defs>
  <clipPath id="p76ca70e79e">
   <rect x="102.25471" y="7.2" width="669.6" height="443.52"/>
  </clipPath>
 </defs>
</svg>
