<?xml version="1.0" encoding="utf-8" standalone="no"?>
<!DOCTYPE svg PUBLIC "-//W3C//DTD SVG 1.1//EN"
  "http://www.w3.org/Graphics/SVG/1.1/DTD/svg11.dtd">
<svg xmlns:xlink="http://www.w3.org/1999/xlink" width="1068.862305pt" height="575.421502pt" viewBox="0 0 1068.862305 575.421502" xmlns="http://www.w3.org/2000/svg" version="1.1">
 <metadata>
  <rdf:RDF xmlns:dc="http://purl.org/dc/elements/1.1/" xmlns:cc="http://creativecommons.org/ns#" xmlns:rdf="http://www.w3.org/1999/02/22-rdf-syntax-ns#">
   <cc:Work>
    <dc:type rdf:resource="http://purl.org/dc/dcmitype/StillImage"/>
    <dc:date>2025-02-27T17:13:50.327285</dc:date>
    <dc:format>image/svg+xml</dc:format>
    <dc:creator>
     <cc:Agent>
      <dc:title>Matplotlib v3.10.0, https://matplotlib.org/</dc:title>
     </cc:Agent>
    </dc:creator>
   </cc:Work>
  </rdf:RDF>
 </metadata>
 <defs>
  <style type="text/css">*{stroke-linejoin: round; stroke-linecap: butt}</style>
 </defs>
 <g id="figure_1">
  <g id="patch_1">
   <path d="M 0 575.421502 
L 1068.862305 575.421502 
L 1068.862305 0 
L 0 0 
z
" style="fill: #ffffff"/>
  </g>
  <g id="axes_1">
   <g id="patch_2">
    <path d="M 66.400118 484.397187 
L 736.000118 484.397187 
L 736.000118 40.877187 
L 66.400118 40.877187 
z
" style="fill: #ffffff"/>
   </g>
   <g id="matplotlib.axis_1">
    <g id="xtick_1">
     <g id="line2d_1">
      <defs>
       <path id="m96acee8cbc" d="M 0 0 
L 0 3.5 
" style="stroke: #000000; stroke-width: 0.8"/>
      </defs>
      <g>
       <use xlink:href="#m96acee8cbc" x="96.836481" y="484.397187" style="stroke: #000000; stroke-width: 0.8"/>
      </g>
     </g>
     <g id="text_1">
      <!-- 2022-12-01 (18:00) -->
      <g transform="translate(10.999219 546.93544) rotate(-30) scale(0.1 -0.1)">
       <defs>
        <path id="DejaVuSans-32" d="M 1228 531 
L 3431 531 
L 3431 0 
L 469 0 
L 469 531 
Q 828 903 1448 1529 
Q 2069 2156 2228 2338 
Q 2531 2678 2651 2914 
Q 2772 3150 2772 3378 
Q 2772 3750 2511 3984 
Q 2250 4219 1831 4219 
Q 1534 4219 1204 4116 
Q 875 4013 500 3803 
L 500 4441 
Q 881 4594 1212 4672 
Q 1544 4750 1819 4750 
Q 2544 4750 2975 4387 
Q 3406 4025 3406 3419 
Q 3406 3131 3298 2873 
Q 3191 2616 2906 2266 
Q 2828 2175 2409 1742 
Q 1991 1309 1228 531 
z
" transform="scale(0.015625)"/>
        <path id="DejaVuSans-30" d="M 2034 4250 
Q 1547 4250 1301 3770 
Q 1056 3291 1056 2328 
Q 1056 1369 1301 889 
Q 1547 409 2034 409 
Q 2525 409 2770 889 
Q 3016 1369 3016 2328 
Q 3016 3291 2770 3770 
Q 2525 4250 2034 4250 
z
M 2034 4750 
Q 2819 4750 3233 4129 
Q 3647 3509 3647 2328 
Q 3647 1150 3233 529 
Q 2819 -91 2034 -91 
Q 1250 -91 836 529 
Q 422 1150 422 2328 
Q 422 3509 836 4129 
Q 1250 4750 2034 4750 
z
" transform="scale(0.015625)"/>
        <path id="DejaVuSans-2d" d="M 313 2009 
L 1997 2009 
L 1997 1497 
L 313 1497 
L 313 2009 
z
" transform="scale(0.015625)"/>
        <path id="DejaVuSans-31" d="M 794 531 
L 1825 531 
L 1825 4091 
L 703 3866 
L 703 4441 
L 1819 4666 
L 2450 4666 
L 2450 531 
L 3481 531 
L 3481 0 
L 794 0 
L 794 531 
z
" transform="scale(0.015625)"/>
        <path id="DejaVuSans-20" transform="scale(0.015625)"/>
        <path id="DejaVuSans-28" d="M 1984 4856 
Q 1566 4138 1362 3434 
Q 1159 2731 1159 2009 
Q 1159 1288 1364 580 
Q 1569 -128 1984 -844 
L 1484 -844 
Q 1016 -109 783 600 
Q 550 1309 550 2009 
Q 550 2706 781 3412 
Q 1013 4119 1484 4856 
L 1984 4856 
z
" transform="scale(0.015625)"/>
        <path id="DejaVuSans-38" d="M 2034 2216 
Q 1584 2216 1326 1975 
Q 1069 1734 1069 1313 
Q 1069 891 1326 650 
Q 1584 409 2034 409 
Q 2484 409 2743 651 
Q 3003 894 3003 1313 
Q 3003 1734 2745 1975 
Q 2488 2216 2034 2216 
z
M 1403 2484 
Q 997 2584 770 2862 
Q 544 3141 544 3541 
Q 544 4100 942 4425 
Q 1341 4750 2034 4750 
Q 2731 4750 3128 4425 
Q 3525 4100 3525 3541 
Q 3525 3141 3298 2862 
Q 3072 2584 2669 2484 
Q 3125 2378 3379 2068 
Q 3634 1759 3634 1313 
Q 3634 634 3220 271 
Q 2806 -91 2034 -91 
Q 1263 -91 848 271 
Q 434 634 434 1313 
Q 434 1759 690 2068 
Q 947 2378 1403 2484 
z
M 1172 3481 
Q 1172 3119 1398 2916 
Q 1625 2713 2034 2713 
Q 2441 2713 2670 2916 
Q 2900 3119 2900 3481 
Q 2900 3844 2670 4047 
Q 2441 4250 2034 4250 
Q 1625 4250 1398 4047 
Q 1172 3844 1172 3481 
z
" transform="scale(0.015625)"/>
        <path id="DejaVuSans-3a" d="M 750 794 
L 1409 794 
L 1409 0 
L 750 0 
L 750 794 
z
M 750 3309 
L 1409 3309 
L 1409 2516 
L 750 2516 
L 750 3309 
z
" transform="scale(0.015625)"/>
        <path id="DejaVuSans-29" d="M 513 4856 
L 1013 4856 
Q 1481 4119 1714 3412 
Q 1947 2706 1947 2009 
Q 1947 1309 1714 600 
Q 1481 -109 1013 -844 
L 513 -844 
Q 928 -128 1133 580 
Q 1338 1288 1338 2009 
Q 1338 2731 1133 3434 
Q 928 4138 513 4856 
z
" transform="scale(0.015625)"/>
       </defs>
       <use xlink:href="#DejaVuSans-32"/>
       <use xlink:href="#DejaVuSans-30" transform="translate(63.623047 0)"/>
       <use xlink:href="#DejaVuSans-32" transform="translate(127.246094 0)"/>
       <use xlink:href="#DejaVuSans-32" transform="translate(190.869141 0)"/>
       <use xlink:href="#DejaVuSans-2d" transform="translate(254.492188 0)"/>
       <use xlink:href="#DejaVuSans-31" transform="translate(290.576172 0)"/>
       <use xlink:href="#DejaVuSans-32" transform="translate(354.199219 0)"/>
       <use xlink:href="#DejaVuSans-2d" transform="translate(417.822266 0)"/>
       <use xlink:href="#DejaVuSans-30" transform="translate(453.90625 0)"/>
       <use xlink:href="#DejaVuSans-31" transform="translate(517.529297 0)"/>
       <use xlink:href="#DejaVuSans-20" transform="translate(581.152344 0)"/>
       <use xlink:href="#DejaVuSans-28" transform="translate(612.939453 0)"/>
       <use xlink:href="#DejaVuSans-31" transform="translate(651.953125 0)"/>
       <use xlink:href="#DejaVuSans-38" transform="translate(715.576172 0)"/>
       <use xlink:href="#DejaVuSans-3a" transform="translate(779.199219 0)"/>
       <use xlink:href="#DejaVuSans-30" transform="translate(812.890625 0)"/>
       <use xlink:href="#DejaVuSans-30" transform="translate(876.513672 0)"/>
       <use xlink:href="#DejaVuSans-29" transform="translate(940.136719 0)"/>
      </g>
     </g>
    </g>
    <g id="xtick_2">
     <g id="line2d_2">
      <g>
       <use xlink:href="#m96acee8cbc" x="218.581936" y="484.397187" style="stroke: #000000; stroke-width: 0.8"/>
      </g>
     </g>
     <g id="text_2">
      <!-- 2022-12-09 (18:00) -->
      <g transform="translate(132.744673 546.93544) rotate(-30) scale(0.1 -0.1)">
       <defs>
        <path id="DejaVuSans-39" d="M 703 97 
L 703 672 
Q 941 559 1184 500 
Q 1428 441 1663 441 
Q 2288 441 2617 861 
Q 2947 1281 2994 2138 
Q 2813 1869 2534 1725 
Q 2256 1581 1919 1581 
Q 1219 1581 811 2004 
Q 403 2428 403 3163 
Q 403 3881 828 4315 
Q 1253 4750 1959 4750 
Q 2769 4750 3195 4129 
Q 3622 3509 3622 2328 
Q 3622 1225 3098 567 
Q 2575 -91 1691 -91 
Q 1453 -91 1209 -44 
Q 966 3 703 97 
z
M 1959 2075 
Q 2384 2075 2632 2365 
Q 2881 2656 2881 3163 
Q 2881 3666 2632 3958 
Q 2384 4250 1959 4250 
Q 1534 4250 1286 3958 
Q 1038 3666 1038 3163 
Q 1038 2656 1286 2365 
Q 1534 2075 1959 2075 
z
" transform="scale(0.015625)"/>
       </defs>
       <use xlink:href="#DejaVuSans-32"/>
       <use xlink:href="#DejaVuSans-30" transform="translate(63.623047 0)"/>
       <use xlink:href="#DejaVuSans-32" transform="translate(127.246094 0)"/>
       <use xlink:href="#DejaVuSans-32" transform="translate(190.869141 0)"/>
       <use xlink:href="#DejaVuSans-2d" transform="translate(254.492188 0)"/>
       <use xlink:href="#DejaVuSans-31" transform="translate(290.576172 0)"/>
       <use xlink:href="#DejaVuSans-32" transform="translate(354.199219 0)"/>
       <use xlink:href="#DejaVuSans-2d" transform="translate(417.822266 0)"/>
       <use xlink:href="#DejaVuSans-30" transform="translate(453.90625 0)"/>
       <use xlink:href="#DejaVuSans-39" transform="translate(517.529297 0)"/>
       <use xlink:href="#DejaVuSans-20" transform="translate(581.152344 0)"/>
       <use xlink:href="#DejaVuSans-28" transform="translate(612.939453 0)"/>
       <use xlink:href="#DejaVuSans-31" transform="translate(651.953125 0)"/>
       <use xlink:href="#DejaVuSans-38" transform="translate(715.576172 0)"/>
       <use xlink:href="#DejaVuSans-3a" transform="translate(779.199219 0)"/>
       <use xlink:href="#DejaVuSans-30" transform="translate(812.890625 0)"/>
       <use xlink:href="#DejaVuSans-30" transform="translate(876.513672 0)"/>
       <use xlink:href="#DejaVuSans-29" transform="translate(940.136719 0)"/>
      </g>
     </g>
    </g>
    <g id="xtick_3">
     <g id="line2d_3">
      <g>
       <use xlink:href="#m96acee8cbc" x="340.32739" y="484.397187" style="stroke: #000000; stroke-width: 0.8"/>
      </g>
     </g>
     <g id="text_3">
      <!-- 2022-12-17 (18:00) -->
      <g transform="translate(254.490128 546.93544) rotate(-30) scale(0.1 -0.1)">
       <defs>
        <path id="DejaVuSans-37" d="M 525 4666 
L 3525 4666 
L 3525 4397 
L 1831 0 
L 1172 0 
L 2766 4134 
L 525 4134 
L 525 4666 
z
" transform="scale(0.015625)"/>
       </defs>
       <use xlink:href="#DejaVuSans-32"/>
       <use xlink:href="#DejaVuSans-30" transform="translate(63.623047 0)"/>
       <use xlink:href="#DejaVuSans-32" transform="translate(127.246094 0)"/>
       <use xlink:href="#DejaVuSans-32" transform="translate(190.869141 0)"/>
       <use xlink:href="#DejaVuSans-2d" transform="translate(254.492188 0)"/>
       <use xlink:href="#DejaVuSans-31" transform="translate(290.576172 0)"/>
       <use xlink:href="#DejaVuSans-32" transform="translate(354.199219 0)"/>
       <use xlink:href="#DejaVuSans-2d" transform="translate(417.822266 0)"/>
       <use xlink:href="#DejaVuSans-31" transform="translate(453.90625 0)"/>
       <use xlink:href="#DejaVuSans-37" transform="translate(517.529297 0)"/>
       <use xlink:href="#DejaVuSans-20" transform="translate(581.152344 0)"/>
       <use xlink:href="#DejaVuSans-28" transform="translate(612.939453 0)"/>
       <use xlink:href="#DejaVuSans-31" transform="translate(651.953125 0)"/>
       <use xlink:href="#DejaVuSans-38" transform="translate(715.576172 0)"/>
       <use xlink:href="#DejaVuSans-3a" transform="translate(779.199219 0)"/>
       <use xlink:href="#DejaVuSans-30" transform="translate(812.890625 0)"/>
       <use xlink:href="#DejaVuSans-30" transform="translate(876.513672 0)"/>
       <use xlink:href="#DejaVuSans-29" transform="translate(940.136719 0)"/>
      </g>
     </g>
    </g>
    <g id="xtick_4">
     <g id="line2d_4">
      <g>
       <use xlink:href="#m96acee8cbc" x="462.072845" y="484.397187" style="stroke: #000000; stroke-width: 0.8"/>
      </g>
     </g>
     <g id="text_4">
      <!-- 2022-12-25 (18:00) -->
      <g transform="translate(376.235582 546.93544) rotate(-30) scale(0.1 -0.1)">
       <defs>
        <path id="DejaVuSans-35" d="M 691 4666 
L 3169 4666 
L 3169 4134 
L 1269 4134 
L 1269 2991 
Q 1406 3038 1543 3061 
Q 1681 3084 1819 3084 
Q 2600 3084 3056 2656 
Q 3513 2228 3513 1497 
Q 3513 744 3044 326 
Q 2575 -91 1722 -91 
Q 1428 -91 1123 -41 
Q 819 9 494 109 
L 494 744 
Q 775 591 1075 516 
Q 1375 441 1709 441 
Q 2250 441 2565 725 
Q 2881 1009 2881 1497 
Q 2881 1984 2565 2268 
Q 2250 2553 1709 2553 
Q 1456 2553 1204 2497 
Q 953 2441 691 2322 
L 691 4666 
z
" transform="scale(0.015625)"/>
       </defs>
       <use xlink:href="#DejaVuSans-32"/>
       <use xlink:href="#DejaVuSans-30" transform="translate(63.623047 0)"/>
       <use xlink:href="#DejaVuSans-32" transform="translate(127.246094 0)"/>
       <use xlink:href="#DejaVuSans-32" transform="translate(190.869141 0)"/>
       <use xlink:href="#DejaVuSans-2d" transform="translate(254.492188 0)"/>
       <use xlink:href="#DejaVuSans-31" transform="translate(290.576172 0)"/>
       <use xlink:href="#DejaVuSans-32" transform="translate(354.199219 0)"/>
       <use xlink:href="#DejaVuSans-2d" transform="translate(417.822266 0)"/>
       <use xlink:href="#DejaVuSans-32" transform="translate(453.90625 0)"/>
       <use xlink:href="#DejaVuSans-35" transform="translate(517.529297 0)"/>
       <use xlink:href="#DejaVuSans-20" transform="translate(581.152344 0)"/>
       <use xlink:href="#DejaVuSans-28" transform="translate(612.939453 0)"/>
       <use xlink:href="#DejaVuSans-31" transform="translate(651.953125 0)"/>
       <use xlink:href="#DejaVuSans-38" transform="translate(715.576172 0)"/>
       <use xlink:href="#DejaVuSans-3a" transform="translate(779.199219 0)"/>
       <use xlink:href="#DejaVuSans-30" transform="translate(812.890625 0)"/>
       <use xlink:href="#DejaVuSans-30" transform="translate(876.513672 0)"/>
       <use xlink:href="#DejaVuSans-29" transform="translate(940.136719 0)"/>
      </g>
     </g>
    </g>
    <g id="xtick_5">
     <g id="line2d_5">
      <g>
       <use xlink:href="#m96acee8cbc" x="583.818299" y="484.397187" style="stroke: #000000; stroke-width: 0.8"/>
      </g>
     </g>
     <g id="text_5">
      <!-- 2023-01-02 (18:00) -->
      <g transform="translate(497.981037 546.93544) rotate(-30) scale(0.1 -0.1)">
       <defs>
        <path id="DejaVuSans-33" d="M 2597 2516 
Q 3050 2419 3304 2112 
Q 3559 1806 3559 1356 
Q 3559 666 3084 287 
Q 2609 -91 1734 -91 
Q 1441 -91 1130 -33 
Q 819 25 488 141 
L 488 750 
Q 750 597 1062 519 
Q 1375 441 1716 441 
Q 2309 441 2620 675 
Q 2931 909 2931 1356 
Q 2931 1769 2642 2001 
Q 2353 2234 1838 2234 
L 1294 2234 
L 1294 2753 
L 1863 2753 
Q 2328 2753 2575 2939 
Q 2822 3125 2822 3475 
Q 2822 3834 2567 4026 
Q 2313 4219 1838 4219 
Q 1578 4219 1281 4162 
Q 984 4106 628 3988 
L 628 4550 
Q 988 4650 1302 4700 
Q 1616 4750 1894 4750 
Q 2613 4750 3031 4423 
Q 3450 4097 3450 3541 
Q 3450 3153 3228 2886 
Q 3006 2619 2597 2516 
z
" transform="scale(0.015625)"/>
       </defs>
       <use xlink:href="#DejaVuSans-32"/>
       <use xlink:href="#DejaVuSans-30" transform="translate(63.623047 0)"/>
       <use xlink:href="#DejaVuSans-32" transform="translate(127.246094 0)"/>
       <use xlink:href="#DejaVuSans-33" transform="translate(190.869141 0)"/>
       <use xlink:href="#DejaVuSans-2d" transform="translate(254.492188 0)"/>
       <use xlink:href="#DejaVuSans-30" transform="translate(290.576172 0)"/>
       <use xlink:href="#DejaVuSans-31" transform="translate(354.199219 0)"/>
       <use xlink:href="#DejaVuSans-2d" transform="translate(417.822266 0)"/>
       <use xlink:href="#DejaVuSans-30" transform="translate(453.90625 0)"/>
       <use xlink:href="#DejaVuSans-32" transform="translate(517.529297 0)"/>
       <use xlink:href="#DejaVuSans-20" transform="translate(581.152344 0)"/>
       <use xlink:href="#DejaVuSans-28" transform="translate(612.939453 0)"/>
       <use xlink:href="#DejaVuSans-31" transform="translate(651.953125 0)"/>
       <use xlink:href="#DejaVuSans-38" transform="translate(715.576172 0)"/>
       <use xlink:href="#DejaVuSans-3a" transform="translate(779.199219 0)"/>
       <use xlink:href="#DejaVuSans-30" transform="translate(812.890625 0)"/>
       <use xlink:href="#DejaVuSans-30" transform="translate(876.513672 0)"/>
       <use xlink:href="#DejaVuSans-29" transform="translate(940.136719 0)"/>
      </g>
     </g>
    </g>
    <g id="xtick_6">
     <g id="line2d_6">
      <g>
       <use xlink:href="#m96acee8cbc" x="705.563754" y="484.397187" style="stroke: #000000; stroke-width: 0.8"/>
      </g>
     </g>
     <g id="text_6">
      <!-- 2023-01-10 (18:00) -->
      <g transform="translate(619.726491 546.93544) rotate(-30) scale(0.1 -0.1)">
       <use xlink:href="#DejaVuSans-32"/>
       <use xlink:href="#DejaVuSans-30" transform="translate(63.623047 0)"/>
       <use xlink:href="#DejaVuSans-32" transform="translate(127.246094 0)"/>
       <use xlink:href="#DejaVuSans-33" transform="translate(190.869141 0)"/>
       <use xlink:href="#DejaVuSans-2d" transform="translate(254.492188 0)"/>
       <use xlink:href="#DejaVuSans-30" transform="translate(290.576172 0)"/>
       <use xlink:href="#DejaVuSans-31" transform="translate(354.199219 0)"/>
       <use xlink:href="#DejaVuSans-2d" transform="translate(417.822266 0)"/>
       <use xlink:href="#DejaVuSans-31" transform="translate(453.90625 0)"/>
       <use xlink:href="#DejaVuSans-30" transform="translate(517.529297 0)"/>
       <use xlink:href="#DejaVuSans-20" transform="translate(581.152344 0)"/>
       <use xlink:href="#DejaVuSans-28" transform="translate(612.939453 0)"/>
       <use xlink:href="#DejaVuSans-31" transform="translate(651.953125 0)"/>
       <use xlink:href="#DejaVuSans-38" transform="translate(715.576172 0)"/>
       <use xlink:href="#DejaVuSans-3a" transform="translate(779.199219 0)"/>
       <use xlink:href="#DejaVuSans-30" transform="translate(812.890625 0)"/>
       <use xlink:href="#DejaVuSans-30" transform="translate(876.513672 0)"/>
       <use xlink:href="#DejaVuSans-29" transform="translate(940.136719 0)"/>
      </g>
     </g>
    </g>
    <g id="text_7">
     <!-- Forecast Date -->
     <g transform="translate(345.693868 564.894002) scale(0.16 -0.16)">
      <defs>
       <path id="DejaVuSans-46" d="M 628 4666 
L 3309 4666 
L 3309 4134 
L 1259 4134 
L 1259 2759 
L 3109 2759 
L 3109 2228 
L 1259 2228 
L 1259 0 
L 628 0 
L 628 4666 
z
" transform="scale(0.015625)"/>
       <path id="DejaVuSans-6f" d="M 1959 3097 
Q 1497 3097 1228 2736 
Q 959 2375 959 1747 
Q 959 1119 1226 758 
Q 1494 397 1959 397 
Q 2419 397 2687 759 
Q 2956 1122 2956 1747 
Q 2956 2369 2687 2733 
Q 2419 3097 1959 3097 
z
M 1959 3584 
Q 2709 3584 3137 3096 
Q 3566 2609 3566 1747 
Q 3566 888 3137 398 
Q 2709 -91 1959 -91 
Q 1206 -91 779 398 
Q 353 888 353 1747 
Q 353 2609 779 3096 
Q 1206 3584 1959 3584 
z
" transform="scale(0.015625)"/>
       <path id="DejaVuSans-72" d="M 2631 2963 
Q 2534 3019 2420 3045 
Q 2306 3072 2169 3072 
Q 1681 3072 1420 2755 
Q 1159 2438 1159 1844 
L 1159 0 
L 581 0 
L 581 3500 
L 1159 3500 
L 1159 2956 
Q 1341 3275 1631 3429 
Q 1922 3584 2338 3584 
Q 2397 3584 2469 3576 
Q 2541 3569 2628 3553 
L 2631 2963 
z
" transform="scale(0.015625)"/>
       <path id="DejaVuSans-65" d="M 3597 1894 
L 3597 1613 
L 953 1613 
Q 991 1019 1311 708 
Q 1631 397 2203 397 
Q 2534 397 2845 478 
Q 3156 559 3463 722 
L 3463 178 
Q 3153 47 2828 -22 
Q 2503 -91 2169 -91 
Q 1331 -91 842 396 
Q 353 884 353 1716 
Q 353 2575 817 3079 
Q 1281 3584 2069 3584 
Q 2775 3584 3186 3129 
Q 3597 2675 3597 1894 
z
M 3022 2063 
Q 3016 2534 2758 2815 
Q 2500 3097 2075 3097 
Q 1594 3097 1305 2825 
Q 1016 2553 972 2059 
L 3022 2063 
z
" transform="scale(0.015625)"/>
       <path id="DejaVuSans-63" d="M 3122 3366 
L 3122 2828 
Q 2878 2963 2633 3030 
Q 2388 3097 2138 3097 
Q 1578 3097 1268 2742 
Q 959 2388 959 1747 
Q 959 1106 1268 751 
Q 1578 397 2138 397 
Q 2388 397 2633 464 
Q 2878 531 3122 666 
L 3122 134 
Q 2881 22 2623 -34 
Q 2366 -91 2075 -91 
Q 1284 -91 818 406 
Q 353 903 353 1747 
Q 353 2603 823 3093 
Q 1294 3584 2113 3584 
Q 2378 3584 2631 3529 
Q 2884 3475 3122 3366 
z
" transform="scale(0.015625)"/>
       <path id="DejaVuSans-61" d="M 2194 1759 
Q 1497 1759 1228 1600 
Q 959 1441 959 1056 
Q 959 750 1161 570 
Q 1363 391 1709 391 
Q 2188 391 2477 730 
Q 2766 1069 2766 1631 
L 2766 1759 
L 2194 1759 
z
M 3341 1997 
L 3341 0 
L 2766 0 
L 2766 531 
Q 2569 213 2275 61 
Q 1981 -91 1556 -91 
Q 1019 -91 701 211 
Q 384 513 384 1019 
Q 384 1609 779 1909 
Q 1175 2209 1959 2209 
L 2766 2209 
L 2766 2266 
Q 2766 2663 2505 2880 
Q 2244 3097 1772 3097 
Q 1472 3097 1187 3025 
Q 903 2953 641 2809 
L 641 3341 
Q 956 3463 1253 3523 
Q 1550 3584 1831 3584 
Q 2591 3584 2966 3190 
Q 3341 2797 3341 1997 
z
" transform="scale(0.015625)"/>
       <path id="DejaVuSans-73" d="M 2834 3397 
L 2834 2853 
Q 2591 2978 2328 3040 
Q 2066 3103 1784 3103 
Q 1356 3103 1142 2972 
Q 928 2841 928 2578 
Q 928 2378 1081 2264 
Q 1234 2150 1697 2047 
L 1894 2003 
Q 2506 1872 2764 1633 
Q 3022 1394 3022 966 
Q 3022 478 2636 193 
Q 2250 -91 1575 -91 
Q 1294 -91 989 -36 
Q 684 19 347 128 
L 347 722 
Q 666 556 975 473 
Q 1284 391 1588 391 
Q 1994 391 2212 530 
Q 2431 669 2431 922 
Q 2431 1156 2273 1281 
Q 2116 1406 1581 1522 
L 1381 1569 
Q 847 1681 609 1914 
Q 372 2147 372 2553 
Q 372 3047 722 3315 
Q 1072 3584 1716 3584 
Q 2034 3584 2315 3537 
Q 2597 3491 2834 3397 
z
" transform="scale(0.015625)"/>
       <path id="DejaVuSans-74" d="M 1172 4494 
L 1172 3500 
L 2356 3500 
L 2356 3053 
L 1172 3053 
L 1172 1153 
Q 1172 725 1289 603 
Q 1406 481 1766 481 
L 2356 481 
L 2356 0 
L 1766 0 
Q 1100 0 847 248 
Q 594 497 594 1153 
L 594 3053 
L 172 3053 
L 172 3500 
L 594 3500 
L 594 4494 
L 1172 4494 
z
" transform="scale(0.015625)"/>
       <path id="DejaVuSans-44" d="M 1259 4147 
L 1259 519 
L 2022 519 
Q 2988 519 3436 956 
Q 3884 1394 3884 2338 
Q 3884 3275 3436 3711 
Q 2988 4147 2022 4147 
L 1259 4147 
z
M 628 4666 
L 1925 4666 
Q 3281 4666 3915 4102 
Q 4550 3538 4550 2338 
Q 4550 1131 3912 565 
Q 3275 0 1925 0 
L 628 0 
L 628 4666 
z
" transform="scale(0.015625)"/>
      </defs>
      <use xlink:href="#DejaVuSans-46"/>
      <use xlink:href="#DejaVuSans-6f" transform="translate(53.894531 0)"/>
      <use xlink:href="#DejaVuSans-72" transform="translate(115.076172 0)"/>
      <use xlink:href="#DejaVuSans-65" transform="translate(153.939453 0)"/>
      <use xlink:href="#DejaVuSans-63" transform="translate(215.462891 0)"/>
      <use xlink:href="#DejaVuSans-61" transform="translate(270.443359 0)"/>
      <use xlink:href="#DejaVuSans-73" transform="translate(331.722656 0)"/>
      <use xlink:href="#DejaVuSans-74" transform="translate(383.822266 0)"/>
      <use xlink:href="#DejaVuSans-20" transform="translate(423.03125 0)"/>
      <use xlink:href="#DejaVuSans-44" transform="translate(454.818359 0)"/>
      <use xlink:href="#DejaVuSans-61" transform="translate(531.820312 0)"/>
      <use xlink:href="#DejaVuSans-74" transform="translate(593.099609 0)"/>
      <use xlink:href="#DejaVuSans-65" transform="translate(632.308594 0)"/>
     </g>
    </g>
   </g>
   <g id="matplotlib.axis_2">
    <g id="ytick_1">
     <g id="line2d_7">
      <defs>
       <path id="mebfbced9cb" d="M 0 0 
L -3.5 0 
" style="stroke: #000000; stroke-width: 0.8"/>
      </defs>
      <g>
       <use xlink:href="#mebfbced9cb" x="66.400118" y="457.441506" style="stroke: #000000; stroke-width: 0.8"/>
      </g>
     </g>
     <g id="text_8">
      <!-- 50 -->
      <g transform="translate(46.675118 461.240725) scale(0.1 -0.1)">
       <use xlink:href="#DejaVuSans-35"/>
       <use xlink:href="#DejaVuSans-30" transform="translate(63.623047 0)"/>
      </g>
     </g>
    </g>
    <g id="ytick_2">
     <g id="line2d_8">
      <g>
       <use xlink:href="#mebfbced9cb" x="66.400118" y="392.896698" style="stroke: #000000; stroke-width: 0.8"/>
      </g>
     </g>
     <g id="text_9">
      <!-- 100 -->
      <g transform="translate(40.312618 396.695917) scale(0.1 -0.1)">
       <use xlink:href="#DejaVuSans-31"/>
       <use xlink:href="#DejaVuSans-30" transform="translate(63.623047 0)"/>
       <use xlink:href="#DejaVuSans-30" transform="translate(127.246094 0)"/>
      </g>
     </g>
    </g>
    <g id="ytick_3">
     <g id="line2d_9">
      <g>
       <use xlink:href="#mebfbced9cb" x="66.400118" y="328.35189" style="stroke: #000000; stroke-width: 0.8"/>
      </g>
     </g>
     <g id="text_10">
      <!-- 150 -->
      <g transform="translate(40.312618 332.151109) scale(0.1 -0.1)">
       <use xlink:href="#DejaVuSans-31"/>
       <use xlink:href="#DejaVuSans-35" transform="translate(63.623047 0)"/>
       <use xlink:href="#DejaVuSans-30" transform="translate(127.246094 0)"/>
      </g>
     </g>
    </g>
    <g id="ytick_4">
     <g id="line2d_10">
      <g>
       <use xlink:href="#mebfbced9cb" x="66.400118" y="263.807082" style="stroke: #000000; stroke-width: 0.8"/>
      </g>
     </g>
     <g id="text_11">
      <!-- 200 -->
      <g transform="translate(40.312618 267.606301) scale(0.1 -0.1)">
       <use xlink:href="#DejaVuSans-32"/>
       <use xlink:href="#DejaVuSans-30" transform="translate(63.623047 0)"/>
       <use xlink:href="#DejaVuSans-30" transform="translate(127.246094 0)"/>
      </g>
     </g>
    </g>
    <g id="ytick_5">
     <g id="line2d_11">
      <g>
       <use xlink:href="#mebfbced9cb" x="66.400118" y="199.262274" style="stroke: #000000; stroke-width: 0.8"/>
      </g>
     </g>
     <g id="text_12">
      <!-- 250 -->
      <g transform="translate(40.312618 203.061492) scale(0.1 -0.1)">
       <use xlink:href="#DejaVuSans-32"/>
       <use xlink:href="#DejaVuSans-35" transform="translate(63.623047 0)"/>
       <use xlink:href="#DejaVuSans-30" transform="translate(127.246094 0)"/>
      </g>
     </g>
    </g>
    <g id="ytick_6">
     <g id="line2d_12">
      <g>
       <use xlink:href="#mebfbced9cb" x="66.400118" y="134.717465" style="stroke: #000000; stroke-width: 0.8"/>
      </g>
     </g>
     <g id="text_13">
      <!-- 300 -->
      <g transform="translate(40.312618 138.516684) scale(0.1 -0.1)">
       <use xlink:href="#DejaVuSans-33"/>
       <use xlink:href="#DejaVuSans-30" transform="translate(63.623047 0)"/>
       <use xlink:href="#DejaVuSans-30" transform="translate(127.246094 0)"/>
      </g>
     </g>
    </g>
    <g id="ytick_7">
     <g id="line2d_13">
      <g>
       <use xlink:href="#mebfbced9cb" x="66.400118" y="70.172657" style="stroke: #000000; stroke-width: 0.8"/>
      </g>
     </g>
     <g id="text_14">
      <!-- 350 -->
      <g transform="translate(40.312618 73.971876) scale(0.1 -0.1)">
       <use xlink:href="#DejaVuSans-33"/>
       <use xlink:href="#DejaVuSans-35" transform="translate(63.623047 0)"/>
       <use xlink:href="#DejaVuSans-30" transform="translate(127.246094 0)"/>
      </g>
     </g>
    </g>
    <g id="text_15">
     <!-- Root Mean Squared Error (RMSE) -->
     <g transform="translate(32.985118 394.303437) rotate(-90) scale(0.16 -0.16)">
      <defs>
       <path id="DejaVuSans-52" d="M 2841 2188 
Q 3044 2119 3236 1894 
Q 3428 1669 3622 1275 
L 4263 0 
L 3584 0 
L 2988 1197 
Q 2756 1666 2539 1819 
Q 2322 1972 1947 1972 
L 1259 1972 
L 1259 0 
L 628 0 
L 628 4666 
L 2053 4666 
Q 2853 4666 3247 4331 
Q 3641 3997 3641 3322 
Q 3641 2881 3436 2590 
Q 3231 2300 2841 2188 
z
M 1259 4147 
L 1259 2491 
L 2053 2491 
Q 2509 2491 2742 2702 
Q 2975 2913 2975 3322 
Q 2975 3731 2742 3939 
Q 2509 4147 2053 4147 
L 1259 4147 
z
" transform="scale(0.015625)"/>
       <path id="DejaVuSans-4d" d="M 628 4666 
L 1569 4666 
L 2759 1491 
L 3956 4666 
L 4897 4666 
L 4897 0 
L 4281 0 
L 4281 4097 
L 3078 897 
L 2444 897 
L 1241 4097 
L 1241 0 
L 628 0 
L 628 4666 
z
" transform="scale(0.015625)"/>
       <path id="DejaVuSans-6e" d="M 3513 2113 
L 3513 0 
L 2938 0 
L 2938 2094 
Q 2938 2591 2744 2837 
Q 2550 3084 2163 3084 
Q 1697 3084 1428 2787 
Q 1159 2491 1159 1978 
L 1159 0 
L 581 0 
L 581 3500 
L 1159 3500 
L 1159 2956 
Q 1366 3272 1645 3428 
Q 1925 3584 2291 3584 
Q 2894 3584 3203 3211 
Q 3513 2838 3513 2113 
z
" transform="scale(0.015625)"/>
       <path id="DejaVuSans-53" d="M 3425 4513 
L 3425 3897 
Q 3066 4069 2747 4153 
Q 2428 4238 2131 4238 
Q 1616 4238 1336 4038 
Q 1056 3838 1056 3469 
Q 1056 3159 1242 3001 
Q 1428 2844 1947 2747 
L 2328 2669 
Q 3034 2534 3370 2195 
Q 3706 1856 3706 1288 
Q 3706 609 3251 259 
Q 2797 -91 1919 -91 
Q 1588 -91 1214 -16 
Q 841 59 441 206 
L 441 856 
Q 825 641 1194 531 
Q 1563 422 1919 422 
Q 2459 422 2753 634 
Q 3047 847 3047 1241 
Q 3047 1584 2836 1778 
Q 2625 1972 2144 2069 
L 1759 2144 
Q 1053 2284 737 2584 
Q 422 2884 422 3419 
Q 422 4038 858 4394 
Q 1294 4750 2059 4750 
Q 2388 4750 2728 4690 
Q 3069 4631 3425 4513 
z
" transform="scale(0.015625)"/>
       <path id="DejaVuSans-71" d="M 947 1747 
Q 947 1113 1208 752 
Q 1469 391 1925 391 
Q 2381 391 2643 752 
Q 2906 1113 2906 1747 
Q 2906 2381 2643 2742 
Q 2381 3103 1925 3103 
Q 1469 3103 1208 2742 
Q 947 2381 947 1747 
z
M 2906 525 
Q 2725 213 2448 61 
Q 2172 -91 1784 -91 
Q 1150 -91 751 415 
Q 353 922 353 1747 
Q 353 2572 751 3078 
Q 1150 3584 1784 3584 
Q 2172 3584 2448 3432 
Q 2725 3281 2906 2969 
L 2906 3500 
L 3481 3500 
L 3481 -1331 
L 2906 -1331 
L 2906 525 
z
" transform="scale(0.015625)"/>
       <path id="DejaVuSans-75" d="M 544 1381 
L 544 3500 
L 1119 3500 
L 1119 1403 
Q 1119 906 1312 657 
Q 1506 409 1894 409 
Q 2359 409 2629 706 
Q 2900 1003 2900 1516 
L 2900 3500 
L 3475 3500 
L 3475 0 
L 2900 0 
L 2900 538 
Q 2691 219 2414 64 
Q 2138 -91 1772 -91 
Q 1169 -91 856 284 
Q 544 659 544 1381 
z
M 1991 3584 
L 1991 3584 
z
" transform="scale(0.015625)"/>
       <path id="DejaVuSans-64" d="M 2906 2969 
L 2906 4863 
L 3481 4863 
L 3481 0 
L 2906 0 
L 2906 525 
Q 2725 213 2448 61 
Q 2172 -91 1784 -91 
Q 1150 -91 751 415 
Q 353 922 353 1747 
Q 353 2572 751 3078 
Q 1150 3584 1784 3584 
Q 2172 3584 2448 3432 
Q 2725 3281 2906 2969 
z
M 947 1747 
Q 947 1113 1208 752 
Q 1469 391 1925 391 
Q 2381 391 2643 752 
Q 2906 1113 2906 1747 
Q 2906 2381 2643 2742 
Q 2381 3103 1925 3103 
Q 1469 3103 1208 2742 
Q 947 2381 947 1747 
z
" transform="scale(0.015625)"/>
       <path id="DejaVuSans-45" d="M 628 4666 
L 3578 4666 
L 3578 4134 
L 1259 4134 
L 1259 2753 
L 3481 2753 
L 3481 2222 
L 1259 2222 
L 1259 531 
L 3634 531 
L 3634 0 
L 628 0 
L 628 4666 
z
" transform="scale(0.015625)"/>
      </defs>
      <use xlink:href="#DejaVuSans-52"/>
      <use xlink:href="#DejaVuSans-6f" transform="translate(64.982422 0)"/>
      <use xlink:href="#DejaVuSans-6f" transform="translate(126.164062 0)"/>
      <use xlink:href="#DejaVuSans-74" transform="translate(187.345703 0)"/>
      <use xlink:href="#DejaVuSans-20" transform="translate(226.554688 0)"/>
      <use xlink:href="#DejaVuSans-4d" transform="translate(258.341797 0)"/>
      <use xlink:href="#DejaVuSans-65" transform="translate(344.621094 0)"/>
      <use xlink:href="#DejaVuSans-61" transform="translate(406.144531 0)"/>
      <use xlink:href="#DejaVuSans-6e" transform="translate(467.423828 0)"/>
      <use xlink:href="#DejaVuSans-20" transform="translate(530.802734 0)"/>
      <use xlink:href="#DejaVuSans-53" transform="translate(562.589844 0)"/>
      <use xlink:href="#DejaVuSans-71" transform="translate(626.066406 0)"/>
      <use xlink:href="#DejaVuSans-75" transform="translate(689.542969 0)"/>
      <use xlink:href="#DejaVuSans-61" transform="translate(752.921875 0)"/>
      <use xlink:href="#DejaVuSans-72" transform="translate(814.201172 0)"/>
      <use xlink:href="#DejaVuSans-65" transform="translate(853.064453 0)"/>
      <use xlink:href="#DejaVuSans-64" transform="translate(914.587891 0)"/>
      <use xlink:href="#DejaVuSans-20" transform="translate(978.064453 0)"/>
      <use xlink:href="#DejaVuSans-45" transform="translate(1009.851562 0)"/>
      <use xlink:href="#DejaVuSans-72" transform="translate(1073.035156 0)"/>
      <use xlink:href="#DejaVuSans-72" transform="translate(1112.398438 0)"/>
      <use xlink:href="#DejaVuSans-6f" transform="translate(1151.261719 0)"/>
      <use xlink:href="#DejaVuSans-72" transform="translate(1212.443359 0)"/>
      <use xlink:href="#DejaVuSans-20" transform="translate(1253.556641 0)"/>
      <use xlink:href="#DejaVuSans-28" transform="translate(1285.34375 0)"/>
      <use xlink:href="#DejaVuSans-52" transform="translate(1324.357422 0)"/>
      <use xlink:href="#DejaVuSans-4d" transform="translate(1393.839844 0)"/>
      <use xlink:href="#DejaVuSans-53" transform="translate(1480.119141 0)"/>
      <use xlink:href="#DejaVuSans-45" transform="translate(1543.595703 0)"/>
      <use xlink:href="#DejaVuSans-29" transform="translate(1606.779297 0)"/>
     </g>
    </g>
   </g>
   <g id="line2d_14">
    <path d="M 96.836481 445.679989 
L 100.641027 454.818374 
L 104.445572 445.986783 
L 108.250118 456.020804 
L 112.054663 446.382225 
L 115.859208 456.531383 
L 119.663754 448.468295 
L 123.468299 456.991797 
L 127.272845 450.135404 
L 131.07739 457.258571 
L 134.881936 442.787724 
L 138.686481 455.561546 
L 142.491027 449.060958 
L 146.295572 455.903003 
L 150.100118 448.006871 
L 153.904663 453.278477 
L 157.709208 445.706521 
L 161.513754 457.502495 
L 165.318299 448.530706 
L 169.122845 459.21643 
L 172.92739 451.281686 
L 176.731936 458.250995 
L 180.536481 447.029076 
L 184.341027 457.733094 
L 188.145572 448.781229 
L 191.950118 458.412303 
L 195.754663 447.58886 
L 199.559208 456.629708 
L 203.363754 451.165761 
L 207.168299 458.623987 
L 210.972845 444.909137 
L 214.77739 458.194065 
L 218.581936 449.748702 
L 222.386481 457.615672 
L 226.191027 448.130763 
L 229.995572 457.147767 
L 233.800118 448.796711 
L 237.604663 457.709141 
L 241.409208 446.705944 
L 245.213754 455.433862 
L 249.018299 445.925001 
L 252.822845 453.475176 
L 256.62739 445.151189 
L 260.431936 449.668661 
L 264.236481 445.943739 
L 268.041027 454.196149 
L 271.845572 443.461576 
L 275.650118 453.152019 
L 279.454663 448.568338 
L 283.259208 451.449952 
L 287.063754 445.053963 
L 290.868299 451.138273 
L 294.672845 444.34369 
L 298.47739 452.524062 
L 302.281936 441.648381 
L 306.086481 450.576057 
L 309.891027 444.145572 
L 313.695572 453.296175 
L 317.500118 444.641433 
L 321.304663 453.323352 
L 325.109208 449.403247 
L 328.913754 453.994683 
L 332.718299 444.189498 
L 336.522845 451.810012 
L 340.32739 448.009092 
L 344.131936 454.794569 
L 347.936481 445.115074 
L 351.741027 451.036378 
L 355.545572 447.961714 
L 359.350118 453.812481 
L 363.154663 446.515011 
L 366.959208 454.019531 
L 370.763754 445.959428 
L 374.568299 455.709007 
L 378.372845 446.680046 
L 382.17739 454.859724 
L 385.981936 447.230833 
L 389.786481 456.758677 
L 393.591027 442.242167 
L 397.395572 453.88126 
L 401.200118 446.11034 
L 405.004663 453.863778 
L 408.809208 442.627687 
L 412.613754 450.686496 
L 416.418299 441.200563 
L 420.222845 455.463389 
L 424.02739 440.864996 
L 427.831936 449.206036 
L 431.636481 439.377494 
L 435.441027 453.950127 
L 439.245572 438.83368 
L 443.050118 451.159886 
L 446.854663 443.120947 
L 450.659208 451.695678 
L 454.463754 443.522968 
L 458.268299 452.453348 
L 462.072845 443.269378 
L 465.87739 453.259907 
L 469.681936 448.545351 
L 473.486481 453.489368 
L 477.291027 446.680194 
L 481.095572 458.036416 
L 484.900118 444.056052 
L 488.704663 452.628961 
L 492.509208 449.877568 
L 496.313754 456.867088 
L 500.118299 445.156394 
L 503.922845 454.431136 
L 507.72739 448.093234 
L 511.531936 452.401691 
L 515.336481 444.558905 
L 519.141027 451.173192 
L 522.945572 445.751703 
L 526.750118 457.081785 
L 530.554663 447.028426 
L 534.359208 452.996063 
L 538.163754 450.395219 
L 541.968299 458.164853 
L 545.772845 447.099889 
L 549.57739 455.892691 
L 553.381936 454.140105 
L 557.186481 458.335271 
L 560.991027 447.351697 
L 564.795572 459.601151 
L 568.600118 452.155137 
L 572.404663 458.450575 
L 576.209208 451.104349 
L 580.013754 455.809282 
L 583.818299 453.832302 
L 587.622845 460.424335 
L 591.42739 448.557411 
L 595.231936 455.338231 
L 599.036481 449.470416 
L 602.841027 458.907129 
L 606.645572 446.183674 
L 610.450118 453.848921 
L 614.254663 451.091383 
L 618.059208 456.482927 
L 621.863754 445.264455 
L 625.668299 454.846664 
L 629.472845 451.752574 
L 633.27739 454.73431 
L 637.081936 442.175861 
L 640.886481 450.026599 
L 644.691027 450.980939 
L 648.495572 457.480965 
L 652.300118 443.656168 
L 656.104663 452.700271 
L 659.909208 454.174871 
L 663.713754 458.567657 
L 667.518299 446.785458 
L 671.322845 458.314234 
L 675.12739 451.911292 
L 678.931936 460.204004 
L 682.736481 450.172135 
L 686.541027 459.17113 
L 690.345572 450.9379 
L 694.150118 458.953532 
L 697.954663 445.94237 
L 701.759208 456.345133 
L 705.563754 453.321486 
L 705.563754 453.321486 
" clip-path="url(#pf0dc6a3319)" style="fill: none; stroke: #0000ff; stroke-linecap: square"/>
   </g>
   <g id="line2d_15">
    <path d="M 96.836481 162.078846 
L 100.641027 398.215805 
L 104.445572 305.882268 
L 108.250118 397.890313 
L 112.054663 173.57979 
L 115.859208 427.301289 
L 119.663754 426.275443 
L 123.468299 385.768474 
L 127.272845 359.823374 
L 131.07739 370.494737 
L 134.881936 448.20519 
L 138.686481 391.59355 
L 142.491027 332.41657 
L 150.100118 416.79565 
L 153.904663 367.729108 
L 157.709208 335.011678 
L 161.513754 397.755513 
L 165.318299 419.06443 
L 169.122845 404.425632 
L 172.92739 319.970835 
L 176.731936 373.464157 
L 180.536481 420.127701 
L 184.341027 422.784709 
L 188.145572 316.870112 
L 191.950118 282.661639 
L 195.754663 382.626691 
L 199.559208 341.414276 
L 203.363754 359.982451 
L 207.168299 324.785458 
L 210.972845 434.843821 
L 214.77739 439.334588 
L 218.581936 337.915564 
L 222.386481 420.969957 
L 226.191027 355.413081 
L 229.995572 410.243332 
L 233.800118 330.816738 
L 237.604663 358.390183 
L 241.409208 394.805968 
L 245.213754 346.947248 
L 249.018299 374.120222 
L 252.822845 303.666652 
L 256.62739 397.468707 
L 260.431936 378.904058 
L 264.236481 387.190733 
L 268.041027 281.961117 
L 271.845572 443.401784 
L 275.650118 406.174506 
L 279.454663 316.34992 
L 283.259208 416.096911 
L 287.063754 433.250115 
L 290.868299 373.810725 
L 294.672845 355.884029 
L 298.47739 390.851397 
L 302.281936 372.536591 
L 306.086481 411.042519 
L 309.891027 342.243344 
L 313.695572 370.399726 
L 317.500118 428.422107 
L 321.304663 373.179804 
L 325.109208 206.604285 
L 328.913754 421.219249 
L 332.718299 378.490962 
L 336.522845 326.578228 
L 340.32739 336.688724 
L 344.131936 348.949303 
L 347.936481 442.949175 
L 351.741027 358.680425 
L 355.545572 357.764324 
L 359.350118 438.602382 
L 363.154663 368.48367 
L 366.959208 441.928676 
L 370.763754 258.033032 
L 374.568299 399.323159 
L 378.372845 394.408 
L 382.17739 375.988876 
L 385.981936 337.450545 
L 389.786481 309.350192 
L 393.591027 348.356368 
L 397.395572 268.095014 
L 401.200118 383.246404 
L 405.004663 360.082908 
L 408.809208 413.459109 
L 412.613754 410.195891 
L 416.418299 333.909248 
L 420.222845 423.327326 
L 424.02739 376.253226 
L 427.831936 435.430955 
L 431.636481 277.087164 
L 435.441027 410.950069 
L 439.245572 422.655788 
L 443.050118 442.264086 
L 446.854663 179.531315 
L 450.659208 410.314578 
L 454.463754 395.71103 
L 458.268299 352.686866 
L 462.072845 341.202271 
L 465.87739 386.303507 
L 469.681936 350.447968 
L 473.486481 353.28699 
L 477.291027 425.852084 
L 481.095572 319.03735 
L 484.900118 384.270448 
L 488.704663 437.024996 
L 492.509208 391.095922 
L 496.313754 409.979701 
L 500.118299 456.799545 
L 503.922845 442.01832 
L 507.72739 234.802298 
L 511.531936 401.12692 
L 515.336481 371.668128 
L 519.141027 353.591238 
L 522.945572 336.468014 
L 526.750118 343.375261 
L 530.554663 334.902396 
L 534.359208 318.8752 
L 538.163754 411.968194 
L 541.968299 320.967096 
L 545.772845 439.569825 
L 549.57739 432.157199 
L 553.381936 383.075341 
L 557.186481 418.646478 
L 560.991027 433.289293 
L 564.795572 423.253677 
L 568.600118 251.002419 
L 572.404663 434.662072 
L 576.209208 456.881265 
L 580.013754 403.748954 
L 583.818299 362.985839 
L 587.622845 375.655269 
L 591.42739 413.903534 
L 595.231936 412.553033 
L 599.036481 280.417068 
L 602.841027 388.608904 
L 606.645572 400.923366 
L 610.450118 464.237187 
L 614.254663 335.333299 
L 618.059208 393.280071 
L 621.863754 386.406329 
L 625.668299 406.796455 
L 629.472845 382.463162 
L 633.27739 294.817072 
L 637.081936 335.932911 
L 640.886481 362.588185 
L 644.691027 440.723898 
L 648.495572 357.93584 
L 652.300118 402.140514 
L 656.104663 436.845797 
L 659.909208 425.523579 
L 663.713754 417.650404 
L 667.518299 412.320307 
L 671.322845 443.426244 
L 675.12739 348.635955 
L 678.931936 438.513133 
L 682.736481 445.1202 
L 686.541027 414.352085 
L 690.345572 422.663569 
L 694.150118 384.13943 
L 697.954663 410.803372 
L 701.759208 354.680176 
L 705.563754 412.1449 
L 705.563754 412.1449 
" clip-path="url(#pf0dc6a3319)" style="fill: none; stroke: #ffa500; stroke-linecap: square"/>
   </g>
   <g id="line2d_16">
    <path d="M 96.836481 435.203025 
L 100.641027 436.298975 
L 104.445572 437.66873 
L 108.250118 435.810122 
L 112.054663 435.774056 
L 115.859208 438.939682 
L 119.663754 441.227632 
L 123.468299 444.727289 
L 127.272845 442.94298 
L 131.07739 434.149947 
L 134.881936 433.300679 
L 138.686481 440.956777 
L 142.491027 440.421974 
L 146.295572 440.928845 
L 150.100118 439.248106 
L 153.904663 436.584884 
L 157.709208 440.574517 
L 161.513754 441.362225 
L 165.318299 443.755453 
L 169.122845 445.993805 
L 176.731936 440.046678 
L 184.341027 443.993286 
L 188.145572 444.131055 
L 191.950118 442.906229 
L 195.754663 441.487122 
L 199.559208 445.56691 
L 203.363754 442.490809 
L 207.168299 442.963126 
L 210.972845 441.249772 
L 214.77739 442.921081 
L 218.581936 444.094585 
L 222.386481 443.40302 
L 226.191027 443.220774 
L 229.995572 443.617241 
L 233.800118 444.457177 
L 237.604663 443.198777 
L 241.409208 441.277531 
L 245.213754 439.586366 
L 249.018299 438.952643 
L 252.822845 437.902116 
L 256.62739 435.350372 
L 260.431936 435.307185 
L 264.236481 437.660033 
L 268.041027 436.872497 
L 271.845572 434.993424 
L 275.650118 441.35607 
L 279.454663 438.841402 
L 283.259208 433.70692 
L 287.063754 437.360424 
L 290.868299 434.846549 
L 294.672845 435.26193 
L 298.47739 429.429507 
L 302.281936 431.862346 
L 306.086481 432.747996 
L 309.891027 434.064597 
L 313.695572 437.307793 
L 317.500118 436.230693 
L 321.304663 443.511726 
L 328.913754 436.55843 
L 332.718299 438.685338 
L 336.522845 442.291569 
L 340.32739 441.293412 
L 347.936481 435.600629 
L 351.741027 438.768442 
L 355.545572 438.018075 
L 359.350118 438.098096 
L 363.154663 438.510011 
L 366.959208 437.291513 
L 370.763754 440.990538 
L 374.568299 439.688055 
L 378.372845 438.800638 
L 382.17739 441.543304 
L 385.981936 440.947533 
L 389.786481 436.71994 
L 393.591027 436.469191 
L 397.395572 439.394882 
L 401.200118 437.511435 
L 405.004663 435.917946 
L 408.809208 435.755678 
L 412.613754 432.674357 
L 416.418299 436.680161 
L 420.222845 437.810335 
L 424.02739 434.175445 
L 427.831936 429.751955 
L 431.636481 433.788153 
L 435.441027 437.339388 
L 439.245572 437.265157 
L 443.050118 435.898485 
L 446.854663 433.729149 
L 450.659208 436.175816 
L 454.463754 437.722228 
L 458.268299 435.528497 
L 462.072845 434.933908 
L 465.87739 439.661 
L 469.681936 441.432964 
L 473.486481 440.951562 
L 477.291027 440.867084 
L 484.900118 437.720318 
L 488.704663 442.543766 
L 496.313754 439.962978 
L 500.118299 441.200696 
L 503.922845 442.250036 
L 507.72739 437.865222 
L 511.531936 437.681326 
L 515.336481 440.058654 
L 519.141027 436.858975 
L 522.945572 437.783015 
L 526.750118 441.495878 
L 530.554663 438.747435 
L 534.359208 442.827681 
L 538.163754 443.402395 
L 541.968299 440.946337 
L 545.772845 441.742574 
L 549.57739 447.733844 
L 553.381936 447.894112 
L 557.186481 440.417705 
L 560.991027 446.038966 
L 564.795572 449.471322 
L 568.600118 443.965187 
L 572.404663 444.091527 
L 576.209208 443.32168 
L 580.013754 447.896333 
L 583.818299 447.605475 
L 587.622845 442.928606 
L 591.42739 443.894592 
L 595.231936 442.530706 
L 599.036481 442.637196 
L 602.841027 441.154308 
L 606.645572 440.368589 
L 610.450118 443.503808 
L 614.254663 445.05122 
L 618.059208 438.687298 
L 621.863754 441.982219 
L 625.668299 446.023129 
L 629.472845 443.509028 
L 633.27739 436.052411 
L 637.081936 436.397236 
L 640.886481 445.539954 
L 644.691027 446.06736 
L 648.495572 438.051571 
L 652.300118 439.354867 
L 656.104663 446.837868 
L 659.909208 447.196161 
L 663.713754 440.227742 
L 667.518299 444.175842 
L 671.322845 447.019735 
L 675.12739 444.414379 
L 678.931936 446.355855 
L 682.736481 446.200432 
L 686.541027 444.984066 
L 690.345572 442.338493 
L 694.150118 439.992963 
L 697.954663 440.288135 
L 701.759208 447.397297 
L 705.563754 447.984509 
L 705.563754 447.984509 
" clip-path="url(#pf0dc6a3319)" style="fill: none; stroke-dasharray: 3.7,1.6; stroke-dashoffset: 0; stroke: #0000ff"/>
   </g>
   <g id="line2d_17">
    <path d="M 96.836481 120.285492 
L 100.641027 228.479475 
L 104.445572 150.610167 
L 108.250118 61.037187 
L 112.054663 134.642733 
L 115.859208 365.472039 
L 119.663754 396.119339 
L 123.468299 424.140557 
L 127.272845 385.421906 
L 131.07739 383.529074 
L 134.881936 409.347923 
L 138.686481 402.293081 
L 142.491027 372.69948 
L 146.295572 337.892498 
L 150.100118 345.470052 
L 153.904663 372.035999 
L 157.709208 337.777997 
L 161.513754 381.134014 
L 165.318299 360.542126 
L 169.122845 352.178868 
L 172.92739 280.569724 
L 176.731936 333.331303 
L 180.536481 361.111709 
L 184.341027 251.954636 
L 188.145572 316.438894 
L 191.950118 151.341654 
L 195.754663 214.588081 
L 199.559208 263.517666 
L 203.363754 271.577278 
L 207.168299 286.145321 
L 210.972845 362.497892 
L 214.77739 307.895748 
L 218.581936 273.769808 
L 222.386481 311.093993 
L 226.191027 337.184353 
L 229.995572 283.981136 
L 233.800118 308.14955 
L 237.604663 263.399225 
L 241.409208 249.331419 
L 245.213754 274.574431 
L 249.018299 287.068032 
L 252.822845 240.233572 
L 256.62739 278.242325 
L 260.431936 300.232214 
L 264.236481 282.613498 
L 268.041027 290.350445 
L 271.845572 365.592696 
L 275.650118 322.743929 
L 279.454663 355.058742 
L 283.259208 406.522649 
L 287.063754 346.047997 
L 290.868299 366.57966 
L 294.672845 367.449137 
L 298.47739 323.492021 
L 302.281936 300.069729 
L 306.086481 313.808429 
L 309.891027 315.895479 
L 313.695572 400.726893 
L 317.500118 277.095477 
L 321.304663 83.769417 
L 325.109208 237.345306 
L 328.913754 325.344198 
L 332.718299 315.8368 
L 336.522845 308.913577 
L 340.32739 388.141955 
L 344.131936 355.975543 
L 347.936481 363.793092 
L 351.741027 408.435396 
L 355.545572 364.206316 
L 359.350118 364.716157 
L 363.154663 316.820888 
L 366.959208 245.732448 
L 370.763754 321.647802 
L 374.568299 326.188887 
L 378.372845 332.058765 
L 382.17739 337.460611 
L 385.981936 322.412795 
L 389.786481 145.218091 
L 393.591027 110.039319 
L 397.395572 258.002737 
L 401.200118 284.705492 
L 405.004663 295.583089 
L 408.809208 336.159885 
L 412.613754 288.306572 
L 416.418299 324.061949 
L 420.222845 339.139548 
L 424.02739 310.629447 
L 427.831936 240.137015 
L 431.636481 231.675121 
L 435.441027 371.183264 
L 439.245572 368.9161 
L 443.050118 171.531131 
L 446.854663 155.085363 
L 450.659208 301.160952 
L 454.463754 290.246737 
L 458.268299 326.834926 
L 462.072845 320.171493 
L 465.87739 311.23225 
L 469.681936 216.666464 
L 473.486481 359.171278 
L 477.291027 292.214007 
L 481.095572 215.707628 
L 484.900118 316.055088 
L 488.704663 350.033651 
L 492.509208 373.81884 
L 496.313754 426.64288 
L 500.118299 410.48052 
L 503.922845 219.907276 
L 507.72739 219.158317 
L 511.531936 265.746676 
L 515.336481 258.69867 
L 519.141027 295.810457 
L 522.945572 312.726937 
L 526.750118 158.987401 
L 530.554663 121.223606 
L 534.359208 337.486907 
L 538.163754 331.874376 
L 541.968299 287.470353 
L 545.772845 370.268285 
L 549.57739 370.844614 
L 553.381936 384.156134 
L 557.186481 409.696628 
L 560.991027 395.001259 
L 564.795572 217.05285 
L 568.600118 249.151719 
L 572.404663 410.166344 
L 576.209208 381.913533 
L 580.013754 361.426918 
L 583.818299 357.342915 
L 587.622845 355.721997 
L 591.42739 357.460135 
L 595.231936 204.307004 
L 599.036481 245.46399 
L 602.841027 334.049612 
L 606.645572 381.782131 
L 610.450118 335.369995 
L 614.254663 333.990539 
L 618.059208 269.739913 
L 621.863754 308.63667 
L 625.668299 306.879455 
L 629.472845 292.076833 
L 633.27739 129.415919 
L 637.081936 172.384585 
L 640.886481 332.511079 
L 644.691027 307.744747 
L 648.495572 292.298411 
L 652.300118 353.44914 
L 656.104663 435.086504 
L 659.909208 340.239811 
L 663.713754 339.992864 
L 667.518299 327.918998 
L 671.322845 261.65702 
L 675.12739 318.255674 
L 678.931936 433.810687 
L 682.736481 374.590313 
L 686.541027 397.844989 
L 690.345572 372.848777 
L 694.150118 306.565634 
L 697.954663 267.79504 
L 701.759208 380.319512 
L 705.563754 372.713701 
L 705.563754 372.713701 
" clip-path="url(#pf0dc6a3319)" style="fill: none; stroke-dasharray: 3.7,1.6; stroke-dashoffset: 0; stroke: #ffa500"/>
   </g>
   <g id="patch_3">
    <path d="M 66.400118 484.397187 
L 66.400118 40.877187 
" style="fill: none; stroke: #000000; stroke-width: 0.8; stroke-linejoin: miter; stroke-linecap: square"/>
   </g>
   <g id="patch_4">
    <path d="M 736.000118 484.397187 
L 736.000118 40.877187 
" style="fill: none; stroke: #000000; stroke-width: 0.8; stroke-linejoin: miter; stroke-linecap: square"/>
   </g>
   <g id="patch_5">
    <path d="M 66.400118 484.397187 
L 736.000118 484.397187 
" style="fill: none; stroke: #000000; stroke-width: 0.8; stroke-linejoin: miter; stroke-linecap: square"/>
   </g>
   <g id="patch_6">
    <path d="M 66.400118 40.877187 
L 736.000118 40.877187 
" style="fill: none; stroke: #000000; stroke-width: 0.8; stroke-linejoin: miter; stroke-linecap: square"/>
   </g>
   <g id="text_16">
    <!-- Mean sea-level pressure two steps forward prediction: RMSES -->
    <g transform="translate(123.025586 20.877187) scale(0.18 -0.18)">
     <defs>
      <path id="DejaVuSans-6c" d="M 603 4863 
L 1178 4863 
L 1178 0 
L 603 0 
L 603 4863 
z
" transform="scale(0.015625)"/>
      <path id="DejaVuSans-76" d="M 191 3500 
L 800 3500 
L 1894 563 
L 2988 3500 
L 3597 3500 
L 2284 0 
L 1503 0 
L 191 3500 
z
" transform="scale(0.015625)"/>
      <path id="DejaVuSans-70" d="M 1159 525 
L 1159 -1331 
L 581 -1331 
L 581 3500 
L 1159 3500 
L 1159 2969 
Q 1341 3281 1617 3432 
Q 1894 3584 2278 3584 
Q 2916 3584 3314 3078 
Q 3713 2572 3713 1747 
Q 3713 922 3314 415 
Q 2916 -91 2278 -91 
Q 1894 -91 1617 61 
Q 1341 213 1159 525 
z
M 3116 1747 
Q 3116 2381 2855 2742 
Q 2594 3103 2138 3103 
Q 1681 3103 1420 2742 
Q 1159 2381 1159 1747 
Q 1159 1113 1420 752 
Q 1681 391 2138 391 
Q 2594 391 2855 752 
Q 3116 1113 3116 1747 
z
" transform="scale(0.015625)"/>
      <path id="DejaVuSans-77" d="M 269 3500 
L 844 3500 
L 1563 769 
L 2278 3500 
L 2956 3500 
L 3675 769 
L 4391 3500 
L 4966 3500 
L 4050 0 
L 3372 0 
L 2619 2869 
L 1863 0 
L 1184 0 
L 269 3500 
z
" transform="scale(0.015625)"/>
      <path id="DejaVuSans-66" d="M 2375 4863 
L 2375 4384 
L 1825 4384 
Q 1516 4384 1395 4259 
Q 1275 4134 1275 3809 
L 1275 3500 
L 2222 3500 
L 2222 3053 
L 1275 3053 
L 1275 0 
L 697 0 
L 697 3053 
L 147 3053 
L 147 3500 
L 697 3500 
L 697 3744 
Q 697 4328 969 4595 
Q 1241 4863 1831 4863 
L 2375 4863 
z
" transform="scale(0.015625)"/>
      <path id="DejaVuSans-69" d="M 603 3500 
L 1178 3500 
L 1178 0 
L 603 0 
L 603 3500 
z
M 603 4863 
L 1178 4863 
L 1178 4134 
L 603 4134 
L 603 4863 
z
" transform="scale(0.015625)"/>
     </defs>
     <use xlink:href="#DejaVuSans-4d"/>
     <use xlink:href="#DejaVuSans-65" transform="translate(86.279297 0)"/>
     <use xlink:href="#DejaVuSans-61" transform="translate(147.802734 0)"/>
     <use xlink:href="#DejaVuSans-6e" transform="translate(209.082031 0)"/>
     <use xlink:href="#DejaVuSans-20" transform="translate(272.460938 0)"/>
     <use xlink:href="#DejaVuSans-73" transform="translate(304.248047 0)"/>
     <use xlink:href="#DejaVuSans-65" transform="translate(356.347656 0)"/>
     <use xlink:href="#DejaVuSans-61" transform="translate(417.871094 0)"/>
     <use xlink:href="#DejaVuSans-2d" transform="translate(479.150391 0)"/>
     <use xlink:href="#DejaVuSans-6c" transform="translate(515.234375 0)"/>
     <use xlink:href="#DejaVuSans-65" transform="translate(543.017578 0)"/>
     <use xlink:href="#DejaVuSans-76" transform="translate(604.541016 0)"/>
     <use xlink:href="#DejaVuSans-65" transform="translate(663.720703 0)"/>
     <use xlink:href="#DejaVuSans-6c" transform="translate(725.244141 0)"/>
     <use xlink:href="#DejaVuSans-20" transform="translate(753.027344 0)"/>
     <use xlink:href="#DejaVuSans-70" transform="translate(784.814453 0)"/>
     <use xlink:href="#DejaVuSans-72" transform="translate(848.291016 0)"/>
     <use xlink:href="#DejaVuSans-65" transform="translate(887.154297 0)"/>
     <use xlink:href="#DejaVuSans-73" transform="translate(948.677734 0)"/>
     <use xlink:href="#DejaVuSans-73" transform="translate(1000.777344 0)"/>
     <use xlink:href="#DejaVuSans-75" transform="translate(1052.876953 0)"/>
     <use xlink:href="#DejaVuSans-72" transform="translate(1116.255859 0)"/>
     <use xlink:href="#DejaVuSans-65" transform="translate(1155.119141 0)"/>
     <use xlink:href="#DejaVuSans-20" transform="translate(1216.642578 0)"/>
     <use xlink:href="#DejaVuSans-74" transform="translate(1248.429688 0)"/>
     <use xlink:href="#DejaVuSans-77" transform="translate(1287.638672 0)"/>
     <use xlink:href="#DejaVuSans-6f" transform="translate(1369.425781 0)"/>
     <use xlink:href="#DejaVuSans-20" transform="translate(1430.607422 0)"/>
     <use xlink:href="#DejaVuSans-73" transform="translate(1462.394531 0)"/>
     <use xlink:href="#DejaVuSans-74" transform="translate(1514.494141 0)"/>
     <use xlink:href="#DejaVuSans-65" transform="translate(1553.703125 0)"/>
     <use xlink:href="#DejaVuSans-70" transform="translate(1615.226562 0)"/>
     <use xlink:href="#DejaVuSans-73" transform="translate(1678.703125 0)"/>
     <use xlink:href="#DejaVuSans-20" transform="translate(1730.802734 0)"/>
     <use xlink:href="#DejaVuSans-66" transform="translate(1762.589844 0)"/>
     <use xlink:href="#DejaVuSans-6f" transform="translate(1797.794922 0)"/>
     <use xlink:href="#DejaVuSans-72" transform="translate(1858.976562 0)"/>
     <use xlink:href="#DejaVuSans-77" transform="translate(1900.089844 0)"/>
     <use xlink:href="#DejaVuSans-61" transform="translate(1981.876953 0)"/>
     <use xlink:href="#DejaVuSans-72" transform="translate(2043.15625 0)"/>
     <use xlink:href="#DejaVuSans-64" transform="translate(2082.519531 0)"/>
     <use xlink:href="#DejaVuSans-20" transform="translate(2145.996094 0)"/>
     <use xlink:href="#DejaVuSans-70" transform="translate(2177.783203 0)"/>
     <use xlink:href="#DejaVuSans-72" transform="translate(2241.259766 0)"/>
     <use xlink:href="#DejaVuSans-65" transform="translate(2280.123047 0)"/>
     <use xlink:href="#DejaVuSans-64" transform="translate(2341.646484 0)"/>
     <use xlink:href="#DejaVuSans-69" transform="translate(2405.123047 0)"/>
     <use xlink:href="#DejaVuSans-63" transform="translate(2432.90625 0)"/>
     <use xlink:href="#DejaVuSans-74" transform="translate(2487.886719 0)"/>
     <use xlink:href="#DejaVuSans-69" transform="translate(2527.095703 0)"/>
     <use xlink:href="#DejaVuSans-6f" transform="translate(2554.878906 0)"/>
     <use xlink:href="#DejaVuSans-6e" transform="translate(2616.060547 0)"/>
     <use xlink:href="#DejaVuSans-3a" transform="translate(2679.439453 0)"/>
     <use xlink:href="#DejaVuSans-20" transform="translate(2713.130859 0)"/>
     <use xlink:href="#DejaVuSans-52" transform="translate(2744.917969 0)"/>
     <use xlink:href="#DejaVuSans-4d" transform="translate(2814.400391 0)"/>
     <use xlink:href="#DejaVuSans-53" transform="translate(2900.679688 0)"/>
     <use xlink:href="#DejaVuSans-45" transform="translate(2964.15625 0)"/>
     <use xlink:href="#DejaVuSans-53" transform="translate(3027.339844 0)"/>
    </g>
   </g>
   <g id="legend_1">
    <g id="text_17">
     <!-- Forecast Horizon -->
     <g transform="translate(852.099961 65.634687) scale(0.16 -0.16)">
      <defs>
       <path id="DejaVuSans-48" d="M 628 4666 
L 1259 4666 
L 1259 2753 
L 3553 2753 
L 3553 4666 
L 4184 4666 
L 4184 0 
L 3553 0 
L 3553 2222 
L 1259 2222 
L 1259 0 
L 628 0 
L 628 4666 
z
" transform="scale(0.015625)"/>
       <path id="DejaVuSans-7a" d="M 353 3500 
L 3084 3500 
L 3084 2975 
L 922 459 
L 3084 459 
L 3084 0 
L 275 0 
L 275 525 
L 2438 3041 
L 353 3041 
L 353 3500 
z
" transform="scale(0.015625)"/>
      </defs>
      <use xlink:href="#DejaVuSans-46"/>
      <use xlink:href="#DejaVuSans-6f" transform="translate(53.894531 0)"/>
      <use xlink:href="#DejaVuSans-72" transform="translate(115.076172 0)"/>
      <use xlink:href="#DejaVuSans-65" transform="translate(153.939453 0)"/>
      <use xlink:href="#DejaVuSans-63" transform="translate(215.462891 0)"/>
      <use xlink:href="#DejaVuSans-61" transform="translate(270.443359 0)"/>
      <use xlink:href="#DejaVuSans-73" transform="translate(331.722656 0)"/>
      <use xlink:href="#DejaVuSans-74" transform="translate(383.822266 0)"/>
      <use xlink:href="#DejaVuSans-20" transform="translate(423.03125 0)"/>
      <use xlink:href="#DejaVuSans-48" transform="translate(454.818359 0)"/>
      <use xlink:href="#DejaVuSans-6f" transform="translate(530.013672 0)"/>
      <use xlink:href="#DejaVuSans-72" transform="translate(591.195312 0)"/>
      <use xlink:href="#DejaVuSans-69" transform="translate(632.308594 0)"/>
      <use xlink:href="#DejaVuSans-7a" transform="translate(660.091797 0)"/>
      <use xlink:href="#DejaVuSans-6f" transform="translate(712.582031 0)"/>
      <use xlink:href="#DejaVuSans-6e" transform="translate(773.763672 0)"/>
     </g>
    </g>
    <g id="line2d_18">
     <path d="M 782.080118 81.7 
L 796.080118 81.7 
L 810.080118 81.7 
" style="fill: none; stroke: #0000ff; stroke-linecap: square"/>
    </g>
    <g id="text_18">
     <!-- Global RMSE (6h Forecast) -->
     <g transform="translate(821.280118 86.6) scale(0.14 -0.14)">
      <defs>
       <path id="DejaVuSans-47" d="M 3809 666 
L 3809 1919 
L 2778 1919 
L 2778 2438 
L 4434 2438 
L 4434 434 
Q 4069 175 3628 42 
Q 3188 -91 2688 -91 
Q 1594 -91 976 548 
Q 359 1188 359 2328 
Q 359 3472 976 4111 
Q 1594 4750 2688 4750 
Q 3144 4750 3555 4637 
Q 3966 4525 4313 4306 
L 4313 3634 
Q 3963 3931 3569 4081 
Q 3175 4231 2741 4231 
Q 1884 4231 1454 3753 
Q 1025 3275 1025 2328 
Q 1025 1384 1454 906 
Q 1884 428 2741 428 
Q 3075 428 3337 486 
Q 3600 544 3809 666 
z
" transform="scale(0.015625)"/>
       <path id="DejaVuSans-62" d="M 3116 1747 
Q 3116 2381 2855 2742 
Q 2594 3103 2138 3103 
Q 1681 3103 1420 2742 
Q 1159 2381 1159 1747 
Q 1159 1113 1420 752 
Q 1681 391 2138 391 
Q 2594 391 2855 752 
Q 3116 1113 3116 1747 
z
M 1159 2969 
Q 1341 3281 1617 3432 
Q 1894 3584 2278 3584 
Q 2916 3584 3314 3078 
Q 3713 2572 3713 1747 
Q 3713 922 3314 415 
Q 2916 -91 2278 -91 
Q 1894 -91 1617 61 
Q 1341 213 1159 525 
L 1159 0 
L 581 0 
L 581 4863 
L 1159 4863 
L 1159 2969 
z
" transform="scale(0.015625)"/>
       <path id="DejaVuSans-36" d="M 2113 2584 
Q 1688 2584 1439 2293 
Q 1191 2003 1191 1497 
Q 1191 994 1439 701 
Q 1688 409 2113 409 
Q 2538 409 2786 701 
Q 3034 994 3034 1497 
Q 3034 2003 2786 2293 
Q 2538 2584 2113 2584 
z
M 3366 4563 
L 3366 3988 
Q 3128 4100 2886 4159 
Q 2644 4219 2406 4219 
Q 1781 4219 1451 3797 
Q 1122 3375 1075 2522 
Q 1259 2794 1537 2939 
Q 1816 3084 2150 3084 
Q 2853 3084 3261 2657 
Q 3669 2231 3669 1497 
Q 3669 778 3244 343 
Q 2819 -91 2113 -91 
Q 1303 -91 875 529 
Q 447 1150 447 2328 
Q 447 3434 972 4092 
Q 1497 4750 2381 4750 
Q 2619 4750 2861 4703 
Q 3103 4656 3366 4563 
z
" transform="scale(0.015625)"/>
       <path id="DejaVuSans-68" d="M 3513 2113 
L 3513 0 
L 2938 0 
L 2938 2094 
Q 2938 2591 2744 2837 
Q 2550 3084 2163 3084 
Q 1697 3084 1428 2787 
Q 1159 2491 1159 1978 
L 1159 0 
L 581 0 
L 581 4863 
L 1159 4863 
L 1159 2956 
Q 1366 3272 1645 3428 
Q 1925 3584 2291 3584 
Q 2894 3584 3203 3211 
Q 3513 2838 3513 2113 
z
" transform="scale(0.015625)"/>
      </defs>
      <use xlink:href="#DejaVuSans-47"/>
      <use xlink:href="#DejaVuSans-6c" transform="translate(77.490234 0)"/>
      <use xlink:href="#DejaVuSans-6f" transform="translate(105.273438 0)"/>
      <use xlink:href="#DejaVuSans-62" transform="translate(166.455078 0)"/>
      <use xlink:href="#DejaVuSans-61" transform="translate(229.931641 0)"/>
      <use xlink:href="#DejaVuSans-6c" transform="translate(291.210938 0)"/>
      <use xlink:href="#DejaVuSans-20" transform="translate(318.994141 0)"/>
      <use xlink:href="#DejaVuSans-52" transform="translate(350.78125 0)"/>
      <use xlink:href="#DejaVuSans-4d" transform="translate(420.263672 0)"/>
      <use xlink:href="#DejaVuSans-53" transform="translate(506.542969 0)"/>
      <use xlink:href="#DejaVuSans-45" transform="translate(570.019531 0)"/>
      <use xlink:href="#DejaVuSans-20" transform="translate(633.203125 0)"/>
      <use xlink:href="#DejaVuSans-28" transform="translate(664.990234 0)"/>
      <use xlink:href="#DejaVuSans-36" transform="translate(704.003906 0)"/>
      <use xlink:href="#DejaVuSans-68" transform="translate(767.626953 0)"/>
      <use xlink:href="#DejaVuSans-20" transform="translate(831.005859 0)"/>
      <use xlink:href="#DejaVuSans-46" transform="translate(862.792969 0)"/>
      <use xlink:href="#DejaVuSans-6f" transform="translate(916.6875 0)"/>
      <use xlink:href="#DejaVuSans-72" transform="translate(977.869141 0)"/>
      <use xlink:href="#DejaVuSans-65" transform="translate(1016.732422 0)"/>
      <use xlink:href="#DejaVuSans-63" transform="translate(1078.255859 0)"/>
      <use xlink:href="#DejaVuSans-61" transform="translate(1133.236328 0)"/>
      <use xlink:href="#DejaVuSans-73" transform="translate(1194.515625 0)"/>
      <use xlink:href="#DejaVuSans-74" transform="translate(1246.615234 0)"/>
      <use xlink:href="#DejaVuSans-29" transform="translate(1285.824219 0)"/>
     </g>
    </g>
    <g id="line2d_19">
     <path d="M 782.080118 102.249375 
L 796.080118 102.249375 
L 810.080118 102.249375 
" style="fill: none; stroke: #ffa500; stroke-linecap: square"/>
    </g>
    <g id="text_19">
     <!-- South Africa RMSE (6h Forecast) -->
     <g transform="translate(821.280118 107.149375) scale(0.14 -0.14)">
      <defs>
       <path id="DejaVuSans-41" d="M 2188 4044 
L 1331 1722 
L 3047 1722 
L 2188 4044 
z
M 1831 4666 
L 2547 4666 
L 4325 0 
L 3669 0 
L 3244 1197 
L 1141 1197 
L 716 0 
L 50 0 
L 1831 4666 
z
" transform="scale(0.015625)"/>
      </defs>
      <use xlink:href="#DejaVuSans-53"/>
      <use xlink:href="#DejaVuSans-6f" transform="translate(63.476562 0)"/>
      <use xlink:href="#DejaVuSans-75" transform="translate(124.658203 0)"/>
      <use xlink:href="#DejaVuSans-74" transform="translate(188.037109 0)"/>
      <use xlink:href="#DejaVuSans-68" transform="translate(227.246094 0)"/>
      <use xlink:href="#DejaVuSans-20" transform="translate(290.625 0)"/>
      <use xlink:href="#DejaVuSans-41" transform="translate(322.412109 0)"/>
      <use xlink:href="#DejaVuSans-66" transform="translate(387.195312 0)"/>
      <use xlink:href="#DejaVuSans-72" transform="translate(422.400391 0)"/>
      <use xlink:href="#DejaVuSans-69" transform="translate(463.513672 0)"/>
      <use xlink:href="#DejaVuSans-63" transform="translate(491.296875 0)"/>
      <use xlink:href="#DejaVuSans-61" transform="translate(546.277344 0)"/>
      <use xlink:href="#DejaVuSans-20" transform="translate(607.556641 0)"/>
      <use xlink:href="#DejaVuSans-52" transform="translate(639.34375 0)"/>
      <use xlink:href="#DejaVuSans-4d" transform="translate(708.826172 0)"/>
      <use xlink:href="#DejaVuSans-53" transform="translate(795.105469 0)"/>
      <use xlink:href="#DejaVuSans-45" transform="translate(858.582031 0)"/>
      <use xlink:href="#DejaVuSans-20" transform="translate(921.765625 0)"/>
      <use xlink:href="#DejaVuSans-28" transform="translate(953.552734 0)"/>
      <use xlink:href="#DejaVuSans-36" transform="translate(992.566406 0)"/>
      <use xlink:href="#DejaVuSans-68" transform="translate(1056.189453 0)"/>
      <use xlink:href="#DejaVuSans-20" transform="translate(1119.568359 0)"/>
      <use xlink:href="#DejaVuSans-46" transform="translate(1151.355469 0)"/>
      <use xlink:href="#DejaVuSans-6f" transform="translate(1205.25 0)"/>
      <use xlink:href="#DejaVuSans-72" transform="translate(1266.431641 0)"/>
      <use xlink:href="#DejaVuSans-65" transform="translate(1305.294922 0)"/>
      <use xlink:href="#DejaVuSans-63" transform="translate(1366.818359 0)"/>
      <use xlink:href="#DejaVuSans-61" transform="translate(1421.798828 0)"/>
      <use xlink:href="#DejaVuSans-73" transform="translate(1483.078125 0)"/>
      <use xlink:href="#DejaVuSans-74" transform="translate(1535.177734 0)"/>
      <use xlink:href="#DejaVuSans-29" transform="translate(1574.386719 0)"/>
     </g>
    </g>
    <g id="line2d_20">
     <path d="M 782.080118 122.79875 
L 796.080118 122.79875 
L 810.080118 122.79875 
" style="fill: none; stroke-dasharray: 3.7,1.6; stroke-dashoffset: 0; stroke: #0000ff"/>
    </g>
    <g id="text_20">
     <!-- Global RMSE (12h Forecast) -->
     <g transform="translate(821.280118 127.69875) scale(0.14 -0.14)">
      <use xlink:href="#DejaVuSans-47"/>
      <use xlink:href="#DejaVuSans-6c" transform="translate(77.490234 0)"/>
      <use xlink:href="#DejaVuSans-6f" transform="translate(105.273438 0)"/>
      <use xlink:href="#DejaVuSans-62" transform="translate(166.455078 0)"/>
      <use xlink:href="#DejaVuSans-61" transform="translate(229.931641 0)"/>
      <use xlink:href="#DejaVuSans-6c" transform="translate(291.210938 0)"/>
      <use xlink:href="#DejaVuSans-20" transform="translate(318.994141 0)"/>
      <use xlink:href="#DejaVuSans-52" transform="translate(350.78125 0)"/>
      <use xlink:href="#DejaVuSans-4d" transform="translate(420.263672 0)"/>
      <use xlink:href="#DejaVuSans-53" transform="translate(506.542969 0)"/>
      <use xlink:href="#DejaVuSans-45" transform="translate(570.019531 0)"/>
      <use xlink:href="#DejaVuSans-20" transform="translate(633.203125 0)"/>
      <use xlink:href="#DejaVuSans-28" transform="translate(664.990234 0)"/>
      <use xlink:href="#DejaVuSans-31" transform="translate(704.003906 0)"/>
      <use xlink:href="#DejaVuSans-32" transform="translate(767.626953 0)"/>
      <use xlink:href="#DejaVuSans-68" transform="translate(831.25 0)"/>
      <use xlink:href="#DejaVuSans-20" transform="translate(894.628906 0)"/>
      <use xlink:href="#DejaVuSans-46" transform="translate(926.416016 0)"/>
      <use xlink:href="#DejaVuSans-6f" transform="translate(980.310547 0)"/>
      <use xlink:href="#DejaVuSans-72" transform="translate(1041.492188 0)"/>
      <use xlink:href="#DejaVuSans-65" transform="translate(1080.355469 0)"/>
      <use xlink:href="#DejaVuSans-63" transform="translate(1141.878906 0)"/>
      <use xlink:href="#DejaVuSans-61" transform="translate(1196.859375 0)"/>
      <use xlink:href="#DejaVuSans-73" transform="translate(1258.138672 0)"/>
      <use xlink:href="#DejaVuSans-74" transform="translate(1310.238281 0)"/>
      <use xlink:href="#DejaVuSans-29" transform="translate(1349.447266 0)"/>
     </g>
    </g>
    <g id="line2d_21">
     <path d="M 782.080118 143.348125 
L 796.080118 143.348125 
L 810.080118 143.348125 
" style="fill: none; stroke-dasharray: 3.7,1.6; stroke-dashoffset: 0; stroke: #ffa500"/>
    </g>
    <g id="text_21">
     <!-- South Africa RMSE (12h Forecast) -->
     <g transform="translate(821.280118 148.248125) scale(0.14 -0.14)">
      <use xlink:href="#DejaVuSans-53"/>
      <use xlink:href="#DejaVuSans-6f" transform="translate(63.476562 0)"/>
      <use xlink:href="#DejaVuSans-75" transform="translate(124.658203 0)"/>
      <use xlink:href="#DejaVuSans-74" transform="translate(188.037109 0)"/>
      <use xlink:href="#DejaVuSans-68" transform="translate(227.246094 0)"/>
      <use xlink:href="#DejaVuSans-20" transform="translate(290.625 0)"/>
      <use xlink:href="#DejaVuSans-41" transform="translate(322.412109 0)"/>
      <use xlink:href="#DejaVuSans-66" transform="translate(387.195312 0)"/>
      <use xlink:href="#DejaVuSans-72" transform="translate(422.400391 0)"/>
      <use xlink:href="#DejaVuSans-69" transform="translate(463.513672 0)"/>
      <use xlink:href="#DejaVuSans-63" transform="translate(491.296875 0)"/>
      <use xlink:href="#DejaVuSans-61" transform="translate(546.277344 0)"/>
      <use xlink:href="#DejaVuSans-20" transform="translate(607.556641 0)"/>
      <use xlink:href="#DejaVuSans-52" transform="translate(639.34375 0)"/>
      <use xlink:href="#DejaVuSans-4d" transform="translate(708.826172 0)"/>
      <use xlink:href="#DejaVuSans-53" transform="translate(795.105469 0)"/>
      <use xlink:href="#DejaVuSans-45" transform="translate(858.582031 0)"/>
      <use xlink:href="#DejaVuSans-20" transform="translate(921.765625 0)"/>
      <use xlink:href="#DejaVuSans-28" transform="translate(953.552734 0)"/>
      <use xlink:href="#DejaVuSans-31" transform="translate(992.566406 0)"/>
      <use xlink:href="#DejaVuSans-32" transform="translate(1056.189453 0)"/>
      <use xlink:href="#DejaVuSans-68" transform="translate(1119.8125 0)"/>
      <use xlink:href="#DejaVuSans-20" transform="translate(1183.191406 0)"/>
      <use xlink:href="#DejaVuSans-46" transform="translate(1214.978516 0)"/>
      <use xlink:href="#DejaVuSans-6f" transform="translate(1268.873047 0)"/>
      <use xlink:href="#DejaVuSans-72" transform="translate(1330.054688 0)"/>
      <use xlink:href="#DejaVuSans-65" transform="translate(1368.917969 0)"/>
      <use xlink:href="#DejaVuSans-63" transform="translate(1430.441406 0)"/>
      <use xlink:href="#DejaVuSans-61" transform="translate(1485.421875 0)"/>
      <use xlink:href="#DejaVuSans-73" transform="translate(1546.701172 0)"/>
      <use xlink:href="#DejaVuSans-74" transform="translate(1598.800781 0)"/>
      <use xlink:href="#DejaVuSans-29" transform="translate(1638.009766 0)"/>
     </g>
    </g>
   </g>
  </g>
 </g>
 <defs>
  <clipPath id="pf0dc6a3319">
   <rect x="66.400118" y="40.877187" width="669.6" height="443.52"/>
  </clipPath>
 </defs>
</svg>
