<?xml version="1.0" encoding="utf-8" standalone="no"?>
<!DOCTYPE svg PUBLIC "-//W3C//DTD SVG 1.1//EN"
  "http://www.w3.org/Graphics/SVG/1.1/DTD/svg11.dtd">
<svg xmlns:xlink="http://www.w3.org/1999/xlink" width="1068.862305pt" height="575.421502pt" viewBox="0 0 1068.862305 575.421502" xmlns="http://www.w3.org/2000/svg" version="1.1">
 <metadata>
  <rdf:RDF xmlns:dc="http://purl.org/dc/elements/1.1/" xmlns:cc="http://creativecommons.org/ns#" xmlns:rdf="http://www.w3.org/1999/02/22-rdf-syntax-ns#">
   <cc:Work>
    <dc:type rdf:resource="http://purl.org/dc/dcmitype/StillImage"/>
    <dc:date>2025-02-27T17:13:48.864940</dc:date>
    <dc:format>image/svg+xml</dc:format>
    <dc:creator>
     <cc:Agent>
      <dc:title>Matplotlib v3.10.0, https://matplotlib.org/</dc:title>
     </cc:Agent>
    </dc:creator>
   </cc:Work>
  </rdf:RDF>
 </metadata>
 <defs>
  <style type="text/css">*{stroke-linejoin: round; stroke-linecap: butt}</style>
 </defs>
 <g id="figure_1">
  <g id="patch_1">
   <path d="M 0 575.421502 
L 1068.862305 575.421502 
L 1068.862305 0 
L 0 0 
z
" style="fill: #ffffff"/>
  </g>
  <g id="axes_1">
   <g id="patch_2">
    <path d="M 66.400118 484.397187 
L 736.000118 484.397187 
L 736.000118 40.877187 
L 66.400118 40.877187 
z
" style="fill: #ffffff"/>
   </g>
   <g id="matplotlib.axis_1">
    <g id="xtick_1">
     <g id="line2d_1">
      <defs>
       <path id="me2ba899b85" d="M 0 0 
L 0 3.5 
" style="stroke: #000000; stroke-width: 0.8"/>
      </defs>
      <g>
       <use xlink:href="#me2ba899b85" x="96.836481" y="484.397187" style="stroke: #000000; stroke-width: 0.8"/>
      </g>
     </g>
     <g id="text_1">
      <!-- 2022-12-01 (18:00) -->
      <g transform="translate(10.999219 546.93544) rotate(-30) scale(0.1 -0.1)">
       <defs>
        <path id="DejaVuSans-32" d="M 1228 531 
L 3431 531 
L 3431 0 
L 469 0 
L 469 531 
Q 828 903 1448 1529 
Q 2069 2156 2228 2338 
Q 2531 2678 2651 2914 
Q 2772 3150 2772 3378 
Q 2772 3750 2511 3984 
Q 2250 4219 1831 4219 
Q 1534 4219 1204 4116 
Q 875 4013 500 3803 
L 500 4441 
Q 881 4594 1212 4672 
Q 1544 4750 1819 4750 
Q 2544 4750 2975 4387 
Q 3406 4025 3406 3419 
Q 3406 3131 3298 2873 
Q 3191 2616 2906 2266 
Q 2828 2175 2409 1742 
Q 1991 1309 1228 531 
z
" transform="scale(0.015625)"/>
        <path id="DejaVuSans-30" d="M 2034 4250 
Q 1547 4250 1301 3770 
Q 1056 3291 1056 2328 
Q 1056 1369 1301 889 
Q 1547 409 2034 409 
Q 2525 409 2770 889 
Q 3016 1369 3016 2328 
Q 3016 3291 2770 3770 
Q 2525 4250 2034 4250 
z
M 2034 4750 
Q 2819 4750 3233 4129 
Q 3647 3509 3647 2328 
Q 3647 1150 3233 529 
Q 2819 -91 2034 -91 
Q 1250 -91 836 529 
Q 422 1150 422 2328 
Q 422 3509 836 4129 
Q 1250 4750 2034 4750 
z
" transform="scale(0.015625)"/>
        <path id="DejaVuSans-2d" d="M 313 2009 
L 1997 2009 
L 1997 1497 
L 313 1497 
L 313 2009 
z
" transform="scale(0.015625)"/>
        <path id="DejaVuSans-31" d="M 794 531 
L 1825 531 
L 1825 4091 
L 703 3866 
L 703 4441 
L 1819 4666 
L 2450 4666 
L 2450 531 
L 3481 531 
L 3481 0 
L 794 0 
L 794 531 
z
" transform="scale(0.015625)"/>
        <path id="DejaVuSans-20" transform="scale(0.015625)"/>
        <path id="DejaVuSans-28" d="M 1984 4856 
Q 1566 4138 1362 3434 
Q 1159 2731 1159 2009 
Q 1159 1288 1364 580 
Q 1569 -128 1984 -844 
L 1484 -844 
Q 1016 -109 783 600 
Q 550 1309 550 2009 
Q 550 2706 781 3412 
Q 1013 4119 1484 4856 
L 1984 4856 
z
" transform="scale(0.015625)"/>
        <path id="DejaVuSans-38" d="M 2034 2216 
Q 1584 2216 1326 1975 
Q 1069 1734 1069 1313 
Q 1069 891 1326 650 
Q 1584 409 2034 409 
Q 2484 409 2743 651 
Q 3003 894 3003 1313 
Q 3003 1734 2745 1975 
Q 2488 2216 2034 2216 
z
M 1403 2484 
Q 997 2584 770 2862 
Q 544 3141 544 3541 
Q 544 4100 942 4425 
Q 1341 4750 2034 4750 
Q 2731 4750 3128 4425 
Q 3525 4100 3525 3541 
Q 3525 3141 3298 2862 
Q 3072 2584 2669 2484 
Q 3125 2378 3379 2068 
Q 3634 1759 3634 1313 
Q 3634 634 3220 271 
Q 2806 -91 2034 -91 
Q 1263 -91 848 271 
Q 434 634 434 1313 
Q 434 1759 690 2068 
Q 947 2378 1403 2484 
z
M 1172 3481 
Q 1172 3119 1398 2916 
Q 1625 2713 2034 2713 
Q 2441 2713 2670 2916 
Q 2900 3119 2900 3481 
Q 2900 3844 2670 4047 
Q 2441 4250 2034 4250 
Q 1625 4250 1398 4047 
Q 1172 3844 1172 3481 
z
" transform="scale(0.015625)"/>
        <path id="DejaVuSans-3a" d="M 750 794 
L 1409 794 
L 1409 0 
L 750 0 
L 750 794 
z
M 750 3309 
L 1409 3309 
L 1409 2516 
L 750 2516 
L 750 3309 
z
" transform="scale(0.015625)"/>
        <path id="DejaVuSans-29" d="M 513 4856 
L 1013 4856 
Q 1481 4119 1714 3412 
Q 1947 2706 1947 2009 
Q 1947 1309 1714 600 
Q 1481 -109 1013 -844 
L 513 -844 
Q 928 -128 1133 580 
Q 1338 1288 1338 2009 
Q 1338 2731 1133 3434 
Q 928 4138 513 4856 
z
" transform="scale(0.015625)"/>
       </defs>
       <use xlink:href="#DejaVuSans-32"/>
       <use xlink:href="#DejaVuSans-30" transform="translate(63.623047 0)"/>
       <use xlink:href="#DejaVuSans-32" transform="translate(127.246094 0)"/>
       <use xlink:href="#DejaVuSans-32" transform="translate(190.869141 0)"/>
       <use xlink:href="#DejaVuSans-2d" transform="translate(254.492188 0)"/>
       <use xlink:href="#DejaVuSans-31" transform="translate(290.576172 0)"/>
       <use xlink:href="#DejaVuSans-32" transform="translate(354.199219 0)"/>
       <use xlink:href="#DejaVuSans-2d" transform="translate(417.822266 0)"/>
       <use xlink:href="#DejaVuSans-30" transform="translate(453.90625 0)"/>
       <use xlink:href="#DejaVuSans-31" transform="translate(517.529297 0)"/>
       <use xlink:href="#DejaVuSans-20" transform="translate(581.152344 0)"/>
       <use xlink:href="#DejaVuSans-28" transform="translate(612.939453 0)"/>
       <use xlink:href="#DejaVuSans-31" transform="translate(651.953125 0)"/>
       <use xlink:href="#DejaVuSans-38" transform="translate(715.576172 0)"/>
       <use xlink:href="#DejaVuSans-3a" transform="translate(779.199219 0)"/>
       <use xlink:href="#DejaVuSans-30" transform="translate(812.890625 0)"/>
       <use xlink:href="#DejaVuSans-30" transform="translate(876.513672 0)"/>
       <use xlink:href="#DejaVuSans-29" transform="translate(940.136719 0)"/>
      </g>
     </g>
    </g>
    <g id="xtick_2">
     <g id="line2d_2">
      <g>
       <use xlink:href="#me2ba899b85" x="218.581936" y="484.397187" style="stroke: #000000; stroke-width: 0.8"/>
      </g>
     </g>
     <g id="text_2">
      <!-- 2022-12-09 (18:00) -->
      <g transform="translate(132.744673 546.93544) rotate(-30) scale(0.1 -0.1)">
       <defs>
        <path id="DejaVuSans-39" d="M 703 97 
L 703 672 
Q 941 559 1184 500 
Q 1428 441 1663 441 
Q 2288 441 2617 861 
Q 2947 1281 2994 2138 
Q 2813 1869 2534 1725 
Q 2256 1581 1919 1581 
Q 1219 1581 811 2004 
Q 403 2428 403 3163 
Q 403 3881 828 4315 
Q 1253 4750 1959 4750 
Q 2769 4750 3195 4129 
Q 3622 3509 3622 2328 
Q 3622 1225 3098 567 
Q 2575 -91 1691 -91 
Q 1453 -91 1209 -44 
Q 966 3 703 97 
z
M 1959 2075 
Q 2384 2075 2632 2365 
Q 2881 2656 2881 3163 
Q 2881 3666 2632 3958 
Q 2384 4250 1959 4250 
Q 1534 4250 1286 3958 
Q 1038 3666 1038 3163 
Q 1038 2656 1286 2365 
Q 1534 2075 1959 2075 
z
" transform="scale(0.015625)"/>
       </defs>
       <use xlink:href="#DejaVuSans-32"/>
       <use xlink:href="#DejaVuSans-30" transform="translate(63.623047 0)"/>
       <use xlink:href="#DejaVuSans-32" transform="translate(127.246094 0)"/>
       <use xlink:href="#DejaVuSans-32" transform="translate(190.869141 0)"/>
       <use xlink:href="#DejaVuSans-2d" transform="translate(254.492188 0)"/>
       <use xlink:href="#DejaVuSans-31" transform="translate(290.576172 0)"/>
       <use xlink:href="#DejaVuSans-32" transform="translate(354.199219 0)"/>
       <use xlink:href="#DejaVuSans-2d" transform="translate(417.822266 0)"/>
       <use xlink:href="#DejaVuSans-30" transform="translate(453.90625 0)"/>
       <use xlink:href="#DejaVuSans-39" transform="translate(517.529297 0)"/>
       <use xlink:href="#DejaVuSans-20" transform="translate(581.152344 0)"/>
       <use xlink:href="#DejaVuSans-28" transform="translate(612.939453 0)"/>
       <use xlink:href="#DejaVuSans-31" transform="translate(651.953125 0)"/>
       <use xlink:href="#DejaVuSans-38" transform="translate(715.576172 0)"/>
       <use xlink:href="#DejaVuSans-3a" transform="translate(779.199219 0)"/>
       <use xlink:href="#DejaVuSans-30" transform="translate(812.890625 0)"/>
       <use xlink:href="#DejaVuSans-30" transform="translate(876.513672 0)"/>
       <use xlink:href="#DejaVuSans-29" transform="translate(940.136719 0)"/>
      </g>
     </g>
    </g>
    <g id="xtick_3">
     <g id="line2d_3">
      <g>
       <use xlink:href="#me2ba899b85" x="340.32739" y="484.397187" style="stroke: #000000; stroke-width: 0.8"/>
      </g>
     </g>
     <g id="text_3">
      <!-- 2022-12-17 (18:00) -->
      <g transform="translate(254.490128 546.93544) rotate(-30) scale(0.1 -0.1)">
       <defs>
        <path id="DejaVuSans-37" d="M 525 4666 
L 3525 4666 
L 3525 4397 
L 1831 0 
L 1172 0 
L 2766 4134 
L 525 4134 
L 525 4666 
z
" transform="scale(0.015625)"/>
       </defs>
       <use xlink:href="#DejaVuSans-32"/>
       <use xlink:href="#DejaVuSans-30" transform="translate(63.623047 0)"/>
       <use xlink:href="#DejaVuSans-32" transform="translate(127.246094 0)"/>
       <use xlink:href="#DejaVuSans-32" transform="translate(190.869141 0)"/>
       <use xlink:href="#DejaVuSans-2d" transform="translate(254.492188 0)"/>
       <use xlink:href="#DejaVuSans-31" transform="translate(290.576172 0)"/>
       <use xlink:href="#DejaVuSans-32" transform="translate(354.199219 0)"/>
       <use xlink:href="#DejaVuSans-2d" transform="translate(417.822266 0)"/>
       <use xlink:href="#DejaVuSans-31" transform="translate(453.90625 0)"/>
       <use xlink:href="#DejaVuSans-37" transform="translate(517.529297 0)"/>
       <use xlink:href="#DejaVuSans-20" transform="translate(581.152344 0)"/>
       <use xlink:href="#DejaVuSans-28" transform="translate(612.939453 0)"/>
       <use xlink:href="#DejaVuSans-31" transform="translate(651.953125 0)"/>
       <use xlink:href="#DejaVuSans-38" transform="translate(715.576172 0)"/>
       <use xlink:href="#DejaVuSans-3a" transform="translate(779.199219 0)"/>
       <use xlink:href="#DejaVuSans-30" transform="translate(812.890625 0)"/>
       <use xlink:href="#DejaVuSans-30" transform="translate(876.513672 0)"/>
       <use xlink:href="#DejaVuSans-29" transform="translate(940.136719 0)"/>
      </g>
     </g>
    </g>
    <g id="xtick_4">
     <g id="line2d_4">
      <g>
       <use xlink:href="#me2ba899b85" x="462.072845" y="484.397187" style="stroke: #000000; stroke-width: 0.8"/>
      </g>
     </g>
     <g id="text_4">
      <!-- 2022-12-25 (18:00) -->
      <g transform="translate(376.235582 546.93544) rotate(-30) scale(0.1 -0.1)">
       <defs>
        <path id="DejaVuSans-35" d="M 691 4666 
L 3169 4666 
L 3169 4134 
L 1269 4134 
L 1269 2991 
Q 1406 3038 1543 3061 
Q 1681 3084 1819 3084 
Q 2600 3084 3056 2656 
Q 3513 2228 3513 1497 
Q 3513 744 3044 326 
Q 2575 -91 1722 -91 
Q 1428 -91 1123 -41 
Q 819 9 494 109 
L 494 744 
Q 775 591 1075 516 
Q 1375 441 1709 441 
Q 2250 441 2565 725 
Q 2881 1009 2881 1497 
Q 2881 1984 2565 2268 
Q 2250 2553 1709 2553 
Q 1456 2553 1204 2497 
Q 953 2441 691 2322 
L 691 4666 
z
" transform="scale(0.015625)"/>
       </defs>
       <use xlink:href="#DejaVuSans-32"/>
       <use xlink:href="#DejaVuSans-30" transform="translate(63.623047 0)"/>
       <use xlink:href="#DejaVuSans-32" transform="translate(127.246094 0)"/>
       <use xlink:href="#DejaVuSans-32" transform="translate(190.869141 0)"/>
       <use xlink:href="#DejaVuSans-2d" transform="translate(254.492188 0)"/>
       <use xlink:href="#DejaVuSans-31" transform="translate(290.576172 0)"/>
       <use xlink:href="#DejaVuSans-32" transform="translate(354.199219 0)"/>
       <use xlink:href="#DejaVuSans-2d" transform="translate(417.822266 0)"/>
       <use xlink:href="#DejaVuSans-32" transform="translate(453.90625 0)"/>
       <use xlink:href="#DejaVuSans-35" transform="translate(517.529297 0)"/>
       <use xlink:href="#DejaVuSans-20" transform="translate(581.152344 0)"/>
       <use xlink:href="#DejaVuSans-28" transform="translate(612.939453 0)"/>
       <use xlink:href="#DejaVuSans-31" transform="translate(651.953125 0)"/>
       <use xlink:href="#DejaVuSans-38" transform="translate(715.576172 0)"/>
       <use xlink:href="#DejaVuSans-3a" transform="translate(779.199219 0)"/>
       <use xlink:href="#DejaVuSans-30" transform="translate(812.890625 0)"/>
       <use xlink:href="#DejaVuSans-30" transform="translate(876.513672 0)"/>
       <use xlink:href="#DejaVuSans-29" transform="translate(940.136719 0)"/>
      </g>
     </g>
    </g>
    <g id="xtick_5">
     <g id="line2d_5">
      <g>
       <use xlink:href="#me2ba899b85" x="583.818299" y="484.397187" style="stroke: #000000; stroke-width: 0.8"/>
      </g>
     </g>
     <g id="text_5">
      <!-- 2023-01-02 (18:00) -->
      <g transform="translate(497.981037 546.93544) rotate(-30) scale(0.1 -0.1)">
       <defs>
        <path id="DejaVuSans-33" d="M 2597 2516 
Q 3050 2419 3304 2112 
Q 3559 1806 3559 1356 
Q 3559 666 3084 287 
Q 2609 -91 1734 -91 
Q 1441 -91 1130 -33 
Q 819 25 488 141 
L 488 750 
Q 750 597 1062 519 
Q 1375 441 1716 441 
Q 2309 441 2620 675 
Q 2931 909 2931 1356 
Q 2931 1769 2642 2001 
Q 2353 2234 1838 2234 
L 1294 2234 
L 1294 2753 
L 1863 2753 
Q 2328 2753 2575 2939 
Q 2822 3125 2822 3475 
Q 2822 3834 2567 4026 
Q 2313 4219 1838 4219 
Q 1578 4219 1281 4162 
Q 984 4106 628 3988 
L 628 4550 
Q 988 4650 1302 4700 
Q 1616 4750 1894 4750 
Q 2613 4750 3031 4423 
Q 3450 4097 3450 3541 
Q 3450 3153 3228 2886 
Q 3006 2619 2597 2516 
z
" transform="scale(0.015625)"/>
       </defs>
       <use xlink:href="#DejaVuSans-32"/>
       <use xlink:href="#DejaVuSans-30" transform="translate(63.623047 0)"/>
       <use xlink:href="#DejaVuSans-32" transform="translate(127.246094 0)"/>
       <use xlink:href="#DejaVuSans-33" transform="translate(190.869141 0)"/>
       <use xlink:href="#DejaVuSans-2d" transform="translate(254.492188 0)"/>
       <use xlink:href="#DejaVuSans-30" transform="translate(290.576172 0)"/>
       <use xlink:href="#DejaVuSans-31" transform="translate(354.199219 0)"/>
       <use xlink:href="#DejaVuSans-2d" transform="translate(417.822266 0)"/>
       <use xlink:href="#DejaVuSans-30" transform="translate(453.90625 0)"/>
       <use xlink:href="#DejaVuSans-32" transform="translate(517.529297 0)"/>
       <use xlink:href="#DejaVuSans-20" transform="translate(581.152344 0)"/>
       <use xlink:href="#DejaVuSans-28" transform="translate(612.939453 0)"/>
       <use xlink:href="#DejaVuSans-31" transform="translate(651.953125 0)"/>
       <use xlink:href="#DejaVuSans-38" transform="translate(715.576172 0)"/>
       <use xlink:href="#DejaVuSans-3a" transform="translate(779.199219 0)"/>
       <use xlink:href="#DejaVuSans-30" transform="translate(812.890625 0)"/>
       <use xlink:href="#DejaVuSans-30" transform="translate(876.513672 0)"/>
       <use xlink:href="#DejaVuSans-29" transform="translate(940.136719 0)"/>
      </g>
     </g>
    </g>
    <g id="xtick_6">
     <g id="line2d_6">
      <g>
       <use xlink:href="#me2ba899b85" x="705.563754" y="484.397187" style="stroke: #000000; stroke-width: 0.8"/>
      </g>
     </g>
     <g id="text_6">
      <!-- 2023-01-10 (18:00) -->
      <g transform="translate(619.726491 546.93544) rotate(-30) scale(0.1 -0.1)">
       <use xlink:href="#DejaVuSans-32"/>
       <use xlink:href="#DejaVuSans-30" transform="translate(63.623047 0)"/>
       <use xlink:href="#DejaVuSans-32" transform="translate(127.246094 0)"/>
       <use xlink:href="#DejaVuSans-33" transform="translate(190.869141 0)"/>
       <use xlink:href="#DejaVuSans-2d" transform="translate(254.492188 0)"/>
       <use xlink:href="#DejaVuSans-30" transform="translate(290.576172 0)"/>
       <use xlink:href="#DejaVuSans-31" transform="translate(354.199219 0)"/>
       <use xlink:href="#DejaVuSans-2d" transform="translate(417.822266 0)"/>
       <use xlink:href="#DejaVuSans-31" transform="translate(453.90625 0)"/>
       <use xlink:href="#DejaVuSans-30" transform="translate(517.529297 0)"/>
       <use xlink:href="#DejaVuSans-20" transform="translate(581.152344 0)"/>
       <use xlink:href="#DejaVuSans-28" transform="translate(612.939453 0)"/>
       <use xlink:href="#DejaVuSans-31" transform="translate(651.953125 0)"/>
       <use xlink:href="#DejaVuSans-38" transform="translate(715.576172 0)"/>
       <use xlink:href="#DejaVuSans-3a" transform="translate(779.199219 0)"/>
       <use xlink:href="#DejaVuSans-30" transform="translate(812.890625 0)"/>
       <use xlink:href="#DejaVuSans-30" transform="translate(876.513672 0)"/>
       <use xlink:href="#DejaVuSans-29" transform="translate(940.136719 0)"/>
      </g>
     </g>
    </g>
    <g id="text_7">
     <!-- Forecast Date -->
     <g transform="translate(345.693868 564.894002) scale(0.16 -0.16)">
      <defs>
       <path id="DejaVuSans-46" d="M 628 4666 
L 3309 4666 
L 3309 4134 
L 1259 4134 
L 1259 2759 
L 3109 2759 
L 3109 2228 
L 1259 2228 
L 1259 0 
L 628 0 
L 628 4666 
z
" transform="scale(0.015625)"/>
       <path id="DejaVuSans-6f" d="M 1959 3097 
Q 1497 3097 1228 2736 
Q 959 2375 959 1747 
Q 959 1119 1226 758 
Q 1494 397 1959 397 
Q 2419 397 2687 759 
Q 2956 1122 2956 1747 
Q 2956 2369 2687 2733 
Q 2419 3097 1959 3097 
z
M 1959 3584 
Q 2709 3584 3137 3096 
Q 3566 2609 3566 1747 
Q 3566 888 3137 398 
Q 2709 -91 1959 -91 
Q 1206 -91 779 398 
Q 353 888 353 1747 
Q 353 2609 779 3096 
Q 1206 3584 1959 3584 
z
" transform="scale(0.015625)"/>
       <path id="DejaVuSans-72" d="M 2631 2963 
Q 2534 3019 2420 3045 
Q 2306 3072 2169 3072 
Q 1681 3072 1420 2755 
Q 1159 2438 1159 1844 
L 1159 0 
L 581 0 
L 581 3500 
L 1159 3500 
L 1159 2956 
Q 1341 3275 1631 3429 
Q 1922 3584 2338 3584 
Q 2397 3584 2469 3576 
Q 2541 3569 2628 3553 
L 2631 2963 
z
" transform="scale(0.015625)"/>
       <path id="DejaVuSans-65" d="M 3597 1894 
L 3597 1613 
L 953 1613 
Q 991 1019 1311 708 
Q 1631 397 2203 397 
Q 2534 397 2845 478 
Q 3156 559 3463 722 
L 3463 178 
Q 3153 47 2828 -22 
Q 2503 -91 2169 -91 
Q 1331 -91 842 396 
Q 353 884 353 1716 
Q 353 2575 817 3079 
Q 1281 3584 2069 3584 
Q 2775 3584 3186 3129 
Q 3597 2675 3597 1894 
z
M 3022 2063 
Q 3016 2534 2758 2815 
Q 2500 3097 2075 3097 
Q 1594 3097 1305 2825 
Q 1016 2553 972 2059 
L 3022 2063 
z
" transform="scale(0.015625)"/>
       <path id="DejaVuSans-63" d="M 3122 3366 
L 3122 2828 
Q 2878 2963 2633 3030 
Q 2388 3097 2138 3097 
Q 1578 3097 1268 2742 
Q 959 2388 959 1747 
Q 959 1106 1268 751 
Q 1578 397 2138 397 
Q 2388 397 2633 464 
Q 2878 531 3122 666 
L 3122 134 
Q 2881 22 2623 -34 
Q 2366 -91 2075 -91 
Q 1284 -91 818 406 
Q 353 903 353 1747 
Q 353 2603 823 3093 
Q 1294 3584 2113 3584 
Q 2378 3584 2631 3529 
Q 2884 3475 3122 3366 
z
" transform="scale(0.015625)"/>
       <path id="DejaVuSans-61" d="M 2194 1759 
Q 1497 1759 1228 1600 
Q 959 1441 959 1056 
Q 959 750 1161 570 
Q 1363 391 1709 391 
Q 2188 391 2477 730 
Q 2766 1069 2766 1631 
L 2766 1759 
L 2194 1759 
z
M 3341 1997 
L 3341 0 
L 2766 0 
L 2766 531 
Q 2569 213 2275 61 
Q 1981 -91 1556 -91 
Q 1019 -91 701 211 
Q 384 513 384 1019 
Q 384 1609 779 1909 
Q 1175 2209 1959 2209 
L 2766 2209 
L 2766 2266 
Q 2766 2663 2505 2880 
Q 2244 3097 1772 3097 
Q 1472 3097 1187 3025 
Q 903 2953 641 2809 
L 641 3341 
Q 956 3463 1253 3523 
Q 1550 3584 1831 3584 
Q 2591 3584 2966 3190 
Q 3341 2797 3341 1997 
z
" transform="scale(0.015625)"/>
       <path id="DejaVuSans-73" d="M 2834 3397 
L 2834 2853 
Q 2591 2978 2328 3040 
Q 2066 3103 1784 3103 
Q 1356 3103 1142 2972 
Q 928 2841 928 2578 
Q 928 2378 1081 2264 
Q 1234 2150 1697 2047 
L 1894 2003 
Q 2506 1872 2764 1633 
Q 3022 1394 3022 966 
Q 3022 478 2636 193 
Q 2250 -91 1575 -91 
Q 1294 -91 989 -36 
Q 684 19 347 128 
L 347 722 
Q 666 556 975 473 
Q 1284 391 1588 391 
Q 1994 391 2212 530 
Q 2431 669 2431 922 
Q 2431 1156 2273 1281 
Q 2116 1406 1581 1522 
L 1381 1569 
Q 847 1681 609 1914 
Q 372 2147 372 2553 
Q 372 3047 722 3315 
Q 1072 3584 1716 3584 
Q 2034 3584 2315 3537 
Q 2597 3491 2834 3397 
z
" transform="scale(0.015625)"/>
       <path id="DejaVuSans-74" d="M 1172 4494 
L 1172 3500 
L 2356 3500 
L 2356 3053 
L 1172 3053 
L 1172 1153 
Q 1172 725 1289 603 
Q 1406 481 1766 481 
L 2356 481 
L 2356 0 
L 1766 0 
Q 1100 0 847 248 
Q 594 497 594 1153 
L 594 3053 
L 172 3053 
L 172 3500 
L 594 3500 
L 594 4494 
L 1172 4494 
z
" transform="scale(0.015625)"/>
       <path id="DejaVuSans-44" d="M 1259 4147 
L 1259 519 
L 2022 519 
Q 2988 519 3436 956 
Q 3884 1394 3884 2338 
Q 3884 3275 3436 3711 
Q 2988 4147 2022 4147 
L 1259 4147 
z
M 628 4666 
L 1925 4666 
Q 3281 4666 3915 4102 
Q 4550 3538 4550 2338 
Q 4550 1131 3912 565 
Q 3275 0 1925 0 
L 628 0 
L 628 4666 
z
" transform="scale(0.015625)"/>
      </defs>
      <use xlink:href="#DejaVuSans-46"/>
      <use xlink:href="#DejaVuSans-6f" transform="translate(53.894531 0)"/>
      <use xlink:href="#DejaVuSans-72" transform="translate(115.076172 0)"/>
      <use xlink:href="#DejaVuSans-65" transform="translate(153.939453 0)"/>
      <use xlink:href="#DejaVuSans-63" transform="translate(215.462891 0)"/>
      <use xlink:href="#DejaVuSans-61" transform="translate(270.443359 0)"/>
      <use xlink:href="#DejaVuSans-73" transform="translate(331.722656 0)"/>
      <use xlink:href="#DejaVuSans-74" transform="translate(383.822266 0)"/>
      <use xlink:href="#DejaVuSans-20" transform="translate(423.03125 0)"/>
      <use xlink:href="#DejaVuSans-44" transform="translate(454.818359 0)"/>
      <use xlink:href="#DejaVuSans-61" transform="translate(531.820312 0)"/>
      <use xlink:href="#DejaVuSans-74" transform="translate(593.099609 0)"/>
      <use xlink:href="#DejaVuSans-65" transform="translate(632.308594 0)"/>
     </g>
    </g>
   </g>
   <g id="matplotlib.axis_2">
    <g id="ytick_1">
     <g id="line2d_7">
      <defs>
       <path id="me286ce08ea" d="M 0 0 
L -3.5 0 
" style="stroke: #000000; stroke-width: 0.8"/>
      </defs>
      <g>
       <use xlink:href="#me286ce08ea" x="66.400118" y="459.437702" style="stroke: #000000; stroke-width: 0.8"/>
      </g>
     </g>
     <g id="text_8">
      <!-- 1 -->
      <g transform="translate(53.037618 463.236921) scale(0.1 -0.1)">
       <use xlink:href="#DejaVuSans-31"/>
      </g>
     </g>
    </g>
    <g id="ytick_2">
     <g id="line2d_8">
      <g>
       <use xlink:href="#me286ce08ea" x="66.400118" y="369.401984" style="stroke: #000000; stroke-width: 0.8"/>
      </g>
     </g>
     <g id="text_9">
      <!-- 2 -->
      <g transform="translate(53.037618 373.201203) scale(0.1 -0.1)">
       <use xlink:href="#DejaVuSans-32"/>
      </g>
     </g>
    </g>
    <g id="ytick_3">
     <g id="line2d_9">
      <g>
       <use xlink:href="#me286ce08ea" x="66.400118" y="279.366265" style="stroke: #000000; stroke-width: 0.8"/>
      </g>
     </g>
     <g id="text_10">
      <!-- 3 -->
      <g transform="translate(53.037618 283.165484) scale(0.1 -0.1)">
       <use xlink:href="#DejaVuSans-33"/>
      </g>
     </g>
    </g>
    <g id="ytick_4">
     <g id="line2d_10">
      <g>
       <use xlink:href="#me286ce08ea" x="66.400118" y="189.330547" style="stroke: #000000; stroke-width: 0.8"/>
      </g>
     </g>
     <g id="text_11">
      <!-- 4 -->
      <g transform="translate(53.037618 193.129766) scale(0.1 -0.1)">
       <defs>
        <path id="DejaVuSans-34" d="M 2419 4116 
L 825 1625 
L 2419 1625 
L 2419 4116 
z
M 2253 4666 
L 3047 4666 
L 3047 1625 
L 3713 1625 
L 3713 1100 
L 3047 1100 
L 3047 0 
L 2419 0 
L 2419 1100 
L 313 1100 
L 313 1709 
L 2253 4666 
z
" transform="scale(0.015625)"/>
       </defs>
       <use xlink:href="#DejaVuSans-34"/>
      </g>
     </g>
    </g>
    <g id="ytick_5">
     <g id="line2d_11">
      <g>
       <use xlink:href="#me286ce08ea" x="66.400118" y="99.294829" style="stroke: #000000; stroke-width: 0.8"/>
      </g>
     </g>
     <g id="text_12">
      <!-- 5 -->
      <g transform="translate(53.037618 103.094048) scale(0.1 -0.1)">
       <use xlink:href="#DejaVuSans-35"/>
      </g>
     </g>
    </g>
    <g id="text_13">
     <!-- Root Mean Squared Error (RMSE) -->
     <g transform="translate(45.710118 394.303437) rotate(-90) scale(0.16 -0.16)">
      <defs>
       <path id="DejaVuSans-52" d="M 2841 2188 
Q 3044 2119 3236 1894 
Q 3428 1669 3622 1275 
L 4263 0 
L 3584 0 
L 2988 1197 
Q 2756 1666 2539 1819 
Q 2322 1972 1947 1972 
L 1259 1972 
L 1259 0 
L 628 0 
L 628 4666 
L 2053 4666 
Q 2853 4666 3247 4331 
Q 3641 3997 3641 3322 
Q 3641 2881 3436 2590 
Q 3231 2300 2841 2188 
z
M 1259 4147 
L 1259 2491 
L 2053 2491 
Q 2509 2491 2742 2702 
Q 2975 2913 2975 3322 
Q 2975 3731 2742 3939 
Q 2509 4147 2053 4147 
L 1259 4147 
z
" transform="scale(0.015625)"/>
       <path id="DejaVuSans-4d" d="M 628 4666 
L 1569 4666 
L 2759 1491 
L 3956 4666 
L 4897 4666 
L 4897 0 
L 4281 0 
L 4281 4097 
L 3078 897 
L 2444 897 
L 1241 4097 
L 1241 0 
L 628 0 
L 628 4666 
z
" transform="scale(0.015625)"/>
       <path id="DejaVuSans-6e" d="M 3513 2113 
L 3513 0 
L 2938 0 
L 2938 2094 
Q 2938 2591 2744 2837 
Q 2550 3084 2163 3084 
Q 1697 3084 1428 2787 
Q 1159 2491 1159 1978 
L 1159 0 
L 581 0 
L 581 3500 
L 1159 3500 
L 1159 2956 
Q 1366 3272 1645 3428 
Q 1925 3584 2291 3584 
Q 2894 3584 3203 3211 
Q 3513 2838 3513 2113 
z
" transform="scale(0.015625)"/>
       <path id="DejaVuSans-53" d="M 3425 4513 
L 3425 3897 
Q 3066 4069 2747 4153 
Q 2428 4238 2131 4238 
Q 1616 4238 1336 4038 
Q 1056 3838 1056 3469 
Q 1056 3159 1242 3001 
Q 1428 2844 1947 2747 
L 2328 2669 
Q 3034 2534 3370 2195 
Q 3706 1856 3706 1288 
Q 3706 609 3251 259 
Q 2797 -91 1919 -91 
Q 1588 -91 1214 -16 
Q 841 59 441 206 
L 441 856 
Q 825 641 1194 531 
Q 1563 422 1919 422 
Q 2459 422 2753 634 
Q 3047 847 3047 1241 
Q 3047 1584 2836 1778 
Q 2625 1972 2144 2069 
L 1759 2144 
Q 1053 2284 737 2584 
Q 422 2884 422 3419 
Q 422 4038 858 4394 
Q 1294 4750 2059 4750 
Q 2388 4750 2728 4690 
Q 3069 4631 3425 4513 
z
" transform="scale(0.015625)"/>
       <path id="DejaVuSans-71" d="M 947 1747 
Q 947 1113 1208 752 
Q 1469 391 1925 391 
Q 2381 391 2643 752 
Q 2906 1113 2906 1747 
Q 2906 2381 2643 2742 
Q 2381 3103 1925 3103 
Q 1469 3103 1208 2742 
Q 947 2381 947 1747 
z
M 2906 525 
Q 2725 213 2448 61 
Q 2172 -91 1784 -91 
Q 1150 -91 751 415 
Q 353 922 353 1747 
Q 353 2572 751 3078 
Q 1150 3584 1784 3584 
Q 2172 3584 2448 3432 
Q 2725 3281 2906 2969 
L 2906 3500 
L 3481 3500 
L 3481 -1331 
L 2906 -1331 
L 2906 525 
z
" transform="scale(0.015625)"/>
       <path id="DejaVuSans-75" d="M 544 1381 
L 544 3500 
L 1119 3500 
L 1119 1403 
Q 1119 906 1312 657 
Q 1506 409 1894 409 
Q 2359 409 2629 706 
Q 2900 1003 2900 1516 
L 2900 3500 
L 3475 3500 
L 3475 0 
L 2900 0 
L 2900 538 
Q 2691 219 2414 64 
Q 2138 -91 1772 -91 
Q 1169 -91 856 284 
Q 544 659 544 1381 
z
M 1991 3584 
L 1991 3584 
z
" transform="scale(0.015625)"/>
       <path id="DejaVuSans-64" d="M 2906 2969 
L 2906 4863 
L 3481 4863 
L 3481 0 
L 2906 0 
L 2906 525 
Q 2725 213 2448 61 
Q 2172 -91 1784 -91 
Q 1150 -91 751 415 
Q 353 922 353 1747 
Q 353 2572 751 3078 
Q 1150 3584 1784 3584 
Q 2172 3584 2448 3432 
Q 2725 3281 2906 2969 
z
M 947 1747 
Q 947 1113 1208 752 
Q 1469 391 1925 391 
Q 2381 391 2643 752 
Q 2906 1113 2906 1747 
Q 2906 2381 2643 2742 
Q 2381 3103 1925 3103 
Q 1469 3103 1208 2742 
Q 947 2381 947 1747 
z
" transform="scale(0.015625)"/>
       <path id="DejaVuSans-45" d="M 628 4666 
L 3578 4666 
L 3578 4134 
L 1259 4134 
L 1259 2753 
L 3481 2753 
L 3481 2222 
L 1259 2222 
L 1259 531 
L 3634 531 
L 3634 0 
L 628 0 
L 628 4666 
z
" transform="scale(0.015625)"/>
      </defs>
      <use xlink:href="#DejaVuSans-52"/>
      <use xlink:href="#DejaVuSans-6f" transform="translate(64.982422 0)"/>
      <use xlink:href="#DejaVuSans-6f" transform="translate(126.164062 0)"/>
      <use xlink:href="#DejaVuSans-74" transform="translate(187.345703 0)"/>
      <use xlink:href="#DejaVuSans-20" transform="translate(226.554688 0)"/>
      <use xlink:href="#DejaVuSans-4d" transform="translate(258.341797 0)"/>
      <use xlink:href="#DejaVuSans-65" transform="translate(344.621094 0)"/>
      <use xlink:href="#DejaVuSans-61" transform="translate(406.144531 0)"/>
      <use xlink:href="#DejaVuSans-6e" transform="translate(467.423828 0)"/>
      <use xlink:href="#DejaVuSans-20" transform="translate(530.802734 0)"/>
      <use xlink:href="#DejaVuSans-53" transform="translate(562.589844 0)"/>
      <use xlink:href="#DejaVuSans-71" transform="translate(626.066406 0)"/>
      <use xlink:href="#DejaVuSans-75" transform="translate(689.542969 0)"/>
      <use xlink:href="#DejaVuSans-61" transform="translate(752.921875 0)"/>
      <use xlink:href="#DejaVuSans-72" transform="translate(814.201172 0)"/>
      <use xlink:href="#DejaVuSans-65" transform="translate(853.064453 0)"/>
      <use xlink:href="#DejaVuSans-64" transform="translate(914.587891 0)"/>
      <use xlink:href="#DejaVuSans-20" transform="translate(978.064453 0)"/>
      <use xlink:href="#DejaVuSans-45" transform="translate(1009.851562 0)"/>
      <use xlink:href="#DejaVuSans-72" transform="translate(1073.035156 0)"/>
      <use xlink:href="#DejaVuSans-72" transform="translate(1112.398438 0)"/>
      <use xlink:href="#DejaVuSans-6f" transform="translate(1151.261719 0)"/>
      <use xlink:href="#DejaVuSans-72" transform="translate(1212.443359 0)"/>
      <use xlink:href="#DejaVuSans-20" transform="translate(1253.556641 0)"/>
      <use xlink:href="#DejaVuSans-28" transform="translate(1285.34375 0)"/>
      <use xlink:href="#DejaVuSans-52" transform="translate(1324.357422 0)"/>
      <use xlink:href="#DejaVuSans-4d" transform="translate(1393.839844 0)"/>
      <use xlink:href="#DejaVuSans-53" transform="translate(1480.119141 0)"/>
      <use xlink:href="#DejaVuSans-45" transform="translate(1543.595703 0)"/>
      <use xlink:href="#DejaVuSans-29" transform="translate(1606.779297 0)"/>
     </g>
    </g>
   </g>
   <g id="line2d_12">
    <path d="M 96.836481 442.356981 
L 100.641027 458.201733 
L 104.445572 442.875518 
L 108.250118 453.86625 
L 112.054663 442.384962 
L 115.859208 453.452102 
L 119.663754 444.586814 
L 123.468299 448.588734 
L 127.272845 441.953707 
L 131.07739 450.390895 
L 134.881936 443.585148 
L 138.686481 451.630525 
L 142.491027 442.776677 
L 146.295572 452.867439 
L 150.100118 442.425211 
L 153.904663 452.824603 
L 157.709208 443.090631 
L 161.513754 449.881406 
L 165.318299 442.23003 
L 169.122845 451.649705 
L 172.92739 442.493646 
L 176.731936 453.440897 
L 180.536481 447.672889 
L 184.341027 450.938455 
L 188.145572 445.516922 
L 191.950118 455.39769 
L 195.754663 444.195571 
L 199.559208 452.869532 
L 203.363754 445.749573 
L 207.168299 455.499762 
L 210.972845 445.340395 
L 214.77739 454.375911 
L 218.581936 447.829947 
L 222.386481 455.117632 
L 226.191027 448.05224 
L 229.995572 455.217364 
L 233.800118 445.237325 
L 237.604663 454.412489 
L 241.409208 442.40674 
L 245.213754 453.178516 
L 249.018299 445.467668 
L 252.822845 454.933731 
L 256.62739 444.043461 
L 260.431936 452.144382 
L 264.236481 444.021995 
L 268.041027 451.984964 
L 271.845572 441.085614 
L 275.650118 450.766929 
L 279.454663 438.900839 
L 283.259208 451.62709 
L 287.063754 436.711835 
L 290.868299 450.345247 
L 294.672845 438.168617 
L 298.47739 453.422415 
L 302.281936 445.650291 
L 306.086481 450.211856 
L 309.891027 442.710819 
L 313.695572 454.623845 
L 317.500118 444.639255 
L 321.304663 451.356605 
L 325.109208 443.62559 
L 328.913754 454.232881 
L 332.718299 449.285837 
L 336.522845 452.866998 
L 340.32739 445.274461 
L 344.131936 456.377633 
L 347.936481 447.970164 
L 351.741027 455.747246 
L 355.545572 449.192685 
L 359.350118 456.520715 
L 363.154663 448.185921 
L 366.959208 457.860291 
L 370.763754 450.37179 
L 374.568299 457.016885 
L 378.372845 449.435178 
L 382.17739 460.203621 
L 385.981936 448.384762 
L 389.786481 456.731546 
L 393.591027 451.754406 
L 397.395572 460.118593 
L 401.200118 450.466671 
L 405.004663 458.678872 
L 408.809208 447.530182 
L 412.613754 455.060414 
L 416.418299 448.556545 
L 420.222845 456.39955 
L 424.02739 447.264624 
L 427.831936 454.550119 
L 431.636481 448.293477 
L 435.441027 455.843361 
L 439.245572 446.406932 
L 443.050118 453.669866 
L 446.854663 448.211476 
L 450.659208 454.728096 
L 454.463754 446.09872 
L 458.268299 457.010198 
L 462.072845 445.53139 
L 465.87739 456.975219 
L 469.681936 447.130922 
L 473.486481 456.588312 
L 477.291027 449.868709 
L 481.095572 457.299949 
L 484.900118 447.467275 
L 488.704663 459.075084 
L 492.509208 451.605495 
L 496.313754 459.279013 
L 500.118299 450.082941 
L 503.922845 459.410461 
L 507.72739 453.074029 
L 511.531936 460.059288 
L 515.336481 451.914801 
L 519.141027 459.567385 
L 522.945572 450.706244 
L 526.750118 461.529024 
L 530.554663 450.400072 
L 534.359208 457.381681 
L 538.163754 451.003701 
L 541.968299 460.657604 
L 545.772845 453.785902 
L 549.57739 459.763425 
L 553.381936 452.421554 
L 557.186481 462.376922 
L 560.991027 450.770138 
L 564.795572 462.21459 
L 568.600118 454.507992 
L 572.404663 460.974617 
L 576.209208 452.969285 
L 580.013754 458.460518 
L 583.818299 450.69256 
L 587.622845 459.018467 
L 591.42739 453.612841 
L 595.231936 457.3985 
L 599.036481 448.672516 
L 602.841027 456.8341 
L 606.645572 447.880929 
L 610.450118 458.681427 
L 614.254663 451.349382 
L 618.059208 458.575405 
L 621.863754 452.99073 
L 625.668299 457.909964 
L 629.472845 449.204362 
L 633.27739 457.780641 
L 637.081936 449.203332 
L 640.886481 459.045118 
L 644.691027 449.919541 
L 648.495572 460.860239 
L 652.300118 451.652023 
L 656.104663 459.634676 
L 659.909208 455.548533 
L 663.713754 462.011788 
L 667.518299 454.205716 
L 671.322845 464.237187 
L 675.12739 454.120785 
L 678.931936 463.142449 
L 682.736481 457.684462 
L 686.541027 463.635726 
L 690.345572 457.382347 
L 694.150118 461.885695 
L 697.954663 453.070498 
L 701.759208 461.179571 
L 705.563754 450.873251 
L 705.563754 450.873251 
" clip-path="url(#pc173a6d18d)" style="fill: none; stroke: #0000ff; stroke-linecap: square"/>
   </g>
   <g id="line2d_13">
    <path d="M 96.836481 407.723959 
L 100.641027 387.298463 
L 104.445572 396.153383 
L 108.250118 323.692205 
L 112.054663 418.875515 
L 115.859208 331.152156 
L 119.663754 361.729839 
L 123.468299 309.258362 
L 127.272845 301.429299 
L 131.07739 295.927515 
L 134.881936 337.548221 
L 138.686481 255.62552 
L 142.491027 331.70886 
L 146.295572 316.703952 
L 150.100118 362.818433 
L 153.904663 357.820095 
L 157.709208 412.942787 
L 161.513754 378.958634 
L 165.318299 440.306649 
L 169.122845 400.225712 
L 172.92739 423.261132 
L 176.731936 378.839078 
L 180.536481 303.147947 
L 184.341027 303.943355 
L 188.145572 214.125239 
L 191.950118 300.324134 
L 195.754663 352.586467 
L 199.559208 309.811953 
L 203.363754 394.497653 
L 207.168299 367.094605 
L 210.972845 425.683323 
L 214.77739 407.401194 
L 218.581936 384.11682 
L 222.386481 334.325202 
L 226.191027 390.290935 
L 229.995572 431.171187 
L 233.800118 411.514212 
L 237.604663 423.128675 
L 241.409208 346.56226 
L 245.213754 373.628172 
L 249.018299 403.598265 
L 252.822845 279.48287 
L 256.62739 281.329906 
L 260.431936 409.614669 
L 264.236481 383.004216 
L 268.041027 295.02688 
L 271.845572 330.386049 
L 275.650118 393.608417 
L 279.454663 324.598379 
L 283.259208 375.248558 
L 287.063754 310.785531 
L 290.868299 404.892011 
L 294.672845 360.88918 
L 298.47739 393.355566 
L 302.281936 336.252952 
L 306.086481 390.185171 
L 309.891027 396.919308 
L 313.695572 425.61871 
L 317.500118 415.51932 
L 321.304663 379.083857 
L 325.109208 354.851042 
L 328.913754 416.953175 
L 332.718299 426.985441 
L 336.522845 397.506419 
L 340.32739 346.196777 
L 344.131936 414.454919 
L 347.936481 405.762197 
L 351.741027 366.535604 
L 355.545572 378.206352 
L 359.350118 392.441493 
L 363.154663 410.431404 
L 366.959208 385.556482 
L 370.763754 380.579181 
L 374.568299 394.467429 
L 378.372845 430.127511 
L 382.17739 388.340732 
L 385.981936 422.897968 
L 389.786481 367.89744 
L 393.591027 418.640664 
L 397.395572 403.481661 
L 401.200118 428.36635 
L 405.004663 411.958895 
L 408.809208 405.780314 
L 412.613754 400.56461 
L 416.418299 432.226282 
L 420.222845 428.423064 
L 424.02739 392.426027 
L 427.831936 351.791831 
L 431.636481 413.108398 
L 435.441027 368.630768 
L 439.245572 310.502113 
L 443.050118 365.111902 
L 446.854663 398.646263 
L 450.659208 289.305883 
L 454.463754 416.369488 
L 458.268299 389.207891 
L 462.072845 412.586845 
L 465.87739 416.364261 
L 469.681936 425.664637 
L 473.486481 418.148037 
L 477.291027 355.838315 
L 481.095572 431.657095 
L 484.900118 424.014456 
L 488.704663 404.406993 
L 492.509208 439.571711 
L 496.313754 453.135315 
L 500.118299 424.510143 
L 503.922845 400.201788 
L 507.72739 426.434179 
L 511.531936 450.210075 
L 515.336481 416.789581 
L 519.141027 421.917081 
L 522.945572 416.578322 
L 526.750118 383.623484 
L 530.554663 382.96913 
L 538.163754 449.28544 
L 541.968299 436.410353 
L 545.772845 420.015209 
L 549.57739 394.387081 
L 553.381936 461.351198 
L 557.186481 339.455256 
L 560.991027 392.186668 
L 564.795572 462.393838 
L 568.600118 421.384505 
L 572.404663 389.737805 
L 576.209208 423.022074 
L 580.013754 443.995828 
L 583.818299 451.57306 
L 587.622845 426.668353 
L 591.42739 384.614588 
L 595.231936 424.622486 
L 599.036481 365.268583 
L 602.841027 390.936896 
L 606.645572 386.745719 
L 610.450118 393.263927 
L 614.254663 346.892174 
L 618.059208 434.708299 
L 621.863754 391.167872 
L 625.668299 422.431443 
L 629.472845 400.969698 
L 633.27739 425.574447 
L 637.081936 393.569853 
L 640.886481 442.474541 
L 644.691027 411.660289 
L 648.495572 429.545767 
L 652.300118 423.694814 
L 656.104663 427.768077 
L 659.909208 394.997322 
L 663.713754 422.859844 
L 667.518299 386.156408 
L 671.322845 324.017267 
L 675.12739 379.697425 
L 678.931936 388.249565 
L 682.736481 375.618034 
L 686.541027 311.415263 
L 690.345572 421.477088 
L 694.150118 417.520827 
L 697.954663 394.747241 
L 701.759208 398.391394 
L 705.563754 420.477322 
L 705.563754 420.477322 
" clip-path="url(#pc173a6d18d)" style="fill: none; stroke: #ffa500; stroke-linecap: square"/>
   </g>
   <g id="line2d_14">
    <path d="M 96.836481 427.24018 
L 100.641027 418.906072 
L 104.445572 422.888995 
L 108.250118 414.990564 
L 112.054663 418.740192 
L 115.859208 421.461804 
L 119.663754 419.24263 
L 123.468299 413.979926 
L 127.272845 415.842654 
L 131.07739 417.574621 
L 134.881936 420.047365 
L 138.686481 418.750357 
L 142.491027 417.331141 
L 146.295572 413.16918 
L 150.100118 423.53913 
L 153.904663 419.431822 
L 157.709208 418.025315 
L 161.513754 415.808544 
L 165.318299 420.470893 
L 169.122845 420.126049 
L 172.92739 417.630219 
L 176.731936 420.769488 
L 180.536481 419.55448 
L 184.341027 417.706724 
L 188.145572 422.862559 
L 191.950118 419.820081 
L 195.754663 422.30461 
L 199.559208 413.706607 
L 203.363754 422.769203 
L 207.168299 421.626289 
L 210.972845 426.342883 
L 214.77739 421.26497 
L 218.581936 420.271547 
L 222.386481 423.435653 
L 226.191027 424.181023 
L 229.995572 421.531376 
L 233.800118 424.720769 
L 237.604663 420.870658 
L 241.409208 423.768915 
L 245.213754 421.088958 
L 249.018299 424.915918 
L 252.822845 421.306454 
L 256.62739 420.102673 
L 260.431936 417.768761 
L 264.236481 422.481223 
L 268.041027 419.170149 
L 271.845572 420.200226 
L 275.650118 416.106001 
L 279.454663 417.581136 
L 283.259208 415.213104 
L 287.063754 418.469761 
L 290.868299 414.371222 
L 294.672845 417.589605 
L 298.47739 421.305176 
L 302.281936 415.499141 
L 306.086481 414.856776 
L 309.891027 422.152973 
L 313.695572 418.647383 
L 317.500118 417.117209 
L 321.304663 418.678853 
L 325.109208 424.00953 
L 328.913754 424.46809 
L 332.718299 420.082194 
L 336.522845 417.029101 
L 340.32739 421.096106 
L 344.131936 418.744099 
L 347.936481 425.372879 
L 351.741027 425.115736 
L 355.545572 425.157552 
L 359.350118 422.125077 
L 363.154663 427.228395 
L 366.959208 425.42706 
L 370.763754 424.712526 
L 374.568299 427.384143 
L 378.372845 428.178618 
L 382.17739 426.155902 
L 385.981936 429.093163 
L 389.786481 430.556341 
L 393.591027 427.278594 
L 397.395572 428.261155 
L 401.200118 428.802887 
L 405.004663 422.786816 
L 408.809208 425.42955 
L 412.613754 426.063339 
L 416.418299 424.910541 
L 420.222845 421.742528 
L 424.02739 425.660677 
L 427.831936 423.95814 
L 431.636481 420.75591 
L 435.441027 421.564445 
L 439.245572 422.940975 
L 443.050118 422.691613 
L 446.854663 420.757552 
L 450.659208 422.251556 
L 454.463754 423.995469 
L 458.268299 422.265219 
L 462.072845 425.343718 
L 465.87739 423.928999 
L 469.681936 425.115682 
L 473.486481 422.897527 
L 477.291027 422.910515 
L 481.095572 420.727972 
L 484.900118 425.428681 
L 488.704663 423.440601 
L 492.509208 428.721218 
L 496.313754 425.139757 
L 500.118299 427.27327 
L 503.922845 427.206231 
L 507.72739 427.46315 
L 511.531936 428.672243 
L 515.336481 427.837713 
L 519.141027 426.796678 
L 522.945572 427.385131 
L 526.750118 426.9027 
L 530.554663 424.920898 
L 534.359208 425.103425 
L 538.163754 430.393606 
L 541.968299 427.813102 
L 545.772845 433.026584 
L 549.57739 428.233721 
L 553.381936 429.597372 
L 557.186481 426.029841 
L 560.991027 429.516798 
L 564.795572 428.39944 
L 568.600118 429.713654 
L 572.404663 426.724745 
L 576.209208 425.032576 
L 580.013754 422.729297 
L 583.818299 425.962985 
L 587.622845 428.91303 
L 591.42739 426.029477 
L 595.231936 424.785962 
L 599.036481 430.486855 
L 602.841027 423.770525 
L 606.645572 426.392201 
L 610.450118 427.344656 
L 614.254663 423.612985 
L 618.059208 429.97494 
L 621.863754 427.4248 
L 625.668299 421.658585 
L 629.472845 425.78092 
L 633.27739 424.749083 
L 637.081936 428.701094 
L 640.886481 424.810927 
L 644.691027 429.133788 
L 648.495572 429.776571 
L 652.300118 432.325509 
L 656.104663 433.102199 
L 659.909208 429.10308 
L 663.713754 431.225528 
L 667.518299 435.302333 
L 671.322845 434.205829 
L 675.12739 433.787883 
L 678.931936 436.615398 
L 682.736481 431.334877 
L 686.541027 435.268738 
L 690.345572 430.995014 
L 694.150118 430.227909 
L 697.954663 429.582249 
L 701.759208 427.17371 
L 705.563754 433.477482 
L 705.563754 433.477482 
" clip-path="url(#pc173a6d18d)" style="fill: none; stroke-dasharray: 3.7,1.6; stroke-dashoffset: 0; stroke: #0000ff"/>
   </g>
   <g id="line2d_15">
    <path d="M 96.836481 360.607888 
L 100.641027 244.851125 
L 104.445572 327.330659 
L 108.250118 351.997349 
L 112.054663 225.822337 
L 115.859208 239.522552 
L 119.663754 210.174023 
L 123.468299 137.634471 
L 127.272845 151.293449 
L 131.07739 161.963175 
L 134.881936 73.490238 
L 138.686481 149.806873 
L 142.491027 216.035752 
L 146.295572 217.344008 
L 150.100118 281.472936 
L 153.904663 378.654222 
L 157.709208 388.421627 
L 161.513754 399.813991 
L 165.318299 396.950681 
L 169.122845 407.209672 
L 172.92739 312.817949 
L 176.731936 87.773282 
L 180.536481 150.262385 
L 184.341027 66.517162 
L 188.145572 76.21477 
L 191.950118 202.725105 
L 195.754663 250.66814 
L 199.559208 330.214663 
L 203.363754 356.542084 
L 207.168299 358.087907 
L 210.972845 371.33218 
L 214.77739 351.0687 
L 218.581936 336.664373 
L 222.386481 400.343916 
L 226.191027 315.639444 
L 229.995572 384.874232 
L 233.800118 367.12264 
L 237.604663 215.415422 
L 241.409208 164.627387 
L 245.213754 315.094052 
L 249.018299 91.271154 
L 252.822845 125.390243 
L 256.62739 238.127099 
L 260.431936 208.798834 
L 264.236481 61.037187 
L 268.041027 124.054059 
L 271.845572 258.408568 
L 275.650118 169.255969 
L 279.454663 201.690714 
L 283.259208 171.920911 
L 287.063754 319.984007 
L 290.868299 254.093478 
L 294.672845 336.041596 
L 298.47739 257.08331 
L 302.281936 276.83332 
L 306.086481 264.480602 
L 309.891027 275.66953 
L 313.695572 376.263651 
L 317.500118 308.230303 
L 321.304663 291.211244 
L 325.109208 359.294758 
L 328.913754 367.640254 
L 332.718299 345.916128 
L 336.522845 184.252635 
L 340.32739 258.168061 
L 344.131936 293.254803 
L 347.936481 283.620091 
L 351.741027 236.236443 
L 355.545572 371.379481 
L 359.350118 304.852834 
L 363.154663 262.653615 
L 366.959208 311.55578 
L 370.763754 376.977004 
L 374.568299 328.906213 
L 378.372845 255.466799 
L 382.17739 329.777869 
L 385.981936 370.586424 
L 389.786481 294.03291 
L 393.591027 307.942398 
L 401.200118 402.938448 
L 405.004663 448.432631 
L 408.809208 369.804818 
L 412.613754 424.622293 
L 416.418299 347.057979 
L 420.222845 319.304752 
L 424.02739 318.61075 
L 427.831936 299.185546 
L 431.636481 276.870242 
L 435.441027 203.124097 
L 439.245572 251.187643 
L 443.050118 396.595361 
L 446.854663 196.046931 
L 450.659208 309.810837 
L 454.463754 369.730298 
L 458.268299 312.465947 
L 462.072845 363.702153 
L 465.87739 405.521679 
L 469.681936 393.87083 
L 473.486481 333.620811 
L 477.291027 389.925108 
L 481.095572 392.014005 
L 484.900118 420.431685 
L 488.704663 389.187874 
L 492.509208 407.355417 
L 496.313754 332.006274 
L 500.118299 391.870417 
L 503.922845 350.804258 
L 507.72739 405.552397 
L 511.531936 381.666121 
L 515.336481 398.297426 
L 519.141027 417.898911 
L 522.945572 382.144227 
L 526.750118 330.257016 
L 530.554663 406.119898 
L 534.359208 438.728605 
L 538.163754 411.378052 
L 541.968299 351.154178 
L 545.772845 360.168818 
L 549.57739 407.050286 
L 553.381936 267.025483 
L 557.186481 329.113641 
L 560.991027 438.738318 
L 564.795572 405.89313 
L 568.600118 403.681973 
L 572.404663 401.005665 
L 576.209208 397.417989 
L 580.013754 380.28401 
L 583.818299 370.880736 
L 587.622845 281.287725 
L 591.42739 383.890984 
L 595.231936 345.919734 
L 599.036481 320.161854 
L 602.841027 256.332337 
L 606.645572 297.419308 
L 610.450118 279.353343 
L 614.254663 412.465422 
L 618.059208 376.455344 
L 621.863754 377.327622 
L 625.668299 380.47199 
L 629.472845 415.267264 
L 633.27739 329.007598 
L 637.081936 383.639197 
L 640.886481 389.100259 
L 644.691027 407.689334 
L 648.495572 388.876485 
L 652.300118 410.998852 
L 656.104663 346.338175 
L 659.909208 383.706665 
L 663.713754 328.686056 
L 667.518299 270.475507 
L 671.322845 227.036851 
L 675.12739 287.497185 
L 678.931936 275.138264 
L 682.736481 199.333555 
L 686.541027 230.179286 
L 690.345572 314.319144 
L 694.150118 331.063952 
L 697.954663 374.944875 
L 701.759208 285.551683 
L 705.563754 256.59972 
L 705.563754 256.59972 
" clip-path="url(#pc173a6d18d)" style="fill: none; stroke-dasharray: 3.7,1.6; stroke-dashoffset: 0; stroke: #ffa500"/>
   </g>
   <g id="patch_3">
    <path d="M 66.400118 484.397187 
L 66.400118 40.877187 
" style="fill: none; stroke: #000000; stroke-width: 0.8; stroke-linejoin: miter; stroke-linecap: square"/>
   </g>
   <g id="patch_4">
    <path d="M 736.000118 484.397187 
L 736.000118 40.877187 
" style="fill: none; stroke: #000000; stroke-width: 0.8; stroke-linejoin: miter; stroke-linecap: square"/>
   </g>
   <g id="patch_5">
    <path d="M 66.400118 484.397187 
L 736.000118 484.397187 
" style="fill: none; stroke: #000000; stroke-width: 0.8; stroke-linejoin: miter; stroke-linecap: square"/>
   </g>
   <g id="patch_6">
    <path d="M 66.400118 40.877187 
L 736.000118 40.877187 
" style="fill: none; stroke: #000000; stroke-width: 0.8; stroke-linejoin: miter; stroke-linecap: square"/>
   </g>
   <g id="text_14">
    <!-- Southward wind speed two steps forward prediction: RMSES -->
    <g transform="translate(130.046993 20.877187) scale(0.18 -0.18)">
     <defs>
      <path id="DejaVuSans-68" d="M 3513 2113 
L 3513 0 
L 2938 0 
L 2938 2094 
Q 2938 2591 2744 2837 
Q 2550 3084 2163 3084 
Q 1697 3084 1428 2787 
Q 1159 2491 1159 1978 
L 1159 0 
L 581 0 
L 581 4863 
L 1159 4863 
L 1159 2956 
Q 1366 3272 1645 3428 
Q 1925 3584 2291 3584 
Q 2894 3584 3203 3211 
Q 3513 2838 3513 2113 
z
" transform="scale(0.015625)"/>
      <path id="DejaVuSans-77" d="M 269 3500 
L 844 3500 
L 1563 769 
L 2278 3500 
L 2956 3500 
L 3675 769 
L 4391 3500 
L 4966 3500 
L 4050 0 
L 3372 0 
L 2619 2869 
L 1863 0 
L 1184 0 
L 269 3500 
z
" transform="scale(0.015625)"/>
      <path id="DejaVuSans-69" d="M 603 3500 
L 1178 3500 
L 1178 0 
L 603 0 
L 603 3500 
z
M 603 4863 
L 1178 4863 
L 1178 4134 
L 603 4134 
L 603 4863 
z
" transform="scale(0.015625)"/>
      <path id="DejaVuSans-70" d="M 1159 525 
L 1159 -1331 
L 581 -1331 
L 581 3500 
L 1159 3500 
L 1159 2969 
Q 1341 3281 1617 3432 
Q 1894 3584 2278 3584 
Q 2916 3584 3314 3078 
Q 3713 2572 3713 1747 
Q 3713 922 3314 415 
Q 2916 -91 2278 -91 
Q 1894 -91 1617 61 
Q 1341 213 1159 525 
z
M 3116 1747 
Q 3116 2381 2855 2742 
Q 2594 3103 2138 3103 
Q 1681 3103 1420 2742 
Q 1159 2381 1159 1747 
Q 1159 1113 1420 752 
Q 1681 391 2138 391 
Q 2594 391 2855 752 
Q 3116 1113 3116 1747 
z
" transform="scale(0.015625)"/>
      <path id="DejaVuSans-66" d="M 2375 4863 
L 2375 4384 
L 1825 4384 
Q 1516 4384 1395 4259 
Q 1275 4134 1275 3809 
L 1275 3500 
L 2222 3500 
L 2222 3053 
L 1275 3053 
L 1275 0 
L 697 0 
L 697 3053 
L 147 3053 
L 147 3500 
L 697 3500 
L 697 3744 
Q 697 4328 969 4595 
Q 1241 4863 1831 4863 
L 2375 4863 
z
" transform="scale(0.015625)"/>
     </defs>
     <use xlink:href="#DejaVuSans-53"/>
     <use xlink:href="#DejaVuSans-6f" transform="translate(63.476562 0)"/>
     <use xlink:href="#DejaVuSans-75" transform="translate(124.658203 0)"/>
     <use xlink:href="#DejaVuSans-74" transform="translate(188.037109 0)"/>
     <use xlink:href="#DejaVuSans-68" transform="translate(227.246094 0)"/>
     <use xlink:href="#DejaVuSans-77" transform="translate(290.625 0)"/>
     <use xlink:href="#DejaVuSans-61" transform="translate(372.412109 0)"/>
     <use xlink:href="#DejaVuSans-72" transform="translate(433.691406 0)"/>
     <use xlink:href="#DejaVuSans-64" transform="translate(473.054688 0)"/>
     <use xlink:href="#DejaVuSans-20" transform="translate(536.53125 0)"/>
     <use xlink:href="#DejaVuSans-77" transform="translate(568.318359 0)"/>
     <use xlink:href="#DejaVuSans-69" transform="translate(650.105469 0)"/>
     <use xlink:href="#DejaVuSans-6e" transform="translate(677.888672 0)"/>
     <use xlink:href="#DejaVuSans-64" transform="translate(741.267578 0)"/>
     <use xlink:href="#DejaVuSans-20" transform="translate(804.744141 0)"/>
     <use xlink:href="#DejaVuSans-73" transform="translate(836.53125 0)"/>
     <use xlink:href="#DejaVuSans-70" transform="translate(888.630859 0)"/>
     <use xlink:href="#DejaVuSans-65" transform="translate(952.107422 0)"/>
     <use xlink:href="#DejaVuSans-65" transform="translate(1013.630859 0)"/>
     <use xlink:href="#DejaVuSans-64" transform="translate(1075.154297 0)"/>
     <use xlink:href="#DejaVuSans-20" transform="translate(1138.630859 0)"/>
     <use xlink:href="#DejaVuSans-74" transform="translate(1170.417969 0)"/>
     <use xlink:href="#DejaVuSans-77" transform="translate(1209.626953 0)"/>
     <use xlink:href="#DejaVuSans-6f" transform="translate(1291.414062 0)"/>
     <use xlink:href="#DejaVuSans-20" transform="translate(1352.595703 0)"/>
     <use xlink:href="#DejaVuSans-73" transform="translate(1384.382812 0)"/>
     <use xlink:href="#DejaVuSans-74" transform="translate(1436.482422 0)"/>
     <use xlink:href="#DejaVuSans-65" transform="translate(1475.691406 0)"/>
     <use xlink:href="#DejaVuSans-70" transform="translate(1537.214844 0)"/>
     <use xlink:href="#DejaVuSans-73" transform="translate(1600.691406 0)"/>
     <use xlink:href="#DejaVuSans-20" transform="translate(1652.791016 0)"/>
     <use xlink:href="#DejaVuSans-66" transform="translate(1684.578125 0)"/>
     <use xlink:href="#DejaVuSans-6f" transform="translate(1719.783203 0)"/>
     <use xlink:href="#DejaVuSans-72" transform="translate(1780.964844 0)"/>
     <use xlink:href="#DejaVuSans-77" transform="translate(1822.078125 0)"/>
     <use xlink:href="#DejaVuSans-61" transform="translate(1903.865234 0)"/>
     <use xlink:href="#DejaVuSans-72" transform="translate(1965.144531 0)"/>
     <use xlink:href="#DejaVuSans-64" transform="translate(2004.507812 0)"/>
     <use xlink:href="#DejaVuSans-20" transform="translate(2067.984375 0)"/>
     <use xlink:href="#DejaVuSans-70" transform="translate(2099.771484 0)"/>
     <use xlink:href="#DejaVuSans-72" transform="translate(2163.248047 0)"/>
     <use xlink:href="#DejaVuSans-65" transform="translate(2202.111328 0)"/>
     <use xlink:href="#DejaVuSans-64" transform="translate(2263.634766 0)"/>
     <use xlink:href="#DejaVuSans-69" transform="translate(2327.111328 0)"/>
     <use xlink:href="#DejaVuSans-63" transform="translate(2354.894531 0)"/>
     <use xlink:href="#DejaVuSans-74" transform="translate(2409.875 0)"/>
     <use xlink:href="#DejaVuSans-69" transform="translate(2449.083984 0)"/>
     <use xlink:href="#DejaVuSans-6f" transform="translate(2476.867188 0)"/>
     <use xlink:href="#DejaVuSans-6e" transform="translate(2538.048828 0)"/>
     <use xlink:href="#DejaVuSans-3a" transform="translate(2601.427734 0)"/>
     <use xlink:href="#DejaVuSans-20" transform="translate(2635.119141 0)"/>
     <use xlink:href="#DejaVuSans-52" transform="translate(2666.90625 0)"/>
     <use xlink:href="#DejaVuSans-4d" transform="translate(2736.388672 0)"/>
     <use xlink:href="#DejaVuSans-53" transform="translate(2822.667969 0)"/>
     <use xlink:href="#DejaVuSans-45" transform="translate(2886.144531 0)"/>
     <use xlink:href="#DejaVuSans-53" transform="translate(2949.328125 0)"/>
    </g>
   </g>
   <g id="legend_1">
    <g id="text_15">
     <!-- Forecast Horizon -->
     <g transform="translate(852.099961 65.634687) scale(0.16 -0.16)">
      <defs>
       <path id="DejaVuSans-48" d="M 628 4666 
L 1259 4666 
L 1259 2753 
L 3553 2753 
L 3553 4666 
L 4184 4666 
L 4184 0 
L 3553 0 
L 3553 2222 
L 1259 2222 
L 1259 0 
L 628 0 
L 628 4666 
z
" transform="scale(0.015625)"/>
       <path id="DejaVuSans-7a" d="M 353 3500 
L 3084 3500 
L 3084 2975 
L 922 459 
L 3084 459 
L 3084 0 
L 275 0 
L 275 525 
L 2438 3041 
L 353 3041 
L 353 3500 
z
" transform="scale(0.015625)"/>
      </defs>
      <use xlink:href="#DejaVuSans-46"/>
      <use xlink:href="#DejaVuSans-6f" transform="translate(53.894531 0)"/>
      <use xlink:href="#DejaVuSans-72" transform="translate(115.076172 0)"/>
      <use xlink:href="#DejaVuSans-65" transform="translate(153.939453 0)"/>
      <use xlink:href="#DejaVuSans-63" transform="translate(215.462891 0)"/>
      <use xlink:href="#DejaVuSans-61" transform="translate(270.443359 0)"/>
      <use xlink:href="#DejaVuSans-73" transform="translate(331.722656 0)"/>
      <use xlink:href="#DejaVuSans-74" transform="translate(383.822266 0)"/>
      <use xlink:href="#DejaVuSans-20" transform="translate(423.03125 0)"/>
      <use xlink:href="#DejaVuSans-48" transform="translate(454.818359 0)"/>
      <use xlink:href="#DejaVuSans-6f" transform="translate(530.013672 0)"/>
      <use xlink:href="#DejaVuSans-72" transform="translate(591.195312 0)"/>
      <use xlink:href="#DejaVuSans-69" transform="translate(632.308594 0)"/>
      <use xlink:href="#DejaVuSans-7a" transform="translate(660.091797 0)"/>
      <use xlink:href="#DejaVuSans-6f" transform="translate(712.582031 0)"/>
      <use xlink:href="#DejaVuSans-6e" transform="translate(773.763672 0)"/>
     </g>
    </g>
    <g id="line2d_16">
     <path d="M 782.080118 81.7 
L 796.080118 81.7 
L 810.080118 81.7 
" style="fill: none; stroke: #0000ff; stroke-linecap: square"/>
    </g>
    <g id="text_16">
     <!-- Global RMSE (6h Forecast) -->
     <g transform="translate(821.280118 86.6) scale(0.14 -0.14)">
      <defs>
       <path id="DejaVuSans-47" d="M 3809 666 
L 3809 1919 
L 2778 1919 
L 2778 2438 
L 4434 2438 
L 4434 434 
Q 4069 175 3628 42 
Q 3188 -91 2688 -91 
Q 1594 -91 976 548 
Q 359 1188 359 2328 
Q 359 3472 976 4111 
Q 1594 4750 2688 4750 
Q 3144 4750 3555 4637 
Q 3966 4525 4313 4306 
L 4313 3634 
Q 3963 3931 3569 4081 
Q 3175 4231 2741 4231 
Q 1884 4231 1454 3753 
Q 1025 3275 1025 2328 
Q 1025 1384 1454 906 
Q 1884 428 2741 428 
Q 3075 428 3337 486 
Q 3600 544 3809 666 
z
" transform="scale(0.015625)"/>
       <path id="DejaVuSans-6c" d="M 603 4863 
L 1178 4863 
L 1178 0 
L 603 0 
L 603 4863 
z
" transform="scale(0.015625)"/>
       <path id="DejaVuSans-62" d="M 3116 1747 
Q 3116 2381 2855 2742 
Q 2594 3103 2138 3103 
Q 1681 3103 1420 2742 
Q 1159 2381 1159 1747 
Q 1159 1113 1420 752 
Q 1681 391 2138 391 
Q 2594 391 2855 752 
Q 3116 1113 3116 1747 
z
M 1159 2969 
Q 1341 3281 1617 3432 
Q 1894 3584 2278 3584 
Q 2916 3584 3314 3078 
Q 3713 2572 3713 1747 
Q 3713 922 3314 415 
Q 2916 -91 2278 -91 
Q 1894 -91 1617 61 
Q 1341 213 1159 525 
L 1159 0 
L 581 0 
L 581 4863 
L 1159 4863 
L 1159 2969 
z
" transform="scale(0.015625)"/>
       <path id="DejaVuSans-36" d="M 2113 2584 
Q 1688 2584 1439 2293 
Q 1191 2003 1191 1497 
Q 1191 994 1439 701 
Q 1688 409 2113 409 
Q 2538 409 2786 701 
Q 3034 994 3034 1497 
Q 3034 2003 2786 2293 
Q 2538 2584 2113 2584 
z
M 3366 4563 
L 3366 3988 
Q 3128 4100 2886 4159 
Q 2644 4219 2406 4219 
Q 1781 4219 1451 3797 
Q 1122 3375 1075 2522 
Q 1259 2794 1537 2939 
Q 1816 3084 2150 3084 
Q 2853 3084 3261 2657 
Q 3669 2231 3669 1497 
Q 3669 778 3244 343 
Q 2819 -91 2113 -91 
Q 1303 -91 875 529 
Q 447 1150 447 2328 
Q 447 3434 972 4092 
Q 1497 4750 2381 4750 
Q 2619 4750 2861 4703 
Q 3103 4656 3366 4563 
z
" transform="scale(0.015625)"/>
      </defs>
      <use xlink:href="#DejaVuSans-47"/>
      <use xlink:href="#DejaVuSans-6c" transform="translate(77.490234 0)"/>
      <use xlink:href="#DejaVuSans-6f" transform="translate(105.273438 0)"/>
      <use xlink:href="#DejaVuSans-62" transform="translate(166.455078 0)"/>
      <use xlink:href="#DejaVuSans-61" transform="translate(229.931641 0)"/>
      <use xlink:href="#DejaVuSans-6c" transform="translate(291.210938 0)"/>
      <use xlink:href="#DejaVuSans-20" transform="translate(318.994141 0)"/>
      <use xlink:href="#DejaVuSans-52" transform="translate(350.78125 0)"/>
      <use xlink:href="#DejaVuSans-4d" transform="translate(420.263672 0)"/>
      <use xlink:href="#DejaVuSans-53" transform="translate(506.542969 0)"/>
      <use xlink:href="#DejaVuSans-45" transform="translate(570.019531 0)"/>
      <use xlink:href="#DejaVuSans-20" transform="translate(633.203125 0)"/>
      <use xlink:href="#DejaVuSans-28" transform="translate(664.990234 0)"/>
      <use xlink:href="#DejaVuSans-36" transform="translate(704.003906 0)"/>
      <use xlink:href="#DejaVuSans-68" transform="translate(767.626953 0)"/>
      <use xlink:href="#DejaVuSans-20" transform="translate(831.005859 0)"/>
      <use xlink:href="#DejaVuSans-46" transform="translate(862.792969 0)"/>
      <use xlink:href="#DejaVuSans-6f" transform="translate(916.6875 0)"/>
      <use xlink:href="#DejaVuSans-72" transform="translate(977.869141 0)"/>
      <use xlink:href="#DejaVuSans-65" transform="translate(1016.732422 0)"/>
      <use xlink:href="#DejaVuSans-63" transform="translate(1078.255859 0)"/>
      <use xlink:href="#DejaVuSans-61" transform="translate(1133.236328 0)"/>
      <use xlink:href="#DejaVuSans-73" transform="translate(1194.515625 0)"/>
      <use xlink:href="#DejaVuSans-74" transform="translate(1246.615234 0)"/>
      <use xlink:href="#DejaVuSans-29" transform="translate(1285.824219 0)"/>
     </g>
    </g>
    <g id="line2d_17">
     <path d="M 782.080118 102.249375 
L 796.080118 102.249375 
L 810.080118 102.249375 
" style="fill: none; stroke: #ffa500; stroke-linecap: square"/>
    </g>
    <g id="text_17">
     <!-- South Africa RMSE (6h Forecast) -->
     <g transform="translate(821.280118 107.149375) scale(0.14 -0.14)">
      <defs>
       <path id="DejaVuSans-41" d="M 2188 4044 
L 1331 1722 
L 3047 1722 
L 2188 4044 
z
M 1831 4666 
L 2547 4666 
L 4325 0 
L 3669 0 
L 3244 1197 
L 1141 1197 
L 716 0 
L 50 0 
L 1831 4666 
z
" transform="scale(0.015625)"/>
      </defs>
      <use xlink:href="#DejaVuSans-53"/>
      <use xlink:href="#DejaVuSans-6f" transform="translate(63.476562 0)"/>
      <use xlink:href="#DejaVuSans-75" transform="translate(124.658203 0)"/>
      <use xlink:href="#DejaVuSans-74" transform="translate(188.037109 0)"/>
      <use xlink:href="#DejaVuSans-68" transform="translate(227.246094 0)"/>
      <use xlink:href="#DejaVuSans-20" transform="translate(290.625 0)"/>
      <use xlink:href="#DejaVuSans-41" transform="translate(322.412109 0)"/>
      <use xlink:href="#DejaVuSans-66" transform="translate(387.195312 0)"/>
      <use xlink:href="#DejaVuSans-72" transform="translate(422.400391 0)"/>
      <use xlink:href="#DejaVuSans-69" transform="translate(463.513672 0)"/>
      <use xlink:href="#DejaVuSans-63" transform="translate(491.296875 0)"/>
      <use xlink:href="#DejaVuSans-61" transform="translate(546.277344 0)"/>
      <use xlink:href="#DejaVuSans-20" transform="translate(607.556641 0)"/>
      <use xlink:href="#DejaVuSans-52" transform="translate(639.34375 0)"/>
      <use xlink:href="#DejaVuSans-4d" transform="translate(708.826172 0)"/>
      <use xlink:href="#DejaVuSans-53" transform="translate(795.105469 0)"/>
      <use xlink:href="#DejaVuSans-45" transform="translate(858.582031 0)"/>
      <use xlink:href="#DejaVuSans-20" transform="translate(921.765625 0)"/>
      <use xlink:href="#DejaVuSans-28" transform="translate(953.552734 0)"/>
      <use xlink:href="#DejaVuSans-36" transform="translate(992.566406 0)"/>
      <use xlink:href="#DejaVuSans-68" transform="translate(1056.189453 0)"/>
      <use xlink:href="#DejaVuSans-20" transform="translate(1119.568359 0)"/>
      <use xlink:href="#DejaVuSans-46" transform="translate(1151.355469 0)"/>
      <use xlink:href="#DejaVuSans-6f" transform="translate(1205.25 0)"/>
      <use xlink:href="#DejaVuSans-72" transform="translate(1266.431641 0)"/>
      <use xlink:href="#DejaVuSans-65" transform="translate(1305.294922 0)"/>
      <use xlink:href="#DejaVuSans-63" transform="translate(1366.818359 0)"/>
      <use xlink:href="#DejaVuSans-61" transform="translate(1421.798828 0)"/>
      <use xlink:href="#DejaVuSans-73" transform="translate(1483.078125 0)"/>
      <use xlink:href="#DejaVuSans-74" transform="translate(1535.177734 0)"/>
      <use xlink:href="#DejaVuSans-29" transform="translate(1574.386719 0)"/>
     </g>
    </g>
    <g id="line2d_18">
     <path d="M 782.080118 122.79875 
L 796.080118 122.79875 
L 810.080118 122.79875 
" style="fill: none; stroke-dasharray: 3.7,1.6; stroke-dashoffset: 0; stroke: #0000ff"/>
    </g>
    <g id="text_18">
     <!-- Global RMSE (12h Forecast) -->
     <g transform="translate(821.280118 127.69875) scale(0.14 -0.14)">
      <use xlink:href="#DejaVuSans-47"/>
      <use xlink:href="#DejaVuSans-6c" transform="translate(77.490234 0)"/>
      <use xlink:href="#DejaVuSans-6f" transform="translate(105.273438 0)"/>
      <use xlink:href="#DejaVuSans-62" transform="translate(166.455078 0)"/>
      <use xlink:href="#DejaVuSans-61" transform="translate(229.931641 0)"/>
      <use xlink:href="#DejaVuSans-6c" transform="translate(291.210938 0)"/>
      <use xlink:href="#DejaVuSans-20" transform="translate(318.994141 0)"/>
      <use xlink:href="#DejaVuSans-52" transform="translate(350.78125 0)"/>
      <use xlink:href="#DejaVuSans-4d" transform="translate(420.263672 0)"/>
      <use xlink:href="#DejaVuSans-53" transform="translate(506.542969 0)"/>
      <use xlink:href="#DejaVuSans-45" transform="translate(570.019531 0)"/>
      <use xlink:href="#DejaVuSans-20" transform="translate(633.203125 0)"/>
      <use xlink:href="#DejaVuSans-28" transform="translate(664.990234 0)"/>
      <use xlink:href="#DejaVuSans-31" transform="translate(704.003906 0)"/>
      <use xlink:href="#DejaVuSans-32" transform="translate(767.626953 0)"/>
      <use xlink:href="#DejaVuSans-68" transform="translate(831.25 0)"/>
      <use xlink:href="#DejaVuSans-20" transform="translate(894.628906 0)"/>
      <use xlink:href="#DejaVuSans-46" transform="translate(926.416016 0)"/>
      <use xlink:href="#DejaVuSans-6f" transform="translate(980.310547 0)"/>
      <use xlink:href="#DejaVuSans-72" transform="translate(1041.492188 0)"/>
      <use xlink:href="#DejaVuSans-65" transform="translate(1080.355469 0)"/>
      <use xlink:href="#DejaVuSans-63" transform="translate(1141.878906 0)"/>
      <use xlink:href="#DejaVuSans-61" transform="translate(1196.859375 0)"/>
      <use xlink:href="#DejaVuSans-73" transform="translate(1258.138672 0)"/>
      <use xlink:href="#DejaVuSans-74" transform="translate(1310.238281 0)"/>
      <use xlink:href="#DejaVuSans-29" transform="translate(1349.447266 0)"/>
     </g>
    </g>
    <g id="line2d_19">
     <path d="M 782.080118 143.348125 
L 796.080118 143.348125 
L 810.080118 143.348125 
" style="fill: none; stroke-dasharray: 3.7,1.6; stroke-dashoffset: 0; stroke: #ffa500"/>
    </g>
    <g id="text_19">
     <!-- South Africa RMSE (12h Forecast) -->
     <g transform="translate(821.280118 148.248125) scale(0.14 -0.14)">
      <use xlink:href="#DejaVuSans-53"/>
      <use xlink:href="#DejaVuSans-6f" transform="translate(63.476562 0)"/>
      <use xlink:href="#DejaVuSans-75" transform="translate(124.658203 0)"/>
      <use xlink:href="#DejaVuSans-74" transform="translate(188.037109 0)"/>
      <use xlink:href="#DejaVuSans-68" transform="translate(227.246094 0)"/>
      <use xlink:href="#DejaVuSans-20" transform="translate(290.625 0)"/>
      <use xlink:href="#DejaVuSans-41" transform="translate(322.412109 0)"/>
      <use xlink:href="#DejaVuSans-66" transform="translate(387.195312 0)"/>
      <use xlink:href="#DejaVuSans-72" transform="translate(422.400391 0)"/>
      <use xlink:href="#DejaVuSans-69" transform="translate(463.513672 0)"/>
      <use xlink:href="#DejaVuSans-63" transform="translate(491.296875 0)"/>
      <use xlink:href="#DejaVuSans-61" transform="translate(546.277344 0)"/>
      <use xlink:href="#DejaVuSans-20" transform="translate(607.556641 0)"/>
      <use xlink:href="#DejaVuSans-52" transform="translate(639.34375 0)"/>
      <use xlink:href="#DejaVuSans-4d" transform="translate(708.826172 0)"/>
      <use xlink:href="#DejaVuSans-53" transform="translate(795.105469 0)"/>
      <use xlink:href="#DejaVuSans-45" transform="translate(858.582031 0)"/>
      <use xlink:href="#DejaVuSans-20" transform="translate(921.765625 0)"/>
      <use xlink:href="#DejaVuSans-28" transform="translate(953.552734 0)"/>
      <use xlink:href="#DejaVuSans-31" transform="translate(992.566406 0)"/>
      <use xlink:href="#DejaVuSans-32" transform="translate(1056.189453 0)"/>
      <use xlink:href="#DejaVuSans-68" transform="translate(1119.8125 0)"/>
      <use xlink:href="#DejaVuSans-20" transform="translate(1183.191406 0)"/>
      <use xlink:href="#DejaVuSans-46" transform="translate(1214.978516 0)"/>
      <use xlink:href="#DejaVuSans-6f" transform="translate(1268.873047 0)"/>
      <use xlink:href="#DejaVuSans-72" transform="translate(1330.054688 0)"/>
      <use xlink:href="#DejaVuSans-65" transform="translate(1368.917969 0)"/>
      <use xlink:href="#DejaVuSans-63" transform="translate(1430.441406 0)"/>
      <use xlink:href="#DejaVuSans-61" transform="translate(1485.421875 0)"/>
      <use xlink:href="#DejaVuSans-73" transform="translate(1546.701172 0)"/>
      <use xlink:href="#DejaVuSans-74" transform="translate(1598.800781 0)"/>
      <use xlink:href="#DejaVuSans-29" transform="translate(1638.009766 0)"/>
     </g>
    </g>
   </g>
  </g>
 </g>
 <defs>
  <clipPath id="pc173a6d18d">
   <rect x="66.400118" y="40.877187" width="669.6" height="443.52"/>
  </clipPath>
 </defs>
</svg>
