<?xml version="1.0" encoding="utf-8" standalone="no"?>
<!DOCTYPE svg PUBLIC "-//W3C//DTD SVG 1.1//EN"
  "http://www.w3.org/Graphics/SVG/1.1/DTD/svg11.dtd">
<svg xmlns:xlink="http://www.w3.org/1999/xlink" width="1068.862305pt" height="575.421502pt" viewBox="0 0 1068.862305 575.421502" xmlns="http://www.w3.org/2000/svg" version="1.1">
 <metadata>
  <rdf:RDF xmlns:dc="http://purl.org/dc/elements/1.1/" xmlns:cc="http://creativecommons.org/ns#" xmlns:rdf="http://www.w3.org/1999/02/22-rdf-syntax-ns#">
   <cc:Work>
    <dc:type rdf:resource="http://purl.org/dc/dcmitype/StillImage"/>
    <dc:date>2025-02-27T23:47:10.144765</dc:date>
    <dc:format>image/svg+xml</dc:format>
    <dc:creator>
     <cc:Agent>
      <dc:title>Matplotlib v3.10.0, https://matplotlib.org/</dc:title>
     </cc:Agent>
    </dc:creator>
   </cc:Work>
  </rdf:RDF>
 </metadata>
 <defs>
  <style type="text/css">*{stroke-linejoin: round; stroke-linecap: butt}</style>
 </defs>
 <g id="figure_1">
  <g id="patch_1">
   <path d="M 0 575.421502 
L 1068.862305 575.421502 
L 1068.862305 0 
L 0 0 
z
" style="fill: #ffffff"/>
  </g>
  <g id="axes_1">
   <g id="patch_2">
    <path d="M 66.400118 484.397187 
L 736.000118 484.397187 
L 736.000118 40.877187 
L 66.400118 40.877187 
z
" style="fill: #ffffff"/>
   </g>
   <g id="matplotlib.axis_1">
    <g id="xtick_1">
     <g id="line2d_1">
      <defs>
       <path id="m2d5897bd31" d="M 0 0 
L 0 3.5 
" style="stroke: #000000; stroke-width: 0.8"/>
      </defs>
      <g>
       <use xlink:href="#m2d5897bd31" x="96.836481" y="484.397187" style="stroke: #000000; stroke-width: 0.8"/>
      </g>
     </g>
     <g id="text_1">
      <!-- 2022-12-01 (18:00) -->
      <g transform="translate(10.999219 546.93544) rotate(-30) scale(0.1 -0.1)">
       <defs>
        <path id="DejaVuSans-32" d="M 1228 531 
L 3431 531 
L 3431 0 
L 469 0 
L 469 531 
Q 828 903 1448 1529 
Q 2069 2156 2228 2338 
Q 2531 2678 2651 2914 
Q 2772 3150 2772 3378 
Q 2772 3750 2511 3984 
Q 2250 4219 1831 4219 
Q 1534 4219 1204 4116 
Q 875 4013 500 3803 
L 500 4441 
Q 881 4594 1212 4672 
Q 1544 4750 1819 4750 
Q 2544 4750 2975 4387 
Q 3406 4025 3406 3419 
Q 3406 3131 3298 2873 
Q 3191 2616 2906 2266 
Q 2828 2175 2409 1742 
Q 1991 1309 1228 531 
z
" transform="scale(0.015625)"/>
        <path id="DejaVuSans-30" d="M 2034 4250 
Q 1547 4250 1301 3770 
Q 1056 3291 1056 2328 
Q 1056 1369 1301 889 
Q 1547 409 2034 409 
Q 2525 409 2770 889 
Q 3016 1369 3016 2328 
Q 3016 3291 2770 3770 
Q 2525 4250 2034 4250 
z
M 2034 4750 
Q 2819 4750 3233 4129 
Q 3647 3509 3647 2328 
Q 3647 1150 3233 529 
Q 2819 -91 2034 -91 
Q 1250 -91 836 529 
Q 422 1150 422 2328 
Q 422 3509 836 4129 
Q 1250 4750 2034 4750 
z
" transform="scale(0.015625)"/>
        <path id="DejaVuSans-2d" d="M 313 2009 
L 1997 2009 
L 1997 1497 
L 313 1497 
L 313 2009 
z
" transform="scale(0.015625)"/>
        <path id="DejaVuSans-31" d="M 794 531 
L 1825 531 
L 1825 4091 
L 703 3866 
L 703 4441 
L 1819 4666 
L 2450 4666 
L 2450 531 
L 3481 531 
L 3481 0 
L 794 0 
L 794 531 
z
" transform="scale(0.015625)"/>
        <path id="DejaVuSans-20" transform="scale(0.015625)"/>
        <path id="DejaVuSans-28" d="M 1984 4856 
Q 1566 4138 1362 3434 
Q 1159 2731 1159 2009 
Q 1159 1288 1364 580 
Q 1569 -128 1984 -844 
L 1484 -844 
Q 1016 -109 783 600 
Q 550 1309 550 2009 
Q 550 2706 781 3412 
Q 1013 4119 1484 4856 
L 1984 4856 
z
" transform="scale(0.015625)"/>
        <path id="DejaVuSans-38" d="M 2034 2216 
Q 1584 2216 1326 1975 
Q 1069 1734 1069 1313 
Q 1069 891 1326 650 
Q 1584 409 2034 409 
Q 2484 409 2743 651 
Q 3003 894 3003 1313 
Q 3003 1734 2745 1975 
Q 2488 2216 2034 2216 
z
M 1403 2484 
Q 997 2584 770 2862 
Q 544 3141 544 3541 
Q 544 4100 942 4425 
Q 1341 4750 2034 4750 
Q 2731 4750 3128 4425 
Q 3525 4100 3525 3541 
Q 3525 3141 3298 2862 
Q 3072 2584 2669 2484 
Q 3125 2378 3379 2068 
Q 3634 1759 3634 1313 
Q 3634 634 3220 271 
Q 2806 -91 2034 -91 
Q 1263 -91 848 271 
Q 434 634 434 1313 
Q 434 1759 690 2068 
Q 947 2378 1403 2484 
z
M 1172 3481 
Q 1172 3119 1398 2916 
Q 1625 2713 2034 2713 
Q 2441 2713 2670 2916 
Q 2900 3119 2900 3481 
Q 2900 3844 2670 4047 
Q 2441 4250 2034 4250 
Q 1625 4250 1398 4047 
Q 1172 3844 1172 3481 
z
" transform="scale(0.015625)"/>
        <path id="DejaVuSans-3a" d="M 750 794 
L 1409 794 
L 1409 0 
L 750 0 
L 750 794 
z
M 750 3309 
L 1409 3309 
L 1409 2516 
L 750 2516 
L 750 3309 
z
" transform="scale(0.015625)"/>
        <path id="DejaVuSans-29" d="M 513 4856 
L 1013 4856 
Q 1481 4119 1714 3412 
Q 1947 2706 1947 2009 
Q 1947 1309 1714 600 
Q 1481 -109 1013 -844 
L 513 -844 
Q 928 -128 1133 580 
Q 1338 1288 1338 2009 
Q 1338 2731 1133 3434 
Q 928 4138 513 4856 
z
" transform="scale(0.015625)"/>
       </defs>
       <use xlink:href="#DejaVuSans-32"/>
       <use xlink:href="#DejaVuSans-30" transform="translate(63.623047 0)"/>
       <use xlink:href="#DejaVuSans-32" transform="translate(127.246094 0)"/>
       <use xlink:href="#DejaVuSans-32" transform="translate(190.869141 0)"/>
       <use xlink:href="#DejaVuSans-2d" transform="translate(254.492188 0)"/>
       <use xlink:href="#DejaVuSans-31" transform="translate(290.576172 0)"/>
       <use xlink:href="#DejaVuSans-32" transform="translate(354.199219 0)"/>
       <use xlink:href="#DejaVuSans-2d" transform="translate(417.822266 0)"/>
       <use xlink:href="#DejaVuSans-30" transform="translate(453.90625 0)"/>
       <use xlink:href="#DejaVuSans-31" transform="translate(517.529297 0)"/>
       <use xlink:href="#DejaVuSans-20" transform="translate(581.152344 0)"/>
       <use xlink:href="#DejaVuSans-28" transform="translate(612.939453 0)"/>
       <use xlink:href="#DejaVuSans-31" transform="translate(651.953125 0)"/>
       <use xlink:href="#DejaVuSans-38" transform="translate(715.576172 0)"/>
       <use xlink:href="#DejaVuSans-3a" transform="translate(779.199219 0)"/>
       <use xlink:href="#DejaVuSans-30" transform="translate(812.890625 0)"/>
       <use xlink:href="#DejaVuSans-30" transform="translate(876.513672 0)"/>
       <use xlink:href="#DejaVuSans-29" transform="translate(940.136719 0)"/>
      </g>
     </g>
    </g>
    <g id="xtick_2">
     <g id="line2d_2">
      <g>
       <use xlink:href="#m2d5897bd31" x="218.581936" y="484.397187" style="stroke: #000000; stroke-width: 0.8"/>
      </g>
     </g>
     <g id="text_2">
      <!-- 2022-12-09 (18:00) -->
      <g transform="translate(132.744673 546.93544) rotate(-30) scale(0.1 -0.1)">
       <defs>
        <path id="DejaVuSans-39" d="M 703 97 
L 703 672 
Q 941 559 1184 500 
Q 1428 441 1663 441 
Q 2288 441 2617 861 
Q 2947 1281 2994 2138 
Q 2813 1869 2534 1725 
Q 2256 1581 1919 1581 
Q 1219 1581 811 2004 
Q 403 2428 403 3163 
Q 403 3881 828 4315 
Q 1253 4750 1959 4750 
Q 2769 4750 3195 4129 
Q 3622 3509 3622 2328 
Q 3622 1225 3098 567 
Q 2575 -91 1691 -91 
Q 1453 -91 1209 -44 
Q 966 3 703 97 
z
M 1959 2075 
Q 2384 2075 2632 2365 
Q 2881 2656 2881 3163 
Q 2881 3666 2632 3958 
Q 2384 4250 1959 4250 
Q 1534 4250 1286 3958 
Q 1038 3666 1038 3163 
Q 1038 2656 1286 2365 
Q 1534 2075 1959 2075 
z
" transform="scale(0.015625)"/>
       </defs>
       <use xlink:href="#DejaVuSans-32"/>
       <use xlink:href="#DejaVuSans-30" transform="translate(63.623047 0)"/>
       <use xlink:href="#DejaVuSans-32" transform="translate(127.246094 0)"/>
       <use xlink:href="#DejaVuSans-32" transform="translate(190.869141 0)"/>
       <use xlink:href="#DejaVuSans-2d" transform="translate(254.492188 0)"/>
       <use xlink:href="#DejaVuSans-31" transform="translate(290.576172 0)"/>
       <use xlink:href="#DejaVuSans-32" transform="translate(354.199219 0)"/>
       <use xlink:href="#DejaVuSans-2d" transform="translate(417.822266 0)"/>
       <use xlink:href="#DejaVuSans-30" transform="translate(453.90625 0)"/>
       <use xlink:href="#DejaVuSans-39" transform="translate(517.529297 0)"/>
       <use xlink:href="#DejaVuSans-20" transform="translate(581.152344 0)"/>
       <use xlink:href="#DejaVuSans-28" transform="translate(612.939453 0)"/>
       <use xlink:href="#DejaVuSans-31" transform="translate(651.953125 0)"/>
       <use xlink:href="#DejaVuSans-38" transform="translate(715.576172 0)"/>
       <use xlink:href="#DejaVuSans-3a" transform="translate(779.199219 0)"/>
       <use xlink:href="#DejaVuSans-30" transform="translate(812.890625 0)"/>
       <use xlink:href="#DejaVuSans-30" transform="translate(876.513672 0)"/>
       <use xlink:href="#DejaVuSans-29" transform="translate(940.136719 0)"/>
      </g>
     </g>
    </g>
    <g id="xtick_3">
     <g id="line2d_3">
      <g>
       <use xlink:href="#m2d5897bd31" x="340.32739" y="484.397187" style="stroke: #000000; stroke-width: 0.8"/>
      </g>
     </g>
     <g id="text_3">
      <!-- 2022-12-17 (18:00) -->
      <g transform="translate(254.490128 546.93544) rotate(-30) scale(0.1 -0.1)">
       <defs>
        <path id="DejaVuSans-37" d="M 525 4666 
L 3525 4666 
L 3525 4397 
L 1831 0 
L 1172 0 
L 2766 4134 
L 525 4134 
L 525 4666 
z
" transform="scale(0.015625)"/>
       </defs>
       <use xlink:href="#DejaVuSans-32"/>
       <use xlink:href="#DejaVuSans-30" transform="translate(63.623047 0)"/>
       <use xlink:href="#DejaVuSans-32" transform="translate(127.246094 0)"/>
       <use xlink:href="#DejaVuSans-32" transform="translate(190.869141 0)"/>
       <use xlink:href="#DejaVuSans-2d" transform="translate(254.492188 0)"/>
       <use xlink:href="#DejaVuSans-31" transform="translate(290.576172 0)"/>
       <use xlink:href="#DejaVuSans-32" transform="translate(354.199219 0)"/>
       <use xlink:href="#DejaVuSans-2d" transform="translate(417.822266 0)"/>
       <use xlink:href="#DejaVuSans-31" transform="translate(453.90625 0)"/>
       <use xlink:href="#DejaVuSans-37" transform="translate(517.529297 0)"/>
       <use xlink:href="#DejaVuSans-20" transform="translate(581.152344 0)"/>
       <use xlink:href="#DejaVuSans-28" transform="translate(612.939453 0)"/>
       <use xlink:href="#DejaVuSans-31" transform="translate(651.953125 0)"/>
       <use xlink:href="#DejaVuSans-38" transform="translate(715.576172 0)"/>
       <use xlink:href="#DejaVuSans-3a" transform="translate(779.199219 0)"/>
       <use xlink:href="#DejaVuSans-30" transform="translate(812.890625 0)"/>
       <use xlink:href="#DejaVuSans-30" transform="translate(876.513672 0)"/>
       <use xlink:href="#DejaVuSans-29" transform="translate(940.136719 0)"/>
      </g>
     </g>
    </g>
    <g id="xtick_4">
     <g id="line2d_4">
      <g>
       <use xlink:href="#m2d5897bd31" x="462.072845" y="484.397187" style="stroke: #000000; stroke-width: 0.8"/>
      </g>
     </g>
     <g id="text_4">
      <!-- 2022-12-25 (18:00) -->
      <g transform="translate(376.235582 546.93544) rotate(-30) scale(0.1 -0.1)">
       <defs>
        <path id="DejaVuSans-35" d="M 691 4666 
L 3169 4666 
L 3169 4134 
L 1269 4134 
L 1269 2991 
Q 1406 3038 1543 3061 
Q 1681 3084 1819 3084 
Q 2600 3084 3056 2656 
Q 3513 2228 3513 1497 
Q 3513 744 3044 326 
Q 2575 -91 1722 -91 
Q 1428 -91 1123 -41 
Q 819 9 494 109 
L 494 744 
Q 775 591 1075 516 
Q 1375 441 1709 441 
Q 2250 441 2565 725 
Q 2881 1009 2881 1497 
Q 2881 1984 2565 2268 
Q 2250 2553 1709 2553 
Q 1456 2553 1204 2497 
Q 953 2441 691 2322 
L 691 4666 
z
" transform="scale(0.015625)"/>
       </defs>
       <use xlink:href="#DejaVuSans-32"/>
       <use xlink:href="#DejaVuSans-30" transform="translate(63.623047 0)"/>
       <use xlink:href="#DejaVuSans-32" transform="translate(127.246094 0)"/>
       <use xlink:href="#DejaVuSans-32" transform="translate(190.869141 0)"/>
       <use xlink:href="#DejaVuSans-2d" transform="translate(254.492188 0)"/>
       <use xlink:href="#DejaVuSans-31" transform="translate(290.576172 0)"/>
       <use xlink:href="#DejaVuSans-32" transform="translate(354.199219 0)"/>
       <use xlink:href="#DejaVuSans-2d" transform="translate(417.822266 0)"/>
       <use xlink:href="#DejaVuSans-32" transform="translate(453.90625 0)"/>
       <use xlink:href="#DejaVuSans-35" transform="translate(517.529297 0)"/>
       <use xlink:href="#DejaVuSans-20" transform="translate(581.152344 0)"/>
       <use xlink:href="#DejaVuSans-28" transform="translate(612.939453 0)"/>
       <use xlink:href="#DejaVuSans-31" transform="translate(651.953125 0)"/>
       <use xlink:href="#DejaVuSans-38" transform="translate(715.576172 0)"/>
       <use xlink:href="#DejaVuSans-3a" transform="translate(779.199219 0)"/>
       <use xlink:href="#DejaVuSans-30" transform="translate(812.890625 0)"/>
       <use xlink:href="#DejaVuSans-30" transform="translate(876.513672 0)"/>
       <use xlink:href="#DejaVuSans-29" transform="translate(940.136719 0)"/>
      </g>
     </g>
    </g>
    <g id="xtick_5">
     <g id="line2d_5">
      <g>
       <use xlink:href="#m2d5897bd31" x="583.818299" y="484.397187" style="stroke: #000000; stroke-width: 0.8"/>
      </g>
     </g>
     <g id="text_5">
      <!-- 2023-01-02 (18:00) -->
      <g transform="translate(497.981037 546.93544) rotate(-30) scale(0.1 -0.1)">
       <defs>
        <path id="DejaVuSans-33" d="M 2597 2516 
Q 3050 2419 3304 2112 
Q 3559 1806 3559 1356 
Q 3559 666 3084 287 
Q 2609 -91 1734 -91 
Q 1441 -91 1130 -33 
Q 819 25 488 141 
L 488 750 
Q 750 597 1062 519 
Q 1375 441 1716 441 
Q 2309 441 2620 675 
Q 2931 909 2931 1356 
Q 2931 1769 2642 2001 
Q 2353 2234 1838 2234 
L 1294 2234 
L 1294 2753 
L 1863 2753 
Q 2328 2753 2575 2939 
Q 2822 3125 2822 3475 
Q 2822 3834 2567 4026 
Q 2313 4219 1838 4219 
Q 1578 4219 1281 4162 
Q 984 4106 628 3988 
L 628 4550 
Q 988 4650 1302 4700 
Q 1616 4750 1894 4750 
Q 2613 4750 3031 4423 
Q 3450 4097 3450 3541 
Q 3450 3153 3228 2886 
Q 3006 2619 2597 2516 
z
" transform="scale(0.015625)"/>
       </defs>
       <use xlink:href="#DejaVuSans-32"/>
       <use xlink:href="#DejaVuSans-30" transform="translate(63.623047 0)"/>
       <use xlink:href="#DejaVuSans-32" transform="translate(127.246094 0)"/>
       <use xlink:href="#DejaVuSans-33" transform="translate(190.869141 0)"/>
       <use xlink:href="#DejaVuSans-2d" transform="translate(254.492188 0)"/>
       <use xlink:href="#DejaVuSans-30" transform="translate(290.576172 0)"/>
       <use xlink:href="#DejaVuSans-31" transform="translate(354.199219 0)"/>
       <use xlink:href="#DejaVuSans-2d" transform="translate(417.822266 0)"/>
       <use xlink:href="#DejaVuSans-30" transform="translate(453.90625 0)"/>
       <use xlink:href="#DejaVuSans-32" transform="translate(517.529297 0)"/>
       <use xlink:href="#DejaVuSans-20" transform="translate(581.152344 0)"/>
       <use xlink:href="#DejaVuSans-28" transform="translate(612.939453 0)"/>
       <use xlink:href="#DejaVuSans-31" transform="translate(651.953125 0)"/>
       <use xlink:href="#DejaVuSans-38" transform="translate(715.576172 0)"/>
       <use xlink:href="#DejaVuSans-3a" transform="translate(779.199219 0)"/>
       <use xlink:href="#DejaVuSans-30" transform="translate(812.890625 0)"/>
       <use xlink:href="#DejaVuSans-30" transform="translate(876.513672 0)"/>
       <use xlink:href="#DejaVuSans-29" transform="translate(940.136719 0)"/>
      </g>
     </g>
    </g>
    <g id="xtick_6">
     <g id="line2d_6">
      <g>
       <use xlink:href="#m2d5897bd31" x="705.563754" y="484.397187" style="stroke: #000000; stroke-width: 0.8"/>
      </g>
     </g>
     <g id="text_6">
      <!-- 2023-01-10 (18:00) -->
      <g transform="translate(619.726491 546.93544) rotate(-30) scale(0.1 -0.1)">
       <use xlink:href="#DejaVuSans-32"/>
       <use xlink:href="#DejaVuSans-30" transform="translate(63.623047 0)"/>
       <use xlink:href="#DejaVuSans-32" transform="translate(127.246094 0)"/>
       <use xlink:href="#DejaVuSans-33" transform="translate(190.869141 0)"/>
       <use xlink:href="#DejaVuSans-2d" transform="translate(254.492188 0)"/>
       <use xlink:href="#DejaVuSans-30" transform="translate(290.576172 0)"/>
       <use xlink:href="#DejaVuSans-31" transform="translate(354.199219 0)"/>
       <use xlink:href="#DejaVuSans-2d" transform="translate(417.822266 0)"/>
       <use xlink:href="#DejaVuSans-31" transform="translate(453.90625 0)"/>
       <use xlink:href="#DejaVuSans-30" transform="translate(517.529297 0)"/>
       <use xlink:href="#DejaVuSans-20" transform="translate(581.152344 0)"/>
       <use xlink:href="#DejaVuSans-28" transform="translate(612.939453 0)"/>
       <use xlink:href="#DejaVuSans-31" transform="translate(651.953125 0)"/>
       <use xlink:href="#DejaVuSans-38" transform="translate(715.576172 0)"/>
       <use xlink:href="#DejaVuSans-3a" transform="translate(779.199219 0)"/>
       <use xlink:href="#DejaVuSans-30" transform="translate(812.890625 0)"/>
       <use xlink:href="#DejaVuSans-30" transform="translate(876.513672 0)"/>
       <use xlink:href="#DejaVuSans-29" transform="translate(940.136719 0)"/>
      </g>
     </g>
    </g>
    <g id="text_7">
     <!-- Forecast Date -->
     <g transform="translate(345.693868 564.894002) scale(0.16 -0.16)">
      <defs>
       <path id="DejaVuSans-46" d="M 628 4666 
L 3309 4666 
L 3309 4134 
L 1259 4134 
L 1259 2759 
L 3109 2759 
L 3109 2228 
L 1259 2228 
L 1259 0 
L 628 0 
L 628 4666 
z
" transform="scale(0.015625)"/>
       <path id="DejaVuSans-6f" d="M 1959 3097 
Q 1497 3097 1228 2736 
Q 959 2375 959 1747 
Q 959 1119 1226 758 
Q 1494 397 1959 397 
Q 2419 397 2687 759 
Q 2956 1122 2956 1747 
Q 2956 2369 2687 2733 
Q 2419 3097 1959 3097 
z
M 1959 3584 
Q 2709 3584 3137 3096 
Q 3566 2609 3566 1747 
Q 3566 888 3137 398 
Q 2709 -91 1959 -91 
Q 1206 -91 779 398 
Q 353 888 353 1747 
Q 353 2609 779 3096 
Q 1206 3584 1959 3584 
z
" transform="scale(0.015625)"/>
       <path id="DejaVuSans-72" d="M 2631 2963 
Q 2534 3019 2420 3045 
Q 2306 3072 2169 3072 
Q 1681 3072 1420 2755 
Q 1159 2438 1159 1844 
L 1159 0 
L 581 0 
L 581 3500 
L 1159 3500 
L 1159 2956 
Q 1341 3275 1631 3429 
Q 1922 3584 2338 3584 
Q 2397 3584 2469 3576 
Q 2541 3569 2628 3553 
L 2631 2963 
z
" transform="scale(0.015625)"/>
       <path id="DejaVuSans-65" d="M 3597 1894 
L 3597 1613 
L 953 1613 
Q 991 1019 1311 708 
Q 1631 397 2203 397 
Q 2534 397 2845 478 
Q 3156 559 3463 722 
L 3463 178 
Q 3153 47 2828 -22 
Q 2503 -91 2169 -91 
Q 1331 -91 842 396 
Q 353 884 353 1716 
Q 353 2575 817 3079 
Q 1281 3584 2069 3584 
Q 2775 3584 3186 3129 
Q 3597 2675 3597 1894 
z
M 3022 2063 
Q 3016 2534 2758 2815 
Q 2500 3097 2075 3097 
Q 1594 3097 1305 2825 
Q 1016 2553 972 2059 
L 3022 2063 
z
" transform="scale(0.015625)"/>
       <path id="DejaVuSans-63" d="M 3122 3366 
L 3122 2828 
Q 2878 2963 2633 3030 
Q 2388 3097 2138 3097 
Q 1578 3097 1268 2742 
Q 959 2388 959 1747 
Q 959 1106 1268 751 
Q 1578 397 2138 397 
Q 2388 397 2633 464 
Q 2878 531 3122 666 
L 3122 134 
Q 2881 22 2623 -34 
Q 2366 -91 2075 -91 
Q 1284 -91 818 406 
Q 353 903 353 1747 
Q 353 2603 823 3093 
Q 1294 3584 2113 3584 
Q 2378 3584 2631 3529 
Q 2884 3475 3122 3366 
z
" transform="scale(0.015625)"/>
       <path id="DejaVuSans-61" d="M 2194 1759 
Q 1497 1759 1228 1600 
Q 959 1441 959 1056 
Q 959 750 1161 570 
Q 1363 391 1709 391 
Q 2188 391 2477 730 
Q 2766 1069 2766 1631 
L 2766 1759 
L 2194 1759 
z
M 3341 1997 
L 3341 0 
L 2766 0 
L 2766 531 
Q 2569 213 2275 61 
Q 1981 -91 1556 -91 
Q 1019 -91 701 211 
Q 384 513 384 1019 
Q 384 1609 779 1909 
Q 1175 2209 1959 2209 
L 2766 2209 
L 2766 2266 
Q 2766 2663 2505 2880 
Q 2244 3097 1772 3097 
Q 1472 3097 1187 3025 
Q 903 2953 641 2809 
L 641 3341 
Q 956 3463 1253 3523 
Q 1550 3584 1831 3584 
Q 2591 3584 2966 3190 
Q 3341 2797 3341 1997 
z
" transform="scale(0.015625)"/>
       <path id="DejaVuSans-73" d="M 2834 3397 
L 2834 2853 
Q 2591 2978 2328 3040 
Q 2066 3103 1784 3103 
Q 1356 3103 1142 2972 
Q 928 2841 928 2578 
Q 928 2378 1081 2264 
Q 1234 2150 1697 2047 
L 1894 2003 
Q 2506 1872 2764 1633 
Q 3022 1394 3022 966 
Q 3022 478 2636 193 
Q 2250 -91 1575 -91 
Q 1294 -91 989 -36 
Q 684 19 347 128 
L 347 722 
Q 666 556 975 473 
Q 1284 391 1588 391 
Q 1994 391 2212 530 
Q 2431 669 2431 922 
Q 2431 1156 2273 1281 
Q 2116 1406 1581 1522 
L 1381 1569 
Q 847 1681 609 1914 
Q 372 2147 372 2553 
Q 372 3047 722 3315 
Q 1072 3584 1716 3584 
Q 2034 3584 2315 3537 
Q 2597 3491 2834 3397 
z
" transform="scale(0.015625)"/>
       <path id="DejaVuSans-74" d="M 1172 4494 
L 1172 3500 
L 2356 3500 
L 2356 3053 
L 1172 3053 
L 1172 1153 
Q 1172 725 1289 603 
Q 1406 481 1766 481 
L 2356 481 
L 2356 0 
L 1766 0 
Q 1100 0 847 248 
Q 594 497 594 1153 
L 594 3053 
L 172 3053 
L 172 3500 
L 594 3500 
L 594 4494 
L 1172 4494 
z
" transform="scale(0.015625)"/>
       <path id="DejaVuSans-44" d="M 1259 4147 
L 1259 519 
L 2022 519 
Q 2988 519 3436 956 
Q 3884 1394 3884 2338 
Q 3884 3275 3436 3711 
Q 2988 4147 2022 4147 
L 1259 4147 
z
M 628 4666 
L 1925 4666 
Q 3281 4666 3915 4102 
Q 4550 3538 4550 2338 
Q 4550 1131 3912 565 
Q 3275 0 1925 0 
L 628 0 
L 628 4666 
z
" transform="scale(0.015625)"/>
      </defs>
      <use xlink:href="#DejaVuSans-46"/>
      <use xlink:href="#DejaVuSans-6f" transform="translate(53.894531 0)"/>
      <use xlink:href="#DejaVuSans-72" transform="translate(115.076172 0)"/>
      <use xlink:href="#DejaVuSans-65" transform="translate(153.939453 0)"/>
      <use xlink:href="#DejaVuSans-63" transform="translate(215.462891 0)"/>
      <use xlink:href="#DejaVuSans-61" transform="translate(270.443359 0)"/>
      <use xlink:href="#DejaVuSans-73" transform="translate(331.722656 0)"/>
      <use xlink:href="#DejaVuSans-74" transform="translate(383.822266 0)"/>
      <use xlink:href="#DejaVuSans-20" transform="translate(423.03125 0)"/>
      <use xlink:href="#DejaVuSans-44" transform="translate(454.818359 0)"/>
      <use xlink:href="#DejaVuSans-61" transform="translate(531.820312 0)"/>
      <use xlink:href="#DejaVuSans-74" transform="translate(593.099609 0)"/>
      <use xlink:href="#DejaVuSans-65" transform="translate(632.308594 0)"/>
     </g>
    </g>
   </g>
   <g id="matplotlib.axis_2">
    <g id="ytick_1">
     <g id="line2d_7">
      <defs>
       <path id="m6d0892ee78" d="M 0 0 
L -3.5 0 
" style="stroke: #000000; stroke-width: 0.8"/>
      </defs>
      <g>
       <use xlink:href="#m6d0892ee78" x="66.400118" y="459.200011" style="stroke: #000000; stroke-width: 0.8"/>
      </g>
     </g>
     <g id="text_8">
      <!-- 1 -->
      <g transform="translate(53.037618 462.99923) scale(0.1 -0.1)">
       <use xlink:href="#DejaVuSans-31"/>
      </g>
     </g>
    </g>
    <g id="ytick_2">
     <g id="line2d_8">
      <g>
       <use xlink:href="#m6d0892ee78" x="66.400118" y="409.792051" style="stroke: #000000; stroke-width: 0.8"/>
      </g>
     </g>
     <g id="text_9">
      <!-- 2 -->
      <g transform="translate(53.037618 413.59127) scale(0.1 -0.1)">
       <use xlink:href="#DejaVuSans-32"/>
      </g>
     </g>
    </g>
    <g id="ytick_3">
     <g id="line2d_9">
      <g>
       <use xlink:href="#m6d0892ee78" x="66.400118" y="360.384091" style="stroke: #000000; stroke-width: 0.8"/>
      </g>
     </g>
     <g id="text_10">
      <!-- 3 -->
      <g transform="translate(53.037618 364.18331) scale(0.1 -0.1)">
       <use xlink:href="#DejaVuSans-33"/>
      </g>
     </g>
    </g>
    <g id="ytick_4">
     <g id="line2d_10">
      <g>
       <use xlink:href="#m6d0892ee78" x="66.400118" y="310.976131" style="stroke: #000000; stroke-width: 0.8"/>
      </g>
     </g>
     <g id="text_11">
      <!-- 4 -->
      <g transform="translate(53.037618 314.77535) scale(0.1 -0.1)">
       <defs>
        <path id="DejaVuSans-34" d="M 2419 4116 
L 825 1625 
L 2419 1625 
L 2419 4116 
z
M 2253 4666 
L 3047 4666 
L 3047 1625 
L 3713 1625 
L 3713 1100 
L 3047 1100 
L 3047 0 
L 2419 0 
L 2419 1100 
L 313 1100 
L 313 1709 
L 2253 4666 
z
" transform="scale(0.015625)"/>
       </defs>
       <use xlink:href="#DejaVuSans-34"/>
      </g>
     </g>
    </g>
    <g id="ytick_5">
     <g id="line2d_11">
      <g>
       <use xlink:href="#m6d0892ee78" x="66.400118" y="261.568171" style="stroke: #000000; stroke-width: 0.8"/>
      </g>
     </g>
     <g id="text_12">
      <!-- 5 -->
      <g transform="translate(53.037618 265.36739) scale(0.1 -0.1)">
       <use xlink:href="#DejaVuSans-35"/>
      </g>
     </g>
    </g>
    <g id="ytick_6">
     <g id="line2d_12">
      <g>
       <use xlink:href="#m6d0892ee78" x="66.400118" y="212.160211" style="stroke: #000000; stroke-width: 0.8"/>
      </g>
     </g>
     <g id="text_13">
      <!-- 6 -->
      <g transform="translate(53.037618 215.95943) scale(0.1 -0.1)">
       <defs>
        <path id="DejaVuSans-36" d="M 2113 2584 
Q 1688 2584 1439 2293 
Q 1191 2003 1191 1497 
Q 1191 994 1439 701 
Q 1688 409 2113 409 
Q 2538 409 2786 701 
Q 3034 994 3034 1497 
Q 3034 2003 2786 2293 
Q 2538 2584 2113 2584 
z
M 3366 4563 
L 3366 3988 
Q 3128 4100 2886 4159 
Q 2644 4219 2406 4219 
Q 1781 4219 1451 3797 
Q 1122 3375 1075 2522 
Q 1259 2794 1537 2939 
Q 1816 3084 2150 3084 
Q 2853 3084 3261 2657 
Q 3669 2231 3669 1497 
Q 3669 778 3244 343 
Q 2819 -91 2113 -91 
Q 1303 -91 875 529 
Q 447 1150 447 2328 
Q 447 3434 972 4092 
Q 1497 4750 2381 4750 
Q 2619 4750 2861 4703 
Q 3103 4656 3366 4563 
z
" transform="scale(0.015625)"/>
       </defs>
       <use xlink:href="#DejaVuSans-36"/>
      </g>
     </g>
    </g>
    <g id="ytick_7">
     <g id="line2d_13">
      <g>
       <use xlink:href="#m6d0892ee78" x="66.400118" y="162.752252" style="stroke: #000000; stroke-width: 0.8"/>
      </g>
     </g>
     <g id="text_14">
      <!-- 7 -->
      <g transform="translate(53.037618 166.55147) scale(0.1 -0.1)">
       <use xlink:href="#DejaVuSans-37"/>
      </g>
     </g>
    </g>
    <g id="ytick_8">
     <g id="line2d_14">
      <g>
       <use xlink:href="#m6d0892ee78" x="66.400118" y="113.344292" style="stroke: #000000; stroke-width: 0.8"/>
      </g>
     </g>
     <g id="text_15">
      <!-- 8 -->
      <g transform="translate(53.037618 117.14351) scale(0.1 -0.1)">
       <use xlink:href="#DejaVuSans-38"/>
      </g>
     </g>
    </g>
    <g id="ytick_9">
     <g id="line2d_15">
      <g>
       <use xlink:href="#m6d0892ee78" x="66.400118" y="63.936332" style="stroke: #000000; stroke-width: 0.8"/>
      </g>
     </g>
     <g id="text_16">
      <!-- 9 -->
      <g transform="translate(53.037618 67.73555) scale(0.1 -0.1)">
       <use xlink:href="#DejaVuSans-39"/>
      </g>
     </g>
    </g>
    <g id="text_17">
     <!-- Root Mean Squared Error (RMSE) -->
     <g transform="translate(45.710118 394.303437) rotate(-90) scale(0.16 -0.16)">
      <defs>
       <path id="DejaVuSans-52" d="M 2841 2188 
Q 3044 2119 3236 1894 
Q 3428 1669 3622 1275 
L 4263 0 
L 3584 0 
L 2988 1197 
Q 2756 1666 2539 1819 
Q 2322 1972 1947 1972 
L 1259 1972 
L 1259 0 
L 628 0 
L 628 4666 
L 2053 4666 
Q 2853 4666 3247 4331 
Q 3641 3997 3641 3322 
Q 3641 2881 3436 2590 
Q 3231 2300 2841 2188 
z
M 1259 4147 
L 1259 2491 
L 2053 2491 
Q 2509 2491 2742 2702 
Q 2975 2913 2975 3322 
Q 2975 3731 2742 3939 
Q 2509 4147 2053 4147 
L 1259 4147 
z
" transform="scale(0.015625)"/>
       <path id="DejaVuSans-4d" d="M 628 4666 
L 1569 4666 
L 2759 1491 
L 3956 4666 
L 4897 4666 
L 4897 0 
L 4281 0 
L 4281 4097 
L 3078 897 
L 2444 897 
L 1241 4097 
L 1241 0 
L 628 0 
L 628 4666 
z
" transform="scale(0.015625)"/>
       <path id="DejaVuSans-6e" d="M 3513 2113 
L 3513 0 
L 2938 0 
L 2938 2094 
Q 2938 2591 2744 2837 
Q 2550 3084 2163 3084 
Q 1697 3084 1428 2787 
Q 1159 2491 1159 1978 
L 1159 0 
L 581 0 
L 581 3500 
L 1159 3500 
L 1159 2956 
Q 1366 3272 1645 3428 
Q 1925 3584 2291 3584 
Q 2894 3584 3203 3211 
Q 3513 2838 3513 2113 
z
" transform="scale(0.015625)"/>
       <path id="DejaVuSans-53" d="M 3425 4513 
L 3425 3897 
Q 3066 4069 2747 4153 
Q 2428 4238 2131 4238 
Q 1616 4238 1336 4038 
Q 1056 3838 1056 3469 
Q 1056 3159 1242 3001 
Q 1428 2844 1947 2747 
L 2328 2669 
Q 3034 2534 3370 2195 
Q 3706 1856 3706 1288 
Q 3706 609 3251 259 
Q 2797 -91 1919 -91 
Q 1588 -91 1214 -16 
Q 841 59 441 206 
L 441 856 
Q 825 641 1194 531 
Q 1563 422 1919 422 
Q 2459 422 2753 634 
Q 3047 847 3047 1241 
Q 3047 1584 2836 1778 
Q 2625 1972 2144 2069 
L 1759 2144 
Q 1053 2284 737 2584 
Q 422 2884 422 3419 
Q 422 4038 858 4394 
Q 1294 4750 2059 4750 
Q 2388 4750 2728 4690 
Q 3069 4631 3425 4513 
z
" transform="scale(0.015625)"/>
       <path id="DejaVuSans-71" d="M 947 1747 
Q 947 1113 1208 752 
Q 1469 391 1925 391 
Q 2381 391 2643 752 
Q 2906 1113 2906 1747 
Q 2906 2381 2643 2742 
Q 2381 3103 1925 3103 
Q 1469 3103 1208 2742 
Q 947 2381 947 1747 
z
M 2906 525 
Q 2725 213 2448 61 
Q 2172 -91 1784 -91 
Q 1150 -91 751 415 
Q 353 922 353 1747 
Q 353 2572 751 3078 
Q 1150 3584 1784 3584 
Q 2172 3584 2448 3432 
Q 2725 3281 2906 2969 
L 2906 3500 
L 3481 3500 
L 3481 -1331 
L 2906 -1331 
L 2906 525 
z
" transform="scale(0.015625)"/>
       <path id="DejaVuSans-75" d="M 544 1381 
L 544 3500 
L 1119 3500 
L 1119 1403 
Q 1119 906 1312 657 
Q 1506 409 1894 409 
Q 2359 409 2629 706 
Q 2900 1003 2900 1516 
L 2900 3500 
L 3475 3500 
L 3475 0 
L 2900 0 
L 2900 538 
Q 2691 219 2414 64 
Q 2138 -91 1772 -91 
Q 1169 -91 856 284 
Q 544 659 544 1381 
z
M 1991 3584 
L 1991 3584 
z
" transform="scale(0.015625)"/>
       <path id="DejaVuSans-64" d="M 2906 2969 
L 2906 4863 
L 3481 4863 
L 3481 0 
L 2906 0 
L 2906 525 
Q 2725 213 2448 61 
Q 2172 -91 1784 -91 
Q 1150 -91 751 415 
Q 353 922 353 1747 
Q 353 2572 751 3078 
Q 1150 3584 1784 3584 
Q 2172 3584 2448 3432 
Q 2725 3281 2906 2969 
z
M 947 1747 
Q 947 1113 1208 752 
Q 1469 391 1925 391 
Q 2381 391 2643 752 
Q 2906 1113 2906 1747 
Q 2906 2381 2643 2742 
Q 2381 3103 1925 3103 
Q 1469 3103 1208 2742 
Q 947 2381 947 1747 
z
" transform="scale(0.015625)"/>
       <path id="DejaVuSans-45" d="M 628 4666 
L 3578 4666 
L 3578 4134 
L 1259 4134 
L 1259 2753 
L 3481 2753 
L 3481 2222 
L 1259 2222 
L 1259 531 
L 3634 531 
L 3634 0 
L 628 0 
L 628 4666 
z
" transform="scale(0.015625)"/>
      </defs>
      <use xlink:href="#DejaVuSans-52"/>
      <use xlink:href="#DejaVuSans-6f" transform="translate(64.982422 0)"/>
      <use xlink:href="#DejaVuSans-6f" transform="translate(126.164062 0)"/>
      <use xlink:href="#DejaVuSans-74" transform="translate(187.345703 0)"/>
      <use xlink:href="#DejaVuSans-20" transform="translate(226.554688 0)"/>
      <use xlink:href="#DejaVuSans-4d" transform="translate(258.341797 0)"/>
      <use xlink:href="#DejaVuSans-65" transform="translate(344.621094 0)"/>
      <use xlink:href="#DejaVuSans-61" transform="translate(406.144531 0)"/>
      <use xlink:href="#DejaVuSans-6e" transform="translate(467.423828 0)"/>
      <use xlink:href="#DejaVuSans-20" transform="translate(530.802734 0)"/>
      <use xlink:href="#DejaVuSans-53" transform="translate(562.589844 0)"/>
      <use xlink:href="#DejaVuSans-71" transform="translate(626.066406 0)"/>
      <use xlink:href="#DejaVuSans-75" transform="translate(689.542969 0)"/>
      <use xlink:href="#DejaVuSans-61" transform="translate(752.921875 0)"/>
      <use xlink:href="#DejaVuSans-72" transform="translate(814.201172 0)"/>
      <use xlink:href="#DejaVuSans-65" transform="translate(853.064453 0)"/>
      <use xlink:href="#DejaVuSans-64" transform="translate(914.587891 0)"/>
      <use xlink:href="#DejaVuSans-20" transform="translate(978.064453 0)"/>
      <use xlink:href="#DejaVuSans-45" transform="translate(1009.851562 0)"/>
      <use xlink:href="#DejaVuSans-72" transform="translate(1073.035156 0)"/>
      <use xlink:href="#DejaVuSans-72" transform="translate(1112.398438 0)"/>
      <use xlink:href="#DejaVuSans-6f" transform="translate(1151.261719 0)"/>
      <use xlink:href="#DejaVuSans-72" transform="translate(1212.443359 0)"/>
      <use xlink:href="#DejaVuSans-20" transform="translate(1253.556641 0)"/>
      <use xlink:href="#DejaVuSans-28" transform="translate(1285.34375 0)"/>
      <use xlink:href="#DejaVuSans-52" transform="translate(1324.357422 0)"/>
      <use xlink:href="#DejaVuSans-4d" transform="translate(1393.839844 0)"/>
      <use xlink:href="#DejaVuSans-53" transform="translate(1480.119141 0)"/>
      <use xlink:href="#DejaVuSans-45" transform="translate(1543.595703 0)"/>
      <use xlink:href="#DejaVuSans-29" transform="translate(1606.779297 0)"/>
     </g>
    </g>
   </g>
   <g id="line2d_16">
    <path d="M 96.836481 446.887984 
L 100.641027 462.054796 
L 104.445572 447.124198 
L 108.250118 462.477068 
L 112.054663 446.934773 
L 115.859208 463.189639 
L 119.663754 448.473795 
L 123.468299 464.04308 
L 127.272845 449.55658 
L 131.07739 463.312295 
L 134.881936 449.931978 
L 138.686481 463.108441 
L 142.491027 448.03256 
L 146.295572 462.284039 
L 150.100118 446.887519 
L 153.904663 462.528278 
L 157.709208 445.273254 
L 161.513754 461.467642 
L 165.318299 446.017865 
L 169.122845 462.497524 
L 172.92739 445.45968 
L 176.731936 462.06164 
L 180.536481 446.721082 
L 184.341027 462.050517 
L 188.145572 447.028941 
L 191.950118 461.67738 
L 195.754663 443.75358 
L 199.559208 461.012512 
L 203.363754 445.178156 
L 207.168299 461.510252 
L 210.972845 446.052515 
L 214.77739 462.155828 
L 218.581936 444.976609 
L 222.386481 461.53943 
L 226.191027 444.028679 
L 229.995572 460.591332 
L 233.800118 443.466283 
L 237.604663 459.920928 
L 241.409208 441.721987 
L 245.213754 459.661546 
L 249.018299 442.006015 
L 252.822845 459.797051 
L 256.62739 441.987097 
L 260.431936 458.284004 
L 264.236481 439.725898 
L 268.041027 458.809594 
L 271.845572 440.80823 
L 275.650118 458.942511 
L 279.454663 442.220054 
L 283.259208 458.735558 
L 287.063754 442.848528 
L 290.868299 460.578566 
L 294.672845 443.810147 
L 298.47739 459.348454 
L 302.281936 442.988949 
L 306.086481 459.427246 
L 309.891027 443.913208 
L 313.695572 459.493545 
L 317.500118 445.69441 
L 321.304663 462.45567 
L 325.109208 446.019555 
L 328.913754 463.279969 
L 332.718299 445.987791 
L 336.522845 464.237187 
L 340.32739 447.344297 
L 344.131936 463.461642 
L 347.936481 446.429657 
L 351.741027 462.483959 
L 355.545572 445.926071 
L 359.350118 461.734586 
L 363.154663 445.895503 
L 366.959208 462.90819 
L 370.763754 445.675621 
L 374.568299 462.829428 
L 378.372845 446.191499 
L 382.17739 462.14325 
L 385.981936 443.9808 
L 389.786481 461.825691 
L 393.591027 441.620893 
L 397.395572 459.670696 
L 401.200118 441.116978 
L 405.004663 458.851118 
L 408.809208 441.617406 
L 412.613754 458.936822 
L 416.418299 442.374822 
L 420.222845 458.450947 
L 424.02739 440.770629 
L 427.831936 458.520677 
L 431.636481 440.489681 
L 435.441027 457.020287 
L 439.245572 440.567257 
L 443.050118 458.398015 
L 446.854663 440.373085 
L 450.659208 457.139187 
L 454.463754 438.555254 
L 458.268299 456.921932 
L 462.072845 439.123734 
L 465.87739 455.136018 
L 469.681936 440.213687 
L 473.486481 457.744526 
L 477.291027 438.733429 
L 481.095572 457.99153 
L 484.900118 440.283924 
L 488.704663 457.916351 
L 492.509208 441.745641 
L 496.313754 457.741322 
L 500.118299 442.512846 
L 503.922845 459.630862 
L 507.72739 443.416431 
L 511.531936 459.977435 
L 515.336481 441.911088 
L 519.141027 459.017666 
L 522.945572 443.600867 
L 526.750118 457.912859 
L 530.554663 442.354797 
L 534.359208 459.353596 
L 538.163754 442.483714 
L 541.968299 458.470949 
L 545.772845 441.475719 
L 549.57739 459.9777 
L 553.381936 442.140034 
L 557.186481 460.187601 
L 560.991027 442.538555 
L 564.795572 461.176822 
L 568.600118 445.462831 
L 572.404663 460.966115 
L 576.209208 445.150096 
L 580.013754 461.84961 
L 583.818299 444.971703 
L 587.622845 461.917476 
L 591.42739 442.004743 
L 595.231936 461.744401 
L 599.036481 444.784364 
L 602.841027 461.514722 
L 606.645572 442.815633 
L 610.450118 461.953728 
L 614.254663 443.228402 
L 618.059208 460.29298 
L 621.863754 443.342113 
L 625.668299 459.941374 
L 629.472845 442.152561 
L 633.27739 459.248582 
L 637.081936 442.025134 
L 640.886481 460.550077 
L 644.691027 442.768785 
L 648.495572 460.545409 
L 652.300118 443.906399 
L 656.104663 461.277519 
L 659.909208 445.230829 
L 663.713754 462.261339 
L 667.518299 446.908021 
L 671.322845 462.447592 
L 675.12739 445.846622 
L 678.931936 461.403674 
L 682.736481 442.45112 
L 686.541027 460.615219 
L 690.345572 441.858568 
L 694.150118 460.124456 
L 697.954663 443.65357 
L 701.759208 459.959627 
L 705.563754 443.276929 
L 705.563754 443.276929 
" clip-path="url(#pc5ba06fe07)" style="fill: none; stroke: #0000ff; stroke-linecap: square"/>
   </g>
   <g id="line2d_17">
    <path d="M 96.836481 401.498559 
L 100.641027 387.206558 
L 104.445572 306.682215 
L 108.250118 293.78614 
L 112.054663 350.223905 
L 115.859208 400.639495 
L 119.663754 400.880828 
L 123.468299 441.262694 
L 127.272845 423.066274 
L 131.07739 413.607797 
L 134.881936 398.624883 
L 138.686481 414.181042 
L 146.295572 290.550024 
L 150.100118 306.194131 
L 153.904663 381.400966 
L 157.709208 381.360196 
L 161.513754 370.70162 
L 165.318299 353.444849 
L 169.122845 370.211864 
L 172.92739 396.557155 
L 176.731936 412.154149 
L 180.536481 389.211676 
L 184.341027 407.642996 
L 188.145572 417.192748 
L 191.950118 423.117922 
L 195.754663 414.39696 
L 199.559208 402.480992 
L 203.363754 386.689685 
L 207.168299 420.338861 
L 210.972845 418.180023 
L 214.77739 435.690082 
L 218.581936 431.446224 
L 222.386481 431.566218 
L 226.191027 395.479989 
L 229.995572 363.503647 
L 233.800118 351.241913 
L 237.604663 362.147783 
L 241.409208 346.756116 
L 245.213754 341.450811 
L 249.018299 294.740161 
L 252.822845 340.728464 
L 256.62739 351.603293 
L 260.431936 367.981834 
L 264.236481 403.788936 
L 268.041027 405.631152 
L 271.845572 386.276603 
L 275.650118 425.927776 
L 279.454663 406.693252 
L 283.259208 428.346994 
L 287.063754 420.867873 
L 290.868299 416.494131 
L 294.672845 394.404967 
L 298.47739 333.762034 
L 302.281936 324.352385 
L 306.086481 348.68582 
L 309.891027 333.105394 
L 313.695572 362.926803 
L 317.500118 391.853738 
L 321.304663 407.053972 
L 325.109208 370.253105 
L 328.913754 395.340681 
L 332.718299 382.031066 
L 336.522845 415.642701 
L 340.32739 427.48561 
L 344.131936 437.332095 
L 347.936481 418.014912 
L 351.741027 422.541497 
L 355.545572 419.684819 
L 359.350118 433.649831 
L 363.154663 382.43655 
L 366.959208 424.540195 
L 370.763754 381.469972 
L 374.568299 383.595185 
L 378.372845 407.729895 
L 382.17739 424.065323 
L 385.981936 392.240621 
L 389.786481 312.498432 
L 393.591027 366.258053 
L 397.395572 371.10867 
L 401.200118 384.742924 
L 405.004663 397.461324 
L 408.809208 419.890711 
L 412.613754 431.742037 
L 416.418299 416.056948 
L 420.222845 437.054286 
L 424.02739 425.409719 
L 427.831936 418.914121 
L 431.636481 366.925271 
L 435.441027 333.594785 
L 439.245572 362.085762 
L 443.050118 386.774393 
L 446.854663 392.620425 
L 450.659208 393.754582 
L 454.463754 323.806804 
L 458.268299 330.010812 
L 462.072845 397.081249 
L 465.87739 390.903193 
L 469.681936 413.551773 
L 473.486481 423.703259 
L 477.291027 392.902774 
L 481.095572 369.644621 
L 484.900118 373.396114 
L 488.704663 452.1282 
L 492.509208 433.521856 
L 496.313754 383.501383 
L 500.118299 362.8373 
L 503.922845 400.047397 
L 507.72739 404.438037 
L 511.531936 381.691161 
L 515.336481 313.918519 
L 519.141027 348.449094 
L 522.945572 355.987844 
L 526.750118 375.919401 
L 530.554663 386.747099 
L 534.359208 402.957838 
L 538.163754 408.608372 
L 541.968299 414.015366 
L 545.772845 423.339447 
L 549.57739 420.656055 
L 553.381936 422.386705 
L 557.186481 406.740795 
L 560.991027 424.806854 
L 564.795572 427.66233 
L 568.600118 434.445955 
L 572.404663 449.435419 
L 576.209208 431.0688 
L 580.013754 457.027255 
L 583.818299 443.984464 
L 587.622845 452.683457 
L 591.42739 402.179383 
L 595.231936 439.903201 
L 599.036481 362.141563 
L 602.841027 431.831022 
L 606.645572 422.044066 
L 614.254663 397.66085 
L 618.059208 395.996497 
L 621.863754 264.726895 
L 625.668299 283.147778 
L 629.472845 335.488348 
L 633.27739 357.443105 
L 637.081936 337.782719 
L 640.886481 374.25612 
L 644.691027 398.697234 
L 648.495572 398.443156 
L 652.300118 397.543476 
L 656.104663 379.181963 
L 659.909208 404.644242 
L 663.713754 429.122262 
L 667.518299 418.169928 
L 671.322845 419.373485 
L 675.12739 416.578374 
L 678.931936 414.506971 
L 682.736481 408.745724 
L 686.541027 440.745779 
L 690.345572 435.450753 
L 694.150118 415.892567 
L 697.954663 413.576693 
L 701.759208 425.076369 
L 705.563754 408.664173 
L 705.563754 408.664173 
" clip-path="url(#pc5ba06fe07)" style="fill: none; stroke: #ffa500; stroke-linecap: square"/>
   </g>
   <g id="line2d_18">
    <path d="M 96.836481 435.908721 
L 100.641027 437.312876 
L 104.445572 435.467792 
L 108.250118 436.841797 
L 112.054663 434.976569 
L 115.859208 437.662411 
L 119.663754 436.809296 
L 123.468299 440.574018 
L 127.272845 436.456074 
L 131.07739 439.764683 
L 134.881936 436.493675 
L 138.686481 438.490977 
L 142.491027 433.791153 
L 146.295572 437.269049 
L 150.100118 433.239412 
L 153.904663 436.233177 
L 157.709208 433.463357 
L 161.513754 436.994321 
L 165.318299 433.386571 
L 169.122845 436.112623 
L 172.92739 433.862862 
L 176.731936 437.146451 
L 180.536481 434.091844 
L 184.341027 437.113126 
L 188.145572 433.310774 
L 191.950118 432.859384 
L 195.754663 431.247063 
L 199.559208 434.510238 
L 203.363754 431.797591 
L 207.168299 435.84246 
L 210.972845 434.352512 
L 214.77739 434.894017 
L 218.581936 434.006028 
L 222.386481 435.068611 
L 226.191027 433.049263 
L 229.995572 432.871883 
L 233.800118 430.439925 
L 237.604663 431.97311 
L 241.409208 430.509926 
L 245.213754 433.1658 
L 249.018299 428.760947 
L 252.822845 430.834247 
L 256.62739 426.883646 
L 260.431936 429.435581 
L 264.236481 428.960385 
L 268.041027 429.98572 
L 271.845572 428.619519 
L 275.650118 430.869062 
L 283.259208 430.799061 
L 287.063754 429.846306 
L 290.868299 432.579473 
L 294.672845 429.058222 
L 298.47739 432.141219 
L 302.281936 430.793901 
L 306.086481 433.373872 
L 309.891027 430.571422 
L 313.695572 435.421309 
L 317.500118 434.620838 
L 321.304663 436.23624 
L 325.109208 434.271945 
L 328.913754 435.760095 
L 332.718299 435.550303 
L 336.522845 438.261855 
L 340.32739 434.727392 
L 344.131936 436.276556 
L 347.936481 433.861408 
L 351.741027 435.428012 
L 355.545572 433.358234 
L 359.350118 435.566253 
L 363.154663 433.777047 
L 366.959208 436.000415 
L 370.763754 432.459402 
L 374.568299 436.450178 
L 378.372845 432.897351 
L 382.17739 434.280585 
L 385.981936 430.628042 
L 389.786481 433.405236 
L 393.591027 430.650311 
L 397.395572 432.346988 
L 401.200118 430.672946 
L 405.004663 431.293128 
L 408.809208 430.407884 
L 412.613754 432.604152 
L 416.418299 428.125947 
L 420.222845 430.095201 
L 424.02739 426.902222 
L 427.831936 430.128214 
L 431.636481 426.336775 
L 435.441027 430.017843 
L 439.245572 429.193012 
L 443.050118 429.973817 
L 446.854663 427.549156 
L 450.659208 429.654402 
L 454.463754 425.719021 
L 458.268299 428.124592 
L 462.072845 424.577048 
L 465.87739 428.535276 
L 469.681936 426.085159 
L 473.486481 427.419284 
L 477.291027 427.43286 
L 481.095572 429.634854 
L 484.900118 426.681169 
L 488.704663 430.01961 
L 492.509208 426.999176 
L 496.313754 431.556035 
L 500.118299 431.520966 
L 503.922845 433.042884 
L 507.72739 431.233169 
L 511.531936 432.169908 
L 515.336481 431.08935 
L 519.141027 432.849542 
L 522.945572 429.373384 
L 526.750118 430.998221 
L 530.554663 429.196345 
L 534.359208 432.000574 
L 538.163754 427.446218 
L 541.968299 431.356998 
L 545.772845 427.787243 
L 549.57739 432.426124 
L 553.381936 431.558126 
L 557.186481 432.346269 
L 560.991027 432.302219 
L 564.795572 435.169298 
L 568.600118 432.209347 
L 572.404663 435.547606 
L 576.209208 432.804155 
L 580.013754 435.512838 
L 583.818299 432.383116 
L 587.622845 431.285913 
L 591.42739 430.690857 
L 595.231936 434.845437 
L 599.036481 431.244931 
L 602.841027 433.25406 
L 606.645572 432.346405 
L 610.450118 433.745442 
L 614.254663 431.175224 
L 618.059208 432.759315 
L 621.863754 429.713595 
L 625.668299 432.398642 
L 629.472845 430.084382 
L 633.27739 432.042575 
L 637.081936 429.307753 
L 640.886481 431.979335 
L 644.691027 430.88884 
L 648.495572 433.093455 
L 652.300118 432.075287 
L 656.104663 435.674863 
L 659.909208 432.66331 
L 663.713754 436.879115 
L 667.518299 432.153399 
L 671.322845 436.4487 
L 675.12739 432.304386 
L 678.931936 432.504071 
L 682.736481 430.459544 
L 686.541027 431.643452 
L 690.345572 428.717963 
L 694.150118 433.660928 
L 697.954663 432.838422 
L 701.759208 434.424987 
L 705.563754 432.593109 
L 705.563754 432.593109 
" clip-path="url(#pc5ba06fe07)" style="fill: none; stroke-dasharray: 3.7,1.6; stroke-dashoffset: 0; stroke: #0000ff"/>
   </g>
   <g id="line2d_19">
    <path d="M 96.836481 276.149507 
L 100.641027 168.290961 
L 104.445572 132.206846 
L 108.250118 158.972993 
L 115.859208 321.930722 
L 119.663754 363.875805 
L 123.468299 350.172699 
L 127.272845 341.034514 
L 131.07739 288.072949 
L 134.881936 295.217312 
L 138.686481 282.96432 
L 142.491027 183.448516 
L 146.295572 104.810127 
L 150.100118 197.29847 
L 153.904663 267.087562 
L 157.709208 328.125765 
L 161.513754 253.773871 
L 165.318299 213.160432 
L 169.122845 282.644687 
L 172.92739 344.446927 
L 176.731936 307.403702 
L 180.536481 327.848139 
L 184.341027 354.247193 
L 188.145572 416.690641 
L 191.950118 360.19863 
L 195.754663 354.963345 
L 199.559208 325.707683 
L 203.363754 364.655191 
L 207.168299 382.584268 
L 210.972845 389.653618 
L 214.77739 408.029773 
L 218.581936 388.15331 
L 222.386481 376.992362 
L 226.191027 279.223746 
L 229.995572 283.536723 
L 233.800118 290.776502 
L 237.604663 308.225271 
L 241.409208 285.693529 
L 245.213754 219.370801 
L 249.018299 291.154374 
L 252.822845 256.663544 
L 256.62739 326.164868 
L 260.431936 339.630565 
L 264.236481 373.336143 
L 268.041027 362.327566 
L 271.845572 382.264247 
L 275.650118 406.090987 
L 279.454663 374.346765 
L 283.259208 356.523729 
L 287.063754 361.441998 
L 290.868299 336.524709 
L 294.672845 259.399703 
L 298.47739 167.803207 
L 302.281936 151.931067 
L 306.086481 215.148269 
L 309.891027 242.218476 
L 313.695572 287.325876 
L 317.500118 335.333315 
L 321.304663 283.316794 
L 325.109208 259.817932 
L 328.913754 249.394881 
L 332.718299 259.612493 
L 336.522845 354.819526 
L 340.32739 397.877315 
L 344.131936 388.779111 
L 347.936481 394.888091 
L 351.741027 356.998972 
L 355.545572 386.452205 
L 359.350118 320.906989 
L 363.154663 302.141182 
L 366.959208 335.705532 
L 370.763754 305.431155 
L 374.568299 348.515508 
L 378.372845 362.839326 
L 382.17739 326.624185 
L 385.981936 246.611932 
L 389.786481 160.359331 
L 393.591027 195.267 
L 397.395572 203.768511 
L 401.200118 282.18669 
L 405.004663 367.844365 
L 408.809208 360.426015 
L 412.613754 377.205658 
L 416.418299 345.079889 
L 420.222845 369.512298 
L 424.02739 337.80139 
L 427.831936 275.511397 
L 431.636481 220.239488 
L 435.441027 238.1627 
L 439.245572 260.525661 
L 443.050118 308.773572 
L 446.854663 237.335359 
L 450.659208 245.135808 
L 454.463754 158.903775 
L 458.268299 222.508603 
L 462.072845 322.864611 
L 465.87739 347.380727 
L 469.681936 347.246673 
L 473.486481 326.282371 
L 477.291027 299.802095 
L 481.095572 316.483848 
L 484.900118 311.434683 
L 488.704663 382.615685 
L 492.509208 345.968685 
L 496.313754 267.252761 
L 500.118299 315.758461 
L 503.922845 337.216889 
L 507.72739 284.837469 
L 511.531936 269.490636 
L 515.336481 211.427698 
L 519.141027 266.023306 
L 522.945572 217.827556 
L 526.750118 284.385149 
L 530.554663 316.525254 
L 534.359208 304.461162 
L 538.163754 298.346374 
L 541.968299 283.59131 
L 549.57739 327.86542 
L 553.381936 354.026381 
L 557.186481 336.174944 
L 560.991027 381.290872 
L 564.795572 389.528752 
L 568.600118 388.747294 
L 572.404663 413.159589 
L 576.209208 432.12789 
L 580.013754 424.285699 
L 583.818299 409.241747 
L 587.622845 384.719553 
L 591.42739 391.925454 
L 595.231936 331.382531 
L 599.036481 310.768454 
L 602.841027 369.147785 
L 606.645572 329.828673 
L 610.450118 337.036282 
L 614.254663 352.531375 
L 618.059208 194.171057 
L 621.863754 61.037187 
L 625.668299 138.301442 
L 629.472845 209.030514 
L 633.27739 229.741927 
L 637.081936 278.044803 
L 640.886481 318.127044 
L 644.691027 332.331946 
L 648.495572 311.536495 
L 652.300118 308.258396 
L 656.104663 331.416893 
L 659.909208 371.948839 
L 663.713754 351.354446 
L 667.518299 343.211523 
L 671.322845 350.561573 
L 675.12739 321.704692 
L 678.931936 335.667589 
L 682.736481 345.266234 
L 686.541027 394.531552 
L 690.345572 379.716446 
L 694.150118 365.78784 
L 697.954663 387.295307 
L 701.759208 364.79921 
L 705.563754 312.604414 
L 705.563754 312.604414 
" clip-path="url(#pc5ba06fe07)" style="fill: none; stroke-dasharray: 3.7,1.6; stroke-dashoffset: 0; stroke: #ffa500"/>
   </g>
   <g id="patch_3">
    <path d="M 66.400118 484.397187 
L 66.400118 40.877187 
" style="fill: none; stroke: #000000; stroke-width: 0.8; stroke-linejoin: miter; stroke-linecap: square"/>
   </g>
   <g id="patch_4">
    <path d="M 736.000118 484.397187 
L 736.000118 40.877187 
" style="fill: none; stroke: #000000; stroke-width: 0.8; stroke-linejoin: miter; stroke-linecap: square"/>
   </g>
   <g id="patch_5">
    <path d="M 66.400118 484.397187 
L 736.000118 484.397187 
" style="fill: none; stroke: #000000; stroke-width: 0.8; stroke-linejoin: miter; stroke-linecap: square"/>
   </g>
   <g id="patch_6">
    <path d="M 66.400118 40.877187 
L 736.000118 40.877187 
" style="fill: none; stroke: #000000; stroke-width: 0.8; stroke-linejoin: miter; stroke-linecap: square"/>
   </g>
   <g id="text_18">
    <!-- Eastward wind speed two steps forward prediction: RMSES -->
    <g transform="translate(136.784336 20.877187) scale(0.18 -0.18)">
     <defs>
      <path id="DejaVuSans-77" d="M 269 3500 
L 844 3500 
L 1563 769 
L 2278 3500 
L 2956 3500 
L 3675 769 
L 4391 3500 
L 4966 3500 
L 4050 0 
L 3372 0 
L 2619 2869 
L 1863 0 
L 1184 0 
L 269 3500 
z
" transform="scale(0.015625)"/>
      <path id="DejaVuSans-69" d="M 603 3500 
L 1178 3500 
L 1178 0 
L 603 0 
L 603 3500 
z
M 603 4863 
L 1178 4863 
L 1178 4134 
L 603 4134 
L 603 4863 
z
" transform="scale(0.015625)"/>
      <path id="DejaVuSans-70" d="M 1159 525 
L 1159 -1331 
L 581 -1331 
L 581 3500 
L 1159 3500 
L 1159 2969 
Q 1341 3281 1617 3432 
Q 1894 3584 2278 3584 
Q 2916 3584 3314 3078 
Q 3713 2572 3713 1747 
Q 3713 922 3314 415 
Q 2916 -91 2278 -91 
Q 1894 -91 1617 61 
Q 1341 213 1159 525 
z
M 3116 1747 
Q 3116 2381 2855 2742 
Q 2594 3103 2138 3103 
Q 1681 3103 1420 2742 
Q 1159 2381 1159 1747 
Q 1159 1113 1420 752 
Q 1681 391 2138 391 
Q 2594 391 2855 752 
Q 3116 1113 3116 1747 
z
" transform="scale(0.015625)"/>
      <path id="DejaVuSans-66" d="M 2375 4863 
L 2375 4384 
L 1825 4384 
Q 1516 4384 1395 4259 
Q 1275 4134 1275 3809 
L 1275 3500 
L 2222 3500 
L 2222 3053 
L 1275 3053 
L 1275 0 
L 697 0 
L 697 3053 
L 147 3053 
L 147 3500 
L 697 3500 
L 697 3744 
Q 697 4328 969 4595 
Q 1241 4863 1831 4863 
L 2375 4863 
z
" transform="scale(0.015625)"/>
     </defs>
     <use xlink:href="#DejaVuSans-45"/>
     <use xlink:href="#DejaVuSans-61" transform="translate(63.183594 0)"/>
     <use xlink:href="#DejaVuSans-73" transform="translate(124.462891 0)"/>
     <use xlink:href="#DejaVuSans-74" transform="translate(176.5625 0)"/>
     <use xlink:href="#DejaVuSans-77" transform="translate(215.771484 0)"/>
     <use xlink:href="#DejaVuSans-61" transform="translate(297.558594 0)"/>
     <use xlink:href="#DejaVuSans-72" transform="translate(358.837891 0)"/>
     <use xlink:href="#DejaVuSans-64" transform="translate(398.201172 0)"/>
     <use xlink:href="#DejaVuSans-20" transform="translate(461.677734 0)"/>
     <use xlink:href="#DejaVuSans-77" transform="translate(493.464844 0)"/>
     <use xlink:href="#DejaVuSans-69" transform="translate(575.251953 0)"/>
     <use xlink:href="#DejaVuSans-6e" transform="translate(603.035156 0)"/>
     <use xlink:href="#DejaVuSans-64" transform="translate(666.414062 0)"/>
     <use xlink:href="#DejaVuSans-20" transform="translate(729.890625 0)"/>
     <use xlink:href="#DejaVuSans-73" transform="translate(761.677734 0)"/>
     <use xlink:href="#DejaVuSans-70" transform="translate(813.777344 0)"/>
     <use xlink:href="#DejaVuSans-65" transform="translate(877.253906 0)"/>
     <use xlink:href="#DejaVuSans-65" transform="translate(938.777344 0)"/>
     <use xlink:href="#DejaVuSans-64" transform="translate(1000.300781 0)"/>
     <use xlink:href="#DejaVuSans-20" transform="translate(1063.777344 0)"/>
     <use xlink:href="#DejaVuSans-74" transform="translate(1095.564453 0)"/>
     <use xlink:href="#DejaVuSans-77" transform="translate(1134.773438 0)"/>
     <use xlink:href="#DejaVuSans-6f" transform="translate(1216.560547 0)"/>
     <use xlink:href="#DejaVuSans-20" transform="translate(1277.742188 0)"/>
     <use xlink:href="#DejaVuSans-73" transform="translate(1309.529297 0)"/>
     <use xlink:href="#DejaVuSans-74" transform="translate(1361.628906 0)"/>
     <use xlink:href="#DejaVuSans-65" transform="translate(1400.837891 0)"/>
     <use xlink:href="#DejaVuSans-70" transform="translate(1462.361328 0)"/>
     <use xlink:href="#DejaVuSans-73" transform="translate(1525.837891 0)"/>
     <use xlink:href="#DejaVuSans-20" transform="translate(1577.9375 0)"/>
     <use xlink:href="#DejaVuSans-66" transform="translate(1609.724609 0)"/>
     <use xlink:href="#DejaVuSans-6f" transform="translate(1644.929688 0)"/>
     <use xlink:href="#DejaVuSans-72" transform="translate(1706.111328 0)"/>
     <use xlink:href="#DejaVuSans-77" transform="translate(1747.224609 0)"/>
     <use xlink:href="#DejaVuSans-61" transform="translate(1829.011719 0)"/>
     <use xlink:href="#DejaVuSans-72" transform="translate(1890.291016 0)"/>
     <use xlink:href="#DejaVuSans-64" transform="translate(1929.654297 0)"/>
     <use xlink:href="#DejaVuSans-20" transform="translate(1993.130859 0)"/>
     <use xlink:href="#DejaVuSans-70" transform="translate(2024.917969 0)"/>
     <use xlink:href="#DejaVuSans-72" transform="translate(2088.394531 0)"/>
     <use xlink:href="#DejaVuSans-65" transform="translate(2127.257812 0)"/>
     <use xlink:href="#DejaVuSans-64" transform="translate(2188.78125 0)"/>
     <use xlink:href="#DejaVuSans-69" transform="translate(2252.257812 0)"/>
     <use xlink:href="#DejaVuSans-63" transform="translate(2280.041016 0)"/>
     <use xlink:href="#DejaVuSans-74" transform="translate(2335.021484 0)"/>
     <use xlink:href="#DejaVuSans-69" transform="translate(2374.230469 0)"/>
     <use xlink:href="#DejaVuSans-6f" transform="translate(2402.013672 0)"/>
     <use xlink:href="#DejaVuSans-6e" transform="translate(2463.195312 0)"/>
     <use xlink:href="#DejaVuSans-3a" transform="translate(2526.574219 0)"/>
     <use xlink:href="#DejaVuSans-20" transform="translate(2560.265625 0)"/>
     <use xlink:href="#DejaVuSans-52" transform="translate(2592.052734 0)"/>
     <use xlink:href="#DejaVuSans-4d" transform="translate(2661.535156 0)"/>
     <use xlink:href="#DejaVuSans-53" transform="translate(2747.814453 0)"/>
     <use xlink:href="#DejaVuSans-45" transform="translate(2811.291016 0)"/>
     <use xlink:href="#DejaVuSans-53" transform="translate(2874.474609 0)"/>
    </g>
   </g>
   <g id="legend_1">
    <g id="text_19">
     <!-- Forecast Horizon -->
     <g transform="translate(852.099961 65.634687) scale(0.16 -0.16)">
      <defs>
       <path id="DejaVuSans-48" d="M 628 4666 
L 1259 4666 
L 1259 2753 
L 3553 2753 
L 3553 4666 
L 4184 4666 
L 4184 0 
L 3553 0 
L 3553 2222 
L 1259 2222 
L 1259 0 
L 628 0 
L 628 4666 
z
" transform="scale(0.015625)"/>
       <path id="DejaVuSans-7a" d="M 353 3500 
L 3084 3500 
L 3084 2975 
L 922 459 
L 3084 459 
L 3084 0 
L 275 0 
L 275 525 
L 2438 3041 
L 353 3041 
L 353 3500 
z
" transform="scale(0.015625)"/>
      </defs>
      <use xlink:href="#DejaVuSans-46"/>
      <use xlink:href="#DejaVuSans-6f" transform="translate(53.894531 0)"/>
      <use xlink:href="#DejaVuSans-72" transform="translate(115.076172 0)"/>
      <use xlink:href="#DejaVuSans-65" transform="translate(153.939453 0)"/>
      <use xlink:href="#DejaVuSans-63" transform="translate(215.462891 0)"/>
      <use xlink:href="#DejaVuSans-61" transform="translate(270.443359 0)"/>
      <use xlink:href="#DejaVuSans-73" transform="translate(331.722656 0)"/>
      <use xlink:href="#DejaVuSans-74" transform="translate(383.822266 0)"/>
      <use xlink:href="#DejaVuSans-20" transform="translate(423.03125 0)"/>
      <use xlink:href="#DejaVuSans-48" transform="translate(454.818359 0)"/>
      <use xlink:href="#DejaVuSans-6f" transform="translate(530.013672 0)"/>
      <use xlink:href="#DejaVuSans-72" transform="translate(591.195312 0)"/>
      <use xlink:href="#DejaVuSans-69" transform="translate(632.308594 0)"/>
      <use xlink:href="#DejaVuSans-7a" transform="translate(660.091797 0)"/>
      <use xlink:href="#DejaVuSans-6f" transform="translate(712.582031 0)"/>
      <use xlink:href="#DejaVuSans-6e" transform="translate(773.763672 0)"/>
     </g>
    </g>
    <g id="line2d_20">
     <path d="M 782.080118 81.7 
L 796.080118 81.7 
L 810.080118 81.7 
" style="fill: none; stroke: #0000ff; stroke-linecap: square"/>
    </g>
    <g id="text_20">
     <!-- Global RMSE (6h Forecast) -->
     <g transform="translate(821.280118 86.6) scale(0.14 -0.14)">
      <defs>
       <path id="DejaVuSans-47" d="M 3809 666 
L 3809 1919 
L 2778 1919 
L 2778 2438 
L 4434 2438 
L 4434 434 
Q 4069 175 3628 42 
Q 3188 -91 2688 -91 
Q 1594 -91 976 548 
Q 359 1188 359 2328 
Q 359 3472 976 4111 
Q 1594 4750 2688 4750 
Q 3144 4750 3555 4637 
Q 3966 4525 4313 4306 
L 4313 3634 
Q 3963 3931 3569 4081 
Q 3175 4231 2741 4231 
Q 1884 4231 1454 3753 
Q 1025 3275 1025 2328 
Q 1025 1384 1454 906 
Q 1884 428 2741 428 
Q 3075 428 3337 486 
Q 3600 544 3809 666 
z
" transform="scale(0.015625)"/>
       <path id="DejaVuSans-6c" d="M 603 4863 
L 1178 4863 
L 1178 0 
L 603 0 
L 603 4863 
z
" transform="scale(0.015625)"/>
       <path id="DejaVuSans-62" d="M 3116 1747 
Q 3116 2381 2855 2742 
Q 2594 3103 2138 3103 
Q 1681 3103 1420 2742 
Q 1159 2381 1159 1747 
Q 1159 1113 1420 752 
Q 1681 391 2138 391 
Q 2594 391 2855 752 
Q 3116 1113 3116 1747 
z
M 1159 2969 
Q 1341 3281 1617 3432 
Q 1894 3584 2278 3584 
Q 2916 3584 3314 3078 
Q 3713 2572 3713 1747 
Q 3713 922 3314 415 
Q 2916 -91 2278 -91 
Q 1894 -91 1617 61 
Q 1341 213 1159 525 
L 1159 0 
L 581 0 
L 581 4863 
L 1159 4863 
L 1159 2969 
z
" transform="scale(0.015625)"/>
       <path id="DejaVuSans-68" d="M 3513 2113 
L 3513 0 
L 2938 0 
L 2938 2094 
Q 2938 2591 2744 2837 
Q 2550 3084 2163 3084 
Q 1697 3084 1428 2787 
Q 1159 2491 1159 1978 
L 1159 0 
L 581 0 
L 581 4863 
L 1159 4863 
L 1159 2956 
Q 1366 3272 1645 3428 
Q 1925 3584 2291 3584 
Q 2894 3584 3203 3211 
Q 3513 2838 3513 2113 
z
" transform="scale(0.015625)"/>
      </defs>
      <use xlink:href="#DejaVuSans-47"/>
      <use xlink:href="#DejaVuSans-6c" transform="translate(77.490234 0)"/>
      <use xlink:href="#DejaVuSans-6f" transform="translate(105.273438 0)"/>
      <use xlink:href="#DejaVuSans-62" transform="translate(166.455078 0)"/>
      <use xlink:href="#DejaVuSans-61" transform="translate(229.931641 0)"/>
      <use xlink:href="#DejaVuSans-6c" transform="translate(291.210938 0)"/>
      <use xlink:href="#DejaVuSans-20" transform="translate(318.994141 0)"/>
      <use xlink:href="#DejaVuSans-52" transform="translate(350.78125 0)"/>
      <use xlink:href="#DejaVuSans-4d" transform="translate(420.263672 0)"/>
      <use xlink:href="#DejaVuSans-53" transform="translate(506.542969 0)"/>
      <use xlink:href="#DejaVuSans-45" transform="translate(570.019531 0)"/>
      <use xlink:href="#DejaVuSans-20" transform="translate(633.203125 0)"/>
      <use xlink:href="#DejaVuSans-28" transform="translate(664.990234 0)"/>
      <use xlink:href="#DejaVuSans-36" transform="translate(704.003906 0)"/>
      <use xlink:href="#DejaVuSans-68" transform="translate(767.626953 0)"/>
      <use xlink:href="#DejaVuSans-20" transform="translate(831.005859 0)"/>
      <use xlink:href="#DejaVuSans-46" transform="translate(862.792969 0)"/>
      <use xlink:href="#DejaVuSans-6f" transform="translate(916.6875 0)"/>
      <use xlink:href="#DejaVuSans-72" transform="translate(977.869141 0)"/>
      <use xlink:href="#DejaVuSans-65" transform="translate(1016.732422 0)"/>
      <use xlink:href="#DejaVuSans-63" transform="translate(1078.255859 0)"/>
      <use xlink:href="#DejaVuSans-61" transform="translate(1133.236328 0)"/>
      <use xlink:href="#DejaVuSans-73" transform="translate(1194.515625 0)"/>
      <use xlink:href="#DejaVuSans-74" transform="translate(1246.615234 0)"/>
      <use xlink:href="#DejaVuSans-29" transform="translate(1285.824219 0)"/>
     </g>
    </g>
    <g id="line2d_21">
     <path d="M 782.080118 102.249375 
L 796.080118 102.249375 
L 810.080118 102.249375 
" style="fill: none; stroke: #ffa500; stroke-linecap: square"/>
    </g>
    <g id="text_21">
     <!-- South Africa RMSE (6h Forecast) -->
     <g transform="translate(821.280118 107.149375) scale(0.14 -0.14)">
      <defs>
       <path id="DejaVuSans-41" d="M 2188 4044 
L 1331 1722 
L 3047 1722 
L 2188 4044 
z
M 1831 4666 
L 2547 4666 
L 4325 0 
L 3669 0 
L 3244 1197 
L 1141 1197 
L 716 0 
L 50 0 
L 1831 4666 
z
" transform="scale(0.015625)"/>
      </defs>
      <use xlink:href="#DejaVuSans-53"/>
      <use xlink:href="#DejaVuSans-6f" transform="translate(63.476562 0)"/>
      <use xlink:href="#DejaVuSans-75" transform="translate(124.658203 0)"/>
      <use xlink:href="#DejaVuSans-74" transform="translate(188.037109 0)"/>
      <use xlink:href="#DejaVuSans-68" transform="translate(227.246094 0)"/>
      <use xlink:href="#DejaVuSans-20" transform="translate(290.625 0)"/>
      <use xlink:href="#DejaVuSans-41" transform="translate(322.412109 0)"/>
      <use xlink:href="#DejaVuSans-66" transform="translate(387.195312 0)"/>
      <use xlink:href="#DejaVuSans-72" transform="translate(422.400391 0)"/>
      <use xlink:href="#DejaVuSans-69" transform="translate(463.513672 0)"/>
      <use xlink:href="#DejaVuSans-63" transform="translate(491.296875 0)"/>
      <use xlink:href="#DejaVuSans-61" transform="translate(546.277344 0)"/>
      <use xlink:href="#DejaVuSans-20" transform="translate(607.556641 0)"/>
      <use xlink:href="#DejaVuSans-52" transform="translate(639.34375 0)"/>
      <use xlink:href="#DejaVuSans-4d" transform="translate(708.826172 0)"/>
      <use xlink:href="#DejaVuSans-53" transform="translate(795.105469 0)"/>
      <use xlink:href="#DejaVuSans-45" transform="translate(858.582031 0)"/>
      <use xlink:href="#DejaVuSans-20" transform="translate(921.765625 0)"/>
      <use xlink:href="#DejaVuSans-28" transform="translate(953.552734 0)"/>
      <use xlink:href="#DejaVuSans-36" transform="translate(992.566406 0)"/>
      <use xlink:href="#DejaVuSans-68" transform="translate(1056.189453 0)"/>
      <use xlink:href="#DejaVuSans-20" transform="translate(1119.568359 0)"/>
      <use xlink:href="#DejaVuSans-46" transform="translate(1151.355469 0)"/>
      <use xlink:href="#DejaVuSans-6f" transform="translate(1205.25 0)"/>
      <use xlink:href="#DejaVuSans-72" transform="translate(1266.431641 0)"/>
      <use xlink:href="#DejaVuSans-65" transform="translate(1305.294922 0)"/>
      <use xlink:href="#DejaVuSans-63" transform="translate(1366.818359 0)"/>
      <use xlink:href="#DejaVuSans-61" transform="translate(1421.798828 0)"/>
      <use xlink:href="#DejaVuSans-73" transform="translate(1483.078125 0)"/>
      <use xlink:href="#DejaVuSans-74" transform="translate(1535.177734 0)"/>
      <use xlink:href="#DejaVuSans-29" transform="translate(1574.386719 0)"/>
     </g>
    </g>
    <g id="line2d_22">
     <path d="M 782.080118 122.79875 
L 796.080118 122.79875 
L 810.080118 122.79875 
" style="fill: none; stroke-dasharray: 3.7,1.6; stroke-dashoffset: 0; stroke: #0000ff"/>
    </g>
    <g id="text_22">
     <!-- Global RMSE (12h Forecast) -->
     <g transform="translate(821.280118 127.69875) scale(0.14 -0.14)">
      <use xlink:href="#DejaVuSans-47"/>
      <use xlink:href="#DejaVuSans-6c" transform="translate(77.490234 0)"/>
      <use xlink:href="#DejaVuSans-6f" transform="translate(105.273438 0)"/>
      <use xlink:href="#DejaVuSans-62" transform="translate(166.455078 0)"/>
      <use xlink:href="#DejaVuSans-61" transform="translate(229.931641 0)"/>
      <use xlink:href="#DejaVuSans-6c" transform="translate(291.210938 0)"/>
      <use xlink:href="#DejaVuSans-20" transform="translate(318.994141 0)"/>
      <use xlink:href="#DejaVuSans-52" transform="translate(350.78125 0)"/>
      <use xlink:href="#DejaVuSans-4d" transform="translate(420.263672 0)"/>
      <use xlink:href="#DejaVuSans-53" transform="translate(506.542969 0)"/>
      <use xlink:href="#DejaVuSans-45" transform="translate(570.019531 0)"/>
      <use xlink:href="#DejaVuSans-20" transform="translate(633.203125 0)"/>
      <use xlink:href="#DejaVuSans-28" transform="translate(664.990234 0)"/>
      <use xlink:href="#DejaVuSans-31" transform="translate(704.003906 0)"/>
      <use xlink:href="#DejaVuSans-32" transform="translate(767.626953 0)"/>
      <use xlink:href="#DejaVuSans-68" transform="translate(831.25 0)"/>
      <use xlink:href="#DejaVuSans-20" transform="translate(894.628906 0)"/>
      <use xlink:href="#DejaVuSans-46" transform="translate(926.416016 0)"/>
      <use xlink:href="#DejaVuSans-6f" transform="translate(980.310547 0)"/>
      <use xlink:href="#DejaVuSans-72" transform="translate(1041.492188 0)"/>
      <use xlink:href="#DejaVuSans-65" transform="translate(1080.355469 0)"/>
      <use xlink:href="#DejaVuSans-63" transform="translate(1141.878906 0)"/>
      <use xlink:href="#DejaVuSans-61" transform="translate(1196.859375 0)"/>
      <use xlink:href="#DejaVuSans-73" transform="translate(1258.138672 0)"/>
      <use xlink:href="#DejaVuSans-74" transform="translate(1310.238281 0)"/>
      <use xlink:href="#DejaVuSans-29" transform="translate(1349.447266 0)"/>
     </g>
    </g>
    <g id="line2d_23">
     <path d="M 782.080118 143.348125 
L 796.080118 143.348125 
L 810.080118 143.348125 
" style="fill: none; stroke-dasharray: 3.7,1.6; stroke-dashoffset: 0; stroke: #ffa500"/>
    </g>
    <g id="text_23">
     <!-- South Africa RMSE (12h Forecast) -->
     <g transform="translate(821.280118 148.248125) scale(0.14 -0.14)">
      <use xlink:href="#DejaVuSans-53"/>
      <use xlink:href="#DejaVuSans-6f" transform="translate(63.476562 0)"/>
      <use xlink:href="#DejaVuSans-75" transform="translate(124.658203 0)"/>
      <use xlink:href="#DejaVuSans-74" transform="translate(188.037109 0)"/>
      <use xlink:href="#DejaVuSans-68" transform="translate(227.246094 0)"/>
      <use xlink:href="#DejaVuSans-20" transform="translate(290.625 0)"/>
      <use xlink:href="#DejaVuSans-41" transform="translate(322.412109 0)"/>
      <use xlink:href="#DejaVuSans-66" transform="translate(387.195312 0)"/>
      <use xlink:href="#DejaVuSans-72" transform="translate(422.400391 0)"/>
      <use xlink:href="#DejaVuSans-69" transform="translate(463.513672 0)"/>
      <use xlink:href="#DejaVuSans-63" transform="translate(491.296875 0)"/>
      <use xlink:href="#DejaVuSans-61" transform="translate(546.277344 0)"/>
      <use xlink:href="#DejaVuSans-20" transform="translate(607.556641 0)"/>
      <use xlink:href="#DejaVuSans-52" transform="translate(639.34375 0)"/>
      <use xlink:href="#DejaVuSans-4d" transform="translate(708.826172 0)"/>
      <use xlink:href="#DejaVuSans-53" transform="translate(795.105469 0)"/>
      <use xlink:href="#DejaVuSans-45" transform="translate(858.582031 0)"/>
      <use xlink:href="#DejaVuSans-20" transform="translate(921.765625 0)"/>
      <use xlink:href="#DejaVuSans-28" transform="translate(953.552734 0)"/>
      <use xlink:href="#DejaVuSans-31" transform="translate(992.566406 0)"/>
      <use xlink:href="#DejaVuSans-32" transform="translate(1056.189453 0)"/>
      <use xlink:href="#DejaVuSans-68" transform="translate(1119.8125 0)"/>
      <use xlink:href="#DejaVuSans-20" transform="translate(1183.191406 0)"/>
      <use xlink:href="#DejaVuSans-46" transform="translate(1214.978516 0)"/>
      <use xlink:href="#DejaVuSans-6f" transform="translate(1268.873047 0)"/>
      <use xlink:href="#DejaVuSans-72" transform="translate(1330.054688 0)"/>
      <use xlink:href="#DejaVuSans-65" transform="translate(1368.917969 0)"/>
      <use xlink:href="#DejaVuSans-63" transform="translate(1430.441406 0)"/>
      <use xlink:href="#DejaVuSans-61" transform="translate(1485.421875 0)"/>
      <use xlink:href="#DejaVuSans-73" transform="translate(1546.701172 0)"/>
      <use xlink:href="#DejaVuSans-74" transform="translate(1598.800781 0)"/>
      <use xlink:href="#DejaVuSans-29" transform="translate(1638.009766 0)"/>
     </g>
    </g>
   </g>
  </g>
 </g>
 <defs>
  <clipPath id="pc5ba06fe07">
   <rect x="66.400118" y="40.877187" width="669.6" height="443.52"/>
  </clipPath>
 </defs>
</svg>
